ply
format ascii 1.0
comment VCGLIB generated
comment TextureFile UV_Test_750x750.png
element vertex 8
property float x
property float y
property float z
property float nx
property float ny
property float nz
property float texture_u
property float texture_v
element face 4
property list uchar int vertex_indices
end_header
-1 -1 8.742278e-08 -1.373234e-07 0 -1.570796 1 0
1 -1 -8.742278e-08 -1.373234e-07 0 -1.570796 0 0
-1 1 8.742278e-08 -1.373234e-07 0 -1.570796 1 1
1 1 -8.742278e-08 -1.373234e-07 0 -1.570796 0 1
1 -1 0 0 0 1.570796 1 0
-1 -1 0 0 0 1.570796 0 0
1 1 0 0 0 1.570796 1 1
-1 1 0 0 0 1.570796 0 1
3 3 1 0 
3 0 2 3 
3 7 5 4 
3 4 6 7 
