ply
format ascii 1.0
comment VCGLIB generated
element vertex 48
property float x
property float y
property float z
property float nx
property float ny
property float nz
element face 44
property list uchar int vertex_indices
end_header
0.5 -4.37114e-009 0.1 7.8009e-009 -1.95023e-009 0.044616 
0.386 -4.37114e-009 0.1 3.20912e-009 -8.02279e-010 0.018354 
0.245 0.161 0.1 1.22193e-008 -3.05481e-009 0.069886 
0.112 -4.37114e-009 0.1 3.15282e-009 -7.88204e-010 0.018032 
1.74846e-008 -4.37114e-009 0.1 8.92306e-009 -2.23077e-009 0.051034 
0.189 0.228 0.1 1.32222e-008 -3.30554e-009 0.075622 
1.74846e-008 0.449 0.1 4.32778e-009 -1.08194e-009 0.024752 
0.112 0.449 0.1 7.3937e-009 -1.84842e-009 0.042287 
0.245 0.295 0.1 1.1829e-008 -2.95725e-009 0.067654 
0.373 0.449 0.1 3.06958e-009 -7.67397e-010 0.017556 
0.487 0.449 0.1 7.43932e-009 -1.85983e-009 0.042548 
0.302 0.228 0.1 1.60555e-008 -4.01389e-009 0.091827 
0.5 4.37114e-009 -0.1 -7.8009e-009 1.95023e-009 -0.044616 
0.386 4.37114e-009 -0.1 -3.20912e-009 8.02279e-010 -0.018354 
0.245 0.161 -0.1 -1.22193e-008 3.05481e-009 -0.069886 
0.112 4.37114e-009 -0.1 -3.15282e-009 7.88204e-010 -0.018032 
-1.74846e-008 4.37114e-009 -0.1 -8.92306e-009 2.23077e-009 -0.051034 
0.189 0.228 -0.1 -1.32222e-008 3.30554e-009 -0.075622 
-1.74846e-008 0.449 -0.1 -4.32778e-009 1.08194e-009 -0.024752 
0.112 0.449 -0.1 -7.3937e-009 1.84842e-009 -0.042287 
0.245 0.295 -0.1 -1.1829e-008 2.95725e-009 -0.067654 
0.373 0.449 -0.1 -3.06958e-009 7.67397e-010 -0.017556 
0.487 0.449 -0.1 -7.43932e-009 1.85983e-009 -0.042548 
0.302 0.228 -0.1 -1.60555e-008 4.01389e-009 -0.091827 
0.5 4.37114e-009 -0.1 1.51007 0.311373 -2.50419e-007 
0.5 -4.37114e-009 0.1 0.755033 -1.34431 -1.90776e-007 
0.386 4.37114e-009 -0.1 -0.752287 -2.65884 1.53126e-008 
0.386 -4.37114e-009 0.1 -1.50457 -2.31767 1.61759e-007 
0.245 0.161 -0.1 -0.733613 -1.95455 4.28328e-008 
0.245 0.161 0.1 0.789636 -1.9326 -2.22541e-007 
0.112 4.37114e-009 -0.1 1.54192 -2.27376 -3.68988e-007 
0.112 -4.37114e-009 0.1 0.770962 -2.63688 -2.50061e-007 
-1.74846e-008 4.37114e-009 -0.1 -0.769879 -1.36181 7.50833e-008 
1.74846e-008 -4.37114e-009 0.1 -1.53976 0.276379 2.81301e-007 
0.189 0.228 -0.1 -2.29974 0.626437 4.29482e-007 
0.189 0.228 0.1 -2.28985 -0.661693 3.71446e-007 
-1.74846e-008 0.449 -0.1 -1.51997 -0.299883 2.52652e-007 
1.74846e-008 0.449 0.1 -0.759984 1.35006 1.91893e-007 
0.112 0.449 -0.1 0.756823 2.65362 -1.63338e-008 
0.112 0.449 0.1 1.51365 2.30724 -1.63802e-007 
0.245 0.295 -0.1 0.744607 1.94644 -4.51095e-008 
0.245 0.295 0.1 -0.781256 1.93202 2.21051e-007 
0.373 0.449 -0.1 -1.53808 2.2784 3.68518e-007 
0.373 0.449 0.1 -0.769039 2.6392 2.49827e-007 
0.487 0.449 -0.1 0.766797 1.35811 -7.47062e-008 
0.487 0.449 0.1 1.53359 -0.283778 -2.80546e-007 
0.302 0.228 -0.1 2.28863 -0.628092 -4.27611e-007 
0.302 0.228 0.1 2.27686 0.669484 -3.68835e-007 
3 5 7 6 
3 5 8 7 
3 8 10 9 
3 8 11 10 
3 5 11 8 
3 4 11 5 
3 4 2 11 
3 2 0 11 
3 4 3 2 
3 1 0 2 
3 19 17 18 
3 20 17 19 
3 22 20 21 
3 23 20 22 
3 23 17 20 
3 23 16 17 
3 14 16 23 
3 12 14 23 
3 15 16 14 
3 12 13 14 
3 25 27 26 
3 25 26 24 
3 27 29 28 
3 27 28 26 
3 29 31 30 
3 29 30 28 
3 31 33 32 
3 31 32 30 
3 33 35 34 
3 33 34 32 
3 35 37 36 
3 35 36 34 
3 37 39 38 
3 37 38 36 
3 39 41 40 
3 39 40 38 
3 41 43 42 
3 41 42 40 
3 43 45 44 
3 43 44 42 
3 45 47 46 
3 45 46 44 
3 47 25 24 
3 47 24 46 
