ply
format ascii 1.0
comment VCGLIB generated
element vertex 16
property float x
property float y
property float z
property float nx
property float ny
property float nz
element face 12
property list uchar int vertex_indices
end_header
0.04 0.174 0.1 7.90267e-009 -1.97567e-009 0.045198 
0.04 0.267 0.1 3.95134e-009 -9.87834e-010 0.022599 
0.283 0.267 0.1 7.90267e-009 -1.97567e-009 0.045198 
0.283 0.174 0.1 3.95134e-009 -9.87834e-010 0.022599 
0.04 0.174 -0.1 -7.90267e-009 1.97567e-009 -0.045198 
0.04 0.267 -0.1 -3.95134e-009 9.87834e-010 -0.022599 
0.283 0.267 -0.1 -7.90267e-009 1.97567e-009 -0.045198 
0.283 0.174 -0.1 -3.95134e-009 9.87834e-010 -0.022599 
0.04 0.174 -0.1 -1 -2 8.74228e-008 
0.04 0.174 0.1 -2 -1 3.0598e-007 
0.04 0.267 -0.1 -2 1 3.93403e-007 
0.04 0.267 0.1 -1 2 2.62269e-007 
0.283 0.267 -0.1 1 2 -8.74228e-008 
0.283 0.267 0.1 2 1 -3.0598e-007 
0.283 0.174 -0.1 2 -1 -3.93403e-007 
0.283 0.174 0.1 1 -2 -2.62269e-007 
3 0 2 1 
3 0 3 2 
3 6 4 5 
3 7 4 6 
3 9 11 10 
3 9 10 8 
3 11 13 12 
3 11 12 10 
3 13 15 14 
3 13 14 12 
3 15 9 8 
3 15 8 14 
