ply
format ascii 1.0
comment VCGLIB generated
element vertex 56
property float x
property float y
property float z
property float nx
property float ny
property float nz
element face 32
property list uchar int vertex_indices
end_header
0 0.02 0.0989602 -1.57644 0 0 
0 0.02 -0.1 -1.57644 0 0 
0 0.669271 -0.1 -1.57644 0 0 
0 0.669271 0.0989602 -1.57644 0 0 
0 0.669271 0.0989602 0 1.42221 0 
0 0.669271 -0.1 0 1.42221 0 
0.630177 0.669271 -0.1 0 1.42221 0 
0.630177 0.669271 0.0989602 0 1.42221 0 
0.630177 0.669271 0.0989602 1.57644 0 0 
0.630177 0.669271 -0.1 1.57644 0 0 
0.630177 0.02 -0.1 1.57644 0 0 
0.630177 0.02 0.0989602 1.57644 0 0 
0.630177 0.02 0.0989602 0 -1.42221 0 
0.630177 0.02 -0.1 0 -1.42221 0 
0 0.02 -0.1 0 -1.42221 0 
0 0.02 0.0989602 0 -1.42221 0 
0.586633 0.0592836 0.0989602 -1.57644 0 0 
0.586633 0.0592836 -0.1 -1.57644 0 0 
0.586633 0.629988 -0.1 -1.57644 0 0 
0.586633 0.629988 0.0989602 -1.57644 0 0 
0.586633 0.629988 0.0989602 0 -1.42221 0 
0.586633 0.629988 -0.1 0 -1.42221 0 
0.0435439 0.629988 -0.1 0 -1.42221 0 
0.0435439 0.629988 0.0989602 0 -1.42221 0 
0.0435439 0.629988 0.0989602 1.57644 0 0 
0.0435439 0.629988 -0.1 1.57644 0 0 
0.0435439 0.0592836 -0.1 1.57644 0 0 
0.0435439 0.0592836 0.0989602 1.57644 0 0 
0.0435439 0.0592836 0.0989602 0 1.42221 0 
0.0435439 0.0592836 -0.1 0 1.42221 0 
0.586633 0.0592836 -0.1 0 1.42221 0 
0.586633 0.0592836 0.0989602 0 1.42221 0 
0 0.02 0.0989602 0 0 0.864356 
0.0435439 0.0592836 0.0989602 0 0 2.59306 
0 0.669271 0.0989602 0 0 1.72871 
0.0435439 0.629988 0.0989602 0 0 5.18614 
0.630177 0.669271 0.0989602 0 0 1.72871 
0.586633 0.629988 0.0989602 0 0 5.18614 
0.630177 0.02 0.0989602 0 0 1.64717 
0.586633 0.0592836 0.0989602 0 0 5.18614 
0.0435439 0.0592836 0.0989602 0 0 0.0815397 
0.0435439 0.0592836 0.0989602 0 0 2.51152 
0 0.02 0.0989602 0 0 0.864356 
0.630177 0.02 0.0989602 0 0 0.0815397 
0 0.02 -0.1 0 0 -0.864356 
0.0435439 0.0592836 -0.1 0 0 -2.59306 
0 0.669271 -0.1 0 0 -1.72871 
0.0435439 0.629988 -0.1 0 0 -5.18614 
0.630177 0.669271 -0.1 0 0 -1.72871 
0.586633 0.629988 -0.1 0 0 -5.18614 
0.630177 0.02 -0.1 0 0 -1.64717 
0.586633 0.0592836 -0.1 0 0 -5.18614 
0.0435439 0.0592836 -0.1 0 0 -0.0815397 
0.0435439 0.0592836 -0.1 0 0 -2.51152 
0 0.02 -0.1 0 0 -0.864356 
0.630177 0.02 -0.1 0 0 -0.0815397 
3 0 2 1 
3 0 3 2 
3 4 6 5 
3 4 7 6 
3 8 10 9 
3 8 11 10 
3 12 14 13 
3 12 15 14 
3 16 18 17 
3 16 19 18 
3 20 22 21 
3 20 23 22 
3 24 26 25 
3 24 27 26 
3 28 30 29 
3 28 31 30 
3 32 33 34 
3 34 33 35 
3 34 35 36 
3 36 35 37 
3 36 37 38 
3 38 37 39 
3 38 39 40 
3 41 42 43 
3 44 46 45 
3 46 47 45 
3 46 48 47 
3 48 49 47 
3 48 50 49 
3 50 51 49 
3 50 52 51 
3 53 55 54 
