ply
format ascii 1.0
comment VCGLIB generated
element vertex 356
property float x
property float y
property float z
property float nx
property float ny
property float nz
element face 352
property list uchar int vertex_indices
end_header
0.034 -4.37114e-009 0.1 5.28733e-010 -1.32183e-010 0.003024 
0.034 0.007 0.1 2.32014e-009 -5.80037e-010 0.0132697 
0.053311 0.030404 0.1 3.6725e-009 -9.18126e-010 0.0210043 
0.073569 0.054981 0.1 3.83556e-009 -9.58892e-010 0.0219369 
0.094516 0.080531 0.1 9.02592e-009 -2.25648e-009 0.0516223 
0.115889 0.106852 0.1 9.32996e-010 -2.33249e-010 0.00533612 
0.137429 0.133742 0.1 1.72582e-009 -4.31454e-010 0.00987053 
0.158875 0.161 0.1 1.69213e-009 -4.23033e-010 0.00967787 
0.179967 0.188425 0.1 1.65443e-009 -4.13608e-010 0.00946224 
0.200444 0.215815 0.1 9.84278e-010 -2.4607e-010 0.00562942 
0.220047 0.242969 0.1 1.60071e-009 -4.00178e-010 0.00915499 
0.238514 0.269685 0.1 1.54175e-009 -3.85439e-010 0.00881781 
0.255585 0.295763 0.1 1.47524e-009 -3.68811e-010 0.00843741 
0.271 0.321 0.1 6.91564e-010 -1.72891e-010 0.00395529 
0.278667 0.334338 0.1 9.78772e-010 -2.44693e-010 0.00559792 
0.285667 0.346954 0.1 4.3556e-010 -1.0889e-010 0.00249111 
0.292 0.359 0.1 9.02242e-010 -2.25561e-010 0.00516022 
0.297667 0.37063 0.1 3.97514e-010 -9.93783e-011 0.00227351 
0.302667 0.381995 0.1 3.89486e-010 -9.73715e-011 0.0022276 
0.307 0.39325 0.1 8.50376e-010 -2.12594e-010 0.00486358 
0.310667 0.404546 0.1 3.86254e-010 -9.65634e-011 0.00220911 
0.313667 0.416037 0.1 8.50022e-010 -2.12506e-010 0.00486156 
0.316 0.427875 0.1 4.08226e-010 -1.02057e-010 0.00233478 
0.317667 0.440213 0.1 8.8585e-010 -2.21462e-010 0.00506647 
0.318667 0.453204 0.1 4.55223e-010 -1.13806e-010 0.00260357 
0.319 0.467 0.1 1.01705e-009 -2.54262e-010 0.00581685 
0.317977 0.485274 0.1 6.09931e-010 -1.52483e-010 0.0034884 
0.314986 0.502523 0.1 1.12201e-009 -2.80503e-010 0.00641716 
0.310141 0.518641 0.1 5.49708e-010 -1.37427e-010 0.00314396 
0.303556 0.533518 0.1 1.06137e-009 -2.65343e-010 0.00607033 
0.295345 0.547049 0.1 4.84092e-010 -1.21023e-010 0.00276868 
0.285625 0.559125 0.1 1.0044e-009 -2.511e-010 0.00574451 
0.274509 0.569638 0.1 4.09403e-010 -1.02351e-010 0.00234151 
0.262111 0.578481 0.1 3.24806e-010 -8.12015e-011 0.00185767 
0.248547 0.585547 0.1 8.99196e-010 -2.24799e-010 0.0051428 
0.233931 0.590727 0.1 2.20976e-010 -5.52438e-011 0.00126383 
0.218377 0.593914 0.1 1.02333e-010 -2.55832e-011 0.000585275 
0.202 0.595 0.1 7.67242e-010 -1.9181e-010 0.00438811 
0.189727 0.594527 0.1 1.57769e-009 -3.94423e-010 0.00902334 
0.177398 0.593046 0.1 2.34284e-010 -5.85711e-011 0.00133995 
0.165 0.590469 0.1 2.84297e-010 -7.10742e-011 0.00162599 
0.152519 0.586704 0.1 3.33144e-010 -8.32861e-011 0.00190536 
0.13994 0.581661 0.1 3.80024e-010 -9.50059e-011 0.00217348 
0.12725 0.57525 0.1 4.24186e-010 -1.06047e-010 0.00242606 
0.114435 0.567381 0.1 4.64918e-010 -1.16229e-010 0.00265902 
0.101481 0.557963 0.1 5.0147e-010 -1.25367e-010 0.00286807 
0.088375 0.546906 0.1 5.33118e-010 -1.3328e-010 0.00304908 
0.075102 0.53412 0.1 5.59161e-010 -1.3979e-010 0.00319803 
0.061648 0.519515 0.1 5.78858e-010 -1.44715e-010 0.00331068 
0.048 0.503 0.1 2.93514e-010 -7.33785e-011 0.0016787 
0.048 0.626 0.1 5.46305e-009 -1.36576e-009 0.031245 
0.061671 0.636522 0.1 1.06771e-009 -2.66927e-010 0.00610657 
0.075204 0.646093 0.1 1.71578e-009 -4.28944e-010 0.00981309 
0.088625 0.654719 0.1 7.41777e-010 -1.85444e-010 0.00424247 
0.101963 0.662407 0.1 1.15831e-009 -2.89577e-010 0.00662475 
0.115245 0.669166 0.1 4.70537e-010 -1.17634e-010 0.00269116 
0.1285 0.675 0.1 6.9768e-010 -1.7442e-010 0.00399026 
0.141755 0.679918 0.1 2.5744e-010 -6.436e-011 0.00147238 
0.155037 0.683926 0.1 3.44855e-010 -8.62138e-011 0.00197234 
0.168375 0.687031 0.1 1.58321e-010 -3.95802e-011 0.00090549 
0.181796 0.689241 0.1 3.53867e-011 -8.84668e-012 0.000202388 
0.195329 0.690561 0.1 1.98121e-011 -4.95302e-012 0.000113312 
0.209 0.691 0.1 6.56402e-012 -1.64101e-012 3.75418e-005 
0.238931 0.689215 0.1 1.17394e-010 -2.93484e-011 0.000671413 
0.267116 0.683972 0.1 3.03631e-010 -7.59077e-011 0.00173657 
0.293391 0.675438 0.1 7.62904e-010 -1.90726e-010 0.0043633 
0.317593 0.663778 0.1 1.36494e-009 -3.41236e-010 0.00780657 
0.339558 0.64916 0.1 2.11338e-009 -5.28343e-010 0.0120871 
0.359125 0.63175 0.1 2.98988e-009 -7.47471e-010 0.0171001 
0.376129 0.611715 0.1 3.30666e-009 -8.26665e-010 0.0189119 
0.390407 0.589222 0.1 1.5888e-009 -3.972e-010 0.00908689 
0.401797 0.564438 0.1 1.72507e-009 -4.31268e-010 0.00986625 
0.410134 0.537528 0.1 1.57997e-009 -3.94993e-010 0.00903639 
0.415256 0.50866 0.1 1.63064e-009 -4.0766e-010 0.00932617 
0.417 0.478 0.1 1.617e-009 -4.04249e-010 0.00924815 
0.415731 0.450564 0.1 1.37976e-009 -3.4494e-010 0.00789131 
0.411852 0.423509 0.1 1.32067e-009 -3.30167e-010 0.00755334 
0.40525 0.396469 0.1 1.30713e-009 -3.26782e-010 0.00747589 
0.395815 0.369074 0.1 1.54447e-009 -3.86117e-010 0.00883332 
0.383435 0.340957 0.1 1.44128e-009 -3.6032e-010 0.00824316 
0.368 0.31175 0.1 1.75945e-009 -4.39863e-010 0.0100629 
0.349398 0.281085 0.1 1.60862e-009 -4.02156e-010 0.00920026 
0.327519 0.248593 0.1 1.69715e-009 -4.24287e-010 0.00970655 
0.30225 0.213906 0.1 2.27946e-009 -5.69867e-010 0.013037 
0.273481 0.176657 0.1 1.87653e-009 -4.69132e-010 0.0107325 
0.241102 0.136478 0.1 1.97117e-009 -4.92792e-010 0.0112738 
0.205 0.093 0.1 2.27286e-009 -5.68215e-010 0.0129992 
0.466 0.093 0.1 6.60958e-009 -1.6524e-009 0.0378024 
0.466 -4.37114e-009 0.1 1.21963e-008 -3.04907e-009 0.0697546 
0.034 4.37114e-009 -0.1 -5.28733e-010 1.32183e-010 -0.003024 
0.034 0.007 -0.1 -2.32014e-009 5.80037e-010 -0.0132697 
0.053311 0.030404 -0.1 -3.6725e-009 9.18126e-010 -0.0210043 
0.073569 0.054981 -0.1 -3.83556e-009 9.58892e-010 -0.0219369 
0.094516 0.080531 -0.1 -9.02592e-009 2.25648e-009 -0.0516223 
0.115889 0.106852 -0.1 -9.32996e-010 2.33249e-010 -0.00533612 
0.137429 0.133742 -0.1 -1.72582e-009 4.31455e-010 -0.00987053 
0.158875 0.161 -0.1 -1.69213e-009 4.23033e-010 -0.00967787 
0.179967 0.188425 -0.1 -1.65443e-009 4.13608e-010 -0.00946224 
0.200444 0.215815 -0.1 -9.84278e-010 2.4607e-010 -0.00562942 
0.220047 0.242969 -0.1 -1.60071e-009 4.00178e-010 -0.00915499 
0.238514 0.269685 -0.1 -1.54175e-009 3.85439e-010 -0.00881781 
0.255585 0.295763 -0.1 -1.47524e-009 3.68811e-010 -0.00843741 
0.271 0.321 -0.1 -6.91564e-010 1.72891e-010 -0.00395529 
0.278667 0.334338 -0.1 -9.78772e-010 2.44693e-010 -0.00559792 
0.285667 0.346954 -0.1 -4.3556e-010 1.0889e-010 -0.00249111 
0.292 0.359 -0.1 -9.02242e-010 2.25561e-010 -0.00516022 
0.297667 0.37063 -0.1 -3.97514e-010 9.93783e-011 -0.00227351 
0.302667 0.381995 -0.1 -3.89486e-010 9.73715e-011 -0.0022276 
0.307 0.39325 -0.1 -8.50376e-010 2.12594e-010 -0.00486358 
0.310667 0.404546 -0.1 -3.86254e-010 9.65634e-011 -0.00220911 
0.313667 0.416037 -0.1 -8.50022e-010 2.12506e-010 -0.00486156 
0.316 0.427875 -0.1 -4.08226e-010 1.02057e-010 -0.00233478 
0.317667 0.440213 -0.1 -8.8585e-010 2.21462e-010 -0.00506647 
0.318667 0.453204 -0.1 -4.55223e-010 1.13806e-010 -0.00260357 
0.319 0.467 -0.1 -1.01705e-009 2.54262e-010 -0.00581684 
0.317977 0.485274 -0.1 -6.09931e-010 1.52483e-010 -0.0034884 
0.314986 0.502523 -0.1 -1.12201e-009 2.80503e-010 -0.00641716 
0.310141 0.518641 -0.1 -5.49708e-010 1.37427e-010 -0.00314396 
0.303556 0.533518 -0.1 -1.06137e-009 2.65343e-010 -0.00607033 
0.295345 0.547049 -0.1 -4.84092e-010 1.21023e-010 -0.00276868 
0.285625 0.559125 -0.1 -1.0044e-009 2.511e-010 -0.00574451 
0.274509 0.569638 -0.1 -4.09403e-010 1.02351e-010 -0.00234151 
0.262111 0.578481 -0.1 -3.24806e-010 8.12015e-011 -0.00185767 
0.248547 0.585547 -0.1 -8.99196e-010 2.24799e-010 -0.0051428 
0.233931 0.590727 -0.1 -2.20976e-010 5.52438e-011 -0.00126383 
0.218377 0.593914 -0.1 -1.02333e-010 2.55832e-011 -0.000585275 
0.202 0.595 -0.1 -7.67242e-010 1.9181e-010 -0.00438811 
0.189727 0.594527 -0.1 -1.57769e-009 3.94423e-010 -0.00902334 
0.177398 0.593046 -0.1 -2.34284e-010 5.85711e-011 -0.00133995 
0.165 0.590469 -0.1 -2.84297e-010 7.10742e-011 -0.00162599 
0.152519 0.586704 -0.1 -3.33144e-010 8.32861e-011 -0.00190536 
0.13994 0.581661 -0.1 -3.80024e-010 9.50059e-011 -0.00217348 
0.12725 0.57525 -0.1 -4.24186e-010 1.06047e-010 -0.00242606 
0.114435 0.567381 -0.1 -4.64918e-010 1.16229e-010 -0.00265902 
0.101481 0.557963 -0.1 -5.0147e-010 1.25367e-010 -0.00286807 
0.088375 0.546906 -0.1 -5.33118e-010 1.3328e-010 -0.00304908 
0.075102 0.53412 -0.1 -5.59161e-010 1.3979e-010 -0.00319803 
0.061648 0.519515 -0.1 -5.78858e-010 1.44715e-010 -0.00331068 
0.048 0.503 -0.1 -2.93514e-010 7.33785e-011 -0.0016787 
0.048 0.626 -0.1 -5.46305e-009 1.36576e-009 -0.031245 
0.061671 0.636522 -0.1 -1.06771e-009 2.66927e-010 -0.00610657 
0.075204 0.646093 -0.1 -1.71578e-009 4.28944e-010 -0.00981309 
0.088625 0.654719 -0.1 -7.41777e-010 1.85444e-010 -0.00424247 
0.101963 0.662407 -0.1 -1.15831e-009 2.89577e-010 -0.00662475 
0.115245 0.669166 -0.1 -4.70537e-010 1.17634e-010 -0.00269116 
0.1285 0.675 -0.1 -6.9768e-010 1.7442e-010 -0.00399026 
0.141755 0.679918 -0.1 -2.5744e-010 6.436e-011 -0.00147238 
0.155037 0.683926 -0.1 -3.44855e-010 8.62138e-011 -0.00197234 
0.168375 0.687031 -0.1 -1.58321e-010 3.95803e-011 -0.000905491 
0.181796 0.689241 -0.1 -3.53867e-011 8.84668e-012 -0.000202388 
0.195329 0.690561 -0.1 -1.98121e-011 4.95302e-012 -0.000113312 
0.209 0.691 -0.1 -6.56402e-012 1.64101e-012 -3.75418e-005 
0.238931 0.689215 -0.1 -1.17394e-010 2.93484e-011 -0.000671413 
0.267116 0.683972 -0.1 -3.03631e-010 7.59077e-011 -0.00173657 
0.293391 0.675438 -0.1 -7.62904e-010 1.90726e-010 -0.0043633 
0.317593 0.663778 -0.1 -1.36494e-009 3.41236e-010 -0.00780657 
0.339558 0.64916 -0.1 -2.11338e-009 5.28343e-010 -0.0120871 
0.359125 0.63175 -0.1 -2.98988e-009 7.47471e-010 -0.0171001 
0.376129 0.611715 -0.1 -3.30666e-009 8.26665e-010 -0.0189119 
0.390407 0.589222 -0.1 -1.5888e-009 3.972e-010 -0.00908689 
0.401797 0.564438 -0.1 -1.72507e-009 4.31268e-010 -0.00986625 
0.410134 0.537528 -0.1 -1.57997e-009 3.94993e-010 -0.00903639 
0.415256 0.50866 -0.1 -1.63064e-009 4.0766e-010 -0.00932617 
0.417 0.478 -0.1 -1.617e-009 4.04249e-010 -0.00924815 
0.415731 0.450564 -0.1 -1.37976e-009 3.4494e-010 -0.00789131 
0.411852 0.423509 -0.1 -1.32067e-009 3.30167e-010 -0.00755334 
0.40525 0.396469 -0.1 -1.30713e-009 3.26782e-010 -0.00747589 
0.395815 0.369074 -0.1 -1.54447e-009 3.86117e-010 -0.00883332 
0.383435 0.340957 -0.1 -1.44128e-009 3.6032e-010 -0.00824316 
0.368 0.31175 -0.1 -1.75945e-009 4.39863e-010 -0.0100629 
0.349398 0.281085 -0.1 -1.60862e-009 4.02156e-010 -0.00920026 
0.327519 0.248593 -0.1 -1.69715e-009 4.24287e-010 -0.00970655 
0.30225 0.213906 -0.1 -2.27946e-009 5.69867e-010 -0.013037 
0.273481 0.176657 -0.1 -1.87653e-009 4.69132e-010 -0.0107325 
0.241102 0.136478 -0.1 -1.97117e-009 4.92792e-010 -0.0112738 
0.205 0.093 -0.1 -2.27286e-009 5.68215e-010 -0.0129992 
0.466 0.093 -0.1 -6.60958e-009 1.6524e-009 -0.0378024 
0.466 4.37114e-009 -0.1 -1.21963e-008 3.04907e-009 -0.0697546 
0.034 4.37114e-009 -0.1 -1 -2 8.74228e-008 
0.034 -4.37114e-009 0.1 -2 -1 3.0598e-007 
0.034 0.007 -0.1 -2.77133 0.636436 5.12374e-007 
0.034 0.007 0.1 -2.54266 1.27287 5.00211e-007 
0.053311 0.030404 -0.1 -2.31431 1.90892 4.88088e-007 
0.053311 0.030404 0.1 -2.31463 1.90853 4.88127e-007 
0.073569 0.054981 -0.1 -2.31663 1.9061 4.8837e-007 
0.073569 0.054981 0.1 -2.31831 1.90406 4.88575e-007 
0.094516 0.080531 -0.1 -2.32295 1.89838 4.89139e-007 
0.094516 0.080531 0.1 -2.32592 1.89474 4.89498e-007 
0.115889 0.106852 -0.1 -2.33307 1.88592 4.90363e-007 
0.115889 0.106852 0.1 -2.33724 1.88075 4.90866e-007 
0.137429 0.133742 -0.1 -2.34686 1.86872 4.92022e-007 
0.137429 0.133742 0.1 -2.3523 1.86187 4.92674e-007 
0.158875 0.161 -0.1 -2.36451 1.84631 4.94128e-007 
0.158875 0.161 0.1 -2.37128 1.83761 4.94932e-007 
0.179967 0.188425 -0.1 -2.38628 1.81804 4.967e-007 
0.179967 0.188425 0.1 -2.39452 1.80718 4.97666e-007 
0.200444 0.215815 -0.1 -2.41263 1.78288 4.9977e-007 
0.200444 0.215815 0.1 -2.42251 1.76943 5.0091e-007 
0.220047 0.242969 -0.1 -2.4442 1.73927 5.03383e-007 
0.220047 0.242969 0.1 -2.45601 1.72255 5.04717e-007 
0.238514 0.269685 -0.1 -2.48189 1.68493 5.07598e-007 
0.238514 0.269685 0.1 -2.49596 1.66401 5.09144e-007 
0.255585 0.295763 -0.1 -2.52675 1.61666 5.12458e-007 
0.255585 0.295763 0.1 -2.54347 1.59022 5.14225e-007 
0.271 0.321 -0.1 -2.57377 1.54088 5.17366e-007 
0.271 0.321 0.1 -2.58734 1.51798 5.18737e-007 
0.278667 0.334338 -0.1 -2.60836 1.48189 5.20836e-007 
0.278667 0.334338 0.1 -2.61581 1.4687 5.21561e-007 
0.285667 0.346954 -0.1 -2.63397 1.43569 5.23294e-007 
0.285667 0.346954 0.1 -2.64468 1.41586 5.24299e-007 
0.292 0.359 -0.1 -2.66922 1.36872 5.2653e-007 
0.292 0.359 0.1 -2.68304 1.34142 5.27753e-007 
0.297667 0.37063 -0.1 -2.71325 1.27877 5.30296e-007 
0.297667 0.37063 0.1 -2.72962 1.24343 5.31614e-007 
0.302667 0.381995 -0.1 -2.7639 1.16468 5.34165e-007 
0.302667 0.381995 0.1 -2.78179 1.12126 5.35396e-007 
0.307 0.39325 -0.1 -2.8176 1.02733 5.3755e-007 
0.307 0.39325 0.1 -2.83551 0.976812 5.38474e-007 
0.310667 0.404546 -0.1 -2.86985 0.870138 5.39815e-007 
0.310667 0.404546 0.1 -2.88628 0.813978 5.40233e-007 
0.313667 0.416037 -0.1 -2.91627 0.698571 5.40432e-007 
0.313667 0.416037 0.1 -2.92982 0.639324 5.40212e-007 
0.316 0.427875 -0.1 -2.95325 0.520612 5.39119e-007 
0.316 0.427875 0.1 -2.96312 0.461147 5.38245e-007 
0.317667 0.440213 -0.1 -2.97904 0.344536 5.35932e-007 
0.317667 0.440213 0.1 -2.9851 0.287391 5.34494e-007 
0.318667 0.453204 -0.1 -2.99381 0.177628 5.31218e-007 
0.318667 0.453204 0.1 -2.99647 0.125011 5.29384e-007 
0.319 0.467 -0.1 -2.99785 -0.00763101 5.23827e-007 
0.319 0.467 0.1 -2.99658 -0.0876556 5.20107e-007 
0.317977 0.485274 -0.1 -2.98217 -0.28264 5.09065e-007 
0.317977 0.485274 0.1 -2.96903 -0.397599 5.01742e-007 
0.314986 0.502523 -0.1 -2.92826 -0.629576 4.84474e-007 
0.314986 0.502523 0.1 -2.90063 -0.746595 4.74528e-007 
0.310141 0.518641 -0.1 -2.82976 -0.980494 4.51912e-007 
0.310141 0.518641 0.1 -2.78652 -1.09737 4.39243e-007 
0.303556 0.533518 -0.1 -2.68376 -1.32829 4.11182e-007 
0.303556 0.533518 0.1 -2.62424 -1.44232 3.95791e-007 
0.295345 0.547049 -0.1 -2.48882 -1.66458 3.62398e-007 
0.295345 0.547049 0.1 -2.41291 -1.77282 3.44394e-007 
0.285625 0.559125 -0.1 -2.24513 -1.98058 3.05977e-007 
0.285625 0.559125 0.1 -2.15326 -2.0801 2.85564e-007 
0.274509 0.569638 -0.1 -1.95494 -2.2672 2.4271e-007 
0.274509 0.569638 0.1 -1.8485 -2.35479 2.2027e-007 
0.262111 0.578481 -0.1 -1.62338 -2.51513 1.739e-007 
0.262111 0.578481 0.1 -1.50469 -2.58788 1.49969e-007 
0.248547 0.585547 -0.1 -1.25806 -2.71631 1.01232e-007 
0.248547 0.585547 0.1 -1.1301 -2.77199 7.64255e-008 
0.233931 0.590727 -0.1 -0.868824 -2.86476 2.66874e-008 
0.233931 0.590727 0.1 -0.735505 -2.90185 1.75589e-009 
0.218377 0.593914 -0.1 -0.467628 -2.9571 -4.74964e-008 
0.218377 0.593914 0.1 -0.33307 -2.97526 -7.18171e-008 
0.202 0.595 -0.1 -0.0938282 -2.99487 -1.14504e-007 
0.202 0.595 0.1 0.0108555 -2.99632 -1.32872e-007 
0.189727 0.594527 -0.1 0.196292 -2.99138 -1.65078e-007 
0.189727 0.594527 0.1 0.277044 -2.98498 -1.78918e-007 
0.177398 0.593046 -0.1 0.442038 -2.9648 -2.06884e-007 
0.177398 0.593046 0.1 0.52628 -2.95101 -2.21011e-007 
0.165 0.590469 -0.1 0.695817 -2.91554 -2.49102e-007 
0.165 0.590469 0.1 0.781114 -2.89385 -2.63068e-007 
0.152519 0.586704 -0.1 0.949724 -2.84296 -2.90325e-007 
0.152519 0.586704 0.1 1.03304 -2.81376 -3.03615e-007 
0.13994 0.581661 -0.1 1.19516 -2.74894 -3.29128e-007 
0.13994 0.581661 0.1 1.27396 -2.71331 -3.41349e-007 
0.12725 0.57525 -0.1 1.42511 -2.63729 -3.64454e-007 
0.12725 0.57525 0.1 1.49746 -2.5969 -3.75338e-007 
0.114435 0.567381 -0.1 1.63459 -2.51316 -3.95654e-007 
0.114435 0.567381 0.1 1.69936 -2.46982 -4.05085e-007 
0.101481 0.557963 -0.1 1.82092 -2.38198 -4.225e-007 
0.101481 0.557963 0.1 1.87771 -2.33748 -4.30484e-007 
0.088375 0.546906 -0.1 1.98343 -2.24885 -4.45094e-007 
0.088375 0.546906 0.1 2.03237 -2.20472 -4.51722e-007 
0.075102 0.53412 -0.1 2.12304 -2.11792 -4.63781e-007 
0.075102 0.53412 0.1 2.16476 -2.07526 -4.69211e-007 
0.061648 0.519515 -0.1 2.24183 -1.99209 -4.79051e-007 
0.061648 0.519515 0.1 2.27718 -1.95158 -4.83461e-007 
0.048 0.503 -0.1 0.541685 -1.27405 -1.50402e-007 
0.048 0.503 0.1 -1.22916 -0.637026 1.87068e-007 
0.048 0.626 -0.1 -2.60992 0.79246 4.90972e-007 
0.048 0.626 0.1 -2.21985 1.58492 4.57409e-007 
0.061671 0.636522 -0.1 -1.79727 2.40137 4.19211e-007 
0.061671 0.636522 0.1 -1.76476 2.42535 4.14576e-007 
0.075204 0.646093 -0.1 -1.69552 2.47412 4.04601e-007 
0.075204 0.646093 0.1 -1.65878 2.49891 3.9926e-007 
0.088625 0.654719 -0.1 -1.58074 2.54884 3.87799e-007 
0.088625 0.654719 0.1 -1.53944 2.574 3.81677e-007 
0.101963 0.662407 -0.1 -1.4523 2.624 3.68627e-007 
0.101963 0.662407 0.1 -1.40646 2.64886 3.61699e-007 
0.115245 0.669166 -0.1 -1.30992 2.69774 3.46956e-007 
0.115245 0.669166 0.1 -1.25922 2.72178 3.39142e-007 
0.1285 0.675 -0.1 -1.15354 2.76809 3.22689e-007 
0.1285 0.675 0.1 -1.09855 2.79037 3.14047e-007 
0.141755 0.679918 -0.1 -0.984608 2.83246 2.95965e-007 
0.141755 0.679918 0.1 -0.925646 2.85227 2.86522e-007 
0.155037 0.683926 -0.1 -0.804519 2.88868 2.66934e-007 
0.155037 0.683926 0.1 -0.742354 2.90528 2.56791e-007 
0.168375 0.687031 -0.1 -0.615941 2.93463 2.35971e-007 
0.168375 0.687031 0.1 -0.551691 2.94738 2.25294e-007 
0.181796 0.689241 -0.1 -0.42204 2.9687 2.03558e-007 
0.181796 0.689241 0.1 -0.356639 2.97727 1.92497e-007 
0.195329 0.690561 -0.1 -0.226252 2.99004 1.70258e-007 
0.195329 0.690561 0.1 -0.161268 2.99425 1.59079e-007 
0.209 0.691 -0.1 -0.00465792 2.9972 1.31826e-007 
0.209 0.691 0.1 0.0869672 2.99594 1.15751e-007 
0.238931 0.689215 -0.1 0.301945 2.97959 7.74481e-008 
0.238931 0.689215 0.1 0.425298 2.9645 5.52208e-008 
0.267116 0.683972 -0.1 0.674678 2.91736 9.55737e-009 
0.267116 0.683972 0.1 0.800705 2.88532 -1.38786e-008 
0.293391 0.675438 -0.1 1.05185 2.80308 -6.1385e-008 
0.293391 0.675438 0.1 1.17697 2.75289 -8.54559e-008 
0.317593 0.663778 -0.1 1.4221 2.63429 -1.33499e-007 
0.317593 0.663778 0.1 1.5421 2.56588 -1.57471e-007 
0.339558 0.64916 -0.1 1.7728 2.41207 -2.04531e-007 
0.339558 0.64916 0.1 1.88349 2.32666 -2.27619e-007 
0.359125 0.63175 -0.1 2.09188 2.14125 -2.72159e-007 
0.359125 0.63175 0.1 2.18957 2.04124 -2.93611e-007 
0.376129 0.611715 -0.1 2.36911 1.83008 -3.34233e-007 
0.376129 0.611715 0.1 2.45096 1.71892 -3.53403e-007 
0.390407 0.589222 -0.1 2.59718 1.48942 -3.89e-007 
0.390407 0.589222 0.1 2.66155 1.37109 -4.05428e-007 
0.401797 0.564438 -0.1 2.77249 1.1311 -4.35315e-007 
0.401797 0.564438 0.1 2.81906 1.00945 -4.48775e-007 
0.410134 0.537528 -0.1 2.89504 0.766567 -4.72677e-007 
0.410134 0.537528 0.1 2.92445 0.645334 -4.83119e-007 
0.415256 0.50866 -0.1 2.96763 0.406191 -5.01121e-007 
0.415256 0.50866 0.1 2.98139 0.28828 -5.08682e-007 
0.417 0.478 -0.1 2.9957 0.0673772 -5.2084e-007 
0.417 0.478 0.1 2.99625 -0.0356161 -5.25437e-007 
0.415731 0.450564 -0.1 2.98774 -0.23433 -5.32637e-007 
0.415731 0.450564 0.1 2.97869 -0.330051 -5.35237e-007 
0.411852 0.423509 -0.1 2.95122 -0.521036 -5.38783e-007 
0.411852 0.423509 0.1 2.9328 -0.616302 -5.39727e-007 
0.40525 0.396469 -0.1 2.88842 -0.800012 -5.39998e-007 
0.40525 0.396469 0.1 2.86246 -0.888457 -5.39323e-007 
0.395815 0.369074 -0.1 2.8062 -1.05424 -5.36734e-007 
0.395815 0.369074 0.1 2.77592 -1.13158 -5.34821e-007 
0.383435 0.340957 -0.1 2.71456 -1.27318 -5.30281e-007 
0.383435 0.340957 0.1 2.68348 -1.33745 -5.27656e-007 
0.368 0.31175 -0.1 2.62325 -1.45313 -5.22182e-007 
0.368 0.31175 0.1 2.5941 -1.50454 -5.19332e-007 
0.349398 0.281085 -0.1 2.53945 -1.59584 -5.13768e-007 
0.349398 0.281085 0.1 2.51394 -1.63573 -5.11052e-007 
0.327519 0.248593 -0.1 2.46722 -1.70589 -5.05949e-007 
0.327519 0.248593 0.1 2.44602 -1.73617 -5.03566e-007 
0.30225 0.213906 -0.1 2.40797 -1.78888 -4.99217e-007 
0.30225 0.213906 0.1 2.39113 -1.81133 -4.97254e-007 
0.273481 0.176657 -0.1 2.3615 -1.84999 -4.93763e-007 
0.273481 0.176657 0.1 2.3487 -1.86621 -4.92235e-007 
0.241102 0.136478 -0.1 2.32662 -1.89378 -4.89579e-007 
0.241102 0.136478 0.1 2.31733 -1.90514 -4.88451e-007 
0.205 0.093 -0.1 1.5387 -0.277658 -2.81171e-007 
0.205 0.093 0.1 0.769349 1.36117 -7.50185e-008 
0.466 0.093 -0.1 1 2 -8.74228e-008 
0.466 0.093 0.1 2 1 -3.0598e-007 
0.466 4.37114e-009 -0.1 2 -1 -3.93403e-007 
0.466 -4.37114e-009 0.1 1 -2 -2.62269e-007 
3 61 63 62 
3 60 63 61 
3 59 63 60 
3 59 64 63 
3 58 64 59 
3 58 65 64 
3 57 65 58 
3 56 65 57 
3 56 66 65 
3 55 66 56 
3 54 66 55 
3 54 67 66 
3 53 67 54 
3 52 67 53 
3 52 68 67 
3 51 68 52 
3 50 68 51 
3 50 69 68 
3 49 48 50 
3 48 47 50 
3 47 46 50 
3 46 45 50 
3 45 44 50 
3 44 43 50 
3 43 42 50 
3 42 41 50 
3 41 40 50 
3 40 39 50 
3 39 38 50 
3 38 69 50 
3 38 37 69 
3 37 70 69 
3 36 70 37 
3 35 70 36 
3 34 70 35 
3 34 71 70 
3 33 71 34 
3 32 71 33 
3 31 71 32 
3 31 72 71 
3 30 72 31 
3 29 72 30 
3 29 73 72 
3 28 73 29 
3 27 73 28 
3 27 74 73 
3 26 74 27 
3 25 74 26 
3 25 75 74 
3 24 75 25 
3 23 75 24 
3 23 76 75 
3 22 76 23 
3 21 76 22 
3 21 77 76 
3 20 77 21 
3 19 77 20 
3 19 78 77 
3 18 78 19 
3 17 78 18 
3 16 78 17 
3 16 79 78 
3 15 79 16 
3 14 79 15 
3 14 80 79 
3 13 80 14 
3 12 80 13 
3 12 81 80 
3 11 81 12 
3 11 82 81 
3 10 82 11 
3 10 83 82 
3 9 83 10 
3 8 83 9 
3 8 84 83 
3 7 84 8 
3 7 85 84 
3 6 85 7 
3 6 86 85 
3 5 86 6 
3 4 86 5 
3 4 87 86 
3 4 88 87 
3 3 88 4 
3 2 88 3 
3 1 88 2 
3 0 88 1 
3 152 150 151 
3 152 149 150 
3 152 148 149 
3 153 148 152 
3 153 147 148 
3 154 147 153 
3 154 146 147 
3 154 145 146 
3 155 145 154 
3 155 144 145 
3 155 143 144 
3 156 143 155 
3 156 142 143 
3 156 141 142 
3 157 141 156 
3 157 140 141 
3 157 139 140 
3 158 139 157 
3 137 138 139 
3 136 137 139 
3 135 136 139 
3 134 135 139 
3 133 134 139 
3 132 133 139 
3 131 132 139 
3 130 131 139 
3 129 130 139 
3 128 129 139 
3 127 128 139 
3 158 127 139 
3 126 127 158 
3 159 126 158 
3 159 125 126 
3 159 124 125 
3 159 123 124 
3 160 123 159 
3 160 122 123 
3 160 121 122 
3 160 120 121 
3 161 120 160 
3 161 119 120 
3 161 118 119 
3 162 118 161 
3 162 117 118 
3 162 116 117 
3 163 116 162 
3 163 115 116 
3 163 114 115 
3 164 114 163 
3 164 113 114 
3 164 112 113 
3 165 112 164 
3 165 111 112 
3 165 110 111 
3 166 110 165 
3 166 109 110 
3 166 108 109 
3 167 108 166 
3 167 107 108 
3 167 106 107 
3 167 105 106 
3 168 105 167 
3 168 104 105 
3 168 103 104 
3 169 103 168 
3 169 102 103 
3 169 101 102 
3 170 101 169 
3 170 100 101 
3 171 100 170 
3 171 99 100 
3 172 99 171 
3 172 98 99 
3 172 97 98 
3 173 97 172 
3 173 96 97 
3 174 96 173 
3 174 95 96 
3 175 95 174 
3 175 94 95 
3 175 93 94 
3 176 93 175 
3 177 93 176 
3 177 92 93 
3 177 91 92 
3 177 90 91 
3 177 89 90 
3 179 181 180 
3 179 180 178 
3 181 183 182 
3 181 182 180 
3 183 185 184 
3 183 184 182 
3 185 187 186 
3 185 186 184 
3 187 189 188 
3 187 188 186 
3 189 191 190 
3 189 190 188 
3 191 193 192 
3 191 192 190 
3 193 195 194 
3 193 194 192 
3 195 197 196 
3 195 196 194 
3 197 199 198 
3 197 198 196 
3 199 201 200 
3 199 200 198 
3 201 203 202 
3 201 202 200 
3 203 205 204 
3 203 204 202 
3 205 207 206 
3 205 206 204 
3 207 209 208 
3 207 208 206 
3 209 211 210 
3 209 210 208 
3 211 213 212 
3 211 212 210 
3 213 215 214 
3 213 214 212 
3 215 217 216 
3 215 216 214 
3 217 219 218 
3 217 218 216 
3 219 221 220 
3 219 220 218 
3 221 223 222 
3 221 222 220 
3 223 225 224 
3 223 224 222 
3 225 227 226 
3 225 226 224 
3 227 229 228 
3 227 228 226 
3 229 231 230 
3 229 230 228 
3 231 233 232 
3 231 232 230 
3 233 235 234 
3 233 234 232 
3 235 237 236 
3 235 236 234 
3 237 239 238 
3 237 238 236 
3 239 241 240 
3 239 240 238 
3 241 243 242 
3 241 242 240 
3 243 245 244 
3 243 244 242 
3 245 247 246 
3 245 246 244 
3 247 249 248 
3 247 248 246 
3 249 251 250 
3 249 250 248 
3 251 253 252 
3 251 252 250 
3 253 255 254 
3 253 254 252 
3 255 257 256 
3 255 256 254 
3 257 259 258 
3 257 258 256 
3 259 261 260 
3 259 260 258 
3 261 263 262 
3 261 262 260 
3 263 265 264 
3 263 264 262 
3 265 267 266 
3 265 266 264 
3 267 269 268 
3 267 268 266 
3 269 271 270 
3 269 270 268 
3 271 273 272 
3 271 272 270 
3 273 275 274 
3 273 274 272 
3 275 277 276 
3 275 276 274 
3 277 279 278 
3 277 278 276 
3 279 281 280 
3 279 280 278 
3 281 283 282 
3 281 282 280 
3 283 285 284 
3 283 284 282 
3 285 287 286 
3 285 286 284 
3 287 289 288 
3 287 288 286 
3 289 291 290 
3 289 290 288 
3 291 293 292 
3 291 292 290 
3 293 295 294 
3 293 294 292 
3 295 297 296 
3 295 296 294 
3 297 299 298 
3 297 298 296 
3 299 301 300 
3 299 300 298 
3 301 303 302 
3 301 302 300 
3 303 305 304 
3 303 304 302 
3 305 307 306 
3 305 306 304 
3 307 309 308 
3 307 308 306 
3 309 311 310 
3 309 310 308 
3 311 313 312 
3 311 312 310 
3 313 315 314 
3 313 314 312 
3 315 317 316 
3 315 316 314 
3 317 319 318 
3 317 318 316 
3 319 321 320 
3 319 320 318 
3 321 323 322 
3 321 322 320 
3 323 325 324 
3 323 324 322 
3 325 327 326 
3 325 326 324 
3 327 329 328 
3 327 328 326 
3 329 331 330 
3 329 330 328 
3 331 333 332 
3 331 332 330 
3 333 335 334 
3 333 334 332 
3 335 337 336 
3 335 336 334 
3 337 339 338 
3 337 338 336 
3 339 341 340 
3 339 340 338 
3 341 343 342 
3 341 342 340 
3 343 345 344 
3 343 344 342 
3 345 347 346 
3 345 346 344 
3 347 349 348 
3 347 348 346 
3 349 351 350 
3 349 350 348 
3 351 353 352 
3 351 352 350 
3 353 355 354 
3 353 354 352 
3 355 179 178 
3 355 178 354 
