ply
format ascii 1.0
comment VCGLIB generated
element vertex 396
property float x
property float y
property float z
property float nx
property float ny
property float nz
element face 396
property list uchar int vertex_indices
end_header
0.424586 0.035395 0.1 1.7718e-009 -4.4295e-010 0.0101335 
0.411269 0.027574 0.1 6.94233e-010 -1.73558e-010 0.00397055 
0.397938 0.020531 0.1 1.19201e-009 -2.98003e-010 0.00681752 
0.384482 0.014259 0.1 4.34344e-010 -1.08586e-010 0.00248416 
0.370789 0.008751 0.1 7.0463e-010 -1.76157e-010 0.00403001 
0.35675 0.004 0.1 2.29184e-010 -5.72962e-011 0.00131078 
0.342252 -1.00437e-006 0.1 3.27226e-010 -8.18065e-011 0.00187151 
0.327185 -0.003259 0.1 8.46142e-011 -2.11536e-011 0.000483937 
0.311438 -0.005781 0.1 5.99964e-011 -1.49991e-011 0.000343139 
0.294898 -0.007574 0.1 4.98788e-011 -1.24697e-011 0.000285273 
0.277456 -0.008645 0.1 2.37343e-012 -5.93358e-013 1.35744e-005 
0.259 -0.009 0.1 2.54314e-011 -6.35787e-012 0.000145451 
0.225301 -0.006665 0.1 3.06499e-010 -7.66249e-011 0.00175297 
0.194241 9.29956e-005 0.1 7.80288e-010 -1.95072e-010 0.00446273 
0.165875 0.010906 0.1 1.44256e-009 -3.60639e-010 0.00825047 
0.140259 0.025407 0.1 2.2515e-009 -5.62874e-010 0.0128771 
0.117449 0.043228 0.1 2.57314e-009 -6.43287e-010 0.0147167 
0.0975 0.064 0.1 3.46526e-009 -8.66315e-010 0.019819 
0.080468 0.087355 0.1 1.65554e-009 -4.13884e-010 0.00946857 
0.066407 0.112926 0.1 1.46827e-009 -3.67067e-010 0.00839751 
0.055375 0.140344 0.1 1.23248e-009 -3.08121e-010 0.00704898 
0.047426 0.169241 0.1 1.56051e-009 -3.90128e-010 0.0089251 
0.042616 0.199249 0.1 1.28097e-009 -3.20243e-010 0.00732631 
0.041 0.23 0.1 6.65652e-009 -1.66413e-009 0.0380709 
0.042764 0.263056 0.1 4.51148e-009 -1.12787e-009 0.0258027 
0.047944 0.294111 0.1 1.41714e-009 -3.54284e-010 0.00810508 
0.056375 0.323 0.1 1.31442e-009 -3.28605e-010 0.00751761 
0.067889 0.349556 0.1 1.38913e-009 -3.47282e-010 0.00794489 
0.082319 0.373611 0.1 1.36432e-009 -3.4108e-010 0.007803 
0.0995 0.395 0.1 2.91626e-009 -7.29067e-010 0.0166791 
0.119264 0.413556 0.1 2.47998e-009 -6.19993e-010 0.0141838 
0.141444 0.429111 0.1 1.7189e-009 -4.29725e-010 0.00983096 
0.165875 0.4415 0.1 1.06057e-009 -2.65143e-010 0.00606576 
0.192389 0.450556 0.1 5.37023e-010 -1.34256e-010 0.00307141 
0.220819 0.456111 0.1 1.79505e-010 -4.48764e-011 0.00102665 
0.251 0.458 0.1 1.84418e-011 -4.61045e-012 0.000105475 
0.279835 0.45631 0.1 7.17772e-011 -1.79443e-011 0.000410518 
0.306764 0.451232 0.1 3.3363e-010 -8.34075e-011 0.00190814 
0.331672 0.44275 0.1 7.79182e-010 -1.94795e-010 0.0044564 
0.354444 0.430852 0.1 1.38097e-009 -3.45244e-010 0.00789825 
0.374967 0.415523 0.1 2.1105e-009 -5.27626e-010 0.0120707 
0.393125 0.39675 0.1 2.93828e-009 -7.34568e-010 0.016805 
0.408804 0.374519 0.1 2.01041e-009 -5.02604e-010 0.0114982 
0.421889 0.348815 0.1 1.46419e-009 -3.66048e-010 0.00837421 
0.432266 0.319625 0.1 1.29259e-009 -3.23147e-010 0.00739273 
0.439819 0.286935 0.1 1.43416e-009 -3.5854e-010 0.00820243 
0.444436 0.250731 0.1 7.07222e-009 -1.76805e-009 0.0404484 
0.446 0.211 0.1 3.85802e-009 -9.64507e-010 0.0220653 
0.13 0.211 0.1 1.85793e-009 -4.64483e-010 0.0106261 
0.13427 0.189648 0.1 1.12539e-009 -2.81348e-010 0.0064365 
0.140074 0.170097 0.1 6.06014e-010 -1.51504e-010 0.003466 
0.147406 0.152359 0.1 1.04481e-009 -2.61203e-010 0.00597563 
0.156259 0.136444 0.1 1.01464e-009 -2.5366e-010 0.00580307 
0.166626 0.122363 0.1 4.97882e-010 -1.2447e-010 0.00284755 
0.1785 0.110125 0.1 9.59548e-010 -2.39887e-010 0.00548797 
0.191874 0.099741 0.1 4.29368e-010 -1.07342e-010 0.0024557 
0.206741 0.091222 0.1 3.55882e-010 -8.89704e-011 0.00203541 
0.223094 0.084578 0.1 9.00556e-010 -2.25139e-010 0.00515058 
0.240926 0.079819 0.1 2.93828e-010 -7.34571e-011 0.0016805 
0.26023 0.076957 0.1 1.99448e-010 -4.98618e-011 0.00114071 
0.281 0.076 0.1 1.51692e-009 -3.7923e-010 0.00867577 
0.29444 0.076413 0.1 1.92848e-010 -4.82119e-011 0.00110296 
0.307769 0.077639 0.1 2.3006e-010 -5.75151e-011 0.00131579 
0.321 0.079656 0.1 2.6275e-010 -6.56875e-011 0.00150275 
0.334148 0.082444 0.1 2.91178e-010 -7.27944e-011 0.00166534 
0.347227 0.085983 0.1 3.15494e-010 -7.88735e-011 0.00180441 
0.36025 0.09025 0.1 3.35943e-010 -8.39859e-011 0.00192137 
0.373232 0.095226 0.1 3.5277e-010 -8.81926e-011 0.00201761 
0.386185 0.100889 0.1 3.66204e-010 -9.15511e-011 0.00209444 
0.399125 0.107219 0.1 3.76502e-010 -9.41255e-011 0.00215334 
0.412065 0.114194 0.1 3.83896e-010 -9.59741e-011 0.00219563 
0.425019 0.121795 0.1 3.88645e-010 -9.71613e-011 0.00222279 
0.438 0.13 0.1 1.95192e-010 -4.87979e-011 0.00111637 
0.438 0.044 0.1 4.89248e-009 -1.22312e-009 0.0279817 
0.356507 0.286469 0.1 9.95659e-010 -2.48915e-010 0.00569451 
0.353556 0.301833 0.1 4.26807e-010 -1.06702e-010 0.00244105 
0.349187 0.316031 0.1 8.7436e-010 -2.1859e-010 0.00500076 
0.343444 0.329 0.1 3.61743e-010 -9.04357e-011 0.00206893 
0.336368 0.340677 0.1 7.87256e-010 -1.96814e-010 0.00450258 
0.328 0.351 0.1 3.08793e-010 -7.71983e-011 0.00176609 
0.318382 0.359906 0.1 2.55944e-010 -6.39862e-011 0.00146383 
0.307556 0.367333 0.1 1.92253e-010 -4.80631e-011 0.00109956 
0.295563 0.373219 0.1 6.78483e-010 -1.69621e-010 0.00388047 
0.282444 0.3775 0.1 1.38117e-010 -3.45292e-011 0.000789936 
0.268243 0.380115 0.1 5.72088e-011 -1.43022e-011 0.000327196 
0.253 0.381 0.1 8.33863e-010 -2.08466e-010 0.00476914 
0.236564 0.380172 0.1 5.23706e-011 -1.30927e-011 0.000299525 
0.221259 0.377708 0.1 1.37547e-010 -3.43868e-011 0.000786679 
0.207094 0.373641 0.1 2.1165e-010 -5.29126e-011 0.0012105 
0.194074 0.368 0.1 7.27373e-010 -1.81843e-010 0.00416009 
0.182207 0.360818 0.1 2.72858e-010 -6.82147e-011 0.00156057 
0.1715 0.352125 0.1 3.32662e-010 -8.31654e-011 0.0019026 
0.161959 0.341953 0.1 8.18874e-010 -2.04718e-010 0.00468341 
0.153593 0.330333 0.1 3.99165e-010 -9.97912e-011 0.00228296 
0.146406 0.317297 0.1 8.995e-010 -2.24875e-010 0.00514454 
0.140407 0.302875 0.1 4.7165e-010 -1.17912e-010 0.00269752 
0.135603 0.287099 0.1 9.92422e-010 -2.48106e-010 0.00567599 
0.132 0.27 0.1 5.36806e-010 -1.34201e-010 0.00307017 
0.358 0.27 0.1 1.68526e-009 -4.21316e-010 0.00963859 
0.424586 0.035395 -0.1 -1.7718e-009 4.4295e-010 -0.0101335 
0.411269 0.027574 -0.1 -6.94233e-010 1.73558e-010 -0.00397055 
0.397938 0.020531 -0.1 -1.19201e-009 2.98003e-010 -0.00681752 
0.384482 0.014259 -0.1 -4.34344e-010 1.08586e-010 -0.00248416 
0.370789 0.008751 -0.1 -7.0463e-010 1.76157e-010 -0.00403001 
0.35675 0.004 -0.1 -2.29184e-010 5.72962e-011 -0.00131078 
0.342252 -9.95629e-007 -0.1 -3.27226e-010 8.18064e-011 -0.00187151 
0.327185 -0.003259 -0.1 -8.46142e-011 2.11536e-011 -0.000483937 
0.311438 -0.005781 -0.1 -5.99964e-011 1.49991e-011 -0.000343139 
0.294898 -0.007574 -0.1 -4.98788e-011 1.24697e-011 -0.000285273 
0.277456 -0.008645 -0.1 -2.37343e-012 5.93358e-013 -1.35744e-005 
0.259 -0.00899999 -0.1 -2.54314e-011 6.35787e-012 -0.000145451 
0.225301 -0.006665 -0.1 -3.06499e-010 7.66249e-011 -0.00175297 
0.194241 9.30044e-005 -0.1 -7.80288e-010 1.95072e-010 -0.00446273 
0.165875 0.010906 -0.1 -1.44256e-009 3.60639e-010 -0.00825047 
0.140259 0.025407 -0.1 -2.2515e-009 5.62874e-010 -0.0128771 
0.117449 0.043228 -0.1 -2.57314e-009 6.43287e-010 -0.0147167 
0.0975 0.064 -0.1 -3.46526e-009 8.66315e-010 -0.019819 
0.080468 0.087355 -0.1 -1.65554e-009 4.13884e-010 -0.00946857 
0.066407 0.112926 -0.1 -1.46827e-009 3.67067e-010 -0.00839751 
0.055375 0.140344 -0.1 -1.23248e-009 3.08121e-010 -0.00704898 
0.047426 0.169241 -0.1 -1.56051e-009 3.90128e-010 -0.0089251 
0.042616 0.199249 -0.1 -1.28097e-009 3.20243e-010 -0.00732631 
0.041 0.23 -0.1 -6.65652e-009 1.66413e-009 -0.0380709 
0.042764 0.263056 -0.1 -4.51148e-009 1.12787e-009 -0.0258027 
0.047944 0.294111 -0.1 -1.41714e-009 3.54284e-010 -0.00810508 
0.056375 0.323 -0.1 -1.31442e-009 3.28605e-010 -0.00751761 
0.067889 0.349556 -0.1 -1.38913e-009 3.47282e-010 -0.00794489 
0.082319 0.373611 -0.1 -1.36432e-009 3.4108e-010 -0.007803 
0.0995 0.395 -0.1 -2.91626e-009 7.29067e-010 -0.0166791 
0.119264 0.413556 -0.1 -2.47998e-009 6.19993e-010 -0.0141838 
0.141444 0.429111 -0.1 -1.7189e-009 4.29725e-010 -0.00983096 
0.165875 0.4415 -0.1 -1.06057e-009 2.65143e-010 -0.00606576 
0.192389 0.450556 -0.1 -5.37023e-010 1.34256e-010 -0.00307141 
0.220819 0.456111 -0.1 -1.79505e-010 4.48764e-011 -0.00102665 
0.251 0.458 -0.1 -1.84418e-011 4.61045e-012 -0.000105475 
0.279835 0.45631 -0.1 -7.17772e-011 1.79443e-011 -0.000410518 
0.306764 0.451232 -0.1 -3.3363e-010 8.34075e-011 -0.00190814 
0.331672 0.44275 -0.1 -7.79182e-010 1.94795e-010 -0.0044564 
0.354444 0.430852 -0.1 -1.38097e-009 3.45244e-010 -0.00789825 
0.374967 0.415523 -0.1 -2.1105e-009 5.27626e-010 -0.0120707 
0.393125 0.39675 -0.1 -2.93828e-009 7.34568e-010 -0.016805 
0.408804 0.374519 -0.1 -2.01041e-009 5.02604e-010 -0.0114982 
0.421889 0.348815 -0.1 -1.46419e-009 3.66048e-010 -0.00837421 
0.432266 0.319625 -0.1 -1.29259e-009 3.23147e-010 -0.00739273 
0.439819 0.286935 -0.1 -1.43416e-009 3.5854e-010 -0.00820243 
0.444436 0.250731 -0.1 -7.07222e-009 1.76805e-009 -0.0404484 
0.446 0.211 -0.1 -3.85802e-009 9.64507e-010 -0.0220653 
0.13 0.211 -0.1 -1.85793e-009 4.64483e-010 -0.0106261 
0.13427 0.189648 -0.1 -1.12539e-009 2.81348e-010 -0.0064365 
0.140074 0.170097 -0.1 -6.06014e-010 1.51504e-010 -0.003466 
0.147406 0.152359 -0.1 -1.04481e-009 2.61203e-010 -0.00597563 
0.156259 0.136444 -0.1 -1.01464e-009 2.5366e-010 -0.00580307 
0.166626 0.122363 -0.1 -4.97882e-010 1.2447e-010 -0.00284755 
0.1785 0.110125 -0.1 -9.59548e-010 2.39887e-010 -0.00548797 
0.191874 0.099741 -0.1 -4.29368e-010 1.07342e-010 -0.0024557 
0.206741 0.091222 -0.1 -3.55882e-010 8.89704e-011 -0.00203541 
0.223094 0.084578 -0.1 -9.00556e-010 2.25139e-010 -0.00515058 
0.240926 0.079819 -0.1 -2.93828e-010 7.34571e-011 -0.0016805 
0.26023 0.076957 -0.1 -1.99448e-010 4.98618e-011 -0.00114071 
0.281 0.076 -0.1 -1.51692e-009 3.7923e-010 -0.00867577 
0.29444 0.076413 -0.1 -1.92848e-010 4.82119e-011 -0.00110296 
0.307769 0.077639 -0.1 -2.3006e-010 5.75151e-011 -0.00131579 
0.321 0.079656 -0.1 -2.6275e-010 6.56875e-011 -0.00150275 
0.334148 0.082444 -0.1 -2.91178e-010 7.27944e-011 -0.00166534 
0.347227 0.085983 -0.1 -3.15494e-010 7.88735e-011 -0.00180441 
0.36025 0.09025 -0.1 -3.35943e-010 8.39859e-011 -0.00192137 
0.373232 0.095226 -0.1 -3.5277e-010 8.81926e-011 -0.00201761 
0.386185 0.100889 -0.1 -3.66204e-010 9.15511e-011 -0.00209444 
0.399125 0.107219 -0.1 -3.76502e-010 9.41255e-011 -0.00215334 
0.412065 0.114194 -0.1 -3.83896e-010 9.59741e-011 -0.00219563 
0.425019 0.121795 -0.1 -3.88645e-010 9.71613e-011 -0.00222279 
0.438 0.13 -0.1 -1.95192e-010 4.87979e-011 -0.00111637 
0.438 0.044 -0.1 -4.89248e-009 1.22312e-009 -0.0279817 
0.356507 0.286469 -0.1 -9.9566e-010 2.48915e-010 -0.00569451 
0.353556 0.301833 -0.1 -4.26807e-010 1.06702e-010 -0.00244105 
0.349187 0.316031 -0.1 -8.7436e-010 2.1859e-010 -0.00500076 
0.343444 0.329 -0.1 -3.61743e-010 9.04357e-011 -0.00206893 
0.336368 0.340677 -0.1 -7.87256e-010 1.96814e-010 -0.00450258 
0.328 0.351 -0.1 -3.08793e-010 7.71983e-011 -0.00176609 
0.318382 0.359906 -0.1 -2.55944e-010 6.39862e-011 -0.00146383 
0.307556 0.367333 -0.1 -1.92253e-010 4.80631e-011 -0.00109956 
0.295563 0.373219 -0.1 -6.78483e-010 1.69621e-010 -0.00388047 
0.282444 0.3775 -0.1 -1.38117e-010 3.45292e-011 -0.000789936 
0.268243 0.380115 -0.1 -5.72088e-011 1.43022e-011 -0.000327196 
0.253 0.381 -0.1 -8.33863e-010 2.08466e-010 -0.00476914 
0.236564 0.380172 -0.1 -5.23706e-011 1.30927e-011 -0.000299525 
0.221259 0.377708 -0.1 -1.37547e-010 3.43868e-011 -0.000786679 
0.207094 0.373641 -0.1 -2.1165e-010 5.29126e-011 -0.0012105 
0.194074 0.368 -0.1 -7.27373e-010 1.81843e-010 -0.00416009 
0.182207 0.360818 -0.1 -2.72858e-010 6.82147e-011 -0.00156057 
0.1715 0.352125 -0.1 -3.32662e-010 8.31654e-011 -0.0019026 
0.161959 0.341953 -0.1 -8.18874e-010 2.04718e-010 -0.00468341 
0.153593 0.330333 -0.1 -3.99165e-010 9.97912e-011 -0.00228296 
0.146406 0.317297 -0.1 -8.995e-010 2.24875e-010 -0.00514454 
0.140407 0.302875 -0.1 -4.7165e-010 1.17912e-010 -0.00269752 
0.135603 0.287099 -0.1 -9.92422e-010 2.48106e-010 -0.00567599 
0.132 0.27 -0.1 -5.36806e-010 1.34201e-010 -0.00307017 
0.358 0.27 -0.1 -1.68526e-009 4.21316e-010 -0.00963859 
0.424586 0.035395 -0.1 1.58631 -2.54569 -3.88635e-007 
0.424586 0.035395 0.1 1.55278 -2.56628 -3.83672e-007 
0.411269 0.027574 -0.1 1.47997 -2.60876 -3.72799e-007 
0.411269 0.027574 0.1 1.44068 -2.63066 -3.66886e-007 
0.397938 0.020531 -0.1 1.35674 -2.67475 -3.54137e-007 
0.397938 0.020531 0.1 1.31208 -2.69694 -3.47298e-007 
0.384482 0.014259 -0.1 1.21813 -2.74051 -3.32776e-007 
0.384482 0.014259 0.1 1.16885 -2.76189 -3.25094e-007 
0.370789 0.008751 -0.1 1.06693 -2.80274 -3.0906e-007 
0.370789 0.008751 0.1 1.0143 -2.82221 -3.00709e-007 
0.35675 0.004 -0.1 0.907137 -2.85843 -2.83554e-007 
0.35675 0.004 0.1 0.852605 -2.87516 -2.74751e-007 
0.342252 -9.95629e-007 -0.1 0.743399 -2.90534 -2.56977e-007 
0.342252 -1.00437e-006 0.1 0.688724 -2.91879 -2.48004e-007 
0.327185 -0.003259 -0.1 0.580842 -2.94224 -2.30167e-007 
0.327185 -0.003259 0.1 0.527634 -2.95224 -2.21301e-007 
0.311438 -0.005781 -0.1 0.424057 -2.96901 -2.03924e-007 
0.311438 -0.005781 0.1 0.373687 -2.97577 -1.95413e-007 
0.294898 -0.007574 -0.1 0.276833 -2.98647 -1.78946e-007 
0.294898 -0.007574 0.1 0.230349 -2.99042 -1.70991e-007 
0.277456 -0.008645 -0.1 0.141807 -2.99606 -1.55756e-007 
0.277456 -0.008645 0.1 0.0997508 -2.99775 -1.48476e-007 
0.259 -0.00899999 -0.1 -0.0306614 -2.99724 -1.25652e-007 
0.259 -0.009 0.1 -0.119017 -2.99503 -1.10107e-007 
0.225301 -0.006665 -0.1 -0.350853 -2.97235 -6.85807e-008 
0.225301 -0.006665 0.1 -0.494333 -2.95188 -4.2599e-008 
0.194241 9.30044e-005 -0.1 -0.781403 -2.88869 1.03562e-008 
0.194241 9.29956e-005 0.1 -0.924993 -2.84596 3.73299e-008 
0.165875 0.010906 -0.1 -1.20502 -2.73906 9.09643e-008 
0.165875 0.010906 0.1 -1.34146 -2.67489 1.17625e-007 
0.140259 0.025407 -0.1 -1.60093 -2.52849 1.69391e-007 
0.140259 0.025407 0.1 -1.72395 -2.44626 1.94496e-007 
0.117449 0.043228 -0.1 -1.95257 -2.2687 2.4223e-007 
0.117449 0.043228 0.1 -2.05816 -2.17336 2.64859e-007 
0.0975 0.064 -0.1 -2.25047 -1.97457 3.07173e-007 
0.0975 0.064 0.1 -2.33719 -1.87112 3.26858e-007 
0.080468 0.087355 -0.1 -2.4922 -1.66029 3.63176e-007 
0.080468 0.087355 0.1 -2.56049 -1.5529 3.79811e-007 
0.066407 0.112926 -0.1 -2.68024 -1.33696 4.10188e-007 
0.066407 0.112926 0.1 -2.7317 -1.2284 4.2393e-007 
0.055375 0.140344 -0.1 -2.81962 -1.01179 4.48772e-007 
0.055375 0.140344 0.1 -2.85609 -0.903737 4.59871e-007 
0.047426 0.169241 -0.1 -2.91577 -0.688727 4.79704e-007 
0.047426 0.169241 0.1 -2.93898 -0.581769 4.88438e-007 
0.042616 0.199249 -0.1 -2.97341 -0.369019 5.03758e-007 
0.042616 0.199249 0.1 -2.98464 -0.263228 5.10345e-007 
0.041 0.23 -0.1 -2.99582 -0.0516691 5.21548e-007 
0.041 0.23 0.1 -2.99578 0.0540977 5.26163e-007 
0.042764 0.263056 -0.1 -2.98353 0.271104 5.33507e-007 
0.042764 0.263056 0.1 -2.97132 0.382344 5.36235e-007 
0.047944 0.294111 -0.1 -2.9327 0.60921 5.39399e-007 
0.047944 0.294111 0.1 -2.90628 0.724837 5.39834e-007 
0.056375 0.323 -0.1 -2.83738 0.958102 5.37984e-007 
0.056375 0.323 0.1 -2.7949 1.07574 5.35698e-007 
0.067889 0.349556 -0.1 -2.69249 1.31 5.28032e-007 
0.067889 0.349556 0.1 -2.63255 1.42663 5.2265e-007 
0.082319 0.373611 -0.1 -2.49471 1.65508 5.08534e-007 
0.082319 0.373611 0.1 -2.41679 1.76691 4.998e-007 
0.0995 0.395 -0.1 -2.24373 1.98153 4.78921e-007 
0.0995 0.395 0.1 -2.14858 2.08432 4.66778e-007 
0.119264 0.413556 -0.1 -1.94313 2.2768 4.3927e-007 
0.119264 0.413556 0.1 -1.83284 2.36649 4.23906e-007 
0.141444 0.429111 -0.1 -1.60063 2.52934 3.90425e-007 
0.141444 0.429111 0.1 -1.47873 2.60249 3.72308e-007 
0.165875 0.4415 -0.1 -1.22777 2.73008 3.34006e-007 
0.165875 0.4415 0.1 -1.09872 2.78453 3.13821e-007 
0.192389 0.450556 -0.1 -0.83821 2.87409 2.72188e-007 
0.192389 0.450556 0.1 -0.706754 2.9092 2.50738e-007 
0.220819 0.456111 -0.1 -0.445998 2.96093 2.07407e-007 
0.220819 0.456111 0.1 -0.316699 2.97753 1.85526e-007 
0.251 0.458 -0.1 -0.0664241 2.99438 1.42503e-007 
0.251 0.458 0.1 0.0545514 2.99462 1.21361e-007 
0.279835 0.45631 -0.1 0.302322 2.97925 7.73672e-008 
0.279835 0.45631 0.1 0.429118 2.96365 5.45158e-008 
0.306764 0.451232 -0.1 0.692964 2.91198 6.12516e-009 
0.306764 0.451232 0.1 0.830013 2.87592 -1.94136e-008 
0.331672 0.44275 -0.1 1.10779 2.77955 -7.21944e-008 
0.331672 0.44275 0.1 1.24852 2.71925 -9.94365e-008 
0.354444 0.430852 -0.1 1.52459 2.57381 -1.54063e-007 
0.354444 0.430852 0.1 1.65992 2.48868 -1.81446e-007 
0.374967 0.415523 -0.1 1.91562 2.2976 -2.34506e-007 
0.374967 0.415523 0.1 2.03598 2.19165 -2.60182e-007 
0.393125 0.39675 -0.1 2.25477 1.96682 -3.08263e-007 
0.393125 0.39675 0.1 2.35318 1.84794 -3.30668e-007 
0.408804 0.374519 -0.1 2.52557 1.60637 -3.71368e-007 
0.408804 0.374519 0.1 2.59955 1.48368 -3.89666e-007 
0.421889 0.348815 -0.1 2.72458 1.24229 -4.22078e-007 
0.421889 0.348815 0.1 2.77564 1.12359 -4.36194e-007 
0.432266 0.319625 -0.1 2.85879 0.895042 -4.60723e-007 
0.432266 0.319625 0.1 2.89089 0.785199 -4.71138e-007 
0.439819 0.286935 -0.1 2.94063 0.576741 -4.88946e-007 
0.439819 0.286935 0.1 2.95826 0.478125 -4.96339e-007 
0.444436 0.250731 -0.1 2.98316 0.29234 -5.08813e-007 
0.444436 0.250731 0.1 2.99042 0.205171 -5.13893e-007 
0.446 0.211 -0.1 1.99845 -0.921332 -3.89693e-007 
0.446 0.211 0.1 0.999226 -1.96067 -2.60414e-007 
0.13 0.211 -0.1 0.980584 -1.8039 -2.50301e-007 
0.13 0.211 0.1 1.96117 -0.607803 -3.6947e-007 
0.13427 0.189648 -0.1 2.91982 0.676786 -4.80934e-007 
0.13427 0.189648 0.1 2.89788 0.765277 -4.73231e-007 
0.140074 0.170097 -0.1 2.84146 0.95118 -4.55239e-007 
0.140074 0.170097 0.1 2.80697 1.04859 -4.44951e-007 
0.147406 0.152359 -0.1 2.72222 1.25012 -4.21323e-007 
0.147406 0.152359 0.1 2.67195 1.35424 -4.07982e-007 
0.156259 0.136444 -0.1 2.55307 1.56512 -3.77979e-007 
0.156259 0.136444 0.1 2.48447 1.67189 -3.61317e-007 
0.166626 0.122363 -0.1 2.32827 1.88212 -3.24818e-007 
0.166626 0.122363 0.1 2.24069 1.98559 -3.04981e-007 
0.1785 0.110125 -0.1 2.04868 2.18257 -2.62799e-007 
0.1785 0.110125 0.1 1.94426 2.27609 -2.40454e-007 
0.191874 0.099741 -0.1 1.72373 2.44738 -1.94408e-007 
0.191874 0.099741 0.1 1.60763 2.52517 -1.70708e-007 
0.206741 0.091222 -0.1 1.37076 2.66176 -1.23322e-007 
0.206741 0.091222 0.1 1.24999 2.72056 -9.96355e-008 
0.223094 0.084578 -0.1 1.01067 2.81909 -5.34845e-008 
0.223094 0.084578 0.1 0.892116 2.85882 -3.10195e-008 
0.240926 0.079819 -0.1 0.662366 2.92155 1.18934e-008 
0.240926 0.079819 0.1 0.551167 2.94456 3.23416e-008 
0.26023 0.076957 -0.1 0.33934 2.97732 7.0811e-008 
0.26023 0.076957 0.1 0.238711 2.98707 8.88312e-008 
0.281 0.076 -0.1 0.0613403 2.99741 1.20295e-007 
0.281 0.076 0.1 -0.0154019 2.998 1.33739e-007 
0.29444 0.076413 -0.1 -0.153023 2.99485 1.57665e-007 
0.29444 0.076413 0.1 -0.213901 2.99112 1.68146e-007 
0.307769 0.077639 -0.1 -0.33389 2.98017 1.88647e-007 
0.307769 0.077639 0.1 -0.393001 2.97295 1.98666e-007 
0.321 0.079656 -0.1 -0.508843 2.95541 2.18153e-007 
0.321 0.079656 0.1 -0.565575 2.94508 2.27621e-007 
0.334148 0.082444 -0.1 -0.676064 2.92178 2.45922e-007 
0.334148 0.082444 0.1 -0.729822 2.90882 2.54755e-007 
0.347227 0.085983 -0.1 -0.833751 2.88086 2.71704e-007 
0.347227 0.085983 0.1 -0.883921 2.86587 2.79821e-007 
0.36025 0.09025 -0.1 -0.980636 2.83434 2.95353e-007 
0.36025 0.09025 0.1 -1.02718 2.8178 3.02768e-007 
0.373232 0.095226 -0.1 -1.1164 2.78377 3.16881e-007 
0.373232 0.095226 0.1 -1.15908 2.76628 3.23578e-007 
0.386185 0.100889 -0.1 -1.24059 2.7308 3.36279e-007 
0.386185 0.100889 0.1 -1.27943 2.71282 3.42283e-007 
0.399125 0.107219 -0.1 -1.35333 2.67683 3.53631e-007 
0.399125 0.107219 0.1 -1.38839 2.65881 3.58974e-007 
0.412065 0.114194 -0.1 -1.45505 2.62301 3.69065e-007 
0.412065 0.114194 0.1 -1.48665 2.60524 3.73812e-007 
0.425019 0.121795 -0.1 -1.54645 2.57027 3.8274e-007 
0.425019 0.121795 0.1 -1.57467 2.55308 3.86923e-007 
0.438 0.13 -0.1 -0.0685884 1.6906 8.58907e-008 
0.438 0.13 0.1 1.46571 0.845299 -2.19323e-007 
0.438 0.044 -0.1 2.53995 -0.8417 -4.8089e-007 
0.438 0.044 0.1 2.07989 -1.6834 -4.37244e-007 
0.356507 0.286469 -0.1 -2.97388 -0.369195 5.03832e-007 
0.356507 0.286469 0.1 -2.96001 -0.467534 4.97108e-007 
0.353556 0.301833 -0.1 -2.91987 -0.671359 4.8118e-007 
0.353556 0.301833 0.1 -2.89359 -0.776846 4.71975e-007 
0.349187 0.316031 -0.1 -2.8259 -0.993123 4.50685e-007 
0.349187 0.316031 0.1 -2.78449 -1.10391 4.38602e-007 
0.343444 0.329 -0.1 -2.68395 -1.32805 4.11225e-007 
0.343444 0.329 0.1 -2.62482 -1.4414 3.95932e-007 
0.336368 0.340677 -0.1 -2.48729 -1.66621 3.62059e-007 
0.336368 0.340677 0.1 -2.40889 -1.77767 3.43479e-007 
0.328 0.351 -0.1 -2.23309 -1.99317 3.03322e-007 
0.328 0.351 0.1 -2.13568 -2.0972 2.81743e-007 
0.318382 0.359906 -0.1 -1.92456 -2.2921 2.3631e-007 
0.318382 0.359906 0.1 -1.81084 -2.38296 2.12455e-007 
0.307556 0.367333 -0.1 -1.572 -2.54692 1.63528e-007 
0.307556 0.367333 0.1 -1.44688 -2.62003 1.38455e-007 
0.295563 0.373219 -0.1 -1.19139 -2.74609 8.82741e-008 
0.295563 0.373219 0.1 -1.06103 -2.79904 6.31661e-008 
0.282444 0.3775 -0.1 -0.801538 -2.88479 1.4047e-008 
0.282444 0.3775 0.1 -0.672415 -2.9176 -9.96332e-009 
0.268243 0.380115 -0.1 -0.420158 -2.96525 -5.61524e-008 
0.268243 0.380115 0.1 -0.297022 -2.9801 -7.83315e-008 
0.253 0.381 -0.1 -0.0656114 -2.99537 -1.1946e-007 
0.253 0.381 0.1 0.0426642 -2.99579 -1.3841e-007 
0.236564 0.380172 -0.1 0.259575 -2.98475 -1.75853e-007 
0.236564 0.380172 0.1 0.36821 -2.97331 -1.94347e-007 
0.221259 0.377708 -0.1 0.593861 -2.93574 -2.32159e-007 
0.221259 0.377708 0.1 0.710878 -2.90962 -2.51478e-007 
0.207094 0.373641 -0.1 0.949479 -2.83992 -2.90149e-007 
0.207094 0.373641 0.1 1.07106 -2.79633 -3.09502e-007 
0.194074 0.368 -0.1 1.31287 -2.69068 -3.47163e-007 
0.194074 0.368 0.1 1.43308 -2.62862 -3.65469e-007 
0.182207 0.360818 -0.1 1.66585 -2.48738 -3.99993e-007 
0.182207 0.360818 0.1 1.77839 -2.40821 -4.1621e-007 
0.1715 0.352125 -0.1 1.98999 -2.23681 -4.45714e-007 
0.1715 0.352125 0.1 2.08905 -2.14459 -4.59004e-007 
0.161959 0.341953 -0.1 2.27028 -1.95253 -4.82296e-007 
0.161959 0.341953 0.1 2.35246 -1.85269 -4.92302e-007 
0.153593 0.330333 -0.1 2.49882 -1.65138 -5.09092e-007 
0.153593 0.330333 0.1 2.563 -1.5499 -5.15878e-007 
0.146406 0.317297 -0.1 2.67476 -1.34967 -5.26666e-007 
0.146406 0.317297 0.1 2.72234 -1.25093 -5.3067e-007 
0.140407 0.302875 -0.1 2.80325 -1.05943 -5.36445e-007 
0.140407 0.302875 0.1 2.83657 -0.966673 -5.38216e-007 
0.135603 0.287099 -0.1 2.89177 -0.788799 -5.40093e-007 
0.135603 0.287099 0.1 2.91366 -0.703679 -5.40199e-007 
0.132 0.27 -0.1 1.95703 0.587627 -3.16492e-007 
0.132 0.27 0.1 0.978513 1.79381 -9.26785e-008 
0.358 0.27 -0.1 -0.995916 1.90971 2.57608e-007 
0.358 0.27 0.1 -1.99183 0.819429 3.84081e-007 
3 34 36 35 
3 34 37 36 
3 33 37 34 
3 33 38 37 
3 32 38 33 
3 32 39 38 
3 31 39 32 
3 31 40 39 
3 30 40 31 
3 30 41 40 
3 29 41 30 
3 29 42 41 
3 28 85 29 
3 85 42 29 
3 28 86 85 
3 84 42 85 
3 28 87 86 
3 83 42 84 
3 28 88 87 
3 82 42 83 
3 82 43 42 
3 28 89 88 
3 27 89 28 
3 81 43 82 
3 27 90 89 
3 80 43 81 
3 27 91 90 
3 79 43 80 
3 27 92 91 
3 78 43 79 
3 26 92 27 
3 78 44 43 
3 26 93 92 
3 77 44 78 
3 26 94 93 
3 76 44 77 
3 25 94 26 
3 76 45 44 
3 25 95 94 
3 75 45 76 
3 25 96 95 
3 74 45 75 
3 24 96 25 
3 24 97 96 
3 74 46 45 
3 98 46 74 
3 24 98 97 
3 24 46 98 
3 23 46 24 
3 23 47 46 
3 22 48 23 
3 48 47 23 
3 22 49 48 
3 21 49 22 
3 21 50 49 
3 21 51 50 
3 20 51 21 
3 20 52 51 
3 19 52 20 
3 19 53 52 
3 71 73 72 
3 19 54 53 
3 70 73 71 
3 69 73 70 
3 18 54 19 
3 18 55 54 
3 68 73 69 
3 67 73 68 
3 18 56 55 
3 66 73 67 
3 18 57 56 
3 65 73 66 
3 17 57 18 
3 64 73 65 
3 17 58 57 
3 63 73 64 
3 17 59 58 
3 62 73 63 
3 61 73 62 
3 17 60 59 
3 60 73 61 
3 17 73 60 
3 16 73 17 
3 16 0 73 
3 15 0 16 
3 15 1 0 
3 15 2 1 
3 14 2 15 
3 14 3 2 
3 14 4 3 
3 13 4 14 
3 13 5 4 
3 13 6 5 
3 12 6 13 
3 12 7 6 
3 12 8 7 
3 12 9 8 
3 11 9 12 
3 11 10 9 
3 135 133 134 
3 136 133 135 
3 136 132 133 
3 137 132 136 
3 137 131 132 
3 138 131 137 
3 138 130 131 
3 139 130 138 
3 139 129 130 
3 140 129 139 
3 140 128 129 
3 141 128 140 
3 184 127 128 
3 141 184 128 
3 185 127 184 
3 141 183 184 
3 186 127 185 
3 141 182 183 
3 187 127 186 
3 141 181 182 
3 142 181 141 
3 188 127 187 
3 188 126 127 
3 142 180 181 
3 189 126 188 
3 142 179 180 
3 190 126 189 
3 142 178 179 
3 191 126 190 
3 142 177 178 
3 191 125 126 
3 143 177 142 
3 192 125 191 
3 143 176 177 
3 193 125 192 
3 143 175 176 
3 193 124 125 
3 144 175 143 
3 194 124 193 
3 144 174 175 
3 195 124 194 
3 144 173 174 
3 195 123 124 
3 196 123 195 
3 145 173 144 
3 145 197 173 
3 197 123 196 
3 145 123 197 
3 145 122 123 
3 146 122 145 
3 147 121 122 
3 146 147 122 
3 148 121 147 
3 148 120 121 
3 149 120 148 
3 150 120 149 
3 150 119 120 
3 151 119 150 
3 151 118 119 
3 152 118 151 
3 172 170 171 
3 153 118 152 
3 172 169 170 
3 172 168 169 
3 153 117 118 
3 154 117 153 
3 172 167 168 
3 172 166 167 
3 155 117 154 
3 172 165 166 
3 156 117 155 
3 172 164 165 
3 156 116 117 
3 172 163 164 
3 157 116 156 
3 172 162 163 
3 158 116 157 
3 172 161 162 
3 172 160 161 
3 159 116 158 
3 172 159 160 
3 172 116 159 
3 172 115 116 
3 99 115 172 
3 99 114 115 
3 100 114 99 
3 101 114 100 
3 101 113 114 
3 102 113 101 
3 103 113 102 
3 103 112 113 
3 104 112 103 
3 105 112 104 
3 105 111 112 
3 106 111 105 
3 107 111 106 
3 108 111 107 
3 108 110 111 
3 109 110 108 
3 199 201 200 
3 199 200 198 
3 201 203 202 
3 201 202 200 
3 203 205 204 
3 203 204 202 
3 205 207 206 
3 205 206 204 
3 207 209 208 
3 207 208 206 
3 209 211 210 
3 209 210 208 
3 211 213 212 
3 211 212 210 
3 213 215 214 
3 213 214 212 
3 215 217 216 
3 215 216 214 
3 217 219 218 
3 217 218 216 
3 219 221 220 
3 219 220 218 
3 221 223 222 
3 221 222 220 
3 223 225 224 
3 223 224 222 
3 225 227 226 
3 225 226 224 
3 227 229 228 
3 227 228 226 
3 229 231 230 
3 229 230 228 
3 231 233 232 
3 231 232 230 
3 233 235 234 
3 233 234 232 
3 235 237 236 
3 235 236 234 
3 237 239 238 
3 237 238 236 
3 239 241 240 
3 239 240 238 
3 241 243 242 
3 241 242 240 
3 243 245 244 
3 243 244 242 
3 245 247 246 
3 245 246 244 
3 247 249 248 
3 247 248 246 
3 249 251 250 
3 249 250 248 
3 251 253 252 
3 251 252 250 
3 253 255 254 
3 253 254 252 
3 255 257 256 
3 255 256 254 
3 257 259 258 
3 257 258 256 
3 259 261 260 
3 259 260 258 
3 261 263 262 
3 261 262 260 
3 263 265 264 
3 263 264 262 
3 265 267 266 
3 265 266 264 
3 267 269 268 
3 267 268 266 
3 269 271 270 
3 269 270 268 
3 271 273 272 
3 271 272 270 
3 273 275 274 
3 273 274 272 
3 275 277 276 
3 275 276 274 
3 277 279 278 
3 277 278 276 
3 279 281 280 
3 279 280 278 
3 281 283 282 
3 281 282 280 
3 283 285 284 
3 283 284 282 
3 285 287 286 
3 285 286 284 
3 287 289 288 
3 287 288 286 
3 289 291 290 
3 289 290 288 
3 291 293 292 
3 291 292 290 
3 293 295 294 
3 293 294 292 
3 295 297 296 
3 295 296 294 
3 297 299 298 
3 297 298 296 
3 299 301 300 
3 299 300 298 
3 301 303 302 
3 301 302 300 
3 303 305 304 
3 303 304 302 
3 305 307 306 
3 305 306 304 
3 307 309 308 
3 307 308 306 
3 309 311 310 
3 309 310 308 
3 311 313 312 
3 311 312 310 
3 313 315 314 
3 313 314 312 
3 315 317 316 
3 315 316 314 
3 317 319 318 
3 317 318 316 
3 319 321 320 
3 319 320 318 
3 321 323 322 
3 321 322 320 
3 323 325 324 
3 323 324 322 
3 325 327 326 
3 325 326 324 
3 327 329 328 
3 327 328 326 
3 329 331 330 
3 329 330 328 
3 331 333 332 
3 331 332 330 
3 333 335 334 
3 333 334 332 
3 335 337 336 
3 335 336 334 
3 337 339 338 
3 337 338 336 
3 339 341 340 
3 339 340 338 
3 341 343 342 
3 341 342 340 
3 343 345 344 
3 343 344 342 
3 345 199 198 
3 345 198 344 
3 347 349 348 
3 347 348 346 
3 349 351 350 
3 349 350 348 
3 351 353 352 
3 351 352 350 
3 353 355 354 
3 353 354 352 
3 355 357 356 
3 355 356 354 
3 357 359 358 
3 357 358 356 
3 359 361 360 
3 359 360 358 
3 361 363 362 
3 361 362 360 
3 363 365 364 
3 363 364 362 
3 365 367 366 
3 365 366 364 
3 367 369 368 
3 367 368 366 
3 369 371 370 
3 369 370 368 
3 371 373 372 
3 371 372 370 
3 373 375 374 
3 373 374 372 
3 375 377 376 
3 375 376 374 
3 377 379 378 
3 377 378 376 
3 379 381 380 
3 379 380 378 
3 381 383 382 
3 381 382 380 
3 383 385 384 
3 383 384 382 
3 385 387 386 
3 385 386 384 
3 387 389 388 
3 387 388 386 
3 389 391 390 
3 389 390 388 
3 391 393 392 
3 391 392 390 
3 393 395 394 
3 393 394 392 
3 395 347 346 
3 395 346 394 
