ply
format ascii 1.0
comment VCGLIB generated
element vertex 40
property float x
property float y
property float z
property float nx
property float ny
property float nz
element face 32
property list uchar int vertex_indices
end_header
0.5 -4.37114e-009 0.1 4.80476e-009 -1.20119e-009 0.02748 
0.38 -4.37114e-009 0.1 9.32924e-009 -2.33231e-009 0.053357 
0.155 0.229 0.1 1.29485e-008 -3.23713e-009 0.074057 
0.354 0.449 0.1 4.0774e-009 -1.01935e-009 0.02332 
0.46 0.449 0.1 8.42406e-009 -2.10601e-009 0.04818 
0.268 0.229 0.1 1.36759e-008 -3.41897e-009 0.078217 
0.062 -4.37114e-009 0.1 2.12256e-008 -5.30639e-009 0.121396 
0.062 0.682 0.1 1.06128e-008 -2.65319e-009 0.060698 
0.151 0.682 0.1 2.12256e-008 -5.30639e-009 0.121396 
0.151 -4.37114e-009 0.1 1.06128e-008 -2.65319e-009 0.060698 
0.5 4.37114e-009 -0.1 -4.80476e-009 1.20119e-009 -0.02748 
0.38 4.37114e-009 -0.1 -9.32924e-009 2.33231e-009 -0.053357 
0.155 0.229 -0.1 -1.29485e-008 3.23713e-009 -0.074057 
0.354 0.449 -0.1 -4.0774e-009 1.01935e-009 -0.02332 
0.46 0.449 -0.1 -8.42406e-009 2.10601e-009 -0.04818 
0.268 0.229 -0.1 -1.36759e-008 3.41897e-009 -0.078217 
0.062 4.37114e-009 -0.1 -2.12256e-008 5.30639e-009 -0.121396 
0.062 0.682 -0.1 -1.06128e-008 2.65319e-009 -0.060698 
0.151 0.682 -0.1 -2.12256e-008 5.30639e-009 -0.121396 
0.151 4.37114e-009 -0.1 -1.06128e-008 2.65319e-009 -0.060698 
0.5 4.37114e-009 -0.1 1.40498 0.423387 -2.27147e-007 
0.5 -4.37114e-009 0.1 0.70249 -1.28831 -1.79141e-007 
0.38 4.37114e-009 -0.1 -0.713309 -2.70085 6.66105e-009 
0.38 -4.37114e-009 0.1 -1.42662 -2.4017 1.44456e-007 
0.155 0.229 -0.1 -2.16823 -0.730874 3.47158e-007 
0.155 0.229 0.1 -2.19654 0.640801 4.12066e-007 
0.354 0.449 -0.1 -1.48323 2.34165 3.61693e-007 
0.354 0.449 0.1 -0.741616 2.67083 2.46414e-007 
0.46 0.449 -0.1 0.753425 1.34247 -7.30519e-008 
0.46 0.449 0.1 1.50685 -0.315068 -2.77238e-007 
0.268 0.229 -0.1 2.20934 -0.603375 -4.12668e-007 
0.268 0.229 0.1 2.15841 0.765852 -3.43911e-007 
0.062 4.37114e-009 -0.1 -1 -2 8.74228e-008 
0.062 -4.37114e-009 0.1 -2 -1 3.0598e-007 
0.062 0.682 -0.1 -2 1 3.93403e-007 
0.062 0.682 0.1 -1 2 2.62269e-007 
0.151 0.682 -0.1 1 2 -8.74228e-008 
0.151 0.682 0.1 2 1 -3.0598e-007 
0.151 4.37114e-009 -0.1 2 -1 -3.93403e-007 
0.151 -4.37114e-009 0.1 1 -2 -2.62269e-007 
3 6 8 7 
3 6 9 8 
3 2 4 3 
3 2 5 4 
3 1 5 2 
3 1 0 5 
3 18 16 17 
3 19 16 18 
3 14 12 13 
3 15 12 14 
3 15 11 12 
3 10 11 15 
3 21 23 22 
3 21 22 20 
3 23 25 24 
3 23 24 22 
3 25 27 26 
3 25 26 24 
3 27 29 28 
3 27 28 26 
3 29 31 30 
3 29 30 28 
3 31 21 20 
3 31 20 30 
3 33 35 34 
3 33 34 32 
3 35 37 36 
3 35 36 34 
3 37 39 38 
3 37 38 36 
3 39 33 32 
3 39 32 38 
