ply
format ascii 1.0
comment VCGLIB generated
element vertex 312
property float x
property float y
property float z
property float nx
property float ny
property float nz
element face 308
property list uchar int vertex_indices
end_header
0.645915 0.227468 0.0999998 1.84399e-009 -4.60998e-010 0.0105464 
0.639653 0.189495 0.0999998 1.94774e-009 -4.86936e-010 0.0111398 
0.629203 0.154266 0.0999999 2.02804e-009 -5.0701e-010 0.011599 
0.614555 0.121963 0.0999999 1.76604e-009 -4.41509e-010 0.0101006 
0.5957 0.092771 0.0999999 2.17624e-009 -5.44061e-010 0.0124467 
0.572625 0.066875 0.0999998 5.40407e-009 -1.35102e-009 0.0309077 
0.545321 0.044458 0.1 4.08154e-009 -1.02038e-009 0.0233437 
0.513778 0.025704 0.1 2.80674e-009 -7.01685e-010 0.0160527 
0.477984 0.010797 0.1 1.71638e-009 -4.29096e-010 0.00981657 
0.437931 -7.90044e-005 0.1 8.59833e-010 -2.14958e-010 0.00491767 
0.393606 -0.006739 0.1 2.83227e-010 -7.08067e-011 0.00161987 
0.345 -0.009 0.1 2.86238e-011 -7.15593e-012 0.000163709 
0.309162 -0.007299 0.1 1.08256e-010 -2.7064e-011 0.000619151 
0.273963 -0.002139 0.1 5.16331e-010 -1.29083e-010 0.00295307 
0.239875 0.006562 0.1 1.22213e-009 -3.05533e-010 0.00698978 
0.20737 0.018889 0.1 2.1886e-009 -5.47148e-010 0.0125173 
0.176921 0.034924 0.1 3.37436e-009 -8.4359e-010 0.0192991 
0.149 0.05475 0.1 4.73446e-009 -1.18361e-009 0.0270779 
0.124079 0.078451 0.1 3.85976e-009 -9.64942e-010 0.0220753 
0.10263 0.106111 0.1 2.08381e-009 -5.20953e-010 0.011918 
0.085125 0.137812 0.1 2.15338e-009 -5.38343e-010 0.0123159 
0.072037 0.173639 0.1 1.88969e-009 -4.72423e-010 0.0108078 
0.063838 0.213674 0.1 2.16186e-009 -5.40463e-010 0.0123644 
0.061 0.258 0.1 1.55306e-008 -3.88266e-009 0.0888249 
0.061 0.682 0.1 7.26518e-009 -1.8163e-009 0.041552 
0.159 0.682 0.1 1.41705e-008 -3.54263e-009 0.081046 
0.159 0.279 0.1 7.22036e-009 -1.80509e-009 0.0412956 
0.159215 0.260662 0.1 6.00658e-010 -1.50164e-010 0.00343536 
0.159884 0.244046 0.1 1.30394e-009 -3.25986e-010 0.00745768 
0.161047 0.229 0.1 4.95049e-010 -1.23762e-010 0.00283135 
0.162741 0.21537 0.1 4.50698e-010 -1.12675e-010 0.00257769 
0.165004 0.203005 0.1 1.10505e-009 -2.76262e-010 0.00632013 
0.167875 0.19175 0.1 3.81356e-010 -9.53388e-011 0.0021811 
0.171392 0.181454 0.1 3.54281e-010 -8.85703e-011 0.00202625 
0.175593 0.171963 0.1 9.8467e-010 -2.46168e-010 0.00563166 
0.180516 0.163125 0.1 3.33414e-010 -8.33535e-011 0.00190691 
0.186199 0.154787 0.1 3.24678e-010 -8.11693e-011 0.00185694 
0.192681 0.146796 0.1 3.18565e-010 -7.96411e-011 0.00182198 
0.2 0.139 0.1 3.47651e-010 -8.69128e-011 0.00198833 
0.209958 0.129666 0.1 1.05885e-009 -2.64712e-010 0.00605591 
0.220333 0.121162 0.1 3.88726e-010 -9.71815e-011 0.00222325 
0.231125 0.113484 0.1 3.54849e-010 -8.87121e-011 0.0020295 
0.242333 0.10663 0.1 3.16929e-010 -7.92323e-011 0.00181262 
0.253958 0.100594 0.1 1.0248e-009 -2.562e-010 0.00586116 
0.266 0.095375 0.1 3.1136e-010 -7.78399e-011 0.00178077 
0.278458 0.090968 0.1 2.71518e-010 -6.78793e-011 0.0015529 
0.291333 0.08737 0.1 2.27673e-010 -5.69182e-011 0.00130214 
0.304625 0.084578 0.1 1.79881e-010 -4.49703e-011 0.0010288 
0.318333 0.082588 0.1 1.28208e-010 -3.20519e-011 0.000733262 
0.332458 0.081396 0.1 7.26187e-011 -1.81547e-011 0.000415331 
0.347 0.081 0.1 7.37572e-010 -1.84393e-010 0.00421842 
0.365311 0.08149 0.1 1.60964e-010 -4.02409e-011 0.000920605 
0.382741 0.082921 0.1 2.19608e-010 -5.49018e-011 0.00125601 
0.399281 0.085234 0.1 2.68464e-010 -6.7116e-011 0.00153544 
0.414926 0.08837 0.1 3.08208e-010 -7.70518e-011 0.00176274 
0.429668 0.09227 0.1 1.04515e-009 -2.61287e-010 0.00597756 
0.4435 0.096875 0.1 2.81476e-010 -7.03691e-011 0.00160986 
0.456416 0.102126 0.1 3.10768e-010 -7.76921e-011 0.00177739 
0.468407 0.107963 0.1 3.3281e-010 -8.32024e-011 0.00190345 
0.479469 0.114328 0.1 3.4809e-010 -8.70223e-011 0.00199084 
0.489593 0.121162 0.1 9.69209e-010 -2.42302e-010 0.00554323 
0.498772 0.128406 0.1 3.19992e-010 -7.99981e-011 0.00183014 
0.507 0.136 0.1 3.53539e-010 -8.83847e-011 0.00202201 
0.515198 0.145062 0.1 9.92392e-010 -2.48098e-010 0.00567582 
0.522338 0.154745 0.1 3.7453e-010 -9.36325e-011 0.00214206 
0.528484 0.165047 0.1 3.9508e-010 -9.877e-011 0.00225959 
0.533704 0.175963 0.1 4.1108e-010 -1.0277e-010 0.0023511 
0.538062 0.18749 0.1 1.04541e-009 -2.61352e-010 0.00597904 
0.541625 0.199625 0.1 4.37664e-010 -1.09416e-010 0.00250315 
0.544459 0.212364 0.1 4.54078e-010 -1.1352e-010 0.00259702 
0.54663 0.225704 0.1 1.12943e-009 -2.82358e-010 0.0064596 
0.548203 0.239641 0.1 4.9191e-010 -1.22978e-010 0.0028134 
0.549245 0.254171 0.1 1.20497e-009 -3.01243e-010 0.00689164 
0.549822 0.269292 0.1 5.2938e-010 -1.32345e-010 0.0030277 
0.55 0.285 0.1 1.41661e-008 -3.54151e-009 0.0810204 
0.55 0.682 0.1 6.80254e-009 -1.70063e-009 0.038906 
0.648 0.682 0.0999999 1.38964e-008 -3.47409e-009 0.079478 
0.648 0.268 0.0999999 8.31804e-009 -2.07951e-009 0.0475736 
0.645915 0.227468 -0.1 -1.84399e-009 4.60998e-010 -0.0105464 
0.639653 0.189495 -0.1 -1.94774e-009 4.86936e-010 -0.0111398 
0.629203 0.154266 -0.1 -2.02804e-009 5.0701e-010 -0.011599 
0.614555 0.121963 -0.1 -1.76604e-009 4.41509e-010 -0.0101006 
0.5957 0.092771 -0.1 -2.17624e-009 5.44061e-010 -0.0124467 
0.572625 0.066875 -0.1 -5.40407e-009 1.35102e-009 -0.0309077 
0.545321 0.044458 -0.1 -4.08154e-009 1.02038e-009 -0.0233437 
0.513778 0.025704 -0.1 -2.80674e-009 7.01685e-010 -0.0160527 
0.477984 0.010797 -0.1 -1.71638e-009 4.29096e-010 -0.00981657 
0.437931 -7.89956e-005 -0.1 -8.59833e-010 2.14958e-010 -0.00491767 
0.393606 -0.006739 -0.1 -2.83227e-010 7.08067e-011 -0.00161987 
0.345 -0.00899999 -0.1 -2.86238e-011 7.15593e-012 -0.000163709 
0.309162 -0.007299 -0.1 -1.08256e-010 2.7064e-011 -0.000619151 
0.273963 -0.002139 -0.1 -5.16331e-010 1.29083e-010 -0.00295307 
0.239875 0.006562 -0.1 -1.22213e-009 3.05533e-010 -0.00698978 
0.20737 0.018889 -0.1 -2.1886e-009 5.47148e-010 -0.0125173 
0.176921 0.034924 -0.1 -3.37436e-009 8.4359e-010 -0.0192991 
0.149 0.05475 -0.1 -4.73446e-009 1.18361e-009 -0.0270779 
0.124079 0.078451 -0.1 -3.85976e-009 9.64942e-010 -0.0220753 
0.10263 0.106111 -0.1 -2.08381e-009 5.20953e-010 -0.011918 
0.085125 0.137812 -0.1 -2.15338e-009 5.38343e-010 -0.0123159 
0.072037 0.173639 -0.1 -1.88969e-009 4.72423e-010 -0.0108078 
0.063838 0.213674 -0.1 -2.16186e-009 5.40463e-010 -0.0123644 
0.061 0.258 -0.1 -1.55306e-008 3.88266e-009 -0.0888249 
0.061 0.682 -0.1 -7.26518e-009 1.8163e-009 -0.041552 
0.159 0.682 -0.1 -1.41705e-008 3.54263e-009 -0.081046 
0.159 0.279 -0.1 -7.22036e-009 1.80509e-009 -0.0412956 
0.159215 0.260662 -0.1 -6.00658e-010 1.50164e-010 -0.00343536 
0.159884 0.244046 -0.1 -1.30394e-009 3.25986e-010 -0.00745768 
0.161047 0.229 -0.1 -4.95049e-010 1.23762e-010 -0.00283135 
0.162741 0.21537 -0.1 -4.50698e-010 1.12675e-010 -0.00257769 
0.165004 0.203005 -0.1 -1.10505e-009 2.76262e-010 -0.00632013 
0.167875 0.19175 -0.1 -3.81356e-010 9.53388e-011 -0.0021811 
0.171392 0.181454 -0.1 -3.54281e-010 8.85703e-011 -0.00202625 
0.175593 0.171963 -0.1 -9.8467e-010 2.46168e-010 -0.00563166 
0.180516 0.163125 -0.1 -3.33414e-010 8.33535e-011 -0.00190691 
0.186199 0.154787 -0.1 -3.24678e-010 8.11693e-011 -0.00185694 
0.192681 0.146796 -0.1 -3.18565e-010 7.96411e-011 -0.00182198 
0.2 0.139 -0.1 -3.47651e-010 8.69128e-011 -0.00198833 
0.209958 0.129666 -0.1 -1.05885e-009 2.64712e-010 -0.00605591 
0.220333 0.121162 -0.1 -3.88726e-010 9.71815e-011 -0.00222325 
0.231125 0.113484 -0.1 -3.54849e-010 8.87121e-011 -0.0020295 
0.242333 0.10663 -0.1 -3.16928e-010 7.92322e-011 -0.00181262 
0.253958 0.100594 -0.1 -1.0248e-009 2.562e-010 -0.00586116 
0.266 0.095375 -0.1 -3.1136e-010 7.78399e-011 -0.00178077 
0.278458 0.090968 -0.1 -2.71518e-010 6.78793e-011 -0.0015529 
0.291333 0.08737 -0.1 -2.27673e-010 5.69182e-011 -0.00130214 
0.304625 0.084578 -0.1 -1.79881e-010 4.49703e-011 -0.0010288 
0.318333 0.082588 -0.1 -1.28208e-010 3.20519e-011 -0.000733262 
0.332458 0.081396 -0.1 -7.26187e-011 1.81547e-011 -0.000415331 
0.347 0.081 -0.1 -7.37572e-010 1.84393e-010 -0.00421842 
0.365311 0.08149 -0.1 -1.60964e-010 4.02409e-011 -0.000920605 
0.382741 0.082921 -0.1 -2.19608e-010 5.49019e-011 -0.00125601 
0.399281 0.085234 -0.1 -2.68464e-010 6.7116e-011 -0.00153544 
0.414926 0.08837 -0.1 -3.08208e-010 7.70518e-011 -0.00176274 
0.429668 0.09227 -0.1 -1.04515e-009 2.61287e-010 -0.00597756 
0.4435 0.096875 -0.1 -2.81476e-010 7.03691e-011 -0.00160986 
0.456416 0.102126 -0.1 -3.10768e-010 7.76921e-011 -0.00177739 
0.468407 0.107963 -0.1 -3.3281e-010 8.32024e-011 -0.00190345 
0.479469 0.114328 -0.1 -3.4809e-010 8.70223e-011 -0.00199084 
0.489593 0.121162 -0.1 -9.69209e-010 2.42302e-010 -0.00554323 
0.498772 0.128406 -0.1 -3.19992e-010 7.99981e-011 -0.00183014 
0.507 0.136 -0.1 -3.53539e-010 8.83847e-011 -0.00202201 
0.515198 0.145062 -0.1 -9.92392e-010 2.48098e-010 -0.00567582 
0.522338 0.154745 -0.1 -3.7453e-010 9.36325e-011 -0.00214206 
0.528484 0.165047 -0.1 -3.9508e-010 9.877e-011 -0.00225959 
0.533704 0.175963 -0.1 -4.1108e-010 1.0277e-010 -0.0023511 
0.538062 0.18749 -0.1 -1.04541e-009 2.61352e-010 -0.00597904 
0.541625 0.199625 -0.1 -4.37664e-010 1.09416e-010 -0.00250315 
0.544459 0.212364 -0.1 -4.54078e-010 1.1352e-010 -0.00259702 
0.54663 0.225704 -0.1 -1.12943e-009 2.82358e-010 -0.0064596 
0.548203 0.239641 -0.1 -4.9191e-010 1.22978e-010 -0.0028134 
0.549245 0.254171 -0.1 -1.20497e-009 3.01243e-010 -0.00689164 
0.549822 0.269292 -0.1 -5.2938e-010 1.32345e-010 -0.0030277 
0.55 0.285 -0.1 -1.41661e-008 3.54151e-009 -0.0810204 
0.55 0.682 -0.1 -6.80254e-009 1.70063e-009 -0.038906 
0.648 0.682 -0.1 -1.38964e-008 3.47409e-009 -0.079478 
0.648 0.268 -0.1 -8.31804e-009 2.07951e-009 -0.0475736 
0.645915 0.227468 -0.1 2.98403 -0.265455 -5.33348e-007 
0.645915 0.227468 0.0999998 2.97203 -0.376789 -5.36116e-007 
0.639653 0.189495 -0.1 2.93206 -0.609799 -5.39313e-007 
0.639653 0.189495 0.0999998 2.9041 -0.731474 -5.39742e-007 
0.629203 0.154266 -0.1 2.82816 -0.981748 -5.37405e-007 
0.629203 0.154266 0.0999999 2.78019 -1.11035 -5.34639e-007 
0.614555 0.121963 -0.1 2.66149 -1.36852 -5.2517e-007 
0.614555 0.121963 0.0999999 2.59077 -1.49811 -5.18469e-007 
0.5957 0.092771 -0.1 2.42663 -1.7504 -5.00798e-007 
0.5957 0.092771 0.0999999 2.33322 -1.8731 -4.89829e-007 
0.572625 0.066875 -0.1 2.12775 -2.10343 -4.63972e-007 
0.572625 0.066875 0.0999998 2.0157 -2.21104 -4.49083e-007 
0.545321 0.044458 -0.1 1.78015 -2.40532 -4.16391e-007 
0.545321 0.044458 0.1 1.65665 -2.49199 -3.98586e-007 
0.513778 0.025704 -0.1 1.40656 -2.64225 -3.61426e-007 
0.513778 0.025704 0.1 1.27997 -2.70584 -3.42073e-007 
0.477984 0.010797 -0.1 1.03097 -2.81134 -3.03148e-007 
0.477984 0.010797 0.1 0.90856 -2.85325 -2.83577e-007 
0.437931 -7.89956e-005 -0.1 0.672688 -2.91901 -2.4521e-007 
0.437931 -7.90044e-005 0.1 0.559223 -2.94285 -2.26414e-007 
0.393606 -0.006739 -0.1 0.343638 -2.97672 -1.902e-007 
0.393606 -0.006739 0.1 0.241519 -2.98674 -1.72783e-007 
0.345 -0.00899999 -0.1 0.0455231 -2.99672 -1.3895e-007 
0.345 -0.009 0.1 -0.0483538 -2.99667 -1.22534e-007 
0.309162 -0.007299 -0.1 -0.239865 -2.98718 -8.86343e-008 
0.309162 -0.007299 0.1 -0.3375 -2.97773 -7.11498e-008 
0.273963 -0.002139 -0.1 -0.537411 -2.94778 -3.48878e-008 
0.273963 -0.002139 0.1 -0.639688 -2.92729 -1.61094e-008 
0.239875 0.006562 -0.1 -0.849234 -2.87289 2.29069e-008 
0.239875 0.006562 0.1 -0.956505 -2.83898 4.3145e-008 
0.20737 0.018889 -0.1 -1.17514 -2.75485 8.50496e-008 
0.20737 0.018889 0.1 -1.2865 -2.70464 1.06716e-007 
0.176921 0.034924 -0.1 -1.51087 -2.58497 1.51177e-007 
0.176921 0.034924 0.1 -1.62388 -2.51552 1.73972e-007 
0.149 0.05475 -0.1 -1.84707 -2.35533 2.19997e-007 
0.149 0.05475 0.1 -1.95726 -2.2646 2.43229e-007 
0.124079 0.078451 -0.1 -2.16854 -2.06204 2.89025e-007 
0.124079 0.078451 0.1 -2.26963 -1.95021 3.11588e-007 
0.10263 0.106111 -0.1 -2.45589 -1.70898 3.547e-007 
0.10263 0.106111 0.1 -2.54105 -1.57958 3.75246e-007 
0.085125 0.137812 -0.1 -2.6901 -1.30991 4.13094e-007 
0.085125 0.137812 0.1 -2.75398 -1.16965 4.30394e-007 
0.072037 0.173639 -0.1 -2.85824 -0.886896 4.60983e-007 
0.072037 0.173639 0.1 -2.89862 -0.744395 4.74272e-007 
0.063838 0.213674 -0.1 -2.95729 -0.465158 4.96737e-007 
0.063838 0.213674 0.1 -2.97558 -0.328421 5.05911e-007 
0.061 0.258 -0.1 -2.99591 -0.127789 5.18236e-007 
0.061 0.258 0.1 -2.99796 -0.0638947 5.21387e-007 
0.061 0.682 -0.1 -2 1 3.93403e-007 
0.061 0.682 0.1 -1 2 2.62269e-007 
0.159 0.682 -0.1 1 2 -8.74228e-008 
0.159 0.682 0.1 2 1 -3.0598e-007 
0.159 0.279 -0.1 2.99993 0.0117239 -5.24012e-007 
0.159 0.279 0.1 2.99986 0.0234479 -5.23487e-007 
0.159215 0.260662 -0.1 2.99905 0.0636779 -5.21587e-007 
0.159215 0.260662 0.1 2.99831 0.0921839 -5.20212e-007 
0.159884 0.244046 -0.1 2.99541 0.157526 -5.16848e-007 
0.159884 0.244046 0.1 2.99324 0.194362 -5.14859e-007 
0.161047 0.229 -0.1 2.98642 0.277468 -5.10033e-007 
0.161047 0.229 0.1 2.98176 0.323739 -5.07196e-007 
0.162741 0.21537 -0.1 2.96839 0.426699 -5.00358e-007 
0.162741 0.21537 0.1 2.95969 0.483388 -4.96359e-007 
0.165004 0.203005 -0.1 2.9363 0.607224 -4.86856e-007 
0.165004 0.203005 0.1 2.9216 0.674371 -4.81351e-007 
0.167875 0.19175 -0.1 2.88426 0.817594 -4.68562e-007 
0.167875 0.19175 0.1 2.8616 0.893671 -4.61274e-007 
0.171392 0.181454 -0.1 2.80705 1.05125 -4.44849e-007 
0.171392 0.181454 0.1 2.77517 1.13276 -4.35711e-007 
0.175593 0.171963 -0.1 2.70246 1.29613 -4.15858e-007 
0.175593 0.171963 0.1 2.66165 1.378 -4.05143e-007 
0.180516 0.163125 -0.1 2.57354 1.53645 -3.82812e-007 
0.180516 0.163125 0.1 2.52625 1.61303 -3.71196e-007 
0.186199 0.154787 -0.1 2.42926 1.75637 -3.47972e-007 
0.186199 0.154787 0.1 2.37956 1.82314 -3.36364e-007 
0.192681 0.146796 -0.1 2.2823 1.94439 -3.14058e-007 
0.192681 0.146796 0.1 2.23474 1.99887 -3.03361e-007 
0.2 0.139 -0.1 2.142 2.0985 -2.8279e-007 
0.2 0.139 0.1 2.09681 2.14364 -2.72917e-007 
0.209958 0.129666 -0.1 2.00168 2.23259 -2.52395e-007 
0.209958 0.129666 0.1 1.95173 2.27639 -2.41747e-007 
0.220333 0.121162 -0.1 1.84756 2.36161 -2.19808e-007 
0.220333 0.121162 0.1 1.79334 2.40304 -2.08517e-007 
0.231125 0.113484 -0.1 1.68113 2.48277 -1.85412e-007 
0.231125 0.113484 0.1 1.62313 2.52107 -1.73597e-007 
0.242333 0.10663 -0.1 1.50423 2.59374 -1.49632e-007 
0.242333 0.10663 0.1 1.44333 2.62812 -1.37481e-007 
0.253958 0.100594 -0.1 1.31928 2.69253 -1.12976e-007 
0.253958 0.100594 0.1 1.25613 2.72257 -1.00621e-007 
0.266 0.095375 -0.1 1.12881 2.77782 -7.59454e-008 
0.266 0.095375 0.1 1.06465 2.80304 -6.3625e-008 
0.278458 0.090968 -0.1 0.936139 2.8486 -3.91634e-008 
0.278458 0.090968 0.1 0.871786 2.86895 -2.70221e-008 
0.291333 0.08737 -0.1 0.743854 2.90484 -3.08478e-009 
0.291333 0.08737 0.1 0.680274 2.92039 8.71126e-009 
0.304625 0.084578 -0.1 0.554795 2.94691 3.18103e-008 
0.304625 0.084578 0.1 0.492894 2.9579 4.31134e-008 
0.318333 0.082588 -0.1 0.37142 2.97571 6.51313e-008 
0.318333 0.082588 0.1 0.311846 2.98254 7.58466e-008 
0.332458 0.081396 -0.1 0.195403 2.99255 9.66433e-008 
0.332458 0.081396 0.1 0.138533 2.99572 1.06725e-007 
0.347 0.081 -0.1 0.027692 2.9989 1.26244e-007 
0.347 0.081 0.1 -0.0262796 2.99891 1.35681e-007 
0.365311 0.08149 -0.1 -0.135325 2.99593 1.54617e-007 
0.365311 0.08149 0.1 -0.190399 2.99294 1.64116e-007 
0.382741 0.082921 -0.1 -0.302144 2.98366 1.83248e-007 
0.382741 0.082921 0.1 -0.358815 2.97737 1.92883e-007 
0.399281 0.085234 -0.1 -0.473529 2.96122 2.12233e-007 
0.399281 0.085234 0.1 -0.531571 2.95136 2.2195e-007 
0.414926 0.08837 -0.1 -0.648828 2.92773 2.4142e-007 
0.414926 0.08837 0.1 -0.708041 2.91398 2.51172e-007 
0.429668 0.09227 -0.1 -0.827381 2.88228 2.70653e-007 
0.429668 0.09227 0.1 -0.887507 2.86434 2.80381e-007 
0.4435 0.096875 -0.1 -1.00837 2.82397 2.99749e-007 
0.4435 0.096875 0.1 -1.06911 2.80154 3.09389e-007 
0.456416 0.102126 -0.1 -1.19091 2.75187 3.28514e-007 
0.456416 0.102126 0.1 -1.25198 2.72463 3.38001e-007 
0.468407 0.107963 -0.1 -1.37409 2.66502 3.56745e-007 
0.468407 0.107963 0.1 -1.43513 2.63265 3.66003e-007 
0.479469 0.114328 -0.1 -1.55694 2.56236 3.84228e-007 
0.479469 0.114328 0.1 -1.61771 2.52443 3.93196e-007 
0.489593 0.121162 -0.1 -1.73849 2.44266 4.1074e-007 
0.489593 0.121162 0.1 -1.79851 2.39882 4.19317e-007 
0.498772 0.128406 -0.1 -1.91724 2.30483 4.35968e-007 
0.498772 0.128406 0.1 -1.97596 2.25469 4.44044e-007 
0.507 0.136 -0.1 -2.09803 2.14057 4.60399e-007 
0.507 0.136 0.1 -2.16138 2.07659 4.68678e-007 
0.515198 0.145062 -0.1 -2.288 1.93521 4.84637e-007 
0.515198 0.145062 0.1 -2.35128 1.85782 4.92318e-007 
0.522338 0.154745 -0.1 -2.46849 1.69929 5.05882e-007 
0.522338 0.154745 0.1 -2.52242 1.61815 5.11766e-007 
0.528484 0.165047 -0.1 -2.61973 1.45608 5.21695e-007 
0.528484 0.165047 0.1 -2.6631 1.37515 5.25741e-007 
0.533704 0.175963 -0.1 -2.7397 1.21646 5.32197e-007 
0.533704 0.175963 0.1 -2.77292 1.13869 5.34606e-007 
0.538062 0.18749 -0.1 -2.83026 0.989001 5.38089e-007 
0.538062 0.18749 0.1 -2.85437 0.917087 5.39161e-007 
0.541625 0.199625 -0.1 -2.89513 0.780604 5.40321e-007 
0.541625 0.199625 0.1 -2.91177 0.716034 5.40409e-007 
0.544459 0.212364 -0.1 -2.93929 0.594943 5.39928e-007 
0.544459 0.212364 0.1 -2.95017 0.538421 5.39359e-007 
0.54663 0.225704 -0.1 -2.96772 0.433417 5.37838e-007 
0.54663 0.225704 0.1 -2.9744 0.384935 5.36886e-007 
0.548203 0.239641 -0.1 -2.98482 0.295832 5.34814e-007 
0.548203 0.239641 0.1 -2.98857 0.255212 5.33694e-007 
0.549245 0.254171 -0.1 -2.99415 0.18119 5.31434e-007 
0.549245 0.254171 0.1 -2.99598 0.147789 5.30294e-007 
0.549822 0.269292 -0.1 -2.99848 0.0875923 5.28099e-007 
0.549822 0.269292 0.1 -2.99914 0.0607965 5.27044e-007 
0.55 0.285 -0.1 -2.99987 0.0226671 5.25505e-007 
0.55 0.285 0.1 -2.99994 0.0113336 5.25021e-007 
0.55 0.682 -0.1 -2 1 3.93403e-007 
0.55 0.682 0.1 -1 2 2.62269e-007 
0.648 0.682 -0.1 1 2 -8.74228e-008 
0.648 0.682 0.0999999 2 1 -3.0598e-007 
0.648 0.268 -0.1 2.99868 -0.0513736 -5.26551e-007 
0.648 0.268 0.0999999 2.99736 -0.102747 -5.28567e-007 
3 23 25 24 
3 23 26 25 
3 74 76 75 
3 74 77 76 
3 73 77 74 
3 23 27 26 
3 72 77 73 
3 72 0 77 
3 23 28 27 
3 22 28 23 
3 71 0 72 
3 22 29 28 
3 70 0 71 
3 22 30 29 
3 70 1 0 
3 69 1 70 
3 22 31 30 
3 21 31 22 
3 68 1 69 
3 21 32 31 
3 67 1 68 
3 21 33 32 
3 67 2 1 
3 66 2 67 
3 21 34 33 
3 65 2 66 
3 20 34 21 
3 20 35 34 
3 64 2 65 
3 20 36 35 
3 20 37 36 
3 63 2 64 
3 63 3 2 
3 20 38 37 
3 62 3 63 
3 20 39 38 
3 19 39 20 
3 61 3 62 
3 19 40 39 
3 60 3 61 
3 60 4 3 
3 19 41 40 
3 59 4 60 
3 58 4 59 
3 19 42 41 
3 57 4 58 
3 19 43 42 
3 18 43 19 
3 56 4 57 
3 18 44 43 
3 55 4 56 
3 18 45 44 
3 55 5 4 
3 54 5 55 
3 18 46 45 
3 53 5 54 
3 18 47 46 
3 52 5 53 
3 18 48 47 
3 51 5 52 
3 18 49 48 
3 50 5 51 
3 18 50 49 
3 18 5 50 
3 17 5 18 
3 17 6 5 
3 16 6 17 
3 16 7 6 
3 15 7 16 
3 15 8 7 
3 14 8 15 
3 14 9 8 
3 13 9 14 
3 13 10 9 
3 12 10 13 
3 12 11 10 
3 103 101 102 
3 104 101 103 
3 154 152 153 
3 155 152 154 
3 155 151 152 
3 105 101 104 
3 155 150 151 
3 78 150 155 
3 106 101 105 
3 106 100 101 
3 78 149 150 
3 107 100 106 
3 78 148 149 
3 108 100 107 
3 79 148 78 
3 79 147 148 
3 109 100 108 
3 109 99 100 
3 79 146 147 
3 110 99 109 
3 79 145 146 
3 111 99 110 
3 80 145 79 
3 80 144 145 
3 112 99 111 
3 80 143 144 
3 112 98 99 
3 113 98 112 
3 80 142 143 
3 114 98 113 
3 115 98 114 
3 80 141 142 
3 81 141 80 
3 116 98 115 
3 81 140 141 
3 117 98 116 
3 117 97 98 
3 81 139 140 
3 118 97 117 
3 81 138 139 
3 82 138 81 
3 119 97 118 
3 82 137 138 
3 82 136 137 
3 120 97 119 
3 82 135 136 
3 121 97 120 
3 121 96 97 
3 82 134 135 
3 122 96 121 
3 82 133 134 
3 123 96 122 
3 83 133 82 
3 83 132 133 
3 124 96 123 
3 83 131 132 
3 125 96 124 
3 83 130 131 
3 126 96 125 
3 83 129 130 
3 127 96 126 
3 83 128 129 
3 128 96 127 
3 83 96 128 
3 83 95 96 
3 84 95 83 
3 84 94 95 
3 85 94 84 
3 85 93 94 
3 86 93 85 
3 86 92 93 
3 87 92 86 
3 87 91 92 
3 88 91 87 
3 88 90 91 
3 89 90 88 
3 157 159 158 
3 157 158 156 
3 159 161 160 
3 159 160 158 
3 161 163 162 
3 161 162 160 
3 163 165 164 
3 163 164 162 
3 165 167 166 
3 165 166 164 
3 167 169 168 
3 167 168 166 
3 169 171 170 
3 169 170 168 
3 171 173 172 
3 171 172 170 
3 173 175 174 
3 173 174 172 
3 175 177 176 
3 175 176 174 
3 177 179 178 
3 177 178 176 
3 179 181 180 
3 179 180 178 
3 181 183 182 
3 181 182 180 
3 183 185 184 
3 183 184 182 
3 185 187 186 
3 185 186 184 
3 187 189 188 
3 187 188 186 
3 189 191 190 
3 189 190 188 
3 191 193 192 
3 191 192 190 
3 193 195 194 
3 193 194 192 
3 195 197 196 
3 195 196 194 
3 197 199 198 
3 197 198 196 
3 199 201 200 
3 199 200 198 
3 201 203 202 
3 201 202 200 
3 203 205 204 
3 203 204 202 
3 205 207 206 
3 205 206 204 
3 207 209 208 
3 207 208 206 
3 209 211 210 
3 209 210 208 
3 211 213 212 
3 211 212 210 
3 213 215 214 
3 213 214 212 
3 215 217 216 
3 215 216 214 
3 217 219 218 
3 217 218 216 
3 219 221 220 
3 219 220 218 
3 221 223 222 
3 221 222 220 
3 223 225 224 
3 223 224 222 
3 225 227 226 
3 225 226 224 
3 227 229 228 
3 227 228 226 
3 229 231 230 
3 229 230 228 
3 231 233 232 
3 231 232 230 
3 233 235 234 
3 233 234 232 
3 235 237 236 
3 235 236 234 
3 237 239 238 
3 237 238 236 
3 239 241 240 
3 239 240 238 
3 241 243 242 
3 241 242 240 
3 243 245 244 
3 243 244 242 
3 245 247 246 
3 245 246 244 
3 247 249 248 
3 247 248 246 
3 249 251 250 
3 249 250 248 
3 251 253 252 
3 251 252 250 
3 253 255 254 
3 253 254 252 
3 255 257 256 
3 255 256 254 
3 257 259 258 
3 257 258 256 
3 259 261 260 
3 259 260 258 
3 261 263 262 
3 261 262 260 
3 263 265 264 
3 263 264 262 
3 265 267 266 
3 265 266 264 
3 267 269 268 
3 267 268 266 
3 269 271 270 
3 269 270 268 
3 271 273 272 
3 271 272 270 
3 273 275 274 
3 273 274 272 
3 275 277 276 
3 275 276 274 
3 277 279 278 
3 277 278 276 
3 279 281 280 
3 279 280 278 
3 281 283 282 
3 281 282 280 
3 283 285 284 
3 283 284 282 
3 285 287 286 
3 285 286 284 
3 287 289 288 
3 287 288 286 
3 289 291 290 
3 289 290 288 
3 291 293 292 
3 291 292 290 
3 293 295 294 
3 293 294 292 
3 295 297 296 
3 295 296 294 
3 297 299 298 
3 297 298 296 
3 299 301 300 
3 299 300 298 
3 301 303 302 
3 301 302 300 
3 303 305 304 
3 303 304 302 
3 305 307 306 
3 305 306 304 
3 307 309 308 
3 307 308 306 
3 309 311 310 
3 309 310 308 
3 311 157 156 
3 311 156 310 
