ply
format ascii 1.0
comment VCGLIB generated
element vertex 32
property float x
property float y
property float z
property float nx
property float ny
property float nz
element face 28
property list uchar int vertex_indices
end_header
0.405 0.08 0.1 8.86816e-009 -2.21704e-009 0.05072 
0.405 -4.37114e-009 0.1 5.51114e-009 -1.37778e-009 0.03152 
0.011 -4.37114e-009 0.1 1.54749e-008 -3.86872e-009 0.088506 
0.249 0.369 0.1 1.64531e-008 -4.11329e-009 0.094101 
0.021 0.369 0.1 8.54646e-009 -2.13661e-009 0.04888 
0.021 0.449 0.1 5.35726e-009 -1.33932e-009 0.03064 
0.404 0.449 0.1 1.52037e-008 -3.80092e-009 0.086955 
0.165 0.08 0.1 1.6621e-008 -4.15525e-009 0.095061 
0.405 0.08 -0.1 -8.86816e-009 2.21704e-009 -0.05072 
0.405 4.37114e-009 -0.1 -5.51114e-009 1.37778e-009 -0.03152 
0.011 4.37114e-009 -0.1 -1.54749e-008 3.86872e-009 -0.088506 
0.249 0.369 -0.1 -1.64531e-008 4.11329e-009 -0.094101 
0.021 0.369 -0.1 -8.54646e-009 2.13661e-009 -0.04888 
0.021 0.449 -0.1 -5.35726e-009 1.33932e-009 -0.03064 
0.404 0.449 -0.1 -1.52037e-008 3.80092e-009 -0.086955 
0.165 0.08 -0.1 -1.6621e-008 4.15525e-009 -0.095061 
0.405 0.08 -0.1 1 2 -8.74228e-008 
0.405 0.08 0.1 2 1 -3.0598e-007 
0.405 4.37114e-009 -0.1 2 -1 -3.93403e-007 
0.405 -4.37114e-009 0.1 1 -2 -2.62269e-007 
0.011 4.37114e-009 -0.1 -0.840364 -1.45798 8.32037e-008 
0.011 -4.37114e-009 0.1 -1.68073 0.0840462 2.97542e-007 
0.249 0.369 -0.1 -1.68073 0.0840462 2.97542e-007 
0.249 0.369 0.1 -0.840364 -1.45798 8.32037e-008 
0.021 0.369 -0.1 -1 -2 8.74228e-008 
0.021 0.369 0.1 -2 -1 3.0598e-007 
0.021 0.449 -0.1 -2 1 3.93403e-007 
0.021 0.449 0.1 -1 2 2.62269e-007 
0.404 0.449 -0.1 0.839326 1.45637 -8.30924e-008 
0.404 0.449 0.1 1.67865 -0.0872569 -2.97319e-007 
0.165 0.08 -0.1 1.67865 -0.0872569 -2.97319e-007 
0.165 0.08 0.1 0.839326 1.45637 -8.30924e-008 
3 4 6 5 
3 4 3 6 
3 3 7 6 
3 2 7 3 
3 2 0 7 
3 2 1 0 
3 14 12 13 
3 11 12 14 
3 15 11 14 
3 15 10 11 
3 8 10 15 
3 9 10 8 
3 17 19 18 
3 17 18 16 
3 19 21 20 
3 19 20 18 
3 21 23 22 
3 21 22 20 
3 23 25 24 
3 23 24 22 
3 25 27 26 
3 25 26 24 
3 27 29 28 
3 27 28 26 
3 29 31 30 
3 29 30 28 
3 31 17 16 
3 31 16 30 
