ply
format ascii 1.0
comment VCGLIB generated
element vertex 192
property float x
property float y
property float z
property float nx
property float ny
property float nz
element face 188
property list uchar int vertex_indices
end_header
0.16845 0.042887 0.1 4.8819e-010 -1.22048e-010 0.00279212 
0.166847 0.035097 0.1 4.50048e-010 -1.12512e-010 0.00257397 
0.164266 0.027703 0.1 4.02116e-010 -1.00529e-010 0.00229983 
0.160778 0.020778 0.1 3.46922e-010 -8.67303e-011 0.00198416 
0.156457 0.014394 0.1 2.87168e-010 -7.17921e-011 0.00164241 
0.151375 0.008625 0.1 2.25846e-010 -5.64614e-011 0.00129169 
0.145606 0.003543 0.1 1.66032e-010 -4.15079e-011 0.000949591 
0.139222 -0.000778004 0.1 1.10944e-010 -2.77361e-011 0.000634527 
0.132297 -0.004266 0.1 6.3796e-011 -1.5949e-011 0.00036487 
0.124903 -0.006847 0.1 2.78156e-011 -6.95389e-012 0.000159087 
0.117113 -0.00845 0.1 6.10816e-012 -1.52704e-012 3.49346e-005 
0.109 -0.009 0.1 1.56037e-012 -3.90094e-013 8.9243e-006 
0.100887 -0.00845 0.1 1.50227e-011 -3.75566e-012 8.59196e-005 
0.093097 -0.006847 0.1 4.42945e-011 -1.10736e-011 0.000253335 
0.085703 -0.004266 0.1 8.63051e-011 -2.15763e-011 0.000493608 
0.078778 -0.000778004 0.1 1.37841e-010 -3.44601e-011 0.000788356 
0.072394 0.003543 0.1 1.95672e-010 -4.89179e-011 0.00111911 
0.066625 0.008625 0.1 2.5653e-010 -6.41325e-011 0.00146718 
0.061543 0.014394 0.1 3.17273e-010 -7.93183e-011 0.00181459 
0.057222 0.020778 0.1 3.7481e-010 -9.37024e-011 0.00214366 
0.053734 0.027703 0.1 4.263e-010 -1.06575e-010 0.00243815 
0.051153 0.035097 0.1 4.69098e-010 -1.17275e-010 0.00268293 
0.04955 0.042887 0.1 5.00832e-010 -1.25208e-010 0.00286443 
0.049 0.051 0.1 3.40446e-010 -8.51113e-011 0.00194712 
0.04955 0.059113 0.1 6.58413e-010 -1.64603e-010 0.00376568 
0.051153 0.066903 0.1 4.50048e-010 -1.12512e-010 0.00257397 
0.053734 0.074297 0.1 4.02116e-010 -1.00529e-010 0.00229983 
0.057222 0.081222 0.1 3.46922e-010 -8.67303e-011 0.00198416 
0.061543 0.087606 0.1 2.87168e-010 -7.17921e-011 0.00164241 
0.066625 0.093375 0.1 2.25846e-010 -5.64614e-011 0.00129169 
0.072394 0.098457 0.1 1.66032e-010 -4.1508e-011 0.000949591 
0.078778 0.102778 0.1 1.10944e-010 -2.7736e-011 0.000634527 
0.085703 0.106266 0.1 6.3796e-011 -1.5949e-011 0.00036487 
0.093097 0.108847 0.1 2.78156e-011 -6.9539e-012 0.000159087 
0.100887 0.11045 0.1 6.10816e-012 -1.52704e-012 3.49346e-005 
0.109 0.111 0.1 1.56038e-012 -3.90095e-013 8.92433e-006 
0.117113 0.11045 0.1 1.50227e-011 -3.75567e-012 8.59196e-005 
0.124903 0.108847 0.1 4.42945e-011 -1.10736e-011 0.000253335 
0.132297 0.106266 0.1 8.6305e-011 -2.15763e-011 0.000493607 
0.139222 0.102778 0.1 1.37841e-010 -3.44601e-011 0.000788356 
0.145606 0.098457 0.1 1.95672e-010 -4.8918e-011 0.00111911 
0.151375 0.093375 0.1 2.5653e-010 -6.41325e-011 0.00146718 
0.156457 0.087606 0.1 3.17273e-010 -7.93183e-011 0.00181459 
0.160778 0.081222 0.1 3.7481e-010 -9.37023e-011 0.00214366 
0.164266 0.074297 0.1 4.263e-010 -1.06575e-010 0.00243815 
0.166847 0.066903 0.1 4.69098e-010 -1.17275e-010 0.00268293 
0.16845 0.059113 0.1 3.3061e-010 -8.26524e-011 0.00189087 
0.169 0.051 0.1 6.7777e-010 -1.69442e-010 0.00387639 
0.16845 0.042887 -0.1 -4.8819e-010 1.22048e-010 -0.00279212 
0.166847 0.035097 -0.1 -4.50048e-010 1.12512e-010 -0.00257397 
0.164266 0.027703 -0.1 -4.02116e-010 1.00529e-010 -0.00229983 
0.160778 0.020778 -0.1 -3.46922e-010 8.67303e-011 -0.00198416 
0.156457 0.014394 -0.1 -2.87168e-010 7.17921e-011 -0.00164241 
0.151375 0.008625 -0.1 -2.25846e-010 5.64614e-011 -0.00129169 
0.145606 0.003543 -0.1 -1.66032e-010 4.15079e-011 -0.000949591 
0.139222 -0.000777996 -0.1 -1.10944e-010 2.77361e-011 -0.000634527 
0.132297 -0.004266 -0.1 -6.3796e-011 1.5949e-011 -0.00036487 
0.124903 -0.006847 -0.1 -2.78156e-011 6.95389e-012 -0.000159087 
0.117113 -0.00844999 -0.1 -6.10816e-012 1.52704e-012 -3.49346e-005 
0.109 -0.00899999 -0.1 -1.56037e-012 3.90094e-013 -8.9243e-006 
0.100887 -0.00844999 -0.1 -1.50227e-011 3.75566e-012 -8.59196e-005 
0.093097 -0.006847 -0.1 -4.42945e-011 1.10736e-011 -0.000253335 
0.085703 -0.004266 -0.1 -8.63051e-011 2.15763e-011 -0.000493608 
0.078778 -0.000777996 -0.1 -1.37841e-010 3.44601e-011 -0.000788356 
0.072394 0.003543 -0.1 -1.95672e-010 4.89179e-011 -0.00111911 
0.066625 0.008625 -0.1 -2.5653e-010 6.41325e-011 -0.00146718 
0.061543 0.014394 -0.1 -3.17273e-010 7.93183e-011 -0.00181459 
0.057222 0.020778 -0.1 -3.7481e-010 9.37024e-011 -0.00214366 
0.053734 0.027703 -0.1 -4.263e-010 1.06575e-010 -0.00243815 
0.051153 0.035097 -0.1 -4.69098e-010 1.17275e-010 -0.00268293 
0.04955 0.042887 -0.1 -5.00832e-010 1.25208e-010 -0.00286443 
0.049 0.051 -0.1 -3.40446e-010 8.51113e-011 -0.00194712 
0.04955 0.059113 -0.1 -6.58413e-010 1.64603e-010 -0.00376568 
0.051153 0.066903 -0.1 -4.50048e-010 1.12512e-010 -0.00257397 
0.053734 0.074297 -0.1 -4.02116e-010 1.00529e-010 -0.00229983 
0.057222 0.081222 -0.1 -3.46922e-010 8.67303e-011 -0.00198416 
0.061543 0.087606 -0.1 -2.87168e-010 7.17921e-011 -0.00164241 
0.066625 0.093375 -0.1 -2.25846e-010 5.64614e-011 -0.00129169 
0.072394 0.098457 -0.1 -1.66032e-010 4.1508e-011 -0.000949591 
0.078778 0.102778 -0.1 -1.10944e-010 2.7736e-011 -0.000634527 
0.085703 0.106266 -0.1 -6.3796e-011 1.5949e-011 -0.00036487 
0.093097 0.108847 -0.1 -2.78156e-011 6.9539e-012 -0.000159087 
0.100887 0.11045 -0.1 -6.10816e-012 1.52704e-012 -3.49346e-005 
0.109 0.111 -0.1 -1.56038e-012 3.90095e-013 -8.92433e-006 
0.117113 0.11045 -0.1 -1.50227e-011 3.75567e-012 -8.59196e-005 
0.124903 0.108847 -0.1 -4.42945e-011 1.10736e-011 -0.000253335 
0.132297 0.106266 -0.1 -8.6305e-011 2.15763e-011 -0.000493607 
0.139222 0.102778 -0.1 -1.37841e-010 3.44601e-011 -0.000788356 
0.145606 0.098457 -0.1 -1.95672e-010 4.8918e-011 -0.00111911 
0.151375 0.093375 -0.1 -2.5653e-010 6.41325e-011 -0.00146718 
0.156457 0.087606 -0.1 -3.17273e-010 7.93183e-011 -0.00181459 
0.160778 0.081222 -0.1 -3.7481e-010 9.37024e-011 -0.00214366 
0.164266 0.074297 -0.1 -4.263e-010 1.06575e-010 -0.00243815 
0.166847 0.066903 -0.1 -4.69098e-010 1.17275e-010 -0.00268293 
0.16845 0.059113 -0.1 -3.3061e-010 8.26524e-011 -0.00189087 
0.169 0.051 -0.1 -6.7777e-010 1.69442e-010 -0.00387639 
0.16845 0.042887 -0.1 2.9749 -0.336828 -5.34871e-007 
0.16845 0.042887 0.1 2.95667 -0.470743 -5.37537e-007 
0.166847 0.035097 -0.1 2.90309 -0.732671 -5.39618e-007 
0.166847 0.035097 0.1 2.86774 -0.860684 -5.39034e-007 
0.164266 0.027703 -0.1 2.78137 -1.10897 -5.34785e-007 
0.164266 0.027703 0.1 2.73035 -1.22925 -5.31122e-007 
0.160778 0.020778 -0.1 2.61435 -1.46021 -5.20936e-007 
0.160778 0.020778 0.1 2.54938 -1.57089 -5.14414e-007 
0.156457 0.014394 -0.1 2.40665 -1.78206 -4.98688e-007 
0.156457 0.014394 0.1 2.32888 -1.88255 -4.89483e-007 
0.151375 0.008625 -0.1 2.16176 -2.0724 -4.68562e-007 
0.151375 0.008625 0.1 2.0724 -2.16176 -4.56844e-007 
0.145606 0.003543 -0.1 1.88255 -2.32888 -4.30955e-007 
0.145606 0.003543 0.1 1.78206 -2.40665 -4.16784e-007 
0.139222 -0.000777996 -0.1 1.57089 -2.54938 -3.86101e-007 
0.139222 -0.000778004 0.1 1.46021 -2.61435 -3.69589e-007 
0.132297 -0.004266 -0.1 1.22925 -2.73035 -3.34276e-007 
0.132297 -0.004266 0.1 1.10897 -2.78137 -3.15476e-007 
0.124903 -0.006847 -0.1 0.860685 -2.86774 -2.75839e-007 
0.124903 -0.006847 0.1 0.732673 -2.90309 -2.55002e-007 
0.117113 -0.00844999 -0.1 0.470744 -2.95667 -2.11548e-007 
0.117113 -0.00845 0.1 0.336828 -2.9749 -1.88929e-007 
0.109 -0.00899999 -0.1 0.0676371 -2.99313 -1.4266e-007 
0.109 -0.009 0.1 -0.0676373 -2.99313 -1.19008e-007 
0.100887 -0.00844999 -0.1 -0.336828 -2.9749 -7.11436e-008 
0.100887 -0.00845 0.1 -0.470744 -2.95667 -4.69325e-008 
0.093097 -0.006847 -0.1 -0.732672 -2.90309 1.20652e-009 
0.093097 -0.006847 0.1 -0.860684 -2.86774 2.51338e-008 
0.085703 -0.004266 -0.1 -1.10897 -2.78137 7.2321e-008 
0.085703 -0.004266 0.1 -1.22925 -2.73035 9.55816e-008 
0.078778 -0.000777996 -0.1 -1.46021 -2.61435 1.41034e-007 
0.078778 -0.000778004 0.1 -1.57089 -2.54938 1.63226e-007 
0.072394 0.003543 -0.1 -1.78206 -2.40665 2.06388e-007 
0.072394 0.003543 0.1 -1.88255 -2.32888 2.27357e-007 
0.066625 0.008625 -0.1 -2.0724 -2.16176 2.67857e-007 
0.066625 0.008625 0.1 -2.16176 -2.0724 2.87387e-007 
0.061543 0.014394 -0.1 -2.32888 -1.88255 3.24905e-007 
0.061543 0.014394 0.1 -2.40665 -1.78206 3.42896e-007 
0.057222 0.020778 -0.1 -2.54938 -1.57089 3.77082e-007 
0.057222 0.020778 0.1 -2.61435 -1.46021 3.9328e-007 
0.053734 0.027703 -0.1 -2.73035 -1.22925 4.23657e-007 
0.053734 0.027703 0.1 -2.78137 -1.10897 4.37836e-007 
0.051153 0.035097 -0.1 -2.86774 -0.860685 4.6379e-007 
0.051153 0.035097 0.1 -2.90309 -0.732673 4.75566e-007 
0.04955 0.042887 -0.1 -2.95666 -0.470745 4.96382e-007 
0.04955 0.042887 0.1 -2.9749 -0.336828 5.05425e-007 
0.049 0.051 -0.1 -2.99313 -0.0676374 5.20379e-007 
0.049 0.051 0.1 -2.99313 0.0676374 5.26292e-007 
0.04955 0.059113 -0.1 -2.9749 0.336828 5.34871e-007 
0.04955 0.059113 0.1 -2.95666 0.470744 5.37536e-007 
0.051153 0.066903 -0.1 -2.90309 0.732672 5.39618e-007 
0.051153 0.066903 0.1 -2.86774 0.860684 5.39034e-007 
0.053734 0.074297 -0.1 -2.78137 1.10897 5.34785e-007 
0.053734 0.074297 0.1 -2.73035 1.22925 5.31122e-007 
0.057222 0.081222 -0.1 -2.61435 1.46021 5.20936e-007 
0.057222 0.081222 0.1 -2.54938 1.57089 5.14414e-007 
0.061543 0.087606 -0.1 -2.40665 1.78206 4.98688e-007 
0.061543 0.087606 0.1 -2.32888 1.88255 4.89484e-007 
0.066625 0.093375 -0.1 -2.16176 2.0724 4.68562e-007 
0.066625 0.093375 0.1 -2.0724 2.16176 4.56844e-007 
0.072394 0.098457 -0.1 -1.88255 2.32888 4.30955e-007 
0.072394 0.098457 0.1 -1.78206 2.40665 4.16784e-007 
0.078778 0.102778 -0.1 -1.57089 2.54938 3.86101e-007 
0.078778 0.102778 0.1 -1.46021 2.61435 3.69589e-007 
0.085703 0.106266 -0.1 -1.22925 2.73035 3.34276e-007 
0.085703 0.106266 0.1 -1.10897 2.78137 3.15476e-007 
0.093097 0.108847 -0.1 -0.860684 2.86774 2.75839e-007 
0.093097 0.108847 0.1 -0.732673 2.90309 2.55002e-007 
0.100887 0.11045 -0.1 -0.470745 2.95666 2.11548e-007 
0.100887 0.11045 0.1 -0.336828 2.9749 1.88929e-007 
0.109 0.111 -0.1 -0.0676375 2.99313 1.4266e-007 
0.109 0.111 0.1 0.0676373 2.99313 1.19008e-007 
0.117113 0.11045 -0.1 0.336828 2.9749 7.11436e-008 
0.117113 0.11045 0.1 0.470745 2.95666 4.69323e-008 
0.124903 0.108847 -0.1 0.732673 2.90309 -1.20661e-009 
0.124903 0.108847 0.1 0.860685 2.86774 -2.5134e-008 
0.132297 0.106266 -0.1 1.10897 2.78137 -7.23211e-008 
0.132297 0.106266 0.1 1.22925 2.73035 -9.55815e-008 
0.139222 0.102778 -0.1 1.46021 2.61435 -1.41034e-007 
0.139222 0.102778 0.1 1.57089 2.54938 -1.63226e-007 
0.145606 0.098457 -0.1 1.78206 2.40665 -2.06388e-007 
0.145606 0.098457 0.1 1.88255 2.32888 -2.27357e-007 
0.151375 0.093375 -0.1 2.0724 2.16176 -2.67857e-007 
0.151375 0.093375 0.1 2.16176 2.0724 -2.87386e-007 
0.156457 0.087606 -0.1 2.32888 1.88255 -3.24905e-007 
0.156457 0.087606 0.1 2.40665 1.78206 -3.42895e-007 
0.160778 0.081222 -0.1 2.54938 1.57089 -3.77082e-007 
0.160778 0.081222 0.1 2.61435 1.46021 -3.9328e-007 
0.164266 0.074297 -0.1 2.73035 1.22925 -4.23657e-007 
0.164266 0.074297 0.1 2.78137 1.10897 -4.37836e-007 
0.166847 0.066903 -0.1 2.86774 0.860683 -4.6379e-007 
0.166847 0.066903 0.1 2.90309 0.732671 -4.75566e-007 
0.16845 0.059113 -0.1 2.95667 0.470743 -4.96383e-007 
0.16845 0.059113 0.1 2.9749 0.336827 -5.05425e-007 
0.169 0.051 -0.1 2.99313 0.0676374 -5.20379e-007 
0.169 0.051 0.1 2.99313 -0.0676374 -5.26292e-007 
3 34 36 35 
3 33 36 34 
3 33 37 36 
3 32 37 33 
3 32 38 37 
3 31 38 32 
3 31 39 38 
3 30 39 31 
3 30 40 39 
3 29 40 30 
3 29 41 40 
3 28 41 29 
3 28 42 41 
3 27 42 28 
3 27 43 42 
3 26 43 27 
3 26 44 43 
3 25 44 26 
3 25 45 44 
3 24 45 25 
3 24 46 45 
3 24 47 46 
3 23 47 24 
3 22 47 23 
3 22 0 47 
3 21 0 22 
3 21 1 0 
3 20 1 21 
3 20 2 1 
3 19 2 20 
3 19 3 2 
3 18 3 19 
3 18 4 3 
3 17 4 18 
3 17 5 4 
3 16 5 17 
3 16 6 5 
3 15 6 16 
3 15 7 6 
3 14 7 15 
3 14 8 7 
3 13 8 14 
3 13 9 8 
3 12 9 13 
3 12 10 9 
3 11 10 12 
3 84 82 83 
3 84 81 82 
3 85 81 84 
3 85 80 81 
3 86 80 85 
3 86 79 80 
3 87 79 86 
3 87 78 79 
3 88 78 87 
3 88 77 78 
3 89 77 88 
3 89 76 77 
3 90 76 89 
3 90 75 76 
3 91 75 90 
3 91 74 75 
3 92 74 91 
3 92 73 74 
3 93 73 92 
3 93 72 73 
3 94 72 93 
3 95 72 94 
3 95 71 72 
3 95 70 71 
3 48 70 95 
3 48 69 70 
3 49 69 48 
3 49 68 69 
3 50 68 49 
3 50 67 68 
3 51 67 50 
3 51 66 67 
3 52 66 51 
3 52 65 66 
3 53 65 52 
3 53 64 65 
3 54 64 53 
3 54 63 64 
3 55 63 54 
3 55 62 63 
3 56 62 55 
3 56 61 62 
3 57 61 56 
3 57 60 61 
3 58 60 57 
3 58 59 60 
3 97 99 98 
3 97 98 96 
3 99 101 100 
3 99 100 98 
3 101 103 102 
3 101 102 100 
3 103 105 104 
3 103 104 102 
3 105 107 106 
3 105 106 104 
3 107 109 108 
3 107 108 106 
3 109 111 110 
3 109 110 108 
3 111 113 112 
3 111 112 110 
3 113 115 114 
3 113 114 112 
3 115 117 116 
3 115 116 114 
3 117 119 118 
3 117 118 116 
3 119 121 120 
3 119 120 118 
3 121 123 122 
3 121 122 120 
3 123 125 124 
3 123 124 122 
3 125 127 126 
3 125 126 124 
3 127 129 128 
3 127 128 126 
3 129 131 130 
3 129 130 128 
3 131 133 132 
3 131 132 130 
3 133 135 134 
3 133 134 132 
3 135 137 136 
3 135 136 134 
3 137 139 138 
3 137 138 136 
3 139 141 140 
3 139 140 138 
3 141 143 142 
3 141 142 140 
3 143 145 144 
3 143 144 142 
3 145 147 146 
3 145 146 144 
3 147 149 148 
3 147 148 146 
3 149 151 150 
3 149 150 148 
3 151 153 152 
3 151 152 150 
3 153 155 154 
3 153 154 152 
3 155 157 156 
3 155 156 154 
3 157 159 158 
3 157 158 156 
3 159 161 160 
3 159 160 158 
3 161 163 162 
3 161 162 160 
3 163 165 164 
3 163 164 162 
3 165 167 166 
3 165 166 164 
3 167 169 168 
3 167 168 166 
3 169 171 170 
3 169 170 168 
3 171 173 172 
3 171 172 170 
3 173 175 174 
3 173 174 172 
3 175 177 176 
3 175 176 174 
3 177 179 178 
3 177 178 176 
3 179 181 180 
3 179 180 178 
3 181 183 182 
3 181 182 180 
3 183 185 184 
3 183 184 182 
3 185 187 186 
3 185 186 184 
3 187 189 188 
3 187 188 186 
3 189 191 190 
3 189 190 188 
3 191 97 96 
3 191 96 190 
