ply
format ascii 1.0
comment VCGLIB generated
element vertex 16
property float x
property float y
property float z
property float nx
property float ny
property float nz
element face 12
property list uchar int vertex_indices
end_header
0.274 0.691 0.1 1.71349e-008 -4.28372e-009 0.098 
0.078 -0.009 0.1 8.56744e-009 -2.14186e-009 0.049 
0.00800002 -0.009 0.1 1.71349e-008 -4.28372e-009 0.098 
0.204 0.691 0.1 8.56744e-009 -2.14186e-009 0.049 
0.274 0.691 -0.1 -1.71349e-008 4.28372e-009 -0.098 
0.078 -0.00899999 -0.1 -8.56744e-009 2.14186e-009 -0.049 
0.00799998 -0.00899999 -0.1 -1.71349e-008 4.28372e-009 -0.098 
0.204 0.691 -0.1 -8.56744e-009 2.14186e-009 -0.049 
0.274 0.691 -0.1 0.962964 1.73037 -9.27331e-008 
0.274 0.691 0.1 1.92593 0.46074 -3.166e-007 
0.078 -0.00899999 -0.1 1.92593 -1.53926 -4.04023e-007 
0.078 -0.009 0.1 0.962964 -2.26963 -2.67579e-007 
0.00799998 -0.00899999 -0.1 -0.962964 -1.73037 9.27331e-008 
0.00800002 -0.009 0.1 -1.92593 -0.46074 3.166e-007 
0.204 0.691 -0.1 -1.92593 1.53926 4.04023e-007 
0.204 0.691 0.1 -0.962964 2.26963 2.67579e-007 
3 2 0 3 
3 2 1 0 
3 4 6 7 
3 5 6 4 
3 9 11 10 
3 9 10 8 
3 11 13 12 
3 11 12 10 
3 13 15 14 
3 13 14 12 
3 15 9 8 
3 15 8 14 
