ply
format ascii 1.0
comment VCGLIB generated
element vertex 232
property float x
property float y
property float z
property float nx
property float ny
property float nz
element face 228
property list uchar int vertex_indices
end_header
0.309 0.449 0.1 6.06014e-009 -1.51504e-009 0.03466 
0.309 0.369 0.1 4.86246e-009 -1.21561e-009 0.02781 
0.167 0.369 0.1 7.2671e-009 -1.81678e-009 0.041563 
0.167 0.139 0.1 3.7741e-009 -9.43525e-010 0.0215853 
0.167763 0.126528 0.1 6.80256e-010 -1.70064e-010 0.00389061 
0.169935 0.11556 0.1 3.29329e-010 -8.23323e-011 0.00188354 
0.173344 0.106016 0.1 6.00806e-010 -1.50201e-010 0.00343621 
0.177815 0.097815 0.1 2.6093e-010 -6.52327e-011 0.00149235 
0.183175 0.090878 0.1 5.42243e-010 -1.35561e-010 0.00310127 
0.18925 0.085125 0.1 2.06354e-010 -5.15885e-011 0.00118021 
0.195867 0.080476 0.1 1.68355e-010 -4.20887e-011 0.000962877 
0.202852 0.076852 0.1 1.30118e-010 -3.25296e-011 0.00074419 
0.210031 0.074172 0.1 4.6008e-010 -1.1502e-010 0.00263135 
0.217231 0.072356 0.1 9.334e-011 -2.3335e-011 0.000533843 
0.224279 0.071326 0.1 5.9423e-011 -1.48558e-011 0.00033986 
0.231 0.071 0.1 1.49472e-009 -3.73681e-010 0.00854882 
0.239022 0.071229 0.1 1.56241e-010 -3.90603e-011 0.000893596 
0.247093 0.071917 0.1 1.71422e-010 -4.28556e-011 0.000980422 
0.255219 0.073063 0.1 1.85424e-010 -4.63561e-011 0.0010605 
0.263407 0.074667 0.1 1.98296e-010 -4.9574e-011 0.00113412 
0.271666 0.076729 0.1 2.10028e-010 -5.25071e-011 0.00120122 
0.28 0.07925 0.1 2.2062e-010 -5.51552e-011 0.0012618 
0.288418 0.082229 0.1 2.30102e-010 -5.75254e-011 0.00131603 
0.296926 0.085667 0.1 2.38468e-010 -5.9617e-011 0.00136388 
0.305531 0.089563 0.1 2.45752e-010 -6.1438e-011 0.00140554 
0.314241 0.093917 0.1 2.51954e-010 -6.29887e-011 0.00144101 
0.323061 0.098729 0.1 2.57114e-010 -6.42785e-011 0.00147052 
0.332 0.104 0.1 1.29724e-010 -3.24311e-011 0.000741937 
0.332 0.021 0.1 4.29944e-009 -1.07486e-009 0.0245899 
0.323917 0.016839 0.1 5.92274e-010 -1.48068e-010 0.00338741 
0.31525 0.012875 0.1 2.21467e-010 -5.53668e-011 0.00126664 
0.306125 0.009141 0.1 4.0778e-010 -1.01945e-010 0.00233223 
0.296667 0.005667 0.1 1.45301e-010 -3.63252e-011 0.000831024 
0.287 0.002484 0.1 1.31022e-010 -3.27555e-011 0.000749358 
0.27725 -0.000375004 0.1 2.10568e-010 -5.26421e-011 0.00120431 
0.267542 -0.00288 0.1 6.68132e-011 -1.67033e-011 0.000382127 
0.258 -0.005 0.1 8.92801e-011 -2.232e-011 0.000510623 
0.24875 -0.006703 0.1 2.14416e-011 -5.36042e-012 0.000122632 
0.239917 -0.007958 0.1 1.71793e-011 -4.29483e-012 9.82543e-005 
0.231625 -0.008734 0.1 6.4891e-013 -1.62228e-013 3.71133e-006 
0.224 -0.009 0.1 8.29938e-012 -2.07485e-012 4.74669e-005 
0.200751 -0.007773 0.1 7.53482e-011 -1.8837e-011 0.000430941 
0.179505 -0.004181 0.1 2.25372e-010 -5.63429e-011 0.00128898 
0.160266 0.001641 0.1 5.43966e-010 -1.35992e-010 0.00311112 
0.143037 0.009556 0.1 7.77533e-010 -1.94383e-010 0.00444697 
0.127822 0.019429 0.1 8.99112e-010 -2.24778e-010 0.00514232 
0.114625 0.031125 0.1 9.10068e-010 -2.27517e-010 0.00520498 
0.103448 0.044509 0.1 1.0481e-009 -2.62026e-010 0.00599445 
0.094296 0.059444 0.1 2.42235e-009 -6.05588e-010 0.0138542 
0.087172 0.075797 0.1 9.95162e-010 -2.4879e-010 0.00569166 
0.082079 0.093431 0.1 8.76752e-010 -2.19188e-010 0.00501444 
0.07902 0.11221 0.1 9.45343e-010 -2.36336e-010 0.00540673 
0.078 0.132 0.1 7.77174e-009 -1.94294e-009 0.0444492 
0.078 0.369 0.1 3.68802e-009 -9.22004e-010 0.021093 
1.74846e-008 0.369 0.1 5.40274e-010 -1.35068e-010 0.00309001 
1.74846e-008 0.379 0.1 9.31594e-009 -2.32899e-009 0.053281 
0.167 0.542 0.1 2.71552e-009 -6.78882e-010 0.015531 
0.167 0.449 0.1 4.4535e-009 -1.11337e-009 0.025471 
0.309 0.449 -0.1 -6.06014e-009 1.51504e-009 -0.03466 
0.309 0.369 -0.1 -4.86246e-009 1.21561e-009 -0.02781 
0.167 0.369 -0.1 -7.2671e-009 1.81678e-009 -0.041563 
0.167 0.139 -0.1 -3.7741e-009 9.43525e-010 -0.0215853 
0.167763 0.126528 -0.1 -6.80256e-010 1.70064e-010 -0.00389061 
0.169935 0.11556 -0.1 -3.29329e-010 8.23323e-011 -0.00188354 
0.173344 0.106016 -0.1 -6.00806e-010 1.50201e-010 -0.00343621 
0.177815 0.097815 -0.1 -2.6093e-010 6.52327e-011 -0.00149235 
0.183175 0.090878 -0.1 -5.42243e-010 1.35561e-010 -0.00310127 
0.18925 0.085125 -0.1 -2.06354e-010 5.15885e-011 -0.00118021 
0.195867 0.080476 -0.1 -1.68355e-010 4.20887e-011 -0.000962877 
0.202852 0.076852 -0.1 -1.30118e-010 3.25296e-011 -0.00074419 
0.210031 0.074172 -0.1 -4.6008e-010 1.1502e-010 -0.00263135 
0.217231 0.072356 -0.1 -9.334e-011 2.3335e-011 -0.000533843 
0.224279 0.071326 -0.1 -5.9423e-011 1.48558e-011 -0.00033986 
0.231 0.071 -0.1 -1.49472e-009 3.73681e-010 -0.00854882 
0.239022 0.071229 -0.1 -1.56241e-010 3.90603e-011 -0.000893596 
0.247093 0.071917 -0.1 -1.71422e-010 4.28556e-011 -0.000980422 
0.255219 0.073063 -0.1 -1.85424e-010 4.6356e-011 -0.0010605 
0.263407 0.074667 -0.1 -1.98296e-010 4.9574e-011 -0.00113412 
0.271666 0.076729 -0.1 -2.10028e-010 5.25071e-011 -0.00120122 
0.28 0.07925 -0.1 -2.2062e-010 5.51552e-011 -0.0012618 
0.288418 0.082229 -0.1 -2.30102e-010 5.75254e-011 -0.00131603 
0.296926 0.085667 -0.1 -2.38468e-010 5.9617e-011 -0.00136388 
0.305531 0.089563 -0.1 -2.45752e-010 6.1438e-011 -0.00140554 
0.314241 0.093917 -0.1 -2.51954e-010 6.29887e-011 -0.00144101 
0.323061 0.098729 -0.1 -2.57114e-010 6.42785e-011 -0.00147052 
0.332 0.104 -0.1 -1.29724e-010 3.24311e-011 -0.000741937 
0.332 0.021 -0.1 -4.29944e-009 1.07486e-009 -0.0245899 
0.323917 0.016839 -0.1 -5.92274e-010 1.48068e-010 -0.00338741 
0.31525 0.012875 -0.1 -2.21467e-010 5.53668e-011 -0.00126664 
0.306125 0.009141 -0.1 -4.0778e-010 1.01945e-010 -0.00233223 
0.296667 0.005667 -0.1 -1.45301e-010 3.63252e-011 -0.000831024 
0.287 0.002484 -0.1 -1.31022e-010 3.27555e-011 -0.000749358 
0.27725 -0.000374996 -0.1 -2.10568e-010 5.26421e-011 -0.00120431 
0.267542 -0.00288 -0.1 -6.68132e-011 1.67033e-011 -0.000382127 
0.258 -0.005 -0.1 -8.92801e-011 2.232e-011 -0.000510623 
0.24875 -0.006703 -0.1 -2.14416e-011 5.36042e-012 -0.000122632 
0.239917 -0.00795799 -0.1 -1.71793e-011 4.29483e-012 -9.82543e-005 
0.231625 -0.008734 -0.1 -6.4891e-013 1.62228e-013 -3.71133e-006 
0.224 -0.00899999 -0.1 -8.29938e-012 2.07485e-012 -4.74669e-005 
0.200751 -0.007773 -0.1 -7.53482e-011 1.8837e-011 -0.000430941 
0.179505 -0.004181 -0.1 -2.25372e-010 5.63429e-011 -0.00128898 
0.160266 0.001641 -0.1 -5.43966e-010 1.35992e-010 -0.00311112 
0.143037 0.009556 -0.1 -7.77533e-010 1.94383e-010 -0.00444697 
0.127822 0.019429 -0.1 -8.99112e-010 2.24778e-010 -0.00514232 
0.114625 0.031125 -0.1 -9.10068e-010 2.27517e-010 -0.00520498 
0.103448 0.044509 -0.1 -1.0481e-009 2.62026e-010 -0.00599445 
0.094296 0.059444 -0.1 -2.42235e-009 6.05588e-010 -0.0138542 
0.087172 0.075797 -0.1 -9.95162e-010 2.4879e-010 -0.00569166 
0.082079 0.093431 -0.1 -8.76752e-010 2.19188e-010 -0.00501444 
0.07902 0.11221 -0.1 -9.45343e-010 2.36336e-010 -0.00540673 
0.078 0.132 -0.1 -7.77174e-009 1.94294e-009 -0.0444492 
0.078 0.369 -0.1 -3.68802e-009 9.22004e-010 -0.021093 
-1.74846e-008 0.369 -0.1 -5.40274e-010 1.35068e-010 -0.00309001 
-1.74846e-008 0.379 -0.1 -9.31594e-009 2.32899e-009 -0.053281 
0.167 0.542 -0.1 -2.71552e-009 6.78882e-010 -0.015531 
0.167 0.449 -0.1 -4.4535e-009 1.11337e-009 -0.025471 
0.309 0.449 -0.1 1 2 -8.74228e-008 
0.309 0.449 0.1 2 1 -3.0598e-007 
0.309 0.369 -0.1 2 -1 -3.93403e-007 
0.309 0.369 0.1 1 -2 -2.62269e-007 
0.167 0.369 -0.1 1 -2 -2.62269e-007 
0.167 0.369 0.1 2 -1 -3.93403e-007 
0.167 0.139 -0.1 2.99813 0.0610628 -5.21541e-007 
0.167 0.139 0.1 2.99627 0.122126 -5.18546e-007 
0.167763 0.126528 -0.1 2.97722 0.316385 -5.06724e-007 
0.167763 0.126528 0.1 2.96003 0.449581 -4.97897e-007 
0.169935 0.11556 -0.1 2.90363 0.724892 -4.76e-007 
0.169935 0.11556 0.1 2.86441 0.867007 -4.62931e-007 
0.173344 0.106016 -0.1 2.76145 1.15141 -4.32498e-007 
0.173344 0.106016 0.1 2.69772 1.2937 -4.15135e-007 
0.177815 0.097815 -0.1 2.5473 1.56875 -3.76812e-007 
0.177815 0.097815 0.1 2.46061 1.7015 -3.55852e-007 
0.183175 0.090878 -0.1 2.27022 1.94892 -3.11748e-007 
0.183175 0.090878 0.1 2.16651 2.06359 -2.88602e-007 
0.18925 0.085125 -0.1 1.95008 2.27041 -2.4172e-007 
0.18925 0.085125 0.1 1.83736 2.36256 -2.17984e-007 
0.195867 0.080476 -0.1 1.61029 2.52412 -1.7122e-007 
0.195867 0.080476 0.1 1.49595 2.59352 -1.48193e-007 
0.202852 0.076852 -0.1 1.2708 2.71213 -1.03643e-007 
0.202852 0.076852 0.1 1.16 2.76134 -8.21192e-008 
0.210031 0.074172 -0.1 0.944035 2.84333 -4.07744e-008 
0.210031 0.074172 0.1 0.838861 2.87612 -2.09522e-008 
0.217231 0.072356 -0.1 0.63373 2.92876 1.72152e-008 
0.217231 0.072356 0.1 0.533772 2.94861 3.55603e-008 
0.224279 0.071326 -0.1 0.337657 2.9778 7.11261e-008 
0.224279 0.071326 0.1 0.2415 2.98714 8.83464e-008 
0.231 0.071 -0.1 0.0683604 2.99724 1.19061e-007 
0.231 0.071 0.1 -0.00862233 2.99801 1.32555e-007 
0.239022 0.071229 -0.1 -0.142005 2.99557 1.55769e-007 
0.239022 0.071229 0.1 -0.198404 2.99237 1.65491e-007 
0.247093 0.071917 -0.1 -0.309517 2.98297 1.84508e-007 
0.247093 0.071917 0.1 -0.364229 2.97679 1.93803e-007 
0.255219 0.073063 -0.1 -0.471537 2.96175 2.11908e-007 
0.255219 0.073063 0.1 -0.524133 2.9529 2.20717e-007 
0.263407 0.074667 -0.1 -0.626717 2.93291 2.3778e-007 
0.263407 0.074667 0.1 -0.676706 2.92178 2.46035e-007 
0.271666 0.076729 -0.1 -0.774002 2.8976 2.61989e-007 
0.271666 0.076729 0.1 -0.821309 2.88455 2.6969e-007 
0.28 0.07925 -0.1 -0.912688 2.85704 2.84465e-007 
0.28 0.07925 0.1 -0.956761 2.84259 2.91539e-007 
0.288418 0.082229 -0.1 -1.04188 2.81258 3.0511e-007 
0.288418 0.082229 0.1 -1.08293 2.79704 3.11608e-007 
0.296926 0.085667 -0.1 -1.16177 2.76531 3.24005e-007 
0.296926 0.085667 0.1 -1.19957 2.74912 3.29907e-007 
0.305531 0.089563 -0.1 -1.27204 2.71642 3.41149e-007 
0.305531 0.089563 0.1 -1.30672 2.69991 3.46491e-007 
0.314241 0.093917 -0.1 -1.3732 2.66679 3.56667e-007 
0.314241 0.093917 0.1 -1.405 2.65017 3.61501e-007 
0.323061 0.098729 -0.1 -1.46581 2.6171 3.70687e-007 
0.323061 0.098729 0.1 -1.4948 2.60064 3.75038e-007 
0.332 0.104 -0.1 -0.0158679 1.72279 7.808e-008 
0.332 0.104 0.1 1.49207 0.861396 -2.23229e-007 
0.332 0.021 -0.1 2.4577 -0.889107 -4.68582e-007 
0.332 0.021 0.1 1.9154 -1.77821 -4.12628e-007 
0.323917 0.016839 -0.1 1.33133 -2.68761 -3.50257e-007 
0.323917 0.016839 0.1 1.28956 -2.7079 -3.4384e-007 
0.31525 0.012875 -0.1 1.21058 -2.7443 -3.31622e-007 
0.31525 0.012875 0.1 1.17337 -2.76042 -3.2582e-007 
0.306125 0.009141 -0.1 1.10223 -2.7897 -3.14662e-007 
0.306125 0.009141 0.1 1.0683 -2.80287 -3.09305e-007 
0.296667 0.005667 -0.1 1.00232 -2.8272 -2.98832e-007 
0.296667 0.005667 0.1 0.97028 -2.83835 -2.93718e-007 
0.287 0.002484 -0.1 0.906877 -2.85927 -2.83546e-007 
0.287 0.002484 0.1 0.875513 -2.86903 -2.78489e-007 
0.27725 -0.000374996 -0.1 0.812617 -2.88748 -2.68298e-007 
0.27725 -0.000375004 0.1 0.781085 -2.89616 -2.63165e-007 
0.267542 -0.00288 -0.1 0.716589 -2.91277 -2.52613e-007 
0.267542 -0.00288 0.1 0.683625 -2.92068 -2.47195e-007 
0.258 -0.005 -0.1 0.614839 -2.93586 -2.35833e-007 
0.258 -0.005 0.1 0.579017 -2.94314 -2.29887e-007 
0.24875 -0.006703 -0.1 0.502798 -2.957 -2.17167e-007 
0.24875 -0.006703 0.1 0.462401 -2.96358 -2.10391e-007 
0.239917 -0.00795799 -0.1 0.374513 -2.97576 -1.95557e-007 
0.239917 -0.007958 0.1 0.327022 -2.98136 -1.87497e-007 
0.231625 -0.008734 -0.1 0.221218 -2.99069 -1.69406e-007 
0.231625 -0.008734 0.1 0.162905 -2.99443 -1.59374e-007 
0.224 -0.00899999 -0.1 0.0170249 -2.99739 -1.33997e-007 
0.224 -0.009 0.1 -0.0705422 -2.99661 -1.18652e-007 
0.200751 -0.007773 -0.1 -0.272108 -2.98323 -8.28246e-008 
0.200751 -0.007773 0.1 -0.386106 -2.97063 -6.23412e-008 
0.179505 -0.004181 -0.1 -0.623046 -2.92915 -1.91004e-008 
0.179505 -0.004181 0.1 -0.745987 -2.90028 3.65736e-009 
0.160266 0.001641 -0.1 -0.996741 -2.82297 5.088e-008 
0.160266 0.001641 0.1 -1.12455 -2.77453 7.53444e-008 
0.143037 0.009556 -0.1 -1.37925 -2.65626 1.25047e-007 
0.143037 0.009556 0.1 -1.50613 -2.58643 1.50284e-007 
0.127822 0.019429 -0.1 -1.75194 -2.42612 2.0027e-007 
0.127822 0.019429 0.1 -1.87087 -2.33563 2.25019e-007 
0.114625 0.031125 -0.1 -2.09408 -2.13775 2.72697e-007 
0.114625 0.031125 0.1 -2.19837 -2.03035 2.95626e-007 
0.103448 0.044509 -0.1 -2.38775 -1.80446 3.38612e-007 
0.103448 0.044509 0.1 -2.47284 -1.68597 3.5867e-007 
0.094296 0.059444 -0.1 -2.62207 -1.44437 3.95322e-007 
0.094296 0.059444 0.1 -2.68621 -1.32126 4.11918e-007 
0.087172 0.075797 -0.1 -2.7943 -1.07625 4.41526e-007 
0.087172 0.075797 0.1 -2.83825 -0.954338 4.5454e-007 
0.082079 0.093431 -0.1 -2.90846 -0.715728 4.77246e-007 
0.082079 0.093431 0.1 -2.93471 -0.599027 4.86937e-007 
0.07902 0.11221 -0.1 -2.97266 -0.373024 5.0345e-007 
0.07902 0.11221 0.1 -2.98434 -0.263721 5.10271e-007 
0.078 0.132 -0.1 -2.99735 -0.102946 5.19574e-007 
0.078 0.132 0.1 -2.99867 -0.0514728 5.22054e-007 
0.078 0.369 -0.1 -2 -1 3.0598e-007 
0.078 0.369 0.1 -1 -2 8.74228e-008 
-1.74846e-008 0.369 -0.1 -1 -2 8.74228e-008 
1.74846e-008 0.369 0.1 -2 -1 3.0598e-007 
-1.74846e-008 0.379 -0.1 -2.69848 0.715625 5.03099e-007 
1.74846e-008 0.379 0.1 -2.39697 1.43125 4.81662e-007 
0.167 0.542 -0.1 -0.396969 1.43125 1.3197e-007 
0.167 0.542 0.1 1.30152 0.715625 -1.96284e-007 
0.167 0.449 -0.1 2 1 -3.0598e-007 
0.167 0.449 0.1 1 2 -8.74228e-008 
3 55 57 56 
3 55 0 57 
3 55 1 0 
3 54 1 55 
3 53 1 54 
3 52 2 53 
3 2 1 53 
3 52 3 2 
3 52 4 3 
3 51 4 52 
3 51 5 4 
3 51 6 5 
3 50 6 51 
3 50 7 6 
3 26 28 27 
3 25 28 26 
3 50 8 7 
3 24 28 25 
3 49 8 50 
3 49 9 8 
3 23 28 24 
3 22 28 23 
3 49 10 9 
3 21 28 22 
3 49 11 10 
3 20 28 21 
3 49 12 11 
3 19 28 20 
3 48 12 49 
3 18 28 19 
3 48 13 12 
3 17 28 18 
3 48 14 13 
3 16 28 17 
3 48 15 14 
3 15 28 16 
3 48 28 15 
3 47 28 48 
3 46 28 47 
3 45 28 46 
3 45 29 28 
3 44 29 45 
3 44 30 29 
3 44 31 30 
3 43 31 44 
3 43 32 31 
3 43 33 32 
3 43 34 33 
3 42 34 43 
3 42 35 34 
3 42 36 35 
3 41 36 42 
3 41 37 36 
3 41 38 37 
3 40 38 41 
3 40 39 38 
3 115 113 114 
3 58 113 115 
3 59 113 58 
3 59 112 113 
3 59 111 112 
3 60 110 111 
3 59 60 111 
3 61 110 60 
3 62 110 61 
3 62 109 110 
3 63 109 62 
3 64 109 63 
3 64 108 109 
3 65 108 64 
3 86 84 85 
3 86 83 84 
3 66 108 65 
3 86 82 83 
3 66 107 108 
3 67 107 66 
3 86 81 82 
3 86 80 81 
3 68 107 67 
3 86 79 80 
3 69 107 68 
3 86 78 79 
3 70 107 69 
3 86 77 78 
3 70 106 107 
3 86 76 77 
3 71 106 70 
3 86 75 76 
3 72 106 71 
3 86 74 75 
3 73 106 72 
3 86 73 74 
3 86 106 73 
3 86 105 106 
3 86 104 105 
3 86 103 104 
3 87 103 86 
3 87 102 103 
3 88 102 87 
3 89 102 88 
3 89 101 102 
3 90 101 89 
3 91 101 90 
3 92 101 91 
3 92 100 101 
3 93 100 92 
3 94 100 93 
3 94 99 100 
3 95 99 94 
3 96 99 95 
3 96 98 99 
3 97 98 96 
3 117 119 118 
3 117 118 116 
3 119 121 120 
3 119 120 118 
3 121 123 122 
3 121 122 120 
3 123 125 124 
3 123 124 122 
3 125 127 126 
3 125 126 124 
3 127 129 128 
3 127 128 126 
3 129 131 130 
3 129 130 128 
3 131 133 132 
3 131 132 130 
3 133 135 134 
3 133 134 132 
3 135 137 136 
3 135 136 134 
3 137 139 138 
3 137 138 136 
3 139 141 140 
3 139 140 138 
3 141 143 142 
3 141 142 140 
3 143 145 144 
3 143 144 142 
3 145 147 146 
3 145 146 144 
3 147 149 148 
3 147 148 146 
3 149 151 150 
3 149 150 148 
3 151 153 152 
3 151 152 150 
3 153 155 154 
3 153 154 152 
3 155 157 156 
3 155 156 154 
3 157 159 158 
3 157 158 156 
3 159 161 160 
3 159 160 158 
3 161 163 162 
3 161 162 160 
3 163 165 164 
3 163 164 162 
3 165 167 166 
3 165 166 164 
3 167 169 168 
3 167 168 166 
3 169 171 170 
3 169 170 168 
3 171 173 172 
3 171 172 170 
3 173 175 174 
3 173 174 172 
3 175 177 176 
3 175 176 174 
3 177 179 178 
3 177 178 176 
3 179 181 180 
3 179 180 178 
3 181 183 182 
3 181 182 180 
3 183 185 184 
3 183 184 182 
3 185 187 186 
3 185 186 184 
3 187 189 188 
3 187 188 186 
3 189 191 190 
3 189 190 188 
3 191 193 192 
3 191 192 190 
3 193 195 194 
3 193 194 192 
3 195 197 196 
3 195 196 194 
3 197 199 198 
3 197 198 196 
3 199 201 200 
3 199 200 198 
3 201 203 202 
3 201 202 200 
3 203 205 204 
3 203 204 202 
3 205 207 206 
3 205 206 204 
3 207 209 208 
3 207 208 206 
3 209 211 210 
3 209 210 208 
3 211 213 212 
3 211 212 210 
3 213 215 214 
3 213 214 212 
3 215 217 216 
3 215 216 214 
3 217 219 218 
3 217 218 216 
3 219 221 220 
3 219 220 218 
3 221 223 222 
3 221 222 220 
3 223 225 224 
3 223 224 222 
3 225 227 226 
3 225 226 224 
3 227 229 228 
3 227 228 226 
3 229 231 230 
3 229 230 228 
3 231 117 116 
3 231 116 230 
