ply
format ascii 1.0
comment VCGLIB generated
element vertex 384
property float x
property float y
property float z
property float nx
property float ny
property float nz
element face 376
property list uchar int vertex_indices
end_header
0.16845 0.389887 0.1 3.3061e-010 -8.26524e-011 0.00189087 
0.166847 0.382097 0.1 4.69098e-010 -1.17275e-010 0.00268293 
0.164266 0.374703 0.1 4.263e-010 -1.06575e-010 0.00243815 
0.160778 0.367778 0.1 3.74809e-010 -9.37023e-011 0.00214366 
0.156457 0.361394 0.1 3.17273e-010 -7.93184e-011 0.00181459 
0.151375 0.355625 0.1 2.5653e-010 -6.41324e-011 0.00146718 
0.145606 0.350543 0.1 1.95672e-010 -4.89179e-011 0.00111911 
0.139222 0.346222 0.1 1.3784e-010 -3.446e-011 0.000788354 
0.132297 0.342734 0.1 8.63052e-011 -2.15763e-011 0.000493608 
0.124903 0.340153 0.1 4.42946e-011 -1.10737e-011 0.000253336 
0.117113 0.33855 0.1 1.50227e-011 -3.75568e-012 8.592e-005 
0.109 0.338 0.1 1.56038e-012 -3.90095e-013 8.92433e-006 
0.100887 0.33855 0.1 6.10818e-012 -1.52705e-012 3.49347e-005 
0.093097 0.340153 0.1 2.78156e-011 -6.95391e-012 0.000159087 
0.085703 0.342734 0.1 6.3796e-011 -1.5949e-011 0.00036487 
0.078778 0.346222 0.1 1.10944e-010 -2.7736e-011 0.000634526 
0.072394 0.350543 0.1 1.66031e-010 -4.15079e-011 0.000949589 
0.066625 0.355625 0.1 2.25846e-010 -5.64614e-011 0.00129169 
0.061543 0.361394 0.1 2.87168e-010 -7.17921e-011 0.00164241 
0.057222 0.367778 0.1 3.46921e-010 -8.67304e-011 0.00198416 
0.053734 0.374703 0.1 4.02115e-010 -1.00529e-010 0.00229983 
0.051153 0.382097 0.1 4.50048e-010 -1.12512e-010 0.00257397 
0.04955 0.389887 0.1 6.58413e-010 -1.64603e-010 0.00376568 
0.049 0.398 0.1 3.40445e-010 -8.51113e-011 0.00194712 
0.04955 0.406113 0.1 5.00832e-010 -1.25208e-010 0.00286443 
0.051153 0.413903 0.1 4.69098e-010 -1.17275e-010 0.00268293 
0.053734 0.421297 0.1 4.263e-010 -1.06575e-010 0.00243815 
0.057222 0.428222 0.1 3.74809e-010 -9.37022e-011 0.00214366 
0.061543 0.434606 0.1 3.17273e-010 -7.93182e-011 0.00181459 
0.066625 0.440375 0.1 2.56531e-010 -6.41327e-011 0.00146718 
0.072394 0.445457 0.1 1.95672e-010 -4.89179e-011 0.00111911 
0.078778 0.449778 0.1 1.3784e-010 -3.446e-011 0.000788354 
0.085703 0.453266 0.1 8.63052e-011 -2.15763e-011 0.000493608 
0.093097 0.455847 0.1 4.42946e-011 -1.10737e-011 0.000253336 
0.100887 0.45745 0.1 1.50227e-011 -3.75568e-012 8.592e-005 
0.109 0.458 0.1 1.56038e-012 -3.90095e-013 8.92433e-006 
0.117113 0.45745 0.1 6.10818e-012 -1.52705e-012 3.49347e-005 
0.124903 0.455847 0.1 2.78156e-011 -6.95391e-012 0.000159087 
0.132297 0.453266 0.1 6.3796e-011 -1.5949e-011 0.00036487 
0.139222 0.449778 0.1 1.10944e-010 -2.7736e-011 0.000634526 
0.145606 0.445457 0.1 1.66031e-010 -4.15079e-011 0.000949589 
0.151375 0.440375 0.1 2.25846e-010 -5.64615e-011 0.00129169 
0.156457 0.434606 0.1 2.87169e-010 -7.17922e-011 0.00164241 
0.160778 0.428222 0.1 3.4692e-010 -8.67301e-011 0.00198415 
0.164266 0.421297 0.1 4.02115e-010 -1.00529e-010 0.00229983 
0.166847 0.413903 0.1 4.50048e-010 -1.12512e-010 0.00257397 
0.16845 0.406113 0.1 4.8819e-010 -1.22048e-010 0.00279212 
0.169 0.398 0.1 6.7777e-010 -1.69442e-010 0.00387639 
0.16845 0.042887 0.1 4.8819e-010 -1.22048e-010 0.00279212 
0.166847 0.035097 0.1 4.50047e-010 -1.12512e-010 0.00257397 
0.164266 0.027703 0.1 4.02116e-010 -1.00529e-010 0.00229983 
0.160778 0.020778 0.1 3.46921e-010 -8.67303e-011 0.00198416 
0.156457 0.014394 0.1 2.87169e-010 -7.17921e-011 0.00164241 
0.151375 0.008625 0.1 2.25845e-010 -5.64614e-011 0.00129169 
0.145606 0.003543 0.1 1.66032e-010 -4.15079e-011 0.000949591 
0.139222 -0.000778004 0.1 1.10944e-010 -2.77361e-011 0.000634527 
0.132297 -0.004266 0.1 6.37959e-011 -1.5949e-011 0.00036487 
0.124903 -0.006847 0.1 2.78156e-011 -6.95389e-012 0.000159087 
0.117113 -0.00845 0.1 6.10815e-012 -1.52704e-012 3.49346e-005 
0.109 -0.009 0.1 1.56037e-012 -3.90094e-013 8.9243e-006 
0.100887 -0.00845 0.1 1.50227e-011 -3.75566e-012 8.59196e-005 
0.093097 -0.006847 0.1 4.42946e-011 -1.10736e-011 0.000253335 
0.085703 -0.004266 0.1 8.63051e-011 -2.15763e-011 0.000493608 
0.078778 -0.000778004 0.1 1.37841e-010 -3.44601e-011 0.000788356 
0.072394 0.003543 0.1 1.95672e-010 -4.89179e-011 0.00111911 
0.066625 0.008625 0.1 2.5653e-010 -6.41325e-011 0.00146718 
0.061543 0.014394 0.1 3.17273e-010 -7.93183e-011 0.00181459 
0.057222 0.020778 0.1 3.7481e-010 -9.37024e-011 0.00214366 
0.053734 0.027703 0.1 4.26299e-010 -1.06575e-010 0.00243815 
0.051153 0.035097 0.1 4.69098e-010 -1.17275e-010 0.00268293 
0.04955 0.042887 0.1 5.00832e-010 -1.25208e-010 0.00286443 
0.049 0.051 0.1 3.40445e-010 -8.51113e-011 0.00194712 
0.04955 0.059113 0.1 6.58413e-010 -1.64603e-010 0.00376568 
0.051153 0.066903 0.1 4.50048e-010 -1.12512e-010 0.00257397 
0.053734 0.074297 0.1 4.02115e-010 -1.00529e-010 0.00229983 
0.057222 0.081222 0.1 3.46921e-010 -8.67303e-011 0.00198416 
0.061543 0.087606 0.1 2.87169e-010 -7.17921e-011 0.00164241 
0.066625 0.093375 0.1 2.25846e-010 -5.64614e-011 0.00129169 
0.072394 0.098457 0.1 1.66032e-010 -4.1508e-011 0.000949591 
0.078778 0.102778 0.1 1.10944e-010 -2.7736e-011 0.000634527 
0.085703 0.106266 0.1 6.37959e-011 -1.5949e-011 0.00036487 
0.093097 0.108847 0.1 2.78156e-011 -6.9539e-012 0.000159087 
0.100887 0.11045 0.1 6.10816e-012 -1.52704e-012 3.49346e-005 
0.109 0.111 0.1 1.56038e-012 -3.90095e-013 8.92433e-006 
0.117113 0.11045 0.1 1.50227e-011 -3.75567e-012 8.59196e-005 
0.124903 0.108847 0.1 4.42946e-011 -1.10736e-011 0.000253335 
0.132297 0.106266 0.1 8.6305e-011 -2.15763e-011 0.000493607 
0.139222 0.102778 0.1 1.37841e-010 -3.44601e-011 0.000788356 
0.145606 0.098457 0.1 1.95672e-010 -4.8918e-011 0.00111911 
0.151375 0.093375 0.1 2.5653e-010 -6.41325e-011 0.00146718 
0.156457 0.087606 0.1 3.17273e-010 -7.93183e-011 0.00181459 
0.160778 0.081222 0.1 3.74809e-010 -9.37023e-011 0.00214366 
0.164266 0.074297 0.1 4.26299e-010 -1.06575e-010 0.00243815 
0.166847 0.066903 0.1 4.69098e-010 -1.17275e-010 0.00268293 
0.16845 0.059113 0.1 3.3061e-010 -8.26524e-011 0.00189087 
0.169 0.051 0.1 6.7777e-010 -1.69442e-010 0.00387639 
0.16845 0.389887 -0.1 -3.3061e-010 8.26524e-011 -0.00189087 
0.166847 0.382097 -0.1 -4.69098e-010 1.17275e-010 -0.00268293 
0.164266 0.374703 -0.1 -4.263e-010 1.06575e-010 -0.00243815 
0.160778 0.367778 -0.1 -3.74809e-010 9.37023e-011 -0.00214366 
0.156457 0.361394 -0.1 -3.17273e-010 7.93184e-011 -0.00181459 
0.151375 0.355625 -0.1 -2.5653e-010 6.41324e-011 -0.00146718 
0.145606 0.350543 -0.1 -1.95672e-010 4.89179e-011 -0.00111911 
0.139222 0.346222 -0.1 -1.3784e-010 3.446e-011 -0.000788354 
0.132297 0.342734 -0.1 -8.63052e-011 2.15763e-011 -0.000493608 
0.124903 0.340153 -0.1 -4.42946e-011 1.10737e-011 -0.000253336 
0.117113 0.33855 -0.1 -1.50227e-011 3.75568e-012 -8.592e-005 
0.109 0.338 -0.1 -1.56038e-012 3.90095e-013 -8.92433e-006 
0.100887 0.33855 -0.1 -6.10818e-012 1.52705e-012 -3.49347e-005 
0.093097 0.340153 -0.1 -2.78156e-011 6.95391e-012 -0.000159087 
0.085703 0.342734 -0.1 -6.3796e-011 1.5949e-011 -0.00036487 
0.078778 0.346222 -0.1 -1.10944e-010 2.7736e-011 -0.000634526 
0.072394 0.350543 -0.1 -1.66031e-010 4.15079e-011 -0.000949589 
0.066625 0.355625 -0.1 -2.25846e-010 5.64614e-011 -0.00129169 
0.061543 0.361394 -0.1 -2.87168e-010 7.17921e-011 -0.00164241 
0.057222 0.367778 -0.1 -3.46921e-010 8.67304e-011 -0.00198416 
0.053734 0.374703 -0.1 -4.02115e-010 1.00529e-010 -0.00229983 
0.051153 0.382097 -0.1 -4.50048e-010 1.12512e-010 -0.00257397 
0.04955 0.389887 -0.1 -6.58413e-010 1.64603e-010 -0.00376568 
0.049 0.398 -0.1 -3.40445e-010 8.51113e-011 -0.00194712 
0.04955 0.406113 -0.1 -5.00832e-010 1.25208e-010 -0.00286443 
0.051153 0.413903 -0.1 -4.69098e-010 1.17275e-010 -0.00268293 
0.053734 0.421297 -0.1 -4.263e-010 1.06575e-010 -0.00243815 
0.057222 0.428222 -0.1 -3.74809e-010 9.37022e-011 -0.00214366 
0.061543 0.434606 -0.1 -3.17273e-010 7.93182e-011 -0.00181459 
0.066625 0.440375 -0.1 -2.56531e-010 6.41327e-011 -0.00146718 
0.072394 0.445457 -0.1 -1.95672e-010 4.89179e-011 -0.00111911 
0.078778 0.449778 -0.1 -1.3784e-010 3.446e-011 -0.000788354 
0.085703 0.453266 -0.1 -8.63052e-011 2.15763e-011 -0.000493608 
0.093097 0.455847 -0.1 -4.42946e-011 1.10737e-011 -0.000253336 
0.100887 0.45745 -0.1 -1.50227e-011 3.75568e-012 -8.592e-005 
0.109 0.458 -0.1 -1.56038e-012 3.90095e-013 -8.92433e-006 
0.117113 0.45745 -0.1 -6.10818e-012 1.52705e-012 -3.49347e-005 
0.124903 0.455847 -0.1 -2.78156e-011 6.95391e-012 -0.000159087 
0.132297 0.453266 -0.1 -6.3796e-011 1.5949e-011 -0.00036487 
0.139222 0.449778 -0.1 -1.10944e-010 2.7736e-011 -0.000634526 
0.145606 0.445457 -0.1 -1.66031e-010 4.15079e-011 -0.000949589 
0.151375 0.440375 -0.1 -2.25846e-010 5.64615e-011 -0.00129169 
0.156457 0.434606 -0.1 -2.87169e-010 7.17922e-011 -0.00164241 
0.160778 0.428222 -0.1 -3.4692e-010 8.67301e-011 -0.00198415 
0.164266 0.421297 -0.1 -4.02115e-010 1.00529e-010 -0.00229983 
0.166847 0.413903 -0.1 -4.50048e-010 1.12512e-010 -0.00257397 
0.16845 0.406113 -0.1 -4.8819e-010 1.22048e-010 -0.00279212 
0.169 0.398 -0.1 -6.7777e-010 1.69442e-010 -0.00387639 
0.16845 0.042887 -0.1 -4.8819e-010 1.22048e-010 -0.00279212 
0.166847 0.035097 -0.1 -4.50047e-010 1.12512e-010 -0.00257397 
0.164266 0.027703 -0.1 -4.02116e-010 1.00529e-010 -0.00229983 
0.160778 0.020778 -0.1 -3.46921e-010 8.67303e-011 -0.00198416 
0.156457 0.014394 -0.1 -2.87169e-010 7.17921e-011 -0.00164241 
0.151375 0.008625 -0.1 -2.25845e-010 5.64614e-011 -0.00129169 
0.145606 0.003543 -0.1 -1.66032e-010 4.15079e-011 -0.000949591 
0.139222 -0.000777996 -0.1 -1.10944e-010 2.77361e-011 -0.000634527 
0.132297 -0.004266 -0.1 -6.37959e-011 1.5949e-011 -0.00036487 
0.124903 -0.006847 -0.1 -2.78156e-011 6.95389e-012 -0.000159087 
0.117113 -0.00844999 -0.1 -6.10815e-012 1.52704e-012 -3.49346e-005 
0.109 -0.00899999 -0.1 -1.56037e-012 3.90094e-013 -8.9243e-006 
0.100887 -0.00844999 -0.1 -1.50227e-011 3.75566e-012 -8.59196e-005 
0.093097 -0.006847 -0.1 -4.42946e-011 1.10736e-011 -0.000253335 
0.085703 -0.004266 -0.1 -8.63051e-011 2.15763e-011 -0.000493608 
0.078778 -0.000777996 -0.1 -1.37841e-010 3.44601e-011 -0.000788356 
0.072394 0.003543 -0.1 -1.95672e-010 4.89179e-011 -0.00111911 
0.066625 0.008625 -0.1 -2.5653e-010 6.41325e-011 -0.00146718 
0.061543 0.014394 -0.1 -3.17273e-010 7.93183e-011 -0.00181459 
0.057222 0.020778 -0.1 -3.7481e-010 9.37024e-011 -0.00214366 
0.053734 0.027703 -0.1 -4.26299e-010 1.06575e-010 -0.00243815 
0.051153 0.035097 -0.1 -4.69098e-010 1.17275e-010 -0.00268293 
0.04955 0.042887 -0.1 -5.00832e-010 1.25208e-010 -0.00286443 
0.049 0.051 -0.1 -3.40445e-010 8.51113e-011 -0.00194712 
0.04955 0.059113 -0.1 -6.58413e-010 1.64603e-010 -0.00376568 
0.051153 0.066903 -0.1 -4.50048e-010 1.12512e-010 -0.00257397 
0.053734 0.074297 -0.1 -4.02115e-010 1.00529e-010 -0.00229983 
0.057222 0.081222 -0.1 -3.46921e-010 8.67303e-011 -0.00198416 
0.061543 0.087606 -0.1 -2.87169e-010 7.17921e-011 -0.00164241 
0.066625 0.093375 -0.1 -2.25846e-010 5.64614e-011 -0.00129169 
0.072394 0.098457 -0.1 -1.66032e-010 4.1508e-011 -0.000949591 
0.078778 0.102778 -0.1 -1.10944e-010 2.7736e-011 -0.000634527 
0.085703 0.106266 -0.1 -6.37959e-011 1.5949e-011 -0.00036487 
0.093097 0.108847 -0.1 -2.78156e-011 6.9539e-012 -0.000159087 
0.100887 0.11045 -0.1 -6.10816e-012 1.52704e-012 -3.49346e-005 
0.109 0.111 -0.1 -1.56038e-012 3.90095e-013 -8.92433e-006 
0.117113 0.11045 -0.1 -1.50227e-011 3.75567e-012 -8.59196e-005 
0.124903 0.108847 -0.1 -4.42946e-011 1.10736e-011 -0.000253335 
0.132297 0.106266 -0.1 -8.6305e-011 2.15763e-011 -0.000493607 
0.139222 0.102778 -0.1 -1.37841e-010 3.44601e-011 -0.000788356 
0.145606 0.098457 -0.1 -1.95672e-010 4.8918e-011 -0.00111911 
0.151375 0.093375 -0.1 -2.5653e-010 6.41325e-011 -0.00146718 
0.156457 0.087606 -0.1 -3.17273e-010 7.93183e-011 -0.00181459 
0.160778 0.081222 -0.1 -3.74809e-010 9.37024e-011 -0.00214366 
0.164266 0.074297 -0.1 -4.26299e-010 1.06575e-010 -0.00243815 
0.166847 0.066903 -0.1 -4.69098e-010 1.17275e-010 -0.00268293 
0.16845 0.059113 -0.1 -3.3061e-010 8.26524e-011 -0.00189087 
0.169 0.051 -0.1 -6.7777e-010 1.69442e-010 -0.00387639 
0.16845 0.389887 -0.1 2.9749 -0.336828 -5.34871e-007 
0.16845 0.389887 0.1 2.95667 -0.470743 -5.37537e-007 
0.166847 0.382097 -0.1 2.90309 -0.73267 -5.39618e-007 
0.166847 0.382097 0.1 2.86774 -0.860682 -5.39034e-007 
0.164266 0.374703 -0.1 2.78137 -1.10897 -5.34785e-007 
0.164266 0.374703 0.1 2.73035 -1.22925 -5.31121e-007 
0.160778 0.367778 -0.1 2.61435 -1.46021 -5.20936e-007 
0.160778 0.367778 0.1 2.54939 -1.57089 -5.14414e-007 
0.156457 0.361394 -0.1 2.40665 -1.78206 -4.98688e-007 
0.156457 0.361394 0.1 2.32888 -1.88256 -4.89484e-007 
0.151375 0.355625 -0.1 2.16176 -2.07241 -4.68561e-007 
0.151375 0.355625 0.1 2.0724 -2.16176 -4.56844e-007 
0.145606 0.350543 -0.1 1.88255 -2.32888 -4.30955e-007 
0.145606 0.350543 0.1 1.78206 -2.40665 -4.16783e-007 
0.139222 0.346222 -0.1 1.57089 -2.54939 -3.861e-007 
0.139222 0.346222 0.1 1.46021 -2.61435 -3.69588e-007 
0.132297 0.342734 -0.1 1.22925 -2.73035 -3.34276e-007 
0.132297 0.342734 0.1 1.10897 -2.78137 -3.15477e-007 
0.124903 0.340153 -0.1 0.860686 -2.86774 -2.7584e-007 
0.124903 0.340153 0.1 0.732675 -2.90309 -2.55003e-007 
0.117113 0.33855 -0.1 0.470746 -2.95666 -2.11548e-007 
0.117113 0.33855 0.1 0.336829 -2.9749 -1.8893e-007 
0.109 0.338 -0.1 0.0676373 -2.99313 -1.4266e-007 
0.109 0.338 0.1 -0.0676375 -2.99313 -1.19008e-007 
0.100887 0.33855 -0.1 -0.336829 -2.9749 -7.11438e-008 
0.100887 0.33855 0.1 -0.470746 -2.95666 -4.6932e-008 
0.093097 0.340153 -0.1 -0.732674 -2.90309 1.20687e-009 
0.093097 0.340153 0.1 -0.860685 -2.86774 2.5134e-008 
0.085703 0.342734 -0.1 -1.10897 -2.78137 7.23214e-008 
0.085703 0.342734 0.1 -1.22925 -2.73035 9.55818e-008 
0.078778 0.346222 -0.1 -1.46021 -2.61435 1.41034e-007 
0.078778 0.346222 0.1 -1.57089 -2.54939 1.63225e-007 
0.072394 0.350543 -0.1 -1.78206 -2.40665 2.06387e-007 
0.072394 0.350543 0.1 -1.88255 -2.32888 2.27357e-007 
0.066625 0.355625 -0.1 -2.0724 -2.16176 2.67857e-007 
0.066625 0.355625 0.1 -2.16176 -2.0724 2.87386e-007 
0.061543 0.361394 -0.1 -2.32888 -1.88255 3.24906e-007 
0.061543 0.361394 0.1 -2.40665 -1.78206 3.42896e-007 
0.057222 0.367778 -0.1 -2.54939 -1.57089 3.77083e-007 
0.057222 0.367778 0.1 -2.61435 -1.46021 3.9328e-007 
0.053734 0.374703 -0.1 -2.73035 -1.22925 4.23657e-007 
0.053734 0.374703 0.1 -2.78137 -1.10897 4.37836e-007 
0.051153 0.382097 -0.1 -2.86774 -0.860683 4.6379e-007 
0.051153 0.382097 0.1 -2.90309 -0.732672 4.75566e-007 
0.04955 0.389887 -0.1 -2.95666 -0.470745 4.96383e-007 
0.04955 0.389887 0.1 -2.9749 -0.336828 5.05424e-007 
0.049 0.398 -0.1 -2.99313 -0.0676374 5.20379e-007 
0.049 0.398 0.1 -2.99313 0.0676374 5.26292e-007 
0.04955 0.406113 -0.1 -2.9749 0.336828 5.34871e-007 
0.04955 0.406113 0.1 -2.95666 0.470745 5.37536e-007 
0.051153 0.413903 -0.1 -2.90309 0.732672 5.39618e-007 
0.051153 0.413903 0.1 -2.86774 0.860683 5.39034e-007 
0.053734 0.421297 -0.1 -2.78137 1.10897 5.34785e-007 
0.053734 0.421297 0.1 -2.73035 1.22925 5.31121e-007 
0.057222 0.428222 -0.1 -2.61435 1.46021 5.20936e-007 
0.057222 0.428222 0.1 -2.54938 1.57089 5.14414e-007 
0.061543 0.434606 -0.1 -2.40665 1.78206 4.98688e-007 
0.061543 0.434606 0.1 -2.32888 1.88255 4.89484e-007 
0.066625 0.440375 -0.1 -2.16176 2.0724 4.68562e-007 
0.066625 0.440375 0.1 -2.0724 2.16176 4.56844e-007 
0.072394 0.445457 -0.1 -1.88255 2.32888 4.30955e-007 
0.072394 0.445457 0.1 -1.78206 2.40665 4.16783e-007 
0.078778 0.449778 -0.1 -1.57089 2.54939 3.861e-007 
0.078778 0.449778 0.1 -1.46021 2.61435 3.69588e-007 
0.085703 0.453266 -0.1 -1.22925 2.73035 3.34276e-007 
0.085703 0.453266 0.1 -1.10897 2.78137 3.15477e-007 
0.093097 0.455847 -0.1 -0.860685 2.86774 2.7584e-007 
0.093097 0.455847 0.1 -0.732674 2.90309 2.55003e-007 
0.100887 0.45745 -0.1 -0.470746 2.95666 2.11548e-007 
0.100887 0.45745 0.1 -0.336829 2.9749 1.8893e-007 
0.109 0.458 -0.1 -0.0676375 2.99313 1.4266e-007 
0.109 0.458 0.1 0.0676373 2.99313 1.19008e-007 
0.117113 0.45745 -0.1 0.336829 2.9749 7.11438e-008 
0.117113 0.45745 0.1 0.470746 2.95666 4.6932e-008 
0.124903 0.455847 -0.1 0.732675 2.90309 -1.20693e-009 
0.124903 0.455847 0.1 0.860686 2.86774 -2.51341e-008 
0.132297 0.453266 -0.1 1.10897 2.78137 -7.23215e-008 
0.132297 0.453266 0.1 1.22925 2.73035 -9.55819e-008 
0.139222 0.449778 -0.1 1.46021 2.61435 -1.41034e-007 
0.139222 0.449778 0.1 1.57089 2.54939 -1.63225e-007 
0.145606 0.445457 -0.1 1.78206 2.40665 -2.06387e-007 
0.145606 0.445457 0.1 1.88255 2.32888 -2.27357e-007 
0.151375 0.440375 -0.1 2.0724 2.16176 -2.67857e-007 
0.151375 0.440375 0.1 2.16176 2.0724 -2.87387e-007 
0.156457 0.434606 -0.1 2.32888 1.88255 -3.24906e-007 
0.156457 0.434606 0.1 2.40665 1.78206 -3.42895e-007 
0.160778 0.428222 -0.1 2.54938 1.57089 -3.77082e-007 
0.160778 0.428222 0.1 2.61435 1.46021 -3.9328e-007 
0.164266 0.421297 -0.1 2.73035 1.22925 -4.23657e-007 
0.164266 0.421297 0.1 2.78137 1.10897 -4.37836e-007 
0.166847 0.413903 -0.1 2.86774 0.860682 -4.63791e-007 
0.166847 0.413903 0.1 2.90309 0.73267 -4.75566e-007 
0.16845 0.406113 -0.1 2.95667 0.470743 -4.96383e-007 
0.16845 0.406113 0.1 2.9749 0.336828 -5.05424e-007 
0.169 0.398 -0.1 2.99313 0.0676374 -5.20379e-007 
0.169 0.398 0.1 2.99313 -0.0676374 -5.26292e-007 
0.16845 0.042887 -0.1 2.9749 -0.336828 -5.34871e-007 
0.16845 0.042887 0.1 2.95667 -0.470743 -5.37537e-007 
0.166847 0.035097 -0.1 2.90309 -0.732671 -5.39618e-007 
0.166847 0.035097 0.1 2.86774 -0.860684 -5.39034e-007 
0.164266 0.027703 -0.1 2.78137 -1.10897 -5.34785e-007 
0.164266 0.027703 0.1 2.73035 -1.22925 -5.31121e-007 
0.160778 0.020778 -0.1 2.61435 -1.46021 -5.20936e-007 
0.160778 0.020778 0.1 2.54938 -1.57089 -5.14414e-007 
0.156457 0.014394 -0.1 2.40665 -1.78206 -4.98688e-007 
0.156457 0.014394 0.1 2.32888 -1.88255 -4.89484e-007 
0.151375 0.008625 -0.1 2.16176 -2.0724 -4.68562e-007 
0.151375 0.008625 0.1 2.0724 -2.16176 -4.56844e-007 
0.145606 0.003543 -0.1 1.88255 -2.32888 -4.30955e-007 
0.145606 0.003543 0.1 1.78206 -2.40665 -4.16784e-007 
0.139222 -0.000777996 -0.1 1.57089 -2.54938 -3.861e-007 
0.139222 -0.000778004 0.1 1.46021 -2.61435 -3.69588e-007 
0.132297 -0.004266 -0.1 1.22925 -2.73035 -3.34276e-007 
0.132297 -0.004266 0.1 1.10897 -2.78137 -3.15477e-007 
0.124903 -0.006847 -0.1 0.860685 -2.86774 -2.7584e-007 
0.124903 -0.006847 0.1 0.732673 -2.90309 -2.55003e-007 
0.117113 -0.00844999 -0.1 0.470744 -2.95667 -2.11547e-007 
0.117113 -0.00845 0.1 0.336828 -2.9749 -1.8893e-007 
0.109 -0.00899999 -0.1 0.0676371 -2.99313 -1.4266e-007 
0.109 -0.009 0.1 -0.0676373 -2.99313 -1.19008e-007 
0.100887 -0.00844999 -0.1 -0.336828 -2.9749 -7.1144e-008 
0.100887 -0.00845 0.1 -0.470744 -2.95667 -4.69324e-008 
0.093097 -0.006847 -0.1 -0.732672 -2.90309 1.20652e-009 
0.093097 -0.006847 0.1 -0.860684 -2.86774 2.51338e-008 
0.085703 -0.004266 -0.1 -1.10897 -2.78137 7.23213e-008 
0.085703 -0.004266 0.1 -1.22925 -2.73035 9.55816e-008 
0.078778 -0.000777996 -0.1 -1.46021 -2.61435 1.41034e-007 
0.078778 -0.000778004 0.1 -1.57089 -2.54938 1.63226e-007 
0.072394 0.003543 -0.1 -1.78206 -2.40665 2.06388e-007 
0.072394 0.003543 0.1 -1.88255 -2.32888 2.27357e-007 
0.066625 0.008625 -0.1 -2.0724 -2.16176 2.67857e-007 
0.066625 0.008625 0.1 -2.16176 -2.0724 2.87387e-007 
0.061543 0.014394 -0.1 -2.32888 -1.88255 3.24906e-007 
0.061543 0.014394 0.1 -2.40665 -1.78206 3.42896e-007 
0.057222 0.020778 -0.1 -2.54938 -1.57089 3.77083e-007 
0.057222 0.020778 0.1 -2.61435 -1.46021 3.9328e-007 
0.053734 0.027703 -0.1 -2.73035 -1.22925 4.23657e-007 
0.053734 0.027703 0.1 -2.78137 -1.10897 4.37836e-007 
0.051153 0.035097 -0.1 -2.86774 -0.860685 4.6379e-007 
0.051153 0.035097 0.1 -2.90309 -0.732673 4.75566e-007 
0.04955 0.042887 -0.1 -2.95666 -0.470745 4.96383e-007 
0.04955 0.042887 0.1 -2.9749 -0.336828 5.05424e-007 
0.049 0.051 -0.1 -2.99313 -0.0676374 5.20379e-007 
0.049 0.051 0.1 -2.99313 0.0676374 5.26292e-007 
0.04955 0.059113 -0.1 -2.9749 0.336828 5.34871e-007 
0.04955 0.059113 0.1 -2.95666 0.470744 5.37536e-007 
0.051153 0.066903 -0.1 -2.90309 0.732672 5.39618e-007 
0.051153 0.066903 0.1 -2.86774 0.860684 5.39034e-007 
0.053734 0.074297 -0.1 -2.78137 1.10897 5.34785e-007 
0.053734 0.074297 0.1 -2.73035 1.22925 5.31121e-007 
0.057222 0.081222 -0.1 -2.61435 1.46021 5.20936e-007 
0.057222 0.081222 0.1 -2.54938 1.57089 5.14414e-007 
0.061543 0.087606 -0.1 -2.40665 1.78206 4.98688e-007 
0.061543 0.087606 0.1 -2.32888 1.88255 4.89484e-007 
0.066625 0.093375 -0.1 -2.16176 2.0724 4.68562e-007 
0.066625 0.093375 0.1 -2.0724 2.16176 4.56844e-007 
0.072394 0.098457 -0.1 -1.88255 2.32888 4.30955e-007 
0.072394 0.098457 0.1 -1.78206 2.40665 4.16784e-007 
0.078778 0.102778 -0.1 -1.57089 2.54938 3.861e-007 
0.078778 0.102778 0.1 -1.46021 2.61435 3.69588e-007 
0.085703 0.106266 -0.1 -1.22925 2.73035 3.34276e-007 
0.085703 0.106266 0.1 -1.10897 2.78137 3.15477e-007 
0.093097 0.108847 -0.1 -0.860684 2.86774 2.7584e-007 
0.093097 0.108847 0.1 -0.732673 2.90309 2.55003e-007 
0.100887 0.11045 -0.1 -0.470745 2.95666 2.11548e-007 
0.100887 0.11045 0.1 -0.336828 2.9749 1.8893e-007 
0.109 0.111 -0.1 -0.0676375 2.99313 1.4266e-007 
0.109 0.111 0.1 0.0676373 2.99313 1.19008e-007 
0.117113 0.11045 -0.1 0.336828 2.9749 7.1144e-008 
0.117113 0.11045 0.1 0.470745 2.95666 4.69323e-008 
0.124903 0.108847 -0.1 0.732673 2.90309 -1.2066e-009 
0.124903 0.108847 0.1 0.860685 2.86774 -2.51339e-008 
0.132297 0.106266 -0.1 1.10897 2.78137 -7.23214e-008 
0.132297 0.106266 0.1 1.22925 2.73035 -9.55816e-008 
0.139222 0.102778 -0.1 1.46021 2.61435 -1.41034e-007 
0.139222 0.102778 0.1 1.57089 2.54938 -1.63226e-007 
0.145606 0.098457 -0.1 1.78206 2.40665 -2.06388e-007 
0.145606 0.098457 0.1 1.88255 2.32888 -2.27358e-007 
0.151375 0.093375 -0.1 2.0724 2.16176 -2.67857e-007 
0.151375 0.093375 0.1 2.16176 2.0724 -2.87386e-007 
0.156457 0.087606 -0.1 2.32888 1.88255 -3.24906e-007 
0.156457 0.087606 0.1 2.40665 1.78206 -3.42895e-007 
0.160778 0.081222 -0.1 2.54938 1.57089 -3.77083e-007 
0.160778 0.081222 0.1 2.61435 1.46021 -3.9328e-007 
0.164266 0.074297 -0.1 2.73035 1.22925 -4.23657e-007 
0.164266 0.074297 0.1 2.78137 1.10897 -4.37836e-007 
0.166847 0.066903 -0.1 2.86774 0.860683 -4.6379e-007 
0.166847 0.066903 0.1 2.90309 0.732671 -4.75566e-007 
0.16845 0.059113 -0.1 2.95667 0.470743 -4.96383e-007 
0.16845 0.059113 0.1 2.9749 0.336827 -5.05424e-007 
0.169 0.051 -0.1 2.99313 0.0676374 -5.20379e-007 
0.169 0.051 0.1 2.99313 -0.0676374 -5.26292e-007 
3 82 84 83 
3 81 84 82 
3 81 85 84 
3 80 85 81 
3 80 86 85 
3 79 86 80 
3 79 87 86 
3 78 87 79 
3 78 88 87 
3 77 88 78 
3 77 89 88 
3 76 89 77 
3 76 90 89 
3 75 90 76 
3 75 91 90 
3 74 91 75 
3 74 92 91 
3 73 92 74 
3 73 93 92 
3 72 93 73 
3 72 94 93 
3 72 95 94 
3 71 95 72 
3 70 95 71 
3 70 48 95 
3 69 48 70 
3 69 49 48 
3 68 49 69 
3 68 50 49 
3 67 50 68 
3 67 51 50 
3 66 51 67 
3 66 52 51 
3 65 52 66 
3 65 53 52 
3 64 53 65 
3 64 54 53 
3 63 54 64 
3 63 55 54 
3 62 55 63 
3 62 56 55 
3 61 56 62 
3 61 57 56 
3 60 57 61 
3 60 58 57 
3 59 58 60 
3 34 36 35 
3 34 37 36 
3 33 37 34 
3 33 38 37 
3 32 38 33 
3 32 39 38 
3 31 39 32 
3 31 40 39 
3 30 40 31 
3 30 41 40 
3 29 41 30 
3 29 42 41 
3 28 42 29 
3 28 43 42 
3 27 43 28 
3 27 44 43 
3 26 44 27 
3 26 45 44 
3 25 45 26 
3 25 46 45 
3 24 46 25 
3 24 47 46 
3 23 47 24 
3 22 47 23 
3 22 0 47 
3 22 1 0 
3 21 1 22 
3 21 2 1 
3 20 2 21 
3 20 3 2 
3 19 3 20 
3 19 4 3 
3 18 4 19 
3 18 5 4 
3 17 5 18 
3 17 6 5 
3 16 6 17 
3 16 7 6 
3 15 7 16 
3 15 8 7 
3 14 8 15 
3 14 9 8 
3 13 9 14 
3 13 10 9 
3 12 10 13 
3 12 11 10 
3 180 178 179 
3 180 177 178 
3 181 177 180 
3 181 176 177 
3 182 176 181 
3 182 175 176 
3 183 175 182 
3 183 174 175 
3 184 174 183 
3 184 173 174 
3 185 173 184 
3 185 172 173 
3 186 172 185 
3 186 171 172 
3 187 171 186 
3 187 170 171 
3 188 170 187 
3 188 169 170 
3 189 169 188 
3 189 168 169 
3 190 168 189 
3 191 168 190 
3 191 167 168 
3 191 166 167 
3 144 166 191 
3 144 165 166 
3 145 165 144 
3 145 164 165 
3 146 164 145 
3 146 163 164 
3 147 163 146 
3 147 162 163 
3 148 162 147 
3 148 161 162 
3 149 161 148 
3 149 160 161 
3 150 160 149 
3 150 159 160 
3 151 159 150 
3 151 158 159 
3 152 158 151 
3 152 157 158 
3 153 157 152 
3 153 156 157 
3 154 156 153 
3 154 155 156 
3 132 130 131 
3 133 130 132 
3 133 129 130 
3 134 129 133 
3 134 128 129 
3 135 128 134 
3 135 127 128 
3 136 127 135 
3 136 126 127 
3 137 126 136 
3 137 125 126 
3 138 125 137 
3 138 124 125 
3 139 124 138 
3 139 123 124 
3 140 123 139 
3 140 122 123 
3 141 122 140 
3 141 121 122 
3 142 121 141 
3 142 120 121 
3 143 120 142 
3 143 119 120 
3 143 118 119 
3 96 118 143 
3 97 118 96 
3 97 117 118 
3 98 117 97 
3 98 116 117 
3 99 116 98 
3 99 115 116 
3 100 115 99 
3 100 114 115 
3 101 114 100 
3 101 113 114 
3 102 113 101 
3 102 112 113 
3 103 112 102 
3 103 111 112 
3 104 111 103 
3 104 110 111 
3 105 110 104 
3 105 109 110 
3 106 109 105 
3 106 108 109 
3 107 108 106 
3 193 195 194 
3 193 194 192 
3 195 197 196 
3 195 196 194 
3 197 199 198 
3 197 198 196 
3 199 201 200 
3 199 200 198 
3 201 203 202 
3 201 202 200 
3 203 205 204 
3 203 204 202 
3 205 207 206 
3 205 206 204 
3 207 209 208 
3 207 208 206 
3 209 211 210 
3 209 210 208 
3 211 213 212 
3 211 212 210 
3 213 215 214 
3 213 214 212 
3 215 217 216 
3 215 216 214 
3 217 219 218 
3 217 218 216 
3 219 221 220 
3 219 220 218 
3 221 223 222 
3 221 222 220 
3 223 225 224 
3 223 224 222 
3 225 227 226 
3 225 226 224 
3 227 229 228 
3 227 228 226 
3 229 231 230 
3 229 230 228 
3 231 233 232 
3 231 232 230 
3 233 235 234 
3 233 234 232 
3 235 237 236 
3 235 236 234 
3 237 239 238 
3 237 238 236 
3 239 241 240 
3 239 240 238 
3 241 243 242 
3 241 242 240 
3 243 245 244 
3 243 244 242 
3 245 247 246 
3 245 246 244 
3 247 249 248 
3 247 248 246 
3 249 251 250 
3 249 250 248 
3 251 253 252 
3 251 252 250 
3 253 255 254 
3 253 254 252 
3 255 257 256 
3 255 256 254 
3 257 259 258 
3 257 258 256 
3 259 261 260 
3 259 260 258 
3 261 263 262 
3 261 262 260 
3 263 265 264 
3 263 264 262 
3 265 267 266 
3 265 266 264 
3 267 269 268 
3 267 268 266 
3 269 271 270 
3 269 270 268 
3 271 273 272 
3 271 272 270 
3 273 275 274 
3 273 274 272 
3 275 277 276 
3 275 276 274 
3 277 279 278 
3 277 278 276 
3 279 281 280 
3 279 280 278 
3 281 283 282 
3 281 282 280 
3 283 285 284 
3 283 284 282 
3 285 287 286 
3 285 286 284 
3 287 193 192 
3 287 192 286 
3 289 291 290 
3 289 290 288 
3 291 293 292 
3 291 292 290 
3 293 295 294 
3 293 294 292 
3 295 297 296 
3 295 296 294 
3 297 299 298 
3 297 298 296 
3 299 301 300 
3 299 300 298 
3 301 303 302 
3 301 302 300 
3 303 305 304 
3 303 304 302 
3 305 307 306 
3 305 306 304 
3 307 309 308 
3 307 308 306 
3 309 311 310 
3 309 310 308 
3 311 313 312 
3 311 312 310 
3 313 315 314 
3 313 314 312 
3 315 317 316 
3 315 316 314 
3 317 319 318 
3 317 318 316 
3 319 321 320 
3 319 320 318 
3 321 323 322 
3 321 322 320 
3 323 325 324 
3 323 324 322 
3 325 327 326 
3 325 326 324 
3 327 329 328 
3 327 328 326 
3 329 331 330 
3 329 330 328 
3 331 333 332 
3 331 332 330 
3 333 335 334 
3 333 334 332 
3 335 337 336 
3 335 336 334 
3 337 339 338 
3 337 338 336 
3 339 341 340 
3 339 340 338 
3 341 343 342 
3 341 342 340 
3 343 345 344 
3 343 344 342 
3 345 347 346 
3 345 346 344 
3 347 349 348 
3 347 348 346 
3 349 351 350 
3 349 350 348 
3 351 353 352 
3 351 352 350 
3 353 355 354 
3 353 354 352 
3 355 357 356 
3 355 356 354 
3 357 359 358 
3 357 358 356 
3 359 361 360 
3 359 360 358 
3 361 363 362 
3 361 362 360 
3 363 365 364 
3 363 364 362 
3 365 367 366 
3 365 366 364 
3 367 369 368 
3 367 368 366 
3 369 371 370 
3 369 370 368 
3 371 373 372 
3 371 372 370 
3 373 375 374 
3 373 374 372 
3 375 377 376 
3 375 376 374 
3 377 379 378 
3 377 378 376 
3 379 381 380 
3 379 380 378 
3 381 383 382 
3 381 382 380 
3 383 289 288 
3 383 288 382 
