ply
format ascii 1.0
comment VCGLIB generated
element vertex 216
property float x
property float y
property float z
property float nx
property float ny
property float nz
element face 216
property list uchar int vertex_indices
end_header
0.341 0.682 0.1 5.10796e-009 -1.27699e-009 0.0292141 
0.40108 0.678365 0.1 2.24632e-009 -5.61581e-010 0.0128475 
0.455389 0.667921 0.1 2.6593e-009 -6.64825e-010 0.0152094 
0.504031 0.651359 0.1 3.14444e-009 -7.86111e-010 0.0179841 
0.547111 0.62937 0.1 3.67704e-009 -9.19258e-010 0.0210302 
0.584733 0.602645 0.0999999 3.59472e-009 -8.98678e-010 0.0205594 
0.617 0.571875 0.0999999 2.97293e-009 -7.43232e-010 0.0170032 
0.644017 0.537751 0.0999999 2.54229e-009 -6.35573e-010 0.0145402 
0.665889 0.500963 0.0999999 2.02149e-009 -5.05372e-010 0.0115616 
0.682719 0.462203 0.0999999 2.52979e-009 -6.32448e-010 0.0144687 
0.694611 0.422162 0.0999999 2.00564e-009 -5.01409e-010 0.0114709 
0.70167 0.381531 0.0999999 2.0146e-009 -5.03652e-010 0.0115222 
0.704 0.341 0.0999999 2.4757e-009 -6.18925e-010 0.0141594 
0.701174 0.297528 0.0999999 1.97717e-009 -4.94293e-010 0.0113081 
0.69281 0.254977 0.0999998 2.52444e-009 -6.31109e-010 0.0144381 
0.679078 0.213891 0.0999998 2.04196e-009 -5.10489e-010 0.0116786 
0.660148 0.174815 0.0999998 2.59626e-009 -6.49066e-010 0.0148489 
0.63619 0.138295 0.0999999 2.08656e-009 -5.21638e-010 0.0119337 
0.607375 0.104875 0.0999999 2.67208e-009 -6.68018e-010 0.0152825 
0.573872 0.075101 0.0999998 7.67688e-009 -1.91922e-009 0.0439066 
0.535852 0.049519 0.1 3.03702e-009 -7.59255e-010 0.0173697 
0.493484 0.028672 0.1 2.21225e-009 -5.53061e-010 0.0126526 
0.44694 0.013106 0.1 1.41871e-009 -3.54678e-010 0.0081141 
0.396388 0.003367 0.1 6.72398e-010 -1.681e-010 0.00384567 
0.342 -4.37114e-009 0.1 1.56596e-010 -3.91489e-011 0.000895622 
0.076 -4.37114e-009 0.1 3.1694e-008 -7.9235e-009 0.181269 
0.076 0.682 0.1 1.57634e-008 -3.94084e-009 0.090156 
0.33 0.088 0.1 6.9866e-009 -1.74665e-009 0.0399587 
0.382007 0.091374 0.1 7.09848e-010 -1.77462e-010 0.00405986 
0.427306 0.100907 0.1 1.80214e-009 -4.50535e-010 0.010307 
0.466313 0.115719 0.1 9.75822e-010 -2.43956e-010 0.00558105 
0.499444 0.134926 0.1 1.84556e-009 -4.61391e-010 0.0105554 
0.527118 0.157647 0.1 1.82624e-009 -4.5656e-010 0.0104449 
0.54975 0.183 0.1 1.0707e-009 -2.67674e-010 0.00612367 
0.567757 0.210103 0.0999999 1.83226e-009 -4.58063e-010 0.0104793 
0.581556 0.238074 0.0999999 1.80817e-009 -4.52043e-010 0.0103415 
0.591563 0.266031 0.0999999 1.00614e-009 -2.51534e-010 0.00575443 
0.598194 0.293093 0.0999999 1.70394e-009 -4.25985e-010 0.00974541 
0.601868 0.318376 0.0999999 1.61703e-009 -4.04257e-010 0.00924832 
0.603 0.341 0.0999999 9.95672e-010 -2.48918e-010 0.00569458 
0.601178 0.374758 0.0999999 1.88954e-009 -4.72385e-010 0.0108069 
0.595671 0.40731 0.0999999 1.8603e-009 -4.65075e-010 0.0106397 
0.586422 0.438328 0.0999999 1.82976e-009 -4.5744e-010 0.010465 
0.57337 0.467481 0.0999999 1.04516e-009 -2.61291e-010 0.00597764 
0.556458 0.49444 0.0999999 1.75192e-009 -4.37981e-010 0.0100198 
0.535625 0.518875 0.1 1.75155e-009 -4.37887e-010 0.0100177 
0.510813 0.540455 0.1 9.057e-010 -2.26425e-010 0.00518 
0.481963 0.558852 0.1 1.70843e-009 -4.27107e-010 0.00977107 
0.449016 0.573734 0.1 7.38563e-010 -1.84641e-010 0.00422409 
0.411912 0.584773 0.1 4.6516e-010 -1.1629e-010 0.0026604 
0.370593 0.591638 0.1 1.54334e-009 -3.85835e-010 0.00882688 
0.325 0.594 0.1 4.04422e-010 -1.01105e-010 0.00231302 
0.174 0.594 0.1 3.20288e-008 -8.00719e-009 0.183183 
0.174 0.088 0.1 1.10705e-008 -2.76763e-009 0.063316 
0.341 0.682 -0.1 -5.10796e-009 1.27699e-009 -0.0292141 
0.40108 0.678365 -0.1 -2.24632e-009 5.61581e-010 -0.0128475 
0.455389 0.667921 -0.1 -2.6593e-009 6.64825e-010 -0.0152094 
0.504031 0.651359 -0.1 -3.14444e-009 7.86111e-010 -0.0179841 
0.547111 0.62937 -0.1 -3.67704e-009 9.19258e-010 -0.0210302 
0.584733 0.602645 -0.1 -3.59472e-009 8.98678e-010 -0.0205594 
0.617 0.571875 -0.1 -2.97293e-009 7.43232e-010 -0.0170032 
0.644017 0.537751 -0.1 -2.54229e-009 6.35573e-010 -0.0145402 
0.665889 0.500963 -0.1 -2.02149e-009 5.05372e-010 -0.0115616 
0.682719 0.462203 -0.1 -2.52979e-009 6.32448e-010 -0.0144687 
0.694611 0.422162 -0.1 -2.00564e-009 5.01409e-010 -0.0114709 
0.70167 0.381531 -0.1 -2.0146e-009 5.03652e-010 -0.0115222 
0.704 0.341 -0.1 -2.4757e-009 6.18925e-010 -0.0141594 
0.701174 0.297528 -0.1 -1.97717e-009 4.94293e-010 -0.0113081 
0.69281 0.254977 -0.1 -2.52444e-009 6.31109e-010 -0.0144381 
0.679078 0.213891 -0.1 -2.04196e-009 5.10489e-010 -0.0116786 
0.660148 0.174815 -0.1 -2.59626e-009 6.49066e-010 -0.0148489 
0.63619 0.138295 -0.1 -2.08656e-009 5.21638e-010 -0.0119337 
0.607375 0.104875 -0.1 -2.67208e-009 6.68018e-010 -0.0152825 
0.573872 0.075101 -0.1 -7.67688e-009 1.91922e-009 -0.0439066 
0.535852 0.049519 -0.1 -3.03702e-009 7.59255e-010 -0.0173697 
0.493484 0.028672 -0.1 -2.21225e-009 5.53061e-010 -0.0126526 
0.44694 0.013106 -0.1 -1.41871e-009 3.54678e-010 -0.0081141 
0.396388 0.003367 -0.1 -6.72398e-010 1.681e-010 -0.00384567 
0.342 4.37114e-009 -0.1 -1.56596e-010 3.91489e-011 -0.000895622 
0.076 4.37114e-009 -0.1 -3.1694e-008 7.9235e-009 -0.181269 
0.076 0.682 -0.1 -1.57634e-008 3.94084e-009 -0.090156 
0.33 0.088 -0.1 -6.9866e-009 1.74665e-009 -0.0399587 
0.382007 0.091374 -0.1 -7.09848e-010 1.77462e-010 -0.00405986 
0.427306 0.100907 -0.1 -1.80214e-009 4.50535e-010 -0.010307 
0.466313 0.115719 -0.1 -9.75822e-010 2.43956e-010 -0.00558105 
0.499444 0.134926 -0.1 -1.84556e-009 4.61391e-010 -0.0105554 
0.527118 0.157647 -0.1 -1.82624e-009 4.5656e-010 -0.0104449 
0.54975 0.183 -0.1 -1.0707e-009 2.67674e-010 -0.00612367 
0.567757 0.210103 -0.1 -1.83226e-009 4.58063e-010 -0.0104793 
0.581556 0.238074 -0.1 -1.80817e-009 4.52043e-010 -0.0103415 
0.591563 0.266031 -0.1 -1.00614e-009 2.51534e-010 -0.00575443 
0.598194 0.293093 -0.1 -1.70394e-009 4.25985e-010 -0.00974541 
0.601868 0.318376 -0.1 -1.61703e-009 4.04257e-010 -0.00924832 
0.603 0.341 -0.1 -9.95672e-010 2.48918e-010 -0.00569458 
0.601178 0.374758 -0.1 -1.88954e-009 4.72385e-010 -0.0108069 
0.595671 0.40731 -0.1 -1.8603e-009 4.65075e-010 -0.0106397 
0.586422 0.438328 -0.1 -1.82976e-009 4.5744e-010 -0.010465 
0.57337 0.467481 -0.1 -1.04516e-009 2.61291e-010 -0.00597764 
0.556458 0.49444 -0.1 -1.75192e-009 4.37981e-010 -0.0100198 
0.535625 0.518875 -0.1 -1.75155e-009 4.37887e-010 -0.0100177 
0.510813 0.540455 -0.1 -9.057e-010 2.26425e-010 -0.00518 
0.481963 0.558852 -0.1 -1.70843e-009 4.27107e-010 -0.00977107 
0.449016 0.573734 -0.1 -7.38563e-010 1.84641e-010 -0.00422409 
0.411912 0.584773 -0.1 -4.6516e-010 1.1629e-010 -0.0026604 
0.370593 0.591638 -0.1 -1.54334e-009 3.85835e-010 -0.00882688 
0.325 0.594 -0.1 -4.04422e-010 1.01105e-010 -0.00231302 
0.174 0.594 -0.1 -3.20288e-008 8.00719e-009 -0.183183 
0.174 0.088 -0.1 -1.10705e-008 2.76763e-009 -0.063316 
0.341 0.682 -0.1 0.060392 2.99817 1.20495e-007 
0.341 0.682 0.1 0.120784 2.99635 1.09856e-007 
0.40108 0.678365 -0.1 0.309631 2.97836 7.60502e-008 
0.40108 0.678365 0.1 0.438085 2.96219 5.28841e-008 
0.455389 0.667921 -0.1 0.700009 2.91065 4.83487e-009 
0.455389 0.667921 0.1 0.833479 2.87527 -2.0048e-008 
0.504031 0.651359 -0.1 1.09926 2.78395 -7.05104e-008 
0.504031 0.651359 0.1 1.23157 2.728 -9.60898e-008 
0.547111 0.62937 -0.1 1.48837 2.59661 -1.46733e-007 
0.547111 0.62937 0.1 1.61285 2.52118 -1.71796e-007 
0.584733 0.602645 -0.1 1.84835 2.35419 -2.20271e-007 
0.584733 0.602645 0.0999999 1.95935 2.26264 -2.43681e-007 
0.617 0.571875 -0.1 2.16426 2.06812 -2.88011e-007 
0.617 0.571875 0.0999999 2.25816 1.96516 -3.0893e-007 
0.644017 0.537751 -0.1 2.4276 1.75251 -3.47851e-007 
0.644017 0.537751 0.0999999 2.50313 1.64282 -3.65852e-007 
0.665889 0.500963 -0.1 2.63637 1.42037 -3.98872e-007 
0.665889 0.500963 0.0999999 2.69408 1.30761 -4.1389e-007 
0.682719 0.462203 -0.1 2.79314 1.08127 -4.41104e-007 
0.682719 0.462203 0.0999999 2.83449 0.967694 -4.53299e-007 
0.694611 0.422162 -0.1 2.90247 0.74058 -4.75112e-007 
0.694611 0.422162 0.0999999 2.9291 0.627044 -4.84731e-007 
0.70167 0.381531 -0.1 2.96883 0.399732 -5.01614e-007 
0.70167 0.381531 0.0999999 2.98194 0.285954 -5.08879e-007 
0.704 0.341 -0.1 2.9946 0.0499145 -5.2141e-007 
0.704 0.341 0.0999999 2.99414 -0.0723476 -5.26674e-007 
0.701174 0.297528 -0.1 2.97701 -0.322614 -5.34618e-007 
0.701174 0.297528 0.0999999 2.96034 -0.450617 -5.37299e-007 
0.69281 0.254977 -0.1 2.91088 -0.702737 -5.39671e-007 
0.69281 0.254977 0.0999998 2.87808 -0.826853 -5.39363e-007 
0.679078 0.213891 -0.1 2.79682 -1.06996 -5.35781e-007 
0.679078 0.213891 0.0999998 2.74835 -1.18894 -5.32506e-007 
0.660148 0.174815 -0.1 2.63605 -1.42048 -5.22993e-007 
0.660148 0.174815 0.0999998 2.57223 -1.53303 -5.16754e-007 
0.63619 0.138295 -0.1 2.42963 -1.75005 -5.01307e-007 
0.63619 0.138295 0.0999999 2.35085 -1.85452 -4.921e-007 
0.607375 0.104875 -0.1 2.179 -2.05348 -4.70749e-007 
0.607375 0.104875 0.0999999 2.08592 -2.14796 -4.58605e-007 
0.573872 0.075101 -0.1 1.88682 -2.32463 -4.31515e-007 
0.573872 0.075101 0.0999998 1.78078 -2.40683 -4.16568e-007 
0.535852 0.049519 -0.1 1.558 -2.55661 -3.84162e-007 
0.535852 0.049519 0.1 1.44124 -2.6242 -3.66702e-007 
0.493484 0.028672 -0.1 1.20016 -2.7429 -3.29738e-007 
0.493484 0.028672 0.1 1.07583 -2.794 -3.10234e-007 
0.44694 0.013106 -0.1 0.823512 -2.87868 -2.69819e-007 
0.44694 0.013106 0.1 0.695518 -2.91226 -2.48907e-007 
0.396388 0.003367 -0.1 0.440138 -2.96198 -2.06428e-007 
0.396388 0.003367 0.1 0.312752 -2.97812 -1.84861e-007 
0.342 4.37114e-009 -0.1 0.123578 -2.99618 -1.52575e-007 
0.342 -4.37114e-009 0.1 0.0617888 -2.99809 -1.41854e-007 
0.076 4.37114e-009 -0.1 -1 -2 8.74228e-008 
0.076 -4.37114e-009 0.1 -2 -1 3.0598e-007 
0.076 0.682 -0.1 -2 1 3.93403e-007 
0.076 0.682 0.1 -1 2 2.62269e-007 
0.33 0.088 -0.1 -0.0647398 2.9979 1.42362e-007 
0.33 0.088 0.1 -0.12948 2.9958 1.53589e-007 
0.382007 0.091374 -0.1 -0.335415 2.97437 1.8866e-007 
0.382007 0.091374 0.1 -0.47661 2.95503 2.12502e-007 
0.427306 0.100907 -0.1 -0.766865 2.892 2.60496e-007 
0.427306 0.100907 0.1 -0.915924 2.8483 2.84649e-007 
0.466313 0.115719 -0.1 -1.21153 2.73487 3.31375e-007 
0.466313 0.115719 0.1 -1.35808 2.66513 3.53951e-007 
0.499444 0.134926 -0.1 -1.63764 2.50315 3.9575e-007 
0.499444 0.134926 0.1 -1.77065 2.41089 4.14973e-007 
0.527118 0.157647 -0.1 -2.01511 2.2117 4.4901e-007 
0.527118 0.157647 0.1 -2.12656 2.10476 4.63822e-007 
0.54975 0.183 -0.1 -2.32493 1.88527 4.88912e-007 
0.54975 0.183 0.1 -2.41185 1.77272 4.9919e-007 
0.567757 0.210103 -0.1 -2.56265 1.5492 5.15786e-007 
0.567757 0.210103 0.0999999 -2.62654 1.43824 5.22105e-007 
0.581556 0.238074 -0.1 -2.73512 1.22185 5.31632e-007 
0.581556 0.238074 0.0999999 -2.77981 1.11643 5.34839e-007 
0.591563 0.266031 -0.1 -2.85427 0.911996 5.38921e-007 
0.591563 0.266031 0.0999999 -2.88404 0.812984 5.39798e-007 
0.598194 0.293093 -0.1 -2.93214 0.619784 5.39764e-007 
0.598194 0.293093 0.0999999 -2.95048 0.525597 5.38853e-007 
0.601868 0.318376 -0.1 -2.97796 0.33758 5.3544e-007 
0.601868 0.318376 0.0999999 -2.98711 0.24375 5.32937e-007 
0.603 0.341 -0.1 -2.99605 0.046053 5.25859e-007 
0.603 0.341 0.0999999 -2.99584 -0.0578142 5.21283e-007 
0.601178 0.374758 -0.1 -2.98308 -0.274593 5.09576e-007 
0.601178 0.374758 0.0999999 -2.97053 -0.387504 5.02445e-007 
0.595671 0.40731 -0.1 -2.93028 -0.619358 4.85274e-007 
0.595671 0.40731 0.0999999 -2.9026 -0.738301 4.75234e-007 
0.586422 0.438328 -0.1 -2.82931 -0.980121 4.5185e-007 
0.586422 0.438328 0.0999999 -2.78371 -1.103 4.38506e-007 
0.57337 0.467481 -0.1 -2.67252 -1.34866 4.08326e-007 
0.57337 0.467481 0.0999999 -2.60693 -1.47145 3.91491e-007 
0.556458 0.49444 -0.1 -2.45519 -1.71162 3.54463e-007 
0.556458 0.49444 0.0999999 -2.36905 -1.829 3.3427e-007 
0.535625 0.518875 -0.1 -2.17819 -2.05212 2.91145e-007 
0.535625 0.518875 0.1 -2.07347 -2.15787 2.68214e-007 
0.510813 0.540455 -0.1 -1.85017 -2.35224 2.20675e-007 
0.510813 0.540455 0.1 -1.73158 -2.44086 1.96066e-007 
0.481963 0.558852 -0.1 -1.48698 -2.59766 1.46444e-007 
0.481963 0.558852 0.1 -1.36096 -2.66584 1.2143e-007 
0.449016 0.573734 -0.1 -1.10846 -2.78116 7.22407e-008 
0.449016 0.573734 0.1 -0.981973 -2.8283 4.80646e-008 
0.411912 0.584773 -0.1 -0.734225 -2.90344 1.46279e-009 
0.411912 0.584773 0.1 -0.612963 -2.93143 -2.09632e-008 
0.370593 0.591638 -0.1 -0.379536 -2.97161 -6.35332e-008 
0.370593 0.591638 0.1 -0.267372 -2.9838 -8.36776e-008 
0.325 0.594 -0.1 -0.103472 -2.99732 -1.12925e-007 
0.325 0.594 0.1 -0.0517358 -2.99866 -1.2203e-007 
0.174 0.594 -0.1 1 -2 -2.62269e-007 
0.174 0.594 0.1 2 -1 -3.93403e-007 
0.174 0.088 -0.1 2 1 -3.0598e-007 
0.174 0.088 0.1 1 2 -8.74228e-008 
3 25 52 26 
3 52 0 26 
3 52 1 0 
3 52 2 1 
3 52 3 2 
3 52 4 3 
3 52 5 4 
3 52 51 5 
3 51 50 5 
3 50 6 5 
3 25 53 52 
3 49 6 50 
3 48 6 49 
3 47 6 48 
3 47 7 6 
3 46 7 47 
3 45 7 46 
3 45 8 7 
3 44 8 45 
3 44 9 8 
3 43 9 44 
3 42 9 43 
3 42 10 9 
3 41 10 42 
3 41 11 10 
3 40 11 41 
3 40 12 11 
3 39 12 40 
3 38 12 39 
3 38 13 12 
3 37 13 38 
3 37 14 13 
3 36 14 37 
3 35 14 36 
3 35 15 14 
3 34 15 35 
3 34 16 15 
3 33 16 34 
3 32 16 33 
3 32 17 16 
3 31 17 32 
3 31 18 17 
3 30 18 31 
3 29 18 30 
3 29 19 18 
3 28 19 29 
3 27 19 28 
3 25 27 53 
3 25 19 27 
3 25 20 19 
3 25 21 20 
3 25 22 21 
3 25 23 22 
3 25 24 23 
3 106 79 80 
3 54 106 80 
3 55 106 54 
3 56 106 55 
3 57 106 56 
3 58 106 57 
3 59 106 58 
3 105 106 59 
3 104 105 59 
3 60 104 59 
3 107 79 106 
3 60 103 104 
3 60 102 103 
3 60 101 102 
3 61 101 60 
3 61 100 101 
3 61 99 100 
3 62 99 61 
3 62 98 99 
3 63 98 62 
3 63 97 98 
3 63 96 97 
3 64 96 63 
3 64 95 96 
3 65 95 64 
3 65 94 95 
3 66 94 65 
3 66 93 94 
3 66 92 93 
3 67 92 66 
3 67 91 92 
3 68 91 67 
3 68 90 91 
3 68 89 90 
3 69 89 68 
3 69 88 89 
3 70 88 69 
3 70 87 88 
3 70 86 87 
3 71 86 70 
3 71 85 86 
3 72 85 71 
3 72 84 85 
3 72 83 84 
3 73 83 72 
3 73 82 83 
3 73 81 82 
3 81 79 107 
3 73 79 81 
3 74 79 73 
3 75 79 74 
3 76 79 75 
3 77 79 76 
3 78 79 77 
3 109 111 110 
3 109 110 108 
3 111 113 112 
3 111 112 110 
3 113 115 114 
3 113 114 112 
3 115 117 116 
3 115 116 114 
3 117 119 118 
3 117 118 116 
3 119 121 120 
3 119 120 118 
3 121 123 122 
3 121 122 120 
3 123 125 124 
3 123 124 122 
3 125 127 126 
3 125 126 124 
3 127 129 128 
3 127 128 126 
3 129 131 130 
3 129 130 128 
3 131 133 132 
3 131 132 130 
3 133 135 134 
3 133 134 132 
3 135 137 136 
3 135 136 134 
3 137 139 138 
3 137 138 136 
3 139 141 140 
3 139 140 138 
3 141 143 142 
3 141 142 140 
3 143 145 144 
3 143 144 142 
3 145 147 146 
3 145 146 144 
3 147 149 148 
3 147 148 146 
3 149 151 150 
3 149 150 148 
3 151 153 152 
3 151 152 150 
3 153 155 154 
3 153 154 152 
3 155 157 156 
3 155 156 154 
3 157 159 158 
3 157 158 156 
3 159 161 160 
3 159 160 158 
3 161 109 108 
3 161 108 160 
3 163 165 164 
3 163 164 162 
3 165 167 166 
3 165 166 164 
3 167 169 168 
3 167 168 166 
3 169 171 170 
3 169 170 168 
3 171 173 172 
3 171 172 170 
3 173 175 174 
3 173 174 172 
3 175 177 176 
3 175 176 174 
3 177 179 178 
3 177 178 176 
3 179 181 180 
3 179 180 178 
3 181 183 182 
3 181 182 180 
3 183 185 184 
3 183 184 182 
3 185 187 186 
3 185 186 184 
3 187 189 188 
3 187 188 186 
3 189 191 190 
3 189 190 188 
3 191 193 192 
3 191 192 190 
3 193 195 194 
3 193 194 192 
3 195 197 196 
3 195 196 194 
3 197 199 198 
3 197 198 196 
3 199 201 200 
3 199 200 198 
3 201 203 202 
3 201 202 200 
3 203 205 204 
3 203 204 202 
3 205 207 206 
3 205 206 204 
3 207 209 208 
3 207 208 206 
3 209 211 210 
3 209 210 208 
3 211 213 212 
3 211 212 210 
3 213 215 214 
3 213 214 212 
3 215 163 162 
3 215 162 214 
