ply
format ascii 1.0
comment VCGLIB generated
element vertex 44
property float x
property float y
property float z
property float nx
property float ny
property float nz
element face 40
property list uchar int vertex_indices
end_header
0.52 -4.37114e-009 0.1 7.9546e-009 -1.98865e-009 0.045495 
0.173 0.337 0.1 2.33942e-008 -5.84854e-009 0.133799 
0.173 -4.37114e-009 0.1 5.77444e-009 -1.44361e-009 0.033026 
0.075 -4.37114e-009 0.1 2.3372e-008 -5.84299e-009 0.133672 
0.075 0.682 0.1 1.1686e-008 -2.92149e-009 0.066836 
0.173 0.682 0.1 1.70321e-008 -4.25801e-009 0.097412 
0.173 0.37 0.1 2.01096e-008 -5.02738e-009 0.115013 
0.46 0.682 0.1 6.65532e-009 -1.66383e-009 0.038064 
0.582 0.682 0.0999999 1.35518e-008 -3.38794e-009 0.077507 
0.285 0.359 0.1 1.59961e-008 -3.99902e-009 0.091487 
0.655 -4.37114e-009 0.0999998 1.6408e-008 -4.10201e-009 0.093843 
0.52 4.37114e-009 -0.1 -7.9546e-009 1.98865e-009 -0.045495 
0.173 0.337 -0.1 -2.33942e-008 5.84854e-009 -0.133799 
0.173 4.37114e-009 -0.1 -5.77444e-009 1.44361e-009 -0.033026 
0.075 4.37114e-009 -0.1 -2.3372e-008 5.84299e-009 -0.133672 
0.075 0.682 -0.1 -1.1686e-008 2.92149e-009 -0.066836 
0.173 0.682 -0.1 -1.70321e-008 4.25801e-009 -0.097412 
0.173 0.37 -0.1 -2.01096e-008 5.02738e-009 -0.115013 
0.46 0.682 -0.1 -6.65532e-009 1.66383e-009 -0.038064 
0.582 0.682 -0.1 -1.35518e-008 3.38794e-009 -0.077507 
0.285 0.359 -0.1 -1.59961e-008 3.99902e-009 -0.091487 
0.655 4.37114e-009 -0.1 -1.6408e-008 4.10201e-009 -0.093843 
0.52 4.37114e-009 -0.1 -0.696694 -2.71737 3.03393e-009 
0.52 -4.37114e-009 0.1 -1.39339 -2.43474 1.37202e-007 
0.173 0.337 -0.1 -0.393389 -1.43474 6.06806e-009 
0.173 0.337 0.1 1.30331 -0.717368 -2.59235e-007 
0.173 4.37114e-009 -0.1 2 -1 -3.93403e-007 
0.173 -4.37114e-009 0.1 1 -2 -2.62269e-007 
0.075 4.37114e-009 -0.1 -1 -2 8.74228e-008 
0.075 -4.37114e-009 0.1 -2 -1 3.0598e-007 
0.075 0.682 -0.1 -2 1 3.93403e-007 
0.075 0.682 0.1 -1 2 2.62269e-007 
0.173 0.682 -0.1 1 2 -8.74228e-008 
0.173 0.682 0.1 2 1 -3.0598e-007 
0.173 0.37 -0.1 1.26402 0.677005 -1.91416e-007 
0.173 0.37 0.1 -0.471956 1.35401 1.41705e-007 
0.46 0.682 -0.1 -1.47196 2.35401 3.60263e-007 
0.46 0.682 0.1 -0.735978 2.67701 2.45698e-007 
0.582 0.682 -0.1 0.736113 1.32314 -7.08697e-008 
0.582 0.682 0.0999999 1.47223 -0.353718 -2.72874e-007 
0.285 0.359 -0.1 2.16858 -0.636023 -4.06968e-007 
0.285 0.359 0.1 2.12883 0.75853 -3.3906e-007 
0.655 4.37114e-009 -0.1 1.39272 0.435389 -2.24479e-007 
0.655 -4.37114e-009 0.0999998 0.696358 -1.28231 -1.77807e-007 
3 3 5 4 
3 3 6 5 
3 6 8 7 
3 6 9 8 
3 3 1 6 
3 1 9 6 
3 1 10 9 
3 3 2 1 
3 0 10 1 
3 16 14 15 
3 17 14 16 
3 19 17 18 
3 20 17 19 
3 12 14 17 
3 20 12 17 
3 21 12 20 
3 13 14 12 
3 21 11 12 
3 23 25 24 
3 23 24 22 
3 25 27 26 
3 25 26 24 
3 27 29 28 
3 27 28 26 
3 29 31 30 
3 29 30 28 
3 31 33 32 
3 31 32 30 
3 33 35 34 
3 33 34 32 
3 35 37 36 
3 35 36 34 
3 37 39 38 
3 37 38 36 
3 39 41 40 
3 39 40 38 
3 41 43 42 
3 41 42 40 
3 43 23 22 
3 43 22 42 
