ply
format ascii 1.0
comment VCGLIB generated
element vertex 48
property float x
property float y
property float z
property float nx
property float ny
property float nz
element face 44
property list uchar int vertex_indices
end_header
0.706 -4.37114e-009 0.0999998 1.30721e-008 -3.26804e-009 0.074764 
0.588 -4.37114e-009 0.0999998 5.81816e-009 -1.45454e-009 0.033276 
0.356 0.282 0.1 2.04252e-008 -5.10628e-009 0.116818 
0.121 -4.37114e-009 0.1 5.86746e-009 -1.46687e-009 0.033558 
0.00200002 -4.37114e-009 0.1 1.46977e-008 -3.67442e-009 0.084061 
0.296 0.353 0.1 2.09352e-008 -5.23378e-009 0.119735 
0.023 0.682 0.1 6.84538e-009 -1.71134e-009 0.039151 
0.142 0.682 0.1 1.21547e-008 -3.03868e-009 0.069517 
0.356 0.422 0.1 1.87847e-008 -4.69618e-009 0.107436 
0.569 0.682 0.0999999 5.36426e-009 -1.34106e-009 0.03068 
0.687 0.682 0.0999999 1.20397e-008 -3.00992e-009 0.068859 
0.415 0.353 0.1 2.41953e-008 -6.04882e-009 0.138381 
0.706 4.37114e-009 -0.1 -1.30721e-008 3.26804e-009 -0.074764 
0.588 4.37114e-009 -0.1 -5.81816e-009 1.45454e-009 -0.033276 
0.356 0.282 -0.1 -2.04252e-008 5.10628e-009 -0.116818 
0.121 4.37114e-009 -0.1 -5.86746e-009 1.46687e-009 -0.033558 
0.00199998 4.37114e-009 -0.1 -1.46977e-008 3.67442e-009 -0.084061 
0.296 0.353 -0.1 -2.09352e-008 5.23378e-009 -0.119735 
0.023 0.682 -0.1 -6.84538e-009 1.71134e-009 -0.039151 
0.142 0.682 -0.1 -1.21547e-008 3.03868e-009 -0.069517 
0.356 0.422 -0.1 -1.87847e-008 4.69618e-009 -0.107436 
0.569 0.682 -0.1 -5.36426e-009 1.34107e-009 -0.03068 
0.687 0.682 -0.1 -1.20397e-008 3.00992e-009 -0.068859 
0.415 0.353 -0.1 -2.41953e-008 6.04882e-009 -0.138381 
0.706 4.37114e-009 -0.1 1.54323 0.272181 -2.57929e-007 
0.706 -4.37114e-009 0.0999998 0.771615 -1.36391 -1.94532e-007 
0.588 4.37114e-009 -0.1 -0.772246 -2.63532 1.98302e-008 
0.588 -4.37114e-009 0.0999998 -1.54449 -2.27065 1.70794e-007 
0.356 0.282 -0.1 -0.776271 -1.91083 5.22025e-008 
0.356 0.282 0.1 0.764196 -1.91569 -2.17354e-007 
0.121 4.37114e-009 -0.1 1.53644 -2.28037 -3.68318e-007 
0.121 -4.37114e-009 0.1 0.768221 -2.64018 -2.49726e-007 
0.00199998 4.37114e-009 -0.1 -0.7684 -1.36003 7.49025e-008 
0.00200002 -4.37114e-009 0.1 -1.5368 0.279941 2.80939e-007 
0.296 0.353 -0.1 -2.30636 0.641368 4.31292e-007 
0.296 0.353 0.1 -2.30752 -0.637175 3.75608e-007 
0.023 0.682 -0.1 -1.53912 -0.277145 2.56994e-007 
0.023 0.682 0.1 -0.769562 1.36143 1.94064e-007 
0.142 0.682 -0.1 0.772102 2.6355 -1.97972e-008 
0.142 0.682 0.1 1.5442 2.271 -1.70728e-007 
0.356 0.422 -0.1 0.770644 1.90472 -5.14856e-008 
0.356 0.422 0.1 -0.775017 1.90295 2.18689e-007 
0.569 0.682 -0.1 -1.54712 2.26745 3.69621e-007 
0.569 0.682 0.0999999 -0.773559 2.63372 2.50377e-007 
0.687 0.682 -0.1 0.770712 1.36282 -7.5185e-008 
0.687 0.682 0.0999999 1.54142 -0.274368 -2.81504e-007 
0.415 0.353 -0.1 2.31304 -0.638278 -4.32324e-007 
0.415 0.353 0.1 2.31394 0.634996 -3.76826e-007 
3 5 7 6 
3 5 8 7 
3 8 10 9 
3 8 11 10 
3 5 11 8 
3 4 11 5 
3 4 2 11 
3 2 0 11 
3 4 3 2 
3 1 0 2 
3 19 17 18 
3 20 17 19 
3 22 20 21 
3 23 20 22 
3 23 17 20 
3 23 16 17 
3 14 16 23 
3 12 14 23 
3 15 16 14 
3 12 13 14 
3 25 27 26 
3 25 26 24 
3 27 29 28 
3 27 28 26 
3 29 31 30 
3 29 30 28 
3 31 33 32 
3 31 32 30 
3 33 35 34 
3 33 34 32 
3 35 37 36 
3 35 36 34 
3 37 39 38 
3 37 38 36 
3 39 41 40 
3 39 40 38 
3 41 43 42 
3 41 42 40 
3 43 45 44 
3 43 44 42 
3 45 47 46 
3 45 46 44 
3 47 25 24 
3 47 24 46 
