ply
format ascii 1.0
comment VCGLIB generated
element vertex 304
property float x
property float y
property float z
property float nx
property float ny
property float nz
element face 296
property list uchar int vertex_indices
end_header
0.098865 0.532489 0.1 4.77052e-012 -1.19263e-012 2.72842e-005 
0.092005 0.533912 0.1 2.17266e-011 -5.43165e-012 0.000124262 
0.085484 0.536203 0.1 4.98382e-011 -1.24595e-011 0.000285041 
0.07937 0.539296 0.1 8.66582e-011 -2.16645e-011 0.000495627 
0.073729 0.543126 0.1 1.29658e-010 -3.24146e-011 0.000741559 
0.068625 0.547625 0.1 1.76279e-010 -4.40699e-011 0.0010082 
0.064126 0.552729 0.1 2.24047e-010 -5.60116e-011 0.0012814 
0.060296 0.55837 0.1 2.70472e-010 -6.76181e-011 0.00154692 
0.057203 0.564484 0.1 3.13318e-010 -7.83294e-011 0.00179197 
0.054912 0.571005 0.1 3.50326e-010 -8.75813e-011 0.00200363 
0.053489 0.577865 0.1 5.11776e-010 -1.27944e-010 0.00292702 
0.053 0.585 0.1 2.64474e-010 -6.61187e-011 0.00151262 
0.053489 0.592135 0.1 3.89223e-010 -9.73057e-011 0.0022261 
0.054912 0.598995 0.1 3.65018e-010 -9.12547e-011 0.00208766 
0.057203 0.605516 0.1 3.32102e-010 -8.30254e-011 0.0018994 
0.060296 0.61163 0.1 2.922e-010 -7.30501e-011 0.00167119 
0.064126 0.617271 0.1 2.47494e-010 -6.18736e-011 0.0014155 
0.068625 0.622375 0.1 2.00247e-010 -5.00616e-011 0.00114528 
0.073729 0.626874 0.1 1.52803e-010 -3.82007e-011 0.000873931 
0.07937 0.630704 0.1 1.07679e-010 -2.69198e-011 0.000615854 
0.085484 0.633797 0.1 6.74294e-011 -1.68573e-011 0.000385651 
0.092005 0.636088 0.1 3.46126e-011 -8.65314e-012 0.000197961 
0.098865 0.637511 0.1 1.17346e-011 -2.93365e-012 6.7114e-005 
0.106 0.638 0.1 1.22007e-012 -3.05017e-013 6.97798e-006 
0.113135 0.637511 0.1 4.77052e-012 -1.19263e-012 2.72842e-005 
0.119995 0.636088 0.1 2.17266e-011 -5.43165e-012 0.000124262 
0.126516 0.633797 0.1 4.98385e-011 -1.24596e-011 0.000285043 
0.13263 0.630704 0.1 8.66496e-011 -2.16624e-011 0.000495578 
0.138271 0.626875 0.1 1.29659e-010 -3.24147e-011 0.000741562 
0.143375 0.622375 0.1 1.76291e-010 -4.40728e-011 0.00100827 
0.147874 0.617271 0.1 2.24047e-010 -5.60116e-011 0.0012814 
0.151704 0.61163 0.1 2.70472e-010 -6.76181e-011 0.00154692 
0.154797 0.605516 0.1 3.13318e-010 -7.83297e-011 0.00179197 
0.157088 0.598995 0.1 3.50326e-010 -8.75816e-011 0.00200363 
0.158511 0.592135 0.1 3.79539e-010 -9.48845e-011 0.00217071 
0.159 0.585 0.1 5.2651e-010 -1.31627e-010 0.00301129 
0.158511 0.577865 0.1 2.56984e-010 -6.42462e-011 0.00146978 
0.157088 0.571005 0.1 3.6502e-010 -9.1255e-011 0.00208767 
0.154797 0.564484 0.1 3.321e-010 -8.30249e-011 0.00189939 
0.151704 0.55837 0.1 2.922e-010 -7.30501e-011 0.00167119 
0.147874 0.552729 0.1 2.47494e-010 -6.18736e-011 0.0014155 
0.143375 0.547625 0.1 2.00247e-010 -5.00616e-011 0.00114528 
0.138271 0.543126 0.1 1.52793e-010 -3.81982e-011 0.000873874 
0.13263 0.539296 0.1 1.0769e-010 -2.69224e-011 0.000615914 
0.126516 0.536203 0.1 6.74284e-011 -1.68571e-011 0.000385645 
0.119995 0.533912 0.1 3.46126e-011 -8.65314e-012 0.000197961 
0.113135 0.532489 0.1 1.17346e-011 -2.93365e-012 6.7114e-005 
0.106 0.532 0.1 1.22007e-012 -3.05017e-013 6.97798e-006 
0.149376 -0.08192 0.1 1.05106e-009 -2.62765e-010 0.00601135 
0.147505 -0.102778 0.1 9.71302e-010 -2.42825e-010 0.0055552 
0.144391 -0.121719 0.1 9.1711e-010 -2.29277e-010 0.00524526 
0.140037 -0.138889 0.1 8.79845e-010 -2.19961e-010 0.00503213 
0.134447 -0.154434 0.1 8.53557e-010 -2.13389e-010 0.00488178 
0.127625 -0.1685 0.1 2.08202e-009 -5.20504e-010 0.0119078 
0.119574 -0.181233 0.1 1.00882e-010 -2.52205e-011 0.000576977 
0.110296 -0.192778 0.1 6.13252e-011 -1.53313e-011 0.000350739 
0.099797 -0.203281 0.1 3.26314e-011 -8.15786e-012 0.00018663 
0.088079 -0.212889 0.1 1.36764e-011 -3.41911e-012 7.82201e-005 
0.075145 -0.221747 0.1 3.24372e-012 -8.1093e-013 1.85519e-005 
0.061 -0.23 0.1 1.62605e-009 -4.06512e-010 0.00929991 
-0.00599998 -0.164 0.1 1.59806e-009 -3.99514e-010 0.00913981 
0.00351102 -0.159665 0.1 2.31336e-010 -5.7834e-011 0.00132309 
0.012505 -0.154657 0.1 5.43152e-010 -1.35788e-010 0.00310647 
0.020922 -0.148969 0.1 2.54941e-010 -6.37353e-011 0.00145809 
0.028704 -0.142593 0.1 5.66031e-010 -1.41508e-010 0.00323732 
0.035791 -0.135522 0.1 2.78444e-010 -6.96109e-011 0.00159251 
0.042125 -0.12775 0.1 5.93616e-010 -1.48404e-010 0.00339509 
0.047646 -0.11927 0.1 3.03352e-010 -7.58381e-011 0.00173497 
0.052296 -0.110074 0.1 6.2924e-010 -1.5731e-010 0.00359883 
0.056016 -0.100156 0.1 3.31924e-010 -8.29808e-011 0.00189838 
0.058745 -0.089509 0.1 6.77756e-010 -1.69439e-010 0.00387631 
0.060427 -0.078126 0.1 3.67116e-010 -9.1779e-011 0.00209966 
0.061 -0.066 0.1 1.6464e-008 -4.11601e-009 0.0941633 
0.061 0.449 0.1 8.01404e-009 -2.00351e-009 0.045835 
0.15 0.449 0.1 1.59192e-008 -3.97979e-009 0.091047 
0.15 -0.059 0.1 8.26102e-009 -2.06525e-009 0.0472475 
0.098865 0.532489 -0.1 -4.77052e-012 1.19263e-012 -2.72842e-005 
0.092005 0.533912 -0.1 -2.17266e-011 5.43165e-012 -0.000124262 
0.085484 0.536203 -0.1 -4.98382e-011 1.24595e-011 -0.000285041 
0.07937 0.539296 -0.1 -8.66582e-011 2.16645e-011 -0.000495627 
0.073729 0.543126 -0.1 -1.29658e-010 3.24146e-011 -0.000741559 
0.068625 0.547625 -0.1 -1.76279e-010 4.40699e-011 -0.0010082 
0.064126 0.552729 -0.1 -2.24047e-010 5.60116e-011 -0.0012814 
0.060296 0.55837 -0.1 -2.70472e-010 6.76181e-011 -0.00154692 
0.057203 0.564484 -0.1 -3.13318e-010 7.83294e-011 -0.00179197 
0.054912 0.571005 -0.1 -3.50326e-010 8.75813e-011 -0.00200363 
0.053489 0.577865 -0.1 -5.11776e-010 1.27944e-010 -0.00292702 
0.053 0.585 -0.1 -2.64474e-010 6.61187e-011 -0.00151262 
0.053489 0.592135 -0.1 -3.89223e-010 9.73057e-011 -0.0022261 
0.054912 0.598995 -0.1 -3.65018e-010 9.12547e-011 -0.00208766 
0.057203 0.605516 -0.1 -3.32102e-010 8.30254e-011 -0.0018994 
0.060296 0.61163 -0.1 -2.922e-010 7.30501e-011 -0.00167119 
0.064126 0.617271 -0.1 -2.47494e-010 6.18736e-011 -0.0014155 
0.068625 0.622375 -0.1 -2.00247e-010 5.00616e-011 -0.00114528 
0.073729 0.626874 -0.1 -1.52803e-010 3.82007e-011 -0.000873931 
0.07937 0.630704 -0.1 -1.07679e-010 2.69198e-011 -0.000615854 
0.085484 0.633797 -0.1 -6.74294e-011 1.68573e-011 -0.000385651 
0.092005 0.636088 -0.1 -3.46126e-011 8.65314e-012 -0.000197961 
0.098865 0.637511 -0.1 -1.17346e-011 2.93365e-012 -6.7114e-005 
0.106 0.638 -0.1 -1.22007e-012 3.05017e-013 -6.97798e-006 
0.113135 0.637511 -0.1 -4.77052e-012 1.19263e-012 -2.72842e-005 
0.119995 0.636088 -0.1 -2.17266e-011 5.43166e-012 -0.000124262 
0.126516 0.633797 -0.1 -4.98385e-011 1.24596e-011 -0.000285043 
0.13263 0.630704 -0.1 -8.66496e-011 2.16624e-011 -0.000495578 
0.138271 0.626875 -0.1 -1.29659e-010 3.24147e-011 -0.000741562 
0.143375 0.622375 -0.1 -1.76291e-010 4.40728e-011 -0.00100827 
0.147874 0.617271 -0.1 -2.24047e-010 5.60116e-011 -0.0012814 
0.151704 0.61163 -0.1 -2.70472e-010 6.76181e-011 -0.00154692 
0.154797 0.605516 -0.1 -3.13318e-010 7.83297e-011 -0.00179197 
0.157088 0.598995 -0.1 -3.50326e-010 8.75816e-011 -0.00200363 
0.158511 0.592135 -0.1 -3.79539e-010 9.48845e-011 -0.00217071 
0.159 0.585 -0.1 -5.2651e-010 1.31627e-010 -0.00301129 
0.158511 0.577865 -0.1 -2.56984e-010 6.42462e-011 -0.00146978 
0.157088 0.571005 -0.1 -3.6502e-010 9.1255e-011 -0.00208767 
0.154797 0.564484 -0.1 -3.321e-010 8.30249e-011 -0.00189939 
0.151704 0.55837 -0.1 -2.922e-010 7.30501e-011 -0.00167119 
0.147874 0.552729 -0.1 -2.47494e-010 6.18736e-011 -0.0014155 
0.143375 0.547625 -0.1 -2.00247e-010 5.00616e-011 -0.00114528 
0.138271 0.543126 -0.1 -1.52793e-010 3.81982e-011 -0.000873874 
0.13263 0.539296 -0.1 -1.0769e-010 2.69224e-011 -0.000615914 
0.126516 0.536203 -0.1 -6.74284e-011 1.68571e-011 -0.000385645 
0.119995 0.533912 -0.1 -3.46126e-011 8.65314e-012 -0.000197961 
0.113135 0.532489 -0.1 -1.17346e-011 2.93365e-012 -6.7114e-005 
0.106 0.532 -0.1 -1.22007e-012 3.05017e-013 -6.97798e-006 
0.149376 -0.08192 -0.1 -1.05106e-009 2.62765e-010 -0.00601135 
0.147505 -0.102778 -0.1 -9.71302e-010 2.42825e-010 -0.0055552 
0.144391 -0.121719 -0.1 -9.1711e-010 2.29277e-010 -0.00524526 
0.140037 -0.138889 -0.1 -8.79845e-010 2.19961e-010 -0.00503213 
0.134447 -0.154434 -0.1 -8.53557e-010 2.13389e-010 -0.00488178 
0.127625 -0.1685 -0.1 -2.08202e-009 5.20504e-010 -0.0119078 
0.119574 -0.181233 -0.1 -1.00882e-010 2.52204e-011 -0.000576976 
0.110296 -0.192778 -0.1 -6.13251e-011 1.53313e-011 -0.000350739 
0.099797 -0.203281 -0.1 -3.26314e-011 8.15786e-012 -0.00018663 
0.088079 -0.212889 -0.1 -1.36764e-011 3.41911e-012 -7.82201e-005 
0.075145 -0.221747 -0.1 -3.24372e-012 8.1093e-013 -1.85519e-005 
0.061 -0.23 -0.1 -1.62605e-009 4.06512e-010 -0.00929991 
-0.00600002 -0.164 -0.1 -1.59806e-009 3.99514e-010 -0.00913981 
0.00351098 -0.159665 -0.1 -2.31336e-010 5.7834e-011 -0.00132309 
0.012505 -0.154657 -0.1 -5.43152e-010 1.35788e-010 -0.00310647 
0.020922 -0.148969 -0.1 -2.54941e-010 6.37353e-011 -0.00145809 
0.028704 -0.142593 -0.1 -5.66031e-010 1.41508e-010 -0.00323732 
0.035791 -0.135522 -0.1 -2.78444e-010 6.96109e-011 -0.00159251 
0.042125 -0.12775 -0.1 -5.93616e-010 1.48404e-010 -0.00339509 
0.047646 -0.11927 -0.1 -3.03352e-010 7.58381e-011 -0.00173497 
0.052296 -0.110074 -0.1 -6.2924e-010 1.5731e-010 -0.00359883 
0.056016 -0.100156 -0.1 -3.31924e-010 8.29808e-011 -0.00189838 
0.058745 -0.089509 -0.1 -6.77756e-010 1.69439e-010 -0.00387631 
0.060427 -0.078126 -0.1 -3.67116e-010 9.1779e-011 -0.00209966 
0.061 -0.066 -0.1 -1.6464e-008 4.11601e-009 -0.0941633 
0.061 0.449 -0.1 -8.01404e-009 2.00351e-009 -0.045835 
0.15 0.449 -0.1 -1.59192e-008 3.97979e-009 -0.091047 
0.15 -0.059 -0.1 -8.26102e-009 2.06525e-009 -0.0472475 
0.149376 -0.08192 -0.1 2.99526 -0.143773 -5.29993e-007 
0.149376 -0.08192 0.1 2.99163 -0.205902 -5.32074e-007 
0.147505 -0.102778 -0.1 2.97875 -0.340914 -5.35724e-007 
0.147505 -0.102778 0.1 2.96951 -0.413798 -5.37293e-007 
0.144391 -0.121719 -0.1 2.94283 -0.570257 -5.39467e-007 
0.144391 -0.121719 0.1 2.92539 -0.653831 -5.40072e-007 
0.140037 -0.138889 -0.1 2.87965 -0.829992 -5.39774e-007 
0.140037 -0.138889 0.1 2.85133 -0.922577 -5.3887e-007 
0.134447 -0.154434 -0.1 2.78177 -1.11316 -5.35038e-007 
0.134447 -0.154434 0.1 2.74053 -1.21115 -5.32111e-007 
0.127625 -0.1685 -0.1 2.64474 -1.40719 -5.23932e-007 
0.127625 -0.1685 0.1 2.59019 -1.50523 -5.1868e-007 
0.119574 -0.181233 -0.1 2.46992 -1.69527 -5.05957e-007 
0.119574 -0.181233 0.1 2.40418 -1.78727 -4.98484e-007 
0.110296 -0.192778 -0.1 2.26621 -1.95982 -4.81903e-007 
0.110296 -0.192778 0.1 2.19397 -2.04037 -4.72793e-007 
0.099797 -0.203281 -0.1 2.04853 -2.18724 -4.53783e-007 
0.099797 -0.203281 0.1 1.97534 -2.25356 -4.43886e-007 
0.088079 -0.212889 -0.1 1.83315 -2.37164 -4.24186e-007 
0.088079 -0.212889 0.1 1.76415 -2.42341 -4.14384e-007 
0.075145 -0.221747 -0.1 1.63405 -2.51385 -3.9559e-007 
0.075145 -0.221747 0.1 1.57295 -2.55252 -3.86598e-007 
0.061 -0.23 -0.1 0.306132 -2.43987 -1.60176e-007 
0.061 -0.23 0.1 -0.89959 -2.28854 5.72541e-008 
-0.00600002 -0.164 -0.1 -1.81828 -0.514867 2.95413e-007 
-0.00599998 -0.164 0.1 -1.53125 1.10748 3.16141e-007 
0.00351098 -0.159665 -0.1 -1.31596 2.69357 3.4783e-007 
0.00351102 -0.159665 0.1 -1.38771 2.65732 3.58789e-007 
0.012505 -0.154657 -0.1 -1.53288 2.57593 3.80615e-007 
0.012505 -0.154657 0.1 -1.60631 2.53079 3.91481e-007 
0.020922 -0.148969 -0.1 -1.7536 2.43062 4.12855e-007 
0.020922 -0.148969 0.1 -1.82745 2.3756 4.23362e-007 
0.028704 -0.142593 -0.1 -1.97384 2.25495 4.43685e-007 
0.028704 -0.142593 0.1 -2.04638 2.18933 4.53499e-007 
0.035791 -0.135522 -0.1 -2.18779 2.04756 4.72027e-007 
0.035791 -0.135522 0.1 -2.25665 1.9714 4.80739e-007 
0.042125 -0.12775 -0.1 -2.38838 1.80911 4.96677e-007 
0.042125 -0.12775 0.1 -2.45125 1.72298 5.03903e-007 
0.047646 -0.11927 -0.1 -2.56847 1.54247 5.1651e-007 
0.047646 -0.11927 0.1 -2.62284 1.44811 5.2189e-007 
0.052296 -0.110074 -0.1 -2.7211 1.25368 5.30573e-007 
0.052296 -0.110074 0.1 -2.76501 1.15362 5.33876e-007 
0.056016 -0.100156 -0.1 -2.8413 0.950661 5.38343e-007 
0.056016 -0.100156 0.1 -2.87368 0.847765 5.39507e-007 
0.058745 -0.089509 -0.1 -2.92663 0.642757 5.39804e-007 
0.058745 -0.089509 0.1 -2.9472 0.540643 5.38937e-007 
0.060427 -0.078126 -0.1 -2.9774 0.339555 5.35428e-007 
0.060427 -0.078126 0.1 -2.98703 0.240579 5.32784e-007 
0.061 -0.066 -0.1 -2.99777 0.0944026 5.28273e-007 
0.061 -0.066 0.1 -2.99889 0.0472013 5.26405e-007 
0.061 0.449 -0.1 -2 1 3.93403e-007 
0.061 0.449 0.1 -1 2 2.62269e-007 
0.15 0.449 -0.1 1 2 -8.74228e-008 
0.15 0.449 0.1 2 1 -3.0598e-007 
0.15 -0.059 -0.1 2.99963 -0.0272151 -5.25662e-007 
0.15 -0.059 0.1 2.99926 -0.0544302 -5.26787e-007 
0.098865 0.532489 -0.1 -0.33986 -2.97448 -7.05955e-008 
0.098865 0.532489 0.1 -0.474596 -2.95597 -4.62286e-008 
0.092005 0.533912 -0.1 -0.737689 -2.90178 2.14092e-009 
0.092005 0.533912 0.1 -0.866047 -2.86609 2.61437e-008 
0.085484 0.536203 -0.1 -1.11434 -2.77925 7.33526e-008 
0.085484 0.536203 0.1 -1.23428 -2.7281 9.65591e-008 
0.07937 0.539296 -0.1 -1.46453 -2.61196 1.41894e-007 
0.07937 0.539296 0.1 -1.57485 -2.54697 1.64024e-007 
0.073729 0.543126 -0.1 -1.78469 -2.40482 2.06927e-007 
0.073729 0.543126 0.1 -1.88422 -2.32766 2.27702e-007 
0.068625 0.547625 -0.1 -2.07267 -2.16158 2.67911e-007 
0.068625 0.547625 0.1 -2.16158 -2.07266 2.87344e-007 
0.064126 0.552729 -0.1 -2.32766 -1.88422 3.2462e-007 
0.064126 0.552729 0.1 -2.40482 -1.78469 3.42461e-007 
0.060296 0.55837 -0.1 -2.54697 -1.57485 3.76487e-007 
0.060296 0.55837 0.1 -2.61196 -1.46454 3.92672e-007 
0.057203 0.564484 -0.1 -2.7281 -1.23429 4.23044e-007 
0.057203 0.564484 0.1 -2.77925 -1.11434 4.3723e-007 
0.054912 0.571005 -0.1 -2.86609 -0.866041 4.63268e-007 
0.054912 0.571005 0.1 -2.90178 -0.737686 4.75118e-007 
0.053489 0.577865 -0.1 -2.95597 -0.474596 4.96093e-007 
0.053489 0.577865 0.1 -2.97447 -0.339861 5.05217e-007 
0.053 0.585 -0.1 -2.99298 -0.0683758 5.20321e-007 
0.053 0.585 0.1 -2.99298 0.0683741 5.26298e-007 
0.053489 0.592135 -0.1 -2.97447 0.339861 5.34929e-007 
0.053489 0.592135 0.1 -2.95597 0.474599 5.37584e-007 
0.054912 0.598995 -0.1 -2.90178 0.737687 5.39609e-007 
0.054912 0.598995 0.1 -2.86609 0.866037 5.38979e-007 
0.057203 0.605516 -0.1 -2.77925 1.11434 5.34649e-007 
0.057203 0.605516 0.1 -2.7281 1.23429 5.30948e-007 
0.060296 0.61163 -0.1 -2.61196 1.46454 5.20707e-007 
0.060296 0.61163 0.1 -2.54697 1.57485 5.14165e-007 
0.064126 0.617271 -0.1 -2.40482 1.78469 4.98483e-007 
0.064126 0.617271 0.1 -2.32766 1.88422 4.89342e-007 
0.068625 0.622375 -0.1 -2.16159 2.07266 4.68543e-007 
0.068625 0.622375 0.1 -2.07267 2.16158 4.56883e-007 
0.073729 0.626874 -0.1 -1.88421 2.32766 4.31192e-007 
0.073729 0.626874 0.1 -1.78468 2.40483 4.17162e-007 
0.07937 0.630704 -0.1 -1.57484 2.54698 3.86686e-007 
0.07937 0.630704 0.1 -1.46454 2.61196 3.70241e-007 
0.085484 0.633797 -0.1 -1.23429 2.7281 3.35059e-007 
0.085484 0.633797 0.1 -1.11435 2.77925 3.16324e-007 
0.092005 0.636088 -0.1 -0.866047 2.86609 2.76705e-007 
0.092005 0.636088 0.1 -0.737689 2.90178 2.55823e-007 
0.098865 0.637511 -0.1 -0.474596 2.95597 2.1219e-007 
0.098865 0.637511 0.1 -0.33986 2.97448 1.89442e-007 
0.106 0.638 -0.1 -0.0683746 2.99298 1.42782e-007 
0.106 0.638 0.1 0.0683744 2.99298 1.18873e-007 
0.113135 0.637511 -0.1 0.33986 2.97448 7.05955e-008 
0.113135 0.637511 0.1 0.474596 2.95597 4.62286e-008 
0.119995 0.636088 -0.1 0.73769 2.90178 -2.14111e-009 
0.119995 0.636088 0.1 0.866047 2.86609 -2.61437e-008 
0.126516 0.633797 -0.1 1.11435 2.77925 -7.33542e-008 
0.126516 0.633797 0.1 1.23429 2.7281 -9.65614e-008 
0.13263 0.630704 -0.1 1.46444 2.61203 -1.41876e-007 
0.13263 0.630704 0.1 1.57465 2.54711 -1.63983e-007 
0.138271 0.626875 -0.1 1.78457 2.40489 -2.06903e-007 
0.138271 0.626875 0.1 1.88428 2.32759 -2.27716e-007 
0.143375 0.622375 -0.1 2.07282 2.16144 -2.67944e-007 
0.143375 0.622375 0.1 2.16166 2.07259 -2.87361e-007 
0.147874 0.617271 -0.1 2.32766 1.88422 -3.2462e-007 
0.147874 0.617271 0.1 2.40482 1.78469 -3.42461e-007 
0.151704 0.61163 -0.1 2.54697 1.57485 -3.76487e-007 
0.151704 0.61163 0.1 2.61196 1.46455 -3.92672e-007 
0.154797 0.605516 -0.1 2.7281 1.23429 -4.23044e-007 
0.154797 0.605516 0.1 2.77925 1.11434 -4.37231e-007 
0.157088 0.598995 -0.1 2.86609 0.866036 -4.63268e-007 
0.157088 0.598995 0.1 2.90178 0.737686 -4.75118e-007 
0.158511 0.592135 -0.1 2.95597 0.474598 -4.96093e-007 
0.158511 0.592135 0.1 2.97447 0.33986 -5.05217e-007 
0.159 0.585 -0.1 2.99298 0.0683736 -5.20321e-007 
0.159 0.585 0.1 2.99298 -0.0683753 -5.26298e-007 
0.158511 0.577865 -0.1 2.97448 -0.33986 -5.3493e-007 
0.158511 0.577865 0.1 2.95597 -0.474595 -5.37583e-007 
0.157088 0.571005 -0.1 2.90178 -0.737686 -5.39609e-007 
0.157088 0.571005 0.1 2.86609 -0.86604 -5.38979e-007 
0.154797 0.564484 -0.1 2.77925 -1.11434 -5.34649e-007 
0.154797 0.564484 0.1 2.7281 -1.23429 -5.30948e-007 
0.151704 0.55837 -0.1 2.61196 -1.46455 -5.20707e-007 
0.151704 0.55837 0.1 2.54697 -1.57485 -5.14165e-007 
0.147874 0.552729 -0.1 2.40482 -1.78469 -4.98483e-007 
0.147874 0.552729 0.1 2.32766 -1.88422 -4.89342e-007 
0.143375 0.547625 -0.1 2.16159 -2.07266 -4.68543e-007 
0.143375 0.547625 0.1 2.07267 -2.16158 -4.56883e-007 
0.138271 0.543126 -0.1 1.88422 -2.32766 -4.31193e-007 
0.138271 0.543126 0.1 1.78469 -2.40482 -4.17164e-007 
0.13263 0.539296 -0.1 1.57485 -2.54697 -3.86687e-007 
0.13263 0.539296 0.1 1.46453 -2.61196 -3.70239e-007 
0.126516 0.536203 -0.1 1.23428 -2.7281 -3.35057e-007 
0.126516 0.536203 0.1 1.11434 -2.77925 -3.16323e-007 
0.119995 0.533912 -0.1 0.866047 -2.86609 -2.76705e-007 
0.119995 0.533912 0.1 0.73769 -2.90178 -2.55823e-007 
0.113135 0.532489 -0.1 0.474596 -2.95597 -2.1219e-007 
0.113135 0.532489 0.1 0.33986 -2.97448 -1.89442e-007 
0.106 0.532 -0.1 0.0683744 -2.99298 -1.42782e-007 
0.106 0.532 0.1 -0.0683746 -2.99298 -1.18873e-007 
3 72 74 73 
3 72 75 74 
3 72 48 75 
3 71 48 72 
3 70 48 71 
3 70 49 48 
3 69 49 70 
3 68 49 69 
3 68 50 49 
3 67 50 68 
3 66 50 67 
3 66 51 50 
3 65 51 66 
3 64 51 65 
3 64 52 51 
3 63 52 64 
3 62 52 63 
3 62 53 52 
3 61 53 62 
3 60 53 61 
3 59 53 60 
3 59 54 53 
3 59 55 54 
3 59 56 55 
3 59 57 56 
3 59 58 57 
3 22 24 23 
3 22 25 24 
3 21 25 22 
3 21 26 25 
3 20 26 21 
3 20 27 26 
3 19 27 20 
3 19 28 27 
3 18 28 19 
3 18 29 28 
3 17 29 18 
3 17 30 29 
3 16 30 17 
3 16 31 30 
3 15 31 16 
3 15 32 31 
3 14 32 15 
3 14 33 32 
3 13 33 14 
3 13 34 33 
3 12 34 13 
3 12 35 34 
3 11 35 12 
3 10 35 11 
3 10 36 35 
3 10 37 36 
3 9 37 10 
3 9 38 37 
3 8 38 9 
3 8 39 38 
3 7 39 8 
3 7 40 39 
3 6 40 7 
3 6 41 40 
3 5 41 6 
3 5 42 41 
3 4 42 5 
3 4 43 42 
3 3 43 4 
3 3 44 43 
3 2 44 3 
3 2 45 44 
3 1 45 2 
3 1 46 45 
3 0 46 1 
3 0 47 46 
3 150 148 149 
3 151 148 150 
3 124 148 151 
3 124 147 148 
3 124 146 147 
3 125 146 124 
3 125 145 146 
3 125 144 145 
3 126 144 125 
3 126 143 144 
3 126 142 143 
3 127 142 126 
3 127 141 142 
3 127 140 141 
3 128 140 127 
3 128 139 140 
3 128 138 139 
3 129 138 128 
3 129 137 138 
3 129 136 137 
3 129 135 136 
3 130 135 129 
3 131 135 130 
3 132 135 131 
3 133 135 132 
3 134 135 133 
3 100 98 99 
3 101 98 100 
3 101 97 98 
3 102 97 101 
3 102 96 97 
3 103 96 102 
3 103 95 96 
3 104 95 103 
3 104 94 95 
3 105 94 104 
3 105 93 94 
3 106 93 105 
3 106 92 93 
3 107 92 106 
3 107 91 92 
3 108 91 107 
3 108 90 91 
3 109 90 108 
3 109 89 90 
3 110 89 109 
3 110 88 89 
3 111 88 110 
3 111 87 88 
3 111 86 87 
3 112 86 111 
3 113 86 112 
3 113 85 86 
3 114 85 113 
3 114 84 85 
3 115 84 114 
3 115 83 84 
3 116 83 115 
3 116 82 83 
3 117 82 116 
3 117 81 82 
3 118 81 117 
3 118 80 81 
3 119 80 118 
3 119 79 80 
3 120 79 119 
3 120 78 79 
3 121 78 120 
3 121 77 78 
3 122 77 121 
3 122 76 77 
3 123 76 122 
3 153 155 154 
3 153 154 152 
3 155 157 156 
3 155 156 154 
3 157 159 158 
3 157 158 156 
3 159 161 160 
3 159 160 158 
3 161 163 162 
3 161 162 160 
3 163 165 164 
3 163 164 162 
3 165 167 166 
3 165 166 164 
3 167 169 168 
3 167 168 166 
3 169 171 170 
3 169 170 168 
3 171 173 172 
3 171 172 170 
3 173 175 174 
3 173 174 172 
3 175 177 176 
3 175 176 174 
3 177 179 178 
3 177 178 176 
3 179 181 180 
3 179 180 178 
3 181 183 182 
3 181 182 180 
3 183 185 184 
3 183 184 182 
3 185 187 186 
3 185 186 184 
3 187 189 188 
3 187 188 186 
3 189 191 190 
3 189 190 188 
3 191 193 192 
3 191 192 190 
3 193 195 194 
3 193 194 192 
3 195 197 196 
3 195 196 194 
3 197 199 198 
3 197 198 196 
3 199 201 200 
3 199 200 198 
3 201 203 202 
3 201 202 200 
3 203 205 204 
3 203 204 202 
3 205 207 206 
3 205 206 204 
3 207 153 152 
3 207 152 206 
3 209 211 210 
3 209 210 208 
3 211 213 212 
3 211 212 210 
3 213 215 214 
3 213 214 212 
3 215 217 216 
3 215 216 214 
3 217 219 218 
3 217 218 216 
3 219 221 220 
3 219 220 218 
3 221 223 222 
3 221 222 220 
3 223 225 224 
3 223 224 222 
3 225 227 226 
3 225 226 224 
3 227 229 228 
3 227 228 226 
3 229 231 230 
3 229 230 228 
3 231 233 232 
3 231 232 230 
3 233 235 234 
3 233 234 232 
3 235 237 236 
3 235 236 234 
3 237 239 238 
3 237 238 236 
3 239 241 240 
3 239 240 238 
3 241 243 242 
3 241 242 240 
3 243 245 244 
3 243 244 242 
3 245 247 246 
3 245 246 244 
3 247 249 248 
3 247 248 246 
3 249 251 250 
3 249 250 248 
3 251 253 252 
3 251 252 250 
3 253 255 254 
3 253 254 252 
3 255 257 256 
3 255 256 254 
3 257 259 258 
3 257 258 256 
3 259 261 260 
3 259 260 258 
3 261 263 262 
3 261 262 260 
3 263 265 264 
3 263 264 262 
3 265 267 266 
3 265 266 264 
3 267 269 268 
3 267 268 266 
3 269 271 270 
3 269 270 268 
3 271 273 272 
3 271 272 270 
3 273 275 274 
3 273 274 272 
3 275 277 276 
3 275 276 274 
3 277 279 278 
3 277 278 276 
3 279 281 280 
3 279 280 278 
3 281 283 282 
3 281 282 280 
3 283 285 284 
3 283 284 282 
3 285 287 286 
3 285 286 284 
3 287 289 288 
3 287 288 286 
3 289 291 290 
3 289 290 288 
3 291 293 292 
3 291 292 290 
3 293 295 294 
3 293 294 292 
3 295 297 296 
3 295 296 294 
3 297 299 298 
3 297 298 296 
3 299 301 300 
3 299 300 298 
3 301 303 302 
3 301 302 300 
3 303 209 208 
3 303 208 302 
