ply
format ascii 1.0
comment VCGLIB generated
element vertex 28
property float x
property float y
property float z
property float nx
property float ny
property float nz
element face 24
property list uchar int vertex_indices
end_header
0.295 -0.006 0.1 2.0681e-008 -5.17023e-009 0.118281 
1.74846e-008 0.682 0.1 1.17888e-008 -2.9472e-009 0.067424 
0.098 0.682 0.1 1.99501e-008 -4.98751e-009 0.114101 
0.303 0.203 0.1 2.90204e-008 -7.25508e-009 0.165977 
0.507 0.682 0.1 8.12384e-009 -2.03096e-009 0.046463 
0.604 0.682 0.0999999 2.01282e-008 -5.03205e-009 0.11512 
0.315 -0.006 0.1 1.27352e-008 -3.18381e-009 0.072837 
0.295 -0.006 -0.1 -2.0681e-008 5.17023e-009 -0.118281 
-1.74846e-008 0.682 -0.1 -1.17888e-008 2.9472e-009 -0.067424 
0.098 0.682 -0.1 -1.99501e-008 4.98751e-009 -0.114101 
0.303 0.203 -0.1 -2.90204e-008 7.25508e-009 -0.165977 
0.507 0.682 -0.1 -8.12384e-009 2.03096e-009 -0.046463 
0.604 0.682 -0.1 -2.01282e-008 5.03205e-009 -0.11512 
0.315 -0.006 -0.1 -1.27352e-008 3.18381e-009 -0.072837 
0.295 -0.006 -0.1 -0.919076 -2.39408 5.60478e-008 
0.295 -0.006 0.1 -1.83815 -1.78816 2.43229e-007 
-1.74846e-008 0.682 -0.1 -1.83815 0.211839 3.30652e-007 
1.74846e-008 0.682 0.1 -0.919076 1.60592 2.30893e-007 
0.098 0.682 -0.1 0.919343 2.39346 -5.61218e-008 
0.098 0.682 0.1 1.83869 1.78691 -2.43378e-007 
0.303 0.203 -0.1 0.91865 1.17874 -1.09097e-007 
0.303 0.203 0.1 -0.92073 1.17712 2.12439e-007 
0.507 0.682 -0.1 -1.84007 1.78366 3.99695e-007 
0.507 0.682 0.1 -0.920037 2.39183 2.65414e-007 
0.604 0.682 -0.1 0.921963 1.61272 -9.07068e-008 
0.604 0.682 0.0999999 1.84393 0.225444 -3.12548e-007 
0.315 -0.006 -0.1 1.84393 -1.77456 -3.9997e-007 
0.315 -0.006 0.1 0.921963 -2.38728 -2.65553e-007 
3 0 2 1 
3 0 3 2 
3 3 5 4 
3 3 6 5 
3 0 6 3 
3 9 7 8 
3 10 7 9 
3 12 10 11 
3 13 10 12 
3 13 7 10 
3 15 17 16 
3 15 16 14 
3 17 19 18 
3 17 18 16 
3 19 21 20 
3 19 20 18 
3 21 23 22 
3 21 22 20 
3 23 25 24 
3 23 24 22 
3 25 27 26 
3 25 26 24 
3 27 15 14 
3 27 14 26 
