ply
format ascii 1.0
comment VCGLIB generated
element vertex 48
property float x
property float y
property float z
property float nx
property float ny
property float nz
element face 40
property list uchar int vertex_indices
end_header
0.218 0.716 0.1 1.80021e-009 -4.50053e-010 0.010296 
0.306 0.716 0.1 3.60042e-009 -9.00105e-010 0.020592 
0.306 0.599 0.1 4.91421e-009 -1.22855e-009 0.028106 
0.283 0.462 0.1 1.00606e-009 -2.51515e-010 0.005754 
0.241 0.462 0.1 3.114e-009 -7.785e-010 0.01781 
0.218 0.599 0.1 5.70836e-009 -1.42709e-009 0.032648 
0.048 0.716 0.1 1.80021e-009 -4.50053e-010 0.010296 
0.136 0.716 0.1 3.60042e-009 -9.00105e-010 0.020592 
0.136 0.599 0.1 4.91421e-009 -1.22855e-009 0.028106 
0.113 0.462 0.1 1.00606e-009 -2.51515e-010 0.005754 
0.071 0.462 0.1 3.114e-009 -7.785e-010 0.01781 
0.048 0.599 0.1 5.70836e-009 -1.42709e-009 0.032648 
0.218 0.716 -0.1 -1.80021e-009 4.50053e-010 -0.010296 
0.306 0.716 -0.1 -3.60042e-009 9.00105e-010 -0.020592 
0.306 0.599 -0.1 -4.91421e-009 1.22855e-009 -0.028106 
0.283 0.462 -0.1 -1.00606e-009 2.51515e-010 -0.005754 
0.241 0.462 -0.1 -3.114e-009 7.785e-010 -0.01781 
0.218 0.599 -0.1 -5.70836e-009 1.42709e-009 -0.032648 
0.048 0.716 -0.1 -1.80021e-009 4.50053e-010 -0.010296 
0.136 0.716 -0.1 -3.60042e-009 9.00105e-010 -0.020592 
0.136 0.599 -0.1 -4.91421e-009 1.22855e-009 -0.028106 
0.113 0.462 -0.1 -1.00606e-009 2.51515e-010 -0.005754 
0.071 0.462 -0.1 -3.114e-009 7.785e-010 -0.01781 
0.048 0.599 -0.1 -5.70836e-009 1.42709e-009 -0.032648 
0.218 0.716 -0.1 -2 1 3.93402e-007 
0.218 0.716 0.1 -1 2 2.62268e-007 
0.306 0.716 -0.1 1 2 -8.74228e-008 
0.306 0.716 0.1 2 1 -3.0598e-007 
0.306 0.599 -0.1 2.9862 -0.165566 -5.29361e-007 
0.306 0.599 0.1 2.9724 -0.331133 -5.34185e-007 
0.283 0.462 -0.1 1.9724 -1.33113 -4.03051e-007 
0.283 0.462 0.1 0.986199 -2.16557 -2.67092e-007 
0.241 0.462 -0.1 -0.986199 -2.16557 7.77725e-008 
0.241 0.462 0.1 -1.9724 -1.33113 2.86679e-007 
0.218 0.599 -0.1 -2.9724 -0.331133 5.05236e-007 
0.218 0.599 0.1 -2.9862 -0.165566 5.14886e-007 
0.048 0.716 -0.1 -2 1 3.93402e-007 
0.048 0.716 0.1 -1 2 2.62268e-007 
0.136 0.716 -0.1 1 2 -8.74228e-008 
0.136 0.716 0.1 2 1 -3.0598e-007 
0.136 0.599 -0.1 2.9862 -0.165566 -5.29361e-007 
0.136 0.599 0.1 2.9724 -0.331133 -5.34185e-007 
0.113 0.462 -0.1 1.9724 -1.33113 -4.03051e-007 
0.113 0.462 0.1 0.986199 -2.16557 -2.67092e-007 
0.071 0.462 -0.1 -0.986199 -2.16557 7.77725e-008 
0.071 0.462 0.1 -1.9724 -1.33113 2.86679e-007 
0.048 0.599 -0.1 -2.9724 -0.331133 5.05236e-007 
0.048 0.599 0.1 -2.9862 -0.165566 5.14886e-007 
3 11 7 6 
3 11 8 7 
3 10 8 11 
3 10 9 8 
3 5 1 0 
3 5 2 1 
3 4 2 5 
3 4 3 2 
3 19 23 18 
3 20 23 19 
3 20 22 23 
3 21 22 20 
3 13 17 12 
3 14 17 13 
3 14 16 17 
3 15 16 14 
3 25 27 26 
3 25 26 24 
3 27 29 28 
3 27 28 26 
3 29 31 30 
3 29 30 28 
3 31 33 32 
3 31 32 30 
3 33 35 34 
3 33 34 32 
3 35 25 24 
3 35 24 34 
3 37 39 38 
3 37 38 36 
3 39 41 40 
3 39 40 38 
3 41 43 42 
3 41 42 40 
3 43 45 44 
3 43 44 42 
3 45 47 46 
3 45 46 44 
3 47 37 36 
3 47 36 46 
