ply
format ascii 1.0
comment VCGLIB generated
element vertex 52
property float x
property float y
property float z
property float nx
property float ny
property float nz
element face 48
property list uchar int vertex_indices
end_header
0.624 0.449 0.0999999 4.518e-009 -1.1295e-009 0.02584 
0.719 0.449 0.0999999 1.20783e-008 -3.01958e-009 0.06908 
0.521 -0.009 0.1 8.47092e-009 -2.11773e-009 0.048448 
0.493 -0.009 0.1 6.00454e-009 -1.50114e-009 0.034342 
0.36 0.305 0.1 1.76125e-008 -4.40314e-009 0.100732 
0.228 -0.009 0.1 6.02692e-009 -1.50673e-009 0.03447 
0.2 -0.009 0.1 1.29739e-008 -3.24347e-009 0.074202 
1.74846e-008 0.449 0.1 7.60753e-009 -1.90188e-009 0.04351 
0.095 0.449 0.1 1.20633e-008 -3.01582e-009 0.068994 
0.213 0.177 0.1 1.65841e-008 -4.14603e-009 0.09485 
0.327 0.449 0.1 3.13882e-009 -7.84707e-010 0.017952 
0.393 0.449 0.1 1.05411e-008 -2.63527e-009 0.060288 
0.507 0.177 0.1 2.25226e-008 -5.63064e-009 0.128814 
0.624 0.449 -0.1 -4.518e-009 1.1295e-009 -0.02584 
0.719 0.449 -0.1 -1.20783e-008 3.01958e-009 -0.06908 
0.521 -0.00899999 -0.1 -8.47092e-009 2.11773e-009 -0.048448 
0.493 -0.00899999 -0.1 -6.00454e-009 1.50114e-009 -0.034342 
0.36 0.305 -0.1 -1.76125e-008 4.40314e-009 -0.100732 
0.228 -0.00899999 -0.1 -6.02692e-009 1.50673e-009 -0.03447 
0.2 -0.00899999 -0.1 -1.29739e-008 3.24347e-009 -0.074202 
-1.74846e-008 0.449 -0.1 -7.60754e-009 1.90188e-009 -0.04351 
0.095 0.449 -0.1 -1.20633e-008 3.01582e-009 -0.068994 
0.213 0.177 -0.1 -1.65841e-008 4.14603e-009 -0.09485 
0.327 0.449 -0.1 -3.13882e-009 7.84707e-010 -0.017952 
0.393 0.449 -0.1 -1.05411e-008 2.63527e-009 -0.060288 
0.507 0.177 -0.1 -2.25226e-008 5.63064e-009 -0.128814 
0.624 0.449 -0.1 -1.83724 1.79028 3.99489e-007 
0.624 0.449 0.0999999 -0.91862 2.39514 2.65311e-007 
0.719 0.449 -0.1 0.917897 1.60318 -9.04129e-008 
0.719 0.449 0.0999999 1.83579 0.20636 -3.1196e-007 
0.521 -0.00899999 -0.1 1.83579 -1.79364 -3.99383e-007 
0.521 -0.009 0.1 0.917897 -2.39682 -2.65258e-007 
0.493 -0.00899999 -0.1 -0.920805 -2.39002 5.65274e-008 
0.493 -0.009 0.1 -1.84161 -1.78005 2.44189e-007 
0.36 0.305 -0.1 -0.919754 -1.16758 1.09778e-007 
0.36 0.305 0.1 0.922907 -1.16509 -2.12294e-007 
0.228 -0.00899999 -0.1 1.84371 -1.77506 -3.99955e-007 
0.228 -0.009 0.1 0.921856 -2.38753 -2.65545e-007 
0.2 -0.00899999 -0.1 -0.916433 -2.40019 5.53186e-008 
0.2 -0.009 0.1 -1.83287 -1.80038 2.41772e-007 
-1.74846e-008 0.449 -0.1 -1.83287 0.199622 3.29195e-007 
1.74846e-008 0.449 0.1 -0.916433 1.59981 2.30164e-007 
0.095 0.449 -0.1 0.917391 2.39799 -5.55825e-008 
0.095 0.449 0.1 1.83478 1.79597 -2.42299e-007 
0.213 0.177 -0.1 0.912511 1.18251 -1.07859e-007 
0.213 0.177 0.1 -0.927153 1.17107 2.13297e-007 
0.327 0.449 -0.1 -1.84454 1.77308 4.00014e-007 
0.327 0.449 0.1 -0.922272 2.38654 2.65575e-007 
0.393 0.449 -0.1 0.922272 2.38654 -5.69362e-008 
0.393 0.449 0.1 1.84454 1.77308 -2.45006e-007 
0.507 0.177 -0.1 0.925925 1.16822 -1.10829e-007 
0.507 0.177 0.1 -0.914968 1.17682 2.11419e-007 
3 6 8 7 
3 6 9 8 
3 9 11 10 
3 9 4 11 
3 4 12 11 
3 12 1 0 
3 12 2 1 
3 9 5 4 
3 3 12 4 
3 6 5 9 
3 3 2 12 
3 21 19 20 
3 22 19 21 
3 24 22 23 
3 17 22 24 
3 25 17 24 
3 14 25 13 
3 15 25 14 
3 18 22 17 
3 25 16 17 
3 18 19 22 
3 15 16 25 
3 27 29 28 
3 27 28 26 
3 29 31 30 
3 29 30 28 
3 31 33 32 
3 31 32 30 
3 33 35 34 
3 33 34 32 
3 35 37 36 
3 35 36 34 
3 37 39 38 
3 37 38 36 
3 39 41 40 
3 39 40 38 
3 41 43 42 
3 41 42 40 
3 43 45 44 
3 43 44 42 
3 45 47 46 
3 45 46 44 
3 47 49 48 
3 47 48 46 
3 49 51 50 
3 49 50 48 
3 51 27 26 
3 51 26 50 
