ply
format ascii 1.0
comment VCGLIB generated
element vertex 400
property float x
property float y
property float z
property float nx
property float ny
property float nz
element face 400
property list uchar int vertex_indices
end_header
0.157773 0.423689 0.1 1.11643e-009 -2.79108e-010 0.00638525 
0.167602 0.429759 0.1 4.1623e-010 -1.04058e-010 0.00238056 
0.1775 0.435219 0.1 3.7395e-010 -9.34877e-011 0.00213875 
0.187481 0.440074 0.1 6.55322e-010 -1.63831e-010 0.00374801 
0.19756 0.444332 0.1 2.21959e-010 -5.54897e-011 0.00126946 
0.20775 0.448 0.1 3.61856e-010 -9.0464e-011 0.00206958 
0.218065 0.451084 0.1 1.07433e-010 -2.68583e-011 0.000614445 
0.228519 0.453593 0.1 8.71019e-011 -2.17755e-011 0.000498165 
0.239125 0.455531 0.1 1.14554e-010 -2.86385e-011 0.000655173 
0.249898 0.456907 0.1 2.22272e-011 -5.5568e-012 0.000127125 
0.260852 0.457728 0.1 1.38176e-011 -3.4544e-012 7.90274e-005 
0.272 0.458 0.1 5.08972e-012 -1.27243e-012 2.91098e-005 
0.299345 0.456056 0.1 8.96069e-011 -2.24017e-011 0.000512492 
0.325259 0.450366 0.1 4.08078e-010 -1.02019e-010 0.00233393 
0.349563 0.441141 0.1 7.8135e-010 -1.95338e-010 0.0044688 
0.372074 0.428593 0.1 1.55715e-009 -3.89287e-010 0.00890586 
0.392613 0.412933 0.1 3.26545e-009 -8.16361e-010 0.0186762 
0.411 0.394375 0.1 1.30065e-009 -3.25162e-010 0.00743885 
0.427053 0.373129 0.1 1.34992e-009 -3.37479e-010 0.00772063 
0.440593 0.349407 0.1 1.57164e-009 -3.9291e-010 0.00898873 
0.451438 0.323422 0.1 1.49308e-009 -3.7327e-010 0.00853941 
0.459407 0.295384 0.1 1.58149e-009 -3.95372e-010 0.00904506 
0.464322 0.265506 0.1 1.67868e-009 -4.19669e-010 0.00960091 
0.466 0.234 0.1 1.45292e-009 -3.63229e-010 0.00830972 
0.464142 0.197288 0.1 1.76143e-009 -4.40357e-010 0.0100742 
0.458639 0.163222 0.1 1.35443e-009 -3.38608e-010 0.00774644 
0.449594 0.131906 0.1 1.57783e-009 -3.94458e-010 0.00902416 
0.437111 0.103444 0.1 1.758e-009 -4.39502e-010 0.0100546 
0.421295 0.077941 0.1 1.6419e-009 -4.10476e-010 0.0093906 
0.40225 0.0555 0.1 3.82414e-009 -9.56034e-010 0.0218715 
0.38008 0.036226 0.1 1.88753e-009 -4.71881e-010 0.0107954 
0.354889 0.020222 0.1 1.72895e-009 -4.32237e-010 0.00988842 
0.326781 0.007594 0.1 1.47989e-009 -3.69971e-010 0.00846396 
0.295861 -0.001556 0.1 7.3048e-010 -1.8262e-010 0.00417786 
0.262233 -0.007122 0.1 2.24248e-010 -5.60619e-011 0.00128255 
0.226 -0.009 0.1 1.78547e-011 -4.46367e-012 0.000102117 
0.21116 -0.00873201 0.1 1.35396e-012 -3.3849e-013 7.74374e-006 
0.196199 -0.00794 0.1 3.49974e-011 -8.74935e-012 0.000200162 
0.181203 -0.006641 0.1 4.1232e-011 -1.0308e-011 0.000235819 
0.166259 -0.004852 0.1 5.61542e-011 -1.40385e-011 0.000321164 
0.151454 -0.002591 0.1 2.37729e-010 -5.94323e-011 0.00135965 
0.136875 0.000124996 0.1 1.54668e-010 -3.8667e-011 0.000884599 
0.122608 0.003278 0.1 1.79999e-010 -4.49997e-011 0.00102947 
0.108741 0.006852 0.1 5.94676e-010 -1.48669e-010 0.00340115 
0.095359 0.010828 0.1 3.22572e-010 -8.06431e-011 0.0018449 
0.082551 0.01519 0.1 3.55106e-010 -8.87764e-011 0.00203097 
0.070402 0.01992 0.1 1.06578e-009 -2.66446e-010 0.00609558 
0.059 0.025 0.1 2.47994e-008 -6.19986e-009 0.141836 
0.059 0.682 0.1 1.02237e-008 -2.55594e-009 0.058473 
0.148 0.682 0.1 1.43475e-008 -3.58687e-009 0.082058 
0.148 0.417 0.1 8.46321e-009 -2.1158e-009 0.0484039 
0.154736 0.087044 0.1 2.14528e-010 -5.36322e-011 0.00122696 
0.161889 0.085185 0.1 2.18918e-010 -5.47295e-011 0.00125207 
0.169375 0.083438 0.1 2.20569e-010 -5.51422e-011 0.00126151 
0.177111 0.081815 0.1 2.19518e-010 -5.48797e-011 0.0012555 
0.185014 0.080331 0.1 2.15738e-010 -5.39347e-011 0.00123388 
0.193 0.079 0.1 2.09258e-010 -5.23146e-011 0.00119682 
0.200986 0.077836 0.1 2.0011e-010 -5.00276e-011 0.0011445 
0.208889 0.076852 0.1 1.88251e-010 -4.70626e-011 0.00107667 
0.216625 0.076063 0.1 1.73689e-010 -4.34223e-011 0.000993386 
0.224111 0.075481 0.1 1.56346e-010 -3.90865e-011 0.000894195 
0.231264 0.075123 0.1 1.36207e-010 -3.40519e-011 0.000779016 
0.238 0.075 0.1 2.21131e-009 -5.52828e-010 0.0126472 
0.257501 0.076249 0.1 8.38856e-010 -2.09714e-010 0.0047977 
0.275926 0.079912 0.1 2.56546e-010 -6.41365e-011 0.00146727 
0.293156 0.085859 0.1 3.60698e-010 -9.01743e-011 0.00206295 
0.309074 0.093963 0.1 9.51097e-010 -2.37774e-010 0.00543964 
0.323561 0.104094 0.1 4.43114e-010 -1.10779e-010 0.00253432 
0.3365 0.116125 0.1 5.08119e-010 -1.2703e-010 0.0029061 
0.347772 0.129927 0.1 1.04183e-009 -2.60458e-010 0.00595859 
0.357259 0.14537 0.1 5.63283e-010 -1.40821e-010 0.0032216 
0.364844 0.162328 0.1 1.10374e-009 -2.75935e-010 0.00631265 
0.370407 0.180671 0.1 1.15355e-009 -2.88387e-010 0.00659753 
0.373832 0.200271 0.1 6.39202e-010 -1.59801e-010 0.00365581 
0.375 0.221 0.1 1.27684e-009 -3.19211e-010 0.00730269 
0.373973 0.244046 0.1 1.22511e-009 -3.06277e-010 0.0070068 
0.370949 0.265616 0.1 6.78399e-010 -1.696e-010 0.00387999 
0.366016 0.285609 0.1 1.13323e-009 -2.83308e-010 0.00648133 
0.359259 0.303926 0.1 5.87568e-010 -1.46892e-010 0.0033605 
0.350767 0.320465 0.1 1.03785e-009 -2.59463e-010 0.00593582 
0.340625 0.335125 0.1 4.85035e-010 -1.21259e-010 0.00277408 
0.328921 0.347806 0.1 9.42826e-010 -2.35707e-010 0.00539234 
0.315741 0.358407 0.1 3.7158e-010 -9.28951e-011 0.00212519 
0.301172 0.366828 0.1 2.62236e-010 -6.55589e-011 0.00149981 
0.285301 0.372968 0.1 7.83254e-010 -1.95814e-010 0.00447969 
0.268215 0.376725 0.1 1.17554e-010 -2.93886e-011 0.000672332 
0.25 0.378 0.1 6.86712e-010 -1.71678e-010 0.00392753 
0.240946 0.377744 0.1 2.05542e-011 -5.13855e-012 0.000117556 
0.232236 0.376954 0.1 6.52847e-010 -1.63212e-010 0.00373385 
0.223797 0.375594 0.1 1.81766e-009 -4.54414e-010 0.0103958 
0.215556 0.37363 0.1 1.77988e-010 -4.44971e-011 0.00101797 
0.207439 0.371027 0.1 1.91174e-010 -4.77936e-011 0.00109339 
0.199375 0.36775 0.1 2.04294e-010 -5.10734e-011 0.00116842 
0.19129 0.363765 0.1 2.17333e-010 -5.43332e-011 0.001243 
0.183111 0.359037 0.1 2.3029e-010 -5.75725e-011 0.00131711 
0.174766 0.353531 0.1 2.43212e-010 -6.0803e-011 0.00139101 
0.166181 0.347213 0.1 2.5619e-010 -6.40476e-011 0.00146524 
0.157283 0.340047 0.1 2.69315e-010 -6.73288e-011 0.0015403 
0.148 0.332 0.1 5.24206e-009 -1.31051e-009 0.0299811 
0.148 0.089 0.1 3.8872e-009 -9.718e-010 0.0222322 
0.157773 0.423689 -0.1 -1.11643e-009 2.79108e-010 -0.00638525 
0.167602 0.429759 -0.1 -4.1623e-010 1.04058e-010 -0.00238056 
0.1775 0.435219 -0.1 -3.7395e-010 9.34877e-011 -0.00213875 
0.187481 0.440074 -0.1 -6.55322e-010 1.63831e-010 -0.00374801 
0.19756 0.444332 -0.1 -2.21959e-010 5.54897e-011 -0.00126946 
0.20775 0.448 -0.1 -3.61856e-010 9.0464e-011 -0.00206958 
0.218065 0.451084 -0.1 -1.07433e-010 2.68583e-011 -0.000614445 
0.228519 0.453593 -0.1 -8.71019e-011 2.17755e-011 -0.000498165 
0.239125 0.455531 -0.1 -1.14554e-010 2.86385e-011 -0.000655173 
0.249898 0.456907 -0.1 -2.22272e-011 5.5568e-012 -0.000127125 
0.260852 0.457728 -0.1 -1.38176e-011 3.4544e-012 -7.90274e-005 
0.272 0.458 -0.1 -5.08972e-012 1.27243e-012 -2.91098e-005 
0.299345 0.456056 -0.1 -8.96069e-011 2.24017e-011 -0.000512492 
0.325259 0.450366 -0.1 -4.08078e-010 1.02019e-010 -0.00233393 
0.349563 0.441141 -0.1 -7.8135e-010 1.95338e-010 -0.0044688 
0.372074 0.428593 -0.1 -1.55715e-009 3.89287e-010 -0.00890586 
0.392613 0.412933 -0.1 -3.26545e-009 8.16361e-010 -0.0186762 
0.411 0.394375 -0.1 -1.30065e-009 3.25162e-010 -0.00743885 
0.427053 0.373129 -0.1 -1.34992e-009 3.37479e-010 -0.00772063 
0.440593 0.349407 -0.1 -1.57164e-009 3.9291e-010 -0.00898873 
0.451438 0.323422 -0.1 -1.49308e-009 3.7327e-010 -0.00853941 
0.459407 0.295384 -0.1 -1.58149e-009 3.95372e-010 -0.00904506 
0.464322 0.265506 -0.1 -1.67868e-009 4.19669e-010 -0.00960091 
0.466 0.234 -0.1 -1.45292e-009 3.63229e-010 -0.00830972 
0.464142 0.197288 -0.1 -1.76143e-009 4.40357e-010 -0.0100742 
0.458639 0.163222 -0.1 -1.35443e-009 3.38608e-010 -0.00774644 
0.449594 0.131906 -0.1 -1.57783e-009 3.94458e-010 -0.00902416 
0.437111 0.103444 -0.1 -1.758e-009 4.39502e-010 -0.0100546 
0.421295 0.077941 -0.1 -1.6419e-009 4.10476e-010 -0.0093906 
0.40225 0.0555 -0.1 -3.82414e-009 9.56034e-010 -0.0218715 
0.38008 0.036226 -0.1 -1.88753e-009 4.71881e-010 -0.0107954 
0.354889 0.020222 -0.1 -1.72895e-009 4.32237e-010 -0.00988842 
0.326781 0.007594 -0.1 -1.47989e-009 3.69971e-010 -0.00846396 
0.295861 -0.001556 -0.1 -7.3048e-010 1.8262e-010 -0.00417786 
0.262233 -0.007122 -0.1 -2.24248e-010 5.60619e-011 -0.00128255 
0.226 -0.00899999 -0.1 -1.78547e-011 4.46367e-012 -0.000102117 
0.21116 -0.008732 -0.1 -1.35396e-012 3.3849e-013 -7.74374e-006 
0.196199 -0.00794 -0.1 -3.49974e-011 8.74935e-012 -0.000200162 
0.181203 -0.006641 -0.1 -4.1232e-011 1.0308e-011 -0.000235819 
0.166259 -0.004852 -0.1 -5.61542e-011 1.40385e-011 -0.000321164 
0.151454 -0.002591 -0.1 -2.37729e-010 5.94323e-011 -0.00135965 
0.136875 0.000125004 -0.1 -1.54668e-010 3.8667e-011 -0.000884599 
0.122608 0.003278 -0.1 -1.79999e-010 4.49997e-011 -0.00102947 
0.108741 0.006852 -0.1 -5.94676e-010 1.48669e-010 -0.00340115 
0.095359 0.010828 -0.1 -3.22572e-010 8.06431e-011 -0.0018449 
0.082551 0.01519 -0.1 -3.55106e-010 8.87763e-011 -0.00203097 
0.070402 0.01992 -0.1 -1.06578e-009 2.66446e-010 -0.00609558 
0.059 0.025 -0.1 -2.47994e-008 6.19986e-009 -0.141836 
0.059 0.682 -0.1 -1.02237e-008 2.55594e-009 -0.058473 
0.148 0.682 -0.1 -1.43475e-008 3.58687e-009 -0.082058 
0.148 0.417 -0.1 -8.46321e-009 2.1158e-009 -0.0484039 
0.154736 0.087044 -0.1 -2.14528e-010 5.36322e-011 -0.00122696 
0.161889 0.085185 -0.1 -2.18918e-010 5.47295e-011 -0.00125207 
0.169375 0.083438 -0.1 -2.20569e-010 5.51422e-011 -0.00126151 
0.177111 0.081815 -0.1 -2.19518e-010 5.48797e-011 -0.0012555 
0.185014 0.080331 -0.1 -2.15738e-010 5.39347e-011 -0.00123388 
0.193 0.079 -0.1 -2.09258e-010 5.23146e-011 -0.00119682 
0.200986 0.077836 -0.1 -2.0011e-010 5.00276e-011 -0.0011445 
0.208889 0.076852 -0.1 -1.88251e-010 4.70626e-011 -0.00107667 
0.216625 0.076063 -0.1 -1.73689e-010 4.34223e-011 -0.000993386 
0.224111 0.075481 -0.1 -1.56346e-010 3.90865e-011 -0.000894196 
0.231264 0.075123 -0.1 -1.36208e-010 3.40519e-011 -0.000779016 
0.238 0.075 -0.1 -2.21131e-009 5.52828e-010 -0.0126472 
0.257501 0.076249 -0.1 -8.38856e-010 2.09714e-010 -0.0047977 
0.275926 0.079912 -0.1 -2.56546e-010 6.41365e-011 -0.00146727 
0.293156 0.085859 -0.1 -3.60698e-010 9.01743e-011 -0.00206295 
0.309074 0.093963 -0.1 -9.51097e-010 2.37774e-010 -0.00543964 
0.323561 0.104094 -0.1 -4.43114e-010 1.10779e-010 -0.00253432 
0.3365 0.116125 -0.1 -5.08119e-010 1.2703e-010 -0.0029061 
0.347772 0.129927 -0.1 -1.04183e-009 2.60458e-010 -0.00595859 
0.357259 0.14537 -0.1 -5.63283e-010 1.40821e-010 -0.0032216 
0.364844 0.162328 -0.1 -1.10374e-009 2.75935e-010 -0.00631265 
0.370407 0.180671 -0.1 -1.15355e-009 2.88387e-010 -0.00659753 
0.373832 0.200271 -0.1 -6.39202e-010 1.59801e-010 -0.00365581 
0.375 0.221 -0.1 -1.27684e-009 3.19211e-010 -0.00730269 
0.373973 0.244046 -0.1 -1.22511e-009 3.06277e-010 -0.0070068 
0.370949 0.265616 -0.1 -6.78399e-010 1.696e-010 -0.00387999 
0.366016 0.285609 -0.1 -1.13323e-009 2.83308e-010 -0.00648133 
0.359259 0.303926 -0.1 -5.87568e-010 1.46892e-010 -0.0033605 
0.350767 0.320465 -0.1 -1.03785e-009 2.59463e-010 -0.00593582 
0.340625 0.335125 -0.1 -4.85035e-010 1.21259e-010 -0.00277408 
0.328921 0.347806 -0.1 -9.42826e-010 2.35707e-010 -0.00539234 
0.315741 0.358407 -0.1 -3.7158e-010 9.28951e-011 -0.00212519 
0.301172 0.366828 -0.1 -2.62236e-010 6.55589e-011 -0.00149981 
0.285301 0.372968 -0.1 -7.83254e-010 1.95814e-010 -0.00447969 
0.268215 0.376725 -0.1 -1.17554e-010 2.93886e-011 -0.000672332 
0.25 0.378 -0.1 -6.86712e-010 1.71678e-010 -0.00392753 
0.240946 0.377744 -0.1 -2.05542e-011 5.13855e-012 -0.000117556 
0.232236 0.376954 -0.1 -6.52848e-010 1.63212e-010 -0.00373385 
0.223797 0.375594 -0.1 -1.81766e-009 4.54414e-010 -0.0103958 
0.215556 0.37363 -0.1 -1.77988e-010 4.44971e-011 -0.00101797 
0.207439 0.371027 -0.1 -1.91174e-010 4.77936e-011 -0.00109339 
0.199375 0.36775 -0.1 -2.04294e-010 5.10734e-011 -0.00116842 
0.19129 0.363765 -0.1 -2.17333e-010 5.43332e-011 -0.001243 
0.183111 0.359037 -0.1 -2.3029e-010 5.75725e-011 -0.00131711 
0.174766 0.353531 -0.1 -2.43212e-010 6.0803e-011 -0.00139101 
0.166181 0.347213 -0.1 -2.5619e-010 6.40476e-011 -0.00146524 
0.157283 0.340047 -0.1 -2.69315e-010 6.73288e-011 -0.0015403 
0.148 0.332 -0.1 -5.24206e-009 1.31051e-009 -0.0299811 
0.148 0.089 -0.1 -3.8872e-009 9.718e-010 -0.0222322 
0.157773 0.423689 -0.1 -1.65506 2.50127 3.98714e-007 
0.157773 0.423689 0.1 -1.61569 2.52688 3.9295e-007 
0.167602 0.429759 -0.1 -1.53389 2.57728 3.8085e-007 
0.167602 0.429759 0.1 -1.49146 2.60206 3.74515e-007 
0.1775 0.435219 -0.1 -1.40344 2.65048 3.61242e-007 
0.1775 0.435219 0.1 -1.35785 2.67413 3.54304e-007 
0.187481 0.440074 -0.1 -1.264 2.71968 3.39886e-007 
0.187481 0.440074 0.1 -1.21574 2.7416 3.32406e-007 
0.19756 0.444332 -0.1 -1.11701 2.78324 3.16963e-007 
0.19756 0.444332 0.1 -1.06654 2.80297 3.09001e-007 
0.20775 0.448 -0.1 -0.963826 2.83989 2.92656e-007 
0.20775 0.448 0.1 -0.911589 2.85709 2.84275e-007 
0.218065 0.451084 -0.1 -0.806278 2.88858 2.67238e-007 
0.218065 0.451084 0.1 -0.753203 2.90287 2.58583e-007 
0.228519 0.453593 -0.1 -0.646504 2.92848 2.41046e-007 
0.228519 0.453593 0.1 -0.59288 2.93981 2.32165e-007 
0.239125 0.455531 -0.1 -0.486201 2.95937 2.14368e-007 
0.239125 0.455531 0.1 -0.433147 2.96759 2.05452e-007 
0.249898 0.456907 -0.1 -0.328135 2.98109 1.8768e-007 
0.249898 0.456907 0.1 -0.276177 2.98635 1.78826e-007 
0.260852 0.457728 -0.1 -0.173871 2.99411 1.61277e-007 
0.260852 0.457728 0.1 -0.123524 2.99661 1.52584e-007 
0.272 0.458 -0.1 0.0221284 2.99689 1.27129e-007 
0.272 0.458 0.1 0.117434 2.99467 1.10369e-007 
0.299345 0.456056 -0.1 0.356289 2.9717 6.76014e-008 
0.299345 0.456056 0.1 0.49984 2.95095 4.15952e-008 
0.325259 0.450366 -0.1 0.783791 2.88838 -1.07872e-008 
0.325259 0.450366 0.1 0.92419 2.84657 -3.71632e-008 
0.349563 0.441141 -0.1 1.19661 2.7433 -8.93085e-008 
0.349563 0.441141 0.1 1.32863 2.68185 -1.15078e-007 
0.372074 0.428593 -0.1 1.58009 2.54215 -1.6515e-007 
0.372074 0.428593 0.1 1.69952 2.46391 -1.89453e-007 
0.392613 0.412933 -0.1 1.92301 2.29427 -2.35944e-007 
0.392613 0.412933 0.1 2.02706 2.20288 -2.58132e-007 
0.411 0.394375 -0.1 2.2186 2.0105 -3.00031e-007 
0.411 0.394375 0.1 2.30609 1.90952 -3.19742e-007 
0.427053 0.373129 -0.1 2.4642 1.7014 -3.56484e-007 
0.427053 0.373129 0.1 2.53483 1.59427 -3.73516e-007 
0.440593 0.349407 -0.1 2.65982 1.37658 -4.04886e-007 
0.440593 0.349407 0.1 2.71419 1.26603 -4.19224e-007 
0.451438 0.323422 -0.1 2.8076 1.04371 -4.45275e-007 
0.451438 0.323422 0.1 2.84666 0.931944 -4.56989e-007 
0.459407 0.295384 -0.1 2.91054 0.709106 -4.779e-007 
0.459407 0.295384 0.1 2.93538 0.598034 -4.87097e-007 
0.464322 0.265506 -0.1 2.97206 0.377825 -5.03137e-007 
0.464322 0.265506 0.1 2.98391 0.268689 -5.09979e-007 
0.466 0.234 -0.1 2.99589 0.0558226 -5.21378e-007 
0.466 0.234 0.1 2.99603 -0.0479067 -5.25936e-007 
0.464142 0.197288 -0.1 2.98465 -0.260563 -5.33242e-007 
0.464142 0.197288 0.1 2.97313 -0.369489 -5.35989e-007 
0.458639 0.163222 -0.1 2.93513 -0.596432 -5.39265e-007 
0.458639 0.163222 0.1 2.90866 -0.714447 -5.39796e-007 
0.449594 0.131906 -0.1 2.83725 -0.956628 -5.37896e-007 
0.449594 0.131906 0.1 2.79231 -1.08079 -5.35466e-007 
0.437111 0.103444 -0.1 2.68142 -1.33034 -5.26986e-007 
0.437111 0.103444 0.1 2.61547 -1.45573 -5.20936e-007 
0.421295 0.077941 -0.1 2.46212 -1.70114 -5.0485e-007 
0.421295 0.077941 0.1 2.37472 -1.82116 -4.94815e-007 
0.40225 0.0555 -0.1 2.18098 -2.0488 -4.7089e-007 
0.40225 0.0555 0.1 2.07463 -2.15641 -4.57e-007 
0.38008 0.036226 -0.1 1.84843 -2.35342 -4.26061e-007 
0.38008 0.036226 0.1 1.72858 -2.44281 -4.09012e-007 
0.354889 0.020222 -0.1 1.48229 -2.6003 -3.72835e-007 
0.354889 0.020222 0.1 1.35586 -2.66841 -3.53706e-007 
0.326781 0.007594 -0.1 1.10338 -2.78324 -3.14581e-007 
0.326781 0.007594 0.1 0.977331 -2.82996 -2.94584e-007 
0.295861 -0.001556 -0.1 0.730817 -2.90437 -2.54734e-007 
0.295861 -0.001556 0.1 0.610351 -2.93205 -2.34882e-007 
0.262233 -0.007122 -0.1 0.378352 -2.97181 -1.96056e-007 
0.262233 -0.007122 0.1 0.266818 -2.9839 -1.77082e-007 
0.226 -0.00899999 -0.1 0.0854671 -2.99716 -1.45954e-007 
0.226 -0.009 0.1 0.0156491 -2.99833 -1.33797e-007 
0.21116 -0.008732 -0.1 -0.0889763 -2.99828 -1.15501e-007 
0.21116 -0.00873201 0.1 -0.123784 -2.99704 -1.09361e-007 
0.196199 -0.00794 -0.1 -0.192027 -2.99347 -9.72735e-008 
0.196199 -0.00794 0.1 -0.225463 -2.99114 -9.13254e-008 
0.181203 -0.006641 -0.1 -0.291465 -2.98545 -7.95363e-008 
0.181203 -0.006641 0.1 -0.32403 -2.98209 -7.36964e-008 
0.166259 -0.004852 -0.1 -0.388698 -2.97436 -6.20512e-008 
0.166259 -0.004852 0.1 -0.420801 -2.96999 -5.62471e-008 
0.151454 -0.002591 -0.1 -0.485081 -2.96016 -4.45786e-008 
0.151454 -0.002591 0.1 -0.517257 -2.95471 -3.87145e-008 
0.136875 0.000125004 -0.1 -0.582081 -2.94261 -2.68514e-008 
0.136875 0.000124996 0.1 -0.614729 -2.93596 -2.08524e-008 
0.122608 0.003278 -0.1 -0.681163 -2.92123 -8.59284e-009 
0.122608 0.003278 0.1 -0.714949 -2.91315 -2.33217e-009 
0.108741 0.006852 -0.1 -0.783966 -2.89529 1.05157e-008 
0.108741 0.006852 0.1 -0.819198 -2.88552 1.7103e-008 
0.095359 0.010828 -0.1 -0.892005 -2.86378 3.07835e-008 
0.095359 0.010828 0.1 -0.92958 -2.8518 3.78768e-008 
0.082551 0.01519 -0.1 -1.00758 -2.82508 5.26822e-008 
0.082551 0.01519 0.1 -1.048 -2.81034 6.0394e-008 
0.070402 0.01992 -0.1 -1.13258 -2.77717 7.66327e-008 
0.070402 0.01992 0.1 -1.17675 -2.75875 8.51606e-008 
0.059 0.025 -0.1 -1.81394 -1.82688 2.37304e-007 
0.059 0.025 0.1 -2.40697 -0.913441 3.8092e-007 
0.059 0.682 -0.1 -2 1 3.93403e-007 
0.059 0.682 0.1 -1 2 2.62269e-007 
0.148 0.682 -0.1 1 2 -8.74228e-008 
0.148 0.682 0.1 2 1 -3.0598e-007 
0.148 0.417 -0.1 1.43519 0.82522 -2.14865e-007 
0.148 0.417 0.1 -0.129623 1.65044 9.4807e-008 
0.154736 0.087044 -0.1 0.809258 2.88851 -1.52343e-008 
0.154736 0.087044 0.1 0.781931 2.89603 -1.01278e-008 
0.161889 0.085185 -0.1 0.730332 2.90953 -5.15747e-010 
0.161889 0.085185 0.1 0.706059 2.91552 3.98996e-009 
0.169375 0.083438 -0.1 0.659853 2.92636 1.25429e-008 
0.169375 0.083438 0.1 0.63792 2.93122 1.65903e-008 
0.177111 0.081815 -0.1 0.595209 2.94021 2.4451e-008 
0.177111 0.081815 0.1 0.574431 2.94434 2.82643e-008 
0.185014 0.080331 -0.1 0.533501 2.95204 3.57575e-008 
0.185014 0.080331 0.1 0.513347 2.95561 3.94374e-008 
0.193 0.079 -0.1 0.473028 2.96233 4.67809e-008 
0.193 0.079 0.1 0.452861 2.96548 5.04445e-008 
0.200986 0.077836 -0.1 0.412019 2.97143 5.78455e-008 
0.200986 0.077836 0.1 0.391343 2.97422 6.15827e-008 
0.208889 0.076852 -0.1 0.348575 2.97951 6.92919e-008 
0.208889 0.076852 0.1 0.326484 2.98202 7.32639e-008 
0.216625 0.076063 -0.1 0.28044 2.98667 8.15182e-008 
0.216625 0.076063 0.1 0.256487 2.98882 8.58002e-008 
0.224111 0.075481 -0.1 0.205009 2.99273 9.49715e-008 
0.224111 0.075481 0.1 0.177484 2.99449 9.98609e-008 
0.231264 0.075123 -0.1 0.118229 2.99733 1.10346e-007 
0.231264 0.075123 0.1 0.0864988 2.99842 1.15941e-007 
0.238 0.075 -0.1 -0.0274047 2.99762 1.35822e-007 
0.238 0.075 0.1 -0.109578 2.99574 1.50108e-007 
0.257501 0.076249 -0.1 -0.322824 2.97672 1.86561e-007 
0.257501 0.076249 0.1 -0.453897 2.95957 2.08729e-007 
0.275926 0.079912 -0.1 -0.716246 2.90689 2.52296e-007 
0.275926 0.079912 0.1 -0.847522 2.87136 2.73697e-007 
0.293156 0.085859 -0.1 -1.10623 2.78171 3.15012e-007 
0.293156 0.085859 0.1 -1.23366 2.72759 3.34927e-007 
0.309074 0.093963 -0.1 -1.48048 2.60181 3.72584e-007 
0.309074 0.093963 0.1 -1.59987 2.53015 3.90326e-007 
0.323561 0.104094 -0.1 -1.82712 2.37132 4.23118e-007 
0.323561 0.104094 0.1 -1.93498 2.28416 4.38166e-007 
0.3365 0.116125 -0.1 -2.13641 2.09722 4.65214e-007 
0.3365 0.116125 0.1 -2.22999 1.99743 4.77214e-007 
0.347772 0.129927 -0.1 -2.4011 1.78854 4.98002e-007 
0.347772 0.129927 0.1 -2.47864 1.67943 5.0679e-007 
0.357259 0.14537 -0.1 -2.61697 1.45518 5.21174e-007 
0.357259 0.14537 0.1 -2.67776 1.34004 5.26769e-007 
0.364844 0.162328 -0.1 -2.78266 1.10682 5.34916e-007 
0.364844 0.162328 0.1 -2.82677 0.988745 5.37467e-007 
0.370407 0.180671 -0.1 -2.89899 0.752582 5.39772e-007 
0.370407 0.180671 0.1 -2.92711 0.634496 5.39526e-007 
0.373832 0.200271 -0.1 -2.96856 0.400531 5.36548e-007 
0.373832 0.200271 0.1 -2.98191 0.284652 5.33816e-007 
0.375 0.221 -0.1 -2.99584 0.0679967 5.26782e-007 
0.375 0.221 0.1 -2.99643 -0.0327791 5.2248e-007 
0.373973 0.244046 -0.1 -2.98833 -0.227874 5.12536e-007 
0.373973 0.244046 0.1 -2.97964 -0.322193 5.06893e-007 
0.370949 0.265616 -0.1 -2.95151 -0.517227 4.9345e-007 
0.370949 0.265616 0.1 -2.93208 -0.617942 4.85651e-007 
0.366016 0.285609 -0.1 -2.87997 -0.825199 4.67479e-007 
0.366016 0.285609 0.1 -2.84728 -0.931741 4.57107e-007 
0.359259 0.303926 -0.1 -2.76599 -1.14895 4.33399e-007 
0.359259 0.303926 0.1 -2.71738 -1.25962 4.20062e-007 
0.350767 0.320465 -0.1 -2.60156 -1.48246 3.90071e-007 
0.350767 0.320465 0.1 -2.53435 -1.59463 3.73416e-007 
0.340625 0.335125 -0.1 -2.37961 -1.8161 3.3668e-007 
0.340625 0.335125 0.1 -2.29208 -1.9254 3.16598e-007 
0.328921 0.347806 -0.1 -2.09644 -2.13569 2.732e-007 
0.328921 0.347806 0.1 -1.98834 -2.23668 2.49884e-007 
0.315741 0.358407 -0.1 -1.75392 -2.42422 2.00699e-007 
0.315741 0.358407 0.1 -1.6276 -2.51078 1.74829e-007 
0.301172 0.366828 -0.1 -1.36166 -2.6642 1.21625e-007 
0.301172 0.366828 0.1 -1.22205 -2.73106 9.42913e-008 
0.285301 0.372968 -0.1 -0.936376 -2.84195 3.94957e-008 
0.285301 0.372968 0.1 -0.790324 -2.88597 1.20346e-008 
0.268215 0.376725 -0.1 -0.499341 -2.95089 -4.16801e-008 
0.268215 0.376725 0.1 -0.35441 -2.97179 -6.79339e-008 
0.25 0.378 -0.1 -0.111389 -2.99472 -1.11427e-007 
0.25 0.378 0.1 -0.0132992 -2.99676 -1.28667e-007 
0.240946 0.377744 -0.1 0.146857 -2.99511 -1.56598e-007 
0.240946 0.377744 0.1 0.208923 -2.99142 -1.67289e-007 
0.232236 0.376954 -0.1 0.339763 -2.97909 -1.89626e-007 
0.232236 0.376954 0.1 0.408537 -2.97044 -2.01272e-007 
0.223797 0.375594 -0.1 0.550035 -2.94728 -2.25001e-007 
0.223797 0.375594 0.1 0.62276 -2.93278 -2.37082e-007 
0.215556 0.37363 -0.1 0.769024 -2.89775 -2.61125e-007 
0.215556 0.37363 0.1 0.842562 -2.87723 -2.73086e-007 
0.207439 0.371027 -0.1 0.98721 -2.8309 -2.96352e-007 
0.207439 0.371027 0.1 1.05832 -2.80509 -3.07656e-007 
0.199375 0.36775 -0.1 1.19505 -2.74982 -3.29148e-007 
0.199375 0.36775 0.1 1.26068 -2.72036 -3.39335e-007 
0.19129 0.363765 -0.1 1.38467 -2.65969 -3.58362e-007 
0.19129 0.363765 0.1 1.44303 -2.62848 -3.67202e-007 
0.183111 0.359037 -0.1 1.55165 -2.5662 -3.83472e-007 
0.183111 0.359037 0.1 1.60191 -2.53513 -3.90901e-007 
0.174766 0.353531 -0.1 1.69417 -2.47478 -4.04394e-007 
0.174766 0.353531 0.1 1.73618 -2.4455 -4.10459e-007 
0.166181 0.347213 -0.1 1.81268 -2.38964 -4.21394e-007 
0.166181 0.347213 0.1 1.84719 -2.36307 -4.26266e-007 
0.157283 0.340047 -0.1 1.90948 -2.31328 -4.3498e-007 
0.157283 0.340047 0.1 1.93726 -2.29007 -4.38823e-007 
0.148 0.332 -0.1 2.31002 -1.51124 -4.69955e-007 
0.148 0.332 0.1 2.65501 -0.755618 -4.97246e-007 
0.148 0.089 -0.1 2.27886 0.960331 -3.56471e-007 
0.148 0.089 0.1 1.55772 1.92066 -1.88406e-007 
3 47 49 48 
3 47 50 49 
3 10 12 11 
3 9 12 10 
3 8 12 9 
3 8 13 12 
3 7 13 8 
3 6 13 7 
3 5 13 6 
3 5 14 13 
3 4 14 5 
3 3 14 4 
3 3 15 14 
3 2 15 3 
3 1 15 2 
3 0 15 1 
3 0 16 15 
3 50 16 0 
3 47 98 50 
3 98 97 50 
3 97 96 50 
3 96 95 50 
3 95 94 50 
3 94 93 50 
3 93 92 50 
3 92 91 50 
3 91 90 50 
3 90 89 50 
3 89 16 50 
3 89 88 16 
3 88 17 16 
3 88 87 17 
3 87 86 17 
3 86 18 17 
3 85 18 86 
3 84 18 85 
3 84 19 18 
3 83 19 84 
3 82 19 83 
3 81 19 82 
3 81 20 19 
3 80 20 81 
3 79 20 80 
3 47 99 98 
3 79 21 20 
3 78 21 79 
3 77 21 78 
3 77 22 21 
3 76 22 77 
3 75 22 76 
3 75 23 22 
3 74 23 75 
3 74 24 23 
3 73 24 74 
3 72 24 73 
3 72 25 24 
3 71 25 72 
3 71 26 25 
3 70 26 71 
3 69 26 70 
3 69 27 26 
3 68 27 69 
3 67 27 68 
3 66 27 67 
3 66 28 27 
3 65 28 66 
3 47 51 99 
3 47 52 51 
3 64 28 65 
3 47 53 52 
3 47 54 53 
3 47 55 54 
3 47 56 55 
3 63 28 64 
3 47 57 56 
3 63 29 28 
3 47 58 57 
3 47 59 58 
3 62 29 63 
3 47 60 59 
3 47 61 60 
3 47 62 61 
3 47 29 62 
3 47 30 29 
3 47 31 30 
3 46 31 47 
3 46 32 31 
3 45 32 46 
3 44 32 45 
3 43 32 44 
3 43 33 32 
3 42 33 43 
3 41 33 42 
3 40 33 41 
3 40 34 33 
3 39 34 40 
3 38 34 39 
3 37 34 38 
3 37 35 34 
3 36 35 37 
3 149 147 148 
3 150 147 149 
3 112 110 111 
3 112 109 110 
3 112 108 109 
3 113 108 112 
3 113 107 108 
3 113 106 107 
3 113 105 106 
3 114 105 113 
3 114 104 105 
3 114 103 104 
3 115 103 114 
3 115 102 103 
3 115 101 102 
3 115 100 101 
3 116 100 115 
3 116 150 100 
3 198 147 150 
3 197 198 150 
3 196 197 150 
3 195 196 150 
3 194 195 150 
3 193 194 150 
3 192 193 150 
3 191 192 150 
3 190 191 150 
3 189 190 150 
3 116 189 150 
3 188 189 116 
3 117 188 116 
3 187 188 117 
3 186 187 117 
3 118 186 117 
3 118 185 186 
3 118 184 185 
3 119 184 118 
3 119 183 184 
3 119 182 183 
3 119 181 182 
3 120 181 119 
3 120 180 181 
3 120 179 180 
3 199 147 198 
3 121 179 120 
3 121 178 179 
3 121 177 178 
3 122 177 121 
3 122 176 177 
3 122 175 176 
3 123 175 122 
3 123 174 175 
3 124 174 123 
3 124 173 174 
3 124 172 173 
3 125 172 124 
3 125 171 172 
3 126 171 125 
3 126 170 171 
3 126 169 170 
3 127 169 126 
3 127 168 169 
3 127 167 168 
3 127 166 167 
3 128 166 127 
3 128 165 166 
3 151 147 199 
3 152 147 151 
3 128 164 165 
3 153 147 152 
3 154 147 153 
3 155 147 154 
3 156 147 155 
3 128 163 164 
3 157 147 156 
3 129 163 128 
3 158 147 157 
3 159 147 158 
3 129 162 163 
3 160 147 159 
3 161 147 160 
3 162 147 161 
3 129 147 162 
3 130 147 129 
3 131 147 130 
3 131 146 147 
3 132 146 131 
3 132 145 146 
3 132 144 145 
3 132 143 144 
3 133 143 132 
3 133 142 143 
3 133 141 142 
3 133 140 141 
3 134 140 133 
3 134 139 140 
3 134 138 139 
3 134 137 138 
3 135 137 134 
3 135 136 137 
3 201 203 202 
3 201 202 200 
3 203 205 204 
3 203 204 202 
3 205 207 206 
3 205 206 204 
3 207 209 208 
3 207 208 206 
3 209 211 210 
3 209 210 208 
3 211 213 212 
3 211 212 210 
3 213 215 214 
3 213 214 212 
3 215 217 216 
3 215 216 214 
3 217 219 218 
3 217 218 216 
3 219 221 220 
3 219 220 218 
3 221 223 222 
3 221 222 220 
3 223 225 224 
3 223 224 222 
3 225 227 226 
3 225 226 224 
3 227 229 228 
3 227 228 226 
3 229 231 230 
3 229 230 228 
3 231 233 232 
3 231 232 230 
3 233 235 234 
3 233 234 232 
3 235 237 236 
3 235 236 234 
3 237 239 238 
3 237 238 236 
3 239 241 240 
3 239 240 238 
3 241 243 242 
3 241 242 240 
3 243 245 244 
3 243 244 242 
3 245 247 246 
3 245 246 244 
3 247 249 248 
3 247 248 246 
3 249 251 250 
3 249 250 248 
3 251 253 252 
3 251 252 250 
3 253 255 254 
3 253 254 252 
3 255 257 256 
3 255 256 254 
3 257 259 258 
3 257 258 256 
3 259 261 260 
3 259 260 258 
3 261 263 262 
3 261 262 260 
3 263 265 264 
3 263 264 262 
3 265 267 266 
3 265 266 264 
3 267 269 268 
3 267 268 266 
3 269 271 270 
3 269 270 268 
3 271 273 272 
3 271 272 270 
3 273 275 274 
3 273 274 272 
3 275 277 276 
3 275 276 274 
3 277 279 278 
3 277 278 276 
3 279 281 280 
3 279 280 278 
3 281 283 282 
3 281 282 280 
3 283 285 284 
3 283 284 282 
3 285 287 286 
3 285 286 284 
3 287 289 288 
3 287 288 286 
3 289 291 290 
3 289 290 288 
3 291 293 292 
3 291 292 290 
3 293 295 294 
3 293 294 292 
3 295 297 296 
3 295 296 294 
3 297 299 298 
3 297 298 296 
3 299 301 300 
3 299 300 298 
3 301 201 200 
3 301 200 300 
3 303 305 304 
3 303 304 302 
3 305 307 306 
3 305 306 304 
3 307 309 308 
3 307 308 306 
3 309 311 310 
3 309 310 308 
3 311 313 312 
3 311 312 310 
3 313 315 314 
3 313 314 312 
3 315 317 316 
3 315 316 314 
3 317 319 318 
3 317 318 316 
3 319 321 320 
3 319 320 318 
3 321 323 322 
3 321 322 320 
3 323 325 324 
3 323 324 322 
3 325 327 326 
3 325 326 324 
3 327 329 328 
3 327 328 326 
3 329 331 330 
3 329 330 328 
3 331 333 332 
3 331 332 330 
3 333 335 334 
3 333 334 332 
3 335 337 336 
3 335 336 334 
3 337 339 338 
3 337 338 336 
3 339 341 340 
3 339 340 338 
3 341 343 342 
3 341 342 340 
3 343 345 344 
3 343 344 342 
3 345 347 346 
3 345 346 344 
3 347 349 348 
3 347 348 346 
3 349 351 350 
3 349 350 348 
3 351 353 352 
3 351 352 350 
3 353 355 354 
3 353 354 352 
3 355 357 356 
3 355 356 354 
3 357 359 358 
3 357 358 356 
3 359 361 360 
3 359 360 358 
3 361 363 362 
3 361 362 360 
3 363 365 364 
3 363 364 362 
3 365 367 366 
3 365 366 364 
3 367 369 368 
3 367 368 366 
3 369 371 370 
3 369 370 368 
3 371 373 372 
3 371 372 370 
3 373 375 374 
3 373 374 372 
3 375 377 376 
3 375 376 374 
3 377 379 378 
3 377 378 376 
3 379 381 380 
3 379 380 378 
3 381 383 382 
3 381 382 380 
3 383 385 384 
3 383 384 382 
3 385 387 386 
3 385 386 384 
3 387 389 388 
3 387 388 386 
3 389 391 390 
3 389 390 388 
3 391 393 392 
3 391 392 390 
3 393 395 394 
3 393 394 392 
3 395 397 396 
3 395 396 394 
3 397 399 398 
3 397 398 396 
3 399 303 302 
3 399 302 398 
