ply
format ascii 1.0
comment VCGLIB generated
element vertex 52
property float x
property float y
property float z
property float nx
property float ny
property float nz
element face 48
property list uchar int vertex_indices
end_header
0.745 -0.006 0.0999998 1.05306e-008 -2.63265e-009 0.060228 
0.521 0.552 0.1 3.00272e-008 -7.50682e-009 0.171736 
0.295 -0.006 0.1 1.02166e-008 -2.55414e-009 0.058432 
0.276 -0.006 0.1 2.05006e-008 -5.12516e-009 0.11725 
1.74846e-008 0.682 0.1 1.17888e-008 -2.9472e-009 0.067424 
0.098 0.682 0.1 1.97764e-008 -4.94411e-009 0.113108 
0.286 0.212 0.1 2.83942e-008 -7.09856e-009 0.162396 
0.475 0.682 0.1 7.6425e-009 -1.91062e-009 0.04371 
0.568 0.682 0.0999999 1.8371e-008 -4.59276e-009 0.10507 
0.758 0.212 0.0999998 3.79628e-008 -9.4907e-009 0.217122 
0.944 0.682 0.0999998 7.9712e-009 -1.9928e-009 0.04559 
1.041 0.682 0.0999998 1.92512e-008 -4.8128e-009 0.110104 
0.764 -0.006 0.0999998 1.20042e-008 -3.00105e-009 0.068656 
0.745 -0.006 -0.1 -1.05306e-008 2.63265e-009 -0.060228 
0.521 0.552 -0.1 -3.00272e-008 7.50682e-009 -0.171736 
0.295 -0.006 -0.1 -1.02166e-008 2.55414e-009 -0.058432 
0.276 -0.006 -0.1 -2.05006e-008 5.12516e-009 -0.11725 
-1.74846e-008 0.682 -0.1 -1.17888e-008 2.9472e-009 -0.067424 
0.098 0.682 -0.1 -1.97764e-008 4.94411e-009 -0.113108 
0.286 0.212 -0.1 -2.83942e-008 7.09856e-009 -0.162396 
0.475 0.682 -0.1 -7.6425e-009 1.91063e-009 -0.04371 
0.568 0.682 -0.1 -1.8371e-008 4.59276e-009 -0.10507 
0.758 0.212 -0.1 -3.79628e-008 9.4907e-009 -0.217122 
0.944 0.682 -0.1 -7.9712e-009 1.9928e-009 -0.04559 
1.041 0.682 -0.1 -1.92512e-008 4.8128e-009 -0.110104 
0.764 -0.006 -0.1 -1.20042e-008 3.00105e-009 -0.068656 
0.745 -0.006 -0.1 -0.928017 -2.37254 5.85527e-008 
0.745 -0.006 0.0999998 -1.85603 -1.74507 2.48239e-007 
0.521 0.552 -0.1 -0.92917 -1.12047 1.13484e-007 
0.521 0.552 0.1 0.925711 -1.12333 -2.10959e-007 
0.295 -0.006 -0.1 1.85373 -1.75079 -4.00646e-007 
0.295 -0.006 0.1 0.926864 -2.3754 -2.6589e-007 
0.276 -0.006 -0.1 -0.928104 -2.37232 5.85774e-008 
0.276 -0.006 0.1 -1.85621 -1.74464 2.48289e-007 
-1.74846e-008 0.682 -0.1 -1.85621 0.255358 3.35712e-007 
1.74846e-008 0.682 0.1 -0.928104 1.62768 2.33423e-007 
0.098 0.682 -0.1 0.928477 2.37139 -5.86832e-008 
0.098 0.682 0.1 1.85695 1.74278 -2.485e-007 
0.286 0.212 -0.1 0.929159 1.11587 -1.13683e-007 
0.286 0.212 0.1 -0.927112 1.11757 2.10952e-007 
0.475 0.682 -0.1 -1.85559 1.74618 4.0077e-007 
0.475 0.682 0.1 -0.927794 2.37309 2.65951e-007 
0.568 0.682 -0.1 0.92711 2.37479 -5.82957e-008 
0.568 0.682 0.0999999 1.85422 1.74958 -2.47726e-007 
0.758 0.212 -0.1 0.924385 1.11756 -1.12775e-007 
0.758 0.212 0.0999998 -0.93256 1.11074 2.11606e-007 
0.944 0.682 -0.1 -1.85967 1.73595 4.01036e-007 
0.944 0.682 0.0999998 -0.929835 2.36798 2.66085e-007 
1.041 0.682 -0.1 0.927637 1.62652 -9.10959e-008 
1.041 0.682 0.0999998 1.85527 0.253036 -3.13326e-007 
0.764 -0.006 -0.1 1.85527 -1.74696 -4.00748e-007 
0.764 -0.006 0.0999998 0.927637 -2.37348 -2.65942e-007 
3 3 5 4 
3 3 6 5 
3 6 8 7 
3 6 1 8 
3 1 9 8 
3 9 11 10 
3 9 12 11 
3 6 2 1 
3 0 9 1 
3 3 2 6 
3 0 12 9 
3 18 16 17 
3 19 16 18 
3 21 19 20 
3 14 19 21 
3 22 14 21 
3 24 22 23 
3 25 22 24 
3 15 19 14 
3 22 13 14 
3 15 16 19 
3 25 13 22 
3 27 29 28 
3 27 28 26 
3 29 31 30 
3 29 30 28 
3 31 33 32 
3 31 32 30 
3 33 35 34 
3 33 34 32 
3 35 37 36 
3 35 36 34 
3 37 39 38 
3 37 38 36 
3 39 41 40 
3 39 40 38 
3 41 43 42 
3 41 42 40 
3 43 45 44 
3 43 44 42 
3 45 47 46 
3 45 46 44 
3 47 49 48 
3 47 48 46 
3 49 51 50 
3 49 50 48 
3 51 27 26 
3 51 26 50 
