ply
format ascii 1.0
comment VCGLIB generated
element vertex 488
property float x
property float y
property float z
property float nx
property float ny
property float nz
element face 480
property list uchar int vertex_indices
end_header
0.144084 0.689979 0.1 3.15864e-011 -7.8966e-012 0.000180653 
0.152343 0.686912 0.1 9.3946e-011 -2.34865e-011 0.000537309 
0.159781 0.681797 0.1 1.85146e-010 -4.62865e-011 0.00105891 
0.166407 0.67463 0.1 3.00076e-010 -7.50188e-011 0.00171623 
0.172228 0.665407 0.1 4.33626e-010 -1.08407e-010 0.00248005 
0.17725 0.654125 0.1 5.80725e-010 -1.45181e-010 0.00332136 
0.18148 0.640781 0.1 7.36428e-010 -1.84107e-010 0.00421188 
0.184926 0.62537 0.1 8.95684e-010 -2.23921e-010 0.00512271 
0.187594 0.607891 0.1 1.05366e-009 -2.63416e-010 0.00602625 
0.189491 0.588338 0.1 1.20544e-009 -3.01359e-010 0.00689429 
0.190624 0.566709 0.1 1.34617e-009 -3.36542e-010 0.00769917 
0.191 0.543 0.1 8.88404e-010 -2.22101e-010 0.00508108 
0.190958 0.532167 0.1 4.17366e-010 -1.04341e-010 0.00238705 
0.190833 0.521671 0.1 6.08584e-010 -1.52146e-010 0.00348069 
0.190625 0.511516 0.1 5.8666e-010 -1.46665e-010 0.0033553 
0.190333 0.501704 0.1 5.63858e-010 -1.40964e-010 0.00322489 
0.189958 0.492239 0.1 5.402e-010 -1.3505e-010 0.00308958 
0.1895 0.483125 0.1 5.15802e-010 -1.2895e-010 0.00295004 
0.188958 0.474365 0.1 4.90773e-010 -1.22693e-010 0.00280689 
0.188333 0.465963 0.1 4.65198e-010 -1.16299e-010 0.00266062 
0.187625 0.457922 0.1 4.39216e-010 -1.09804e-010 0.00251202 
0.186833 0.450245 0.1 4.12888e-010 -1.03222e-010 0.00236144 
0.185958 0.442937 0.1 3.86302e-010 -9.65753e-011 0.00220939 
0.185 0.436 0.1 4.75592e-009 -1.18898e-009 0.0272007 
0.16 0.264 0.1 1.68145e-009 -4.20362e-010 0.00961677 
0.158496 0.253517 0.1 2.36546e-010 -5.91366e-011 0.00135289 
0.156968 0.244056 0.1 1.98023e-010 -4.95059e-011 0.00113256 
0.155391 0.235594 0.1 1.62737e-010 -4.06842e-011 0.000930747 
0.153741 0.228111 0.1 1.30566e-010 -3.26414e-011 0.000746748 
0.151994 0.221587 0.1 1.01521e-010 -2.53804e-011 0.000580635 
0.150125 0.216 0.1 7.56611e-011 -1.89153e-011 0.000432731 
0.148111 0.21133 0.1 5.31335e-011 -1.32834e-011 0.000303888 
0.145926 0.207556 0.1 3.4167e-011 -8.54175e-012 0.000195413 
0.143547 0.204656 0.1 1.90339e-011 -4.75847e-012 0.000108861 
0.140949 0.202611 0.1 8.09284e-012 -2.02321e-012 4.62857e-005 
0.138108 0.201399 0.1 1.75089e-012 -4.37724e-013 1.00139e-005 
0.135 0.201 0.1 4.33643e-013 -1.08411e-013 2.48015e-006 
0.131892 0.201399 0.1 4.27223e-012 -1.06806e-012 2.44343e-005 
0.129051 0.202611 0.1 1.28877e-011 -3.22193e-012 7.37092e-005 
0.126453 0.204656 0.1 2.58597e-011 -6.46493e-012 0.0001479 
0.124074 0.207556 0.1 4.28026e-011 -1.07006e-011 0.000244802 
0.121889 0.21133 0.1 6.34142e-011 -1.58535e-011 0.000362687 
0.119875 0.216 0.1 8.74516e-011 -2.18629e-011 0.000500165 
0.118006 0.221587 0.1 1.14727e-010 -2.86817e-011 0.000656161 
0.116259 0.228111 0.1 1.45154e-010 -3.62884e-011 0.000830182 
0.114609 0.235594 0.1 1.78702e-010 -4.46755e-011 0.00102206 
0.113032 0.244056 0.1 2.1542e-010 -5.38549e-011 0.00123206 
0.111504 0.253517 0.1 2.55512e-010 -6.3878e-011 0.00146136 
0.11 0.264 0.1 4.60266e-009 -1.15067e-009 0.0263241 
0.085 0.436 0.1 3.12864e-009 -7.82158e-010 0.0178937 
0.084042 0.442937 0.1 3.7513e-010 -9.37825e-011 0.00214549 
0.083167 0.450245 0.1 4.01838e-010 -1.00459e-010 0.00229824 
0.082375 0.457922 0.1 4.28401e-010 -1.071e-010 0.00245017 
0.081667 0.465963 0.1 4.54637e-010 -1.13659e-010 0.00260022 
0.081042 0.474365 0.1 4.80522e-010 -1.2013e-010 0.00274826 
0.0805 0.483125 0.1 5.05935e-010 -1.26484e-010 0.00289361 
0.080042 0.492239 0.1 5.30752e-010 -1.32688e-010 0.00303555 
0.079667 0.501704 0.1 5.549e-010 -1.38725e-010 0.00317366 
0.079375 0.511516 0.1 5.78247e-010 -1.44562e-010 0.00330719 
0.079167 0.521671 0.1 6.00729e-010 -1.50182e-010 0.00343577 
0.079042 0.532167 0.1 8.34432e-010 -2.08608e-010 0.0047724 
0.079 0.543 0.1 1.13759e-009 -2.84398e-010 0.00650628 
0.079376 0.566709 0.1 1.29402e-009 -3.23505e-010 0.00740094 
0.080509 0.588338 0.1 1.14434e-009 -2.86084e-010 0.00654484 
0.082406 0.607891 0.1 9.8624e-010 -2.4656e-010 0.00564064 
0.085074 0.62537 0.1 8.247e-010 -2.06175e-010 0.00471673 
0.08852 0.640781 0.1 6.64523e-010 -1.66131e-010 0.00380063 
0.09275 0.654125 0.1 5.10708e-010 -1.27677e-010 0.00292091 
0.097772 0.665407 0.1 3.68234e-010 -9.20585e-011 0.00210605 
0.103593 0.67463 0.1 2.42115e-010 -6.05287e-011 0.00138474 
0.110219 0.681797 0.1 1.37453e-010 -3.43632e-011 0.000786139 
0.117657 0.686912 0.1 5.9364e-011 -1.4841e-011 0.000339522 
0.125916 0.689979 0.1 1.29859e-011 -3.24647e-012 7.42705e-005 
0.135 0.691 0.1 3.2432e-012 -8.108e-013 1.85489e-005 
0.19545 0.042887 0.1 4.8819e-010 -1.22048e-010 0.00279212 
0.193847 0.035097 0.1 4.50048e-010 -1.12512e-010 0.00257397 
0.191266 0.027703 0.1 4.02116e-010 -1.00529e-010 0.00229983 
0.187778 0.020778 0.1 3.46922e-010 -8.67303e-011 0.00198416 
0.183457 0.014394 0.1 2.87168e-010 -7.17921e-011 0.00164241 
0.178375 0.008625 0.1 2.25846e-010 -5.64614e-011 0.00129169 
0.172606 0.003543 0.1 1.66032e-010 -4.15079e-011 0.000949591 
0.166222 -0.000778004 0.1 1.10944e-010 -2.77361e-011 0.000634527 
0.159297 -0.004266 0.1 6.3796e-011 -1.5949e-011 0.00036487 
0.151903 -0.006847 0.1 2.78156e-011 -6.9539e-012 0.000159087 
0.144113 -0.00845 0.1 6.10816e-012 -1.52704e-012 3.49346e-005 
0.136 -0.009 0.1 1.56037e-012 -3.90094e-013 8.9243e-006 
0.127887 -0.00845 0.1 1.50227e-011 -3.75566e-012 8.59196e-005 
0.120097 -0.006847 0.1 4.42945e-011 -1.10736e-011 0.000253335 
0.112703 -0.004266 0.1 8.63052e-011 -2.15763e-011 0.000493608 
0.105778 -0.000778004 0.1 1.37841e-010 -3.44602e-011 0.000788356 
0.099394 0.003543 0.1 1.95672e-010 -4.89179e-011 0.00111911 
0.093625 0.008625 0.1 2.5653e-010 -6.41325e-011 0.00146718 
0.088543 0.014394 0.1 3.17273e-010 -7.93183e-011 0.00181459 
0.084222 0.020778 0.1 3.7481e-010 -9.37024e-011 0.00214366 
0.080734 0.027703 0.1 4.263e-010 -1.06575e-010 0.00243815 
0.078153 0.035097 0.1 4.69098e-010 -1.17275e-010 0.00268293 
0.07655 0.042887 0.1 5.00832e-010 -1.25208e-010 0.00286443 
0.076 0.051 0.1 3.40446e-010 -8.51113e-011 0.00194712 
0.07655 0.059113 0.1 6.58413e-010 -1.64603e-010 0.00376568 
0.078153 0.066903 0.1 4.50048e-010 -1.12512e-010 0.00257397 
0.080734 0.074297 0.1 4.02116e-010 -1.00529e-010 0.00229983 
0.084222 0.081222 0.1 3.46922e-010 -8.67303e-011 0.00198416 
0.088543 0.087606 0.1 2.87168e-010 -7.17921e-011 0.00164241 
0.093625 0.093375 0.1 2.25846e-010 -5.64614e-011 0.00129169 
0.099394 0.098457 0.1 1.66032e-010 -4.1508e-011 0.000949592 
0.105778 0.102778 0.1 1.10944e-010 -2.7736e-011 0.000634527 
0.112703 0.106266 0.1 6.3796e-011 -1.5949e-011 0.00036487 
0.120097 0.108847 0.1 2.78156e-011 -6.9539e-012 0.000159087 
0.127887 0.11045 0.1 6.10816e-012 -1.52704e-012 3.49346e-005 
0.136 0.111 0.1 1.56038e-012 -3.90095e-013 8.92433e-006 
0.144113 0.11045 0.1 1.50227e-011 -3.75567e-012 8.59196e-005 
0.151903 0.108847 0.1 4.42945e-011 -1.10736e-011 0.000253335 
0.159297 0.106266 0.1 8.6305e-011 -2.15763e-011 0.000493607 
0.166222 0.102778 0.1 1.37841e-010 -3.44601e-011 0.000788356 
0.172606 0.098457 0.1 1.95672e-010 -4.8918e-011 0.00111911 
0.178375 0.093375 0.1 2.5653e-010 -6.41325e-011 0.00146718 
0.183457 0.087606 0.1 3.17273e-010 -7.93183e-011 0.00181459 
0.187778 0.081222 0.1 3.7481e-010 -9.37023e-011 0.00214366 
0.191266 0.074297 0.1 4.263e-010 -1.06575e-010 0.00243815 
0.193847 0.066903 0.1 4.69098e-010 -1.17275e-010 0.00268293 
0.19545 0.059113 0.1 3.3061e-010 -8.26524e-011 0.00189087 
0.196 0.051 0.1 6.7777e-010 -1.69442e-010 0.00387639 
0.144084 0.689979 -0.1 -3.15864e-011 7.8966e-012 -0.000180653 
0.152343 0.686912 -0.1 -9.3946e-011 2.34865e-011 -0.000537309 
0.159781 0.681797 -0.1 -1.85146e-010 4.62865e-011 -0.00105891 
0.166407 0.67463 -0.1 -3.00076e-010 7.50188e-011 -0.00171623 
0.172228 0.665407 -0.1 -4.33626e-010 1.08407e-010 -0.00248005 
0.17725 0.654125 -0.1 -5.80725e-010 1.45181e-010 -0.00332136 
0.18148 0.640781 -0.1 -7.36428e-010 1.84107e-010 -0.00421188 
0.184926 0.62537 -0.1 -8.95684e-010 2.23921e-010 -0.00512271 
0.187594 0.607891 -0.1 -1.05366e-009 2.63416e-010 -0.00602625 
0.189491 0.588338 -0.1 -1.20544e-009 3.01359e-010 -0.00689429 
0.190624 0.566709 -0.1 -1.34617e-009 3.36542e-010 -0.00769917 
0.191 0.543 -0.1 -8.88404e-010 2.22101e-010 -0.00508108 
0.190958 0.532167 -0.1 -4.17366e-010 1.04341e-010 -0.00238705 
0.190833 0.521671 -0.1 -6.08584e-010 1.52146e-010 -0.00348069 
0.190625 0.511516 -0.1 -5.8666e-010 1.46665e-010 -0.0033553 
0.190333 0.501704 -0.1 -5.63858e-010 1.40964e-010 -0.00322489 
0.189958 0.492239 -0.1 -5.40199e-010 1.3505e-010 -0.00308958 
0.1895 0.483125 -0.1 -5.15802e-010 1.2895e-010 -0.00295004 
0.188958 0.474365 -0.1 -4.90773e-010 1.22693e-010 -0.00280689 
0.188333 0.465963 -0.1 -4.65198e-010 1.16299e-010 -0.00266062 
0.187625 0.457922 -0.1 -4.39216e-010 1.09804e-010 -0.00251202 
0.186833 0.450245 -0.1 -4.12888e-010 1.03222e-010 -0.00236144 
0.185958 0.442937 -0.1 -3.86302e-010 9.65753e-011 -0.00220939 
0.185 0.436 -0.1 -4.75592e-009 1.18898e-009 -0.0272007 
0.16 0.264 -0.1 -1.68145e-009 4.20362e-010 -0.00961677 
0.158496 0.253517 -0.1 -2.36546e-010 5.91366e-011 -0.00135289 
0.156968 0.244056 -0.1 -1.98023e-010 4.95059e-011 -0.00113256 
0.155391 0.235594 -0.1 -1.62737e-010 4.06842e-011 -0.000930747 
0.153741 0.228111 -0.1 -1.30566e-010 3.26414e-011 -0.000746748 
0.151994 0.221587 -0.1 -1.01521e-010 2.53804e-011 -0.000580635 
0.150125 0.216 -0.1 -7.56611e-011 1.89153e-011 -0.000432731 
0.148111 0.21133 -0.1 -5.31335e-011 1.32834e-011 -0.000303888 
0.145926 0.207556 -0.1 -3.4167e-011 8.54175e-012 -0.000195413 
0.143547 0.204656 -0.1 -1.90339e-011 4.75847e-012 -0.000108861 
0.140949 0.202611 -0.1 -8.09284e-012 2.02321e-012 -4.62857e-005 
0.138108 0.201399 -0.1 -1.75089e-012 4.37724e-013 -1.00139e-005 
0.135 0.201 -0.1 -4.33643e-013 1.08411e-013 -2.48015e-006 
0.131892 0.201399 -0.1 -4.27223e-012 1.06806e-012 -2.44343e-005 
0.129051 0.202611 -0.1 -1.28877e-011 3.22193e-012 -7.37092e-005 
0.126453 0.204656 -0.1 -2.58597e-011 6.46493e-012 -0.0001479 
0.124074 0.207556 -0.1 -4.28026e-011 1.07006e-011 -0.000244802 
0.121889 0.21133 -0.1 -6.34142e-011 1.58535e-011 -0.000362687 
0.119875 0.216 -0.1 -8.74516e-011 2.18629e-011 -0.000500165 
0.118006 0.221587 -0.1 -1.14727e-010 2.86817e-011 -0.000656161 
0.116259 0.228111 -0.1 -1.45154e-010 3.62884e-011 -0.000830182 
0.114609 0.235594 -0.1 -1.78702e-010 4.46755e-011 -0.00102206 
0.113032 0.244056 -0.1 -2.1542e-010 5.38549e-011 -0.00123206 
0.111504 0.253517 -0.1 -2.55512e-010 6.3878e-011 -0.00146136 
0.11 0.264 -0.1 -4.60266e-009 1.15067e-009 -0.0263241 
0.085 0.436 -0.1 -3.12864e-009 7.82158e-010 -0.0178937 
0.084042 0.442937 -0.1 -3.7513e-010 9.37825e-011 -0.00214549 
0.083167 0.450245 -0.1 -4.01838e-010 1.00459e-010 -0.00229824 
0.082375 0.457922 -0.1 -4.28401e-010 1.071e-010 -0.00245017 
0.081667 0.465963 -0.1 -4.54637e-010 1.13659e-010 -0.00260022 
0.081042 0.474365 -0.1 -4.80522e-010 1.2013e-010 -0.00274826 
0.0805 0.483125 -0.1 -5.05935e-010 1.26484e-010 -0.00289361 
0.080042 0.492239 -0.1 -5.30752e-010 1.32688e-010 -0.00303555 
0.079667 0.501704 -0.1 -5.549e-010 1.38725e-010 -0.00317366 
0.079375 0.511516 -0.1 -5.78247e-010 1.44562e-010 -0.00330719 
0.079167 0.521671 -0.1 -6.00729e-010 1.50182e-010 -0.00343577 
0.079042 0.532167 -0.1 -8.34432e-010 2.08608e-010 -0.0047724 
0.079 0.543 -0.1 -1.13759e-009 2.84398e-010 -0.00650628 
0.079376 0.566709 -0.1 -1.29402e-009 3.23505e-010 -0.00740094 
0.080509 0.588338 -0.1 -1.14434e-009 2.86084e-010 -0.00654484 
0.082406 0.607891 -0.1 -9.8624e-010 2.4656e-010 -0.00564064 
0.085074 0.62537 -0.1 -8.247e-010 2.06175e-010 -0.00471673 
0.08852 0.640781 -0.1 -6.64523e-010 1.66131e-010 -0.00380063 
0.09275 0.654125 -0.1 -5.10708e-010 1.27677e-010 -0.00292091 
0.097772 0.665407 -0.1 -3.68234e-010 9.20585e-011 -0.00210605 
0.103593 0.67463 -0.1 -2.42115e-010 6.05287e-011 -0.00138474 
0.110219 0.681797 -0.1 -1.37453e-010 3.43632e-011 -0.000786139 
0.117657 0.686912 -0.1 -5.9364e-011 1.4841e-011 -0.000339522 
0.125916 0.689979 -0.1 -1.29859e-011 3.24647e-012 -7.42705e-005 
0.135 0.691 -0.1 -3.2432e-012 8.108e-013 -1.85489e-005 
0.19545 0.042887 -0.1 -4.8819e-010 1.22048e-010 -0.00279212 
0.193847 0.035097 -0.1 -4.50048e-010 1.12512e-010 -0.00257397 
0.191266 0.027703 -0.1 -4.02116e-010 1.00529e-010 -0.00229983 
0.187778 0.020778 -0.1 -3.46922e-010 8.67303e-011 -0.00198416 
0.183457 0.014394 -0.1 -2.87168e-010 7.17921e-011 -0.00164241 
0.178375 0.008625 -0.1 -2.25846e-010 5.64614e-011 -0.00129169 
0.172606 0.003543 -0.1 -1.66032e-010 4.15079e-011 -0.000949591 
0.166222 -0.000777996 -0.1 -1.10944e-010 2.77361e-011 -0.000634527 
0.159297 -0.004266 -0.1 -6.3796e-011 1.5949e-011 -0.00036487 
0.151903 -0.006847 -0.1 -2.78156e-011 6.9539e-012 -0.000159087 
0.144113 -0.00844999 -0.1 -6.10816e-012 1.52704e-012 -3.49346e-005 
0.136 -0.00899999 -0.1 -1.56037e-012 3.90094e-013 -8.9243e-006 
0.127887 -0.00844999 -0.1 -1.50227e-011 3.75566e-012 -8.59196e-005 
0.120097 -0.006847 -0.1 -4.42945e-011 1.10736e-011 -0.000253335 
0.112703 -0.004266 -0.1 -8.63052e-011 2.15763e-011 -0.000493608 
0.105778 -0.000777996 -0.1 -1.37841e-010 3.44602e-011 -0.000788356 
0.099394 0.003543 -0.1 -1.95672e-010 4.89179e-011 -0.00111911 
0.093625 0.008625 -0.1 -2.5653e-010 6.41325e-011 -0.00146718 
0.088543 0.014394 -0.1 -3.17273e-010 7.93183e-011 -0.00181459 
0.084222 0.020778 -0.1 -3.7481e-010 9.37024e-011 -0.00214366 
0.080734 0.027703 -0.1 -4.263e-010 1.06575e-010 -0.00243815 
0.078153 0.035097 -0.1 -4.69098e-010 1.17275e-010 -0.00268293 
0.07655 0.042887 -0.1 -5.00832e-010 1.25208e-010 -0.00286443 
0.076 0.051 -0.1 -3.40446e-010 8.51113e-011 -0.00194712 
0.07655 0.059113 -0.1 -6.58413e-010 1.64603e-010 -0.00376568 
0.078153 0.066903 -0.1 -4.50048e-010 1.12512e-010 -0.00257397 
0.080734 0.074297 -0.1 -4.02116e-010 1.00529e-010 -0.00229983 
0.084222 0.081222 -0.1 -3.46922e-010 8.67303e-011 -0.00198416 
0.088543 0.087606 -0.1 -2.87168e-010 7.17921e-011 -0.00164241 
0.093625 0.093375 -0.1 -2.25846e-010 5.64614e-011 -0.00129169 
0.099394 0.098457 -0.1 -1.66032e-010 4.1508e-011 -0.000949592 
0.105778 0.102778 -0.1 -1.10944e-010 2.77361e-011 -0.000634527 
0.112703 0.106266 -0.1 -6.3796e-011 1.5949e-011 -0.00036487 
0.120097 0.108847 -0.1 -2.78156e-011 6.9539e-012 -0.000159087 
0.127887 0.11045 -0.1 -6.10816e-012 1.52704e-012 -3.49346e-005 
0.136 0.111 -0.1 -1.56038e-012 3.90095e-013 -8.92433e-006 
0.144113 0.11045 -0.1 -1.50227e-011 3.75567e-012 -8.59196e-005 
0.151903 0.108847 -0.1 -4.42945e-011 1.10736e-011 -0.000253335 
0.159297 0.106266 -0.1 -8.6305e-011 2.15763e-011 -0.000493607 
0.166222 0.102778 -0.1 -1.37841e-010 3.44601e-011 -0.000788356 
0.172606 0.098457 -0.1 -1.95672e-010 4.8918e-011 -0.00111911 
0.178375 0.093375 -0.1 -2.5653e-010 6.41325e-011 -0.00146718 
0.183457 0.087606 -0.1 -3.17273e-010 7.93183e-011 -0.00181459 
0.187778 0.081222 -0.1 -3.7481e-010 9.37024e-011 -0.00214366 
0.191266 0.074297 -0.1 -4.263e-010 1.06575e-010 -0.00243815 
0.193847 0.066903 -0.1 -4.69098e-010 1.17275e-010 -0.00268293 
0.19545 0.059113 -0.1 -3.3061e-010 8.26524e-011 -0.00189087 
0.196 0.051 -0.1 -6.7777e-010 1.69442e-010 -0.00387639 
0.144084 0.689979 -0.1 0.571503 2.92493 2.79282e-008 
0.144084 0.689979 0.1 0.80794 2.86864 -1.58725e-008 
0.152343 0.686912 -0.1 1.26288 2.69887 -1.02838e-007 
0.152343 0.686912 0.1 1.48139 2.58539 -1.46003e-007 
0.159781 0.681797 -0.1 1.86754 2.32679 -2.24824e-007 
0.159781 0.681797 0.1 2.03519 2.18167 -2.6048e-007 
0.166407 0.67463 -0.1 2.31421 1.89142 -3.21953e-007 
0.166407 0.67463 0.1 2.42559 1.7463 -3.47771e-007 
0.172228 0.665407 -0.1 2.60489 1.47412 -3.91018e-007 
0.172228 0.665407 0.1 2.67281 1.34706 -4.08447e-007 
0.17725 0.654125 -0.1 2.78041 1.11551 -4.37382e-007 
0.17725 0.654125 0.1 2.82008 1.01102 -4.48885e-007 
0.18148 0.640781 -0.1 2.8824 0.822574 -4.68019e-007 
0.18148 0.640781 0.1 2.90505 0.738614 -4.7565e-007 
0.184926 0.62537 -0.1 2.94035 0.587328 -4.88435e-007 
0.184926 0.62537 0.1 2.953 0.520002 -4.93588e-007 
0.187594 0.607891 -0.1 2.97243 0.39835 -5.02303e-007 
0.187594 0.607891 0.1 2.9792 0.344023 -5.05863e-007 
0.189491 0.588338 -0.1 2.98928 0.245442 -5.11934e-007 
0.189491 0.588338 0.1 2.99259 0.201188 -5.14447e-007 
0.190624 0.566709 -0.1 2.99714 0.12048 -5.1877e-007 
0.190624 0.566709 0.1 2.99838 0.0840253 -5.20581e-007 
0.191 0.543 -0.1 2.99974 0.0278364 -5.23275e-007 
0.191 0.543 0.1 2.99986 0.00810178 -5.24158e-007 
0.190958 0.532167 -0.1 2.99991 -0.0196628 -5.2538e-007 
0.190958 0.532167 0.1 2.99985 -0.0276928 -5.25721e-007 
0.190833 0.521671 -0.1 2.99965 -0.0442938 -5.26412e-007 
0.190833 0.521671 0.1 2.99951 -0.052865 -5.26761e-007 
0.190625 0.511516 -0.1 2.99914 -0.070704 -5.27477e-007 
0.190625 0.511516 0.1 2.99891 -0.079972 -5.27841e-007 
0.190333 0.501704 -0.1 2.99833 -0.0990807 -5.28575e-007 
0.190333 0.501704 0.1 2.99799 -0.108921 -5.28947e-007 
0.189958 0.492239 -0.1 2.99717 -0.129364 -5.29697e-007 
0.189958 0.492239 0.1 2.9967 -0.139966 -5.30078e-007 
0.1895 0.483125 -0.1 2.99557 -0.162133 -5.30849e-007 
0.1895 0.483125 0.1 2.99492 -0.173697 -5.31241e-007 
0.188958 0.474365 -0.1 2.99343 -0.19769 -5.32029e-007 
0.188958 0.474365 0.1 2.99258 -0.210118 -5.32424e-007 
0.188333 0.465963 -0.1 2.99064 -0.236074 -5.33219e-007 
0.188333 0.465963 0.1 2.98954 -0.249601 -5.33618e-007 
0.187625 0.457922 -0.1 2.98701 -0.278041 -5.34419e-007 
0.187625 0.457922 0.1 2.98559 -0.292953 -5.34823e-007 
0.186833 0.450245 -0.1 2.98235 -0.324126 -5.35618e-007 
0.186833 0.450245 0.1 2.98054 -0.340386 -5.36013e-007 
0.185958 0.442937 -0.1 2.97641 -0.374565 -5.36785e-007 
0.185958 0.442937 0.1 2.97411 -0.392484 -5.37166e-007 
0.185 0.436 -0.1 2.9708 -0.41744 -5.37678e-007 
0.185 0.436 0.1 2.9698 -0.424476 -5.37811e-007 
0.16 0.264 -0.1 2.96907 -0.42969 -5.3791e-007 
0.16 0.264 0.1 2.96933 -0.427868 -5.37877e-007 
0.158496 0.253517 -0.1 2.96694 -0.443471 -5.38141e-007 
0.158496 0.253517 0.1 2.96428 -0.460895 -5.38438e-007 
0.156968 0.244056 -0.1 2.95749 -0.502089 -5.39051e-007 
0.156968 0.244056 0.1 2.95336 -0.525858 -5.39367e-007 
0.155391 0.235594 -0.1 2.94269 -0.581744 -5.39945e-007 
0.155391 0.235594 0.1 2.93616 -0.613861 -5.40207e-007 
0.153741 0.228111 -0.1 2.91905 -0.689319 -5.40514e-007 
0.153741 0.228111 0.1 2.90848 -0.732659 -5.4056e-007 
0.151994 0.221587 -0.1 2.88028 -0.834581 -5.40084e-007 
0.151994 0.221587 0.1 2.86265 -0.893162 -5.39563e-007 
0.150125 0.216 -0.1 2.81493 -1.0305 -5.37223e-007 
0.150125 0.216 0.1 2.78484 -1.10926 -5.35404e-007 
0.148111 0.21133 -0.1 2.70192 -1.29306 -5.28939e-007 
0.148111 0.21133 0.1 2.64909 -1.3981 -5.24295e-007 
0.145926 0.207556 -0.1 2.50398 -1.63633 -5.09336e-007 
0.145926 0.207556 0.1 2.41169 -1.76953 -4.99022e-007 
0.143547 0.204656 -0.1 2.16479 -2.05425 -4.68298e-007 
0.143547 0.204656 0.1 2.01017 -2.20578 -4.47887e-007 
0.140949 0.202611 -0.1 1.62943 -2.49134 -3.93798e-007 
0.140949 0.202611 0.1 1.40331 -2.62536 -3.6012e-007 
0.138108 0.201399 -0.1 0.912123 -2.83145 -2.83247e-007 
0.138108 0.201399 0.1 0.647059 -2.90352 -2.40052e-007 
0.135 0.201 -0.1 0.127332 -2.97558 -1.5233e-007 
0.135 0.201 0.1 -0.12733 -2.97558 -1.07803e-007 
0.131892 0.201399 -0.1 -0.647057 -2.90352 -1.37817e-008 
0.131892 0.201399 0.1 -0.912122 -2.83145 3.57137e-008 
0.129051 0.202611 -0.1 -1.40331 -2.62536 1.30604e-007 
0.129051 0.202611 0.1 -1.62943 -2.49134 1.75998e-007 
0.126453 0.204656 -0.1 -2.01017 -2.20578 2.55051e-007 
0.126453 0.204656 0.1 -2.16479 -2.05425 2.88709e-007 
0.124074 0.207556 -0.1 -2.41169 -1.76952 3.44326e-007 
0.124074 0.207556 0.1 -2.50398 -1.63633 3.66284e-007 
0.121889 0.21133 -0.1 -2.64909 -1.39809 4.02069e-007 
0.121889 0.21133 0.1 -2.70192 -1.29306 4.15897e-007 
0.119875 0.216 -0.1 -2.78484 -1.10926 4.38429e-007 
0.119875 0.216 0.1 -2.81493 -1.0305 4.47134e-007 
0.118006 0.221587 -0.1 -2.86265 -0.893159 4.61481e-007 
0.118006 0.221587 0.1 -2.88028 -0.83458 4.67123e-007 
0.116259 0.228111 -0.1 -2.90848 -0.73266 4.76508e-007 
0.116259 0.228111 0.1 -2.91905 -0.689321 4.80251e-007 
0.114609 0.235594 -0.1 -2.93616 -0.613863 4.86541e-007 
0.114609 0.235594 0.1 -2.94269 -0.581745 4.89087e-007 
0.113032 0.244056 -0.1 -2.95336 -0.525856 4.93396e-007 
0.113032 0.244056 0.1 -2.95749 -0.502086 4.95157e-007 
0.111504 0.253517 -0.1 -2.96428 -0.460894 4.98145e-007 
0.111504 0.253517 0.1 -2.96694 -0.443472 4.99371e-007 
0.11 0.264 -0.1 -2.96933 -0.427871 5.00471e-007 
0.11 0.264 0.1 -2.96907 -0.429691 5.00346e-007 
0.085 0.436 -0.1 -2.9698 -0.424477 5.00702e-007 
0.085 0.436 0.1 -2.9708 -0.417442 5.01184e-007 
0.084042 0.442937 -0.1 -2.9741 -0.392486 5.02852e-007 
0.084042 0.442937 0.1 -2.97641 -0.374566 5.0404e-007 
0.083167 0.450245 -0.1 -2.98054 -0.340385 5.06255e-007 
0.083167 0.450245 0.1 -2.98235 -0.324124 5.07282e-007 
0.082375 0.457922 -0.1 -2.98559 -0.292951 5.09212e-007 
0.082375 0.457922 0.1 -2.98701 -0.27804 5.10112e-007 
0.081667 0.465963 -0.1 -2.98954 -0.249601 5.11797e-007 
0.081667 0.465963 0.1 -2.99064 -0.236074 5.12581e-007 
0.081042 0.474365 -0.1 -2.99258 -0.210118 5.14055e-007 
0.081042 0.474365 0.1 -2.99343 -0.19769 5.14746e-007 
0.0805 0.483125 -0.1 -2.99492 -0.173697 5.16056e-007 
0.0805 0.483125 0.1 -2.99557 -0.162133 5.16675e-007 
0.080042 0.492239 -0.1 -2.9967 -0.139967 5.17841e-007 
0.080042 0.492239 0.1 -2.99717 -0.129366 5.18387e-007 
0.079667 0.501704 -0.1 -2.99799 -0.108923 5.19424e-007 
0.079667 0.501704 0.1 -2.99833 -0.0990814 5.19913e-007 
0.079375 0.511516 -0.1 -2.99891 -0.0799712 5.2085e-007 
0.079375 0.511516 0.1 -2.99914 -0.0707026 5.21295e-007 
0.079167 0.521671 -0.1 -2.99951 -0.0528642 5.2214e-007 
0.079167 0.521671 0.1 -2.99965 -0.0442945 5.22539e-007 
0.079042 0.532167 -0.1 -2.99985 -0.0276935 5.233e-007 
0.079042 0.532167 0.1 -2.99991 -0.0196621 5.23661e-007 
0.079 0.543 -0.1 -2.99986 0.00810284 5.24866e-007 
0.079 0.543 0.1 -2.99974 0.0278365 5.25708e-007 
0.079376 0.566709 -0.1 -2.99838 0.0840251 5.27926e-007 
0.079376 0.566709 0.1 -2.99714 0.12048 5.29302e-007 
0.080509 0.588338 -0.1 -2.99259 0.201188 5.32036e-007 
0.080509 0.588338 0.1 -2.98928 0.245442 5.33391e-007 
0.082406 0.607891 -0.1 -2.9792 0.344022 5.35938e-007 
0.082406 0.607891 0.1 -2.97243 0.39835 5.37128e-007 
0.085074 0.62537 -0.1 -2.953 0.520003 5.39049e-007 
0.085074 0.62537 0.1 -2.94035 0.587329 5.39781e-007 
0.08852 0.640781 -0.1 -2.90505 0.738614 5.40222e-007 
0.08852 0.640781 0.1 -2.8824 0.822573 5.3993e-007 
0.09275 0.654125 -0.1 -2.82008 1.01102 5.37271e-007 
0.09275 0.654125 0.1 -2.78041 1.11551 5.34902e-007 
0.097772 0.665407 -0.1 -2.67281 1.34706 5.2621e-007 
0.097772 0.665407 0.1 -2.60489 1.47412 5.1989e-007 
0.103593 0.67463 -0.1 -2.42559 1.7463 5.00437e-007 
0.103593 0.67463 0.1 -2.31421 1.89142 4.87307e-007 
0.110219 0.681797 -0.1 -2.03519 2.18167 4.51207e-007 
0.110219 0.681797 0.1 -1.86754 2.32679 4.28239e-007 
0.117657 0.686912 -0.1 -1.48139 2.58539 3.72025e-007 
0.117657 0.686912 0.1 -1.26288 2.69887 3.3878e-007 
0.125916 0.689979 -0.1 -0.807939 2.86864 2.66656e-007 
0.125916 0.689979 0.1 -0.571503 2.92493 2.27777e-007 
0.135 0.691 -0.1 -0.111689 2.98123 1.49842e-007 
0.135 0.691 0.1 0.111689 2.98123 1.10786e-007 
0.19545 0.042887 -0.1 2.9749 -0.336828 -5.34871e-007 
0.19545 0.042887 0.1 2.95667 -0.470743 -5.37537e-007 
0.193847 0.035097 -0.1 2.90309 -0.732671 -5.39618e-007 
0.193847 0.035097 0.1 2.86774 -0.860684 -5.39034e-007 
0.191266 0.027703 -0.1 2.78137 -1.10897 -5.34785e-007 
0.191266 0.027703 0.1 2.73035 -1.22925 -5.31122e-007 
0.187778 0.020778 -0.1 2.61435 -1.46021 -5.20936e-007 
0.187778 0.020778 0.1 2.54938 -1.57089 -5.14414e-007 
0.183457 0.014394 -0.1 2.40665 -1.78206 -4.98688e-007 
0.183457 0.014394 0.1 2.32888 -1.88255 -4.89484e-007 
0.178375 0.008625 -0.1 2.16176 -2.0724 -4.68562e-007 
0.178375 0.008625 0.1 2.0724 -2.16176 -4.56844e-007 
0.172606 0.003543 -0.1 1.88255 -2.32888 -4.30955e-007 
0.172606 0.003543 0.1 1.78206 -2.40665 -4.16784e-007 
0.166222 -0.000777996 -0.1 1.57089 -2.54938 -3.86101e-007 
0.166222 -0.000778004 0.1 1.46021 -2.61435 -3.69589e-007 
0.159297 -0.004266 -0.1 1.22925 -2.73035 -3.34276e-007 
0.159297 -0.004266 0.1 1.10897 -2.78137 -3.15476e-007 
0.151903 -0.006847 -0.1 0.860684 -2.86774 -2.75839e-007 
0.151903 -0.006847 0.1 0.732672 -2.90309 -2.55002e-007 
0.144113 -0.00844999 -0.1 0.470744 -2.95667 -2.11548e-007 
0.144113 -0.00845 0.1 0.336828 -2.9749 -1.88929e-007 
0.136 -0.00899999 -0.1 0.0676373 -2.99313 -1.4266e-007 
0.136 -0.009 0.1 -0.067637 -2.99313 -1.19008e-007 
0.127887 -0.00844999 -0.1 -0.336828 -2.9749 -7.11436e-008 
0.127887 -0.00845 0.1 -0.470744 -2.95666 -4.69325e-008 
0.120097 -0.006847 -0.1 -0.732673 -2.90309 1.20661e-009 
0.120097 -0.006847 0.1 -0.860685 -2.86774 2.5134e-008 
0.112703 -0.004266 -0.1 -1.10897 -2.78137 7.23211e-008 
0.112703 -0.004266 0.1 -1.22925 -2.73035 9.55816e-008 
0.105778 -0.000777996 -0.1 -1.46021 -2.61435 1.41034e-007 
0.105778 -0.000778004 0.1 -1.57089 -2.54938 1.63226e-007 
0.099394 0.003543 -0.1 -1.78206 -2.40665 2.06388e-007 
0.099394 0.003543 0.1 -1.88255 -2.32888 2.27357e-007 
0.093625 0.008625 -0.1 -2.0724 -2.16176 2.67857e-007 
0.093625 0.008625 0.1 -2.16176 -2.0724 2.87386e-007 
0.088543 0.014394 -0.1 -2.32888 -1.88255 3.24905e-007 
0.088543 0.014394 0.1 -2.40665 -1.78206 3.42895e-007 
0.084222 0.020778 -0.1 -2.54938 -1.57089 3.77082e-007 
0.084222 0.020778 0.1 -2.61435 -1.46021 3.9328e-007 
0.080734 0.027703 -0.1 -2.73035 -1.22925 4.23657e-007 
0.080734 0.027703 0.1 -2.78137 -1.10897 4.37836e-007 
0.078153 0.035097 -0.1 -2.86774 -0.860685 4.6379e-007 
0.078153 0.035097 0.1 -2.90309 -0.732673 4.75566e-007 
0.07655 0.042887 -0.1 -2.95666 -0.470745 4.96382e-007 
0.07655 0.042887 0.1 -2.9749 -0.336828 5.05425e-007 
0.076 0.051 -0.1 -2.99313 -0.0676374 5.20379e-007 
0.076 0.051 0.1 -2.99313 0.0676374 5.26292e-007 
0.07655 0.059113 -0.1 -2.9749 0.336828 5.34871e-007 
0.07655 0.059113 0.1 -2.95666 0.470744 5.37536e-007 
0.078153 0.066903 -0.1 -2.90309 0.732672 5.39618e-007 
0.078153 0.066903 0.1 -2.86774 0.860684 5.39034e-007 
0.080734 0.074297 -0.1 -2.78137 1.10897 5.34785e-007 
0.080734 0.074297 0.1 -2.73035 1.22925 5.31122e-007 
0.084222 0.081222 -0.1 -2.61435 1.46021 5.20936e-007 
0.084222 0.081222 0.1 -2.54938 1.57089 5.14414e-007 
0.088543 0.087606 -0.1 -2.40665 1.78206 4.98688e-007 
0.088543 0.087606 0.1 -2.32888 1.88255 4.89484e-007 
0.093625 0.093375 -0.1 -2.16176 2.0724 4.68562e-007 
0.093625 0.093375 0.1 -2.0724 2.16176 4.56844e-007 
0.099394 0.098457 -0.1 -1.88255 2.32888 4.30955e-007 
0.099394 0.098457 0.1 -1.78206 2.40665 4.16784e-007 
0.105778 0.102778 -0.1 -1.57089 2.54938 3.86101e-007 
0.105778 0.102778 0.1 -1.46021 2.61435 3.69589e-007 
0.112703 0.106266 -0.1 -1.22925 2.73035 3.34276e-007 
0.112703 0.106266 0.1 -1.10897 2.78137 3.15476e-007 
0.120097 0.108847 -0.1 -0.860685 2.86774 2.75839e-007 
0.120097 0.108847 0.1 -0.732673 2.90309 2.55002e-007 
0.127887 0.11045 -0.1 -0.470744 2.95666 2.11548e-007 
0.127887 0.11045 0.1 -0.336828 2.9749 1.88929e-007 
0.136 0.111 -0.1 -0.0676372 2.99313 1.4266e-007 
0.136 0.111 0.1 0.0676375 2.99313 1.19008e-007 
0.144113 0.11045 -0.1 0.336828 2.9749 7.11436e-008 
0.144113 0.11045 0.1 0.470745 2.95666 4.69323e-008 
0.151903 0.108847 -0.1 0.732673 2.90309 -1.20661e-009 
0.151903 0.108847 0.1 0.860684 2.86774 -2.51338e-008 
0.159297 0.106266 -0.1 1.10897 2.78137 -7.2321e-008 
0.159297 0.106266 0.1 1.22925 2.73035 -9.55815e-008 
0.166222 0.102778 -0.1 1.46021 2.61435 -1.41034e-007 
0.166222 0.102778 0.1 1.57089 2.54938 -1.63226e-007 
0.172606 0.098457 -0.1 1.78206 2.40665 -2.06388e-007 
0.172606 0.098457 0.1 1.88255 2.32888 -2.27357e-007 
0.178375 0.093375 -0.1 2.0724 2.16176 -2.67857e-007 
0.178375 0.093375 0.1 2.16176 2.0724 -2.87387e-007 
0.183457 0.087606 -0.1 2.32888 1.88255 -3.24906e-007 
0.183457 0.087606 0.1 2.40665 1.78206 -3.42896e-007 
0.187778 0.081222 -0.1 2.54938 1.57089 -3.77082e-007 
0.187778 0.081222 0.1 2.61435 1.46021 -3.9328e-007 
0.191266 0.074297 -0.1 2.73035 1.22925 -4.23657e-007 
0.191266 0.074297 0.1 2.78137 1.10897 -4.37836e-007 
0.193847 0.066903 -0.1 2.86774 0.860683 -4.6379e-007 
0.193847 0.066903 0.1 2.90309 0.732671 -4.75566e-007 
0.19545 0.059113 -0.1 2.95667 0.470743 -4.96383e-007 
0.19545 0.059113 0.1 2.9749 0.336827 -5.05425e-007 
0.196 0.051 -0.1 2.99313 0.0676374 -5.20379e-007 
0.196 0.051 0.1 2.99313 -0.0676374 -5.26292e-007 
3 108 110 109 
3 107 110 108 
3 107 111 110 
3 106 111 107 
3 106 112 111 
3 105 112 106 
3 105 113 112 
3 104 113 105 
3 104 114 113 
3 103 114 104 
3 103 115 114 
3 102 115 103 
3 102 116 115 
3 101 116 102 
3 101 117 116 
3 100 117 101 
3 100 118 117 
3 99 118 100 
3 99 119 118 
3 98 119 99 
3 98 120 119 
3 98 121 120 
3 97 121 98 
3 96 121 97 
3 96 74 121 
3 95 74 96 
3 95 75 74 
3 94 75 95 
3 94 76 75 
3 93 76 94 
3 93 77 76 
3 92 77 93 
3 92 78 77 
3 91 78 92 
3 91 79 78 
3 90 79 91 
3 90 80 79 
3 89 80 90 
3 89 81 80 
3 88 81 89 
3 88 82 81 
3 87 82 88 
3 87 83 82 
3 86 83 87 
3 86 84 83 
3 85 84 86 
3 72 0 73 
3 71 0 72 
3 71 1 0 
3 70 1 71 
3 70 2 1 
3 69 2 70 
3 69 3 2 
3 68 3 69 
3 68 4 3 
3 67 4 68 
3 67 5 4 
3 66 5 67 
3 66 6 5 
3 65 6 66 
3 65 7 6 
3 64 7 65 
3 64 8 7 
3 63 8 64 
3 63 9 8 
3 62 9 63 
3 62 10 9 
3 61 10 62 
3 61 11 10 
3 60 11 61 
3 60 12 11 
3 60 13 12 
3 59 13 60 
3 59 14 13 
3 58 14 59 
3 58 15 14 
3 57 15 58 
3 57 16 15 
3 56 16 57 
3 56 17 16 
3 55 17 56 
3 55 18 17 
3 54 18 55 
3 54 19 18 
3 53 19 54 
3 53 20 19 
3 52 20 53 
3 52 21 20 
3 51 21 52 
3 51 22 21 
3 50 22 51 
3 50 23 22 
3 49 23 50 
3 48 23 49 
3 48 24 23 
3 47 24 48 
3 47 25 24 
3 46 25 47 
3 46 26 25 
3 45 26 46 
3 45 27 26 
3 44 27 45 
3 44 28 27 
3 43 28 44 
3 43 29 28 
3 42 29 43 
3 42 30 29 
3 41 30 42 
3 41 31 30 
3 40 31 41 
3 40 32 31 
3 39 32 40 
3 39 33 32 
3 38 33 39 
3 38 34 33 
3 37 34 38 
3 37 35 34 
3 36 35 37 
3 232 230 231 
3 232 229 230 
3 233 229 232 
3 233 228 229 
3 234 228 233 
3 234 227 228 
3 235 227 234 
3 235 226 227 
3 236 226 235 
3 236 225 226 
3 237 225 236 
3 237 224 225 
3 238 224 237 
3 238 223 224 
3 239 223 238 
3 239 222 223 
3 240 222 239 
3 240 221 222 
3 241 221 240 
3 241 220 221 
3 242 220 241 
3 243 220 242 
3 243 219 220 
3 243 218 219 
3 196 218 243 
3 196 217 218 
3 197 217 196 
3 197 216 217 
3 198 216 197 
3 198 215 216 
3 199 215 198 
3 199 214 215 
3 200 214 199 
3 200 213 214 
3 201 213 200 
3 201 212 213 
3 202 212 201 
3 202 211 212 
3 203 211 202 
3 203 210 211 
3 204 210 203 
3 204 209 210 
3 205 209 204 
3 205 208 209 
3 206 208 205 
3 206 207 208 
3 122 194 195 
3 122 193 194 
3 123 193 122 
3 123 192 193 
3 124 192 123 
3 124 191 192 
3 125 191 124 
3 125 190 191 
3 126 190 125 
3 126 189 190 
3 127 189 126 
3 127 188 189 
3 128 188 127 
3 128 187 188 
3 129 187 128 
3 129 186 187 
3 130 186 129 
3 130 185 186 
3 131 185 130 
3 131 184 185 
3 132 184 131 
3 132 183 184 
3 133 183 132 
3 133 182 183 
3 134 182 133 
3 135 182 134 
3 135 181 182 
3 136 181 135 
3 136 180 181 
3 137 180 136 
3 137 179 180 
3 138 179 137 
3 138 178 179 
3 139 178 138 
3 139 177 178 
3 140 177 139 
3 140 176 177 
3 141 176 140 
3 141 175 176 
3 142 175 141 
3 142 174 175 
3 143 174 142 
3 143 173 174 
3 144 173 143 
3 144 172 173 
3 145 172 144 
3 145 171 172 
3 145 170 171 
3 146 170 145 
3 146 169 170 
3 147 169 146 
3 147 168 169 
3 148 168 147 
3 148 167 168 
3 149 167 148 
3 149 166 167 
3 150 166 149 
3 150 165 166 
3 151 165 150 
3 151 164 165 
3 152 164 151 
3 152 163 164 
3 153 163 152 
3 153 162 163 
3 154 162 153 
3 154 161 162 
3 155 161 154 
3 155 160 161 
3 156 160 155 
3 156 159 160 
3 157 159 156 
3 157 158 159 
3 245 247 246 
3 245 246 244 
3 247 249 248 
3 247 248 246 
3 249 251 250 
3 249 250 248 
3 251 253 252 
3 251 252 250 
3 253 255 254 
3 253 254 252 
3 255 257 256 
3 255 256 254 
3 257 259 258 
3 257 258 256 
3 259 261 260 
3 259 260 258 
3 261 263 262 
3 261 262 260 
3 263 265 264 
3 263 264 262 
3 265 267 266 
3 265 266 264 
3 267 269 268 
3 267 268 266 
3 269 271 270 
3 269 270 268 
3 271 273 272 
3 271 272 270 
3 273 275 274 
3 273 274 272 
3 275 277 276 
3 275 276 274 
3 277 279 278 
3 277 278 276 
3 279 281 280 
3 279 280 278 
3 281 283 282 
3 281 282 280 
3 283 285 284 
3 283 284 282 
3 285 287 286 
3 285 286 284 
3 287 289 288 
3 287 288 286 
3 289 291 290 
3 289 290 288 
3 291 293 292 
3 291 292 290 
3 293 295 294 
3 293 294 292 
3 295 297 296 
3 295 296 294 
3 297 299 298 
3 297 298 296 
3 299 301 300 
3 299 300 298 
3 301 303 302 
3 301 302 300 
3 303 305 304 
3 303 304 302 
3 305 307 306 
3 305 306 304 
3 307 309 308 
3 307 308 306 
3 309 311 310 
3 309 310 308 
3 311 313 312 
3 311 312 310 
3 313 315 314 
3 313 314 312 
3 315 317 316 
3 315 316 314 
3 317 319 318 
3 317 318 316 
3 319 321 320 
3 319 320 318 
3 321 323 322 
3 321 322 320 
3 323 325 324 
3 323 324 322 
3 325 327 326 
3 325 326 324 
3 327 329 328 
3 327 328 326 
3 329 331 330 
3 329 330 328 
3 331 333 332 
3 331 332 330 
3 333 335 334 
3 333 334 332 
3 335 337 336 
3 335 336 334 
3 337 339 338 
3 337 338 336 
3 339 341 340 
3 339 340 338 
3 341 343 342 
3 341 342 340 
3 343 345 344 
3 343 344 342 
3 345 347 346 
3 345 346 344 
3 347 349 348 
3 347 348 346 
3 349 351 350 
3 349 350 348 
3 351 353 352 
3 351 352 350 
3 353 355 354 
3 353 354 352 
3 355 357 356 
3 355 356 354 
3 357 359 358 
3 357 358 356 
3 359 361 360 
3 359 360 358 
3 361 363 362 
3 361 362 360 
3 363 365 364 
3 363 364 362 
3 365 367 366 
3 365 366 364 
3 367 369 368 
3 367 368 366 
3 369 371 370 
3 369 370 368 
3 371 373 372 
3 371 372 370 
3 373 375 374 
3 373 374 372 
3 375 377 376 
3 375 376 374 
3 377 379 378 
3 377 378 376 
3 379 381 380 
3 379 380 378 
3 381 383 382 
3 381 382 380 
3 383 385 384 
3 383 384 382 
3 385 387 386 
3 385 386 384 
3 387 389 388 
3 387 388 386 
3 389 391 390 
3 389 390 388 
3 391 245 244 
3 391 244 390 
3 393 395 394 
3 393 394 392 
3 395 397 396 
3 395 396 394 
3 397 399 398 
3 397 398 396 
3 399 401 400 
3 399 400 398 
3 401 403 402 
3 401 402 400 
3 403 405 404 
3 403 404 402 
3 405 407 406 
3 405 406 404 
3 407 409 408 
3 407 408 406 
3 409 411 410 
3 409 410 408 
3 411 413 412 
3 411 412 410 
3 413 415 414 
3 413 414 412 
3 415 417 416 
3 415 416 414 
3 417 419 418 
3 417 418 416 
3 419 421 420 
3 419 420 418 
3 421 423 422 
3 421 422 420 
3 423 425 424 
3 423 424 422 
3 425 427 426 
3 425 426 424 
3 427 429 428 
3 427 428 426 
3 429 431 430 
3 429 430 428 
3 431 433 432 
3 431 432 430 
3 433 435 434 
3 433 434 432 
3 435 437 436 
3 435 436 434 
3 437 439 438 
3 437 438 436 
3 439 441 440 
3 439 440 438 
3 441 443 442 
3 441 442 440 
3 443 445 444 
3 443 444 442 
3 445 447 446 
3 445 446 444 
3 447 449 448 
3 447 448 446 
3 449 451 450 
3 449 450 448 
3 451 453 452 
3 451 452 450 
3 453 455 454 
3 453 454 452 
3 455 457 456 
3 455 456 454 
3 457 459 458 
3 457 458 456 
3 459 461 460 
3 459 460 458 
3 461 463 462 
3 461 462 460 
3 463 465 464 
3 463 464 462 
3 465 467 466 
3 465 466 464 
3 467 469 468 
3 467 468 466 
3 469 471 470 
3 469 470 468 
3 471 473 472 
3 471 472 470 
3 473 475 474 
3 473 474 472 
3 475 477 476 
3 475 476 474 
3 477 479 478 
3 477 478 476 
3 479 481 480 
3 479 480 478 
3 481 483 482 
3 481 482 480 
3 483 485 484 
3 483 484 482 
3 485 487 486 
3 485 486 484 
3 487 393 392 
3 487 392 486 
