ply
format ascii 1.0
comment VCGLIB generated
element vertex 48
property float x
property float y
property float z
property float nx
property float ny
property float nz
element face 44
property list uchar int vertex_indices
end_header
0.555 -4.37114e-009 0.0999998 5.08906e-009 -1.27226e-009 0.029106 
0.555 0.297 0.0999999 1.24745e-008 -3.11863e-009 0.071346 
0.173 0.297 0.1 1.83521e-008 -4.58803e-009 0.104962 
0.173 -4.37114e-009 0.1 5.08906e-009 -1.27226e-009 0.029106 
0.075 -4.37114e-009 0.1 2.3372e-008 -5.84299e-009 0.133672 
0.075 0.682 0.1 1.1686e-008 -2.92149e-009 0.066836 
0.173 0.682 0.1 1.6775e-008 -4.19376e-009 0.095942 
0.173 0.385 0.1 1.24745e-008 -3.11863e-009 0.071346 
0.555 0.385 0.0999999 3.00382e-008 -7.50953e-009 0.171798 
0.555 0.682 0.0999999 5.08906e-009 -1.27226e-009 0.029106 
0.653 0.682 0.0999999 1.6775e-008 -4.19376e-009 0.095942 
0.653 -4.37114e-009 0.0999998 1.82829e-008 -4.57072e-009 0.104566 
0.555 4.37114e-009 -0.1 -5.08906e-009 1.27226e-009 -0.029106 
0.555 0.297 -0.1 -1.24745e-008 3.11863e-009 -0.071346 
0.173 0.297 -0.1 -1.83521e-008 4.58803e-009 -0.104962 
0.173 4.37114e-009 -0.1 -5.08906e-009 1.27226e-009 -0.029106 
0.075 4.37114e-009 -0.1 -2.3372e-008 5.84299e-009 -0.133672 
0.075 0.682 -0.1 -1.1686e-008 2.92149e-009 -0.066836 
0.173 0.682 -0.1 -1.6775e-008 4.19376e-009 -0.095942 
0.173 0.385 -0.1 -1.24745e-008 3.11863e-009 -0.071346 
0.555 0.385 -0.1 -3.00382e-008 7.50953e-009 -0.171798 
0.555 0.682 -0.1 -5.08906e-009 1.27226e-009 -0.029106 
0.653 0.682 -0.1 -1.6775e-008 4.19376e-009 -0.095942 
0.653 4.37114e-009 -0.1 -1.82829e-008 4.57072e-009 -0.104566 
0.555 4.37114e-009 -0.1 -1 -2 8.74228e-008 
0.555 -4.37114e-009 0.0999998 -2 -1 3.0598e-007 
0.555 0.297 -0.1 -2 -1 3.0598e-007 
0.555 0.297 0.0999999 -1 -2 8.74228e-008 
0.173 0.297 -0.1 1 -2 -2.62269e-007 
0.173 0.297 0.1 2 -1 -3.93403e-007 
0.173 4.37114e-009 -0.1 2 -1 -3.93403e-007 
0.173 -4.37114e-009 0.1 1 -2 -2.62269e-007 
0.075 4.37114e-009 -0.1 -1 -2 8.74228e-008 
0.075 -4.37114e-009 0.1 -2 -1 3.0598e-007 
0.075 0.682 -0.1 -2 1 3.93403e-007 
0.075 0.682 0.1 -1 2 2.62269e-007 
0.173 0.682 -0.1 1 2 -8.74228e-008 
0.173 0.682 0.1 2 1 -3.0598e-007 
0.173 0.385 -0.1 2 1 -3.0598e-007 
0.173 0.385 0.1 1 2 -8.74228e-008 
0.555 0.385 -0.1 -1 2 2.62269e-007 
0.555 0.385 0.0999999 -2 1 3.93403e-007 
0.555 0.682 -0.1 -2 1 3.93403e-007 
0.555 0.682 0.0999999 -1 2 2.62269e-007 
0.653 0.682 -0.1 1 2 -8.74228e-008 
0.653 0.682 0.0999999 2 1 -3.0598e-007 
0.653 4.37114e-009 -0.1 2 -1 -3.93403e-007 
0.653 -4.37114e-009 0.0999998 1 -2 -2.62269e-007 
3 4 6 5 
3 4 7 6 
3 8 10 9 
3 8 11 10 
3 4 2 7 
3 2 8 7 
3 2 1 8 
3 1 11 8 
3 4 3 2 
3 0 11 1 
3 18 16 17 
3 19 16 18 
3 22 20 21 
3 23 20 22 
3 14 16 19 
3 20 14 19 
3 13 14 20 
3 23 13 20 
3 15 16 14 
3 23 12 13 
3 25 27 26 
3 25 26 24 
3 27 29 28 
3 27 28 26 
3 29 31 30 
3 29 30 28 
3 31 33 32 
3 31 32 30 
3 33 35 34 
3 33 34 32 
3 35 37 36 
3 35 36 34 
3 37 39 38 
3 37 38 36 
3 39 41 40 
3 39 40 38 
3 41 43 42 
3 41 42 40 
3 43 45 44 
3 43 44 42 
3 45 47 46 
3 45 46 44 
3 47 25 24 
3 47 24 46 
