ply
format ascii 1.0
comment VCGLIB generated
element vertex 36
property float x
property float y
property float z
property float nx
property float ny
property float nz
element face 32
property list uchar int vertex_indices
end_header
0.604 0.682 0.0999999 1.1512e-008 -2.878e-009 0.065841 
0.351 0.36 0.1 2.04998e-008 -5.12494e-009 0.117245 
0.351 -4.37114e-009 0.1 6.16856e-009 -1.54214e-009 0.03528 
0.253 -4.37114e-009 0.1 1.23542e-008 -3.08856e-009 0.070658 
0.253 0.361 0.1 1.90145e-008 -4.75361e-009 0.10875 
1.74846e-008 0.682 0.1 6.6228e-009 -1.6557e-009 0.037878 
0.118 0.682 0.1 1.13468e-008 -2.83669e-009 0.064896 
0.301 0.447 0.1 1.7718e-008 -4.42949e-009 0.101335 
0.486 0.682 0.1 4.84846e-009 -1.21212e-009 0.02773 
0.604 0.682 -0.1 -1.1512e-008 2.878e-009 -0.065841 
0.351 0.36 -0.1 -2.04998e-008 5.12494e-009 -0.117245 
0.351 4.37114e-009 -0.1 -6.16856e-009 1.54214e-009 -0.03528 
0.253 4.37114e-009 -0.1 -1.23542e-008 3.08856e-009 -0.070658 
0.253 0.361 -0.1 -1.90145e-008 4.75361e-009 -0.10875 
-1.74846e-008 0.682 -0.1 -6.6228e-009 1.6557e-009 -0.037878 
0.118 0.682 -0.1 -1.13468e-008 2.83669e-009 -0.064896 
0.301 0.447 -0.1 -1.7718e-008 4.42949e-009 -0.101335 
0.486 0.682 -0.1 -4.84846e-009 1.21212e-009 -0.02773 
0.604 0.682 -0.1 0.786318 1.38218 -7.70673e-008 
0.604 0.682 0.0999999 1.57264 -0.235643 -2.8527e-007 
0.351 0.36 -0.1 2.57264 -1.23564 -5.03826e-007 
0.351 0.36 0.1 2.78632 -0.617822 -5.14181e-007 
0.351 4.37114e-009 -0.1 2 -1 -3.93403e-007 
0.351 -4.37114e-009 0.1 1 -2 -2.62269e-007 
0.253 4.37114e-009 -0.1 -1 -2 8.74228e-008 
0.253 -4.37114e-009 0.1 -2 -1 3.0598e-007 
0.253 0.361 -0.1 -2.78538 -0.619009 4.59954e-007 
0.253 0.361 0.1 -2.57077 -1.23802 3.95372e-007 
-1.74846e-008 0.682 -0.1 -1.57077 -0.238019 2.64238e-007 
1.74846e-008 0.682 0.1 -0.785383 1.38099 1.97685e-007 
0.118 0.682 -0.1 0.78899 2.61441 -2.36721e-008 
0.118 0.682 0.1 1.57798 2.22881 -1.78479e-007 
0.301 0.447 -0.1 0.792243 1.84737 -5.77691e-008 
0.301 0.447 0.1 -0.782485 1.85152 2.17747e-007 
0.486 0.682 -0.1 -1.57148 2.23712 3.72553e-007 
0.486 0.682 0.1 -0.785738 2.61856 2.51843e-007 
3 4 6 5 
3 4 7 6 
3 7 0 8 
3 7 1 0 
3 4 1 7 
3 3 1 4 
3 3 2 1 
3 15 13 14 
3 16 13 15 
3 9 16 17 
3 10 16 9 
3 10 13 16 
3 10 12 13 
3 11 12 10 
3 19 21 20 
3 19 20 18 
3 21 23 22 
3 21 22 20 
3 23 25 24 
3 23 24 22 
3 25 27 26 
3 25 26 24 
3 27 29 28 
3 27 28 26 
3 29 31 30 
3 29 30 28 
3 31 33 32 
3 31 32 30 
3 33 35 34 
3 33 34 32 
3 35 19 18 
3 35 18 34 
