ply
format ascii 1.0
comment VCGLIB generated
element vertex 228
property float x
property float y
property float z
property float nx
property float ny
property float nz
element face 224
property list uchar int vertex_indices
end_header
0.152 0.39 0.1 2.66584e-009 -6.66458e-010 0.0152468 
0.160824 0.400371 0.1 8.77071e-010 -2.19268e-010 0.00501626 
0.170259 0.409968 0.1 1.41839e-009 -3.54597e-010 0.00811224 
0.18025 0.418766 0.1 1.11535e-009 -2.78837e-010 0.00637904 
0.190741 0.426741 0.1 5.0315e-010 -1.25788e-010 0.00287768 
0.201676 0.433869 0.1 7.4318e-010 -1.85795e-010 0.00425049 
0.213 0.440125 0.1 3.17273e-010 -7.93183e-011 0.00181459 
0.224657 0.445486 0.1 4.31652e-010 -1.07913e-010 0.00246876 
0.236593 0.449926 0.1 2.52297e-010 -6.30744e-011 0.00144297 
0.24875 0.453422 0.1 8.52074e-011 -2.13019e-011 0.00048733 
0.261074 0.455949 0.1 8.00042e-011 -2.00011e-011 0.000457571 
0.273509 0.457483 0.1 1.53916e-011 -3.84789e-012 8.80295e-005 
0.286 0.458 0.1 4.67762e-012 -1.1694e-012 2.67529e-005 
0.307497 0.456748 0.1 4.8776e-011 -1.2194e-011 0.000278966 
0.327889 0.452986 0.1 2.29128e-010 -5.72818e-011 0.00131046 
0.347031 0.446703 0.1 3.9536e-010 -9.88402e-011 0.0022612 
0.364778 0.437889 0.1 8.44874e-010 -2.11219e-010 0.00483212 
0.380983 0.426533 0.1 1.34623e-009 -3.36559e-010 0.00769956 
0.3955 0.412625 0.1 1.50421e-009 -3.76053e-010 0.0086031 
0.408184 0.396155 0.1 2.28824e-009 -5.72061e-010 0.0130872 
0.418889 0.377111 0.1 1.17821e-009 -2.94552e-010 0.00673856 
0.427469 0.355484 0.1 1.28458e-009 -3.21145e-010 0.00734694 
0.433778 0.331264 0.1 1.22782e-009 -3.06954e-010 0.00702229 
0.43767 0.304439 0.1 1.33692e-009 -3.34229e-010 0.00764627 
0.439 0.275 0.1 9.31142e-009 -2.32785e-009 0.0532551 
0.439 -4.37114e-009 0.1 4.27934e-009 -1.06984e-009 0.024475 
0.35 -4.37114e-009 0.1 8.60538e-009 -2.15134e-009 0.049217 
0.35 0.278 0.1 4.57478e-009 -1.1437e-009 0.0261647 
0.3493 0.294009 0.1 9.41302e-010 -2.35326e-010 0.00538362 
0.347232 0.308991 0.1 4.52106e-010 -1.13027e-010 0.00258575 
0.343844 0.322875 0.1 8.51185e-010 -2.12796e-010 0.00486821 
0.339185 0.335593 0.1 3.92254e-010 -9.80634e-011 0.00224343 
0.333304 0.347074 0.1 7.71392e-010 -1.92848e-010 0.00441185 
0.32625 0.35725 0.1 3.31146e-010 -8.27863e-011 0.00189393 
0.318071 0.366051 0.1 2.76834e-010 -6.92086e-011 0.00158331 
0.308815 0.373407 0.1 6.64506e-010 -1.66126e-010 0.00380053 
0.298531 0.37925 0.1 2.0453e-010 -5.11323e-011 0.00116977 
0.287269 0.383509 0.1 1.31769e-010 -3.29423e-011 0.000753632 
0.275075 0.386116 0.1 4.7996e-011 -1.1999e-011 0.000274505 
0.262 0.387 0.1 7.70652e-010 -1.92663e-010 0.00440762 
0.252406 0.386619 0.1 3.84138e-011 -9.60346e-012 0.000219701 
0.243079 0.385449 0.1 6.51011e-011 -1.62753e-011 0.000372335 
0.233953 0.383453 0.1 9.03196e-011 -2.25799e-011 0.000516568 
0.224963 0.380593 0.1 1.13964e-010 -2.84909e-011 0.000651796 
0.216042 0.376829 0.1 1.35899e-010 -3.39748e-011 0.000777252 
0.207125 0.372125 0.1 1.56048e-010 -3.90121e-011 0.000892492 
0.198145 0.366442 0.1 1.74422e-010 -4.36055e-011 0.000997577 
0.189037 0.359741 0.1 1.91033e-010 -4.77581e-011 0.00109258 
0.179734 0.351984 0.1 2.05932e-010 -5.14828e-011 0.00117779 
0.170171 0.343134 0.1 2.19227e-010 -5.48068e-011 0.00125383 
0.160282 0.333152 0.1 2.31096e-010 -5.77739e-011 0.00132171 
0.15 0.322 0.1 6.07464e-009 -1.51866e-009 0.0347429 
0.15 -4.37114e-009 0.1 5.01072e-009 -1.25268e-009 0.028658 
0.061 -4.37114e-009 0.1 2.12494e-008 -5.31233e-009 0.121532 
0.061 0.682 0.1 1.06128e-008 -2.65319e-009 0.060698 
0.15 0.682 0.1 1.51567e-008 -3.78917e-009 0.086686 
0.15 0.39 0.1 4.68026e-009 -1.17007e-009 0.026768 
0.152 0.39 -0.1 -2.66584e-009 6.66458e-010 -0.0152468 
0.160824 0.400371 -0.1 -8.77071e-010 2.19268e-010 -0.00501626 
0.170259 0.409968 -0.1 -1.41839e-009 3.54597e-010 -0.00811224 
0.18025 0.418766 -0.1 -1.11535e-009 2.78837e-010 -0.00637904 
0.190741 0.426741 -0.1 -5.0315e-010 1.25788e-010 -0.00287768 
0.201676 0.433869 -0.1 -7.4318e-010 1.85795e-010 -0.00425049 
0.213 0.440125 -0.1 -3.17273e-010 7.93183e-011 -0.00181459 
0.224657 0.445486 -0.1 -4.31652e-010 1.07913e-010 -0.00246876 
0.236593 0.449926 -0.1 -2.52297e-010 6.30744e-011 -0.00144297 
0.24875 0.453422 -0.1 -8.52074e-011 2.13019e-011 -0.00048733 
0.261074 0.455949 -0.1 -8.00042e-011 2.00011e-011 -0.000457571 
0.273509 0.457483 -0.1 -1.53916e-011 3.84789e-012 -8.80295e-005 
0.286 0.458 -0.1 -4.67762e-012 1.1694e-012 -2.67529e-005 
0.307497 0.456748 -0.1 -4.8776e-011 1.2194e-011 -0.000278966 
0.327889 0.452986 -0.1 -2.29128e-010 5.72818e-011 -0.00131046 
0.347031 0.446703 -0.1 -3.9536e-010 9.88402e-011 -0.0022612 
0.364778 0.437889 -0.1 -8.44874e-010 2.11219e-010 -0.00483212 
0.380983 0.426533 -0.1 -1.34623e-009 3.36559e-010 -0.00769956 
0.3955 0.412625 -0.1 -1.50421e-009 3.76053e-010 -0.0086031 
0.408184 0.396155 -0.1 -2.28824e-009 5.72061e-010 -0.0130872 
0.418889 0.377111 -0.1 -1.17821e-009 2.94552e-010 -0.00673856 
0.427469 0.355484 -0.1 -1.28458e-009 3.21145e-010 -0.00734694 
0.433778 0.331264 -0.1 -1.22782e-009 3.06954e-010 -0.00702229 
0.43767 0.304439 -0.1 -1.33692e-009 3.34229e-010 -0.00764627 
0.439 0.275 -0.1 -9.31142e-009 2.32785e-009 -0.0532551 
0.439 4.37114e-009 -0.1 -4.27934e-009 1.06984e-009 -0.024475 
0.35 4.37114e-009 -0.1 -8.60538e-009 2.15134e-009 -0.049217 
0.35 0.278 -0.1 -4.57478e-009 1.1437e-009 -0.0261647 
0.3493 0.294009 -0.1 -9.41303e-010 2.35326e-010 -0.00538363 
0.347232 0.308991 -0.1 -4.52106e-010 1.13027e-010 -0.00258575 
0.343844 0.322875 -0.1 -8.51185e-010 2.12796e-010 -0.00486821 
0.339185 0.335593 -0.1 -3.92254e-010 9.80634e-011 -0.00224343 
0.333304 0.347074 -0.1 -7.71392e-010 1.92848e-010 -0.00441185 
0.32625 0.35725 -0.1 -3.31146e-010 8.27863e-011 -0.00189393 
0.318071 0.366051 -0.1 -2.76834e-010 6.92086e-011 -0.00158331 
0.308815 0.373407 -0.1 -6.64506e-010 1.66126e-010 -0.00380053 
0.298531 0.37925 -0.1 -2.0453e-010 5.11323e-011 -0.00116977 
0.287269 0.383509 -0.1 -1.31769e-010 3.29423e-011 -0.000753632 
0.275075 0.386116 -0.1 -4.7996e-011 1.1999e-011 -0.000274505 
0.262 0.387 -0.1 -7.70652e-010 1.92663e-010 -0.00440762 
0.252406 0.386619 -0.1 -3.84138e-011 9.60346e-012 -0.000219701 
0.243079 0.385449 -0.1 -6.51011e-011 1.62753e-011 -0.000372335 
0.233953 0.383453 -0.1 -9.03196e-011 2.25799e-011 -0.000516568 
0.224963 0.380593 -0.1 -1.13964e-010 2.84909e-011 -0.000651796 
0.216042 0.376829 -0.1 -1.35899e-010 3.39748e-011 -0.000777252 
0.207125 0.372125 -0.1 -1.56048e-010 3.90121e-011 -0.000892492 
0.198145 0.366442 -0.1 -1.74422e-010 4.36055e-011 -0.000997577 
0.189037 0.359741 -0.1 -1.91033e-010 4.77581e-011 -0.00109258 
0.179734 0.351984 -0.1 -2.05932e-010 5.14828e-011 -0.00117779 
0.170171 0.343134 -0.1 -2.19227e-010 5.48068e-011 -0.00125383 
0.160282 0.333152 -0.1 -2.31096e-010 5.77739e-011 -0.00132171 
0.15 0.322 -0.1 -6.07464e-009 1.51866e-009 -0.0347429 
0.15 4.37114e-009 -0.1 -5.01072e-009 1.25268e-009 -0.028658 
0.061 4.37114e-009 -0.1 -2.12494e-008 5.31233e-009 -0.121532 
0.061 0.682 -0.1 -1.06128e-008 2.65319e-009 -0.060698 
0.15 0.682 -0.1 -1.51567e-008 3.78917e-009 -0.086686 
0.15 0.39 -0.1 -4.68026e-009 1.17007e-009 -0.026768 
0.152 0.39 -0.1 -0.761625 2.64802 2.48915e-007 
0.152 0.39 0.1 -1.52325 2.29603 3.66697e-007 
0.160824 0.400371 -0.1 -2.23635 1.9971 4.78312e-007 
0.160824 0.400371 0.1 -2.18783 2.05014 4.72146e-007 
0.170259 0.409968 -0.1 -2.08708 2.15262 4.5901e-007 
0.170259 0.409968 0.1 -2.03486 2.20205 4.5204e-007 
0.18025 0.418766 -0.1 -1.92693 2.29708 4.37324e-007 
0.18025 0.418766 0.1 -1.87122 2.34268 4.29576e-007 
0.190741 0.426741 -0.1 -1.75642 2.42992 4.13318e-007 
0.190741 0.426741 0.1 -1.69733 2.47156 4.04806e-007 
0.201676 0.433869 -0.1 -1.57572 2.55078 3.87006e-007 
0.201676 0.433869 0.1 -1.51321 2.58835 3.77719e-007 
0.213 0.440125 -0.1 -1.38496 2.65914 3.58389e-007 
0.213 0.440125 0.1 -1.31922 2.69236 3.48347e-007 
0.224657 0.445486 -0.1 -1.1843 2.75431 3.27464e-007 
0.224657 0.445486 0.1 -1.11511 2.78304 3.16623e-007 
0.236593 0.449926 -0.1 -0.973657 2.83556 2.94186e-007 
0.236593 0.449926 0.1 -0.901386 2.85936 2.8259e-007 
0.24875 0.453422 -0.1 -0.753611 2.90172 2.58604e-007 
0.24875 0.453422 0.1 -0.678107 2.92029 2.46214e-007 
0.261074 0.455949 -0.1 -0.524168 2.95171 2.20672e-007 
0.261074 0.455949 0.1 -0.445732 2.96457 2.0752e-007 
0.273509 0.457483 -0.1 -0.28622 2.9841 1.80483e-007 
0.273509 0.457483 0.1 -0.205143 2.99077 1.66599e-007 
0.286 0.458 -0.1 -0.0245684 2.9966 1.35281e-007 
0.286 0.458 0.1 0.0749288 2.99576 1.17848e-007 
0.307497 0.456748 -0.1 0.297707 2.98002 7.82086e-008 
0.307497 0.456748 0.1 0.420988 2.96512 5.60016e-008 
0.327889 0.452986 -0.1 0.674708 2.91694 9.53375e-009 
0.327889 0.452986 0.1 0.805147 2.88366 -1.47276e-008 
0.347031 0.446703 -0.1 1.06853 2.79588 -6.46162e-008 
0.347031 0.446703 0.1 1.20148 2.74138 -9.02439e-008 
0.364778 0.437889 -0.1 1.4635 2.61019 -1.41792e-007 
0.364778 0.437889 0.1 1.59258 2.5335 -1.67713e-007 
0.380983 0.426533 -0.1 1.83957 2.35996 -2.18484e-007 
0.380983 0.426533 0.1 1.95748 2.26312 -2.43333e-007 
0.3955 0.412625 -0.1 2.17588 2.05434 -2.90644e-007 
0.3955 0.412625 0.1 2.27636 1.9424 -3.13107e-007 
0.408184 0.396155 -0.1 2.45628 1.71032 -3.54709e-007 
0.408184 0.396155 0.1 2.53572 1.59017 -3.73851e-007 
0.418889 0.377111 -0.1 2.67296 1.34878 -4.08398e-007 
0.418889 0.377111 0.1 2.73076 1.22754 -4.23804e-007 
0.427469 0.355484 -0.1 2.82675 0.989608 -4.50987e-007 
0.427469 0.355484 0.1 2.86494 0.872917 -4.62765e-007 
0.433778 0.331264 -0.1 2.92505 0.647736 -4.83119e-007 
0.433778 0.331264 0.1 2.94698 0.539246 -4.91695e-007 
0.43767 0.304439 -0.1 2.97826 0.332303 -5.0621e-007 
0.43767 0.304439 0.1 2.9876 0.233851 -5.12146e-007 
0.439 0.275 -0.1 2.99796 0.0902655 -5.20235e-007 
0.439 0.275 0.1 2.99898 0.0451327 -5.22385e-007 
0.439 4.37114e-009 -0.1 2 -1 -3.93403e-007 
0.439 -4.37114e-009 0.1 1 -2 -2.62269e-007 
0.35 4.37114e-009 -0.1 -1 -2 8.74228e-008 
0.35 -4.37114e-009 0.1 -2 -1 3.0598e-007 
0.35 0.278 -0.1 -2.99905 -0.0436835 5.2246e-007 
0.35 0.278 0.1 -2.99809 -0.0873669 5.20383e-007 
0.3493 0.294009 -0.1 -2.9887 -0.224102 5.12765e-007 
0.3493 0.294009 0.1 -2.98026 -0.317153 5.07222e-007 
0.347232 0.308991 -0.1 -2.95271 -0.510536 4.93952e-007 
0.347232 0.308991 0.1 -2.93359 -0.610868 4.86224e-007 
0.343844 0.322875 -0.1 -2.88196 -0.81811 4.68138e-007 
0.343844 0.322875 0.1 -2.84945 -0.925021 4.5778e-007 
0.339185 0.335593 -0.1 -2.76798 -1.14386 4.33969e-007 
0.339185 0.335593 0.1 -2.71903 -1.25579 4.20518e-007 
0.333304 0.347074 -0.1 -2.6019 -1.48152 3.90172e-007 
0.333304 0.347074 0.1 -2.53373 -1.59532 3.73278e-007 
0.32625 0.35725 -0.1 -2.37622 -1.82016 3.3591e-007 
0.32625 0.35725 0.1 -2.28688 -1.9312 3.15435e-007 
0.318071 0.366051 -0.1 -2.08721 -2.14437 2.71206e-007 
0.318071 0.366051 0.1 -1.97687 -2.2465 2.47449e-007 
0.308815 0.373407 -0.1 -1.73835 -2.43522 1.97496e-007 
0.308815 0.373407 0.1 -1.61017 -2.52181 1.71299e-007 
0.298531 0.37925 -0.1 -1.34172 -2.67428 1.17697e-007 
0.298531 0.37925 0.1 -1.20145 -2.74016 9.02919e-008 
0.287269 0.383509 -0.1 -0.916521 -2.8486 3.57334e-008 
0.287269 0.383509 0.1 -0.771863 -2.89115 8.5805e-009 
0.275075 0.386116 -0.1 -0.485592 -2.95352 -4.41991e-008 
0.275075 0.386116 0.1 -0.343979 -2.97335 -6.98258e-008 
0.262 0.387 -0.1 -0.0952311 -2.99466 -1.1425e-007 
0.262 0.387 0.1 0.011905 -2.99615 -1.33048e-007 
0.252406 0.386619 -0.1 0.203828 -2.99065 -1.66364e-007 
0.252406 0.386619 0.1 0.288616 -2.98366 -1.80884e-007 
0.243079 0.385449 -0.1 0.462599 -2.96135 -2.10329e-007 
0.243079 0.385449 0.1 0.551793 -2.94604 -2.25254e-007 
0.233953 0.383453 -0.1 0.730486 -2.90675 -2.5478e-007 
0.233953 0.383453 0.1 0.819984 -2.88279 -2.69381e-007 
0.224963 0.380593 -0.1 0.995062 -2.82723 -2.97564e-007 
0.224963 0.380593 0.1 1.08064 -2.79563 -3.11147e-007 
0.216042 0.376829 -0.1 1.24407 -2.72717 -3.36728e-007 
0.216042 0.376829 0.1 1.32192 -2.6903 -3.48728e-007 
0.207125 0.372125 -0.1 1.46794 -2.61395 -3.70922e-007 
0.207125 0.372125 0.1 1.53611 -2.57448 -3.81116e-007 
0.198145 0.366442 -0.1 1.66214 -2.49549 -3.99699e-007 
0.198145 0.366442 0.1 1.71999 -2.45597 -4.08087e-007 
0.189037 0.359741 -0.1 1.82564 -2.37901 -4.23195e-007 
0.189037 0.359741 0.1 1.87342 -2.34156 -4.29913e-007 
0.179734 0.351984 -0.1 1.96003 -2.27001 -4.41927e-007 
0.179734 0.351984 0.1 1.99884 -2.23591 -4.47223e-007 
0.170171 0.343134 -0.1 2.06884 -2.17167 -4.56654e-007 
0.170171 0.343134 0.1 2.10003 -2.14152 -4.60789e-007 
0.160282 0.333152 -0.1 2.15602 -2.08543 -4.68127e-007 
0.160282 0.333152 0.1 2.18081 -2.05948 -4.71328e-007 
0.15 0.322 -0.1 2.47041 -1.35569 -4.91199e-007 
0.15 0.322 0.1 2.7352 -0.677847 -5.07868e-007 
0.15 4.37114e-009 -0.1 2 -1 -3.93403e-007 
0.15 -4.37114e-009 0.1 1 -2 -2.62269e-007 
0.061 4.37114e-009 -0.1 -1 -2 8.74228e-008 
0.061 -4.37114e-009 0.1 -2 -1 3.0598e-007 
0.061 0.682 -0.1 -2 1 3.93403e-007 
0.061 0.682 0.1 -1 2 2.62269e-007 
0.15 0.682 -0.1 1 2 -8.74228e-008 
0.15 0.682 0.1 2 1 -3.0598e-007 
0.15 0.39 -0.1 2 1 -3.0598e-007 
0.15 0.39 0.1 1 2 -8.74228e-008 
3 53 55 54 
3 53 56 55 
3 11 13 12 
3 10 13 11 
3 10 14 13 
3 9 14 10 
3 8 14 9 
3 8 15 14 
3 7 15 8 
3 7 16 15 
3 6 16 7 
3 5 16 6 
3 5 17 16 
3 4 17 5 
3 3 17 4 
3 3 18 17 
3 2 18 3 
3 2 19 18 
3 1 19 2 
3 0 19 1 
3 0 39 19 
3 39 20 19 
3 53 0 56 
3 53 51 0 
3 51 50 0 
3 50 49 0 
3 49 48 0 
3 48 47 0 
3 47 46 0 
3 46 45 0 
3 45 44 0 
3 44 43 0 
3 43 42 0 
3 42 41 0 
3 41 40 0 
3 40 39 0 
3 38 20 39 
3 37 20 38 
3 36 20 37 
3 35 20 36 
3 35 21 20 
3 34 21 35 
3 33 21 34 
3 32 21 33 
3 32 22 21 
3 31 22 32 
3 30 22 31 
3 30 23 22 
3 29 23 30 
3 53 52 51 
3 28 23 29 
3 28 24 23 
3 27 24 28 
3 26 24 27 
3 26 25 24 
3 112 110 111 
3 113 110 112 
3 70 68 69 
3 70 67 68 
3 71 67 70 
3 71 66 67 
3 71 65 66 
3 72 65 71 
3 72 64 65 
3 73 64 72 
3 73 63 64 
3 73 62 63 
3 74 62 73 
3 74 61 62 
3 74 60 61 
3 75 60 74 
3 75 59 60 
3 76 59 75 
3 76 58 59 
3 76 57 58 
3 96 57 76 
3 77 96 76 
3 57 110 113 
3 108 110 57 
3 107 108 57 
3 106 107 57 
3 105 106 57 
3 104 105 57 
3 103 104 57 
3 102 103 57 
3 101 102 57 
3 100 101 57 
3 99 100 57 
3 98 99 57 
3 97 98 57 
3 96 97 57 
3 77 95 96 
3 77 94 95 
3 77 93 94 
3 77 92 93 
3 78 92 77 
3 78 91 92 
3 78 90 91 
3 78 89 90 
3 79 89 78 
3 79 88 89 
3 79 87 88 
3 80 87 79 
3 80 86 87 
3 109 110 108 
3 80 85 86 
3 81 85 80 
3 81 84 85 
3 81 83 84 
3 82 83 81 
3 115 117 116 
3 115 116 114 
3 117 119 118 
3 117 118 116 
3 119 121 120 
3 119 120 118 
3 121 123 122 
3 121 122 120 
3 123 125 124 
3 123 124 122 
3 125 127 126 
3 125 126 124 
3 127 129 128 
3 127 128 126 
3 129 131 130 
3 129 130 128 
3 131 133 132 
3 131 132 130 
3 133 135 134 
3 133 134 132 
3 135 137 136 
3 135 136 134 
3 137 139 138 
3 137 138 136 
3 139 141 140 
3 139 140 138 
3 141 143 142 
3 141 142 140 
3 143 145 144 
3 143 144 142 
3 145 147 146 
3 145 146 144 
3 147 149 148 
3 147 148 146 
3 149 151 150 
3 149 150 148 
3 151 153 152 
3 151 152 150 
3 153 155 154 
3 153 154 152 
3 155 157 156 
3 155 156 154 
3 157 159 158 
3 157 158 156 
3 159 161 160 
3 159 160 158 
3 161 163 162 
3 161 162 160 
3 163 165 164 
3 163 164 162 
3 165 167 166 
3 165 166 164 
3 167 169 168 
3 167 168 166 
3 169 171 170 
3 169 170 168 
3 171 173 172 
3 171 172 170 
3 173 175 174 
3 173 174 172 
3 175 177 176 
3 175 176 174 
3 177 179 178 
3 177 178 176 
3 179 181 180 
3 179 180 178 
3 181 183 182 
3 181 182 180 
3 183 185 184 
3 183 184 182 
3 185 187 186 
3 185 186 184 
3 187 189 188 
3 187 188 186 
3 189 191 190 
3 189 190 188 
3 191 193 192 
3 191 192 190 
3 193 195 194 
3 193 194 192 
3 195 197 196 
3 195 196 194 
3 197 199 198 
3 197 198 196 
3 199 201 200 
3 199 200 198 
3 201 203 202 
3 201 202 200 
3 203 205 204 
3 203 204 202 
3 205 207 206 
3 205 206 204 
3 207 209 208 
3 207 208 206 
3 209 211 210 
3 209 210 208 
3 211 213 212 
3 211 212 210 
3 213 215 214 
3 213 214 212 
3 215 217 216 
3 215 216 214 
3 217 219 218 
3 217 218 216 
3 219 221 220 
3 219 220 218 
3 221 223 222 
3 221 222 220 
3 223 225 224 
3 223 224 222 
3 225 227 226 
3 225 226 224 
3 227 115 114 
3 227 114 226 
