ply
format ascii 1.0
comment VCGLIB generated
element vertex 428
property float x
property float y
property float z
property float nx
property float ny
property float nz
element face 424
property list uchar int vertex_indices
end_header
0.148 0.39 0.1 3.51791e-009 -8.79479e-010 0.0201201 
0.159439 0.401001 0.1 1.3942e-009 -3.48549e-010 0.00797387 
0.170759 0.411009 0.1 1.1577e-009 -2.89425e-010 0.00662126 
0.181969 0.420031 0.1 9.4087e-010 -2.35218e-010 0.00538115 
0.193074 0.428074 0.1 7.4454e-010 -1.86135e-010 0.00425827 
0.204082 0.435145 0.1 5.69565e-010 -1.42391e-010 0.00325753 
0.215 0.44125 0.1 4.16684e-010 -1.04171e-010 0.00238315 
0.225835 0.446397 0.1 2.86665e-010 -7.16662e-011 0.00163953 
0.236593 0.450593 0.1 1.80184e-010 -4.5046e-011 0.00103053 
0.247281 0.453844 0.1 9.78962e-011 -2.4474e-011 0.000559901 
0.257907 0.456157 0.1 4.0428e-011 -1.0107e-011 0.000231221 
0.268478 0.457541 0.1 8.36785e-012 -2.09196e-012 4.78585e-005 
0.279 0.458 0.1 2.19738e-012 -5.49346e-013 1.25676e-005 
0.293038 0.457418 0.1 2.2035e-011 -5.50875e-012 0.000126026 
0.306634 0.455681 0.1 6.84044e-011 -1.71011e-011 0.000391227 
0.319766 0.452797 0.1 1.40623e-010 -3.51558e-011 0.00080427 
0.332407 0.448778 0.1 2.37926e-010 -5.94814e-011 0.00136078 
0.344535 0.443634 0.1 3.59545e-010 -8.98863e-011 0.00205636 
0.356125 0.437375 0.1 5.04666e-010 -1.26166e-010 0.00288635 
0.367152 0.430012 0.1 6.72437e-010 -1.68109e-010 0.00384589 
0.377593 0.421556 0.1 8.61979e-010 -2.15495e-010 0.00492994 
0.387422 0.412016 0.0999999 1.0724e-009 -2.68099e-010 0.00613339 
0.396616 0.401403 0.0999999 1.30269e-009 -3.25673e-010 0.00745053 
0.40515 0.389727 0.0999999 1.64086e-009 -4.10214e-010 0.0093846 
0.413 0.377 0.0999999 9.3802e-010 -2.34505e-010 0.00536485 
0.422922 0.387837 0.0999999 9.97866e-010 -2.49466e-010 0.00570713 
0.433208 0.398278 0.0999999 9.10607e-010 -2.27652e-010 0.00520807 
0.443891 0.408219 0.0999999 1.47192e-009 -3.67979e-010 0.00841838 
0.455 0.417556 0.0999999 1.18248e-009 -2.9562e-010 0.00676299 
0.466568 0.426184 0.0999999 5.58708e-010 -1.39677e-010 0.00319544 
0.478625 0.434 0.0999999 8.04878e-010 -2.0122e-010 0.00460337 
0.491203 0.440899 0.0999999 5.54718e-010 -1.38679e-010 0.00317262 
0.504333 0.446778 0.0999999 2.30144e-010 -5.75361e-011 0.00131627 
0.518047 0.451531 0.0999999 2.63876e-010 -6.5969e-011 0.00150919 
0.532375 0.455056 0.0999999 1.12672e-010 -2.81681e-011 0.00064441 
0.547349 0.457247 0.0999999 2.30786e-011 -5.76965e-012 0.000131994 
0.563 0.458 0.0999999 6.84073e-012 -1.71018e-012 3.91244e-005 
0.585048 0.456561 0.0999999 6.75168e-011 -1.68792e-011 0.000386151 
0.605634 0.452324 0.0999999 2.05018e-010 -5.12545e-011 0.00117257 
0.624672 0.445406 0.0999999 5.73671e-010 -1.43418e-010 0.00328101 
0.642074 0.435926 0.0999999 7.73946e-010 -1.93487e-010 0.00442646 
0.657754 0.424001 0.0999999 1.42562e-009 -3.56405e-010 0.00815361 
0.671625 0.40975 0.0999999 1.54822e-009 -3.87055e-010 0.0088548 
0.6836 0.393291 0.0999999 2.40792e-009 -6.0198e-010 0.0137717 
0.693593 0.374741 0.0999999 1.18559e-009 -2.96398e-010 0.00678078 
0.701516 0.354219 0.0999999 1.25689e-009 -3.14221e-010 0.00718855 
0.707282 0.331843 0.0999999 1.17126e-009 -2.92815e-010 0.00669882 
0.710806 0.30773 0.0999999 1.24963e-009 -3.12407e-010 0.00714704 
0.712 0.282 0.0999999 5.04498e-009 -1.26124e-009 0.0288539 
0.712 -4.37114e-009 0.0999999 8.7143e-009 -2.17858e-009 0.04984 
0.623 -4.37114e-009 0.0999999 4.32603e-009 -1.08151e-009 0.024742 
0.623 0.278 0.0999999 8.96934e-009 -2.24234e-009 0.0512987 
0.622144 0.294351 0.0999999 8.95653e-010 -2.23913e-010 0.00512254 
0.619653 0.309389 0.0999999 4.56211e-010 -1.14053e-010 0.00260922 
0.615641 0.323094 0.0999999 8.1519e-010 -2.03798e-010 0.00466235 
0.610222 0.335444 0.0999999 3.88217e-010 -9.70543e-011 0.00222034 
0.603512 0.34642 0.0999999 7.48245e-010 -1.87061e-010 0.00427946 
0.595625 0.356 0.0999999 3.23261e-010 -8.08153e-011 0.00184884 
0.586675 0.364163 0.0999999 2.66194e-010 -6.65485e-011 0.00152245 
0.576778 0.370889 0.0999999 6.5714e-010 -1.64285e-010 0.0037584 
0.566047 0.376156 0.0999999 1.96446e-010 -4.91115e-011 0.00112354 
0.554597 0.379944 0.0999999 1.26306e-010 -3.15765e-011 0.000722386 
0.542543 0.382233 0.0999999 4.84892e-011 -1.21223e-011 0.000277326 
0.53 0.383 0.0999999 8.54124e-010 -2.13531e-010 0.00488502 
0.522552 0.382719 0.0999999 2.2635e-010 -5.65875e-011 0.00129457 
0.514745 0.381417 0.0999999 5.10969e-011 -1.27742e-011 0.00029224 
0.506641 0.379156 0.0999999 8.24906e-011 -2.06226e-011 0.000471791 
0.498296 0.376 0.0999999 2.71267e-010 -6.78167e-011 0.00155146 
0.489771 0.37201 0.0999999 4.78447e-010 -1.19612e-010 0.0027364 
0.481125 0.36725 0.0999999 3.03898e-010 -7.59746e-011 0.0017381 
0.472416 0.361781 0.0999999 5.36983e-010 -1.34246e-010 0.00307118 
0.463704 0.355667 0.0999999 5.47668e-010 -1.36917e-010 0.0031323 
0.455047 0.348969 0.0999999 5.42854e-010 -1.35714e-010 0.00310476 
0.446505 0.34175 0.0999999 2.94131e-010 -7.35327e-011 0.00168223 
0.438136 0.334073 0.0999999 5.17183e-010 -1.29296e-010 0.00295794 
0.43 0.326 0.0999999 5.6092e-009 -1.4023e-009 0.0320809 
0.43 -4.37114e-009 0.0999999 9.94847e-009 -2.48712e-009 0.0568986 
0.341 -4.37114e-009 0.0999999 4.34159e-009 -1.0854e-009 0.024831 
0.341 0.279 0.1 4.57533e-009 -1.14383e-009 0.0261678 
0.340247 0.296381 0.1 3.66106e-010 -9.15265e-011 0.00209388 
0.338056 0.312051 0.1 5.60674e-009 -1.40169e-009 0.0320668 
0.334531 0.326047 0.1 5.98991e-010 -1.49748e-010 0.00342583 
0.329778 0.338407 0.1 7.71319e-010 -1.9283e-010 0.00441143 
0.323899 0.349171 0.1 6.33334e-010 -1.58333e-010 0.00362225 
0.317 0.358375 0.1 6.07204e-010 -1.51801e-010 0.0034728 
0.309184 0.366058 0.1 7.22103e-010 -1.80526e-010 0.00412995 
0.300556 0.372259 0.1 5.28779e-010 -1.32195e-010 0.00302426 
0.291219 0.377016 0.1 1.72567e-010 -4.31419e-011 0.000986971 
0.281278 0.380366 0.1 1.10806e-010 -2.77014e-011 0.000633735 
0.270837 0.382348 0.1 4.55754e-011 -1.13938e-011 0.000260661 
0.26 0.383 0.1 3.43568e-010 -8.5892e-011 0.00196498 
0.24905 0.3827 0.1 3.58476e-010 -8.96189e-011 0.00205024 
0.238648 0.381764 0.1 6.98359e-011 -1.7459e-011 0.000399415 
0.228719 0.380141 0.1 8.98062e-011 -2.24516e-011 0.000513632 
0.219185 0.377778 0.1 1.08743e-010 -2.71857e-011 0.000621936 
0.209971 0.374623 0.1 1.26397e-010 -3.15994e-011 0.000722909 
0.201 0.370625 0.1 1.42616e-010 -3.56539e-011 0.000815667 
0.192196 0.365731 0.1 1.57301e-010 -3.93252e-011 0.000899656 
0.183481 0.359889 0.1 1.70374e-010 -4.25934e-011 0.000974423 
0.174781 0.353047 0.1 1.81825e-010 -4.54562e-011 0.00103992 
0.166019 0.345153 0.1 1.91728e-010 -4.79319e-011 0.00109655 
0.157117 0.336155 0.1 2.00172e-010 -5.0043e-011 0.00114485 
0.148 0.326 0.1 6.17091e-009 -1.54273e-009 0.0352935 
0.148 -4.37114e-009 0.1 5.07297e-009 -1.26824e-009 0.029014 
0.059 -4.37114e-009 0.1 1.3974e-008 -3.4935e-009 0.079922 
0.059 0.449 0.1 6.987e-009 -1.74675e-009 0.039961 
0.148 0.449 0.1 7.90512e-009 -1.97628e-009 0.045212 
0.148 0.39 -0.1 -3.51791e-009 8.79479e-010 -0.0201201 
0.159439 0.401001 -0.1 -1.3942e-009 3.48549e-010 -0.00797387 
0.170759 0.411009 -0.1 -1.1577e-009 2.89425e-010 -0.00662126 
0.181969 0.420031 -0.1 -9.4087e-010 2.35218e-010 -0.00538115 
0.193074 0.428074 -0.1 -7.4454e-010 1.86135e-010 -0.00425827 
0.204082 0.435145 -0.1 -5.69565e-010 1.42391e-010 -0.00325753 
0.215 0.44125 -0.1 -4.16684e-010 1.04171e-010 -0.00238315 
0.225835 0.446397 -0.1 -2.86665e-010 7.16662e-011 -0.00163953 
0.236593 0.450593 -0.1 -1.80184e-010 4.5046e-011 -0.00103053 
0.247281 0.453844 -0.1 -9.78962e-011 2.4474e-011 -0.000559901 
0.257907 0.456157 -0.1 -4.0428e-011 1.0107e-011 -0.000231221 
0.268478 0.457541 -0.1 -8.36785e-012 2.09196e-012 -4.78585e-005 
0.279 0.458 -0.1 -2.19738e-012 5.49346e-013 -1.25676e-005 
0.293038 0.457418 -0.1 -2.2035e-011 5.50875e-012 -0.000126026 
0.306634 0.455681 -0.1 -6.84044e-011 1.71011e-011 -0.000391227 
0.319766 0.452797 -0.1 -1.40623e-010 3.51558e-011 -0.00080427 
0.332407 0.448778 -0.1 -2.37926e-010 5.94814e-011 -0.00136078 
0.344535 0.443634 -0.1 -3.59545e-010 8.98863e-011 -0.00205636 
0.356125 0.437375 -0.1 -5.04666e-010 1.26166e-010 -0.00288635 
0.367152 0.430012 -0.1 -6.72437e-010 1.68109e-010 -0.00384589 
0.377593 0.421556 -0.1 -8.61979e-010 2.15495e-010 -0.00492994 
0.387422 0.412016 -0.1 -1.0724e-009 2.68099e-010 -0.00613339 
0.396616 0.401403 -0.1 -1.30269e-009 3.25673e-010 -0.00745053 
0.40515 0.389727 -0.1 -1.64086e-009 4.10214e-010 -0.0093846 
0.413 0.377 -0.1 -9.3802e-010 2.34505e-010 -0.00536485 
0.422922 0.387837 -0.1 -9.97866e-010 2.49466e-010 -0.00570713 
0.433208 0.398278 -0.1 -9.10607e-010 2.27652e-010 -0.00520807 
0.443891 0.408219 -0.1 -1.47192e-009 3.67979e-010 -0.00841838 
0.455 0.417556 -0.1 -1.18248e-009 2.9562e-010 -0.00676299 
0.466568 0.426184 -0.1 -5.58708e-010 1.39677e-010 -0.00319544 
0.478625 0.434 -0.1 -8.04878e-010 2.0122e-010 -0.00460337 
0.491203 0.440899 -0.1 -5.54718e-010 1.38679e-010 -0.00317262 
0.504333 0.446778 -0.1 -2.30144e-010 5.75361e-011 -0.00131627 
0.518047 0.451531 -0.1 -2.63876e-010 6.5969e-011 -0.00150919 
0.532375 0.455056 -0.1 -1.12672e-010 2.81681e-011 -0.00064441 
0.547349 0.457247 -0.1 -2.30786e-011 5.76965e-012 -0.000131994 
0.563 0.458 -0.1 -6.84073e-012 1.71018e-012 -3.91244e-005 
0.585048 0.456561 -0.1 -6.75168e-011 1.68792e-011 -0.000386151 
0.605634 0.452324 -0.1 -2.05018e-010 5.12545e-011 -0.00117257 
0.624672 0.445406 -0.1 -5.73671e-010 1.43418e-010 -0.00328101 
0.642074 0.435926 -0.1 -7.73946e-010 1.93487e-010 -0.00442646 
0.657754 0.424001 -0.1 -1.42562e-009 3.56405e-010 -0.00815361 
0.671625 0.40975 -0.1 -1.54822e-009 3.87055e-010 -0.0088548 
0.6836 0.393291 -0.1 -2.40792e-009 6.0198e-010 -0.0137717 
0.693593 0.374741 -0.1 -1.18559e-009 2.96397e-010 -0.00678078 
0.701516 0.354219 -0.1 -1.25689e-009 3.14221e-010 -0.00718855 
0.707282 0.331843 -0.1 -1.17126e-009 2.92815e-010 -0.00669882 
0.710806 0.30773 -0.1 -1.24963e-009 3.12407e-010 -0.00714704 
0.712 0.282 -0.1 -5.04498e-009 1.26124e-009 -0.0288539 
0.712 4.37114e-009 -0.1 -8.7143e-009 2.17858e-009 -0.04984 
0.623 4.37114e-009 -0.1 -4.32603e-009 1.08151e-009 -0.024742 
0.623 0.278 -0.1 -8.96934e-009 2.24234e-009 -0.0512987 
0.622144 0.294351 -0.1 -8.95653e-010 2.23913e-010 -0.00512254 
0.619653 0.309389 -0.1 -4.56211e-010 1.14053e-010 -0.00260922 
0.615641 0.323094 -0.1 -8.1519e-010 2.03798e-010 -0.00466235 
0.610222 0.335444 -0.1 -3.88217e-010 9.70543e-011 -0.00222034 
0.603512 0.34642 -0.1 -7.48245e-010 1.87061e-010 -0.00427946 
0.595625 0.356 -0.1 -3.23261e-010 8.08153e-011 -0.00184884 
0.586675 0.364163 -0.1 -2.66194e-010 6.65485e-011 -0.00152245 
0.576778 0.370889 -0.1 -6.5714e-010 1.64285e-010 -0.0037584 
0.566047 0.376156 -0.1 -1.96446e-010 4.91115e-011 -0.00112354 
0.554597 0.379944 -0.1 -1.26306e-010 3.15765e-011 -0.000722386 
0.542543 0.382233 -0.1 -4.84893e-011 1.21223e-011 -0.000277326 
0.53 0.383 -0.1 -8.54124e-010 2.13531e-010 -0.00488502 
0.522552 0.382719 -0.1 -2.2635e-010 5.65875e-011 -0.00129457 
0.514745 0.381417 -0.1 -5.10969e-011 1.27742e-011 -0.00029224 
0.506641 0.379156 -0.1 -8.24906e-011 2.06226e-011 -0.000471791 
0.498296 0.376 -0.1 -2.71267e-010 6.78167e-011 -0.00155146 
0.489771 0.37201 -0.1 -4.78447e-010 1.19612e-010 -0.0027364 
0.481125 0.36725 -0.1 -3.03898e-010 7.59746e-011 -0.0017381 
0.472416 0.361781 -0.1 -5.36983e-010 1.34246e-010 -0.00307118 
0.463704 0.355667 -0.1 -5.47668e-010 1.36917e-010 -0.0031323 
0.455047 0.348969 -0.1 -5.42854e-010 1.35714e-010 -0.00310476 
0.446505 0.34175 -0.1 -2.94131e-010 7.35327e-011 -0.00168223 
0.438136 0.334073 -0.1 -5.17183e-010 1.29296e-010 -0.00295794 
0.43 0.326 -0.1 -5.6092e-009 1.4023e-009 -0.0320809 
0.43 4.37114e-009 -0.1 -9.94847e-009 2.48712e-009 -0.0568986 
0.341 4.37114e-009 -0.1 -4.34159e-009 1.0854e-009 -0.024831 
0.341 0.279 -0.1 -4.57533e-009 1.14383e-009 -0.0261678 
0.340247 0.296381 -0.1 -3.66106e-010 9.15265e-011 -0.00209388 
0.338056 0.312051 -0.1 -5.60674e-009 1.40169e-009 -0.0320668 
0.334531 0.326047 -0.1 -5.98991e-010 1.49748e-010 -0.00342583 
0.329778 0.338407 -0.1 -7.71319e-010 1.9283e-010 -0.00441143 
0.323899 0.349171 -0.1 -6.33334e-010 1.58333e-010 -0.00362225 
0.317 0.358375 -0.1 -6.07204e-010 1.51801e-010 -0.0034728 
0.309184 0.366058 -0.1 -7.22103e-010 1.80526e-010 -0.00412995 
0.300556 0.372259 -0.1 -5.28779e-010 1.32195e-010 -0.00302426 
0.291219 0.377016 -0.1 -1.72567e-010 4.31419e-011 -0.000986971 
0.281278 0.380366 -0.1 -1.10806e-010 2.77014e-011 -0.000633735 
0.270837 0.382348 -0.1 -4.55754e-011 1.13938e-011 -0.000260661 
0.26 0.383 -0.1 -3.43568e-010 8.5892e-011 -0.00196498 
0.24905 0.3827 -0.1 -3.58476e-010 8.96189e-011 -0.00205024 
0.238648 0.381764 -0.1 -6.98359e-011 1.7459e-011 -0.000399415 
0.228719 0.380141 -0.1 -8.98062e-011 2.24516e-011 -0.000513632 
0.219185 0.377778 -0.1 -1.08743e-010 2.71857e-011 -0.000621936 
0.209971 0.374623 -0.1 -1.26397e-010 3.15994e-011 -0.000722909 
0.201 0.370625 -0.1 -1.42616e-010 3.56539e-011 -0.000815667 
0.192196 0.365731 -0.1 -1.57301e-010 3.93252e-011 -0.000899656 
0.183481 0.359889 -0.1 -1.70374e-010 4.25934e-011 -0.000974423 
0.174781 0.353047 -0.1 -1.81825e-010 4.54562e-011 -0.00103992 
0.166019 0.345153 -0.1 -1.91728e-010 4.79319e-011 -0.00109655 
0.157117 0.336155 -0.1 -2.00172e-010 5.0043e-011 -0.00114485 
0.148 0.326 -0.1 -6.17091e-009 1.54273e-009 -0.0352935 
0.148 4.37114e-009 -0.1 -5.07297e-009 1.26824e-009 -0.029014 
0.059 4.37114e-009 -0.1 -1.3974e-008 3.4935e-009 -0.079922 
0.059 0.449 -0.1 -6.987e-009 1.74675e-009 -0.039961 
0.148 0.449 -0.1 -7.90512e-009 1.97628e-009 -0.045212 
0.148 0.39 -0.1 1.30683 0.720771 -1.96987e-007 
0.148 0.39 0.1 -0.386347 1.44154 1.30563e-007 
0.159439 0.401001 -0.1 -2.0487 2.19073 4.53967e-007 
0.159439 0.401001 0.1 -2.01789 2.21915 4.49821e-007 
0.170759 0.411009 -0.1 -1.95169 2.27741 4.40794e-007 
0.170759 0.411009 0.1 -1.91632 2.30726 4.35913e-007 
0.181969 0.420031 -0.1 -1.84054 2.36796 4.25317e-007 
0.181969 0.420031 0.1 -1.80014 2.39882 4.19602e-007 
0.193074 0.428074 -0.1 -1.71361 2.46116 4.07198e-007 
0.193074 0.428074 0.1 -1.66749 2.49264 4.0051e-007 
0.204082 0.435145 -0.1 -1.56896 2.55556 3.86033e-007 
0.204082 0.435145 0.1 -1.51656 2.587 3.78245e-007 
0.215 0.44125 -0.1 -1.40518 2.6489 3.61477e-007 
0.215 0.44125 0.1 -1.34622 2.67935 3.52498e-007 
0.225835 0.446397 -0.1 -1.22154 2.73817 3.3327e-007 
0.225835 0.446397 0.1 -1.15583 2.76655 3.23021e-007 
0.236593 0.450593 -0.1 -1.01776 2.82001 3.01216e-007 
0.236593 0.450593 0.1 -0.945392 2.84508 2.8966e-007 
0.247281 0.453844 -0.1 -0.794711 2.89056 2.65302e-007 
0.247281 0.453844 0.1 -0.716393 2.91096 2.525e-007 
0.257907 0.456157 -0.1 -0.555199 2.94578 2.25838e-007 
0.257907 0.456157 0.1 -0.472323 2.9602 2.11978e-007 
0.268478 0.457541 -0.1 -0.303214 2.98213 1.83368e-007 
0.268478 0.457541 0.1 -0.216981 2.98964 1.68619e-007 
0.279 0.458 -0.1 -0.0457417 2.99724 1.39011e-007 
0.279 0.458 0.1 0.0392651 2.99733 1.24152e-007 
0.293038 0.457418 -0.1 0.209576 2.99022 9.40633e-008 
0.293038 0.457418 0.1 0.29488 2.98302 7.88333e-008 
0.306634 0.455681 -0.1 0.46796 2.9606 4.75911e-008 
0.306634 0.455681 0.1 0.555736 2.94538 3.15788e-008 
0.319766 0.452797 -0.1 0.731997 2.90644 -9.41895e-010 
0.319766 0.452797 0.1 0.820482 2.88271 -1.74502e-008 
0.332407 0.448778 -0.1 0.99645 2.8266 -5.067e-008 
0.332407 0.448778 0.1 1.08393 2.79422 -6.73814e-008 
0.344535 0.443634 -0.1 1.25612 2.72112 -1.00682e-007 
0.344535 0.443634 0.1 1.34082 2.6804 -1.17272e-007 
0.356125 0.437375 -0.1 1.50565 2.59143 -1.49982e-007 
0.356125 0.437375 0.1 1.58579 2.54318 -1.66103e-007 
0.367152 0.430012 -0.1 1.73999 2.4404 -1.97556e-007 
0.367152 0.430012 0.1 1.81404 2.38586 -2.12888e-007 
0.377593 0.421556 -0.1 1.95521 2.27179 -2.42557e-007 
0.377593 0.421556 0.1 2.02232 2.21226 -2.56893e-007 
0.387422 0.412016 -0.1 2.14878 2.08993 -2.84352e-007 
0.387422 0.412016 0.0999999 2.20813 2.02712 -2.97474e-007 
0.396616 0.401403 -0.1 2.31899 1.89963 -3.22431e-007 
0.396616 0.401403 0.0999999 2.37051 1.83494 -3.34265e-007 
0.40515 0.389727 -0.1 2.4658 1.70514 -3.56601e-007 
0.40515 0.389727 0.0999999 2.50958 1.64002 -3.67102e-007 
0.413 0.377 -0.1 0.964683 1.72522 -9.32587e-008 
0.413 0.377 0.0999999 -0.623995 1.87554 1.91085e-007 
0.422922 0.387837 -0.1 -2.18749 2.05237 4.72185e-007 
0.422922 0.387837 0.0999999 -2.16231 2.07888 4.68941e-007 
0.433208 0.398278 -0.1 -2.10598 2.13567 4.61574e-007 
0.433208 0.398278 0.0999999 -2.07483 2.16594 4.57451e-007 
0.443891 0.408219 -0.1 -2.00586 2.22967 4.48178e-007 
0.443891 0.408219 0.0999999 -1.96805 2.26312 4.43028e-007 
0.455 0.417556 -0.1 -1.88469 2.33264 4.31493e-007 
0.455 0.417556 0.0999999 -1.83915 2.36871 4.25107e-007 
0.466568 0.426184 -0.1 -1.7397 2.4423 4.10935e-007 
0.466568 0.426184 0.0999999 -1.68578 2.47982 4.03148e-007 
0.478625 0.434 -0.1 -1.56882 2.555 3.85984e-007 
0.478625 0.434 0.0999999 -1.50577 2.59265 3.76606e-007 
0.491203 0.440899 -0.1 -1.37047 2.66623 3.56166e-007 
0.491203 0.440899 0.0999999 -1.29822 2.70215 3.45103e-007 
0.504333 0.446778 -0.1 -1.14479 2.77024 3.21252e-007 
0.504333 0.446778 0.0999999 -1.0636 2.80241 3.08463e-007 
0.518047 0.451531 -0.1 -0.893841 2.86077 2.81332e-007 
0.518047 0.451531 0.0999999 -0.805269 2.88695 2.6699e-007 
0.532375 0.455056 -0.1 -0.622576 2.93155 2.36997e-007 
0.532375 0.455056 0.0999999 -0.528454 2.94997 2.21345e-007 
0.547349 0.457247 -0.1 -0.337612 2.97777 1.89192e-007 
0.547349 0.457247 0.0999999 -0.240892 2.98715 1.72691e-007 
0.563 0.458 -0.1 -0.030986 2.99557 1.36358e-007 
0.563 0.458 0.0999999 0.0821995 2.9946 1.16526e-007 
0.585048 0.456561 -0.1 0.331851 2.97522 7.20285e-008 
0.585048 0.456561 0.0999999 0.468317 2.95682 4.73634e-008 
0.605634 0.452324 -0.1 0.744717 2.89881 -3.49954e-009 
0.605634 0.452324 0.0999999 0.884652 2.85921 -2.96974e-008 
0.624672 0.445406 -0.1 1.16144 2.75789 -8.2522e-008 
0.624672 0.445406 0.0999999 1.2983 2.69617 -1.09149e-007 
0.642074 0.435926 -0.1 1.56212 2.55226 -1.61566e-007 
0.642074 0.435926 0.0999999 1.68908 2.47007 -1.87357e-007 
0.657754 0.424001 -0.1 1.92729 2.28941 -2.36904e-007 
0.657754 0.424001 0.0999999 2.03854 2.19094 -2.6066e-007 
0.671625 0.40975 -0.1 2.24182 1.9833 -3.05278e-007 
0.671625 0.40975 0.0999999 2.33384 1.87414 -3.26141e-007 
0.6836 0.393291 -0.1 2.49763 1.65092 -3.64535e-007 
0.6836 0.393291 0.0999999 2.56939 1.53686 -3.82067e-007 
0.693593 0.374741 -0.1 2.69365 1.3087 -4.13768e-007 
0.693593 0.374741 0.0999999 2.74616 1.19459 -4.27937e-007 
0.701516 0.354219 -0.1 2.83414 0.96986 -4.53144e-007 
0.701516 0.354219 0.0999999 2.86962 0.859235 -4.64182e-007 
0.707282 0.331843 -0.1 2.92622 0.643682 -4.835e-007 
0.707282 0.331843 0.0999999 2.94734 0.538755 -4.9178e-007 
0.710806 0.30773 -0.1 2.9779 0.335574 -5.06005e-007 
0.710806 0.30773 0.0999999 2.98734 0.23732 -5.11949e-007 
0.712 0.282 -0.1 2.99785 0.0927103 -5.20108e-007 
0.712 0.282 0.0999999 2.99892 0.0463551 -5.22322e-007 
0.712 4.37114e-009 -0.1 2 -1 -3.93402e-007 
0.712 -4.37114e-009 0.0999999 1 -2 -2.62268e-007 
0.623 4.37114e-009 -0.1 -1 -2 8.74228e-008 
0.623 -4.37114e-009 0.0999999 -2 -1 3.0598e-007 
0.623 0.278 -0.1 -2.99863 -0.0522825 5.22012e-007 
0.623 0.278 0.0999999 -2.99726 -0.104565 5.19488e-007 
0.622144 0.294351 -0.1 -2.98382 -0.267985 5.09994e-007 
0.622144 0.294351 0.0999999 -2.97175 -0.379123 5.03024e-007 
0.619653 0.309389 -0.1 -2.93284 -0.607788 4.86226e-007 
0.619653 0.309389 0.0999999 -2.906 -0.725316 4.76397e-007 
0.615641 0.323094 -0.1 -2.83517 -0.963704 4.53592e-007 
0.615641 0.323094 0.0999999 -2.79117 -1.08456 4.40616e-007 
0.610222 0.335444 -0.1 -2.68464 -1.3252 4.11472e-007 
0.610222 0.335444 0.0999999 -2.62212 -1.44498 3.95303e-007 
0.603512 0.34642 -0.1 -2.47842 -1.67877 3.59959e-007 
0.603512 0.34642 0.0999999 -2.39725 -1.79277 3.40784e-007 
0.595625 0.356 -0.1 -2.21793 -2.01003 2.99934e-007 
0.595625 0.356 0.0999999 -2.11978 -2.11328 2.78259e-007 
0.586675 0.364163 -0.1 -1.90984 -2.30477 2.33182e-007 
0.586675 0.364163 0.0999999 -1.79804 -2.393 2.09778e-007 
0.576778 0.370889 -0.1 -1.56478 -2.55186 1.62049e-007 
0.576778 0.370889 0.0999999 -1.4433 -2.62248 1.37723e-007 
0.566047 0.376156 -0.1 -1.19531 -2.74479 8.90154e-008 
0.566047 0.376156 0.0999999 -1.06878 -2.79649 6.46339e-008 
0.554597 0.379944 -0.1 -0.814736 -2.88123 1.65103e-008 
0.554597 0.379944 0.0999999 -0.687209 -2.91428 -7.23179e-009 
0.542543 0.382233 -0.1 -0.434157 -2.96302 -5.36075e-008 
0.542543 0.382233 0.0999999 -0.308631 -2.97871 -7.62411e-008 
0.53 0.383 -0.1 -0.0843714 -2.99556 -1.16188e-007 
0.53 0.383 0.0999999 0.014362 -2.99671 -1.33502e-007 
0.522552 0.382719 -0.1 0.239898 -2.98496 -1.72422e-007 
0.522552 0.382719 0.0999999 0.366702 -2.97204 -1.94028e-007 
0.514745 0.381417 -0.1 0.597739 -2.93597 -2.32847e-007 
0.514745 0.381417 0.0999999 0.701972 -2.9128 -2.5006e-007 
0.506641 0.379156 -0.1 0.891211 -2.86177 -2.80916e-007 
0.506641 0.379156 0.0999999 0.976215 -2.8339 -2.94561e-007 
0.498296 0.376 -0.1 1.13138 -2.7764 -3.19177e-007 
0.498296 0.376 0.0999999 1.20155 -2.74676 -3.3015e-007 
0.489771 0.37201 -0.1 1.33009 -2.68743 -3.50032e-007 
0.489771 0.37201 0.0999999 1.38847 -2.65774 -3.58941e-007 
0.481125 0.36725 -0.1 1.49637 -2.5989 -3.75236e-007 
0.481125 0.36725 0.0999999 1.5459 -2.56975 -3.82621e-007 
0.472416 0.361781 -0.1 1.63806 -2.51227 -3.96222e-007 
0.472416 0.361781 0.0999999 1.6807 -2.48395 -4.02439e-007 
0.463704 0.355667 -0.1 1.76082 -2.428 -4.14003e-007 
0.463704 0.355667 0.0999999 1.79831 -2.40036 -4.1935e-007 
0.455047 0.348969 -0.1 1.86935 -2.34559 -4.29376e-007 
0.455047 0.348969 0.0999999 1.9029 -2.31846 -4.34056e-007 
0.446505 0.34175 -0.1 1.96695 -2.26447 -4.42895e-007 
0.446505 0.34175 0.0999999 1.99745 -2.23761 -4.47054e-007 
0.438136 0.334073 -0.1 2.05632 -2.18368 -4.5499e-007 
0.438136 0.334073 0.0999999 2.08469 -2.15662 -4.58767e-007 
0.43 0.326 -0.1 2.40871 -1.4197 -4.83209e-007 
0.43 0.326 0.0999999 2.70435 -0.70985 -5.03873e-007 
0.43 4.37114e-009 -0.1 2 -1 -3.93402e-007 
0.43 -4.37114e-009 0.0999999 1 -2 -2.62268e-007 
0.341 4.37114e-009 -0.1 -1 -2 8.74228e-008 
0.341 -4.37114e-009 0.0999999 -2 -1 3.0598e-007 
0.341 0.279 -0.1 -2.99906 -0.0432818 5.22481e-007 
0.341 0.279 0.1 -2.99813 -0.0865636 5.20425e-007 
0.340247 0.296381 -0.1 -2.98849 -0.225038 5.12688e-007 
0.340247 0.296381 0.1 -2.97979 -0.320231 5.07006e-007 
0.338056 0.312051 -0.1 -2.95045 -0.521179 4.93091e-007 
0.338056 0.312051 0.1 -2.9298 -0.626935 4.84858e-007 
0.334531 0.326047 -0.1 -2.8728 -0.847385 4.65256e-007 
0.334531 0.326047 0.1 -2.83645 -0.962079 4.53887e-007 
0.329778 0.338407 -0.1 -2.74436 -1.19719 4.27509e-007 
0.329778 0.338407 0.1 -2.68863 -1.3176 4.12501e-007 
0.323899 0.349171 -0.1 -2.55543 -1.55845 3.78683e-007 
0.323899 0.349171 0.1 -2.47796 -1.67889 3.59874e-007 
0.317 0.358375 -0.1 -2.30135 -1.9127 3.18773e-007 
0.317 0.358375 0.1 -2.20219 -2.02607 2.96481e-007 
0.309184 0.366058 -0.1 -1.98564 -2.23833 2.49339e-007 
0.309184 0.366058 0.1 -1.86824 -2.33721 2.2449e-007 
0.300556 0.372259 -0.1 -1.62118 -2.51509 1.73519e-007 
0.300556 0.372259 0.1 -1.49153 -2.59408 1.47396e-007 
0.291219 0.377016 -0.1 -1.22726 -2.72969 9.52625e-008 
0.291219 0.377016 0.1 -1.09264 -2.7863 6.92508e-008 
0.281278 0.380366 -0.1 -0.825184 -2.87773 1.849e-008 
0.281278 0.380366 0.1 -0.692339 -2.91255 -6.25916e-009 
0.270837 0.382348 -0.1 -0.433051 -2.96311 -5.38045e-008 
0.270837 0.382348 0.1 -0.306607 -2.97885 -7.66007e-008 
0.26 0.383 -0.1 -0.0927223 -2.99602 -1.14748e-007 
0.26 0.383 0.1 -0.00528195 -2.99745 -1.30099e-007 
0.24905 0.3827 -0.1 0.144393 -2.99523 -1.56172e-007 
0.24905 0.3827 0.1 0.206627 -2.99158 -1.66894e-007 
0.238648 0.381764 -0.1 0.340561 -2.97885 -1.89755e-007 
0.238648 0.381764 0.1 0.412261 -2.96978 -2.01895e-007 
0.228719 0.380141 -0.1 0.56321 -2.94444 -2.2718e-007 
0.228719 0.380141 0.1 0.642461 -2.92817 -2.40326e-007 
0.219185 0.377778 -0.1 0.805089 -2.88734 -2.66976e-007 
0.219185 0.377778 0.1 0.888467 -2.86278 -2.80481e-007 
0.209971 0.374623 -0.1 1.05496 -2.80555 -3.0709e-007 
0.209971 0.374623 0.1 1.13808 -2.77287 -3.20194e-007 
0.201 0.370625 -0.1 1.29999 -2.70083 -3.45355e-007 
0.201 0.370625 0.1 1.37879 -2.66147 -3.57411e-007 
0.192196 0.365731 -0.1 1.52853 -2.57871 -3.79976e-007 
0.192196 0.365731 0.1 1.59948 -2.53532 -3.90484e-007 
0.183481 0.359889 -0.1 1.73179 -2.44732 -4.09772e-007 
0.183481 0.359889 0.1 1.79315 -2.40273 -4.18551e-007 
0.174781 0.353047 -0.1 1.90569 -2.31503 -4.34395e-007 
0.174781 0.353047 0.1 1.95687 -2.27194 -4.4146e-007 
0.166019 0.345153 -0.1 2.04959 -2.1892 -4.54054e-007 
0.166019 0.345153 0.1 2.09113 -2.14956 -4.59584e-007 
0.157117 0.336155 -0.1 2.16589 -2.07466 -4.69383e-007 
0.157117 0.336155 0.1 2.19912 -2.03941 -4.73651e-007 
0.148 0.326 -0.1 2.48823 -1.33611 -4.93458e-007 
0.148 0.326 0.1 2.74411 -0.668053 -5.08998e-007 
0.148 4.37114e-009 -0.1 2 -1 -3.93402e-007 
0.148 -4.37114e-009 0.1 1 -2 -2.62268e-007 
0.059 4.37114e-009 -0.1 -1 -2 8.74228e-008 
0.059 -4.37114e-009 0.1 -2 -1 3.0598e-007 
0.059 0.449 -0.1 -2 1 3.93402e-007 
0.059 0.449 0.1 -1 2 2.62268e-007 
0.148 0.449 -0.1 1 2 -8.74228e-008 
0.148 0.449 0.1 2 1 -3.0598e-007 
3 11 13 12 
3 35 37 36 
3 10 13 11 
3 10 14 13 
3 34 37 35 
3 34 38 37 
3 9 14 10 
3 9 15 14 
3 33 38 34 
3 8 15 9 
3 8 16 15 
3 33 39 38 
3 32 39 33 
3 7 16 8 
3 104 106 105 
3 104 0 106 
3 7 17 16 
3 31 39 32 
3 6 17 7 
3 31 40 39 
3 6 18 17 
3 5 18 6 
3 30 40 31 
3 5 19 18 
3 30 41 40 
3 4 19 5 
3 29 41 30 
3 4 20 19 
3 3 20 4 
3 28 41 29 
3 28 42 41 
3 3 21 20 
3 2 21 3 
3 27 42 28 
3 2 22 21 
3 1 22 2 
3 27 43 42 
3 26 43 27 
3 1 23 22 
3 0 23 1 
3 25 43 26 
3 25 63 43 
3 63 44 43 
3 104 102 0 
3 102 101 0 
3 101 100 0 
3 100 99 0 
3 99 98 0 
3 98 97 0 
3 97 96 0 
3 96 95 0 
3 95 94 0 
3 94 93 0 
3 93 92 0 
3 92 91 0 
3 91 23 0 
3 91 90 23 
3 90 24 23 
3 24 64 25 
3 64 63 25 
3 89 24 90 
3 62 44 63 
3 24 65 64 
3 88 24 89 
3 61 44 62 
3 24 66 65 
3 87 24 88 
3 60 44 61 
3 24 67 66 
3 86 24 87 
3 86 67 24 
3 59 44 60 
3 86 68 67 
3 59 45 44 
3 85 68 86 
3 85 69 68 
3 58 45 59 
3 85 70 69 
3 84 70 85 
3 57 45 58 
3 84 71 70 
3 83 71 84 
3 56 45 57 
3 83 72 71 
3 56 46 45 
3 82 72 83 
3 82 73 72 
3 55 46 56 
3 82 74 73 
3 81 74 82 
3 54 46 55 
3 81 75 74 
3 54 47 46 
3 80 75 81 
3 104 103 102 
3 80 76 75 
3 53 47 54 
3 79 76 80 
3 52 47 53 
3 52 48 47 
3 78 76 79 
3 51 48 52 
3 51 49 48 
3 77 76 78 
3 50 49 51 
3 120 118 119 
3 144 142 143 
3 120 117 118 
3 121 117 120 
3 144 141 142 
3 145 141 144 
3 121 116 117 
3 122 116 121 
3 145 140 141 
3 122 115 116 
3 123 115 122 
3 146 140 145 
3 146 139 140 
3 123 114 115 
3 213 211 212 
3 107 211 213 
3 124 114 123 
3 146 138 139 
3 124 113 114 
3 147 138 146 
3 125 113 124 
3 125 112 113 
3 147 137 138 
3 126 112 125 
3 148 137 147 
3 126 111 112 
3 148 136 137 
3 127 111 126 
3 127 110 111 
3 148 135 136 
3 149 135 148 
3 128 110 127 
3 128 109 110 
3 149 134 135 
3 129 109 128 
3 129 108 109 
3 150 134 149 
3 150 133 134 
3 130 108 129 
3 130 107 108 
3 150 132 133 
3 170 132 150 
3 151 170 150 
3 209 211 107 
3 208 209 107 
3 207 208 107 
3 206 207 107 
3 205 206 107 
3 204 205 107 
3 203 204 107 
3 202 203 107 
3 201 202 107 
3 200 201 107 
3 199 200 107 
3 198 199 107 
3 130 198 107 
3 197 198 130 
3 131 197 130 
3 171 131 132 
3 170 171 132 
3 131 196 197 
3 151 169 170 
3 172 131 171 
3 131 195 196 
3 151 168 169 
3 173 131 172 
3 131 194 195 
3 151 167 168 
3 174 131 173 
3 131 193 194 
3 174 193 131 
3 151 166 167 
3 175 193 174 
3 152 166 151 
3 175 192 193 
3 176 192 175 
3 152 165 166 
3 177 192 176 
3 177 191 192 
3 152 164 165 
3 178 191 177 
3 178 190 191 
3 152 163 164 
3 179 190 178 
3 153 163 152 
3 179 189 190 
3 180 189 179 
3 153 162 163 
3 181 189 180 
3 181 188 189 
3 153 161 162 
3 182 188 181 
3 154 161 153 
3 182 187 188 
3 210 211 209 
3 183 187 182 
3 154 160 161 
3 183 186 187 
3 154 159 160 
3 155 159 154 
3 183 185 186 
3 155 158 159 
3 156 158 155 
3 183 184 185 
3 156 157 158 
3 215 217 216 
3 215 216 214 
3 217 219 218 
3 217 218 216 
3 219 221 220 
3 219 220 218 
3 221 223 222 
3 221 222 220 
3 223 225 224 
3 223 224 222 
3 225 227 226 
3 225 226 224 
3 227 229 228 
3 227 228 226 
3 229 231 230 
3 229 230 228 
3 231 233 232 
3 231 232 230 
3 233 235 234 
3 233 234 232 
3 235 237 236 
3 235 236 234 
3 237 239 238 
3 237 238 236 
3 239 241 240 
3 239 240 238 
3 241 243 242 
3 241 242 240 
3 243 245 244 
3 243 244 242 
3 245 247 246 
3 245 246 244 
3 247 249 248 
3 247 248 246 
3 249 251 250 
3 249 250 248 
3 251 253 252 
3 251 252 250 
3 253 255 254 
3 253 254 252 
3 255 257 256 
3 255 256 254 
3 257 259 258 
3 257 258 256 
3 259 261 260 
3 259 260 258 
3 261 263 262 
3 261 262 260 
3 263 265 264 
3 263 264 262 
3 265 267 266 
3 265 266 264 
3 267 269 268 
3 267 268 266 
3 269 271 270 
3 269 270 268 
3 271 273 272 
3 271 272 270 
3 273 275 274 
3 273 274 272 
3 275 277 276 
3 275 276 274 
3 277 279 278 
3 277 278 276 
3 279 281 280 
3 279 280 278 
3 281 283 282 
3 281 282 280 
3 283 285 284 
3 283 284 282 
3 285 287 286 
3 285 286 284 
3 287 289 288 
3 287 288 286 
3 289 291 290 
3 289 290 288 
3 291 293 292 
3 291 292 290 
3 293 295 294 
3 293 294 292 
3 295 297 296 
3 295 296 294 
3 297 299 298 
3 297 298 296 
3 299 301 300 
3 299 300 298 
3 301 303 302 
3 301 302 300 
3 303 305 304 
3 303 304 302 
3 305 307 306 
3 305 306 304 
3 307 309 308 
3 307 308 306 
3 309 311 310 
3 309 310 308 
3 311 313 312 
3 311 312 310 
3 313 315 314 
3 313 314 312 
3 315 317 316 
3 315 316 314 
3 317 319 318 
3 317 318 316 
3 319 321 320 
3 319 320 318 
3 321 323 322 
3 321 322 320 
3 323 325 324 
3 323 324 322 
3 325 327 326 
3 325 326 324 
3 327 329 328 
3 327 328 326 
3 329 331 330 
3 329 330 328 
3 331 333 332 
3 331 332 330 
3 333 335 334 
3 333 334 332 
3 335 337 336 
3 335 336 334 
3 337 339 338 
3 337 338 336 
3 339 341 340 
3 339 340 338 
3 341 343 342 
3 341 342 340 
3 343 345 344 
3 343 344 342 
3 345 347 346 
3 345 346 344 
3 347 349 348 
3 347 348 346 
3 349 351 350 
3 349 350 348 
3 351 353 352 
3 351 352 350 
3 353 355 354 
3 353 354 352 
3 355 357 356 
3 355 356 354 
3 357 359 358 
3 357 358 356 
3 359 361 360 
3 359 360 358 
3 361 363 362 
3 361 362 360 
3 363 365 364 
3 363 364 362 
3 365 367 366 
3 365 366 364 
3 367 369 368 
3 367 368 366 
3 369 371 370 
3 369 370 368 
3 371 373 372 
3 371 372 370 
3 373 375 374 
3 373 374 372 
3 375 377 376 
3 375 376 374 
3 377 379 378 
3 377 378 376 
3 379 381 380 
3 379 380 378 
3 381 383 382 
3 381 382 380 
3 383 385 384 
3 383 384 382 
3 385 387 386 
3 385 386 384 
3 387 389 388 
3 387 388 386 
3 389 391 390 
3 389 390 388 
3 391 393 392 
3 391 392 390 
3 393 395 394 
3 393 394 392 
3 395 397 396 
3 395 396 394 
3 397 399 398 
3 397 398 396 
3 399 401 400 
3 399 400 398 
3 401 403 402 
3 401 402 400 
3 403 405 404 
3 403 404 402 
3 405 407 406 
3 405 406 404 
3 407 409 408 
3 407 408 406 
3 409 411 410 
3 409 410 408 
3 411 413 412 
3 411 412 410 
3 413 415 414 
3 413 414 412 
3 415 417 416 
3 415 416 414 
3 417 419 418 
3 417 418 416 
3 419 421 420 
3 419 420 418 
3 421 423 422 
3 421 422 420 
3 423 425 424 
3 423 424 422 
3 425 427 426 
3 425 426 424 
3 427 215 214 
3 427 214 426 
