ply
format ascii 1.0
comment VCGLIB generated
element vertex 384
property float x
property float y
property float z
property float nx
property float ny
property float nz
element face 384
property list uchar int vertex_indices
end_header
0.465487 0.687742 0.1 2.41007e-010 -6.02516e-011 0.0013784 
0.51631 0.678269 0.1 1.08475e-009 -2.71188e-010 0.00620405 
0.563266 0.663031 0.0999999 2.45542e-009 -6.13857e-010 0.0140434 
0.606148 0.642482 0.0999999 4.21406e-009 -1.05352e-009 0.0241016 
0.644753 0.617071 0.0999999 6.22756e-009 -1.55689e-009 0.0356175 
0.678875 0.58725 0.0999999 4.14114e-009 -1.03529e-009 0.0236846 
0.70831 0.553471 0.0999999 2.64484e-009 -6.61208e-010 0.0151267 
0.732852 0.516185 0.0999999 2.6697e-009 -6.67426e-010 0.0152689 
0.752297 0.475844 0.0999999 2.18106e-009 -5.45267e-010 0.0124742 
0.76644 0.432898 0.0999999 2.78425e-009 -6.96062e-010 0.0159241 
0.775076 0.3878 0.0999998 2.25593e-009 -5.63984e-010 0.0129024 
0.778 0.341 0.0999998 2.92099e-009 -7.30248e-010 0.0167061 
0.775151 0.295461 0.0999998 2.21519e-009 -5.53798e-010 0.0126694 
0.766708 0.251185 0.0999998 2.17214e-009 -5.43037e-010 0.0124232 
0.752828 0.208688 0.0999998 2.13732e-009 -5.34332e-010 0.0122241 
0.733667 0.168481 0.0999998 2.67046e-009 -6.67617e-010 0.0152733 
0.70938 0.131081 0.0999998 2.64029e-009 -6.60072e-010 0.0151007 
0.680125 0.097 0.0999998 2.64174e-009 -6.60437e-010 0.015109 
0.646057 0.066752 0.0999998 4.81579e-009 -1.20395e-009 0.0275431 
0.607333 0.040852 0.0999998 5.33088e-009 -1.33272e-009 0.0304891 
0.564109 0.019813 0.0999998 3.39934e-009 -8.49836e-010 0.019442 
0.516542 0.004148 0.1 1.77709e-009 -4.44273e-010 0.0101638 
0.464786 -0.005627 0.1 6.13022e-010 -1.53256e-010 0.00350608 
0.409 -0.009 0.1 6.45661e-011 -1.61415e-011 0.000369275 
0.354992 -0.005646 0.1 2.51424e-010 -6.28561e-011 0.00143798 
0.304606 0.004079 0.1 1.12683e-009 -2.81708e-010 0.00644474 
0.258047 0.019672 0.1 2.53808e-009 -6.3452e-010 0.0145161 
0.215519 0.04063 0.1 4.33242e-009 -1.08311e-009 0.0247786 
0.177226 0.066448 0.1 6.58134e-009 -1.64534e-009 0.0376409 
0.143375 0.096625 0.1 2.6319e-009 -6.57973e-010 0.0150527 
0.11417 0.130656 0.1 2.63216e-009 -6.58038e-010 0.0150542 
0.089815 0.168037 0.1 2.66484e-009 -6.66212e-010 0.0152411 
0.070516 0.208266 0.1 2.13598e-009 -5.33995e-010 0.0122164 
0.056477 0.250838 0.1 2.17396e-009 -5.43488e-010 0.0124336 
0.047903 0.295251 0.1 2.86346e-009 -7.15867e-010 0.0163771 
0.045 0.341 0.1 2.27718e-009 -5.69295e-010 0.013024 
0.047981 0.38759 0.1 2.24715e-009 -5.61789e-010 0.0128522 
0.056764 0.432551 0.1 2.77054e-009 -6.92633e-010 0.0158456 
0.071109 0.475422 0.1 2.16539e-009 -5.41347e-010 0.0123846 
0.090778 0.515741 0.1 2.64582e-009 -6.61454e-010 0.0151323 
0.11553 0.553046 0.1 2.61772e-009 -6.54431e-010 0.0149716 
0.145125 0.586875 0.1 2.8158e-009 -7.03948e-010 0.0161045 
0.179325 0.616767 0.1 5.98765e-009 -1.49691e-009 0.0342454 
0.217889 0.642259 0.1 5.19793e-009 -1.29948e-009 0.0297287 
0.260578 0.662891 0.1 3.29654e-009 -8.24134e-010 0.018854 
0.307153 0.678199 0.1 1.71453e-009 -4.28632e-010 0.00980596 
0.357373 0.687723 0.1 5.88686e-010 -1.47171e-010 0.00336689 
0.411 0.691 0.1 6.17677e-011 -1.54419e-011 0.00035327 
0.448375 0.08327 0.1 5.1837e-010 -1.29592e-010 0.00296473 
0.483829 0.089912 0.1 1.65596e-009 -4.1399e-010 0.00947098 
0.517109 0.100672 0.1 7.64687e-010 -1.91172e-010 0.0043735 
0.547963 0.115296 0.1 1.75468e-009 -4.3867e-010 0.0100356 
0.576136 0.133532 0.0999999 9.5079e-010 -2.37698e-010 0.00543789 
0.601375 0.155125 0.0999999 1.842e-009 -4.60501e-010 0.010535 
0.623427 0.179822 0.0999999 1.08765e-009 -2.71913e-010 0.00622064 
0.642037 0.20737 0.0999998 1.92286e-009 -4.80717e-010 0.0109975 
0.656953 0.237516 0.0999998 1.96014e-009 -4.90035e-010 0.0112107 
0.667921 0.270005 0.0999999 2.00798e-009 -5.01997e-010 0.0114843 
0.674688 0.304584 0.0999999 2.06574e-009 -5.16434e-010 0.0118146 
0.677 0.341 0.0999999 1.28988e-009 -3.2247e-010 0.00737724 
0.674688 0.377626 0.0999999 2.09486e-009 -5.23713e-010 0.0119812 
0.667921 0.412343 0.0999999 2.02962e-009 -5.07404e-010 0.0116081 
0.656953 0.444906 0.0999999 1.14653e-009 -2.86634e-010 0.00655741 
0.642037 0.475074 0.0999999 1.90926e-009 -4.77315e-010 0.0109197 
0.623426 0.502603 0.0999999 1.87515e-009 -4.68789e-010 0.0107246 
0.601375 0.52725 0.0999999 9.6985e-010 -2.42462e-010 0.00554689 
0.576136 0.548772 0.0999999 1.77045e-009 -4.42614e-010 0.0101258 
0.547963 0.566926 0.1 7.77828e-010 -1.94457e-010 0.00444866 
0.517109 0.581469 0.1 1.65624e-009 -4.1406e-010 0.00947259 
0.483829 0.592157 0.1 5.30326e-010 -1.32581e-010 0.00303311 
0.448374 0.598749 0.1 2.09966e-010 -5.24914e-011 0.00120086 
0.411 0.601 0.1 1.51511e-009 -3.78777e-010 0.00866542 
0.373855 0.598749 0.1 2.03328e-010 -5.08321e-011 0.0011629 
0.338593 0.592157 0.1 5.21374e-010 -1.30343e-010 0.00298191 
0.305469 0.581469 0.1 1.6376e-009 -4.09401e-010 0.009366 
0.274741 0.566926 0.1 7.67492e-010 -1.91873e-010 0.00438954 
0.246666 0.548772 0.1 1.75234e-009 -4.38085e-010 0.0100222 
0.2215 0.52725 0.1 9.60336e-010 -2.40084e-010 0.00549248 
0.199501 0.502603 0.1 1.86041e-009 -4.65104e-010 0.0106403 
0.180926 0.475074 0.1 1.89793e-009 -4.74483e-010 0.0108549 
0.166031 0.444906 0.1 1.14262e-009 -2.85655e-010 0.00653503 
0.155074 0.412343 0.1 2.0231e-009 -5.05777e-010 0.0115708 
0.148311 0.377626 0.1 2.09007e-009 -5.22519e-010 0.0119538 
0.146 0.341 0.1 2.09778e-009 -5.24445e-010 0.0119979 
0.148311 0.304584 0.1 1.26119e-009 -3.15297e-010 0.00721315 
0.155074 0.270005 0.1 2.00929e-009 -5.02322e-010 0.0114918 
0.166031 0.237516 0.1 1.9592e-009 -4.898e-010 0.0112053 
0.180926 0.20737 0.1 1.9198e-009 -4.79951e-010 0.01098 
0.199501 0.179822 0.1 1.08556e-009 -2.71391e-010 0.00620871 
0.2215 0.155125 0.1 1.83756e-009 -4.59388e-010 0.0105096 
0.246666 0.133532 0.1 9.49465e-010 -2.37366e-010 0.00543031 
0.274741 0.115296 0.1 1.74978e-009 -4.37445e-010 0.0100076 
0.305469 0.100672 0.1 7.646e-010 -1.9115e-010 0.004373 
0.338593 0.089912 0.1 1.65076e-009 -4.12689e-010 0.00944122 
0.373855 0.08327 0.1 5.1936e-010 -1.2984e-010 0.00297039 
0.411 0.081 0.1 1.55414e-009 -3.88536e-010 0.00888866 
0.465487 0.687742 -0.1 -2.41007e-010 6.02516e-011 -0.0013784 
0.51631 0.678269 -0.1 -1.08475e-009 2.71188e-010 -0.00620405 
0.563266 0.663031 -0.1 -2.45542e-009 6.13857e-010 -0.0140434 
0.606148 0.642482 -0.1 -4.21406e-009 1.05352e-009 -0.0241016 
0.644753 0.617071 -0.1 -6.22756e-009 1.55689e-009 -0.0356175 
0.678875 0.58725 -0.1 -4.14114e-009 1.03529e-009 -0.0236846 
0.70831 0.553471 -0.1 -2.64484e-009 6.61208e-010 -0.0151267 
0.732852 0.516185 -0.1 -2.6697e-009 6.67426e-010 -0.0152689 
0.752297 0.475844 -0.1 -2.18106e-009 5.45267e-010 -0.0124742 
0.76644 0.432898 -0.1 -2.78425e-009 6.96062e-010 -0.0159241 
0.775076 0.3878 -0.1 -2.25593e-009 5.63984e-010 -0.0129024 
0.778 0.341 -0.1 -2.92099e-009 7.30248e-010 -0.0167061 
0.775151 0.295461 -0.1 -2.21519e-009 5.53798e-010 -0.0126694 
0.766708 0.251185 -0.1 -2.17214e-009 5.43037e-010 -0.0124232 
0.752828 0.208688 -0.1 -2.13732e-009 5.34332e-010 -0.0122241 
0.733667 0.168481 -0.1 -2.67046e-009 6.67617e-010 -0.0152733 
0.70938 0.131081 -0.1 -2.64029e-009 6.60072e-010 -0.0151007 
0.680125 0.097 -0.1 -2.64174e-009 6.60437e-010 -0.015109 
0.646057 0.066752 -0.1 -4.81579e-009 1.20395e-009 -0.0275431 
0.607333 0.040852 -0.1 -5.33088e-009 1.33272e-009 -0.0304891 
0.564109 0.019813 -0.1 -3.39934e-009 8.49836e-010 -0.019442 
0.516542 0.004148 -0.1 -1.77709e-009 4.44273e-010 -0.0101638 
0.464786 -0.005627 -0.1 -6.13022e-010 1.53256e-010 -0.00350608 
0.409 -0.00899999 -0.1 -6.45661e-011 1.61415e-011 -0.000369275 
0.354992 -0.005646 -0.1 -2.51424e-010 6.28561e-011 -0.00143798 
0.304606 0.004079 -0.1 -1.12683e-009 2.81708e-010 -0.00644474 
0.258047 0.019672 -0.1 -2.53808e-009 6.3452e-010 -0.0145161 
0.215519 0.04063 -0.1 -4.33242e-009 1.08311e-009 -0.0247786 
0.177226 0.066448 -0.1 -6.58134e-009 1.64534e-009 -0.0376409 
0.143375 0.096625 -0.1 -2.6319e-009 6.57973e-010 -0.0150527 
0.11417 0.130656 -0.1 -2.63216e-009 6.58038e-010 -0.0150542 
0.089815 0.168037 -0.1 -2.66484e-009 6.66212e-010 -0.0152411 
0.070516 0.208266 -0.1 -2.13598e-009 5.33995e-010 -0.0122164 
0.056477 0.250838 -0.1 -2.17396e-009 5.43488e-010 -0.0124336 
0.047903 0.295251 -0.1 -2.86346e-009 7.15867e-010 -0.0163771 
0.045 0.341 -0.1 -2.27718e-009 5.69295e-010 -0.013024 
0.047981 0.38759 -0.1 -2.24715e-009 5.61789e-010 -0.0128522 
0.056764 0.432551 -0.1 -2.77054e-009 6.92633e-010 -0.0158456 
0.071109 0.475422 -0.1 -2.16539e-009 5.41347e-010 -0.0123846 
0.090778 0.515741 -0.1 -2.64582e-009 6.61454e-010 -0.0151323 
0.11553 0.553046 -0.1 -2.61772e-009 6.54431e-010 -0.0149716 
0.145125 0.586875 -0.1 -2.8158e-009 7.03948e-010 -0.0161045 
0.179325 0.616767 -0.1 -5.98765e-009 1.49691e-009 -0.0342454 
0.217889 0.642259 -0.1 -5.19793e-009 1.29948e-009 -0.0297287 
0.260578 0.662891 -0.1 -3.29654e-009 8.24134e-010 -0.018854 
0.307153 0.678199 -0.1 -1.71453e-009 4.28632e-010 -0.00980596 
0.357373 0.687723 -0.1 -5.88686e-010 1.47171e-010 -0.00336689 
0.411 0.691 -0.1 -6.17677e-011 1.54419e-011 -0.00035327 
0.448375 0.08327 -0.1 -5.1837e-010 1.29592e-010 -0.00296473 
0.483829 0.089912 -0.1 -1.65596e-009 4.1399e-010 -0.00947098 
0.517109 0.100672 -0.1 -7.64687e-010 1.91172e-010 -0.0043735 
0.547963 0.115296 -0.1 -1.75468e-009 4.3867e-010 -0.0100356 
0.576136 0.133532 -0.1 -9.5079e-010 2.37698e-010 -0.00543789 
0.601375 0.155125 -0.1 -1.842e-009 4.60501e-010 -0.010535 
0.623427 0.179822 -0.1 -1.08765e-009 2.71913e-010 -0.00622064 
0.642037 0.20737 -0.1 -1.92286e-009 4.80717e-010 -0.0109975 
0.656953 0.237516 -0.1 -1.96014e-009 4.90035e-010 -0.0112107 
0.667921 0.270005 -0.1 -2.00798e-009 5.01997e-010 -0.0114843 
0.674688 0.304584 -0.1 -2.06574e-009 5.16434e-010 -0.0118146 
0.677 0.341 -0.1 -1.28988e-009 3.2247e-010 -0.00737724 
0.674688 0.377626 -0.1 -2.09486e-009 5.23713e-010 -0.0119812 
0.667921 0.412343 -0.1 -2.02962e-009 5.07404e-010 -0.0116081 
0.656953 0.444906 -0.1 -1.14653e-009 2.86634e-010 -0.00655741 
0.642037 0.475074 -0.1 -1.90926e-009 4.77315e-010 -0.0109197 
0.623426 0.502603 -0.1 -1.87515e-009 4.68789e-010 -0.0107246 
0.601375 0.52725 -0.1 -9.6985e-010 2.42462e-010 -0.00554689 
0.576136 0.548772 -0.1 -1.77045e-009 4.42614e-010 -0.0101258 
0.547963 0.566926 -0.1 -7.77828e-010 1.94457e-010 -0.00444866 
0.517109 0.581469 -0.1 -1.65624e-009 4.1406e-010 -0.00947259 
0.483829 0.592157 -0.1 -5.30326e-010 1.32581e-010 -0.00303311 
0.448374 0.598749 -0.1 -2.09966e-010 5.24914e-011 -0.00120086 
0.411 0.601 -0.1 -1.51511e-009 3.78777e-010 -0.00866542 
0.373855 0.598749 -0.1 -2.03328e-010 5.08321e-011 -0.0011629 
0.338593 0.592157 -0.1 -5.21374e-010 1.30343e-010 -0.00298191 
0.305469 0.581469 -0.1 -1.6376e-009 4.09401e-010 -0.009366 
0.274741 0.566926 -0.1 -7.67492e-010 1.91873e-010 -0.00438954 
0.246666 0.548772 -0.1 -1.75234e-009 4.38085e-010 -0.0100222 
0.2215 0.52725 -0.1 -9.60336e-010 2.40084e-010 -0.00549248 
0.199501 0.502603 -0.1 -1.86041e-009 4.65104e-010 -0.0106403 
0.180926 0.475074 -0.1 -1.89793e-009 4.74483e-010 -0.0108549 
0.166031 0.444906 -0.1 -1.14262e-009 2.85655e-010 -0.00653503 
0.155074 0.412343 -0.1 -2.0231e-009 5.05777e-010 -0.0115708 
0.148311 0.377626 -0.1 -2.09007e-009 5.22519e-010 -0.0119538 
0.146 0.341 -0.1 -2.09778e-009 5.24445e-010 -0.0119979 
0.148311 0.304584 -0.1 -1.26119e-009 3.15297e-010 -0.00721315 
0.155074 0.270005 -0.1 -2.00929e-009 5.02322e-010 -0.0114918 
0.166031 0.237516 -0.1 -1.9592e-009 4.898e-010 -0.0112053 
0.180926 0.20737 -0.1 -1.9198e-009 4.79951e-010 -0.01098 
0.199501 0.179822 -0.1 -1.08557e-009 2.71391e-010 -0.00620871 
0.2215 0.155125 -0.1 -1.83756e-009 4.59388e-010 -0.0105096 
0.246666 0.133532 -0.1 -9.49465e-010 2.37366e-010 -0.00543031 
0.274741 0.115296 -0.1 -1.74978e-009 4.37445e-010 -0.0100076 
0.305469 0.100672 -0.1 -7.646e-010 1.9115e-010 -0.004373 
0.338593 0.089912 -0.1 -1.65076e-009 4.12689e-010 -0.00944122 
0.373855 0.08327 -0.1 -5.1936e-010 1.2984e-010 -0.00297039 
0.411 0.081 -0.1 -1.55414e-009 3.88536e-010 -0.00888866 
0.465487 0.687742 -0.1 0.30261 2.9795 7.7328e-008 
0.465487 0.687742 0.1 0.426158 2.96435 5.50642e-008 
0.51631 0.678269 -0.1 0.675142 2.91731 9.47391e-009 
0.51631 0.678269 0.1 0.800577 2.88541 -1.38523e-008 
0.563266 0.663031 -0.1 1.04949 2.80414 -6.09253e-008 
0.563266 0.663031 0.0999999 1.17296 2.75478 -8.46714e-008 
0.606148 0.642482 -0.1 1.4141 2.6389 -1.31899e-007 
0.606148 0.642482 0.0999999 1.53177 2.57238 -1.55381e-007 
0.644753 0.617071 -0.1 1.75768 2.42354 -2.01386e-007 
0.644753 0.617071 0.0999999 1.86593 2.34122 -2.23911e-007 
0.678875 0.58725 -0.1 2.07003 2.1629 -2.67392e-007 
0.678875 0.58725 0.0999999 2.1659 2.0669 -2.88351e-007 
0.70831 0.553471 -0.1 2.34314 1.86373 -3.28221e-007 
0.70831 0.553471 0.0999999 2.42451 1.75656 -3.47133e-007 
0.732852 0.516185 -0.1 2.57141 1.5338 -3.82555e-007 
0.732852 0.516185 0.0999999 2.63692 1.41821 -3.99062e-007 
0.752297 0.475844 -0.1 2.75145 1.18121 -4.29446e-007 
0.752297 0.475844 0.0999999 2.80045 1.0598 -4.43321e-007 
0.76644 0.432898 -0.1 2.8818 0.813667 -4.68303e-007 
0.76644 0.432898 0.0999999 2.91413 0.688949 -4.79407e-007 
0.775076 0.3878 -0.1 2.96236 0.438511 -4.98788e-007 
0.775076 0.3878 0.0999998 2.97826 0.312792 -5.07063e-007 
0.778 0.341 -0.1 2.99416 0.0622758 -5.20793e-007 
0.778 0.341 0.0999998 2.99415 -0.0625211 -5.26247e-007 
0.775151 0.295461 -0.1 2.9784 -0.312194 -5.34406e-007 
0.775151 0.295461 0.0999998 2.96265 -0.437069 -5.37111e-007 
0.766708 0.251185 -0.1 2.91518 -0.685101 -5.39653e-007 
0.766708 0.251185 0.0999998 2.88347 -0.808258 -5.39492e-007 
0.752828 0.208688 -0.1 2.8039 -1.05115 -5.36197e-007 
0.752828 0.208688 0.0999998 2.75605 -1.17088 -5.33064e-007 
0.733667 0.168481 -0.1 2.64414 -1.40504 -5.23732e-007 
0.733667 0.168481 0.0999998 2.58009 -1.51946 -5.17535e-007 
0.70938 0.131081 -0.1 2.43614 -1.74059 -5.02032e-007 
0.70938 0.131081 0.0999998 2.35625 -1.8473 -4.92728e-007 
0.680125 0.097 -0.1 2.18151 -2.05047 -4.71057e-007 
0.680125 0.097 0.0999998 2.08666 -2.14691 -4.58689e-007 
0.646057 0.066752 -0.1 1.88383 -2.32679 -4.31087e-007 
0.646057 0.066752 0.0999998 1.77583 -2.41022 -4.1585e-007 
0.607333 0.040852 -0.1 1.54955 -2.56158 -3.82902e-007 
0.607333 0.040852 0.0999998 1.43125 -2.62951 -3.65187e-007 
0.564109 0.019813 -0.1 1.1881 -2.74811 -3.27858e-007 
0.564109 0.019813 0.0999998 1.06325 -2.79878 -3.08243e-007 
0.516542 0.004148 -0.1 0.811184 -2.88227 -2.6782e-007 
0.516542 0.004148 0.1 0.683971 -2.91508 -2.47012e-007 
0.464786 -0.005627 -0.1 0.431525 -2.96343 -2.04986e-007 
0.464786 -0.005627 0.1 0.306292 -2.97898 -1.83769e-007 
0.409 -0.00899999 -0.1 0.0587235 -2.99443 -1.41159e-007 
0.409 -0.009 0.1 -0.063612 -2.99433 -1.19764e-007 
0.354992 -0.005646 -0.1 -0.313477 -2.97803 -7.5364e-008 
0.354992 -0.005646 0.1 -0.441007 -2.96183 -5.23577e-008 
0.304606 0.004079 -0.1 -0.696596 -2.91199 -5.49044e-009 
0.304606 0.004079 0.1 -0.824656 -2.87835 1.83709e-008 
0.258047 0.019672 -0.1 -1.07719 -2.79346 6.62354e-008 
0.258047 0.019672 0.1 -1.20166 -2.74222 9.02384e-008 
0.215519 0.04063 -0.1 -1.44312 -2.62314 1.37662e-007 
0.215519 0.04063 0.1 -1.5601 -2.55529 1.61082e-007 
0.177226 0.066448 -0.1 -1.7835 -2.40475 2.06722e-007 
0.177226 0.066448 0.1 -1.8899 -2.32205 2.28941e-007 
0.143375 0.096625 -0.1 -2.08974 -2.14416 2.71658e-007 
0.143375 0.096625 0.1 -2.18317 -2.04895 2.92155e-007 
0.11417 0.130656 -0.1 -2.35558 -1.84839 3.31067e-007 
0.11417 0.130656 0.1 -2.43458 -1.74303 3.49485e-007 
0.089815 0.168037 -0.1 -2.57733 -1.52432 3.84004e-007 
0.089815 0.168037 0.1 -2.64109 -1.41096 4.00108e-007 
0.070516 0.208266 -0.1 -2.75293 -1.17825 4.29835e-007 
0.070516 0.208266 0.1 -2.80101 -1.05889 4.43458e-007 
0.056477 0.250838 -0.1 -2.88126 -0.815914 4.68111e-007 
0.056477 0.250838 0.1 -2.91343 -0.692284 4.7914e-007 
0.047903 0.295251 -0.1 -2.96173 -0.442431 4.98507e-007 
0.047903 0.295251 0.1 -2.97786 -0.316207 5.06844e-007 
0.045 0.341 -0.1 -2.99394 -0.0628021 5.20733e-007 
0.045 0.341 0.1 -2.99391 0.0643786 5.26286e-007 
0.047981 0.38759 -0.1 -2.97737 0.319429 5.34542e-007 
0.047981 0.38759 0.1 -2.96086 0.447299 5.37245e-007 
0.056764 0.432551 -0.1 -2.91122 0.700762 5.39645e-007 
0.056764 0.432551 0.1 -2.87809 0.826355 5.39343e-007 
0.071109 0.475422 -0.1 -2.7954 1.07308 5.35669e-007 
0.071109 0.475422 0.1 -2.74584 1.19421 5.32298e-007 
0.090778 0.515741 -0.1 -2.63078 1.42976 5.22477e-007 
0.090778 0.515741 0.1 -2.56529 1.54419 5.16028e-007 
0.11553 0.553046 -0.1 -2.41917 1.76418 5.00096e-007 
0.11553 0.553046 0.1 -2.33854 1.86975 4.90613e-007 
0.145125 0.586875 -0.1 -2.16336 2.06981 4.68729e-007 
0.145125 0.586875 0.1 -2.06882 2.16431 4.56329e-007 
0.179325 0.616767 -0.1 -1.86763 2.34009 4.28835e-007 
0.179325 0.616767 0.1 -1.76098 2.42136 4.13741e-007 
0.217889 0.642259 -0.1 -1.53803 2.56878 3.81203e-007 
0.217889 0.642259 0.1 -1.42174 2.63493 3.63761e-007 
0.260578 0.662891 -0.1 -1.18254 2.75072 3.27e-007 
0.260578 0.662891 0.1 -1.05963 2.80036 3.0768e-007 
0.307153 0.678199 -0.1 -0.810808 2.88249 2.67764e-007 
0.307153 0.678199 0.1 -0.68489 2.91498 2.47168e-007 
0.357373 0.687723 -0.1 -0.433642 2.96311 2.05342e-007 
0.357373 0.687723 0.1 -0.308311 2.97876 1.84112e-007 
0.411 0.691 -0.1 -0.0622998 2.99449 1.41786e-007 
0.411 0.691 0.1 0.058381 2.99457 1.20689e-007 
0.448375 0.08327 -0.1 -0.305386 2.97922 1.83622e-007 
0.448375 0.08327 0.1 -0.4289 2.96396 2.0455e-007 
0.483829 0.089912 -0.1 -0.675913 2.9173 2.457e-007 
0.483829 0.089912 0.1 -0.799413 2.88591 2.65921e-007 
0.517109 0.100672 -0.1 -1.04358 2.80664 3.05148e-007 
0.517109 0.100672 0.1 -1.16424 2.75878 3.24152e-007 
0.547963 0.115296 -0.1 -1.39999 2.64676 3.60475e-007 
0.547963 0.115296 0.1 -1.51507 2.5826 3.77793e-007 
0.576136 0.133532 -0.1 -1.73686 2.43882 4.10287e-007 
0.576136 0.133532 0.0999999 -1.84357 2.3592 4.25463e-007 
0.601375 0.155125 -0.1 -2.0461 2.18575 4.53294e-007 
0.601375 0.155125 0.0999999 -2.14193 2.09193 4.65948e-007 
0.623427 0.179822 -0.1 -2.32048 1.89185 4.88421e-007 
0.623427 0.179822 0.0999999 -2.4032 1.7856 4.98239e-007 
0.642037 0.20737 -0.1 -2.55356 1.56305 5.14801e-007 
0.642037 0.20737 0.0999998 -2.62121 1.44674 5.21545e-007 
0.656953 0.237516 -0.1 -2.74004 1.20681 5.31835e-007 
0.656953 0.237516 0.0999998 -2.79122 1.08319 5.3538e-007 
0.667921 0.270005 -0.1 -2.87632 0.831767 5.39269e-007 
0.667921 0.270005 0.0999999 -2.91023 0.703963 5.39612e-007 
0.674688 0.304584 -0.1 -2.96076 0.447467 5.37235e-007 
0.674688 0.304584 0.0999999 -2.97737 0.318775 5.34514e-007 
0.677 0.341 -0.1 -2.99399 0.063723 5.26272e-007 
0.677 0.341 0.0999999 -2.99402 -0.0626374 5.20753e-007 
0.674688 0.377626 -0.1 -2.97756 -0.317316 5.06743e-007 
0.674688 0.377626 0.0999999 -2.96107 -0.445635 4.98251e-007 
0.667921 0.412343 -0.1 -2.91074 -0.70184 4.78252e-007 
0.667921 0.412343 0.0999999 -2.8769 -0.829726 4.66745e-007 
0.656953 0.444906 -0.1 -2.79179 -1.08162 4.40852e-007 
0.656953 0.444906 0.0999999 -2.74052 -1.20564 4.26467e-007 
0.642037 0.475074 -0.1 -2.62128 -1.4465 3.95091e-007 
0.642037 0.475074 0.0999999 -2.55331 -1.56336 3.78098e-007 
0.623426 0.502603 -0.1 -2.40216 -1.78691 3.41898e-007 
0.623426 0.502603 0.0999999 -2.31897 -1.89361 3.2269e-007 
0.601375 0.52725 -0.1 -2.13938 -2.09445 2.8251e-007 
0.601375 0.52725 0.0999999 -2.04297 -2.1886 2.61538e-007 
0.576136 0.548772 -0.1 -1.83937 -2.36243 2.1834e-007 
0.576136 0.548772 0.0999999 -1.73218 -2.44211 1.96116e-007 
0.547963 0.566926 -0.1 -1.50968 -2.58575 1.50934e-007 
0.547963 0.566926 0.1 -1.39438 -2.6497 1.27979e-007 
0.517109 0.581469 -0.1 -1.15849 -2.76121 8.18605e-008 
0.517109 0.581469 0.1 -1.0379 -2.80876 5.86976e-008 
0.483829 0.592157 -0.1 -0.794337 -2.88736 1.26757e-008 
0.483829 0.592157 0.1 -0.671358 -2.91841 -1.01837e-008 
0.448374 0.598749 -0.1 -0.425706 -2.96449 -5.51494e-008 
0.448374 0.598749 0.1 -0.303034 -2.97953 -7.72549e-008 
0.411 0.601 -0.1 -0.0597516 -2.99455 -1.20448e-007 
0.411 0.601 0.1 0.0608594 -2.99453 -1.41537e-007 
0.373855 0.598749 -0.1 0.30474 -2.97931 -1.83512e-007 
0.373855 0.598749 0.1 0.428009 -2.96411 -2.04401e-007 
0.338593 0.592157 -0.1 0.674596 -2.91763 -2.45484e-007 
0.338593 0.592157 0.1 0.797913 -2.88634 -2.65678e-007 
0.305469 0.581469 -0.1 1.04194 -2.80725 -3.04887e-007 
0.305469 0.581469 0.1 1.16265 -2.75944 -3.23904e-007 
0.274741 0.566926 -0.1 1.39857 -2.64749 -3.6026e-007 
0.274741 0.566926 0.1 1.51378 -2.58335 -3.776e-007 
0.246666 0.548772 -0.1 1.73593 -2.43946 -4.10152e-007 
0.246666 0.548772 0.1 1.84288 -2.35971 -4.25365e-007 
0.2215 0.52725 -0.1 2.04593 -2.18586 -4.53269e-007 
0.2215 0.52725 0.1 2.14203 -2.09177 -4.65959e-007 
0.199501 0.502603 -0.1 2.32104 -1.89111 -4.88487e-007 
0.199501 0.502603 0.1 2.40394 -1.78455 -4.98323e-007 
0.180926 0.475074 -0.1 2.55456 -1.56137 -5.14903e-007 
0.180926 0.475074 0.1 2.62227 -1.44475 -5.21645e-007 
0.166031 0.444906 -0.1 2.74111 -1.20434 -5.31914e-007 
0.166031 0.444906 0.1 2.79223 -1.08055 -5.35441e-007 
0.155074 0.412343 -0.1 2.87712 -0.829041 -5.3929e-007 
0.155074 0.412343 0.1 2.91088 -0.701335 -5.39611e-007 
0.148311 0.377626 -0.1 2.96111 -0.445391 -5.37205e-007 
0.148311 0.377626 0.1 2.97758 -0.317154 -5.34479e-007 
0.146 0.341 -0.1 2.99402 -0.0626105 -5.26229e-007 
0.146 0.341 0.1 2.994 0.0636956 -5.20704e-007 
0.148311 0.304584 -0.1 2.97739 0.318612 -5.06657e-007 
0.148311 0.304584 0.1 2.9608 0.447223 -4.98134e-007 
0.155074 0.270005 -0.1 2.91037 0.703457 -4.78117e-007 
0.155074 0.270005 0.1 2.87653 0.831081 -4.66621e-007 
0.166031 0.237516 -0.1 2.79166 1.08211 -4.40809e-007 
0.166031 0.237516 0.1 2.74063 1.20552 -4.26492e-007 
0.180926 0.20737 -0.1 2.6222 1.44501 -3.95316e-007 
0.180926 0.20737 0.1 2.55479 1.5611 -3.78456e-007 
0.199501 0.179822 -0.1 2.40497 1.78326 -3.42549e-007 
0.199501 0.179822 0.1 2.32256 1.88935 -3.23504e-007 
0.2215 0.155125 -0.1 2.14461 2.08921 -2.83653e-007 
0.2215 0.155125 0.1 2.04907 2.183 -2.62849e-007 
0.246666 0.133532 -0.1 1.84707 2.35647 -2.19948e-007 
0.246666 0.133532 0.1 1.74062 2.43616 -1.97851e-007 
0.274741 0.115296 -0.1 1.51917 2.58019 -1.52837e-007 
0.274741 0.115296 0.1 1.40419 2.64453 -1.2992e-007 
0.305469 0.100672 -0.1 1.16841 2.75699 -8.37797e-008 
0.305469 0.100672 0.1 1.04763 2.80511 -6.0558e-008 
0.338593 0.089912 -0.1 0.803003 2.88488 -1.42996e-008 
0.338593 0.089912 0.1 0.679161 2.91652 8.73666e-009 
0.373855 0.08327 -0.1 0.43121 2.96357 5.41468e-008 
0.373855 0.08327 0.1 0.307102 2.97899 7.65203e-008 
0.411 0.081 -0.1 0.0613719 2.99444 1.20161e-007 
0.411 0.081 0.1 -0.0602501 2.99446 1.41426e-007 
3 46 0 47 
3 46 1 0 
3 45 1 46 
3 45 2 1 
3 44 2 45 
3 44 3 2 
3 43 3 44 
3 43 4 3 
3 42 4 43 
3 42 5 4 
3 41 71 42 
3 71 5 42 
3 41 72 71 
3 70 5 71 
3 69 5 70 
3 41 73 72 
3 68 5 69 
3 41 74 73 
3 68 6 5 
3 40 74 41 
3 67 6 68 
3 40 75 74 
3 66 6 67 
3 40 76 75 
3 66 7 6 
3 39 76 40 
3 65 7 66 
3 39 77 76 
3 64 7 65 
3 39 78 77 
3 64 8 7 
3 38 78 39 
3 63 8 64 
3 38 79 78 
3 63 9 8 
3 37 79 38 
3 62 9 63 
3 37 80 79 
3 61 9 62 
3 37 81 80 
3 61 10 9 
3 36 81 37 
3 60 10 61 
3 36 82 81 
3 60 11 10 
3 35 82 36 
3 59 11 60 
3 35 83 82 
3 34 83 35 
3 34 84 83 
3 58 11 59 
3 58 12 11 
3 34 85 84 
3 57 12 58 
3 57 13 12 
3 33 85 34 
3 33 86 85 
3 56 13 57 
3 56 14 13 
3 32 86 33 
3 55 14 56 
3 32 87 86 
3 55 15 14 
3 31 87 32 
3 54 15 55 
3 31 88 87 
3 53 15 54 
3 31 89 88 
3 53 16 15 
3 30 89 31 
3 52 16 53 
3 30 90 89 
3 51 16 52 
3 30 91 90 
3 51 17 16 
3 29 91 30 
3 50 17 51 
3 29 92 91 
3 49 17 50 
3 29 93 92 
3 49 18 17 
3 28 93 29 
3 48 18 49 
3 28 94 93 
3 95 18 48 
3 28 95 94 
3 28 18 95 
3 28 19 18 
3 27 19 28 
3 27 20 19 
3 26 20 27 
3 26 21 20 
3 25 21 26 
3 25 22 21 
3 24 22 25 
3 24 23 22 
3 96 142 143 
3 97 142 96 
3 97 141 142 
3 98 141 97 
3 98 140 141 
3 99 140 98 
3 99 139 140 
3 100 139 99 
3 100 138 139 
3 101 138 100 
3 167 137 138 
3 101 167 138 
3 168 137 167 
3 101 166 167 
3 101 165 166 
3 169 137 168 
3 101 164 165 
3 170 137 169 
3 102 164 101 
3 170 136 137 
3 102 163 164 
3 171 136 170 
3 102 162 163 
3 172 136 171 
3 103 162 102 
3 172 135 136 
3 103 161 162 
3 173 135 172 
3 103 160 161 
3 174 135 173 
3 104 160 103 
3 174 134 135 
3 104 159 160 
3 175 134 174 
3 105 159 104 
3 175 133 134 
3 105 158 159 
3 176 133 175 
3 105 157 158 
3 177 133 176 
3 106 157 105 
3 177 132 133 
3 106 156 157 
3 178 132 177 
3 107 156 106 
3 178 131 132 
3 107 155 156 
3 179 131 178 
3 179 130 131 
3 180 130 179 
3 107 154 155 
3 108 154 107 
3 181 130 180 
3 108 153 154 
3 109 153 108 
3 181 129 130 
3 182 129 181 
3 109 152 153 
3 110 152 109 
3 182 128 129 
3 110 151 152 
3 183 128 182 
3 111 151 110 
3 183 127 128 
3 111 150 151 
3 184 127 183 
3 111 149 150 
3 185 127 184 
3 112 149 111 
3 185 126 127 
3 112 148 149 
3 186 126 185 
3 112 147 148 
3 187 126 186 
3 113 147 112 
3 187 125 126 
3 113 146 147 
3 188 125 187 
3 113 145 146 
3 189 125 188 
3 114 145 113 
3 189 124 125 
3 114 144 145 
3 190 124 189 
3 114 191 144 
3 191 124 190 
3 114 124 191 
3 115 124 114 
3 115 123 124 
3 116 123 115 
3 116 122 123 
3 117 122 116 
3 117 121 122 
3 118 121 117 
3 118 120 121 
3 119 120 118 
3 193 195 194 
3 193 194 192 
3 195 197 196 
3 195 196 194 
3 197 199 198 
3 197 198 196 
3 199 201 200 
3 199 200 198 
3 201 203 202 
3 201 202 200 
3 203 205 204 
3 203 204 202 
3 205 207 206 
3 205 206 204 
3 207 209 208 
3 207 208 206 
3 209 211 210 
3 209 210 208 
3 211 213 212 
3 211 212 210 
3 213 215 214 
3 213 214 212 
3 215 217 216 
3 215 216 214 
3 217 219 218 
3 217 218 216 
3 219 221 220 
3 219 220 218 
3 221 223 222 
3 221 222 220 
3 223 225 224 
3 223 224 222 
3 225 227 226 
3 225 226 224 
3 227 229 228 
3 227 228 226 
3 229 231 230 
3 229 230 228 
3 231 233 232 
3 231 232 230 
3 233 235 234 
3 233 234 232 
3 235 237 236 
3 235 236 234 
3 237 239 238 
3 237 238 236 
3 239 241 240 
3 239 240 238 
3 241 243 242 
3 241 242 240 
3 243 245 244 
3 243 244 242 
3 245 247 246 
3 245 246 244 
3 247 249 248 
3 247 248 246 
3 249 251 250 
3 249 250 248 
3 251 253 252 
3 251 252 250 
3 253 255 254 
3 253 254 252 
3 255 257 256 
3 255 256 254 
3 257 259 258 
3 257 258 256 
3 259 261 260 
3 259 260 258 
3 261 263 262 
3 261 262 260 
3 263 265 264 
3 263 264 262 
3 265 267 266 
3 265 266 264 
3 267 269 268 
3 267 268 266 
3 269 271 270 
3 269 270 268 
3 271 273 272 
3 271 272 270 
3 273 275 274 
3 273 274 272 
3 275 277 276 
3 275 276 274 
3 277 279 278 
3 277 278 276 
3 279 281 280 
3 279 280 278 
3 281 283 282 
3 281 282 280 
3 283 285 284 
3 283 284 282 
3 285 287 286 
3 285 286 284 
3 287 193 192 
3 287 192 286 
3 289 291 290 
3 289 290 288 
3 291 293 292 
3 291 292 290 
3 293 295 294 
3 293 294 292 
3 295 297 296 
3 295 296 294 
3 297 299 298 
3 297 298 296 
3 299 301 300 
3 299 300 298 
3 301 303 302 
3 301 302 300 
3 303 305 304 
3 303 304 302 
3 305 307 306 
3 305 306 304 
3 307 309 308 
3 307 308 306 
3 309 311 310 
3 309 310 308 
3 311 313 312 
3 311 312 310 
3 313 315 314 
3 313 314 312 
3 315 317 316 
3 315 316 314 
3 317 319 318 
3 317 318 316 
3 319 321 320 
3 319 320 318 
3 321 323 322 
3 321 322 320 
3 323 325 324 
3 323 324 322 
3 325 327 326 
3 325 326 324 
3 327 329 328 
3 327 328 326 
3 329 331 330 
3 329 330 328 
3 331 333 332 
3 331 332 330 
3 333 335 334 
3 333 334 332 
3 335 337 336 
3 335 336 334 
3 337 339 338 
3 337 338 336 
3 339 341 340 
3 339 340 338 
3 341 343 342 
3 341 342 340 
3 343 345 344 
3 343 344 342 
3 345 347 346 
3 345 346 344 
3 347 349 348 
3 347 348 346 
3 349 351 350 
3 349 350 348 
3 351 353 352 
3 351 352 350 
3 353 355 354 
3 353 354 352 
3 355 357 356 
3 355 356 354 
3 357 359 358 
3 357 358 356 
3 359 361 360 
3 359 360 358 
3 361 363 362 
3 361 362 360 
3 363 365 364 
3 363 364 362 
3 365 367 366 
3 365 366 364 
3 367 369 368 
3 367 368 366 
3 369 371 370 
3 369 370 368 
3 371 373 372 
3 371 372 370 
3 373 375 374 
3 373 374 372 
3 375 377 376 
3 375 376 374 
3 377 379 378 
3 377 378 376 
3 379 381 380 
3 379 380 378 
3 381 383 382 
3 381 382 380 
3 383 289 288 
3 383 288 382 
