ply
format ascii 1.0
comment VCGLIB generated
element vertex 312
property float x
property float y
property float z
property float nx
property float ny
property float nz
element face 312
property list uchar int vertex_indices
end_header
0.262 -4.37114e-009 0.1 6.19278e-011 -1.5482e-011 0.000354186 
0.229561 0.001874 0.1 2.66244e-010 -6.65612e-011 0.00152274 
0.199324 0.007407 0.1 5.6693e-010 -1.41732e-010 0.00324246 
0.171406 0.016469 0.1 8.98212e-010 -2.24553e-010 0.00513717 
0.145926 0.028926 0.1 1.25823e-009 -3.14556e-010 0.00719621 
0.123001 0.044647 0.1 1.64574e-009 -4.11436e-010 0.00941256 
0.10275 0.0635 0.1 5.43525e-009 -1.35881e-009 0.031086 
0.085291 0.085353 0.1 1.49035e-009 -3.72586e-010 0.00852378 
0.070741 0.110074 0.1 1.34928e-009 -3.37319e-010 0.00771696 
0.059219 0.137531 0.1 1.44587e-009 -3.61468e-010 0.00826943 
0.050843 0.167593 0.1 1.27092e-009 -3.1773e-010 0.00726881 
0.04573 0.200126 0.1 1.69054e-009 -4.22634e-010 0.00966874 
0.044 0.235 0.1 1.77521e-009 -4.43802e-010 0.010153 
0.045906 0.266697 0.1 1.34807e-009 -3.37018e-010 0.00771007 
0.051495 0.296657 0.1 1.60354e-009 -4.00886e-010 0.0091712 
0.060578 0.324688 0.1 1.53334e-009 -3.83336e-010 0.0087697 
0.072963 0.350593 0.1 1.64468e-009 -4.11169e-010 0.00940645 
0.088459 0.374178 0.1 1.44267e-009 -3.60668e-010 0.00825113 
0.106875 0.39525 0.1 1.4127e-009 -3.53174e-010 0.00807968 
0.12802 0.413613 0.1 1.40909e-009 -3.52272e-010 0.00805905 
0.151704 0.429074 0.1 3.70582e-009 -9.26455e-010 0.0211948 
0.177734 0.441438 0.1 9.3071e-010 -2.32677e-010 0.00532304 
0.205921 0.450509 0.1 3.69118e-010 -9.22794e-011 0.00211111 
0.236073 0.456095 0.1 1.06535e-010 -2.66338e-011 0.00060931 
0.268 0.458 0.1 3.07786e-012 -7.69467e-013 1.76033e-005 
0.275464 0.457894 0.1 7.64888e-012 -1.91222e-012 4.37465e-005 
0.28288 0.457569 0.1 1.10043e-011 -2.75106e-012 6.2937e-005 
0.290281 0.457016 0.1 1.51541e-011 -3.78851e-012 8.66711e-005 
0.297704 0.456222 0.1 2.01261e-011 -5.03151e-012 0.000115108 
0.305182 0.455179 0.1 1.12543e-010 -2.81358e-011 0.000643671 
0.31275 0.453875 0.1 6.2757e-011 -1.56893e-011 0.000358928 
0.320443 0.4523 0.1 7.35692e-011 -1.83923e-011 0.000420767 
0.328296 0.450444 0.1 3.03227e-010 -7.58067e-011 0.00173426 
0.336344 0.448297 0.1 1.47062e-010 -3.67655e-011 0.000841098 
0.34462 0.445847 0.1 1.65046e-010 -4.12615e-011 0.000943953 
0.353161 0.443085 0.1 1.84348e-010 -4.6087e-011 0.00105435 
0.362 0.44 0.1 1.89847e-008 -4.74618e-009 0.10858 
0.362 0.682 0.1 3.76582e-009 -9.41456e-010 0.021538 
0.451 0.682 0.1 1.43786e-008 -3.59465e-009 0.082236 
0.451 -4.37114e-009 0.1 2.26814e-008 -5.67036e-009 0.129723 
0.354638 0.363855 0.1 1.99779e-010 -4.99446e-011 0.0011426 
0.347519 0.366426 0.1 1.92979e-010 -4.82447e-011 0.00110371 
0.340594 0.368719 0.1 2.6797e-009 -6.69927e-010 0.0153261 
0.333815 0.370741 0.1 1.69328e-011 -4.2332e-012 9.68443e-005 
0.327133 0.372499 0.1 3.17474e-011 -7.93684e-012 0.000181574 
0.3205 0.374 0.1 7.0778e-010 -1.76945e-010 0.00404803 
0.313867 0.375251 0.1 1.59046e-011 -3.97616e-012 9.09639e-005 
0.307185 0.376259 0.1 3.21554e-011 -8.03886e-012 0.000183908 
0.300406 0.377031 0.1 7.12502e-010 -1.78126e-010 0.00407504 
0.293481 0.377574 0.1 1.52141e-011 -3.80353e-012 8.70146e-005 
0.286362 0.377895 0.1 3.0573e-011 -7.64324e-012 0.000174857 
0.279 0.378 0.1 7.37234e-010 -1.84308e-010 0.00421649 
0.258101 0.376726 0.1 1.3108e-010 -3.277e-011 0.000749691 
0.238472 0.372972 0.1 8.30398e-010 -2.07599e-010 0.00474932 
0.220219 0.366844 0.1 2.74524e-010 -6.86311e-011 0.0015701 
0.203444 0.358444 0.1 3.88811e-010 -9.72026e-011 0.00222374 
0.188253 0.347878 0.1 9.75422e-010 -2.43855e-010 0.00557876 
0.17475 0.33525 0.1 4.96714e-010 -1.24178e-010 0.00284087 
0.163038 0.320663 0.1 1.05757e-009 -2.64392e-010 0.00604857 
0.153222 0.304222 0.1 5.9266e-010 -1.48165e-010 0.00338962 
0.145406 0.286031 0.1 1.14134e-009 -2.85335e-010 0.0065277 
0.139694 0.266194 0.1 1.18433e-009 -2.96082e-010 0.00677358 
0.136191 0.244816 0.1 7.04314e-010 -1.76079e-010 0.00402821 
0.135 0.222 0.1 1.24003e-009 -3.10008e-010 0.00709216 
0.135729 0.201462 0.1 6.31018e-010 -1.57754e-010 0.003609 
0.137995 0.181944 0.1 1.10571e-009 -2.76427e-010 0.00632392 
0.141922 0.163594 0.1 1.03473e-009 -2.58683e-010 0.00591798 
0.14763 0.146556 0.1 5.25233e-010 -1.31308e-010 0.00300398 
0.15524 0.130976 0.1 9.42311e-010 -2.35578e-010 0.00538939 
0.164875 0.117 0.1 4.57191e-010 -1.14298e-010 0.00261483 
0.176656 0.104774 0.1 8.72534e-010 -2.18134e-010 0.00499031 
0.190704 0.094444 0.1 3.91605e-010 -9.79012e-011 0.00223972 
0.207141 0.086156 0.1 3.11504e-010 -7.78758e-011 0.00178159 
0.226088 0.080056 0.1 7.98145e-010 -1.99536e-010 0.00456486 
0.247667 0.076288 0.1 2.30765e-010 -5.76913e-011 0.00131982 
0.272 0.075 0.1 2.68007e-010 -6.70018e-011 0.00153282 
0.362 0.075 0.1 8.2101e-009 -2.05252e-009 0.0469563 
0.362 0.361 0.1 5.78154e-009 -1.44539e-009 0.0330666 
0.262 4.37114e-009 -0.1 -6.19278e-011 1.5482e-011 -0.000354186 
0.229561 0.001874 -0.1 -2.66244e-010 6.65612e-011 -0.00152274 
0.199324 0.007407 -0.1 -5.6693e-010 1.41732e-010 -0.00324246 
0.171406 0.016469 -0.1 -8.98212e-010 2.24553e-010 -0.00513717 
0.145926 0.028926 -0.1 -1.25823e-009 3.14556e-010 -0.00719621 
0.123001 0.044647 -0.1 -1.64574e-009 4.11436e-010 -0.00941256 
0.10275 0.0635 -0.1 -5.43525e-009 1.35881e-009 -0.031086 
0.085291 0.085353 -0.1 -1.49035e-009 3.72586e-010 -0.00852378 
0.070741 0.110074 -0.1 -1.34928e-009 3.37319e-010 -0.00771696 
0.059219 0.137531 -0.1 -1.44587e-009 3.61468e-010 -0.00826943 
0.050843 0.167593 -0.1 -1.27092e-009 3.1773e-010 -0.00726881 
0.04573 0.200126 -0.1 -1.69054e-009 4.22634e-010 -0.00966874 
0.044 0.235 -0.1 -1.77521e-009 4.43802e-010 -0.010153 
0.045906 0.266697 -0.1 -1.34807e-009 3.37018e-010 -0.00771007 
0.051495 0.296657 -0.1 -1.60354e-009 4.00886e-010 -0.0091712 
0.060578 0.324688 -0.1 -1.53334e-009 3.83336e-010 -0.0087697 
0.072963 0.350593 -0.1 -1.64468e-009 4.11169e-010 -0.00940645 
0.088459 0.374178 -0.1 -1.44267e-009 3.60668e-010 -0.00825113 
0.106875 0.39525 -0.1 -1.4127e-009 3.53174e-010 -0.00807968 
0.12802 0.413613 -0.1 -1.40909e-009 3.52272e-010 -0.00805905 
0.151704 0.429074 -0.1 -3.70582e-009 9.26455e-010 -0.0211948 
0.177734 0.441438 -0.1 -9.3071e-010 2.32677e-010 -0.00532304 
0.205921 0.450509 -0.1 -3.69118e-010 9.22794e-011 -0.00211111 
0.236073 0.456095 -0.1 -1.06535e-010 2.66338e-011 -0.00060931 
0.268 0.458 -0.1 -3.07786e-012 7.69467e-013 -1.76033e-005 
0.275464 0.457894 -0.1 -7.64888e-012 1.91222e-012 -4.37465e-005 
0.28288 0.457569 -0.1 -1.10043e-011 2.75106e-012 -6.2937e-005 
0.290281 0.457016 -0.1 -1.51541e-011 3.78851e-012 -8.66711e-005 
0.297704 0.456222 -0.1 -2.01261e-011 5.03151e-012 -0.000115108 
0.305182 0.455179 -0.1 -1.12543e-010 2.81358e-011 -0.000643671 
0.31275 0.453875 -0.1 -6.2757e-011 1.56893e-011 -0.000358928 
0.320443 0.4523 -0.1 -7.35692e-011 1.83923e-011 -0.000420767 
0.328296 0.450444 -0.1 -3.03227e-010 7.58067e-011 -0.00173426 
0.336344 0.448297 -0.1 -1.47062e-010 3.67656e-011 -0.000841098 
0.34462 0.445847 -0.1 -1.65046e-010 4.12615e-011 -0.000943953 
0.353161 0.443085 -0.1 -1.84348e-010 4.6087e-011 -0.00105435 
0.362 0.44 -0.1 -1.89847e-008 4.74618e-009 -0.10858 
0.362 0.682 -0.1 -3.76582e-009 9.41456e-010 -0.021538 
0.451 0.682 -0.1 -1.43786e-008 3.59465e-009 -0.082236 
0.451 4.37114e-009 -0.1 -2.26814e-008 5.67036e-009 -0.129723 
0.354638 0.363855 -0.1 -1.99779e-010 4.99446e-011 -0.0011426 
0.347519 0.366426 -0.1 -1.92979e-010 4.82447e-011 -0.00110371 
0.340594 0.368719 -0.1 -2.6797e-009 6.69927e-010 -0.0153261 
0.333815 0.370741 -0.1 -1.69328e-011 4.2332e-012 -9.68444e-005 
0.327133 0.372499 -0.1 -3.17474e-011 7.93684e-012 -0.000181574 
0.3205 0.374 -0.1 -7.0778e-010 1.76945e-010 -0.00404803 
0.313867 0.375251 -0.1 -1.59046e-011 3.97616e-012 -9.09639e-005 
0.307185 0.376259 -0.1 -3.21554e-011 8.03886e-012 -0.000183908 
0.300406 0.377031 -0.1 -7.12502e-010 1.78126e-010 -0.00407504 
0.293481 0.377574 -0.1 -1.52141e-011 3.80353e-012 -8.70146e-005 
0.286362 0.377895 -0.1 -3.0573e-011 7.64324e-012 -0.000174857 
0.279 0.378 -0.1 -7.37234e-010 1.84308e-010 -0.00421649 
0.258101 0.376726 -0.1 -1.3108e-010 3.277e-011 -0.000749691 
0.238472 0.372972 -0.1 -8.30398e-010 2.07599e-010 -0.00474932 
0.220219 0.366844 -0.1 -2.74524e-010 6.86311e-011 -0.0015701 
0.203444 0.358444 -0.1 -3.88811e-010 9.72026e-011 -0.00222374 
0.188253 0.347878 -0.1 -9.75422e-010 2.43855e-010 -0.00557876 
0.17475 0.33525 -0.1 -4.96714e-010 1.24178e-010 -0.00284087 
0.163038 0.320663 -0.1 -1.05757e-009 2.64392e-010 -0.00604857 
0.153222 0.304222 -0.1 -5.9266e-010 1.48165e-010 -0.00338962 
0.145406 0.286031 -0.1 -1.14134e-009 2.85335e-010 -0.0065277 
0.139694 0.266194 -0.1 -1.18433e-009 2.96082e-010 -0.00677358 
0.136191 0.244816 -0.1 -7.04314e-010 1.76079e-010 -0.00402821 
0.135 0.222 -0.1 -1.24003e-009 3.10008e-010 -0.00709216 
0.135729 0.201462 -0.1 -6.31018e-010 1.57754e-010 -0.003609 
0.137995 0.181944 -0.1 -1.10571e-009 2.76427e-010 -0.00632392 
0.141922 0.163594 -0.1 -1.03473e-009 2.58683e-010 -0.00591798 
0.14763 0.146556 -0.1 -5.25233e-010 1.31308e-010 -0.00300398 
0.15524 0.130976 -0.1 -9.42311e-010 2.35578e-010 -0.00538939 
0.164875 0.117 -0.1 -4.57191e-010 1.14298e-010 -0.00261483 
0.176656 0.104774 -0.1 -8.72534e-010 2.18134e-010 -0.00499031 
0.190704 0.094444 -0.1 -3.91605e-010 9.79012e-011 -0.00223972 
0.207141 0.086156 -0.1 -3.11504e-010 7.78758e-011 -0.00178159 
0.226088 0.080056 -0.1 -7.98145e-010 1.99536e-010 -0.00456486 
0.247667 0.076288 -0.1 -2.30765e-010 5.76913e-011 -0.00131982 
0.272 0.075 -0.1 -2.68007e-010 6.70018e-011 -0.00153282 
0.362 0.075 -0.1 -8.2101e-009 2.05252e-009 -0.0469563 
0.362 0.361 -0.1 -5.78154e-009 1.44539e-009 -0.0330666 
0.262 4.37114e-009 -0.1 -0.0576738 -2.99834 -1.20977e-007 
0.262 -4.37114e-009 0.1 -0.115348 -2.99667 -1.10821e-007 
0.229561 0.001874 -0.1 -0.295347 -2.98034 -7.86349e-008 
0.229561 0.001874 0.1 -0.417672 -2.96567 -5.66055e-008 
0.199324 0.007407 -0.1 -0.668734 -2.91848 -1.06457e-008 
0.199324 0.007407 0.1 -0.797472 -2.88596 1.3285e-008 
0.171406 0.016469 -0.1 -1.05669 -2.80068 6.23357e-008 
0.171406 0.016469 0.1 -1.18716 -2.74791 8.74548e-008 
0.145926 0.028926 -0.1 -1.44398 -2.62148 1.37885e-007 
0.145926 0.028926 0.1 -1.57032 -2.54781 1.63195e-007 
0.123001 0.044647 -0.1 -1.8125 -2.38134 2.12816e-007 
0.123001 0.044647 0.1 -1.92834 -2.28855 2.37126e-007 
0.10275 0.0635 -0.1 -2.14406 -2.08802 2.83609e-007 
0.10275 0.0635 0.1 -2.24394 -1.98029 3.05782e-007 
0.085291 0.085353 -0.1 -2.42436 -1.7556 3.47149e-007 
0.085291 0.085353 0.1 -2.50489 -1.63865 3.66341e-007 
0.070741 0.110074 -0.1 -2.64572 -1.40142 4.01334e-007 
0.070741 0.110074 0.1 -2.70601 -1.28113 4.17134e-007 
0.059219 0.137531 -0.1 -2.80751 -1.0423 4.4532e-007 
0.059219 0.137531 0.1 -2.84872 -0.92375 4.57707e-007 
0.050843 0.167593 -0.1 -2.91449 -0.692059 4.79335e-007 
0.050843 0.167593 0.1 -2.93906 -0.578916 4.88576e-007 
0.04573 0.200126 -0.1 -2.97452 -0.360062 5.04343e-007 
0.04573 0.200126 0.1 -2.98542 -0.25435 5.10869e-007 
0.044 0.235 -0.1 -2.99574 -0.0390689 5.22084e-007 
0.044 0.235 0.1 -2.99517 0.0705007 5.26773e-007 
0.045906 0.266697 -0.1 -2.97943 0.303432 5.34204e-007 
0.045906 0.266697 0.1 -2.96428 0.426794 5.36947e-007 
0.051495 0.296657 -0.1 -2.91739 0.675025 5.39598e-007 
0.051495 0.296657 0.1 -2.88565 0.799895 5.39507e-007 
0.060578 0.324688 -0.1 -2.8048 1.04784 5.36209e-007 
0.060578 0.324688 0.1 -2.75569 1.17092 5.33003e-007 
0.072963 0.350593 -0.1 -2.64014 1.41177 5.23327e-007 
0.072963 0.350593 0.1 -2.57369 1.52955 5.16857e-007 
0.088459 0.374178 -0.1 -2.42446 1.75628 5.00676e-007 
0.088459 0.374178 0.1 -2.34168 1.86523 4.90964e-007 
0.106875 0.39525 -0.1 -2.16162 2.07115 4.68483e-007 
0.106875 0.39525 0.1 -2.06435 2.16812 4.55714e-007 
0.12802 0.413613 -0.1 -1.85802 2.34743 4.27476e-007 
0.12802 0.413613 0.1 -1.74897 2.42977 4.12008e-007 
0.151704 0.429074 -0.1 -1.52232 2.57802 3.7886e-007 
0.151704 0.429074 0.1 -1.40474 2.64393 3.61182e-007 
0.177734 0.441438 -0.1 -1.16444 2.75848 3.24175e-007 
0.177734 0.441438 0.1 -1.04174 2.80712 3.04847e-007 
0.205921 0.450509 -0.1 -0.794848 2.88711 2.65175e-007 
0.205921 0.450509 0.1 -0.670666 2.91846 2.44832e-007 
0.236073 0.456095 -0.1 -0.423884 2.96476 2.03708e-007 
0.236073 0.456095 0.1 -0.301284 2.97972 1.82926e-007 
0.268 0.458 -0.1 -0.104921 2.99635 1.49319e-007 
0.268 0.458 0.1 -0.0311592 2.99802 1.36496e-007 
0.275464 0.457894 -0.1 0.0721833 2.99884 1.18463e-007 
0.275464 0.457894 0.1 0.101764 2.99798 1.13253e-007 
0.28288 0.457569 -0.1 0.162076 2.9953 1.02591e-007 
0.28288 0.457569 0.1 0.192809 2.99348 9.71371e-008 
0.290281 0.457016 -0.1 0.255384 2.98877 8.59906e-008 
0.290281 0.457016 0.1 0.287228 2.98588 8.02967e-008 
0.297704 0.456222 -0.1 0.350852 2.97907 6.88743e-008 
0.297704 0.456222 0.1 0.382632 2.97515 6.31465e-008 
0.305182 0.455179 -0.1 0.446077 2.9663 5.16666e-008 
0.305182 0.455179 0.1 0.477742 2.96137 4.59145e-008 
0.31275 0.453875 -0.1 0.540175 2.95064 3.45292e-008 
0.31275 0.453875 0.1 0.570943 2.94484 2.8896e-008 
0.320443 0.4523 -0.1 0.631147 2.93255 1.78325e-008 
0.320443 0.4523 0.1 0.660583 2.92606 1.24021e-008 
0.328296 0.450444 -0.1 0.717774 2.91259 1.81361e-009 
0.328296 0.450444 0.1 0.74553 2.90561 -3.3445e-009 
0.336344 0.448297 -0.1 0.799383 2.89128 -1.33866e-008 
0.336344 0.448297 0.1 0.82548 2.88394 -1.82705e-008 
0.34462 0.445847 -0.1 0.875409 2.86922 -2.76438e-008 
0.34462 0.445847 0.1 0.899241 2.86184 -3.21333e-008 
0.353161 0.443085 -0.1 0.944912 2.84712 -4.07621e-008 
0.353161 0.443085 0.1 0.96675 2.83978 -4.49014e-008 
0.362 0.44 -0.1 -0.340941 1.88829 1.42152e-007 
0.362 0.44 0.1 -1.67047 0.944145 3.33344e-007 
0.362 0.682 -0.1 -2 1 3.93403e-007 
0.362 0.682 0.1 -1 2 2.62269e-007 
0.451 0.682 -0.1 1 2 -8.74228e-008 
0.451 0.682 0.1 2 1 -3.0598e-007 
0.451 4.37114e-009 -0.1 2 -1 -3.93403e-007 
0.451 -4.37114e-009 0.1 1 -2 -2.62269e-007 
0.354638 0.363855 -0.1 -1.06281 -2.80524 6.32065e-008 
0.354638 0.363855 0.1 -1.04091 -2.81343 5.90195e-008 
0.347519 0.366426 -0.1 -0.993681 -2.8304 5.00201e-008 
0.347519 0.366426 0.1 -0.968347 -2.83917 4.52072e-008 
0.340594 0.368719 -0.1 -0.914505 -2.8569 3.5018e-008 
0.340594 0.368719 0.1 -0.885998 -2.86587 2.96416e-008 
0.333815 0.370741 -0.1 -0.826094 -2.88365 1.83905e-008 
0.333815 0.370741 0.1 -0.794697 -2.89246 1.25157e-008 
0.327133 0.372499 -0.1 -0.729581 -2.90952 3.84894e-010 
0.327133 0.372499 0.1 -0.695863 -2.91777 -5.87112e-009 
0.3205 0.374 -0.1 -0.626763 -2.93335 -1.86342e-008 
0.3205 0.374 0.1 -0.591381 -2.94069 -2.51413e-008 
0.313867 0.375251 -0.1 -0.519831 -2.95416 -3.82404e-008 
0.313867 0.375251 0.1 -0.483664 -2.9603 -4.48324e-008 
0.307185 0.376259 -0.1 -0.411481 -2.9712 -5.79297e-008 
0.307185 0.376259 0.1 -0.375466 -2.97597 -6.44352e-008 
0.300406 0.377031 -0.1 -0.304471 -2.9841 -7.72033e-008 
0.300406 0.377031 0.1 -0.269492 -2.98746 -8.34663e-008 
0.293481 0.377574 -0.1 -0.201387 -2.99287 -9.56102e-008 
0.293481 0.377574 0.1 -0.168261 -2.99491 -1.01492e-007 
0.286362 0.377895 -0.1 -0.10435 -2.99787 -1.12795e-007 
0.286362 0.377895 0.1 -0.0735652 -2.99878 -1.18219e-007 
0.279 0.378 -0.1 0.032326 -2.99794 -1.36696e-007 
0.279 0.378 0.1 0.107433 -2.99619 -1.49752e-007 
0.258101 0.376726 -0.1 0.309536 -2.97849 -1.84315e-007 
0.258101 0.376726 0.1 0.436532 -2.96255 -2.05823e-007 
0.238472 0.372972 -0.1 0.693954 -2.9124 -2.48639e-007 
0.238472 0.372972 0.1 0.82438 -2.8782 -2.6995e-007 
0.220219 0.366844 -0.1 1.08428 -2.79016 -3.11544e-007 
0.220219 0.366844 0.1 1.21376 -2.73632 -3.31829e-007 
0.203444 0.358444 -0.1 1.4665 -2.60927 -3.70466e-007 
0.203444 0.358444 0.1 1.58975 -2.53606 -3.88815e-007 
0.188253 0.347878 -0.1 1.82506 -2.37227 -4.22799e-007 
0.188253 0.347878 0.1 1.9371 -2.2817 -4.3843e-007 
0.17475 0.33525 -0.1 2.14586 -2.08683 -4.66412e-007 
0.17475 0.33525 0.1 2.24257 -1.98253 -4.78763e-007 
0.163038 0.320663 -0.1 2.41813 -1.76478 -4.99941e-007 
0.163038 0.320663 0.1 2.49698 -1.65133 -5.08768e-007 
0.153222 0.304222 -0.1 2.636 -1.42002 -5.22964e-007 
0.153222 0.304222 0.1 2.69617 -1.30216 -5.28333e-007 
0.145406 0.286031 -0.1 2.79852 -1.06624 -5.35915e-007 
0.145406 0.286031 0.1 2.84069 -0.948173 -5.38128e-007 
0.139694 0.266194 -0.1 2.90875 -0.71511 -5.3984e-007 
0.139694 0.266194 0.1 2.93463 -0.600111 -5.3934e-007 
0.136191 0.244816 -0.1 2.97232 -0.375537 -5.36112e-007 
0.136191 0.244816 0.1 2.98412 -0.265962 -5.33386e-007 
0.135 0.222 -0.1 2.99665 -0.068785 -5.26957e-007 
0.135 0.222 0.1 2.99738 0.0188164 -5.23256e-007 
0.135729 0.201462 -0.1 2.99207 0.186269 -5.15008e-007 
0.135729 0.201462 0.1 2.98603 0.26612 -5.10461e-007 
0.137995 0.181944 -0.1 2.96451 0.439914 -4.99103e-007 
0.137995 0.181944 0.1 2.94904 0.533857 -4.92291e-007 
0.141922 0.163594 -0.1 2.90392 0.736197 -4.75558e-007 
0.141922 0.163594 0.1 2.87427 0.844594 -4.65635e-007 
0.14763 0.146556 -0.1 2.79495 1.07422 -4.41729e-007 
0.14763 0.146556 0.1 2.74529 1.19544 -4.27747e-007 
0.15524 0.130976 -0.1 2.62039 1.44537 -3.94985e-007 
0.15524 0.130976 0.1 2.54517 1.57407 -3.76207e-007 
0.164875 0.117 -0.1 2.36672 1.82906 -3.33859e-007 
0.164875 0.117 0.1 2.26349 1.95535 -3.10291e-007 
0.176656 0.104774 -0.1 2.03259 2.1934 -2.59513e-007 
0.176656 0.104774 0.1 1.90491 2.30515 -2.32304e-007 
0.190704 0.094444 -0.1 1.63506 2.50418 -1.76421e-007 
0.190704 0.094444 0.1 1.49287 2.59146 -1.47746e-007 
0.207141 0.086156 -0.1 1.20692 2.73771 -9.13558e-008 
0.207141 0.086156 0.1 1.06315 2.79668 -6.36404e-008 
0.226088 0.080056 -0.1 0.784931 2.88886 -1.09656e-008 
0.226088 0.080056 0.1 0.650483 2.92207 1.39939e-008 
0.247667 0.076288 -0.1 0.396881 2.96879 6.03772e-008 
0.247667 0.076288 0.1 0.277728 2.9823 8.18013e-008 
0.272 0.075 -0.1 0.105716 2.9972 1.12528e-007 
0.272 0.075 0.1 0.0528581 2.9986 1.21831e-007 
0.362 0.075 -0.1 -1 2 2.62269e-007 
0.362 0.075 0.1 -2 1 3.93403e-007 
0.362 0.361 -0.1 -2.36157 -0.932346 3.72156e-007 
0.362 0.361 0.1 -1.72313 -1.86469 2.19774e-007 
3 36 38 37 
3 36 39 38 
3 23 25 24 
3 23 26 25 
3 23 27 26 
3 23 28 27 
3 23 29 28 
3 22 29 23 
3 22 30 29 
3 22 31 30 
3 22 32 31 
3 21 32 22 
3 21 33 32 
3 21 34 33 
3 21 35 34 
3 21 36 35 
3 20 36 21 
3 20 42 36 
3 42 41 36 
3 41 40 36 
3 40 77 36 
3 77 39 36 
3 19 45 20 
3 45 44 20 
3 44 43 20 
3 43 42 20 
3 18 48 19 
3 48 47 19 
3 47 46 19 
3 46 45 19 
3 17 51 18 
3 51 50 18 
3 50 49 18 
3 49 48 18 
3 17 52 51 
3 17 53 52 
3 16 53 17 
3 16 54 53 
3 16 55 54 
3 76 39 77 
3 16 56 55 
3 15 56 16 
3 15 57 56 
3 15 58 57 
3 14 58 15 
3 14 59 58 
3 14 60 59 
3 13 60 14 
3 13 61 60 
3 12 61 13 
3 12 62 61 
3 12 63 62 
3 11 63 12 
3 11 64 63 
3 11 65 64 
3 10 65 11 
3 10 66 65 
3 9 66 10 
3 9 67 66 
3 9 68 67 
3 8 68 9 
3 8 69 68 
3 8 70 69 
3 7 70 8 
3 7 71 70 
3 7 72 71 
3 7 73 72 
3 6 73 7 
3 6 74 73 
3 6 75 74 
3 6 76 75 
3 6 39 76 
3 5 39 6 
3 4 39 5 
3 3 39 4 
3 2 39 3 
3 1 39 2 
3 0 39 1 
3 116 114 115 
3 117 114 116 
3 103 101 102 
3 104 101 103 
3 105 101 104 
3 106 101 105 
3 107 101 106 
3 107 100 101 
3 108 100 107 
3 109 100 108 
3 110 100 109 
3 110 99 100 
3 111 99 110 
3 112 99 111 
3 113 99 112 
3 114 99 113 
3 114 98 99 
3 120 98 114 
3 119 120 114 
3 118 119 114 
3 155 118 114 
3 117 155 114 
3 123 97 98 
3 122 123 98 
3 121 122 98 
3 120 121 98 
3 126 96 97 
3 125 126 97 
3 124 125 97 
3 123 124 97 
3 129 95 96 
3 128 129 96 
3 127 128 96 
3 126 127 96 
3 130 95 129 
3 131 95 130 
3 131 94 95 
3 132 94 131 
3 133 94 132 
3 117 154 155 
3 134 94 133 
3 134 93 94 
3 135 93 134 
3 136 93 135 
3 136 92 93 
3 137 92 136 
3 138 92 137 
3 138 91 92 
3 139 91 138 
3 139 90 91 
3 140 90 139 
3 141 90 140 
3 141 89 90 
3 142 89 141 
3 143 89 142 
3 143 88 89 
3 144 88 143 
3 144 87 88 
3 145 87 144 
3 146 87 145 
3 146 86 87 
3 147 86 146 
3 148 86 147 
3 148 85 86 
3 149 85 148 
3 150 85 149 
3 151 85 150 
3 151 84 85 
3 152 84 151 
3 153 84 152 
3 154 84 153 
3 117 84 154 
3 117 83 84 
3 117 82 83 
3 117 81 82 
3 117 80 81 
3 117 79 80 
3 117 78 79 
3 157 159 158 
3 157 158 156 
3 159 161 160 
3 159 160 158 
3 161 163 162 
3 161 162 160 
3 163 165 164 
3 163 164 162 
3 165 167 166 
3 165 166 164 
3 167 169 168 
3 167 168 166 
3 169 171 170 
3 169 170 168 
3 171 173 172 
3 171 172 170 
3 173 175 174 
3 173 174 172 
3 175 177 176 
3 175 176 174 
3 177 179 178 
3 177 178 176 
3 179 181 180 
3 179 180 178 
3 181 183 182 
3 181 182 180 
3 183 185 184 
3 183 184 182 
3 185 187 186 
3 185 186 184 
3 187 189 188 
3 187 188 186 
3 189 191 190 
3 189 190 188 
3 191 193 192 
3 191 192 190 
3 193 195 194 
3 193 194 192 
3 195 197 196 
3 195 196 194 
3 197 199 198 
3 197 198 196 
3 199 201 200 
3 199 200 198 
3 201 203 202 
3 201 202 200 
3 203 205 204 
3 203 204 202 
3 205 207 206 
3 205 206 204 
3 207 209 208 
3 207 208 206 
3 209 211 210 
3 209 210 208 
3 211 213 212 
3 211 212 210 
3 213 215 214 
3 213 214 212 
3 215 217 216 
3 215 216 214 
3 217 219 218 
3 217 218 216 
3 219 221 220 
3 219 220 218 
3 221 223 222 
3 221 222 220 
3 223 225 224 
3 223 224 222 
3 225 227 226 
3 225 226 224 
3 227 229 228 
3 227 228 226 
3 229 231 230 
3 229 230 228 
3 231 233 232 
3 231 232 230 
3 233 235 234 
3 233 234 232 
3 235 157 156 
3 235 156 234 
3 237 239 238 
3 237 238 236 
3 239 241 240 
3 239 240 238 
3 241 243 242 
3 241 242 240 
3 243 245 244 
3 243 244 242 
3 245 247 246 
3 245 246 244 
3 247 249 248 
3 247 248 246 
3 249 251 250 
3 249 250 248 
3 251 253 252 
3 251 252 250 
3 253 255 254 
3 253 254 252 
3 255 257 256 
3 255 256 254 
3 257 259 258 
3 257 258 256 
3 259 261 260 
3 259 260 258 
3 261 263 262 
3 261 262 260 
3 263 265 264 
3 263 264 262 
3 265 267 266 
3 265 266 264 
3 267 269 268 
3 267 268 266 
3 269 271 270 
3 269 270 268 
3 271 273 272 
3 271 272 270 
3 273 275 274 
3 273 274 272 
3 275 277 276 
3 275 276 274 
3 277 279 278 
3 277 278 276 
3 279 281 280 
3 279 280 278 
3 281 283 282 
3 281 282 280 
3 283 285 284 
3 283 284 282 
3 285 287 286 
3 285 286 284 
3 287 289 288 
3 287 288 286 
3 289 291 290 
3 289 290 288 
3 291 293 292 
3 291 292 290 
3 293 295 294 
3 293 294 292 
3 295 297 296 
3 295 296 294 
3 297 299 298 
3 297 298 296 
3 299 301 300 
3 299 300 298 
3 301 303 302 
3 301 302 300 
3 303 305 304 
3 303 304 302 
3 305 307 306 
3 305 306 304 
3 307 309 308 
3 307 308 306 
3 309 311 310 
3 309 310 308 
3 311 237 236 
3 311 236 310 
