ply
format ascii 1.0
comment VCGLIB generated
element vertex 392
property float x
property float y
property float z
property float nx
property float ny
property float nz
element face 388
property list uchar int vertex_indices
end_header
0.035933 0.289822 0.1 2.71326e-007 0 3.10361 
0.047218 0.298241 0.1 2.71082e-007 0 3.10082 
0.058828 0.306187 0.1 2.70801e-007 0 3.09761 
0.070741 0.313593 0.1 2.70473e-007 0 3.09385 
0.082931 0.320387 0.1 2.70114e-007 0 3.08974 
0.095375 0.3265 0.1 2.69727e-007 0 3.08531 
0.108048 0.331863 0.1 2.69303e-007 0 3.08047 
0.120926 0.336407 0.1 2.68858e-007 0 3.07537 
0.133984 0.340063 0.1 2.68375e-007 0 3.06985 
0.147199 0.342759 0.1 2.67928e-007 0 3.06474 
0.160546 0.344428 0.1 2.67486e-007 0 3.05968 
0.174 0.345 0.1 2.67663e-007 0 3.06171 
0.18429 0.344615 0.1 2.68587e-007 0 3.07228 
0.194653 0.343505 0.1 2.69264e-007 0 3.08003 
0.205078 0.341734 0.1 2.69959e-007 0 3.08797 
0.215556 0.33937 0.1 2.70598e-007 0 3.09528 
0.226075 0.336479 0.1 2.71185e-007 0 3.102 
0.236625 0.333125 0.1 2.71762e-007 0 3.10859 
0.247196 0.329376 0.1 2.7227e-007 0 3.1144 
0.257778 0.325296 0.1 2.72769e-007 0 3.12011 
0.268359 0.320953 0.1 2.73229e-007 0 3.12537 
0.278931 0.316412 0.1 2.73662e-007 0 3.13033 
0.289481 0.311739 0.1 2.74095e-007 0 3.13528 
0.3 0.307 0.1 2.74515e-007 0 3.14009 
0.310477 0.302261 0.1 2.74946e-007 0 3.14502 
0.320903 0.297588 0.1 2.75378e-007 0 3.14996 
0.331266 0.293047 0.1 2.75837e-007 0 3.15521 
0.341556 0.288704 0.1 2.76314e-007 0 3.16067 
0.351762 0.284624 0.1 2.76858e-007 0 3.16689 
0.361875 0.280875 0.1 2.77415e-007 0 3.17326 
0.371884 0.277521 0.1 2.7806e-007 0 3.18064 
0.381778 0.27463 0.1 2.78743e-007 0 3.18845 
0.391547 0.272266 0.1 2.7951e-007 0 3.19722 
0.401181 0.270495 0.1 2.80358e-007 0 3.20692 
0.410668 0.269385 0.1 2.81224e-007 0 3.21683 
0.42 0.269 0.1 2.8333e-007 0 3.24092 
0.431177 0.26965 0.1 2.83768e-007 0 3.24592 
0.442662 0.271532 0.1 2.82444e-007 0 3.23078 
0.454391 0.274547 0.1 2.81291e-007 0 3.21759 
0.466296 0.278593 0.1 2.80327e-007 0 3.20657 
0.478313 0.283569 0.1 2.79545e-007 0 3.19762 
0.490375 0.289375 0.1 2.78898e-007 0 3.19022 
0.502416 0.29591 0.1 2.78376e-007 0 3.18425 
0.51437 0.303074 0.1 2.77943e-007 0 3.1793 
0.526172 0.310766 0.1 2.77592e-007 0 3.17528 
0.537755 0.318884 0.1 2.77321e-007 0 3.17218 
0.549053 0.327329 0.1 2.77096e-007 0 3.1696 
0.56 0.336 0.0999999 7.8759e-008 0 0.900898 
0.56 0.253 0.0999999 1.97386e-007 0 2.25783 
0.549508 0.244388 0.1 2.71179e-007 0 3.10193 
0.53856 0.236106 0.1 2.71017e-007 0 3.10007 
0.527203 0.228234 0.1 2.70795e-007 0 3.09754 
0.515482 0.220852 0.1 2.70523e-007 0 3.09442 
0.50344 0.214039 0.1 2.70206e-007 0 3.09079 
0.491125 0.207875 0.1 2.6982e-007 0 3.08638 
0.478581 0.20244 0.1 2.69371e-007 0 3.08125 
0.465852 0.197815 0.1 2.68888e-007 0 3.07572 
0.452984 0.194078 0.1 2.68332e-007 0 3.06936 
0.440023 0.19131 0.1 2.67737e-007 0 3.06256 
0.427013 0.189591 0.1 2.6713e-007 0 3.05561 
0.414 0.189 0.1 2.67264e-007 0 3.05714 
0.40415 0.189385 0.1 2.6843e-007 0 3.07048 
0.394116 0.190495 0.1 2.69241e-007 0 3.07976 
0.383922 0.192266 0.1 2.70015e-007 0 3.08861 
0.373593 0.19463 0.1 2.70702e-007 0 3.09647 
0.363152 0.197521 0.1 2.71296e-007 0 3.10327 
0.352625 0.200875 0.1 2.71867e-007 0 3.10979 
0.342035 0.204624 0.1 2.72348e-007 0 3.11529 
0.331407 0.208704 0.1 2.72814e-007 0 3.12063 
0.320766 0.213047 0.1 2.73235e-007 0 3.12544 
0.310134 0.217588 0.1 2.73624e-007 0 3.12989 
0.299538 0.222261 0.1 2.74013e-007 0 3.13434 
0.289 0.227 0.1 2.75225e-007 0 3.1482 
0.278273 0.231739 0.1 2.7493e-007 0 3.14483 
0.267602 0.236412 0.1 2.75354e-007 0 3.14968 
0.257 0.240953 0.1 2.75794e-007 0 3.15472 
0.246481 0.245296 0.1 2.76254e-007 0 3.15997 
0.23606 0.249376 0.1 2.7678e-007 0 3.166 
0.22575 0.253125 0.1 2.77326e-007 0 3.17224 
0.215565 0.256479 0.1 2.77961e-007 0 3.17951 
0.205519 0.25937 0.1 2.78639e-007 0 3.18726 
0.195625 0.261734 0.1 2.79406e-007 0 3.19603 
0.185898 0.263505 0.1 2.80271e-007 0 3.20593 
0.176352 0.264615 0.1 2.8117e-007 0 3.21621 
0.167 0.265 0.1 2.82636e-007 0 3.23298 
0.154829 0.264388 0.1 2.83113e-007 0 3.23844 
0.142801 0.262606 0.1 2.82475e-007 0 3.23113 
0.130891 0.259734 0.1 2.81709e-007 0 3.22237 
0.119074 0.255852 0.1 2.80894e-007 0 3.21305 
0.107327 0.251039 0.1 2.8006e-007 0 3.20351 
0.095625 0.245375 0.1 2.79258e-007 0 3.19434 
0.083944 0.23894 0.1 2.78496e-007 0 3.18562 
0.072259 0.231815 0.1 2.77814e-007 0 3.17782 
0.060547 0.224078 0.1 2.77163e-007 0 3.17038 
0.048782 0.21581 0.1 2.76584e-007 0 3.16376 
0.036942 0.207091 0.1 2.76039e-007 0 3.15752 
0.025 0.198 0.1 8.04399e-008 0 0.920126 
0.025 0.281 0.1 1.96678e-007 0 2.24973 
0.035933 0.289822 -0.1 -2.71326e-007 0 -3.10361 
0.047218 0.298241 -0.1 -2.71082e-007 0 -3.10082 
0.058828 0.306187 -0.1 -2.70801e-007 0 -3.09761 
0.070741 0.313593 -0.1 -2.70473e-007 0 -3.09385 
0.082931 0.320387 -0.1 -2.70114e-007 0 -3.08974 
0.095375 0.3265 -0.1 -2.69727e-007 0 -3.08531 
0.108048 0.331863 -0.1 -2.69303e-007 0 -3.08047 
0.120926 0.336407 -0.1 -2.68858e-007 0 -3.07537 
0.133984 0.340063 -0.1 -2.68375e-007 0 -3.06985 
0.147199 0.342759 -0.1 -2.67928e-007 0 -3.06474 
0.160546 0.344428 -0.1 -2.67486e-007 0 -3.05968 
0.174 0.345 -0.1 -2.67663e-007 0 -3.06171 
0.18429 0.344615 -0.1 -2.68587e-007 0 -3.07228 
0.194653 0.343505 -0.1 -2.69264e-007 0 -3.08003 
0.205078 0.341734 -0.1 -2.69959e-007 0 -3.08797 
0.215556 0.33937 -0.1 -2.70598e-007 0 -3.09528 
0.226075 0.336479 -0.1 -2.71185e-007 0 -3.102 
0.236625 0.333125 -0.1 -2.71762e-007 0 -3.10859 
0.247196 0.329376 -0.1 -2.7227e-007 0 -3.1144 
0.257778 0.325296 -0.1 -2.72769e-007 0 -3.12011 
0.268359 0.320953 -0.1 -2.73229e-007 0 -3.12537 
0.278931 0.316412 -0.1 -2.73662e-007 0 -3.13033 
0.289481 0.311739 -0.1 -2.74095e-007 0 -3.13528 
0.3 0.307 -0.1 -2.74515e-007 0 -3.14009 
0.310477 0.302261 -0.1 -2.74946e-007 0 -3.14502 
0.320903 0.297588 -0.1 -2.75378e-007 0 -3.14996 
0.331266 0.293047 -0.1 -2.75837e-007 0 -3.15521 
0.341556 0.288704 -0.1 -2.76314e-007 0 -3.16067 
0.351762 0.284624 -0.1 -2.76858e-007 0 -3.16689 
0.361875 0.280875 -0.1 -2.77415e-007 0 -3.17326 
0.371884 0.277521 -0.1 -2.7806e-007 0 -3.18064 
0.381778 0.27463 -0.1 -2.78743e-007 0 -3.18845 
0.391547 0.272266 -0.1 -2.7951e-007 0 -3.19722 
0.401181 0.270495 -0.1 -2.80358e-007 0 -3.20692 
0.410668 0.269385 -0.1 -2.81224e-007 0 -3.21683 
0.42 0.269 -0.1 -2.8333e-007 0 -3.24092 
0.431177 0.26965 -0.1 -2.83768e-007 0 -3.24592 
0.442662 0.271532 -0.1 -2.82444e-007 0 -3.23078 
0.454391 0.274547 -0.1 -2.81291e-007 0 -3.21759 
0.466296 0.278593 -0.1 -2.80327e-007 0 -3.20657 
0.478313 0.283569 -0.1 -2.79545e-007 0 -3.19762 
0.490375 0.289375 -0.1 -2.78898e-007 0 -3.19022 
0.502416 0.29591 -0.1 -2.78376e-007 0 -3.18425 
0.51437 0.303074 -0.1 -2.77943e-007 0 -3.1793 
0.526172 0.310766 -0.1 -2.77592e-007 0 -3.17528 
0.537755 0.318884 -0.1 -2.77321e-007 0 -3.17218 
0.549053 0.327329 -0.1 -2.77096e-007 0 -3.1696 
0.56 0.336 -0.1 -7.8759e-008 0 -0.900898 
0.56 0.253 -0.1 -1.97386e-007 0 -2.25783 
0.549508 0.244388 -0.1 -2.71179e-007 0 -3.10193 
0.53856 0.236106 -0.1 -2.71017e-007 0 -3.10007 
0.527203 0.228234 -0.1 -2.70795e-007 0 -3.09754 
0.515482 0.220852 -0.1 -2.70523e-007 0 -3.09442 
0.50344 0.214039 -0.1 -2.70206e-007 0 -3.09079 
0.491125 0.207875 -0.1 -2.6982e-007 0 -3.08638 
0.478581 0.20244 -0.1 -2.69371e-007 0 -3.08125 
0.465852 0.197815 -0.1 -2.68888e-007 0 -3.07572 
0.452984 0.194078 -0.1 -2.68332e-007 0 -3.06936 
0.440023 0.19131 -0.1 -2.67737e-007 0 -3.06256 
0.427013 0.189591 -0.1 -2.6713e-007 0 -3.05561 
0.414 0.189 -0.1 -2.67264e-007 0 -3.05714 
0.40415 0.189385 -0.1 -2.6843e-007 0 -3.07048 
0.394116 0.190495 -0.1 -2.69241e-007 0 -3.07976 
0.383922 0.192266 -0.1 -2.70015e-007 0 -3.08861 
0.373593 0.19463 -0.1 -2.70702e-007 0 -3.09647 
0.363152 0.197521 -0.1 -2.71296e-007 0 -3.10327 
0.352625 0.200875 -0.1 -2.71867e-007 0 -3.10979 
0.342035 0.204624 -0.1 -2.72348e-007 0 -3.11529 
0.331407 0.208704 -0.1 -2.72814e-007 0 -3.12063 
0.320766 0.213047 -0.1 -2.73235e-007 0 -3.12544 
0.310134 0.217588 -0.1 -2.73624e-007 0 -3.12989 
0.299538 0.222261 -0.1 -2.74013e-007 0 -3.13434 
0.289 0.227 -0.1 -2.75225e-007 0 -3.1482 
0.278273 0.231739 -0.1 -2.7493e-007 0 -3.14483 
0.267602 0.236412 -0.1 -2.75354e-007 0 -3.14968 
0.257 0.240953 -0.1 -2.75794e-007 0 -3.15472 
0.246481 0.245296 -0.1 -2.76254e-007 0 -3.15997 
0.23606 0.249376 -0.1 -2.7678e-007 0 -3.166 
0.22575 0.253125 -0.1 -2.77326e-007 0 -3.17224 
0.215565 0.256479 -0.1 -2.77961e-007 0 -3.17951 
0.205519 0.25937 -0.1 -2.78639e-007 0 -3.18726 
0.195625 0.261734 -0.1 -2.79406e-007 0 -3.19603 
0.185898 0.263505 -0.1 -2.80271e-007 0 -3.20593 
0.176352 0.264615 -0.1 -2.8117e-007 0 -3.21621 
0.167 0.265 -0.1 -2.82636e-007 0 -3.23298 
0.154829 0.264388 -0.1 -2.83113e-007 0 -3.23844 
0.142801 0.262606 -0.1 -2.82475e-007 0 -3.23113 
0.130891 0.259734 -0.1 -2.81709e-007 0 -3.22237 
0.119074 0.255852 -0.1 -2.80894e-007 0 -3.21305 
0.107327 0.251039 -0.1 -2.8006e-007 0 -3.20351 
0.095625 0.245375 -0.1 -2.79258e-007 0 -3.19434 
0.083944 0.23894 -0.1 -2.78496e-007 0 -3.18562 
0.072259 0.231815 -0.1 -2.77814e-007 0 -3.17782 
0.060547 0.224078 -0.1 -2.77163e-007 0 -3.17038 
0.048782 0.21581 -0.1 -2.76584e-007 0 -3.16376 
0.036942 0.207091 -0.1 -2.76039e-007 0 -3.15752 
0.025 0.198 -0.1 -8.04399e-008 0 -0.920126 
0.025 0.281 -0.1 -1.96678e-007 0 -2.24973 
0.035933 0.289822 -0.1 -1.92569 2.48148 1.6835e-007 
0.035933 0.289822 0.1 -1.92569 2.48148 1.6835e-007 
0.047218 0.298241 -0.1 -1.82646 2.5553 1.59674e-007 
0.047218 0.298241 0.1 -1.82646 2.5553 1.59674e-007 
0.058828 0.306187 -0.1 -1.71651 2.63029 1.50062e-007 
0.058828 0.306187 0.1 -1.71651 2.63029 1.50062e-007 
0.070741 0.313593 -0.1 -1.59405 2.7061 1.39356e-007 
0.070741 0.313593 0.1 -1.59405 2.7061 1.39356e-007 
0.082931 0.320387 -0.1 -1.4573 2.78195 1.27401e-007 
0.082931 0.320387 0.1 -1.4573 2.78195 1.27401e-007 
0.095375 0.3265 -0.1 -1.30476 2.85647 1.14066e-007 
0.095375 0.3265 0.1 -1.30476 2.85647 1.14066e-007 
0.108048 0.331863 -0.1 -1.13485 2.92789 9.92116e-008 
0.108048 0.331863 0.1 -1.13485 2.92788 9.92116e-008 
0.120926 0.336407 -0.1 -0.946182 2.99392 8.27179e-008 
0.120926 0.336407 0.1 -0.946182 2.99391 8.27179e-008 
0.133984 0.340063 -0.1 -0.7375 3.05172 6.44743e-008 
0.133984 0.340063 0.1 -0.7375 3.05172 6.44743e-008 
0.147199 0.342759 -0.1 -0.508896 3.09775 4.44891e-008 
0.147199 0.342759 0.1 -0.508896 3.09775 4.44891e-008 
0.160546 0.344428 -0.1 -0.261626 3.12804 2.28721e-008 
0.160546 0.344428 0.1 -0.261626 3.12804 2.28721e-008 
0.174 0.345 -0.1 -0.00799401 3.13908 6.98858e-010 
0.174 0.345 0.1 -0.007994 3.13908 6.98858e-010 
0.18429 0.344615 -0.1 0.226025 3.13156 -1.97597e-008 
0.18429 0.344615 0.1 0.226025 3.13156 -1.97597e-008 
0.194653 0.343505 -0.1 0.430375 3.11047 -3.76246e-008 
0.194653 0.343505 0.1 0.430375 3.11047 -3.76246e-008 
0.205078 0.341734 -0.1 0.608783 3.08089 -5.32215e-008 
0.205078 0.341734 0.1 0.608782 3.08089 -5.32215e-008 
0.215556 0.33937 -0.1 0.761981 3.04692 -6.66145e-008 
0.215556 0.33937 0.1 0.761981 3.04692 -6.66145e-008 
0.226075 0.336479 -0.1 0.892186 3.0116 -7.79974e-008 
0.226075 0.336479 0.1 0.892186 3.0116 -7.79974e-008 
0.236625 0.333125 -0.1 1.00095 2.97742 -8.75057e-008 
0.236625 0.333125 0.1 1.00095 2.97742 -8.75056e-008 
0.247196 0.329376 -0.1 1.09013 2.94608 -9.53021e-008 
0.247196 0.329376 0.1 1.09013 2.94608 -9.5302e-008 
0.257778 0.325296 -0.1 1.16154 2.91878 -1.01545e-007 
0.257778 0.325296 0.1 1.16154 2.91878 -1.01545e-007 
0.268359 0.320953 -0.1 1.21639 2.89644 -1.0634e-007 
0.268359 0.320953 0.1 1.21639 2.89644 -1.0634e-007 
0.278931 0.316412 -0.1 1.25609 2.8795 -1.09811e-007 
0.278931 0.316412 0.1 1.25609 2.8795 -1.09811e-007 
0.289481 0.311739 -0.1 1.28137 2.86838 -1.12021e-007 
0.289481 0.311739 0.1 1.28137 2.86838 -1.12021e-007 
0.3 0.307 -0.1 1.29258 2.86336 -1.13001e-007 
0.3 0.307 0.1 1.29258 2.86336 -1.13001e-007 
0.310477 0.302261 -0.1 1.28983 2.8646 -1.1276e-007 
0.310477 0.302261 0.1 1.28983 2.8646 -1.1276e-007 
0.320903 0.297588 -0.1 1.2729 2.87213 -1.11281e-007 
0.320903 0.297588 0.1 1.2729 2.87213 -1.11281e-007 
0.331266 0.293047 -0.1 1.24124 2.88591 -1.08512e-007 
0.331266 0.293047 0.1 1.24124 2.88591 -1.08512e-007 
0.341556 0.288704 -0.1 1.19388 2.90575 -1.04372e-007 
0.341556 0.288704 0.1 1.19388 2.90575 -1.04372e-007 
0.351762 0.284624 -0.1 1.12909 2.93141 -9.87079e-008 
0.351762 0.284624 0.1 1.12909 2.93141 -9.87079e-008 
0.361875 0.280875 -0.1 1.0451 2.96225 -9.13652e-008 
0.361875 0.280875 0.1 1.0451 2.96225 -9.13652e-008 
0.371884 0.277521 -0.1 0.939653 2.99715 -8.21471e-008 
0.371884 0.277521 0.1 0.939653 2.99715 -8.21471e-008 
0.381778 0.27463 -0.1 0.810015 3.03448 -7.08138e-008 
0.381778 0.27463 0.1 0.810015 3.03448 -7.08138e-008 
0.391547 0.272266 -0.1 0.653453 3.07164 -5.71267e-008 
0.391547 0.272266 0.1 0.653453 3.07164 -5.71267e-008 
0.401181 0.270495 -0.1 0.466538 3.10506 -4.0786e-008 
0.401181 0.270495 0.1 0.466538 3.10506 -4.0786e-008 
0.410668 0.269385 -0.1 0.247292 3.12962 -2.1619e-008 
0.410668 0.269385 0.1 0.247292 3.12962 -2.1619e-008 
0.42 0.269 -0.1 -0.0264461 3.13761 2.31199e-009 
0.42 0.269 0.1 -0.0264461 3.13761 2.31199e-009 
0.431177 0.26965 -0.1 -0.345209 3.11827 3.01791e-008 
0.431177 0.26965 0.1 -0.345208 3.11827 3.01791e-008 
0.442662 0.271532 -0.1 -0.645079 3.07146 5.63946e-008 
0.442662 0.271532 0.1 -0.645079 3.07146 5.63946e-008 
0.454391 0.274547 -0.1 -0.896522 3.00859 7.83765e-008 
0.454391 0.274547 0.1 -0.896522 3.00859 7.83764e-008 
0.466296 0.278593 -0.1 -1.10641 2.93855 9.6725e-008 
0.466296 0.278593 0.1 -1.10641 2.93855 9.6725e-008 
0.478313 0.283569 -0.1 -1.28223 2.86666 1.12096e-007 
0.478313 0.283569 0.1 -1.28223 2.86666 1.12096e-007 
0.490375 0.289375 -0.1 -1.43056 2.79594 1.25063e-007 
0.490375 0.289375 0.1 -1.43056 2.79594 1.25063e-007 
0.502416 0.29591 -0.1 -1.55675 2.72794 1.36095e-007 
0.502416 0.29591 0.1 -1.55675 2.72794 1.36095e-007 
0.51437 0.303074 -0.1 -1.66516 2.66333 1.45573e-007 
0.51437 0.303074 0.1 -1.66516 2.66333 1.45573e-007 
0.526172 0.310766 -0.1 -1.75922 2.6023 1.53796e-007 
0.526172 0.310766 0.1 -1.75922 2.6023 1.53796e-007 
0.537755 0.318884 -0.1 -1.84197 2.54449 1.6103e-007 
0.537755 0.318884 0.1 -1.84197 2.54449 1.6103e-007 
0.549053 0.327329 -0.1 -1.91576 2.48948 1.67481e-007 
0.549053 0.327329 0.1 -1.91576 2.48948 1.67481e-007 
0.56 0.336 -0.1 0.595479 1.23132 -5.20584e-008 
0.56 0.336 0.0999999 0.595479 1.23132 -5.20584e-008 
0.56 0.253 -0.1 2.5674 -1.21416 -2.24449e-007 
0.56 0.253 0.0999999 2.5674 -1.21416 -2.24449e-007 
0.549508 0.244388 -0.1 1.94427 -2.46689 -1.69973e-007 
0.549508 0.244388 0.1 1.94427 -2.46689 -1.69973e-007 
0.53856 0.236106 -0.1 1.84251 -2.54372 -1.61078e-007 
0.53856 0.236106 0.1 1.84251 -2.54372 -1.61078e-007 
0.527203 0.228234 -0.1 1.73195 -2.62014 -1.51412e-007 
0.527203 0.228234 0.1 1.73195 -2.62014 -1.51412e-007 
0.515482 0.220852 -0.1 1.61061 -2.69631 -1.40804e-007 
0.515482 0.220852 0.1 1.61061 -2.69631 -1.40804e-007 
0.50344 0.214039 -0.1 1.47657 -2.77182 -1.29086e-007 
0.50344 0.214039 0.1 1.47657 -2.77182 -1.29086e-007 
0.491125 0.207875 -0.1 1.32756 -2.84599 -1.16059e-007 
0.491125 0.207875 0.1 1.32756 -2.84599 -1.16059e-007 
0.478581 0.20244 -0.1 1.16092 -2.91769 -1.01491e-007 
0.478581 0.20244 0.1 1.16092 -2.91769 -1.01491e-007 
0.465852 0.197815 -0.1 0.974503 -2.98484 -8.51937e-008 
0.465852 0.197815 0.1 0.974502 -2.98484 -8.51937e-008 
0.452984 0.194078 -0.1 0.766143 -3.04463 -6.69784e-008 
0.452984 0.194078 0.1 0.766143 -3.04463 -6.69784e-008 
0.440023 0.19131 -0.1 0.533826 -3.09342 -4.66686e-008 
0.440023 0.19131 0.1 0.533826 -3.09342 -4.66686e-008 
0.427013 0.189591 -0.1 0.277027 -3.12644 -2.42184e-008 
0.427013 0.189591 0.1 0.277027 -3.12644 -2.42184e-008 
0.414 0.189 -0.1 0.00991721 -3.13878 -8.6699e-010 
0.414 0.189 0.1 0.00991713 -3.13878 -8.66983e-010 
0.40415 0.189385 -0.1 -0.234064 -3.13087 2.04626e-008 
0.40415 0.189385 0.1 -0.234065 -3.13087 2.04626e-008 
0.394116 0.190495 -0.1 -0.441581 -3.10889 3.86043e-008 
0.394116 0.190495 0.1 -0.441581 -3.10889 3.86043e-008 
0.383922 0.192266 -0.1 -0.619313 -3.07882 5.41421e-008 
0.383922 0.192266 0.1 -0.619313 -3.07882 5.41421e-008 
0.373593 0.19463 -0.1 -0.769612 -3.04504 6.72816e-008 
0.373593 0.19463 0.1 -0.769612 -3.04504 6.72816e-008 
0.363152 0.197521 -0.1 -0.896018 -3.0105 7.83324e-008 
0.363152 0.197521 0.1 -0.896018 -3.0105 7.83324e-008 
0.352625 0.200875 -0.1 -1.00106 -2.97741 8.75151e-008 
0.352625 0.200875 0.1 -1.00106 -2.97742 8.75151e-008 
0.342035 0.204624 -0.1 -1.08716 -2.9472 9.50427e-008 
0.342035 0.204624 0.1 -1.08716 -2.9472 9.50427e-008 
0.331407 0.208704 -0.1 -1.15653 -2.92078 1.01107e-007 
0.331407 0.208704 0.1 -1.15653 -2.92078 1.01107e-007 
0.320766 0.213047 -0.1 -1.21055 -2.89888 1.05829e-007 
0.320766 0.213047 0.1 -1.21055 -2.89889 1.05829e-007 
0.310134 0.217588 -0.1 -1.25082 -2.88179 1.0935e-007 
0.310134 0.217588 0.1 -1.25082 -2.88179 1.0935e-007 
0.299538 0.222261 -0.1 -1.27809 -2.86983 1.11734e-007 
0.299538 0.222261 0.1 -1.27809 -2.86984 1.11734e-007 
0.289 0.227 -0.1 -1.27901 -2.86943 1.11815e-007 
0.289 0.227 0.1 -1.27901 -2.86943 1.11815e-007 
0.278273 0.231739 -0.1 -1.26487 -2.87571 1.10579e-007 
0.278273 0.231739 0.1 -1.26487 -2.87571 1.10579e-007 
0.267602 0.236412 -0.1 -1.24856 -2.8828 1.09153e-007 
0.267602 0.236412 0.1 -1.24856 -2.8828 1.09153e-007 
0.257 0.240953 -0.1 -1.21791 -2.89584 1.06473e-007 
0.257 0.240953 0.1 -1.21791 -2.89584 1.06473e-007 
0.246481 0.245296 -0.1 -1.17212 -2.9146 1.0247e-007 
0.246481 0.245296 0.1 -1.17212 -2.9146 1.0247e-007 
0.23606 0.249376 -0.1 -1.10947 -2.93891 9.69926e-008 
0.23606 0.249376 0.1 -1.10947 -2.93891 9.69925e-008 
0.22575 0.253125 -0.1 -1.02812 -2.96821 8.98809e-008 
0.22575 0.253125 0.1 -1.02812 -2.96821 8.98809e-008 
0.215565 0.256479 -0.1 -0.925728 -3.00152 8.09297e-008 
0.215565 0.256479 0.1 -0.925727 -3.00151 8.09297e-008 
0.205519 0.25937 -0.1 -0.79945 -3.03732 6.98901e-008 
0.205519 0.25937 0.1 -0.79945 -3.03733 6.98901e-008 
0.195625 0.261734 -0.1 -0.646412 -3.07318 5.65111e-008 
0.195625 0.261734 0.1 -0.646411 -3.07318 5.65111e-008 
0.185898 0.263505 -0.1 -0.462797 -3.10568 4.0459e-008 
0.185898 0.263505 0.1 -0.462797 -3.10567 4.0459e-008 
0.176352 0.264615 -0.1 -0.246035 -3.12975 2.15091e-008 
0.176352 0.264615 0.1 -0.246035 -3.12975 2.15091e-008 
0.167 0.265 -0.1 0.0142752 -3.13828 -1.24798e-009 
0.167 0.265 0.1 0.0142752 -3.13828 -1.24798e-009 
0.154829 0.264388 -0.1 0.309092 -3.12265 -2.70217e-008 
0.154829 0.264388 0.1 0.309092 -3.12265 -2.70217e-008 
0.142801 0.262606 -0.1 0.598436 -3.08086 -5.23169e-008 
0.142801 0.262606 0.1 0.598436 -3.08086 -5.2317e-008 
0.130891 0.259734 -0.1 0.858474 -3.01936 -7.50502e-008 
0.130891 0.259734 0.1 0.858474 -3.01936 -7.50502e-008 
0.119074 0.255852 -0.1 1.08579 -2.94586 -9.49225e-008 
0.119074 0.255852 0.1 1.08579 -2.94586 -9.49226e-008 
0.107327 0.251039 -0.1 1.27989 -2.86741 -1.11891e-007 
0.107327 0.251039 0.1 1.27989 -2.86741 -1.11891e-007 
0.095625 0.245375 -0.1 1.44229 -2.78972 -1.26089e-007 
0.095625 0.245375 0.1 1.44229 -2.78972 -1.26089e-007 
0.083944 0.23894 -0.1 1.57571 -2.71698 -1.37753e-007 
0.083944 0.23894 0.1 1.57571 -2.71698 -1.37753e-007 
0.072259 0.231815 -0.1 1.68358 -2.65178 -1.47183e-007 
0.072259 0.231815 0.1 1.68358 -2.65178 -1.47183e-007 
0.060547 0.224078 -0.1 1.76899 -2.59581 -1.5465e-007 
0.060547 0.224078 0.1 1.76899 -2.59581 -1.5465e-007 
0.048782 0.21581 -0.1 1.83461 -2.55002 -1.60387e-007 
0.048782 0.21581 0.1 1.83461 -2.55002 -1.60386e-007 
0.036942 0.207091 -0.1 1.8829 -2.51469 -1.64608e-007 
0.036942 0.207091 0.1 1.8829 -2.51469 -1.64608e-007 
0.025 0.198 -0.1 -0.619334 -1.24985 5.41439e-008 
0.025 0.198 0.1 -0.619334 -1.24985 5.41439e-008 
0.025 0.281 -0.1 -2.55721 1.22245 2.23559e-007 
0.025 0.281 0.1 -2.55721 1.22245 2.23559e-007 
3 10 12 11 
3 10 13 12 
3 9 13 10 
3 9 14 13 
3 8 14 9 
3 8 15 14 
3 7 15 8 
3 7 16 15 
3 7 17 16 
3 6 17 7 
3 46 48 47 
3 6 18 17 
3 5 18 6 
3 5 19 18 
3 45 48 46 
3 4 19 5 
3 4 20 19 
3 4 21 20 
3 3 21 4 
3 44 48 45 
3 3 22 21 
3 2 22 3 
3 2 23 22 
3 43 48 44 
3 2 24 23 
3 1 24 2 
3 42 48 43 
3 1 25 24 
3 0 25 1 
3 0 26 25 
3 41 48 42 
3 0 27 26 
3 97 27 0 
3 40 48 41 
3 97 28 27 
3 97 29 28 
3 39 48 40 
3 96 95 97 
3 95 94 97 
3 94 93 97 
3 93 92 97 
3 92 91 97 
3 91 90 97 
3 90 89 97 
3 89 88 97 
3 88 87 97 
3 87 86 97 
3 86 85 97 
3 85 29 97 
3 85 30 29 
3 38 48 39 
3 85 84 30 
3 84 31 30 
3 84 32 31 
3 37 48 38 
3 84 33 32 
3 36 48 37 
3 84 34 33 
3 35 48 36 
3 84 35 34 
3 84 48 35 
3 83 48 84 
3 82 48 83 
3 81 48 82 
3 80 48 81 
3 79 48 80 
3 78 48 79 
3 77 48 78 
3 77 49 48 
3 76 49 77 
3 75 49 76 
3 75 50 49 
3 74 50 75 
3 73 50 74 
3 73 51 50 
3 72 51 73 
3 72 52 51 
3 71 52 72 
3 70 52 71 
3 70 53 52 
3 69 53 70 
3 69 54 53 
3 68 54 69 
3 67 54 68 
3 67 55 54 
3 66 55 67 
3 66 56 55 
3 65 56 66 
3 65 57 56 
3 64 57 65 
3 63 57 64 
3 63 58 57 
3 62 58 63 
3 62 59 58 
3 61 59 62 
3 61 60 59 
3 110 108 109 
3 111 108 110 
3 111 107 108 
3 112 107 111 
3 112 106 107 
3 113 106 112 
3 113 105 106 
3 114 105 113 
3 115 105 114 
3 115 104 105 
3 146 144 145 
3 116 104 115 
3 116 103 104 
3 117 103 116 
3 146 143 144 
3 117 102 103 
3 118 102 117 
3 119 102 118 
3 119 101 102 
3 146 142 143 
3 120 101 119 
3 120 100 101 
3 121 100 120 
3 146 141 142 
3 122 100 121 
3 122 99 100 
3 146 140 141 
3 123 99 122 
3 123 98 99 
3 124 98 123 
3 146 139 140 
3 125 98 124 
3 125 195 98 
3 146 138 139 
3 126 195 125 
3 127 195 126 
3 146 137 138 
3 193 194 195 
3 192 193 195 
3 191 192 195 
3 190 191 195 
3 189 190 195 
3 188 189 195 
3 187 188 195 
3 186 187 195 
3 185 186 195 
3 184 185 195 
3 183 184 195 
3 127 183 195 
3 128 183 127 
3 146 136 137 
3 182 183 128 
3 129 182 128 
3 130 182 129 
3 146 135 136 
3 131 182 130 
3 146 134 135 
3 132 182 131 
3 146 133 134 
3 133 182 132 
3 146 182 133 
3 146 181 182 
3 146 180 181 
3 146 179 180 
3 146 178 179 
3 146 177 178 
3 146 176 177 
3 146 175 176 
3 147 175 146 
3 147 174 175 
3 147 173 174 
3 148 173 147 
3 148 172 173 
3 148 171 172 
3 149 171 148 
3 149 170 171 
3 150 170 149 
3 150 169 170 
3 150 168 169 
3 151 168 150 
3 151 167 168 
3 152 167 151 
3 152 166 167 
3 152 165 166 
3 153 165 152 
3 153 164 165 
3 154 164 153 
3 154 163 164 
3 155 163 154 
3 155 162 163 
3 155 161 162 
3 156 161 155 
3 156 160 161 
3 157 160 156 
3 157 159 160 
3 158 159 157 
3 197 199 198 
3 197 198 196 
3 199 201 200 
3 199 200 198 
3 201 203 202 
3 201 202 200 
3 203 205 204 
3 203 204 202 
3 205 207 206 
3 205 206 204 
3 207 209 208 
3 207 208 206 
3 209 211 210 
3 209 210 208 
3 211 213 212 
3 211 212 210 
3 213 215 214 
3 213 214 212 
3 215 217 216 
3 215 216 214 
3 217 219 218 
3 217 218 216 
3 219 221 220 
3 219 220 218 
3 221 223 222 
3 221 222 220 
3 223 225 224 
3 223 224 222 
3 225 227 226 
3 225 226 224 
3 227 229 228 
3 227 228 226 
3 229 231 230 
3 229 230 228 
3 231 233 232 
3 231 232 230 
3 233 235 234 
3 233 234 232 
3 235 237 236 
3 235 236 234 
3 237 239 238 
3 237 238 236 
3 239 241 240 
3 239 240 238 
3 241 243 242 
3 241 242 240 
3 243 245 244 
3 243 244 242 
3 245 247 246 
3 245 246 244 
3 247 249 248 
3 247 248 246 
3 249 251 250 
3 249 250 248 
3 251 253 252 
3 251 252 250 
3 253 255 254 
3 253 254 252 
3 255 257 256 
3 255 256 254 
3 257 259 258 
3 257 258 256 
3 259 261 260 
3 259 260 258 
3 261 263 262 
3 261 262 260 
3 263 265 264 
3 263 264 262 
3 265 267 266 
3 265 266 264 
3 267 269 268 
3 267 268 266 
3 269 271 270 
3 269 270 268 
3 271 273 272 
3 271 272 270 
3 273 275 274 
3 273 274 272 
3 275 277 276 
3 275 276 274 
3 277 279 278 
3 277 278 276 
3 279 281 280 
3 279 280 278 
3 281 283 282 
3 281 282 280 
3 283 285 284 
3 283 284 282 
3 285 287 286 
3 285 286 284 
3 287 289 288 
3 287 288 286 
3 289 291 290 
3 289 290 288 
3 291 293 292 
3 291 292 290 
3 293 295 294 
3 293 294 292 
3 295 297 296 
3 295 296 294 
3 297 299 298 
3 297 298 296 
3 299 301 300 
3 299 300 298 
3 301 303 302 
3 301 302 300 
3 303 305 304 
3 303 304 302 
3 305 307 306 
3 305 306 304 
3 307 309 308 
3 307 308 306 
3 309 311 310 
3 309 310 308 
3 311 313 312 
3 311 312 310 
3 313 315 314 
3 313 314 312 
3 315 317 316 
3 315 316 314 
3 317 319 318 
3 317 318 316 
3 319 321 320 
3 319 320 318 
3 321 323 322 
3 321 322 320 
3 323 325 324 
3 323 324 322 
3 325 327 326 
3 325 326 324 
3 327 329 328 
3 327 328 326 
3 329 331 330 
3 329 330 328 
3 331 333 332 
3 331 332 330 
3 333 335 334 
3 333 334 332 
3 335 337 336 
3 335 336 334 
3 337 339 338 
3 337 338 336 
3 339 341 340 
3 339 340 338 
3 341 343 342 
3 341 342 340 
3 343 345 344 
3 343 344 342 
3 345 347 346 
3 345 346 344 
3 347 349 348 
3 347 348 346 
3 349 351 350 
3 349 350 348 
3 351 353 352 
3 351 352 350 
3 353 355 354 
3 353 354 352 
3 355 357 356 
3 355 356 354 
3 357 359 358 
3 357 358 356 
3 359 361 360 
3 359 360 358 
3 361 363 362 
3 361 362 360 
3 363 365 364 
3 363 364 362 
3 365 367 366 
3 365 366 364 
3 367 369 368 
3 367 368 366 
3 369 371 370 
3 369 370 368 
3 371 373 372 
3 371 372 370 
3 373 375 374 
3 373 374 372 
3 375 377 376 
3 375 376 374 
3 377 379 378 
3 377 378 376 
3 379 381 380 
3 379 380 378 
3 381 383 382 
3 381 382 380 
3 383 385 384 
3 383 384 382 
3 385 387 386 
3 385 386 384 
3 387 389 388 
3 387 388 386 
3 389 391 390 
3 389 390 388 
3 391 197 196 
3 391 196 390 
