ply
format ascii 1.0
comment VCGLIB generated
element vertex 16
property float x
property float y
property float z
property float nx
property float ny
property float nz
element face 12
property list uchar int vertex_indices
end_header
0.506 -0.125 0.0999999 4.47604e-009 -1.11901e-009 0.0256 
-0.00599998 -0.125 0.1 8.9521e-009 -2.23802e-009 0.0512 
-0.00599998 -0.075 0.1 4.47604e-009 -1.11901e-009 0.0256 
0.506 -0.075 0.1 8.9521e-009 -2.23802e-009 0.0512 
0.506 -0.125 -0.1 -4.47604e-009 1.11901e-009 -0.0256 
-0.00600002 -0.125 -0.1 -8.9521e-009 2.23802e-009 -0.0512 
-0.00600002 -0.075 -0.1 -4.47604e-009 1.11901e-009 -0.0256 
0.506 -0.075 -0.1 -8.9521e-009 2.23802e-009 -0.0512 
0.506 -0.125 -0.1 2 -1 -3.93403e-007 
0.506 -0.125 0.0999999 1 -2 -2.62269e-007 
-0.00600002 -0.125 -0.1 -1 -2 8.74228e-008 
-0.00599998 -0.125 0.1 -2 -1 3.0598e-007 
-0.00600002 -0.075 -0.1 -2 1 3.93403e-007 
-0.00599998 -0.075 0.1 -1 2 2.62269e-007 
0.506 -0.075 -0.1 1 2 -8.74228e-008 
0.506 -0.075 0.1 2 1 -3.0598e-007 
3 1 3 2 
3 1 0 3 
3 7 5 6 
3 4 5 7 
3 9 11 10 
3 9 10 8 
3 11 13 12 
3 11 12 10 
3 13 15 14 
3 13 14 12 
3 15 9 8 
3 15 8 14 
