ply
format ascii 1.0
comment VCGLIB generated
element vertex 48
property float x
property float y
property float z
property float nx
property float ny
property float nz
element face 44
property list uchar int vertex_indices
end_header
0.173 0.594 0.1 2.5617e-008 -6.40424e-009 0.146512 
0.173 0.388 0.1 9.33046e-009 -2.33261e-009 0.053364 
0.452 0.388 0.1 8.58562e-009 -2.1464e-009 0.049104 
0.452 0.3 0.1 4.2928e-009 -1.0732e-009 0.024552 
0.173 0.3 0.1 1.37261e-008 -3.43152e-009 0.078504 
0.173 0.088 0.1 8.21774e-009 -2.05444e-009 0.047 
0.471 0.088 0.1 1.06782e-008 -2.66954e-009 0.061072 
0.471 -4.37114e-009 0.1 6.09302e-009 -1.52325e-009 0.034848 
0.075 -4.37114e-009 0.1 3.10344e-008 -7.7586e-009 0.177496 
0.075 0.682 0.1 1.76405e-008 -4.41013e-009 0.100892 
0.462 0.682 0.1 1.04012e-008 -2.6003e-009 0.059488 
0.462 0.594 0.1 4.44668e-009 -1.11167e-009 0.025432 
0.173 0.594 -0.1 -2.5617e-008 6.40424e-009 -0.146512 
0.173 0.388 -0.1 -9.33046e-009 2.33261e-009 -0.053364 
0.452 0.388 -0.1 -8.58562e-009 2.1464e-009 -0.049104 
0.452 0.3 -0.1 -4.2928e-009 1.0732e-009 -0.024552 
0.173 0.3 -0.1 -1.37261e-008 3.43152e-009 -0.078504 
0.173 0.088 -0.1 -8.21774e-009 2.05444e-009 -0.047 
0.471 0.088 -0.1 -1.06782e-008 2.66954e-009 -0.061072 
0.471 4.37114e-009 -0.1 -6.09302e-009 1.52325e-009 -0.034848 
0.075 4.37114e-009 -0.1 -3.10344e-008 7.7586e-009 -0.177496 
0.075 0.682 -0.1 -1.76405e-008 4.41013e-009 -0.100892 
0.462 0.682 -0.1 -1.04012e-008 2.6003e-009 -0.059488 
0.462 0.594 -0.1 -4.44668e-009 1.11167e-009 -0.025432 
0.173 0.594 -0.1 1 -2 -2.62269e-007 
0.173 0.594 0.1 2 -1 -3.93403e-007 
0.173 0.388 -0.1 2 1 -3.0598e-007 
0.173 0.388 0.1 1 2 -8.74228e-008 
0.452 0.388 -0.1 1 2 -8.74228e-008 
0.452 0.388 0.1 2 1 -3.0598e-007 
0.452 0.3 -0.1 2 -1 -3.93403e-007 
0.452 0.3 0.1 1 -2 -2.62269e-007 
0.173 0.3 -0.1 1 -2 -2.62269e-007 
0.173 0.3 0.1 2 -1 -3.93403e-007 
0.173 0.088 -0.1 2 1 -3.0598e-007 
0.173 0.088 0.1 1 2 -8.74228e-008 
0.471 0.088 -0.1 1 2 -8.74228e-008 
0.471 0.088 0.1 2 1 -3.0598e-007 
0.471 4.37114e-009 -0.1 2 -1 -3.93403e-007 
0.471 -4.37114e-009 0.1 1 -2 -2.62269e-007 
0.075 4.37114e-009 -0.1 -1 -2 8.74228e-008 
0.075 -4.37114e-009 0.1 -2 -1 3.0598e-007 
0.075 0.682 -0.1 -2 1 3.93403e-007 
0.075 0.682 0.1 -1 2 2.62269e-007 
0.462 0.682 -0.1 1 2 -8.74228e-008 
0.462 0.682 0.1 2 1 -3.0598e-007 
0.462 0.594 -0.1 2 -1 -3.93403e-007 
0.462 0.594 0.1 1 -2 -2.62269e-007 
3 8 0 9 
3 0 10 9 
3 0 11 10 
3 8 1 0 
3 8 4 1 
3 4 2 1 
3 4 3 2 
3 8 5 4 
3 8 6 5 
3 8 7 6 
3 12 20 21 
3 22 12 21 
3 23 12 22 
3 13 20 12 
3 16 20 13 
3 14 16 13 
3 15 16 14 
3 17 20 16 
3 18 20 17 
3 19 20 18 
3 25 27 26 
3 25 26 24 
3 27 29 28 
3 27 28 26 
3 29 31 30 
3 29 30 28 
3 31 33 32 
3 31 32 30 
3 33 35 34 
3 33 34 32 
3 35 37 36 
3 35 36 34 
3 37 39 38 
3 37 38 36 
3 39 41 40 
3 39 40 38 
3 41 43 42 
3 41 42 40 
3 43 45 44 
3 43 44 42 
3 45 47 46 
3 45 46 44 
3 47 25 24 
3 47 24 46 
