ply
format ascii 1.0
comment VCGLIB generated
element vertex 28
property float x
property float y
property float z
property float nx
property float ny
property float nz
element face 24
property list uchar int vertex_indices
end_header
0.199 0.682 0.1 4.85388e-009 -1.21347e-009 0.027761 
0.27 0.682 0.1 1.2072e-008 -3.01801e-009 0.069044 
0.443 0.291 0.1 9.9996e-009 -2.4999e-009 0.057191 
0.354 0.291 0.1 4.54388e-009 -1.13597e-009 0.025988 
0.234 0.583 0.1 1.6357e-008 -4.08924e-009 0.093551 
0.116 0.291 0.1 4.59494e-009 -1.14874e-009 0.02628 
0.026 0.291 0.1 1.12113e-008 -2.80282e-009 0.064121 
0.199 0.682 -0.1 -4.85388e-009 1.21347e-009 -0.027761 
0.27 0.682 -0.1 -1.2072e-008 3.01801e-009 -0.069044 
0.443 0.291 -0.1 -9.9996e-009 2.4999e-009 -0.057191 
0.354 0.291 -0.1 -4.54388e-009 1.13597e-009 -0.025988 
0.234 0.583 -0.1 -1.6357e-008 4.08924e-009 -0.093551 
0.116 0.291 -0.1 -4.59494e-009 1.14874e-009 -0.02628 
0.026 0.291 -0.1 -1.12113e-008 2.80282e-009 -0.064121 
0.199 0.682 -0.1 -1.82897 1.80924 3.98872e-007 
0.199 0.682 0.1 -0.914485 2.40462 2.65003e-007 
0.27 0.682 -0.1 0.914485 2.40462 -5.47844e-008 
0.27 0.682 0.1 1.82897 1.80924 -2.40703e-007 
0.443 0.291 -0.1 1.82897 -0.190762 -3.28126e-007 
0.443 0.291 0.1 0.914485 -1.59538 -2.2963e-007 
0.354 0.291 -0.1 -0.92494 -2.38011 5.76836e-008 
0.354 0.291 0.1 -1.84988 -1.76022 2.46501e-007 
0.234 0.583 -0.1 -0.922723 -1.1349 1.11726e-007 
0.234 0.583 0.1 0.929374 -1.12946 -2.11867e-007 
0.116 0.291 -0.1 1.85431 -1.74935 -4.00685e-007 
0.116 0.291 0.1 0.927157 -2.37467 -2.6591e-007 
0.026 0.291 -0.1 -0.914485 -1.59538 9.01573e-008 
0.026 0.291 0.1 -1.82897 -0.190762 3.11449e-007 
3 6 1 0 
3 6 4 1 
3 4 2 1 
3 6 5 4 
3 3 2 4 
3 8 13 7 
3 11 13 8 
3 9 11 8 
3 12 13 11 
3 9 10 11 
3 15 17 16 
3 15 16 14 
3 17 19 18 
3 17 18 16 
3 19 21 20 
3 19 20 18 
3 21 23 22 
3 21 22 20 
3 23 25 24 
3 23 24 22 
3 25 27 26 
3 25 26 24 
3 27 15 14 
3 27 14 26 
