ply
format ascii 1.0
comment VCGLIB generated
element vertex 312
property float x
property float y
property float z
property float nx
property float ny
property float nz
element face 312
property list uchar int vertex_indices
end_header
0.345774 0.004584 0.1 0 -2.52424e-011 0.000577478 
0.337611 0.002343 0.1 0 -2.30946e-011 0.000528344 
0.329531 0.000280996 0.1 0 -2.09892e-011 0.000480177 
0.321556 -0.001593 0.1 0 -4.44918e-011 0.00101785 
0.313705 -0.003272 0.1 0 -8.7627e-012 0.000200467 
0.306 -0.00475 0.1 0 -7.40538e-012 0.000169415 
0.298462 -0.00602 0.1 0 -6.12244e-012 0.000140065 
0.291111 -0.007074 0.1 0 -8.17149e-012 0.000186942 
0.283969 -0.007906 0.1 0 -5.80461e-013 1.32794e-005 
0.277056 -0.008509 0.1 0 -2.62181e-013 5.99801e-006 
0.270392 -0.008876 0.1 0 -6.64206e-014 1.51953e-006 
0.264 -0.009 0.1 0 -5.68399e-012 0.000130035 
0.231575 -0.007053 0.1 0 -4.97141e-011 0.00113733 
0.200931 -0.001338 0.1 0 -1.48636e-010 0.00340039 
0.172266 0.007953 0.1 0 -1.72213e-010 0.00393977 
0.145778 0.02063 0.1 0 -2.29687e-010 0.00525463 
0.121665 0.036501 0.1 0 -2.93988e-010 0.00672567 
0.100125 0.055375 0.1 0 -8.34726e-010 0.0190963 
0.081356 0.077062 0.1 0 -4.10933e-010 0.00940105 
0.065556 0.10137 0.1 0 -3.75385e-010 0.00858781 
0.052922 0.128109 0.1 0 -3.16002e-010 0.00722928 
0.043653 0.157088 0.1 0 -4.04582e-010 0.00925577 
0.037946 0.188115 0.1 0 -3.3876e-010 0.00774994 
0.036 0.221 0.1 0 -2.93774e-010 0.00672076 
0.036828 0.240611 0.1 0 -2.63649e-010 0.00603158 
0.039625 0.262889 0.1 0 -2.74233e-010 0.00627373 
0.044859 0.287 0.1 0 -3.58336e-010 0.00819777 
0.053 0.312111 0.1 0 -3.53659e-010 0.00809077 
0.064516 0.337389 0.1 0 -4.01049e-010 0.00917493 
0.079875 0.362 0.1 0 -3.91742e-010 0.00896202 
0.099547 0.385111 0.1 0 -4.94445e-010 0.0113116 
0.124 0.405889 0.1 0 -4.73273e-010 0.0108272 
0.153703 0.4235 0.1 0 -4.28502e-010 0.00980298 
0.189125 0.437111 0.1 0 -3.90694e-010 0.00893804 
0.230734 0.445889 0.1 0 -9.39616e-010 0.0214959 
0.279 0.449 0.1 0 -2.23018e-011 0.000510205 
0.443 0.449 0.1 0 -3.394e-009 0.0776456 
0.443 -0.23 0.1 0 -5.04254e-009 0.11536 
0.354 -0.23 0.1 0 -9.22004e-010 0.021093 
0.354 0.007 0.1 0 -2.13428e-009 0.0488266 
0.255212 0.368055 0.1 0 -1.97826e-011 0.000452573 
0.237532 0.365194 0.1 0 -4.80426e-011 0.00109909 
0.220234 0.360375 0.1 0 -2.12576e-010 0.00486316 
0.203593 0.353556 0.1 0 -7.24654e-011 0.00165781 
0.187881 0.344694 0.1 0 -9.7154e-011 0.00222262 
0.173375 0.33375 0.1 0 -2.32941e-010 0.00532907 
0.160348 0.320681 0.1 0 -1.23718e-010 0.00283033 
0.149074 0.305444 0.1 0 -2.4711e-010 0.00565323 
0.139828 0.288 0.1 0 -1.53461e-010 0.00351077 
0.132884 0.268306 0.1 0 -2.67095e-010 0.00611042 
0.128517 0.246319 0.1 0 -2.74273e-010 0.00627464 
0.127 0.222 0.1 0 -2.60018e-010 0.00594852 
0.128229 0.200655 0.1 0 -2.98357e-010 0.00682562 
0.131829 0.180236 0.1 0 -2.8827e-010 0.00659486 
0.137672 0.160922 0.1 0 -1.55798e-010 0.00356424 
0.14563 0.142889 0.1 0 -2.72459e-010 0.00623313 
0.155573 0.126314 0.1 0 -2.64229e-010 0.00604485 
0.167375 0.111375 0.1 0 -1.35991e-010 0.00311111 
0.180906 0.098248 0.1 0 -2.47223e-010 0.00565581 
0.196037 0.087111 0.1 0 -1.14733e-010 0.0026248 
0.212641 0.078141 0.1 0 -9.11353e-011 0.00208493 
0.230588 0.071514 0.1 0 -2.12726e-010 0.00486661 
0.249751 0.067408 0.1 0 -5.67935e-011 0.00129928 
0.27 0.066 0.1 0 -5.15609e-010 0.0117958 
0.277019 0.066145 0.1 0 -3.8321e-011 0.000876683 
0.284069 0.066579 0.1 0 -4.02991e-011 0.000921935 
0.291141 0.067297 0.1 0 -4.20203e-011 0.000961313 
0.298222 0.068296 0.1 0 -4.34966e-011 0.000995085 
0.305304 0.069573 0.1 0 -4.47324e-011 0.00102336 
0.312375 0.071125 0.1 0 -4.572e-011 0.00104595 
0.319425 0.072947 0.1 0 -4.64681e-011 0.00106307 
0.326444 0.075037 0.1 0 -4.69799e-011 0.00107477 
0.333422 0.077391 0.1 0 -1.89819e-010 0.00434256 
0.340347 0.080005 0.1 0 -2.11449e-010 0.0048374 
0.34721 0.082876 0.1 0 -2.11824e-010 0.00484596 
0.354 0.086 0.1 0 -1.2069e-009 0.0276107 
0.354 0.369 0.1 0 -5.39366e-009 0.123393 
0.273 0.369 0.1 0 -2.48656e-010 0.00568859 
0.345774 0.004584 -0.1 0 2.52424e-011 -0.000577478 
0.337611 0.002343 -0.1 0 2.30946e-011 -0.000528344 
0.329531 0.000281004 -0.1 0 2.09892e-011 -0.000480177 
0.321556 -0.001593 -0.1 0 4.44918e-011 -0.00101785 
0.313705 -0.003272 -0.1 0 8.7627e-012 -0.000200467 
0.306 -0.00475 -0.1 0 7.40538e-012 -0.000169415 
0.298462 -0.00602 -0.1 0 6.12244e-012 -0.000140065 
0.291111 -0.007074 -0.1 0 8.17149e-012 -0.000186942 
0.283969 -0.007906 -0.1 0 5.80461e-013 -1.32794e-005 
0.277056 -0.008509 -0.1 0 2.62181e-013 -5.99801e-006 
0.270392 -0.00887599 -0.1 0 6.64206e-014 -1.51953e-006 
0.264 -0.00899999 -0.1 0 5.68399e-012 -0.000130035 
0.231575 -0.007053 -0.1 0 4.97141e-011 -0.00113733 
0.200931 -0.001338 -0.1 0 1.48636e-010 -0.00340039 
0.172266 0.007953 -0.1 0 1.72213e-010 -0.00393977 
0.145778 0.02063 -0.1 0 2.29687e-010 -0.00525463 
0.121665 0.036501 -0.1 0 2.93988e-010 -0.00672567 
0.100125 0.055375 -0.1 0 8.34726e-010 -0.0190963 
0.081356 0.077062 -0.1 0 4.10933e-010 -0.00940105 
0.065556 0.10137 -0.1 0 3.75385e-010 -0.00858781 
0.052922 0.128109 -0.1 0 3.16002e-010 -0.00722928 
0.043653 0.157088 -0.1 0 4.04582e-010 -0.00925577 
0.037946 0.188115 -0.1 0 3.3876e-010 -0.00774993 
0.036 0.221 -0.1 0 2.93774e-010 -0.00672076 
0.036828 0.240611 -0.1 0 2.63649e-010 -0.00603158 
0.039625 0.262889 -0.1 0 2.74233e-010 -0.00627373 
0.044859 0.287 -0.1 0 3.58336e-010 -0.00819777 
0.053 0.312111 -0.1 0 3.53659e-010 -0.00809077 
0.064516 0.337389 -0.1 0 4.01049e-010 -0.00917493 
0.079875 0.362 -0.1 0 3.91742e-010 -0.00896202 
0.099547 0.385111 -0.1 0 4.94445e-010 -0.0113116 
0.124 0.405889 -0.1 0 4.73273e-010 -0.0108272 
0.153703 0.4235 -0.1 0 4.28502e-010 -0.00980298 
0.189125 0.437111 -0.1 0 3.90694e-010 -0.00893804 
0.230734 0.445889 -0.1 0 9.39616e-010 -0.0214959 
0.279 0.449 -0.1 0 2.23018e-011 -0.000510205 
0.443 0.449 -0.1 0 3.394e-009 -0.0776456 
0.443 -0.23 -0.1 0 5.04254e-009 -0.11536 
0.354 -0.23 -0.1 0 9.22004e-010 -0.021093 
0.354 0.007 -0.1 0 2.13428e-009 -0.0488266 
0.255212 0.368055 -0.1 0 1.97826e-011 -0.000452573 
0.237532 0.365194 -0.1 0 4.80426e-011 -0.00109909 
0.220234 0.360375 -0.1 0 2.12576e-010 -0.00486316 
0.203593 0.353556 -0.1 0 7.24654e-011 -0.00165781 
0.187881 0.344694 -0.1 0 9.7154e-011 -0.00222262 
0.173375 0.33375 -0.1 0 2.32941e-010 -0.00532907 
0.160348 0.320681 -0.1 0 1.23718e-010 -0.00283033 
0.149074 0.305444 -0.1 0 2.4711e-010 -0.00565323 
0.139828 0.288 -0.1 0 1.53461e-010 -0.00351077 
0.132884 0.268306 -0.1 0 2.67095e-010 -0.00611042 
0.128517 0.246319 -0.1 0 2.74273e-010 -0.00627464 
0.127 0.222 -0.1 0 2.60018e-010 -0.00594852 
0.128229 0.200655 -0.1 0 2.98357e-010 -0.00682562 
0.131829 0.180236 -0.1 0 2.8827e-010 -0.00659486 
0.137672 0.160922 -0.1 0 1.55798e-010 -0.00356424 
0.14563 0.142889 -0.1 0 2.72459e-010 -0.00623313 
0.155573 0.126314 -0.1 0 2.64229e-010 -0.00604485 
0.167375 0.111375 -0.1 0 1.35991e-010 -0.00311111 
0.180906 0.098248 -0.1 0 2.47223e-010 -0.00565581 
0.196037 0.087111 -0.1 0 1.14733e-010 -0.0026248 
0.212641 0.078141 -0.1 0 9.11353e-011 -0.00208493 
0.230588 0.071514 -0.1 0 2.12726e-010 -0.00486661 
0.249751 0.067408 -0.1 0 5.67935e-011 -0.00129928 
0.27 0.066 -0.1 0 5.15609e-010 -0.0117958 
0.277019 0.066145 -0.1 0 3.8321e-011 -0.000876683 
0.284069 0.066579 -0.1 0 4.02991e-011 -0.000921936 
0.291141 0.067297 -0.1 0 4.20203e-011 -0.000961313 
0.298222 0.068296 -0.1 0 4.34966e-011 -0.000995086 
0.305304 0.069573 -0.1 0 4.47323e-011 -0.00102336 
0.312375 0.071125 -0.1 0 4.572e-011 -0.00104595 
0.319425 0.072947 -0.1 0 4.64681e-011 -0.00106307 
0.326444 0.075037 -0.1 0 4.69799e-011 -0.00107477 
0.333422 0.077391 -0.1 0 1.89819e-010 -0.00434256 
0.340347 0.080005 -0.1 0 2.11449e-010 -0.0048374 
0.34721 0.082876 -0.1 0 2.11824e-010 -0.00484596 
0.354 0.086 -0.1 0 1.2069e-009 -0.0276107 
0.354 0.369 -0.1 0 5.39366e-009 -0.123393 
0.273 0.369 -0.1 0 2.48656e-010 -0.00568859 
0.345774 0.004584 -0.1 0.828336 -2.88327 -1.26032e-007 
0.345774 0.004584 0.1 0.811272 -2.88811 -1.26244e-007 
0.337611 0.002343 -0.1 0.776746 -2.89759 -1.26658e-007 
0.337611 0.002343 0.1 0.759284 -2.90221 -1.2686e-007 
0.329531 0.000281004 -0.1 0.723301 -2.91138 -1.2726e-007 
0.329531 0.000280996 0.1 0.70478 -2.91591 -1.27459e-007 
0.321556 -0.001593 -0.1 0.666636 -2.92486 -1.2785e-007 
0.321556 -0.001593 0.1 0.647012 -2.92926 -1.28042e-007 
0.313705 -0.003272 -0.1 0.606647 -2.93787 -1.28418e-007 
0.313705 -0.003272 0.1 0.585907 -2.94208 -1.28602e-007 
0.306 -0.00475 -0.1 0.542916 -2.95029 -1.28961e-007 
0.306 -0.00475 0.1 0.520666 -2.9543 -1.29137e-007 
0.298462 -0.00602 -0.1 0.474207 -2.96208 -1.29477e-007 
0.298462 -0.00602 0.1 0.449999 -2.96586 -1.29642e-007 
0.291111 -0.007074 -0.1 0.399572 -2.97304 -1.29956e-007 
0.291111 -0.007074 0.1 0.373354 -2.97644 -1.30104e-007 
0.283969 -0.007906 -0.1 0.318321 -2.98278 -1.30382e-007 
0.283969 -0.007906 0.1 0.289506 -2.98572 -1.3051e-007 
0.277056 -0.008509 -0.1 0.228782 -2.99092 -1.30737e-007 
0.277056 -0.008509 0.1 0.196874 -2.99319 -1.30837e-007 
0.270392 -0.00887599 -0.1 0.129373 -2.99679 -1.30994e-007 
0.270392 -0.008876 0.1 0.0937798 -2.99811 -1.31052e-007 
0.264 -0.00899999 -0.1 -0.0211471 -2.99783 -1.31039e-007 
0.264 -0.009 0.1 -0.100481 -2.99622 -1.30969e-007 
0.231575 -0.007053 -0.1 -0.303212 -2.97945 -1.30236e-007 
0.231575 -0.007053 0.1 -0.426609 -2.9643 -1.29574e-007 
0.200931 -0.001338 -0.1 -0.675003 -2.91738 -1.27523e-007 
0.200931 -0.001338 0.1 -0.799999 -2.88561 -1.26134e-007 
0.172266 0.007953 -0.1 -1.04836 -2.80457 -1.22592e-007 
0.172266 0.007953 0.1 -1.17173 -2.75531 -1.20439e-007 
0.145778 0.02063 -0.1 -1.41319 -2.63934 -1.15369e-007 
0.145778 0.02063 0.1 -1.53128 -2.57262 -1.12453e-007 
0.121665 0.036501 -0.1 -1.75861 -2.42272 -1.05901e-007 
0.121665 0.036501 0.1 -1.86785 -2.33954 -1.02264e-007 
0.100125 0.055375 -0.1 -2.0742 -2.15864 -9.43572e-008 
0.100125 0.055375 0.1 -2.17132 -2.06093 -9.0086e-008 
0.081356 0.077062 -0.1 -2.35074 -1.85379 -8.10319e-008 
0.081356 0.077062 0.1 -2.43304 -1.74437 -7.62489e-008 
0.065556 0.10137 -0.1 -2.58105 -1.51717 -6.63178e-008 
0.065556 0.10137 0.1 -2.64675 -1.3994 -6.11696e-008 
0.052922 0.128109 -0.1 -2.76077 -1.15906 -5.06642e-008 
0.052922 0.128109 0.1 -2.80908 -1.0365 -4.5307e-008 
0.043653 0.157088 -0.1 -2.88843 -0.790198 -3.45407e-008 
0.043653 0.157088 0.1 -2.91947 -0.666452 -2.91315e-008 
0.037946 0.188115 -0.1 -2.96526 -0.420876 -1.83971e-008 
0.037946 0.188115 0.1 -2.98001 -0.299047 -1.30718e-008 
0.036 0.221 -0.1 -2.99562 -0.0759616 -3.32039e-009 
0.036 0.221 0.1 -2.99647 0.0252948 1.10567e-009 
0.036828 0.240611 -0.1 -2.99043 0.208939 9.13303e-009 
0.036828 0.240611 0.1 -2.98353 0.291328 1.27343e-008 
0.039625 0.262889 -0.1 -2.96166 0.461282 2.01633e-008 
0.039625 0.262889 0.1 -2.94669 0.548849 2.39909e-008 
0.044859 0.287 -0.1 -2.90574 0.732675 3.20263e-008 
0.044859 0.287 0.1 -2.87975 0.828935 3.62339e-008 
0.053 0.312111 -0.1 -2.81253 1.03138 4.50828e-008 
0.053 0.312111 0.1 -2.77128 1.13756 4.97241e-008 
0.064516 0.337389 -0.1 -2.66838 1.35859 5.93858e-008 
0.064516 0.337389 0.1 -2.60672 1.47344 6.44062e-008 
0.079875 0.362 -0.1 -2.45819 1.70704 7.46171e-008 
0.079875 0.362 0.1 -2.37133 1.82579 7.98076e-008 
0.099547 0.385111 -0.1 -2.1705 2.0584 8.99756e-008 
0.099547 0.385111 0.1 -2.05653 2.17227 9.4953e-008 
0.124 0.405889 -0.1 -1.80504 2.38427 1.0422e-007 
0.124 0.405889 0.1 -1.66752 2.4824 1.08509e-007 
0.153703 0.4235 -0.1 -1.37868 2.65381 1.16002e-007 
0.153703 0.4235 0.1 -1.22737 2.72709 1.19205e-007 
0.189125 0.437111 -0.1 -0.923788 2.84538 1.24376e-007 
0.189125 0.437111 0.1 -0.771525 2.89039 1.26343e-007 
0.230734 0.445889 -0.1 -0.477163 2.95486 1.29161e-007 
0.230734 0.445889 0.1 -0.335064 2.97432 1.30012e-007 
0.279 0.449 -0.1 -0.128644 2.99586 1.30953e-007 
0.279 0.449 0.1 -0.0643219 2.99793 1.31044e-007 
0.443 0.449 -0.1 1 2 8.74228e-008 
0.443 0.449 0.1 2 1 4.37114e-008 
0.443 -0.23 -0.1 2 -1 -4.37114e-008 
0.443 -0.23 0.1 1 -2 -8.74228e-008 
0.354 -0.23 -0.1 -1 -2 -8.74228e-008 
0.354 -0.23 0.1 -2 -1 -4.37114e-008 
0.354 0.007 -0.1 -1.7182 -0.959473 -4.19399e-008 
0.354 0.007 0.1 -0.4364 -1.91895 -8.38798e-008 
0.255212 0.368055 -0.1 0.265845 -2.98434 -1.3045e-007 
0.255212 0.368055 0.1 0.372537 -2.97291 -1.2995e-007 
0.237532 0.365194 -0.1 0.587854 -2.93763 -1.28408e-007 
0.237532 0.365194 0.1 0.696479 -2.91379 -1.27366e-007 
0.220234 0.360375 -0.1 0.915907 -2.85196 -1.24663e-007 
0.220234 0.360375 0.1 1.02671 -2.81397 -1.23003e-007 
0.203593 0.353556 -0.1 1.24961 -2.72166 -1.18968e-007 
0.203593 0.353556 0.1 1.36172 -2.66734 -1.16593e-007 
0.187881 0.344694 -0.1 1.58481 -2.54031 -1.1104e-007 
0.187881 0.344694 0.1 1.69581 -2.46759 -1.07862e-007 
0.173375 0.33375 -0.1 1.91278 -2.30255 -1.00648e-007 
0.173375 0.33375 0.1 2.01876 -2.21023 -9.66122e-008 
0.160348 0.320681 -0.1 2.22036 -2.00673 -8.7717e-008 
0.160348 0.320681 0.1 2.316 -1.89556 -8.28575e-008 
0.149074 0.305444 -0.1 2.49131 -1.65791 -7.24696e-008 
0.149074 0.305444 0.1 2.57099 -1.53144 -6.69412e-008 
0.139828 0.288 -0.1 2.71021 -1.26917 -5.54772e-008 
0.139828 0.288 0.1 2.76974 -1.13338 -4.95416e-008 
0.132884 0.268306 -0.1 2.86703 -0.859871 -3.75862e-008 
0.132884 0.268306 0.1 2.90477 -0.722153 -3.15663e-008 
0.128517 0.246319 -0.1 2.95974 -0.451882 -1.97524e-008 
0.128517 0.246319 0.1 2.97696 -0.319328 -1.39583e-008 
0.127 0.222 -0.1 2.99447 -0.0670334 -2.93012e-009 
0.127 0.222 0.1 2.99475 0.0527075 2.30392e-009 
0.128229 0.200655 -0.1 2.9815 0.288593 1.26148e-008 
0.128229 0.200655 0.1 2.96797 0.404739 1.76917e-008 
0.131829 0.180236 -0.1 2.92678 0.636822 2.78364e-008 
0.131829 0.180236 0.1 2.89913 0.752761 3.29042e-008 
0.137672 0.160922 -0.1 2.82919 0.982869 4.29626e-008 
0.137672 0.160922 0.1 2.78691 1.09704 4.79531e-008 
0.14563 0.142889 -0.1 2.68729 1.32189 5.77817e-008 
0.14563 0.142889 0.1 2.62995 1.43257 6.26198e-008 
0.155573 0.126314 -0.1 2.49975 1.64874 7.20689e-008 
0.155573 0.126314 0.1 2.42689 1.75423 7.66798e-008 
0.167375 0.111375 -0.1 2.26566 1.95755 8.55672e-008 
0.167375 0.111375 0.1 2.1773 2.05539 8.98438e-008 
0.180906 0.098248 -0.1 1.9854 2.24085 9.79505e-008 
0.180906 0.098248 0.1 1.88187 2.32847 1.01781e-007 
0.196037 0.087111 -0.1 1.66087 2.49055 1.08865e-007 
0.196037 0.087111 0.1 1.54339 2.56501 1.1212e-007 
0.212641 0.078141 -0.1 1.29701 2.69773 1.17922e-007 
0.212641 0.078141 0.1 1.16809 2.756 1.20469e-007 
0.230588 0.071514 -0.1 0.902297 2.85399 1.24752e-007 
0.230588 0.071514 0.1 0.765416 2.8937 1.26488e-007 
0.249751 0.067408 -0.1 0.48839 2.9532 1.29089e-007 
0.249751 0.067408 0.1 0.348246 2.97299 1.29953e-007 
0.27 0.066 -0.1 0.11808 2.99497 1.30914e-007 
0.27 0.066 0.1 0.0280583 2.99716 1.3101e-007 
0.277019 0.066145 -0.1 -0.102752 2.99768 1.31033e-007 
0.277019 0.066145 0.1 -0.143541 2.99601 1.3096e-007 
0.284069 0.066579 -0.1 -0.223894 2.99111 1.30745e-007 
0.284069 0.066579 0.1 -0.263458 2.98788 1.30604e-007 
0.291141 0.067297 -0.1 -0.341714 2.97997 1.30258e-007 
0.291141 0.067297 0.1 -0.380405 2.97527 1.30053e-007 
0.298222 0.068296 -0.1 -0.456852 2.96452 1.29583e-007 
0.298222 0.068296 0.1 -0.494608 2.95845 1.29318e-007 
0.305304 0.069573 -0.1 -0.569294 2.94501 1.2873e-007 
0.305304 0.069573 0.1 -0.606223 2.93763 1.28408e-007 
0.312375 0.071125 -0.1 -0.678988 2.92169 1.27711e-007 
0.312375 0.071125 0.1 -0.714824 2.91313 1.27337e-007 
0.319425 0.072947 -0.1 -0.785819 2.89479 1.26535e-007 
0.319425 0.072947 0.1 -0.82098 2.88502 1.26108e-007 
0.326444 0.075037 -0.1 -0.890407 2.86437 1.25205e-007 
0.326444 0.075037 0.1 -0.924674 2.85349 1.2473e-007 
0.333422 0.077391 -0.1 -0.992445 2.83064 1.23731e-007 
0.333422 0.077391 0.1 -1.02595 2.81867 1.23208e-007 
0.340347 0.080005 -0.1 -1.09223 2.79366 1.22115e-007 
0.340347 0.080005 0.1 -1.125 2.78063 1.21545e-007 
0.34721 0.082876 -0.1 -1.18982 2.75352 1.2036e-007 
0.34721 0.082876 0.1 -1.22187 2.73945 1.19745e-007 
0.354 0.086 -0.1 -1.83594 1.81692 7.94201e-008 
0.354 0.086 0.1 -2.41797 0.90846 3.971e-008 
0.354 0.369 -0.1 -2 -1 -4.37114e-008 
0.354 0.369 0.1 -1 -2 -8.74228e-008 
0.273 0.369 -0.1 0.053051 -2.99859 -1.31073e-007 
0.273 0.369 0.1 0.106102 -2.99718 -1.31011e-007 
3 34 36 35 
3 34 76 36 
3 76 37 36 
3 33 76 34 
3 32 76 33 
3 31 76 32 
3 30 76 31 
3 29 77 30 
3 77 76 30 
3 29 40 77 
3 75 37 76 
3 29 41 40 
3 29 42 41 
3 28 42 29 
3 28 43 42 
3 28 44 43 
3 28 45 44 
3 27 45 28 
3 27 46 45 
3 27 47 46 
3 26 47 27 
3 26 48 47 
3 26 49 48 
3 25 49 26 
3 25 50 49 
3 24 50 25 
3 24 51 50 
3 23 51 24 
3 23 52 51 
3 22 52 23 
3 22 53 52 
3 21 53 22 
3 21 54 53 
3 21 55 54 
3 20 55 21 
3 20 56 55 
3 19 56 20 
3 19 57 56 
3 19 58 57 
3 18 58 19 
3 18 59 58 
3 18 60 59 
3 74 37 75 
3 73 37 74 
3 72 37 73 
3 18 61 60 
3 71 39 72 
3 39 37 72 
3 17 61 18 
3 70 39 71 
3 69 39 70 
3 17 62 61 
3 68 39 69 
3 67 39 68 
3 66 39 67 
3 17 63 62 
3 65 39 66 
3 64 39 65 
3 63 39 64 
3 17 39 63 
3 16 39 17 
3 15 39 16 
3 14 39 15 
3 13 39 14 
3 13 0 39 
3 38 37 39 
3 13 1 0 
3 13 2 1 
3 13 3 2 
3 12 3 13 
3 12 4 3 
3 12 5 4 
3 12 6 5 
3 12 7 6 
3 11 7 12 
3 11 8 7 
3 11 9 8 
3 11 10 9 
3 114 112 113 
3 154 112 114 
3 115 154 114 
3 154 111 112 
3 154 110 111 
3 154 109 110 
3 154 108 109 
3 155 107 108 
3 154 155 108 
3 118 107 155 
3 115 153 154 
3 119 107 118 
3 120 107 119 
3 120 106 107 
3 121 106 120 
3 122 106 121 
3 123 106 122 
3 123 105 106 
3 124 105 123 
3 125 105 124 
3 125 104 105 
3 126 104 125 
3 127 104 126 
3 127 103 104 
3 128 103 127 
3 128 102 103 
3 129 102 128 
3 129 101 102 
3 130 101 129 
3 130 100 101 
3 131 100 130 
3 131 99 100 
3 132 99 131 
3 133 99 132 
3 133 98 99 
3 134 98 133 
3 134 97 98 
3 135 97 134 
3 136 97 135 
3 136 96 97 
3 137 96 136 
3 138 96 137 
3 115 152 153 
3 115 151 152 
3 115 150 151 
3 139 96 138 
3 117 149 150 
3 115 117 150 
3 139 95 96 
3 117 148 149 
3 117 147 148 
3 140 95 139 
3 117 146 147 
3 117 145 146 
3 117 144 145 
3 141 95 140 
3 117 143 144 
3 117 142 143 
3 117 141 142 
3 117 95 141 
3 117 94 95 
3 117 93 94 
3 117 92 93 
3 117 91 92 
3 78 91 117 
3 115 116 117 
3 79 91 78 
3 80 91 79 
3 81 91 80 
3 81 90 91 
3 82 90 81 
3 83 90 82 
3 84 90 83 
3 85 90 84 
3 85 89 90 
3 86 89 85 
3 87 89 86 
3 88 89 87 
3 157 159 158 
3 157 158 156 
3 159 161 160 
3 159 160 158 
3 161 163 162 
3 161 162 160 
3 163 165 164 
3 163 164 162 
3 165 167 166 
3 165 166 164 
3 167 169 168 
3 167 168 166 
3 169 171 170 
3 169 170 168 
3 171 173 172 
3 171 172 170 
3 173 175 174 
3 173 174 172 
3 175 177 176 
3 175 176 174 
3 177 179 178 
3 177 178 176 
3 179 181 180 
3 179 180 178 
3 181 183 182 
3 181 182 180 
3 183 185 184 
3 183 184 182 
3 185 187 186 
3 185 186 184 
3 187 189 188 
3 187 188 186 
3 189 191 190 
3 189 190 188 
3 191 193 192 
3 191 192 190 
3 193 195 194 
3 193 194 192 
3 195 197 196 
3 195 196 194 
3 197 199 198 
3 197 198 196 
3 199 201 200 
3 199 200 198 
3 201 203 202 
3 201 202 200 
3 203 205 204 
3 203 204 202 
3 205 207 206 
3 205 206 204 
3 207 209 208 
3 207 208 206 
3 209 211 210 
3 209 210 208 
3 211 213 212 
3 211 212 210 
3 213 215 214 
3 213 214 212 
3 215 217 216 
3 215 216 214 
3 217 219 218 
3 217 218 216 
3 219 221 220 
3 219 220 218 
3 221 223 222 
3 221 222 220 
3 223 225 224 
3 223 224 222 
3 225 227 226 
3 225 226 224 
3 227 229 228 
3 227 228 226 
3 229 231 230 
3 229 230 228 
3 231 233 232 
3 231 232 230 
3 233 235 234 
3 233 234 232 
3 235 157 156 
3 235 156 234 
3 237 239 238 
3 237 238 236 
3 239 241 240 
3 239 240 238 
3 241 243 242 
3 241 242 240 
3 243 245 244 
3 243 244 242 
3 245 247 246 
3 245 246 244 
3 247 249 248 
3 247 248 246 
3 249 251 250 
3 249 250 248 
3 251 253 252 
3 251 252 250 
3 253 255 254 
3 253 254 252 
3 255 257 256 
3 255 256 254 
3 257 259 258 
3 257 258 256 
3 259 261 260 
3 259 260 258 
3 261 263 262 
3 261 262 260 
3 263 265 264 
3 263 264 262 
3 265 267 266 
3 265 266 264 
3 267 269 268 
3 267 268 266 
3 269 271 270 
3 269 270 268 
3 271 273 272 
3 271 272 270 
3 273 275 274 
3 273 274 272 
3 275 277 276 
3 275 276 274 
3 277 279 278 
3 277 278 276 
3 279 281 280 
3 279 280 278 
3 281 283 282 
3 281 282 280 
3 283 285 284 
3 283 284 282 
3 285 287 286 
3 285 286 284 
3 287 289 288 
3 287 288 286 
3 289 291 290 
3 289 290 288 
3 291 293 292 
3 291 292 290 
3 293 295 294 
3 293 294 292 
3 295 297 296 
3 295 296 294 
3 297 299 298 
3 297 298 296 
3 299 301 300 
3 299 300 298 
3 301 303 302 
3 301 302 300 
3 303 305 304 
3 303 304 302 
3 305 307 306 
3 305 306 304 
3 307 309 308 
3 307 308 306 
3 309 311 310 
3 309 310 308 
3 311 237 236 
3 311 236 310 
