ply
format ascii 1.0
comment VCGLIB generated
element vertex 244
property float x
property float y
property float z
property float nx
property float ny
property float nz
element face 240
property list uchar int vertex_indices
end_header
0.066813 -0.092921 0.1 1.04565e-010 -2.61413e-011 0.000598043 
0.07375 -0.085787 0.1 2.14343e-010 -5.35856e-011 0.0012259 
0.079813 -0.07775 0.1 2.54882e-010 -6.37203e-011 0.00145775 
0.085 -0.068963 0.1 1.68681e-010 -4.21703e-011 0.000964745 
0.089313 -0.059579 0.1 3.13115e-010 -7.82786e-011 0.00179081 
0.09275 -0.04975 0.1 3.5109e-010 -8.77723e-011 0.002008 
0.095313 -0.03963 0.1 3.85302e-010 -9.63256e-011 0.00220367 
0.097 -0.02937 0.1 2.38472e-010 -5.9618e-011 0.0013639 
0.097813 -0.019125 0.1 4.2036e-010 -1.0509e-010 0.00240418 
0.09775 -0.00904601 0.1 4.406e-010 -1.1015e-010 0.00251994 
0.096813 0.000712996 0.1 2.51356e-010 -6.2839e-011 0.00143759 
0.095 0.01 0.1 3.37106e-010 -8.42765e-011 0.00192802 
0.087944 0.010682 0.1 3.58576e-011 -8.96439e-012 0.000205081 
0.081301 0.012204 0.1 6.18706e-011 -1.54677e-011 0.000353859 
0.075109 0.014531 0.1 8.88958e-011 -2.2224e-011 0.000508425 
0.069407 0.01763 0.1 1.16809e-010 -2.92023e-011 0.000668071 
0.064233 0.021464 0.1 4.38299e-010 -1.09575e-010 0.00250678 
0.059625 0.026 0.1 1.98166e-010 -4.95414e-011 0.00113338 
0.055621 0.031203 0.1 2.25603e-010 -5.64007e-011 0.0012903 
0.052259 0.037037 0.1 5.68118e-010 -1.4203e-010 0.00324926 
0.049578 0.043469 0.1 2.9285e-010 -7.32126e-011 0.00167491 
0.047616 0.050463 0.1 6.15059e-010 -1.53765e-010 0.00351773 
0.04641 0.057985 0.1 3.44647e-010 -8.61618e-011 0.00197115 
0.046 0.066 0.1 6.24474e-010 -1.56118e-010 0.00357157 
0.046512 0.074054 0.1 5.77e-010 -1.4425e-010 0.00330005 
0.048009 0.081681 0.1 5.09526e-010 -1.27381e-010 0.00291415 
0.050438 0.088828 0.1 2.7057e-010 -6.76424e-011 0.00154748 
0.053741 0.095444 0.1 4.01698e-010 -1.00425e-010 0.00229745 
0.057863 0.101477 0.1 3.21396e-010 -8.03489e-011 0.00183817 
0.06275 0.106875 0.1 2.4247e-010 -6.06177e-011 0.00138677 
0.068345 0.111585 0.1 1.13872e-010 -2.84679e-011 0.000651271 
0.074593 0.115556 0.1 1.39463e-010 -3.48657e-011 0.000797634 
0.081438 0.118734 0.1 7.94914e-011 -1.98728e-011 0.000454638 
0.088824 0.121069 0.1 3.41463e-011 -8.53659e-012 0.000195294 
0.096697 0.122509 0.1 7.14782e-012 -1.78696e-012 4.08808e-005 
0.105 0.123 0.1 2.03068e-012 -5.07669e-013 1.16141e-005 
0.11543 0.122218 0.1 1.98359e-011 -4.95899e-012 0.000113448 
0.12519 0.119912 0.1 5.97395e-011 -1.49349e-011 0.00034167 
0.134234 0.116141 0.1 1.17994e-010 -2.94984e-011 0.000674845 
0.142519 0.110963 0.1 2.65066e-010 -6.62665e-011 0.001516 
0.149997 0.104438 0.1 3.10072e-010 -7.75178e-011 0.0017734 
0.156625 0.096625 0.1 4.00807e-010 -1.00202e-010 0.00229235 
0.162357 0.087583 0.1 6.43543e-010 -1.60886e-010 0.00368064 
0.167148 0.07737 0.1 6.1018e-010 -1.52545e-010 0.00348982 
0.170953 0.066047 0.1 6.87402e-010 -1.7185e-010 0.00393148 
0.173727 0.053671 0.1 9.1077e-010 -2.27692e-010 0.005209 
0.175424 0.040303 0.1 8.96907e-010 -2.24227e-010 0.00512971 
0.176 0.026 0.1 9.06763e-010 -2.26691e-010 0.00518608 
0.175207 0.011613 0.1 6.74045e-010 -1.68511e-010 0.00385509 
0.172819 -0.002931 0.1 6.40987e-010 -1.60247e-010 0.00366602 
0.168828 -0.017453 0.1 4.87736e-010 -1.21934e-010 0.00278953 
0.163222 -0.031778 0.1 5.70399e-010 -1.426e-010 0.0032623 
0.155991 -0.045727 0.1 4.07706e-010 -1.01927e-010 0.00233181 
0.147125 -0.059125 0.1 3.68208e-010 -9.20518e-011 0.0021059 
0.136613 -0.071793 0.1 4.00044e-010 -1.00011e-010 0.00228798 
0.124444 -0.083556 0.1 2.62267e-010 -6.55668e-011 0.00149999 
0.110609 -0.094234 0.1 2.65881e-010 -6.64703e-011 0.00152066 
0.095097 -0.103653 0.1 1.99211e-010 -4.98028e-011 0.00113935 
0.077898 -0.111634 0.1 7.22746e-012 -1.80686e-012 4.13362e-005 
0.059 -0.118 0.1 1.27144e-010 -3.1786e-011 0.000727179 
0.059 -0.099 0.1 2.40327e-010 -6.00818e-011 0.00137451 
0.066813 -0.092921 -0.1 -1.04565e-010 2.61413e-011 -0.000598043 
0.07375 -0.085787 -0.1 -2.14343e-010 5.35856e-011 -0.0012259 
0.079813 -0.07775 -0.1 -2.54882e-010 6.37203e-011 -0.00145775 
0.085 -0.068963 -0.1 -1.68681e-010 4.21703e-011 -0.000964745 
0.089313 -0.059579 -0.1 -3.13115e-010 7.82786e-011 -0.00179081 
0.09275 -0.04975 -0.1 -3.5109e-010 8.77723e-011 -0.002008 
0.095313 -0.03963 -0.1 -3.85302e-010 9.63256e-011 -0.00220367 
0.097 -0.02937 -0.1 -2.38472e-010 5.96181e-011 -0.0013639 
0.097813 -0.019125 -0.1 -4.2036e-010 1.0509e-010 -0.00240418 
0.09775 -0.009046 -0.1 -4.406e-010 1.1015e-010 -0.00251994 
0.096813 0.000713004 -0.1 -2.51356e-010 6.2839e-011 -0.00143759 
0.095 0.01 -0.1 -3.37106e-010 8.42765e-011 -0.00192802 
0.087944 0.010682 -0.1 -3.58576e-011 8.96439e-012 -0.000205081 
0.081301 0.012204 -0.1 -6.18706e-011 1.54677e-011 -0.000353859 
0.075109 0.014531 -0.1 -8.88958e-011 2.2224e-011 -0.000508425 
0.069407 0.01763 -0.1 -1.16809e-010 2.92023e-011 -0.000668071 
0.064233 0.021464 -0.1 -4.38299e-010 1.09575e-010 -0.00250678 
0.059625 0.026 -0.1 -1.98166e-010 4.95414e-011 -0.00113338 
0.055621 0.031203 -0.1 -2.25603e-010 5.64007e-011 -0.0012903 
0.052259 0.037037 -0.1 -5.68118e-010 1.4203e-010 -0.00324926 
0.049578 0.043469 -0.1 -2.9285e-010 7.32126e-011 -0.00167491 
0.047616 0.050463 -0.1 -6.15059e-010 1.53765e-010 -0.00351773 
0.04641 0.057985 -0.1 -3.44647e-010 8.61618e-011 -0.00197115 
0.046 0.066 -0.1 -6.24474e-010 1.56118e-010 -0.00357157 
0.046512 0.074054 -0.1 -5.77e-010 1.4425e-010 -0.00330005 
0.048009 0.081681 -0.1 -5.09526e-010 1.27381e-010 -0.00291415 
0.050438 0.088828 -0.1 -2.7057e-010 6.76424e-011 -0.00154748 
0.053741 0.095444 -0.1 -4.01698e-010 1.00425e-010 -0.00229745 
0.057863 0.101477 -0.1 -3.21396e-010 8.03489e-011 -0.00183817 
0.06275 0.106875 -0.1 -2.4247e-010 6.06177e-011 -0.00138677 
0.068345 0.111585 -0.1 -1.13872e-010 2.84679e-011 -0.000651271 
0.074593 0.115556 -0.1 -1.39463e-010 3.48657e-011 -0.000797634 
0.081438 0.118734 -0.1 -7.94914e-011 1.98728e-011 -0.000454638 
0.088824 0.121069 -0.1 -3.41463e-011 8.53659e-012 -0.000195294 
0.096697 0.122509 -0.1 -7.14782e-012 1.78696e-012 -4.08808e-005 
0.105 0.123 -0.1 -2.03068e-012 5.07669e-013 -1.16141e-005 
0.11543 0.122218 -0.1 -1.98359e-011 4.95899e-012 -0.000113448 
0.12519 0.119912 -0.1 -5.97395e-011 1.49349e-011 -0.00034167 
0.134234 0.116141 -0.1 -1.17994e-010 2.94984e-011 -0.000674845 
0.142519 0.110963 -0.1 -2.65066e-010 6.62665e-011 -0.001516 
0.149997 0.104438 -0.1 -3.10072e-010 7.75178e-011 -0.0017734 
0.156625 0.096625 -0.1 -4.00807e-010 1.00202e-010 -0.00229235 
0.162357 0.087583 -0.1 -6.43543e-010 1.60886e-010 -0.00368064 
0.167148 0.07737 -0.1 -6.1018e-010 1.52545e-010 -0.00348982 
0.170953 0.066047 -0.1 -6.87402e-010 1.7185e-010 -0.00393148 
0.173727 0.053671 -0.1 -9.1077e-010 2.27693e-010 -0.005209 
0.175424 0.040303 -0.1 -8.96907e-010 2.24227e-010 -0.00512971 
0.176 0.026 -0.1 -9.06763e-010 2.26691e-010 -0.00518608 
0.175207 0.011613 -0.1 -6.74045e-010 1.68511e-010 -0.00385509 
0.172819 -0.002931 -0.1 -6.40987e-010 1.60247e-010 -0.00366602 
0.168828 -0.017453 -0.1 -4.87736e-010 1.21934e-010 -0.00278953 
0.163222 -0.031778 -0.1 -5.70399e-010 1.426e-010 -0.0032623 
0.155991 -0.045727 -0.1 -4.07706e-010 1.01927e-010 -0.00233181 
0.147125 -0.059125 -0.1 -3.68208e-010 9.20518e-011 -0.0021059 
0.136613 -0.071793 -0.1 -4.00044e-010 1.00011e-010 -0.00228798 
0.124444 -0.083556 -0.1 -2.62267e-010 6.55668e-011 -0.00149999 
0.110609 -0.094234 -0.1 -2.65881e-010 6.64703e-011 -0.00152066 
0.095097 -0.103653 -0.1 -1.99211e-010 4.98028e-011 -0.00113935 
0.077898 -0.111634 -0.1 -7.22746e-012 1.80686e-012 -4.13362e-005 
0.059 -0.118 -0.1 -1.27144e-010 3.1786e-011 -0.000727179 
0.059 -0.099 -0.1 -2.40327e-010 6.00818e-011 -0.00137451 
0.066813 -0.092921 -0.1 -1.9451 2.27563 4.39563e-007 
0.066813 -0.092921 0.1 -2.04795 2.18352 4.53519e-007 
0.07375 -0.085787 -0.1 -2.23219 1.99652 4.77559e-007 
0.07375 -0.085787 0.1 -2.31357 1.90162 4.8764e-007 
0.079813 -0.07775 -0.1 -2.45779 1.71282 5.04603e-007 
0.079813 -0.07775 0.1 -2.52063 1.61892 5.11486e-007 
0.085 -0.068963 -0.1 -2.63093 1.4343 5.22702e-007 
0.085 -0.068963 0.1 -2.6784 1.34357 5.27036e-007 
0.089313 -0.059579 -0.1 -2.7612 1.16531 5.33721e-007 
0.089313 -0.059579 0.1 -2.79653 1.07778 5.36071e-007 
0.09275 -0.04975 -0.1 -2.8573 0.905671 5.39174e-007 
0.09275 -0.04975 0.1 -2.88274 0.8211 5.39926e-007 
0.095313 -0.03963 -0.1 -2.92554 0.653266 5.40073e-007 
0.095313 -0.03963 0.1 -2.94289 0.570003 5.39468e-007 
0.097 -0.02937 -0.1 -2.97037 0.403601 5.36998e-007 
0.097 -0.02937 0.1 -2.98048 0.320461 5.35132e-007 
0.097813 -0.019125 -0.1 -2.99371 0.151963 5.30079e-007 
0.097813 -0.019125 0.1 -2.99683 0.0666057 5.26893e-007 
0.09775 -0.009046 -0.1 -2.99538 -0.108076 5.19005e-007 
0.09775 -0.00904601 0.1 -2.99082 -0.197399 5.14304e-007 
0.096813 0.000713004 -0.1 -2.97232 -0.382751 5.02966e-007 
0.096813 0.000712996 0.1 -2.95837 -0.478779 4.9633e-007 
0.095 0.01 -0.1 -2.05915 -1.37857 2.99775e-007 
0.095 0.01 0.1 -1.17389 -2.18232 1.09857e-007 
0.087944 0.010682 -0.1 -0.415741 -2.96547 -5.69342e-008 
0.087944 0.010682 0.1 -0.542861 -2.94485 -3.38066e-008 
0.081301 0.012204 -0.1 -0.798439 -2.88557 1.34714e-008 
0.081301 0.012204 0.1 -0.926898 -2.8469 3.76219e-008 
0.075109 0.014531 -0.1 -1.1811 -2.75078 8.62692e-008 
0.075109 0.014531 0.1 -1.30683 -2.69332 1.10765e-007 
0.069407 0.01763 -0.1 -1.55042 -2.56069 1.59152e-007 
0.069407 0.01763 0.1 -1.66826 -2.48552 1.83042e-007 
0.064233 0.021464 -0.1 -1.89225 -2.31956 2.29461e-007 
0.064233 0.021464 0.1 -1.9984 -2.22876 2.5199e-007 
0.059625 0.026 -0.1 -2.19553 -2.03518 2.94918e-007 
0.059625 0.026 0.1 -2.28652 -1.9324 3.1532e-007 
0.055621 0.031203 -0.1 -2.45143 -1.71905 3.53479e-007 
0.055621 0.031203 0.1 -2.52535 -1.60848 3.71238e-007 
0.052259 0.037037 -0.1 -2.65588 -1.38334 4.03901e-007 
0.052259 0.037037 0.1 -2.71248 -1.26878 4.18806e-007 
0.049578 0.043469 -0.1 -2.80888 -1.03957 4.45679e-007 
0.049578 0.043469 0.1 -2.84869 -0.924937 4.5765e-007 
0.047616 0.050463 -0.1 -2.91305 -0.698507 4.78802e-007 
0.047616 0.050463 0.1 -2.93761 -0.586715 4.87982e-007 
0.04641 0.057985 -0.1 -2.97347 -0.367703 5.03825e-007 
0.04641 0.057985 0.1 -2.98478 -0.260483 5.1049e-007 
0.046 0.066 -0.1 -2.99537 -0.0387322 5.22035e-007 
0.046 0.066 0.1 -2.99467 0.0757982 5.26917e-007 
0.046512 0.074054 -0.1 -2.97725 0.319487 5.34524e-007 
0.046512 0.074054 0.1 -2.96054 0.448646 5.37249e-007 
0.048009 0.081681 -0.1 -2.90937 0.70699 5.39593e-007 
0.048009 0.081681 0.1 -2.8749 0.836175 5.39214e-007 
0.050438 0.088828 -0.1 -2.78832 1.09025 5.35182e-007 
0.050438 0.088828 0.1 -2.73621 1.21513 5.31529e-007 
0.053741 0.095444 -0.1 -2.61507 1.45748 5.20943e-007 
0.053741 0.095444 0.1 -2.54606 1.57495 5.14011e-007 
0.057863 0.101477 -0.1 -2.39268 1.79943 4.97005e-007 
0.057863 0.101477 0.1 -2.30833 1.90643 4.86934e-007 
0.06275 0.106875 -0.1 -2.12666 2.10731 4.63951e-007 
0.06275 0.106875 0.1 -2.02934 2.20118 4.51038e-007 
0.068345 0.111585 -0.1 -1.82441 2.374 4.22761e-007 
0.068345 0.111585 0.1 -1.7168 2.45295 4.07396e-007 
0.074593 0.115556 -0.1 -1.4939 2.59494 3.7463e-007 
0.074593 0.115556 0.1 -1.37861 2.65799 3.57228e-007 
0.081438 0.118734 -0.1 -1.14365 2.76751 3.20934e-007 
0.081438 0.118734 0.1 -1.02398 2.81399 3.02041e-007 
0.088824 0.121069 -0.1 -0.782787 2.89066 2.63221e-007 
0.088824 0.121069 0.1 -0.661272 2.92085 2.43295e-007 
0.096697 0.122509 -0.1 -0.418871 2.96562 2.02869e-007 
0.096697 0.122509 0.1 -0.297984 2.98019 1.8237e-007 
0.105 0.123 -0.1 -0.0432978 2.99371 1.3843e-007 
0.105 0.123 0.1 0.0905011 2.99266 1.14989e-007 
0.11543 0.122218 -0.1 0.379473 2.96761 6.33691e-008 
0.11543 0.122218 0.1 0.534645 2.94361 3.5189e-008 
0.12519 0.119912 -0.1 0.844726 2.86939 -2.22716e-008 
0.12519 0.119912 0.1 0.999634 2.81917 -5.1552e-008 
0.134234 0.116141 -0.1 1.29968 2.69396 -1.09487e-007 
0.134234 0.116141 0.1 1.44483 2.61899 -1.38142e-007 
0.142519 0.110963 -0.1 1.71744 2.4495 -1.93216e-007 
0.142519 0.110963 0.1 1.84491 2.35498 -2.19635e-007 
0.149997 0.104438 -0.1 2.07749 2.15388 -2.69091e-007 
0.149997 0.104438 0.1 2.1826 2.04731 -2.92127e-007 
0.156625 0.096625 -0.1 2.36973 1.82923 -3.34378e-007 
0.156625 0.096625 0.1 2.45175 1.71773 -3.53593e-007 
0.162357 0.087583 -0.1 2.59452 1.49552 -3.88268e-007 
0.162357 0.087583 0.1 2.65526 1.38481 -4.03728e-007 
0.167148 0.07737 -0.1 2.75858 1.16794 -4.31274e-007 
0.167148 0.07737 0.1 2.80115 1.06178 -4.43357e-007 
0.170953 0.066047 -0.1 2.87161 0.855793 -4.6468e-007 
0.170953 0.066047 0.1 2.89949 0.755971 -4.73918e-007 
0.173727 0.053671 -0.1 2.94362 0.563367 -4.90052e-007 
0.173727 0.053671 0.1 2.95987 0.470584 -4.9695e-007 
0.175424 0.040303 -0.1 2.98327 0.292106 -5.08843e-007 
0.175424 0.040303 0.1 2.99042 0.206411 -5.13839e-007 
0.176 0.026 -0.1 2.99686 0.0254426 -5.22876e-007 
0.176 0.026 0.1 2.99616 -0.0698317 -5.26918e-007 
0.175207 0.011613 -0.1 2.98376 -0.272093 -5.33591e-007 
0.175207 0.011613 0.1 2.97206 -0.379079 -5.36222e-007 
0.172819 -0.002931 -0.1 2.93782 -0.589044 -5.39413e-007 
0.172819 -0.002931 0.1 2.91528 -0.692021 -5.39973e-007 
0.168828 -0.017453 -0.1 2.85973 -0.89443 -5.39108e-007 
0.168828 -0.017453 0.1 2.82671 -0.993861 -5.37681e-007 
0.163222 -0.031778 -0.1 2.75026 -1.18909 -5.32847e-007 
0.163222 -0.031778 0.1 2.70683 -1.28488 -5.29442e-007 
0.155991 -0.045727 -0.1 2.60954 -1.4723 -5.20623e-007 
0.155991 -0.045727 0.1 2.55568 -1.56393 -5.15212e-007 
0.147125 -0.059125 -0.1 2.43744 -1.74229 -5.02333e-007 
0.147125 -0.059125 0.1 2.37305 -1.82902 -4.94866e-007 
0.136613 -0.071793 -0.1 2.23412 -1.99616 -4.77881e-007 
0.136613 -0.071793 0.1 2.15958 -2.07658 -4.68362e-007 
0.124444 -0.083556 -0.1 2.00101 -2.22963 -4.47329e-007 
0.124444 -0.083556 0.1 1.917 -2.30227 -4.35814e-007 
0.110609 -0.094234 -0.1 1.741 -2.43804 -4.10976e-007 
0.110609 -0.094234 0.1 1.64903 -2.50116 -3.97655e-007 
0.095097 -0.103653 -0.1 1.45896 -2.61662 -3.69469e-007 
0.095097 -0.103653 0.1 1.36087 -2.66895 -3.54606e-007 
0.077898 -0.111634 -0.1 1.16109 -2.76186 -3.23737e-007 
0.077898 -0.111634 0.1 1.0594 -2.80245 -3.0773e-007 
0.059 -0.118 -0.1 -0.36153 -1.89535 -1.96365e-008 
0.059 -0.118 0.1 -1.68076 -0.947676 2.5245e-007 
0.059 -0.099 -0.1 -2.61408 0.789244 4.91559e-007 
0.059 -0.099 0.1 -2.22816 1.57849 4.58582e-007 
3 34 36 35 
3 33 36 34 
3 33 37 36 
3 32 37 33 
3 32 38 37 
3 31 38 32 
3 31 39 38 
3 30 39 31 
3 29 39 30 
3 29 40 39 
3 28 40 29 
3 28 41 40 
3 27 41 28 
3 27 42 41 
3 26 42 27 
3 25 42 26 
3 25 43 42 
3 24 43 25 
3 24 44 43 
3 23 44 24 
3 23 45 44 
3 22 45 23 
3 21 45 22 
3 21 46 45 
3 20 46 21 
3 19 46 20 
3 19 47 46 
3 18 47 19 
3 17 47 18 
3 16 47 17 
3 16 48 47 
3 15 48 16 
3 14 48 15 
3 13 48 14 
3 12 48 13 
3 12 11 48 
3 11 49 48 
3 10 49 11 
3 9 49 10 
3 9 50 49 
3 8 50 9 
3 8 51 50 
3 7 51 8 
3 6 51 7 
3 6 52 51 
3 5 52 6 
3 5 53 52 
3 4 53 5 
3 4 54 53 
3 3 54 4 
3 2 54 3 
3 2 55 54 
3 1 55 2 
3 1 56 55 
3 0 56 1 
3 60 56 0 
3 60 57 56 
3 59 57 60 
3 59 58 57 
3 97 95 96 
3 97 94 95 
3 98 94 97 
3 98 93 94 
3 99 93 98 
3 99 92 93 
3 100 92 99 
3 100 91 92 
3 100 90 91 
3 101 90 100 
3 101 89 90 
3 102 89 101 
3 102 88 89 
3 103 88 102 
3 103 87 88 
3 103 86 87 
3 104 86 103 
3 104 85 86 
3 105 85 104 
3 105 84 85 
3 106 84 105 
3 106 83 84 
3 106 82 83 
3 107 82 106 
3 107 81 82 
3 107 80 81 
3 108 80 107 
3 108 79 80 
3 108 78 79 
3 108 77 78 
3 109 77 108 
3 109 76 77 
3 109 75 76 
3 109 74 75 
3 109 73 74 
3 72 73 109 
3 110 72 109 
3 110 71 72 
3 110 70 71 
3 111 70 110 
3 111 69 70 
3 112 69 111 
3 112 68 69 
3 112 67 68 
3 113 67 112 
3 113 66 67 
3 114 66 113 
3 114 65 66 
3 115 65 114 
3 115 64 65 
3 115 63 64 
3 116 63 115 
3 116 62 63 
3 117 62 116 
3 117 61 62 
3 117 121 61 
3 118 121 117 
3 118 120 121 
3 119 120 118 
3 123 125 124 
3 123 124 122 
3 125 127 126 
3 125 126 124 
3 127 129 128 
3 127 128 126 
3 129 131 130 
3 129 130 128 
3 131 133 132 
3 131 132 130 
3 133 135 134 
3 133 134 132 
3 135 137 136 
3 135 136 134 
3 137 139 138 
3 137 138 136 
3 139 141 140 
3 139 140 138 
3 141 143 142 
3 141 142 140 
3 143 145 144 
3 143 144 142 
3 145 147 146 
3 145 146 144 
3 147 149 148 
3 147 148 146 
3 149 151 150 
3 149 150 148 
3 151 153 152 
3 151 152 150 
3 153 155 154 
3 153 154 152 
3 155 157 156 
3 155 156 154 
3 157 159 158 
3 157 158 156 
3 159 161 160 
3 159 160 158 
3 161 163 162 
3 161 162 160 
3 163 165 164 
3 163 164 162 
3 165 167 166 
3 165 166 164 
3 167 169 168 
3 167 168 166 
3 169 171 170 
3 169 170 168 
3 171 173 172 
3 171 172 170 
3 173 175 174 
3 173 174 172 
3 175 177 176 
3 175 176 174 
3 177 179 178 
3 177 178 176 
3 179 181 180 
3 179 180 178 
3 181 183 182 
3 181 182 180 
3 183 185 184 
3 183 184 182 
3 185 187 186 
3 185 186 184 
3 187 189 188 
3 187 188 186 
3 189 191 190 
3 189 190 188 
3 191 193 192 
3 191 192 190 
3 193 195 194 
3 193 194 192 
3 195 197 196 
3 195 196 194 
3 197 199 198 
3 197 198 196 
3 199 201 200 
3 199 200 198 
3 201 203 202 
3 201 202 200 
3 203 205 204 
3 203 204 202 
3 205 207 206 
3 205 206 204 
3 207 209 208 
3 207 208 206 
3 209 211 210 
3 209 210 208 
3 211 213 212 
3 211 212 210 
3 213 215 214 
3 213 214 212 
3 215 217 216 
3 215 216 214 
3 217 219 218 
3 217 218 216 
3 219 221 220 
3 219 220 218 
3 221 223 222 
3 221 222 220 
3 223 225 224 
3 223 224 222 
3 225 227 226 
3 225 226 224 
3 227 229 228 
3 227 228 226 
3 229 231 230 
3 229 230 228 
3 231 233 232 
3 231 232 230 
3 233 235 234 
3 233 234 232 
3 235 237 236 
3 235 236 234 
3 237 239 238 
3 237 238 236 
3 239 241 240 
3 239 240 238 
3 241 243 242 
3 241 242 240 
3 243 123 122 
3 243 122 242 
