ply
format ascii 1.0
comment VCGLIB generated
element vertex 32
property float x
property float y
property float z
property float nx
property float ny
property float nz
element face 28
property list uchar int vertex_indices
end_header
0.351 0.594 0.1 2.03562e-008 -5.08906e-009 0.116424 
0.351 -4.37114e-009 0.1 1.01781e-008 -2.54453e-009 0.058212 
0.253 -4.37114e-009 0.1 2.03562e-008 -5.08906e-009 0.116424 
0.253 0.594 0.1 1.01781e-008 -2.54453e-009 0.058212 
0.017 0.594 0.1 1.75405e-008 -4.38513e-009 0.10032 
0.017 0.682 0.1 8.77026e-009 -2.19256e-009 0.05016 
0.587 0.682 0.0999999 1.75405e-008 -4.38513e-009 0.10032 
0.587 0.594 0.0999999 8.77026e-009 -2.19256e-009 0.05016 
0.351 0.594 -0.1 -2.03562e-008 5.08906e-009 -0.116424 
0.351 4.37114e-009 -0.1 -1.01781e-008 2.54453e-009 -0.058212 
0.253 4.37114e-009 -0.1 -2.03562e-008 5.08906e-009 -0.116424 
0.253 0.594 -0.1 -1.01781e-008 2.54453e-009 -0.058212 
0.017 0.594 -0.1 -1.75405e-008 4.38513e-009 -0.10032 
0.017 0.682 -0.1 -8.77026e-009 2.19256e-009 -0.05016 
0.587 0.682 -0.1 -1.75405e-008 4.38513e-009 -0.10032 
0.587 0.594 -0.1 -8.77026e-009 2.19256e-009 -0.05016 
0.351 0.594 -0.1 1 -2 -2.62269e-007 
0.351 0.594 0.1 2 -1 -3.93403e-007 
0.351 4.37114e-009 -0.1 2 -1 -3.93403e-007 
0.351 -4.37114e-009 0.1 1 -2 -2.62269e-007 
0.253 4.37114e-009 -0.1 -1 -2 8.74228e-008 
0.253 -4.37114e-009 0.1 -2 -1 3.0598e-007 
0.253 0.594 -0.1 -2 -1 3.0598e-007 
0.253 0.594 0.1 -1 -2 8.74228e-008 
0.017 0.594 -0.1 -1 -2 8.74228e-008 
0.017 0.594 0.1 -2 -1 3.0598e-007 
0.017 0.682 -0.1 -2 1 3.93403e-007 
0.017 0.682 0.1 -1 2 2.62269e-007 
0.587 0.682 -0.1 1 2 -8.74228e-008 
0.587 0.682 0.0999999 2 1 -3.0598e-007 
0.587 0.594 -0.1 2 -1 -3.93403e-007 
0.587 0.594 0.0999999 1 -2 -2.62269e-007 
3 4 6 5 
3 4 7 6 
3 3 7 4 
3 2 0 3 
3 0 7 3 
3 2 1 0 
3 14 12 13 
3 15 12 14 
3 15 11 12 
3 8 10 11 
3 15 8 11 
3 9 10 8 
3 17 19 18 
3 17 18 16 
3 19 21 20 
3 19 20 18 
3 21 23 22 
3 21 22 20 
3 23 25 24 
3 23 24 22 
3 25 27 26 
3 25 26 24 
3 27 29 28 
3 27 28 26 
3 29 31 30 
3 29 30 28 
3 31 17 16 
3 31 16 30 
