ply
format ascii 1.0
comment VCGLIB generated
element vertex 16
property float x
property float y
property float z
property float nx
property float ny
property float nz
element face 12
property list uchar int vertex_indices
end_header
0.065 -4.37114e-009 0.1 2.12256e-008 -5.30639e-009 0.121396 
0.065 0.682 0.1 1.06128e-008 -2.65319e-009 0.060698 
0.154 0.682 0.1 2.12256e-008 -5.30639e-009 0.121396 
0.154 -4.37114e-009 0.1 1.06128e-008 -2.65319e-009 0.060698 
0.065 4.37114e-009 -0.1 -2.12256e-008 5.30639e-009 -0.121396 
0.065 0.682 -0.1 -1.06128e-008 2.65319e-009 -0.060698 
0.154 0.682 -0.1 -2.12256e-008 5.30639e-009 -0.121396 
0.154 4.37114e-009 -0.1 -1.06128e-008 2.65319e-009 -0.060698 
0.065 4.37114e-009 -0.1 -1 -2 8.74228e-008 
0.065 -4.37114e-009 0.1 -2 -1 3.0598e-007 
0.065 0.682 -0.1 -2 1 3.93403e-007 
0.065 0.682 0.1 -1 2 2.62269e-007 
0.154 0.682 -0.1 1 2 -8.74228e-008 
0.154 0.682 0.1 2 1 -3.0598e-007 
0.154 4.37114e-009 -0.1 2 -1 -3.93403e-007 
0.154 -4.37114e-009 0.1 1 -2 -2.62269e-007 
3 0 2 1 
3 0 3 2 
3 6 4 5 
3 7 4 6 
3 9 11 10 
3 9 10 8 
3 11 13 12 
3 11 12 10 
3 13 15 14 
3 13 14 12 
3 15 9 8 
3 15 8 14 
