ply
format ascii 1.0
comment VCGLIB generated
element vertex 224
property float x
property float y
property float z
property float nx
property float ny
property float nz
element face 220
property list uchar int vertex_indices
end_header
0.348 0.057 0.1 2.20816e-009 -5.52038e-010 0.0126292 
0.338451 0.047299 0.1 1.48447e-009 -3.71119e-010 0.00849021 
0.328357 0.038222 0.1 6.86184e-010 -1.71546e-010 0.00392451 
0.317797 0.029812 0.1 1.09386e-009 -2.73466e-010 0.00625617 
0.306852 0.022111 0.1 8.26488e-010 -2.06622e-010 0.00472696 
0.295601 0.01516 0.1 3.57343e-010 -8.93358e-011 0.00204376 
0.284125 0.00899999 0.1 5.07349e-010 -1.26837e-010 0.0029017 
0.272503 0.003674 0.1 2.02348e-010 -5.05871e-011 0.0011573 
0.260815 -0.000778004 0.1 2.5338e-010 -6.33448e-011 0.00144916 
0.249141 -0.004312 0.1 1.19237e-010 -2.98093e-011 0.000681957 
0.23756 -0.006889 0.1 2.93982e-011 -7.34956e-012 0.000168138 
0.226153 -0.00846501 0.1 1.54931e-011 -3.87327e-012 8.861e-005 
0.215 -0.009 0.1 4.69628e-012 -1.17407e-012 2.68596e-005 
0.192834 -0.007655 0.1 8.56787e-011 -2.14197e-011 0.000490025 
0.171921 -0.003657 0.1 2.12971e-010 -5.32428e-011 0.00121805 
0.152391 0.002938 0.1 5.44215e-010 -1.36054e-010 0.00311255 
0.13437 0.012074 0.1 9.66144e-010 -2.41536e-010 0.0055257 
0.117989 0.023697 0.1 1.14318e-009 -2.85795e-010 0.00653823 
0.103375 0.03775 0.1 1.88922e-009 -4.72304e-010 0.0108051 
0.090657 0.054178 0.1 2.16904e-009 -5.42261e-010 0.0124055 
0.079963 0.072926 0.1 1.14526e-009 -2.86316e-010 0.00655014 
0.071422 0.093938 0.1 1.07222e-009 -2.68055e-010 0.00613238 
0.065162 0.117157 0.1 1.15974e-009 -2.89934e-010 0.00663292 
0.061312 0.14253 0.1 1.27528e-009 -3.1882e-010 0.00729376 
0.06 0.17 0.1 9.20264e-009 -2.30066e-009 0.052633 
0.06 0.449 0.1 4.34158e-009 -1.0854e-009 0.024831 
0.149 0.449 0.1 8.77654e-009 -2.19414e-009 0.050196 
0.149 0.164 0.1 5.09624e-009 -1.27406e-009 0.0291471 
0.149645 0.148818 0.1 4.53942e-010 -1.13486e-010 0.00259625 
0.151579 0.134792 0.1 8.17916e-010 -2.04479e-010 0.00467793 
0.154797 0.121953 0.1 3.89799e-010 -9.74499e-011 0.00222939 
0.159296 0.110333 0.1 7.36452e-010 -1.84113e-010 0.00421201 
0.165074 0.099964 0.1 3.32134e-010 -8.30336e-011 0.00189959 
0.172125 0.090875 0.1 6.73073e-010 -1.68268e-010 0.00384953 
0.180447 0.083099 0.1 2.81483e-010 -7.03707e-011 0.0016099 
0.190037 0.076667 0.1 2.34508e-010 -5.86271e-011 0.00134123 
0.200891 0.071609 0.1 6.05676e-010 -1.51419e-010 0.00346406 
0.213005 0.067958 0.1 1.86845e-010 -4.67114e-011 0.00106863 
0.226376 0.065745 0.1 1.26811e-010 -3.17028e-011 0.000725275 
0.241 0.065 0.1 4.82486e-010 -1.20621e-010 0.0027595 
0.250954 0.065457 0.1 6.0144e-011 -1.5036e-011 0.000343984 
0.260801 0.066819 0.1 8.87912e-011 -2.21978e-011 0.000507827 
0.270516 0.069078 0.1 1.13899e-010 -2.84747e-011 0.000651426 
0.280074 0.072222 0.1 1.3547e-010 -3.38675e-011 0.000774798 
0.289452 0.076241 0.1 1.53548e-010 -3.8387e-011 0.000878192 
0.298625 0.081125 0.1 1.6812e-010 -4.203e-011 0.000961534 
0.307569 0.086863 0.1 4.29937e-010 -1.07484e-010 0.00245895 
0.316259 0.093444 0.1 5.74904e-010 -1.43726e-010 0.00328807 
0.324672 0.100859 0.1 5.98804e-010 -1.49701e-010 0.00342476 
0.332782 0.109097 0.1 6.1824e-010 -1.5456e-010 0.00353592 
0.340567 0.118148 0.1 6.3309e-010 -1.58272e-010 0.00362085 
0.348 0.128 0.1 1.23018e-008 -3.07546e-009 0.0703583 
0.348 0.449 0.1 4.99516e-009 -1.24879e-009 0.028569 
0.437 0.449 0.1 1.19822e-008 -2.99554e-009 0.06853 
0.437 -4.37114e-009 0.1 9.44856e-009 -2.36214e-009 0.0540395 
0.348 -4.37114e-009 0.1 8.86992e-010 -2.21748e-010 0.005073 
0.348 0.057 -0.1 -2.20816e-009 5.52038e-010 -0.0126292 
0.338451 0.047299 -0.1 -1.48448e-009 3.71119e-010 -0.00849021 
0.328357 0.038222 -0.1 -6.86184e-010 1.71546e-010 -0.00392451 
0.317797 0.029812 -0.1 -1.09386e-009 2.73466e-010 -0.00625617 
0.306852 0.022111 -0.1 -8.26488e-010 2.06622e-010 -0.00472696 
0.295601 0.01516 -0.1 -3.57343e-010 8.93358e-011 -0.00204376 
0.284125 0.009 -0.1 -5.07349e-010 1.26837e-010 -0.0029017 
0.272503 0.003674 -0.1 -2.02348e-010 5.05871e-011 -0.0011573 
0.260815 -0.000777996 -0.1 -2.5338e-010 6.33448e-011 -0.00144916 
0.249141 -0.004312 -0.1 -1.19237e-010 2.98093e-011 -0.000681957 
0.23756 -0.006889 -0.1 -2.93982e-011 7.34956e-012 -0.000168138 
0.226153 -0.008465 -0.1 -1.54931e-011 3.87327e-012 -8.861e-005 
0.215 -0.00899999 -0.1 -4.69628e-012 1.17407e-012 -2.68596e-005 
0.192834 -0.007655 -0.1 -8.56787e-011 2.14197e-011 -0.000490025 
0.171921 -0.003657 -0.1 -2.12971e-010 5.32428e-011 -0.00121805 
0.152391 0.002938 -0.1 -5.44215e-010 1.36054e-010 -0.00311255 
0.13437 0.012074 -0.1 -9.66144e-010 2.41536e-010 -0.0055257 
0.117989 0.023697 -0.1 -1.14318e-009 2.85795e-010 -0.00653823 
0.103375 0.03775 -0.1 -1.88922e-009 4.72304e-010 -0.0108051 
0.090657 0.054178 -0.1 -2.16904e-009 5.42261e-010 -0.0124055 
0.079963 0.072926 -0.1 -1.14526e-009 2.86316e-010 -0.00655014 
0.071422 0.093938 -0.1 -1.07222e-009 2.68055e-010 -0.00613238 
0.065162 0.117157 -0.1 -1.15974e-009 2.89934e-010 -0.00663292 
0.061312 0.14253 -0.1 -1.27528e-009 3.1882e-010 -0.00729376 
0.06 0.17 -0.1 -9.20264e-009 2.30066e-009 -0.052633 
0.06 0.449 -0.1 -4.34158e-009 1.0854e-009 -0.024831 
0.149 0.449 -0.1 -8.77654e-009 2.19414e-009 -0.050196 
0.149 0.164 -0.1 -5.09624e-009 1.27406e-009 -0.0291471 
0.149645 0.148818 -0.1 -4.53942e-010 1.13486e-010 -0.00259625 
0.151579 0.134792 -0.1 -8.17916e-010 2.04479e-010 -0.00467793 
0.154797 0.121953 -0.1 -3.89799e-010 9.74499e-011 -0.00222939 
0.159296 0.110333 -0.1 -7.36452e-010 1.84113e-010 -0.00421201 
0.165074 0.099964 -0.1 -3.32134e-010 8.30336e-011 -0.00189959 
0.172125 0.090875 -0.1 -6.73073e-010 1.68268e-010 -0.00384953 
0.180447 0.083099 -0.1 -2.81484e-010 7.03708e-011 -0.0016099 
0.190037 0.076667 -0.1 -2.34508e-010 5.86271e-011 -0.00134123 
0.200891 0.071609 -0.1 -6.05676e-010 1.51419e-010 -0.00346406 
0.213005 0.067958 -0.1 -1.86845e-010 4.67114e-011 -0.00106863 
0.226376 0.065745 -0.1 -1.26811e-010 3.17028e-011 -0.000725275 
0.241 0.065 -0.1 -4.82486e-010 1.20621e-010 -0.0027595 
0.250954 0.065457 -0.1 -6.0144e-011 1.5036e-011 -0.000343984 
0.260801 0.066819 -0.1 -8.87912e-011 2.21978e-011 -0.000507827 
0.270516 0.069078 -0.1 -1.13899e-010 2.84747e-011 -0.000651426 
0.280074 0.072222 -0.1 -1.3547e-010 3.38675e-011 -0.000774798 
0.289452 0.076241 -0.1 -1.53548e-010 3.8387e-011 -0.000878192 
0.298625 0.081125 -0.1 -1.6812e-010 4.203e-011 -0.000961534 
0.307569 0.086863 -0.1 -4.29936e-010 1.07484e-010 -0.00245895 
0.316259 0.093444 -0.1 -5.74903e-010 1.43726e-010 -0.00328806 
0.324672 0.100859 -0.1 -5.98804e-010 1.49701e-010 -0.00342476 
0.332782 0.109097 -0.1 -6.1824e-010 1.5456e-010 -0.00353592 
0.340567 0.118148 -0.1 -6.3309e-010 1.58272e-010 -0.00362085 
0.348 0.128 -0.1 -1.23018e-008 3.07546e-009 -0.0703583 
0.348 0.449 -0.1 -4.99516e-009 1.24879e-009 -0.028569 
0.437 0.449 -0.1 -1.19822e-008 2.99554e-009 -0.06853 
0.437 4.37114e-009 -0.1 -9.44856e-009 2.36214e-009 -0.0540395 
0.348 4.37114e-009 -0.1 -8.86992e-010 2.21748e-010 -0.005073 
0.348 0.057 -0.1 -1.28733 -0.701501 1.9442e-007 
0.348 0.057 0.1 0.425336 -1.403 -1.35695e-007 
0.338451 0.047299 -0.1 2.09399 -2.14657 -4.59954e-007 
0.338451 0.047299 0.1 2.04998 -2.18865 -4.54099e-007 
0.328357 0.038222 -0.1 1.96029 -2.26938 -4.41946e-007 
0.328357 0.038222 0.1 1.91461 -2.30805 -4.35649e-007 
0.317797 0.029812 -0.1 1.8214 -2.38232 -4.22598e-007 
0.317797 0.029812 0.1 1.77386 -2.41793 -4.15843e-007 
0.306852 0.022111 -0.1 1.67648 -2.48642 -4.0181e-007 
0.306852 0.022111 0.1 1.62663 -2.51931 -3.94532e-007 
0.295601 0.01516 -0.1 1.52413 -2.58256 -3.79375e-007 
0.295601 0.01516 0.1 1.47148 -2.61292 -3.71497e-007 
0.284125 0.009 -0.1 1.3625 -2.67127 -3.54992e-007 
0.284125 0.00899999 0.1 1.30616 -2.69927 -3.46365e-007 
0.272503 0.003674 -0.1 1.18917 -2.75268 -3.28245e-007 
0.272503 0.003674 0.1 1.12852 -2.77809 -3.1875e-007 
0.260815 -0.000777996 -0.1 1.00165 -2.82611 -2.98667e-007 
0.260815 -0.000778004 0.1 0.935433 -2.84871 -2.88077e-007 
0.249141 -0.004312 -0.1 0.796685 -2.89034 -2.65637e-007 
0.249141 -0.004312 0.1 0.724153 -2.90936 -2.53787e-007 
0.23756 -0.006889 -0.1 0.571275 -2.94284 -2.2852e-007 
0.23756 -0.006889 0.1 0.490929 -2.95731 -2.15104e-007 
0.226153 -0.008465 -0.1 0.321635 -2.98003 -1.86498e-007 
0.226153 -0.00846501 0.1 0.232689 -2.98829 -1.71307e-007 
0.215 -0.00899999 -0.1 0.0352609 -2.99587 -1.37119e-007 
0.215 -0.009 0.1 -0.0732202 -2.99518 -1.18121e-007 
0.192834 -0.007655 -0.1 -0.308907 -2.97854 -7.61855e-008 
0.192834 -0.007655 0.1 -0.436112 -2.96259 -5.32467e-008 
0.171921 -0.003657 -0.1 -0.695481 -2.91186 -5.67982e-009 
0.171921 -0.003657 0.1 -0.827645 -2.87709 1.89484e-008 
0.152391 0.002938 -0.1 -1.09205 -2.78681 6.91247e-008 
0.152391 0.002938 0.1 -1.22429 -2.7313 9.46727e-008 
0.13437 0.012074 -0.1 -1.48302 -2.59942 1.45676e-007 
0.13437 0.012074 0.1 -1.60952 -2.52305 1.71132e-007 
0.117989 0.023697 -0.1 -1.85048 -2.35193 2.20742e-007 
0.117989 0.023697 0.1 -1.96495 -2.25717 2.44898e-007 
0.103375 0.03775 -0.1 -2.17701 -2.05377 2.90867e-007 
0.103375 0.03775 0.1 -2.2746 -1.94513 3.1268e-007 
0.090657 0.054178 -0.1 -2.45009 -1.71979 3.53214e-007 
0.090657 0.054178 0.1 -2.52798 -1.6031 3.71933e-007 
0.079963 0.072926 -0.1 -2.66364 -1.3675 4.0595e-007 
0.079963 0.072926 0.1 -2.72141 -1.24859 4.21248e-007 
0.071422 0.093938 -0.1 -2.81831 -1.01343 4.4847e-007 
0.071422 0.093938 0.1 -2.85744 -0.897185 4.60393e-007 
0.065162 0.117157 -0.1 -2.91973 -0.670643 4.81187e-007 
0.065162 0.117157 0.1 -2.94289 -0.56035 4.90058e-007 
0.061312 0.14253 -0.1 -2.97623 -0.347745 5.0518e-007 
0.061312 0.14253 0.1 -2.98641 -0.245433 5.11432e-007 
0.06 0.17 -0.1 -2.99772 -0.0954138 5.19968e-007 
0.06 0.17 0.1 -2.99886 -0.0477069 5.22252e-007 
0.06 0.449 -0.1 -2 1 3.93403e-007 
0.06 0.449 0.1 -1 2 2.62269e-007 
0.149 0.449 -0.1 1 2 -8.74228e-008 
0.149 0.449 0.1 2 1 -3.0598e-007 
0.149 0.164 -0.1 2.9991 0.042446 -5.22524e-007 
0.149 0.164 0.1 2.9982 0.084892 -5.20511e-007 
0.149645 0.148818 -0.1 2.98882 0.221486 -5.12901e-007 
0.149645 0.148818 0.1 2.98035 0.315634 -5.07304e-007 
0.151579 0.134792 -0.1 2.95125 0.516311 -4.93444e-007 
0.151579 0.134792 0.1 2.93062 0.62284 -4.85181e-007 
0.154797 0.121953 -0.1 2.87253 0.847306 -4.65213e-007 
0.154797 0.121953 0.1 2.83508 0.965242 -4.5351e-007 
0.159296 0.110333 -0.1 2.73862 1.20888 -4.25994e-007 
0.159296 0.110333 0.1 2.67961 1.33459 -4.10181e-007 
0.165074 0.099964 -0.1 2.53718 1.58648 -3.74267e-007 
0.165074 0.099964 0.1 2.45377 1.71267 -3.54167e-007 
0.172125 0.090875 -0.1 2.26297 1.95658 -3.10146e-007 
0.172125 0.090875 0.1 2.15558 2.07429 -2.86223e-007 
0.180447 0.083099 -0.1 1.92248 2.29184 -2.35957e-007 
0.180447 0.083099 0.1 1.79676 2.39167 -2.09612e-007 
0.190037 0.076667 -0.1 1.53642 2.56742 -1.56411e-007 
0.190037 0.076667 0.1 1.4018 2.64333 -1.29555e-007 
0.200891 0.071609 -0.1 1.13335 2.77029 -7.70681e-008 
0.200891 0.071609 0.1 0.999523 2.82133 -5.14378e-008 
0.213005 0.067958 -0.1 0.740417 2.9015 -2.63012e-009 
0.213005 0.067958 0.1 0.615137 2.93062 2.05473e-008 
0.226376 0.065745 -0.1 0.37745 2.97186 6.39088e-008 
0.226376 0.065745 0.1 0.265042 2.98399 8.40933e-008 
0.241 0.065 -0.1 0.0558929 2.99636 1.21203e-007 
0.241 0.065 0.1 -0.0408484 2.9966 1.38128e-007 
0.250954 0.065457 -0.1 -0.228738 2.98847 1.70624e-007 
0.250954 0.065457 0.1 -0.319886 2.98009 1.86194e-007 
0.260801 0.066819 -0.1 -0.500508 2.95515 2.16686e-007 
0.260801 0.066819 0.1 -0.58998 2.9386 2.31606e-007 
0.270516 0.069078 -0.1 -0.765438 2.89796 2.60507e-007 
0.270516 0.069078 0.1 -0.851422 2.87387 2.74489e-007 
0.280074 0.072222 -0.1 -1.01885 2.81901 3.01364e-007 
0.280074 0.072222 0.1 -1.10028 2.78823 3.14257e-007 
0.289452 0.076241 -0.1 -1.25778 2.72098 3.38856e-007 
0.289452 0.076241 0.1 -1.33384 2.68452 3.5056e-007 
0.298625 0.081125 -0.1 -1.47991 2.60705 3.72714e-007 
0.298625 0.081125 0.1 -1.54992 2.56604 3.83162e-007 
0.307569 0.086863 -0.1 -1.68368 2.48055 4.02812e-007 
0.307569 0.086863 0.1 -1.74742 2.43607 4.12012e-007 
0.316259 0.093444 -0.1 -1.86865 2.34459 4.29211e-007 
0.316259 0.093444 0.1 -1.92614 2.2976 4.37208e-007 
0.324672 0.100859 -0.1 -2.03504 2.20195 4.52068e-007 
0.324672 0.100859 0.1 -2.08645 2.1533 4.5893e-007 
0.332782 0.109097 -0.1 -2.18338 2.05519 4.7159e-007 
0.332782 0.109097 0.1 -2.2289 2.00574 4.77387e-007 
0.340567 0.118148 -0.1 -2.31456 1.90647 4.88025e-007 
0.340567 0.118148 0.1 -2.35471 1.85665 4.92867e-007 
0.348 0.128 -0.1 -2.59657 1.20456 5.06651e-007 
0.348 0.128 0.1 -2.79829 0.602279 5.15594e-007 
0.348 0.449 -0.1 -2 1 3.93403e-007 
0.348 0.449 0.1 -1 2 2.62269e-007 
0.437 0.449 -0.1 1 2 -8.74228e-008 
0.437 0.449 0.1 2 1 -3.0598e-007 
0.437 4.37114e-009 -0.1 2 -1 -3.93403e-007 
0.437 -4.37114e-009 0.1 1 -2 -2.62269e-007 
0.348 4.37114e-009 -0.1 -1 -2 8.74228e-008 
0.348 -4.37114e-009 0.1 -2 -1 3.0598e-007 
3 24 26 25 
3 24 27 26 
3 51 53 52 
3 51 54 53 
3 23 27 24 
3 23 28 27 
3 23 29 28 
3 22 29 23 
3 22 30 29 
3 50 54 51 
3 22 31 30 
3 49 54 50 
3 21 31 22 
3 21 32 31 
3 48 54 49 
3 47 54 48 
3 21 33 32 
3 20 33 21 
3 46 54 47 
3 20 34 33 
3 45 0 46 
3 0 54 46 
3 20 35 34 
3 44 0 45 
3 20 36 35 
3 43 0 44 
3 19 36 20 
3 42 0 43 
3 19 37 36 
3 41 0 42 
3 19 38 37 
3 40 0 41 
3 19 39 38 
3 39 0 40 
3 19 0 39 
3 19 1 0 
3 55 54 0 
3 18 1 19 
3 18 2 1 
3 18 3 2 
3 17 3 18 
3 17 4 3 
3 16 4 17 
3 16 5 4 
3 16 6 5 
3 15 6 16 
3 15 7 6 
3 15 8 7 
3 14 8 15 
3 14 9 8 
3 13 9 14 
3 13 10 9 
3 13 11 10 
3 12 11 13 
3 82 80 81 
3 83 80 82 
3 109 107 108 
3 110 107 109 
3 83 79 80 
3 84 79 83 
3 85 79 84 
3 85 78 79 
3 86 78 85 
3 110 106 107 
3 87 78 86 
3 110 105 106 
3 87 77 78 
3 88 77 87 
3 110 104 105 
3 110 103 104 
3 89 77 88 
3 89 76 77 
3 110 102 103 
3 90 76 89 
3 56 101 102 
3 110 56 102 
3 91 76 90 
3 56 100 101 
3 92 76 91 
3 56 99 100 
3 92 75 76 
3 56 98 99 
3 93 75 92 
3 56 97 98 
3 94 75 93 
3 56 96 97 
3 95 75 94 
3 56 95 96 
3 56 75 95 
3 57 75 56 
3 110 111 56 
3 57 74 75 
3 58 74 57 
3 59 74 58 
3 59 73 74 
3 60 73 59 
3 60 72 73 
3 61 72 60 
3 62 72 61 
3 62 71 72 
3 63 71 62 
3 64 71 63 
3 64 70 71 
3 65 70 64 
3 65 69 70 
3 66 69 65 
3 67 69 66 
3 67 68 69 
3 113 115 114 
3 113 114 112 
3 115 117 116 
3 115 116 114 
3 117 119 118 
3 117 118 116 
3 119 121 120 
3 119 120 118 
3 121 123 122 
3 121 122 120 
3 123 125 124 
3 123 124 122 
3 125 127 126 
3 125 126 124 
3 127 129 128 
3 127 128 126 
3 129 131 130 
3 129 130 128 
3 131 133 132 
3 131 132 130 
3 133 135 134 
3 133 134 132 
3 135 137 136 
3 135 136 134 
3 137 139 138 
3 137 138 136 
3 139 141 140 
3 139 140 138 
3 141 143 142 
3 141 142 140 
3 143 145 144 
3 143 144 142 
3 145 147 146 
3 145 146 144 
3 147 149 148 
3 147 148 146 
3 149 151 150 
3 149 150 148 
3 151 153 152 
3 151 152 150 
3 153 155 154 
3 153 154 152 
3 155 157 156 
3 155 156 154 
3 157 159 158 
3 157 158 156 
3 159 161 160 
3 159 160 158 
3 161 163 162 
3 161 162 160 
3 163 165 164 
3 163 164 162 
3 165 167 166 
3 165 166 164 
3 167 169 168 
3 167 168 166 
3 169 171 170 
3 169 170 168 
3 171 173 172 
3 171 172 170 
3 173 175 174 
3 173 174 172 
3 175 177 176 
3 175 176 174 
3 177 179 178 
3 177 178 176 
3 179 181 180 
3 179 180 178 
3 181 183 182 
3 181 182 180 
3 183 185 184 
3 183 184 182 
3 185 187 186 
3 185 186 184 
3 187 189 188 
3 187 188 186 
3 189 191 190 
3 189 190 188 
3 191 193 192 
3 191 192 190 
3 193 195 194 
3 193 194 192 
3 195 197 196 
3 195 196 194 
3 197 199 198 
3 197 198 196 
3 199 201 200 
3 199 200 198 
3 201 203 202 
3 201 202 200 
3 203 205 204 
3 203 204 202 
3 205 207 206 
3 205 206 204 
3 207 209 208 
3 207 208 206 
3 209 211 210 
3 209 210 208 
3 211 213 212 
3 211 212 210 
3 213 215 214 
3 213 214 212 
3 215 217 216 
3 215 216 214 
3 217 219 218 
3 217 218 216 
3 219 221 220 
3 219 220 218 
3 221 223 222 
3 221 222 220 
3 223 113 112 
3 223 112 222 
