ply
format ascii 1.0
comment VCGLIB generated
element vertex 32
property float x
property float y
property float z
property float nx
property float ny
property float nz
element face 28
property list uchar int vertex_indices
end_header
0.182 0.602 0.1 3.28038e-008 -8.20096e-009 0.187616 
0.182 -0.141 0.1 1.43877e-008 -3.59692e-009 0.082288 
0.319 -0.141 0.1 5.17542e-009 -1.29386e-009 0.0296 
0.319 -0.221 0.1 3.25912e-009 -8.1478e-010 0.01864 
0.086 -0.221 0.1 3.28038e-008 -8.20096e-009 0.187616 
0.086 0.682 0.1 1.84161e-008 -4.60403e-009 0.105328 
0.319 0.682 0.1 5.17542e-009 -1.29386e-009 0.0296 
0.319 0.602 0.1 1.91631e-009 -4.79077e-010 0.01096 
0.182 0.602 -0.1 -3.28038e-008 8.20096e-009 -0.187616 
0.182 -0.141 -0.1 -1.43877e-008 3.59692e-009 -0.082288 
0.319 -0.141 -0.1 -5.17542e-009 1.29386e-009 -0.0296 
0.319 -0.221 -0.1 -3.25912e-009 8.1478e-010 -0.01864 
0.086 -0.221 -0.1 -3.28038e-008 8.20096e-009 -0.187616 
0.086 0.682 -0.1 -1.84161e-008 4.60403e-009 -0.105328 
0.319 0.682 -0.1 -5.17542e-009 1.29386e-009 -0.0296 
0.319 0.602 -0.1 -1.91631e-009 4.79077e-010 -0.01096 
0.182 0.602 -0.1 1 -2 -2.62269e-007 
0.182 0.602 0.1 2 -1 -3.93403e-007 
0.182 -0.141 -0.1 2 1 -3.0598e-007 
0.182 -0.141 0.1 1 2 -8.74228e-008 
0.319 -0.141 -0.1 1 2 -8.74228e-008 
0.319 -0.141 0.1 2 1 -3.0598e-007 
0.319 -0.221 -0.1 2 -1 -3.93403e-007 
0.319 -0.221 0.1 1 -2 -2.62269e-007 
0.086 -0.221 -0.1 -1 -2 8.74228e-008 
0.086 -0.221 0.1 -2 -1 3.0598e-007 
0.086 0.682 -0.1 -2 1 3.93403e-007 
0.086 0.682 0.1 -1 2 2.62269e-007 
0.319 0.682 -0.1 1 2 -8.74228e-008 
0.319 0.682 0.1 2 1 -3.0598e-007 
0.319 0.602 -0.1 2 -1 -3.93403e-007 
0.319 0.602 0.1 1 -2 -2.62269e-007 
3 4 0 5 
3 0 6 5 
3 0 7 6 
3 4 1 0 
3 4 2 1 
3 4 3 2 
3 8 12 13 
3 14 8 13 
3 15 8 14 
3 9 12 8 
3 10 12 9 
3 11 12 10 
3 17 19 18 
3 17 18 16 
3 19 21 20 
3 19 20 18 
3 21 23 22 
3 21 22 20 
3 23 25 24 
3 23 24 22 
3 25 27 26 
3 25 26 24 
3 27 29 28 
3 27 28 26 
3 29 31 30 
3 29 30 28 
3 31 17 16 
3 31 16 30 
