ply
format ascii 1.0
comment VCGLIB generated
element vertex 312
property float x
property float y
property float z
property float nx
property float ny
property float nz
element face 308
property list uchar int vertex_indices
end_header
0.19 0.594 0.1 1.614e-008 -4.035e-009 0.09231 
0.19 0.423 0.1 3.95572e-009 -9.88932e-010 0.0226241 
0.22723 0.423086 0.1 2.69684e-011 -6.74208e-012 0.000154241 
0.261843 0.419023 0.1 2.03106e-009 -5.07767e-010 0.0116163 
0.293719 0.411078 0.1 1.55245e-009 -3.88112e-010 0.00887898 
0.322741 0.399519 0.1 1.72438e-009 -4.31094e-010 0.00986229 
0.34879 0.384612 0.1 1.84481e-009 -4.61203e-010 0.0105511 
0.37175 0.366625 0.1 1.78136e-009 -4.45342e-010 0.0101882 
0.391501 0.345826 0.1 1.72584e-009 -4.31459e-010 0.00987064 
0.407926 0.322481 0.1 1.98455e-009 -4.96139e-010 0.0113503 
0.420906 0.296859 0.1 1.75919e-009 -4.39796e-010 0.0100614 
0.430324 0.269227 0.1 1.42357e-009 -3.55893e-010 0.00814188 
0.436061 0.239851 0.1 1.76724e-009 -4.4181e-010 0.0101074 
0.438 0.209 0.1 1.4244e-009 -3.56099e-010 0.00814659 
0.436076 0.178242 0.1 1.60043e-009 -4.00108e-010 0.00915341 
0.43044 0.149102 0.1 1.57749e-009 -3.94373e-010 0.00902221 
0.421297 0.121781 0.1 1.58425e-009 -3.96062e-010 0.00906083 
0.408852 0.096481 0.1 1.8356e-009 -4.589e-010 0.0104984 
0.39331 0.073404 0.1 4.14306e-009 -1.03576e-009 0.0236955 
0.374875 0.05275 0.1 2.06072e-009 -5.15178e-010 0.0117859 
0.353753 0.034721 0.1 1.75143e-009 -4.37859e-010 0.010017 
0.330148 0.019519 0.1 1.93204e-009 -4.83011e-010 0.01105 
0.304266 0.007344 0.1 1.32305e-009 -3.30763e-010 0.00756696 
0.27631 -0.001602 0.1 5.5638e-010 -1.39095e-010 0.00318212 
0.246487 -0.007117 0.1 2.08442e-010 -5.21106e-011 0.00119215 
0.215 -0.009 0.1 1.64224e-011 -4.10559e-012 9.3925e-005 
0.200486 -0.008747 0.1 1.34313e-012 -3.35783e-013 7.68182e-006 
0.186389 -0.007972 0.1 3.23084e-011 -8.07708e-012 0.000184782 
0.172625 -0.006656 0.1 3.905e-011 -9.76251e-012 0.00022334 
0.159111 -0.004778 0.1 5.53184e-011 -1.38296e-011 0.000316384 
0.145764 -0.002316 0.1 2.25952e-010 -5.64879e-011 0.00129229 
0.1325 0.000749996 0.1 1.58992e-010 -3.97481e-011 0.00090933 
0.119236 0.004441 0.1 5.09666e-010 -1.27417e-010 0.00291495 
0.105889 0.008778 0.1 3.17226e-010 -7.93066e-011 0.00181432 
0.092375 0.013781 0.1 3.65492e-010 -9.13731e-011 0.00209037 
0.078611 0.019472 0.1 1.01218e-009 -2.53046e-010 0.00578902 
0.064514 0.025872 0.1 5.96526e-010 -1.49132e-010 0.00341173 
0.05 0.033 0.1 7.38441e-009 -1.8461e-009 0.0422339 
0.05 0.134 0.1 2.1668e-010 -5.41702e-011 0.00123927 
0.06227 0.126084 0.1 4.3256e-010 -1.0814e-010 0.00247395 
0.074579 0.118838 0.1 4.2937e-010 -1.07343e-010 0.00245571 
0.086922 0.112266 0.1 4.2305e-010 -1.05762e-010 0.00241956 
0.099296 0.10637 0.1 4.13596e-010 -1.03399e-010 0.00236549 
0.111698 0.101156 0.1 4.01006e-010 -1.00252e-010 0.00229349 
0.124125 0.096625 0.1 3.85242e-010 -9.63107e-011 0.00220333 
0.136572 0.092782 0.1 3.66277e-010 -9.15693e-011 0.00209486 
0.149037 0.08963 0.1 3.44127e-010 -8.60317e-011 0.00196818 
0.161516 0.087172 0.1 3.18733e-010 -7.96833e-011 0.00182294 
0.174005 0.085412 0.1 2.90062e-010 -7.25155e-011 0.00165896 
0.186501 0.084354 0.1 2.5813e-010 -6.45326e-011 0.00147633 
0.199 0.084 0.1 2.20328e-009 -5.50821e-010 0.0126013 
0.21795 0.085141 0.1 2.12988e-010 -5.3247e-011 0.00121815 
0.236181 0.088458 0.1 3.31423e-010 -8.28557e-011 0.00189552 
0.253516 0.093797 0.1 9.99782e-010 -2.49945e-010 0.00571809 
0.269778 0.101 0.1 4.16546e-010 -1.04137e-010 0.00238237 
0.28479 0.109911 0.1 4.87428e-010 -1.21857e-010 0.00278776 
0.298375 0.120375 0.1 1.05151e-009 -2.62878e-010 0.00601395 
0.310356 0.132234 0.1 5.24664e-010 -1.31166e-010 0.00300073 
0.320556 0.145333 0.1 1.05868e-009 -2.6467e-010 0.00605494 
0.328797 0.159516 0.1 5.46695e-010 -1.36674e-010 0.00312673 
0.334903 0.174625 0.1 1.07006e-009 -2.67514e-010 0.00612001 
0.338696 0.190505 0.1 5.6216e-010 -1.4054e-010 0.00321518 
0.34 0.207 0.1 1.17605e-009 -2.94013e-010 0.00672624 
0.338162 0.228325 0.1 1.25602e-009 -3.14004e-010 0.00718357 
0.332713 0.248597 0.1 6.8614e-010 -1.71535e-010 0.00392426 
0.32375 0.267516 0.1 1.20263e-009 -3.00658e-010 0.00687825 
0.31137 0.284778 0.1 1.20072e-009 -3.00181e-010 0.00686734 
0.295671 0.300082 0.1 6.012e-010 -1.503e-010 0.00343846 
0.27675 0.313125 0.1 1.16028e-009 -2.90069e-010 0.00663601 
0.254704 0.323606 0.1 4.75553e-010 -1.18888e-010 0.00271985 
0.22963 0.331222 0.1 2.95026e-010 -7.37565e-011 0.00168735 
0.201625 0.335672 0.1 9.87433e-010 -2.46858e-010 0.00564746 
0.170787 0.336653 0.1 9.99557e-010 -2.49889e-010 0.0057168 
0.137213 0.333863 0.1 1.01448e-009 -2.5362e-010 0.00580214 
0.101 0.327 0.1 1.19811e-008 -2.99528e-009 0.0685241 
0.101 0.682 0.1 1.01863e-008 -2.54658e-009 0.058259 
0.404 0.682 0.1 7.95478e-009 -1.98869e-009 0.045496 
0.404 0.594 0.1 3.2927e-009 -8.23173e-010 0.018832 
0.19 0.594 -0.1 -1.614e-008 4.035e-009 -0.09231 
0.19 0.423 -0.1 -3.95572e-009 9.88932e-010 -0.0226241 
0.22723 0.423086 -0.1 -2.69684e-011 6.74208e-012 -0.000154241 
0.261843 0.419023 -0.1 -2.03106e-009 5.07767e-010 -0.0116163 
0.293719 0.411078 -0.1 -1.55245e-009 3.88112e-010 -0.00887898 
0.322741 0.399519 -0.1 -1.72438e-009 4.31095e-010 -0.00986229 
0.34879 0.384612 -0.1 -1.84481e-009 4.61203e-010 -0.0105511 
0.37175 0.366625 -0.1 -1.78136e-009 4.45342e-010 -0.0101882 
0.391501 0.345826 -0.1 -1.72584e-009 4.31459e-010 -0.00987064 
0.407926 0.322481 -0.1 -1.98455e-009 4.96139e-010 -0.0113503 
0.420906 0.296859 -0.1 -1.75919e-009 4.39796e-010 -0.0100614 
0.430324 0.269227 -0.1 -1.42357e-009 3.55893e-010 -0.00814188 
0.436061 0.239851 -0.1 -1.76724e-009 4.4181e-010 -0.0101074 
0.438 0.209 -0.1 -1.4244e-009 3.56099e-010 -0.00814659 
0.436076 0.178242 -0.1 -1.60043e-009 4.00108e-010 -0.00915341 
0.43044 0.149102 -0.1 -1.57749e-009 3.94373e-010 -0.00902221 
0.421297 0.121781 -0.1 -1.58425e-009 3.96062e-010 -0.00906083 
0.408852 0.096481 -0.1 -1.8356e-009 4.589e-010 -0.0104984 
0.39331 0.073404 -0.1 -4.14306e-009 1.03576e-009 -0.0236955 
0.374875 0.05275 -0.1 -2.06072e-009 5.15178e-010 -0.0117859 
0.353753 0.034721 -0.1 -1.75143e-009 4.37859e-010 -0.010017 
0.330148 0.019519 -0.1 -1.93204e-009 4.83011e-010 -0.01105 
0.304266 0.007344 -0.1 -1.32305e-009 3.30763e-010 -0.00756696 
0.27631 -0.001602 -0.1 -5.5638e-010 1.39095e-010 -0.00318212 
0.246487 -0.007117 -0.1 -2.08442e-010 5.21106e-011 -0.00119215 
0.215 -0.00899999 -0.1 -1.64224e-011 4.10559e-012 -9.3925e-005 
0.200486 -0.008747 -0.1 -1.34313e-012 3.35783e-013 -7.68182e-006 
0.186389 -0.007972 -0.1 -3.23084e-011 8.07709e-012 -0.000184782 
0.172625 -0.006656 -0.1 -3.905e-011 9.76251e-012 -0.00022334 
0.159111 -0.004778 -0.1 -5.53184e-011 1.38296e-011 -0.000316384 
0.145764 -0.002316 -0.1 -2.25952e-010 5.64879e-011 -0.00129229 
0.1325 0.000750004 -0.1 -1.58992e-010 3.97481e-011 -0.00090933 
0.119236 0.004441 -0.1 -5.09666e-010 1.27416e-010 -0.00291495 
0.105889 0.008778 -0.1 -3.17226e-010 7.93066e-011 -0.00181432 
0.092375 0.013781 -0.1 -3.65492e-010 9.13731e-011 -0.00209037 
0.078611 0.019472 -0.1 -1.01218e-009 2.53046e-010 -0.00578902 
0.064514 0.025872 -0.1 -5.96526e-010 1.49132e-010 -0.00341173 
0.05 0.033 -0.1 -7.38441e-009 1.8461e-009 -0.0422339 
0.05 0.134 -0.1 -2.1668e-010 5.41702e-011 -0.00123927 
0.06227 0.126084 -0.1 -4.3256e-010 1.0814e-010 -0.00247395 
0.074579 0.118838 -0.1 -4.2937e-010 1.07343e-010 -0.00245571 
0.086922 0.112266 -0.1 -4.2305e-010 1.05762e-010 -0.00241956 
0.099296 0.10637 -0.1 -4.13596e-010 1.03399e-010 -0.00236549 
0.111698 0.101156 -0.1 -4.01006e-010 1.00252e-010 -0.00229349 
0.124125 0.096625 -0.1 -3.85242e-010 9.63107e-011 -0.00220333 
0.136572 0.092782 -0.1 -3.66277e-010 9.15693e-011 -0.00209486 
0.149037 0.08963 -0.1 -3.44127e-010 8.60317e-011 -0.00196818 
0.161516 0.087172 -0.1 -3.18733e-010 7.96833e-011 -0.00182294 
0.174005 0.085412 -0.1 -2.90062e-010 7.25155e-011 -0.00165896 
0.186501 0.084354 -0.1 -2.5813e-010 6.45326e-011 -0.00147633 
0.199 0.084 -0.1 -2.20328e-009 5.50821e-010 -0.0126013 
0.21795 0.085141 -0.1 -2.12988e-010 5.3247e-011 -0.00121815 
0.236181 0.088458 -0.1 -3.31423e-010 8.28557e-011 -0.00189552 
0.253516 0.093797 -0.1 -9.99782e-010 2.49945e-010 -0.00571809 
0.269778 0.101 -0.1 -4.16546e-010 1.04137e-010 -0.00238237 
0.28479 0.109911 -0.1 -4.87428e-010 1.21857e-010 -0.00278776 
0.298375 0.120375 -0.1 -1.05151e-009 2.62878e-010 -0.00601395 
0.310356 0.132234 -0.1 -5.24664e-010 1.31166e-010 -0.00300073 
0.320556 0.145333 -0.1 -1.05868e-009 2.6467e-010 -0.00605494 
0.328797 0.159516 -0.1 -5.46695e-010 1.36674e-010 -0.00312673 
0.334903 0.174625 -0.1 -1.07006e-009 2.67514e-010 -0.00612001 
0.338696 0.190505 -0.1 -5.6216e-010 1.4054e-010 -0.00321518 
0.34 0.207 -0.1 -1.17605e-009 2.94013e-010 -0.00672624 
0.338162 0.228325 -0.1 -1.25602e-009 3.14004e-010 -0.00718357 
0.332713 0.248597 -0.1 -6.8614e-010 1.71535e-010 -0.00392426 
0.32375 0.267516 -0.1 -1.20263e-009 3.00658e-010 -0.00687825 
0.31137 0.284778 -0.1 -1.20072e-009 3.00181e-010 -0.00686734 
0.295671 0.300082 -0.1 -6.012e-010 1.503e-010 -0.00343846 
0.27675 0.313125 -0.1 -1.16028e-009 2.90069e-010 -0.00663601 
0.254704 0.323606 -0.1 -4.75553e-010 1.18888e-010 -0.00271985 
0.22963 0.331222 -0.1 -2.95026e-010 7.37565e-011 -0.00168735 
0.201625 0.335672 -0.1 -9.87433e-010 2.46858e-010 -0.00564746 
0.170787 0.336653 -0.1 -9.99558e-010 2.49889e-010 -0.0057168 
0.137213 0.333863 -0.1 -1.01448e-009 2.5362e-010 -0.00580214 
0.101 0.327 -0.1 -1.19811e-008 2.99528e-009 -0.0685241 
0.101 0.682 -0.1 -1.01863e-008 2.54658e-009 -0.058259 
0.404 0.682 -0.1 -7.95478e-009 1.98869e-009 -0.045496 
0.404 0.594 -0.1 -3.2927e-009 8.23173e-010 -0.018832 
0.19 0.594 -0.1 1 -2 -2.62269e-007 
0.19 0.594 0.1 2 -1 -3.93403e-007 
0.19 0.423 -0.1 1.99769 0.999997 -3.05576e-007 
0.19 0.423 0.1 0.995381 1.99999 -8.66154e-008 
0.22723 0.423086 -0.1 0.111964 2.99318 1.1126e-007 
0.22723 0.423086 0.1 0.230856 2.98636 9.01739e-008 
0.261843 0.419023 -0.1 0.475013 2.95668 4.61865e-008 
0.261843 0.419023 0.1 0.600279 2.93381 2.32847e-008 
0.293719 0.411078 -0.1 0.853712 2.86965 -2.38312e-008 
0.293719 0.411078 0.1 0.98188 2.82836 -4.80457e-008 
0.322741 0.399519 -0.1 1.23672 2.72598 -9.70787e-008 
0.322741 0.399519 0.1 1.36339 2.66488 -1.21897e-007 
0.34879 0.384612 -0.1 1.61007 2.52306 -1.71227e-007 
0.34879 0.384612 0.1 1.73008 2.44233 -1.95739e-007 
0.37175 0.366625 -0.1 1.95853 2.263 -2.43522e-007 
0.37175 0.366625 0.1 2.06698 2.1644 -2.66793e-007 
0.391501 0.345826 -0.1 2.26813 1.95263 -3.11221e-007 
0.391501 0.345826 0.1 2.36085 1.83945 -3.32379e-007 
0.407926 0.322481 -0.1 2.52777 1.60276 -3.71911e-007 
0.407926 0.322481 0.1 2.60198 1.47925 -3.90284e-007 
0.420906 0.296859 -0.1 2.73065 1.22644 -4.23833e-007 
0.420906 0.296859 0.1 2.78512 1.09714 -4.39009e-007 
0.430324 0.269227 -0.1 2.87452 0.836899 -4.66016e-007 
0.430324 0.269227 0.1 2.90945 0.705961 -4.77846e-007 
0.436061 0.239851 -0.1 2.96095 0.446076 -4.98211e-007 
0.436061 0.239851 0.1 2.97752 0.317128 -5.06744e-007 
0.438 0.209 -0.1 2.99411 0.0630223 -5.20752e-007 
0.438 0.209 0.1 2.99413 -0.0621354 -5.26226e-007 
0.436076 0.178242 -0.1 2.9779 -0.314753 -5.34431e-007 
0.436076 0.178242 0.1 2.96166 -0.442214 -5.37163e-007 
0.43044 0.149102 -0.1 2.91192 -0.697134 -5.39609e-007 
0.43044 0.149102 0.1 2.87842 -0.824595 -5.39323e-007 
0.421297 0.121781 -0.1 2.79393 -1.07609 -5.35544e-007 
0.421297 0.121781 0.1 2.74294 -1.20013 -5.3205e-007 
0.408852 0.096481 -0.1 2.62406 -1.44138 -5.21811e-007 
0.408852 0.096481 0.1 2.55618 -1.55861 -5.15065e-007 
0.39331 0.073404 -0.1 2.40491 -1.78311 -4.9843e-007 
0.39331 0.073404 0.1 2.32152 -1.8904 -4.8854e-007 
0.374875 0.05275 -0.1 2.14131 -2.09239 -4.6586e-007 
0.374875 0.05275 0.1 2.04449 -2.18709 -4.53071e-007 
0.353753 0.034721 -0.1 1.83989 -2.36193 -4.2494e-007 
0.353753 0.034721 0.1 1.73211 -2.44207 -4.09599e-007 
0.330148 0.019519 -0.1 1.50855 -2.58635 -3.76817e-007 
0.330148 0.019519 0.1 1.39277 -2.6505 -3.59377e-007 
0.304266 0.007344 -0.1 1.1561 -2.76219 -3.22878e-007 
0.304266 0.007344 0.1 1.03522 -2.80973 -3.03821e-007 
0.27631 -0.001602 -0.1 0.791398 -2.88817 -2.64618e-007 
0.27631 -0.001602 0.1 0.668461 -2.91908 -2.44475e-007 
0.246487 -0.007117 -0.1 0.423378 -2.96487 -2.03625e-007 
0.246487 -0.007117 0.1 0.301233 -2.97976 -1.82919e-007 
0.215 -0.00899999 -0.1 0.101963 -2.99628 -1.488e-007 
0.215 -0.009 0.1 0.0248383 -2.99791 -1.35385e-007 
0.200486 -0.008747 -0.1 -0.0897508 -2.99819 -1.15363e-007 
0.200486 -0.008747 0.1 -0.127215 -2.99683 -1.08753e-007 
0.186389 -0.007972 -0.1 -0.204964 -2.99244 -9.49665e-008 
0.186389 -0.007972 0.1 -0.245249 -2.98941 -8.77907e-008 
0.172625 -0.006656 -0.1 -0.328 -2.9814 -7.29723e-008 
0.172625 -0.006656 0.1 -0.370466 -2.97642 -6.53293e-008 
0.159111 -0.004778 -0.1 -0.456689 -2.96437 -4.97268e-008 
0.159111 -0.004778 0.1 -0.500445 -2.9573 -4.17671e-008 
0.145764 -0.002316 -0.1 -0.588015 -2.94113 -2.5749e-008 
0.145764 -0.002316 0.1 -0.631828 -2.93203 -1.76907e-008 
0.1325 0.000750004 -0.1 -0.718513 -2.91201 -1.6594e-009 
0.1325 0.000749996 0.1 -0.761386 -2.9011 6.31388e-009 
0.119236 0.004441 -0.1 -0.845208 -2.87784 2.19864e-008 
0.119236 0.004441 0.1 -0.886158 -2.8655 2.9686e-008 
0.105889 0.008778 -0.1 -0.965253 -2.8399 4.46343e-008 
0.105889 0.008778 0.1 -1.0034 -2.82665 5.18832e-008 
0.092375 0.013781 -0.1 -1.07646 -2.79972 6.58345e-008 
0.092375 0.013781 0.1 -1.11137 -2.78604 7.25366e-008 
0.078611 0.019472 -0.1 -1.17758 -2.7588 8.53039e-008 
0.078611 0.019472 0.1 -1.20888 -2.74523 9.1369e-008 
0.064514 0.025872 -0.1 -1.2676 -2.7187 1.02796e-007 
0.064514 0.025872 0.1 -1.29503 -2.70575 1.08158e-007 
0.05 0.033 -0.1 -1.88164 -1.79519 2.50526e-007 
0.05 0.033 0.1 -2.44082 -0.897596 3.87531e-007 
0.05 0.134 -0.1 -1.45788 0.840301 2.91635e-007 
0.05 0.134 0.1 0.0842415 1.6806 5.87322e-008 
0.06227 0.126084 -0.1 1.59154 2.54237 -1.67143e-007 
0.06227 0.126084 0.1 1.55672 2.56384 -1.60117e-007 
0.074579 0.118838 -0.1 1.48458 2.60621 -1.45651e-007 
0.074579 0.118838 0.1 1.44726 2.62712 -1.38212e-007 
0.086922 0.112266 -0.1 1.37011 2.66811 -1.2293e-007 
0.086922 0.112266 0.1 1.33028 2.68819 -1.15088e-007 
0.099296 0.10637 -0.1 1.24786 2.72736 -9.89656e-008 
0.099296 0.10637 0.1 1.20527 2.74645 -9.06847e-008 
0.111698 0.101156 -0.1 1.11767 2.78319 -7.37623e-008 
0.111698 0.101156 0.1 1.07266 2.80084 -6.51209e-008 
0.124125 0.096625 -0.1 0.980108 2.83449 -4.74679e-008 
0.124125 0.096625 0.1 0.932566 2.85049 -3.84562e-008 
0.136572 0.092782 -0.1 0.835168 2.88047 -2.01159e-008 
0.136572 0.092782 0.1 0.785311 2.89446 -1.07871e-008 
0.149037 0.08963 -0.1 0.683561 2.92012 8.12479e-009 
0.149037 0.08963 0.1 0.631667 2.93178 1.7708e-008 
0.161516 0.087172 -0.1 0.52606 2.95251 3.70792e-008 
0.161516 0.087172 0.1 0.472348 2.96158 4.68668e-008 
0.174005 0.085412 -0.1 0.363456 2.97687 6.65744e-008 
0.174005 0.085412 0.1 0.308276 2.98309 7.64937e-008 
0.186501 0.084354 -0.1 0.197042 2.99247 9.6353e-008 
0.186501 0.084354 0.1 0.140987 2.99563 1.06293e-007 
0.199 0.084 -0.1 -0.00348073 2.99739 1.31628e-007 
0.199 0.084 0.1 -0.091894 2.99598 1.47026e-007 
0.21795 0.085141 -0.1 -0.299209 2.98023 1.82586e-007 
0.21795 0.085141 0.1 -0.418111 2.96589 2.02748e-007 
0.236181 0.088458 -0.1 -0.652354 2.9234 2.41847e-007 
0.236181 0.088458 0.1 -0.767695 2.89525 2.60783e-007 
0.253516 0.093797 -0.1 -0.993676 2.82572 2.97256e-007 
0.253516 0.093797 0.1 -1.10432 2.78435 3.14793e-007 
0.269778 0.101 -0.1 -1.32041 2.68856 3.48388e-007 
0.269778 0.101 0.1 -1.42586 2.63415 3.64448e-007 
0.28479 0.109911 -0.1 -1.6311 2.51206 3.94996e-007 
0.28479 0.109911 0.1 -1.73088 2.44437 4.09484e-007 
0.298375 0.120375 -0.1 -1.92393 2.29517 4.36715e-007 
0.298375 0.120375 0.1 -2.01718 2.21366 4.49457e-007 
0.310356 0.132234 -0.1 -2.19596 2.03582 4.72943e-007 
0.310356 0.132234 0.1 -2.28149 1.93949 4.83686e-007 
0.320556 0.145333 -0.1 -2.44265 1.73117 5.02758e-007 
0.320556 0.145333 0.1 -2.51828 1.61918 5.11087e-007 
0.328797 0.159516 -0.1 -2.65643 1.37948 5.24763e-007 
0.328797 0.159516 0.1 -2.71894 1.25177 5.30111e-007 
0.334903 0.174625 -0.1 -2.82694 0.981697 5.37189e-007 
0.334903 0.174625 0.1 -2.87243 0.839327 5.3892e-007 
0.338696 0.190505 -0.1 -2.94217 0.543446 5.3818e-007 
0.338696 0.190505 0.1 -2.96642 0.389936 5.3571e-007 
0.34 0.207 -0.1 -2.99009 0.0717453 5.2594e-007 
0.34 0.207 0.1 -2.9895 -0.0929346 5.18638e-007 
0.338162 0.228325 -0.1 -2.95833 -0.431323 4.98397e-007 
0.338162 0.228325 0.1 -2.92775 -0.605032 4.85457e-007 
0.332713 0.248597 -0.1 -2.83516 -0.947301 4.54307e-007 
0.332713 0.248597 0.1 -2.77315 -1.11586 4.36096e-007 
0.32375 0.267516 -0.1 -2.62004 -1.43908 3.95198e-007 
0.32375 0.267516 0.1 -2.52895 -1.59373 3.72512e-007 
0.31137 0.284778 -0.1 -2.32328 -1.88165 3.23966e-007 
0.31137 0.284778 0.1 -2.2087 -2.01491 2.98107e-007 
0.295671 0.300082 -0.1 -1.96364 -2.25545 2.44745e-007 
0.295671 0.300082 0.1 -1.83316 -2.36272 2.17242e-007 
0.27675 0.313125 -0.1 -1.56448 -2.5498 1.62087e-007 
0.27675 0.313125 0.1 -1.42628 -2.6296 1.34436e-007 
0.254704 0.323606 -0.1 -1.14935 -2.7631 8.01802e-008 
0.254704 0.323606 0.1 -1.01062 -2.8168 5.35761e-008 
0.22963 0.331222 -0.1 -0.73819 -2.90128 2.25022e-009 
0.22963 0.331222 0.1 -0.604492 -2.93205 -2.24714e-008 
0.201625 0.335672 -0.1 -0.345658 -2.97471 -6.95921e-008 
0.201625 0.335672 0.1 -0.220522 -2.9866 -9.19914e-008 
0.170787 0.336653 -0.1 0.0192238 -2.99555 -1.34301e-007 
0.170787 0.336653 0.1 0.133834 -2.99262 -1.54212e-007 
0.137213 0.333863 -0.1 0.351832 -2.97564 -1.91586e-007 
0.137213 0.333863 0.1 0.455221 -2.96159 -2.09049e-007 
0.101 0.327 -0.1 -0.627594 -1.96502 2.38381e-008 
0.101 0.327 0.1 -1.8138 -0.982511 2.74187e-007 
0.101 0.682 -0.1 -2 1 3.93403e-007 
0.101 0.682 0.1 -1 2 2.62269e-007 
0.404 0.682 -0.1 1 2 -8.74228e-008 
0.404 0.682 0.1 2 1 -3.0598e-007 
0.404 0.594 -0.1 2 -1 -3.93403e-007 
0.404 0.594 0.1 1 -2 -2.62269e-007 
3 74 0 75 
3 0 76 75 
3 0 77 76 
3 74 1 0 
3 1 3 2 
3 74 3 1 
3 74 4 3 
3 74 5 4 
3 74 6 5 
3 74 73 6 
3 73 7 6 
3 73 72 7 
3 72 8 7 
3 72 71 8 
3 71 9 8 
3 70 9 71 
3 69 9 70 
3 68 9 69 
3 68 10 9 
3 67 10 68 
3 66 10 67 
3 66 11 10 
3 65 11 66 
3 65 12 11 
3 64 12 65 
3 63 12 64 
3 63 13 12 
3 62 13 63 
3 62 14 13 
3 61 14 62 
3 60 14 61 
3 60 15 14 
3 59 15 60 
3 58 15 59 
3 58 16 15 
3 57 16 58 
3 37 39 38 
3 56 16 57 
3 37 40 39 
3 56 17 16 
3 55 17 56 
3 37 41 40 
3 37 42 41 
3 54 17 55 
3 37 43 42 
3 37 44 43 
3 53 17 54 
3 37 45 44 
3 53 18 17 
3 52 18 53 
3 37 46 45 
3 37 47 46 
3 51 18 52 
3 37 48 47 
3 37 49 48 
3 50 18 51 
3 37 50 49 
3 37 18 50 
3 37 19 18 
3 37 20 19 
3 37 21 20 
3 36 21 37 
3 35 21 36 
3 35 22 21 
3 34 22 35 
3 33 22 34 
3 32 22 33 
3 32 23 22 
3 31 23 32 
3 30 23 31 
3 30 24 23 
3 29 24 30 
3 28 24 29 
3 27 24 28 
3 27 25 24 
3 26 25 27 
3 78 152 153 
3 154 78 153 
3 155 78 154 
3 79 152 78 
3 81 79 80 
3 81 152 79 
3 82 152 81 
3 83 152 82 
3 84 152 83 
3 151 152 84 
3 85 151 84 
3 150 151 85 
3 86 150 85 
3 149 150 86 
3 87 149 86 
3 87 148 149 
3 87 147 148 
3 87 146 147 
3 88 146 87 
3 88 145 146 
3 88 144 145 
3 89 144 88 
3 89 143 144 
3 90 143 89 
3 90 142 143 
3 90 141 142 
3 91 141 90 
3 91 140 141 
3 92 140 91 
3 92 139 140 
3 92 138 139 
3 93 138 92 
3 93 137 138 
3 93 136 137 
3 94 136 93 
3 94 135 136 
3 117 115 116 
3 94 134 135 
3 118 115 117 
3 95 134 94 
3 95 133 134 
3 119 115 118 
3 120 115 119 
3 95 132 133 
3 121 115 120 
3 122 115 121 
3 95 131 132 
3 123 115 122 
3 96 131 95 
3 96 130 131 
3 124 115 123 
3 125 115 124 
3 96 129 130 
3 126 115 125 
3 127 115 126 
3 96 128 129 
3 128 115 127 
3 96 115 128 
3 97 115 96 
3 98 115 97 
3 99 115 98 
3 99 114 115 
3 99 113 114 
3 100 113 99 
3 100 112 113 
3 100 111 112 
3 100 110 111 
3 101 110 100 
3 101 109 110 
3 101 108 109 
3 102 108 101 
3 102 107 108 
3 102 106 107 
3 102 105 106 
3 103 105 102 
3 103 104 105 
3 157 159 158 
3 157 158 156 
3 159 161 160 
3 159 160 158 
3 161 163 162 
3 161 162 160 
3 163 165 164 
3 163 164 162 
3 165 167 166 
3 165 166 164 
3 167 169 168 
3 167 168 166 
3 169 171 170 
3 169 170 168 
3 171 173 172 
3 171 172 170 
3 173 175 174 
3 173 174 172 
3 175 177 176 
3 175 176 174 
3 177 179 178 
3 177 178 176 
3 179 181 180 
3 179 180 178 
3 181 183 182 
3 181 182 180 
3 183 185 184 
3 183 184 182 
3 185 187 186 
3 185 186 184 
3 187 189 188 
3 187 188 186 
3 189 191 190 
3 189 190 188 
3 191 193 192 
3 191 192 190 
3 193 195 194 
3 193 194 192 
3 195 197 196 
3 195 196 194 
3 197 199 198 
3 197 198 196 
3 199 201 200 
3 199 200 198 
3 201 203 202 
3 201 202 200 
3 203 205 204 
3 203 204 202 
3 205 207 206 
3 205 206 204 
3 207 209 208 
3 207 208 206 
3 209 211 210 
3 209 210 208 
3 211 213 212 
3 211 212 210 
3 213 215 214 
3 213 214 212 
3 215 217 216 
3 215 216 214 
3 217 219 218 
3 217 218 216 
3 219 221 220 
3 219 220 218 
3 221 223 222 
3 221 222 220 
3 223 225 224 
3 223 224 222 
3 225 227 226 
3 225 226 224 
3 227 229 228 
3 227 228 226 
3 229 231 230 
3 229 230 228 
3 231 233 232 
3 231 232 230 
3 233 235 234 
3 233 234 232 
3 235 237 236 
3 235 236 234 
3 237 239 238 
3 237 238 236 
3 239 241 240 
3 239 240 238 
3 241 243 242 
3 241 242 240 
3 243 245 244 
3 243 244 242 
3 245 247 246 
3 245 246 244 
3 247 249 248 
3 247 248 246 
3 249 251 250 
3 249 250 248 
3 251 253 252 
3 251 252 250 
3 253 255 254 
3 253 254 252 
3 255 257 256 
3 255 256 254 
3 257 259 258 
3 257 258 256 
3 259 261 260 
3 259 260 258 
3 261 263 262 
3 261 262 260 
3 263 265 264 
3 263 264 262 
3 265 267 266 
3 265 266 264 
3 267 269 268 
3 267 268 266 
3 269 271 270 
3 269 270 268 
3 271 273 272 
3 271 272 270 
3 273 275 274 
3 273 274 272 
3 275 277 276 
3 275 276 274 
3 277 279 278 
3 277 278 276 
3 279 281 280 
3 279 280 278 
3 281 283 282 
3 281 282 280 
3 283 285 284 
3 283 284 282 
3 285 287 286 
3 285 286 284 
3 287 289 288 
3 287 288 286 
3 289 291 290 
3 289 290 288 
3 291 293 292 
3 291 292 290 
3 293 295 294 
3 293 294 292 
3 295 297 296 
3 295 296 294 
3 297 299 298 
3 297 298 296 
3 299 301 300 
3 299 300 298 
3 301 303 302 
3 301 302 300 
3 303 305 304 
3 303 304 302 
3 305 307 306 
3 305 306 304 
3 307 309 308 
3 307 308 306 
3 309 311 310 
3 309 310 308 
3 311 157 156 
3 311 156 310 
