ply
format ascii 1.0
comment VCGLIB generated
element vertex 208
property float x
property float y
property float z
property float nx
property float ny
property float nz
element face 200
property list uchar int vertex_indices
end_header
0.065 -4.37114e-009 0.1 1.3974e-008 -3.4935e-009 0.079922 
0.065 0.449 0.1 6.987e-009 -1.74675e-009 0.039961 
0.154 0.449 0.1 1.3974e-008 -3.4935e-009 0.079922 
0.154 -4.37114e-009 0.1 6.987e-009 -1.74675e-009 0.039961 
0.102865 0.532489 0.1 4.77052e-012 -1.19263e-012 2.72842e-005 
0.096005 0.533912 0.1 2.17266e-011 -5.43165e-012 0.000124262 
0.089484 0.536203 0.1 4.98381e-011 -1.24595e-011 0.000285041 
0.08337 0.539296 0.1 8.66581e-011 -2.16645e-011 0.000495627 
0.077729 0.543126 0.1 1.29658e-010 -3.24146e-011 0.000741559 
0.072625 0.547625 0.1 1.76279e-010 -4.40699e-011 0.0010082 
0.068126 0.552729 0.1 2.24047e-010 -5.60116e-011 0.0012814 
0.064296 0.55837 0.1 2.70472e-010 -6.76181e-011 0.00154692 
0.061203 0.564484 0.1 3.13318e-010 -7.83294e-011 0.00179197 
0.058912 0.571005 0.1 3.50326e-010 -8.75813e-011 0.00200363 
0.057489 0.577865 0.1 5.11776e-010 -1.27944e-010 0.00292702 
0.057 0.585 0.1 2.64475e-010 -6.61188e-011 0.00151262 
0.057489 0.592135 0.1 3.89223e-010 -9.73057e-011 0.0022261 
0.058912 0.598995 0.1 3.65018e-010 -9.12547e-011 0.00208766 
0.061203 0.605516 0.1 3.32102e-010 -8.30254e-011 0.0018994 
0.064296 0.61163 0.1 2.922e-010 -7.30501e-011 0.00167119 
0.068126 0.617271 0.1 2.47494e-010 -6.18736e-011 0.0014155 
0.072625 0.622375 0.1 2.00247e-010 -5.00616e-011 0.00114528 
0.077729 0.626874 0.1 1.52803e-010 -3.82007e-011 0.000873931 
0.08337 0.630704 0.1 1.07679e-010 -2.69198e-011 0.000615854 
0.089484 0.633797 0.1 6.74294e-011 -1.68573e-011 0.000385651 
0.096005 0.636088 0.1 3.46126e-011 -8.65314e-012 0.000197961 
0.102865 0.637511 0.1 1.17346e-011 -2.93365e-012 6.7114e-005 
0.11 0.638 0.1 1.22007e-012 -3.05017e-013 6.97798e-006 
0.117135 0.637511 0.1 4.77052e-012 -1.19263e-012 2.72842e-005 
0.123995 0.636088 0.1 2.17266e-011 -5.43165e-012 0.000124262 
0.130516 0.633797 0.1 4.98385e-011 -1.24596e-011 0.000285043 
0.13663 0.630704 0.1 8.66496e-011 -2.16624e-011 0.000495578 
0.142271 0.626875 0.1 1.29659e-010 -3.24147e-011 0.000741562 
0.147375 0.622375 0.1 1.76291e-010 -4.40728e-011 0.00100827 
0.151874 0.617271 0.1 2.24047e-010 -5.60116e-011 0.0012814 
0.155704 0.61163 0.1 2.70472e-010 -6.76181e-011 0.00154692 
0.158797 0.605516 0.1 3.13318e-010 -7.83297e-011 0.00179197 
0.161088 0.598995 0.1 3.50326e-010 -8.75816e-011 0.00200363 
0.162511 0.592135 0.1 3.79539e-010 -9.48845e-011 0.00217071 
0.163 0.585 0.1 5.2651e-010 -1.31627e-010 0.00301129 
0.162511 0.577865 0.1 2.56984e-010 -6.42462e-011 0.00146978 
0.161088 0.571005 0.1 3.6502e-010 -9.1255e-011 0.00208767 
0.158797 0.564484 0.1 3.321e-010 -8.30249e-011 0.00189939 
0.155704 0.55837 0.1 2.922e-010 -7.30501e-011 0.00167119 
0.151874 0.552729 0.1 2.47494e-010 -6.18736e-011 0.0014155 
0.147375 0.547625 0.1 2.00247e-010 -5.00616e-011 0.00114528 
0.142271 0.543126 0.1 1.52793e-010 -3.81982e-011 0.000873874 
0.13663 0.539296 0.1 1.0769e-010 -2.69224e-011 0.000615914 
0.130516 0.536203 0.1 6.74284e-011 -1.68571e-011 0.000385645 
0.123995 0.533912 0.1 3.46126e-011 -8.65314e-012 0.000197961 
0.117135 0.532489 0.1 1.17346e-011 -2.93365e-012 6.7114e-005 
0.11 0.532 0.1 1.22007e-012 -3.05017e-013 6.97798e-006 
0.065 4.37114e-009 -0.1 -1.3974e-008 3.4935e-009 -0.079922 
0.065 0.449 -0.1 -6.987e-009 1.74675e-009 -0.039961 
0.154 0.449 -0.1 -1.3974e-008 3.4935e-009 -0.079922 
0.154 4.37114e-009 -0.1 -6.987e-009 1.74675e-009 -0.039961 
0.102865 0.532489 -0.1 -4.77052e-012 1.19263e-012 -2.72842e-005 
0.096005 0.533912 -0.1 -2.17266e-011 5.43165e-012 -0.000124262 
0.089484 0.536203 -0.1 -4.98381e-011 1.24595e-011 -0.000285041 
0.08337 0.539296 -0.1 -8.66581e-011 2.16645e-011 -0.000495627 
0.077729 0.543126 -0.1 -1.29658e-010 3.24146e-011 -0.000741559 
0.072625 0.547625 -0.1 -1.76279e-010 4.40699e-011 -0.0010082 
0.068126 0.552729 -0.1 -2.24047e-010 5.60116e-011 -0.0012814 
0.064296 0.55837 -0.1 -2.70472e-010 6.76181e-011 -0.00154692 
0.061203 0.564484 -0.1 -3.13318e-010 7.83294e-011 -0.00179197 
0.058912 0.571005 -0.1 -3.50326e-010 8.75813e-011 -0.00200363 
0.057489 0.577865 -0.1 -5.11776e-010 1.27944e-010 -0.00292702 
0.057 0.585 -0.1 -2.64475e-010 6.61188e-011 -0.00151262 
0.057489 0.592135 -0.1 -3.89223e-010 9.73057e-011 -0.0022261 
0.058912 0.598995 -0.1 -3.65018e-010 9.12547e-011 -0.00208766 
0.061203 0.605516 -0.1 -3.32102e-010 8.30254e-011 -0.0018994 
0.064296 0.61163 -0.1 -2.922e-010 7.30501e-011 -0.00167119 
0.068126 0.617271 -0.1 -2.47494e-010 6.18736e-011 -0.0014155 
0.072625 0.622375 -0.1 -2.00247e-010 5.00616e-011 -0.00114528 
0.077729 0.626874 -0.1 -1.52803e-010 3.82007e-011 -0.000873931 
0.08337 0.630704 -0.1 -1.07679e-010 2.69198e-011 -0.000615854 
0.089484 0.633797 -0.1 -6.74294e-011 1.68573e-011 -0.000385651 
0.096005 0.636088 -0.1 -3.46126e-011 8.65314e-012 -0.000197961 
0.102865 0.637511 -0.1 -1.17346e-011 2.93365e-012 -6.7114e-005 
0.11 0.638 -0.1 -1.22007e-012 3.05017e-013 -6.97798e-006 
0.117135 0.637511 -0.1 -4.77052e-012 1.19263e-012 -2.72842e-005 
0.123995 0.636088 -0.1 -2.17266e-011 5.43166e-012 -0.000124262 
0.130516 0.633797 -0.1 -4.98385e-011 1.24596e-011 -0.000285043 
0.13663 0.630704 -0.1 -8.66496e-011 2.16624e-011 -0.000495578 
0.142271 0.626875 -0.1 -1.29659e-010 3.24147e-011 -0.000741562 
0.147375 0.622375 -0.1 -1.76291e-010 4.40728e-011 -0.00100827 
0.151874 0.617271 -0.1 -2.24047e-010 5.60116e-011 -0.0012814 
0.155704 0.61163 -0.1 -2.70472e-010 6.76181e-011 -0.00154692 
0.158797 0.605516 -0.1 -3.13318e-010 7.83297e-011 -0.00179197 
0.161088 0.598995 -0.1 -3.50326e-010 8.75816e-011 -0.00200363 
0.162511 0.592135 -0.1 -3.79539e-010 9.48845e-011 -0.00217071 
0.163 0.585 -0.1 -5.2651e-010 1.31627e-010 -0.00301129 
0.162511 0.577865 -0.1 -2.56984e-010 6.42462e-011 -0.00146978 
0.161088 0.571005 -0.1 -3.6502e-010 9.1255e-011 -0.00208767 
0.158797 0.564484 -0.1 -3.321e-010 8.30249e-011 -0.00189939 
0.155704 0.55837 -0.1 -2.922e-010 7.30501e-011 -0.00167119 
0.151874 0.552729 -0.1 -2.47494e-010 6.18736e-011 -0.0014155 
0.147375 0.547625 -0.1 -2.00247e-010 5.00616e-011 -0.00114528 
0.142271 0.543126 -0.1 -1.52793e-010 3.81982e-011 -0.000873874 
0.13663 0.539296 -0.1 -1.0769e-010 2.69224e-011 -0.000615914 
0.130516 0.536203 -0.1 -6.74284e-011 1.68571e-011 -0.000385645 
0.123995 0.533912 -0.1 -3.46126e-011 8.65314e-012 -0.000197961 
0.117135 0.532489 -0.1 -1.17346e-011 2.93365e-012 -6.7114e-005 
0.11 0.532 -0.1 -1.22007e-012 3.05017e-013 -6.97798e-006 
0.065 4.37114e-009 -0.1 -1 -2 8.74228e-008 
0.065 -4.37114e-009 0.1 -2 -1 3.0598e-007 
0.065 0.449 -0.1 -2 1 3.93403e-007 
0.065 0.449 0.1 -1 2 2.62269e-007 
0.154 0.449 -0.1 1 2 -8.74228e-008 
0.154 0.449 0.1 2 1 -3.0598e-007 
0.154 4.37114e-009 -0.1 2 -1 -3.93403e-007 
0.154 -4.37114e-009 0.1 1 -2 -2.62269e-007 
0.102865 0.532489 -0.1 -0.33986 -2.97448 -7.05955e-008 
0.102865 0.532489 0.1 -0.474596 -2.95597 -4.62286e-008 
0.096005 0.533912 -0.1 -0.737689 -2.90178 2.14092e-009 
0.096005 0.533912 0.1 -0.866047 -2.86609 2.61437e-008 
0.089484 0.536203 -0.1 -1.11434 -2.77925 7.33526e-008 
0.089484 0.536203 0.1 -1.23428 -2.7281 9.65591e-008 
0.08337 0.539296 -0.1 -1.46453 -2.61196 1.41894e-007 
0.08337 0.539296 0.1 -1.57485 -2.54697 1.64024e-007 
0.077729 0.543126 -0.1 -1.78469 -2.40482 2.06927e-007 
0.077729 0.543126 0.1 -1.88422 -2.32766 2.27702e-007 
0.072625 0.547625 -0.1 -2.07267 -2.16158 2.67911e-007 
0.072625 0.547625 0.1 -2.16159 -2.07266 2.87345e-007 
0.068126 0.552729 -0.1 -2.32766 -1.88421 3.2462e-007 
0.068126 0.552729 0.1 -2.40482 -1.78469 3.42461e-007 
0.064296 0.55837 -0.1 -2.54697 -1.57485 3.76487e-007 
0.064296 0.55837 0.1 -2.61196 -1.46454 3.92672e-007 
0.061203 0.564484 -0.1 -2.7281 -1.23429 4.23044e-007 
0.061203 0.564484 0.1 -2.77925 -1.11434 4.3723e-007 
0.058912 0.571005 -0.1 -2.86609 -0.866041 4.63268e-007 
0.058912 0.571005 0.1 -2.90178 -0.737686 4.75118e-007 
0.057489 0.577865 -0.1 -2.95597 -0.474596 4.96093e-007 
0.057489 0.577865 0.1 -2.97447 -0.339861 5.05217e-007 
0.057 0.585 -0.1 -2.99298 -0.0683758 5.20321e-007 
0.057 0.585 0.1 -2.99298 0.0683741 5.26298e-007 
0.057489 0.592135 -0.1 -2.97447 0.339861 5.34929e-007 
0.057489 0.592135 0.1 -2.95597 0.474599 5.37584e-007 
0.058912 0.598995 -0.1 -2.90178 0.737687 5.39609e-007 
0.058912 0.598995 0.1 -2.86609 0.866037 5.38979e-007 
0.061203 0.605516 -0.1 -2.77925 1.11434 5.34649e-007 
0.061203 0.605516 0.1 -2.7281 1.23429 5.30948e-007 
0.064296 0.61163 -0.1 -2.61196 1.46454 5.20707e-007 
0.064296 0.61163 0.1 -2.54697 1.57485 5.14165e-007 
0.068126 0.617271 -0.1 -2.40482 1.78469 4.98483e-007 
0.068126 0.617271 0.1 -2.32766 1.88421 4.89342e-007 
0.072625 0.622375 -0.1 -2.16159 2.07266 4.68543e-007 
0.072625 0.622375 0.1 -2.07266 2.16158 4.56882e-007 
0.077729 0.626874 -0.1 -1.88421 2.32766 4.31192e-007 
0.077729 0.626874 0.1 -1.78468 2.40483 4.17162e-007 
0.08337 0.630704 -0.1 -1.57484 2.54698 3.86686e-007 
0.08337 0.630704 0.1 -1.46454 2.61196 3.70241e-007 
0.089484 0.633797 -0.1 -1.23429 2.7281 3.35059e-007 
0.089484 0.633797 0.1 -1.11435 2.77925 3.16324e-007 
0.096005 0.636088 -0.1 -0.866047 2.86609 2.76705e-007 
0.096005 0.636088 0.1 -0.737689 2.90178 2.55823e-007 
0.102865 0.637511 -0.1 -0.474596 2.95597 2.1219e-007 
0.102865 0.637511 0.1 -0.33986 2.97448 1.89442e-007 
0.11 0.638 -0.1 -0.0683746 2.99298 1.42782e-007 
0.11 0.638 0.1 0.0683744 2.99298 1.18873e-007 
0.117135 0.637511 -0.1 0.33986 2.97448 7.05955e-008 
0.117135 0.637511 0.1 0.474596 2.95597 4.62286e-008 
0.123995 0.636088 -0.1 0.73769 2.90178 -2.14111e-009 
0.123995 0.636088 0.1 0.866048 2.86609 -2.61439e-008 
0.130516 0.633797 -0.1 1.11435 2.77925 -7.33543e-008 
0.130516 0.633797 0.1 1.23429 2.7281 -9.65614e-008 
0.13663 0.630704 -0.1 1.46444 2.61203 -1.41876e-007 
0.13663 0.630704 0.1 1.57465 2.54711 -1.63983e-007 
0.142271 0.626875 -0.1 1.78457 2.40489 -2.06903e-007 
0.142271 0.626875 0.1 1.88427 2.32759 -2.27714e-007 
0.147375 0.622375 -0.1 2.07282 2.16144 -2.67944e-007 
0.147375 0.622375 0.1 2.16166 2.07259 -2.87361e-007 
0.151874 0.617271 -0.1 2.32766 1.88422 -3.2462e-007 
0.151874 0.617271 0.1 2.40482 1.78469 -3.42461e-007 
0.155704 0.61163 -0.1 2.54697 1.57485 -3.76487e-007 
0.155704 0.61163 0.1 2.61196 1.46454 -3.92673e-007 
0.158797 0.605516 -0.1 2.7281 1.23428 -4.23044e-007 
0.158797 0.605516 0.1 2.77925 1.11434 -4.37231e-007 
0.161088 0.598995 -0.1 2.86609 0.86604 -4.63268e-007 
0.161088 0.598995 0.1 2.90178 0.737688 -4.75118e-007 
0.162511 0.592135 -0.1 2.95597 0.474598 -4.96093e-007 
0.162511 0.592135 0.1 2.97447 0.33986 -5.05217e-007 
0.163 0.585 -0.1 2.99298 0.0683736 -5.20321e-007 
0.163 0.585 0.1 2.99298 -0.0683753 -5.26298e-007 
0.162511 0.577865 -0.1 2.97448 -0.33986 -5.3493e-007 
0.162511 0.577865 0.1 2.95597 -0.474595 -5.37583e-007 
0.161088 0.571005 -0.1 2.90178 -0.737687 -5.39609e-007 
0.161088 0.571005 0.1 2.86609 -0.866044 -5.38979e-007 
0.158797 0.564484 -0.1 2.77925 -1.11434 -5.34649e-007 
0.158797 0.564484 0.1 2.7281 -1.23429 -5.30948e-007 
0.155704 0.55837 -0.1 2.61196 -1.46454 -5.20707e-007 
0.155704 0.55837 0.1 2.54697 -1.57485 -5.14165e-007 
0.151874 0.552729 -0.1 2.40482 -1.78469 -4.98483e-007 
0.151874 0.552729 0.1 2.32766 -1.88422 -4.89342e-007 
0.147375 0.547625 -0.1 2.16158 -2.07266 -4.68542e-007 
0.147375 0.547625 0.1 2.07266 -2.16158 -4.56882e-007 
0.142271 0.543126 -0.1 1.88422 -2.32766 -4.31193e-007 
0.142271 0.543126 0.1 1.78469 -2.40482 -4.17164e-007 
0.13663 0.539296 -0.1 1.57485 -2.54697 -3.86687e-007 
0.13663 0.539296 0.1 1.46453 -2.61196 -3.70239e-007 
0.130516 0.536203 -0.1 1.23428 -2.7281 -3.35057e-007 
0.130516 0.536203 0.1 1.11434 -2.77925 -3.16323e-007 
0.123995 0.533912 -0.1 0.866048 -2.86609 -2.76705e-007 
0.123995 0.533912 0.1 0.73769 -2.90178 -2.55823e-007 
0.117135 0.532489 -0.1 0.474596 -2.95597 -2.1219e-007 
0.117135 0.532489 0.1 0.33986 -2.97448 -1.89442e-007 
0.11 0.532 -0.1 0.0683744 -2.99298 -1.42782e-007 
0.11 0.532 0.1 -0.0683746 -2.99298 -1.18873e-007 
3 26 28 27 
3 26 29 28 
3 25 29 26 
3 25 30 29 
3 24 30 25 
3 24 31 30 
3 23 31 24 
3 23 32 31 
3 22 32 23 
3 22 33 32 
3 21 33 22 
3 21 34 33 
3 20 34 21 
3 20 35 34 
3 19 35 20 
3 19 36 35 
3 18 36 19 
3 18 37 36 
3 17 37 18 
3 17 38 37 
3 16 38 17 
3 16 39 38 
3 15 39 16 
3 14 39 15 
3 14 40 39 
3 14 41 40 
3 13 41 14 
3 13 42 41 
3 12 42 13 
3 12 43 42 
3 11 43 12 
3 11 44 43 
3 10 44 11 
3 10 45 44 
3 9 45 10 
3 9 46 45 
3 8 46 9 
3 8 47 46 
3 7 47 8 
3 7 48 47 
3 6 48 7 
3 6 49 48 
3 5 49 6 
3 5 50 49 
3 4 50 5 
3 4 51 50 
3 0 2 1 
3 0 3 2 
3 80 78 79 
3 81 78 80 
3 81 77 78 
3 82 77 81 
3 82 76 77 
3 83 76 82 
3 83 75 76 
3 84 75 83 
3 84 74 75 
3 85 74 84 
3 85 73 74 
3 86 73 85 
3 86 72 73 
3 87 72 86 
3 87 71 72 
3 88 71 87 
3 88 70 71 
3 89 70 88 
3 89 69 70 
3 90 69 89 
3 90 68 69 
3 91 68 90 
3 91 67 68 
3 91 66 67 
3 92 66 91 
3 93 66 92 
3 93 65 66 
3 94 65 93 
3 94 64 65 
3 95 64 94 
3 95 63 64 
3 96 63 95 
3 96 62 63 
3 97 62 96 
3 97 61 62 
3 98 61 97 
3 98 60 61 
3 99 60 98 
3 99 59 60 
3 100 59 99 
3 100 58 59 
3 101 58 100 
3 101 57 58 
3 102 57 101 
3 102 56 57 
3 103 56 102 
3 54 52 53 
3 55 52 54 
3 105 107 106 
3 105 106 104 
3 107 109 108 
3 107 108 106 
3 109 111 110 
3 109 110 108 
3 111 105 104 
3 111 104 110 
3 113 115 114 
3 113 114 112 
3 115 117 116 
3 115 116 114 
3 117 119 118 
3 117 118 116 
3 119 121 120 
3 119 120 118 
3 121 123 122 
3 121 122 120 
3 123 125 124 
3 123 124 122 
3 125 127 126 
3 125 126 124 
3 127 129 128 
3 127 128 126 
3 129 131 130 
3 129 130 128 
3 131 133 132 
3 131 132 130 
3 133 135 134 
3 133 134 132 
3 135 137 136 
3 135 136 134 
3 137 139 138 
3 137 138 136 
3 139 141 140 
3 139 140 138 
3 141 143 142 
3 141 142 140 
3 143 145 144 
3 143 144 142 
3 145 147 146 
3 145 146 144 
3 147 149 148 
3 147 148 146 
3 149 151 150 
3 149 150 148 
3 151 153 152 
3 151 152 150 
3 153 155 154 
3 153 154 152 
3 155 157 156 
3 155 156 154 
3 157 159 158 
3 157 158 156 
3 159 161 160 
3 159 160 158 
3 161 163 162 
3 161 162 160 
3 163 165 164 
3 163 164 162 
3 165 167 166 
3 165 166 164 
3 167 169 168 
3 167 168 166 
3 169 171 170 
3 169 170 168 
3 171 173 172 
3 171 172 170 
3 173 175 174 
3 173 174 172 
3 175 177 176 
3 175 176 174 
3 177 179 178 
3 177 178 176 
3 179 181 180 
3 179 180 178 
3 181 183 182 
3 181 182 180 
3 183 185 184 
3 183 184 182 
3 185 187 186 
3 185 186 184 
3 187 189 188 
3 187 188 186 
3 189 191 190 
3 189 190 188 
3 191 193 192 
3 191 192 190 
3 193 195 194 
3 193 194 192 
3 195 197 196 
3 195 196 194 
3 197 199 198 
3 197 198 196 
3 199 201 200 
3 199 200 198 
3 201 203 202 
3 201 202 200 
3 203 205 204 
3 203 204 202 
3 205 207 206 
3 205 206 204 
3 207 113 112 
3 207 112 206 
