ply
format ascii 1.0
comment VCGLIB generated
element vertex 60
property float x
property float y
property float z
property float nx
property float ny
property float nz
element face 56
property list uchar int vertex_indices
end_header
0.611 -4.37114e-009 0.0999998 9.09862e-009 -2.27465e-009 0.052038 
0.611 0.531 0.0999999 2.08374e-008 -5.20935e-009 0.119176 
0.609 0.531 0.0999999 8.879e-009 -2.21975e-009 0.050782 
0.399 0.267 0.1 5.70382e-009 -1.42595e-009 0.032622 
0.383 0.267 0.1 5.70382e-009 -1.42595e-009 0.032622 
0.173 0.531 0.1 1.09541e-008 -2.73852e-009 0.06265 
0.171 0.531 0.1 1.22958e-008 -3.07396e-009 0.070324 
0.171 -4.37114e-009 0.1 9.09862e-009 -2.27465e-009 0.052038 
0.073 -4.37114e-009 0.1 2.32136e-008 -5.80339e-009 0.132766 
0.073 0.682 0.1 1.09705e-008 -2.74263e-009 0.062744 
0.165 0.682 0.1 1.97429e-008 -4.93571e-009 0.112916 
0.391 0.402 0.1 2.45602e-008 -6.14005e-009 0.140468 
0.618 0.682 0.0999999 4.45506e-009 -1.11377e-009 0.02548 
0.709 0.682 0.0999999 1.96939e-008 -4.92348e-009 0.112636 
0.709 -4.37114e-009 0.0999998 2.07846e-008 -5.19615e-009 0.118874 
0.611 4.37114e-009 -0.1 -9.09862e-009 2.27465e-009 -0.052038 
0.611 0.531 -0.1 -2.08374e-008 5.20935e-009 -0.119176 
0.609 0.531 -0.1 -8.879e-009 2.21975e-009 -0.050782 
0.399 0.267 -0.1 -5.70382e-009 1.42595e-009 -0.032622 
0.383 0.267 -0.1 -5.70382e-009 1.42595e-009 -0.032622 
0.173 0.531 -0.1 -1.09541e-008 2.73852e-009 -0.06265 
0.171 0.531 -0.1 -1.22958e-008 3.07396e-009 -0.070324 
0.171 4.37114e-009 -0.1 -9.09862e-009 2.27465e-009 -0.052038 
0.073 4.37114e-009 -0.1 -2.32136e-008 5.80339e-009 -0.132766 
0.073 0.682 -0.1 -1.09705e-008 2.74263e-009 -0.062744 
0.165 0.682 -0.1 -1.97429e-008 4.93571e-009 -0.112916 
0.391 0.402 -0.1 -2.45602e-008 6.14005e-009 -0.140468 
0.618 0.682 -0.1 -4.45506e-009 1.11377e-009 -0.02548 
0.709 0.682 -0.1 -1.96939e-008 4.92348e-009 -0.112636 
0.709 4.37114e-009 -0.1 -2.07846e-008 5.19615e-009 -0.118874 
0.611 4.37114e-009 -0.1 -1 -2 8.74228e-008 
0.611 -4.37114e-009 0.0999998 -2 -1 3.0598e-007 
0.611 0.531 -0.1 -2 -1 3.0598e-007 
0.611 0.531 0.0999999 -1 -2 8.74228e-008 
0.609 0.531 -0.1 0.782601 -2.62252 -2.51468e-007 
0.609 0.531 0.0999999 1.5652 -2.24505 -3.71802e-007 
0.399 0.267 -0.1 1.5652 -2.24505 -3.71802e-007 
0.399 0.267 0.1 0.782601 -2.62252 -2.51468e-007 
0.383 0.267 -0.1 -0.782601 -2.62252 2.22002e-008 
0.383 0.267 0.1 -1.5652 -2.24505 1.75534e-007 
0.173 0.531 -0.1 -1.5652 -2.24505 1.75534e-007 
0.173 0.531 0.1 -0.782601 -2.62252 2.22002e-008 
0.171 0.531 -0.1 1 -2 -2.62269e-007 
0.171 0.531 0.1 2 -1 -3.93403e-007 
0.171 4.37114e-009 -0.1 2 -1 -3.93403e-007 
0.171 -4.37114e-009 0.1 1 -2 -2.62269e-007 
0.073 4.37114e-009 -0.1 -1 -2 8.74228e-008 
0.073 -4.37114e-009 0.1 -2 -1 3.0598e-007 
0.073 0.682 -0.1 -2 1 3.93403e-007 
0.073 0.682 0.1 -1 2 2.62269e-007 
0.165 0.682 -0.1 0.77815 2.62808 -2.11791e-008 
0.165 0.682 0.1 1.5563 2.25616 -1.73492e-007 
0.391 0.402 -0.1 0.779508 1.88591 -5.38576e-008 
0.391 0.402 0.1 -0.775435 1.88759 2.18091e-007 
0.618 0.682 -0.1 -1.55358 2.25951 3.70403e-007 
0.618 0.682 0.0999999 -0.776792 2.62976 2.50769e-007 
0.709 0.682 -0.1 1 2 -8.74228e-008 
0.709 0.682 0.0999999 2 1 -3.0598e-007 
0.709 4.37114e-009 -0.1 2 -1 -3.93403e-007 
0.709 -4.37114e-009 0.0999998 1 -2 -2.62269e-007 
3 8 10 9 
3 8 6 10 
3 6 5 10 
3 5 11 10 
3 11 13 12 
3 11 2 13 
3 2 1 13 
3 1 14 13 
3 8 7 6 
3 4 11 5 
3 11 3 2 
3 0 14 1 
3 4 3 11 
3 25 23 24 
3 21 23 25 
3 20 21 25 
3 26 20 25 
3 28 26 27 
3 17 26 28 
3 16 17 28 
3 29 16 28 
3 22 23 21 
3 26 19 20 
3 18 26 17 
3 29 15 16 
3 18 19 26 
3 31 33 32 
3 31 32 30 
3 33 35 34 
3 33 34 32 
3 35 37 36 
3 35 36 34 
3 37 39 38 
3 37 38 36 
3 39 41 40 
3 39 40 38 
3 41 43 42 
3 41 42 40 
3 43 45 44 
3 43 44 42 
3 45 47 46 
3 45 46 44 
3 47 49 48 
3 47 48 46 
3 49 51 50 
3 49 50 48 
3 51 53 52 
3 51 52 50 
3 53 55 54 
3 53 54 52 
3 55 57 56 
3 55 56 54 
3 57 59 58 
3 57 58 56 
3 59 31 30 
3 59 30 58 
