ply
format ascii 1.0
comment VCGLIB generated
element vertex 24
property float x
property float y
property float z
property float nx
property float ny
property float nz
element face 20
property list uchar int vertex_indices
end_header
0.05 0.716 0.1 1.80021e-009 -4.50053e-010 0.010296 
0.138 0.716 0.1 3.60042e-009 -9.00105e-010 0.020592 
0.138 0.599 0.1 4.9142e-009 -1.22855e-009 0.028106 
0.115 0.462 0.1 1.00606e-009 -2.51515e-010 0.005754 
0.073 0.462 0.1 3.114e-009 -7.785e-010 0.01781 
0.05 0.599 0.1 5.70836e-009 -1.42709e-009 0.032648 
0.05 0.716 -0.1 -1.80021e-009 4.50053e-010 -0.010296 
0.138 0.716 -0.1 -3.60042e-009 9.00105e-010 -0.020592 
0.138 0.599 -0.1 -4.9142e-009 1.22855e-009 -0.028106 
0.115 0.462 -0.1 -1.00606e-009 2.51515e-010 -0.005754 
0.073 0.462 -0.1 -3.114e-009 7.785e-010 -0.01781 
0.05 0.599 -0.1 -5.70836e-009 1.42709e-009 -0.032648 
0.05 0.716 -0.1 -2 1 3.93403e-007 
0.05 0.716 0.1 -1 2 2.62269e-007 
0.138 0.716 -0.1 1 2 -8.74228e-008 
0.138 0.716 0.1 2 1 -3.0598e-007 
0.138 0.599 -0.1 2.9862 -0.165566 -5.29361e-007 
0.138 0.599 0.1 2.9724 -0.331132 -5.34184e-007 
0.115 0.462 -0.1 1.9724 -1.33113 -4.03051e-007 
0.115 0.462 0.1 0.986199 -2.16557 -2.67092e-007 
0.073 0.462 -0.1 -0.986199 -2.16557 7.77726e-008 
0.073 0.462 0.1 -1.9724 -1.33113 2.8668e-007 
0.05 0.599 -0.1 -2.9724 -0.331132 5.05236e-007 
0.05 0.599 0.1 -2.9862 -0.165566 5.14887e-007 
3 5 1 0 
3 5 2 1 
3 4 2 5 
3 4 3 2 
3 7 11 6 
3 8 11 7 
3 8 10 11 
3 9 10 8 
3 13 15 14 
3 13 14 12 
3 15 17 16 
3 15 16 14 
3 17 19 18 
3 17 18 16 
3 19 21 20 
3 19 20 18 
3 21 23 22 
3 21 22 20 
3 23 13 12 
3 23 12 22 
