ply
format ascii 1.0
comment VCGLIB generated
element vertex 32
property float x
property float y
property float z
property float nx
property float ny
property float nz
element face 28
property list uchar int vertex_indices
end_header
0.043 0.682 0.1 9.0472e-009 -2.2618e-009 0.051744 
0.631 0.682 0.0999999 2.74302e-008 -6.85753e-009 0.156882 
0.197 0.088 0.1 3.0919e-008 -7.72975e-009 0.176836 
0.631 0.088 0.0999999 1.61403e-008 -4.03509e-009 0.092312 
0.631 -4.37114e-009 0.0999998 9.46264e-009 -2.36566e-009 0.05412 
0.016 -4.37114e-009 0.1 2.8261e-008 -7.06525e-009 0.161634 
0.45 0.594 0.1 3.05036e-008 -7.62589e-009 0.17446 
0.043 0.594 0.1 1.53095e-008 -3.82737e-009 0.08756 
0.043 0.682 -0.1 -9.0472e-009 2.2618e-009 -0.051744 
0.631 0.682 -0.1 -2.74302e-008 6.85753e-009 -0.156882 
0.197 0.088 -0.1 -3.0919e-008 7.72975e-009 -0.176836 
0.631 0.088 -0.1 -1.61403e-008 4.03509e-009 -0.092312 
0.631 4.37114e-009 -0.1 -9.46264e-009 2.36566e-009 -0.05412 
0.016 4.37114e-009 -0.1 -2.8261e-008 7.06525e-009 -0.161634 
0.45 0.594 -0.1 -3.05036e-008 7.62589e-009 -0.17446 
0.043 0.594 -0.1 -1.53095e-008 3.82737e-009 -0.08756 
0.043 0.682 -0.1 -2 1 3.93403e-007 
0.043 0.682 0.1 -1 2 2.62269e-007 
0.631 0.682 -0.1 0.807441 1.41005 -7.95421e-008 
0.631 0.682 0.0999999 1.61488 -0.179897 -2.90218e-007 
0.197 0.088 -0.1 1.61488 -0.179897 -2.90218e-007 
0.197 0.088 0.1 0.807441 1.41005 -7.95421e-008 
0.631 0.088 -0.1 1 2 -8.74228e-008 
0.631 0.088 0.0999999 2 1 -3.0598e-007 
0.631 4.37114e-009 -0.1 2 -1 -3.93403e-007 
0.631 -4.37114e-009 0.0999998 1 -2 -2.62269e-007 
0.016 4.37114e-009 -0.1 -0.807441 -1.41005 7.95421e-008 
0.016 -4.37114e-009 0.1 -1.61488 0.179897 2.90218e-007 
0.45 0.594 -0.1 -1.61488 0.179897 2.90218e-007 
0.45 0.594 0.1 -0.807441 -1.41005 7.95421e-008 
0.043 0.594 -0.1 -1 -2 8.74228e-008 
0.043 0.594 0.1 -2 -1 3.0598e-007 
3 7 1 0 
3 7 6 1 
3 6 2 1 
3 5 2 6 
3 5 3 2 
3 5 4 3 
3 9 15 8 
3 14 15 9 
3 10 14 9 
3 10 13 14 
3 11 13 10 
3 12 13 11 
3 17 19 18 
3 17 18 16 
3 19 21 20 
3 19 20 18 
3 21 23 22 
3 21 22 20 
3 23 25 24 
3 23 24 22 
3 25 27 26 
3 25 26 24 
3 27 29 28 
3 27 28 26 
3 29 31 30 
3 29 30 28 
3 31 17 16 
3 31 16 30 
