ply
format ascii 1.0
comment VCGLIB generated
element vertex 16
property float x
property float y
property float z
property float nx
property float ny
property float nz
element face 12
property list uchar int vertex_indices
end_header
0.168 0.682 0.1 2.42378e-008 -6.05945e-009 0.138624 
0.168 -0.23 0.1 1.21189e-008 -3.02972e-009 0.069312 
0.092 -0.23 0.1 2.42378e-008 -6.05945e-009 0.138624 
0.092 0.682 0.1 1.21189e-008 -3.02972e-009 0.069312 
0.168 0.682 -0.1 -2.42378e-008 6.05945e-009 -0.138624 
0.168 -0.23 -0.1 -1.21189e-008 3.02972e-009 -0.069312 
0.092 -0.23 -0.1 -2.42378e-008 6.05945e-009 -0.138624 
0.092 0.682 -0.1 -1.21189e-008 3.02972e-009 -0.069312 
0.168 0.682 -0.1 1 2 -8.74228e-008 
0.168 0.682 0.1 2 1 -3.0598e-007 
0.168 -0.23 -0.1 2 -1 -3.93403e-007 
0.168 -0.23 0.1 1 -2 -2.62269e-007 
0.092 -0.23 -0.1 -1 -2 8.74228e-008 
0.092 -0.23 0.1 -2 -1 3.0598e-007 
0.092 0.682 -0.1 -2 1 3.93403e-007 
0.092 0.682 0.1 -1 2 2.62269e-007 
3 2 0 3 
3 2 1 0 
3 4 6 7 
3 5 6 4 
3 9 11 10 
3 9 10 8 
3 11 13 12 
3 11 12 10 
3 13 15 14 
3 13 14 12 
3 15 9 8 
3 15 8 14 
