ply
format ascii 1.0
comment VCGLIB generated
element vertex 312
property float x
property float y
property float z
property float nx
property float ny
property float nz
element face 312
property list uchar int vertex_indices
end_header
0.057 -0.23 0.1 2.01737e-008 -5.04344e-009 0.11538 
0.057 0.449 0.1 1.27202e-008 -3.18005e-009 0.072751 
0.211 0.449 0.1 2.72448e-009 -6.81121e-010 0.0155822 
0.250429 0.44734 0.1 1.1574e-009 -2.89349e-010 0.00661954 
0.286685 0.442389 0.1 1.21263e-009 -3.03157e-010 0.00693541 
0.319719 0.434188 0.1 1.3114e-009 -3.27851e-010 0.00750035 
0.349481 0.422778 0.1 1.45306e-009 -3.63264e-010 0.00831051 
0.375925 0.408201 0.1 1.63703e-009 -4.09257e-010 0.00936271 
0.399 0.3905 0.1 1.8631e-009 -4.65777e-010 0.0106557 
0.418659 0.369715 0.1 1.75054e-009 -4.37634e-010 0.0100119 
0.434852 0.345889 0.1 1.70599e-009 -4.26497e-010 0.00975712 
0.447531 0.319063 0.1 1.49648e-009 -3.74119e-010 0.00855885 
0.456648 0.289278 0.1 1.59572e-009 -3.98929e-010 0.00912644 
0.462154 0.256576 0.1 1.73655e-009 -4.34137e-010 0.00993189 
0.464 0.221 0.1 1.7832e-009 -4.45801e-010 0.0101987 
0.462054 0.188115 0.1 1.35121e-009 -3.37803e-010 0.00772803 
0.456347 0.157088 0.1 1.60746e-009 -4.01865e-010 0.0091936 
0.447078 0.128109 0.1 1.54377e-009 -3.85943e-010 0.00882934 
0.434444 0.10137 0.1 1.24615e-009 -3.11538e-010 0.00712716 
0.418644 0.077062 0.1 1.66984e-009 -4.17459e-010 0.00955035 
0.399875 0.055375 0.1 3.4964e-009 -8.741e-010 0.0199971 
0.378335 0.036501 0.1 1.20788e-009 -3.01971e-010 0.00690828 
0.354222 0.02063 0.1 9.54138e-010 -2.38535e-010 0.00545703 
0.327734 0.007953 0.1 7.98622e-010 -1.99655e-010 0.00456758 
0.299069 -0.001338 0.1 5.98582e-010 -1.49645e-010 0.00342349 
0.268425 -0.007053 0.1 1.79295e-010 -4.48238e-011 0.00102545 
0.236 -0.009 0.1 1.51943e-011 -3.79858e-012 8.69014e-005 
0.228786 -0.008874 0.1 3.25331e-013 -8.13327e-014 1.86068e-006 
0.221625 -0.008491 0.1 1.31598e-012 -3.28996e-013 7.52654e-006 
0.214484 -0.007844 0.1 2.4516e-011 -6.12899e-012 0.000140215 
0.207333 -0.006926 0.1 2.22626e-011 -5.56564e-012 0.000127327 
0.200141 -0.00573 0.1 2.86048e-011 -7.15118e-012 0.0001636 
0.192875 -0.00425 0.1 3.57846e-011 -8.94614e-012 0.000204664 
0.185505 -0.002478 0.1 1.69783e-010 -4.24458e-011 0.000971047 
0.178 -0.000407004 0.1 9.16652e-011 -2.29163e-011 0.000524264 
0.170328 0.001969 0.1 1.05003e-010 -2.62507e-011 0.000600547 
0.162458 0.004657 0.1 1.19339e-010 -2.98347e-011 0.000682539 
0.154359 0.007666 0.1 4.45076e-010 -1.11269e-010 0.00254554 
0.146 0.011 0.1 8.52358e-009 -2.1309e-009 0.0487492 
0.146 -0.23 0.1 3.75026e-009 -9.37566e-010 0.021449 
0.15279 0.087876 0.1 8.5923e-010 -2.14807e-010 0.00491422 
0.159653 0.085005 0.1 8.57852e-010 -2.14463e-010 0.00490634 
0.166578 0.082391 0.1 7.67722e-010 -1.9193e-010 0.00439086 
0.173556 0.080037 0.1 1.90367e-010 -4.75916e-011 0.00108877 
0.180575 0.077947 0.1 1.88332e-010 -4.70831e-011 0.00107713 
0.187625 0.076125 0.1 1.85342e-010 -4.63354e-011 0.00106003 
0.194696 0.074574 0.1 1.81406e-010 -4.53516e-011 0.00103752 
0.201778 0.073296 0.1 1.76473e-010 -4.41181e-011 0.00100931 
0.208859 0.072297 0.1 1.70556e-010 -4.2639e-011 0.000975466 
0.215931 0.071579 0.1 1.63666e-010 -4.09164e-011 0.000936058 
0.222981 0.071145 0.1 1.55744e-010 -3.8936e-011 0.000890752 
0.23 0.071 0.1 2.18159e-009 -5.45398e-010 0.0124772 
0.250249 0.07231 0.1 2.51274e-010 -6.28184e-011 0.00143712 
0.269412 0.076144 0.1 8.79186e-010 -2.19797e-010 0.00502836 
0.287359 0.082359 0.1 3.68766e-010 -9.21916e-011 0.0021091 
0.303963 0.090815 0.1 4.5745e-010 -1.14362e-010 0.00261631 
0.319094 0.101367 0.1 9.90474e-010 -2.47618e-010 0.00566485 
0.332625 0.113875 0.1 1.0131e-009 -2.53275e-010 0.00579426 
0.344427 0.128195 0.1 5.44333e-010 -1.36083e-010 0.00311322 
0.35437 0.144185 0.1 1.07733e-009 -2.69332e-010 0.00616159 
0.362328 0.161703 0.1 6.09854e-010 -1.52463e-010 0.00348796 
0.368171 0.180606 0.1 1.14326e-009 -2.85815e-010 0.00653869 
0.371771 0.200753 0.1 1.18767e-009 -2.96918e-010 0.00679269 
0.373 0.222 0.1 6.94963e-010 -1.73741e-010 0.00397473 
0.37198 0.244429 0.1 1.2552e-009 -3.13801e-010 0.00717892 
0.368921 0.265181 0.1 6.36106e-010 -1.59026e-010 0.0036381 
0.363828 0.284203 0.1 1.12418e-009 -2.81045e-010 0.00642955 
0.356704 0.301445 0.1 5.35906e-010 -1.33977e-010 0.00306503 
0.347551 0.316852 0.1 1.01468e-009 -2.53669e-010 0.00580327 
0.336375 0.330375 0.1 4.39772e-010 -1.09943e-010 0.0025152 
0.323178 0.34196 0.1 9.29382e-010 -2.32345e-010 0.00531545 
0.307963 0.351556 0.1 3.4832e-010 -8.70801e-011 0.00199216 
0.290734 0.359109 0.1 2.43612e-010 -6.09031e-011 0.0013933 
0.271495 0.364569 0.1 1.18405e-010 -2.96012e-011 0.000677197 
0.250249 0.367884 0.1 7.72354e-010 -1.93089e-010 0.00441735 
0.227 0.369 0.1 5.04302e-011 -1.26075e-011 0.000288427 
0.146 0.369 0.1 2.21556e-008 -5.53888e-009 0.126715 
0.146 0.091 0.1 4.75573e-009 -1.18893e-009 0.0271996 
0.057 -0.23 -0.1 -2.01737e-008 5.04344e-009 -0.11538 
0.057 0.449 -0.1 -1.27202e-008 3.18005e-009 -0.072751 
0.211 0.449 -0.1 -2.72448e-009 6.81121e-010 -0.0155822 
0.250429 0.44734 -0.1 -1.1574e-009 2.89349e-010 -0.00661954 
0.286685 0.442389 -0.1 -1.21263e-009 3.03157e-010 -0.00693541 
0.319719 0.434188 -0.1 -1.3114e-009 3.27851e-010 -0.00750035 
0.349481 0.422778 -0.1 -1.45306e-009 3.63264e-010 -0.00831051 
0.375925 0.408201 -0.1 -1.63703e-009 4.09257e-010 -0.00936271 
0.399 0.3905 -0.1 -1.8631e-009 4.65777e-010 -0.0106557 
0.418659 0.369715 -0.1 -1.75054e-009 4.37634e-010 -0.0100119 
0.434852 0.345889 -0.1 -1.70599e-009 4.26498e-010 -0.00975713 
0.447531 0.319063 -0.1 -1.49648e-009 3.74119e-010 -0.00855885 
0.456648 0.289278 -0.1 -1.59572e-009 3.98929e-010 -0.00912644 
0.462154 0.256576 -0.1 -1.73655e-009 4.34137e-010 -0.00993189 
0.464 0.221 -0.1 -1.7832e-009 4.45801e-010 -0.0101987 
0.462054 0.188115 -0.1 -1.35121e-009 3.37803e-010 -0.00772803 
0.456347 0.157088 -0.1 -1.60746e-009 4.01865e-010 -0.0091936 
0.447078 0.128109 -0.1 -1.54377e-009 3.85943e-010 -0.00882934 
0.434444 0.10137 -0.1 -1.24615e-009 3.11538e-010 -0.00712716 
0.418644 0.077062 -0.1 -1.66984e-009 4.17459e-010 -0.00955035 
0.399875 0.055375 -0.1 -3.4964e-009 8.741e-010 -0.0199971 
0.378335 0.036501 -0.1 -1.20788e-009 3.01971e-010 -0.00690828 
0.354222 0.02063 -0.1 -9.54138e-010 2.38535e-010 -0.00545703 
0.327734 0.007953 -0.1 -7.98622e-010 1.99655e-010 -0.00456758 
0.299069 -0.001338 -0.1 -5.98582e-010 1.49645e-010 -0.00342349 
0.268425 -0.007053 -0.1 -1.79295e-010 4.48238e-011 -0.00102545 
0.236 -0.00899999 -0.1 -1.51943e-011 3.79858e-012 -8.69014e-005 
0.228786 -0.008874 -0.1 -3.25331e-013 8.13327e-014 -1.86068e-006 
0.221625 -0.008491 -0.1 -1.31598e-012 3.28996e-013 -7.52654e-006 
0.214484 -0.007844 -0.1 -2.4516e-011 6.12899e-012 -0.000140215 
0.207333 -0.006926 -0.1 -2.22626e-011 5.56564e-012 -0.000127327 
0.200141 -0.00573 -0.1 -2.86048e-011 7.15118e-012 -0.0001636 
0.192875 -0.00425 -0.1 -3.57846e-011 8.94614e-012 -0.000204664 
0.185505 -0.002478 -0.1 -1.69783e-010 4.24458e-011 -0.000971047 
0.178 -0.000406996 -0.1 -9.16652e-011 2.29163e-011 -0.000524264 
0.170328 0.001969 -0.1 -1.05003e-010 2.62507e-011 -0.000600547 
0.162458 0.004657 -0.1 -1.19339e-010 2.98347e-011 -0.000682539 
0.154359 0.007666 -0.1 -4.45076e-010 1.11269e-010 -0.00254554 
0.146 0.011 -0.1 -8.52358e-009 2.1309e-009 -0.0487492 
0.146 -0.23 -0.1 -3.75026e-009 9.37566e-010 -0.021449 
0.15279 0.087876 -0.1 -8.5923e-010 2.14807e-010 -0.00491422 
0.159653 0.085005 -0.1 -8.57852e-010 2.14463e-010 -0.00490634 
0.166578 0.082391 -0.1 -7.67721e-010 1.9193e-010 -0.00439085 
0.173556 0.080037 -0.1 -1.90367e-010 4.75917e-011 -0.00108877 
0.180575 0.077947 -0.1 -1.88332e-010 4.70831e-011 -0.00107713 
0.187625 0.076125 -0.1 -1.85342e-010 4.63354e-011 -0.00106003 
0.194696 0.074574 -0.1 -1.81406e-010 4.53516e-011 -0.00103752 
0.201778 0.073296 -0.1 -1.76473e-010 4.41181e-011 -0.00100931 
0.208859 0.072297 -0.1 -1.70556e-010 4.2639e-011 -0.000975466 
0.215931 0.071579 -0.1 -1.63666e-010 4.09164e-011 -0.000936058 
0.222981 0.071145 -0.1 -1.55744e-010 3.8936e-011 -0.000890752 
0.23 0.071 -0.1 -2.18159e-009 5.45398e-010 -0.0124772 
0.250249 0.07231 -0.1 -2.51274e-010 6.28184e-011 -0.00143712 
0.269412 0.076144 -0.1 -8.79186e-010 2.19797e-010 -0.00502836 
0.287359 0.082359 -0.1 -3.68766e-010 9.21916e-011 -0.0021091 
0.303963 0.090815 -0.1 -4.5745e-010 1.14362e-010 -0.00261631 
0.319094 0.101367 -0.1 -9.90474e-010 2.47618e-010 -0.00566485 
0.332625 0.113875 -0.1 -1.0131e-009 2.53275e-010 -0.00579426 
0.344427 0.128195 -0.1 -5.44333e-010 1.36083e-010 -0.00311322 
0.35437 0.144185 -0.1 -1.07733e-009 2.69332e-010 -0.00616159 
0.362328 0.161703 -0.1 -6.09854e-010 1.52463e-010 -0.00348796 
0.368171 0.180606 -0.1 -1.14326e-009 2.85815e-010 -0.00653869 
0.371771 0.200753 -0.1 -1.18767e-009 2.96918e-010 -0.00679269 
0.373 0.222 -0.1 -6.94962e-010 1.73741e-010 -0.00397472 
0.37198 0.244429 -0.1 -1.2552e-009 3.13801e-010 -0.00717892 
0.368921 0.265181 -0.1 -6.36106e-010 1.59026e-010 -0.0036381 
0.363828 0.284203 -0.1 -1.12418e-009 2.81045e-010 -0.00642955 
0.356704 0.301445 -0.1 -5.35906e-010 1.33977e-010 -0.00306503 
0.347551 0.316852 -0.1 -1.01468e-009 2.53669e-010 -0.00580327 
0.336375 0.330375 -0.1 -4.39772e-010 1.09943e-010 -0.0025152 
0.323178 0.34196 -0.1 -9.29382e-010 2.32345e-010 -0.00531545 
0.307963 0.351556 -0.1 -3.4832e-010 8.70801e-011 -0.00199216 
0.290734 0.359109 -0.1 -2.43612e-010 6.09031e-011 -0.0013933 
0.271495 0.364569 -0.1 -1.18405e-010 2.96012e-011 -0.000677197 
0.250249 0.367884 -0.1 -7.72354e-010 1.93089e-010 -0.00441735 
0.227 0.369 -0.1 -5.04302e-011 1.26075e-011 -0.000288427 
0.146 0.369 -0.1 -2.21556e-008 5.53888e-009 -0.126715 
0.146 0.091 -0.1 -4.75573e-009 1.18893e-009 -0.0271996 
0.057 -0.23 -0.1 -1 -2 8.74228e-008 
0.057 -0.23 0.1 -2 -1 3.0598e-007 
0.057 0.449 -0.1 -2 1 3.93403e-007 
0.057 0.449 0.1 -1 2 2.62269e-007 
0.211 0.449 -0.1 0.0420634 2.99911 1.23741e-007 
0.211 0.449 0.1 0.0841269 2.99823 1.16347e-007 
0.250429 0.44734 -0.1 0.219428 2.98903 9.2289e-008 
0.250429 0.44734 0.1 0.312666 2.98072 7.56229e-008 
0.286685 0.442389 -0.1 0.511548 2.95215 3.96007e-008 
0.286685 0.442389 0.1 0.617192 2.93188 2.02434e-008 
0.319719 0.434188 -0.1 0.83986 2.87481 -2.11839e-008 
0.319719 0.434188 0.1 0.956885 2.83801 -4.32539e-008 
0.349481 0.422778 -0.1 1.19869 2.74322 -8.96756e-008 
0.349481 0.422778 0.1 1.32347 2.68525 -1.14027e-007 
0.375925 0.408201 -0.1 1.57416 2.54495 -1.63991e-007 
0.375925 0.408201 0.1 1.70006 2.46263 -1.89603e-007 
0.399 0.3905 -0.1 1.94382 2.27403 -2.40467e-007 
0.399 0.3905 0.1 2.06167 2.16775 -2.65719e-007 
0.418659 0.369715 -0.1 2.28009 1.93641 -3.1402e-007 
0.418659 0.369715 0.1 2.38064 1.81136 -3.37067e-007 
0.434852 0.345889 -0.1 2.55824 1.55152 -3.79477e-007 
0.434852 0.345889 0.1 2.63527 1.41673 -3.98838e-007 
0.447531 0.319063 -0.1 2.76441 1.14732 -4.33194e-007 
0.447531 0.319063 0.1 2.81652 1.01269 -4.4819e-007 
0.456648 0.289278 -0.1 2.89854 0.751409 -4.73951e-007 
0.456648 0.289278 0.1 2.92845 0.624753 -4.84717e-007 
0.462154 0.256576 -0.1 2.9709 0.383883 -5.02668e-007 
0.462154 0.256576 0.1 2.98343 0.26967 -5.09852e-007 
0.464 0.221 -0.1 2.99557 0.0445659 -5.21814e-007 
0.464 0.221 0.1 2.99516 -0.0663247 -5.2659e-007 
0.462054 0.188115 -0.1 2.98001 -0.299046 -5.34113e-007 
0.462054 0.188115 0.1 2.96526 -0.420877 -5.36859e-007 
0.456347 0.157088 -0.1 2.91947 -0.666453 -5.39587e-007 
0.456347 0.157088 0.1 2.88843 -0.790199 -5.3957e-007 
0.447078 0.128109 -0.1 2.80908 -1.0365 -5.36463e-007 
0.447078 0.128109 0.1 2.76077 -1.15906 -5.33373e-007 
0.434444 0.10137 -0.1 2.64675 -1.3994 -5.23942e-007 
0.434444 0.10137 0.1 2.58105 -1.51717 -5.17603e-007 
0.418644 0.077062 -0.1 2.43304 -1.74437 -5.01655e-007 
0.418644 0.077062 0.1 2.35073 -1.85379 -4.92047e-007 
0.399875 0.055375 -0.1 2.17132 -2.06093 -4.69732e-007 
0.399875 0.055375 0.1 2.0742 -2.15864 -4.57022e-007 
0.378335 0.036501 -0.1 1.86785 -2.33954 -4.2885e-007 
0.378335 0.036501 0.1 1.75861 -2.42272 -4.13386e-007 
0.354222 0.02063 -0.1 1.53128 -2.57262 -3.80191e-007 
0.354222 0.02063 0.1 1.41319 -2.63934 -3.62459e-007 
0.327734 0.007953 -0.1 1.17173 -2.75531 -3.25311e-007 
0.327734 0.007953 0.1 1.04836 -2.80457 -3.05894e-007 
0.299069 -0.001338 -0.1 0.799999 -2.88561 -2.6601e-007 
0.299069 -0.001338 0.1 0.675003 -2.91738 -2.45544e-007 
0.268425 -0.007053 -0.1 0.426609 -2.9643 -2.04164e-007 
0.268425 -0.007053 0.1 0.303212 -2.97945 -1.83252e-007 
0.236 -0.00899999 -0.1 0.102413 -2.99625 -1.48877e-007 
0.236 -0.009 0.1 0.0250117 -2.9979 -1.35416e-007 
0.228786 -0.008874 -0.1 -0.0883344 -2.99827 -1.15614e-007 
0.228786 -0.008874 0.1 -0.124279 -2.99699 -1.09273e-007 
0.221625 -0.008491 -0.1 -0.19705 -2.99307 -9.63773e-008 
0.221625 -0.008491 0.1 -0.233876 -2.99041 -8.98229e-008 
0.214484 -0.007844 -0.1 -0.307797 -2.9837 -7.66045e-008 
0.214484 -0.007844 0.1 -0.344891 -2.97964 -6.99417e-008 
0.207333 -0.006926 -0.1 -0.4187 -2.97017 -5.66226e-008 
0.207333 -0.006926 0.1 -0.455415 -2.96477 -4.99669e-008 
0.200141 -0.00573 -0.1 -0.527676 -2.95279 -3.68085e-008 
0.200141 -0.00573 0.1 -0.563223 -2.94621 -3.0306e-008 
0.192875 -0.00425 -0.1 -0.632952 -2.93205 -1.74951e-008 
0.192875 -0.00425 0.1 -0.667135 -2.92446 -1.11868e-008 
0.185505 -0.002478 -0.1 -0.733552 -2.90855 1.12135e-009 
0.185505 -0.002478 0.1 -0.765787 -2.90023 7.12122e-009 
0.178 -0.000406996 -0.1 -0.82785 -2.88318 1.8718e-008 
0.178 -0.000407004 0.1 -0.857678 -2.87445 2.4315e-008 
0.170328 0.001969 -0.1 -0.914888 -2.8568 3.50893e-008 
0.170328 0.001969 0.1 -0.94227 -2.84789 4.02666e-008 
0.162458 0.004657 -0.1 -0.994702 -2.83004 5.0214e-008 
0.162458 0.004657 0.1 -1.01975 -2.82112 5.49842e-008 
0.154359 0.007666 -0.1 -1.06701 -2.80363 6.40109e-008 
0.154359 0.007666 0.1 -1.08921 -2.79508 6.82665e-008 
0.146 0.011 -0.1 0.259058 -1.85769 -1.26498e-007 
0.146 0.011 0.1 1.62953 -0.928844 -3.25517e-007 
0.146 -0.23 -0.1 2 -1 -3.93403e-007 
0.146 -0.23 0.1 1 -2 -2.62269e-007 
0.15279 0.087876 -0.1 1.22187 2.73945 -9.3893e-008 
0.15279 0.087876 0.1 1.18982 2.75352 -8.76742e-008 
0.159653 0.085005 -0.1 1.125 2.78063 -7.51557e-008 
0.159653 0.085005 0.1 1.09222 2.79366 -6.88552e-008 
0.166578 0.082391 -0.1 1.02595 2.81867 -5.61748e-008 
0.166578 0.082391 0.1 0.992446 2.83064 -4.97936e-008 
0.173556 0.080037 -0.1 0.924676 2.85349 -3.69456e-008 
0.173556 0.080037 0.1 0.890409 2.86436 -3.04786e-008 
0.180575 0.077947 -0.1 0.820979 2.88502 -1.74364e-008 
0.180575 0.077947 0.1 0.785816 2.89479 -1.0861e-008 
0.187625 0.076125 -0.1 0.714689 2.91316 2.378e-009 
0.187625 0.076125 0.1 0.678725 2.92175 9.04148e-009 
0.194696 0.074574 -0.1 0.606096 2.93766 2.2436e-008 
0.194696 0.074574 0.1 0.569431 2.94499 2.9167e-008 
0.201778 0.073296 -0.1 0.494876 2.9584 4.27891e-008 
0.201778 0.073296 0.1 0.456986 2.96449 4.96801e-008 
0.208859 0.072297 -0.1 0.380405 2.97527 6.35412e-008 
0.208859 0.072297 0.1 0.341714 2.97997 7.05114e-008 
0.215931 0.071579 -0.1 0.263459 2.98788 8.45397e-008 
0.215931 0.071579 0.1 0.223896 2.99111 9.15984e-008 
0.222981 0.071145 -0.1 0.143542 2.99601 1.05862e-007 
0.222981 0.071145 0.1 0.102751 2.99768 1.13067e-007 
0.23 0.071 -0.1 -0.0232531 2.99749 1.3509e-007 
0.23 0.071 0.1 -0.108466 2.99561 1.49907e-007 
0.250249 0.07231 -0.1 -0.325304 2.97639 1.8698e-007 
0.250249 0.07231 0.1 -0.456929 2.95905 2.09236e-007 
0.269412 0.076144 -0.1 -0.719602 2.90608 2.52848e-007 
0.269412 0.076144 0.1 -0.850649 2.87046 2.74204e-007 
0.287359 0.082359 -0.1 -1.10828 2.78099 3.15338e-007 
0.287359 0.082359 0.1 -1.23486 2.72714 3.35117e-007 
0.303963 0.090815 -0.1 -1.47964 2.60244 3.72465e-007 
0.303963 0.090815 0.1 -1.59785 2.53158 3.90035e-007 
0.319094 0.101367 -0.1 -1.82284 2.3748 4.22521e-007 
0.319094 0.101367 0.1 -1.92962 2.28888 4.37436e-007 
0.332625 0.113875 -0.1 -2.1293 2.10464 4.64295e-007 
0.332625 0.113875 0.1 -2.22218 2.00632 4.76237e-007 
0.344427 0.128195 -0.1 -2.39259 1.80006 4.97017e-007 
0.344427 0.128195 0.1 -2.47011 1.69212 5.05852e-007 
0.35437 0.144185 -0.1 -2.60887 1.46972 5.20393e-007 
0.35437 0.144185 0.1 -2.67013 1.35526 5.261e-007 
0.362328 0.161703 -0.1 -2.77632 1.12252 5.34494e-007 
0.362328 0.161703 0.1 -2.82126 1.00424 5.37181e-007 
0.368171 0.180606 -0.1 -2.89521 0.766538 5.3972e-007 
0.368171 0.180606 0.1 -2.92421 0.64712 5.39572e-007 
0.371771 0.200753 -0.1 -2.96715 0.409547 5.36695e-007 
0.371771 0.200753 0.1 -2.98107 0.291393 5.33964e-007 
0.373 0.222 -0.1 -2.99563 0.0700636 5.26835e-007 
0.373 0.222 0.1 -2.99627 -0.033112 5.22437e-007 
0.37198 0.244429 -0.1 -2.98724 -0.23669 5.1196e-007 
0.37198 0.244429 0.1 -2.97759 -0.337092 5.05883e-007 
0.368921 0.265181 -0.1 -2.94459 -0.550297 4.90794e-007 
0.368921 0.265181 0.1 -2.92126 -0.663098 4.81785e-007 
0.363828 0.284203 -0.1 -2.85617 -0.899133 4.60086e-007 
0.363828 0.284203 0.1 -2.81441 -1.02236 4.47399e-007 
0.356704 0.301445 -0.1 -2.70817 -1.27448 4.17802e-007 
0.356704 0.301445 0.1 -2.64368 -1.40336 4.00893e-007 
0.347551 0.316852 -0.1 -2.49029 -1.65854 3.62918e-007 
0.347551 0.316852 0.1 -2.40138 -1.78484 3.41853e-007 
0.336375 0.330375 -0.1 -2.20137 -2.0256 2.96358e-007 
0.336375 0.330375 0.1 -2.09026 -2.14007 2.71927e-007 
0.323178 0.34196 -0.1 -1.85289 -2.34885 2.21298e-007 
0.323178 0.34196 0.1 -1.72663 -2.44317 1.951e-007 
0.307963 0.351556 -0.1 -1.46842 -2.60751 1.42768e-007 
0.307963 0.351556 0.1 -1.33646 -2.67754 1.16635e-007 
0.290734 0.359109 -0.1 -1.07602 -2.79373 6.60198e-008 
0.290734 0.359109 0.1 -0.947536 -2.83988 4.15374e-008 
0.271495 0.364569 -0.1 -0.700198 -2.91206 -4.86385e-009 
0.271495 0.364569 0.1 -0.581345 -2.9381 -2.67828e-008 
0.250249 0.367884 -0.1 -0.356274 -2.97494 -6.77458e-008 
0.250249 0.367884 0.1 -0.250056 -2.98575 -8.67894e-008 
0.227 0.369 -0.1 -0.0958918 -2.9977 -1.14267e-007 
0.227 0.369 0.1 -0.0479459 -2.99885 -1.227e-007 
0.146 0.369 -0.1 1 -2 -2.62269e-007 
0.146 0.369 0.1 2 -1 -3.93403e-007 
0.146 0.091 -0.1 2.41797 0.90846 -3.83062e-007 
0.146 0.091 0.1 1.83594 1.81692 -2.41586e-007 
3 0 76 1 
3 76 2 1 
3 76 3 2 
3 76 4 3 
3 76 5 4 
3 76 6 5 
3 76 7 6 
3 76 8 7 
3 76 9 8 
3 76 75 9 
3 75 74 9 
3 74 10 9 
3 0 77 76 
3 73 10 74 
3 72 10 73 
3 71 10 72 
3 70 10 71 
3 70 11 10 
3 69 11 70 
3 68 11 69 
3 68 12 11 
3 67 12 68 
3 66 12 67 
3 66 13 12 
3 65 13 66 
3 64 13 65 
3 64 14 13 
3 63 14 64 
3 62 14 63 
3 62 15 14 
3 61 15 62 
3 61 16 15 
3 60 16 61 
3 59 16 60 
3 59 17 16 
3 58 17 59 
3 57 17 58 
3 57 18 17 
3 56 18 57 
3 56 19 18 
3 55 19 56 
3 0 40 77 
3 54 19 55 
3 0 41 40 
3 0 42 41 
3 0 38 42 
3 38 43 42 
3 53 19 54 
3 38 44 43 
3 38 45 44 
3 53 20 19 
3 52 20 53 
3 38 46 45 
3 38 47 46 
3 38 48 47 
3 51 20 52 
3 38 49 48 
3 38 50 49 
3 38 51 50 
3 38 20 51 
3 38 21 20 
3 38 22 21 
3 38 23 22 
3 0 39 38 
3 37 23 38 
3 37 24 23 
3 36 24 37 
3 35 24 36 
3 34 24 35 
3 33 24 34 
3 33 25 24 
3 32 25 33 
3 31 25 32 
3 30 25 31 
3 29 25 30 
3 29 26 25 
3 28 26 29 
3 27 26 28 
3 154 78 79 
3 80 154 79 
3 81 154 80 
3 82 154 81 
3 83 154 82 
3 84 154 83 
3 85 154 84 
3 86 154 85 
3 87 154 86 
3 153 154 87 
3 152 153 87 
3 88 152 87 
3 155 78 154 
3 88 151 152 
3 88 150 151 
3 88 149 150 
3 88 148 149 
3 89 148 88 
3 89 147 148 
3 89 146 147 
3 90 146 89 
3 90 145 146 
3 90 144 145 
3 91 144 90 
3 91 143 144 
3 91 142 143 
3 92 142 91 
3 92 141 142 
3 92 140 141 
3 93 140 92 
3 93 139 140 
3 94 139 93 
3 94 138 139 
3 94 137 138 
3 95 137 94 
3 95 136 137 
3 95 135 136 
3 96 135 95 
3 96 134 135 
3 97 134 96 
3 97 133 134 
3 118 78 155 
3 97 132 133 
3 119 78 118 
3 120 78 119 
3 116 78 120 
3 121 116 120 
3 97 131 132 
3 122 116 121 
3 123 116 122 
3 98 131 97 
3 98 130 131 
3 124 116 123 
3 125 116 124 
3 126 116 125 
3 98 129 130 
3 127 116 126 
3 128 116 127 
3 129 116 128 
3 98 116 129 
3 99 116 98 
3 100 116 99 
3 101 116 100 
3 117 78 116 
3 101 115 116 
3 102 115 101 
3 102 114 115 
3 102 113 114 
3 102 112 113 
3 102 111 112 
3 103 111 102 
3 103 110 111 
3 103 109 110 
3 103 108 109 
3 103 107 108 
3 104 107 103 
3 104 106 107 
3 104 105 106 
3 157 159 158 
3 157 158 156 
3 159 161 160 
3 159 160 158 
3 161 163 162 
3 161 162 160 
3 163 165 164 
3 163 164 162 
3 165 167 166 
3 165 166 164 
3 167 169 168 
3 167 168 166 
3 169 171 170 
3 169 170 168 
3 171 173 172 
3 171 172 170 
3 173 175 174 
3 173 174 172 
3 175 177 176 
3 175 176 174 
3 177 179 178 
3 177 178 176 
3 179 181 180 
3 179 180 178 
3 181 183 182 
3 181 182 180 
3 183 185 184 
3 183 184 182 
3 185 187 186 
3 185 186 184 
3 187 189 188 
3 187 188 186 
3 189 191 190 
3 189 190 188 
3 191 193 192 
3 191 192 190 
3 193 195 194 
3 193 194 192 
3 195 197 196 
3 195 196 194 
3 197 199 198 
3 197 198 196 
3 199 201 200 
3 199 200 198 
3 201 203 202 
3 201 202 200 
3 203 205 204 
3 203 204 202 
3 205 207 206 
3 205 206 204 
3 207 209 208 
3 207 208 206 
3 209 211 210 
3 209 210 208 
3 211 213 212 
3 211 212 210 
3 213 215 214 
3 213 214 212 
3 215 217 216 
3 215 216 214 
3 217 219 218 
3 217 218 216 
3 219 221 220 
3 219 220 218 
3 221 223 222 
3 221 222 220 
3 223 225 224 
3 223 224 222 
3 225 227 226 
3 225 226 224 
3 227 229 228 
3 227 228 226 
3 229 231 230 
3 229 230 228 
3 231 233 232 
3 231 232 230 
3 233 235 234 
3 233 234 232 
3 235 157 156 
3 235 156 234 
3 237 239 238 
3 237 238 236 
3 239 241 240 
3 239 240 238 
3 241 243 242 
3 241 242 240 
3 243 245 244 
3 243 244 242 
3 245 247 246 
3 245 246 244 
3 247 249 248 
3 247 248 246 
3 249 251 250 
3 249 250 248 
3 251 253 252 
3 251 252 250 
3 253 255 254 
3 253 254 252 
3 255 257 256 
3 255 256 254 
3 257 259 258 
3 257 258 256 
3 259 261 260 
3 259 260 258 
3 261 263 262 
3 261 262 260 
3 263 265 264 
3 263 264 262 
3 265 267 266 
3 265 266 264 
3 267 269 268 
3 267 268 266 
3 269 271 270 
3 269 270 268 
3 271 273 272 
3 271 272 270 
3 273 275 274 
3 273 274 272 
3 275 277 276 
3 275 276 274 
3 277 279 278 
3 277 278 276 
3 279 281 280 
3 279 280 278 
3 281 283 282 
3 281 282 280 
3 283 285 284 
3 283 284 282 
3 285 287 286 
3 285 286 284 
3 287 289 288 
3 287 288 286 
3 289 291 290 
3 289 290 288 
3 291 293 292 
3 291 292 290 
3 293 295 294 
3 293 294 292 
3 295 297 296 
3 295 296 294 
3 297 299 298 
3 297 298 296 
3 299 301 300 
3 299 300 298 
3 301 303 302 
3 301 302 300 
3 303 305 304 
3 303 304 302 
3 305 307 306 
3 305 306 304 
3 307 309 308 
3 307 308 306 
3 309 311 310 
3 309 310 308 
3 311 237 236 
3 311 236 310 
