ply
format ascii 1.0
comment VCGLIB generated
element vertex 32
property float x
property float y
property float z
property float nx
property float ny
property float nz
element face 28
property list uchar int vertex_indices
end_header
0.021 -0.23 0.1 5.64296e-009 -1.41074e-009 0.032274 
0.174 0.096 0.1 1.79075e-008 -4.47688e-009 0.102419 
1.74846e-008 0.449 0.1 6.23376e-009 -1.55844e-009 0.035653 
0.101 0.449 0.1 1.04727e-008 -2.61818e-009 0.059897 
0.222 0.196 0.1 2.20308e-008 -5.50772e-009 0.126002 
0.338 0.449 0.1 4.4236e-009 -1.1059e-009 0.0253 
0.438 0.449 0.1 1.60001e-008 -4.00003e-009 0.09151 
0.12 -0.23 0.1 1.90113e-008 -4.75283e-009 0.108732 
0.021 -0.23 -0.1 -5.64296e-009 1.41074e-009 -0.032274 
0.174 0.096 -0.1 -1.79075e-008 4.47688e-009 -0.102419 
-1.74846e-008 0.449 -0.1 -6.23376e-009 1.55844e-009 -0.035653 
0.101 0.449 -0.1 -1.04727e-008 2.61818e-009 -0.059897 
0.222 0.196 -0.1 -2.20308e-008 5.50772e-009 -0.126002 
0.338 0.449 -0.1 -4.4236e-009 1.1059e-009 -0.0253 
0.438 0.449 -0.1 -1.60001e-008 4.00003e-009 -0.09151 
0.12 -0.23 -0.1 -1.90113e-008 4.75283e-009 -0.108732 
0.021 -0.23 -0.1 -0.905259 -1.57514 8.9429e-008 
0.021 -0.23 0.1 -1.81052 -0.150279 3.09993e-007 
0.174 0.096 -0.1 -2.70747 0.407597 4.91206e-007 
0.174 0.096 0.1 -2.69917 -0.459388 4.51857e-007 
-1.74846e-008 0.449 -0.1 -1.79391 0.115751 3.18717e-007 
1.74846e-008 0.449 0.1 -0.896954 1.55788 2.24925e-007 
0.101 0.449 -0.1 0.902134 2.43146 -5.14519e-008 
0.101 0.449 0.1 1.80427 1.86291 -2.34038e-007 
0.222 0.196 -0.1 0.89526 1.27969 -1.00595e-007 
0.222 0.196 0.1 -0.915882 1.26501 2.15433e-007 
0.338 0.449 -0.1 -1.81802 1.83356 3.98019e-007 
0.338 0.449 0.1 -0.909008 2.41678 2.64577e-007 
0.438 0.449 -0.1 0.905603 1.57587 -8.9457e-008 
0.438 0.449 0.1 1.81121 0.151747 -3.10049e-007 
0.12 -0.23 -0.1 1.81121 -1.84825 -3.97471e-007 
0.12 -0.23 0.1 0.905603 -2.42413 -2.64302e-007 
3 1 3 2 
3 1 4 3 
3 4 6 5 
3 4 7 6 
3 1 7 4 
3 0 7 1 
3 11 9 10 
3 12 9 11 
3 14 12 13 
3 15 12 14 
3 15 9 12 
3 15 8 9 
3 17 19 18 
3 17 18 16 
3 19 21 20 
3 19 20 18 
3 21 23 22 
3 21 22 20 
3 23 25 24 
3 23 24 22 
3 25 27 26 
3 25 26 24 
3 27 29 28 
3 27 28 26 
3 29 31 30 
3 29 30 28 
3 31 17 16 
3 31 16 30 
