ply
format ascii 1.0
comment VCGLIB generated
element vertex 44
property float x
property float y
property float z
property float nx
property float ny
property float nz
element face 44
property list uchar int vertex_indices
end_header
0.567 -4.37114e-009 0.0999998 3.5144e-009 -8.78599e-010 0.0201 
0.476 0.201 0.1 9.5095e-009 -2.37737e-009 0.054388 
0.186 0.201 0.1 1.27648e-008 -3.19119e-009 0.073006 
0.1 -4.37114e-009 0.1 3.5144e-009 -8.78599e-010 0.0201 
1.74846e-008 -4.37114e-009 0.1 2.30128e-008 -5.75321e-009 0.131618 
0.293 0.686 0.1 8.27614e-009 -2.06903e-009 0.047334 
0.362 0.686 0.1 2.57694e-008 -6.44236e-009 0.147384 
0.667 -4.37114e-009 0.0999998 2.17824e-008 -5.44561e-009 0.124581 
0.436 0.289 0.1 1.36748e-008 -3.41871e-009 0.078211 
0.326 0.536 0.1 2.64308e-008 -6.60772e-009 0.151167 
0.224 0.289 0.1 9.30808e-009 -2.32702e-009 0.053236 
0.567 4.37114e-009 -0.1 -3.5144e-009 8.78599e-010 -0.0201 
0.476 0.201 -0.1 -9.5095e-009 2.37737e-009 -0.054388 
0.186 0.201 -0.1 -1.27648e-008 3.19119e-009 -0.073006 
0.1 4.37114e-009 -0.1 -3.5144e-009 8.78599e-010 -0.0201 
-1.74846e-008 4.37114e-009 -0.1 -2.30128e-008 5.75321e-009 -0.131618 
0.293 0.686 -0.1 -8.27614e-009 2.06903e-009 -0.047334 
0.362 0.686 -0.1 -2.57694e-008 6.44236e-009 -0.147384 
0.667 4.37114e-009 -0.1 -2.17824e-008 5.44561e-009 -0.124581 
0.436 0.289 -0.1 -1.36748e-008 3.41871e-009 -0.078211 
0.326 0.536 -0.1 -2.64308e-008 6.60772e-009 -0.151167 
0.224 0.289 -0.1 -9.30808e-009 2.32702e-009 -0.053236 
0.567 4.37114e-009 -0.1 -0.910986 -2.41244 5.38309e-008 
0.567 -4.37114e-009 0.0999998 -1.82197 -1.82487 2.38796e-007 
0.476 0.201 -0.1 -1.82197 -1.82487 2.38796e-007 
0.476 0.201 0.1 -0.910986 -2.41244 5.38309e-008 
0.186 0.201 -0.1 0.919381 -2.39337 -2.65367e-007 
0.186 0.201 0.1 1.83876 -1.78673 -3.996e-007 
0.1 4.37114e-009 -0.1 1.83876 -1.78673 -3.996e-007 
0.1 -4.37114e-009 0.1 0.919381 -2.39337 -2.65367e-007 
-1.74846e-008 4.37114e-009 -0.1 -0.91963 -1.60721 9.05396e-008 
1.74846e-008 -4.37114e-009 0.1 -1.83926 -0.214427 3.12213e-007 
0.293 0.686 -0.1 -1.83926 1.78557 3.99636e-007 
0.293 0.686 0.1 -0.91963 2.39279 2.65386e-007 
0.362 0.686 -0.1 0.913757 2.40626 -5.45853e-008 
0.362 0.686 0.1 1.82751 1.81252 -2.40304e-007 
0.667 4.37114e-009 -0.1 1.82751 -0.187476 -3.27727e-007 
0.667 -4.37114e-009 0.0999998 0.913757 -1.59374 -2.29431e-007 
0.436 0.289 -0.1 -0.913506 1.59318 2.29362e-007 
0.436 0.289 0.1 -1.82701 0.186351 3.2759e-007 
0.326 0.536 -0.1 -0.902722 -1.19534 1.05587e-007 
0.326 0.536 0.1 0.935074 -1.17021 -2.14645e-007 
0.224 0.289 -0.1 1.84858 0.236619 -3.12873e-007 
0.224 0.289 0.1 0.92429 1.61831 -9.08695e-008 
3 4 6 5 
3 4 9 6 
3 9 7 6 
3 4 10 9 
3 8 7 9 
3 4 2 10 
3 2 8 10 
3 2 1 8 
3 1 7 8 
3 4 3 2 
3 0 7 1 
3 17 15 16 
3 20 15 17 
3 18 20 17 
3 21 15 20 
3 18 19 20 
3 13 15 21 
3 19 13 21 
3 12 13 19 
3 18 12 19 
3 14 15 13 
3 18 11 12 
3 23 25 24 
3 23 24 22 
3 25 27 26 
3 25 26 24 
3 27 29 28 
3 27 28 26 
3 29 31 30 
3 29 30 28 
3 31 33 32 
3 31 32 30 
3 33 35 34 
3 33 34 32 
3 35 37 36 
3 35 36 34 
3 37 23 22 
3 37 22 36 
3 39 41 40 
3 39 40 38 
3 41 43 42 
3 41 42 40 
3 43 39 38 
3 43 38 42 
