ply
format ascii 1.0
comment VCGLIB generated
element vertex 424
property float x
property float y
property float z
property float nx
property float ny
property float nz
element face 428
property list uchar int vertex_indices
end_header
0.273 0.682 0.1 3.61636e-009 -9.04089e-010 0.0206832 
0.308012 0.680219 0.1 1.16723e-009 -2.91809e-010 0.0066758 
0.339597 0.675083 0.1 1.2358e-009 -3.08951e-010 0.00706797 
0.367828 0.666906 0.1 1.32797e-009 -3.31993e-010 0.00759511 
0.392778 0.656 0.1 1.4372e-009 -3.59301e-010 0.00821984 
0.414519 0.642677 0.1 1.55746e-009 -3.89365e-010 0.00890764 
0.433125 0.62725 0.1 1.68333e-009 -4.20831e-010 0.0096275 
0.448668 0.610031 0.1 1.76797e-009 -4.41991e-010 0.0101116 
0.461222 0.591333 0.1 1.28861e-009 -3.22153e-010 0.00737001 
0.470859 0.571469 0.1 1.47221e-009 -3.68052e-010 0.00842005 
0.477653 0.55075 0.1 1.18851e-009 -2.97127e-010 0.00679748 
0.481675 0.52949 0.1 1.19244e-009 -2.98111e-010 0.00681998 
0.483 0.508 0.1 1.12682e-009 -2.81704e-010 0.00644464 
0.48231 0.490766 0.1 8.95141e-010 -2.23785e-010 0.00511961 
0.480227 0.474546 0.1 8.30636e-010 -2.07659e-010 0.00475068 
0.476734 0.459312 0.1 7.72127e-010 -1.93032e-010 0.00441605 
0.471815 0.445037 0.1 7.20007e-010 -1.80002e-010 0.00411796 
0.465451 0.431692 0.1 6.74838e-010 -1.68709e-010 0.00385962 
0.457625 0.41925 0.1 6.37326e-010 -1.59332e-010 0.00364508 
0.44832 0.407683 0.1 7.62972e-010 -1.90743e-010 0.00436369 
0.437519 0.396963 0.1 5.92768e-010 -1.48192e-010 0.00339024 
0.425203 0.387063 0.1 3.57316e-009 -8.93292e-010 0.0204361 
0.411356 0.377954 0.1 3.39064e-010 -8.4766e-011 0.00193922 
0.395961 0.369609 0.1 2.39463e-010 -5.98657e-011 0.00136957 
0.379 0.362 0.1 1.68165e-010 -4.20413e-011 0.000961793 
0.379 0.36 0.1 5.2869e-010 -1.32172e-010 0.00302375 
0.403654 0.354263 0.1 9.74812e-010 -2.43703e-010 0.00557528 
0.426565 0.346606 0.1 1.1037e-009 -2.75924e-010 0.00631241 
0.447656 0.337109 0.1 1.24396e-009 -3.10991e-010 0.00711464 
0.466852 0.325852 0.1 1.39499e-009 -3.48748e-010 0.00797841 
0.484075 0.312914 0.1 1.48151e-009 -3.70378e-010 0.00847325 
0.49925 0.298375 0.1 1.13834e-009 -2.84586e-010 0.00651056 
0.5123 0.282315 0.1 1.05743e-009 -2.64357e-010 0.00604779 
0.523148 0.264815 0.1 1.08139e-009 -2.70348e-010 0.00618484 
0.531719 0.245953 0.1 1.13285e-009 -2.83214e-010 0.00647917 
0.537935 0.22581 0.1 9.6281e-010 -2.40702e-010 0.00550663 
0.541721 0.204466 0.1 1.27969e-009 -3.19924e-010 0.007319 
0.543 0.182 0.1 1.23382e-009 -3.08456e-010 0.00705664 
0.541662 0.160773 0.1 1.01211e-009 -2.53027e-010 0.00578857 
0.537542 0.139352 0.1 1.28271e-009 -3.20678e-010 0.00733627 
0.530484 0.118125 0.1 1.32821e-009 -3.32053e-010 0.0075965 
0.520333 0.097481 0.1 1.59508e-009 -3.9877e-010 0.00912279 
0.506932 0.07781 0.1 5.62262e-009 -1.40565e-009 0.0321576 
0.490125 0.0595 0.1 2.1442e-009 -5.36049e-010 0.0122634 
0.469755 0.04294 0.1 1.80456e-009 -4.5114e-010 0.0103209 
0.445667 0.028519 0.1 1.44591e-009 -3.61477e-010 0.00826963 
0.417703 0.016625 0.1 1.0763e-009 -2.69076e-010 0.00615574 
0.385708 0.007648 0.1 7.04598e-010 -1.7615e-010 0.00402983 
0.349526 0.001977 0.1 3.40586e-010 -8.51464e-011 0.00194792 
0.309 -4.37114e-009 0.1 8.08867e-011 -2.02217e-011 0.000462618 
0.075 -4.37114e-009 0.1 3.02635e-008 -7.56589e-009 0.173087 
0.075 0.682 0.1 1.47325e-008 -3.68312e-009 0.08426 
0.238 0.39 0.1 3.95038e-009 -9.87594e-010 0.0225935 
0.26121 0.390751 0.1 1.14761e-010 -2.86902e-011 0.000656356 
0.282347 0.393005 0.1 1.92019e-010 -4.80047e-011 0.00109822 
0.301422 0.396766 0.1 4.73756e-010 -1.18439e-010 0.00270957 
0.318444 0.402037 0.1 4.96898e-010 -1.24225e-010 0.00284193 
0.333425 0.408822 0.1 3.08664e-010 -7.71658e-011 0.00176535 
0.346375 0.417125 0.1 5.77928e-010 -1.44482e-010 0.00330536 
0.357304 0.426948 0.1 6.2297e-010 -1.55742e-010 0.00356297 
0.366222 0.438296 0.1 6.75631e-010 -1.68908e-010 0.00386416 
0.373141 0.451172 0.1 7.35063e-010 -1.83766e-010 0.00420407 
0.378069 0.465579 0.1 8.0068e-010 -2.0017e-010 0.00457935 
0.381019 0.48152 0.1 8.71994e-010 -2.17999e-010 0.00498723 
0.382 0.499 0.1 8.34434e-010 -2.08609e-010 0.00477241 
0.381377 0.511583 0.1 4.3807e-010 -1.09518e-010 0.00250547 
0.379435 0.523745 0.1 8.11374e-010 -2.02844e-010 0.00464052 
0.376063 0.535359 0.1 4.07918e-010 -1.0198e-010 0.00233302 
0.371148 0.546296 0.1 7.89742e-010 -1.97436e-010 0.0045168 
0.364581 0.556428 0.1 3.67346e-010 -9.18367e-011 0.00210098 
0.35625 0.565625 0.1 7.69126e-010 -1.92282e-010 0.00439889 
0.346044 0.57376 0.1 3.20102e-010 -8.00254e-011 0.00183077 
0.333852 0.580704 0.1 2.5831e-010 -6.45775e-011 0.00147736 
0.319563 0.586328 0.1 1.79285e-010 -4.48213e-011 0.00102539 
0.303065 0.590505 0.1 6.9295e-010 -1.73237e-010 0.00396321 
0.284248 0.593105 0.1 9.5732e-011 -2.3933e-011 0.000547523 
0.263 0.594 0.1 9.15563e-010 -2.28891e-010 0.00523641 
0.173 0.594 0.1 2.34064e-008 -5.85161e-009 0.133869 
0.173 0.39 0.1 6.0035e-009 -1.50087e-009 0.034336 
0.296 0.088 0.1 5.62237e-009 -1.40559e-009 0.0321562 
0.323031 0.089151 0.1 2.43968e-010 -6.09918e-011 0.00139533 
0.346745 0.092458 0.1 8.79738e-010 -2.19935e-010 0.00503152 
0.367328 0.097703 0.1 3.28102e-010 -8.20254e-011 0.00187652 
0.384963 0.104667 0.1 4.05981e-010 -1.01495e-010 0.00232194 
0.399834 0.11313 0.1 8.93587e-010 -2.23397e-010 0.00511072 
0.412125 0.122875 0.1 4.4374e-010 -1.10935e-010 0.0025379 
0.42202 0.133682 0.1 8.81336e-010 -2.20334e-010 0.00504065 
0.429704 0.145333 0.1 4.65092e-010 -1.16273e-010 0.00266002 
0.435359 0.157609 0.1 8.66867e-010 -2.16717e-010 0.0049579 
0.439171 0.170292 0.1 8.45458e-010 -2.11365e-010 0.00483546 
0.441324 0.183161 0.1 4.576e-010 -1.144e-010 0.00261717 
0.442 0.196 0.1 8.8693e-010 -2.21732e-010 0.00507265 
0.440996 0.21111 0.1 5.12736e-010 -1.28184e-010 0.00293251 
0.437968 0.22538 0.1 8.5468e-010 -2.1367e-010 0.0048882 
0.432891 0.238719 0.1 8.11352e-010 -2.02838e-010 0.00464039 
0.425741 0.251037 0.1 4.21338e-010 -1.05334e-010 0.00240977 
0.416494 0.262244 0.1 7.46738e-010 -1.86684e-010 0.00427084 
0.405125 0.27225 0.1 3.53955e-010 -8.84887e-011 0.00202439 
0.391611 0.280964 0.1 6.92523e-010 -1.73131e-010 0.00396077 
0.375926 0.288296 0.1 2.79456e-010 -6.98639e-011 0.0015983 
0.358047 0.294156 0.1 6.48096e-010 -1.62024e-010 0.00370668 
0.337949 0.298454 0.1 1.95198e-010 -4.87994e-011 0.0011164 
0.315608 0.301098 0.1 9.1506e-011 -2.28765e-011 0.000523353 
0.291 0.302 0.1 7.62192e-010 -1.90548e-010 0.00435923 
0.173 0.302 0.1 1.27764e-008 -3.19409e-009 0.0730722 
0.173 0.088 0.1 5.55938e-009 -1.38985e-009 0.031796 
0.273 0.682 -0.1 -3.61636e-009 9.04089e-010 -0.0206832 
0.308012 0.680219 -0.1 -1.16723e-009 2.91809e-010 -0.0066758 
0.339597 0.675083 -0.1 -1.2358e-009 3.08951e-010 -0.00706797 
0.367828 0.666906 -0.1 -1.32797e-009 3.31993e-010 -0.00759511 
0.392778 0.656 -0.1 -1.4372e-009 3.59301e-010 -0.00821984 
0.414519 0.642677 -0.1 -1.55746e-009 3.89365e-010 -0.00890764 
0.433125 0.62725 -0.1 -1.68332e-009 4.20831e-010 -0.0096275 
0.448668 0.610031 -0.1 -1.76797e-009 4.41991e-010 -0.0101116 
0.461222 0.591333 -0.1 -1.28861e-009 3.22153e-010 -0.00737001 
0.470859 0.571469 -0.1 -1.47221e-009 3.68052e-010 -0.00842005 
0.477653 0.55075 -0.1 -1.18851e-009 2.97127e-010 -0.00679748 
0.481675 0.52949 -0.1 -1.19244e-009 2.98111e-010 -0.00681998 
0.483 0.508 -0.1 -1.12682e-009 2.81704e-010 -0.00644464 
0.48231 0.490766 -0.1 -8.95141e-010 2.23785e-010 -0.00511961 
0.480227 0.474546 -0.1 -8.30636e-010 2.07659e-010 -0.00475068 
0.476734 0.459312 -0.1 -7.72127e-010 1.93032e-010 -0.00441605 
0.471815 0.445037 -0.1 -7.20007e-010 1.80002e-010 -0.00411796 
0.465451 0.431692 -0.1 -6.74838e-010 1.68709e-010 -0.00385962 
0.457625 0.41925 -0.1 -6.37326e-010 1.59332e-010 -0.00364508 
0.44832 0.407683 -0.1 -7.62972e-010 1.90743e-010 -0.00436369 
0.437519 0.396963 -0.1 -5.92768e-010 1.48192e-010 -0.00339024 
0.425203 0.387063 -0.1 -3.57316e-009 8.93292e-010 -0.0204361 
0.411356 0.377954 -0.1 -3.39064e-010 8.47659e-011 -0.00193922 
0.395961 0.369609 -0.1 -2.39463e-010 5.98657e-011 -0.00136957 
0.379 0.362 -0.1 -1.68165e-010 4.20413e-011 -0.000961792 
0.379 0.36 -0.1 -5.2869e-010 1.32172e-010 -0.00302375 
0.403654 0.354263 -0.1 -9.74812e-010 2.43703e-010 -0.00557528 
0.426565 0.346606 -0.1 -1.1037e-009 2.75924e-010 -0.00631241 
0.447656 0.337109 -0.1 -1.24396e-009 3.10991e-010 -0.00711464 
0.466852 0.325852 -0.1 -1.39499e-009 3.48747e-010 -0.00797841 
0.484075 0.312914 -0.1 -1.48151e-009 3.70378e-010 -0.00847325 
0.49925 0.298375 -0.1 -1.13834e-009 2.84586e-010 -0.00651056 
0.5123 0.282315 -0.1 -1.05743e-009 2.64357e-010 -0.00604779 
0.523148 0.264815 -0.1 -1.08139e-009 2.70348e-010 -0.00618484 
0.531719 0.245953 -0.1 -1.13285e-009 2.83214e-010 -0.00647917 
0.537935 0.22581 -0.1 -9.6281e-010 2.40702e-010 -0.00550663 
0.541721 0.204466 -0.1 -1.27969e-009 3.19924e-010 -0.007319 
0.543 0.182 -0.1 -1.23382e-009 3.08456e-010 -0.00705664 
0.541662 0.160773 -0.1 -1.01211e-009 2.53027e-010 -0.00578857 
0.537542 0.139352 -0.1 -1.28271e-009 3.20678e-010 -0.00733627 
0.530484 0.118125 -0.1 -1.32821e-009 3.32053e-010 -0.0075965 
0.520333 0.097481 -0.1 -1.59508e-009 3.9877e-010 -0.00912279 
0.506932 0.07781 -0.1 -5.62262e-009 1.40565e-009 -0.0321576 
0.490125 0.0595 -0.1 -2.1442e-009 5.36049e-010 -0.0122634 
0.469755 0.04294 -0.1 -1.80456e-009 4.5114e-010 -0.0103209 
0.445667 0.028519 -0.1 -1.44591e-009 3.61477e-010 -0.00826963 
0.417703 0.016625 -0.1 -1.0763e-009 2.69076e-010 -0.00615574 
0.385708 0.007648 -0.1 -7.04598e-010 1.7615e-010 -0.00402983 
0.349526 0.001977 -0.1 -3.40586e-010 8.51464e-011 -0.00194792 
0.309 4.37114e-009 -0.1 -8.08867e-011 2.02217e-011 -0.000462618 
0.075 4.37114e-009 -0.1 -3.02635e-008 7.56589e-009 -0.173087 
0.075 0.682 -0.1 -1.47325e-008 3.68312e-009 -0.08426 
0.238 0.39 -0.1 -3.95038e-009 9.87595e-010 -0.0225935 
0.26121 0.390751 -0.1 -1.14761e-010 2.86902e-011 -0.000656356 
0.282347 0.393005 -0.1 -1.92019e-010 4.80047e-011 -0.00109822 
0.301422 0.396766 -0.1 -4.73756e-010 1.18439e-010 -0.00270957 
0.318444 0.402037 -0.1 -4.96898e-010 1.24225e-010 -0.00284193 
0.333425 0.408822 -0.1 -3.08664e-010 7.71658e-011 -0.00176535 
0.346375 0.417125 -0.1 -5.77928e-010 1.44482e-010 -0.00330536 
0.357304 0.426948 -0.1 -6.2297e-010 1.55742e-010 -0.00356297 
0.366222 0.438296 -0.1 -6.75631e-010 1.68908e-010 -0.00386416 
0.373141 0.451172 -0.1 -7.35063e-010 1.83766e-010 -0.00420407 
0.378069 0.465579 -0.1 -8.0068e-010 2.0017e-010 -0.00457935 
0.381019 0.48152 -0.1 -8.71994e-010 2.17999e-010 -0.00498723 
0.382 0.499 -0.1 -8.34434e-010 2.08609e-010 -0.00477241 
0.381377 0.511583 -0.1 -4.3807e-010 1.09518e-010 -0.00250547 
0.379435 0.523745 -0.1 -8.11374e-010 2.02844e-010 -0.00464052 
0.376063 0.535359 -0.1 -4.07918e-010 1.0198e-010 -0.00233302 
0.371148 0.546296 -0.1 -7.89742e-010 1.97436e-010 -0.0045168 
0.364581 0.556428 -0.1 -3.67346e-010 9.18367e-011 -0.00210098 
0.35625 0.565625 -0.1 -7.69126e-010 1.92282e-010 -0.00439889 
0.346044 0.57376 -0.1 -3.20102e-010 8.00254e-011 -0.00183077 
0.333852 0.580704 -0.1 -2.5831e-010 6.45775e-011 -0.00147736 
0.319563 0.586328 -0.1 -1.79285e-010 4.48213e-011 -0.00102539 
0.303065 0.590505 -0.1 -6.9295e-010 1.73237e-010 -0.00396321 
0.284248 0.593105 -0.1 -9.5732e-011 2.3933e-011 -0.000547523 
0.263 0.594 -0.1 -9.15563e-010 2.28891e-010 -0.00523641 
0.173 0.594 -0.1 -2.34064e-008 5.85161e-009 -0.133869 
0.173 0.39 -0.1 -6.0035e-009 1.50087e-009 -0.034336 
0.296 0.088 -0.1 -5.62237e-009 1.40559e-009 -0.0321562 
0.323031 0.089151 -0.1 -2.43968e-010 6.09918e-011 -0.00139533 
0.346745 0.092458 -0.1 -8.79738e-010 2.19935e-010 -0.00503152 
0.367328 0.097703 -0.1 -3.28102e-010 8.20254e-011 -0.00187652 
0.384963 0.104667 -0.1 -4.05981e-010 1.01495e-010 -0.00232194 
0.399834 0.11313 -0.1 -8.93587e-010 2.23397e-010 -0.00511072 
0.412125 0.122875 -0.1 -4.4374e-010 1.10935e-010 -0.0025379 
0.42202 0.133682 -0.1 -8.81336e-010 2.20334e-010 -0.00504065 
0.429704 0.145333 -0.1 -4.65092e-010 1.16273e-010 -0.00266002 
0.435359 0.157609 -0.1 -8.66867e-010 2.16717e-010 -0.0049579 
0.439171 0.170292 -0.1 -8.45458e-010 2.11365e-010 -0.00483546 
0.441324 0.183161 -0.1 -4.576e-010 1.144e-010 -0.00261717 
0.442 0.196 -0.1 -8.8693e-010 2.21732e-010 -0.00507265 
0.440996 0.21111 -0.1 -5.12736e-010 1.28184e-010 -0.00293251 
0.437968 0.22538 -0.1 -8.5468e-010 2.1367e-010 -0.0048882 
0.432891 0.238719 -0.1 -8.11352e-010 2.02838e-010 -0.00464039 
0.425741 0.251037 -0.1 -4.21338e-010 1.05334e-010 -0.00240977 
0.416494 0.262244 -0.1 -7.46738e-010 1.86684e-010 -0.00427084 
0.405125 0.27225 -0.1 -3.53955e-010 8.84887e-011 -0.00202439 
0.391611 0.280964 -0.1 -6.92523e-010 1.73131e-010 -0.00396077 
0.375926 0.288296 -0.1 -2.79456e-010 6.98639e-011 -0.0015983 
0.358047 0.294156 -0.1 -6.48096e-010 1.62024e-010 -0.00370668 
0.337949 0.298454 -0.1 -1.95198e-010 4.87994e-011 -0.0011164 
0.315608 0.301098 -0.1 -9.1506e-011 2.28765e-011 -0.000523353 
0.291 0.302 -0.1 -7.62192e-010 1.90548e-010 -0.00435923 
0.173 0.302 -0.1 -1.27764e-008 3.19409e-009 -0.0730722 
0.173 0.088 -0.1 -5.55938e-009 1.38985e-009 -0.031796 
0.273 0.682 -0.1 0.0508022 2.99871 1.22195e-007 
0.273 0.682 0.1 0.101604 2.99742 1.13256e-007 
0.308012 0.680219 -0.1 0.262106 2.98445 8.4627e-008 
0.308012 0.680219 0.1 0.371805 2.97278 6.4936e-008 
0.339597 0.675083 -0.1 0.599213 2.93459 2.35054e-008 
0.339597 0.675083 0.1 0.716921 2.90808 1.76558e-009 
0.367828 0.666906 -0.1 0.956942 2.83733 -4.32935e-008 
0.367828 0.666906 0.1 1.07925 2.7931 -6.66122e-008 
0.392778 0.656 -0.1 1.32354 2.68521 -1.14041e-007 
0.392778 0.656 0.1 1.44552 2.62156 -1.38151e-007 
0.414519 0.642677 -0.1 1.68328 2.47508 -1.86125e-007 
0.414519 0.642677 0.1 1.79906 2.39225 -2.09989e-007 
0.433125 0.62725 -0.1 2.01887 2.20967 -2.56402e-007 
0.433125 0.62725 0.1 2.1229 2.10992 -2.78952e-007 
0.448668 0.610031 -0.1 2.31485 1.89754 -3.21797e-007 
0.448668 0.610031 0.1 2.40277 1.7849 -3.42093e-007 
0.461222 0.591333 -0.1 2.56017 1.55134 -3.79823e-007 
0.461222 0.591333 0.1 2.62964 1.43041 -3.97256e-007 
0.470859 0.571469 -0.1 2.74963 1.18457 -4.28981e-007 
0.470859 0.571469 0.1 2.80014 1.05967 -4.43273e-007 
0.477653 0.55075 -0.1 2.88301 0.80906 -4.68716e-007 
0.477653 0.55075 0.1 2.91536 0.683356 -4.79867e-007 
0.481675 0.52949 -0.1 2.96325 0.433309 -4.99171e-007 
0.481675 0.52949 0.1 2.97878 0.308965 -5.07321e-007 
0.483 0.508 -0.1 2.99541 0.0830748 -5.20103e-007 
0.483 0.508 0.1 2.9965 -0.0184713 -5.24732e-007 
0.48231 0.490766 -0.1 2.99025 -0.207387 -5.31897e-007 
0.48231 0.490766 0.1 2.98291 -0.294757 -5.34432e-007 
0.480227 0.474546 -0.1 2.95842 -0.478241 -5.3817e-007 
0.480227 0.474546 0.1 2.94127 -0.574354 -5.39374e-007 
0.476734 0.459312 -0.1 2.89485 -0.772768 -5.39931e-007 
0.476734 0.459312 0.1 2.86559 -0.87507 -5.39286e-007 
0.471815 0.445037 -0.1 2.7935 -1.08202 -5.35728e-007 
0.471815 0.445037 0.1 2.75068 -1.18667 -5.32815e-007 
0.465451 0.431692 -0.1 2.65171 -1.39332 -5.24544e-007 
0.465451 0.431692 0.1 2.59556 -1.4953 -5.19184e-007 
0.457625 0.41925 -0.1 2.47212 -1.69167 -5.06185e-007 
0.457625 0.41925 0.1 2.40483 -1.78604 -4.98544e-007 
0.44832 0.407683 -0.1 2.26279 -1.96337 -4.8146e-007 
0.44832 0.407683 0.1 2.18806 -2.04633 -4.7202e-007 
0.437519 0.396963 -0.1 2.0354 -2.19893 -4.51998e-007 
0.437519 0.396963 0.1 1.95747 -2.26858 -4.41417e-007 
0.425203 0.387063 -0.1 1.80261 -2.39426 -4.19834e-007 
0.425203 0.387063 0.1 1.72567 -2.45029 -4.08832e-007 
0.411356 0.377954 -0.1 1.57571 -2.55003 -3.86971e-007 
0.411356 0.377954 0.1 1.50268 -2.59374 -3.76112e-007 
0.395961 0.369609 -0.1 1.36242 -2.67069 -3.54953e-007 
0.395961 0.369609 0.1 1.29518 -2.70393 -3.44649e-007 
0.379 0.362 -0.1 1.81863 -1.82479 -3.97744e-007 
0.379 0.362 0.1 2.40932 -0.912393 -4.6114e-007 
0.379 0.36 -0.1 2.22665 0.973977 -3.46746e-007 
0.379 0.36 0.1 1.45329 1.94795 -1.68954e-007 
0.403654 0.354263 -0.1 0.770264 2.89639 -8.07212e-009 
0.403654 0.354263 0.1 0.860593 2.87085 -2.49822e-008 
0.426565 0.346606 -0.1 1.04453 2.80869 -5.98595e-008 
0.426565 0.346606 0.1 1.13814 2.77208 -7.78269e-008 
0.447656 0.337109 -0.1 1.32702 2.68626 -1.14603e-007 
0.447656 0.337109 0.1 1.4223 2.63706 -1.33413e-007 
0.466852 0.325852 -0.1 1.61233 2.52477 -1.71548e-007 
0.466852 0.325852 0.1 1.70709 2.46169 -1.90873e-007 
0.484075 0.312914 -0.1 1.89305 2.32115 -2.2953e-007 
0.484075 0.312914 0.1 1.98424 2.24369 -2.48861e-007 
0.49925 0.298375 -0.1 2.15971 2.07478 -2.86924e-007 
0.49925 0.298375 0.1 2.24398 1.98333 -3.05656e-007 
0.5123 0.282315 -0.1 2.40211 1.78813 -3.41837e-007 
0.5123 0.282315 0.1 2.47598 1.68437 -3.59288e-007 
0.523148 0.264815 -0.1 2.61031 1.46744 -3.92258e-007 
0.523148 0.264815 0.1 2.67077 1.35427 -4.07776e-007 
0.531719 0.245953 -0.1 2.77636 1.12227 -4.36379e-007 
0.531719 0.245953 0.1 2.82149 1.00344 -4.49463e-007 
0.537935 0.22581 -0.1 2.8957 0.764397 -4.72888e-007 
0.537935 0.22581 0.1 2.9248 0.644177 -4.8323e-007 
0.541721 0.204466 -0.1 2.96764 0.406143 -5.01126e-007 
0.541721 0.204466 0.1 2.9814 0.288329 -5.08681e-007 
0.543 0.182 -0.1 2.99479 0.0507682 -5.21406e-007 
0.543 0.182 0.1 2.99442 -0.0689784 -5.26577e-007 
0.541662 0.160773 -0.1 2.97804 -0.314689 -5.34453e-007 
0.541662 0.160773 0.1 2.96202 -0.440653 -5.37158e-007 
0.537542 0.139352 -0.1 2.91292 -0.693261 -5.39615e-007 
0.537542 0.139352 0.1 2.87984 -0.819904 -5.39367e-007 
0.530484 0.118125 -0.1 2.79522 -1.07229 -5.35603e-007 
0.530484 0.118125 0.1 2.74368 -1.19803 -5.32088e-007 
0.520333 0.097481 -0.1 2.6212 -1.44554 -5.21492e-007 
0.520333 0.097481 0.1 2.55027 -1.5673 -5.14412e-007 
0.506932 0.07781 -0.1 2.38958 -1.80226 -4.96587e-007 
0.506932 0.07781 0.1 2.29984 -1.91547 -4.85844e-007 
0.490125 0.0595 -0.1 2.1042 -2.12839 -4.60945e-007 
0.490125 0.0595 0.1 1.99831 -2.2281 -4.46789e-007 
0.469755 0.04294 -0.1 1.77528 -2.40987 -4.15739e-007 
0.469755 0.04294 0.1 1.65813 -2.49192 -3.98842e-007 
0.445667 0.028519 -0.1 1.41873 -2.63621 -3.6329e-007 
0.445667 0.028519 0.1 1.29646 -2.69843 -3.44633e-007 
0.417703 0.016625 -0.1 1.05294 -2.80326 -3.06637e-007 
0.417703 0.016625 0.1 0.931687 -2.84586 -2.87298e-007 
0.385708 0.007648 -0.1 0.695132 -2.91358 -2.48897e-007 
0.385708 0.007648 0.1 0.579833 -2.9387 -2.29836e-007 
0.349526 0.001977 -0.1 0.358415 -2.97469 -1.92695e-007 
0.349526 0.001977 0.1 0.252296 -2.98556 -1.74616e-007 
0.309 4.37114e-009 -0.1 0.0974511 -2.99762 -1.48069e-007 
0.309 -4.37114e-009 0.1 0.0487255 -2.99881 -1.39602e-007 
0.075 4.37114e-009 -0.1 -1 -2 8.74228e-008 
0.075 -4.37114e-009 0.1 -2 -1 3.0598e-007 
0.075 0.682 -0.1 -2 1 3.93403e-007 
0.075 0.682 0.1 -1 2 2.62269e-007 
0.238 0.39 -0.1 -0.0323406 2.99948 1.36766e-007 
0.238 0.39 0.1 -0.0646812 2.99895 1.42398e-007 
0.26121 0.390751 -0.1 -0.170718 2.99332 1.60692e-007 
0.26121 0.390751 0.1 -0.244414 2.9882 1.73353e-007 
0.282347 0.393005 -0.1 -0.405518 2.96984 2.00719e-007 
0.282347 0.393005 0.1 -0.492926 2.95658 2.15422e-007 
0.301422 0.396766 -0.1 -0.682689 2.91747 2.46892e-007 
0.301422 0.396766 0.1 -0.785044 2.89161 2.63658e-007 
0.318444 0.402037 -0.1 -1.00417 2.82143 2.98903e-007 
0.318444 0.402037 0.1 -1.12093 2.7771 3.17381e-007 
0.333425 0.408822 -0.1 -1.36488 2.66368 3.55077e-007 
0.333425 0.408822 0.1 -1.49206 2.59458 3.74293e-007 
0.346375 0.417125 -0.1 -1.74796 2.42739 4.11728e-007 
0.346375 0.417125 0.1 -1.87669 2.3293 4.29947e-007 
0.357304 0.426948 -0.1 -2.1232 2.10537 4.63261e-007 
0.357304 0.426948 0.1 -2.24099 1.97953 4.78356e-007 
0.366222 0.438296 -0.1 -2.4534 1.70914 5.03675e-007 
0.366222 0.438296 0.1 -2.54801 1.56458 5.13899e-007 
0.373141 0.451172 -0.1 -2.70793 1.27034 5.28998e-007 
0.373141 0.451172 0.1 -2.77323 1.12064 5.33871e-007 
0.378069 0.465579 -0.1 -2.87566 0.829261 5.39044e-007 
0.378069 0.465579 0.1 -2.91279 0.687581 5.39343e-007 
0.381019 0.48152 -0.1 -2.96504 0.419967 5.36781e-007 
0.381019 0.48152 0.1 -2.98016 0.294033 5.33921e-007 
0.382 0.499 -0.1 -2.99563 0.0626166 5.2651e-007 
0.382 0.499 0.1 -2.99598 -0.0428665 5.2196e-007 
0.381377 0.511583 -0.1 -2.98504 -0.25658 5.10705e-007 
0.381377 0.511583 0.1 -2.97376 -0.364811 5.04002e-007 
0.379435 0.523745 -0.1 -2.93532 -0.594186 4.87255e-007 
0.379435 0.523745 0.1 -2.90817 -0.715331 4.77212e-007 
0.376063 0.535359 -0.1 -2.83281 -0.967555 4.53011e-007 
0.376063 0.535359 0.1 -2.7846 -1.09863 4.38852e-007 
0.371148 0.546296 -0.1 -2.66341 -1.3637 4.06077e-007 
0.371148 0.546296 0.1 -2.59044 -1.49769 3.8746e-007 
0.364581 0.556428 -0.1 -2.41945 -1.75914 3.46135e-007 
0.364581 0.556428 0.1 -2.32143 -1.8866 3.23426e-007 
0.35625 0.565625 -0.1 -2.10558 -2.12469 2.75278e-007 
0.35625 0.565625 0.1 -1.98774 -2.23532 2.49839e-007 
0.346044 0.57376 -0.1 -1.74151 -2.43291 1.9815e-007 
0.346044 0.57376 0.1 -1.61312 -2.51987 1.719e-007 
0.333852 0.580704 -0.1 -1.35607 -2.66841 1.20463e-007 
0.333852 0.580704 0.1 -1.2274 -2.72998 9.52743e-008 
0.319563 0.586328 -0.1 -0.977928 -2.83045 4.72636e-008 
0.319563 0.586328 0.1 -0.857119 -2.86934 2.44404e-008 
0.303065 0.590505 -0.1 -0.627746 -2.92941 -1.82901e-008 
0.303065 0.590505 0.1 -0.519183 -2.95059 -3.81976e-008 
0.284248 0.593105 -0.1 -0.315829 -2.98029 -7.50514e-008 
0.284248 0.593105 0.1 -0.221038 -2.98882 -9.19982e-008 
0.263 0.594 -0.1 -0.0841653 -2.99823 -1.16341e-007 
0.263 0.594 0.1 -0.0420826 -2.99911 -1.23737e-007 
0.173 0.594 -0.1 1 -2 -2.62269e-007 
0.173 0.594 0.1 2 -1 -3.93403e-007 
0.173 0.39 -0.1 2 1 -3.0598e-007 
0.173 0.39 0.1 1 2 -8.74228e-008 
0.296 0.088 -0.1 -0.0425423 2.99909 1.38533e-007 
0.296 0.088 0.1 -0.0850846 2.99819 1.45931e-007 
0.323031 0.089151 -0.1 -0.223201 2.98861 1.69662e-007 
0.323031 0.089151 0.1 -0.318776 2.97993 1.85993e-007 
0.346745 0.092458 -0.1 -0.523165 2.94986 2.20416e-007 
0.346745 0.092458 0.1 -0.631979 2.92848 2.38506e-007 
0.367328 0.097703 -0.1 -0.861157 2.86817 2.75941e-007 
0.367328 0.097703 0.1 -0.98152 2.82924 2.95284e-007 
0.384963 0.104667 -0.1 -1.2292 2.72933 3.34222e-007 
0.384963 0.104667 0.1 -1.35651 2.66834 3.53817e-007 
0.399834 0.11313 -0.1 -1.61049 2.52182 3.91819e-007 
0.399834 0.11313 0.1 -1.73716 2.4363 4.10228e-007 
0.412125 0.122875 -0.1 -1.98009 2.24248 4.44232e-007 
0.412125 0.122875 0.1 -2.09636 2.13419 4.59828e-007 
0.42202 0.133682 -0.1 -2.30988 1.90116 4.86975e-007 
0.42202 0.133682 0.1 -2.40713 1.77642 4.98526e-007 
0.429704 0.145333 -0.1 -2.57785 1.51952 5.17146e-007 
0.429704 0.145333 0.1 -2.65132 1.38735 5.24215e-007 
0.435359 0.157609 -0.1 -2.77421 1.12463 5.34217e-007 
0.435359 0.157609 0.1 -2.82362 0.994073 5.3715e-007 
0.439171 0.170292 -0.1 -2.90165 0.740686 5.39717e-007 
0.439171 0.170292 0.1 -2.93026 0.617856 5.3935e-007 
0.441324 0.183161 -0.1 -2.9712 0.382597 5.36225e-007 
0.441324 0.183161 0.1 -2.98353 0.270168 5.33465e-007 
0.442 0.196 -0.1 -2.99503 0.038859 5.25367e-007 
0.442 0.196 0.1 -2.99422 -0.0800213 5.20028e-007 
0.440996 0.21111 -0.1 -2.97382 -0.340173 5.0509e-007 
0.440996 0.21111 0.1 -2.95424 -0.481445 4.95491e-007 
0.437968 0.22538 -0.1 -2.89103 -0.770861 4.71789e-007 
0.437968 0.22538 0.1 -2.84741 -0.919006 4.57685e-007 
0.432891 0.238719 -0.1 -2.73405 -1.21345 4.24995e-007 
0.432891 0.238719 0.1 -2.66432 -1.35974 4.06408e-007 
0.425741 0.251037 -0.1 -2.50105 -1.64046 3.65592e-007 
0.425741 0.251037 0.1 -2.40753 -1.77488 3.43363e-007 
0.416494 0.262244 -0.1 -2.20334 -2.02354 2.96792e-007 
0.416494 0.262244 0.1 -2.09268 -2.13778 2.72451e-007 
0.405125 0.27225 -0.1 -1.86327 -2.34177 2.23422e-007 
0.405125 0.27225 0.1 -1.74452 -2.43153 1.98735e-007 
0.391611 0.280964 -0.1 -1.50731 -2.58677 1.50475e-007 
0.391611 0.280964 0.1 -1.38886 -2.65225 1.26903e-007 
0.375926 0.288296 -0.1 -1.1584 -2.76208 8.18065e-008 
0.375926 0.288296 0.1 -1.04638 -2.80643 6.0282e-008 
0.358047 0.294156 -0.1 -0.832034 -2.87841 1.96581e-008 
0.358047 0.294156 0.1 -0.729703 -2.90604 5.58259e-010 
0.337949 0.298454 -0.1 -0.535775 -2.94885 -3.52204e-008 
0.337949 0.298454 0.1 -0.444178 -2.96403 -5.18992e-008 
0.315608 0.301098 -0.1 -0.271685 -2.98547 -8.29965e-008 
0.315608 0.301098 0.1 -0.190787 -2.99173 -9.74139e-008 
0.291 0.302 -0.1 -0.0732601 -2.99866 -1.18266e-007 
0.291 0.302 0.1 -0.03663 -2.99933 -1.24701e-007 
0.173 0.302 -0.1 1 -2 -2.62269e-007 
0.173 0.302 0.1 2 -1 -3.93403e-007 
0.173 0.088 -0.1 2 1 -3.0598e-007 
0.173 0.088 0.1 1 2 -8.74228e-008 
3 50 77 51 
3 77 0 51 
3 77 1 0 
3 77 2 1 
3 77 3 2 
3 77 4 3 
3 77 5 4 
3 77 6 5 
3 77 7 6 
3 77 76 7 
3 76 8 7 
3 50 78 77 
3 75 8 76 
3 74 8 75 
3 74 9 8 
3 73 9 74 
3 72 9 73 
3 71 9 72 
3 70 9 71 
3 70 10 9 
3 69 10 70 
3 68 10 69 
3 68 11 10 
3 67 11 68 
3 66 11 67 
3 66 12 11 
3 65 12 66 
3 64 12 65 
3 64 13 12 
3 63 13 64 
3 63 14 13 
3 62 14 63 
3 62 15 14 
3 61 15 62 
3 61 16 15 
3 60 16 61 
3 60 17 16 
3 59 17 60 
3 59 18 17 
3 58 18 59 
3 58 19 18 
3 57 19 58 
3 56 19 57 
3 56 20 19 
3 55 20 56 
3 55 21 20 
3 54 21 55 
3 53 21 54 
3 52 21 53 
3 50 104 78 
3 104 52 78 
3 104 21 52 
3 104 22 21 
3 104 23 22 
3 104 24 23 
3 104 25 24 
3 104 26 25 
3 104 27 26 
3 104 28 27 
3 104 29 28 
3 104 30 29 
3 104 103 30 
3 103 31 30 
3 50 105 104 
3 102 31 103 
3 101 31 102 
3 100 31 101 
3 100 32 31 
3 99 32 100 
3 98 32 99 
3 98 33 32 
3 97 33 98 
3 96 33 97 
3 96 34 33 
3 95 34 96 
3 94 34 95 
3 94 35 34 
3 93 35 94 
3 93 36 35 
3 92 36 93 
3 91 36 92 
3 91 37 36 
3 90 37 91 
3 89 37 90 
3 89 38 37 
3 88 38 89 
3 88 39 38 
3 87 39 88 
3 86 39 87 
3 86 40 39 
3 85 40 86 
3 84 40 85 
3 84 41 40 
3 83 41 84 
3 82 41 83 
3 81 41 82 
3 81 42 41 
3 80 42 81 
3 79 42 80 
3 50 79 105 
3 50 42 79 
3 50 43 42 
3 50 44 43 
3 50 45 44 
3 50 46 45 
3 50 47 46 
3 50 48 47 
3 50 49 48 
3 183 156 157 
3 106 183 157 
3 107 183 106 
3 108 183 107 
3 109 183 108 
3 110 183 109 
3 111 183 110 
3 112 183 111 
3 113 183 112 
3 182 183 113 
3 114 182 113 
3 184 156 183 
3 114 181 182 
3 114 180 181 
3 115 180 114 
3 115 179 180 
3 115 178 179 
3 115 177 178 
3 115 176 177 
3 116 176 115 
3 116 175 176 
3 116 174 175 
3 117 174 116 
3 117 173 174 
3 117 172 173 
3 118 172 117 
3 118 171 172 
3 118 170 171 
3 119 170 118 
3 119 169 170 
3 120 169 119 
3 120 168 169 
3 121 168 120 
3 121 167 168 
3 122 167 121 
3 122 166 167 
3 123 166 122 
3 123 165 166 
3 124 165 123 
3 124 164 165 
3 125 164 124 
3 125 163 164 
3 125 162 163 
3 126 162 125 
3 126 161 162 
3 127 161 126 
3 127 160 161 
3 127 159 160 
3 127 158 159 
3 210 156 184 
3 158 210 184 
3 127 210 158 
3 128 210 127 
3 129 210 128 
3 130 210 129 
3 131 210 130 
3 132 210 131 
3 133 210 132 
3 134 210 133 
3 135 210 134 
3 136 210 135 
3 209 210 136 
3 137 209 136 
3 211 156 210 
3 137 208 209 
3 137 207 208 
3 137 206 207 
3 138 206 137 
3 138 205 206 
3 138 204 205 
3 139 204 138 
3 139 203 204 
3 139 202 203 
3 140 202 139 
3 140 201 202 
3 140 200 201 
3 141 200 140 
3 141 199 200 
3 142 199 141 
3 142 198 199 
3 142 197 198 
3 143 197 142 
3 143 196 197 
3 143 195 196 
3 144 195 143 
3 144 194 195 
3 145 194 144 
3 145 193 194 
3 145 192 193 
3 146 192 145 
3 146 191 192 
3 146 190 191 
3 147 190 146 
3 147 189 190 
3 147 188 189 
3 147 187 188 
3 148 187 147 
3 148 186 187 
3 148 185 186 
3 185 156 211 
3 148 156 185 
3 149 156 148 
3 150 156 149 
3 151 156 150 
3 152 156 151 
3 153 156 152 
3 154 156 153 
3 155 156 154 
3 213 215 214 
3 213 214 212 
3 215 217 216 
3 215 216 214 
3 217 219 218 
3 217 218 216 
3 219 221 220 
3 219 220 218 
3 221 223 222 
3 221 222 220 
3 223 225 224 
3 223 224 222 
3 225 227 226 
3 225 226 224 
3 227 229 228 
3 227 228 226 
3 229 231 230 
3 229 230 228 
3 231 233 232 
3 231 232 230 
3 233 235 234 
3 233 234 232 
3 235 237 236 
3 235 236 234 
3 237 239 238 
3 237 238 236 
3 239 241 240 
3 239 240 238 
3 241 243 242 
3 241 242 240 
3 243 245 244 
3 243 244 242 
3 245 247 246 
3 245 246 244 
3 247 249 248 
3 247 248 246 
3 249 251 250 
3 249 250 248 
3 251 253 252 
3 251 252 250 
3 253 255 254 
3 253 254 252 
3 255 257 256 
3 255 256 254 
3 257 259 258 
3 257 258 256 
3 259 261 260 
3 259 260 258 
3 261 263 262 
3 261 262 260 
3 263 265 264 
3 263 264 262 
3 265 267 266 
3 265 266 264 
3 267 269 268 
3 267 268 266 
3 269 271 270 
3 269 270 268 
3 271 273 272 
3 271 272 270 
3 273 275 274 
3 273 274 272 
3 275 277 276 
3 275 276 274 
3 277 279 278 
3 277 278 276 
3 279 281 280 
3 279 280 278 
3 281 283 282 
3 281 282 280 
3 283 285 284 
3 283 284 282 
3 285 287 286 
3 285 286 284 
3 287 289 288 
3 287 288 286 
3 289 291 290 
3 289 290 288 
3 291 293 292 
3 291 292 290 
3 293 295 294 
3 293 294 292 
3 295 297 296 
3 295 296 294 
3 297 299 298 
3 297 298 296 
3 299 301 300 
3 299 300 298 
3 301 303 302 
3 301 302 300 
3 303 305 304 
3 303 304 302 
3 305 307 306 
3 305 306 304 
3 307 309 308 
3 307 308 306 
3 309 311 310 
3 309 310 308 
3 311 313 312 
3 311 312 310 
3 313 315 314 
3 313 314 312 
3 315 213 212 
3 315 212 314 
3 317 319 318 
3 317 318 316 
3 319 321 320 
3 319 320 318 
3 321 323 322 
3 321 322 320 
3 323 325 324 
3 323 324 322 
3 325 327 326 
3 325 326 324 
3 327 329 328 
3 327 328 326 
3 329 331 330 
3 329 330 328 
3 331 333 332 
3 331 332 330 
3 333 335 334 
3 333 334 332 
3 335 337 336 
3 335 336 334 
3 337 339 338 
3 337 338 336 
3 339 341 340 
3 339 340 338 
3 341 343 342 
3 341 342 340 
3 343 345 344 
3 343 344 342 
3 345 347 346 
3 345 346 344 
3 347 349 348 
3 347 348 346 
3 349 351 350 
3 349 350 348 
3 351 353 352 
3 351 352 350 
3 353 355 354 
3 353 354 352 
3 355 357 356 
3 355 356 354 
3 357 359 358 
3 357 358 356 
3 359 361 360 
3 359 360 358 
3 361 363 362 
3 361 362 360 
3 363 365 364 
3 363 364 362 
3 365 367 366 
3 365 366 364 
3 367 369 368 
3 367 368 366 
3 369 317 316 
3 369 316 368 
3 371 373 372 
3 371 372 370 
3 373 375 374 
3 373 374 372 
3 375 377 376 
3 375 376 374 
3 377 379 378 
3 377 378 376 
3 379 381 380 
3 379 380 378 
3 381 383 382 
3 381 382 380 
3 383 385 384 
3 383 384 382 
3 385 387 386 
3 385 386 384 
3 387 389 388 
3 387 388 386 
3 389 391 390 
3 389 390 388 
3 391 393 392 
3 391 392 390 
3 393 395 394 
3 393 394 392 
3 395 397 396 
3 395 396 394 
3 397 399 398 
3 397 398 396 
3 399 401 400 
3 399 400 398 
3 401 403 402 
3 401 402 400 
3 403 405 404 
3 403 404 402 
3 405 407 406 
3 405 406 404 
3 407 409 408 
3 407 408 406 
3 409 411 410 
3 409 410 408 
3 411 413 412 
3 411 412 410 
3 413 415 414 
3 413 414 412 
3 415 417 416 
3 415 416 414 
3 417 419 418 
3 417 418 416 
3 419 421 420 
3 419 420 418 
3 421 423 422 
3 421 422 420 
3 423 371 370 
3 423 370 422 
