ply
format ascii 1.0
comment VCGLIB generated
element vertex 376
property float x
property float y
property float z
property float nx
property float ny
property float nz
element face 376
property list uchar int vertex_indices
end_header
0.282397 0.680495 0.1 1.04227e-009 -2.60568e-010 0.00596111 
0.313509 0.676046 0.1 1.10077e-009 -2.75192e-010 0.00629566 
0.342219 0.66875 0.1 1.18614e-009 -2.96536e-010 0.00678395 
0.368407 0.658704 0.1 1.29706e-009 -3.24266e-010 0.00741834 
0.391957 0.646005 0.1 1.4326e-009 -3.58149e-010 0.0081935 
0.41275 0.63075 0.1 1.59213e-009 -3.98033e-010 0.00910592 
0.430668 0.613037 0.1 1.72004e-009 -4.30009e-010 0.00983746 
0.445593 0.592963 0.0999999 1.47085e-009 -3.67712e-010 0.00841226 
0.457406 0.570625 0.0999999 1.47496e-009 -3.68741e-010 0.00843581 
0.465991 0.54612 0.0999999 1.57362e-009 -3.93405e-010 0.00900006 
0.471228 0.519546 0.0999999 1.47499e-009 -3.68749e-010 0.00843599 
0.473 0.491 0.0999999 1.36724e-009 -3.41811e-010 0.00781972 
0.472151 0.471673 0.0999999 9.16425e-010 -2.29106e-010 0.00524134 
0.469625 0.453213 0.0999999 1.12521e-009 -2.81302e-010 0.00643544 
0.465453 0.435656 0.0999999 8.65231e-010 -2.16308e-010 0.00494855 
0.459667 0.419037 0.0999999 8.47655e-010 -2.11914e-010 0.00484802 
0.452297 0.40339 0.0999999 1.04444e-009 -2.61109e-010 0.00597349 
0.443375 0.38875 0.0999999 1.02958e-009 -2.57396e-010 0.00588854 
0.432932 0.375152 0.0999999 4.08098e-009 -1.02024e-009 0.0233405 
0.421 0.36263 0.0999999 7.34394e-010 -1.83599e-010 0.00420025 
0.407609 0.351219 0.0999999 6.09235e-010 -1.52309e-010 0.00348442 
0.392792 0.340954 0.0999999 4.92943e-010 -1.23236e-010 0.00281931 
0.376578 0.331869 0.1 3.85617e-010 -9.64041e-011 0.00220547 
0.359 0.324 0.1 5.85138e-010 -1.46285e-010 0.0033466 
0.374022 0.313292 0.1 8.65358e-010 -2.16339e-010 0.00494927 
0.388176 0.301667 0.0999999 8.76819e-010 -2.19205e-010 0.00501482 
0.401594 0.289125 0.0999999 9.06834e-010 -2.26709e-010 0.00518649 
0.414407 0.275667 0.0999999 1.01291e-009 -2.53227e-010 0.00579317 
0.426749 0.261292 0.0999999 9.1693e-010 -2.29232e-010 0.00524423 
0.43875 0.246 0.0999999 9.98625e-010 -2.49656e-010 0.00571147 
0.450543 0.229792 0.0999999 1.08827e-009 -2.72068e-010 0.00622419 
0.462259 0.212667 0.0999999 1.18466e-009 -2.96166e-010 0.00677549 
0.474031 0.194625 0.0999999 1.28771e-009 -3.21926e-010 0.00736482 
0.485991 0.175667 0.0999999 7.63809e-010 -1.90952e-010 0.00436848 
0.49827 0.155792 0.0999999 1.42865e-009 -3.57163e-010 0.00817093 
0.511 0.135 0.0999999 3.32832e-009 -8.32081e-010 0.0190358 
0.518024 0.123712 0.0999999 4.14514e-010 -1.03629e-010 0.00237075 
0.524695 0.113194 0.0999999 3.94966e-010 -9.87416e-011 0.00225894 
0.531156 0.103219 0.0999999 3.83722e-010 -9.59306e-011 0.00219464 
0.537556 0.093556 0.0999999 3.8082e-010 -9.5205e-011 0.00217804 
0.544038 0.083976 0.0999999 3.86261e-010 -9.65653e-011 0.00220916 
0.55075 0.07425 0.0999999 4.00143e-010 -1.00036e-010 0.00228855 
0.557837 0.064149 0.0999999 4.22515e-010 -1.05629e-010 0.0024165 
0.565445 0.053444 0.0999999 4.53488e-010 -1.13372e-010 0.00259365 
0.573719 0.041906 0.0999999 4.93196e-010 -1.23299e-010 0.00282075 
0.582806 0.029306 0.0999999 5.41824e-010 -1.35456e-010 0.00309887 
0.592851 0.015413 0.0999999 5.99499e-010 -1.49875e-010 0.00342873 
0.604 -4.37114e-009 0.0999999 3.15303e-010 -7.88257e-011 0.00180332 
0.487 -4.37114e-009 0.0999999 5.41156e-009 -1.35289e-009 0.0309505 
0.397 0.14 0.0999999 3.74965e-009 -9.37413e-010 0.0214455 
0.375487 0.172479 0.0999999 1.95154e-009 -4.87885e-010 0.0111615 
0.355815 0.200167 0.0999999 1.38725e-009 -3.46812e-010 0.00793413 
0.337781 0.223437 0.0999999 1.22073e-009 -3.05182e-010 0.00698176 
0.321185 0.242667 0.0999999 1.06646e-009 -2.66614e-010 0.00609942 
0.305825 0.258229 0.1 9.25704e-010 -2.31426e-010 0.00529441 
0.2915 0.2705 0.1 8.00387e-010 -2.00097e-010 0.00457768 
0.278008 0.279854 0.1 3.66271e-010 -9.15677e-011 0.00209483 
0.265148 0.286667 0.1 5.95822e-010 -1.48955e-010 0.0034077 
0.252719 0.291313 0.1 1.85804e-010 -4.64511e-011 0.00106268 
0.240519 0.294167 0.1 9.93618e-011 -2.48405e-011 0.000568283 
0.228346 0.295604 0.1 4.18611e-010 -1.04653e-010 0.00239418 
0.216 0.296 0.1 6.47795e-011 -1.61949e-011 0.000370496 
0.175 0.296 0.1 1.29463e-008 -3.23658e-009 0.0740443 
0.175 -4.37114e-009 0.1 5.07192e-009 -1.26798e-009 0.029008 
0.077 -4.37114e-009 0.1 2.19326e-008 -5.48316e-009 0.12544 
0.077 0.682 0.1 1.42121e-008 -3.55304e-009 0.081284 
0.249 0.682 0.1 3.03614e-009 -7.59036e-010 0.0173647 
0.238 0.384 0.1 4.14166e-009 -1.03542e-009 0.0236876 
0.262713 0.385095 0.1 2.07665e-010 -5.19163e-011 0.00118771 
0.284454 0.388264 0.1 6.48172e-010 -1.62043e-010 0.00370711 
0.303375 0.393328 0.1 3.18152e-010 -7.95379e-011 0.00181962 
0.31963 0.400111 0.1 6.98757e-010 -1.74689e-010 0.00399642 
0.33337 0.408436 0.1 3.96743e-010 -9.91859e-011 0.00226911 
0.34475 0.418125 0.1 7.41814e-010 -1.85453e-010 0.00424268 
0.353921 0.429002 0.1 7.57967e-010 -1.89492e-010 0.00433507 
0.361037 0.440889 0.1 7.78148e-010 -1.94537e-010 0.00445049 
0.36625 0.453609 0.1 4.72295e-010 -1.18074e-010 0.00270121 
0.369713 0.466986 0.1 8.17232e-010 -2.04308e-010 0.00467402 
0.371579 0.480842 0.1 8.38177e-010 -2.09544e-010 0.00479382 
0.372 0.495 0.1 5.22803e-010 -1.30701e-010 0.00299008 
0.370968 0.510471 0.1 1.032e-009 -2.58001e-010 0.00590237 
0.368324 0.524852 0.1 4.90537e-010 -1.22634e-010 0.00280554 
0.364 0.538094 0.1 9.38957e-010 -2.34739e-010 0.00537021 
0.357926 0.550148 0.1 4.22322e-010 -1.05581e-010 0.0024154 
0.350032 0.560966 0.1 3.66752e-010 -9.16881e-011 0.00209758 
0.34025 0.5705 0.1 8.3829e-010 -2.09572e-010 0.00479446 
0.328509 0.5787 0.1 3.02469e-010 -7.56172e-011 0.00172992 
0.314741 0.585519 0.1 2.273e-010 -5.68249e-011 0.0013 
0.298875 0.590906 0.1 7.77105e-010 -1.94276e-010 0.00444452 
0.280843 0.594815 0.1 1.68785e-010 -4.21962e-011 0.000965336 
0.260574 0.597196 0.1 7.13241e-011 -1.7831e-011 0.000407926 
0.238 0.598 0.1 8.90415e-010 -2.22604e-010 0.00509258 
0.175 0.598 0.1 2.25446e-008 -5.63615e-009 0.12894 
0.175 0.384 0.1 6.14407e-009 -1.53602e-009 0.03514 
0.282397 0.680495 -0.1 -1.04227e-009 2.60568e-010 -0.00596111 
0.313509 0.676046 -0.1 -1.10077e-009 2.75192e-010 -0.00629566 
0.342219 0.66875 -0.1 -1.18614e-009 2.96536e-010 -0.00678395 
0.368407 0.658704 -0.1 -1.29706e-009 3.24266e-010 -0.00741834 
0.391957 0.646005 -0.1 -1.4326e-009 3.58149e-010 -0.0081935 
0.41275 0.63075 -0.1 -1.59213e-009 3.98033e-010 -0.00910592 
0.430668 0.613037 -0.1 -1.72004e-009 4.30009e-010 -0.00983746 
0.445593 0.592963 -0.1 -1.47085e-009 3.67712e-010 -0.00841226 
0.457406 0.570625 -0.1 -1.47496e-009 3.68741e-010 -0.00843581 
0.465991 0.54612 -0.1 -1.57362e-009 3.93405e-010 -0.00900006 
0.471228 0.519546 -0.1 -1.47499e-009 3.68749e-010 -0.00843599 
0.473 0.491 -0.1 -1.36724e-009 3.41811e-010 -0.00781972 
0.472151 0.471673 -0.1 -9.16425e-010 2.29106e-010 -0.00524134 
0.469625 0.453213 -0.1 -1.12521e-009 2.81302e-010 -0.00643544 
0.465453 0.435656 -0.1 -8.65231e-010 2.16308e-010 -0.00494855 
0.459667 0.419037 -0.1 -8.47655e-010 2.11914e-010 -0.00484802 
0.452297 0.40339 -0.1 -1.04444e-009 2.61109e-010 -0.00597349 
0.443375 0.38875 -0.1 -1.02958e-009 2.57396e-010 -0.00588854 
0.432932 0.375152 -0.1 -4.08098e-009 1.02024e-009 -0.0233405 
0.421 0.36263 -0.1 -7.34394e-010 1.83599e-010 -0.00420024 
0.407609 0.351219 -0.1 -6.09234e-010 1.52309e-010 -0.00348441 
0.392792 0.340954 -0.1 -4.92943e-010 1.23236e-010 -0.00281931 
0.376578 0.331869 -0.1 -3.85617e-010 9.64041e-011 -0.00220547 
0.359 0.324 -0.1 -5.85138e-010 1.46285e-010 -0.0033466 
0.374022 0.313292 -0.1 -8.65358e-010 2.16339e-010 -0.00494927 
0.388176 0.301667 -0.1 -8.76819e-010 2.19205e-010 -0.00501482 
0.401594 0.289125 -0.1 -9.06834e-010 2.26709e-010 -0.00518649 
0.414407 0.275667 -0.1 -1.01291e-009 2.53227e-010 -0.00579317 
0.426749 0.261292 -0.1 -9.1693e-010 2.29232e-010 -0.00524423 
0.43875 0.246 -0.1 -9.98625e-010 2.49656e-010 -0.00571147 
0.450543 0.229792 -0.1 -1.08827e-009 2.72068e-010 -0.00622419 
0.462259 0.212667 -0.1 -1.18466e-009 2.96166e-010 -0.00677549 
0.474031 0.194625 -0.1 -1.28771e-009 3.21926e-010 -0.00736482 
0.485991 0.175667 -0.1 -7.63809e-010 1.90952e-010 -0.00436848 
0.49827 0.155792 -0.1 -1.42865e-009 3.57163e-010 -0.00817093 
0.511 0.135 -0.1 -3.32832e-009 8.32081e-010 -0.0190358 
0.518024 0.123712 -0.1 -4.14514e-010 1.03629e-010 -0.00237075 
0.524695 0.113194 -0.1 -3.94966e-010 9.87416e-011 -0.00225894 
0.531156 0.103219 -0.1 -3.83723e-010 9.59306e-011 -0.00219464 
0.537556 0.093556 -0.1 -3.8082e-010 9.5205e-011 -0.00217804 
0.544038 0.083976 -0.1 -3.86261e-010 9.65653e-011 -0.00220916 
0.55075 0.07425 -0.1 -4.00143e-010 1.00036e-010 -0.00228855 
0.557837 0.064149 -0.1 -4.22515e-010 1.05629e-010 -0.0024165 
0.565445 0.053444 -0.1 -4.53488e-010 1.13372e-010 -0.00259365 
0.573719 0.041906 -0.1 -4.93196e-010 1.23299e-010 -0.00282075 
0.582806 0.029306 -0.1 -5.41824e-010 1.35456e-010 -0.00309887 
0.592851 0.015413 -0.1 -5.99499e-010 1.49875e-010 -0.00342873 
0.604 4.37114e-009 -0.1 -3.15303e-010 7.88257e-011 -0.00180332 
0.487 4.37114e-009 -0.1 -5.41156e-009 1.35289e-009 -0.0309505 
0.397 0.14 -0.1 -3.74965e-009 9.37413e-010 -0.0214455 
0.375487 0.172479 -0.1 -1.95154e-009 4.87885e-010 -0.0111615 
0.355815 0.200167 -0.1 -1.38725e-009 3.46812e-010 -0.00793413 
0.337781 0.223437 -0.1 -1.22073e-009 3.05182e-010 -0.00698176 
0.321185 0.242667 -0.1 -1.06646e-009 2.66614e-010 -0.00609942 
0.305825 0.258229 -0.1 -9.25704e-010 2.31426e-010 -0.00529441 
0.2915 0.2705 -0.1 -8.00387e-010 2.00097e-010 -0.00457768 
0.278008 0.279854 -0.1 -3.66271e-010 9.15677e-011 -0.00209483 
0.265148 0.286667 -0.1 -5.95822e-010 1.48955e-010 -0.0034077 
0.252719 0.291313 -0.1 -1.85804e-010 4.64511e-011 -0.00106268 
0.240519 0.294167 -0.1 -9.93618e-011 2.48405e-011 -0.000568283 
0.228346 0.295604 -0.1 -4.18611e-010 1.04653e-010 -0.00239418 
0.216 0.296 -0.1 -6.47795e-011 1.61949e-011 -0.000370496 
0.175 0.296 -0.1 -1.29463e-008 3.23658e-009 -0.0740443 
0.175 4.37114e-009 -0.1 -5.07192e-009 1.26798e-009 -0.029008 
0.077 4.37114e-009 -0.1 -2.19326e-008 5.48316e-009 -0.12544 
0.077 0.682 -0.1 -1.42121e-008 3.55304e-009 -0.081284 
0.249 0.682 -0.1 -3.03614e-009 7.59036e-010 -0.0173647 
0.238 0.384 -0.1 -4.14166e-009 1.03542e-009 -0.0236875 
0.262713 0.385095 -0.1 -2.07665e-010 5.19163e-011 -0.00118771 
0.284454 0.388264 -0.1 -6.48172e-010 1.62043e-010 -0.00370711 
0.303375 0.393328 -0.1 -3.18152e-010 7.95379e-011 -0.00181962 
0.31963 0.400111 -0.1 -6.98757e-010 1.74689e-010 -0.00399642 
0.33337 0.408436 -0.1 -3.96743e-010 9.91859e-011 -0.00226911 
0.34475 0.418125 -0.1 -7.41814e-010 1.85454e-010 -0.00424268 
0.353921 0.429002 -0.1 -7.57968e-010 1.89492e-010 -0.00433507 
0.361037 0.440889 -0.1 -7.78148e-010 1.94537e-010 -0.00445049 
0.36625 0.453609 -0.1 -4.72295e-010 1.18074e-010 -0.00270121 
0.369713 0.466986 -0.1 -8.17232e-010 2.04308e-010 -0.00467402 
0.371579 0.480842 -0.1 -8.38177e-010 2.09544e-010 -0.00479382 
0.372 0.495 -0.1 -5.22803e-010 1.30701e-010 -0.00299008 
0.370968 0.510471 -0.1 -1.032e-009 2.58001e-010 -0.00590237 
0.368324 0.524852 -0.1 -4.90537e-010 1.22634e-010 -0.00280554 
0.364 0.538094 -0.1 -9.38957e-010 2.34739e-010 -0.00537021 
0.357926 0.550148 -0.1 -4.22322e-010 1.05581e-010 -0.0024154 
0.350032 0.560966 -0.1 -3.66752e-010 9.16881e-011 -0.00209758 
0.34025 0.5705 -0.1 -8.3829e-010 2.09572e-010 -0.00479446 
0.328509 0.5787 -0.1 -3.02469e-010 7.56172e-011 -0.00172992 
0.314741 0.585519 -0.1 -2.273e-010 5.68249e-011 -0.0013 
0.298875 0.590906 -0.1 -7.77105e-010 1.94276e-010 -0.00444452 
0.280843 0.594815 -0.1 -1.68785e-010 4.21962e-011 -0.000965336 
0.260574 0.597196 -0.1 -7.13241e-011 1.7831e-011 -0.000407926 
0.238 0.598 -0.1 -8.90415e-010 2.22604e-010 -0.00509258 
0.175 0.598 -0.1 -2.25446e-008 5.63615e-009 -0.12894 
0.175 0.384 -0.1 -6.14407e-009 1.53602e-009 -0.03514 
0.282397 0.680495 -0.1 0.231594 2.9879 9.01122e-008 
0.282397 0.680495 0.1 0.328137 2.97885 7.28362e-008 
0.313509 0.676046 -0.1 0.529419 2.94905 3.63406e-008 
0.313509 0.676046 0.1 0.634159 2.92832 1.7121e-008 
0.342219 0.66875 -0.1 0.850761 2.87205 -2.32106e-008 
0.342219 0.66875 0.1 0.962623 2.83651 -4.43225e-008 
0.368407 0.658704 -0.1 1.19095 2.74751 -8.81353e-008 
0.368407 0.658704 0.1 1.30742 2.69403 -1.10836e-007 
0.391957 0.646005 -0.1 1.54079 2.56665 -1.57208e-007 
0.391957 0.646005 0.1 1.6577 2.49275 -1.8088e-007 
0.41275 0.63075 -0.1 1.8861 2.32372 -2.28202e-007 
0.41275 0.63075 0.1 1.99759 2.22861 -2.51854e-007 
0.430668 0.613037 -0.1 2.20855 2.01898 -2.97903e-007 
0.430668 0.613037 0.1 2.30802 1.90447 -3.203e-007 
0.445593 0.592963 -0.1 2.48899 1.6608 -3.62594e-007 
0.445593 0.592963 0.0999999 2.5705 1.53163 -3.8249e-007 
0.457406 0.570625 -0.1 2.71176 1.26561 -4.18818e-007 
0.457406 0.570625 0.0999999 2.77152 1.12875 -4.35249e-007 
0.465991 0.54612 -0.1 2.86865 0.854619 -4.64214e-007 
0.465991 0.54612 0.0999999 2.90602 0.71734 -4.76748e-007 
0.471228 0.519546 -0.1 2.96034 0.448663 -4.9799e-007 
0.471228 0.519546 0.0999999 2.97729 0.317265 -5.06697e-007 
0.473 0.491 -0.1 2.99519 0.0800264 -5.20198e-007 
0.473 0.491 0.0999999 2.99615 -0.025814 -5.24992e-007 
0.472151 0.471673 -0.1 2.98884 -0.223343 -5.32348e-007 
0.472151 0.471673 0.0999999 2.98057 -0.315032 -5.3491e-007 
0.469625 0.453213 -0.1 2.95444 -0.502336 -5.38529e-007 
0.469625 0.453213 0.0999999 2.93658 -0.597951 -5.39586e-007 
0.465453 0.435656 -0.1 2.89022 -0.791175 -5.39925e-007 
0.465453 0.435656 0.0999999 2.86171 -0.888785 -5.39207e-007 
0.459667 0.419037 -0.1 2.79347 -1.08371 -5.35796e-007 
0.459667 0.419037 0.0999999 2.75374 -1.18103 -5.33103e-007 
0.452297 0.40339 -0.1 2.66326 -1.37263 -5.25659e-007 
0.452297 0.40339 0.0999999 2.61251 -1.46692 -5.20907e-007 
0.443375 0.38875 -0.1 2.50094 -1.64989 -5.09398e-007 
0.443375 0.38875 0.0999999 2.44013 -1.73858 -5.02641e-007 
0.432932 0.375152 -0.1 2.31016 -1.90802 -4.87324e-007 
0.432932 0.375152 0.0999999 2.24102 -1.98878 -4.78764e-007 
0.421 0.36263 -0.1 2.09651 -2.14083 -4.60143e-007 
0.421 0.36263 0.0999999 2.02114 -2.21212 -4.50082e-007 
0.407609 0.351219 -0.1 1.86666 -2.34428 -4.28849e-007 
0.407609 0.351219 0.0999999 1.78754 -2.40515 -4.17677e-007 
0.392792 0.340954 -0.1 1.62777 -2.5164 -3.94603e-007 
0.392792 0.340954 0.0999999 1.54711 -2.56678 -3.82702e-007 
0.376578 0.331869 -0.1 1.38622 -2.65749 -3.58537e-007 
0.376578 0.331869 0.1 1.30599 -2.69782 -3.46273e-007 
0.359 0.324 -0.1 1.39763 -1.01114 -2.88567e-007 
0.359 0.324 0.1 1.56949 0.715876 -2.43126e-007 
0.374022 0.313292 -0.1 1.79559 2.40136 -2.08984e-007 
0.374022 0.313292 0.1 1.84983 2.35983 -2.20283e-007 
0.388176 0.301667 -0.1 1.95224 2.27608 -2.41849e-007 
0.388176 0.301667 0.0999999 2.0004 2.23387 -2.52116e-007 
0.401594 0.289125 -0.1 2.08996 2.15064 -2.71413e-007 
0.401594 0.289125 0.0999999 2.13135 2.10963 -2.80443e-007 
0.414407 0.275667 -0.1 2.20722 2.03049 -2.97167e-007 
0.414407 0.275667 0.0999999 2.24169 1.99237 -3.0486e-007 
0.426749 0.261292 -0.1 2.30411 1.9202 -3.18929e-007 
0.426749 0.261292 0.0999999 2.33206 1.88616 -3.25304e-007 
0.43875 0.246 -0.1 2.38195 1.82309 -3.36784e-007 
0.43875 0.246 0.0999999 2.40389 1.79406 -3.41888e-007 
0.450543 0.229792 -0.1 2.44255 1.74134 -3.50953e-007 
0.450543 0.229792 0.0999999 2.45927 1.71764 -3.54912e-007 
0.462259 0.212667 -0.1 2.48816 1.67574 -3.61794e-007 
0.462259 0.212667 0.0999999 2.50032 1.65754 -3.64716e-007 
0.474031 0.194625 -0.1 2.52075 1.62646 -3.69647e-007 
0.474031 0.194625 0.0999999 2.52901 1.61357 -3.71655e-007 
0.485991 0.175667 -0.1 2.54226 1.59272 -3.74882e-007 
0.485991 0.175667 0.0999999 2.54723 1.58475 -3.761e-007 
0.49827 0.155792 -0.1 2.55432 1.57335 -3.77838e-007 
0.49827 0.155792 0.0999999 2.55643 1.56991 -3.78358e-007 
0.511 0.135 -0.1 2.55474 1.57264 -3.77942e-007 
0.511 0.135 0.0999999 2.55093 1.57881 -3.77008e-007 
0.518024 0.123712 -0.1 2.54256 1.59225 -3.74956e-007 
0.518024 0.123712 0.0999999 2.53799 1.59952 -3.73838e-007 
0.524695 0.113194 -0.1 2.52826 1.61484 -3.71468e-007 
0.524695 0.113194 0.0999999 2.5231 1.62289 -3.70215e-007 
0.531156 0.103219 -0.1 2.51235 1.63947 -3.6761e-007 
0.531156 0.103219 0.0999999 2.50676 1.64802 -3.66258e-007 
0.537556 0.093556 -0.1 2.49567 1.66477 -3.63587e-007 
0.537556 0.093556 0.0999999 2.49017 1.67297 -3.62268e-007 
0.544038 0.083976 -0.1 2.47949 1.68877 -3.59709e-007 
0.544038 0.083976 0.0999999 2.4743 1.69637 -3.5847e-007 
0.55075 0.07425 -0.1 2.46469 1.71032 -3.56179e-007 
0.55075 0.07425 0.0999999 2.46026 1.71668 -3.55127e-007 
0.557837 0.064149 -0.1 2.45234 1.728 -3.53247e-007 
0.557837 0.064149 0.0999999 2.44884 1.73295 -3.5242e-007 
0.565445 0.053444 -0.1 2.44288 1.74135 -3.51009e-007 
0.565445 0.053444 0.0999999 2.44041 1.74481 -3.50426e-007 
0.573719 0.041906 -0.1 2.43637 1.75045 -3.49474e-007 
0.573719 0.041906 0.0999999 2.4348 1.75264 -3.49104e-007 
0.582806 0.029306 -0.1 2.43252 1.7558 -3.48568e-007 
0.582806 0.029306 0.0999999 2.43182 1.75678 -3.48401e-007 
0.592851 0.015413 -0.1 2.43099 1.75793 -3.48206e-007 
0.592851 0.015413 0.0999999 2.43086 1.7581 -3.48176e-007 
0.604 4.37114e-009 -0.1 1.62049 0.172181 -2.75809e-007 
0.604 -4.37114e-009 0.0999999 0.810245 -1.41391 -2.03472e-007 
0.487 4.37114e-009 -0.1 -0.841179 -2.54076 3.60163e-008 
0.487 -4.37114e-009 0.0999999 -1.68236 -2.08151 2.03167e-007 
0.397 0.14 -0.1 -2.51606 -1.63373 3.68509e-007 
0.397 0.14 0.0999999 -2.50858 -1.64519 3.66701e-007 
0.375487 0.172479 -0.1 -2.4826 -1.68362 3.60478e-007 
0.375487 0.172479 0.0999999 -2.46409 -1.71059 3.56063e-007 
0.355815 0.200167 -0.1 -2.42081 -1.77094 3.45857e-007 
0.355815 0.200167 0.0999999 -2.39603 -1.80432 3.40066e-007 
0.337781 0.223437 -0.1 -2.33789 -1.87849 3.26658e-007 
0.337781 0.223437 0.0999999 -2.30452 -1.91928 3.19041e-007 
0.321185 0.242667 -0.1 -2.22581 -2.00918 3.01349e-007 
0.321185 0.242667 0.0999999 -2.18047 -2.0583 2.91275e-007 
0.305825 0.258229 -0.1 -2.07398 -2.1644 2.68017e-007 
0.305825 0.258229 0.1 -2.01283 -2.22138 2.54835e-007 
0.2915 0.2705 -0.1 -1.87088 -2.34072 2.24799e-007 
0.2915 0.2705 0.1 -1.79008 -2.40308 2.07946e-007 
0.278008 0.279854 -0.1 -1.60767 -2.52727 1.70622e-007 
0.278008 0.279854 0.1 -1.50605 -2.58912 1.50152e-007 
0.265148 0.286667 -0.1 -1.28643 -2.704 1.0673e-007 
0.265148 0.286667 0.1 -1.16842 -2.75705 8.37794e-008 
0.252719 0.291313 -0.1 -0.928067 -2.84711 3.78175e-008 
0.252719 0.291313 0.1 -0.805712 -2.88412 1.48064e-008 
0.240519 0.294167 -0.1 -0.572804 -2.94053 -2.83823e-008 
0.240519 0.294167 0.1 -0.462251 -2.95992 -4.85597e-008 
0.228346 0.295604 -0.1 -0.266525 -2.9857 -8.39082e-008 
0.228346 0.295604 0.1 -0.181352 -2.99208 -9.90792e-008 
0.216 0.296 -0.1 -0.0641195 -2.99897 -1.19878e-007 
0.216 0.296 0.1 -0.0320598 -2.99949 -1.25506e-007 
0.175 0.296 -0.1 1 -2 -2.62268e-007 
0.175 0.296 0.1 2 -1 -3.93402e-007 
0.175 4.37114e-009 -0.1 2 -1 -3.93402e-007 
0.175 -4.37114e-009 0.1 1 -2 -2.62268e-007 
0.077 4.37114e-009 -0.1 -1 -2 8.74228e-008 
0.077 -4.37114e-009 0.1 -2 -1 3.0598e-007 
0.077 0.682 -0.1 -2 1 3.93402e-007 
0.077 0.682 0.1 -1 2 2.62268e-007 
0.249 0.682 -0.1 0.045017 2.99899 1.23219e-007 
0.249 0.682 0.1 0.0900339 2.99797 1.15304e-007 
0.238 0.384 -0.1 -0.0442651 2.99902 1.38831e-007 
0.238 0.384 0.1 -0.0885303 2.99804 1.46528e-007 
0.262713 0.385095 -0.1 -0.232768 2.98758 1.7129e-007 
0.262713 0.385095 0.1 -0.33274 2.97811 1.88355e-007 
0.284454 0.388264 -0.1 -0.547014 2.94509 2.24377e-007 
0.284454 0.388264 0.1 -0.661317 2.92154 2.43333e-007 
0.303375 0.393328 -0.1 -0.902182 2.85488 2.82533e-007 
0.303375 0.393328 0.1 -1.02874 2.81175 3.02777e-007 
0.31963 0.400111 -0.1 -1.2884 2.70101 3.43336e-007 
0.31963 0.400111 0.1 -1.4215 2.63339 3.63652e-007 
0.33337 0.408436 -0.1 -1.68467 2.47193 4.02608e-007 
0.33337 0.408436 0.1 -1.81474 2.37808 4.21248e-007 
0.34475 0.418125 -0.1 -2.06105 2.16743 4.55108e-007 
0.34475 0.418125 0.1 -2.1773 2.05062 4.70327e-007 
0.353921 0.429002 -0.1 -2.38704 1.80285 4.96168e-007 
0.353921 0.429002 0.1 -2.48053 1.67188 5.0679e-007 
0.361037 0.440889 -0.1 -2.64132 1.40649 5.23303e-007 
0.361037 0.440889 0.1 -2.70862 1.27207 5.29195e-007 
0.36625 0.453609 -0.1 -2.8187 1.00905 5.36944e-007 
0.36625 0.453609 0.1 -2.86148 0.880449 5.38803e-007 
0.369713 0.466986 -0.1 -2.92723 0.634696 5.39556e-007 
0.369713 0.466986 0.1 -2.95019 0.517545 5.38451e-007 
0.371579 0.480842 -0.1 -2.98166 0.296654 5.34298e-007 
0.371579 0.480842 0.1 -2.99017 0.192913 5.3125e-007 
0.372 0.495 -0.1 -2.9969 -0.00710947 5.23684e-007 
0.372 0.495 0.1 -2.99512 -0.103391 5.19165e-007 
0.370968 0.510471 -0.1 -2.97908 -0.313938 5.07156e-007 
0.370968 0.510471 0.1 -2.96481 -0.428204 4.99667e-007 
0.368324 0.524852 -0.1 -2.91763 -0.672055 4.80759e-007 
0.368324 0.524852 0.1 -2.88472 -0.80164 4.6934e-007 
0.364 0.538094 -0.1 -2.79424 -1.07081 4.41753e-007 
0.364 0.538094 0.1 -2.73667 -1.2104 4.25585e-007 
0.357926 0.550148 -0.1 -2.59386 -1.48945 3.88419e-007 
0.357926 0.550148 0.1 -2.50863 -1.62891 3.6742e-007 
0.350032 0.560966 -0.1 -2.31357 -1.89504 3.21682e-007 
0.350032 0.560966 0.1 -2.20374 -2.02171 2.96942e-007 
0.34025 0.5705 -0.1 -1.96853 -2.2521 2.45746e-007 
0.34025 0.5705 0.1 -1.84314 -2.35582 2.19289e-007 
0.328509 0.5787 -0.1 -1.589 -2.5358 1.66986e-007 
0.328509 0.5787 0.1 -1.46024 -2.61207 1.41139e-007 
0.314741 0.585519 -0.1 -1.20916 -2.73913 9.16844e-008 
0.314741 0.585519 0.1 -1.08684 -2.78993 6.80769e-008 
0.298875 0.590906 -0.1 -0.854871 -2.87112 2.39699e-008 
0.298875 0.590906 0.1 -0.745225 -2.90151 3.4703e-009 
0.280843 0.594815 -0.1 -0.540386 -2.94777 -3.43671e-008 
0.280843 0.594815 0.1 -0.445192 -2.96364 -5.1705e-008 
0.260574 0.597196 -0.1 -0.268927 -2.98571 -8.34889e-008 
0.260574 0.597196 0.1 -0.187854 -2.9919 -9.79348e-008 
0.238 0.598 -0.1 -0.0711878 -2.99873 -1.18632e-007 
0.238 0.598 0.1 -0.0355939 -2.99937 -1.24883e-007 
0.175 0.598 -0.1 1 -2 -2.62268e-007 
0.175 0.598 0.1 2 -1 -3.93402e-007 
0.175 0.384 -0.1 2 1 -3.0598e-007 
0.175 0.384 0.1 1 2 -8.74228e-008 
3 64 92 65 
3 92 66 65 
3 92 0 66 
3 92 1 0 
3 92 2 1 
3 92 3 2 
3 92 4 3 
3 92 5 4 
3 92 6 5 
3 92 91 6 
3 91 7 6 
3 64 93 92 
3 90 7 91 
3 89 7 90 
3 88 7 89 
3 88 8 7 
3 87 8 88 
3 86 8 87 
3 85 8 86 
3 85 9 8 
3 84 9 85 
3 83 9 84 
3 82 9 83 
3 82 10 9 
3 81 10 82 
3 80 10 81 
3 80 11 10 
3 79 11 80 
3 78 11 79 
3 78 12 11 
3 77 12 78 
3 77 13 12 
3 76 13 77 
3 75 13 76 
3 75 14 13 
3 74 14 75 
3 74 15 14 
3 73 15 74 
3 73 16 15 
3 72 16 73 
3 71 16 72 
3 71 17 16 
3 70 17 71 
3 69 17 70 
3 69 18 17 
3 68 18 69 
3 67 18 68 
3 64 62 93 
3 62 67 93 
3 62 18 67 
3 62 19 18 
3 62 20 19 
3 62 21 20 
3 62 22 21 
3 62 23 22 
3 62 24 23 
3 62 25 24 
3 62 61 25 
3 61 60 25 
3 60 26 25 
3 64 63 62 
3 59 26 60 
3 58 26 59 
3 57 26 58 
3 57 27 26 
3 56 27 57 
3 55 27 56 
3 55 28 27 
3 54 28 55 
3 54 29 28 
3 53 29 54 
3 53 30 29 
3 52 30 53 
3 52 31 30 
3 51 31 52 
3 51 32 31 
3 50 32 51 
3 50 33 32 
3 50 34 33 
3 49 34 50 
3 49 35 34 
3 48 35 49 
3 48 36 35 
3 48 37 36 
3 48 38 37 
3 48 39 38 
3 48 40 39 
3 48 41 40 
3 48 42 41 
3 48 43 42 
3 48 44 43 
3 48 45 44 
3 48 46 45 
3 48 47 46 
3 186 158 159 
3 160 186 159 
3 94 186 160 
3 95 186 94 
3 96 186 95 
3 97 186 96 
3 98 186 97 
3 99 186 98 
3 100 186 99 
3 185 186 100 
3 101 185 100 
3 187 158 186 
3 101 184 185 
3 101 183 184 
3 101 182 183 
3 102 182 101 
3 102 181 182 
3 102 180 181 
3 102 179 180 
3 103 179 102 
3 103 178 179 
3 103 177 178 
3 103 176 177 
3 104 176 103 
3 104 175 176 
3 104 174 175 
3 105 174 104 
3 105 173 174 
3 105 172 173 
3 106 172 105 
3 106 171 172 
3 107 171 106 
3 107 170 171 
3 107 169 170 
3 108 169 107 
3 108 168 169 
3 109 168 108 
3 109 167 168 
3 110 167 109 
3 110 166 167 
3 110 165 166 
3 111 165 110 
3 111 164 165 
3 111 163 164 
3 112 163 111 
3 112 162 163 
3 112 161 162 
3 156 158 187 
3 161 156 187 
3 112 156 161 
3 113 156 112 
3 114 156 113 
3 115 156 114 
3 116 156 115 
3 117 156 116 
3 118 156 117 
3 119 156 118 
3 155 156 119 
3 154 155 119 
3 120 154 119 
3 157 158 156 
3 120 153 154 
3 120 152 153 
3 120 151 152 
3 121 151 120 
3 121 150 151 
3 121 149 150 
3 122 149 121 
3 122 148 149 
3 123 148 122 
3 123 147 148 
3 124 147 123 
3 124 146 147 
3 125 146 124 
3 125 145 146 
3 126 145 125 
3 126 144 145 
3 127 144 126 
3 128 144 127 
3 128 143 144 
3 129 143 128 
3 129 142 143 
3 130 142 129 
3 131 142 130 
3 132 142 131 
3 133 142 132 
3 134 142 133 
3 135 142 134 
3 136 142 135 
3 137 142 136 
3 138 142 137 
3 139 142 138 
3 140 142 139 
3 141 142 140 
3 189 191 190 
3 189 190 188 
3 191 193 192 
3 191 192 190 
3 193 195 194 
3 193 194 192 
3 195 197 196 
3 195 196 194 
3 197 199 198 
3 197 198 196 
3 199 201 200 
3 199 200 198 
3 201 203 202 
3 201 202 200 
3 203 205 204 
3 203 204 202 
3 205 207 206 
3 205 206 204 
3 207 209 208 
3 207 208 206 
3 209 211 210 
3 209 210 208 
3 211 213 212 
3 211 212 210 
3 213 215 214 
3 213 214 212 
3 215 217 216 
3 215 216 214 
3 217 219 218 
3 217 218 216 
3 219 221 220 
3 219 220 218 
3 221 223 222 
3 221 222 220 
3 223 225 224 
3 223 224 222 
3 225 227 226 
3 225 226 224 
3 227 229 228 
3 227 228 226 
3 229 231 230 
3 229 230 228 
3 231 233 232 
3 231 232 230 
3 233 235 234 
3 233 234 232 
3 235 237 236 
3 235 236 234 
3 237 239 238 
3 237 238 236 
3 239 241 240 
3 239 240 238 
3 241 243 242 
3 241 242 240 
3 243 245 244 
3 243 244 242 
3 245 247 246 
3 245 246 244 
3 247 249 248 
3 247 248 246 
3 249 251 250 
3 249 250 248 
3 251 253 252 
3 251 252 250 
3 253 255 254 
3 253 254 252 
3 255 257 256 
3 255 256 254 
3 257 259 258 
3 257 258 256 
3 259 261 260 
3 259 260 258 
3 261 263 262 
3 261 262 260 
3 263 265 264 
3 263 264 262 
3 265 267 266 
3 265 266 264 
3 267 269 268 
3 267 268 266 
3 269 271 270 
3 269 270 268 
3 271 273 272 
3 271 272 270 
3 273 275 274 
3 273 274 272 
3 275 277 276 
3 275 276 274 
3 277 279 278 
3 277 278 276 
3 279 281 280 
3 279 280 278 
3 281 283 282 
3 281 282 280 
3 283 285 284 
3 283 284 282 
3 285 287 286 
3 285 286 284 
3 287 289 288 
3 287 288 286 
3 289 291 290 
3 289 290 288 
3 291 293 292 
3 291 292 290 
3 293 295 294 
3 293 294 292 
3 295 297 296 
3 295 296 294 
3 297 299 298 
3 297 298 296 
3 299 301 300 
3 299 300 298 
3 301 303 302 
3 301 302 300 
3 303 305 304 
3 303 304 302 
3 305 307 306 
3 305 306 304 
3 307 309 308 
3 307 308 306 
3 309 311 310 
3 309 310 308 
3 311 313 312 
3 311 312 310 
3 313 315 314 
3 313 314 312 
3 315 317 316 
3 315 316 314 
3 317 319 318 
3 317 318 316 
3 319 321 320 
3 319 320 318 
3 321 189 188 
3 321 188 320 
3 323 325 324 
3 323 324 322 
3 325 327 326 
3 325 326 324 
3 327 329 328 
3 327 328 326 
3 329 331 330 
3 329 330 328 
3 331 333 332 
3 331 332 330 
3 333 335 334 
3 333 334 332 
3 335 337 336 
3 335 336 334 
3 337 339 338 
3 337 338 336 
3 339 341 340 
3 339 340 338 
3 341 343 342 
3 341 342 340 
3 343 345 344 
3 343 344 342 
3 345 347 346 
3 345 346 344 
3 347 349 348 
3 347 348 346 
3 349 351 350 
3 349 350 348 
3 351 353 352 
3 351 352 350 
3 353 355 354 
3 353 354 352 
3 355 357 356 
3 355 356 354 
3 357 359 358 
3 357 358 356 
3 359 361 360 
3 359 360 358 
3 361 363 362 
3 361 362 360 
3 363 365 364 
3 363 364 362 
3 365 367 366 
3 365 366 364 
3 367 369 368 
3 367 368 366 
3 369 371 370 
3 369 370 368 
3 371 373 372 
3 371 372 370 
3 373 375 374 
3 373 374 372 
3 375 323 322 
3 375 322 374 
