ply
format ascii 1.0
comment VCGLIB generated
element vertex 32
property float x
property float y
property float z
property float nx
property float ny
property float nz
element face 24
property list uchar int vertex_indices
end_header
0.528 0.421 0.0999999 6.76722e-009 -1.69181e-009 0.038704 
0.056 0.421 0.1 1.35344e-008 -3.38361e-009 0.077408 
0.056 0.503 0.1 6.76722e-009 -1.69181e-009 0.038704 
0.528 0.503 0.0999999 1.35344e-008 -3.38361e-009 0.077408 
0.528 0.203 0.0999999 6.76722e-009 -1.69181e-009 0.038704 
0.056 0.203 0.1 1.35344e-008 -3.38361e-009 0.077408 
0.056 0.285 0.1 6.76722e-009 -1.69181e-009 0.038704 
0.528 0.285 0.0999999 1.35344e-008 -3.38361e-009 0.077408 
0.528 0.421 -0.1 -6.76722e-009 1.69181e-009 -0.038704 
0.056 0.421 -0.1 -1.35344e-008 3.38361e-009 -0.077408 
0.056 0.503 -0.1 -6.76722e-009 1.69181e-009 -0.038704 
0.528 0.503 -0.1 -1.35344e-008 3.38361e-009 -0.077408 
0.528 0.203 -0.1 -6.76722e-009 1.69181e-009 -0.038704 
0.056 0.203 -0.1 -1.35344e-008 3.38361e-009 -0.077408 
0.056 0.285 -0.1 -6.76722e-009 1.69181e-009 -0.038704 
0.528 0.285 -0.1 -1.35344e-008 3.38361e-009 -0.077408 
0.528 0.421 -0.1 2 -1 -3.93402e-007 
0.528 0.421 0.0999999 1 -2 -2.62268e-007 
0.056 0.421 -0.1 -1 -2 8.74228e-008 
0.056 0.421 0.1 -2 -1 3.0598e-007 
0.056 0.503 -0.1 -2 1 3.93402e-007 
0.056 0.503 0.1 -1 2 2.62268e-007 
0.528 0.503 -0.1 1 2 -8.74228e-008 
0.528 0.503 0.0999999 2 1 -3.0598e-007 
0.528 0.203 -0.1 2 -1 -3.93402e-007 
0.528 0.203 0.0999999 1 -2 -2.62268e-007 
0.056 0.203 -0.1 -1 -2 8.74228e-008 
0.056 0.203 0.1 -2 -1 3.0598e-007 
0.056 0.285 -0.1 -2 1 3.93402e-007 
0.056 0.285 0.1 -1 2 2.62268e-007 
0.528 0.285 -0.1 1 2 -8.74228e-008 
0.528 0.285 0.0999999 2 1 -3.0598e-007 
3 5 7 6 
3 5 4 7 
3 1 3 2 
3 1 0 3 
3 15 13 14 
3 12 13 15 
3 11 9 10 
3 8 9 11 
3 17 19 18 
3 17 18 16 
3 19 21 20 
3 19 20 18 
3 21 23 22 
3 21 22 20 
3 23 17 16 
3 23 16 22 
3 25 27 26 
3 25 26 24 
3 27 29 28 
3 27 28 26 
3 29 31 30 
3 29 30 28 
3 31 25 24 
3 31 24 30 
