ply
format ascii 1.0
comment VCGLIB generated
element vertex 496
property float x
property float y
property float z
property float nx
property float ny
property float nz
element face 496
property list uchar int vertex_indices
end_header
0.496 -0.001 0.1 9.2966e-010 -2.32415e-010 0.00531704 
0.524946 -0.013021 0.1 7.12258e-010 -1.78064e-010 0.00407364 
0.551903 -0.023583 0.1 1.19949e-009 -2.99872e-010 0.00686028 
0.577047 -0.032687 0.0999998 5.88534e-010 -1.47134e-010 0.00336602 
0.600556 -0.040333 0.0999998 1.10459e-009 -2.76148e-010 0.00631753 
0.622606 -0.046521 0.0999998 4.40512e-010 -1.10128e-010 0.00251943 
0.643375 -0.05125 0.0999998 9.8335e-010 -2.45838e-010 0.00562411 
0.66304 -0.054521 0.0999998 2.76318e-010 -6.90797e-011 0.00158036 
0.681778 -0.056333 0.0999998 1.50294e-010 -3.75736e-011 0.000859584 
0.699766 -0.056688 0.0999998 4.10986e-009 -1.02747e-009 0.0235057 
0.717181 -0.055583 0.0999998 4.69408e-010 -1.17352e-010 0.0026847 
0.7342 -0.053021 0.0999998 5.21698e-010 -1.30424e-010 0.00298376 
0.751 -0.049 0.0999998 1.09214e-011 -2.73035e-012 6.24631e-005 
0.754 -0.052 0.0999998 2.96401e-010 -7.41002e-011 0.00169522 
0.666 -0.139 0.0999998 5.3479e-009 -1.33697e-009 0.0305864 
0.633494 -0.135501 0.0999998 1.14378e-011 -2.85944e-012 6.54164e-005 
0.601949 -0.130093 0.0999998 4.42376e-011 -1.10594e-011 0.000253009 
0.571328 -0.122906 0.0999998 9.53226e-011 -2.38307e-011 0.000545182 
0.541593 -0.114074 0.0999999 1.61665e-010 -4.04163e-011 0.000924617 
0.512704 -0.103728 0.0999999 2.40322e-010 -6.00804e-011 0.00137448 
0.484625 -0.092 0.0999999 3.28336e-010 -8.20839e-011 0.00187786 
0.457317 -0.079022 0.1 4.22782e-010 -1.05695e-010 0.00241803 
0.430741 -0.064926 0.1 5.0003e-009 -1.25008e-009 0.0285984 
0.404859 -0.049844 0.1 1.65038e-009 -4.12595e-010 0.00943908 
0.379634 -0.033907 0.1 1.72196e-009 -4.3049e-010 0.00984846 
0.355027 -0.017249 0.1 1.75185e-009 -4.37962e-010 0.0100194 
0.331 -4.37114e-009 0.1 8.52146e-010 -2.13037e-010 0.00487371 
0.289871 0.010185 0.1 1.31856e-009 -3.29639e-010 0.00754126 
0.251134 0.024565 0.1 2.47514e-009 -6.18785e-010 0.0141562 
0.215016 0.042875 0.1 3.8312e-009 -9.57798e-010 0.0219119 
0.181741 0.064852 0.1 5.76552e-009 -1.44138e-009 0.0329749 
0.151535 0.090231 0.1 2.7325e-009 -6.83124e-010 0.0156281 
0.124625 0.11875 0.1 1.87366e-009 -4.68414e-010 0.0107161 
0.101236 0.150144 0.1 2.36828e-009 -5.92072e-010 0.013545 
0.081593 0.184148 0.1 1.8805e-009 -4.70124e-010 0.0107552 
0.065922 0.2205 0.1 1.92605e-009 -4.81513e-010 0.0110157 
0.054449 0.258935 0.1 1.98012e-009 -4.95031e-010 0.011325 
0.0474 0.29919 0.1 2.64085e-009 -6.60214e-010 0.0151039 
0.045 0.341 0.1 2.09506e-009 -5.23763e-010 0.0119823 
0.048178 0.391161 0.1 2.7857e-009 -6.96424e-010 0.0159323 
0.057505 0.438454 0.1 2.82018e-009 -7.05046e-010 0.0161296 
0.072672 0.482594 0.1 2.26117e-009 -5.65291e-010 0.0129324 
0.09337 0.523296 0.1 2.76292e-009 -6.90732e-010 0.0158021 
0.119291 0.560277 0.1 2.72954e-009 -6.82383e-010 0.0156111 
0.150125 0.59325 0.1 4.29087e-009 -1.07272e-009 0.0245409 
0.185563 0.621932 0.1 5.88892e-009 -1.47223e-009 0.0336807 
0.225296 0.646037 0.1 3.92008e-009 -9.80018e-010 0.0224202 
0.269016 0.665281 0.1 2.24767e-009 -5.61917e-010 0.0128552 
0.316412 0.67938 0.1 9.77203e-010 -2.44301e-010 0.00558895 
0.367177 0.688047 0.1 2.13588e-010 -5.33968e-011 0.00122158 
0.421 0.691 0.1 5.50128e-011 -1.37532e-011 0.000314636 
0.470918 0.687893 0.1 5.2954e-010 -1.32385e-010 0.00302861 
0.518426 0.678815 0.1 1.56508e-009 -3.9127e-010 0.00895121 
0.563156 0.664125 0.0999999 3.05442e-009 -7.63607e-010 0.0174693 
0.604741 0.644185 0.0999999 4.88933e-009 -1.22233e-009 0.0279637 
0.642811 0.619357 0.0999999 6.09622e-009 -1.52405e-009 0.0348663 
0.677 0.59 0.0999999 2.82612e-009 -7.06529e-010 0.0161635 
0.706939 0.556477 0.0999999 2.64062e-009 -6.60155e-010 0.0151026 
0.732259 0.519148 0.0999999 2.69154e-009 -6.72884e-010 0.0153938 
0.752594 0.478375 0.0999999 2.21145e-009 -5.52864e-010 0.012648 
0.767574 0.434519 0.0999999 2.84167e-009 -7.10417e-010 0.0162525 
0.776832 0.38794 0.0999998 2.32275e-009 -5.80687e-010 0.0132846 
0.78 0.339 0.0999998 2.22722e-009 -5.56805e-010 0.0127382 
0.777563 0.29828 0.0999998 2.61849e-009 -6.54623e-010 0.014976 
0.770421 0.258819 0.0999998 1.9725e-009 -4.93125e-010 0.0112814 
0.758828 0.220922 0.0999998 1.936e-009 -4.83999e-010 0.0110726 
0.743037 0.184889 0.0999998 1.90452e-009 -4.76131e-010 0.0108926 
0.723302 0.151023 0.0999998 2.40056e-009 -6.00139e-010 0.0137296 
0.699875 0.119625 0.0999998 1.89492e-009 -4.73731e-010 0.0108377 
0.673011 0.090998 0.0999998 2.33122e-009 -5.82806e-010 0.013333 
0.642963 0.065444 0.0999998 4.40544e-009 -1.10136e-009 0.0251962 
0.609984 0.043266 0.0999998 4.58033e-009 -1.14508e-009 0.0261964 
0.574329 0.024764 0.0999998 3.13058e-009 -7.82645e-010 0.0179048 
0.536249 0.010241 0.1 1.84392e-009 -4.60982e-010 0.010546 
0.496 -4.37114e-009 0.1 7.03736e-012 -1.75934e-012 4.0249e-005 
0.496 0.000999996 0.1 7.6345e-010 -1.90863e-010 0.00436643 
0.147896 0.305914 0.1 1.18798e-009 -2.96996e-010 0.00679447 
0.153583 0.272898 0.1 1.87239e-009 -4.68097e-010 0.0107088 
0.163063 0.241313 0.1 1.8195e-009 -4.54875e-010 0.0104063 
0.176333 0.211519 0.1 1.77104e-009 -4.4276e-010 0.0101292 
0.193396 0.183877 0.1 1.73122e-009 -4.32805e-010 0.00990143 
0.21425 0.15875 0.1 1.00467e-009 -2.51168e-010 0.00574606 
0.238896 0.136498 0.1 1.64481e-009 -4.11202e-010 0.00940721 
0.267333 0.117481 0.1 1.63956e-009 -4.09889e-010 0.00937717 
0.299563 0.102063 0.1 8.36877e-010 -2.09219e-010 0.00478638 
0.335583 0.090602 0.1 6.03531e-010 -1.50883e-010 0.00345179 
0.375396 0.083461 0.1 1.41519e-009 -3.53798e-010 0.00809394 
0.419 0.081 0.1 1.69768e-009 -4.24421e-010 0.00970961 
0.456046 0.083402 0.1 5.32872e-010 -1.33218e-010 0.00304767 
0.491037 0.090384 0.1 1.50152e-009 -3.75381e-010 0.00858771 
0.52375 0.101609 0.1 8.046e-010 -2.0115e-010 0.00460178 
0.553963 0.116741 0.0999999 1.63099e-009 -4.07747e-010 0.00932817 
0.581454 0.135442 0.0999999 1.65524e-009 -4.13809e-010 0.00946684 
0.606 0.157375 0.0999999 1.01008e-009 -2.52521e-010 0.005777 
0.62738 0.182204 0.0999999 1.75398e-009 -4.38494e-010 0.0100316 
0.64537 0.209593 0.0999998 1.78785e-009 -4.46964e-010 0.0102253 
0.65975 0.239203 0.0999998 1.82575e-009 -4.56439e-010 0.0104421 
0.670296 0.270699 0.0999999 1.8674e-009 -4.66851e-010 0.0106803 
0.676787 0.303744 0.0999999 1.19417e-009 -2.98544e-010 0.00682988 
0.679 0.338 0.0999999 1.9689e-009 -4.92225e-010 0.0112608 
0.676729 0.374475 0.0999999 2.13231e-009 -5.33076e-010 0.0121954 
0.670079 0.409218 0.0999999 2.06444e-009 -5.16108e-010 0.0118072 
0.659297 0.441953 0.0999999 1.1632e-009 -2.908e-010 0.00665273 
0.64463 0.472407 0.0999999 1.94673e-009 -4.86684e-010 0.011134 
0.626324 0.500306 0.0999999 1.90377e-009 -4.75943e-010 0.0108883 
0.604625 0.525375 0.0999999 9.98946e-010 -2.49737e-010 0.00571331 
0.579781 0.54734 0.0999999 1.79106e-009 -4.47765e-010 0.0102437 
0.552037 0.565926 0.1 8.11772e-010 -2.02943e-010 0.0046428 
0.521641 0.580859 0.1 1.66411e-009 -4.16027e-010 0.00951759 
0.488838 0.591866 0.1 5.63892e-010 -1.40973e-010 0.00322509 
0.453876 0.598671 0.1 2.47424e-010 -6.18561e-011 0.0014151 
0.417 0.601 0.1 1.93687e-009 -4.84219e-010 0.0110776 
0.368814 0.597832 0.1 3.92896e-010 -9.82238e-011 0.0022471 
0.326093 0.58882 0.1 1.67204e-009 -4.1801e-010 0.00956296 
0.288594 0.574703 0.1 7.8835e-010 -1.97088e-010 0.00450884 
0.256074 0.556222 0.1 1.83679e-009 -4.59196e-010 0.0105052 
0.228291 0.534116 0.1 1.01441e-009 -2.53603e-010 0.00580176 
0.205 0.509125 0.1 1.93073e-009 -4.82682e-010 0.0110425 
0.185959 0.481988 0.1 1.94212e-009 -4.8553e-010 0.0111076 
0.170926 0.453444 0.1 1.07639e-009 -2.69098e-010 0.00615624 
0.159656 0.424234 0.1 1.94072e-009 -4.85179e-010 0.0110996 
0.151907 0.395097 0.1 1.03373e-009 -2.58434e-010 0.00591227 
0.147436 0.366773 0.1 1.86775e-009 -4.66939e-010 0.0106823 
0.146 0.34 0.1 1.81213e-009 -4.53032e-010 0.0103642 
0.496 -0.000999996 -0.1 -9.2966e-010 2.32415e-010 -0.00531704 
0.524946 -0.013021 -0.1 -7.12258e-010 1.78064e-010 -0.00407364 
0.551903 -0.023583 -0.1 -1.19949e-009 2.99872e-010 -0.00686028 
0.577047 -0.032687 -0.1 -5.88534e-010 1.47134e-010 -0.00336602 
0.600556 -0.040333 -0.1 -1.10459e-009 2.76148e-010 -0.00631753 
0.622606 -0.046521 -0.1 -4.40512e-010 1.10128e-010 -0.00251943 
0.643375 -0.05125 -0.1 -9.8335e-010 2.45838e-010 -0.00562411 
0.66304 -0.054521 -0.1 -2.76318e-010 6.90797e-011 -0.00158036 
0.681778 -0.056333 -0.1 -1.50294e-010 3.75736e-011 -0.000859584 
0.699766 -0.056688 -0.1 -4.10986e-009 1.02747e-009 -0.0235057 
0.717181 -0.055583 -0.1 -4.69408e-010 1.17352e-010 -0.0026847 
0.7342 -0.053021 -0.1 -5.21698e-010 1.30424e-010 -0.00298376 
0.751 -0.049 -0.1 -1.09214e-011 2.73035e-012 -6.24631e-005 
0.754 -0.052 -0.1 -2.96401e-010 7.41002e-011 -0.00169522 
0.666 -0.139 -0.1 -5.3479e-009 1.33697e-009 -0.0305864 
0.633494 -0.135501 -0.1 -1.14378e-011 2.85944e-012 -6.54164e-005 
0.601949 -0.130093 -0.1 -4.42376e-011 1.10594e-011 -0.000253009 
0.571328 -0.122906 -0.1 -9.53226e-011 2.38307e-011 -0.000545182 
0.541593 -0.114074 -0.1 -1.61665e-010 4.04163e-011 -0.000924617 
0.512704 -0.103728 -0.1 -2.40322e-010 6.00804e-011 -0.00137448 
0.484625 -0.092 -0.1 -3.28336e-010 8.20839e-011 -0.00187786 
0.457317 -0.079022 -0.1 -4.22782e-010 1.05695e-010 -0.00241803 
0.430741 -0.064926 -0.1 -5.0003e-009 1.25008e-009 -0.0285984 
0.404859 -0.049844 -0.1 -1.65038e-009 4.12595e-010 -0.00943908 
0.379634 -0.033907 -0.1 -1.72196e-009 4.3049e-010 -0.00984846 
0.355027 -0.017249 -0.1 -1.75185e-009 4.37962e-010 -0.0100194 
0.331 4.37114e-009 -0.1 -8.52146e-010 2.13037e-010 -0.00487371 
0.289871 0.010185 -0.1 -1.31856e-009 3.29639e-010 -0.00754126 
0.251134 0.024565 -0.1 -2.47514e-009 6.18785e-010 -0.0141562 
0.215016 0.042875 -0.1 -3.8312e-009 9.57798e-010 -0.0219119 
0.181741 0.064852 -0.1 -5.76552e-009 1.44138e-009 -0.0329749 
0.151535 0.090231 -0.1 -2.7325e-009 6.83124e-010 -0.0156281 
0.124625 0.11875 -0.1 -1.87366e-009 4.68414e-010 -0.0107161 
0.101236 0.150144 -0.1 -2.36828e-009 5.92072e-010 -0.013545 
0.081593 0.184148 -0.1 -1.8805e-009 4.70124e-010 -0.0107552 
0.065922 0.2205 -0.1 -1.92605e-009 4.81513e-010 -0.0110157 
0.054449 0.258935 -0.1 -1.98012e-009 4.95031e-010 -0.011325 
0.0474 0.29919 -0.1 -2.64085e-009 6.60214e-010 -0.0151039 
0.045 0.341 -0.1 -2.09506e-009 5.23763e-010 -0.0119823 
0.048178 0.391161 -0.1 -2.7857e-009 6.96424e-010 -0.0159323 
0.057505 0.438454 -0.1 -2.82018e-009 7.05046e-010 -0.0161296 
0.072672 0.482594 -0.1 -2.26117e-009 5.65291e-010 -0.0129324 
0.09337 0.523296 -0.1 -2.76292e-009 6.90732e-010 -0.0158021 
0.119291 0.560277 -0.1 -2.72954e-009 6.82383e-010 -0.0156111 
0.150125 0.59325 -0.1 -4.29087e-009 1.07272e-009 -0.0245409 
0.185563 0.621932 -0.1 -5.88892e-009 1.47223e-009 -0.0336807 
0.225296 0.646037 -0.1 -3.92008e-009 9.80018e-010 -0.0224202 
0.269016 0.665281 -0.1 -2.24767e-009 5.61917e-010 -0.0128552 
0.316412 0.67938 -0.1 -9.77203e-010 2.44301e-010 -0.00558895 
0.367177 0.688047 -0.1 -2.13588e-010 5.33968e-011 -0.00122158 
0.421 0.691 -0.1 -5.50128e-011 1.37532e-011 -0.000314636 
0.470918 0.687893 -0.1 -5.2954e-010 1.32385e-010 -0.00302861 
0.518426 0.678815 -0.1 -1.56508e-009 3.9127e-010 -0.00895121 
0.563156 0.664125 -0.1 -3.05443e-009 7.63608e-010 -0.0174693 
0.604741 0.644185 -0.1 -4.88933e-009 1.22233e-009 -0.0279637 
0.642811 0.619357 -0.1 -6.09622e-009 1.52405e-009 -0.0348663 
0.677 0.59 -0.1 -2.82612e-009 7.06529e-010 -0.0161635 
0.706939 0.556477 -0.1 -2.64062e-009 6.60155e-010 -0.0151026 
0.732259 0.519148 -0.1 -2.69154e-009 6.72884e-010 -0.0153938 
0.752594 0.478375 -0.1 -2.21145e-009 5.52864e-010 -0.012648 
0.767574 0.434519 -0.1 -2.84167e-009 7.10417e-010 -0.0162525 
0.776832 0.38794 -0.1 -2.32275e-009 5.80687e-010 -0.0132846 
0.78 0.339 -0.1 -2.22722e-009 5.56805e-010 -0.0127382 
0.777563 0.29828 -0.1 -2.61849e-009 6.54623e-010 -0.014976 
0.770421 0.258819 -0.1 -1.9725e-009 4.93125e-010 -0.0112814 
0.758828 0.220922 -0.1 -1.936e-009 4.83999e-010 -0.0110726 
0.743037 0.184889 -0.1 -1.90452e-009 4.76131e-010 -0.0108926 
0.723302 0.151023 -0.1 -2.40056e-009 6.00139e-010 -0.0137296 
0.699875 0.119625 -0.1 -1.89492e-009 4.7373e-010 -0.0108377 
0.673011 0.090998 -0.1 -2.33122e-009 5.82806e-010 -0.013333 
0.642963 0.065444 -0.1 -4.40544e-009 1.10136e-009 -0.0251962 
0.609984 0.043266 -0.1 -4.58033e-009 1.14508e-009 -0.0261964 
0.574329 0.024764 -0.1 -3.13058e-009 7.82645e-010 -0.0179048 
0.536249 0.010241 -0.1 -1.84392e-009 4.60982e-010 -0.010546 
0.496 4.37114e-009 -0.1 -7.03736e-012 1.75934e-012 -4.0249e-005 
0.496 0.001 -0.1 -7.6345e-010 1.90863e-010 -0.00436643 
0.147896 0.305914 -0.1 -1.18798e-009 2.96996e-010 -0.00679447 
0.153583 0.272898 -0.1 -1.87239e-009 4.68097e-010 -0.0107088 
0.163063 0.241313 -0.1 -1.8195e-009 4.54875e-010 -0.0104063 
0.176333 0.211519 -0.1 -1.77104e-009 4.4276e-010 -0.0101292 
0.193396 0.183877 -0.1 -1.73122e-009 4.32805e-010 -0.00990143 
0.21425 0.15875 -0.1 -1.00467e-009 2.51168e-010 -0.00574606 
0.238896 0.136498 -0.1 -1.64481e-009 4.11202e-010 -0.00940721 
0.267333 0.117481 -0.1 -1.63956e-009 4.09889e-010 -0.00937717 
0.299563 0.102063 -0.1 -8.36877e-010 2.09219e-010 -0.00478638 
0.335583 0.090602 -0.1 -6.03531e-010 1.50883e-010 -0.00345179 
0.375396 0.083461 -0.1 -1.41519e-009 3.53798e-010 -0.00809394 
0.419 0.081 -0.1 -1.69768e-009 4.24421e-010 -0.00970961 
0.456046 0.083402 -0.1 -5.32872e-010 1.33218e-010 -0.00304767 
0.491037 0.090384 -0.1 -1.50152e-009 3.75381e-010 -0.00858771 
0.52375 0.101609 -0.1 -8.046e-010 2.0115e-010 -0.00460178 
0.553963 0.116741 -0.1 -1.63099e-009 4.07747e-010 -0.00932817 
0.581454 0.135442 -0.1 -1.65524e-009 4.13809e-010 -0.00946684 
0.606 0.157375 -0.1 -1.01008e-009 2.52521e-010 -0.005777 
0.62738 0.182204 -0.1 -1.75398e-009 4.38494e-010 -0.0100316 
0.64537 0.209593 -0.1 -1.78785e-009 4.46964e-010 -0.0102253 
0.65975 0.239203 -0.1 -1.82575e-009 4.56439e-010 -0.0104421 
0.670296 0.270699 -0.1 -1.8674e-009 4.66851e-010 -0.0106803 
0.676787 0.303744 -0.1 -1.19417e-009 2.98544e-010 -0.00682988 
0.679 0.338 -0.1 -1.9689e-009 4.92225e-010 -0.0112608 
0.676729 0.374475 -0.1 -2.13231e-009 5.33076e-010 -0.0121954 
0.670079 0.409218 -0.1 -2.06444e-009 5.16108e-010 -0.0118072 
0.659297 0.441953 -0.1 -1.1632e-009 2.908e-010 -0.00665273 
0.64463 0.472407 -0.1 -1.94673e-009 4.86684e-010 -0.011134 
0.626324 0.500306 -0.1 -1.90377e-009 4.75943e-010 -0.0108883 
0.604625 0.525375 -0.1 -9.98946e-010 2.49737e-010 -0.00571331 
0.579781 0.54734 -0.1 -1.79106e-009 4.47765e-010 -0.0102437 
0.552037 0.565926 -0.1 -8.11772e-010 2.02943e-010 -0.0046428 
0.521641 0.580859 -0.1 -1.66411e-009 4.16027e-010 -0.00951759 
0.488838 0.591866 -0.1 -5.63892e-010 1.40973e-010 -0.00322509 
0.453876 0.598671 -0.1 -2.47424e-010 6.18561e-011 -0.0014151 
0.417 0.601 -0.1 -1.93687e-009 4.84219e-010 -0.0110776 
0.368814 0.597832 -0.1 -3.92896e-010 9.82238e-011 -0.0022471 
0.326093 0.58882 -0.1 -1.67204e-009 4.1801e-010 -0.00956296 
0.288594 0.574703 -0.1 -7.8835e-010 1.97088e-010 -0.00450884 
0.256074 0.556222 -0.1 -1.83679e-009 4.59196e-010 -0.0105052 
0.228291 0.534116 -0.1 -1.01441e-009 2.53603e-010 -0.00580176 
0.205 0.509125 -0.1 -1.93073e-009 4.82682e-010 -0.0110425 
0.185959 0.481988 -0.1 -1.94212e-009 4.8553e-010 -0.0111076 
0.170926 0.453444 -0.1 -1.07639e-009 2.69098e-010 -0.00615624 
0.159656 0.424234 -0.1 -1.94072e-009 4.85179e-010 -0.0110996 
0.151907 0.395097 -0.1 -1.03373e-009 2.58434e-010 -0.00591227 
0.147436 0.366773 -0.1 -1.86775e-009 4.66939e-010 -0.0106823 
0.146 0.34 -0.1 -1.81213e-009 4.53032e-010 -0.0103642 
0.496 -0.000999996 -0.1 2.38353 0.923527 -3.76381e-007 
0.496 -0.001 0.1 1.76706 1.84705 -2.28226e-007 
0.524946 -0.013021 -0.1 1.13187 2.77814 -7.64663e-008 
0.524946 -0.013021 0.1 1.11315 2.78569 -7.28624e-008 
0.551903 -0.023583 -0.1 1.07006 2.80243 -6.4597e-008 
0.551903 -0.023583 0.1 1.0457 2.81161 -5.99364e-008 
0.577047 -0.032687 -0.1 0.990181 2.8315 -4.93602e-008 
0.577047 -0.032687 0.0999998 0.959025 2.8422 -4.34448e-008 
0.600556 -0.040333 -0.1 0.888776 2.86474 -3.01768e-008 
0.600556 -0.040333 0.0999998 0.849684 2.87658 -2.28242e-008 
0.622606 -0.046521 -0.1 0.762407 2.90065 -6.51184e-009 
0.622606 -0.046521 0.0999998 0.714222 2.91289 2.44803e-009 
0.643375 -0.05125 -0.1 0.608107 2.93653 2.20352e-008 
0.643375 -0.05125 0.0999998 0.550176 2.94794 3.26626e-008 
0.66304 -0.054521 -0.1 0.424416 2.96825 5.55391e-008 
0.66304 -0.054521 0.0999998 0.356587 2.97716 6.77881e-008 
0.681778 -0.056333 -0.1 0.212237 2.99052 9.36107e-008 
0.681778 -0.056333 0.0999998 0.135716 2.99497 1.07185e-007 
0.699766 -0.056688 -0.1 -0.0238606 2.9976 1.35201e-007 
0.699766 -0.056688 0.0999998 -0.106916 2.99579 1.49644e-007 
0.717181 -0.055583 -0.1 -0.275508 2.98484 1.78643e-007 
0.717181 -0.055583 0.0999998 -0.361045 2.97571 1.932e-007 
0.7342 -0.053021 -0.1 -0.530492 2.95025 2.21714e-007 
0.7342 -0.053021 0.0999998 -0.614403 2.93392 2.35672e-007 
0.751 -0.049 -0.1 0.241563 2.65217 7.3694e-008 
0.751 -0.049 0.0999998 1.18144 2.38675 -1.02241e-007 
0.754 -0.052 -0.1 2.11726 0.703082 -3.39461e-007 
0.754 -0.052 0.0999998 2.11321 -0.715163 -4.00747e-007 
0.666 -0.139 -0.1 1.29909 -2.41653 -3.32769e-007 
0.666 -0.139 0.0999998 0.489008 -2.69965 -2.03506e-007 
0.633494 -0.135501 -0.1 -0.383019 -2.97413 -6.30343e-008 
0.633494 -0.135501 0.0999998 -0.444968 -2.9655 -5.18254e-008 
0.601949 -0.130093 -0.1 -0.566443 -2.94479 -2.96806e-008 
0.601949 -0.130093 0.0999998 -0.62597 -2.93271 -1.87448e-008 
0.571328 -0.122906 -0.1 -0.741727 -2.9057 2.67563e-009 
0.571328 -0.122906 0.0999998 -0.797958 -2.89076 1.31603e-008 
0.541593 -0.114074 -0.1 -0.906619 -2.85866 3.35622e-008 
0.541593 -0.114074 0.0999999 -0.95905 -2.8415 4.34796e-008 
0.512704 -0.103728 -0.1 -1.05973 -2.80564 6.26507e-008 
0.512704 -0.103728 0.0999999 -1.10798 -2.78694 7.19046e-008 
0.484625 -0.092 -0.1 -1.20006 -2.74868 8.96764e-008 
0.484625 -0.092 0.0999999 -1.24389 -2.72913 9.81942e-008 
0.457317 -0.079022 -0.1 -1.32705 -2.68981 1.14453e-007 
0.457317 -0.079022 0.1 -1.36638 -2.67004 1.22194e-007 
0.430741 -0.064926 -0.1 -1.44062 -2.63086 1.36887e-007 
0.430741 -0.064926 0.1 -1.47552 -2.61144 1.43839e-007 
0.404859 -0.049844 -0.1 -1.54108 -2.57342 1.56963e-007 
0.404859 -0.049844 0.1 -1.57172 -2.55482 1.63134e-007 
0.379634 -0.033907 -0.1 -1.62883 -2.51891 1.74689e-007 
0.379634 -0.033907 0.1 -1.6553 -2.5016 1.80074e-007 
0.355027 -0.017249 -0.1 -1.70436 -2.46853 1.90097e-007 
0.355027 -0.017249 0.1 -1.72695 -2.45278 1.94735e-007 
0.331 4.37114e-009 -0.1 -1.40674 -2.59536 1.32515e-007 
0.331 -4.37114e-009 0.1 -1.06393 -2.7537 6.56553e-008 
0.289871 0.010185 -0.1 -0.828765 -2.87885 1.90674e-008 
0.289871 0.010185 0.1 -0.936406 -2.84566 3.93388e-008 
0.251134 0.024565 -0.1 -1.1482 -2.76691 7.98118e-008 
0.251134 0.024565 0.1 -1.25235 -2.72136 1.00013e-007 
0.215016 0.042875 -0.1 -1.45544 -2.6183 1.40028e-007 
0.215016 0.042875 0.1 -1.55439 -2.5608 1.59842e-007 
0.181741 0.064852 -0.1 -1.74551 -2.43449 1.98779e-007 
0.181741 0.064852 0.1 -1.83767 -2.36569 2.17901e-007 
0.151535 0.090231 -0.1 -2.01389 -2.21755 2.55187e-007 
0.151535 0.090231 0.1 -2.09793 -2.13821 2.7335e-007 
0.124625 0.11875 -0.1 -2.25657 -1.97002 3.08439e-007 
0.124625 0.11875 0.1 -2.33116 -1.88117 3.25364e-007 
0.101236 0.150144 -0.1 -2.46974 -1.69508 3.57729e-007 
0.101236 0.150144 0.1 -2.53373 -1.59785 3.73167e-007 
0.081593 0.184148 -0.1 -2.65012 -1.39628 4.02328e-007 
0.081593 0.184148 0.1 -2.70252 -1.29195 4.16051e-007 
0.065922 0.2205 -0.1 -2.79483 -1.07778 4.41553e-007 
0.065922 0.2205 0.1 -2.83474 -0.967937 4.53332e-007 
0.054449 0.258935 -0.1 -2.90145 -0.744549 4.74761e-007 
0.054449 0.258935 0.1 -2.92824 -0.631001 4.84408e-007 
0.0474 0.29919 -0.1 -2.96838 -0.402276 5.01424e-007 
0.0474 0.29919 0.1 -2.98173 -0.287101 5.08792e-007 
0.045 0.341 -0.1 -2.99471 -0.0513873 5.21366e-007 
0.045 0.341 0.1 -2.99435 0.0691501 5.26571e-007 
0.048178 0.391161 -0.1 -2.9771 0.319949 5.34518e-007 
0.048178 0.391161 0.1 -2.9602 0.45021 5.37257e-007 
0.057505 0.438454 -0.1 -2.90793 0.711943 5.39558e-007 
0.057505 0.438454 0.1 -2.87256 0.843415 5.39121e-007 
0.072672 0.482594 -0.1 -2.78282 1.10321 5.34787e-007 
0.072672 0.482594 0.1 -2.72846 1.23153 5.30891e-007 
0.09337 0.523296 -0.1 -2.60161 1.48054 5.19596e-007 
0.09337 0.523296 0.1 -2.52912 1.60123 5.12197e-007 
0.119291 0.560277 -0.1 -2.36815 1.83096 4.94094e-007 
0.119291 0.560277 0.1 -2.27968 1.94001 4.83392e-007 
0.150125 0.59325 -0.1 -2.08992 2.14335 4.59102e-007 
0.150125 0.59325 0.1 -1.98864 2.23763 4.45515e-007 
0.185563 0.621932 -0.1 -1.77693 2.40958 4.16014e-007 
0.185563 0.621932 0.1 -1.66649 2.48724 4.00099e-007 
0.225296 0.646037 -0.1 -1.44023 2.62519 3.66569e-007 
0.225296 0.646037 0.1 -1.32441 2.68548 3.48954e-007 
0.269016 0.665281 -0.1 -1.09085 2.78901 3.12642e-007 
0.269016 0.665281 0.1 -0.973114 2.83224 2.93945e-007 
0.316412 0.67938 -0.1 -0.738541 2.90272 2.56012e-007 
0.316412 0.67938 0.1 -0.62171 2.92996 2.36776e-007 
0.367177 0.688047 -0.1 -0.391368 2.96997 1.9825e-007 
0.367177 0.688047 0.1 -0.277858 2.98273 1.78962e-007 
0.421 0.691 -0.1 -0.0474429 2.99507 1.39214e-007 
0.421 0.691 0.1 0.0694617 2.99464 1.18754e-007 
0.470918 0.687893 -0.1 0.311931 2.97837 7.56491e-008 
0.470918 0.687893 0.1 0.437496 2.96253 5.30019e-008 
0.518426 0.678815 -0.1 0.687393 2.91453 7.21069e-009 
0.518426 0.678815 0.1 0.811724 2.88238 -1.59335e-008 
0.563156 0.664125 -0.1 1.0564 2.80185 -6.22343e-008 
0.563156 0.664125 0.0999999 1.17675 2.75347 -8.53912e-008 
0.604741 0.644185 -0.1 1.41099 2.64101 -1.31263e-007 
0.604741 0.644185 0.0999999 1.52489 2.57693 -1.5398e-007 
0.642811 0.619357 -0.1 1.74399 2.43391 -1.98539e-007 
0.642811 0.619357 0.0999999 1.84918 2.35498 -2.20381e-007 
0.677 0.59 -0.1 2.04877 2.18348 -2.62775e-007 
0.677 0.59 0.0999999 2.14316 2.09091 -2.83326e-007 
0.706939 0.556477 -0.1 2.31929 1.89357 -3.22747e-007 
0.706939 0.556477 0.0999999 2.40102 1.7888 -3.41617e-007 
0.732259 0.519148 -0.1 2.55004 1.569 -3.77281e-007 
0.732259 0.519148 0.0999999 2.61734 1.45396 -3.94075e-007 
0.752594 0.478375 -0.1 2.73608 1.21586 -4.25245e-007 
0.752594 0.478375 0.0999999 2.78751 1.09278 -4.39617e-007 
0.767574 0.434519 -0.1 2.87345 0.841418 -4.6563e-007 
0.767574 0.434519 0.0999999 2.90795 0.713127 -4.7727e-007 
0.776832 0.38794 -0.1 2.95954 0.454487 -4.97596e-007 
0.776832 0.38794 0.0999998 2.97664 0.324139 -5.06283e-007 
0.78 0.339 -0.1 2.99404 0.0694529 -5.20458e-007 
0.78 0.339 0.0999998 2.99434 -0.0548847 -5.25947e-007 
0.777563 0.29828 -0.1 2.98044 -0.297576 -5.34124e-007 
0.777563 0.29828 0.0999998 2.96624 -0.415929 -5.36815e-007 
0.770421 0.258819 -0.1 2.92428 -0.648716 -5.39654e-007 
0.770421 0.258819 0.0999998 2.89653 -0.76315 -5.39804e-007 
0.758828 0.220922 -0.1 2.82842 -0.986441 -5.37655e-007 
0.758828 0.220922 0.0999998 2.78808 -1.0953 -5.3536e-007 
0.743037 0.184889 -0.1 2.69582 -1.30626 -5.28451e-007 
0.743037 0.184889 0.0999998 2.64391 -1.40836 -5.23838e-007 
0.723302 0.151023 -0.1 2.52949 -1.60499 -5.12426e-007 
0.723302 0.151023 0.0999998 2.46697 -1.69951 -5.05627e-007 
0.699875 0.119625 -0.1 2.33218 -1.88032 -4.89963e-007 
0.699875 0.119625 0.0999998 2.25989 -1.96661 -4.81095e-007 
0.673011 0.090998 -0.1 2.10625 -2.13037 -4.6139e-007 
0.673011 0.090998 0.0999998 2.02489 -2.20784 -4.5055e-007 
0.642963 0.065444 -0.1 1.85373 -2.35336 -4.26985e-007 
0.642963 0.065444 0.0999998 1.76392 -2.4214 -4.14257e-007 
0.609984 0.043266 -0.1 1.57668 -2.54724 -3.87019e-007 
0.609984 0.043266 0.0999998 1.47923 -2.60503 -3.72506e-007 
0.574329 0.024764 -0.1 1.27754 -2.70957 -3.41811e-007 
0.574329 0.024764 0.0999998 1.17329 -2.75632 -3.25626e-007 
0.536249 0.010241 -0.1 0.959274 -2.83783 -2.9177e-007 
0.536249 0.010241 0.1 0.849514 -2.8726 -2.74099e-007 
0.496 4.37114e-009 -0.1 -0.506831 -1.93824 3.89387e-009 
0.496 -4.37114e-009 0.1 -1.75342 -0.969121 2.64216e-007 
0.496 0.001 -0.1 -1 0 1.74846e-007 
0.496 0.000999996 0.1 1 0 -1.74846e-007 
0.147896 0.305914 -0.1 2.9824 0.280827 -5.09184e-007 
0.147896 0.305914 0.1 2.96943 0.395038 -5.01924e-007 
0.153583 0.272898 -0.1 2.92876 0.626973 -4.84675e-007 
0.153583 0.272898 0.1 2.90106 0.744696 -4.74686e-007 
0.163063 0.241313 -0.1 2.82907 0.981807 -4.51734e-007 
0.163063 0.241313 0.1 2.78477 1.10119 -4.38769e-007 
0.176333 0.211519 -0.1 2.67792 1.33899 -4.09693e-007 
0.176333 0.211519 0.1 2.61536 1.4574 -3.93579e-007 
0.193396 0.183877 -0.1 2.47137 1.68918 -3.58272e-007 
0.193396 0.183877 0.1 2.38994 1.80256 -3.39078e-007 
0.21425 0.15875 -0.1 2.20914 2.01952 -2.97982e-007 
0.21425 0.15875 0.1 2.10978 2.12312 -2.76081e-007 
0.238896 0.136498 -0.1 1.89617 2.31573 -2.30313e-007 
0.238896 0.136498 0.1 1.78193 2.40474 -2.06447e-007 
0.267333 0.117481 -0.1 1.54333 2.5646 -1.57742e-007 
0.267333 0.117481 0.1 1.41897 2.63544 -1.32902e-007 
0.299563 0.102063 -0.1 1.16628 2.75711 -8.34018e-008 
0.299563 0.102063 0.1 1.03795 2.80794 -5.87418e-008 
0.335583 0.090602 -0.1 0.782957 2.89014 -1.05645e-008 
0.335583 0.090602 0.1 0.656298 2.92151 1.29525e-008 
0.375396 0.083461 -0.1 0.409442 2.967 5.81023e-008 
0.375396 0.083461 0.1 0.289246 2.98111 7.97353e-008 
0.419 0.081 -0.1 0.0479978 2.99473 1.22512e-007 
0.419 0.081 0.1 -0.0730548 2.99422 1.43655e-007 
0.456046 0.083402 -0.1 -0.325084 2.97648 1.86946e-007 
0.456046 0.083402 0.1 -0.456061 2.95924 2.09093e-007 
0.491037 0.090384 -0.1 -0.715919 2.9072 2.52253e-007 
0.491037 0.090384 0.1 -0.8448 2.8724 2.73266e-007 
0.52375 0.101609 -0.1 -1.09694 2.78586 3.13569e-007 
0.52375 0.101609 0.1 -1.22019 2.73412 3.32857e-007 
0.553963 0.116741 -0.1 -1.45809 2.61508 3.69249e-007 
0.553963 0.116741 0.0999999 -1.57273 2.54778 3.86351e-007 
0.581454 0.135442 -0.1 -1.79122 2.39934 4.18064e-007 
0.581454 0.135442 0.0999999 -1.89506 2.31819 4.32674e-007 
0.606 0.157375 -0.1 -2.09038 2.14388 4.59206e-007 
0.606 0.157375 0.0999999 -2.18185 2.05071 4.71126e-007 
0.62738 0.182204 -0.1 -2.35138 1.85402 4.9217e-007 
0.62738 0.182204 0.0999999 -2.42943 1.75051 5.01292e-007 
0.64537 0.209593 -0.1 -2.57118 1.53485 5.1665e-007 
0.64537 0.209593 0.0999998 -2.63489 1.42271 5.22887e-007 
0.65975 0.239203 -0.1 -2.74732 1.19122 5.32426e-007 
0.65975 0.239203 0.0999998 -2.79604 1.07188 5.35729e-007 
0.670296 0.270699 -0.1 -2.87776 0.827768 5.39346e-007 
0.670296 0.270699 0.0999999 -2.91075 0.703003 5.39661e-007 
0.676787 0.303744 -0.1 -2.96042 0.449959 5.37284e-007 
0.676787 0.303744 0.0999999 -2.97709 0.321681 5.34591e-007 
0.679 0.338 -0.1 -2.99391 0.0667935 5.26391e-007 
0.679 0.338 0.0999999 -2.99405 -0.0598153 5.20882e-007 
0.676729 0.374475 -0.1 -2.9783 -0.312276 5.07093e-007 
0.676729 0.374475 0.0999999 -2.96241 -0.438129 4.98813e-007 
0.670079 0.409218 -0.1 -2.91415 -0.688827 4.79416e-007 
0.670079 0.409218 0.0999999 -2.88178 -0.813673 4.683e-007 
0.659297 0.441953 -0.1 -2.80057 -1.05959 4.43351e-007 
0.659297 0.441953 0.0999999 -2.75172 -1.18066 4.29518e-007 
0.64463 0.472407 -0.1 -2.638 -1.41642 3.99328e-007 
0.64463 0.472407 0.0999999 -2.57313 -1.53111 3.82973e-007 
0.626324 0.500306 -0.1 -2.42827 -1.75166 3.48005e-007 
0.626324 0.500306 0.0999999 -2.34828 -1.85752 3.29392e-007 
0.604625 0.525375 -0.1 -2.17456 -2.0581 2.9025e-007 
0.604625 0.525375 0.0999999 -2.08083 -2.15282 2.69721e-007 
0.579781 0.54734 -0.1 -1.88129 -2.32917 2.27124e-007 
0.579781 0.54734 0.0999999 -1.77549 -2.41079 2.05058e-007 
0.552037 0.565926 -0.1 -1.55407 -2.55914 1.59859e-007 
0.552037 0.565926 0.1 -1.43845 -2.62587 1.36726e-007 
0.521641 0.580859 -0.1 -1.2 -2.74312 8.99092e-008 
0.521641 0.580859 0.1 -1.07718 -2.79364 6.62261e-008 
0.488838 0.591866 -0.1 -0.827289 -2.87768 1.88603e-008 
0.488838 0.591866 0.1 -0.700226 -2.91121 -4.8216e-009 
0.453876 0.598671 -0.1 -0.445141 -2.96117 -5.16059e-008 
0.453876 0.598671 0.1 -0.317118 -2.9776 -7.47087e-008 
0.417 0.601 -0.1 -0.0604603 -2.99387 -1.20295e-007 
0.417 0.601 0.1 0.0681748 -2.9937 -1.42779e-007 
0.368814 0.597832 -0.1 0.337615 -2.97416 -1.89035e-007 
0.368814 0.597832 0.1 0.47842 -2.95478 -2.12807e-007 
0.326093 0.58882 -0.1 0.765141 -2.89281 -2.6023e-007 
0.326093 0.58882 0.1 0.911056 -2.85022 -2.83881e-007 
0.288594 0.574703 -0.1 1.19873 -2.74117 -3.29413e-007 
0.288594 0.574703 0.1 1.34049 -2.67471 -3.51294e-007 
0.256074 0.556222 -0.1 1.61079 -2.52135 -3.91852e-007 
0.256074 0.556222 0.1 1.73933 -2.43446 -4.10528e-007 
0.228291 0.534116 -0.1 1.9768 -2.24683 -4.43846e-007 
0.228291 0.534116 0.1 2.08573 -2.14609 -4.58489e-007 
0.205 0.509125 -0.1 2.28169 -1.93795 -4.83654e-007 
0.205 0.509125 0.1 2.36873 -1.83054 -4.94178e-007 
0.185959 0.481988 -0.1 2.52198 -1.61474 -5.11539e-007 
0.185959 0.481988 0.1 2.58818 -1.50635 -5.18376e-007 
0.170926 0.453444 -0.1 2.70255 -1.29193 -5.29001e-007 
0.170926 0.453444 0.1 2.75073 -1.18591 -5.3279e-007 
0.159656 0.424234 -0.1 2.83234 -0.976943 -5.37926e-007 
0.159656 0.424234 0.1 2.86578 -0.873996 -5.39272e-007 
0.151907 0.395097 -0.1 2.92058 -0.669955 -5.39935e-007 
0.151907 0.395097 0.1 2.94195 -0.56886 -5.39252e-007 
0.147436 0.366773 -0.1 2.9741 -0.365402 -5.35981e-007 
0.147436 0.366773 0.1 2.9849 -0.26304 -5.33394e-007 
0.146 0.34 -0.1 2.99559 -0.0515795 -5.2602e-007 
0.146 0.34 0.1 2.99548 0.0575179 -5.21232e-007 
3 49 51 50 
3 48 51 49 
3 48 52 51 
3 47 52 48 
3 47 53 52 
3 46 53 47 
3 46 54 53 
3 45 54 46 
3 45 55 54 
3 44 55 45 
3 44 111 55 
3 111 56 55 
3 44 112 111 
3 110 56 111 
3 109 56 110 
3 44 113 112 
3 43 113 44 
3 108 56 109 
3 108 57 56 
3 43 114 113 
3 107 57 108 
3 43 115 114 
3 106 57 107 
3 42 115 43 
3 106 58 57 
3 42 116 115 
3 105 58 106 
3 42 117 116 
3 104 58 105 
3 41 117 42 
3 104 59 58 
3 41 118 117 
3 103 59 104 
3 40 118 41 
3 40 119 118 
3 103 60 59 
3 102 60 103 
3 40 120 119 
3 101 60 102 
3 39 120 40 
3 101 61 60 
3 39 121 120 
3 100 61 101 
3 39 122 121 
3 38 122 39 
3 100 62 61 
3 99 62 100 
3 38 123 122 
3 37 123 38 
3 37 76 123 
3 99 63 62 
3 98 63 99 
3 37 77 76 
3 97 63 98 
3 36 77 37 
3 97 64 63 
3 36 78 77 
3 96 64 97 
3 35 78 36 
3 96 65 64 
3 35 79 78 
3 95 65 96 
3 95 66 65 
3 34 79 35 
3 34 80 79 
3 94 66 95 
3 94 67 66 
3 33 80 34 
3 33 81 80 
3 93 67 94 
3 33 82 81 
3 92 67 93 
3 92 68 67 
3 32 82 33 
3 32 83 82 
3 91 68 92 
3 91 69 68 
3 31 83 32 
3 31 84 83 
3 90 69 91 
3 31 85 84 
3 89 69 90 
3 89 70 69 
3 31 86 85 
3 88 70 89 
3 30 86 31 
3 30 87 86 
3 87 70 88 
3 30 70 87 
3 30 71 70 
3 29 71 30 
3 29 72 71 
3 28 72 29 
3 28 73 72 
3 27 73 28 
3 27 75 73 
3 75 74 73 
3 26 75 27 
3 26 0 75 
3 25 0 26 
3 25 1 0 
3 25 2 1 
3 24 2 25 
3 24 3 2 
3 24 4 3 
3 23 4 24 
3 23 5 4 
3 23 6 5 
3 11 13 12 
3 22 6 23 
3 22 7 6 
3 11 14 13 
3 10 14 11 
3 22 8 7 
3 9 14 10 
3 22 9 8 
3 22 14 9 
3 21 14 22 
3 20 14 21 
3 19 14 20 
3 18 14 19 
3 17 14 18 
3 16 14 17 
3 15 14 16 
3 175 173 174 
3 175 172 173 
3 176 172 175 
3 176 171 172 
3 177 171 176 
3 177 170 171 
3 178 170 177 
3 178 169 170 
3 179 169 178 
3 179 168 169 
3 235 168 179 
3 180 235 179 
3 236 168 235 
3 180 234 235 
3 180 233 234 
3 237 168 236 
3 237 167 168 
3 180 232 233 
3 181 232 180 
3 238 167 237 
3 181 231 232 
3 239 167 238 
3 181 230 231 
3 239 166 167 
3 182 230 181 
3 240 166 239 
3 182 229 230 
3 241 166 240 
3 182 228 229 
3 241 165 166 
3 183 228 182 
3 242 165 241 
3 183 227 228 
3 242 164 165 
3 243 164 242 
3 184 227 183 
3 184 226 227 
3 244 164 243 
3 184 225 226 
3 244 163 164 
3 185 225 184 
3 245 163 244 
3 185 224 225 
3 246 163 245 
3 246 162 163 
3 186 224 185 
3 186 223 224 
3 247 162 246 
3 247 161 162 
3 200 161 247 
3 187 223 186 
3 187 222 223 
3 201 161 200 
3 187 221 222 
3 201 160 161 
3 188 221 187 
3 202 160 201 
3 188 220 221 
3 202 159 160 
3 189 220 188 
3 203 159 202 
3 189 219 220 
3 190 219 189 
3 203 158 159 
3 204 158 203 
3 190 218 219 
3 191 218 190 
3 204 157 158 
3 205 157 204 
3 191 217 218 
3 206 157 205 
3 191 216 217 
3 192 216 191 
3 206 156 157 
3 207 156 206 
3 192 215 216 
3 193 215 192 
3 207 155 156 
3 208 155 207 
3 193 214 215 
3 209 155 208 
3 193 213 214 
3 194 213 193 
3 210 155 209 
3 194 212 213 
3 210 154 155 
3 211 154 210 
3 194 211 212 
3 194 154 211 
3 195 154 194 
3 195 153 154 
3 196 153 195 
3 196 152 153 
3 197 152 196 
3 197 151 152 
3 199 151 197 
3 198 199 197 
3 199 150 151 
3 124 150 199 
3 124 149 150 
3 125 149 124 
3 126 149 125 
3 126 148 149 
3 127 148 126 
3 128 148 127 
3 128 147 148 
3 129 147 128 
3 130 147 129 
3 137 135 136 
3 130 146 147 
3 131 146 130 
3 138 135 137 
3 138 134 135 
3 132 146 131 
3 138 133 134 
3 133 146 132 
3 138 146 133 
3 138 145 146 
3 138 144 145 
3 138 143 144 
3 138 142 143 
3 138 141 142 
3 138 140 141 
3 138 139 140 
3 249 251 250 
3 249 250 248 
3 251 253 252 
3 251 252 250 
3 253 255 254 
3 253 254 252 
3 255 257 256 
3 255 256 254 
3 257 259 258 
3 257 258 256 
3 259 261 260 
3 259 260 258 
3 261 263 262 
3 261 262 260 
3 263 265 264 
3 263 264 262 
3 265 267 266 
3 265 266 264 
3 267 269 268 
3 267 268 266 
3 269 271 270 
3 269 270 268 
3 271 273 272 
3 271 272 270 
3 273 275 274 
3 273 274 272 
3 275 277 276 
3 275 276 274 
3 277 279 278 
3 277 278 276 
3 279 281 280 
3 279 280 278 
3 281 283 282 
3 281 282 280 
3 283 285 284 
3 283 284 282 
3 285 287 286 
3 285 286 284 
3 287 289 288 
3 287 288 286 
3 289 291 290 
3 289 290 288 
3 291 293 292 
3 291 292 290 
3 293 295 294 
3 293 294 292 
3 295 297 296 
3 295 296 294 
3 297 299 298 
3 297 298 296 
3 299 301 300 
3 299 300 298 
3 301 303 302 
3 301 302 300 
3 303 305 304 
3 303 304 302 
3 305 307 306 
3 305 306 304 
3 307 309 308 
3 307 308 306 
3 309 311 310 
3 309 310 308 
3 311 313 312 
3 311 312 310 
3 313 315 314 
3 313 314 312 
3 315 317 316 
3 315 316 314 
3 317 319 318 
3 317 318 316 
3 319 321 320 
3 319 320 318 
3 321 323 322 
3 321 322 320 
3 323 325 324 
3 323 324 322 
3 325 327 326 
3 325 326 324 
3 327 329 328 
3 327 328 326 
3 329 331 330 
3 329 330 328 
3 331 333 332 
3 331 332 330 
3 333 335 334 
3 333 334 332 
3 335 337 336 
3 335 336 334 
3 337 339 338 
3 337 338 336 
3 339 341 340 
3 339 340 338 
3 341 343 342 
3 341 342 340 
3 343 345 344 
3 343 344 342 
3 345 347 346 
3 345 346 344 
3 347 349 348 
3 347 348 346 
3 349 351 350 
3 349 350 348 
3 351 353 352 
3 351 352 350 
3 353 355 354 
3 353 354 352 
3 355 357 356 
3 355 356 354 
3 357 359 358 
3 357 358 356 
3 359 361 360 
3 359 360 358 
3 361 363 362 
3 361 362 360 
3 363 365 364 
3 363 364 362 
3 365 367 366 
3 365 366 364 
3 367 369 368 
3 367 368 366 
3 369 371 370 
3 369 370 368 
3 371 373 372 
3 371 372 370 
3 373 375 374 
3 373 374 372 
3 375 377 376 
3 375 376 374 
3 377 379 378 
3 377 378 376 
3 379 381 380 
3 379 380 378 
3 381 383 382 
3 381 382 380 
3 383 385 384 
3 383 384 382 
3 385 387 386 
3 385 386 384 
3 387 389 388 
3 387 388 386 
3 389 391 390 
3 389 390 388 
3 391 393 392 
3 391 392 390 
3 393 395 394 
3 393 394 392 
3 395 397 396 
3 395 396 394 
3 397 399 398 
3 397 398 396 
3 399 249 248 
3 399 248 398 
3 401 403 402 
3 401 402 400 
3 403 405 404 
3 403 404 402 
3 405 407 406 
3 405 406 404 
3 407 409 408 
3 407 408 406 
3 409 411 410 
3 409 410 408 
3 411 413 412 
3 411 412 410 
3 413 415 414 
3 413 414 412 
3 415 417 416 
3 415 416 414 
3 417 419 418 
3 417 418 416 
3 419 421 420 
3 419 420 418 
3 421 423 422 
3 421 422 420 
3 423 425 424 
3 423 424 422 
3 425 427 426 
3 425 426 424 
3 427 429 428 
3 427 428 426 
3 429 431 430 
3 429 430 428 
3 431 433 432 
3 431 432 430 
3 433 435 434 
3 433 434 432 
3 435 437 436 
3 435 436 434 
3 437 439 438 
3 437 438 436 
3 439 441 440 
3 439 440 438 
3 441 443 442 
3 441 442 440 
3 443 445 444 
3 443 444 442 
3 445 447 446 
3 445 446 444 
3 447 449 448 
3 447 448 446 
3 449 451 450 
3 449 450 448 
3 451 453 452 
3 451 452 450 
3 453 455 454 
3 453 454 452 
3 455 457 456 
3 455 456 454 
3 457 459 458 
3 457 458 456 
3 459 461 460 
3 459 460 458 
3 461 463 462 
3 461 462 460 
3 463 465 464 
3 463 464 462 
3 465 467 466 
3 465 466 464 
3 467 469 468 
3 467 468 466 
3 469 471 470 
3 469 470 468 
3 471 473 472 
3 471 472 470 
3 473 475 474 
3 473 474 472 
3 475 477 476 
3 475 476 474 
3 477 479 478 
3 477 478 476 
3 479 481 480 
3 479 480 478 
3 481 483 482 
3 481 482 480 
3 483 485 484 
3 483 484 482 
3 485 487 486 
3 485 486 484 
3 487 489 488 
3 487 488 486 
3 489 491 490 
3 489 490 488 
3 491 493 492 
3 491 492 490 
3 493 495 494 
3 493 494 492 
3 495 401 400 
3 495 400 494 
