ply
format ascii 1.0
comment VCGLIB generated
element vertex 384
property float x
property float y
property float z
property float nx
property float ny
property float nz
element face 384
property list uchar int vertex_indices
end_header
0.513969 0.194487 0.1 1.79096e-009 -4.47742e-010 0.0102431 
0.508 0.162065 0.1 1.65751e-009 -4.14378e-010 0.00947986 
0.498281 0.131906 0.1 1.27973e-009 -3.19934e-010 0.00731923 
0.485 0.104185 0.1 1.50348e-009 -3.7587e-010 0.00859889 
0.468344 0.079075 0.1 1.67041e-009 -4.17604e-010 0.00955366 
0.4485 0.05675 0.1 3.8541e-009 -9.63524e-010 0.0220429 
0.425656 0.037383 0.1 2.60026e-009 -6.50064e-010 0.0148717 
0.4 0.021148 0.1 1.72892e-009 -4.32229e-010 0.00988826 
0.371719 0.008219 0.1 9.90516e-010 -2.47629e-010 0.00566509 
0.341 -0.001231 0.1 4.30546e-010 -1.07637e-010 0.00246244 
0.308031 -0.007029 0.1 9.42022e-011 -2.35506e-011 0.000538774 
0.273 -0.009 0.1 2.41354e-011 -6.03385e-012 0.000138038 
0.239347 -0.006953 0.1 2.3266e-010 -5.81649e-011 0.00133066 
0.207528 -0.000954004 0.1 6.87713e-010 -1.71928e-010 0.00393326 
0.17775 0.008781 0.1 1.34314e-009 -3.35785e-010 0.00768186 
0.150222 0.022037 0.1 2.15248e-009 -5.38118e-010 0.0123107 
0.125153 0.038598 0.1 3.06938e-009 -7.67347e-010 0.0175548 
0.10275 0.05825 0.1 2.79711e-009 -6.99279e-010 0.0159976 
0.083222 0.080777 0.1 1.64047e-009 -4.10118e-010 0.00938241 
0.066778 0.105963 0.1 1.49349e-009 -3.73373e-010 0.00854178 
0.053625 0.133594 0.1 1.27049e-009 -3.17621e-010 0.00726633 
0.043972 0.163454 0.1 1.64296e-009 -4.1074e-010 0.00939664 
0.038028 0.195328 0.1 1.76024e-009 -4.40061e-010 0.0100674 
0.036 0.229 0.1 1.37189e-009 -3.42974e-010 0.00784632 
0.038104 0.260605 0.1 1.6147e-009 -4.03676e-010 0.00923503 
0.04425 0.290755 0.1 1.26127e-009 -3.15318e-010 0.00721363 
0.054188 0.319203 0.1 1.49085e-009 -3.72712e-010 0.00852667 
0.067667 0.345704 0.1 1.6401e-009 -4.10026e-010 0.00938029 
0.084438 0.37001 0.1 1.4989e-009 -3.74725e-010 0.00857271 
0.10425 0.391875 0.1 3.42864e-009 -8.57158e-010 0.0196095 
0.126854 0.411053 0.1 2.97199e-009 -7.42998e-010 0.0169978 
0.152 0.427296 0.1 2.08923e-009 -5.22309e-010 0.011949 
0.179438 0.440359 0.1 1.30622e-009 -3.26554e-010 0.00747069 
0.208917 0.449995 0.1 6.6976e-010 -1.6744e-010 0.00383058 
0.240187 0.455958 0.1 2.26802e-010 -5.67005e-011 0.00129716 
0.273 0.458 0.1 2.35616e-011 -5.89042e-012 0.000134757 
0.307401 0.456034 0.1 9.1698e-011 -2.29245e-011 0.000524451 
0.339958 0.450273 0.1 4.18972e-010 -1.04743e-010 0.00239624 
0.370453 0.440922 0.1 9.62824e-010 -2.40706e-010 0.00550671 
0.398667 0.428185 0.1 1.67777e-009 -4.19442e-010 0.00959571 
0.42438 0.412268 0.1 2.51783e-009 -6.29458e-010 0.0144003 
0.447375 0.393375 0.1 3.43732e-009 -8.59331e-010 0.0196592 
0.467432 0.371711 0.1 2.45398e-009 -6.13496e-010 0.0140351 
0.484333 0.347482 0.1 1.71053e-009 -4.27634e-010 0.00978312 
0.497859 0.320891 0.1 1.53849e-009 -3.84623e-010 0.00879915 
0.507792 0.292144 0.1 1.29536e-009 -3.23839e-010 0.00740858 
0.513911 0.261445 0.1 1.65222e-009 -4.13056e-010 0.00944962 
0.516 0.229 0.1 1.40303e-009 -3.50757e-010 0.00802439 
0.128211 0.205935 0.1 7.1352e-010 -1.7838e-010 0.00408086 
0.131769 0.18431 0.1 1.18786e-009 -2.96966e-010 0.00679379 
0.137562 0.164234 0.1 6.31794e-010 -1.57949e-010 0.00361344 
0.145481 0.145815 0.1 1.09141e-009 -2.72853e-010 0.00624214 
0.155414 0.129159 0.1 1.04741e-009 -2.61852e-010 0.00599049 
0.16725 0.114375 0.1 5.2211e-010 -1.30527e-010 0.00298612 
0.180877 0.10157 0.1 9.7347e-010 -2.43367e-010 0.0055676 
0.196185 0.090852 0.1 4.36746e-010 -1.09187e-010 0.0024979 
0.213062 0.082328 0.1 3.44312e-010 -8.60781e-011 0.00196924 
0.231398 0.076106 0.1 8.61077e-010 -2.15269e-010 0.00492479 
0.251081 0.072295 0.1 2.3213e-010 -5.80327e-011 0.00132763 
0.272 0.071 0.1 9.94994e-010 -2.48748e-010 0.0056907 
0.294757 0.072237 0.1 2.50626e-010 -6.26564e-011 0.00143341 
0.315972 0.075894 0.1 8.88361e-010 -2.2209e-010 0.00508083 
0.335562 0.081891 0.1 3.49376e-010 -8.73439e-011 0.0019982 
0.353444 0.090148 0.1 4.41352e-010 -1.10338e-010 0.00252424 
0.369535 0.100586 0.1 9.81502e-010 -2.45376e-010 0.00561354 
0.38375 0.113125 0.1 5.21115e-010 -1.30279e-010 0.00298043 
0.396007 0.127685 0.1 1.05034e-009 -2.62586e-010 0.00600726 
0.406222 0.144185 0.1 1.09529e-009 -2.73823e-010 0.00626433 
0.414313 0.162547 0.1 6.31918e-010 -1.5798e-010 0.00361415 
0.420194 0.18269 0.1 1.20049e-009 -3.00122e-010 0.00686599 
0.423785 0.204534 0.1 7.22903e-010 -1.80726e-010 0.00413452 
0.425 0.228 0.1 1.2589e-009 -3.14726e-010 0.00720008 
0.423689 0.249227 0.1 1.17942e-009 -2.94856e-010 0.00674551 
0.419847 0.26932 0.1 6.26127e-010 -1.56532e-010 0.00358103 
0.413609 0.288141 0.1 1.1035e-009 -2.75875e-010 0.00631129 
0.405111 0.305556 0.1 1.07143e-009 -2.67857e-010 0.00612786 
0.394488 0.321429 0.1 5.4128e-010 -1.3532e-010 0.00309576 
0.381875 0.335625 0.1 1.01164e-009 -2.52909e-010 0.00578588 
0.367408 0.348009 0.1 4.63684e-010 -1.15921e-010 0.00265196 
0.351222 0.358444 0.1 3.7219e-010 -9.30474e-011 0.00212868 
0.333453 0.366797 0.1 9.02654e-010 -2.25663e-010 0.00516258 
0.314236 0.372931 0.1 2.57048e-010 -6.42619e-011 0.00147014 
0.293707 0.37671 0.1 1.17054e-010 -2.92635e-011 0.000669472 
0.272 0.378 0.1 1.01287e-009 -2.53218e-010 0.00579295 
0.251501 0.376711 0.1 1.01193e-010 -2.52982e-011 0.000578755 
0.232093 0.372935 0.1 2.36308e-010 -5.9077e-011 0.00135152 
0.213906 0.366813 0.1 8.5923e-010 -2.14807e-010 0.00491422 
0.197074 0.358482 0.1 3.51944e-010 -8.79859e-011 0.00201288 
0.181728 0.348081 0.1 4.41262e-010 -1.10316e-010 0.00252372 
0.168 0.33575 0.1 9.7496e-010 -2.4374e-010 0.00557612 
0.156022 0.321627 0.1 5.22986e-010 -1.30746e-010 0.00299113 
0.145926 0.305852 0.1 1.04213e-009 -2.60531e-010 0.00596026 
0.137844 0.288563 0.1 1.07825e-009 -2.69562e-010 0.00616685 
0.131907 0.269898 0.1 6.16916e-010 -1.54229e-010 0.00352835 
0.128249 0.249998 0.1 1.15658e-009 -2.89144e-010 0.00661485 
0.127 0.229 0.1 1.23579e-009 -3.08947e-010 0.00706789 
0.513969 0.194487 -0.1 -1.79096e-009 4.47742e-010 -0.0102431 
0.508 0.162065 -0.1 -1.65751e-009 4.14378e-010 -0.00947986 
0.498281 0.131906 -0.1 -1.27973e-009 3.19934e-010 -0.00731923 
0.485 0.104185 -0.1 -1.50348e-009 3.7587e-010 -0.00859889 
0.468344 0.079075 -0.1 -1.67041e-009 4.17604e-010 -0.00955366 
0.4485 0.05675 -0.1 -3.8541e-009 9.63524e-010 -0.0220429 
0.425656 0.037383 -0.1 -2.60026e-009 6.50064e-010 -0.0148717 
0.4 0.021148 -0.1 -1.72892e-009 4.32229e-010 -0.00988826 
0.371719 0.008219 -0.1 -9.90516e-010 2.47629e-010 -0.00566509 
0.341 -0.001231 -0.1 -4.30546e-010 1.07637e-010 -0.00246244 
0.308031 -0.007029 -0.1 -9.42022e-011 2.35506e-011 -0.000538774 
0.273 -0.00899999 -0.1 -2.41354e-011 6.03385e-012 -0.000138038 
0.239347 -0.006953 -0.1 -2.3266e-010 5.81649e-011 -0.00133066 
0.207528 -0.000953996 -0.1 -6.87713e-010 1.71928e-010 -0.00393326 
0.17775 0.008781 -0.1 -1.34314e-009 3.35785e-010 -0.00768186 
0.150222 0.022037 -0.1 -2.15248e-009 5.38118e-010 -0.0123107 
0.125153 0.038598 -0.1 -3.06938e-009 7.67347e-010 -0.0175548 
0.10275 0.05825 -0.1 -2.79711e-009 6.99279e-010 -0.0159976 
0.083222 0.080777 -0.1 -1.64047e-009 4.10118e-010 -0.00938241 
0.066778 0.105963 -0.1 -1.49349e-009 3.73373e-010 -0.00854178 
0.053625 0.133594 -0.1 -1.27049e-009 3.17621e-010 -0.00726633 
0.043972 0.163454 -0.1 -1.64296e-009 4.1074e-010 -0.00939664 
0.038028 0.195328 -0.1 -1.76024e-009 4.40061e-010 -0.0100674 
0.036 0.229 -0.1 -1.37189e-009 3.42974e-010 -0.00784632 
0.038104 0.260605 -0.1 -1.6147e-009 4.03676e-010 -0.00923503 
0.04425 0.290755 -0.1 -1.26127e-009 3.15318e-010 -0.00721364 
0.054188 0.319203 -0.1 -1.49085e-009 3.72712e-010 -0.00852667 
0.067667 0.345704 -0.1 -1.6401e-009 4.10026e-010 -0.00938029 
0.084438 0.37001 -0.1 -1.4989e-009 3.74725e-010 -0.00857271 
0.10425 0.391875 -0.1 -3.42864e-009 8.57158e-010 -0.0196095 
0.126854 0.411053 -0.1 -2.97199e-009 7.42998e-010 -0.0169978 
0.152 0.427296 -0.1 -2.08923e-009 5.22309e-010 -0.011949 
0.179438 0.440359 -0.1 -1.30622e-009 3.26554e-010 -0.00747069 
0.208917 0.449995 -0.1 -6.69758e-010 1.6744e-010 -0.00383057 
0.240187 0.455958 -0.1 -2.26802e-010 5.67005e-011 -0.00129716 
0.273 0.458 -0.1 -2.35616e-011 5.89042e-012 -0.000134757 
0.307401 0.456034 -0.1 -9.1698e-011 2.29245e-011 -0.000524451 
0.339958 0.450273 -0.1 -4.18972e-010 1.04743e-010 -0.00239624 
0.370453 0.440922 -0.1 -9.62824e-010 2.40706e-010 -0.00550671 
0.398667 0.428185 -0.1 -1.67777e-009 4.19442e-010 -0.00959571 
0.42438 0.412268 -0.1 -2.51783e-009 6.29458e-010 -0.0144003 
0.447375 0.393375 -0.1 -3.43732e-009 8.59331e-010 -0.0196592 
0.467432 0.371711 -0.1 -2.45399e-009 6.13496e-010 -0.0140352 
0.484333 0.347482 -0.1 -1.71053e-009 4.27634e-010 -0.00978312 
0.497859 0.320891 -0.1 -1.53849e-009 3.84623e-010 -0.00879915 
0.507792 0.292144 -0.1 -1.29536e-009 3.23839e-010 -0.00740858 
0.513911 0.261445 -0.1 -1.65222e-009 4.13056e-010 -0.00944962 
0.516 0.229 -0.1 -1.40303e-009 3.50757e-010 -0.00802439 
0.128211 0.205935 -0.1 -7.1352e-010 1.7838e-010 -0.00408086 
0.131769 0.18431 -0.1 -1.18786e-009 2.96966e-010 -0.00679379 
0.137562 0.164234 -0.1 -6.31794e-010 1.57949e-010 -0.00361344 
0.145481 0.145815 -0.1 -1.09141e-009 2.72853e-010 -0.00624214 
0.155414 0.129159 -0.1 -1.04741e-009 2.61852e-010 -0.00599049 
0.16725 0.114375 -0.1 -5.2211e-010 1.30527e-010 -0.00298612 
0.180877 0.10157 -0.1 -9.7347e-010 2.43367e-010 -0.0055676 
0.196185 0.090852 -0.1 -4.36746e-010 1.09187e-010 -0.0024979 
0.213062 0.082328 -0.1 -3.44312e-010 8.60781e-011 -0.00196924 
0.231398 0.076106 -0.1 -8.61077e-010 2.15269e-010 -0.00492479 
0.251081 0.072295 -0.1 -2.3213e-010 5.80327e-011 -0.00132763 
0.272 0.071 -0.1 -9.94994e-010 2.48749e-010 -0.0056907 
0.294757 0.072237 -0.1 -2.50626e-010 6.26564e-011 -0.00143341 
0.315972 0.075894 -0.1 -8.88361e-010 2.2209e-010 -0.00508083 
0.335562 0.081891 -0.1 -3.49376e-010 8.73439e-011 -0.0019982 
0.353444 0.090148 -0.1 -4.41352e-010 1.10338e-010 -0.00252424 
0.369535 0.100586 -0.1 -9.81502e-010 2.45376e-010 -0.00561354 
0.38375 0.113125 -0.1 -5.21115e-010 1.30279e-010 -0.00298043 
0.396007 0.127685 -0.1 -1.05034e-009 2.62586e-010 -0.00600726 
0.406222 0.144185 -0.1 -1.09529e-009 2.73823e-010 -0.00626433 
0.414313 0.162547 -0.1 -6.31918e-010 1.5798e-010 -0.00361415 
0.420194 0.18269 -0.1 -1.20049e-009 3.00122e-010 -0.00686599 
0.423785 0.204534 -0.1 -7.22903e-010 1.80726e-010 -0.00413452 
0.425 0.228 -0.1 -1.2589e-009 3.14726e-010 -0.00720008 
0.423689 0.249227 -0.1 -1.17942e-009 2.94856e-010 -0.00674551 
0.419847 0.26932 -0.1 -6.26127e-010 1.56532e-010 -0.00358103 
0.413609 0.288141 -0.1 -1.1035e-009 2.75875e-010 -0.00631129 
0.405111 0.305556 -0.1 -1.07143e-009 2.67857e-010 -0.00612786 
0.394488 0.321429 -0.1 -5.4128e-010 1.3532e-010 -0.00309576 
0.381875 0.335625 -0.1 -1.01164e-009 2.52909e-010 -0.00578588 
0.367408 0.348009 -0.1 -4.63684e-010 1.15921e-010 -0.00265196 
0.351222 0.358444 -0.1 -3.7219e-010 9.30474e-011 -0.00212868 
0.333453 0.366797 -0.1 -9.02654e-010 2.25663e-010 -0.00516258 
0.314236 0.372931 -0.1 -2.57048e-010 6.42619e-011 -0.00147014 
0.293707 0.37671 -0.1 -1.17054e-010 2.92635e-011 -0.000669472 
0.272 0.378 -0.1 -1.01287e-009 2.53218e-010 -0.00579295 
0.251501 0.376711 -0.1 -1.01193e-010 2.52982e-011 -0.000578755 
0.232093 0.372935 -0.1 -2.36308e-010 5.9077e-011 -0.00135152 
0.213906 0.366813 -0.1 -8.5923e-010 2.14807e-010 -0.00491422 
0.197074 0.358482 -0.1 -3.51944e-010 8.79859e-011 -0.00201288 
0.181728 0.348081 -0.1 -4.41262e-010 1.10315e-010 -0.00252372 
0.168 0.33575 -0.1 -9.7496e-010 2.4374e-010 -0.00557612 
0.156022 0.321627 -0.1 -5.22986e-010 1.30746e-010 -0.00299113 
0.145926 0.305852 -0.1 -1.04213e-009 2.60531e-010 -0.00596026 
0.137844 0.288563 -0.1 -1.07825e-009 2.69562e-010 -0.00616685 
0.131907 0.269898 -0.1 -6.16916e-010 1.54229e-010 -0.00352835 
0.128249 0.249998 -0.1 -1.15658e-009 2.89144e-010 -0.00661485 
0.127 0.229 -0.1 -1.23579e-009 3.08947e-010 -0.00706789 
0.513969 0.194487 -0.1 2.98002 -0.29855 -5.34093e-007 
0.513969 0.194487 0.1 2.96522 -0.420865 -5.36852e-007 
0.508 0.162065 -0.1 2.91874 -0.668846 -5.39565e-007 
0.508 0.162065 0.1 2.88707 -0.794511 -5.39521e-007 
0.498281 0.131906 -0.1 2.80544 -1.04552 -5.36219e-007 
0.498281 0.131906 0.1 2.75548 -1.17086 -5.32964e-007 
0.485 0.104185 -0.1 2.63702 -1.4169 -5.23006e-007 
0.485 0.104185 0.1 2.56851 -1.53761 -5.16303e-007 
0.468344 0.079075 -0.1 2.41409 -1.76989 -4.99457e-007 
0.468344 0.079075 0.1 2.32817 -1.88148 -4.89312e-007 
0.4485 0.05675 -0.1 2.1415 -2.09148 -4.65854e-007 
0.4485 0.05675 0.1 2.04076 -2.18989 -4.52541e-007 
0.425656 0.037383 -0.1 1.82807 -2.37056 -4.2325e-007 
0.425656 0.037383 0.1 1.71613 -2.45282 -4.07274e-007 
0.4 0.021148 -0.1 1.48523 -2.59952 -3.73314e-007 
0.4 0.021148 0.1 1.36628 -2.66396 -3.55333e-007 
0.371719 0.008219 -0.1 1.12558 -2.77473 -3.18089e-007 
0.371719 0.008219 0.1 1.00383 -2.82106 -2.98828e-007 
0.341 -0.001231 -0.1 0.761262 -2.89648 -2.59713e-007 
0.341 -0.001231 0.1 0.640437 -2.92557 -2.39858e-007 
0.308031 -0.007029 -0.1 0.402584 -2.96819 -2.00134e-007 
0.308031 -0.007029 0.1 0.285555 -2.98173 -1.80264e-007 
0.273 -0.00899999 -0.1 0.0516368 -2.995 -1.39944e-007 
0.273 -0.009 0.1 -0.0652533 -2.99473 -1.19494e-007 
0.239347 -0.006953 -0.1 -0.3067 -2.979 -7.65914e-008 
0.239347 -0.006953 0.1 -0.431257 -2.96353 -5.41367e-008 
0.207528 -0.000953996 -0.1 -0.681278 -2.91587 -8.33839e-009 
0.207528 -0.000954004 0.1 -0.806742 -2.88368 1.50056e-008 
0.17775 0.008781 -0.1 -1.05533 -2.80197 6.20421e-008 
0.17775 0.008781 0.1 -1.17846 -2.75245 8.57349e-008 
0.150222 0.022037 -0.1 -1.41893 -2.63633 1.32856e-007 
0.150222 0.022037 0.1 -1.53626 -2.56972 1.56282e-007 
0.125153 0.038598 -0.1 -1.76184 -2.4205 2.02247e-007 
0.125153 0.038598 0.1 -1.87009 -2.33788 2.24784e-007 
0.10275 0.05825 -0.1 -2.0745 -2.15853 2.68365e-007 
0.10275 0.05825 0.1 -2.17067 -2.06179 2.89408e-007 
0.083222 0.080777 -0.1 -2.34856 -1.85673 3.29475e-007 
0.083222 0.080777 0.1 -2.43028 -1.74841 3.48498e-007 
0.066778 0.105963 -0.1 -2.57758 -1.5232 3.84097e-007 
0.066778 0.105963 0.1 -2.64317 -1.40632 4.00674e-007 
0.053625 0.133594 -0.1 -2.75735 -1.16722 4.3109e-007 
0.053625 0.133594 0.1 -2.80595 -1.04501 4.44929e-007 
0.043972 0.163454 -0.1 -2.88608 -0.798527 4.69714e-007 
0.043972 0.163454 0.1 -2.91762 -0.674249 4.8066e-007 
0.038028 0.195328 -0.1 -2.9643 -0.426767 4.99639e-007 
0.038028 0.195328 0.1 -2.97943 -0.303562 5.07671e-007 
0.036 0.229 -0.1 -2.99417 -0.0538137 5.21166e-007 
0.036 0.229 0.1 -2.99377 0.0727304 5.26627e-007 
0.038104 0.260605 -0.1 -2.97543 0.332589 5.34778e-007 
0.038104 0.260605 0.1 -2.95749 0.465904 5.37469e-007 
0.04425 0.290755 -0.1 -2.90375 0.729274 5.39586e-007 
0.04425 0.290755 0.1 -2.86795 0.859329 5.39011e-007 
0.054188 0.319203 -0.1 -2.77944 1.11294 5.3462e-007 
0.054188 0.319203 0.1 -2.72672 1.2365 5.30803e-007 
0.067667 0.345704 -0.1 -2.60575 1.47462 5.20061e-007 
0.067667 0.345704 0.1 -2.5375 1.5892 5.13136e-007 
0.084438 0.37001 -0.1 -2.3872 1.8073 4.96392e-007 
0.084438 0.37001 0.1 -2.30516 1.91084 4.86573e-007 
0.10425 0.391875 -0.1 -2.12904 2.10545 4.64285e-007 
0.10425 0.391875 0.1 -2.03495 2.19652 4.51815e-007 
0.126854 0.411053 -0.1 -1.8365 2.36505 4.24484e-007 
0.126854 0.411053 0.1 -1.73214 2.44252 4.09623e-007 
0.152 0.427296 -0.1 -1.51505 2.58289 3.77801e-007 
0.152 0.427296 0.1 -1.40231 2.64579 3.60839e-007 
0.179438 0.440359 -0.1 -1.17042 2.7563 3.25124e-007 
0.179438 0.440359 0.1 -1.05126 2.80391 3.06371e-007 
0.208917 0.449995 -0.1 -0.808717 2.88332 2.67434e-007 
0.208917 0.449995 0.1 -0.685336 2.91511 2.47251e-007 
0.240187 0.455958 -0.1 -0.436748 2.96267 2.05866e-007 
0.240187 0.455958 0.1 -0.311541 2.97844 1.84663e-007 
0.273 0.458 -0.1 -0.0671659 2.99451 1.42638e-007 
0.273 0.458 0.1 0.0520016 2.99481 1.21815e-007 
0.307401 0.456034 -0.1 0.288357 2.98144 7.9905e-008 
0.307401 0.456034 0.1 0.405545 2.96778 5.88179e-008 
0.339958 0.450273 -0.1 0.641656 2.92547 1.56855e-008 
0.339958 0.450273 0.1 0.760579 2.89682 -6.35963e-009 
0.370453 0.440922 -0.1 0.997793 2.82355 -5.10383e-008 
0.370453 0.440922 0.1 1.11608 2.77892 -7.36715e-008 
0.398667 0.428185 -0.1 1.34926 2.67313 -1.19065e-007 
0.398667 0.428185 0.1 1.46414 2.61198 -1.41825e-007 
0.42438 0.412268 -0.1 1.68751 2.4732 -1.86946e-007 
0.42438 0.412268 0.1 1.79599 2.39559 -2.09306e-007 
0.447375 0.393375 -0.1 2.00345 2.22468 -2.5305e-007 
0.447375 0.393375 0.1 2.10242 2.13139 -2.74433e-007 
0.467432 0.371711 -0.1 2.28777 1.93085 -3.15606e-007 
0.467432 0.371711 0.1 2.37415 1.8236 -3.35398e-007 
0.484333 0.347482 -0.1 2.53166 1.59761 -3.72816e-007 
0.484333 0.347482 0.1 2.6028 1.47888 -3.90444e-007 
0.497859 0.320891 -0.1 2.7278 1.23335 -4.23032e-007 
0.497859 0.320891 0.1 2.78165 1.10655 -4.37991e-007 
0.507792 0.292144 -0.1 2.87104 0.848648 -4.64893e-007 
0.507792 0.292144 0.1 2.90658 0.71754 -4.76838e-007 
0.513911 0.261445 -0.1 2.95935 0.455207 -4.97532e-007 
0.513911 0.261445 0.1 2.97658 0.323981 -5.0628e-007 
0.516 0.229 -0.1 2.99414 0.0697587 -5.20463e-007 
0.516 0.229 0.1 2.99448 -0.053238 -5.25899e-007 
0.128211 0.205935 -0.1 2.98398 0.267212 -5.10056e-007 
0.128211 0.205935 0.1 2.97209 0.377129 -5.03172e-007 
0.131769 0.18431 -0.1 2.93427 0.60194 -4.86732e-007 
0.131769 0.18431 0.1 2.90833 0.716834 -4.77175e-007 
0.137562 0.164234 -0.1 2.84029 0.949463 -4.5511e-007 
0.137562 0.164234 0.1 2.79818 1.0672 -4.42601e-007 
0.145481 0.145815 -0.1 2.69625 1.30215 -4.14509e-007 
0.145481 0.145815 0.1 2.63643 1.41937 -3.98925e-007 
0.155414 0.129159 -0.1 2.49838 1.64937 -3.64734e-007 
0.155414 0.129159 0.1 2.42015 1.76215 -3.46126e-007 
0.16725 0.114375 -0.1 2.24607 1.9787 -3.06224e-007 
0.16725 0.114375 0.1 2.15021 2.08247 -2.84927e-007 
0.180877 0.10157 -0.1 1.94312 2.27666 -2.4023e-007 
0.180877 0.10157 0.1 1.83188 2.36709 -2.16828e-007 
0.196185 0.090852 -0.1 1.59792 2.53095 -1.68758e-007 
0.196185 0.090852 0.1 1.4752 2.60439 -1.44091e-007 
0.213062 0.082328 -0.1 1.22299 2.73219 -9.44067e-008 
0.213062 0.082328 0.1 1.0935 2.78654 -6.939e-008 
0.231398 0.076106 -0.1 0.832761 2.8757 -1.99038e-008 
0.231398 0.076106 0.1 0.701513 2.9105 4.56549e-009 
0.251081 0.072295 -0.1 0.441964 2.96162 5.21812e-008 
0.251081 0.072295 0.1 0.313663 2.97795 7.53277e-008 
0.272 0.071 -0.1 0.0692975 2.9947 1.18787e-007 
0.272 0.071 0.1 -0.0467662 2.99514 1.39098e-007 
0.294757 0.072237 -0.1 -0.278426 2.98252 1.79052e-007 
0.294757 0.072237 0.1 -0.394022 2.96946 1.98693e-007 
0.315972 0.075894 -0.1 -0.632463 2.92713 2.38533e-007 
0.315972 0.075894 0.1 -0.755307 2.89786 2.58732e-007 
0.335562 0.081891 -0.1 -1.00465 2.82028 2.98937e-007 
0.335562 0.081891 0.1 -1.13115 2.77197 3.18943e-007 
0.353444 0.090148 -0.1 -1.38264 2.65472 3.5779e-007 
0.353444 0.090148 0.1 -1.50764 2.58578 3.76632e-007 
0.369535 0.100586 -0.1 -1.74994 2.42783 4.12093e-007 
0.369535 0.100586 0.1 -1.86724 2.33881 4.28711e-007 
0.38375 0.113125 -0.1 -2.08804 2.14388 4.58796e-007 
0.38375 0.113125 0.1 -2.19155 2.03796 4.72264e-007 
0.396007 0.127685 -0.1 -2.38028 1.8144 4.95492e-007 
0.396007 0.127685 0.1 -2.46551 1.69677 5.05252e-007 
0.406222 0.144185 -0.1 -2.6156 1.45599 5.20969e-007 
0.406222 0.144185 0.1 -2.68045 1.33284 5.26924e-007 
0.414313 0.162547 -0.1 -2.79012 1.08672 5.35342e-007 
0.414313 0.162547 0.1 -2.83495 0.963753 5.37805e-007 
0.420194 0.18269 -0.1 -2.9066 0.72274 5.39798e-007 
0.420194 0.18269 0.1 -2.93343 0.604694 5.3933e-007 
0.423785 0.204534 -0.1 -2.97217 0.37614 5.36112e-007 
0.423785 0.204534 0.1 -2.98408 0.265632 5.33365e-007 
0.425 0.228 -0.1 -2.99542 0.0417727 5.25562e-007 
0.425 0.228 0.1 -2.99486 -0.0715792 5.20509e-007 
0.423689 0.249227 -0.1 -2.9784 -0.311096 5.07162e-007 
0.423689 0.249227 0.1 -2.96251 -0.43726 4.98869e-007 
0.419847 0.26932 -0.1 -2.91363 -0.690225 4.79265e-007 
0.419847 0.26932 0.1 -2.88065 -0.817026 4.67955e-007 
0.413609 0.288141 -0.1 -2.79715 -1.06776 4.42397e-007 
0.413609 0.288141 0.1 -2.74664 -1.1917 4.28147e-007 
0.405111 0.305556 -0.1 -2.62848 -1.43327 3.96928e-007 
0.405111 0.305556 0.1 -2.56083 -1.55091 3.79957e-007 
0.394488 0.321429 -0.1 -2.40967 -1.77657 3.43664e-007 
0.394488 0.321429 0.1 -2.32617 -1.88458 3.24343e-007 
0.381875 0.335625 -0.1 -2.14541 -2.08807 2.83843e-007 
0.381875 0.335625 0.1 -2.04815 -2.18356 2.62664e-007 
0.367408 0.348009 -0.1 -1.84245 -2.35983 2.18992e-007 
0.367408 0.348009 0.1 -1.734 -2.44063 1.96499e-007 
0.351222 0.358444 -0.1 -1.50913 -2.58594 1.50829e-007 
0.351222 0.358444 0.1 -1.3927 -2.65046 1.27652e-007 
0.333453 0.366797 -0.1 -1.15493 -2.76263 8.11762e-008 
0.333453 0.366797 0.1 -1.03359 -2.81029 5.7877e-008 
0.314236 0.372931 -0.1 -0.789202 -2.88877 1.17163e-008 
0.314236 0.372931 0.1 -0.66616 -2.9196 -1.11446e-008 
0.293707 0.37671 -0.1 -0.421401 -2.96519 -5.59325e-008 
0.293707 0.37671 0.1 -0.299685 -2.97995 -7.78597e-008 
0.272 0.378 -0.1 -0.0558896 -2.99451 -1.21122e-007 
0.272 0.378 0.1 0.0661894 -2.9943 -1.42457e-007 
0.251501 0.376711 -0.1 0.316491 -2.97765 -1.85495e-007 
0.251501 0.376711 0.1 0.444714 -2.96122 -2.07195e-007 
0.232093 0.372935 -0.1 0.700982 -2.91093 -2.49805e-007 
0.232093 0.372935 0.1 0.829027 -2.87709 -2.70713e-007 
0.213906 0.366813 -0.1 1.08164 -2.79172 -3.1115e-007 
0.213906 0.366813 0.1 1.2062 -2.74021 -3.30677e-007 
0.197074 0.358482 -0.1 1.44822 -2.62025 -3.67749e-007 
0.197074 0.358482 0.1 1.56568 -2.5518 -3.85295e-007 
0.181728 0.348081 -0.1 1.79033 -2.39952 -4.17918e-007 
0.181728 0.348081 0.1 1.89752 -2.31568 -4.32994e-007 
0.168 0.33575 -0.1 2.09912 -2.13471 -4.60333e-007 
0.168 0.33575 0.1 2.19353 -2.03758 -4.72594e-007 
0.156022 0.321627 -0.1 2.36756 -1.83268 -4.94067e-007 
0.156022 0.321627 0.1 2.44719 -1.72492 -5.03279e-007 
0.145926 0.305852 -0.1 2.59045 -1.50159 -5.18565e-007 
0.145926 0.305852 0.1 2.65408 -1.38601 -5.24639e-007 
0.137844 0.288563 -0.1 2.76476 -1.15008 -5.33678e-007 
0.137844 0.288563 0.1 2.81181 -1.02971 -5.36643e-007 
0.131907 0.269898 -0.1 2.88943 -0.787024 -5.39606e-007 
0.131907 0.269898 0.1 2.92 -0.664697 -5.39603e-007 
0.128249 0.249998 -0.1 2.96528 -0.420957 -5.36867e-007 
0.128249 0.249998 0.1 2.97999 -0.299544 -5.34132e-007 
0.127 0.229 -0.1 2.9951 -0.0663222 -5.26579e-007 
0.127 0.229 0.1 2.99548 0.0454864 -5.21758e-007 
3 34 36 35 
3 34 37 36 
3 33 37 34 
3 33 38 37 
3 32 38 33 
3 32 39 38 
3 31 39 32 
3 31 40 39 
3 30 40 31 
3 30 41 40 
3 29 41 30 
3 29 42 41 
3 28 83 29 
3 83 42 29 
3 28 84 83 
3 82 42 83 
3 28 85 84 
3 81 42 82 
3 28 86 85 
3 80 42 81 
3 80 43 42 
3 27 86 28 
3 27 87 86 
3 79 43 80 
3 27 88 87 
3 78 43 79 
3 27 89 88 
3 77 43 78 
3 77 44 43 
3 26 89 27 
3 26 90 89 
3 76 44 77 
3 26 91 90 
3 75 44 76 
3 75 45 44 
3 25 91 26 
3 25 92 91 
3 74 45 75 
3 74 46 45 
3 24 92 25 
3 24 93 92 
3 73 46 74 
3 24 94 93 
3 72 46 73 
3 72 47 46 
3 23 94 24 
3 23 95 94 
3 71 47 72 
3 22 95 23 
3 22 48 95 
3 71 0 47 
3 70 0 71 
3 22 49 48 
3 69 0 70 
3 21 49 22 
3 69 1 0 
3 21 50 49 
3 68 1 69 
3 21 51 50 
3 20 51 21 
3 67 1 68 
3 67 2 1 
3 20 52 51 
3 66 2 67 
3 19 52 20 
3 66 3 2 
3 19 53 52 
3 65 3 66 
3 19 54 53 
3 64 3 65 
3 18 54 19 
3 64 4 3 
3 18 55 54 
3 63 4 64 
3 18 56 55 
3 62 4 63 
3 18 57 56 
3 61 4 62 
3 17 57 18 
3 61 5 4 
3 17 58 57 
3 60 5 61 
3 17 59 58 
3 59 5 60 
3 17 5 59 
3 16 5 17 
3 16 6 5 
3 15 6 16 
3 15 7 6 
3 14 7 15 
3 14 8 7 
3 13 8 14 
3 13 9 8 
3 12 9 13 
3 12 10 9 
3 11 10 12 
3 132 130 131 
3 133 130 132 
3 133 129 130 
3 134 129 133 
3 134 128 129 
3 135 128 134 
3 135 127 128 
3 136 127 135 
3 136 126 127 
3 137 126 136 
3 137 125 126 
3 138 125 137 
3 179 124 125 
3 138 179 125 
3 180 124 179 
3 138 178 179 
3 181 124 180 
3 138 177 178 
3 182 124 181 
3 138 176 177 
3 139 176 138 
3 182 123 124 
3 183 123 182 
3 139 175 176 
3 184 123 183 
3 139 174 175 
3 185 123 184 
3 139 173 174 
3 140 173 139 
3 185 122 123 
3 186 122 185 
3 140 172 173 
3 187 122 186 
3 140 171 172 
3 141 171 140 
3 187 121 122 
3 188 121 187 
3 141 170 171 
3 142 170 141 
3 188 120 121 
3 189 120 188 
3 142 169 170 
3 190 120 189 
3 142 168 169 
3 143 168 142 
3 190 119 120 
3 191 119 190 
3 143 167 168 
3 191 118 119 
3 144 118 191 
3 96 167 143 
3 96 166 167 
3 145 118 144 
3 96 165 166 
3 145 117 118 
3 97 165 96 
3 146 117 145 
3 97 164 165 
3 147 117 146 
3 147 116 117 
3 97 163 164 
3 98 163 97 
3 148 116 147 
3 98 162 163 
3 148 115 116 
3 99 162 98 
3 149 115 148 
3 99 161 162 
3 150 115 149 
3 99 160 161 
3 150 114 115 
3 100 160 99 
3 151 114 150 
3 100 159 160 
3 152 114 151 
3 100 158 159 
3 153 114 152 
3 100 157 158 
3 153 113 114 
3 101 157 100 
3 154 113 153 
3 101 156 157 
3 155 113 154 
3 101 155 156 
3 101 113 155 
3 101 112 113 
3 102 112 101 
3 102 111 112 
3 103 111 102 
3 103 110 111 
3 104 110 103 
3 104 109 110 
3 105 109 104 
3 105 108 109 
3 106 108 105 
3 106 107 108 
3 193 195 194 
3 193 194 192 
3 195 197 196 
3 195 196 194 
3 197 199 198 
3 197 198 196 
3 199 201 200 
3 199 200 198 
3 201 203 202 
3 201 202 200 
3 203 205 204 
3 203 204 202 
3 205 207 206 
3 205 206 204 
3 207 209 208 
3 207 208 206 
3 209 211 210 
3 209 210 208 
3 211 213 212 
3 211 212 210 
3 213 215 214 
3 213 214 212 
3 215 217 216 
3 215 216 214 
3 217 219 218 
3 217 218 216 
3 219 221 220 
3 219 220 218 
3 221 223 222 
3 221 222 220 
3 223 225 224 
3 223 224 222 
3 225 227 226 
3 225 226 224 
3 227 229 228 
3 227 228 226 
3 229 231 230 
3 229 230 228 
3 231 233 232 
3 231 232 230 
3 233 235 234 
3 233 234 232 
3 235 237 236 
3 235 236 234 
3 237 239 238 
3 237 238 236 
3 239 241 240 
3 239 240 238 
3 241 243 242 
3 241 242 240 
3 243 245 244 
3 243 244 242 
3 245 247 246 
3 245 246 244 
3 247 249 248 
3 247 248 246 
3 249 251 250 
3 249 250 248 
3 251 253 252 
3 251 252 250 
3 253 255 254 
3 253 254 252 
3 255 257 256 
3 255 256 254 
3 257 259 258 
3 257 258 256 
3 259 261 260 
3 259 260 258 
3 261 263 262 
3 261 262 260 
3 263 265 264 
3 263 264 262 
3 265 267 266 
3 265 266 264 
3 267 269 268 
3 267 268 266 
3 269 271 270 
3 269 270 268 
3 271 273 272 
3 271 272 270 
3 273 275 274 
3 273 274 272 
3 275 277 276 
3 275 276 274 
3 277 279 278 
3 277 278 276 
3 279 281 280 
3 279 280 278 
3 281 283 282 
3 281 282 280 
3 283 285 284 
3 283 284 282 
3 285 287 286 
3 285 286 284 
3 287 193 192 
3 287 192 286 
3 289 291 290 
3 289 290 288 
3 291 293 292 
3 291 292 290 
3 293 295 294 
3 293 294 292 
3 295 297 296 
3 295 296 294 
3 297 299 298 
3 297 298 296 
3 299 301 300 
3 299 300 298 
3 301 303 302 
3 301 302 300 
3 303 305 304 
3 303 304 302 
3 305 307 306 
3 305 306 304 
3 307 309 308 
3 307 308 306 
3 309 311 310 
3 309 310 308 
3 311 313 312 
3 311 312 310 
3 313 315 314 
3 313 314 312 
3 315 317 316 
3 315 316 314 
3 317 319 318 
3 317 318 316 
3 319 321 320 
3 319 320 318 
3 321 323 322 
3 321 322 320 
3 323 325 324 
3 323 324 322 
3 325 327 326 
3 325 326 324 
3 327 329 328 
3 327 328 326 
3 329 331 330 
3 329 330 328 
3 331 333 332 
3 331 332 330 
3 333 335 334 
3 333 334 332 
3 335 337 336 
3 335 336 334 
3 337 339 338 
3 337 338 336 
3 339 341 340 
3 339 340 338 
3 341 343 342 
3 341 342 340 
3 343 345 344 
3 343 344 342 
3 345 347 346 
3 345 346 344 
3 347 349 348 
3 347 348 346 
3 349 351 350 
3 349 350 348 
3 351 353 352 
3 351 352 350 
3 353 355 354 
3 353 354 352 
3 355 357 356 
3 355 356 354 
3 357 359 358 
3 357 358 356 
3 359 361 360 
3 359 360 358 
3 361 363 362 
3 361 362 360 
3 363 365 364 
3 363 364 362 
3 365 367 366 
3 365 366 364 
3 367 369 368 
3 367 368 366 
3 369 371 370 
3 369 370 368 
3 371 373 372 
3 371 372 370 
3 373 375 374 
3 373 374 372 
3 375 377 376 
3 375 376 374 
3 377 379 378 
3 377 378 376 
3 379 381 380 
3 379 380 378 
3 381 383 382 
3 381 382 380 
3 383 289 288 
3 383 288 382 
