ply
format ascii 1.0
comment VCGLIB generated
element vertex 488
property float x
property float y
property float z
property float nx
property float ny
property float nz
element face 484
property list uchar int vertex_indices
end_header
0.384546 0.544951 0.1 5.55217e-010 -1.38804e-010 0.00317547 
0.370204 0.556357 0.1 5.39922e-010 -1.3498e-010 0.00308799 
0.356 0.566297 0.1 5.17796e-010 -1.29449e-010 0.00296145 
0.341963 0.574852 0.1 4.89808e-010 -1.22452e-010 0.00280138 
0.32812 0.582101 0.1 4.56916e-010 -1.14229e-010 0.00261326 
0.3145 0.588125 0.1 4.2003e-010 -1.05008e-010 0.00240229 
0.30113 0.593003 0.1 3.80038e-010 -9.50094e-011 0.00217356 
0.288037 0.596815 0.1 2.60037e-009 -6.50091e-010 0.0148724 
0.27525 0.599641 0.1 3.70918e-011 -9.27293e-012 0.00021214 
0.262796 0.60156 0.1 6.55152e-010 -1.63788e-010 0.00374703 
0.250704 0.602653 0.1 4.86137e-011 -1.21534e-011 0.000278038 
0.239 0.603 0.1 6.479e-010 -1.61975e-010 0.00370556 
0.223641 0.602323 0.1 6.32606e-010 -1.58151e-010 0.00361808 
0.209125 0.600333 0.1 6.22026e-011 -1.55506e-011 0.000355757 
0.195547 0.597094 0.1 1.30102e-010 -3.25254e-011 0.000744095 
0.183 0.592667 0.1 1.88534e-010 -4.71334e-011 0.00107829 
0.171578 0.587115 0.1 2.37727e-010 -5.94317e-011 0.00135964 
0.161375 0.5805 0.1 6.91086e-010 -1.72771e-010 0.00395255 
0.152484 0.572885 0.1 2.65194e-010 -6.62983e-011 0.00151673 
0.145 0.564333 0.1 3.01364e-010 -7.53409e-011 0.0017236 
0.139016 0.554906 0.1 7.29338e-010 -1.82334e-010 0.00417133 
0.134625 0.544667 0.1 3.34095e-010 -8.35239e-011 0.0019108 
0.131922 0.533677 0.1 7.8319e-010 -1.95797e-010 0.00447932 
0.131 0.522 0.1 6.77128e-010 -1.69282e-010 0.00387272 
0.136804 0.491817 0.1 1.69483e-009 -4.23708e-010 0.00969331 
0.152852 0.465954 0.1 9.12406e-010 -2.28102e-010 0.00521836 
0.177094 0.443187 0.1 1.71941e-009 -4.29853e-010 0.00983388 
0.207482 0.422296 0.1 1.8805e-009 -4.70127e-010 0.0107552 
0.241966 0.402058 0.1 1.19155e-009 -2.97887e-010 0.00681487 
0.2785 0.38125 0.1 2.19686e-009 -5.49215e-010 0.0125646 
0.315034 0.35865 0.1 2.3704e-009 -5.92599e-010 0.0135571 
0.349519 0.333037 0.1 2.48658e-009 -6.21646e-010 0.0142216 
0.379906 0.303187 0.1 2.54306e-009 -6.35765e-010 0.0145446 
0.404148 0.26788 0.1 2.9544e-009 -7.38602e-010 0.0168972 
0.420196 0.225891 0.1 2.72208e-009 -6.80522e-010 0.0155685 
0.426 0.176 0.1 1.76797e-009 -4.41993e-010 0.0101116 
0.424343 0.149883 0.1 1.11871e-009 -2.79678e-010 0.00639828 
0.419491 0.125144 0.1 1.28869e-009 -3.22173e-010 0.00737045 
0.411625 0.101953 0.1 1.1494e-009 -2.8735e-010 0.00657381 
0.400926 0.080481 0.1 1.46188e-009 -3.6547e-010 0.00836097 
0.387574 0.060899 0.1 2.9458e-009 -7.36448e-010 0.016848 
0.37175 0.043375 0.1 2.87686e-009 -7.19213e-010 0.0164537 
0.353634 0.02808 0.1 1.75941e-009 -4.39852e-010 0.0100626 
0.333407 0.015185 0.1 1.51795e-009 -3.79488e-010 0.00868167 
0.31125 0.004859 0.1 8.93948e-010 -2.23487e-010 0.00511279 
0.287343 -0.002727 0.1 4.19896e-010 -1.04974e-010 0.00240153 
0.261866 -0.007403 0.1 1.18746e-010 -2.96865e-011 0.000679148 
0.235 -0.009 0.1 7.04966e-012 -1.76241e-012 4.03193e-005 
0.216785 -0.008582 0.1 2.06472e-011 -5.16181e-012 0.000118088 
0.199116 -0.007319 0.1 3.65613e-011 -9.14033e-012 0.000209106 
0.181953 -0.005203 0.1 1.60257e-010 -4.00642e-011 0.000916562 
0.165259 -0.002222 0.1 1.43032e-010 -3.57579e-011 0.000818045 
0.148996 0.001634 0.1 4.26052e-010 -1.06513e-010 0.00243673 
0.133125 0.006375 0.1 3.14896e-010 -7.87241e-011 0.001801 
0.117608 0.012012 0.1 8.04118e-010 -2.0103e-010 0.00459902 
0.102407 0.018556 0.1 5.47857e-010 -1.36964e-010 0.00313338 
0.087484 0.026016 0.1 1.28087e-009 -3.20217e-010 0.00732572 
0.072801 0.034403 0.1 1.67672e-009 -4.1918e-010 0.00958973 
0.058319 0.043727 0.1 1.07218e-009 -2.68046e-010 0.00613217 
0.044 0.054 0.1 5.631e-009 -1.40775e-009 0.0322056 
0.044 0.178 0.1 2.76777e-010 -6.91944e-011 0.00158298 
0.056766 0.162608 0.1 5.60499e-010 -1.40125e-010 0.00320568 
0.070042 0.148444 0.1 5.69657e-010 -1.42414e-010 0.00325806 
0.083797 0.135531 0.1 5.69412e-010 -1.42353e-010 0.00325666 
0.098 0.123889 0.1 5.59861e-010 -1.39965e-010 0.00320203 
0.11262 0.113538 0.1 5.41022e-010 -1.35256e-010 0.00309429 
0.127625 0.1045 0.1 5.12912e-010 -1.28228e-010 0.00293352 
0.142984 0.096795 0.1 4.75538e-010 -1.18885e-010 0.00271976 
0.158667 0.090444 0.1 4.28796e-010 -1.07199e-010 0.00245243 
0.174641 0.085469 0.1 3.72629e-010 -9.31571e-011 0.00213119 
0.190875 0.081889 0.1 3.06927e-010 -7.67317e-011 0.00175542 
0.207339 0.079726 0.1 2.31506e-010 -5.78765e-011 0.00132406 
0.224 0.079 0.1 1.46543e-009 -3.66357e-010 0.00838126 
0.242149 0.079966 0.1 7.02768e-010 -1.75692e-010 0.00401936 
0.258611 0.082731 0.1 1.89664e-010 -4.74159e-011 0.00108475 
0.273406 0.087094 0.1 2.57972e-010 -6.44931e-011 0.00147543 
0.286556 0.092852 0.1 3.07533e-010 -7.68833e-011 0.00175888 
0.29808 0.099804 0.1 7.4023e-010 -1.85057e-010 0.00423362 
0.308 0.10775 0.1 3.20774e-010 -8.01934e-011 0.00183461 
0.316337 0.116487 0.1 7.31104e-010 -1.82776e-010 0.00418143 
0.323111 0.125815 0.1 3.22331e-010 -8.05827e-011 0.00184352 
0.328344 0.135531 0.1 3.28922e-010 -8.22305e-011 0.00188122 
0.332056 0.145435 0.1 7.17858e-010 -1.79464e-010 0.00410567 
0.334267 0.155325 0.1 3.10938e-010 -7.77345e-011 0.00177836 
0.335 0.165 0.1 1.09874e-009 -2.74686e-010 0.00628408 
0.329196 0.197817 0.1 1.89003e-009 -4.72507e-010 0.0108097 
0.313148 0.226454 0.1 1.00899e-009 -2.52248e-010 0.00577076 
0.288906 0.251937 0.1 1.92075e-009 -4.80187e-010 0.0109854 
0.258519 0.275296 0.1 1.07751e-009 -2.69378e-010 0.00616265 
0.224034 0.297558 0.1 2.149e-009 -5.3725e-010 0.0122908 
0.1875 0.31975 0.1 2.29763e-009 -5.74409e-010 0.0131409 
0.150966 0.3429 0.1 2.38644e-009 -5.96612e-010 0.0136489 
0.116481 0.368037 0.1 2.40832e-009 -6.02081e-010 0.013774 
0.086094 0.396187 0.1 2.85312e-009 -7.13282e-010 0.016318 
0.061852 0.42838 0.1 2.0859e-009 -5.21473e-010 0.0119299 
0.045804 0.465641 0.1 2.4212e-009 -6.05298e-010 0.0138476 
0.04 0.509 0.1 1.81862e-009 -4.54656e-010 0.0104013 
0.041686 0.535899 0.1 1.17019e-009 -2.92548e-010 0.00669272 
0.046653 0.561023 0.1 1.27347e-009 -3.18368e-010 0.00728342 
0.054766 0.584266 0.1 1.41177e-009 -3.52943e-010 0.0080744 
0.065889 0.605519 0.1 1.20562e-009 -3.01405e-010 0.00689534 
0.079887 0.624674 0.1 1.24431e-009 -3.11077e-010 0.00711661 
0.096625 0.641625 0.1 4.18256e-009 -1.04564e-009 0.0239215 
0.115967 0.656263 0.1 1.81836e-009 -4.5459e-010 0.0103998 
0.137778 0.668482 0.1 1.20924e-009 -3.02309e-010 0.00691603 
0.161922 0.678172 0.1 7.06938e-010 -1.76734e-010 0.00404321 
0.188264 0.685227 0.1 3.29036e-010 -8.2259e-011 0.00188187 
0.216668 0.689539 0.1 9.17944e-011 -2.29486e-011 0.000525003 
0.247 0.691 0.1 5.08636e-012 -1.27159e-012 2.90906e-005 
0.259998 0.690667 0.1 1.52228e-011 -3.8057e-012 8.70643e-005 
0.272981 0.689667 0.1 2.68394e-011 -6.70985e-012 0.000153504 
0.285938 0.688 0.1 1.22676e-010 -3.06691e-011 0.000701627 
0.298852 0.685667 0.1 1.05101e-010 -2.62752e-011 0.000601107 
0.311711 0.682667 0.1 3.29152e-010 -8.22881e-011 0.00188253 
0.3245 0.679 0.1 2.311e-010 -5.7775e-011 0.00132174 
0.337206 0.674667 0.1 6.24762e-010 -1.56191e-010 0.00357322 
0.349815 0.669667 0.1 4.00669e-010 -1.00167e-010 0.00229156 
0.362313 0.664 0.1 9.99e-010 -2.4975e-010 0.00571361 
0.374685 0.657667 0.1 6.09166e-010 -1.52292e-010 0.00348402 
0.386919 0.650667 0.1 1.4403e-009 -3.60075e-010 0.00823755 
0.399 0.643 0.1 4.7333e-009 -1.18332e-009 0.0270713 
0.399 0.532 0.1 2.8052e-010 -7.01302e-011 0.00160439 
0.384546 0.544951 -0.1 -5.55217e-010 1.38804e-010 -0.00317547 
0.370204 0.556357 -0.1 -5.39922e-010 1.3498e-010 -0.00308799 
0.356 0.566297 -0.1 -5.17796e-010 1.29449e-010 -0.00296145 
0.341963 0.574852 -0.1 -4.89808e-010 1.22452e-010 -0.00280138 
0.32812 0.582101 -0.1 -4.56916e-010 1.14229e-010 -0.00261326 
0.3145 0.588125 -0.1 -4.2003e-010 1.05008e-010 -0.00240229 
0.30113 0.593003 -0.1 -3.80038e-010 9.50094e-011 -0.00217356 
0.288037 0.596815 -0.1 -2.60037e-009 6.50091e-010 -0.0148724 
0.27525 0.599641 -0.1 -3.70918e-011 9.27293e-012 -0.00021214 
0.262796 0.60156 -0.1 -6.55152e-010 1.63788e-010 -0.00374703 
0.250704 0.602653 -0.1 -4.86137e-011 1.21534e-011 -0.000278038 
0.239 0.603 -0.1 -6.479e-010 1.61975e-010 -0.00370556 
0.223641 0.602323 -0.1 -6.32606e-010 1.58151e-010 -0.00361808 
0.209125 0.600333 -0.1 -6.22026e-011 1.55506e-011 -0.000355757 
0.195547 0.597094 -0.1 -1.30102e-010 3.25254e-011 -0.000744095 
0.183 0.592667 -0.1 -1.88534e-010 4.71334e-011 -0.00107829 
0.171578 0.587115 -0.1 -2.37727e-010 5.94317e-011 -0.00135964 
0.161375 0.5805 -0.1 -6.91086e-010 1.72771e-010 -0.00395255 
0.152484 0.572885 -0.1 -2.65194e-010 6.62983e-011 -0.00151673 
0.145 0.564333 -0.1 -3.01364e-010 7.53409e-011 -0.0017236 
0.139016 0.554906 -0.1 -7.29338e-010 1.82334e-010 -0.00417133 
0.134625 0.544667 -0.1 -3.34095e-010 8.35239e-011 -0.0019108 
0.131922 0.533677 -0.1 -7.8319e-010 1.95797e-010 -0.00447932 
0.131 0.522 -0.1 -6.77128e-010 1.69282e-010 -0.00387272 
0.136804 0.491817 -0.1 -1.69483e-009 4.23708e-010 -0.00969331 
0.152852 0.465954 -0.1 -9.12406e-010 2.28102e-010 -0.00521835 
0.177094 0.443187 -0.1 -1.71941e-009 4.29852e-010 -0.00983388 
0.207482 0.422296 -0.1 -1.8805e-009 4.70127e-010 -0.0107552 
0.241966 0.402058 -0.1 -1.19155e-009 2.97887e-010 -0.00681487 
0.2785 0.38125 -0.1 -2.19686e-009 5.49215e-010 -0.0125646 
0.315034 0.35865 -0.1 -2.3704e-009 5.92599e-010 -0.0135571 
0.349519 0.333037 -0.1 -2.48658e-009 6.21646e-010 -0.0142216 
0.379906 0.303187 -0.1 -2.54306e-009 6.35765e-010 -0.0145446 
0.404148 0.26788 -0.1 -2.9544e-009 7.38602e-010 -0.0168972 
0.420196 0.225891 -0.1 -2.72208e-009 6.80522e-010 -0.0155685 
0.426 0.176 -0.1 -1.76797e-009 4.41993e-010 -0.0101116 
0.424343 0.149883 -0.1 -1.11871e-009 2.79678e-010 -0.00639828 
0.419491 0.125144 -0.1 -1.28869e-009 3.22173e-010 -0.00737045 
0.411625 0.101953 -0.1 -1.1494e-009 2.8735e-010 -0.00657381 
0.400926 0.080481 -0.1 -1.46188e-009 3.6547e-010 -0.00836097 
0.387574 0.060899 -0.1 -2.9458e-009 7.36448e-010 -0.016848 
0.37175 0.043375 -0.1 -2.87686e-009 7.19213e-010 -0.0164537 
0.353634 0.02808 -0.1 -1.75941e-009 4.39852e-010 -0.0100626 
0.333407 0.015185 -0.1 -1.51795e-009 3.79488e-010 -0.00868167 
0.31125 0.004859 -0.1 -8.93949e-010 2.23487e-010 -0.00511279 
0.287343 -0.002727 -0.1 -4.19896e-010 1.04974e-010 -0.00240153 
0.261866 -0.007403 -0.1 -1.18746e-010 2.96865e-011 -0.000679148 
0.235 -0.00899999 -0.1 -7.04966e-012 1.76241e-012 -4.03193e-005 
0.216785 -0.008582 -0.1 -2.06472e-011 5.16181e-012 -0.000118088 
0.199116 -0.007319 -0.1 -3.65613e-011 9.14033e-012 -0.000209106 
0.181953 -0.005203 -0.1 -1.60257e-010 4.00642e-011 -0.000916562 
0.165259 -0.002222 -0.1 -1.43032e-010 3.57579e-011 -0.000818045 
0.148996 0.001634 -0.1 -4.26052e-010 1.06513e-010 -0.00243673 
0.133125 0.006375 -0.1 -3.14896e-010 7.87241e-011 -0.001801 
0.117608 0.012012 -0.1 -8.0412e-010 2.0103e-010 -0.00459903 
0.102407 0.018556 -0.1 -5.47857e-010 1.36964e-010 -0.00313338 
0.087484 0.026016 -0.1 -1.28087e-009 3.20217e-010 -0.00732572 
0.072801 0.034403 -0.1 -1.67672e-009 4.1918e-010 -0.00958973 
0.058319 0.043727 -0.1 -1.07218e-009 2.68046e-010 -0.00613217 
0.044 0.054 -0.1 -5.631e-009 1.40775e-009 -0.0322056 
0.044 0.178 -0.1 -2.76777e-010 6.91944e-011 -0.00158298 
0.056766 0.162608 -0.1 -5.60499e-010 1.40125e-010 -0.00320568 
0.070042 0.148444 -0.1 -5.69657e-010 1.42414e-010 -0.00325806 
0.083797 0.135531 -0.1 -5.69412e-010 1.42353e-010 -0.00325666 
0.098 0.123889 -0.1 -5.59861e-010 1.39965e-010 -0.00320203 
0.11262 0.113538 -0.1 -5.41022e-010 1.35256e-010 -0.00309429 
0.127625 0.1045 -0.1 -5.12912e-010 1.28228e-010 -0.00293352 
0.142984 0.096795 -0.1 -4.75538e-010 1.18885e-010 -0.00271976 
0.158667 0.090444 -0.1 -4.28796e-010 1.07199e-010 -0.00245243 
0.174641 0.085469 -0.1 -3.72629e-010 9.31571e-011 -0.00213119 
0.190875 0.081889 -0.1 -3.06927e-010 7.67317e-011 -0.00175542 
0.207339 0.079726 -0.1 -2.31506e-010 5.78765e-011 -0.00132406 
0.224 0.079 -0.1 -1.46543e-009 3.66357e-010 -0.00838126 
0.242149 0.079966 -0.1 -7.02768e-010 1.75692e-010 -0.00401936 
0.258611 0.082731 -0.1 -1.89664e-010 4.74159e-011 -0.00108475 
0.273406 0.087094 -0.1 -2.57972e-010 6.44931e-011 -0.00147543 
0.286556 0.092852 -0.1 -3.07533e-010 7.68833e-011 -0.00175888 
0.29808 0.099804 -0.1 -7.4023e-010 1.85057e-010 -0.00423362 
0.308 0.10775 -0.1 -3.20774e-010 8.01934e-011 -0.00183461 
0.316337 0.116487 -0.1 -7.31104e-010 1.82776e-010 -0.00418143 
0.323111 0.125815 -0.1 -3.22331e-010 8.05827e-011 -0.00184352 
0.328344 0.135531 -0.1 -3.28922e-010 8.22306e-011 -0.00188122 
0.332056 0.145435 -0.1 -7.17858e-010 1.79464e-010 -0.00410567 
0.334267 0.155325 -0.1 -3.10938e-010 7.77345e-011 -0.00177836 
0.335 0.165 -0.1 -1.09874e-009 2.74686e-010 -0.00628408 
0.329196 0.197817 -0.1 -1.89003e-009 4.72507e-010 -0.0108097 
0.313148 0.226454 -0.1 -1.00899e-009 2.52248e-010 -0.00577076 
0.288906 0.251937 -0.1 -1.92075e-009 4.80187e-010 -0.0109854 
0.258519 0.275296 -0.1 -1.07751e-009 2.69378e-010 -0.00616265 
0.224034 0.297558 -0.1 -2.149e-009 5.3725e-010 -0.0122908 
0.1875 0.31975 -0.1 -2.29763e-009 5.74409e-010 -0.0131409 
0.150966 0.3429 -0.1 -2.38644e-009 5.96612e-010 -0.0136489 
0.116481 0.368037 -0.1 -2.40832e-009 6.02081e-010 -0.013774 
0.086094 0.396187 -0.1 -2.85312e-009 7.13282e-010 -0.016318 
0.061852 0.42838 -0.1 -2.0859e-009 5.21473e-010 -0.0119299 
0.045804 0.465641 -0.1 -2.4212e-009 6.05298e-010 -0.0138476 
0.04 0.509 -0.1 -1.81862e-009 4.54656e-010 -0.0104013 
0.041686 0.535899 -0.1 -1.17019e-009 2.92548e-010 -0.00669272 
0.046653 0.561023 -0.1 -1.27347e-009 3.18368e-010 -0.00728342 
0.054766 0.584266 -0.1 -1.41177e-009 3.52943e-010 -0.0080744 
0.065889 0.605519 -0.1 -1.20562e-009 3.01405e-010 -0.00689534 
0.079887 0.624674 -0.1 -1.24431e-009 3.11077e-010 -0.00711661 
0.096625 0.641625 -0.1 -4.18256e-009 1.04564e-009 -0.0239215 
0.115967 0.656263 -0.1 -1.81836e-009 4.5459e-010 -0.0103998 
0.137778 0.668482 -0.1 -1.20924e-009 3.02309e-010 -0.00691603 
0.161922 0.678172 -0.1 -7.06938e-010 1.76734e-010 -0.00404321 
0.188264 0.685227 -0.1 -3.29036e-010 8.2259e-011 -0.00188187 
0.216668 0.689539 -0.1 -9.17943e-011 2.29486e-011 -0.000525002 
0.247 0.691 -0.1 -5.08636e-012 1.27159e-012 -2.90906e-005 
0.259998 0.690667 -0.1 -1.52228e-011 3.8057e-012 -8.70643e-005 
0.272981 0.689667 -0.1 -2.68394e-011 6.70985e-012 -0.000153504 
0.285938 0.688 -0.1 -1.22676e-010 3.06691e-011 -0.000701627 
0.298852 0.685667 -0.1 -1.05101e-010 2.62752e-011 -0.000601107 
0.311711 0.682667 -0.1 -3.29152e-010 8.22881e-011 -0.00188253 
0.3245 0.679 -0.1 -2.311e-010 5.7775e-011 -0.00132174 
0.337206 0.674667 -0.1 -6.24762e-010 1.56191e-010 -0.00357322 
0.349815 0.669667 -0.1 -4.00669e-010 1.00167e-010 -0.00229156 
0.362313 0.664 -0.1 -9.99e-010 2.4975e-010 -0.00571361 
0.374685 0.657667 -0.1 -6.09166e-010 1.52292e-010 -0.00348402 
0.386919 0.650667 -0.1 -1.4403e-009 3.60075e-010 -0.00823755 
0.399 0.643 -0.1 -4.7333e-009 1.18332e-009 -0.0270713 
0.399 0.532 -0.1 -2.8052e-010 7.01302e-011 -0.00160439 
0.384546 0.544951 -0.1 -1.95709 -2.2722 2.42868e-007 
0.384546 0.544951 0.1 -1.91221 -2.3101 2.33364e-007 
0.370204 0.556357 -0.1 -1.81824 -2.38464 2.13675e-007 
0.370204 0.556357 0.1 -1.76915 -2.42128 2.0349e-007 
0.356 0.566297 -0.1 -1.66713 -2.49253 1.82538e-007 
0.356 0.566297 0.1 -1.6142 -2.52713 1.71771e-007 
0.341963 0.574852 -0.1 -1.50475 -2.5937 1.49724e-007 
0.341963 0.574852 0.1 -1.44823 -2.62568 1.38444e-007 
0.32812 0.582101 -0.1 -1.3323 -2.68631 1.15524e-007 
0.32812 0.582101 0.1 -1.27289 -2.71497 1.03884e-007 
0.3145 0.588125 -0.1 -1.15173 -2.76851 8.03597e-008 
0.3145 0.588125 0.1 -1.08999 -2.7934 6.84763e-008 
0.30113 0.593003 -0.1 -0.965034 -2.83899 4.46358e-008 
0.30113 0.593003 0.1 -0.90183 -2.85969 3.26798e-008 
0.288037 0.596815 -0.1 -0.774885 -2.8967 8.8662e-009 
0.288037 0.596815 0.1 -0.711143 -2.91301 -2.99141e-009 
0.27525 0.599641 -0.1 -0.583889 -2.94121 -2.6474e-008 
0.27525 0.599641 0.1 -0.520376 -2.95311 -3.80991e-008 
0.262796 0.60156 -0.1 -0.394601 -2.97261 -6.09428e-008 
0.262796 0.60156 0.1 -0.332339 -2.98022 -7.2161e-008 
0.250704 0.602653 -0.1 -0.209683 -2.99144 -9.40979e-008 
0.250704 0.602653 0.1 -0.149288 -2.99506 -1.04816e-007 
0.239 0.603 -0.1 -0.0152279 -2.99815 -1.28391e-007 
0.239 0.603 0.1 0.0584385 -2.99762 -1.41248e-007 
0.223641 0.602323 -0.1 0.223891 -2.98879 -1.6979e-007 
0.223641 0.602323 0.1 0.315677 -2.9805 -1.85476e-007 
0.209125 0.600333 -0.1 0.503678 -2.95417 -2.17197e-007 
0.209125 0.600333 0.1 0.599892 -2.93615 -2.33231e-007 
0.195547 0.597094 -0.1 0.796801 -2.88844 -2.65575e-007 
0.195547 0.597094 0.1 0.897497 -2.85875 -2.81884e-007 
0.183 0.592667 -0.1 1.10263 -2.78542 -3.14545e-007 
0.183 0.592667 0.1 1.20707 -2.74178 -3.30897e-007 
0.171578 0.587115 -0.1 1.41835 -2.63784 -3.63295e-007 
0.171578 0.587115 0.1 1.52518 -2.57754 -3.79339e-007 
0.161375 0.5805 -0.1 1.73852 -2.43766 -4.10526e-007 
0.161375 0.5805 0.1 1.84502 -2.35809 -4.25669e-007 
0.152484 0.572885 -0.1 2.05354 -2.17756 -4.54236e-007 
0.152484 0.572885 0.1 2.15557 -2.07662 -4.67663e-007 
0.145 0.564333 -0.1 2.34933 -1.85303 -4.91769e-007 
0.145 0.564333 0.1 2.44107 -1.73039 -5.02448e-007 
0.139016 0.554906 -0.1 2.60759 -1.46597 -5.20006e-007 
0.139016 0.554906 0.1 2.68237 -1.32419 -5.26883e-007 
0.134625 0.544667 -0.1 2.80917 -1.0271 -5.36066e-007 
0.134625 0.544667 0.1 2.86117 -0.8718 -5.3837e-007 
0.131922 0.533677 -0.1 2.93902 -0.556379 -5.38194e-007 
0.131922 0.533677 0.1 2.96485 -0.396262 -5.35712e-007 
0.131 0.522 -0.1 2.9758 0.0314048 -5.18933e-007 
0.131 0.522 0.1 2.96091 0.298954 -5.04635e-007 
0.136804 0.491817 -0.1 2.81373 0.904915 -4.52413e-007 
0.136804 0.491817 0.1 2.68143 1.24333 -4.14489e-007 
0.152852 0.465954 -0.1 2.38401 1.78343 -3.38877e-007 
0.152852 0.465954 0.1 2.21888 1.98512 -3.01189e-007 
0.177094 0.443187 -0.1 1.93568 2.28192 -2.38699e-007 
0.177094 0.443187 0.1 1.81761 2.37704 -2.13898e-007 
0.207482 0.422296 -0.1 1.63918 2.51055 -1.76864e-007 
0.207482 0.422296 0.1 1.57882 2.54894 -1.64632e-007 
0.241966 0.402058 -0.1 1.50721 2.59383 -1.50149e-007 
0.241966 0.402058 0.1 1.49597 2.60033 -1.47899e-007 
0.2785 0.38125 -0.1 1.5159 2.58832 -1.51909e-007 
0.2785 0.38125 0.1 1.54707 2.56981 -1.58168e-007 
0.315034 0.35865 -0.1 1.64842 2.50366 -1.7878e-007 
0.315034 0.35865 0.1 1.7186 2.45602 -1.93133e-007 
0.349519 0.333037 -0.1 1.89329 2.31897 -2.29668e-007 
0.349519 0.333037 0.1 1.99781 2.22956 -2.51851e-007 
0.379906 0.303187 -0.1 2.22594 1.99279 -3.02088e-007 
0.379906 0.303187 0.1 2.34955 1.84544 -3.30141e-007 
0.404148 0.26788 -0.1 2.58287 1.48907 -3.86515e-007 
0.404148 0.26788 0.1 2.69259 1.28005 -4.14835e-007 
0.420196 0.225891 -0.1 2.8615 0.829572 -4.64059e-007 
0.420196 0.225891 0.1 2.9207 0.588117 -4.84965e-007 
0.426 0.176 -0.1 2.9846 0.16779 -5.14509e-007 
0.426 0.176 0.1 2.98929 -0.0110823 -5.23148e-007 
0.424343 0.149883 -0.1 2.97729 -0.319097 -5.34514e-007 
0.424343 0.149883 0.1 2.9606 -0.44824 -5.37241e-007 
0.419491 0.125144 -0.1 2.90962 -0.706131 -5.396e-007 
0.419491 0.125144 0.1 2.87532 -0.834879 -5.3923e-007 
0.411625 0.101953 -0.1 2.78906 -1.0884 -5.3523e-007 
0.411625 0.101953 0.1 2.73709 -1.21317 -5.31598e-007 
0.400926 0.080481 -0.1 2.6163 -1.45531 -5.21062e-007 
0.400926 0.080481 0.1 2.54747 -1.57269 -5.14159e-007 
0.387574 0.060899 -0.1 2.39462 -1.7969 -4.97233e-007 
0.387574 0.060899 0.1 2.31059 -1.90373 -4.87211e-007 
0.37175 0.043375 -0.1 2.12949 -2.10447 -4.64321e-007 
0.37175 0.043375 0.1 2.03241 -2.19837 -4.51451e-007 
0.353634 0.02808 -0.1 1.82778 -2.3714 -4.23237e-007 
0.353634 0.02808 0.1 1.72024 -2.45053 -4.07892e-007 
0.333407 0.015185 -0.1 1.49755 -2.59284 -3.75177e-007 
0.333407 0.015185 0.1 1.3824 -2.65602 -3.57805e-007 
0.31125 0.004859 -0.1 1.14729 -2.76597 -3.21502e-007 
0.31125 0.004859 0.1 1.02732 -2.81273 -3.02571e-007 
0.287343 -0.002727 -0.1 0.785426 -2.8899 -2.6365e-007 
0.287343 -0.002727 0.1 0.663497 -2.92031 -2.4366e-007 
0.261866 -0.007403 -0.1 0.420384 -2.96538 -2.03123e-007 
0.261866 -0.007403 0.1 0.2992 -2.98005 -1.82576e-007 
0.235 -0.00899999 -0.1 0.0957347 -2.99621 -1.47707e-007 
0.235 -0.009 0.1 0.0134542 -2.99771 -1.33386e-007 
0.216785 -0.008582 -0.1 -0.117183 -2.99693 -1.10511e-007 
0.216785 -0.008582 0.1 -0.165541 -2.99465 -1.01956e-007 
0.199116 -0.007319 -0.1 -0.26496 -2.9874 -8.42565e-008 
0.199116 -0.007319 0.1 -0.316023 -2.98243 -7.51104e-008 
0.181953 -0.005203 -0.1 -0.420511 -2.9694 -5.62722e-008 
0.181953 -0.005203 0.1 -0.473935 -2.96134 -4.65789e-008 
0.165259 -0.002222 -0.1 -0.582279 -2.94188 -2.67848e-008 
0.165259 -0.002222 0.1 -0.637199 -2.93048 -1.66837e-008 
0.148996 0.001634 -0.1 -0.747636 -2.90421 3.77382e-009 
0.148996 0.001634 0.1 -0.803153 -2.88935 1.41303e-008 
0.133125 0.006375 -0.1 -0.913893 -2.85623 3.49405e-008 
0.133125 0.006375 0.1 -0.969116 -2.83797 4.53942e-008 
0.117608 0.012012 -0.1 -1.07831 -2.79831 6.62196e-008 
0.117608 0.012012 0.1 -1.13227 -2.77691 7.65902e-008 
0.102407 0.018556 -0.1 -1.23797 -2.73147 9.70572e-008 
0.102407 0.018556 0.1 -1.2897 -2.70743 1.07153e-007 
0.087484 0.026016 -0.1 -1.39028 -2.65725 1.26932e-007 
0.087484 0.026016 0.1 -1.43913 -2.63112 1.36615e-007 
0.072801 0.034403 -0.1 -1.53332 -2.57746 1.5543e-007 
0.072801 0.034403 0.1 -1.57867 -2.54994 1.64562e-007 
0.058319 0.043727 -0.1 -1.66561 -2.49413 1.82203e-007 
0.058319 0.043727 0.1 -1.7072 -2.46585 1.90711e-007 
0.044 0.054 -0.1 -2.16587 -1.62504 3.07659e-007 
0.044 0.054 0.1 -2.58293 -0.81252 4.16098e-007 
0.044 0.178 -0.1 -1.23029 0.638392 2.43015e-007 
0.044 0.178 0.1 0.539422 1.27678 -3.85056e-008 
0.056766 0.162608 -0.1 2.26903 1.96065 -3.11027e-007 
0.056766 0.162608 0.1 2.22893 2.00612 -3.02028e-007 
0.070042 0.148444 -0.1 2.14366 2.0968 -2.83155e-007 
0.070042 0.148444 0.1 2.09849 2.142 -2.73281e-007 
0.083797 0.135531 -0.1 2.00281 2.23153 -2.5264e-007 
0.083797 0.135531 0.1 1.95231 2.27584 -2.41872e-007 
0.098 0.123889 -0.1 1.84571 2.36293 -2.19427e-007 
0.098 0.123889 0.1 1.78961 2.40569 -2.07749e-007 
0.11262 0.113538 -0.1 1.67164 2.48891 -1.83485e-007 
0.11262 0.113538 0.1 1.60977 2.52937 -1.70898e-007 
0.127625 0.1045 -0.1 1.48033 2.60705 -1.44871e-007 
0.127625 0.1045 0.1 1.41276 2.64428 -1.3143e-007 
0.142984 0.096795 -0.1 1.27215 2.71455 -1.03773e-007 
0.142984 0.096795 0.1 1.1991 2.7476 -8.95563e-008 
0.158667 0.090444 -0.1 1.04806 2.80853 -6.04836e-008 
0.158667 0.090444 0.1 0.970063 2.83642 -4.56275e-008 
0.174641 0.085469 -0.1 0.810062 2.88607 -1.54817e-008 
0.174641 0.085469 0.1 0.728057 2.90784 -1.91768e-010 
0.190875 0.081889 -0.1 0.560959 2.94455 3.06293e-008 
0.190875 0.081889 0.1 0.475867 2.9595 4.61605e-008 
0.207339 0.079726 -0.1 0.30405 2.98201 7.71861e-008 
0.207339 0.079726 0.1 0.217325 2.98958 9.26808e-008 
0.224 0.079 -0.1 0.0339162 2.99669 1.25059e-007 
0.224 0.079 0.1 -0.062768 2.99622 1.41944e-007 
0.242149 0.079966 -0.1 -0.271944 2.98336 1.77955e-007 
0.242149 0.079966 0.1 -0.384435 2.97096 1.97081e-007 
0.258611 0.082731 -0.1 -0.614139 2.93153 2.35521e-007 
0.258611 0.082731 0.1 -0.73135 2.90451 2.54834e-007 
0.273406 0.087094 -0.1 -0.966812 2.83436 2.92936e-007 
0.273406 0.087094 0.1 -1.08506 2.79123 3.11726e-007 
0.286556 0.092852 -0.1 -1.31876 2.68832 3.4809e-007 
0.286556 0.092852 0.1 -1.4342 2.62855 3.65661e-007 
0.29808 0.099804 -0.1 -1.65827 2.493 3.98914e-007 
0.29808 0.099804 0.1 -1.7669 2.41723 4.14595e-007 
0.308 0.10775 -0.1 -1.97382 2.25132 4.43523e-007 
0.308 0.10775 0.1 -2.07212 2.16119 4.56769e-007 
0.316337 0.116487 -0.1 -2.2561 1.96831 4.80507e-007 
0.316337 0.116487 0.1 -2.34177 1.86556 4.90994e-007 
0.323111 0.125815 -0.1 -2.49872 1.6494 5.08987e-007 
0.323111 0.125815 0.1 -2.56999 1.53599 5.16492e-007 
0.328344 0.135531 -0.1 -2.69723 1.29934 5.28395e-007 
0.328344 0.135531 0.1 -2.7532 1.17611 5.32794e-007 
0.332056 0.145435 -0.1 -2.84869 0.920089 5.38299e-007 
0.332056 0.145435 0.1 -2.88821 0.787306 5.39405e-007 
0.334267 0.155325 -0.1 -2.94896 0.511896 5.37988e-007 
0.334267 0.155325 0.1 -2.97019 0.369269 5.35466e-007 
0.335 0.165 -0.1 -2.979 -0.0230618 5.19858e-007 
0.335 0.165 0.1 -2.96658 -0.272766 5.0677e-007 
0.329196 0.197817 -0.1 -2.84179 -0.837179 4.6028e-007 
0.329196 0.197817 0.1 -2.72944 -1.15189 4.26879e-007 
0.313148 0.226454 -0.1 -2.46925 -1.66697 3.58872e-007 
0.313148 0.226454 0.1 -2.32142 -1.86735 3.24265e-007 
0.288906 0.251937 -0.1 -2.05851 -2.17131 2.65011e-007 
0.288906 0.251937 0.1 -1.94344 -2.27489 2.40363e-007 
0.258519 0.275296 -0.1 -1.76127 -2.42579 2.01916e-007 
0.258519 0.275296 0.1 -1.69418 -2.47311 1.88116e-007 
0.224034 0.297558 -0.1 -1.60388 -2.53497 1.69625e-007 
0.224034 0.297558 0.1 -1.58068 -2.5495 1.64933e-007 
0.1875 0.31975 -0.1 -1.57357 -2.55405 1.6349e-007 
0.1875 0.31975 0.1 -1.58965 -2.54407 1.66739e-007 
0.150966 0.3429 -0.1 -1.65954 -2.49749 1.80994e-007 
0.150966 0.3429 0.1 -1.71334 -2.4609 1.92e-007 
0.116481 0.368037 -0.1 -1.85768 -2.34979 2.22094e-007 
0.116481 0.368037 0.1 -1.94822 -2.27529 2.41182e-007 
0.086094 0.396187 -0.1 -2.15802 -2.06873 2.86893e-007 
0.086094 0.396187 0.1 -2.27727 -1.93668 3.13515e-007 
0.061852 0.42838 -0.1 -2.51612 -1.59865 3.70053e-007 
0.061852 0.42838 0.1 -2.63572 -1.39267 3.99968e-007 
0.045804 0.465641 -0.1 -2.82804 -0.923804 4.54089e-007 
0.045804 0.465641 0.1 -2.90076 -0.660915 4.78295e-007 
0.04 0.509 -0.1 -2.98036 -0.202795 5.12238e-007 
0.04 0.509 0.1 -2.98724 -0.00756346 5.21975e-007 
0.041686 0.535899 -0.1 -2.97709 0.319058 5.34477e-007 
0.041686 0.535899 0.1 -2.96007 0.450447 5.37245e-007 
0.046653 0.561023 -0.1 -2.90616 0.717443 5.3949e-007 
0.046653 0.561023 0.1 -2.86929 0.85305 5.3897e-007 
0.054766 0.584266 -0.1 -2.77427 1.1228 5.34147e-007 
0.054766 0.584266 0.1 -2.71613 1.25694 5.29846e-007 
0.065889 0.605519 -0.1 -2.57938 1.51741 5.17322e-007 
0.065889 0.605519 0.1 -2.50077 1.64373 5.09098e-007 
0.079887 0.624674 -0.1 -2.32634 1.88266 4.89044e-007 
0.079887 0.624674 0.1 -2.23051 1.99526 4.77211e-007 
0.096625 0.641625 -0.1 -2.02659 2.20264 4.5062e-007 
0.096625 0.641625 0.1 -1.91849 2.2974 4.35862e-007 
0.115967 0.656263 -0.1 -1.69568 2.4672 4.04327e-007 
0.115967 0.656263 0.1 -1.58097 2.54224 3.8755e-007 
0.137778 0.668482 -0.1 -1.34997 2.67289 3.52872e-007 
0.137778 0.668482 0.1 -1.23368 2.72852 3.34971e-007 
0.161922 0.678172 -0.1 -1.00363 2.82205 2.98836e-007 
0.161922 0.678172 0.1 -0.889874 2.85996 2.80603e-007 
0.188264 0.685227 -0.1 -0.667501 2.92058 2.44373e-007 
0.188264 0.685227 0.1 -0.558887 2.9433 2.26374e-007 
0.216668 0.689539 -0.1 -0.348293 2.97619 1.90991e-007 
0.216668 0.689539 0.1 -0.246312 2.98636 1.73604e-007 
0.247 0.691 -0.1 -0.0706086 2.99736 1.43364e-007 
0.247 0.691 0.1 0.00311339 2.99819 1.30511e-007 
0.259998 0.690667 -0.1 0.128019 2.99639 1.08593e-007 
0.259998 0.690667 0.1 0.179203 2.99377 9.95286e-008 
0.272981 0.689667 -0.1 0.281192 2.98592 8.13534e-008 
0.272981 0.689667 0.1 0.331999 2.9807 7.22417e-008 
0.285938 0.688 -0.1 0.432986 2.96772 5.40176e-008 
0.285938 0.688 0.1 0.483166 2.95997 4.49048e-008 
0.298852 0.685667 -0.1 0.58276 2.94199 2.67054e-008 
0.298852 0.685667 0.1 0.632173 2.93177 1.7619e-008 
0.311711 0.682667 -0.1 0.730015 2.90896 -4.85038e-010 
0.311711 0.682667 0.1 0.778445 2.89638 -9.50282e-009 
0.3245 0.679 -0.1 0.874018 2.86901 -2.74098e-008 
0.3245 0.679 0.1 0.921162 2.85422 -3.62991e-008 
0.337206 0.674667 -0.1 1.01416 2.82254 -5.3944e-008 
0.337206 0.674667 0.1 1.06 2.80564 -6.26982e-008 
0.349815 0.669667 -0.1 1.1502 2.76991 -8.00308e-008 
0.349815 0.669667 0.1 1.19455 2.75108 -8.86082e-008 
0.362313 0.664 -0.1 1.28158 2.71165 -1.05549e-007 
0.362313 0.664 0.1 1.32427 2.69106 -1.13913e-007 
0.374685 0.657667 -0.1 1.40794 2.64828 -1.30412e-007 
0.374685 0.657667 0.1 1.44891 2.62609 -1.38545e-007 
0.386919 0.650667 -0.1 1.52909 2.58025 -1.54568e-007 
0.386919 0.650667 0.1 1.5683 2.55661 -1.62457e-007 
0.399 0.643 -0.1 2.07167 1.68865 -2.88409e-007 
0.399 0.643 0.1 2.53584 0.844323 -4.06473e-007 
0.399 0.532 -0.1 1.33268 -0.744767 -2.65568e-007 
0.399 0.532 0.1 -0.334649 -1.48953 -6.59775e-009 
3 107 109 108 
3 107 110 109 
3 107 111 110 
3 106 111 107 
3 106 112 111 
3 106 113 112 
3 105 113 106 
3 105 114 113 
3 105 115 114 
3 104 115 105 
3 104 116 115 
3 104 117 116 
3 103 117 104 
3 103 118 117 
3 103 119 118 
3 102 119 103 
3 102 120 119 
3 102 7 120 
3 7 6 120 
3 6 5 120 
3 5 4 120 
3 4 3 120 
3 3 2 120 
3 2 1 120 
3 1 0 120 
3 0 121 120 
3 101 9 102 
3 9 8 102 
3 8 7 102 
3 100 11 101 
3 11 10 101 
3 10 9 101 
3 99 12 100 
3 12 11 100 
3 99 13 12 
3 99 14 13 
3 99 15 14 
3 99 16 15 
3 99 17 16 
3 98 17 99 
3 98 18 17 
3 98 19 18 
3 98 20 19 
3 97 20 98 
3 97 21 20 
3 97 22 21 
3 96 22 97 
3 96 23 22 
3 96 24 23 
3 95 24 96 
3 95 25 24 
3 95 26 25 
3 94 26 95 
3 94 27 26 
3 93 27 94 
3 93 28 27 
3 93 29 28 
3 92 29 93 
3 92 30 29 
3 91 30 92 
3 91 31 30 
3 90 31 91 
3 90 32 31 
3 89 32 90 
3 89 33 32 
3 88 33 89 
3 87 33 88 
3 87 34 33 
3 86 34 87 
3 85 34 86 
3 85 35 34 
3 84 35 85 
3 59 61 60 
3 84 36 35 
3 83 36 84 
3 59 62 61 
3 82 36 83 
3 82 37 36 
3 59 63 62 
3 81 37 82 
3 59 64 63 
3 80 37 81 
3 79 37 80 
3 79 38 37 
3 59 65 64 
3 78 38 79 
3 59 66 65 
3 77 38 78 
3 59 67 66 
3 77 39 38 
3 76 39 77 
3 59 68 67 
3 75 39 76 
3 59 69 68 
3 74 39 75 
3 59 70 69 
3 73 39 74 
3 59 71 70 
3 73 40 39 
3 72 40 73 
3 59 72 71 
3 59 40 72 
3 59 41 40 
3 58 41 59 
3 57 41 58 
3 57 42 41 
3 56 42 57 
3 56 43 42 
3 55 43 56 
3 54 43 55 
3 54 44 43 
3 53 44 54 
3 52 44 53 
3 52 45 44 
3 51 45 52 
3 50 45 51 
3 50 46 45 
3 49 46 50 
3 48 46 49 
3 48 47 46 
3 231 229 230 
3 232 229 231 
3 233 229 232 
3 233 228 229 
3 234 228 233 
3 235 228 234 
3 235 227 228 
3 236 227 235 
3 237 227 236 
3 237 226 227 
3 238 226 237 
3 239 226 238 
3 239 225 226 
3 240 225 239 
3 241 225 240 
3 241 224 225 
3 242 224 241 
3 129 224 242 
3 128 129 242 
3 127 128 242 
3 126 127 242 
3 125 126 242 
3 124 125 242 
3 123 124 242 
3 122 123 242 
3 243 122 242 
3 131 223 224 
3 130 131 224 
3 129 130 224 
3 133 222 223 
3 132 133 223 
3 131 132 223 
3 134 221 222 
3 133 134 222 
3 135 221 134 
3 136 221 135 
3 137 221 136 
3 138 221 137 
3 139 221 138 
3 139 220 221 
3 140 220 139 
3 141 220 140 
3 142 220 141 
3 142 219 220 
3 143 219 142 
3 144 219 143 
3 144 218 219 
3 145 218 144 
3 146 218 145 
3 146 217 218 
3 147 217 146 
3 148 217 147 
3 148 216 217 
3 149 216 148 
3 149 215 216 
3 150 215 149 
3 151 215 150 
3 151 214 215 
3 152 214 151 
3 152 213 214 
3 153 213 152 
3 153 212 213 
3 154 212 153 
3 154 211 212 
3 155 211 154 
3 155 210 211 
3 155 209 210 
3 156 209 155 
3 156 208 209 
3 156 207 208 
3 157 207 156 
3 157 206 207 
3 183 181 182 
3 158 206 157 
3 158 205 206 
3 184 181 183 
3 158 204 205 
3 159 204 158 
3 185 181 184 
3 159 203 204 
3 186 181 185 
3 159 202 203 
3 159 201 202 
3 160 201 159 
3 187 181 186 
3 160 200 201 
3 188 181 187 
3 160 199 200 
3 189 181 188 
3 161 199 160 
3 161 198 199 
3 190 181 189 
3 161 197 198 
3 191 181 190 
3 161 196 197 
3 192 181 191 
3 161 195 196 
3 193 181 192 
3 162 195 161 
3 162 194 195 
3 194 181 193 
3 162 181 194 
3 163 181 162 
3 163 180 181 
3 163 179 180 
3 164 179 163 
3 164 178 179 
3 165 178 164 
3 165 177 178 
3 165 176 177 
3 166 176 165 
3 166 175 176 
3 166 174 175 
3 167 174 166 
3 167 173 174 
3 167 172 173 
3 168 172 167 
3 168 171 172 
3 168 170 171 
3 169 170 168 
3 245 247 246 
3 245 246 244 
3 247 249 248 
3 247 248 246 
3 249 251 250 
3 249 250 248 
3 251 253 252 
3 251 252 250 
3 253 255 254 
3 253 254 252 
3 255 257 256 
3 255 256 254 
3 257 259 258 
3 257 258 256 
3 259 261 260 
3 259 260 258 
3 261 263 262 
3 261 262 260 
3 263 265 264 
3 263 264 262 
3 265 267 266 
3 265 266 264 
3 267 269 268 
3 267 268 266 
3 269 271 270 
3 269 270 268 
3 271 273 272 
3 271 272 270 
3 273 275 274 
3 273 274 272 
3 275 277 276 
3 275 276 274 
3 277 279 278 
3 277 278 276 
3 279 281 280 
3 279 280 278 
3 281 283 282 
3 281 282 280 
3 283 285 284 
3 283 284 282 
3 285 287 286 
3 285 286 284 
3 287 289 288 
3 287 288 286 
3 289 291 290 
3 289 290 288 
3 291 293 292 
3 291 292 290 
3 293 295 294 
3 293 294 292 
3 295 297 296 
3 295 296 294 
3 297 299 298 
3 297 298 296 
3 299 301 300 
3 299 300 298 
3 301 303 302 
3 301 302 300 
3 303 305 304 
3 303 304 302 
3 305 307 306 
3 305 306 304 
3 307 309 308 
3 307 308 306 
3 309 311 310 
3 309 310 308 
3 311 313 312 
3 311 312 310 
3 313 315 314 
3 313 314 312 
3 315 317 316 
3 315 316 314 
3 317 319 318 
3 317 318 316 
3 319 321 320 
3 319 320 318 
3 321 323 322 
3 321 322 320 
3 323 325 324 
3 323 324 322 
3 325 327 326 
3 325 326 324 
3 327 329 328 
3 327 328 326 
3 329 331 330 
3 329 330 328 
3 331 333 332 
3 331 332 330 
3 333 335 334 
3 333 334 332 
3 335 337 336 
3 335 336 334 
3 337 339 338 
3 337 338 336 
3 339 341 340 
3 339 340 338 
3 341 343 342 
3 341 342 340 
3 343 345 344 
3 343 344 342 
3 345 347 346 
3 345 346 344 
3 347 349 348 
3 347 348 346 
3 349 351 350 
3 349 350 348 
3 351 353 352 
3 351 352 350 
3 353 355 354 
3 353 354 352 
3 355 357 356 
3 355 356 354 
3 357 359 358 
3 357 358 356 
3 359 361 360 
3 359 360 358 
3 361 363 362 
3 361 362 360 
3 363 365 364 
3 363 364 362 
3 365 367 366 
3 365 366 364 
3 367 369 368 
3 367 368 366 
3 369 371 370 
3 369 370 368 
3 371 373 372 
3 371 372 370 
3 373 375 374 
3 373 374 372 
3 375 377 376 
3 375 376 374 
3 377 379 378 
3 377 378 376 
3 379 381 380 
3 379 380 378 
3 381 383 382 
3 381 382 380 
3 383 385 384 
3 383 384 382 
3 385 387 386 
3 385 386 384 
3 387 389 388 
3 387 388 386 
3 389 391 390 
3 389 390 388 
3 391 393 392 
3 391 392 390 
3 393 395 394 
3 393 394 392 
3 395 397 396 
3 395 396 394 
3 397 399 398 
3 397 398 396 
3 399 401 400 
3 399 400 398 
3 401 403 402 
3 401 402 400 
3 403 405 404 
3 403 404 402 
3 405 407 406 
3 405 406 404 
3 407 409 408 
3 407 408 406 
3 409 411 410 
3 409 410 408 
3 411 413 412 
3 411 412 410 
3 413 415 414 
3 413 414 412 
3 415 417 416 
3 415 416 414 
3 417 419 418 
3 417 418 416 
3 419 421 420 
3 419 420 418 
3 421 423 422 
3 421 422 420 
3 423 425 424 
3 423 424 422 
3 425 427 426 
3 425 426 424 
3 427 429 428 
3 427 428 426 
3 429 431 430 
3 429 430 428 
3 431 433 432 
3 431 432 430 
3 433 435 434 
3 433 434 432 
3 435 437 436 
3 435 436 434 
3 437 439 438 
3 437 438 436 
3 439 441 440 
3 439 440 438 
3 441 443 442 
3 441 442 440 
3 443 445 444 
3 443 444 442 
3 445 447 446 
3 445 446 444 
3 447 449 448 
3 447 448 446 
3 449 451 450 
3 449 450 448 
3 451 453 452 
3 451 452 450 
3 453 455 454 
3 453 454 452 
3 455 457 456 
3 455 456 454 
3 457 459 458 
3 457 458 456 
3 459 461 460 
3 459 460 458 
3 461 463 462 
3 461 462 460 
3 463 465 464 
3 463 464 462 
3 465 467 466 
3 465 466 464 
3 467 469 468 
3 467 468 466 
3 469 471 470 
3 469 470 468 
3 471 473 472 
3 471 472 470 
3 473 475 474 
3 473 474 472 
3 475 477 476 
3 475 476 474 
3 477 479 478 
3 477 478 476 
3 479 481 480 
3 479 480 478 
3 481 483 482 
3 481 482 480 
3 483 485 484 
3 483 484 482 
3 485 487 486 
3 485 486 484 
3 487 245 244 
3 487 244 486 
