ply
format ascii 1.0
comment VCGLIB generated
element vertex 224
property float x
property float y
property float z
property float nx
property float ny
property float nz
element face 224
property list uchar int vertex_indices
end_header
0.31857 0.680206 0.1 1.20684e-009 -3.0171e-010 0.00690232 
0.35081 0.674982 0.1 1.30257e-009 -3.25644e-010 0.00744986 
0.379766 0.666563 0.1 1.42665e-009 -3.56663e-010 0.0081595 
0.405482 0.655185 0.1 1.57391e-009 -3.93477e-010 0.00900171 
0.428003 0.641086 0.1 1.73985e-009 -4.34962e-010 0.00995077 
0.447375 0.6245 0.1 1.92033e-009 -4.80084e-010 0.010983 
0.463643 0.605664 0.1 1.92682e-009 -4.81705e-010 0.0110201 
0.476852 0.584815 0.1 1.42478e-009 -3.56195e-010 0.00814878 
0.487047 0.562188 0.1 1.48447e-009 -3.71117e-010 0.00849016 
0.494273 0.538019 0.1 1.54375e-009 -3.85938e-010 0.00882923 
0.498576 0.512544 0.1 1.36463e-009 -3.41157e-010 0.00780477 
0.5 0.486 0.1 1.44313e-009 -3.60783e-010 0.00825375 
0.498492 0.459765 0.1 1.18916e-009 -2.97291e-010 0.00680122 
0.493935 0.434699 0.1 1.39994e-009 -3.49986e-010 0.00800674 
0.486281 0.411016 0.1 1.35021e-009 -3.37553e-010 0.0077223 
0.475481 0.388926 0.1 1.66048e-009 -4.15119e-010 0.00949683 
0.461487 0.368642 0.1 4.55375e-009 -1.13844e-009 0.0260444 
0.44425 0.350375 0.1 1.29132e-009 -3.22829e-010 0.00738546 
0.423721 0.334337 0.1 1.01962e-009 -2.54905e-010 0.00583155 
0.399852 0.320741 0.1 7.64702e-010 -1.91176e-010 0.00437359 
0.372594 0.309797 0.1 5.3056e-010 -1.3264e-010 0.00303445 
0.341898 0.301718 0.1 3.21555e-010 -8.03888e-011 0.00183908 
0.307716 0.296715 0.1 1.42553e-010 -3.56383e-011 0.000815308 
0.27 0.295 0.1 3.05858e-011 -7.64645e-012 0.00017493 
0.168 0.295 0.1 1.37652e-008 -3.4413e-009 0.0787277 
0.168 -4.37114e-009 0.1 5.05478e-009 -1.2637e-009 0.02891 
0.07 -4.37114e-009 0.1 2.1864e-008 -5.46602e-009 0.125048 
0.07 0.682 0.1 1.49633e-008 -3.74082e-009 0.08558 
0.283 0.682 0.1 3.86068e-009 -9.65168e-010 0.0220805 
0.279 0.383 0.1 4.86454e-009 -1.21614e-009 0.0278219 
0.296696 0.383807 0.1 1.83095e-010 -4.57738e-011 0.00104718 
0.313236 0.386204 0.1 7.86496e-010 -1.96624e-010 0.00449823 
0.328547 0.390156 0.1 2.48466e-010 -6.21166e-011 0.00142106 
0.342556 0.39563 0.1 3.20188e-010 -8.00471e-011 0.00183126 
0.355189 0.402589 0.1 3.80172e-010 -9.50429e-011 0.00217433 
0.366375 0.411 0.1 8.72732e-010 -2.18183e-010 0.00499144 
0.37604 0.420828 0.1 4.35918e-010 -1.0898e-010 0.00249316 
0.384111 0.432037 0.1 9.19246e-010 -2.29812e-010 0.00525748 
0.390516 0.444594 0.1 4.96996e-010 -1.24249e-010 0.00284249 
0.395181 0.458463 0.1 9.83555e-010 -2.45889e-010 0.00562528 
0.398033 0.47361 0.1 1.02754e-009 -2.56884e-010 0.00587682 
0.399 0.49 0.1 5.11332e-010 -1.27833e-010 0.00292448 
0.398417 0.50255 0.1 9.10917e-010 -2.27729e-010 0.00520984 
0.396588 0.515065 0.1 4.39914e-010 -1.09979e-010 0.00251602 
0.393391 0.527344 0.1 8.9254e-010 -2.23135e-010 0.00510473 
0.388704 0.539185 0.1 4.23112e-010 -1.05778e-010 0.00241992 
0.382406 0.550388 0.1 3.90812e-010 -9.77028e-011 0.00223518 
0.374375 0.56075 0.1 8.4937e-010 -2.12342e-010 0.00485783 
0.36449 0.570071 0.1 3.42842e-010 -8.57107e-011 0.00196083 
0.35263 0.578148 0.1 2.73672e-010 -6.8418e-011 0.00156522 
0.338672 0.584781 0.1 7.8428e-010 -1.9607e-010 0.00448556 
0.322495 0.589769 0.1 1.89313e-010 -4.73282e-011 0.00108274 
0.303979 0.592909 0.1 7.19928e-011 -1.79982e-011 0.000411751 
0.283 0.594 0.1 9.23264e-010 -2.30816e-010 0.00528046 
0.168 0.594 0.1 2.41934e-008 -6.04836e-009 0.13837 
0.168 0.383 0.1 6.83122e-009 -1.7078e-009 0.03907 
0.31857 0.680206 -0.1 -1.20684e-009 3.0171e-010 -0.00690233 
0.35081 0.674982 -0.1 -1.30257e-009 3.25644e-010 -0.00744986 
0.379766 0.666563 -0.1 -1.42665e-009 3.56663e-010 -0.0081595 
0.405482 0.655185 -0.1 -1.57391e-009 3.93477e-010 -0.00900171 
0.428003 0.641086 -0.1 -1.73985e-009 4.34962e-010 -0.00995077 
0.447375 0.6245 -0.1 -1.92033e-009 4.80084e-010 -0.010983 
0.463643 0.605664 -0.1 -1.92682e-009 4.81705e-010 -0.0110201 
0.476852 0.584815 -0.1 -1.42478e-009 3.56195e-010 -0.00814878 
0.487047 0.562188 -0.1 -1.48447e-009 3.71117e-010 -0.00849016 
0.494273 0.538019 -0.1 -1.54375e-009 3.85938e-010 -0.00882923 
0.498576 0.512544 -0.1 -1.36463e-009 3.41157e-010 -0.00780477 
0.5 0.486 -0.1 -1.44313e-009 3.60783e-010 -0.00825375 
0.498492 0.459765 -0.1 -1.18916e-009 2.97291e-010 -0.00680122 
0.493935 0.434699 -0.1 -1.39994e-009 3.49986e-010 -0.00800674 
0.486281 0.411016 -0.1 -1.35021e-009 3.37553e-010 -0.0077223 
0.475481 0.388926 -0.1 -1.66048e-009 4.15119e-010 -0.00949683 
0.461487 0.368642 -0.1 -4.55375e-009 1.13844e-009 -0.0260444 
0.44425 0.350375 -0.1 -1.29132e-009 3.22829e-010 -0.00738546 
0.423721 0.334337 -0.1 -1.01962e-009 2.54905e-010 -0.00583155 
0.399852 0.320741 -0.1 -7.64702e-010 1.91176e-010 -0.00437359 
0.372594 0.309797 -0.1 -5.3056e-010 1.3264e-010 -0.00303445 
0.341898 0.301718 -0.1 -3.21555e-010 8.03888e-011 -0.00183908 
0.307716 0.296715 -0.1 -1.42553e-010 3.56383e-011 -0.000815308 
0.27 0.295 -0.1 -3.05858e-011 7.64645e-012 -0.00017493 
0.168 0.295 -0.1 -1.37652e-008 3.4413e-009 -0.0787277 
0.168 4.37114e-009 -0.1 -5.05478e-009 1.2637e-009 -0.02891 
0.07 4.37114e-009 -0.1 -2.1864e-008 5.46602e-009 -0.125048 
0.07 0.682 -0.1 -1.49633e-008 3.74082e-009 -0.08558 
0.283 0.682 -0.1 -3.86068e-009 9.65168e-010 -0.0220805 
0.279 0.383 -0.1 -4.86454e-009 1.21614e-009 -0.0278219 
0.296696 0.383807 -0.1 -1.83095e-010 4.57738e-011 -0.00104718 
0.313236 0.386204 -0.1 -7.86496e-010 1.96624e-010 -0.00449823 
0.328547 0.390156 -0.1 -2.48466e-010 6.21166e-011 -0.00142106 
0.342556 0.39563 -0.1 -3.20188e-010 8.00471e-011 -0.00183126 
0.355189 0.402589 -0.1 -3.80172e-010 9.50429e-011 -0.00217433 
0.366375 0.411 -0.1 -8.72732e-010 2.18183e-010 -0.00499144 
0.37604 0.420828 -0.1 -4.35918e-010 1.0898e-010 -0.00249316 
0.384111 0.432037 -0.1 -9.19246e-010 2.29812e-010 -0.00525748 
0.390516 0.444594 -0.1 -4.96996e-010 1.24249e-010 -0.00284249 
0.395181 0.458463 -0.1 -9.83555e-010 2.45889e-010 -0.00562528 
0.398033 0.47361 -0.1 -1.02754e-009 2.56884e-010 -0.00587682 
0.399 0.49 -0.1 -5.11332e-010 1.27833e-010 -0.00292448 
0.398417 0.50255 -0.1 -9.10917e-010 2.27729e-010 -0.00520984 
0.396588 0.515065 -0.1 -4.39914e-010 1.09979e-010 -0.00251602 
0.393391 0.527344 -0.1 -8.9254e-010 2.23135e-010 -0.00510473 
0.388704 0.539185 -0.1 -4.23112e-010 1.05778e-010 -0.00241992 
0.382406 0.550388 -0.1 -3.90812e-010 9.77028e-011 -0.00223518 
0.374375 0.56075 -0.1 -8.4937e-010 2.12342e-010 -0.00485783 
0.36449 0.570071 -0.1 -3.42842e-010 8.57107e-011 -0.00196083 
0.35263 0.578148 -0.1 -2.73672e-010 6.8418e-011 -0.00156522 
0.338672 0.584781 -0.1 -7.8428e-010 1.9607e-010 -0.00448556 
0.322495 0.589769 -0.1 -1.89313e-010 4.73282e-011 -0.00108274 
0.303979 0.592909 -0.1 -7.19928e-011 1.79982e-011 -0.000411751 
0.283 0.594 -0.1 -9.23265e-010 2.30816e-010 -0.00528046 
0.168 0.594 -0.1 -2.41934e-008 6.04836e-009 -0.13837 
0.168 0.383 -0.1 -6.83122e-009 1.7078e-009 -0.03907 
0.31857 0.680206 -0.1 0.260691 2.98459 8.48797e-008 
0.31857 0.680206 0.1 0.370268 2.97298 6.52134e-008 
0.35081 0.674982 -0.1 0.599088 2.93449 2.35227e-008 
0.35081 0.674982 0.1 0.718331 2.9076 1.49811e-009 
0.379766 0.666563 -0.1 0.962995 2.83496 -4.44555e-008 
0.379766 0.666563 0.1 1.08842 2.78921 -6.83849e-008 
0.405482 0.655185 -0.1 1.33986 2.67658 -1.17271e-007 
0.405482 0.655185 0.1 1.46588 2.60969 -1.42229e-007 
0.428003 0.641086 -0.1 1.71163 2.45482 -1.91968e-007 
0.428003 0.641086 0.1 1.83137 2.36683 -2.1675e-007 
0.447375 0.6245 -0.1 2.05755 2.17287 -2.64775e-007 
0.447375 0.6245 0.1 2.16399 2.06688 -2.88018e-007 
0.463643 0.605664 -0.1 2.35836 1.84245 -3.31812e-007 
0.463643 0.605664 0.1 2.44628 1.72401 -3.52363e-007 
0.476852 0.584815 -0.1 2.6012 1.48117 -3.90064e-007 
0.476852 0.584815 0.1 2.66819 1.35678 -4.07215e-007 
0.487047 0.562188 -0.1 2.78155 1.10804 -4.37908e-007 
0.487047 0.562188 0.1 2.82792 0.983695 -4.51451e-007 
0.494273 0.538019 -0.1 2.90222 0.73945 -4.75118e-007 
0.494273 0.538019 0.1 2.93016 0.619551 -4.85244e-007 
0.498576 0.512544 -0.1 2.97063 0.386671 -5.025e-007 
0.498576 0.512544 0.1 2.98316 0.273691 -5.09629e-007 
0.5 0.486 -0.1 2.99548 0.0497551 -5.21571e-007 
0.5 0.486 0.1 2.99527 -0.0612009 -5.26385e-007 
0.498492 0.459765 -0.1 2.98058 -0.29364 -5.33977e-007 
0.498492 0.459765 0.1 2.9661 -0.415123 -5.36755e-007 
0.493935 0.434699 -0.1 2.91929 -0.665261 -5.39504e-007 
0.493935 0.434699 0.1 2.88695 -0.793915 -5.39474e-007 
0.486281 0.411016 -0.1 2.80146 -1.05427 -5.35906e-007 
0.486281 0.411016 0.1 2.74829 -1.18597 -5.32367e-007 
0.475481 0.388926 -0.1 2.61987 -1.44632 -5.21293e-007 
0.475481 0.388926 0.1 2.54461 -1.57497 -5.13758e-007 
0.461487 0.368642 -0.1 2.37355 -1.82205 -4.94648e-007 
0.461487 0.368642 0.1 2.27775 -1.94048 -4.83075e-007 
0.44425 0.350375 -0.1 2.07027 -2.16064 -4.56422e-007 
0.44425 0.350375 0.1 1.95859 -2.26236 -4.41341e-007 
0.423721 0.334337 -0.1 1.72622 -2.44498 -4.08696e-007 
0.423721 0.334337 0.1 1.60553 -2.52588 -3.9113e-007 
0.399852 0.320741 -0.1 1.36248 -2.66584 -3.54752e-007 
0.399852 0.320741 0.1 1.24012 -2.72492 -3.3594e-007 
0.372594 0.309797 -0.1 0.999701 -2.82306 -2.98194e-007 
0.372594 0.309797 0.1 0.881639 -2.86213 -2.79258e-007 
0.341898 0.301718 -0.1 0.653872 -2.92359 -2.4212e-007 
0.341898 0.301718 0.1 0.544167 -2.94598 -2.23919e-007 
0.307716 0.296715 -0.1 0.335066 -2.97788 -1.88752e-007 
0.307716 0.296715 0.1 0.23567 -2.98739 -1.71789e-007 
0.27 0.295 -0.1 0.0908492 -2.99794 -1.46928e-007 
0.27 0.295 0.1 0.0454246 -2.99897 -1.39031e-007 
0.168 0.295 -0.1 1 -2 -2.62269e-007 
0.168 0.295 0.1 2 -1 -3.93403e-007 
0.168 4.37114e-009 -0.1 2 -1 -3.93403e-007 
0.168 -4.37114e-009 0.1 1 -2 -2.62269e-007 
0.07 4.37114e-009 -0.1 -1 -2 8.74228e-008 
0.07 -4.37114e-009 0.1 -2 -1 3.0598e-007 
0.07 0.682 -0.1 -2 1 3.93403e-007 
0.07 0.682 0.1 -1 2 2.62269e-007 
0.283 0.682 -0.1 0.0503712 2.99873 1.22271e-007 
0.283 0.682 0.1 0.100742 2.99746 1.13409e-007 
0.279 0.383 -0.1 -0.0455572 2.99896 1.39055e-007 
0.279 0.383 0.1 -0.0911143 2.99792 1.46974e-007 
0.296696 0.383807 -0.1 -0.234538 2.98759 1.71599e-007 
0.296696 0.383807 0.1 -0.332404 2.97828 1.88305e-007 
0.313236 0.386204 -0.1 -0.53677 2.94759 2.22695e-007 
0.313236 0.386204 0.1 -0.643271 2.92619 2.40381e-007 
0.328547 0.390156 -0.1 -0.863798 2.86795 2.76394e-007 
0.328547 0.390156 0.1 -0.977825 2.8311 2.9472e-007 
0.342556 0.39563 -0.1 -1.2104 2.73873 3.31347e-007 
0.342556 0.39563 0.1 -1.32894 2.68321 3.49647e-007 
0.355189 0.402589 -0.1 -1.56598 2.55106 3.85314e-007 
0.355189 0.402589 0.1 -1.68446 2.47442 4.02681e-007 
0.366375 0.411 -0.1 -1.91496 2.29969 4.35345e-007 
0.366375 0.411 0.1 -2.02697 2.2016 4.50642e-007 
0.37604 0.420828 -0.1 -2.2375 1.98667 4.78057e-007 
0.37604 0.420828 0.1 -2.33603 1.86983 4.90177e-007 
0.384111 0.432037 -0.1 -2.51384 1.62304 5.10479e-007 
0.384111 0.432037 0.1 -2.59313 1.49309 5.18663e-007 
0.390516 0.444594 -0.1 -2.72943 1.22757 5.30888e-007 
0.390516 0.444594 0.1 -2.78645 1.092 5.34931e-007 
0.395181 0.458463 -0.1 -2.87837 0.822654 5.39229e-007 
0.395181 0.458463 0.1 -2.91328 0.688881 5.39486e-007 
0.398033 0.47361 -0.1 -2.96373 0.428969 5.36945e-007 
0.398033 0.47361 0.1 -2.97926 0.30283 5.34147e-007 
0.399 0.49 -0.1 -2.99545 0.0713899 5.26862e-007 
0.399 0.49 0.1 -2.99611 -0.0339105 5.22374e-007 
0.398417 0.50255 -0.1 -2.98733 -0.237415 5.11944e-007 
0.398417 0.50255 0.1 -2.9779 -0.33562 5.06002e-007 
0.396588 0.515065 -0.1 -2.94671 -0.541179 4.91564e-007 
0.396588 0.515065 0.1 -2.92496 -0.648533 4.83068e-007 
0.393391 0.527344 -0.1 -2.86528 -0.87197 4.62867e-007 
0.393391 0.527344 0.1 -2.82735 -0.988052 4.51161e-007 
0.388704 0.539185 -0.1 -2.73131 -1.22613 4.23962e-007 
0.388704 0.539185 0.1 -2.6732 -1.34813 4.08469e-007 
0.382406 0.550388 -0.1 -2.53379 -1.59268 3.73404e-007 
0.382406 0.550388 0.1 -2.4525 -1.71523 3.53833e-007 
0.374375 0.56075 -0.1 -2.26684 -1.95274 3.1099e-007 
0.374375 0.56075 0.1 -2.16249 -2.06771 2.87719e-007 
0.36449 0.570071 -0.1 -1.93498 -2.28165 2.38589e-007 
0.36449 0.570071 0.1 -1.81183 -2.38062 2.1273e-007 
0.35263 0.578148 -0.1 -1.555 -2.55626 1.60147e-007 
0.35263 0.578148 0.1 -1.42132 -2.63294 1.33422e-007 
0.338672 0.584781 -0.1 -1.15308 -2.76201 8.08791e-008 
0.338672 0.584781 0.1 -1.01851 -2.81441 5.50604e-008 
0.322495 0.589769 -0.1 -0.756497 -2.89713 5.63237e-009 
0.322495 0.589769 0.1 -0.62904 -2.92745 -1.79782e-008 
0.303979 0.592909 -0.1 -0.386323 -2.9705 -6.22977e-008 
0.303979 0.592909 0.1 -0.271063 -2.98322 -8.30069e-008 
0.283 0.594 -0.1 -0.103869 -2.9973 -1.12855e-007 
0.283 0.594 0.1 -0.0519343 -2.99865 -1.21995e-007 
0.168 0.594 -0.1 1 -2 -2.62269e-007 
0.168 0.594 0.1 2 -1 -3.93403e-007 
0.168 0.383 -0.1 2 1 -3.0598e-007 
0.168 0.383 0.1 1 2 -8.74228e-008 
3 26 54 27 
3 54 28 27 
3 54 0 28 
3 54 1 0 
3 54 2 1 
3 54 3 2 
3 54 4 3 
3 54 5 4 
3 54 6 5 
3 54 53 6 
3 53 7 6 
3 26 55 54 
3 52 7 53 
3 51 7 52 
3 50 7 51 
3 50 8 7 
3 49 8 50 
3 48 8 49 
3 47 8 48 
3 47 9 8 
3 46 9 47 
3 45 9 46 
3 44 9 45 
3 44 10 9 
3 43 10 44 
3 42 10 43 
3 42 11 10 
3 41 11 42 
3 40 11 41 
3 40 12 11 
3 39 12 40 
3 39 13 12 
3 38 13 39 
3 37 13 38 
3 37 14 13 
3 36 14 37 
3 35 14 36 
3 35 15 14 
3 34 15 35 
3 33 15 34 
3 32 15 33 
3 31 15 32 
3 31 16 15 
3 30 16 31 
3 29 16 30 
3 26 24 55 
3 24 29 55 
3 24 16 29 
3 24 17 16 
3 24 18 17 
3 24 19 18 
3 24 20 19 
3 24 21 20 
3 24 22 21 
3 24 23 22 
3 26 25 24 
3 110 82 83 
3 84 110 83 
3 56 110 84 
3 57 110 56 
3 58 110 57 
3 59 110 58 
3 60 110 59 
3 61 110 60 
3 62 110 61 
3 109 110 62 
3 63 109 62 
3 111 82 110 
3 63 108 109 
3 63 107 108 
3 63 106 107 
3 64 106 63 
3 64 105 106 
3 64 104 105 
3 64 103 104 
3 65 103 64 
3 65 102 103 
3 65 101 102 
3 65 100 101 
3 66 100 65 
3 66 99 100 
3 66 98 99 
3 67 98 66 
3 67 97 98 
3 67 96 97 
3 68 96 67 
3 68 95 96 
3 69 95 68 
3 69 94 95 
3 69 93 94 
3 70 93 69 
3 70 92 93 
3 70 91 92 
3 71 91 70 
3 71 90 91 
3 71 89 90 
3 71 88 89 
3 71 87 88 
3 72 87 71 
3 72 86 87 
3 72 85 86 
3 80 82 111 
3 85 80 111 
3 72 80 85 
3 73 80 72 
3 74 80 73 
3 75 80 74 
3 76 80 75 
3 77 80 76 
3 78 80 77 
3 79 80 78 
3 81 82 80 
3 113 115 114 
3 113 114 112 
3 115 117 116 
3 115 116 114 
3 117 119 118 
3 117 118 116 
3 119 121 120 
3 119 120 118 
3 121 123 122 
3 121 122 120 
3 123 125 124 
3 123 124 122 
3 125 127 126 
3 125 126 124 
3 127 129 128 
3 127 128 126 
3 129 131 130 
3 129 130 128 
3 131 133 132 
3 131 132 130 
3 133 135 134 
3 133 134 132 
3 135 137 136 
3 135 136 134 
3 137 139 138 
3 137 138 136 
3 139 141 140 
3 139 140 138 
3 141 143 142 
3 141 142 140 
3 143 145 144 
3 143 144 142 
3 145 147 146 
3 145 146 144 
3 147 149 148 
3 147 148 146 
3 149 151 150 
3 149 150 148 
3 151 153 152 
3 151 152 150 
3 153 155 154 
3 153 154 152 
3 155 157 156 
3 155 156 154 
3 157 159 158 
3 157 158 156 
3 159 161 160 
3 159 160 158 
3 161 163 162 
3 161 162 160 
3 163 165 164 
3 163 164 162 
3 165 167 166 
3 165 166 164 
3 167 169 168 
3 167 168 166 
3 169 113 112 
3 169 112 168 
3 171 173 172 
3 171 172 170 
3 173 175 174 
3 173 174 172 
3 175 177 176 
3 175 176 174 
3 177 179 178 
3 177 178 176 
3 179 181 180 
3 179 180 178 
3 181 183 182 
3 181 182 180 
3 183 185 184 
3 183 184 182 
3 185 187 186 
3 185 186 184 
3 187 189 188 
3 187 188 186 
3 189 191 190 
3 189 190 188 
3 191 193 192 
3 191 192 190 
3 193 195 194 
3 193 194 192 
3 195 197 196 
3 195 196 194 
3 197 199 198 
3 197 198 196 
3 199 201 200 
3 199 200 198 
3 201 203 202 
3 201 202 200 
3 203 205 204 
3 203 204 202 
3 205 207 206 
3 205 206 204 
3 207 209 208 
3 207 208 206 
3 209 211 210 
3 209 210 208 
3 211 213 212 
3 211 212 210 
3 213 215 214 
3 213 214 212 
3 215 217 216 
3 215 216 214 
3 217 219 218 
3 217 218 216 
3 219 221 220 
3 219 220 218 
3 221 223 222 
3 221 222 220 
3 223 171 170 
3 223 170 222 
