ply
format ascii 1.0
comment VCGLIB generated
element vertex 40
property float x
property float y
property float z
property float nx
property float ny
property float nz
element face 36
property list uchar int vertex_indices
end_header
0.174 0.594 0.1 2.4618e-008 -6.15448e-009 0.140798 
0.174 0.405 0.1 8.83914e-009 -2.20979e-009 0.050554 
0.44 0.405 0.1 8.18556e-009 -2.04639e-009 0.046816 
0.44 0.317 0.1 4.09278e-009 -1.0232e-009 0.023408 
0.174 0.317 0.1 1.51252e-008 -3.7813e-009 0.086506 
0.174 -4.37114e-009 0.1 5.43176e-009 -1.35794e-009 0.031066 
0.076 -4.37114e-009 0.1 2.1864e-008 -5.46602e-009 0.125048 
0.076 0.682 0.1 1.72866e-008 -4.32166e-009 0.098868 
0.44 0.682 0.1 9.69344e-009 -2.42336e-009 0.05544 
0.44 0.594 0.1 4.09278e-009 -1.0232e-009 0.023408 
0.174 0.594 -0.1 -2.4618e-008 6.15448e-009 -0.140798 
0.174 0.405 -0.1 -8.83914e-009 2.20979e-009 -0.050554 
0.44 0.405 -0.1 -8.18556e-009 2.04639e-009 -0.046816 
0.44 0.317 -0.1 -4.09278e-009 1.0232e-009 -0.023408 
0.174 0.317 -0.1 -1.51252e-008 3.7813e-009 -0.086506 
0.174 4.37114e-009 -0.1 -5.43176e-009 1.35794e-009 -0.031066 
0.076 4.37114e-009 -0.1 -2.1864e-008 5.46602e-009 -0.125048 
0.076 0.682 -0.1 -1.72866e-008 4.32166e-009 -0.098868 
0.44 0.682 -0.1 -9.69344e-009 2.42336e-009 -0.05544 
0.44 0.594 -0.1 -4.09278e-009 1.0232e-009 -0.023408 
0.174 0.594 -0.1 1 -2 -2.62269e-007 
0.174 0.594 0.1 2 -1 -3.93403e-007 
0.174 0.405 -0.1 2 1 -3.0598e-007 
0.174 0.405 0.1 1 2 -8.74228e-008 
0.44 0.405 -0.1 1 2 -8.74228e-008 
0.44 0.405 0.1 2 1 -3.0598e-007 
0.44 0.317 -0.1 2 -1 -3.93403e-007 
0.44 0.317 0.1 1 -2 -2.62269e-007 
0.174 0.317 -0.1 1 -2 -2.62269e-007 
0.174 0.317 0.1 2 -1 -3.93403e-007 
0.174 4.37114e-009 -0.1 2 -1 -3.93403e-007 
0.174 -4.37114e-009 0.1 1 -2 -2.62269e-007 
0.076 4.37114e-009 -0.1 -1 -2 8.74228e-008 
0.076 -4.37114e-009 0.1 -2 -1 3.0598e-007 
0.076 0.682 -0.1 -2 1 3.93403e-007 
0.076 0.682 0.1 -1 2 2.62269e-007 
0.44 0.682 -0.1 1 2 -8.74228e-008 
0.44 0.682 0.1 2 1 -3.0598e-007 
0.44 0.594 -0.1 2 -1 -3.93403e-007 
0.44 0.594 0.1 1 -2 -2.62269e-007 
3 6 0 7 
3 0 8 7 
3 0 9 8 
3 6 1 0 
3 6 4 1 
3 4 2 1 
3 4 3 2 
3 6 5 4 
3 10 16 17 
3 18 10 17 
3 19 10 18 
3 11 16 10 
3 14 16 11 
3 12 14 11 
3 13 14 12 
3 15 16 14 
3 21 23 22 
3 21 22 20 
3 23 25 24 
3 23 24 22 
3 25 27 26 
3 25 26 24 
3 27 29 28 
3 27 28 26 
3 29 31 30 
3 29 30 28 
3 31 33 32 
3 31 32 30 
3 33 35 34 
3 33 34 32 
3 35 37 36 
3 35 36 34 
3 37 39 38 
3 37 38 36 
3 39 21 20 
3 39 20 38 
