ply
format ascii 1.0
comment VCGLIB generated
element vertex 536
property float x
property float y
property float z
property float nx
property float ny
property float nz
element face 532
property list uchar int vertex_indices
end_header
0.311569 0.340857 0.1 3.7857e-010 -9.46426e-011 0.00216517 
0.299301 0.34794 0.1 3.68767e-010 -9.21919e-011 0.0021091 
0.287234 0.354266 0.1 3.55374e-010 -8.88434e-011 0.0020325 
0.275407 0.359852 0.1 3.3871e-010 -8.46775e-011 0.00193719 
0.263858 0.364716 0.1 3.1908e-010 -7.977e-011 0.00182492 
0.252625 0.368875 0.1 2.96756e-010 -7.41892e-011 0.00169725 
0.241746 0.372347 0.1 2.71972e-010 -6.7993e-011 0.0015555 
0.231259 0.375148 0.1 2.04616e-009 -5.11539e-010 0.0117027 
0.221203 0.377297 0.1 3.14828e-011 -7.8707e-012 0.000180061 
0.211616 0.37881 0.1 4.08676e-010 -1.02169e-010 0.00233735 
0.202535 0.379705 0.1 3.95952e-010 -9.89881e-011 0.00226458 
0.194 0.38 0.1 2.2793e-011 -5.69825e-012 0.000130361 
0.185277 0.379652 0.1 3.98618e-010 -9.96544e-011 0.00227983 
0.17713 0.37863 0.1 4.04872e-011 -1.01218e-011 0.00023156 
0.169594 0.376969 0.1 6.89968e-011 -1.72492e-011 0.000394616 
0.162704 0.374704 0.1 9.41392e-011 -2.35348e-011 0.000538413 
0.156494 0.371869 0.1 1.16008e-010 -2.9002e-011 0.000663489 
0.151 0.3685 0.1 4.29824e-010 -1.07456e-010 0.00245831 
0.146256 0.364631 0.1 1.29346e-010 -3.23365e-011 0.000739773 
0.142296 0.360296 0.1 1.47138e-010 -3.67846e-011 0.000841533 
0.139156 0.355531 0.1 1.61969e-010 -4.04924e-011 0.000926357 
0.13687 0.35037 0.1 4.65708e-010 -1.16427e-010 0.00266354 
0.135473 0.344848 0.1 1.78955e-010 -4.47387e-011 0.0010235 
0.135 0.339 0.1 1.74183e-010 -4.35458e-011 0.000996212 
0.135636 0.333906 0.1 6.26692e-010 -1.56673e-010 0.00358426 
0.137588 0.328583 0.1 1.90536e-010 -4.76341e-011 0.00108974 
0.140922 0.322969 0.1 2.0985e-010 -5.24625e-011 0.0012002 
0.145704 0.317 0.1 2.29128e-010 -5.72819e-011 0.00131046 
0.151999 0.310615 0.1 2.48307e-010 -6.20769e-011 0.00142015 
0.159875 0.30375 0.1 7.79864e-010 -1.94966e-010 0.0044603 
0.169396 0.296344 0.1 3.47078e-010 -8.67694e-011 0.00198505 
0.18063 0.288333 0.1 3.78882e-010 -9.47204e-011 0.00216695 
0.193641 0.279656 0.1 9.57309e-010 -2.39327e-010 0.00547517 
0.208495 0.27025 0.1 5.0846e-010 -1.27115e-010 0.00290805 
0.22526 0.260052 0.1 5.52356e-010 -1.38089e-010 0.00315911 
0.244 0.249 0.1 1.15862e-009 -2.89656e-010 0.00662655 
0.261532 0.237106 0.1 1.14144e-009 -2.85359e-010 0.00652825 
0.277176 0.225847 0.1 6.12202e-010 -1.53051e-010 0.00350139 
0.291 0.215109 0.1 1.0198e-009 -2.5495e-010 0.00583257 
0.303074 0.204778 0.1 9.25633e-010 -2.31408e-010 0.005294 
0.313468 0.194738 0.1 4.94843e-010 -1.23711e-010 0.00283017 
0.32225 0.184875 0.1 8.05044e-010 -2.01261e-010 0.00460431 
0.329491 0.175075 0.1 7.26443e-010 -1.81611e-010 0.00415477 
0.335259 0.165222 0.1 4.00474e-010 -1.00118e-010 0.00229044 
0.339625 0.155203 0.1 6.4892e-010 -1.6223e-010 0.00371139 
0.342657 0.144903 0.1 6.1164e-010 -1.5291e-010 0.00349817 
0.344426 0.134207 0.1 6.02072e-010 -1.50518e-010 0.00344345 
0.345 0.123 0.1 4.83317e-010 -1.20829e-010 0.00276425 
0.343711 0.103807 0.1 9.41407e-010 -2.35352e-010 0.00538422 
0.33994 0.085792 0.1 8.77118e-010 -2.19279e-010 0.00501653 
0.333828 0.069047 0.1 1.02395e-009 -2.55988e-010 0.00585632 
0.325519 0.053667 0.1 2.32913e-009 -5.82282e-010 0.0133211 
0.315153 0.039745 0.1 1.22963e-009 -3.07407e-010 0.00703265 
0.302875 0.027375 0.1 1.34864e-009 -3.37159e-010 0.0077133 
0.288826 0.016651 0.1 1.2236e-009 -3.05899e-010 0.00699816 
0.273148 0.007667 0.1 7.9237e-010 -1.98093e-010 0.00453183 
0.255984 0.000515996 0.1 4.03927e-010 -1.00982e-010 0.00231019 
0.237477 -0.004708 0.1 2.62118e-010 -6.55295e-011 0.00149914 
0.217768 -0.00791101 0.1 8.59805e-011 -2.14951e-011 0.000491751 
0.197 -0.009 0.1 9.6989e-012 -2.42473e-012 5.54713e-005 
0.183484 -0.008766 0.1 1.16517e-012 -2.91293e-013 6.66402e-006 
0.170375 -0.008046 0.1 2.02264e-011 -5.05661e-012 0.000115682 
0.157578 -0.006812 0.1 2.67907e-011 -6.69766e-012 0.000153225 
0.145 -0.005037 0.1 1.05552e-010 -2.63881e-011 0.000603689 
0.132547 -0.002692 0.1 8.823e-011 -2.20575e-011 0.000504617 
0.120125 0.000249996 0.1 2.58142e-010 -6.45353e-011 0.0014764 
0.107641 0.003817 0.1 4.11324e-010 -1.02831e-010 0.0023525 
0.095 0.008037 0.1 2.82452e-010 -7.06132e-011 0.00161544 
0.082109 0.012938 0.1 6.77644e-010 -1.69411e-010 0.00387567 
0.068875 0.018546 0.1 4.50768e-010 -1.12692e-010 0.00257809 
0.055203 0.024891 0.1 1.0118e-009 -2.52949e-010 0.0057868 
0.041 0.032 0.1 4.8926e-009 -1.22315e-009 0.0279824 
0.041 0.128 0.1 2.41522e-010 -6.03805e-011 0.00138134 
0.055389 0.118436 0.1 4.77079e-010 -1.1927e-010 0.00272857 
0.069528 0.109741 0.1 4.62856e-010 -1.15714e-010 0.00264723 
0.083375 0.101906 0.1 4.44192e-010 -1.11048e-010 0.00254048 
0.096889 0.094926 0.1 4.21384e-010 -1.05346e-010 0.00241004 
0.110028 0.088793 0.1 3.94703e-010 -9.86757e-011 0.00225744 
0.12275 0.0835 0.1 3.6438e-010 -9.10948e-011 0.00208401 
0.135014 0.079041 0.1 3.3066e-010 -8.26651e-011 0.00189116 
0.146778 0.075407 0.1 2.93688e-010 -7.34222e-011 0.0016797 
0.158 0.072594 0.1 2.53642e-010 -6.34105e-011 0.00145066 
0.168639 0.070593 0.1 2.1071e-010 -5.26776e-011 0.00120512 
0.178653 0.069397 0.1 1.64936e-010 -4.1234e-011 0.000943325 
0.188 0.069 0.1 1.76715e-009 -4.41788e-010 0.0101069 
0.196861 0.069813 0.1 5.62122e-011 -1.4053e-011 0.000321496 
0.205389 0.07125 0.1 8.50086e-011 -2.12521e-011 0.000486192 
0.2135 0.073313 0.1 1.11661e-010 -2.79153e-011 0.000638628 
0.221111 0.076 0.1 1.36045e-010 -3.40113e-011 0.000778088 
0.228139 0.079313 0.1 1.58007e-010 -3.95019e-011 0.000903697 
0.2345 0.08325 0.1 4.7177e-010 -1.17943e-010 0.00269821 
0.240111 0.087812 0.1 1.73852e-010 -4.34631e-011 0.000994319 
0.244889 0.093 0.1 1.93699e-010 -4.84248e-011 0.00110783 
0.24875 0.098812 0.1 5.0167e-010 -1.25418e-010 0.00286922 
0.251611 0.10525 0.1 2.18581e-010 -5.46452e-011 0.00125014 
0.253389 0.112313 0.1 2.3649e-010 -5.91227e-011 0.00135257 
0.254 0.12 0.1 8.52476e-010 -2.13119e-010 0.00487559 
0.249868 0.134964 0.1 6.73054e-010 -1.68263e-010 0.00384942 
0.238444 0.149125 0.1 6.9691e-010 -1.74227e-010 0.00398586 
0.221188 0.162891 0.1 9.69296e-010 -2.42324e-010 0.00554373 
0.199556 0.176667 0.1 8.6726e-010 -2.16815e-010 0.00496015 
0.175007 0.190859 0.1 1.23406e-009 -3.08514e-010 0.00705799 
0.149 0.205875 0.1 1.12084e-009 -2.80211e-010 0.00641048 
0.122993 0.22212 0.1 1.55495e-009 -3.88738e-010 0.0088933 
0.098444 0.24 0.1 1.36877e-009 -3.42192e-010 0.00782845 
0.076813 0.259922 0.1 1.85329e-009 -4.63322e-010 0.0105996 
0.059556 0.282292 0.1 1.5463e-009 -3.86574e-010 0.00884379 
0.048132 0.307516 0.1 1.48876e-009 -3.72191e-010 0.00851474 
0.044 0.336 0.1 1.01043e-009 -2.52607e-010 0.00577898 
0.045193 0.354366 0.1 8.93452e-010 -2.23363e-010 0.00510995 
0.048713 0.371426 0.1 8.71174e-010 -2.17794e-010 0.00498254 
0.054469 0.387125 0.1 7.69362e-010 -1.9234e-010 0.00440024 
0.06237 0.401407 0.1 7.66163e-010 -1.91541e-010 0.00438194 
0.072328 0.414218 0.1 2.79513e-009 -6.98782e-010 0.0159863 
0.08425 0.4255 0.1 1.29434e-009 -3.23584e-010 0.00740275 
0.098047 0.435199 0.1 9.05838e-010 -2.26459e-010 0.00518079 
0.11363 0.443259 0.1 5.79134e-010 -1.44784e-010 0.00331226 
0.130906 0.449625 0.1 3.2038e-010 -8.0095e-011 0.00183236 
0.149787 0.454241 0.1 1.35302e-010 -3.38256e-011 0.000773839 
0.170182 0.457051 0.1 2.95422e-011 -7.38554e-012 0.000168962 
0.192 0.458 0.1 2.70354e-012 -6.75887e-013 1.54625e-005 
0.202523 0.457749 0.1 8.25764e-012 -2.06441e-012 4.72282e-005 
0.213097 0.456995 0.1 4.59192e-011 -1.14798e-011 0.000262627 
0.223734 0.455734 0.1 4.47741e-011 -1.11935e-011 0.000256078 
0.234444 0.453963 0.1 1.4449e-010 -3.61225e-011 0.000826387 
0.245238 0.451678 0.1 1.09494e-010 -2.73735e-011 0.000626233 
0.256125 0.448875 0.1 2.95168e-010 -7.37919e-011 0.00168816 
0.267116 0.445552 0.1 2.01303e-010 -5.03257e-011 0.00115132 
0.278222 0.441704 0.1 4.94537e-010 -1.23634e-010 0.00282842 
0.289453 0.437328 0.1 3.19081e-010 -7.97703e-011 0.00182493 
0.300819 0.432421 0.1 7.38981e-010 -1.84745e-010 0.00422648 
0.312332 0.42698 0.1 4.61458e-010 -1.15364e-010 0.00263923 
0.324 0.421 0.1 3.9565e-009 -9.89123e-010 0.0226285 
0.324 0.333 0.1 1.91269e-010 -4.78171e-011 0.00109393 
0.311569 0.340857 -0.1 -3.7857e-010 9.46426e-011 -0.00216517 
0.299301 0.34794 -0.1 -3.68767e-010 9.21919e-011 -0.0021091 
0.287234 0.354266 -0.1 -3.55374e-010 8.88434e-011 -0.0020325 
0.275407 0.359852 -0.1 -3.3871e-010 8.46775e-011 -0.00193719 
0.263858 0.364716 -0.1 -3.1908e-010 7.977e-011 -0.00182492 
0.252625 0.368875 -0.1 -2.96756e-010 7.41892e-011 -0.00169725 
0.241746 0.372347 -0.1 -2.71972e-010 6.7993e-011 -0.0015555 
0.231259 0.375148 -0.1 -2.04616e-009 5.11539e-010 -0.0117027 
0.221203 0.377297 -0.1 -3.14828e-011 7.8707e-012 -0.000180061 
0.211616 0.37881 -0.1 -4.08676e-010 1.02169e-010 -0.00233735 
0.202535 0.379705 -0.1 -3.95952e-010 9.89881e-011 -0.00226458 
0.194 0.38 -0.1 -2.2793e-011 5.69825e-012 -0.000130361 
0.185277 0.379652 -0.1 -3.98618e-010 9.96544e-011 -0.00227983 
0.17713 0.37863 -0.1 -4.04872e-011 1.01218e-011 -0.00023156 
0.169594 0.376969 -0.1 -6.89969e-011 1.72492e-011 -0.000394616 
0.162704 0.374704 -0.1 -9.41392e-011 2.35348e-011 -0.000538413 
0.156494 0.371869 -0.1 -1.16008e-010 2.9002e-011 -0.000663489 
0.151 0.3685 -0.1 -4.29824e-010 1.07456e-010 -0.00245831 
0.146256 0.364631 -0.1 -1.29346e-010 3.23365e-011 -0.000739773 
0.142296 0.360296 -0.1 -1.47138e-010 3.67846e-011 -0.000841533 
0.139156 0.355531 -0.1 -1.61969e-010 4.04924e-011 -0.000926357 
0.13687 0.35037 -0.1 -4.65708e-010 1.16427e-010 -0.00266354 
0.135473 0.344848 -0.1 -1.78955e-010 4.47387e-011 -0.0010235 
0.135 0.339 -0.1 -1.74183e-010 4.35458e-011 -0.000996212 
0.135636 0.333906 -0.1 -6.26692e-010 1.56673e-010 -0.00358426 
0.137588 0.328583 -0.1 -1.90536e-010 4.76341e-011 -0.00108974 
0.140922 0.322969 -0.1 -2.0985e-010 5.24625e-011 -0.0012002 
0.145704 0.317 -0.1 -2.29128e-010 5.72819e-011 -0.00131046 
0.151999 0.310615 -0.1 -2.48307e-010 6.20769e-011 -0.00142015 
0.159875 0.30375 -0.1 -7.79864e-010 1.94966e-010 -0.0044603 
0.169396 0.296344 -0.1 -3.47078e-010 8.67694e-011 -0.00198505 
0.18063 0.288333 -0.1 -3.78882e-010 9.47204e-011 -0.00216695 
0.193641 0.279656 -0.1 -9.57309e-010 2.39327e-010 -0.00547517 
0.208495 0.27025 -0.1 -5.0846e-010 1.27115e-010 -0.00290805 
0.22526 0.260052 -0.1 -5.52356e-010 1.38089e-010 -0.00315911 
0.244 0.249 -0.1 -1.15862e-009 2.89656e-010 -0.00662655 
0.261532 0.237106 -0.1 -1.14144e-009 2.85359e-010 -0.00652825 
0.277176 0.225847 -0.1 -6.12202e-010 1.53051e-010 -0.00350139 
0.291 0.215109 -0.1 -1.0198e-009 2.5495e-010 -0.00583257 
0.303074 0.204778 -0.1 -9.25633e-010 2.31408e-010 -0.005294 
0.313468 0.194738 -0.1 -4.94843e-010 1.23711e-010 -0.00283017 
0.32225 0.184875 -0.1 -8.05044e-010 2.01261e-010 -0.00460431 
0.329491 0.175075 -0.1 -7.26443e-010 1.81611e-010 -0.00415477 
0.335259 0.165222 -0.1 -4.00474e-010 1.00118e-010 -0.00229044 
0.339625 0.155203 -0.1 -6.4892e-010 1.6223e-010 -0.00371139 
0.342657 0.144903 -0.1 -6.1164e-010 1.5291e-010 -0.00349817 
0.344426 0.134207 -0.1 -6.02072e-010 1.50518e-010 -0.00344345 
0.345 0.123 -0.1 -4.83317e-010 1.20829e-010 -0.00276425 
0.343711 0.103807 -0.1 -9.41407e-010 2.35352e-010 -0.00538422 
0.33994 0.085792 -0.1 -8.77118e-010 2.19279e-010 -0.00501653 
0.333828 0.069047 -0.1 -1.02395e-009 2.55988e-010 -0.00585632 
0.325519 0.053667 -0.1 -2.32913e-009 5.82282e-010 -0.0133211 
0.315153 0.039745 -0.1 -1.22963e-009 3.07407e-010 -0.00703265 
0.302875 0.027375 -0.1 -1.34864e-009 3.37159e-010 -0.0077133 
0.288826 0.016651 -0.1 -1.2236e-009 3.05899e-010 -0.00699816 
0.273148 0.007667 -0.1 -7.9237e-010 1.98093e-010 -0.00453183 
0.255984 0.000516004 -0.1 -4.03927e-010 1.00982e-010 -0.00231019 
0.237477 -0.004708 -0.1 -2.62118e-010 6.55295e-011 -0.00149914 
0.217768 -0.007911 -0.1 -8.59805e-011 2.14951e-011 -0.000491751 
0.197 -0.00899999 -0.1 -9.6989e-012 2.42473e-012 -5.54713e-005 
0.183484 -0.008766 -0.1 -1.16517e-012 2.91293e-013 -6.66402e-006 
0.170375 -0.008046 -0.1 -2.02264e-011 5.05661e-012 -0.000115682 
0.157578 -0.006812 -0.1 -2.67907e-011 6.69766e-012 -0.000153225 
0.145 -0.005037 -0.1 -1.05552e-010 2.63881e-011 -0.000603689 
0.132547 -0.002692 -0.1 -8.823e-011 2.20575e-011 -0.000504617 
0.120125 0.000250004 -0.1 -2.58142e-010 6.45353e-011 -0.0014764 
0.107641 0.003817 -0.1 -4.11324e-010 1.02831e-010 -0.0023525 
0.095 0.008037 -0.1 -2.82452e-010 7.06132e-011 -0.00161544 
0.082109 0.012938 -0.1 -6.77644e-010 1.69411e-010 -0.00387567 
0.068875 0.018546 -0.1 -4.50768e-010 1.12692e-010 -0.00257809 
0.055203 0.024891 -0.1 -1.0118e-009 2.52949e-010 -0.0057868 
0.041 0.032 -0.1 -4.8926e-009 1.22315e-009 -0.0279824 
0.041 0.128 -0.1 -2.41522e-010 6.03805e-011 -0.00138134 
0.055389 0.118436 -0.1 -4.77079e-010 1.1927e-010 -0.00272857 
0.069528 0.109741 -0.1 -4.62856e-010 1.15714e-010 -0.00264723 
0.083375 0.101906 -0.1 -4.44192e-010 1.11048e-010 -0.00254048 
0.096889 0.094926 -0.1 -4.21384e-010 1.05346e-010 -0.00241004 
0.110028 0.088793 -0.1 -3.94703e-010 9.86757e-011 -0.00225744 
0.12275 0.0835 -0.1 -3.6438e-010 9.10948e-011 -0.00208401 
0.135014 0.079041 -0.1 -3.3066e-010 8.26651e-011 -0.00189116 
0.146778 0.075407 -0.1 -2.93688e-010 7.34222e-011 -0.0016797 
0.158 0.072594 -0.1 -2.53642e-010 6.34105e-011 -0.00145066 
0.168639 0.070593 -0.1 -2.1071e-010 5.26776e-011 -0.00120512 
0.178653 0.069397 -0.1 -1.64936e-010 4.1234e-011 -0.000943324 
0.188 0.069 -0.1 -1.76715e-009 4.41788e-010 -0.0101069 
0.196861 0.069813 -0.1 -5.62122e-011 1.4053e-011 -0.000321496 
0.205389 0.07125 -0.1 -8.50086e-011 2.12521e-011 -0.000486192 
0.2135 0.073313 -0.1 -1.11661e-010 2.79153e-011 -0.000638628 
0.221111 0.076 -0.1 -1.36045e-010 3.40113e-011 -0.000778088 
0.228139 0.079313 -0.1 -1.58007e-010 3.95019e-011 -0.000903697 
0.2345 0.08325 -0.1 -4.7177e-010 1.17943e-010 -0.00269821 
0.240111 0.087812 -0.1 -1.73852e-010 4.34631e-011 -0.000994319 
0.244889 0.093 -0.1 -1.93699e-010 4.84248e-011 -0.00110783 
0.24875 0.098812 -0.1 -5.0167e-010 1.25418e-010 -0.00286922 
0.251611 0.10525 -0.1 -2.18581e-010 5.46452e-011 -0.00125014 
0.253389 0.112313 -0.1 -2.3649e-010 5.91227e-011 -0.00135257 
0.254 0.12 -0.1 -8.52476e-010 2.13119e-010 -0.00487559 
0.249868 0.134964 -0.1 -6.73054e-010 1.68263e-010 -0.00384942 
0.238444 0.149125 -0.1 -6.9691e-010 1.74227e-010 -0.00398586 
0.221188 0.162891 -0.1 -9.69296e-010 2.42324e-010 -0.00554373 
0.199556 0.176667 -0.1 -8.6726e-010 2.16815e-010 -0.00496015 
0.175007 0.190859 -0.1 -1.23406e-009 3.08515e-010 -0.00705799 
0.149 0.205875 -0.1 -1.12084e-009 2.80211e-010 -0.00641048 
0.122993 0.22212 -0.1 -1.55495e-009 3.88738e-010 -0.0088933 
0.098444 0.24 -0.1 -1.36877e-009 3.42192e-010 -0.00782845 
0.076813 0.259922 -0.1 -1.85329e-009 4.63322e-010 -0.0105996 
0.059556 0.282292 -0.1 -1.5463e-009 3.86574e-010 -0.00884379 
0.048132 0.307516 -0.1 -1.48876e-009 3.72191e-010 -0.00851474 
0.044 0.336 -0.1 -1.01043e-009 2.52607e-010 -0.00577898 
0.045193 0.354366 -0.1 -8.93452e-010 2.23363e-010 -0.00510995 
0.048713 0.371426 -0.1 -8.71174e-010 2.17794e-010 -0.00498254 
0.054469 0.387125 -0.1 -7.69362e-010 1.9234e-010 -0.00440024 
0.06237 0.401407 -0.1 -7.66163e-010 1.91541e-010 -0.00438194 
0.072328 0.414218 -0.1 -2.79513e-009 6.98782e-010 -0.0159863 
0.08425 0.4255 -0.1 -1.29434e-009 3.23584e-010 -0.00740275 
0.098047 0.435199 -0.1 -9.05838e-010 2.26459e-010 -0.00518079 
0.11363 0.443259 -0.1 -5.79134e-010 1.44784e-010 -0.00331226 
0.130906 0.449625 -0.1 -3.2038e-010 8.0095e-011 -0.00183236 
0.149787 0.454241 -0.1 -1.35302e-010 3.38256e-011 -0.000773839 
0.170182 0.457051 -0.1 -2.95422e-011 7.38554e-012 -0.000168962 
0.192 0.458 -0.1 -2.70354e-012 6.75887e-013 -1.54625e-005 
0.202523 0.457749 -0.1 -8.25764e-012 2.06441e-012 -4.72282e-005 
0.213097 0.456995 -0.1 -4.59192e-011 1.14798e-011 -0.000262627 
0.223734 0.455734 -0.1 -4.47741e-011 1.11935e-011 -0.000256078 
0.234444 0.453963 -0.1 -1.4449e-010 3.61225e-011 -0.000826387 
0.245238 0.451678 -0.1 -1.09494e-010 2.73735e-011 -0.000626233 
0.256125 0.448875 -0.1 -2.95168e-010 7.37919e-011 -0.00168816 
0.267116 0.445552 -0.1 -2.01303e-010 5.03257e-011 -0.00115132 
0.278222 0.441704 -0.1 -4.94537e-010 1.23634e-010 -0.00282842 
0.289453 0.437328 -0.1 -3.19081e-010 7.97703e-011 -0.00182493 
0.300819 0.432421 -0.1 -7.38981e-010 1.84745e-010 -0.00422648 
0.312332 0.42698 -0.1 -4.61458e-010 1.15364e-010 -0.00263923 
0.324 0.421 -0.1 -3.9565e-009 9.89123e-010 -0.0226285 
0.324 0.333 -0.1 -1.91269e-010 4.78171e-011 -0.00109393 
0.311569 0.340857 -0.1 -1.56856 -2.55664 1.62501e-007 
0.311569 0.340857 0.1 -1.53428 -2.57736 1.55603e-007 
0.299301 0.34794 -0.1 -1.46431 -2.61772 1.41604e-007 
0.299301 0.34794 0.1 -1.42861 -2.63737 1.34503e-007 
0.287234 0.354266 -0.1 -1.35568 -2.67557 1.20082e-007 
0.287234 0.354266 0.1 -1.31845 -2.69411 1.12761e-007 
0.275407 0.359852 -0.1 -1.24228 -2.73004 9.78737e-008 
0.275407 0.359852 0.1 -1.20336 -2.74742 9.03084e-008 
0.263858 0.364716 -0.1 -1.1235 -2.78098 7.48783e-008 
0.263858 0.364716 0.1 -1.08257 -2.79717 6.70144e-008 
0.252625 0.368875 -0.1 -0.998467 -2.82823 5.09516e-008 
0.252625 0.368875 0.1 -0.955291 -2.84311 4.27523e-008 
0.241746 0.372347 -0.1 -0.866124 -2.87145 2.59229e-008 
0.241746 0.372347 0.1 -0.820133 -2.88492 1.72925e-008 
0.231259 0.375148 -0.1 -0.72508 -2.91018 -4.31093e-010 
0.231259 0.375148 0.1 -0.676019 -2.92197 -9.52444e-009 
0.221203 0.377297 -0.1 -0.573857 -2.94361 -2.8333e-008 
0.221203 0.377297 0.1 -0.520757 -2.95347 -3.80482e-008 
0.211616 0.37881 -0.1 -0.409857 -2.97073 -5.81931e-008 
0.211616 0.37881 0.1 -0.352055 -2.97813 -6.8623e-008 
0.202535 0.379705 -0.1 -0.230711 -2.98976 -9.03476e-008 
0.202535 0.379705 0.1 -0.167167 -2.99398 -1.01643e-007 
0.194 0.38 -0.1 -0.029219 -2.99801 -1.25939e-007 
0.194 0.38 0.1 0.045185 -2.99781 -1.38939e-007 
0.185277 0.379652 -0.1 0.204193 -2.99063 -1.66427e-007 
0.185277 0.379652 0.1 0.288797 -2.98365 -1.80914e-007 
0.17713 0.37863 -0.1 0.464177 -2.96101 -2.10589e-007 
0.17713 0.37863 0.1 0.554953 -2.94534 -2.25777e-007 
0.169594 0.376969 -0.1 0.742782 -2.90311 -2.56771e-007 
0.169594 0.376969 0.1 0.839836 -2.87653 -2.72579e-007 
0.162704 0.374704 -0.1 1.03989 -2.80966 -3.04634e-007 
0.162704 0.374704 0.1 1.14288 -2.76936 -3.20881e-007 
0.156494 0.371869 -0.1 1.35334 -2.67186 -3.53416e-007 
0.156494 0.371869 0.1 1.4608 -2.61465 -3.69705e-007 
0.151 0.3685 -0.1 1.67753 -2.47992 -4.01709e-007 
0.151 0.3685 0.1 1.78679 -2.40239 -4.17424e-007 
0.146256 0.364631 -0.1 2.00236 -2.22436 -4.47333e-007 
0.146256 0.364631 0.1 2.10866 -2.12386 -4.61526e-007 
0.142296 0.360296 -0.1 2.31164 -1.89915 -4.87194e-007 
0.142296 0.360296 0.1 2.40833 -1.77494 -4.98671e-007 
0.139156 0.355531 -0.1 2.58433 -1.50547 -5.17665e-007 
0.139156 0.355531 0.1 2.66365 -1.36022 -5.25185e-007 
0.13687 0.35037 -0.1 2.7981 -1.05524 -5.35362e-007 
0.13687 0.35037 0.1 2.85324 -0.89551 -5.3802e-007 
0.135473 0.344848 -0.1 2.93566 -0.571141 -5.38253e-007 
0.135473 0.344848 0.1 2.96295 -0.406497 -5.35827e-007 
0.135 0.339 -0.1 2.98579 -0.0373447 -5.23684e-007 
0.135 0.339 0.1 2.98134 0.167163 -5.13967e-007 
0.135636 0.333906 -0.1 2.92345 0.592071 -4.85272e-007 
0.135636 0.333906 0.1 2.87002 0.812471 -4.66296e-007 
0.137588 0.328583 -0.1 2.73754 1.1992 -4.26227e-007 
0.137588 0.328583 0.1 2.65848 1.36552 -4.05135e-007 
0.140922 0.322969 -0.1 2.50005 1.64647 -3.65153e-007 
0.140922 0.322969 0.1 2.42068 1.76109 -3.46265e-007 
0.145704 0.317 -0.1 2.27298 1.95255 -3.12071e-007 
0.145704 0.317 0.1 2.20465 2.02938 -2.96767e-007 
0.151999 0.310615 -0.1 2.08128 2.15797 -2.69575e-007 
0.151999 0.310615 0.1 2.02624 2.20974 -2.57688e-007 
0.159875 0.30375 -0.1 1.92811 2.29699 -2.36717e-007 
0.159875 0.30375 0.1 1.88503 2.33247 -2.27633e-007 
0.169396 0.296344 -0.1 1.80856 2.39283 -2.11625e-007 
0.169396 0.296344 0.1 1.77518 2.4177 -2.04702e-007 
0.18063 0.288333 -0.1 1.71604 2.46034 -1.92497e-007 
0.18063 0.288333 0.1 1.69027 2.47811 -1.87214e-007 
0.193641 0.279656 -0.1 1.64466 2.50878 -1.77899e-007 
0.193641 0.279656 0.1 1.62481 2.52168 -1.73865e-007 
0.208495 0.27025 -0.1 1.58967 2.54407 -1.66742e-007 
0.208495 0.27025 0.1 1.57438 2.55356 -1.63653e-007 
0.22526 0.260052 -0.1 1.54738 2.57007 -1.58211e-007 
0.22526 0.260052 0.1 1.53568 2.57708 -1.55859e-007 
0.244 0.249 -0.1 1.5774 2.55026 -1.64326e-007 
0.244 0.249 0.1 1.63082 2.51643 -1.75145e-007 
0.261532 0.237106 -0.1 1.70697 2.46672 -1.90633e-007 
0.261532 0.237106 0.1 1.7297 2.45083 -1.95301e-007 
0.277176 0.225847 -0.1 1.78173 2.41304 -2.0605e-007 
0.277176 0.225847 0.1 1.81103 2.39113 -2.12131e-007 
0.291 0.215109 -0.1 1.87702 2.3393 -2.25934e-007 
0.291 0.215109 0.1 1.91371 2.30938 -2.33657e-007 
0.303074 0.204778 -0.1 1.99502 2.23889 -2.50955e-007 
0.303074 0.204778 0.1 2.03964 2.19832 -2.6053e-007 
0.313468 0.194738 -0.1 2.13635 2.10349 -2.81585e-007 
0.313468 0.194738 0.1 2.18845 2.04924 -2.93066e-007 
0.32225 0.184875 -0.1 2.29797 1.92424 -3.17679e-007 
0.32225 0.184875 0.1 2.3554 1.85351 -3.30812e-007 
0.329491 0.175075 -0.1 2.47155 1.69372 -3.58105e-007 
0.329491 0.175075 0.1 2.53027 1.60467 -3.72264e-007 
0.335259 0.165222 -0.1 2.64274 1.4099 -4.00443e-007 
0.335259 0.165222 0.1 2.69647 1.30418 -4.14459e-007 
0.339625 0.155203 -0.1 2.79278 1.08137 -4.41037e-007 
0.339625 0.155203 0.1 2.83534 0.964266 -4.53597e-007 
0.342657 0.144903 -0.1 2.9052 0.727949 -4.76142e-007 
0.342657 0.144903 0.1 2.9325 0.608734 -4.86125e-007 
0.344426 0.134207 -0.1 2.97189 0.377496 -5.03121e-007 
0.344426 0.134207 0.1 2.98398 0.265473 -5.10132e-007 
0.345 0.123 -0.1 2.99513 0.0352912 -5.22143e-007 
0.345 0.123 0.1 2.9942 -0.0828686 -5.27144e-007 
0.343711 0.103807 -0.1 2.97429 -0.338903 -5.34856e-007 
0.343711 0.103807 0.1 2.95532 -0.476777 -5.37565e-007 
0.33994 0.085792 -0.1 2.89695 -0.752646 -5.39418e-007 
0.33994 0.085792 0.1 2.85755 -0.89064 -5.38561e-007 
0.333828 0.069047 -0.1 2.75857 -1.16107 -5.33076e-007 
0.333828 0.069047 0.1 2.69901 -1.29351 -5.28451e-007 
0.325519 0.053667 -0.1 2.56171 -1.54785 -5.15562e-007 
0.325519 0.053667 0.1 2.48398 -1.66974 -5.07299e-007 
0.315153 0.039745 -0.1 2.31391 -1.89889 -4.87579e-007 
0.315153 0.039745 0.1 2.22157 -2.00614 -4.76122e-007 
0.302875 0.027375 -0.1 2.02624 -2.20381 -4.50611e-007 
0.302875 0.027375 0.1 1.92326 -2.29423 -4.36558e-007 
0.288826 0.016651 -0.1 1.7107 -2.45742 -4.06526e-007 
0.288826 0.016651 0.1 1.60113 -2.53017 -3.90548e-007 
0.273148 0.007667 -0.1 1.37896 -2.65838 -3.57307e-007 
0.273148 0.007667 0.1 1.26636 -2.71382 -3.40042e-007 
0.255984 0.000516004 -0.1 1.04083 -2.80857 -3.04751e-007 
0.255984 0.000515996 0.1 0.927898 -2.84788 -2.86723e-007 
0.237477 -0.004708 -0.1 0.703723 -2.91184 -2.50323e-007 
0.237477 -0.004708 0.1 0.592477 -2.9365 -2.3195e-007 
0.217768 -0.007911 -0.1 0.373185 -2.97273 -1.95192e-007 
0.217768 -0.00791101 0.1 0.265139 -2.98431 -1.76806e-007 
0.197 -0.00899999 -0.1 0.0874187 -2.99711 -1.46292e-007 
0.197 -0.009 0.1 0.0177441 -2.99833 -1.34163e-007 
0.183484 -0.008766 -0.1 -0.0894618 -2.9982 -1.15413e-007 
0.183484 -0.008766 0.1 -0.126993 -2.99684 -1.08792e-007 
0.170375 -0.008046 -0.1 -0.205666 -2.99237 -9.48411e-008 
0.170375 -0.008046 0.1 -0.246809 -2.98926 -8.75113e-008 
0.157578 -0.006812 -0.1 -0.331702 -2.98095 -7.23047e-008 
0.157578 -0.006812 0.1 -0.375453 -2.97576 -6.44284e-008 
0.145 -0.005037 -0.1 -0.464525 -2.96311 -4.83013e-008 
0.145 -0.005037 0.1 -0.509846 -2.95565 -4.00511e-008 
0.132547 -0.002692 -0.1 -0.600574 -2.93854 -2.34399e-008 
0.132547 -0.002692 0.1 -0.645981 -2.92889 -1.5079e-008 
0.120125 0.000250004 -0.1 -0.735656 -2.90768 1.52729e-009 
0.120125 0.000249996 0.1 -0.779925 -2.89612 9.7728e-009 
0.107641 0.003817 -0.1 -0.866118 -2.87158 2.59159e-008 
0.107641 0.003817 0.1 -0.908042 -2.8586 3.38137e-008 
0.095 0.008037 -0.1 -0.988682 -2.83181 4.90844e-008 
0.095 0.008037 0.1 -1.0274 -2.81799 5.64578e-008 
0.082109 0.012938 -0.1 -1.10091 -2.79019 7.05263e-008 
0.082109 0.012938 0.1 -1.13571 -2.77621 7.72221e-008 
0.068875 0.018546 -0.1 -1.20131 -2.74856 8.98999e-008 
0.068875 0.018546 0.1 -1.2321 -2.7349 9.58808e-008 
0.055203 0.024891 -0.1 -1.28952 -2.70839 1.07079e-007 
0.055203 0.024891 0.1 -1.31615 -2.69555 1.12296e-007 
0.041 0.032 -0.1 -1.89518 -1.78848 2.53187e-007 
0.041 0.032 0.1 -2.44759 -0.894238 3.88862e-007 
0.041 0.128 -0.1 -1.44645 0.832815 2.89309e-007 
0.041 0.128 0.1 0.107103 1.66563 5.40806e-008 
0.055389 0.118436 -0.1 1.63094 2.51745 -1.75121e-007 
0.055389 0.118436 0.1 1.60123 2.53645 -1.69096e-007 
0.069528 0.109741 -0.1 1.54014 2.57397 -1.56774e-007 
0.069528 0.109741 0.1 1.50876 2.59249 -1.50478e-007 
0.083375 0.101906 -0.1 1.44382 2.62916 -1.37522e-007 
0.083375 0.101906 0.1 1.41027 2.64731 -1.30862e-007 
0.096889 0.094926 -0.1 1.34078 2.68312 -1.17146e-007 
0.096889 0.094926 0.1 1.30484 2.70077 -1.10091e-007 
0.110028 0.088793 -0.1 1.23007 2.73557 -9.54966e-008 
0.110028 0.088793 0.1 1.19123 2.7527 -8.79569e-008 
0.12275 0.0835 -0.1 1.10996 2.78637 -7.22759e-008 
0.12275 0.0835 0.1 1.06753 2.8029 -6.41344e-008 
0.135014 0.079041 -0.1 0.978547 2.83507 -4.71698e-008 
0.135014 0.079041 0.1 0.931994 2.85071 -3.83464e-008 
0.146778 0.075407 -0.1 0.833439 2.88089 -1.97953e-008 
0.146778 0.075407 0.1 0.781438 2.89543 -1.00676e-008 
0.158 0.072594 -0.1 0.671131 2.92275 1.04131e-008 
0.158 0.072594 0.1 0.612827 2.93553 2.11659e-008 
0.168639 0.070593 -0.1 0.488272 2.95848 4.39471e-008 
0.168639 0.070593 0.1 0.42202 2.96866 5.59756e-008 
0.178653 0.069397 -0.1 0.279615 2.98499 8.15883e-008 
0.178653 0.069397 0.1 0.203461 2.99114 9.51729e-008 
0.188 0.069 -0.1 -0.00649505 2.99402 1.32008e-007 
0.188 0.069 0.1 -0.140297 2.99073 1.55259e-007 
0.196861 0.069813 -0.1 -0.348895 2.97773 1.91163e-007 
0.196861 0.069813 0.1 -0.42369 2.96801 2.03816e-007 
0.205389 0.07125 -0.1 -0.578821 2.94134 2.29774e-007 
0.205389 0.07125 0.1 -0.659157 2.92439 2.43079e-007 
0.2135 0.073313 -0.1 -0.825899 2.88125 2.70348e-007 
0.2135 0.073313 0.1 -0.912306 2.85506 2.84311e-007 
0.221111 0.076 -0.1 -1.09221 2.79046 3.12942e-007 
0.221111 0.076 0.1 -1.1857 2.75203 3.27609e-007 
0.228139 0.079313 -0.1 -1.37908 2.65938 3.57371e-007 
0.228139 0.079313 0.1 -1.47896 2.60516 3.72465e-007 
0.2345 0.08325 -0.1 -1.68341 2.47653 4.02589e-007 
0.2345 0.08325 0.1 -1.78798 2.40212 4.1762e-007 
0.240111 0.087812 -0.1 -1.99727 2.22926 4.46658e-007 
0.240111 0.087812 0.1 -2.102 2.13079 4.60665e-007 
0.244889 0.093 -0.1 -2.3041 1.90823 4.86273e-007 
0.244889 0.093 0.1 -2.40148 1.78413 4.97875e-007 
0.24875 0.098812 -0.1 -2.57974 1.51278 5.17182e-007 
0.24875 0.098812 0.1 -2.66061 1.36554 5.24886e-007 
0.251611 0.10525 -0.1 -2.7974 1.05632 5.35286e-007 
0.251611 0.10525 0.1 -2.85332 0.894336 5.37983e-007 
0.253389 0.112313 -0.1 -2.93635 0.567474 5.38213e-007 
0.253389 0.112313 0.1 -2.96346 0.402591 5.35745e-007 
0.254 0.12 -0.1 -2.95764 -0.107697 5.12422e-007 
0.254 0.12 0.1 -2.92471 -0.453101 4.91566e-007 
0.249868 0.134964 -0.1 -2.70616 -1.16022 4.22446e-007 
0.249868 0.134964 0.1 -2.52055 -1.52193 3.74181e-007 
0.238444 0.149125 -0.1 -2.18024 -2.03749 2.92144e-007 
0.238444 0.149125 0.1 -2.02555 -2.19133 2.58373e-007 
0.221188 0.162891 -0.1 -1.7844 -2.40693 2.06784e-007 
0.221188 0.162891 0.1 -1.69794 -2.46869 1.88967e-007 
0.199556 0.176667 -0.1 -1.57481 -2.5527 1.63766e-007 
0.199556 0.176667 0.1 -1.53814 -2.57496 1.56382e-007 
0.175007 0.190859 -0.1 -1.50101 -2.59749 1.48904e-007 
0.175007 0.190859 0.1 -1.50053 -2.59777 1.48809e-007 
0.149 0.205875 -0.1 -1.52982 -2.58016 1.547e-007 
0.149 0.205875 0.1 -1.55958 -2.56228 1.60685e-007 
0.122993 0.22212 -0.1 -1.64829 -2.5046 1.78717e-007 
0.122993 0.22212 0.1 -1.70725 -2.46479 1.90766e-007 
0.098444 0.24 -0.1 -1.85492 -2.35222 2.21506e-007 
0.098444 0.24 0.1 -1.94364 -2.27946 2.40198e-007 
0.076813 0.259922 -0.1 -2.14668 -2.08194 2.84333e-007 
0.076813 0.259922 0.1 -2.26101 -1.95718 3.09777e-007 
0.059556 0.282292 -0.1 -2.49449 -1.63417 3.64718e-007 
0.059556 0.282292 0.1 -2.61364 -1.43593 3.94217e-007 
0.048132 0.307516 -0.1 -2.8115 -0.968685 4.49236e-007 
0.048132 0.307516 0.1 -2.89021 -0.699684 4.74756e-007 
0.044 0.336 -0.1 -2.97718 -0.222302 5.10829e-007 
0.044 0.336 0.1 -2.98544 -0.0139204 5.21382e-007 
0.045193 0.354366 -0.1 -2.97516 0.331715 5.34694e-007 
0.045193 0.354366 0.1 -2.95664 0.468969 5.37455e-007 
0.048713 0.371426 -0.1 -2.89762 0.748387 5.39349e-007 
0.048713 0.371426 0.1 -2.85713 0.890552 5.38484e-007 
0.054469 0.387125 -0.1 -2.75279 1.17255 5.32568e-007 
0.054469 0.387125 0.1 -2.68893 1.31239 5.27514e-007 
0.06237 0.401407 -0.1 -2.53959 1.58186 5.13181e-007 
0.06237 0.401407 0.1 -2.4541 1.71149 5.03899e-007 
0.072328 0.414218 -0.1 -2.26641 1.95375 4.81673e-007 
0.072328 0.414218 0.1 -2.16422 2.06637 4.68728e-007 
0.08425 0.4255 -0.1 -1.94978 2.27075 4.40168e-007 
0.08425 0.4255 0.1 -1.83753 2.36251 4.24553e-007 
0.098047 0.435199 -0.1 -1.60961 2.52439 3.91778e-007 
0.098047 0.435199 0.1 -1.49393 2.59453 3.74618e-007 
0.11363 0.443259 -0.1 -1.26459 2.71477 3.39774e-007 
0.11363 0.443259 0.1 -1.15094 2.76487 3.22092e-007 
0.130906 0.449625 -0.1 -0.929005 2.84804 2.86924e-007 
0.130906 0.449625 0.1 -0.820731 2.88111 2.69439e-007 
0.149787 0.454241 -0.1 -0.61146 2.93342 2.35136e-007 
0.149787 0.454241 0.1 -0.510464 2.95267 2.18318e-007 
0.170182 0.457051 -0.1 -0.316434 2.98034 1.85602e-007 
0.170182 0.457051 0.1 -0.223399 2.98875 1.69703e-007 
0.192 0.458 -0.1 -0.0630645 2.99783 1.42065e-007 
0.192 0.458 0.1 0.00423568 2.99849 1.30328e-007 
0.202523 0.457749 -0.1 0.118817 2.9969 1.10224e-007 
0.202523 0.457749 0.1 0.166098 2.99465 1.01859e-007 
0.213097 0.456995 -0.1 0.259976 2.98798 8.51532e-008 
0.213097 0.456995 0.1 0.306574 2.98356 7.68124e-008 
0.223734 0.455734 -0.1 0.398592 2.97269 6.02486e-008 
0.223734 0.455734 0.1 0.444012 2.96625 5.20254e-008 
0.234444 0.453963 -0.1 0.533391 2.95152 3.57542e-008 
0.234444 0.453963 0.1 0.577349 2.94324 2.77062e-008 
0.245238 0.451678 -0.1 0.663536 2.92506 1.18419e-008 
0.245238 0.451678 0.1 0.705766 2.91516 4.02547e-009 
0.256125 0.448875 -0.1 0.788065 2.89404 -1.1287e-008 
0.256125 0.448875 0.1 0.828136 2.88283 -1.87833e-008 
0.267116 0.445552 -0.1 0.906188 2.85931 -3.34588e-008 
0.267116 0.445552 0.1 0.944171 2.84699 -4.06383e-008 
0.278222 0.441704 -0.1 1.01782 2.82155 -5.46273e-008 
0.278222 0.441704 0.1 1.05348 2.80843 -6.14364e-008 
0.289453 0.437328 -0.1 1.12247 2.78163 -7.46695e-008 
0.289453 0.437328 0.1 1.15578 2.76796 -8.10919e-008 
0.300819 0.432421 -0.1 1.22001 2.7403 -9.35313e-008 
0.300819 0.432421 0.1 1.25093 2.72633 -9.95482e-008 
0.312332 0.42698 -0.1 1.31067 2.69816 -1.11224e-007 
0.312332 0.42698 0.1 1.33948 2.68398 -1.16882e-007 
0.324 0.421 -0.1 1.9122 1.77986 -2.56539e-007 
0.324 0.421 0.1 2.4561 0.889929 -3.90538e-007 
0.324 0.333 -0.1 1.46572 -0.84531 -2.93224e-007 
0.324 0.333 0.1 -0.0685537 -1.69062 -6.1913e-008 
3 119 121 120 
3 119 122 121 
3 118 122 119 
3 118 123 122 
3 118 124 123 
3 117 124 118 
3 117 125 124 
3 117 126 125 
3 116 126 117 
3 116 127 126 
3 116 128 127 
3 115 128 116 
3 115 129 128 
3 115 130 129 
3 114 130 115 
3 114 131 130 
3 114 132 131 
3 113 132 114 
3 113 7 132 
3 7 6 132 
3 6 5 132 
3 5 4 132 
3 4 3 132 
3 3 2 132 
3 2 1 132 
3 1 0 132 
3 0 133 132 
3 112 9 113 
3 9 8 113 
3 8 7 113 
3 111 10 112 
3 10 9 112 
3 110 12 111 
3 12 11 111 
3 11 10 111 
3 110 13 12 
3 110 14 13 
3 110 15 14 
3 110 16 15 
3 110 17 16 
3 109 17 110 
3 109 18 17 
3 109 19 18 
3 109 20 19 
3 109 21 20 
3 108 21 109 
3 108 22 21 
3 108 23 22 
3 108 24 23 
3 107 24 108 
3 107 25 24 
3 107 26 25 
3 107 27 26 
3 107 28 27 
3 107 29 28 
3 106 29 107 
3 106 30 29 
3 106 31 30 
3 106 32 31 
3 105 32 106 
3 105 33 32 
3 105 34 33 
3 105 35 34 
3 104 35 105 
3 104 36 35 
3 103 36 104 
3 103 37 36 
3 103 38 37 
3 102 38 103 
3 102 39 38 
3 101 39 102 
3 101 40 39 
3 101 41 40 
3 100 41 101 
3 100 42 41 
3 99 42 100 
3 99 43 42 
3 99 44 43 
3 98 44 99 
3 98 45 44 
3 97 45 98 
3 97 46 45 
3 96 46 97 
3 96 47 46 
3 71 73 72 
3 96 48 47 
3 95 48 96 
3 71 74 73 
3 94 48 95 
3 71 75 74 
3 93 48 94 
3 93 49 48 
3 71 76 75 
3 92 49 93 
3 71 77 76 
3 91 49 92 
3 71 78 77 
3 90 49 91 
3 90 50 49 
3 71 79 78 
3 89 50 90 
3 88 50 89 
3 71 80 79 
3 87 50 88 
3 71 81 80 
3 86 50 87 
3 71 82 81 
3 85 50 86 
3 71 83 82 
3 84 50 85 
3 71 84 83 
3 84 51 50 
3 71 51 84 
3 71 52 51 
3 71 53 52 
3 70 53 71 
3 70 54 53 
3 69 54 70 
3 68 54 69 
3 68 55 54 
3 67 55 68 
3 66 55 67 
3 66 56 55 
3 65 56 66 
3 65 57 56 
3 64 57 65 
3 63 57 64 
3 63 58 57 
3 62 58 63 
3 61 58 62 
3 61 59 58 
3 60 59 61 
3 255 253 254 
3 256 253 255 
3 256 252 253 
3 257 252 256 
3 258 252 257 
3 258 251 252 
3 259 251 258 
3 260 251 259 
3 260 250 251 
3 261 250 260 
3 262 250 261 
3 262 249 250 
3 263 249 262 
3 264 249 263 
3 264 248 249 
3 265 248 264 
3 266 248 265 
3 266 247 248 
3 141 247 266 
3 140 141 266 
3 139 140 266 
3 138 139 266 
3 137 138 266 
3 136 137 266 
3 135 136 266 
3 134 135 266 
3 267 134 266 
3 143 246 247 
3 142 143 247 
3 141 142 247 
3 144 245 246 
3 143 144 246 
3 146 244 245 
3 145 146 245 
3 144 145 245 
3 147 244 146 
3 148 244 147 
3 149 244 148 
3 150 244 149 
3 151 244 150 
3 151 243 244 
3 152 243 151 
3 153 243 152 
3 154 243 153 
3 155 243 154 
3 155 242 243 
3 156 242 155 
3 157 242 156 
3 158 242 157 
3 158 241 242 
3 159 241 158 
3 160 241 159 
3 161 241 160 
3 162 241 161 
3 163 241 162 
3 163 240 241 
3 164 240 163 
3 165 240 164 
3 166 240 165 
3 166 239 240 
3 167 239 166 
3 168 239 167 
3 169 239 168 
3 169 238 239 
3 170 238 169 
3 170 237 238 
3 171 237 170 
3 172 237 171 
3 172 236 237 
3 173 236 172 
3 173 235 236 
3 174 235 173 
3 175 235 174 
3 175 234 235 
3 176 234 175 
3 176 233 234 
3 177 233 176 
3 178 233 177 
3 178 232 233 
3 179 232 178 
3 179 231 232 
3 180 231 179 
3 180 230 231 
3 181 230 180 
3 207 205 206 
3 182 230 181 
3 182 229 230 
3 208 205 207 
3 182 228 229 
3 209 205 208 
3 182 227 228 
3 183 227 182 
3 210 205 209 
3 183 226 227 
3 211 205 210 
3 183 225 226 
3 212 205 211 
3 183 224 225 
3 184 224 183 
3 213 205 212 
3 184 223 224 
3 184 222 223 
3 214 205 213 
3 184 221 222 
3 215 205 214 
3 184 220 221 
3 216 205 215 
3 184 219 220 
3 217 205 216 
3 184 218 219 
3 218 205 217 
3 185 218 184 
3 185 205 218 
3 186 205 185 
3 187 205 186 
3 187 204 205 
3 188 204 187 
3 188 203 204 
3 188 202 203 
3 189 202 188 
3 189 201 202 
3 189 200 201 
3 190 200 189 
3 190 199 200 
3 191 199 190 
3 191 198 199 
3 191 197 198 
3 192 197 191 
3 192 196 197 
3 192 195 196 
3 193 195 192 
3 193 194 195 
3 269 271 270 
3 269 270 268 
3 271 273 272 
3 271 272 270 
3 273 275 274 
3 273 274 272 
3 275 277 276 
3 275 276 274 
3 277 279 278 
3 277 278 276 
3 279 281 280 
3 279 280 278 
3 281 283 282 
3 281 282 280 
3 283 285 284 
3 283 284 282 
3 285 287 286 
3 285 286 284 
3 287 289 288 
3 287 288 286 
3 289 291 290 
3 289 290 288 
3 291 293 292 
3 291 292 290 
3 293 295 294 
3 293 294 292 
3 295 297 296 
3 295 296 294 
3 297 299 298 
3 297 298 296 
3 299 301 300 
3 299 300 298 
3 301 303 302 
3 301 302 300 
3 303 305 304 
3 303 304 302 
3 305 307 306 
3 305 306 304 
3 307 309 308 
3 307 308 306 
3 309 311 310 
3 309 310 308 
3 311 313 312 
3 311 312 310 
3 313 315 314 
3 313 314 312 
3 315 317 316 
3 315 316 314 
3 317 319 318 
3 317 318 316 
3 319 321 320 
3 319 320 318 
3 321 323 322 
3 321 322 320 
3 323 325 324 
3 323 324 322 
3 325 327 326 
3 325 326 324 
3 327 329 328 
3 327 328 326 
3 329 331 330 
3 329 330 328 
3 331 333 332 
3 331 332 330 
3 333 335 334 
3 333 334 332 
3 335 337 336 
3 335 336 334 
3 337 339 338 
3 337 338 336 
3 339 341 340 
3 339 340 338 
3 341 343 342 
3 341 342 340 
3 343 345 344 
3 343 344 342 
3 345 347 346 
3 345 346 344 
3 347 349 348 
3 347 348 346 
3 349 351 350 
3 349 350 348 
3 351 353 352 
3 351 352 350 
3 353 355 354 
3 353 354 352 
3 355 357 356 
3 355 356 354 
3 357 359 358 
3 357 358 356 
3 359 361 360 
3 359 360 358 
3 361 363 362 
3 361 362 360 
3 363 365 364 
3 363 364 362 
3 365 367 366 
3 365 366 364 
3 367 369 368 
3 367 368 366 
3 369 371 370 
3 369 370 368 
3 371 373 372 
3 371 372 370 
3 373 375 374 
3 373 374 372 
3 375 377 376 
3 375 376 374 
3 377 379 378 
3 377 378 376 
3 379 381 380 
3 379 380 378 
3 381 383 382 
3 381 382 380 
3 383 385 384 
3 383 384 382 
3 385 387 386 
3 385 386 384 
3 387 389 388 
3 387 388 386 
3 389 391 390 
3 389 390 388 
3 391 393 392 
3 391 392 390 
3 393 395 394 
3 393 394 392 
3 395 397 396 
3 395 396 394 
3 397 399 398 
3 397 398 396 
3 399 401 400 
3 399 400 398 
3 401 403 402 
3 401 402 400 
3 403 405 404 
3 403 404 402 
3 405 407 406 
3 405 406 404 
3 407 409 408 
3 407 408 406 
3 409 411 410 
3 409 410 408 
3 411 413 412 
3 411 412 410 
3 413 415 414 
3 413 414 412 
3 415 417 416 
3 415 416 414 
3 417 419 418 
3 417 418 416 
3 419 421 420 
3 419 420 418 
3 421 423 422 
3 421 422 420 
3 423 425 424 
3 423 424 422 
3 425 427 426 
3 425 426 424 
3 427 429 428 
3 427 428 426 
3 429 431 430 
3 429 430 428 
3 431 433 432 
3 431 432 430 
3 433 435 434 
3 433 434 432 
3 435 437 436 
3 435 436 434 
3 437 439 438 
3 437 438 436 
3 439 441 440 
3 439 440 438 
3 441 443 442 
3 441 442 440 
3 443 445 444 
3 443 444 442 
3 445 447 446 
3 445 446 444 
3 447 449 448 
3 447 448 446 
3 449 451 450 
3 449 450 448 
3 451 453 452 
3 451 452 450 
3 453 455 454 
3 453 454 452 
3 455 457 456 
3 455 456 454 
3 457 459 458 
3 457 458 456 
3 459 461 460 
3 459 460 458 
3 461 463 462 
3 461 462 460 
3 463 465 464 
3 463 464 462 
3 465 467 466 
3 465 466 464 
3 467 469 468 
3 467 468 466 
3 469 471 470 
3 469 470 468 
3 471 473 472 
3 471 472 470 
3 473 475 474 
3 473 474 472 
3 475 477 476 
3 475 476 474 
3 477 479 478 
3 477 478 476 
3 479 481 480 
3 479 480 478 
3 481 483 482 
3 481 482 480 
3 483 485 484 
3 483 484 482 
3 485 487 486 
3 485 486 484 
3 487 489 488 
3 487 488 486 
3 489 491 490 
3 489 490 488 
3 491 493 492 
3 491 492 490 
3 493 495 494 
3 493 494 492 
3 495 497 496 
3 495 496 494 
3 497 499 498 
3 497 498 496 
3 499 501 500 
3 499 500 498 
3 501 503 502 
3 501 502 500 
3 503 505 504 
3 503 504 502 
3 505 507 506 
3 505 506 504 
3 507 509 508 
3 507 508 506 
3 509 511 510 
3 509 510 508 
3 511 513 512 
3 511 512 510 
3 513 515 514 
3 513 514 512 
3 515 517 516 
3 515 516 514 
3 517 519 518 
3 517 518 516 
3 519 521 520 
3 519 520 518 
3 521 523 522 
3 521 522 520 
3 523 525 524 
3 523 524 522 
3 525 527 526 
3 525 526 524 
3 527 529 528 
3 527 528 526 
3 529 531 530 
3 529 530 528 
3 531 533 532 
3 531 532 530 
3 533 535 534 
3 533 534 532 
3 535 269 268 
3 535 268 534 
