ply
format ascii 1.0
comment VCGLIB generated
element vertex 436
property float x
property float y
property float z
property float nx
property float ny
property float nz
element face 428
property list uchar int vertex_indices
end_header
0.100887 0.33855 0.1 6.10818e-012 -1.52705e-012 3.49347e-005 
0.093097 0.340153 0.1 2.78156e-011 -6.95391e-012 0.000159087 
0.085703 0.342734 0.1 6.3796e-011 -1.5949e-011 0.00036487 
0.078778 0.346222 0.1 1.10944e-010 -2.7736e-011 0.000634526 
0.072394 0.350543 0.1 1.66031e-010 -4.15079e-011 0.000949589 
0.066625 0.355625 0.1 2.25846e-010 -5.64614e-011 0.00129169 
0.061543 0.361394 0.1 2.87168e-010 -7.17921e-011 0.00164241 
0.057222 0.367778 0.1 3.46922e-010 -8.67304e-011 0.00198416 
0.053734 0.374703 0.1 4.02116e-010 -1.00529e-010 0.00229983 
0.051153 0.382097 0.1 4.50048e-010 -1.12512e-010 0.00257397 
0.04955 0.389887 0.1 6.58412e-010 -1.64603e-010 0.00376568 
0.049 0.398 0.1 3.40446e-010 -8.51113e-011 0.00194712 
0.04955 0.406113 0.1 5.00832e-010 -1.25208e-010 0.00286443 
0.051153 0.413903 0.1 4.69098e-010 -1.17275e-010 0.00268293 
0.053734 0.421297 0.1 4.263e-010 -1.06575e-010 0.00243815 
0.057222 0.428222 0.1 3.74809e-010 -9.37022e-011 0.00214366 
0.061543 0.434606 0.1 3.17272e-010 -7.93182e-011 0.00181459 
0.066625 0.440375 0.1 2.5653e-010 -6.41327e-011 0.00146718 
0.072394 0.445457 0.1 1.95672e-010 -4.89179e-011 0.00111911 
0.078778 0.449778 0.1 1.3784e-010 -3.446e-011 0.000788354 
0.085703 0.453266 0.1 8.63052e-011 -2.15763e-011 0.000493608 
0.093097 0.455847 0.1 4.42946e-011 -1.10737e-011 0.000253336 
0.100887 0.45745 0.1 1.50227e-011 -3.75568e-012 8.592e-005 
0.109 0.458 0.1 1.56038e-012 -3.90095e-013 8.92433e-006 
0.117113 0.45745 0.1 6.10818e-012 -1.52705e-012 3.49347e-005 
0.124903 0.455847 0.1 2.78156e-011 -6.95391e-012 0.000159087 
0.132297 0.453266 0.1 6.3796e-011 -1.5949e-011 0.00036487 
0.139222 0.449778 0.1 1.10944e-010 -2.7736e-011 0.000634526 
0.145606 0.445457 0.1 1.66031e-010 -4.15079e-011 0.000949589 
0.151375 0.440375 0.1 2.25846e-010 -5.64615e-011 0.00129169 
0.156457 0.434606 0.1 2.87168e-010 -7.17922e-011 0.00164241 
0.160778 0.428222 0.1 3.4692e-010 -8.67301e-011 0.00198415 
0.164266 0.421297 0.1 4.02116e-010 -1.00529e-010 0.00229983 
0.166847 0.413903 0.1 4.50048e-010 -1.12512e-010 0.00257397 
0.16845 0.406113 0.1 4.8819e-010 -1.22048e-010 0.00279212 
0.169 0.398 0.1 6.7777e-010 -1.69442e-010 0.00387639 
0.16845 0.389887 0.1 3.3061e-010 -8.26524e-011 0.00189087 
0.166847 0.382097 0.1 4.69098e-010 -1.17275e-010 0.00268293 
0.164266 0.374703 0.1 4.263e-010 -1.06575e-010 0.00243815 
0.160778 0.367778 0.1 3.7481e-010 -9.37023e-011 0.00214366 
0.156457 0.361394 0.1 3.17273e-010 -7.93184e-011 0.00181459 
0.151375 0.355625 0.1 2.5653e-010 -6.41324e-011 0.00146718 
0.145606 0.350543 0.1 1.95672e-010 -4.89179e-011 0.00111911 
0.139222 0.346222 0.1 1.3784e-010 -3.446e-011 0.000788354 
0.132297 0.342734 0.1 8.63052e-011 -2.15763e-011 0.000493608 
0.124903 0.340153 0.1 4.42946e-011 -1.10737e-011 0.000253336 
0.117113 0.33855 0.1 1.50227e-011 -3.75568e-012 8.592e-005 
0.109 0.338 0.1 1.56038e-012 -3.90095e-013 8.92433e-006 
0.070438 -0.087306 0.1 2.22997e-010 -5.57493e-011 0.00127539 
0.078338 -0.078699 0.1 2.45536e-010 -6.13839e-011 0.0014043 
0.084828 -0.070141 0.1 1.52014e-010 -3.80036e-011 0.00086942 
0.090037 -0.061593 0.1 2.72854e-010 -6.82135e-011 0.00156054 
0.094093 -0.053017 0.1 1.61688e-010 -4.04221e-011 0.00092475 
0.097125 -0.044375 0.1 3.05763e-010 -7.64409e-011 0.00174876 
0.099261 -0.035629 0.1 3.36898e-010 -8.42246e-011 0.00192683 
0.10063 -0.026741 0.1 1.93409e-010 -4.83521e-011 0.00110617 
0.101359 -0.017672 0.1 3.8238e-010 -9.5595e-011 0.00218696 
0.101579 -0.008384 0.1 2.17424e-010 -5.43558e-011 0.00124352 
0.101416 0.00116 0.1 4.33178e-010 -1.08295e-010 0.00247749 
0.101 0.011 0.1 1.2665e-010 -3.16626e-011 0.000724355 
0.093235 0.01239 0.1 2.2519e-011 -5.62974e-012 0.000128794 
0.085963 0.014537 0.1 4.569e-011 -1.14225e-011 0.000261316 
0.079219 0.017406 0.1 3.77747e-010 -9.44368e-011 0.00216046 
0.073037 0.020963 0.1 1.35065e-010 -3.37662e-011 0.00077248 
0.067453 0.025172 0.1 1.58844e-010 -3.9711e-011 0.000908482 
0.0625 0.03 0.1 1.83544e-010 -4.58861e-011 0.00104975 
0.058214 0.035411 0.1 5.9129e-010 -1.47822e-010 0.00338178 
0.05463 0.04137 0.1 2.57876e-010 -6.44691e-011 0.00147488 
0.051781 0.047844 0.1 5.5399e-010 -1.38497e-010 0.00316845 
0.049704 0.054796 0.1 3.10517e-010 -7.76293e-011 0.00177595 
0.048432 0.062193 0.1 5.92726e-010 -1.48182e-010 0.00339 
0.048 0.07 0.1 6.21542e-010 -1.55386e-010 0.00355481 
0.048531 0.079603 0.1 6.10538e-010 -1.52635e-010 0.00349187 
0.050083 0.088407 0.1 5.33714e-010 -1.33428e-010 0.00305249 
0.052594 0.096406 0.1 2.9296e-010 -7.32401e-011 0.00167554 
0.056 0.103593 0.1 4.08974e-010 -1.02244e-010 0.00233906 
0.06024 0.109959 0.1 3.24837e-010 -8.12093e-011 0.00185785 
0.06525 0.1155 0.1 2.43245e-010 -6.08112e-011 0.0013912 
0.070969 0.120207 0.1 1.67838e-010 -4.19595e-011 0.000959922 
0.077333 0.124074 0.1 7.13706e-011 -1.78427e-011 0.000408192 
0.084281 0.127094 0.1 7.78404e-011 -1.94601e-011 0.000445195 
0.09175 0.129259 0.1 3.31004e-011 -8.2751e-012 0.000189312 
0.099677 0.130564 0.1 6.74993e-012 -1.68748e-012 3.86051e-005 
0.108 0.131 0.1 2.00274e-012 -5.00684e-013 1.14543e-005 
0.117931 0.130144 0.1 1.95869e-011 -4.89673e-012 0.000112024 
0.127199 0.127653 0.1 5.92967e-011 -1.48242e-011 0.000339138 
0.135766 0.123641 0.1 1.68408e-010 -4.2102e-011 0.000963181 
0.143593 0.118222 0.1 2.23116e-010 -5.5779e-011 0.00127607 
0.150642 0.111512 0.1 3.07848e-010 -7.69621e-011 0.00176069 
0.156875 0.103625 0.1 3.965e-010 -9.91251e-011 0.00226772 
0.162254 0.094675 0.1 6.4987e-010 -1.62467e-010 0.00371682 
0.166741 0.084778 0.1 6.04595e-010 -1.51149e-010 0.00345788 
0.170297 0.074047 0.1 6.76644e-010 -1.69161e-010 0.00386995 
0.172884 0.062597 0.1 6.78982e-010 -1.69746e-010 0.00388333 
0.174465 0.050543 0.1 8.42232e-010 -2.10558e-010 0.004817 
0.175 0.038 0.1 8.97117e-010 -2.24279e-010 0.00513091 
0.17417 0.019865 0.1 9.75766e-010 -2.43942e-010 0.00558073 
0.171694 0.0025 0.1 6.61734e-010 -1.65434e-010 0.00378468 
0.167594 -0.014031 0.1 5.9704e-010 -1.4926e-010 0.00341467 
0.161889 -0.029667 0.1 5.23975e-010 -1.30994e-010 0.00299679 
0.154601 -0.044344 0.1 3.78187e-010 -9.45467e-011 0.00216298 
0.14575 -0.058 0.1 4.14822e-010 -1.03706e-010 0.00237251 
0.135358 -0.070573 0.1 3.64958e-010 -9.12395e-011 0.00208732 
0.123444 -0.082 0.1 2.517e-010 -6.29251e-011 0.00143956 
0.110031 -0.092219 0.1 2.17422e-010 -5.43556e-011 0.00124351 
0.095139 -0.101167 0.1 1.86178e-010 -4.65445e-011 0.00106481 
0.078788 -0.108781 0.1 5.90121e-012 -1.4753e-012 3.3751e-005 
0.061 -0.115 0.1 1.19313e-010 -2.98283e-011 0.000682392 
0.061 -0.096 0.1 2.4857e-010 -6.21425e-011 0.00142165 
0.100887 0.33855 -0.1 -6.10818e-012 1.52705e-012 -3.49347e-005 
0.093097 0.340153 -0.1 -2.78156e-011 6.95391e-012 -0.000159087 
0.085703 0.342734 -0.1 -6.3796e-011 1.5949e-011 -0.00036487 
0.078778 0.346222 -0.1 -1.10944e-010 2.7736e-011 -0.000634526 
0.072394 0.350543 -0.1 -1.66031e-010 4.15079e-011 -0.000949589 
0.066625 0.355625 -0.1 -2.25846e-010 5.64614e-011 -0.00129169 
0.061543 0.361394 -0.1 -2.87168e-010 7.17921e-011 -0.00164241 
0.057222 0.367778 -0.1 -3.46922e-010 8.67304e-011 -0.00198416 
0.053734 0.374703 -0.1 -4.02116e-010 1.00529e-010 -0.00229983 
0.051153 0.382097 -0.1 -4.50048e-010 1.12512e-010 -0.00257397 
0.04955 0.389887 -0.1 -6.58412e-010 1.64603e-010 -0.00376568 
0.049 0.398 -0.1 -3.40446e-010 8.51113e-011 -0.00194712 
0.04955 0.406113 -0.1 -5.00832e-010 1.25208e-010 -0.00286443 
0.051153 0.413903 -0.1 -4.69098e-010 1.17275e-010 -0.00268293 
0.053734 0.421297 -0.1 -4.263e-010 1.06575e-010 -0.00243815 
0.057222 0.428222 -0.1 -3.74809e-010 9.37022e-011 -0.00214366 
0.061543 0.434606 -0.1 -3.17272e-010 7.93182e-011 -0.00181459 
0.066625 0.440375 -0.1 -2.5653e-010 6.41327e-011 -0.00146718 
0.072394 0.445457 -0.1 -1.95672e-010 4.89179e-011 -0.00111911 
0.078778 0.449778 -0.1 -1.3784e-010 3.446e-011 -0.000788354 
0.085703 0.453266 -0.1 -8.63052e-011 2.15763e-011 -0.000493608 
0.093097 0.455847 -0.1 -4.42946e-011 1.10737e-011 -0.000253336 
0.100887 0.45745 -0.1 -1.50227e-011 3.75568e-012 -8.592e-005 
0.109 0.458 -0.1 -1.56038e-012 3.90095e-013 -8.92433e-006 
0.117113 0.45745 -0.1 -6.10818e-012 1.52705e-012 -3.49347e-005 
0.124903 0.455847 -0.1 -2.78156e-011 6.95391e-012 -0.000159087 
0.132297 0.453266 -0.1 -6.3796e-011 1.5949e-011 -0.00036487 
0.139222 0.449778 -0.1 -1.10944e-010 2.7736e-011 -0.000634526 
0.145606 0.445457 -0.1 -1.66031e-010 4.15079e-011 -0.000949589 
0.151375 0.440375 -0.1 -2.25846e-010 5.64615e-011 -0.00129169 
0.156457 0.434606 -0.1 -2.87168e-010 7.17922e-011 -0.00164241 
0.160778 0.428222 -0.1 -3.4692e-010 8.67301e-011 -0.00198415 
0.164266 0.421297 -0.1 -4.02116e-010 1.00529e-010 -0.00229983 
0.166847 0.413903 -0.1 -4.50048e-010 1.12512e-010 -0.00257397 
0.16845 0.406113 -0.1 -4.8819e-010 1.22048e-010 -0.00279212 
0.169 0.398 -0.1 -6.7777e-010 1.69442e-010 -0.00387639 
0.16845 0.389887 -0.1 -3.3061e-010 8.26524e-011 -0.00189087 
0.166847 0.382097 -0.1 -4.69098e-010 1.17275e-010 -0.00268293 
0.164266 0.374703 -0.1 -4.263e-010 1.06575e-010 -0.00243815 
0.160778 0.367778 -0.1 -3.7481e-010 9.37023e-011 -0.00214366 
0.156457 0.361394 -0.1 -3.17273e-010 7.93184e-011 -0.00181459 
0.151375 0.355625 -0.1 -2.5653e-010 6.41324e-011 -0.00146718 
0.145606 0.350543 -0.1 -1.95672e-010 4.89179e-011 -0.00111911 
0.139222 0.346222 -0.1 -1.3784e-010 3.446e-011 -0.000788354 
0.132297 0.342734 -0.1 -8.63052e-011 2.15763e-011 -0.000493608 
0.124903 0.340153 -0.1 -4.42946e-011 1.10737e-011 -0.000253336 
0.117113 0.33855 -0.1 -1.50227e-011 3.75568e-012 -8.592e-005 
0.109 0.338 -0.1 -1.56038e-012 3.90095e-013 -8.92433e-006 
0.070438 -0.087306 -0.1 -2.22997e-010 5.57493e-011 -0.00127539 
0.078338 -0.078699 -0.1 -2.45536e-010 6.13839e-011 -0.0014043 
0.084828 -0.070141 -0.1 -1.52014e-010 3.80036e-011 -0.00086942 
0.090037 -0.061593 -0.1 -2.72854e-010 6.82135e-011 -0.00156054 
0.094093 -0.053017 -0.1 -1.61688e-010 4.04221e-011 -0.00092475 
0.097125 -0.044375 -0.1 -3.05763e-010 7.64409e-011 -0.00174876 
0.099261 -0.035629 -0.1 -3.36898e-010 8.42246e-011 -0.00192683 
0.10063 -0.026741 -0.1 -1.93409e-010 4.83521e-011 -0.00110617 
0.101359 -0.017672 -0.1 -3.8238e-010 9.5595e-011 -0.00218696 
0.101579 -0.00838399 -0.1 -2.17424e-010 5.43558e-011 -0.00124352 
0.101416 0.00116 -0.1 -4.33178e-010 1.08295e-010 -0.00247749 
0.101 0.011 -0.1 -1.2665e-010 3.16626e-011 -0.000724355 
0.093235 0.01239 -0.1 -2.2519e-011 5.62974e-012 -0.000128794 
0.085963 0.014537 -0.1 -4.569e-011 1.14225e-011 -0.000261316 
0.079219 0.017406 -0.1 -3.77747e-010 9.44368e-011 -0.00216046 
0.073037 0.020963 -0.1 -1.35065e-010 3.37662e-011 -0.00077248 
0.067453 0.025172 -0.1 -1.58844e-010 3.9711e-011 -0.000908482 
0.0625 0.03 -0.1 -1.83544e-010 4.58861e-011 -0.00104975 
0.058214 0.035411 -0.1 -5.9129e-010 1.47822e-010 -0.00338178 
0.05463 0.04137 -0.1 -2.57876e-010 6.44691e-011 -0.00147488 
0.051781 0.047844 -0.1 -5.5399e-010 1.38497e-010 -0.00316845 
0.049704 0.054796 -0.1 -3.10517e-010 7.76293e-011 -0.00177595 
0.048432 0.062193 -0.1 -5.92726e-010 1.48182e-010 -0.00339 
0.048 0.07 -0.1 -6.21542e-010 1.55386e-010 -0.00355481 
0.048531 0.079603 -0.1 -6.10538e-010 1.52635e-010 -0.00349187 
0.050083 0.088407 -0.1 -5.33714e-010 1.33428e-010 -0.00305249 
0.052594 0.096406 -0.1 -2.9296e-010 7.32401e-011 -0.00167554 
0.056 0.103593 -0.1 -4.08974e-010 1.02244e-010 -0.00233906 
0.06024 0.109959 -0.1 -3.24837e-010 8.12093e-011 -0.00185785 
0.06525 0.1155 -0.1 -2.43245e-010 6.08112e-011 -0.0013912 
0.070969 0.120207 -0.1 -1.67838e-010 4.19595e-011 -0.000959922 
0.077333 0.124074 -0.1 -7.13706e-011 1.78427e-011 -0.000408192 
0.084281 0.127094 -0.1 -7.78404e-011 1.94601e-011 -0.000445195 
0.09175 0.129259 -0.1 -3.31004e-011 8.2751e-012 -0.000189312 
0.099677 0.130564 -0.1 -6.74993e-012 1.68748e-012 -3.86051e-005 
0.108 0.131 -0.1 -2.00274e-012 5.00684e-013 -1.14543e-005 
0.117931 0.130144 -0.1 -1.95869e-011 4.89673e-012 -0.000112024 
0.127199 0.127653 -0.1 -5.92967e-011 1.48242e-011 -0.000339138 
0.135766 0.123641 -0.1 -1.68408e-010 4.2102e-011 -0.000963181 
0.143593 0.118222 -0.1 -2.23116e-010 5.5779e-011 -0.00127607 
0.150642 0.111512 -0.1 -3.07848e-010 7.6962e-011 -0.00176069 
0.156875 0.103625 -0.1 -3.965e-010 9.91251e-011 -0.00226772 
0.162254 0.094675 -0.1 -6.4987e-010 1.62467e-010 -0.00371682 
0.166741 0.084778 -0.1 -6.04595e-010 1.51149e-010 -0.00345788 
0.170297 0.074047 -0.1 -6.76644e-010 1.69161e-010 -0.00386995 
0.172884 0.062597 -0.1 -6.78982e-010 1.69746e-010 -0.00388333 
0.174465 0.050543 -0.1 -8.42232e-010 2.10558e-010 -0.004817 
0.175 0.038 -0.1 -8.97117e-010 2.24279e-010 -0.00513091 
0.17417 0.019865 -0.1 -9.75766e-010 2.43942e-010 -0.00558073 
0.171694 0.0025 -0.1 -6.61734e-010 1.65434e-010 -0.00378468 
0.167594 -0.014031 -0.1 -5.9704e-010 1.4926e-010 -0.00341467 
0.161889 -0.029667 -0.1 -5.23975e-010 1.30994e-010 -0.00299679 
0.154601 -0.044344 -0.1 -3.78187e-010 9.45467e-011 -0.00216298 
0.14575 -0.058 -0.1 -4.14822e-010 1.03706e-010 -0.00237251 
0.135358 -0.070573 -0.1 -3.64958e-010 9.12395e-011 -0.00208732 
0.123444 -0.082 -0.1 -2.517e-010 6.29251e-011 -0.00143956 
0.110031 -0.092219 -0.1 -2.17422e-010 5.43556e-011 -0.00124351 
0.095139 -0.101167 -0.1 -1.86178e-010 4.65445e-011 -0.00106481 
0.078788 -0.108781 -0.1 -5.90121e-012 1.4753e-012 -3.3751e-005 
0.061 -0.115 -0.1 -1.19313e-010 2.98283e-011 -0.000682392 
0.061 -0.096 -0.1 -2.4857e-010 6.21425e-011 -0.00142165 
0.070438 -0.087306 -0.1 -2.09176 2.14721 4.59592e-007 
0.070438 -0.087306 0.1 -2.15096 2.0879 4.67351e-007 
0.078338 -0.078699 -0.1 -2.27023 1.95665 4.82468e-007 
0.078338 -0.078699 0.1 -2.3303 1.88471 4.89826e-007 
0.084828 -0.070141 -0.1 -2.44752 1.72888 5.0351e-007 
0.084828 -0.070141 0.1 -2.50467 1.645 5.09835e-007 
0.090037 -0.061593 -0.1 -2.61187 1.46829 5.20855e-007 
0.090037 -0.061593 0.1 -2.66193 1.37546 5.25549e-007 
0.094093 -0.053017 -0.1 -2.7516 1.18615 5.32954e-007 
0.094093 -0.053017 0.1 -2.79121 1.08966 5.35661e-007 
0.097125 -0.044375 -0.1 -2.85867 0.899373 5.39138e-007 
0.097125 -0.044375 0.1 -2.88651 0.805566 5.39906e-007 
0.099261 -0.035629 -0.1 -2.93124 0.626738 5.3991e-007 
0.099261 -0.035629 0.1 -2.94814 0.541718 5.39149e-007 
0.10063 -0.026741 -0.1 -2.97347 0.384591 5.36709e-007 
0.10063 -0.026741 0.1 -2.98191 0.312484 5.35033e-007 
0.101359 -0.017672 -0.1 -2.99329 0.183931 5.31404e-007 
0.101359 -0.017672 0.1 -2.99622 0.127485 5.29449e-007 
0.101579 -0.00838399 -0.1 -2.99929 0.0302831 5.25736e-007 
0.101579 -0.008384 0.1 -2.99943 -0.0104735 5.23978e-007 
0.101416 0.00116 -0.1 -2.99882 -0.0763917 5.20991e-007 
0.101416 0.00116 0.1 -2.99807 -0.101553 5.1976e-007 
0.101 0.011 -0.1 -2.17442 -1.06883 3.33468e-007 
0.101 0.011 0.1 -1.35152 -2.01094 1.48406e-007 
0.093235 0.01239 -0.1 -0.635573 -2.92778 -1.68501e-008 
0.093235 0.01239 0.1 -0.742525 -2.9025 2.95489e-009 
0.085963 0.014537 -0.1 -0.957781 -2.83834 4.33961e-008 
0.085963 0.014537 0.1 -1.06609 -2.79946 6.40325e-008 
0.079219 0.017406 -0.1 -1.28165 -2.70715 1.05757e-007 
0.079219 0.017406 0.1 -1.3889 -2.65372 1.26845e-007 
0.073037 0.020963 -0.1 -1.59936 -2.53208 1.6896e-007 
0.073037 0.020963 0.1 -1.70256 -2.46388 1.89986e-007 
0.067453 0.025172 -0.1 -1.90185 -2.3132 2.31417e-007 
0.067453 0.025172 0.1 -1.99795 -2.23073 2.51824e-007 
0.0625 0.03 -0.1 -2.17991 -2.05308 2.91405e-007 
0.0625 0.03 0.1 -2.26578 -1.9579 3.10579e-007 
0.058214 0.035411 -0.1 -2.42472 -1.75722 3.47141e-007 
0.058214 0.035411 0.1 -2.49778 -1.65172 3.64527e-007 
0.05463 0.04137 -0.1 -2.62919 -1.4336 3.97037e-007 
0.05463 0.04137 0.1 -2.68753 -1.32099 4.1216e-007 
0.051781 0.047844 -0.1 -2.78874 -1.09184 4.39872e-007 
0.051781 0.047844 0.1 -2.8316 -0.975311 4.5246e-007 
0.049704 0.054796 -0.1 -2.90184 -0.741994 4.7494e-007 
0.049704 0.054796 0.1 -2.92922 -0.625208 4.84833e-007 
0.048432 0.062193 -0.1 -2.96954 -0.394199 5.0198e-007 
0.048432 0.062193 0.1 -2.98248 -0.279975 5.09236e-007 
0.048 0.07 -0.1 -2.99542 -0.05529 5.21319e-007 
0.048 0.07 0.1 -2.99542 0.0551712 5.26148e-007 
0.048531 0.079603 -0.1 -2.98176 0.284028 5.33763e-007 
0.048531 0.079603 0.1 -2.9681 0.402424 5.3655e-007 
0.050083 0.088407 -0.1 -2.92372 0.646717 5.39469e-007 
0.050083 0.088407 0.1 -2.893 0.772615 5.39601e-007 
0.052594 0.096406 -0.1 -2.81185 1.02726 5.36543e-007 
0.052594 0.096406 0.1 -2.76141 1.15601 5.33351e-007 
0.056 0.103593 -0.1 -2.63961 1.41085 5.23194e-007 
0.056 0.103593 0.1 -2.56824 1.53693 5.16227e-007 
0.06024 0.109959 -0.1 -2.40634 1.77935 4.98515e-007 
0.06024 0.109959 0.1 -2.3158 1.89568 4.87771e-007 
0.06525 0.1155 -0.1 -2.11899 2.11346 4.62878e-007 
0.06525 0.1155 0.1 -2.01272 2.2149 4.48732e-007 
0.070969 0.120207 -0.1 -1.79025 2.39883 4.17874e-007 
0.070969 0.120207 0.1 -1.67406 2.48131 4.01163e-007 
0.077333 0.124074 -0.1 -1.4372 2.62631 3.66088e-007 
0.077333 0.124074 0.1 -1.31655 2.68882 3.47724e-007 
0.084281 0.127094 -0.1 -1.07567 2.79469 3.10235e-007 
0.084281 0.127094 0.1 -0.95544 2.83804 2.91109e-007 
0.09175 0.129259 -0.1 -0.719251 2.90765 2.52855e-007 
0.09175 0.129259 0.1 -0.603286 2.9339 2.33727e-007 
0.099677 0.130564 -0.1 -0.377194 2.97207 1.95864e-007 
0.099677 0.130564 0.1 -0.267065 2.98398 1.77129e-007 
0.108 0.131 -0.1 -0.0187487 2.99357 1.34131e-007 
0.108 0.131 0.1 0.11944 2.99124 1.09868e-007 
0.117931 0.130144 -0.1 0.431314 2.95834 5.38996e-008 
0.117931 0.130144 0.1 0.605001 2.92776 2.21947e-008 
0.127199 0.127653 -0.1 0.943231 2.83707 -4.09077e-008 
0.127199 0.127653 0.1 1.10777 2.77695 -7.23046e-008 
0.135766 0.123641 -0.1 1.41744 2.6334 -1.32724e-007 
0.135766 0.123641 0.1 1.56257 2.54997 -1.61746e-007 
0.143593 0.118222 -0.1 1.82794 2.36866 -2.1607e-007 
0.143593 0.118222 0.1 1.94818 2.27079 -2.41371e-007 
0.150642 0.111512 -0.1 2.16352 2.06866 -2.87858e-007 
0.150642 0.111512 0.1 2.25862 1.96438 -3.09044e-007 
0.156875 0.103625 -0.1 2.42626 1.75521 -3.47497e-007 
0.156875 0.103625 0.1 2.4988 1.6503 -3.64767e-007 
0.162254 0.094675 -0.1 2.62499 1.44317 -3.95885e-007 
0.162254 0.094675 0.1 2.67865 1.34096 -4.09735e-007 
0.166741 0.084778 -0.1 2.77078 1.14039 -4.3461e-007 
0.166741 0.084778 0.1 2.80925 1.04203 -4.45636e-007 
0.170297 0.074047 -0.1 2.87389 0.849494 -4.65354e-007 
0.170297 0.074047 0.1 2.90007 0.755324 -4.74048e-007 
0.172884 0.062597 -0.1 2.94233 0.570814 -4.89503e-007 
0.172884 0.062597 0.1 2.95843 0.480476 -4.96266e-007 
0.174465 0.050543 -0.1 2.98211 0.302706 -5.08176e-007 
0.174465 0.050543 0.1 2.98969 0.215274 -5.13324e-007 
0.175 0.038 -0.1 2.99714 0.0395088 -5.22309e-007 
0.175 0.038 0.1 2.997 -0.0488252 -5.26146e-007 
0.17417 0.019865 -0.1 2.9879 -0.232598 -5.32587e-007 
0.17417 0.019865 0.1 2.97893 -0.328036 -5.35191e-007 
0.171694 0.0025 -0.1 2.95057 -0.523042 -5.38757e-007 
0.171694 0.0025 0.1 2.93117 -0.622609 -5.39717e-007 
0.167594 -0.014031 -0.1 2.88061 -0.824211 -5.39689e-007 
0.167594 -0.014031 0.1 2.84944 -0.926247 -5.38699e-007 
0.161889 -0.029667 -0.1 2.7745 -1.13027 -5.34514e-007 
0.161889 -0.029667 0.1 2.73074 -1.23225 -5.31321e-007 
0.154601 -0.044344 -0.1 2.63047 -1.43338 -5.22581e-007 
0.154601 -0.044344 0.1 2.57397 -1.53253 -5.17036e-007 
0.14575 -0.058 -0.1 2.44911 -1.72487 -5.03612e-007 
0.14575 -0.058 0.1 2.38074 -1.81806 -4.95732e-007 
0.135358 -0.070573 -0.1 2.23379 -1.99587 -4.7781e-007 
0.135358 -0.070573 0.1 2.1552 -2.08049 -4.67769e-007 
0.123444 -0.082 -0.1 1.99043 -2.23885 -4.45881e-007 
0.123444 -0.082 0.1 1.90426 -2.31259 -4.34038e-007 
0.110031 -0.092219 -0.1 1.72709 -2.44806 -4.08982e-007 
0.110031 -0.092219 0.1 1.6361 -2.50978 -3.9577e-007 
0.095139 -0.101167 -0.1 1.45221 -2.62087 -3.68474e-007 
0.095139 -0.101167 0.1 1.35931 -2.67023 -3.54389e-007 
0.078788 -0.108781 -0.1 1.1743 -2.75704 -3.25835e-007 
0.078788 -0.108781 0.1 1.08219 -2.79447 -3.11367e-007 
0.061 -0.115 -0.1 -0.339942 -1.88794 -2.30872e-008 
0.061 -0.115 0.1 -1.66997 -0.943971 2.50724e-007 
0.061 -0.096 -0.1 -2.67752 0.735502 5.00302e-007 
0.061 -0.096 0.1 -2.35504 1.471 4.76068e-007 
0.100887 0.33855 -0.1 -0.336829 -2.9749 -7.11435e-008 
0.100887 0.33855 0.1 -0.470746 -2.95666 -4.69321e-008 
0.093097 0.340153 -0.1 -0.732674 -2.90309 1.20679e-009 
0.093097 0.340153 0.1 -0.860685 -2.86774 2.5134e-008 
0.085703 0.342734 -0.1 -1.10897 -2.78137 7.23211e-008 
0.085703 0.342734 0.1 -1.22925 -2.73035 9.55816e-008 
0.078778 0.346222 -0.1 -1.46021 -2.61435 1.41034e-007 
0.078778 0.346222 0.1 -1.57089 -2.54939 1.63226e-007 
0.072394 0.350543 -0.1 -1.78206 -2.40665 2.06387e-007 
0.072394 0.350543 0.1 -1.88255 -2.32888 2.27357e-007 
0.066625 0.355625 -0.1 -2.0724 -2.16176 2.67857e-007 
0.066625 0.355625 0.1 -2.16176 -2.0724 2.87386e-007 
0.061543 0.361394 -0.1 -2.32888 -1.88255 3.24905e-007 
0.061543 0.361394 0.1 -2.40665 -1.78206 3.42896e-007 
0.057222 0.367778 -0.1 -2.54939 -1.57089 3.77084e-007 
0.057222 0.367778 0.1 -2.61435 -1.46021 3.9328e-007 
0.053734 0.374703 -0.1 -2.73035 -1.22925 4.23657e-007 
0.053734 0.374703 0.1 -2.78137 -1.10897 4.37836e-007 
0.051153 0.382097 -0.1 -2.86774 -0.860683 4.6379e-007 
0.051153 0.382097 0.1 -2.90309 -0.732672 4.75566e-007 
0.04955 0.389887 -0.1 -2.95666 -0.470745 4.96382e-007 
0.04955 0.389887 0.1 -2.9749 -0.336828 5.05425e-007 
0.049 0.398 -0.1 -2.99313 -0.0676374 5.20379e-007 
0.049 0.398 0.1 -2.99313 0.0676374 5.26292e-007 
0.04955 0.406113 -0.1 -2.9749 0.336828 5.34871e-007 
0.04955 0.406113 0.1 -2.95666 0.470745 5.37536e-007 
0.051153 0.413903 -0.1 -2.90309 0.732672 5.39618e-007 
0.051153 0.413903 0.1 -2.86774 0.860683 5.39034e-007 
0.053734 0.421297 -0.1 -2.78137 1.10897 5.34785e-007 
0.053734 0.421297 0.1 -2.73035 1.22925 5.31122e-007 
0.057222 0.428222 -0.1 -2.61435 1.46021 5.20936e-007 
0.057222 0.428222 0.1 -2.54938 1.57089 5.14414e-007 
0.061543 0.434606 -0.1 -2.40665 1.78206 4.98688e-007 
0.061543 0.434606 0.1 -2.32888 1.88255 4.89484e-007 
0.066625 0.440375 -0.1 -2.16176 2.0724 4.68562e-007 
0.066625 0.440375 0.1 -2.0724 2.16176 4.56844e-007 
0.072394 0.445457 -0.1 -1.88255 2.32888 4.30955e-007 
0.072394 0.445457 0.1 -1.78206 2.40665 4.16784e-007 
0.078778 0.449778 -0.1 -1.57089 2.54939 3.86101e-007 
0.078778 0.449778 0.1 -1.46021 2.61435 3.69588e-007 
0.085703 0.453266 -0.1 -1.22925 2.73035 3.34276e-007 
0.085703 0.453266 0.1 -1.10897 2.78137 3.15476e-007 
0.093097 0.455847 -0.1 -0.860685 2.86774 2.7584e-007 
0.093097 0.455847 0.1 -0.732674 2.90309 2.55002e-007 
0.100887 0.45745 -0.1 -0.470746 2.95666 2.11548e-007 
0.100887 0.45745 0.1 -0.336829 2.9749 1.8893e-007 
0.109 0.458 -0.1 -0.0676375 2.99313 1.4266e-007 
0.109 0.458 0.1 0.0676373 2.99313 1.19008e-007 
0.117113 0.45745 -0.1 0.336829 2.9749 7.11435e-008 
0.117113 0.45745 0.1 0.470746 2.95666 4.69321e-008 
0.124903 0.455847 -0.1 0.732675 2.90309 -1.20698e-009 
0.124903 0.455847 0.1 0.860686 2.86774 -2.51341e-008 
0.132297 0.453266 -0.1 1.10897 2.78137 -7.23211e-008 
0.132297 0.453266 0.1 1.22925 2.73035 -9.55817e-008 
0.139222 0.449778 -0.1 1.46021 2.61435 -1.41034e-007 
0.139222 0.449778 0.1 1.57089 2.54939 -1.63226e-007 
0.145606 0.445457 -0.1 1.78206 2.40665 -2.06387e-007 
0.145606 0.445457 0.1 1.88255 2.32888 -2.27357e-007 
0.151375 0.440375 -0.1 2.0724 2.16176 -2.67857e-007 
0.151375 0.440375 0.1 2.16176 2.0724 -2.87387e-007 
0.156457 0.434606 -0.1 2.32888 1.88255 -3.24905e-007 
0.156457 0.434606 0.1 2.40665 1.78206 -3.42895e-007 
0.160778 0.428222 -0.1 2.54938 1.57089 -3.77082e-007 
0.160778 0.428222 0.1 2.61435 1.46021 -3.9328e-007 
0.164266 0.421297 -0.1 2.73035 1.22925 -4.23657e-007 
0.164266 0.421297 0.1 2.78137 1.10897 -4.37836e-007 
0.166847 0.413903 -0.1 2.86774 0.860682 -4.6379e-007 
0.166847 0.413903 0.1 2.90309 0.73267 -4.75566e-007 
0.16845 0.406113 -0.1 2.95667 0.470743 -4.96383e-007 
0.16845 0.406113 0.1 2.9749 0.336828 -5.05425e-007 
0.169 0.398 -0.1 2.99313 0.0676374 -5.20379e-007 
0.169 0.398 0.1 2.99313 -0.0676374 -5.26292e-007 
0.16845 0.389887 -0.1 2.9749 -0.336828 -5.34871e-007 
0.16845 0.389887 0.1 2.95667 -0.470743 -5.37537e-007 
0.166847 0.382097 -0.1 2.90309 -0.73267 -5.39618e-007 
0.166847 0.382097 0.1 2.86774 -0.860682 -5.39034e-007 
0.164266 0.374703 -0.1 2.78137 -1.10897 -5.34785e-007 
0.164266 0.374703 0.1 2.73035 -1.22925 -5.31122e-007 
0.160778 0.367778 -0.1 2.61435 -1.46021 -5.20936e-007 
0.160778 0.367778 0.1 2.54939 -1.57089 -5.14415e-007 
0.156457 0.361394 -0.1 2.40665 -1.78206 -4.98688e-007 
0.156457 0.361394 0.1 2.32888 -1.88256 -4.89483e-007 
0.151375 0.355625 -0.1 2.16176 -2.07241 -4.68562e-007 
0.151375 0.355625 0.1 2.0724 -2.16176 -4.56844e-007 
0.145606 0.350543 -0.1 1.88255 -2.32888 -4.30955e-007 
0.145606 0.350543 0.1 1.78206 -2.40665 -4.16784e-007 
0.139222 0.346222 -0.1 1.57089 -2.54939 -3.86101e-007 
0.139222 0.346222 0.1 1.46021 -2.61435 -3.69588e-007 
0.132297 0.342734 -0.1 1.22925 -2.73035 -3.34276e-007 
0.132297 0.342734 0.1 1.10897 -2.78137 -3.15476e-007 
0.124903 0.340153 -0.1 0.860686 -2.86774 -2.75841e-007 
0.124903 0.340153 0.1 0.732675 -2.90309 -2.55002e-007 
0.117113 0.33855 -0.1 0.470746 -2.95666 -2.11548e-007 
0.117113 0.33855 0.1 0.336829 -2.9749 -1.8893e-007 
0.109 0.338 -0.1 0.0676373 -2.99313 -1.4266e-007 
0.109 0.338 0.1 -0.0676375 -2.99313 -1.19008e-007 
3 82 84 83 
3 81 84 82 
3 81 85 84 
3 80 85 81 
3 80 86 85 
3 79 86 80 
3 78 86 79 
3 78 87 86 
3 77 87 78 
3 77 88 87 
3 76 88 77 
3 76 89 88 
3 75 89 76 
3 75 90 89 
3 74 90 75 
3 73 90 74 
3 73 91 90 
3 72 91 73 
3 72 92 91 
3 71 92 72 
3 71 93 92 
3 70 93 71 
3 70 94 93 
3 69 94 70 
3 68 94 69 
3 68 95 94 
3 67 95 68 
3 66 95 67 
3 66 96 95 
3 65 96 66 
3 64 96 65 
3 63 96 64 
3 62 96 63 
3 62 97 96 
3 61 97 62 
3 60 97 61 
3 59 97 60 
3 58 97 59 
3 58 98 97 
3 57 98 58 
3 56 98 57 
3 56 99 98 
3 55 99 56 
3 54 99 55 
3 54 100 99 
3 53 100 54 
3 53 101 100 
3 52 101 53 
3 51 101 52 
3 51 102 101 
3 50 102 51 
3 49 102 50 
3 49 103 102 
3 48 103 49 
3 48 104 103 
3 108 104 48 
3 108 105 104 
3 107 105 108 
3 107 106 105 
3 22 24 23 
3 22 25 24 
3 21 25 22 
3 21 26 25 
3 20 26 21 
3 20 27 26 
3 19 27 20 
3 19 28 27 
3 18 28 19 
3 18 29 28 
3 17 29 18 
3 17 30 29 
3 16 30 17 
3 16 31 30 
3 15 31 16 
3 15 32 31 
3 14 32 15 
3 14 33 32 
3 13 33 14 
3 13 34 33 
3 12 34 13 
3 12 35 34 
3 11 35 12 
3 10 35 11 
3 10 36 35 
3 10 37 36 
3 9 37 10 
3 9 38 37 
3 8 38 9 
3 8 39 38 
3 7 39 8 
3 7 40 39 
3 6 40 7 
3 6 41 40 
3 5 41 6 
3 5 42 41 
3 4 42 5 
3 4 43 42 
3 3 43 4 
3 3 44 43 
3 2 44 3 
3 2 45 44 
3 1 45 2 
3 1 46 45 
3 0 46 1 
3 0 47 46 
3 193 191 192 
3 193 190 191 
3 194 190 193 
3 194 189 190 
3 195 189 194 
3 195 188 189 
3 195 187 188 
3 196 187 195 
3 196 186 187 
3 197 186 196 
3 197 185 186 
3 198 185 197 
3 198 184 185 
3 199 184 198 
3 199 183 184 
3 199 182 183 
3 200 182 199 
3 200 181 182 
3 201 181 200 
3 201 180 181 
3 202 180 201 
3 202 179 180 
3 203 179 202 
3 203 178 179 
3 203 177 178 
3 204 177 203 
3 204 176 177 
3 204 175 176 
3 205 175 204 
3 205 174 175 
3 205 173 174 
3 205 172 173 
3 205 171 172 
3 206 171 205 
3 206 170 171 
3 206 169 170 
3 206 168 169 
3 206 167 168 
3 207 167 206 
3 207 166 167 
3 207 165 166 
3 208 165 207 
3 208 164 165 
3 208 163 164 
3 209 163 208 
3 209 162 163 
3 210 162 209 
3 210 161 162 
3 210 160 161 
3 211 160 210 
3 211 159 160 
3 211 158 159 
3 212 158 211 
3 212 157 158 
3 213 157 212 
3 213 217 157 
3 214 217 213 
3 214 216 217 
3 215 216 214 
3 133 131 132 
3 134 131 133 
3 134 130 131 
3 135 130 134 
3 135 129 130 
3 136 129 135 
3 136 128 129 
3 137 128 136 
3 137 127 128 
3 138 127 137 
3 138 126 127 
3 139 126 138 
3 139 125 126 
3 140 125 139 
3 140 124 125 
3 141 124 140 
3 141 123 124 
3 142 123 141 
3 142 122 123 
3 143 122 142 
3 143 121 122 
3 144 121 143 
3 144 120 121 
3 144 119 120 
3 145 119 144 
3 146 119 145 
3 146 118 119 
3 147 118 146 
3 147 117 118 
3 148 117 147 
3 148 116 117 
3 149 116 148 
3 149 115 116 
3 150 115 149 
3 150 114 115 
3 151 114 150 
3 151 113 114 
3 152 113 151 
3 152 112 113 
3 153 112 152 
3 153 111 112 
3 154 111 153 
3 154 110 111 
3 155 110 154 
3 155 109 110 
3 156 109 155 
3 219 221 220 
3 219 220 218 
3 221 223 222 
3 221 222 220 
3 223 225 224 
3 223 224 222 
3 225 227 226 
3 225 226 224 
3 227 229 228 
3 227 228 226 
3 229 231 230 
3 229 230 228 
3 231 233 232 
3 231 232 230 
3 233 235 234 
3 233 234 232 
3 235 237 236 
3 235 236 234 
3 237 239 238 
3 237 238 236 
3 239 241 240 
3 239 240 238 
3 241 243 242 
3 241 242 240 
3 243 245 244 
3 243 244 242 
3 245 247 246 
3 245 246 244 
3 247 249 248 
3 247 248 246 
3 249 251 250 
3 249 250 248 
3 251 253 252 
3 251 252 250 
3 253 255 254 
3 253 254 252 
3 255 257 256 
3 255 256 254 
3 257 259 258 
3 257 258 256 
3 259 261 260 
3 259 260 258 
3 261 263 262 
3 261 262 260 
3 263 265 264 
3 263 264 262 
3 265 267 266 
3 265 266 264 
3 267 269 268 
3 267 268 266 
3 269 271 270 
3 269 270 268 
3 271 273 272 
3 271 272 270 
3 273 275 274 
3 273 274 272 
3 275 277 276 
3 275 276 274 
3 277 279 278 
3 277 278 276 
3 279 281 280 
3 279 280 278 
3 281 283 282 
3 281 282 280 
3 283 285 284 
3 283 284 282 
3 285 287 286 
3 285 286 284 
3 287 289 288 
3 287 288 286 
3 289 291 290 
3 289 290 288 
3 291 293 292 
3 291 292 290 
3 293 295 294 
3 293 294 292 
3 295 297 296 
3 295 296 294 
3 297 299 298 
3 297 298 296 
3 299 301 300 
3 299 300 298 
3 301 303 302 
3 301 302 300 
3 303 305 304 
3 303 304 302 
3 305 307 306 
3 305 306 304 
3 307 309 308 
3 307 308 306 
3 309 311 310 
3 309 310 308 
3 311 313 312 
3 311 312 310 
3 313 315 314 
3 313 314 312 
3 315 317 316 
3 315 316 314 
3 317 319 318 
3 317 318 316 
3 319 321 320 
3 319 320 318 
3 321 323 322 
3 321 322 320 
3 323 325 324 
3 323 324 322 
3 325 327 326 
3 325 326 324 
3 327 329 328 
3 327 328 326 
3 329 331 330 
3 329 330 328 
3 331 333 332 
3 331 332 330 
3 333 335 334 
3 333 334 332 
3 335 337 336 
3 335 336 334 
3 337 339 338 
3 337 338 336 
3 339 219 218 
3 339 218 338 
3 341 343 342 
3 341 342 340 
3 343 345 344 
3 343 344 342 
3 345 347 346 
3 345 346 344 
3 347 349 348 
3 347 348 346 
3 349 351 350 
3 349 350 348 
3 351 353 352 
3 351 352 350 
3 353 355 354 
3 353 354 352 
3 355 357 356 
3 355 356 354 
3 357 359 358 
3 357 358 356 
3 359 361 360 
3 359 360 358 
3 361 363 362 
3 361 362 360 
3 363 365 364 
3 363 364 362 
3 365 367 366 
3 365 366 364 
3 367 369 368 
3 367 368 366 
3 369 371 370 
3 369 370 368 
3 371 373 372 
3 371 372 370 
3 373 375 374 
3 373 374 372 
3 375 377 376 
3 375 376 374 
3 377 379 378 
3 377 378 376 
3 379 381 380 
3 379 380 378 
3 381 383 382 
3 381 382 380 
3 383 385 384 
3 383 384 382 
3 385 387 386 
3 385 386 384 
3 387 389 388 
3 387 388 386 
3 389 391 390 
3 389 390 388 
3 391 393 392 
3 391 392 390 
3 393 395 394 
3 393 394 392 
3 395 397 396 
3 395 396 394 
3 397 399 398 
3 397 398 396 
3 399 401 400 
3 399 400 398 
3 401 403 402 
3 401 402 400 
3 403 405 404 
3 403 404 402 
3 405 407 406 
3 405 406 404 
3 407 409 408 
3 407 408 406 
3 409 411 410 
3 409 410 408 
3 411 413 412 
3 411 412 410 
3 413 415 414 
3 413 414 412 
3 415 417 416 
3 415 416 414 
3 417 419 418 
3 417 418 416 
3 419 421 420 
3 419 420 418 
3 421 423 422 
3 421 422 420 
3 423 425 424 
3 423 424 422 
3 425 427 426 
3 425 426 424 
3 427 429 428 
3 427 428 426 
3 429 431 430 
3 429 430 428 
3 431 433 432 
3 431 432 430 
3 433 435 434 
3 433 434 432 
3 435 341 340 
3 435 340 434 
