ply
format ascii 1.0
comment VCGLIB generated
element vertex 484
property float x
property float y
property float z
property float nx
property float ny
property float nz
element face 476
property list uchar int vertex_indices
end_header
0.21345 0.042887 0.1 4.8819e-010 -1.22048e-010 0.00279212 
0.211847 0.035097 0.1 4.50048e-010 -1.12512e-010 0.00257397 
0.209266 0.027703 0.1 4.02116e-010 -1.00529e-010 0.00229983 
0.205778 0.020778 0.1 3.46922e-010 -8.67303e-011 0.00198416 
0.201457 0.014394 0.1 2.87168e-010 -7.17921e-011 0.00164241 
0.196375 0.008625 0.1 2.25846e-010 -5.64614e-011 0.00129169 
0.190606 0.003543 0.1 1.66032e-010 -4.15079e-011 0.000949591 
0.184222 -0.000778004 0.1 1.10944e-010 -2.77361e-011 0.000634527 
0.177297 -0.004266 0.1 6.3796e-011 -1.5949e-011 0.00036487 
0.169903 -0.006847 0.1 2.78156e-011 -6.95389e-012 0.000159087 
0.162113 -0.00845 0.1 6.10816e-012 -1.52704e-012 3.49346e-005 
0.154 -0.009 0.1 1.56037e-012 -3.90093e-013 8.9243e-006 
0.145887 -0.00845 0.1 1.50226e-011 -3.75566e-012 8.59195e-005 
0.138097 -0.006847 0.1 4.42945e-011 -1.10736e-011 0.000253335 
0.130703 -0.004266 0.1 8.63051e-011 -2.15763e-011 0.000493608 
0.123778 -0.000778004 0.1 1.37841e-010 -3.44601e-011 0.000788356 
0.117394 0.003543 0.1 1.95672e-010 -4.89179e-011 0.00111911 
0.111625 0.008625 0.1 2.5653e-010 -6.41325e-011 0.00146718 
0.106543 0.014394 0.1 3.17273e-010 -7.93183e-011 0.00181459 
0.102222 0.020778 0.1 3.7481e-010 -9.37024e-011 0.00214366 
0.098734 0.027703 0.1 4.263e-010 -1.06575e-010 0.00243815 
0.096153 0.035097 0.1 4.69098e-010 -1.17275e-010 0.00268293 
0.09455 0.042887 0.1 5.00832e-010 -1.25208e-010 0.00286443 
0.094 0.051 0.1 3.40446e-010 -8.51113e-011 0.00194712 
0.09455 0.059113 0.1 6.58413e-010 -1.64603e-010 0.00376568 
0.096153 0.066903 0.1 4.50048e-010 -1.12512e-010 0.00257397 
0.098734 0.074297 0.1 4.02116e-010 -1.00529e-010 0.00229983 
0.102222 0.081222 0.1 3.46922e-010 -8.67303e-011 0.00198416 
0.106543 0.087606 0.1 2.87168e-010 -7.17921e-011 0.00164241 
0.111625 0.093375 0.1 2.25846e-010 -5.64614e-011 0.00129169 
0.117394 0.098457 0.1 1.66032e-010 -4.1508e-011 0.000949591 
0.123778 0.102778 0.1 1.10944e-010 -2.7736e-011 0.000634527 
0.130703 0.106266 0.1 6.3796e-011 -1.5949e-011 0.00036487 
0.138097 0.108847 0.1 2.78156e-011 -6.95389e-012 0.000159087 
0.145887 0.11045 0.1 6.10816e-012 -1.52704e-012 3.49346e-005 
0.154 0.111 0.1 1.56038e-012 -3.90095e-013 8.92433e-006 
0.162113 0.11045 0.1 1.50227e-011 -3.75566e-012 8.59196e-005 
0.169903 0.108847 0.1 4.42945e-011 -1.10736e-011 0.000253335 
0.177297 0.106266 0.1 8.6305e-011 -2.15763e-011 0.000493607 
0.184222 0.102778 0.1 1.37841e-010 -3.44601e-011 0.000788356 
0.190606 0.098457 0.1 1.95672e-010 -4.8918e-011 0.00111911 
0.196375 0.093375 0.1 2.5653e-010 -6.41325e-011 0.00146718 
0.201457 0.087606 0.1 3.17273e-010 -7.93183e-011 0.00181459 
0.205778 0.081222 0.1 3.7481e-010 -9.37023e-011 0.00214366 
0.209266 0.074297 0.1 4.263e-010 -1.06575e-010 0.00243815 
0.211847 0.066903 0.1 4.69098e-010 -1.17275e-010 0.00268293 
0.21345 0.059113 0.1 3.3061e-010 -8.26524e-011 0.00189087 
0.214 0.051 0.1 6.7777e-010 -1.69442e-010 0.00387639 
0.156956 0.68956 0.1 9.53454e-010 -2.38363e-010 0.00545312 
0.181898 0.684982 0.1 9.47631e-010 -2.36908e-010 0.00541982 
0.203938 0.677625 0.1 9.61675e-010 -2.40419e-010 0.00550014 
0.223185 0.667852 0.1 9.8945e-010 -2.47362e-010 0.00565899 
0.239752 0.656023 0.1 1.02538e-009 -2.56345e-010 0.0058645 
0.25375 0.6425 0.1 1.05021e-009 -2.62553e-010 0.00600651 
0.265289 0.627644 0.1 9.64718e-010 -2.41179e-010 0.00551754 
0.274482 0.611815 0.1 9.04682e-010 -2.26171e-010 0.00517418 
0.281438 0.595375 0.1 9.72164e-010 -2.43041e-010 0.00556013 
0.286269 0.578685 0.1 9.71436e-010 -2.42859e-010 0.00555597 
0.289086 0.562106 0.1 8.61942e-010 -2.15485e-010 0.00492973 
0.29 0.546 0.1 1.22368e-009 -3.05919e-010 0.00699862 
0.286762 0.509157 0.1 2.15306e-009 -5.38267e-010 0.0123141 
0.277843 0.473588 0.1 1.5957e-009 -3.98925e-010 0.00912635 
0.264438 0.439234 0.1 2.0167e-009 -5.04174e-010 0.0115342 
0.247741 0.406037 0.1 2.08964e-009 -5.22411e-010 0.0119514 
0.228947 0.373937 0.1 1.68088e-009 -4.20219e-010 0.0096135 
0.20925 0.342875 0.1 1.6287e-009 -4.07175e-010 0.00931508 
0.189845 0.312792 0.1 1.92806e-009 -4.82016e-010 0.0110272 
0.171926 0.28363 0.1 1.30474e-009 -3.26185e-010 0.00746224 
0.156688 0.255328 0.1 1.03362e-009 -2.58406e-010 0.00591164 
0.145324 0.227829 0.1 8.11394e-010 -2.02849e-010 0.00464063 
0.13903 0.201072 0.1 6.33857e-010 -1.58464e-010 0.00362524 
0.139 0.175 0.1 1.69454e-010 -4.23634e-011 0.000969162 
0.129016 0.180362 0.1 1.40103e-012 -3.50257e-013 8.01294e-006 
0.120046 0.185982 0.1 5.7047e-012 -1.42618e-012 3.26271e-005 
0.112063 0.191906 0.1 1.31081e-011 -3.27703e-012 7.49697e-005 
0.105037 0.198185 0.1 2.0654e-010 -5.16351e-011 0.00118127 
0.098942 0.204867 0.1 8.93429e-011 -2.23357e-011 0.000510982 
0.09375 0.212 0.1 9.87336e-011 -2.46834e-011 0.00056469 
0.089433 0.219633 0.1 1.11874e-010 -2.79684e-011 0.000639842 
0.085963 0.227815 0.1 4.28512e-010 -1.07128e-010 0.0024508 
0.083313 0.236594 0.1 1.90464e-010 -4.7616e-011 0.00108933 
0.081454 0.246019 0.1 5.77466e-010 -1.44366e-010 0.00330272 
0.080359 0.256138 0.1 2.79802e-010 -6.99505e-011 0.00160028 
0.08 0.267 0.1 9.63496e-010 -2.40874e-010 0.00551055 
0.082204 0.292783 0.1 1.33359e-009 -3.33397e-010 0.00762722 
0.088296 0.317264 0.1 8.61698e-010 -2.15424e-010 0.00492834 
0.0975 0.340641 0.1 1.43701e-009 -3.59253e-010 0.00821874 
0.109037 0.363111 0.1 1.47996e-009 -3.6999e-010 0.00846439 
0.12213 0.384873 0.1 1.48235e-009 -3.70587e-010 0.00847804 
0.136 0.406125 0.1 8.2473e-010 -2.06183e-010 0.00471691 
0.14987 0.427064 0.1 1.42807e-009 -3.57018e-010 0.00816761 
0.162963 0.447889 0.1 7.77718e-010 -1.9443e-010 0.00444803 
0.1745 0.468797 0.1 1.37309e-009 -3.43272e-010 0.00785315 
0.183704 0.489986 0.1 1.35622e-009 -3.39056e-010 0.0077567 
0.189796 0.511655 0.1 7.4984e-010 -1.8746e-010 0.00428858 
0.192 0.534 0.1 5.38543e-010 -1.34636e-010 0.00308011 
0.191465 0.543721 0.1 9.50136e-010 -2.37534e-010 0.00543415 
0.189889 0.552852 0.1 3.03497e-010 -7.58743e-011 0.0017358 
0.187312 0.561344 0.1 5.71621e-010 -1.42905e-010 0.00326929 
0.183778 0.569148 0.1 2.64e-010 -6.59998e-011 0.0015099 
0.179326 0.576216 0.1 5.55677e-010 -1.38919e-010 0.0031781 
0.174 0.5825 0.1 2.22674e-010 -5.56685e-011 0.00127355 
0.16784 0.58795 0.1 1.86222e-010 -4.65556e-011 0.00106507 
0.160889 0.592519 0.1 5.1805e-010 -1.29512e-010 0.0029629 
0.153187 0.596156 0.1 1.38983e-010 -3.47458e-011 0.00079489 
0.144778 0.598815 0.1 9.19892e-011 -2.29973e-011 0.000526117 
0.135701 0.600446 0.1 3.90274e-011 -9.75684e-012 0.000223211 
0.126 0.601 0.1 4.52582e-010 -1.13146e-010 0.00258847 
0.121143 0.60092 0.1 9.77826e-012 -2.44456e-012 5.59251e-005 
0.11656 0.600694 0.1 4.68899e-010 -1.17225e-010 0.00268179 
0.112234 0.600344 0.1 1.86097e-011 -4.65243e-012 0.000106435 
0.108148 0.599889 0.1 1.12966e-011 -2.82415e-012 6.46091e-005 
0.104284 0.599351 0.1 5.152e-012 -1.288e-012 2.9466e-005 
0.100625 0.59875 0.1 4.96563e-010 -1.24141e-010 0.00284001 
0.097153 0.598108 0.1 1.68117e-011 -4.20293e-012 9.61518e-005 
0.093852 0.597444 0.1 3.25104e-011 -8.12759e-012 0.000185938 
0.090703 0.596781 0.1 6.6939e-014 -1.67347e-014 3.82846e-007 
0.08769 0.596139 0.1 6.00618e-014 -1.50155e-014 3.43514e-007 
0.084795 0.595538 0.1 2.13813e-014 -5.34532e-015 1.22287e-007 
0.082 0.595 0.1 2.96564e-009 -7.4141e-010 0.0169615 
0.129 0.691 0.1 4.8108e-010 -1.2027e-010 0.00275146 
0.21345 0.042887 -0.1 -4.8819e-010 1.22048e-010 -0.00279212 
0.211847 0.035097 -0.1 -4.50048e-010 1.12512e-010 -0.00257397 
0.209266 0.027703 -0.1 -4.02116e-010 1.00529e-010 -0.00229983 
0.205778 0.020778 -0.1 -3.46922e-010 8.67303e-011 -0.00198416 
0.201457 0.014394 -0.1 -2.87168e-010 7.17921e-011 -0.00164241 
0.196375 0.008625 -0.1 -2.25846e-010 5.64614e-011 -0.00129169 
0.190606 0.003543 -0.1 -1.66032e-010 4.15079e-011 -0.000949591 
0.184222 -0.000777996 -0.1 -1.10944e-010 2.77361e-011 -0.000634527 
0.177297 -0.004266 -0.1 -6.3796e-011 1.5949e-011 -0.00036487 
0.169903 -0.006847 -0.1 -2.78156e-011 6.95389e-012 -0.000159087 
0.162113 -0.00844999 -0.1 -6.10816e-012 1.52704e-012 -3.49346e-005 
0.154 -0.00899999 -0.1 -1.56037e-012 3.90093e-013 -8.9243e-006 
0.145887 -0.00844999 -0.1 -1.50226e-011 3.75566e-012 -8.59195e-005 
0.138097 -0.006847 -0.1 -4.42945e-011 1.10736e-011 -0.000253335 
0.130703 -0.004266 -0.1 -8.63051e-011 2.15763e-011 -0.000493608 
0.123778 -0.000777996 -0.1 -1.37841e-010 3.44601e-011 -0.000788356 
0.117394 0.003543 -0.1 -1.95672e-010 4.89179e-011 -0.00111911 
0.111625 0.008625 -0.1 -2.5653e-010 6.41325e-011 -0.00146718 
0.106543 0.014394 -0.1 -3.17273e-010 7.93183e-011 -0.00181459 
0.102222 0.020778 -0.1 -3.7481e-010 9.37024e-011 -0.00214366 
0.098734 0.027703 -0.1 -4.263e-010 1.06575e-010 -0.00243815 
0.096153 0.035097 -0.1 -4.69098e-010 1.17275e-010 -0.00268293 
0.09455 0.042887 -0.1 -5.00832e-010 1.25208e-010 -0.00286443 
0.094 0.051 -0.1 -3.40446e-010 8.51113e-011 -0.00194712 
0.09455 0.059113 -0.1 -6.58413e-010 1.64603e-010 -0.00376568 
0.096153 0.066903 -0.1 -4.50048e-010 1.12512e-010 -0.00257397 
0.098734 0.074297 -0.1 -4.02116e-010 1.00529e-010 -0.00229983 
0.102222 0.081222 -0.1 -3.46922e-010 8.67303e-011 -0.00198416 
0.106543 0.087606 -0.1 -2.87168e-010 7.17921e-011 -0.00164241 
0.111625 0.093375 -0.1 -2.25846e-010 5.64614e-011 -0.00129169 
0.117394 0.098457 -0.1 -1.66032e-010 4.1508e-011 -0.000949591 
0.123778 0.102778 -0.1 -1.10944e-010 2.7736e-011 -0.000634527 
0.130703 0.106266 -0.1 -6.3796e-011 1.5949e-011 -0.00036487 
0.138097 0.108847 -0.1 -2.78156e-011 6.95389e-012 -0.000159087 
0.145887 0.11045 -0.1 -6.10816e-012 1.52704e-012 -3.49346e-005 
0.154 0.111 -0.1 -1.56038e-012 3.90095e-013 -8.92433e-006 
0.162113 0.11045 -0.1 -1.50227e-011 3.75566e-012 -8.59196e-005 
0.169903 0.108847 -0.1 -4.42945e-011 1.10736e-011 -0.000253335 
0.177297 0.106266 -0.1 -8.6305e-011 2.15763e-011 -0.000493607 
0.184222 0.102778 -0.1 -1.37841e-010 3.44601e-011 -0.000788356 
0.190606 0.098457 -0.1 -1.95672e-010 4.8918e-011 -0.00111911 
0.196375 0.093375 -0.1 -2.5653e-010 6.41325e-011 -0.00146718 
0.201457 0.087606 -0.1 -3.17273e-010 7.93183e-011 -0.00181459 
0.205778 0.081222 -0.1 -3.7481e-010 9.37024e-011 -0.00214366 
0.209266 0.074297 -0.1 -4.263e-010 1.06575e-010 -0.00243815 
0.211847 0.066903 -0.1 -4.69098e-010 1.17275e-010 -0.00268293 
0.21345 0.059113 -0.1 -3.3061e-010 8.26524e-011 -0.00189087 
0.214 0.051 -0.1 -6.7777e-010 1.69442e-010 -0.00387639 
0.156956 0.68956 -0.1 -9.53454e-010 2.38363e-010 -0.00545312 
0.181898 0.684982 -0.1 -9.47631e-010 2.36908e-010 -0.00541982 
0.203938 0.677625 -0.1 -9.61675e-010 2.40419e-010 -0.00550014 
0.223185 0.667852 -0.1 -9.8945e-010 2.47362e-010 -0.00565899 
0.239752 0.656023 -0.1 -1.02538e-009 2.56345e-010 -0.0058645 
0.25375 0.6425 -0.1 -1.05021e-009 2.62553e-010 -0.00600651 
0.265289 0.627644 -0.1 -9.64718e-010 2.41179e-010 -0.00551754 
0.274482 0.611815 -0.1 -9.04682e-010 2.26171e-010 -0.00517418 
0.281438 0.595375 -0.1 -9.72164e-010 2.43041e-010 -0.00556013 
0.286269 0.578685 -0.1 -9.71436e-010 2.42859e-010 -0.00555597 
0.289086 0.562106 -0.1 -8.61942e-010 2.15485e-010 -0.00492973 
0.29 0.546 -0.1 -1.22368e-009 3.05919e-010 -0.00699862 
0.286762 0.509157 -0.1 -2.15306e-009 5.38267e-010 -0.0123141 
0.277843 0.473588 -0.1 -1.5957e-009 3.98925e-010 -0.00912635 
0.264438 0.439234 -0.1 -2.0167e-009 5.04174e-010 -0.0115342 
0.247741 0.406037 -0.1 -2.08964e-009 5.22411e-010 -0.0119514 
0.228947 0.373937 -0.1 -1.68088e-009 4.20219e-010 -0.0096135 
0.20925 0.342875 -0.1 -1.6287e-009 4.07175e-010 -0.00931508 
0.189845 0.312792 -0.1 -1.92806e-009 4.82016e-010 -0.0110272 
0.171926 0.28363 -0.1 -1.30474e-009 3.26185e-010 -0.00746224 
0.156688 0.255328 -0.1 -1.03362e-009 2.58406e-010 -0.00591164 
0.145324 0.227829 -0.1 -8.11394e-010 2.02849e-010 -0.00464063 
0.13903 0.201072 -0.1 -6.33857e-010 1.58464e-010 -0.00362524 
0.139 0.175 -0.1 -1.69454e-010 4.23634e-011 -0.000969162 
0.129016 0.180362 -0.1 -1.40103e-012 3.50257e-013 -8.01294e-006 
0.120046 0.185982 -0.1 -5.7047e-012 1.42618e-012 -3.26271e-005 
0.112063 0.191906 -0.1 -1.31081e-011 3.27703e-012 -7.49697e-005 
0.105037 0.198185 -0.1 -2.0654e-010 5.16351e-011 -0.00118127 
0.098942 0.204867 -0.1 -8.93429e-011 2.23357e-011 -0.000510982 
0.09375 0.212 -0.1 -9.87336e-011 2.46834e-011 -0.00056469 
0.089433 0.219633 -0.1 -1.11874e-010 2.79684e-011 -0.000639842 
0.085963 0.227815 -0.1 -4.28512e-010 1.07128e-010 -0.0024508 
0.083313 0.236594 -0.1 -1.90464e-010 4.7616e-011 -0.00108933 
0.081454 0.246019 -0.1 -5.77466e-010 1.44366e-010 -0.00330272 
0.080359 0.256138 -0.1 -2.79802e-010 6.99505e-011 -0.00160028 
0.08 0.267 -0.1 -9.63496e-010 2.40874e-010 -0.00551055 
0.082204 0.292783 -0.1 -1.33359e-009 3.33397e-010 -0.00762722 
0.088296 0.317264 -0.1 -8.61698e-010 2.15424e-010 -0.00492834 
0.0975 0.340641 -0.1 -1.43701e-009 3.59253e-010 -0.00821874 
0.109037 0.363111 -0.1 -1.47996e-009 3.6999e-010 -0.00846439 
0.12213 0.384873 -0.1 -1.48235e-009 3.70587e-010 -0.00847803 
0.136 0.406125 -0.1 -8.2473e-010 2.06182e-010 -0.00471691 
0.14987 0.427064 -0.1 -1.42807e-009 3.57018e-010 -0.00816761 
0.162963 0.447889 -0.1 -7.77718e-010 1.9443e-010 -0.00444803 
0.1745 0.468797 -0.1 -1.37309e-009 3.43272e-010 -0.00785315 
0.183704 0.489986 -0.1 -1.35622e-009 3.39056e-010 -0.0077567 
0.189796 0.511655 -0.1 -7.4984e-010 1.8746e-010 -0.00428858 
0.192 0.534 -0.1 -5.38543e-010 1.34636e-010 -0.00308011 
0.191465 0.543721 -0.1 -9.50136e-010 2.37534e-010 -0.00543415 
0.189889 0.552852 -0.1 -3.03496e-010 7.58742e-011 -0.0017358 
0.187312 0.561344 -0.1 -5.71621e-010 1.42905e-010 -0.00326929 
0.183778 0.569148 -0.1 -2.64e-010 6.59998e-011 -0.0015099 
0.179326 0.576216 -0.1 -5.55677e-010 1.38919e-010 -0.0031781 
0.174 0.5825 -0.1 -2.22674e-010 5.56685e-011 -0.00127355 
0.16784 0.58795 -0.1 -1.86222e-010 4.65556e-011 -0.00106507 
0.160889 0.592519 -0.1 -5.1805e-010 1.29512e-010 -0.0029629 
0.153187 0.596156 -0.1 -1.38983e-010 3.47458e-011 -0.000794891 
0.144778 0.598815 -0.1 -9.19892e-011 2.29973e-011 -0.000526117 
0.135701 0.600446 -0.1 -3.90273e-011 9.75684e-012 -0.00022321 
0.126 0.601 -0.1 -4.52582e-010 1.13146e-010 -0.00258847 
0.121143 0.60092 -0.1 -9.77826e-012 2.44456e-012 -5.59251e-005 
0.11656 0.600694 -0.1 -4.68899e-010 1.17225e-010 -0.00268179 
0.112234 0.600344 -0.1 -1.86097e-011 4.65243e-012 -0.000106435 
0.108148 0.599889 -0.1 -1.12966e-011 2.82415e-012 -6.46091e-005 
0.104284 0.599351 -0.1 -5.152e-012 1.288e-012 -2.9466e-005 
0.100625 0.59875 -0.1 -4.96563e-010 1.24141e-010 -0.00284001 
0.097153 0.598108 -0.1 -1.68117e-011 4.20293e-012 -9.61518e-005 
0.093852 0.597444 -0.1 -3.25103e-011 8.12759e-012 -0.000185937 
0.090703 0.596781 -0.1 -6.69389e-014 1.67347e-014 -3.82846e-007 
0.08769 0.596139 -0.1 -6.00619e-014 1.50155e-014 -3.43514e-007 
0.084795 0.595538 -0.1 -2.13813e-014 5.34532e-015 -1.22287e-007 
0.082 0.595 -0.1 -2.96564e-009 7.4141e-010 -0.0169615 
0.129 0.691 -0.1 -4.8108e-010 1.2027e-010 -0.00275146 
0.156956 0.68956 -0.1 0.283412 2.98092 8.07473e-008 
0.156956 0.68956 0.1 0.412501 2.96582 5.7516e-008 
0.181898 0.684982 -0.1 0.677688 2.91569 8.95813e-009 
0.181898 0.684982 0.1 0.813786 2.88067 -1.63687e-008 
0.203938 0.677625 -0.1 1.086 2.78874 -6.79828e-008 
0.203938 0.677625 0.1 1.22212 2.73183 -9.42702e-008 
0.223185 0.667852 -0.1 1.48658 2.59712 -1.46398e-007 
0.223185 0.667852 0.1 1.61492 2.51932 -1.72239e-007 
0.239752 0.656023 -0.1 1.85698 2.34688 -2.22099e-007 
0.239752 0.656023 0.1 1.97069 2.25225 -2.46117e-007 
0.25375 0.6425 -0.1 2.17935 2.05183 -2.91362e-007 
0.25375 0.6425 0.1 2.27431 1.94605 -3.12588e-007 
0.265289 0.627644 -0.1 2.44425 1.72906 -3.51787e-007 
0.265289 0.627644 0.1 2.51924 1.61785 -3.69759e-007 
0.274482 0.611815 -0.1 2.65044 1.3941 -4.0248e-007 
0.274482 0.611815 0.1 2.70665 1.28155 -4.17228e-007 
0.281438 0.595375 -0.1 2.80248 1.05738 -4.43782e-007 
0.281438 0.595375 0.1 2.84209 0.945753 -4.55586e-007 
0.286269 0.578685 -0.1 2.90701 0.723597 -4.76648e-007 
0.286269 0.578685 0.1 2.93231 0.613069 -4.85903e-007 
0.289086 0.562106 -0.1 2.97013 0.391683 -5.02193e-007 
0.289086 0.562106 0.1 2.98266 0.280826 -5.09229e-007 
0.29 0.546 -0.1 2.99295 0.0257642 -5.22178e-007 
0.29 0.546 0.1 2.99071 -0.118441 -5.2809e-007 
0.286762 0.509157 -0.1 2.96229 -0.41832 -5.36229e-007 
0.286762 0.509157 0.1 2.9361 -0.573993 -5.38454e-007 
0.277843 0.473588 -0.1 2.87153 -0.849953 -5.39227e-007 
0.277843 0.473588 0.1 2.83315 -0.970239 -5.37775e-007 
0.264438 0.439234 -0.1 2.75655 -1.17635 -5.3339e-007 
0.264438 0.439234 0.1 2.71832 -1.26217 -5.30457e-007 
0.247741 0.406037 -0.1 2.6497 -1.40392 -5.24655e-007 
0.247741 0.406037 0.1 2.6193 -1.45984 -5.21785e-007 
0.228947 0.373937 -0.1 2.57046 -1.54603 -5.17013e-007 
0.228947 0.373937 0.1 2.55201 -1.57631 -5.1511e-007 
0.20925 0.342875 -0.1 2.52938 -1.61311 -5.12762e-007 
0.20925 0.342875 0.1 2.5252 -1.61965 -5.12317e-007 
0.189845 0.312792 -0.1 2.53269 -1.60765 -5.13102e-007 
0.189845 0.312792 0.1 2.54436 -1.58912 -5.14332e-007 
0.171926 0.28363 -0.1 2.58451 -1.52112 -5.1838e-007 
0.171926 0.28363 0.1 2.61299 -1.47165 -5.21198e-007 
0.156688 0.255328 -0.1 2.68518 -1.33005 -5.2763e-007 
0.156688 0.255328 0.1 2.72888 -1.23791 -5.31243e-007 
0.145324 0.227829 -0.1 2.82182 -0.992827 -5.3678e-007 
0.145324 0.227829 0.1 2.87106 -0.839882 -5.38704e-007 
0.13903 0.201072 -0.1 2.94686 -0.459109 -5.35314e-007 
0.13903 0.201072 0.1 2.97343 -0.23128 -5.30001e-007 
0.139 0.175 -0.1 1.52686 -0.883287 -3.05574e-007 
0.139 0.175 0.1 0.0537152 -1.76312 -8.64604e-008 
0.129016 0.180362 -0.1 -1.47722 -2.60939 1.44225e-007 
0.129016 0.180362 0.1 -1.53501 -2.57581 1.55797e-007 
0.120046 0.185982 -0.1 -1.65779 -2.49787 1.80671e-007 
0.120046 0.185982 0.1 -1.72277 -2.4535 1.93973e-007 
0.112063 0.191906 -0.1 -1.8582 -2.35172 2.22101e-007 
0.112063 0.191906 0.1 -1.92863 -2.29431 2.36925e-007 
0.105037 0.198185 -0.1 -2.07153 -2.16518 2.67555e-007 
0.105037 0.198185 0.1 -2.14398 -2.09345 2.83358e-007 
0.098942 0.204867 -0.1 -2.28613 -1.93631 3.15081e-007 
0.098942 0.204867 0.1 -2.35581 -1.8509 3.30997e-007 
0.09375 0.212 -0.1 -2.48743 -1.66928 3.6195e-007 
0.09375 0.212 0.1 -2.54936 -1.57308 3.76983e-007 
0.089433 0.219633 -0.1 -2.66149 -1.37502 4.05246e-007 
0.089433 0.219633 0.1 -2.71169 -1.27317 4.18474e-007 
0.085963 0.227815 -0.1 -2.79859 -1.06986 4.42556e-007 
0.085963 0.227815 0.1 -2.8353 -0.968396 4.5341e-007 
0.083313 0.236594 -0.1 -2.89577 -0.771469 4.7259e-007 
0.083313 0.236594 0.1 -2.91953 -0.676005 4.80917e-007 
0.081454 0.246019 -0.1 -2.95639 -0.494611 4.95292e-007 
0.081454 0.246019 0.1 -2.96949 -0.408683 5.01338e-007 
0.080359 0.256138 -0.1 -2.98785 -0.248202 5.11563e-007 
0.080359 0.256138 0.1 -2.9931 -0.17365 5.1574e-007 
0.08 0.267 -0.1 -2.99527 0.0191063 5.24545e-007 
0.08 0.267 0.1 -2.99219 0.137311 5.29173e-007 
0.082204 0.292783 -0.1 -2.96314 0.411826 5.36093e-007 
0.082204 0.292783 0.1 -2.93718 0.568135 5.38386e-007 
0.088296 0.317264 -0.1 -2.87129 0.849311 5.39157e-007 
0.088296 0.317264 0.1 -2.83136 0.974177 5.37633e-007 
0.0975 0.340641 -0.1 -2.75055 1.18945 5.32914e-007 
0.0975 0.340641 0.1 -2.70966 1.27985 5.29717e-007 
0.109037 0.363111 -0.1 -2.63606 1.42904 5.23369e-007 
0.109037 0.363111 0.1 -2.60333 1.48782 5.20215e-007 
0.12213 0.384873 -0.1 -2.55117 1.57761 5.1502e-007 
0.12213 0.384873 0.1 -2.53173 1.60862 5.12977e-007 
0.136 0.406125 -0.1 -2.50855 1.64532 5.10528e-007 
0.136 0.406125 0.1 -2.50481 1.65101 5.10122e-007 
0.14987 0.427064 -0.1 -2.51396 1.63673 5.11098e-007 
0.14987 0.427064 0.1 -2.52685 1.61675 5.12479e-007 
0.162963 0.447889 -0.1 -2.56871 1.54765 5.16778e-007 
0.162963 0.447889 0.1 -2.59768 1.49851 5.19695e-007 
0.1745 0.468797 -0.1 -2.66831 1.36467 5.26193e-007 
0.1745 0.468797 0.1 -2.70996 1.27995 5.29773e-007 
0.183704 0.489986 -0.1 -2.79709 1.06747 5.35719e-007 
0.183704 0.489986 0.1 -2.84256 0.939706 5.38085e-007 
0.189796 0.511655 -0.1 -2.92053 0.639452 5.38593e-007 
0.189796 0.511655 0.1 -2.95302 0.466964 5.36734e-007 
0.192 0.534 -0.1 -2.98883 0.141366 5.28763e-007 
0.192 0.534 0.1 -2.99215 -0.0117447 5.22651e-007 
0.191465 0.543721 -0.1 -2.98241 -0.279989 5.09223e-007 
0.191465 0.543721 0.1 -2.96935 -0.395123 5.01906e-007 
0.189889 0.552852 -0.1 -2.92777 -0.630554 4.84345e-007 
0.189889 0.552852 0.1 -2.89925 -0.750852 4.741e-007 
0.187312 0.561344 -0.1 -2.82477 -0.993287 4.5048e-007 
0.187312 0.561344 0.1 -2.77881 -1.11542 4.37105e-007 
0.183778 0.569148 -0.1 -2.66803 -1.35801 4.07133e-007 
0.183778 0.569148 0.1 -2.60322 -1.47845 3.90536e-007 
0.179326 0.576216 -0.1 -2.45513 -1.7125 3.54413e-007 
0.179326 0.576216 0.1 -2.37186 -1.82609 3.34888e-007 
0.174 0.5825 -0.1 -2.18835 -2.04207 2.93362e-007 
0.174 0.5825 0.1 -2.08812 -2.14446 2.71361e-007 
0.16784 0.58795 -0.1 -1.87453 -2.33354 2.25751e-007 
0.16784 0.58795 0.1 -1.76118 -2.42023 2.02143e-007 
0.160889 0.592519 -0.1 -1.52556 -2.57553 1.54157e-007 
0.160889 0.592519 0.1 -1.40328 -2.64414 1.29779e-007 
0.153187 0.596156 -0.1 -1.1555 -2.76197 8.13048e-008 
0.153187 0.596156 0.1 -1.03 -2.81118 5.72099e-008 
0.144778 0.598815 -0.1 -0.779843 -2.89117 9.97484e-009 
0.144778 0.598815 0.1 -0.655194 -2.92194 -1.31644e-008 
0.135701 0.600446 -0.1 -0.410714 -2.96685 -5.78735e-008 
0.135701 0.600446 0.1 -0.290883 -2.98098 -7.94432e-008 
0.126 0.601 -0.1 -0.0975678 -2.99661 -1.13926e-007 
0.126 0.601 0.1 -0.0240839 -2.9981 -1.26841e-007 
0.121143 0.60092 -0.1 0.0821906 -2.99851 -1.4544e-007 
0.121143 0.60092 0.1 0.114981 -2.99744 -1.51126e-007 
0.11656 0.600694 -0.1 0.179157 -2.99432 -1.6221e-007 
0.11656 0.600694 0.1 0.210542 -2.99227 -1.67609e-007 
0.112234 0.600344 -0.1 0.271962 -2.98734 -1.78133e-007 
0.112234 0.600344 0.1 0.301997 -2.98446 -1.83257e-007 
0.108148 0.599889 -0.1 0.359256 -2.97816 -1.92994e-007 
0.108148 0.599889 0.1 0.38648 -2.97475 -1.97605e-007 
0.104284 0.599351 -0.1 0.437882 -2.96767 -2.06283e-007 
0.104284 0.599351 0.1 0.462059 -2.964 -2.10349e-007 
0.100625 0.59875 -0.1 0.505984 -2.95689 -2.17719e-007 
0.100625 0.59875 0.1 0.525731 -2.95344 -2.21021e-007 
0.097153 0.598108 -0.1 0.560852 -2.94702 -2.26881e-007 
0.097153 0.598108 0.1 0.576226 -2.94406 -2.29439e-007 
0.093852 0.597444 -0.1 0.600421 -2.93927 -2.3346e-007 
0.093852 0.597444 0.1 0.609242 -2.93746 -2.34924e-007 
0.090703 0.596781 -0.1 0.620441 -2.93514 -2.36781e-007 
0.090703 0.596781 0.1 0.622819 -2.93464 -2.37175e-007 
0.08769 0.596139 -0.1 0.620061 -2.93521 -2.36717e-007 
0.08769 0.596139 0.1 0.614925 -2.93629 -2.35866e-007 
0.084795 0.595538 -0.1 0.59554 -2.94022 -2.32649e-007 
0.084795 0.595538 0.1 0.581291 -2.94307 -2.30282e-007 
0.082 0.595 -0.1 -0.52011 -1.52424 2.43125e-008 
0.082 0.595 0.1 -1.60726 -0.102547 2.7654e-007 
0.129 0.691 -0.1 -1.74484 1.8781 3.87172e-007 
0.129 0.691 0.1 -0.795256 2.43707 2.45574e-007 
0.21345 0.042887 -0.1 2.9749 -0.336828 -5.34871e-007 
0.21345 0.042887 0.1 2.95667 -0.470743 -5.37537e-007 
0.211847 0.035097 -0.1 2.90309 -0.732671 -5.39618e-007 
0.211847 0.035097 0.1 2.86774 -0.860684 -5.39034e-007 
0.209266 0.027703 -0.1 2.78137 -1.10897 -5.34785e-007 
0.209266 0.027703 0.1 2.73035 -1.22925 -5.31122e-007 
0.205778 0.020778 -0.1 2.61435 -1.46021 -5.20936e-007 
0.205778 0.020778 0.1 2.54938 -1.57089 -5.14414e-007 
0.201457 0.014394 -0.1 2.40665 -1.78206 -4.98688e-007 
0.201457 0.014394 0.1 2.32888 -1.88255 -4.89484e-007 
0.196375 0.008625 -0.1 2.16176 -2.0724 -4.68562e-007 
0.196375 0.008625 0.1 2.0724 -2.16176 -4.56844e-007 
0.190606 0.003543 -0.1 1.88255 -2.32888 -4.30955e-007 
0.190606 0.003543 0.1 1.78206 -2.40665 -4.16784e-007 
0.184222 -0.000777996 -0.1 1.57089 -2.54938 -3.86101e-007 
0.184222 -0.000778004 0.1 1.46021 -2.61435 -3.69589e-007 
0.177297 -0.004266 -0.1 1.22925 -2.73035 -3.34276e-007 
0.177297 -0.004266 0.1 1.10897 -2.78137 -3.15476e-007 
0.169903 -0.006847 -0.1 0.860684 -2.86774 -2.75839e-007 
0.169903 -0.006847 0.1 0.732672 -2.90309 -2.55002e-007 
0.162113 -0.00844999 -0.1 0.470744 -2.95667 -2.11548e-007 
0.162113 -0.00845 0.1 0.336828 -2.9749 -1.88929e-007 
0.154 -0.00899999 -0.1 0.0676372 -2.99313 -1.4266e-007 
0.154 -0.009 0.1 -0.0676372 -2.99313 -1.19008e-007 
0.145887 -0.00844999 -0.1 -0.336828 -2.9749 -7.11436e-008 
0.145887 -0.00845 0.1 -0.470744 -2.95667 -4.69325e-008 
0.138097 -0.006847 -0.1 -0.732672 -2.90309 1.20652e-009 
0.138097 -0.006847 0.1 -0.860684 -2.86774 2.51338e-008 
0.130703 -0.004266 -0.1 -1.10897 -2.78137 7.2321e-008 
0.130703 -0.004266 0.1 -1.22925 -2.73035 9.55816e-008 
0.123778 -0.000777996 -0.1 -1.46021 -2.61435 1.41034e-007 
0.123778 -0.000778004 0.1 -1.57089 -2.54938 1.63226e-007 
0.117394 0.003543 -0.1 -1.78206 -2.40665 2.06388e-007 
0.117394 0.003543 0.1 -1.88255 -2.32888 2.27357e-007 
0.111625 0.008625 -0.1 -2.0724 -2.16176 2.67857e-007 
0.111625 0.008625 0.1 -2.16176 -2.0724 2.87386e-007 
0.106543 0.014394 -0.1 -2.32888 -1.88255 3.24905e-007 
0.106543 0.014394 0.1 -2.40665 -1.78206 3.42896e-007 
0.102222 0.020778 -0.1 -2.54938 -1.57089 3.77082e-007 
0.102222 0.020778 0.1 -2.61435 -1.46021 3.9328e-007 
0.098734 0.027703 -0.1 -2.73035 -1.22925 4.23657e-007 
0.098734 0.027703 0.1 -2.78137 -1.10897 4.37836e-007 
0.096153 0.035097 -0.1 -2.86774 -0.860685 4.6379e-007 
0.096153 0.035097 0.1 -2.90309 -0.732673 4.75566e-007 
0.09455 0.042887 -0.1 -2.95666 -0.470745 4.96382e-007 
0.09455 0.042887 0.1 -2.9749 -0.336828 5.05425e-007 
0.094 0.051 -0.1 -2.99313 -0.0676374 5.20379e-007 
0.094 0.051 0.1 -2.99313 0.0676374 5.26292e-007 
0.09455 0.059113 -0.1 -2.9749 0.336828 5.34871e-007 
0.09455 0.059113 0.1 -2.95666 0.470744 5.37536e-007 
0.096153 0.066903 -0.1 -2.90309 0.732672 5.39618e-007 
0.096153 0.066903 0.1 -2.86774 0.860684 5.39034e-007 
0.098734 0.074297 -0.1 -2.78137 1.10897 5.34785e-007 
0.098734 0.074297 0.1 -2.73035 1.22925 5.31122e-007 
0.102222 0.081222 -0.1 -2.61435 1.46021 5.20936e-007 
0.102222 0.081222 0.1 -2.54938 1.57089 5.14414e-007 
0.106543 0.087606 -0.1 -2.40665 1.78206 4.98688e-007 
0.106543 0.087606 0.1 -2.32888 1.88255 4.89483e-007 
0.111625 0.093375 -0.1 -2.16176 2.0724 4.68562e-007 
0.111625 0.093375 0.1 -2.0724 2.16176 4.56844e-007 
0.117394 0.098457 -0.1 -1.88255 2.32888 4.30955e-007 
0.117394 0.098457 0.1 -1.78206 2.40665 4.16784e-007 
0.123778 0.102778 -0.1 -1.57089 2.54938 3.86101e-007 
0.123778 0.102778 0.1 -1.46021 2.61435 3.69589e-007 
0.130703 0.106266 -0.1 -1.22925 2.73035 3.34276e-007 
0.130703 0.106266 0.1 -1.10897 2.78137 3.15476e-007 
0.138097 0.108847 -0.1 -0.860684 2.86774 2.75839e-007 
0.138097 0.108847 0.1 -0.732673 2.90309 2.55002e-007 
0.145887 0.11045 -0.1 -0.470745 2.95666 2.11548e-007 
0.145887 0.11045 0.1 -0.336828 2.9749 1.88929e-007 
0.154 0.111 -0.1 -0.0676374 2.99313 1.4266e-007 
0.154 0.111 0.1 0.0676374 2.99313 1.19008e-007 
0.162113 0.11045 -0.1 0.336828 2.9749 7.11436e-008 
0.162113 0.11045 0.1 0.470745 2.95666 4.69323e-008 
0.169903 0.108847 -0.1 0.732673 2.90309 -1.20661e-009 
0.169903 0.108847 0.1 0.860684 2.86774 -2.51338e-008 
0.177297 0.106266 -0.1 1.10897 2.78137 -7.2321e-008 
0.177297 0.106266 0.1 1.22925 2.73035 -9.55815e-008 
0.184222 0.102778 -0.1 1.46021 2.61435 -1.41034e-007 
0.184222 0.102778 0.1 1.57089 2.54938 -1.63226e-007 
0.190606 0.098457 -0.1 1.78206 2.40665 -2.06388e-007 
0.190606 0.098457 0.1 1.88255 2.32888 -2.27357e-007 
0.196375 0.093375 -0.1 2.0724 2.16176 -2.67857e-007 
0.196375 0.093375 0.1 2.16176 2.0724 -2.87387e-007 
0.201457 0.087606 -0.1 2.32888 1.88255 -3.24905e-007 
0.201457 0.087606 0.1 2.40665 1.78206 -3.42895e-007 
0.205778 0.081222 -0.1 2.54938 1.57089 -3.77082e-007 
0.205778 0.081222 0.1 2.61435 1.46021 -3.9328e-007 
0.209266 0.074297 -0.1 2.73035 1.22925 -4.23657e-007 
0.209266 0.074297 0.1 2.78137 1.10897 -4.37836e-007 
0.211847 0.066903 -0.1 2.86774 0.860683 -4.6379e-007 
0.211847 0.066903 0.1 2.90309 0.732671 -4.75566e-007 
0.21345 0.059113 -0.1 2.95667 0.470743 -4.96383e-007 
0.21345 0.059113 0.1 2.9749 0.336827 -5.05425e-007 
0.214 0.051 -0.1 2.99313 0.0676374 -5.20379e-007 
0.214 0.051 0.1 2.99313 -0.0676374 -5.26292e-007 
3 119 48 120 
3 119 49 48 
3 119 50 49 
3 119 51 50 
3 119 52 51 
3 119 53 52 
3 119 115 53 
3 115 114 53 
3 114 113 53 
3 113 54 53 
3 113 112 54 
3 112 111 54 
3 111 110 54 
3 110 109 54 
3 109 55 54 
3 109 108 55 
3 108 107 55 
3 107 56 55 
3 106 56 107 
3 105 56 106 
3 104 56 105 
3 119 116 115 
3 119 117 116 
3 103 56 104 
3 119 118 117 
3 103 57 56 
3 102 57 103 
3 101 57 102 
3 100 57 101 
3 100 58 57 
3 99 58 100 
3 98 58 99 
3 98 59 58 
3 97 59 98 
3 96 59 97 
3 96 60 59 
3 95 60 96 
3 94 60 95 
3 93 60 94 
3 93 61 60 
3 92 61 93 
3 92 62 61 
3 91 62 92 
3 90 62 91 
3 90 63 62 
3 89 63 90 
3 88 63 89 
3 88 64 63 
3 87 64 88 
3 87 65 64 
3 86 65 87 
3 86 66 65 
3 85 66 86 
3 84 66 85 
3 84 67 66 
3 83 67 84 
3 83 68 67 
3 82 68 83 
3 81 68 82 
3 81 69 68 
3 80 69 81 
3 79 69 80 
3 79 70 69 
3 78 70 79 
3 77 70 78 
3 76 70 77 
3 75 70 76 
3 75 71 70 
3 74 71 75 
3 73 71 74 
3 72 71 73 
3 34 36 35 
3 33 36 34 
3 33 37 36 
3 32 37 33 
3 32 38 37 
3 31 38 32 
3 31 39 38 
3 30 39 31 
3 30 40 39 
3 29 40 30 
3 29 41 40 
3 28 41 29 
3 28 42 41 
3 27 42 28 
3 27 43 42 
3 26 43 27 
3 26 44 43 
3 25 44 26 
3 25 45 44 
3 24 45 25 
3 24 46 45 
3 24 47 46 
3 23 47 24 
3 22 47 23 
3 22 0 47 
3 21 0 22 
3 21 1 0 
3 20 1 21 
3 20 2 1 
3 19 2 20 
3 19 3 2 
3 18 3 19 
3 18 4 3 
3 17 4 18 
3 17 5 4 
3 16 5 17 
3 16 6 5 
3 15 6 16 
3 15 7 6 
3 14 7 15 
3 14 8 7 
3 13 8 14 
3 13 9 8 
3 12 9 13 
3 12 10 9 
3 11 10 12 
3 169 240 241 
3 170 240 169 
3 171 240 170 
3 172 240 171 
3 173 240 172 
3 174 240 173 
3 236 240 174 
3 235 236 174 
3 234 235 174 
3 175 234 174 
3 233 234 175 
3 232 233 175 
3 231 232 175 
3 230 231 175 
3 176 230 175 
3 229 230 176 
3 228 229 176 
3 177 228 176 
3 177 227 228 
3 177 226 227 
3 177 225 226 
3 237 240 236 
3 238 240 237 
3 177 224 225 
3 239 240 238 
3 178 224 177 
3 178 223 224 
3 178 222 223 
3 178 221 222 
3 179 221 178 
3 179 220 221 
3 179 219 220 
3 180 219 179 
3 180 218 219 
3 180 217 218 
3 181 217 180 
3 181 216 217 
3 181 215 216 
3 181 214 215 
3 182 214 181 
3 182 213 214 
3 183 213 182 
3 183 212 213 
3 183 211 212 
3 184 211 183 
3 184 210 211 
3 184 209 210 
3 185 209 184 
3 185 208 209 
3 186 208 185 
3 186 207 208 
3 187 207 186 
3 187 206 207 
3 187 205 206 
3 188 205 187 
3 188 204 205 
3 189 204 188 
3 189 203 204 
3 189 202 203 
3 190 202 189 
3 190 201 202 
3 190 200 201 
3 191 200 190 
3 191 199 200 
3 191 198 199 
3 191 197 198 
3 191 196 197 
3 192 196 191 
3 192 195 196 
3 192 194 195 
3 192 193 194 
3 157 155 156 
3 157 154 155 
3 158 154 157 
3 158 153 154 
3 159 153 158 
3 159 152 153 
3 160 152 159 
3 160 151 152 
3 161 151 160 
3 161 150 151 
3 162 150 161 
3 162 149 150 
3 163 149 162 
3 163 148 149 
3 164 148 163 
3 164 147 148 
3 165 147 164 
3 165 146 147 
3 166 146 165 
3 166 145 146 
3 167 145 166 
3 168 145 167 
3 168 144 145 
3 168 143 144 
3 121 143 168 
3 121 142 143 
3 122 142 121 
3 122 141 142 
3 123 141 122 
3 123 140 141 
3 124 140 123 
3 124 139 140 
3 125 139 124 
3 125 138 139 
3 126 138 125 
3 126 137 138 
3 127 137 126 
3 127 136 137 
3 128 136 127 
3 128 135 136 
3 129 135 128 
3 129 134 135 
3 130 134 129 
3 130 133 134 
3 131 133 130 
3 131 132 133 
3 243 245 244 
3 243 244 242 
3 245 247 246 
3 245 246 244 
3 247 249 248 
3 247 248 246 
3 249 251 250 
3 249 250 248 
3 251 253 252 
3 251 252 250 
3 253 255 254 
3 253 254 252 
3 255 257 256 
3 255 256 254 
3 257 259 258 
3 257 258 256 
3 259 261 260 
3 259 260 258 
3 261 263 262 
3 261 262 260 
3 263 265 264 
3 263 264 262 
3 265 267 266 
3 265 266 264 
3 267 269 268 
3 267 268 266 
3 269 271 270 
3 269 270 268 
3 271 273 272 
3 271 272 270 
3 273 275 274 
3 273 274 272 
3 275 277 276 
3 275 276 274 
3 277 279 278 
3 277 278 276 
3 279 281 280 
3 279 280 278 
3 281 283 282 
3 281 282 280 
3 283 285 284 
3 283 284 282 
3 285 287 286 
3 285 286 284 
3 287 289 288 
3 287 288 286 
3 289 291 290 
3 289 290 288 
3 291 293 292 
3 291 292 290 
3 293 295 294 
3 293 294 292 
3 295 297 296 
3 295 296 294 
3 297 299 298 
3 297 298 296 
3 299 301 300 
3 299 300 298 
3 301 303 302 
3 301 302 300 
3 303 305 304 
3 303 304 302 
3 305 307 306 
3 305 306 304 
3 307 309 308 
3 307 308 306 
3 309 311 310 
3 309 310 308 
3 311 313 312 
3 311 312 310 
3 313 315 314 
3 313 314 312 
3 315 317 316 
3 315 316 314 
3 317 319 318 
3 317 318 316 
3 319 321 320 
3 319 320 318 
3 321 323 322 
3 321 322 320 
3 323 325 324 
3 323 324 322 
3 325 327 326 
3 325 326 324 
3 327 329 328 
3 327 328 326 
3 329 331 330 
3 329 330 328 
3 331 333 332 
3 331 332 330 
3 333 335 334 
3 333 334 332 
3 335 337 336 
3 335 336 334 
3 337 339 338 
3 337 338 336 
3 339 341 340 
3 339 340 338 
3 341 343 342 
3 341 342 340 
3 343 345 344 
3 343 344 342 
3 345 347 346 
3 345 346 344 
3 347 349 348 
3 347 348 346 
3 349 351 350 
3 349 350 348 
3 351 353 352 
3 351 352 350 
3 353 355 354 
3 353 354 352 
3 355 357 356 
3 355 356 354 
3 357 359 358 
3 357 358 356 
3 359 361 360 
3 359 360 358 
3 361 363 362 
3 361 362 360 
3 363 365 364 
3 363 364 362 
3 365 367 366 
3 365 366 364 
3 367 369 368 
3 367 368 366 
3 369 371 370 
3 369 370 368 
3 371 373 372 
3 371 372 370 
3 373 375 374 
3 373 374 372 
3 375 377 376 
3 375 376 374 
3 377 379 378 
3 377 378 376 
3 379 381 380 
3 379 380 378 
3 381 383 382 
3 381 382 380 
3 383 385 384 
3 383 384 382 
3 385 387 386 
3 385 386 384 
3 387 243 242 
3 387 242 386 
3 389 391 390 
3 389 390 388 
3 391 393 392 
3 391 392 390 
3 393 395 394 
3 393 394 392 
3 395 397 396 
3 395 396 394 
3 397 399 398 
3 397 398 396 
3 399 401 400 
3 399 400 398 
3 401 403 402 
3 401 402 400 
3 403 405 404 
3 403 404 402 
3 405 407 406 
3 405 406 404 
3 407 409 408 
3 407 408 406 
3 409 411 410 
3 409 410 408 
3 411 413 412 
3 411 412 410 
3 413 415 414 
3 413 414 412 
3 415 417 416 
3 415 416 414 
3 417 419 418 
3 417 418 416 
3 419 421 420 
3 419 420 418 
3 421 423 422 
3 421 422 420 
3 423 425 424 
3 423 424 422 
3 425 427 426 
3 425 426 424 
3 427 429 428 
3 427 428 426 
3 429 431 430 
3 429 430 428 
3 431 433 432 
3 431 432 430 
3 433 435 434 
3 433 434 432 
3 435 437 436 
3 435 436 434 
3 437 439 438 
3 437 438 436 
3 439 441 440 
3 439 440 438 
3 441 443 442 
3 441 442 440 
3 443 445 444 
3 443 444 442 
3 445 447 446 
3 445 446 444 
3 447 449 448 
3 447 448 446 
3 449 451 450 
3 449 450 448 
3 451 453 452 
3 451 452 450 
3 453 455 454 
3 453 454 452 
3 455 457 456 
3 455 456 454 
3 457 459 458 
3 457 458 456 
3 459 461 460 
3 459 460 458 
3 461 463 462 
3 461 462 460 
3 463 465 464 
3 463 464 462 
3 465 467 466 
3 465 466 464 
3 467 469 468 
3 467 468 466 
3 469 471 470 
3 469 470 468 
3 471 473 472 
3 471 472 470 
3 473 475 474 
3 473 474 472 
3 475 477 476 
3 475 476 474 
3 477 479 478 
3 477 478 476 
3 479 481 480 
3 479 480 478 
3 481 483 482 
3 481 482 480 
3 483 389 388 
3 483 388 482 
