ply
format ascii 1.0
comment VCGLIB generated
element vertex 392
property float x
property float y
property float z
property float nx
property float ny
property float nz
element face 388
property list uchar int vertex_indices
end_header
0.635239 0.541691 0.0999999 7.51188e-010 -1.87797e-010 0.00429629 
0.614912 0.552273 0.0999999 7.26935e-010 -1.81734e-010 0.00415758 
0.594953 0.561766 0.0999999 6.98458e-010 -1.74614e-010 0.00399471 
0.575296 0.570185 0.0999999 6.65554e-010 -1.66388e-010 0.00380652 
0.555876 0.577549 0.0999999 6.28112e-010 -1.57028e-010 0.00359238 
0.536625 0.583875 0.1 5.85994e-010 -1.46499e-010 0.0033515 
0.517479 0.58918 0.1 5.39158e-010 -1.34789e-010 0.00308362 
0.49837 0.593482 0.1 4.8756e-010 -1.2189e-010 0.00278852 
0.479234 0.596797 0.1 4.31256e-010 -1.07814e-010 0.0024665 
0.460005 0.599144 0.1 2.57318e-009 -6.43294e-010 0.0147169 
0.440615 0.600539 0.1 4.27388e-011 -1.06847e-011 0.000244437 
0.421 0.601 0.1 1.3863e-009 -3.46574e-010 0.00792869 
0.382877 0.598729 0.1 2.31012e-010 -5.7753e-011 0.00132124 
0.346685 0.592083 0.1 5.50054e-010 -1.37513e-010 0.00314594 
0.312688 0.581313 0.1 1.67605e-009 -4.19013e-010 0.00958589 
0.281148 0.566667 0.1 7.87324e-010 -1.96831e-010 0.00450297 
0.252331 0.548396 0.1 1.7857e-009 -4.46425e-010 0.010213 
0.2265 0.52675 0.1 9.6869e-010 -2.42172e-010 0.00554026 
0.203919 0.501979 0.1 1.88817e-009 -4.72042e-010 0.0107991 
0.184852 0.474333 0.1 1.92836e-009 -4.82089e-010 0.0110289 
0.169563 0.444063 0.1 1.13252e-009 -2.83129e-010 0.00647724 
0.158315 0.411417 0.1 2.06114e-009 -5.15287e-010 0.0117884 
0.151373 0.376646 0.1 2.15068e-009 -5.37669e-010 0.0123004 
0.149 0.34 0.1 1.30461e-009 -3.26153e-010 0.00746152 
0.151299 0.302763 0.1 1.94206e-009 -4.85515e-010 0.0111073 
0.158056 0.26769 0.1 1.9109e-009 -4.77726e-010 0.0109291 
0.169063 0.234984 0.1 1.8766e-009 -4.69151e-010 0.0107329 
0.184111 0.204852 0.1 1.85031e-009 -4.62577e-010 0.0105825 
0.202993 0.177497 0.1 1.83859e-009 -4.59647e-010 0.0105155 
0.2255 0.153125 0.1 1.0226e-009 -2.55649e-010 0.00584856 
0.251424 0.13194 0.1 1.78812e-009 -4.4703e-010 0.0102269 
0.280556 0.114148 0.1 8.81021e-010 -2.20255e-010 0.00503885 
0.312688 0.099953 0.1 1.75209e-009 -4.38021e-010 0.0100208 
0.347611 0.08956 0.1 7.0365e-010 -1.75912e-010 0.00402441 
0.385118 0.083174 0.1 4.28486e-010 -1.07121e-010 0.00245065 
0.425 0.081 0.1 1.8367e-009 -4.59174e-010 0.0105047 
0.444388 0.08156 0.1 2.93804e-010 -7.3451e-011 0.00168036 
0.464019 0.083232 0.1 3.76831e-010 -9.42078e-011 0.00215522 
0.483844 0.086 0.1 4.50904e-010 -1.12726e-010 0.00257887 
0.503815 0.089852 0.1 5.16166e-010 -1.29041e-010 0.00295212 
0.523883 0.094773 0.1 5.7264e-010 -1.4316e-010 0.00327512 
0.544 0.10075 0.1 6.20382e-010 -1.55095e-010 0.00354817 
0.564117 0.107769 0.0999999 6.5933e-010 -1.64833e-010 0.00377093 
0.584185 0.115815 0.0999999 6.89475e-010 -1.72369e-010 0.00394334 
0.604156 0.124875 0.0999999 7.10764e-010 -1.77691e-010 0.0040651 
0.623982 0.134935 0.0999999 7.2303e-010 -1.80758e-010 0.00413525 
0.643612 0.145981 0.0999998 7.2616e-010 -1.8154e-010 0.00415315 
0.663 0.158 0.0999998 3.62719e-010 -9.06798e-011 0.00207451 
0.663 0.051 0.0999998 7.92271e-009 -1.98068e-009 0.0453126 
0.646109 0.042467 0.0999998 2.9284e-009 -7.32101e-010 0.0167485 
0.62887 0.034403 0.0999998 9.69148e-010 -2.42287e-010 0.00554288 
0.611188 0.026859 0.0999998 8.97472e-010 -2.24368e-010 0.00513294 
0.592963 0.019889 0.0999998 1.73865e-009 -4.34662e-010 0.0099439 
0.5741 0.013543 0.0999998 5.27072e-010 -1.31768e-010 0.0030145 
0.5545 0.007875 0.0999998 4.60928e-010 -1.15232e-010 0.0026362 
0.534067 0.002936 0.1 7.45114e-010 -1.86278e-010 0.00426155 
0.512704 -0.001222 0.1 1.77143e-010 -4.4286e-011 0.00101314 
0.490313 -0.004547 0.1 1.32424e-010 -3.31059e-011 0.000757375 
0.466796 -0.006986 0.1 1.16958e-010 -2.92396e-011 0.000668924 
0.442058 -0.00848801 0.1 4.62874e-012 -1.15718e-012 2.64733e-005 
0.416 -0.009 0.1 6.12776e-011 -1.53194e-011 0.000350467 
0.354981 -0.005041 0.1 7.20069e-010 -1.80017e-010 0.00411831 
0.299852 0.006255 0.1 2.19966e-009 -5.49917e-010 0.0125806 
0.2505 0.024016 0.1 4.18388e-009 -1.04597e-009 0.023929 
0.206815 0.04737 0.1 4.6899e-009 -1.17248e-009 0.0268231 
0.168685 0.075447 0.1 5.62296e-009 -1.40574e-009 0.0321596 
0.136 0.107375 0.1 2.64692e-009 -6.61728e-010 0.0151386 
0.108648 0.142282 0.1 2.59137e-009 -6.47843e-010 0.0148209 
0.086519 0.179296 0.1 2.02672e-009 -5.06679e-010 0.0115915 
0.0695 0.217547 0.1 2.00803e-009 -5.02006e-010 0.0114846 
0.057481 0.256162 0.1 1.99069e-009 -4.97671e-010 0.0113854 
0.050352 0.29427 0.1 1.96536e-009 -4.9134e-010 0.0112406 
0.048 0.331 0.1 2.84852e-009 -7.12128e-010 0.0162916 
0.051215 0.381778 0.1 2.35938e-009 -5.89844e-010 0.0134941 
0.060634 0.429889 0.1 2.8456e-009 -7.11398e-010 0.0162749 
0.075922 0.475 0.1 2.2265e-009 -5.56626e-010 0.0127341 
0.096741 0.516778 0.1 2.69844e-009 -6.74609e-010 0.0154333 
0.122754 0.554889 0.1 2.67046e-009 -6.67617e-010 0.0152733 
0.153625 0.589 0.1 2.88425e-009 -7.21061e-010 0.016496 
0.189017 0.618778 0.1 5.67038e-009 -1.41759e-009 0.0324308 
0.228593 0.643889 0.1 4.87506e-009 -1.21876e-009 0.0278821 
0.272016 0.664 0.1 2.64132e-009 -6.60329e-010 0.0151066 
0.318949 0.678778 0.1 1.09773e-009 -2.74432e-010 0.00627826 
0.369056 0.687889 0.1 2.38185e-010 -5.95462e-011 0.00136226 
0.422 0.691 0.1 1.28415e-011 -3.21037e-012 7.34448e-005 
0.439533 0.690643 0.1 3.46852e-011 -8.67128e-012 0.000198376 
0.457181 0.68956 0.1 5.51898e-011 -1.37974e-011 0.000315649 
0.475016 0.687734 0.1 3.02401e-010 -7.56003e-011 0.00172953 
0.493111 0.685148 0.1 2.21866e-010 -5.54666e-011 0.00126893 
0.51154 0.681784 0.1 2.72912e-010 -6.82281e-011 0.00156088 
0.530375 0.677625 0.1 9.76316e-010 -2.44079e-010 0.00558388 
0.549689 0.672653 0.1 5.82307e-010 -1.45577e-010 0.00333041 
0.569556 0.666852 0.0999999 6.6782e-010 -1.66955e-010 0.00381949 
0.590047 0.660203 0.0999999 2.0385e-009 -5.09625e-010 0.0116589 
0.611236 0.65269 0.0999999 1.1307e-009 -2.82675e-010 0.00646684 
0.633196 0.644295 0.0999999 1.25462e-009 -3.13655e-010 0.0071756 
0.656 0.635 0.0999999 8.01714e-009 -2.00428e-009 0.0458527 
0.656 0.53 0.0999999 3.81148e-010 -9.52868e-011 0.00217991 
0.635239 0.541691 -0.1 -7.51188e-010 1.87797e-010 -0.00429629 
0.614912 0.552273 -0.1 -7.26935e-010 1.81734e-010 -0.00415758 
0.594953 0.561766 -0.1 -6.98458e-010 1.74614e-010 -0.00399471 
0.575296 0.570185 -0.1 -6.65554e-010 1.66388e-010 -0.00380652 
0.555876 0.577549 -0.1 -6.28112e-010 1.57028e-010 -0.00359238 
0.536625 0.583875 -0.1 -5.85994e-010 1.46499e-010 -0.0033515 
0.517479 0.58918 -0.1 -5.39158e-010 1.34789e-010 -0.00308362 
0.49837 0.593482 -0.1 -4.8756e-010 1.2189e-010 -0.00278852 
0.479234 0.596797 -0.1 -4.31256e-010 1.07814e-010 -0.0024665 
0.460005 0.599144 -0.1 -2.57318e-009 6.43294e-010 -0.0147169 
0.440615 0.600539 -0.1 -4.27388e-011 1.06847e-011 -0.000244437 
0.421 0.601 -0.1 -1.3863e-009 3.46574e-010 -0.00792869 
0.382877 0.598729 -0.1 -2.31012e-010 5.7753e-011 -0.00132124 
0.346685 0.592083 -0.1 -5.50054e-010 1.37513e-010 -0.00314594 
0.312688 0.581313 -0.1 -1.67605e-009 4.19013e-010 -0.00958589 
0.281148 0.566667 -0.1 -7.87324e-010 1.96831e-010 -0.00450297 
0.252331 0.548396 -0.1 -1.7857e-009 4.46424e-010 -0.010213 
0.2265 0.52675 -0.1 -9.6869e-010 2.42172e-010 -0.00554026 
0.203919 0.501979 -0.1 -1.88817e-009 4.72042e-010 -0.0107991 
0.184852 0.474333 -0.1 -1.92836e-009 4.82089e-010 -0.0110289 
0.169563 0.444063 -0.1 -1.13252e-009 2.83129e-010 -0.00647724 
0.158315 0.411417 -0.1 -2.06114e-009 5.15287e-010 -0.0117884 
0.151373 0.376646 -0.1 -2.15068e-009 5.37669e-010 -0.0123004 
0.149 0.34 -0.1 -1.30461e-009 3.26153e-010 -0.00746152 
0.151299 0.302763 -0.1 -1.94206e-009 4.85515e-010 -0.0111073 
0.158056 0.26769 -0.1 -1.9109e-009 4.77726e-010 -0.0109291 
0.169063 0.234984 -0.1 -1.8766e-009 4.69151e-010 -0.0107329 
0.184111 0.204852 -0.1 -1.85031e-009 4.62577e-010 -0.0105825 
0.202993 0.177497 -0.1 -1.83859e-009 4.59647e-010 -0.0105155 
0.2255 0.153125 -0.1 -1.0226e-009 2.55649e-010 -0.00584856 
0.251424 0.13194 -0.1 -1.78812e-009 4.4703e-010 -0.0102269 
0.280556 0.114148 -0.1 -8.81021e-010 2.20255e-010 -0.00503885 
0.312688 0.099953 -0.1 -1.75209e-009 4.38021e-010 -0.0100208 
0.347611 0.08956 -0.1 -7.0365e-010 1.75912e-010 -0.00402441 
0.385118 0.083174 -0.1 -4.28486e-010 1.07121e-010 -0.00245065 
0.425 0.081 -0.1 -1.8367e-009 4.59174e-010 -0.0105047 
0.444388 0.08156 -0.1 -2.93804e-010 7.3451e-011 -0.00168036 
0.464019 0.083232 -0.1 -3.7683e-010 9.42077e-011 -0.00215522 
0.483844 0.086 -0.1 -4.50904e-010 1.12726e-010 -0.00257887 
0.503815 0.089852 -0.1 -5.16166e-010 1.29041e-010 -0.00295212 
0.523883 0.094773 -0.1 -5.7264e-010 1.4316e-010 -0.00327512 
0.544 0.10075 -0.1 -6.20382e-010 1.55095e-010 -0.00354817 
0.564117 0.107769 -0.1 -6.5933e-010 1.64833e-010 -0.00377093 
0.584185 0.115815 -0.1 -6.89475e-010 1.72369e-010 -0.00394334 
0.604156 0.124875 -0.1 -7.10764e-010 1.77691e-010 -0.0040651 
0.623982 0.134935 -0.1 -7.2303e-010 1.80758e-010 -0.00413525 
0.643612 0.145981 -0.1 -7.2616e-010 1.8154e-010 -0.00415315 
0.663 0.158 -0.1 -3.62719e-010 9.06798e-011 -0.00207451 
0.663 0.051 -0.1 -7.92271e-009 1.98068e-009 -0.0453126 
0.646109 0.042467 -0.1 -2.9284e-009 7.32101e-010 -0.0167485 
0.62887 0.034403 -0.1 -9.69148e-010 2.42287e-010 -0.00554288 
0.611188 0.026859 -0.1 -8.97472e-010 2.24368e-010 -0.00513294 
0.592963 0.019889 -0.1 -1.73865e-009 4.34662e-010 -0.0099439 
0.5741 0.013543 -0.1 -5.27072e-010 1.31768e-010 -0.0030145 
0.5545 0.007875 -0.1 -4.60928e-010 1.15232e-010 -0.0026362 
0.534067 0.002936 -0.1 -7.45114e-010 1.86278e-010 -0.00426155 
0.512704 -0.001222 -0.1 -1.77143e-010 4.4286e-011 -0.00101314 
0.490313 -0.004547 -0.1 -1.32424e-010 3.31059e-011 -0.000757375 
0.466796 -0.006986 -0.1 -1.16958e-010 2.92396e-011 -0.000668924 
0.442058 -0.008488 -0.1 -4.62874e-012 1.15718e-012 -2.64733e-005 
0.416 -0.00899999 -0.1 -6.12776e-011 1.53194e-011 -0.000350467 
0.354981 -0.005041 -0.1 -7.20069e-010 1.80017e-010 -0.00411831 
0.299852 0.006255 -0.1 -2.19966e-009 5.49917e-010 -0.0125806 
0.2505 0.024016 -0.1 -4.18388e-009 1.04597e-009 -0.023929 
0.206815 0.04737 -0.1 -4.6899e-009 1.17248e-009 -0.0268231 
0.168685 0.075447 -0.1 -5.62296e-009 1.40574e-009 -0.0321596 
0.136 0.107375 -0.1 -2.64692e-009 6.61728e-010 -0.0151386 
0.108648 0.142282 -0.1 -2.59137e-009 6.47843e-010 -0.0148209 
0.086519 0.179296 -0.1 -2.02672e-009 5.06679e-010 -0.0115915 
0.0695 0.217547 -0.1 -2.00803e-009 5.02006e-010 -0.0114846 
0.057481 0.256162 -0.1 -1.99069e-009 4.97671e-010 -0.0113854 
0.050352 0.29427 -0.1 -1.96536e-009 4.9134e-010 -0.0112406 
0.048 0.331 -0.1 -2.84852e-009 7.12128e-010 -0.0162916 
0.051215 0.381778 -0.1 -2.35938e-009 5.89844e-010 -0.0134941 
0.060634 0.429889 -0.1 -2.8456e-009 7.11398e-010 -0.0162749 
0.075922 0.475 -0.1 -2.2265e-009 5.56626e-010 -0.0127341 
0.096741 0.516778 -0.1 -2.69844e-009 6.74609e-010 -0.0154333 
0.122754 0.554889 -0.1 -2.67046e-009 6.67617e-010 -0.0152733 
0.153625 0.589 -0.1 -2.88425e-009 7.21061e-010 -0.016496 
0.189017 0.618778 -0.1 -5.67038e-009 1.41759e-009 -0.0324308 
0.228593 0.643889 -0.1 -4.87506e-009 1.21876e-009 -0.0278821 
0.272016 0.664 -0.1 -2.64132e-009 6.60328e-010 -0.0151066 
0.318949 0.678778 -0.1 -1.09773e-009 2.74432e-010 -0.00627826 
0.369056 0.687889 -0.1 -2.38185e-010 5.95462e-011 -0.00136226 
0.422 0.691 -0.1 -1.28415e-011 3.21037e-012 -7.34448e-005 
0.439533 0.690643 -0.1 -3.46852e-011 8.67128e-012 -0.000198376 
0.457181 0.68956 -0.1 -5.51898e-011 1.37974e-011 -0.000315649 
0.475016 0.687734 -0.1 -3.02401e-010 7.56003e-011 -0.00172953 
0.493111 0.685148 -0.1 -2.21866e-010 5.54666e-011 -0.00126893 
0.51154 0.681784 -0.1 -2.72912e-010 6.82281e-011 -0.00156088 
0.530375 0.677625 -0.1 -9.76316e-010 2.44079e-010 -0.00558388 
0.549689 0.672653 -0.1 -5.82307e-010 1.45577e-010 -0.00333041 
0.569556 0.666852 -0.1 -6.6782e-010 1.66955e-010 -0.00381949 
0.590047 0.660203 -0.1 -2.0385e-009 5.09625e-010 -0.0116589 
0.611236 0.65269 -0.1 -1.1307e-009 2.82675e-010 -0.00646684 
0.633196 0.644295 -0.1 -1.25462e-009 3.13655e-010 -0.0071756 
0.656 0.635 -0.1 -8.01714e-009 2.00428e-009 -0.0458527 
0.656 0.53 -0.1 -3.81148e-010 9.52868e-011 -0.00217991 
0.635239 0.541691 -0.1 -1.44311 -2.62969 1.37374e-007 
0.635239 0.541691 0.0999999 -1.4142 -2.64535 1.31634e-007 
0.614912 0.552273 -0.1 -1.35304 -2.67707 1.19555e-007 
0.614912 0.552273 0.0999999 -1.3208 -2.69312 1.13216e-007 
0.594953 0.561766 -0.1 -1.25274 -2.72535 9.99073e-008 
0.594953 0.561766 0.0999999 -1.21693 -2.74153 9.29383e-008 
0.575296 0.570185 -0.1 -1.14197 -2.77351 7.84343e-008 
0.575296 0.570185 0.0999999 -1.10283 -2.7893 7.09002e-008 
0.555876 0.577549 -0.1 -1.02131 -2.82009 5.53012e-008 
0.555876 0.577549 0.0999999 -0.978929 -2.83508 4.72363e-008 
0.536625 0.583875 -0.1 -0.891388 -2.86373 3.06775e-008 
0.536625 0.583875 0.1 -0.846224 -2.8774 2.21833e-008 
0.517479 0.58918 -0.1 -0.753674 -2.90296 4.88387e-009 
0.517479 0.58918 0.1 -0.706287 -2.91486 -3.92123e-009 
0.49837 0.593482 -0.1 -0.609957 -2.93649 -2.17098e-008 
0.49837 0.593482 0.1 -0.561014 -2.94623 -3.06931e-008 
0.479234 0.596797 -0.1 -0.462536 -2.96328 -4.86568e-008 
0.479234 0.596797 0.1 -0.413001 -2.97059 -5.76373e-008 
0.460005 0.599144 -0.1 -0.314072 -2.98269 -7.54629e-008 
0.460005 0.599144 0.1 -0.264678 -2.98748 -8.43091e-008 
0.440615 0.600539 -0.1 -0.167018 -2.99457 -1.01695e-007 
0.440615 0.600539 0.1 -0.118751 -2.99687 -1.10234e-007 
0.421 0.601 -0.1 0.0124747 -2.99768 -1.33214e-007 
0.421 0.601 0.1 0.0954346 -2.99618 -1.47654e-007 
0.382877 0.598729 -0.1 0.299542 -2.98002 -1.82634e-007 
0.382877 0.598729 0.1 0.42069 -2.96534 -2.03175e-007 
0.346685 0.592083 -0.1 0.663225 -2.92042 -2.43617e-007 
0.346685 0.592083 0.1 0.784613 -2.89017 -2.63519e-007 
0.312688 0.581313 -0.1 1.02517 -2.8136 -3.02232e-007 
0.312688 0.581313 0.1 1.14434 -2.76727 -3.21043e-007 
0.281148 0.566667 -0.1 1.37781 -2.65852 -3.57112e-007 
0.281148 0.566667 0.1 1.49212 -2.59608 -3.74369e-007 
0.252331 0.548396 -0.1 1.71324 -2.45557 -4.06888e-007 
0.252331 0.548396 0.1 1.82005 -2.37748 -4.22151e-007 
0.2265 0.52675 -0.1 2.02359 -2.20661 -4.5027e-007 
0.2265 0.52675 0.1 2.12033 -2.11383 -4.63128e-007 
0.203919 0.501979 -0.1 2.30124 -1.91511 -4.86074e-007 
0.203919 0.501979 0.1 2.38542 -1.80918 -4.96162e-007 
0.184852 0.474333 -0.1 2.53901 -1.58634 -5.13275e-007 
0.184852 0.474333 0.1 2.60841 -1.46944 -5.20299e-007 
0.169563 0.444063 -0.1 2.73066 -1.22744 -5.31097e-007 
0.169563 0.444063 0.1 2.78351 -1.10235 -5.3487e-007 
0.158315 0.411417 -0.1 2.87156 -0.847288 -5.39116e-007 
0.158315 0.411417 0.1 2.90675 -0.717322 -5.39587e-007 
0.151373 0.376646 -0.1 2.9592 -0.45619 -5.37343e-007 
0.151373 0.376646 0.1 2.97647 -0.325024 -5.34629e-007 
0.149 0.34 -0.1 2.99392 -0.0676162 -5.26429e-007 
0.149 0.34 0.1 2.99411 0.0586252 -5.20944e-007 
0.151299 0.302763 -0.1 2.97814 0.312421 -5.07058e-007 
0.151299 0.302763 0.1 2.96199 0.439976 -4.98658e-007 
0.158056 0.26769 -0.1 2.91165 0.697318 -4.78609e-007 
0.158056 0.26769 0.1 2.87748 0.827106 -4.6696e-007 
0.169063 0.234984 -0.1 2.79017 1.08472 -4.40434e-007 
0.169063 0.234984 0.1 2.73705 1.21254 -4.2556e-007 
0.184111 0.204852 -0.1 2.61226 1.46164 -3.92852e-007 
0.184111 0.204852 0.1 2.5406 1.58292 -3.75021e-007 
0.202993 0.177497 -0.1 2.38062 1.81458 -3.36923e-007 
0.202993 0.177497 0.1 2.29229 1.92495 -3.16655e-007 
0.2255 0.153125 -0.1 2.10209 2.13121 -2.74383e-007 
0.2255 0.153125 0.1 2.00022 2.2271 -2.5238e-007 
0.251424 0.13194 -0.1 1.78678 2.40209 -2.07412e-007 
0.251424 0.13194 0.1 1.67522 2.48118 -1.84449e-007 
0.280556 0.114148 -0.1 1.44653 2.62156 -1.38327e-007 
0.280556 0.114148 0.1 1.32941 2.68286 -1.1517e-007 
0.312688 0.099953 -0.1 1.09343 2.78789 -6.93184e-008 
0.312688 0.099953 0.1 0.974565 2.83163 -4.66238e-008 
0.347611 0.08956 -0.1 0.738315 2.90273 -2.20884e-009 
0.347611 0.08956 0.1 0.620927 2.93008 1.95117e-008 
0.385118 0.083174 -0.1 0.390122 2.97014 6.1618e-008 
0.385118 0.083174 0.1 0.276706 2.98285 8.20036e-008 
0.425 0.081 -0.1 0.079988 2.99662 1.17001e-007 
0.425 0.081 0.1 -0.00331376 2.99768 1.31613e-007 
0.444388 0.08156 -0.1 -0.142608 2.99556 1.55874e-007 
0.444388 0.08156 0.1 -0.1986 2.99237 1.65525e-007 
0.464019 0.083232 -0.1 -0.308009 2.98318 1.84253e-007 
0.464019 0.083232 0.1 -0.361425 2.97718 1.9333e-007 
0.483844 0.086 -0.1 -0.46595 2.96269 2.10973e-007 
0.483844 0.086 0.1 -0.517058 2.9542 2.19538e-007 
0.503815 0.089852 -0.1 -0.616938 2.93503 2.36163e-007 
0.503815 0.089852 0.1 -0.66571 2.92435 2.44224e-007 
0.523883 0.094773 -0.1 -0.761128 2.90104 2.59888e-007 
0.523883 0.094773 0.1 -0.807773 2.8884 2.67492e-007 
0.544 0.10075 -0.1 -0.899045 2.86135 2.82268e-007 
0.544 0.10075 0.1 -0.943672 2.84694 2.8944e-007 
0.564117 0.107769 -0.1 -1.03101 2.81653 3.03382e-007 
0.564117 0.107769 0.0999999 -1.07371 2.80053 3.10149e-007 
0.584185 0.115815 -0.1 -1.15741 2.76702 3.23319e-007 
0.584185 0.115815 0.0999999 -1.19841 2.74952 3.29721e-007 
0.604156 0.124875 -0.1 -1.27876 2.71311 3.4218e-007 
0.604156 0.124875 0.0999999 -1.31812 2.6942 3.48235e-007 
0.623982 0.134935 -0.1 -1.39539 2.65503 3.60033e-007 
0.623982 0.134935 0.0999999 -1.4333 2.63476 3.65775e-007 
0.643612 0.145981 -0.1 -1.50769 2.59293 3.76953e-007 
0.643612 0.145981 0.0999998 -1.54418 2.57136 3.82392e-007 
0.663 0.158 -0.1 -0.0537827 1.69987 8.37071e-008 
0.663 0.158 0.0999998 1.47311 0.849933 -2.20415e-007 
0.663 0.051 -0.1 2.45091 -0.89257 -4.67546e-007 
0.663 0.051 0.0999998 1.90182 -1.78514 -4.10555e-007 
0.646109 0.042467 -0.1 1.32553 -2.69094 -3.49388e-007 
0.646109 0.042467 0.0999998 1.29833 -2.70416 -3.45211e-007 
0.62887 0.034403 -0.1 1.23985 -2.73138 -3.36174e-007 
0.62887 0.034403 0.0999998 1.20856 -2.74537 -3.31315e-007 
0.611188 0.026859 -0.1 1.14206 -2.77359 -3.20921e-007 
0.611188 0.026859 0.0999998 1.10684 -2.78783 -3.15386e-007 
0.592963 0.019889 -0.1 1.03328 -2.81585 -3.03749e-007 
0.592963 0.019889 0.0999998 0.99494 -2.82962 -2.97647e-007 
0.5741 0.013543 -0.1 0.915531 -2.85624 -2.84926e-007 
0.5741 0.013543 0.0999998 0.874466 -2.86908 -2.78308e-007 
0.5545 0.007875 -0.1 0.790552 -2.89329 -2.64694e-007 
0.5545 0.007875 0.0999998 0.747701 -2.90465 -2.57699e-007 
0.534067 0.002936 -0.1 0.660952 -2.92559 -2.43446e-007 
0.534067 0.002936 0.1 0.617052 -2.93517 -2.36189e-007 
0.512704 -0.001222 -0.1 0.528988 -2.95231 -2.21541e-007 
0.512704 -0.001222 0.1 0.484823 -2.95989 -2.1415e-007 
0.490313 -0.004547 -0.1 0.396932 -2.97297 -1.99355e-007 
0.490313 -0.004547 0.1 0.353204 -2.97848 -1.9195e-007 
0.466796 -0.006986 -0.1 0.266923 -2.98749 -1.77258e-007 
0.466796 -0.006986 0.1 0.224368 -2.99099 -1.6997e-007 
0.442058 -0.008488 -0.1 0.140854 -2.99613 -1.55593e-007 
0.442058 -0.00848801 0.1 0.099894 -2.99778 -1.48503e-007 
0.416 -0.00899999 -0.1 -0.025456 -2.99752 -1.26575e-007 
0.416 -0.009 0.1 -0.109846 -2.99561 -1.11736e-007 
0.354981 -0.005041 -0.1 -0.330221 -2.97545 -7.23232e-008 
0.354981 -0.005041 0.1 -0.466207 -2.95719 -4.77489e-008 
0.299852 0.006255 -0.1 -0.740084 -2.90021 2.62799e-009 
0.299852 0.006255 0.1 -0.877976 -2.86149 2.84305e-008 
0.2505 0.024016 -0.1 -1.1487 -2.76373 8.00387e-008 
0.2505 0.024016 0.1 -1.28154 -2.7047 1.05845e-007 
0.206815 0.04737 -0.1 -1.53586 -2.56902 1.56243e-007 
0.206815 0.04737 0.1 -1.65734 -2.49238 1.80833e-007 
0.168685 0.075447 -0.1 -1.88466 -2.32583 2.27859e-007 
0.168685 0.075447 0.1 -1.99049 -2.23593 2.50293e-007 
0.136 0.107375 -0.1 -2.18469 -2.04746 2.92486e-007 
0.136 0.107375 0.1 -2.27305 -1.94889 3.12244e-007 
0.108648 0.142282 -0.1 -2.43258 -1.74669 3.48976e-007 
0.108648 0.142282 0.1 -2.50375 -1.64306 3.65949e-007 
0.086519 0.179296 -0.1 -2.63026 -1.43279 3.9726e-007 
0.086519 0.179296 0.1 -2.6856 -1.32616 4.11597e-007 
0.0695 0.217547 -0.1 -2.78211 -1.11021 4.37911e-007 
0.0695 0.217547 0.1 -2.82328 -1.00089 4.49888e-007 
0.057481 0.256162 -0.1 -2.89258 -0.778262 4.71736e-007 
0.057481 0.256162 0.1 -2.92071 -0.664956 4.81608e-007 
0.050352 0.29427 -0.1 -2.96385 -0.431671 4.99347e-007 
0.050352 0.29427 0.1 -2.97886 -0.311691 5.07216e-007 
0.048 0.331 -0.1 -2.99391 -0.0646196 5.20648e-007 
0.048 0.331 0.1 -2.99396 0.0624726 5.26211e-007 
0.051215 0.381778 -0.1 -2.97737 0.318506 5.34503e-007 
0.051215 0.381778 0.1 -2.96074 0.447446 5.37231e-007 
0.060634 0.429889 -0.1 -2.90983 0.705225 5.39597e-007 
0.060634 0.429889 0.1 -2.87555 0.834062 5.39236e-007 
0.075922 0.475 -0.1 -2.78921 1.08795 5.35236e-007 
0.075922 0.475 0.1 -2.73714 1.21299 5.31598e-007 
0.096741 0.516778 -0.1 -2.61599 1.45578 5.21029e-007 
0.096741 0.516778 0.1 -2.54691 1.57352 5.14097e-007 
0.122754 0.554889 -0.1 -2.39333 1.79853 4.97079e-007 
0.122754 0.554889 0.1 -2.30883 1.90579 4.86993e-007 
0.153625 0.589 -0.1 -2.12669 2.10722 4.63952e-007 
0.153625 0.589 0.1 -2.02906 2.20139 4.50998e-007 
0.189017 0.618778 -0.1 -1.82337 2.37474 4.22612e-007 
0.189017 0.618778 0.1 -1.71532 2.45393 4.07181e-007 
0.228593 0.643889 -0.1 -1.49177 2.59615 3.74311e-007 
0.228593 0.643889 0.1 -1.37627 2.65918 3.56871e-007 
0.272016 0.664 -0.1 -1.14085 2.76864 3.20494e-007 
0.272016 0.664 0.1 -1.02093 2.81507 3.01556e-007 
0.318949 0.678778 -0.1 -0.779573 2.89153 2.62697e-007 
0.318949 0.678778 0.1 -0.658132 2.92157 2.42778e-007 
0.369056 0.687889 -0.1 -0.416454 2.96601 2.02464e-007 
0.369056 0.687889 0.1 -0.296216 2.98042 1.8207e-007 
0.422 0.691 -0.1 -0.0969624 2.99635 1.47928e-007 
0.422 0.691 0.1 -0.0179475 2.99786 1.34179e-007 
0.439533 0.690643 -0.1 0.101964 2.99771 1.13206e-007 
0.439533 0.690643 0.1 0.142861 2.99604 1.05983e-007 
0.457181 0.68956 -0.1 0.224355 2.99104 9.15153e-008 
0.457181 0.68956 0.1 0.264952 2.98772 8.42722e-008 
0.475016 0.687734 -0.1 0.345175 2.97954 6.98878e-008 
0.475016 0.687734 0.1 0.3848 2.97468 6.27469e-008 
0.493111 0.685148 -0.1 0.462523 2.96363 4.86742e-008 
0.493111 0.685148 0.1 0.500621 2.95743 4.17421e-008 
0.51154 0.681784 -0.1 0.574762 2.94397 2.81903e-008 
0.51154 0.681784 0.1 0.610807 2.9367 2.15705e-008 
0.530375 0.677625 -0.1 0.680535 2.92138 8.70914e-009 
0.530375 0.677625 0.1 0.714219 2.91333 2.46769e-009 
0.549689 0.672653 -0.1 0.77889 2.89677 -9.56372e-009 
0.549689 0.672653 0.1 0.809878 2.88826 -1.53538e-008 
0.569556 0.666852 -0.1 0.86922 2.87101 -2.64834e-008 
0.569556 0.666852 0.0999999 0.897574 2.86227 -3.18229e-008 
0.590047 0.660203 -0.1 0.951471 2.84486 -4.20075e-008 
0.590047 0.660203 0.0999999 0.977013 2.83619 -4.68525e-008 
0.611236 0.65269 -0.1 1.02545 2.81909 -5.60695e-008 
0.611236 0.65269 0.0999999 1.04835 2.81065 -6.0442e-008 
0.633196 0.644295 -0.1 1.09162 2.79417 -6.87275e-008 
0.633196 0.644295 0.0999999 1.11199 2.78613 -7.26407e-008 
0.656 0.635 -0.1 1.7549 1.85206 -2.25881e-007 
0.656 0.635 0.0999999 2.37745 0.926029 -3.75208e-007 
0.656 0.53 -0.1 1.50933 -0.871343 -3.01987e-007 
0.656 0.53 0.0999999 0.0186509 -1.74269 -7.94362e-008 
3 83 85 84 
3 83 86 85 
3 83 87 86 
3 82 87 83 
3 82 88 87 
3 82 89 88 
3 82 90 89 
3 81 90 82 
3 81 91 90 
3 81 92 91 
3 81 93 92 
3 80 93 81 
3 80 94 93 
3 80 95 94 
3 80 96 95 
3 79 96 80 
3 79 9 96 
3 9 8 96 
3 8 7 96 
3 7 6 96 
3 6 5 96 
3 5 4 96 
3 4 3 96 
3 3 2 96 
3 2 1 96 
3 1 0 96 
3 0 97 96 
3 78 11 79 
3 11 10 79 
3 10 9 79 
3 78 12 11 
3 78 13 12 
3 78 14 13 
3 77 14 78 
3 77 15 14 
3 77 16 15 
3 76 16 77 
3 76 17 16 
3 76 18 17 
3 75 18 76 
3 75 19 18 
3 74 19 75 
3 74 20 19 
3 74 21 20 
3 73 21 74 
3 73 22 21 
3 72 22 73 
3 72 23 22 
3 72 24 23 
3 71 24 72 
3 71 25 24 
3 70 25 71 
3 70 26 25 
3 69 26 70 
3 69 27 26 
3 68 27 69 
3 68 28 27 
3 67 28 68 
3 67 29 28 
3 46 48 47 
3 67 30 29 
3 45 48 46 
3 66 30 67 
3 44 48 45 
3 66 31 30 
3 43 48 44 
3 42 48 43 
3 66 32 31 
3 41 48 42 
3 65 32 66 
3 40 48 41 
3 65 33 32 
3 39 48 40 
3 38 48 39 
3 65 34 33 
3 37 48 38 
3 36 48 37 
3 65 35 34 
3 35 48 36 
3 65 48 35 
3 64 48 65 
3 64 49 48 
3 63 49 64 
3 63 50 49 
3 63 51 50 
3 63 52 51 
3 62 52 63 
3 62 53 52 
3 62 54 53 
3 62 55 54 
3 61 55 62 
3 61 56 55 
3 61 57 56 
3 61 58 57 
3 60 58 61 
3 60 59 58 
3 183 181 182 
3 184 181 183 
3 185 181 184 
3 185 180 181 
3 186 180 185 
3 187 180 186 
3 188 180 187 
3 188 179 180 
3 189 179 188 
3 190 179 189 
3 191 179 190 
3 191 178 179 
3 192 178 191 
3 193 178 192 
3 194 178 193 
3 194 177 178 
3 107 177 194 
3 106 107 194 
3 105 106 194 
3 104 105 194 
3 103 104 194 
3 102 103 194 
3 101 102 194 
3 100 101 194 
3 99 100 194 
3 98 99 194 
3 195 98 194 
3 109 176 177 
3 108 109 177 
3 107 108 177 
3 110 176 109 
3 111 176 110 
3 112 176 111 
3 112 175 176 
3 113 175 112 
3 114 175 113 
3 114 174 175 
3 115 174 114 
3 116 174 115 
3 116 173 174 
3 117 173 116 
3 117 172 173 
3 118 172 117 
3 119 172 118 
3 119 171 172 
3 120 171 119 
3 120 170 171 
3 121 170 120 
3 122 170 121 
3 122 169 170 
3 123 169 122 
3 123 168 169 
3 124 168 123 
3 124 167 168 
3 125 167 124 
3 125 166 167 
3 126 166 125 
3 126 165 166 
3 127 165 126 
3 146 144 145 
3 128 165 127 
3 146 143 144 
3 128 164 165 
3 146 142 143 
3 129 164 128 
3 146 141 142 
3 146 140 141 
3 130 164 129 
3 146 139 140 
3 130 163 164 
3 146 138 139 
3 131 163 130 
3 146 137 138 
3 146 136 137 
3 132 163 131 
3 146 135 136 
3 146 134 135 
3 133 163 132 
3 146 133 134 
3 146 163 133 
3 146 162 163 
3 147 162 146 
3 147 161 162 
3 148 161 147 
3 149 161 148 
3 150 161 149 
3 150 160 161 
3 151 160 150 
3 152 160 151 
3 153 160 152 
3 153 159 160 
3 154 159 153 
3 155 159 154 
3 156 159 155 
3 156 158 159 
3 157 158 156 
3 197 199 198 
3 197 198 196 
3 199 201 200 
3 199 200 198 
3 201 203 202 
3 201 202 200 
3 203 205 204 
3 203 204 202 
3 205 207 206 
3 205 206 204 
3 207 209 208 
3 207 208 206 
3 209 211 210 
3 209 210 208 
3 211 213 212 
3 211 212 210 
3 213 215 214 
3 213 214 212 
3 215 217 216 
3 215 216 214 
3 217 219 218 
3 217 218 216 
3 219 221 220 
3 219 220 218 
3 221 223 222 
3 221 222 220 
3 223 225 224 
3 223 224 222 
3 225 227 226 
3 225 226 224 
3 227 229 228 
3 227 228 226 
3 229 231 230 
3 229 230 228 
3 231 233 232 
3 231 232 230 
3 233 235 234 
3 233 234 232 
3 235 237 236 
3 235 236 234 
3 237 239 238 
3 237 238 236 
3 239 241 240 
3 239 240 238 
3 241 243 242 
3 241 242 240 
3 243 245 244 
3 243 244 242 
3 245 247 246 
3 245 246 244 
3 247 249 248 
3 247 248 246 
3 249 251 250 
3 249 250 248 
3 251 253 252 
3 251 252 250 
3 253 255 254 
3 253 254 252 
3 255 257 256 
3 255 256 254 
3 257 259 258 
3 257 258 256 
3 259 261 260 
3 259 260 258 
3 261 263 262 
3 261 262 260 
3 263 265 264 
3 263 264 262 
3 265 267 266 
3 265 266 264 
3 267 269 268 
3 267 268 266 
3 269 271 270 
3 269 270 268 
3 271 273 272 
3 271 272 270 
3 273 275 274 
3 273 274 272 
3 275 277 276 
3 275 276 274 
3 277 279 278 
3 277 278 276 
3 279 281 280 
3 279 280 278 
3 281 283 282 
3 281 282 280 
3 283 285 284 
3 283 284 282 
3 285 287 286 
3 285 286 284 
3 287 289 288 
3 287 288 286 
3 289 291 290 
3 289 290 288 
3 291 293 292 
3 291 292 290 
3 293 295 294 
3 293 294 292 
3 295 297 296 
3 295 296 294 
3 297 299 298 
3 297 298 296 
3 299 301 300 
3 299 300 298 
3 301 303 302 
3 301 302 300 
3 303 305 304 
3 303 304 302 
3 305 307 306 
3 305 306 304 
3 307 309 308 
3 307 308 306 
3 309 311 310 
3 309 310 308 
3 311 313 312 
3 311 312 310 
3 313 315 314 
3 313 314 312 
3 315 317 316 
3 315 316 314 
3 317 319 318 
3 317 318 316 
3 319 321 320 
3 319 320 318 
3 321 323 322 
3 321 322 320 
3 323 325 324 
3 323 324 322 
3 325 327 326 
3 325 326 324 
3 327 329 328 
3 327 328 326 
3 329 331 330 
3 329 330 328 
3 331 333 332 
3 331 332 330 
3 333 335 334 
3 333 334 332 
3 335 337 336 
3 335 336 334 
3 337 339 338 
3 337 338 336 
3 339 341 340 
3 339 340 338 
3 341 343 342 
3 341 342 340 
3 343 345 344 
3 343 344 342 
3 345 347 346 
3 345 346 344 
3 347 349 348 
3 347 348 346 
3 349 351 350 
3 349 350 348 
3 351 353 352 
3 351 352 350 
3 353 355 354 
3 353 354 352 
3 355 357 356 
3 355 356 354 
3 357 359 358 
3 357 358 356 
3 359 361 360 
3 359 360 358 
3 361 363 362 
3 361 362 360 
3 363 365 364 
3 363 364 362 
3 365 367 366 
3 365 366 364 
3 367 369 368 
3 367 368 366 
3 369 371 370 
3 369 370 368 
3 371 373 372 
3 371 372 370 
3 373 375 374 
3 373 374 372 
3 375 377 376 
3 375 376 374 
3 377 379 378 
3 377 378 376 
3 379 381 380 
3 379 380 378 
3 381 383 382 
3 381 382 380 
3 383 385 384 
3 383 384 382 
3 385 387 386 
3 385 386 384 
3 387 389 388 
3 387 388 386 
3 389 391 390 
3 389 390 388 
3 391 197 196 
3 391 196 390 
