ply
format ascii 1.0
comment VCGLIB generated
element vertex 28
property float x
property float y
property float z
property float nx
property float ny
property float nz
element face 24
property list uchar int vertex_indices
end_header
0.529 0.597 0.1 7.21028e-009 -1.80257e-009 0.041238 
0.529 0.51 0.1 1.25787e-008 -3.14469e-009 0.071942 
0.153 0.354 0.1 1.2142e-008 -3.03549e-009 0.069444 
0.529 0.198 0.1 1.25787e-008 -3.14468e-009 0.071942 
0.529 0.111 0.1 7.21028e-009 -1.80257e-009 0.041238 
0.055 0.313 0.1 1.39838e-008 -3.49595e-009 0.079978 
0.055 0.395 0.1 1.39838e-008 -3.49595e-009 0.079978 
0.529 0.597 -0.1 -7.21028e-009 1.80257e-009 -0.041238 
0.529 0.51 -0.1 -1.25787e-008 3.14468e-009 -0.071942 
0.153 0.354 -0.1 -1.2142e-008 3.03549e-009 -0.069444 
0.529 0.198 -0.1 -1.25787e-008 3.14468e-009 -0.071942 
0.529 0.111 -0.1 -7.21028e-009 1.80257e-009 -0.041238 
0.055 0.313 -0.1 -1.39838e-008 3.49595e-009 -0.079978 
0.055 0.395 -0.1 -1.39838e-008 3.49595e-009 -0.079978 
0.529 0.597 -0.1 0.215911 1.83989 4.26732e-008 
0.529 0.597 0.1 1.60796 0.919946 -2.40932e-007 
0.529 0.51 -0.1 2.38322 -0.923657 -4.5707e-007 
0.529 0.51 0.1 1.76644 -1.84731 -3.89603e-007 
0.153 0.354 -0.1 1.14966 -0.923657 -2.41387e-007 
0.153 0.354 0.1 1.14966 0.923657 -1.60638e-007 
0.529 0.198 -0.1 1.76644 1.84731 -2.28105e-007 
0.529 0.198 0.1 2.38322 0.923657 -3.76321e-007 
0.529 0.111 -0.1 1.60796 -0.919946 -3.21356e-007 
0.529 0.111 0.1 0.215911 -1.83989 -1.18175e-007 
0.055 0.313 -0.1 -1.78409 -1.83989 2.31516e-007 
0.055 0.313 0.1 -2.39204 -0.919946 3.78026e-007 
0.055 0.395 -0.1 -2.39204 0.919946 4.5845e-007 
0.055 0.395 0.1 -1.78409 1.83989 3.92364e-007 
3 6 1 0 
3 6 2 1 
3 5 2 6 
3 5 3 2 
3 4 3 5 
3 8 13 7 
3 9 13 8 
3 9 12 13 
3 10 12 9 
3 10 11 12 
3 15 17 16 
3 15 16 14 
3 17 19 18 
3 17 18 16 
3 19 21 20 
3 19 20 18 
3 21 23 22 
3 21 22 20 
3 23 25 24 
3 23 24 22 
3 25 27 26 
3 25 26 24 
3 27 15 14 
3 27 14 26 
