ply
format ascii 1.0
comment VCGLIB generated
element vertex 532
property float x
property float y
property float z
property float nx
property float ny
property float nz
element face 532
property list uchar int vertex_indices
end_header
0.154888 0.08215 0.1 9.95989e-010 -2.48997e-010 0.00569639 
0.181019 0.102032 0.1 1.82436e-009 -4.56089e-010 0.0104341 
0.205344 0.122547 0.1 9.62917e-010 -2.40729e-010 0.00550724 
0.227815 0.143593 0.1 1.75248e-009 -4.38121e-010 0.010023 
0.248383 0.165069 0.1 9.18638e-010 -2.2966e-010 0.005254 
0.267 0.186875 0.1 1.679e-009 -4.19751e-010 0.00960279 
0.283617 0.20891 0.1 8.7137e-010 -2.17843e-010 0.00498366 
0.298185 0.231074 0.1 1.61744e-009 -4.0436e-010 0.00925067 
0.310656 0.253266 0.1 1.59394e-009 -3.98485e-010 0.00911626 
0.320982 0.275384 0.1 8.11394e-010 -2.02849e-010 0.00464063 
0.329112 0.297329 0.1 1.58183e-009 -3.95457e-010 0.00904701 
0.335 0.319 0.1 1.16525e-009 -2.91312e-010 0.00666445 
0.3273 0.314648 0.1 6.46542e-010 -1.61636e-010 0.00369779 
0.319232 0.310602 0.1 2.10814e-010 -5.27036e-011 0.00120572 
0.310844 0.306875 0.1 1.92005e-010 -4.80012e-011 0.00109814 
0.302185 0.303482 0.1 3.59612e-010 -8.9903e-011 0.00205674 
0.293304 0.300435 0.1 1.05686e-010 -2.64214e-011 0.000604452 
0.28425 0.29775 0.1 9.12004e-011 -2.28001e-011 0.000521605 
0.275071 0.29544 0.1 1.43107e-010 -3.57766e-011 0.000818474 
0.265815 0.293519 0.1 3.24876e-011 -8.12189e-012 0.000185807 
0.256531 0.292 0.1 2.40924e-011 -6.02309e-012 0.000137792 
0.247269 0.290898 0.1 2.06726e-011 -5.16814e-012 0.000118233 
0.238075 0.290227 0.1 6.99774e-013 -1.74944e-013 4.00224e-006 
0.229 0.29 0.1 1.05951e-011 -2.64878e-012 6.05971e-005 
0.202515 0.291796 0.1 1.35011e-010 -3.37528e-011 0.000772175 
0.177204 0.297032 0.1 4.41996e-010 -1.10499e-010 0.00252792 
0.153281 0.305484 0.1 8.97757e-010 -2.24439e-010 0.00513457 
0.130963 0.316926 0.1 1.05056e-009 -2.6264e-010 0.00600851 
0.110464 0.331131 0.1 1.52589e-009 -3.81472e-010 0.00872707 
0.092 0.347875 0.1 4.79264e-009 -1.19816e-009 0.0274107 
0.075786 0.366931 0.1 3.32904e-009 -8.32258e-010 0.0190399 
0.062037 0.388074 0.1 1.56307e-009 -3.90767e-010 0.0089397 
0.050969 0.411078 0.1 1.39339e-009 -3.48348e-010 0.00796928 
0.042796 0.435718 0.1 1.62616e-009 -4.0654e-010 0.00930054 
0.037735 0.461767 0.1 1.16893e-009 -2.92234e-010 0.00668553 
0.036 0.489 0.1 1.41029e-009 -3.52573e-010 0.00806593 
0.037686 0.514192 0.1 1.35328e-009 -3.3832e-010 0.00773986 
0.042657 0.539032 0.1 1.31863e-009 -3.29658e-010 0.0075417 
0.050781 0.563172 0.1 1.47195e-009 -3.67989e-010 0.0084186 
0.061926 0.586259 0.1 1.41078e-009 -3.52695e-010 0.00806872 
0.075959 0.607944 0.1 3.38863e-009 -8.47159e-010 0.0193807 
0.09275 0.627875 0.1 3.02275e-009 -7.55688e-010 0.0172881 
0.112166 0.645702 0.1 2.25174e-009 -5.62933e-010 0.0128784 
0.134074 0.661074 0.1 1.52428e-009 -3.81071e-010 0.00871788 
0.158344 0.673641 0.1 8.87681e-010 -2.2192e-010 0.00507694 
0.184843 0.683051 0.1 3.91397e-010 -9.78495e-011 0.00223853 
0.213439 0.688954 0.1 8.64582e-011 -2.16146e-011 0.000494483 
0.244 0.691 0.1 2.25806e-011 -5.64515e-012 0.000129146 
0.274738 0.688832 0.1 2.15602e-010 -5.39006e-011 0.0012331 
0.303824 0.682486 0.1 6.3121e-010 -1.57802e-010 0.0036101 
0.331063 0.672203 0.1 1.21988e-009 -3.04969e-010 0.00697687 
0.356259 0.658222 0.1 1.9332e-009 -4.833e-010 0.0110566 
0.37922 0.640783 0.1 2.72468e-009 -6.81172e-010 0.0155834 
0.39975 0.620125 0.1 3.54996e-009 -8.87489e-010 0.0203034 
0.417655 0.596488 0.1 2.41136e-009 -6.02842e-010 0.0137914 
0.432741 0.570111 0.1 1.83766e-009 -4.59416e-010 0.0105102 
0.444813 0.541234 0.1 1.55846e-009 -3.89614e-010 0.00891334 
0.453676 0.510097 0.1 1.62363e-009 -4.05909e-010 0.00928611 
0.459137 0.476939 0.1 1.72664e-009 -4.31661e-010 0.00987524 
0.461 0.442 0.1 1.95467e-009 -4.88668e-010 0.0111794 
0.458664 0.400336 0.1 2.68054e-009 -6.70133e-010 0.0153309 
0.451815 0.358107 0.1 7.03673e-009 -1.75918e-009 0.0402454 
0.440688 0.315703 0.1 4.83758e-009 -1.2094e-009 0.0276677 
0.425519 0.273519 0.1 2.35336e-009 -5.8834e-010 0.0134597 
0.406544 0.231945 0.1 1.95151e-009 -4.87878e-010 0.0111613 
0.384 0.191375 0.1 2.4176e-009 -6.044e-010 0.0138271 
0.358123 0.152201 0.1 2.50784e-009 -6.26961e-010 0.0143432 
0.329148 0.114815 0.1 2.61178e-009 -6.52943e-010 0.0149376 
0.297313 0.079609 0.1 2.70832e-009 -6.77079e-010 0.0154898 
0.262852 0.046977 0.1 2.44658e-009 -6.11645e-010 0.0139928 
0.226002 0.01731 0.1 3.2792e-011 -8.19798e-012 0.000187548 
0.187 -0.009 0.1 1.57492e-009 -3.93731e-010 0.00900751 
0.127 0.063 0.1 2.90306e-009 -7.25765e-010 0.0166036 
0.257451 0.383231 0.1 9.8889e-011 -2.47222e-011 0.000565579 
0.265278 0.383935 0.1 1.33964e-010 -3.34911e-011 0.000766187 
0.273437 0.385125 0.1 1.68293e-010 -4.20733e-011 0.000962526 
0.281889 0.386815 0.1 2.01792e-010 -5.04482e-011 0.00115412 
0.29059 0.389019 0.1 2.343e-010 -5.85748e-011 0.00134004 
0.2995 0.39175 0.1 2.65696e-010 -6.64238e-011 0.0015196 
0.308576 0.395023 0.1 2.95844e-010 -7.39611e-011 0.00169203 
0.317778 0.398852 0.1 1.29968e-009 -3.24921e-010 0.00743332 
0.327062 0.40325 0.1 2.25294e-010 -5.63233e-011 0.00128853 
0.336389 0.408231 0.1 2.51514e-010 -6.28784e-011 0.00143849 
0.345715 0.41381 0.1 2.76266e-010 -6.90667e-011 0.00158006 
0.355 0.42 0.1 2.53176e-010 -6.32942e-011 0.001448 
0.356149 0.425799 0.1 2.10617e-010 -5.26542e-011 0.00120459 
0.357107 0.431227 0.1 1.96369e-010 -4.90924e-011 0.0011231 
0.357891 0.436328 0.1 1.83691e-010 -4.59228e-011 0.00105059 
0.358519 0.441148 0.1 9.17146e-010 -2.29287e-010 0.00524546 
0.359008 0.445732 0.1 1.60644e-010 -4.0161e-011 0.000918776 
0.359375 0.450125 0.1 1.54416e-010 -3.86041e-011 0.000883158 
0.359638 0.454372 0.1 1.49716e-010 -3.7429e-011 0.000856277 
0.359815 0.458519 0.1 1.46547e-010 -3.66368e-011 0.000838152 
0.359922 0.462609 0.1 1.4499e-010 -3.62475e-011 0.000829246 
0.359977 0.46669 0.1 1.45093e-010 -3.62733e-011 0.000829836 
0.359997 0.470805 0.1 1.4687e-010 -3.67174e-011 0.000839997 
0.36 0.475 0.1 9.62982e-010 -2.40746e-010 0.00550762 
0.35896 0.491285 0.1 5.5078e-010 -1.37695e-010 0.00315009 
0.355931 0.507028 0.1 1.09732e-009 -2.74329e-010 0.00627591 
0.351047 0.522062 0.1 4.99832e-010 -1.24958e-010 0.00285871 
0.344444 0.536222 0.1 1.03185e-009 -2.57963e-010 0.0059015 
0.336259 0.54934 0.1 4.49782e-010 -1.12445e-010 0.00257245 
0.326625 0.56125 0.1 9.79306e-010 -2.44827e-010 0.00560098 
0.315679 0.571785 0.1 3.92943e-010 -9.82358e-011 0.00224737 
0.303556 0.580778 0.1 3.20514e-010 -8.01286e-011 0.00183313 
0.290391 0.588063 0.1 2.30452e-010 -5.7613e-011 0.00131803 
0.276319 0.593472 0.1 8.41298e-010 -2.10324e-010 0.00481166 
0.261477 0.59684 0.1 1.2178e-010 -3.04449e-011 0.000696499 
0.246 0.598 0.1 3.39204e-010 -8.48009e-011 0.00194002 
0.230142 0.597078 0.1 7.17342e-010 -1.79336e-010 0.00410272 
0.215134 0.594375 0.1 1.4879e-010 -3.71974e-011 0.000850978 
0.201078 0.589984 0.1 2.34802e-010 -5.87003e-011 0.00134291 
0.188074 0.584 0.1 7.87238e-010 -1.96809e-010 0.00450248 
0.176223 0.576516 0.1 3.06776e-010 -7.6694e-011 0.00175455 
0.165625 0.567625 0.1 3.67958e-010 -9.19895e-011 0.00210447 
0.156381 0.557422 0.1 8.53634e-010 -2.13409e-010 0.00488222 
0.148593 0.546 0.1 4.2688e-010 -1.0672e-010 0.00244147 
0.142359 0.533453 0.1 8.95762e-010 -2.23941e-010 0.00512316 
0.137782 0.519875 0.1 4.84332e-010 -1.21083e-010 0.00277006 
0.134962 0.505359 0.1 9.45329e-010 -2.36332e-010 0.00540665 
0.134 0.49 0.1 5.1163e-010 -1.27907e-010 0.00292618 
0.13506 0.475501 0.1 9.60381e-010 -2.40095e-010 0.00549274 
0.138148 0.461588 0.1 9.4388e-010 -2.3597e-010 0.00539836 
0.143125 0.448391 0.1 4.74152e-010 -1.18538e-010 0.00271183 
0.149852 0.436037 0.1 4.45118e-010 -1.11279e-010 0.00254578 
0.15819 0.424656 0.1 9.10858e-010 -2.27715e-010 0.0052095 
0.168 0.414375 0.1 4.07658e-010 -1.01914e-010 0.00233153 
0.179144 0.405324 0.1 8.90782e-010 -2.22695e-010 0.00509468 
0.191481 0.39763 0.1 3.57632e-010 -8.9408e-011 0.00204542 
0.204875 0.391422 0.1 2.85968e-010 -7.14921e-011 0.00163555 
0.219185 0.386829 0.1 8.2498e-010 -2.06245e-010 0.00471834 
0.234273 0.383979 0.1 1.97957e-010 -4.94892e-011 0.00113218 
0.25 0.383 0.1 1.43986e-009 -3.59965e-010 0.00823505 
0.154888 0.08215 -0.1 -9.95989e-010 2.48997e-010 -0.00569639 
0.181019 0.102032 -0.1 -1.82436e-009 4.56089e-010 -0.0104341 
0.205344 0.122547 -0.1 -9.62917e-010 2.40729e-010 -0.00550724 
0.227815 0.143593 -0.1 -1.75248e-009 4.38121e-010 -0.010023 
0.248383 0.165069 -0.1 -9.18638e-010 2.2966e-010 -0.005254 
0.267 0.186875 -0.1 -1.679e-009 4.19751e-010 -0.00960279 
0.283617 0.20891 -0.1 -8.7137e-010 2.17843e-010 -0.00498366 
0.298185 0.231074 -0.1 -1.61744e-009 4.0436e-010 -0.00925067 
0.310656 0.253266 -0.1 -1.59394e-009 3.98485e-010 -0.00911626 
0.320982 0.275384 -0.1 -8.11394e-010 2.02849e-010 -0.00464063 
0.329112 0.297329 -0.1 -1.58183e-009 3.95457e-010 -0.00904701 
0.335 0.319 -0.1 -1.16525e-009 2.91312e-010 -0.00666445 
0.3273 0.314648 -0.1 -6.46542e-010 1.61636e-010 -0.00369779 
0.319232 0.310602 -0.1 -2.10814e-010 5.27036e-011 -0.00120572 
0.310844 0.306875 -0.1 -1.92005e-010 4.80012e-011 -0.00109814 
0.302185 0.303482 -0.1 -3.59612e-010 8.9903e-011 -0.00205674 
0.293304 0.300435 -0.1 -1.05686e-010 2.64214e-011 -0.000604452 
0.28425 0.29775 -0.1 -9.12004e-011 2.28001e-011 -0.000521605 
0.275071 0.29544 -0.1 -1.43107e-010 3.57766e-011 -0.000818474 
0.265815 0.293519 -0.1 -3.24876e-011 8.12189e-012 -0.000185807 
0.256531 0.292 -0.1 -2.40924e-011 6.02309e-012 -0.000137792 
0.247269 0.290898 -0.1 -2.06726e-011 5.16814e-012 -0.000118233 
0.238075 0.290227 -0.1 -6.99774e-013 1.74944e-013 -4.00224e-006 
0.229 0.29 -0.1 -1.05951e-011 2.64878e-012 -6.05971e-005 
0.202515 0.291796 -0.1 -1.35011e-010 3.37528e-011 -0.000772175 
0.177204 0.297032 -0.1 -4.41996e-010 1.10499e-010 -0.00252792 
0.153281 0.305484 -0.1 -8.97757e-010 2.24439e-010 -0.00513457 
0.130963 0.316926 -0.1 -1.05056e-009 2.6264e-010 -0.00600851 
0.110464 0.331131 -0.1 -1.52589e-009 3.81472e-010 -0.00872707 
0.092 0.347875 -0.1 -4.79264e-009 1.19816e-009 -0.0274107 
0.075786 0.366931 -0.1 -3.32904e-009 8.32258e-010 -0.0190399 
0.062037 0.388074 -0.1 -1.56307e-009 3.90767e-010 -0.0089397 
0.050969 0.411078 -0.1 -1.39339e-009 3.48348e-010 -0.00796928 
0.042796 0.435718 -0.1 -1.62616e-009 4.0654e-010 -0.00930054 
0.037735 0.461767 -0.1 -1.16893e-009 2.92234e-010 -0.00668553 
0.036 0.489 -0.1 -1.41029e-009 3.52573e-010 -0.00806593 
0.037686 0.514192 -0.1 -1.35328e-009 3.3832e-010 -0.00773986 
0.042657 0.539032 -0.1 -1.31863e-009 3.29658e-010 -0.0075417 
0.050781 0.563172 -0.1 -1.47195e-009 3.67989e-010 -0.0084186 
0.061926 0.586259 -0.1 -1.41078e-009 3.52695e-010 -0.00806872 
0.075959 0.607944 -0.1 -3.38863e-009 8.47159e-010 -0.0193807 
0.09275 0.627875 -0.1 -3.02275e-009 7.55688e-010 -0.0172881 
0.112166 0.645702 -0.1 -2.25174e-009 5.62933e-010 -0.0128784 
0.134074 0.661074 -0.1 -1.52428e-009 3.81071e-010 -0.00871788 
0.158344 0.673641 -0.1 -8.87681e-010 2.2192e-010 -0.00507694 
0.184843 0.683051 -0.1 -3.91397e-010 9.78495e-011 -0.00223853 
0.213439 0.688954 -0.1 -8.64582e-011 2.16146e-011 -0.000494483 
0.244 0.691 -0.1 -2.25806e-011 5.64515e-012 -0.000129146 
0.274738 0.688832 -0.1 -2.15602e-010 5.39006e-011 -0.0012331 
0.303824 0.682486 -0.1 -6.3121e-010 1.57802e-010 -0.0036101 
0.331063 0.672203 -0.1 -1.21988e-009 3.04969e-010 -0.00697687 
0.356259 0.658222 -0.1 -1.9332e-009 4.833e-010 -0.0110566 
0.37922 0.640783 -0.1 -2.72468e-009 6.81172e-010 -0.0155834 
0.39975 0.620125 -0.1 -3.54996e-009 8.87489e-010 -0.0203034 
0.417655 0.596488 -0.1 -2.41136e-009 6.02842e-010 -0.0137914 
0.432741 0.570111 -0.1 -1.83766e-009 4.59416e-010 -0.0105102 
0.444813 0.541234 -0.1 -1.55846e-009 3.89614e-010 -0.00891334 
0.453676 0.510097 -0.1 -1.62363e-009 4.05909e-010 -0.00928611 
0.459137 0.476939 -0.1 -1.72664e-009 4.31661e-010 -0.00987524 
0.461 0.442 -0.1 -1.95467e-009 4.88668e-010 -0.0111794 
0.458664 0.400336 -0.1 -2.68054e-009 6.70133e-010 -0.0153309 
0.451815 0.358107 -0.1 -7.03673e-009 1.75918e-009 -0.0402454 
0.440688 0.315703 -0.1 -4.83758e-009 1.2094e-009 -0.0276677 
0.425519 0.273519 -0.1 -2.35336e-009 5.8834e-010 -0.0134597 
0.406544 0.231945 -0.1 -1.95151e-009 4.87878e-010 -0.0111613 
0.384 0.191375 -0.1 -2.4176e-009 6.044e-010 -0.0138271 
0.358123 0.152201 -0.1 -2.50784e-009 6.26961e-010 -0.0143432 
0.329148 0.114815 -0.1 -2.61178e-009 6.52943e-010 -0.0149376 
0.297313 0.079609 -0.1 -2.70832e-009 6.77079e-010 -0.0154898 
0.262852 0.046977 -0.1 -2.44658e-009 6.11645e-010 -0.0139928 
0.226002 0.01731 -0.1 -3.2792e-011 8.19798e-012 -0.000187548 
0.187 -0.00899999 -0.1 -1.57492e-009 3.93731e-010 -0.00900751 
0.127 0.063 -0.1 -2.90306e-009 7.25765e-010 -0.0166036 
0.257451 0.383231 -0.1 -9.8889e-011 2.47223e-011 -0.000565579 
0.265278 0.383935 -0.1 -1.33964e-010 3.34911e-011 -0.000766187 
0.273437 0.385125 -0.1 -1.68293e-010 4.20733e-011 -0.000962526 
0.281889 0.386815 -0.1 -2.01792e-010 5.04482e-011 -0.00115412 
0.29059 0.389019 -0.1 -2.343e-010 5.85748e-011 -0.00134004 
0.2995 0.39175 -0.1 -2.65696e-010 6.64238e-011 -0.0015196 
0.308576 0.395023 -0.1 -2.95844e-010 7.39611e-011 -0.00169203 
0.317778 0.398852 -0.1 -1.29968e-009 3.24921e-010 -0.00743332 
0.327062 0.40325 -0.1 -2.25294e-010 5.63233e-011 -0.00128853 
0.336389 0.408231 -0.1 -2.51514e-010 6.28784e-011 -0.00143849 
0.345715 0.41381 -0.1 -2.76266e-010 6.90667e-011 -0.00158006 
0.355 0.42 -0.1 -2.53176e-010 6.32942e-011 -0.001448 
0.356149 0.425799 -0.1 -2.10617e-010 5.26542e-011 -0.00120459 
0.357107 0.431227 -0.1 -1.96369e-010 4.90924e-011 -0.0011231 
0.357891 0.436328 -0.1 -1.83691e-010 4.59228e-011 -0.00105059 
0.358519 0.441148 -0.1 -9.17146e-010 2.29287e-010 -0.00524546 
0.359008 0.445732 -0.1 -1.60644e-010 4.0161e-011 -0.000918776 
0.359375 0.450125 -0.1 -1.54416e-010 3.86041e-011 -0.000883158 
0.359638 0.454372 -0.1 -1.49716e-010 3.7429e-011 -0.000856277 
0.359815 0.458519 -0.1 -1.46547e-010 3.66368e-011 -0.000838152 
0.359922 0.462609 -0.1 -1.4499e-010 3.62475e-011 -0.000829246 
0.359977 0.46669 -0.1 -1.45093e-010 3.62733e-011 -0.000829836 
0.359997 0.470805 -0.1 -1.4687e-010 3.67174e-011 -0.000839997 
0.36 0.475 -0.1 -9.62982e-010 2.40746e-010 -0.00550762 
0.35896 0.491285 -0.1 -5.5078e-010 1.37695e-010 -0.00315009 
0.355931 0.507028 -0.1 -1.09732e-009 2.74329e-010 -0.00627591 
0.351047 0.522062 -0.1 -4.99832e-010 1.24958e-010 -0.00285871 
0.344444 0.536222 -0.1 -1.03185e-009 2.57963e-010 -0.0059015 
0.336259 0.54934 -0.1 -4.49782e-010 1.12445e-010 -0.00257245 
0.326625 0.56125 -0.1 -9.79306e-010 2.44827e-010 -0.00560098 
0.315679 0.571785 -0.1 -3.92943e-010 9.82358e-011 -0.00224737 
0.303556 0.580778 -0.1 -3.20514e-010 8.01286e-011 -0.00183313 
0.290391 0.588063 -0.1 -2.30452e-010 5.7613e-011 -0.00131803 
0.276319 0.593472 -0.1 -8.41298e-010 2.10324e-010 -0.00481166 
0.261477 0.59684 -0.1 -1.2178e-010 3.04449e-011 -0.000696499 
0.246 0.598 -0.1 -3.39204e-010 8.48009e-011 -0.00194002 
0.230142 0.597078 -0.1 -7.17342e-010 1.79336e-010 -0.00410272 
0.215134 0.594375 -0.1 -1.4879e-010 3.71974e-011 -0.000850978 
0.201078 0.589984 -0.1 -2.34802e-010 5.87003e-011 -0.00134291 
0.188074 0.584 -0.1 -7.87238e-010 1.96809e-010 -0.00450248 
0.176223 0.576516 -0.1 -3.06776e-010 7.6694e-011 -0.00175455 
0.165625 0.567625 -0.1 -3.67958e-010 9.19895e-011 -0.00210447 
0.156381 0.557422 -0.1 -8.53634e-010 2.13409e-010 -0.00488222 
0.148593 0.546 -0.1 -4.2688e-010 1.0672e-010 -0.00244147 
0.142359 0.533453 -0.1 -8.95762e-010 2.23941e-010 -0.00512316 
0.137782 0.519875 -0.1 -4.84332e-010 1.21083e-010 -0.00277006 
0.134962 0.505359 -0.1 -9.45329e-010 2.36332e-010 -0.00540665 
0.134 0.49 -0.1 -5.1163e-010 1.27907e-010 -0.00292618 
0.13506 0.475501 -0.1 -9.60381e-010 2.40095e-010 -0.00549274 
0.138148 0.461588 -0.1 -9.4388e-010 2.3597e-010 -0.00539836 
0.143125 0.448391 -0.1 -4.74152e-010 1.18538e-010 -0.00271183 
0.149852 0.436037 -0.1 -4.45118e-010 1.11279e-010 -0.00254578 
0.15819 0.424656 -0.1 -9.10858e-010 2.27715e-010 -0.0052095 
0.168 0.414375 -0.1 -4.07658e-010 1.01914e-010 -0.00233153 
0.179144 0.405324 -0.1 -8.90782e-010 2.22695e-010 -0.00509468 
0.191481 0.39763 -0.1 -3.57632e-010 8.9408e-011 -0.00204542 
0.204875 0.391422 -0.1 -2.85968e-010 7.14921e-011 -0.00163555 
0.219185 0.386829 -0.1 -8.2498e-010 2.06245e-010 -0.00471834 
0.234273 0.383979 -0.1 -1.97957e-010 4.94892e-011 -0.00113218 
0.25 0.383 -0.1 -1.43986e-009 3.59965e-010 -0.00823505 
0.154888 0.08215 -0.1 -1.73765 2.44455 4.10675e-007 
0.154888 0.08215 0.1 -1.7771 2.41602 4.16326e-007 
0.181019 0.102032 -0.1 -1.85573 2.3561 4.27455e-007 
0.181019 0.102032 0.1 -1.89492 2.3247 4.32934e-007 
0.205344 0.122547 -0.1 -1.97299 2.25874 4.43701e-007 
0.205344 0.122547 0.1 -2.01187 2.22417 4.48988e-007 
0.227815 0.143593 -0.1 -2.08938 2.15142 4.5936e-007 
0.227815 0.143593 0.1 -2.128 2.11322 4.64444e-007 
0.248383 0.165069 -0.1 -2.20495 2.03265 4.74376e-007 
0.248383 0.165069 0.1 -2.24327 1.99028 4.79224e-007 
0.267 0.186875 -0.1 -2.31947 1.90071 4.88633e-007 
0.267 0.186875 0.1 -2.35737 1.85351 4.93195e-007 
0.283617 0.20891 -0.1 -2.43249 1.75346 5.01956e-007 
0.283617 0.20891 0.1 -2.46972 1.70062 5.06157e-007 
0.298185 0.231074 -0.1 -2.54308 1.58842 5.14078e-007 
0.298185 0.231074 0.1 -2.57921 1.52907 5.17801e-007 
0.310656 0.253266 -0.1 -2.64967 1.40284 5.24603e-007 
0.310656 0.253266 0.1 -2.68401 1.33596 5.27684e-007 
0.320982 0.275384 -0.1 -2.74995 1.19345 5.32984e-007 
0.320982 0.275384 0.1 -2.78155 1.11782 5.35204e-007 
0.329112 0.297329 -0.1 -2.84045 0.956989 5.38471e-007 
0.329112 0.297329 0.1 -2.86775 0.871787 5.3952e-007 
0.335 0.319 -0.1 -1.43799 -0.346181 2.36294e-007 
0.335 0.319 0.1 0.0190707 -1.47895 -6.79812e-008 
0.3273 0.314648 -0.1 1.43236 -2.63504 -3.65623e-007 
0.3273 0.314648 0.1 1.38859 -2.65836 -3.58989e-007 
0.319232 0.310602 -0.1 1.3026 -2.70164 -3.45846e-007 
0.319232 0.310602 0.1 1.26037 -2.7216 -3.39335e-007 
0.310844 0.306875 -0.1 1.17694 -2.75877 -3.26372e-007 
0.310844 0.306875 0.1 1.13572 -2.77599 -3.19919e-007 
0.302185 0.303482 -0.1 1.05419 -2.80802 -3.07063e-007 
0.302185 0.303482 0.1 1.01388 -2.82283 -3.00662e-007 
0.293304 0.300435 -0.1 0.93336 -2.85049 -2.87793e-007 
0.293304 0.300435 0.1 0.893155 -2.86334 -2.81325e-007 
0.28425 0.29775 -0.1 0.812685 -2.88722 -2.68299e-007 
0.28425 0.29775 0.1 0.772421 -2.89825 -2.61741e-007 
0.275071 0.29544 -0.1 0.691316 -2.91866 -2.48452e-007 
0.275071 0.29544 0.1 0.650473 -2.92803 -2.41721e-007 
0.265815 0.293519 -0.1 0.567888 -2.94515 -2.28029e-007 
0.265815 0.293519 0.1 0.526145 -2.95289 -2.21069e-007 
0.256531 0.292 -0.1 0.441082 -2.96675 -2.06803e-007 
0.256531 0.292 0.1 0.397763 -2.97287 -1.99496e-007 
0.247269 0.290898 -0.1 0.309084 -2.98334 -1.84448e-007 
0.247269 0.290898 0.1 0.263725 -2.98769 -1.76708e-007 
0.238075 0.290227 -0.1 0.170584 -2.99438 -1.60715e-007 
0.238075 0.290227 0.1 0.122802 -2.99672 -1.52463e-007 
0.229 0.29 -0.1 -0.017644 -2.99708 -1.27922e-007 
0.229 0.29 0.1 -0.110307 -2.9951 -1.11634e-007 
0.202515 0.291796 -0.1 -0.337891 -2.97468 -7.09486e-008 
0.202515 0.291796 0.1 -0.472812 -2.95624 -4.65524e-008 
0.177204 0.297032 -0.1 -0.738276 -2.90142 2.25933e-009 
0.177204 0.297032 0.1 -0.86882 -2.86503 2.66747e-008 
0.153281 0.305484 -0.1 -1.12246 -2.77564 7.49303e-008 
0.153281 0.305484 0.1 -1.24556 -2.72262 9.87708e-008 
0.130963 0.316926 -0.1 -1.48201 -2.60168 1.454e-007 
0.130963 0.316926 0.1 -1.59536 -2.53375 1.68188e-007 
0.110464 0.331131 -0.1 -1.81091 -2.38465 2.12393e-007 
0.110464 0.331131 0.1 -1.9131 -2.30348 2.33809e-007 
0.092 0.347875 -0.1 -2.10514 -2.12956 2.74988e-007 
0.092 0.347875 0.1 -2.19499 -2.03683 2.94752e-007 
0.075786 0.366931 -0.1 -2.36157 -1.84121 3.32428e-007 
0.075786 0.366931 0.1 -2.43828 -1.73834 3.50337e-007 
0.062037 0.388074 -0.1 -2.57779 -1.52387 3.84105e-007 
0.062037 0.388074 0.1 -2.64058 -1.41228 3.99961e-007 
0.050969 0.411078 -0.1 -2.7514 -1.18195 4.29405e-007 
0.050969 0.411078 0.1 -2.79942 -1.06322 4.42991e-007 
0.042796 0.435718 -0.1 -2.87994 -0.82038 4.67684e-007 
0.042796 0.435718 0.1 -2.91244 -0.696272 4.78792e-007 
0.037735 0.461767 -0.1 -2.96126 -0.445024 4.98311e-007 
0.037735 0.461767 0.1 -2.9776 -0.317883 5.06725e-007 
0.036 0.489 -0.1 -2.99372 -0.0603845 5.20799e-007 
0.036 0.489 0.1 -2.99351 0.0699729 5.26461e-007 
0.037686 0.514192 -0.1 -2.97609 0.329783 5.34772e-007 
0.037686 0.514192 0.1 -2.95888 0.459237 5.37421e-007 
0.042657 0.539032 -0.1 -2.90888 0.711419 5.39702e-007 
0.042657 0.539032 0.1 -2.87609 0.834148 5.39334e-007 
0.050781 0.563172 -0.1 -2.7961 1.07265 5.35773e-007 
0.050781 0.563172 0.1 -2.74889 1.18843 5.32579e-007 
0.061926 0.586259 -0.1 -2.64066 1.41276 5.23462e-007 
0.061926 0.586259 0.1 -2.57964 1.52132 5.17538e-007 
0.075959 0.607944 -0.1 -2.44386 1.73088 5.02958e-007 
0.075959 0.607944 0.1 -2.3691 1.83188 4.943e-007 
0.09275 0.627875 -0.1 -2.20588 2.02519 4.74212e-007 
0.09275 0.627875 0.1 -2.11742 2.1175 4.62781e-007 
0.112166 0.645702 -0.1 -1.92702 2.2918 4.37108e-007 
0.112166 0.645702 0.1 -1.82507 2.37379 4.22867e-007 
0.134074 0.661074 -0.1 -1.60856 2.5252 3.9163e-007 
0.134074 0.661074 0.1 -1.494 2.59462 3.74635e-007 
0.158344 0.673641 -0.1 -1.25426 2.71838 3.38126e-007 
0.158344 0.673641 0.1 -1.12908 2.77271 3.18614e-007 
0.184843 0.683051 -0.1 -0.871433 2.86405 2.77558e-007 
0.184843 0.683051 0.1 -0.738964 2.90105 2.56013e-007 
0.213439 0.688954 -0.1 -0.471129 2.95647 2.11606e-007 
0.213439 0.688954 0.1 -0.335762 2.97488 1.88743e-007 
0.244 0.691 -0.1 -0.0632396 2.99305 1.41888e-007 
0.244 0.691 0.1 0.0739153 2.99281 1.17896e-007 
0.274738 0.688832 -0.1 0.353879 2.97206 6.80387e-008 
0.274738 0.688832 0.1 0.496688 2.95155 4.21729e-008 
0.303824 0.682486 -0.1 0.779512 2.88959 -9.9864e-009 
0.303824 0.682486 0.1 0.919528 2.84813 -3.62799e-008 
0.331063 0.672203 -0.1 1.19156 2.74551 -8.83288e-008 
0.331063 0.672203 0.1 1.32358 2.68436 -1.14085e-007 
0.356259 0.658222 -0.1 1.57523 2.54516 -1.64169e-007 
0.356259 0.658222 0.1 1.69486 2.46711 -1.88498e-007 
0.37922 0.640783 -0.1 1.91897 2.29761 -2.35091e-007 
0.37922 0.640783 0.1 2.02344 2.20616 -2.57355e-007 
0.39975 0.620125 -0.1 2.21572 2.01363 -2.9939e-007 
0.39975 0.620125 0.1 2.30354 1.91254 -3.19164e-007 
0.417655 0.596488 -0.1 2.4623 1.70411 -3.56033e-007 
0.417655 0.596488 0.1 2.53323 1.59676 -3.73127e-007 
0.432741 0.570111 -0.1 2.65873 1.37865 -4.04605e-007 
0.432741 0.570111 0.1 2.7133 1.26788 -4.18987e-007 
0.444813 0.541234 -0.1 2.80704 1.04518 -4.45112e-007 
0.444813 0.541234 0.1 2.84621 0.933242 -4.56855e-007 
0.453676 0.510097 -0.1 2.9103 0.710047 -4.77815e-007 
0.453676 0.510097 0.1 2.93521 0.598784 -4.87035e-007 
0.459137 0.476939 -0.1 2.972 0.37826 -5.03106e-007 
0.459137 0.476939 0.1 2.98387 0.268999 -5.09958e-007 
0.461 0.442 -0.1 2.99559 0.0505124 -5.21558e-007 
0.461 0.442 0.1 2.99545 -0.0587132 -5.26308e-007 
0.458664 0.400336 -0.1 2.98397 -0.272054 -5.33625e-007 
0.458664 0.400336 0.1 2.97263 -0.37617 -5.36195e-007 
0.451815 0.358107 -0.1 2.94146 -0.574002 -5.39392e-007 
0.451815 0.358107 0.1 2.92161 -0.667718 -5.40017e-007 
0.440688 0.315703 -0.1 2.87552 -0.846003 -5.39752e-007 
0.440688 0.315703 0.1 2.84927 -0.930571 -5.38859e-007 
0.425519 0.273519 -0.1 2.79174 -1.09197 -5.35856e-007 
0.425519 0.273519 0.1 2.76046 -1.1688 -5.33744e-007 
0.406544 0.231945 -0.1 2.69356 -1.31615 -5.28487e-007 
0.406544 0.231945 0.1 2.65795 -1.38667 -5.25343e-007 
0.384 0.191375 -0.1 2.58261 -1.52263 -5.18114e-007 
0.384 0.191375 0.1 2.5429 -1.58807 -5.14031e-007 
0.358123 0.152201 -0.1 2.45919 -1.71492 -5.0494e-007 
0.358123 0.152201 0.1 2.4152 -1.77634 -4.99933e-007 
0.329148 0.114815 -0.1 2.32254 -1.89587 -4.88957e-007 
0.329148 0.114815 0.1 2.27386 -1.95399 -4.82986e-007 
0.297313 0.079609 -0.1 2.17103 -2.06752 -4.69968e-007 
0.297313 0.079609 0.1 2.11688 -2.12293 -4.62923e-007 
0.262852 0.046977 -0.1 2.00225 -2.23116 -4.47612e-007 
0.262852 0.046977 0.1 1.94178 -2.28399 -4.39348e-007 
0.226002 0.01731 -0.1 1.81344 -2.38688 -4.21406e-007 
0.226002 0.01731 0.1 1.74557 -2.43696 -4.11728e-007 
0.187 -0.00899999 -0.1 0.350247 -2.2982 -1.61697e-007 
0.187 -0.009 0.1 -0.977208 -2.10938 7.86566e-008 
0.127 0.063 -0.1 -2.10251 -0.45601 3.47681e-007 
0.127 0.063 0.1 -1.90036 1.00853 3.76354e-007 
0.257451 0.383231 -0.1 -0.151565 2.99502 1.57417e-007 
0.257451 0.383231 0.1 -0.210155 2.99148 1.67506e-007 
0.265278 0.383935 -0.1 -0.323489 2.98149 1.86885e-007 
0.265278 0.383935 0.1 -0.378233 2.97504 1.96175e-007 
0.273437 0.385125 -0.1 -0.484722 2.95965 2.14122e-007 
0.273437 0.385125 0.1 -0.536468 2.95071 2.22779e-007 
0.281889 0.386815 -0.1 -0.637692 2.93056 2.39597e-007 
0.281889 0.386815 0.1 -0.68717 2.91936 2.47757e-007 
0.29059 0.389019 -0.1 -0.784151 2.89486 2.63644e-007 
0.29059 0.389019 0.1 -0.831654 2.88158 2.71368e-007 
0.2995 0.39175 -0.1 -0.92534 2.85289 2.86496e-007 
0.2995 0.39175 0.1 -0.971523 2.8375 2.93897e-007 
0.308576 0.395023 -0.1 -1.06264 2.80466 3.08394e-007 
0.308576 0.395023 0.1 -1.10758 2.78722 3.15489e-007 
0.317778 0.398852 -0.1 -1.19646 2.75025 3.29413e-007 
0.317778 0.398852 0.1 -1.2404 2.73071 3.36241e-007 
0.327062 0.40325 -0.1 -1.3273 2.68955 3.49636e-007 
0.327062 0.40325 0.1 -1.37026 2.66791 3.56202e-007 
0.336389 0.408231 -0.1 -1.45552 2.62235 3.69118e-007 
0.336389 0.408231 0.1 -1.49782 2.59842 3.75468e-007 
0.345715 0.41381 -0.1 -1.58145 2.54838 3.87903e-007 
0.345715 0.41381 0.1 -1.62277 2.52227 3.93986e-007 
0.355 0.42 -0.1 -2.09033 1.85846 4.4672e-007 
0.355 0.42 0.1 -2.51656 1.22077 4.93371e-007 
0.356149 0.425799 -0.1 -2.94664 0.562527 5.39795e-007 
0.356149 0.425799 0.1 -2.95049 0.54198 5.39571e-007 
0.357107 0.431227 -0.1 -2.95795 0.49953 5.3902e-007 
0.357107 0.431227 0.1 -2.96157 0.477627 5.38695e-007 
0.357891 0.436328 -0.1 -2.96841 0.433013 5.37941e-007 
0.357891 0.436328 0.1 -2.97163 0.410302 5.37511e-007 
0.358519 0.441148 -0.1 -2.9776 0.364473 5.36551e-007 
0.358519 0.441148 0.1 -2.98033 0.341356 5.36019e-007 
0.359008 0.445732 -0.1 -2.98524 0.295408 5.34869e-007 
0.359008 0.445732 0.1 -2.98742 0.272577 5.34252e-007 
0.359375 0.450125 -0.1 -2.99115 0.228306 5.32969e-007 
0.359375 0.450125 0.1 -2.9927 0.206867 5.32303e-007 
0.359638 0.454372 -0.1 -2.99527 0.16626 5.30977e-007 
0.359638 0.454372 0.1 -2.99627 0.147092 5.30314e-007 
0.359815 0.458519 -0.1 -2.99784 0.111433 5.29029e-007 
0.359815 0.458519 0.1 -2.99841 0.0949418 5.28408e-007 
0.359922 0.462609 -0.1 -2.99922 0.0657799 5.27276e-007 
0.359922 0.462609 0.1 -2.99948 0.0531092 5.26767e-007 
0.359977 0.46669 -0.1 -2.99981 0.0318186 5.25894e-007 
0.359977 0.46669 0.1 -2.99989 0.0231987 5.25531e-007 
0.359997 0.470805 -0.1 -2.99998 0.0104367 5.24989e-007 
0.359997 0.470805 0.1 -2.99999 0.00629464 5.24809e-007 
0.36 0.475 -0.1 -2.99797 -0.0622983 5.21458e-007 
0.36 0.475 0.1 -2.99593 -0.126749 5.18285e-007 
0.35896 0.491285 -0.1 -2.97792 -0.316404 5.06846e-007 
0.35896 0.491285 0.1 -2.96195 -0.441608 4.9858e-007 
0.355931 0.507028 -0.1 -2.91505 -0.686843 4.79661e-007 
0.355931 0.507028 0.1 -2.88413 -0.806874 4.69008e-007 
0.351047 0.522062 -0.1 -2.80845 -1.04056 4.4556e-007 
0.351047 0.522062 0.1 -2.76368 -1.15422 4.32765e-007 
0.344444 0.536222 -0.1 -2.66101 -1.37461 4.0518e-007 
0.344444 0.536222 0.1 -2.6031 -1.48134 3.90389e-007 
0.336259 0.54934 -0.1 -2.47428 -1.68762 3.58848e-007 
0.336259 0.54934 0.1 -2.40336 -1.78717 3.42096e-007 
0.326625 0.56125 -0.1 -2.24841 -1.97832 3.06649e-007 
0.326625 0.56125 0.1 -2.16438 -2.06991 2.87954e-007 
0.315679 0.571785 -0.1 -1.98269 -2.24415 2.48569e-007 
0.315679 0.571785 0.1 -1.88502 -2.32679 2.2788e-007 
0.303556 0.580778 -0.1 -1.67574 -2.48126 1.84537e-007 
0.303556 0.580778 0.1 -1.56413 -2.55309 1.61883e-007 
0.290391 0.588063 -0.1 -1.32714 -2.68336 1.14751e-007 
0.290391 0.588063 0.1 -1.20175 -2.74181 9.02724e-008 
0.276319 0.593472 -0.1 -0.938875 -2.84204 3.99284e-008 
0.276319 0.593472 0.1 -0.801385 -2.88383 1.40623e-008 
0.261477 0.59684 -0.1 -0.517335 -2.94762 -3.83906e-008 
0.261477 0.59684 0.1 -0.370775 -2.96961 -6.49775e-008 
0.246 0.598 -0.1 -0.0914356 -2.99272 -1.14828e-007 
0.246 0.598 0.1 0.0413433 -2.99383 -1.38093e-007 
0.230142 0.597078 -0.1 0.293334 -2.98079 -1.81583e-007 
0.230142 0.597078 0.1 0.412546 -2.96665 -2.01808e-007 
0.215134 0.594375 -0.1 0.652689 -2.92284 -2.41881e-007 
0.215134 0.594375 0.1 0.773619 -2.89318 -2.61729e-007 
0.201078 0.589984 -0.1 1.0144 -2.81745 -3.00518e-007 
0.201078 0.589984 0.1 1.13424 -2.77137 -3.19457e-007 
0.188074 0.584 -0.1 1.37001 -2.66238 -3.55917e-007 
0.188074 0.584 0.1 1.48593 -2.59946 -3.73435e-007 
0.176223 0.576516 -0.1 1.71061 -2.45714 -4.06498e-007 
0.176223 0.576516 0.1 1.81938 -2.37773 -4.22044e-007 
0.165625 0.567625 -0.1 2.0265 -2.20364 -4.50648e-007 
0.165625 0.567625 0.1 2.12486 -2.10895 -4.63708e-007 
0.156381 0.557422 -0.1 2.30837 -1.90619 -4.8693e-007 
0.156381 0.557422 0.1 2.39351 -1.79812 -4.97093e-007 
0.148593 0.546 -0.1 2.54799 -1.57166 -5.14203e-007 
0.148593 0.546 0.1 2.61732 -1.45326 -5.21151e-007 
0.142359 0.533453 -0.1 2.73871 -1.20934 -5.31714e-007 
0.142359 0.533453 0.1 2.79077 -1.08382 -5.35329e-007 
0.137782 0.519875 -0.1 2.87687 -0.829562 -5.39269e-007 
0.137782 0.519875 0.1 2.91091 -0.700835 -5.39594e-007 
0.134962 0.505359 -0.1 2.96134 -0.443916 -5.37182e-007 
0.134962 0.505359 0.1 2.97774 -0.315726 -5.34445e-007 
0.134 0.49 -0.1 2.99343 -0.0521108 -5.25665e-007 
0.134 0.49 0.1 2.99272 0.0833148 -5.19622e-007 
0.13506 0.475501 -0.1 2.97092 0.362504 -5.03606e-007 
0.13506 0.475501 0.1 2.94982 0.506269 -4.93633e-007 
0.138148 0.461588 -0.1 2.88816 0.786226 -4.70615e-007 
0.138148 0.461588 0.1 2.84759 0.92242 -4.57568e-007 
0.143125 0.448391 -0.1 2.74958 1.18396 -4.29e-007 
0.143125 0.448391 0.1 2.69215 1.30931 -4.13479e-007 
0.149852 0.436037 -0.1 2.56316 1.54743 -3.80517e-007 
0.149852 0.436037 0.1 2.49159 1.6602 -3.63074e-007 
0.15819 0.424656 -0.1 2.33684 1.87232 -3.26744e-007 
0.15819 0.424656 0.1 2.25365 1.97167 -3.07856e-007 
0.168 0.414375 -0.1 2.07741 2.15691 -2.68945e-007 
0.168 0.414375 0.1 1.98438 2.24281 -2.48923e-007 
0.179144 0.405324 -0.1 1.79007 2.40098 -2.08035e-007 
0.179144 0.405324 0.1 1.6888 2.47326 -1.8717e-007 
0.191481 0.39763 -0.1 1.47887 2.60431 -1.44736e-007 
0.191481 0.39763 0.1 1.37021 2.66308 -1.23168e-007 
0.204875 0.391422 -0.1 1.14665 2.76673 -7.95488e-008 
0.204875 0.391422 0.1 1.03174 2.8116 -5.74961e-008 
0.219185 0.386829 -0.1 0.796829 2.88694 -1.31299e-008 
0.219185 0.386829 0.1 0.676828 2.9174 9.18341e-009 
0.234273 0.383979 -0.1 0.433348 2.96332 5.37616e-008 
0.234273 0.383979 0.1 0.309869 2.97876 7.60264e-008 
0.25 0.383 -0.1 0.0932682 2.99566 1.14637e-007 
0.25 0.383 0.1 0.000147037 2.99711 1.30982e-007 
3 46 48 47 
3 45 48 46 
3 45 49 48 
3 44 49 45 
3 44 50 49 
3 43 50 44 
3 43 51 50 
3 42 51 43 
3 42 52 51 
3 41 52 42 
3 41 53 52 
3 40 53 41 
3 40 54 53 
3 39 109 40 
3 109 108 40 
3 108 54 40 
3 107 54 108 
3 39 110 109 
3 106 54 107 
3 106 55 54 
3 39 111 110 
3 105 55 106 
3 39 112 111 
3 104 55 105 
3 38 112 39 
3 38 113 112 
3 103 55 104 
3 38 114 113 
3 102 55 103 
3 102 56 55 
3 38 115 114 
3 37 115 38 
3 101 56 102 
3 37 116 115 
3 100 56 101 
3 37 117 116 
3 100 57 56 
3 36 117 37 
3 99 57 100 
3 36 118 117 
3 98 57 99 
3 36 119 118 
3 35 119 36 
3 98 58 57 
3 97 58 98 
3 35 120 119 
3 96 58 97 
3 35 121 120 
3 34 121 35 
3 96 59 58 
3 34 122 121 
3 95 59 96 
3 94 59 95 
3 93 59 94 
3 92 59 93 
3 33 122 34 
3 33 123 122 
3 91 59 92 
3 90 59 91 
3 89 59 90 
3 33 124 123 
3 88 59 89 
3 88 60 59 
3 87 60 88 
3 86 60 87 
3 33 125 124 
3 32 125 33 
3 85 60 86 
3 84 60 85 
3 32 126 125 
3 83 60 84 
3 32 127 126 
3 82 60 83 
3 31 127 32 
3 81 60 82 
3 31 128 127 
3 80 60 81 
3 80 61 60 
3 79 61 80 
3 31 129 128 
3 78 61 79 
3 77 61 78 
3 31 130 129 
3 76 61 77 
3 30 130 31 
3 30 131 130 
3 75 61 76 
3 74 61 75 
3 30 132 131 
3 73 61 74 
3 132 61 73 
3 30 61 132 
3 29 61 30 
3 29 62 61 
3 28 62 29 
3 27 11 28 
3 11 62 28 
3 27 12 11 
3 10 62 11 
3 26 12 27 
3 10 63 62 
3 26 13 12 
3 26 14 13 
3 26 15 14 
3 25 15 26 
3 25 16 15 
3 25 17 16 
3 25 18 17 
3 9 63 10 
3 24 18 25 
3 24 19 18 
3 24 20 19 
3 24 21 20 
3 23 21 24 
3 23 22 21 
3 8 63 9 
3 8 64 63 
3 7 64 8 
3 7 65 64 
3 6 65 7 
3 5 65 6 
3 5 66 65 
3 4 66 5 
3 3 66 4 
3 3 67 66 
3 2 67 3 
3 1 67 2 
3 1 68 67 
3 0 68 1 
3 72 68 0 
3 72 69 68 
3 71 69 72 
3 71 70 69 
3 181 179 180 
3 181 178 179 
3 182 178 181 
3 182 177 178 
3 183 177 182 
3 183 176 177 
3 184 176 183 
3 184 175 176 
3 185 175 184 
3 185 174 175 
3 186 174 185 
3 186 173 174 
3 187 173 186 
3 242 172 173 
3 241 242 173 
3 187 241 173 
3 187 240 241 
3 243 172 242 
3 187 239 240 
3 188 239 187 
3 244 172 243 
3 188 238 239 
3 245 172 244 
3 188 237 238 
3 245 171 172 
3 246 171 245 
3 188 236 237 
3 247 171 246 
3 188 235 236 
3 189 235 188 
3 248 171 247 
3 248 170 171 
3 189 234 235 
3 249 170 248 
3 189 233 234 
3 250 170 249 
3 190 233 189 
3 250 169 170 
3 190 232 233 
3 251 169 250 
3 190 231 232 
3 252 169 251 
3 252 168 169 
3 191 231 190 
3 191 230 231 
3 253 168 252 
3 191 229 230 
3 254 168 253 
3 254 167 168 
3 192 229 191 
3 255 167 254 
3 192 228 229 
3 192 227 228 
3 192 226 227 
3 192 225 226 
3 255 166 167 
3 256 166 255 
3 192 224 225 
3 192 223 224 
3 192 222 223 
3 257 166 256 
3 192 221 222 
3 193 221 192 
3 193 220 221 
3 193 219 220 
3 258 166 257 
3 258 165 166 
3 193 218 219 
3 193 217 218 
3 259 165 258 
3 193 216 217 
3 260 165 259 
3 193 215 216 
3 260 164 165 
3 193 214 215 
3 261 164 260 
3 193 213 214 
3 194 213 193 
3 194 212 213 
3 262 164 261 
3 194 211 212 
3 194 210 211 
3 263 164 262 
3 194 209 210 
3 263 163 164 
3 264 163 263 
3 194 208 209 
3 194 207 208 
3 265 163 264 
3 194 206 207 
3 194 265 206 
3 194 163 265 
3 194 162 163 
3 195 162 194 
3 195 161 162 
3 144 160 161 
3 195 144 161 
3 145 160 144 
3 195 143 144 
3 145 159 160 
3 196 143 195 
3 146 159 145 
3 147 159 146 
3 148 159 147 
3 148 158 159 
3 149 158 148 
3 150 158 149 
3 151 158 150 
3 196 142 143 
3 151 157 158 
3 152 157 151 
3 153 157 152 
3 154 157 153 
3 154 156 157 
3 155 156 154 
3 196 141 142 
3 197 141 196 
3 197 140 141 
3 198 140 197 
3 198 139 140 
3 198 138 139 
3 199 138 198 
3 199 137 138 
3 199 136 137 
3 200 136 199 
3 200 135 136 
3 200 134 135 
3 201 134 200 
3 201 133 134 
3 201 205 133 
3 202 205 201 
3 202 204 205 
3 203 204 202 
3 267 269 268 
3 267 268 266 
3 269 271 270 
3 269 270 268 
3 271 273 272 
3 271 272 270 
3 273 275 274 
3 273 274 272 
3 275 277 276 
3 275 276 274 
3 277 279 278 
3 277 278 276 
3 279 281 280 
3 279 280 278 
3 281 283 282 
3 281 282 280 
3 283 285 284 
3 283 284 282 
3 285 287 286 
3 285 286 284 
3 287 289 288 
3 287 288 286 
3 289 291 290 
3 289 290 288 
3 291 293 292 
3 291 292 290 
3 293 295 294 
3 293 294 292 
3 295 297 296 
3 295 296 294 
3 297 299 298 
3 297 298 296 
3 299 301 300 
3 299 300 298 
3 301 303 302 
3 301 302 300 
3 303 305 304 
3 303 304 302 
3 305 307 306 
3 305 306 304 
3 307 309 308 
3 307 308 306 
3 309 311 310 
3 309 310 308 
3 311 313 312 
3 311 312 310 
3 313 315 314 
3 313 314 312 
3 315 317 316 
3 315 316 314 
3 317 319 318 
3 317 318 316 
3 319 321 320 
3 319 320 318 
3 321 323 322 
3 321 322 320 
3 323 325 324 
3 323 324 322 
3 325 327 326 
3 325 326 324 
3 327 329 328 
3 327 328 326 
3 329 331 330 
3 329 330 328 
3 331 333 332 
3 331 332 330 
3 333 335 334 
3 333 334 332 
3 335 337 336 
3 335 336 334 
3 337 339 338 
3 337 338 336 
3 339 341 340 
3 339 340 338 
3 341 343 342 
3 341 342 340 
3 343 345 344 
3 343 344 342 
3 345 347 346 
3 345 346 344 
3 347 349 348 
3 347 348 346 
3 349 351 350 
3 349 350 348 
3 351 353 352 
3 351 352 350 
3 353 355 354 
3 353 354 352 
3 355 357 356 
3 355 356 354 
3 357 359 358 
3 357 358 356 
3 359 361 360 
3 359 360 358 
3 361 363 362 
3 361 362 360 
3 363 365 364 
3 363 364 362 
3 365 367 366 
3 365 366 364 
3 367 369 368 
3 367 368 366 
3 369 371 370 
3 369 370 368 
3 371 373 372 
3 371 372 370 
3 373 375 374 
3 373 374 372 
3 375 377 376 
3 375 376 374 
3 377 379 378 
3 377 378 376 
3 379 381 380 
3 379 380 378 
3 381 383 382 
3 381 382 380 
3 383 385 384 
3 383 384 382 
3 385 387 386 
3 385 386 384 
3 387 389 388 
3 387 388 386 
3 389 391 390 
3 389 390 388 
3 391 393 392 
3 391 392 390 
3 393 395 394 
3 393 394 392 
3 395 397 396 
3 395 396 394 
3 397 399 398 
3 397 398 396 
3 399 401 400 
3 399 400 398 
3 401 403 402 
3 401 402 400 
3 403 405 404 
3 403 404 402 
3 405 407 406 
3 405 406 404 
3 407 409 408 
3 407 408 406 
3 409 411 410 
3 409 410 408 
3 411 267 266 
3 411 266 410 
3 413 415 414 
3 413 414 412 
3 415 417 416 
3 415 416 414 
3 417 419 418 
3 417 418 416 
3 419 421 420 
3 419 420 418 
3 421 423 422 
3 421 422 420 
3 423 425 424 
3 423 424 422 
3 425 427 426 
3 425 426 424 
3 427 429 428 
3 427 428 426 
3 429 431 430 
3 429 430 428 
3 431 433 432 
3 431 432 430 
3 433 435 434 
3 433 434 432 
3 435 437 436 
3 435 436 434 
3 437 439 438 
3 437 438 436 
3 439 441 440 
3 439 440 438 
3 441 443 442 
3 441 442 440 
3 443 445 444 
3 443 444 442 
3 445 447 446 
3 445 446 444 
3 447 449 448 
3 447 448 446 
3 449 451 450 
3 449 450 448 
3 451 453 452 
3 451 452 450 
3 453 455 454 
3 453 454 452 
3 455 457 456 
3 455 456 454 
3 457 459 458 
3 457 458 456 
3 459 461 460 
3 459 460 458 
3 461 463 462 
3 461 462 460 
3 463 465 464 
3 463 464 462 
3 465 467 466 
3 465 466 464 
3 467 469 468 
3 467 468 466 
3 469 471 470 
3 469 470 468 
3 471 473 472 
3 471 472 470 
3 473 475 474 
3 473 474 472 
3 475 477 476 
3 475 476 474 
3 477 479 478 
3 477 478 476 
3 479 481 480 
3 479 480 478 
3 481 483 482 
3 481 482 480 
3 483 485 484 
3 483 484 482 
3 485 487 486 
3 485 486 484 
3 487 489 488 
3 487 488 486 
3 489 491 490 
3 489 490 488 
3 491 493 492 
3 491 492 490 
3 493 495 494 
3 493 494 492 
3 495 497 496 
3 495 496 494 
3 497 499 498 
3 497 498 496 
3 499 501 500 
3 499 500 498 
3 501 503 502 
3 501 502 500 
3 503 505 504 
3 503 504 502 
3 505 507 506 
3 505 506 504 
3 507 509 508 
3 507 508 506 
3 509 511 510 
3 509 510 508 
3 511 513 512 
3 511 512 510 
3 513 515 514 
3 513 514 512 
3 515 517 516 
3 515 516 514 
3 517 519 518 
3 517 518 516 
3 519 521 520 
3 519 520 518 
3 521 523 522 
3 521 522 520 
3 523 525 524 
3 523 524 522 
3 525 527 526 
3 525 526 524 
3 527 529 528 
3 527 528 526 
3 529 531 530 
3 529 530 528 
3 531 413 412 
3 531 412 530 
