ply
format ascii 1.0
comment VCGLIB generated
element vertex 392
property float x
property float y
property float z
property float nx
property float ny
property float nz
element face 388
property list uchar int vertex_indices
end_header
0.380591 0.340008 0.1 4.00544e-010 -1.00136e-010 0.00229084 
0.368815 0.347065 0.1 3.77276e-010 -9.43192e-011 0.00215777 
0.357594 0.353219 0.1 3.54236e-010 -8.85589e-011 0.00202599 
0.346852 0.358519 0.1 3.3144e-010 -8.28602e-011 0.00189562 
0.336513 0.363013 0.1 3.08988e-010 -7.72471e-011 0.00176721 
0.3265 0.36675 0.1 2.86999e-010 -7.17498e-011 0.00164144 
0.316737 0.369779 0.1 2.65592e-010 -6.6398e-011 0.00151901 
0.307148 0.372148 0.1 2.51286e-009 -6.28214e-010 0.0143719 
0.297656 0.373906 0.1 3.51806e-011 -8.79517e-012 0.00020121 
0.288185 0.375102 0.1 7.31706e-010 -1.82927e-010 0.00418487 
0.278659 0.375784 0.1 2.81788e-011 -7.04468e-012 0.000161164 
0.269 0.376 0.1 7.54346e-010 -1.88587e-010 0.00431436 
0.249289 0.374747 0.1 1.11573e-010 -2.78933e-011 0.000638125 
0.230727 0.37106 0.1 2.4346e-010 -6.08649e-011 0.00139243 
0.213422 0.365047 0.1 8.96074e-010 -2.24019e-010 0.00512495 
0.197482 0.356815 0.1 3.54068e-010 -8.85171e-011 0.00202503 
0.183013 0.346472 0.1 4.45622e-010 -1.11406e-010 0.00254866 
0.170125 0.334125 0.1 1.01547e-009 -2.53869e-010 0.00580784 
0.158924 0.319883 0.1 5.28724e-010 -1.32181e-010 0.00302395 
0.149519 0.303852 0.1 1.09235e-009 -2.73086e-010 0.00624749 
0.142016 0.286141 0.1 6.06274e-010 -1.51568e-010 0.00346748 
0.136523 0.266856 0.1 1.1823e-009 -2.95575e-010 0.00676197 
0.133149 0.246107 0.1 1.24972e-009 -3.12431e-010 0.00714759 
0.132 0.224 0.1 7.09349e-010 -1.77337e-010 0.004057 
0.133234 0.201532 0.1 1.21354e-009 -3.03386e-010 0.00694066 
0.13687 0.180671 0.1 1.16032e-009 -2.90081e-010 0.00663628 
0.142812 0.161484 0.1 6.23237e-010 -1.55809e-010 0.0035645 
0.150963 0.144037 0.1 1.07971e-009 -2.69927e-010 0.00617522 
0.161225 0.128395 0.1 5.4473e-010 -1.36182e-010 0.00311549 
0.1735 0.114625 0.1 1.01433e-009 -2.53582e-010 0.00580127 
0.187692 0.102792 0.1 4.64523e-010 -1.16131e-010 0.00265676 
0.203704 0.092963 0.1 9.64915e-010 -2.41229e-010 0.00551867 
0.221437 0.085203 0.1 3.81568e-010 -9.53922e-011 0.00218232 
0.240796 0.079579 0.1 2.75458e-010 -6.88647e-011 0.00157544 
0.261683 0.076156 0.1 1.47691e-010 -3.69229e-011 0.000844697 
0.284 0.075 0.1 3.12786e-009 -7.81967e-010 0.0178893 
0.293465 0.075208 0.1 2.08144e-010 -5.20359e-011 0.00119044 
0.302884 0.075833 0.1 2.229e-010 -5.57249e-011 0.00127484 
0.312297 0.076875 0.1 2.3706e-010 -5.92648e-011 0.00135582 
0.321741 0.078333 0.1 2.50646e-010 -6.26615e-011 0.00143353 
0.331254 0.080208 0.1 2.63735e-010 -6.59337e-011 0.00150839 
0.340875 0.0825 0.1 2.7635e-010 -6.90875e-011 0.00158054 
0.350642 0.085208 0.1 2.88552e-010 -7.21382e-011 0.00165033 
0.360593 0.088333 0.1 3.00425e-010 -7.51064e-011 0.00171823 
0.370766 0.091875 0.1 3.12034e-010 -7.80087e-011 0.00178463 
0.381199 0.095833 0.1 3.23494e-010 -8.08734e-011 0.00185017 
0.391931 0.100208 0.1 3.34914e-010 -8.37286e-011 0.00191549 
0.403 0.105 0.1 1.70312e-010 -4.2578e-011 0.000974072 
0.403 0.017 0.1 6.05422e-009 -1.51355e-009 0.0346261 
0.394959 0.013547 0.1 2.41056e-010 -6.02638e-011 0.00137868 
0.385921 0.010213 0.1 2.29526e-010 -5.73814e-011 0.00131273 
0.376016 0.007031 0.1 4.9899e-010 -1.24747e-010 0.00285389 
0.36537 0.004037 0.1 1.39887e-010 -3.49718e-011 0.000800061 
0.354114 0.001265 0.1 1.26186e-010 -3.15466e-011 0.000721702 
0.342375 -0.00125 0.1 1.12279e-010 -2.80698e-011 0.000642162 
0.330282 -0.003473 0.1 1.87338e-010 -4.68347e-011 0.00107145 
0.317963 -0.00537 0.1 4.15228e-011 -1.03807e-011 0.000237483 
0.305547 -0.006906 0.1 3.15541e-011 -7.88853e-012 0.000180468 
0.293162 -0.008046 0.1 2.78386e-011 -6.95964e-012 0.000159218 
0.280937 -0.008756 0.1 9.60314e-013 -2.40079e-013 5.49236e-006 
0.269 -0.009 0.1 1.4456e-011 -3.61401e-012 8.26789e-005 
0.236365 -0.007094 0.1 1.79748e-010 -4.49371e-011 0.00102804 
0.205583 -0.0015 0.1 6.77378e-010 -1.69344e-010 0.00387415 
0.176844 0.007594 0.1 1.20087e-009 -3.00217e-010 0.00686816 
0.150333 0.02 0.1 1.20765e-009 -3.01912e-010 0.00690695 
0.12624 0.035531 0.1 1.49758e-009 -3.74394e-010 0.00856514 
0.10475 0.054 0.1 3.8125e-009 -9.53123e-010 0.0218049 
0.086052 0.075219 0.1 1.80091e-009 -4.50226e-010 0.0103 
0.070333 0.099 0.1 1.50859e-009 -3.77147e-010 0.00862813 
0.057781 0.125156 0.1 1.54299e-009 -3.85747e-010 0.00882487 
0.048583 0.1535 0.1 1.61067e-009 -4.02669e-010 0.00921198 
0.042927 0.183844 0.1 1.34961e-009 -3.37402e-010 0.00771886 
0.041 0.216 0.1 1.79136e-009 -4.47841e-010 0.0102454 
0.042771 0.251852 0.1 1.4344e-009 -3.586e-010 0.00820381 
0.048 0.285315 0.1 1.66244e-009 -4.15609e-010 0.00950802 
0.056562 0.31625 0.1 1.57459e-009 -3.93648e-010 0.00900563 
0.068333 0.344519 0.1 1.71437e-009 -4.28592e-010 0.00980503 
0.083188 0.369981 0.1 1.56889e-009 -3.92223e-010 0.00897301 
0.101 0.3925 0.1 1.43992e-009 -3.59981e-010 0.00823539 
0.121646 0.411935 0.1 3.81808e-009 -9.54522e-010 0.0218369 
0.145 0.428148 0.1 1.69494e-009 -4.23736e-010 0.00969395 
0.170938 0.441 0.1 9.764e-010 -2.441e-010 0.00558436 
0.199333 0.450352 0.1 4.32598e-010 -1.08149e-010 0.00247417 
0.230063 0.456065 0.1 9.93846e-011 -2.48462e-011 0.000568414 
0.263 0.458 0.1 5.70568e-012 -1.42642e-012 3.26327e-005 
0.27566 0.457753 0.1 1.50788e-011 -3.7697e-012 8.62407e-005 
0.287699 0.457023 0.1 2.33424e-011 -5.8356e-012 0.000133503 
0.299203 0.455828 0.1 1.23581e-010 -3.08953e-011 0.000706803 
0.310259 0.454185 0.1 8.6649e-011 -2.16623e-011 0.000495575 
0.320954 0.452112 0.1 1.03466e-010 -2.58666e-011 0.000591758 
0.331375 0.449625 0.1 3.71888e-010 -9.29718e-011 0.00212695 
0.341608 0.446743 0.1 2.03762e-010 -5.09405e-011 0.00116538 
0.351741 0.443482 0.1 2.2641e-010 -5.66024e-011 0.00129491 
0.361859 0.439859 0.1 7.2433e-010 -1.81082e-010 0.00414268 
0.372051 0.435894 0.1 3.55656e-010 -8.89141e-011 0.00203412 
0.382402 0.431601 0.1 3.81828e-010 -9.54568e-011 0.0021838 
0.393 0.427 0.1 4.61076e-009 -1.15269e-009 0.0263705 
0.393 0.332 0.1 2.06118e-010 -5.15294e-011 0.00117886 
0.380591 0.340008 -0.1 -4.00544e-010 1.00136e-010 -0.00229084 
0.368815 0.347065 -0.1 -3.77276e-010 9.43192e-011 -0.00215777 
0.357594 0.353219 -0.1 -3.54236e-010 8.85589e-011 -0.00202599 
0.346852 0.358519 -0.1 -3.3144e-010 8.28602e-011 -0.00189562 
0.336513 0.363013 -0.1 -3.08988e-010 7.72472e-011 -0.00176721 
0.3265 0.36675 -0.1 -2.86999e-010 7.17498e-011 -0.00164144 
0.316737 0.369779 -0.1 -2.65592e-010 6.6398e-011 -0.00151901 
0.307148 0.372148 -0.1 -2.51286e-009 6.28214e-010 -0.0143719 
0.297656 0.373906 -0.1 -3.51806e-011 8.79517e-012 -0.00020121 
0.288185 0.375102 -0.1 -7.31706e-010 1.82927e-010 -0.00418487 
0.278659 0.375784 -0.1 -2.81788e-011 7.04468e-012 -0.000161164 
0.269 0.376 -0.1 -7.54347e-010 1.88587e-010 -0.00431436 
0.249289 0.374747 -0.1 -1.11573e-010 2.78933e-011 -0.000638125 
0.230727 0.37106 -0.1 -2.4346e-010 6.08649e-011 -0.00139243 
0.213422 0.365047 -0.1 -8.96074e-010 2.24019e-010 -0.00512495 
0.197482 0.356815 -0.1 -3.54068e-010 8.85171e-011 -0.00202503 
0.183013 0.346472 -0.1 -4.45622e-010 1.11405e-010 -0.00254866 
0.170125 0.334125 -0.1 -1.01547e-009 2.53869e-010 -0.00580784 
0.158924 0.319883 -0.1 -5.28724e-010 1.32181e-010 -0.00302395 
0.149519 0.303852 -0.1 -1.09235e-009 2.73086e-010 -0.00624749 
0.142016 0.286141 -0.1 -6.06274e-010 1.51568e-010 -0.00346748 
0.136523 0.266856 -0.1 -1.1823e-009 2.95575e-010 -0.00676197 
0.133149 0.246107 -0.1 -1.24972e-009 3.12431e-010 -0.00714759 
0.132 0.224 -0.1 -7.09349e-010 1.77337e-010 -0.004057 
0.133234 0.201532 -0.1 -1.21354e-009 3.03386e-010 -0.00694066 
0.13687 0.180671 -0.1 -1.16032e-009 2.90081e-010 -0.00663628 
0.142812 0.161484 -0.1 -6.23237e-010 1.55809e-010 -0.0035645 
0.150963 0.144037 -0.1 -1.07971e-009 2.69927e-010 -0.00617522 
0.161225 0.128395 -0.1 -5.4473e-010 1.36182e-010 -0.00311549 
0.1735 0.114625 -0.1 -1.01433e-009 2.53582e-010 -0.00580127 
0.187692 0.102792 -0.1 -4.64523e-010 1.16131e-010 -0.00265676 
0.203704 0.092963 -0.1 -9.64915e-010 2.41229e-010 -0.00551867 
0.221437 0.085203 -0.1 -3.81568e-010 9.53922e-011 -0.00218232 
0.240796 0.079579 -0.1 -2.75458e-010 6.88647e-011 -0.00157544 
0.261683 0.076156 -0.1 -1.47691e-010 3.69229e-011 -0.000844696 
0.284 0.075 -0.1 -3.12786e-009 7.81967e-010 -0.0178893 
0.293465 0.075208 -0.1 -2.08144e-010 5.20359e-011 -0.00119044 
0.302884 0.075833 -0.1 -2.229e-010 5.57249e-011 -0.00127484 
0.312297 0.076875 -0.1 -2.3706e-010 5.92648e-011 -0.00135582 
0.321741 0.078333 -0.1 -2.50646e-010 6.26614e-011 -0.00143353 
0.331254 0.080208 -0.1 -2.63735e-010 6.59337e-011 -0.00150839 
0.340875 0.0825 -0.1 -2.7635e-010 6.90875e-011 -0.00158054 
0.350642 0.085208 -0.1 -2.88552e-010 7.21382e-011 -0.00165033 
0.360593 0.088333 -0.1 -3.00425e-010 7.51064e-011 -0.00171823 
0.370766 0.091875 -0.1 -3.12034e-010 7.80086e-011 -0.00178463 
0.381199 0.095833 -0.1 -3.23494e-010 8.08734e-011 -0.00185017 
0.391931 0.100208 -0.1 -3.34914e-010 8.37286e-011 -0.00191549 
0.403 0.105 -0.1 -1.70312e-010 4.2578e-011 -0.000974072 
0.403 0.017 -0.1 -6.05422e-009 1.51355e-009 -0.0346261 
0.394959 0.013547 -0.1 -2.41056e-010 6.02638e-011 -0.00137868 
0.385921 0.010213 -0.1 -2.29526e-010 5.73814e-011 -0.00131273 
0.376016 0.007031 -0.1 -4.9899e-010 1.24747e-010 -0.00285389 
0.36537 0.004037 -0.1 -1.39887e-010 3.49718e-011 -0.000800061 
0.354114 0.001265 -0.1 -1.26186e-010 3.15466e-011 -0.000721702 
0.342375 -0.00125 -0.1 -1.12279e-010 2.80698e-011 -0.000642163 
0.330282 -0.003473 -0.1 -1.87338e-010 4.68347e-011 -0.00107145 
0.317963 -0.00537 -0.1 -4.15228e-011 1.03807e-011 -0.000237483 
0.305547 -0.006906 -0.1 -3.15541e-011 7.88853e-012 -0.000180468 
0.293162 -0.008046 -0.1 -2.78386e-011 6.95964e-012 -0.000159218 
0.280937 -0.00875599 -0.1 -9.60314e-013 2.40078e-013 -5.49236e-006 
0.269 -0.00899999 -0.1 -1.4456e-011 3.61401e-012 -8.26789e-005 
0.236365 -0.007094 -0.1 -1.79748e-010 4.49371e-011 -0.00102804 
0.205583 -0.0015 -0.1 -6.77378e-010 1.69344e-010 -0.00387415 
0.176844 0.007594 -0.1 -1.20087e-009 3.00217e-010 -0.00686816 
0.150333 0.02 -0.1 -1.20765e-009 3.01912e-010 -0.00690695 
0.12624 0.035531 -0.1 -1.49758e-009 3.74394e-010 -0.00856514 
0.10475 0.054 -0.1 -3.8125e-009 9.53123e-010 -0.0218049 
0.086052 0.075219 -0.1 -1.80091e-009 4.50226e-010 -0.0103 
0.070333 0.099 -0.1 -1.50859e-009 3.77147e-010 -0.00862813 
0.057781 0.125156 -0.1 -1.54299e-009 3.85747e-010 -0.00882487 
0.048583 0.1535 -0.1 -1.61067e-009 4.02669e-010 -0.00921198 
0.042927 0.183844 -0.1 -1.34961e-009 3.37402e-010 -0.00771886 
0.041 0.216 -0.1 -1.79136e-009 4.47841e-010 -0.0102454 
0.042771 0.251852 -0.1 -1.4344e-009 3.586e-010 -0.00820381 
0.048 0.285315 -0.1 -1.66244e-009 4.15609e-010 -0.00950802 
0.056562 0.31625 -0.1 -1.57459e-009 3.93648e-010 -0.00900562 
0.068333 0.344519 -0.1 -1.71437e-009 4.28592e-010 -0.00980503 
0.083188 0.369981 -0.1 -1.56889e-009 3.92223e-010 -0.00897301 
0.101 0.3925 -0.1 -1.43992e-009 3.59981e-010 -0.00823539 
0.121646 0.411935 -0.1 -3.81808e-009 9.54522e-010 -0.0218369 
0.145 0.428148 -0.1 -1.69494e-009 4.23736e-010 -0.00969395 
0.170938 0.441 -0.1 -9.764e-010 2.441e-010 -0.00558436 
0.199333 0.450352 -0.1 -4.32598e-010 1.08149e-010 -0.00247417 
0.230063 0.456065 -0.1 -9.93846e-011 2.48462e-011 -0.000568414 
0.263 0.458 -0.1 -5.70568e-012 1.42642e-012 -3.26327e-005 
0.27566 0.457753 -0.1 -1.50788e-011 3.7697e-012 -8.62407e-005 
0.287699 0.457023 -0.1 -2.33424e-011 5.8356e-012 -0.000133503 
0.299203 0.455828 -0.1 -1.23581e-010 3.08953e-011 -0.000706803 
0.310259 0.454185 -0.1 -8.6649e-011 2.16623e-011 -0.000495575 
0.320954 0.452112 -0.1 -1.03466e-010 2.58666e-011 -0.000591758 
0.331375 0.449625 -0.1 -3.71888e-010 9.29718e-011 -0.00212695 
0.341608 0.446743 -0.1 -2.03762e-010 5.09405e-011 -0.00116538 
0.351741 0.443482 -0.1 -2.2641e-010 5.66024e-011 -0.00129491 
0.361859 0.439859 -0.1 -7.2433e-010 1.81082e-010 -0.00414268 
0.372051 0.435894 -0.1 -3.55656e-010 8.89141e-011 -0.00203412 
0.382402 0.431601 -0.1 -3.81828e-010 9.54568e-011 -0.0021838 
0.393 0.427 -0.1 -4.61076e-009 1.15269e-009 -0.0263705 
0.393 0.332 -0.1 -2.06118e-010 5.15294e-011 -0.00117886 
0.380591 0.340008 -0.1 -1.5985 -2.53823 1.68541e-007 
0.380591 0.340008 0.1 -1.5703 -2.55577 1.62844e-007 
0.368815 0.347065 -0.1 -1.50894 -2.59233 1.50517e-007 
0.368815 0.347065 0.1 -1.47577 -2.61136 1.43886e-007 
0.357594 0.353219 -0.1 -1.4042 -2.65037 1.29666e-007 
0.357594 0.353219 0.1 -1.36579 -2.67037 1.22077e-007 
0.346852 0.358519 -0.1 -1.28356 -2.71068 1.05938e-007 
0.346852 0.358519 0.1 -1.23974 -2.731 9.73867e-008 
0.336513 0.363013 -0.1 -1.14693 -2.7711 7.94071e-008 
0.336513 0.363013 0.1 -1.09795 -2.79086 6.9979e-008 
0.3265 0.36675 -0.1 -0.995631 -2.82885 5.04289e-008 
0.3265 0.36675 0.1 -0.942293 -2.84706 4.03069e-008 
0.316737 0.369779 -0.1 -0.832481 -2.88099 1.96235e-008 
0.316737 0.369779 0.1 -0.776007 -2.89671 9.06209e-009 
0.307148 0.372148 -0.1 -0.661799 -2.9249 -1.21389e-008 
0.307148 0.372148 0.1 -0.604063 -2.93737 -2.27787e-008 
0.297656 0.373906 -0.1 -0.489507 -2.95868 -4.37398e-008 
0.297656 0.373906 0.1 -0.432685 -2.96752 -5.40613e-008 
0.288185 0.375102 -0.1 -0.321986 -2.98169 -7.40361e-008 
0.288185 0.375102 0.1 -0.268109 -2.98701 -8.36892e-008 
0.278659 0.375784 -0.1 -0.165175 -2.99464 -1.0202e-007 
0.278659 0.375784 0.1 -0.11612 -2.99695 -1.10697e-007 
0.269 0.376 -0.1 0.0187302 -2.99749 -1.34299e-007 
0.269 0.376 0.1 0.104524 -2.99572 -1.49223e-007 
0.249289 0.374747 -0.1 0.321704 -2.97681 -1.86369e-007 
0.249289 0.374747 0.1 0.45309 -2.95966 -2.08591e-007 
0.230727 0.37106 -0.1 0.717873 -2.90628 -2.52554e-007 
0.230727 0.37106 0.1 0.85127 -2.87004 -2.74294e-007 
0.213422 0.365047 -0.1 1.1153 -2.77771 -3.16423e-007 
0.213422 0.365047 0.1 1.24594 -2.72162 -3.36813e-007 
0.197482 0.356815 -0.1 1.49925 -2.59054 -3.75374e-007 
0.197482 0.356815 0.1 1.62193 -2.51555 -3.93546e-007 
0.183013 0.346472 -0.1 1.85486 -2.34914 -4.26998e-007 
0.183013 0.346472 0.1 1.96511 -2.25772 -4.42279e-007 
0.170125 0.334125 -0.1 2.1696 -2.06239 -4.69495e-007 
0.170125 0.334125 0.1 2.26384 -1.95848 -4.8143e-007 
0.158924 0.319883 -0.1 2.43458 -1.7424 -5.01838e-007 
0.158924 0.319883 0.1 2.51107 -1.63023 -5.10309e-007 
0.149519 0.303852 -0.1 2.64582 -1.40212 -5.23899e-007 
0.149519 0.303852 0.1 2.70409 -1.28617 -5.29018e-007 
0.142016 0.286141 -0.1 2.80331 -1.05409 -5.36222e-007 
0.142016 0.286141 0.1 2.84428 -0.937951 -5.38309e-007 
0.136523 0.266856 -0.1 2.91053 -0.708376 -5.39858e-007 
0.136523 0.266856 0.1 2.93582 -0.594941 -5.39321e-007 
0.133149 0.246107 -0.1 2.97272 -0.372908 -5.36067e-007 
0.133149 0.246107 0.1 2.98434 -0.264311 -5.33352e-007 
0.132 0.224 -0.1 2.9958 -0.0489691 -5.25943e-007 
0.132 0.224 0.1 2.99564 0.057775 -5.21249e-007 
0.133234 0.201532 -0.1 2.98214 0.281387 -5.09114e-007 
0.133234 0.201532 0.1 2.96879 0.398256 -5.01672e-007 
0.13687 0.180671 -0.1 2.92554 0.639244 -4.83575e-007 
0.13687 0.180671 0.1 2.89563 0.763363 -4.7292e-007 
0.142812 0.161484 -0.1 2.81649 1.01493 -4.48086e-007 
0.142812 0.161484 0.1 2.76725 1.14237 -4.33907e-007 
0.150963 0.144037 -0.1 2.64813 1.39509 -4.02033e-007 
0.150963 0.144037 0.1 2.57825 1.52036 -3.84339e-007 
0.161225 0.128395 -0.1 2.41871 1.76251 -3.45859e-007 
0.161225 0.128395 0.1 2.32906 1.87939 -3.25075e-007 
0.1735 0.114625 -0.1 2.13332 2.0989 -2.81256e-007 
0.1735 0.114625 0.1 2.02724 2.20153 -2.58222e-007 
0.187692 0.102792 -0.1 1.80392 2.38835 -2.1101e-007 
0.187692 0.102792 0.1 1.68669 2.47253 -1.86832e-007 
0.203704 0.092963 -0.1 1.4472 2.6206 -1.38486e-007 
0.203704 0.092963 0.1 1.32494 2.68449 -1.14318e-007 
0.221437 0.085203 -0.1 1.08077 2.79254 -6.6902e-008 
0.221437 0.085203 0.1 0.958851 2.83672 -4.36539e-008 
0.240796 0.079579 -0.1 0.719678 2.90743 1.25535e-009 
0.240796 0.079579 0.1 0.602426 2.93397 2.29163e-008 
0.261683 0.076156 -0.1 0.375179 2.97233 6.43264e-008 
0.261683 0.076156 0.1 0.265184 2.98416 8.40759e-008 
0.284 0.075 -0.1 0.0814887 2.99708 1.16759e-007 
0.284 0.075 0.1 0.00778901 2.99818 1.29693e-007 
0.293465 0.075208 -0.1 -0.11015 2.99732 1.50277e-007 
0.293465 0.075208 0.1 -0.154389 2.99537 1.57926e-007 
0.302884 0.075833 -0.1 -0.242445 2.98954 1.73067e-007 
0.302884 0.075833 0.1 -0.286262 2.98566 1.80559e-007 
0.312297 0.076875 -0.1 -0.372628 2.97615 1.95244e-007 
0.312297 0.076875 0.1 -0.415177 2.97051 2.02437e-007 
0.321741 0.078333 -0.1 -0.49853 2.95771 2.16451e-007 
0.321741 0.078333 0.1 -0.539334 2.95054 2.23272e-007 
0.331254 0.080208 -0.1 -0.618502 2.93503 2.36436e-007 
0.331254 0.080208 0.1 -0.656866 2.92668 2.42779e-007 
0.340875 0.0825 -0.1 -0.730668 2.9092 2.54919e-007 
0.340875 0.0825 0.1 -0.766104 2.90007 2.60716e-007 
0.350642 0.085208 -0.1 -0.833974 2.88135 2.71764e-007 
0.350642 0.085208 0.1 -0.866406 2.87177 2.77017e-007 
0.360593 0.088333 -0.1 -0.92804 2.85252 2.86951e-007 
0.360593 0.088333 0.1 -0.957243 2.84285 2.91635e-007 
0.370766 0.091875 -0.1 -1.01234 2.82377 3.00434e-007 
0.370766 0.091875 0.1 -1.03823 2.81435 3.04549e-007 
0.381199 0.095833 -0.1 -1.08691 2.79597 3.12257e-007 
0.381199 0.095833 0.1 -1.1097 2.787 3.1585e-007 
0.391931 0.100208 -0.1 -1.15228 2.76972 3.2254e-007 
0.391931 0.100208 0.1 -1.17207 2.7614 3.25637e-007 
0.403 0.105 -0.1 0.205423 1.83539 4.431e-008 
0.403 0.105 0.1 1.60271 0.917694 -2.40113e-007 
0.403 0.017 -0.1 2.39458 -0.918861 -4.58847e-007 
0.403 0.017 0.1 1.78916 -1.83772 -3.93156e-007 
0.394959 0.013547 -0.1 1.13525 -2.77592 -3.19833e-007 
0.394959 0.013547 0.1 1.08676 -2.79526 -3.12201e-007 
0.385921 0.010213 -0.1 0.998037 -2.82848 -2.98139e-007 
0.385921 0.010213 0.1 0.957803 -2.84236 -2.91711e-007 
0.376016 0.007031 -0.1 0.882443 -2.86681 -2.79604e-007 
0.376016 0.007031 0.1 0.847317 -2.87739 -2.73924e-007 
0.36537 0.004037 -0.1 0.780584 -2.8963 -2.63083e-007 
0.36537 0.004037 0.1 0.748978 -2.90463 -2.57921e-007 
0.354114 0.001265 -0.1 0.687737 -2.91979 -2.47876e-007 
0.354114 0.001265 0.1 0.658103 -2.92661 -2.42992e-007 
0.342375 -0.00125 -0.1 0.599775 -2.93914 -2.33342e-007 
0.342375 -0.00125 0.1 0.571081 -2.94485 -2.28574e-007 
0.330282 -0.003473 -0.1 0.513788 -2.95539 -2.19018e-007 
0.330282 -0.003473 0.1 0.485188 -2.96022 -2.14228e-007 
0.317963 -0.00537 -0.1 0.427167 -2.96914 -2.04473e-007 
0.317963 -0.00537 0.1 0.397747 -2.97322 -1.99508e-007 
0.305547 -0.006906 -0.1 0.33721 -2.98066 -1.89249e-007 
0.305547 -0.006906 0.1 0.306094 -2.98402 -1.83955e-007 
0.293162 -0.008046 -0.1 0.241299 -2.9899 -1.72883e-007 
0.293162 -0.008046 0.1 0.207619 -2.99243 -1.67105e-007 
0.280937 -0.00875599 -0.1 0.136396 -2.99643 -1.54826e-007 
0.280937 -0.008756 0.1 0.0988527 -2.9979 -1.48326e-007 
0.269 -0.00899999 -0.1 -0.0174314 -2.99788 -1.27994e-007 
0.269 -0.009 0.1 -0.096172 -2.99639 -1.14161e-007 
0.236365 -0.007094 -0.1 -0.295409 -2.98048 -7.86305e-008 
0.236365 -0.007094 0.1 -0.415906 -2.96607 -5.69316e-008 
0.205583 -0.0015 -0.1 -0.659292 -2.92118 -1.24144e-008 
0.205583 -0.0015 0.1 -0.782181 -2.8907 1.04045e-008 
0.176844 0.007594 -0.1 -1.02722 -2.81255 5.66649e-008 
0.176844 0.007594 0.1 -1.14938 -2.76488 8.01074e-008 
0.150333 0.02 -0.1 -1.3895 -2.65197 1.27026e-007 
0.150333 0.02 0.1 -1.50746 -2.58674 1.50503e-007 
0.12624 0.035531 -0.1 -1.73541 -2.4394 1.96799e-007 
0.12624 0.035531 0.1 -1.84539 -2.3573 2.19617e-007 
0.10475 0.054 -0.1 -2.05385 -2.17793 2.63906e-007 
0.10475 0.054 0.1 -2.15233 -2.08066 2.85376e-007 
0.086052 0.075219 -0.1 -2.33477 -1.87368 3.26323e-007 
0.086052 0.075219 0.1 -2.41873 -1.76397 3.45799e-007 
0.070333 0.099 -0.1 -2.57002 -1.53548 3.82238e-007 
0.070333 0.099 0.1 -2.63735 -1.41672 3.99202e-007 
0.057781 0.125156 -0.1 -2.75429 -1.17397 4.3026e-007 
0.057781 0.125156 0.1 -2.8039 -1.04998 4.44354e-007 
0.048583 0.1535 -0.1 -2.88541 -0.800574 4.69507e-007 
0.048583 0.1535 0.1 -2.91731 -0.675147 4.80566e-007 
0.042927 0.183844 -0.1 -2.96435 -0.426299 4.99669e-007 
0.042927 0.183844 0.1 -2.97949 -0.302879 5.07711e-007 
0.041 0.216 -0.1 -2.9952 -0.0703012 5.20625e-007 
0.041 0.216 0.1 -2.99577 0.0388554 5.25496e-007 
0.042771 0.251852 -0.1 -2.98557 0.253063 5.33076e-007 
0.042771 0.251852 0.1 -2.9748 0.358115 5.35784e-007 
0.048 0.285315 -0.1 -2.93979 0.575523 5.39166e-007 
0.048 0.285315 0.1 -2.91554 0.68788 5.39838e-007 
0.056562 0.31625 -0.1 -2.8507 0.917891 5.38554e-007 
0.056562 0.31625 0.1 -2.8101 1.03555 5.36599e-007 
0.068333 0.344519 -0.1 -2.71008 1.27273 5.29478e-007 
0.068333 0.344519 0.1 -2.65066 1.39225 5.24313e-007 
0.083188 0.369981 -0.1 -2.5118 1.62822 5.1035e-007 
0.083188 0.369981 0.1 -2.43237 1.74467 5.01551e-007 
0.101 0.3925 -0.1 -2.25405 1.96888 4.80173e-007 
0.101 0.3925 0.1 -2.15517 2.07665 4.67595e-007 
0.121646 0.411935 -0.1 -1.94113 2.27773 4.38961e-007 
0.121646 0.411935 0.1 -1.82598 2.37105 4.22906e-007 
0.145 0.428148 -0.1 -1.58453 2.53894 3.88029e-007 
0.145 0.428148 0.1 -1.45823 2.61353 3.69207e-007 
0.170938 0.441 -0.1 -1.20078 2.74189 3.29803e-007 
0.170938 0.441 0.1 -1.06963 2.79566 3.09222e-007 
0.199333 0.450352 -0.1 -0.808425 2.88278 2.6736e-007 
0.199333 0.450352 0.1 -0.678378 2.91612 2.46079e-007 
0.230063 0.456065 -0.1 -0.424202 2.96459 2.03756e-007 
0.230063 0.456065 0.1 -0.300072 2.97971 1.82713e-007 
0.263 0.458 -0.1 -0.0977884 2.99637 1.48073e-007 
0.263 0.458 0.1 -0.0196342 2.9979 1.34475e-007 
0.27566 0.457753 -0.1 0.0995391 2.99779 1.13633e-007 
0.27566 0.457753 0.1 0.140558 2.99614 1.0639e-007 
0.287699 0.457023 -0.1 0.224371 2.99098 9.15099e-008 
0.287699 0.457023 0.1 0.267165 2.98746 8.38737e-008 
0.299203 0.455828 -0.1 0.353632 2.97843 6.83605e-008 
0.299203 0.455828 0.1 0.397305 2.97292 6.04836e-008 
0.310259 0.454185 -0.1 0.484275 2.96 4.47125e-008 
0.310259 0.454185 0.1 0.527572 2.95259 3.68184e-008 
0.320954 0.452112 -0.1 0.612713 2.93614 2.12126e-008 
0.320954 0.452112 0.1 0.654557 2.9271 1.3501e-008 
0.331375 0.449625 -0.1 0.735357 2.90792 -1.46465e-009 
0.331375 0.449625 0.1 0.774313 2.89779 -8.71869e-009 
0.341608 0.446743 -0.1 0.848526 2.87703 -2.26021e-008 
0.341608 0.446743 0.1 0.883783 2.86639 -2.92315e-008 
0.351741 0.443482 -0.1 0.949808 2.8453 -4.16976e-008 
0.351741 0.443482 0.1 0.980576 2.83485 -4.75343e-008 
0.361859 0.439859 -0.1 1.03679 2.81489 -5.82355e-008 
0.361859 0.439859 0.1 1.06223 2.80538 -6.30994e-008 
0.372051 0.435894 -0.1 1.10822 2.78763 -7.19165e-008 
0.372051 0.435894 0.1 1.12876 2.77937 -7.58688e-008 
0.382402 0.431601 -0.1 1.16443 2.7647 -8.27469e-008 
0.382402 0.431601 0.1 1.17956 2.75828 -8.56727e-008 
0.393 0.427 -0.1 1.79646 1.83457 -2.33911e-007 
0.393 0.427 0.1 2.39823 0.917286 -3.79224e-007 
0.393 0.332 -0.1 1.45777 -0.840229 -2.91612e-007 
0.393 0.332 0.1 -0.0844637 -1.68046 -5.8687e-008 
3 83 85 84 
3 83 86 85 
3 83 87 86 
3 82 87 83 
3 82 88 87 
3 82 89 88 
3 82 90 89 
3 81 90 82 
3 81 91 90 
3 81 92 91 
3 81 93 92 
3 80 93 81 
3 80 94 93 
3 80 95 94 
3 80 96 95 
3 79 96 80 
3 79 7 96 
3 7 6 96 
3 6 5 96 
3 5 4 96 
3 4 3 96 
3 3 2 96 
3 2 1 96 
3 1 0 96 
3 0 97 96 
3 78 9 79 
3 9 8 79 
3 8 7 79 
3 77 11 78 
3 11 10 78 
3 10 9 78 
3 77 12 11 
3 77 13 12 
3 77 14 13 
3 76 14 77 
3 76 15 14 
3 76 16 15 
3 76 17 16 
3 75 17 76 
3 75 18 17 
3 75 19 18 
3 74 19 75 
3 74 20 19 
3 74 21 20 
3 73 21 74 
3 73 22 21 
3 72 22 73 
3 72 23 22 
3 72 24 23 
3 71 24 72 
3 71 25 24 
3 70 25 71 
3 70 26 25 
3 70 27 26 
3 69 27 70 
3 69 28 27 
3 69 29 28 
3 68 29 69 
3 68 30 29 
3 46 48 47 
3 68 31 30 
3 45 48 46 
3 67 31 68 
3 44 48 45 
3 67 32 31 
3 43 48 44 
3 42 48 43 
3 41 48 42 
3 67 33 32 
3 40 48 41 
3 39 48 40 
3 67 34 33 
3 38 48 39 
3 37 48 38 
3 67 35 34 
3 36 48 37 
3 66 35 67 
3 35 48 36 
3 66 48 35 
3 65 48 66 
3 64 48 65 
3 63 48 64 
3 63 49 48 
3 63 50 49 
3 63 51 50 
3 62 51 63 
3 62 52 51 
3 62 53 52 
3 62 54 53 
3 62 55 54 
3 61 55 62 
3 61 56 55 
3 61 57 56 
3 61 58 57 
3 60 58 61 
3 60 59 58 
3 183 181 182 
3 184 181 183 
3 185 181 184 
3 185 180 181 
3 186 180 185 
3 187 180 186 
3 188 180 187 
3 188 179 180 
3 189 179 188 
3 190 179 189 
3 191 179 190 
3 191 178 179 
3 192 178 191 
3 193 178 192 
3 194 178 193 
3 194 177 178 
3 105 177 194 
3 104 105 194 
3 103 104 194 
3 102 103 194 
3 101 102 194 
3 100 101 194 
3 99 100 194 
3 98 99 194 
3 195 98 194 
3 107 176 177 
3 106 107 177 
3 105 106 177 
3 109 175 176 
3 108 109 176 
3 107 108 176 
3 110 175 109 
3 111 175 110 
3 112 175 111 
3 112 174 175 
3 113 174 112 
3 114 174 113 
3 115 174 114 
3 115 173 174 
3 116 173 115 
3 117 173 116 
3 117 172 173 
3 118 172 117 
3 119 172 118 
3 119 171 172 
3 120 171 119 
3 120 170 171 
3 121 170 120 
3 122 170 121 
3 122 169 170 
3 123 169 122 
3 123 168 169 
3 124 168 123 
3 125 168 124 
3 125 167 168 
3 126 167 125 
3 127 167 126 
3 127 166 167 
3 128 166 127 
3 146 144 145 
3 129 166 128 
3 146 143 144 
3 129 165 166 
3 146 142 143 
3 130 165 129 
3 146 141 142 
3 146 140 141 
3 146 139 140 
3 131 165 130 
3 146 138 139 
3 146 137 138 
3 132 165 131 
3 146 136 137 
3 146 135 136 
3 133 165 132 
3 146 134 135 
3 133 164 165 
3 146 133 134 
3 146 164 133 
3 146 163 164 
3 146 162 163 
3 146 161 162 
3 147 161 146 
3 148 161 147 
3 149 161 148 
3 149 160 161 
3 150 160 149 
3 151 160 150 
3 152 160 151 
3 153 160 152 
3 153 159 160 
3 154 159 153 
3 155 159 154 
3 156 159 155 
3 156 158 159 
3 157 158 156 
3 197 199 198 
3 197 198 196 
3 199 201 200 
3 199 200 198 
3 201 203 202 
3 201 202 200 
3 203 205 204 
3 203 204 202 
3 205 207 206 
3 205 206 204 
3 207 209 208 
3 207 208 206 
3 209 211 210 
3 209 210 208 
3 211 213 212 
3 211 212 210 
3 213 215 214 
3 213 214 212 
3 215 217 216 
3 215 216 214 
3 217 219 218 
3 217 218 216 
3 219 221 220 
3 219 220 218 
3 221 223 222 
3 221 222 220 
3 223 225 224 
3 223 224 222 
3 225 227 226 
3 225 226 224 
3 227 229 228 
3 227 228 226 
3 229 231 230 
3 229 230 228 
3 231 233 232 
3 231 232 230 
3 233 235 234 
3 233 234 232 
3 235 237 236 
3 235 236 234 
3 237 239 238 
3 237 238 236 
3 239 241 240 
3 239 240 238 
3 241 243 242 
3 241 242 240 
3 243 245 244 
3 243 244 242 
3 245 247 246 
3 245 246 244 
3 247 249 248 
3 247 248 246 
3 249 251 250 
3 249 250 248 
3 251 253 252 
3 251 252 250 
3 253 255 254 
3 253 254 252 
3 255 257 256 
3 255 256 254 
3 257 259 258 
3 257 258 256 
3 259 261 260 
3 259 260 258 
3 261 263 262 
3 261 262 260 
3 263 265 264 
3 263 264 262 
3 265 267 266 
3 265 266 264 
3 267 269 268 
3 267 268 266 
3 269 271 270 
3 269 270 268 
3 271 273 272 
3 271 272 270 
3 273 275 274 
3 273 274 272 
3 275 277 276 
3 275 276 274 
3 277 279 278 
3 277 278 276 
3 279 281 280 
3 279 280 278 
3 281 283 282 
3 281 282 280 
3 283 285 284 
3 283 284 282 
3 285 287 286 
3 285 286 284 
3 287 289 288 
3 287 288 286 
3 289 291 290 
3 289 290 288 
3 291 293 292 
3 291 292 290 
3 293 295 294 
3 293 294 292 
3 295 297 296 
3 295 296 294 
3 297 299 298 
3 297 298 296 
3 299 301 300 
3 299 300 298 
3 301 303 302 
3 301 302 300 
3 303 305 304 
3 303 304 302 
3 305 307 306 
3 305 306 304 
3 307 309 308 
3 307 308 306 
3 309 311 310 
3 309 310 308 
3 311 313 312 
3 311 312 310 
3 313 315 314 
3 313 314 312 
3 315 317 316 
3 315 316 314 
3 317 319 318 
3 317 318 316 
3 319 321 320 
3 319 320 318 
3 321 323 322 
3 321 322 320 
3 323 325 324 
3 323 324 322 
3 325 327 326 
3 325 326 324 
3 327 329 328 
3 327 328 326 
3 329 331 330 
3 329 330 328 
3 331 333 332 
3 331 332 330 
3 333 335 334 
3 333 334 332 
3 335 337 336 
3 335 336 334 
3 337 339 338 
3 337 338 336 
3 339 341 340 
3 339 340 338 
3 341 343 342 
3 341 342 340 
3 343 345 344 
3 343 344 342 
3 345 347 346 
3 345 346 344 
3 347 349 348 
3 347 348 346 
3 349 351 350 
3 349 350 348 
3 351 353 352 
3 351 352 350 
3 353 355 354 
3 353 354 352 
3 355 357 356 
3 355 356 354 
3 357 359 358 
3 357 358 356 
3 359 361 360 
3 359 360 358 
3 361 363 362 
3 361 362 360 
3 363 365 364 
3 363 364 362 
3 365 367 366 
3 365 366 364 
3 367 369 368 
3 367 368 366 
3 369 371 370 
3 369 370 368 
3 371 373 372 
3 371 372 370 
3 373 375 374 
3 373 374 372 
3 375 377 376 
3 375 376 374 
3 377 379 378 
3 377 378 376 
3 379 381 380 
3 379 380 378 
3 381 383 382 
3 381 382 380 
3 383 385 384 
3 383 384 382 
3 385 387 386 
3 385 386 384 
3 387 389 388 
3 387 388 386 
3 389 391 390 
3 389 390 388 
3 391 197 196 
3 391 196 390 
