ply
format ascii 1.0
comment VCGLIB generated
element vertex 428
property float x
property float y
property float z
property float nx
property float ny
property float nz
element face 424
property list uchar int vertex_indices
end_header
0.047213 0.300259 0.1 1.06084e-010 -2.6521e-011 0.00060673 
0.063954 0.303991 0.1 2.01158e-010 -5.02895e-011 0.00115049 
0.078375 0.310125 0.1 5.02992e-010 -1.25748e-010 0.00287678 
0.09063 0.318593 0.1 3.14238e-010 -7.85593e-011 0.00179723 
0.10087 0.329324 0.1 6.12421e-010 -1.53105e-010 0.00350264 
0.10925 0.34225 0.1 6.80815e-010 -1.70204e-010 0.00389381 
0.115921 0.357301 0.1 7.5823e-010 -1.89558e-010 0.00433657 
0.121037 0.374407 0.1 8.43317e-010 -2.10829e-010 0.00482321 
0.12475 0.3935 0.1 5.6839e-010 -1.42097e-010 0.00325081 
0.127213 0.414509 0.1 9.88836e-010 -2.47209e-010 0.00565548 
0.128579 0.437366 0.1 1.08665e-009 -2.71663e-010 0.00621493 
0.129 0.462 0.1 2.0717e-009 -5.17924e-010 0.0118487 
0.129 0.55 0.1 2.97084e-009 -7.42708e-010 0.0169912 
0.129751 0.57787 0.1 1.2152e-009 -3.03799e-010 0.00695011 
0.132088 0.603463 0.1 1.0389e-009 -2.59726e-010 0.00594183 
0.136141 0.62675 0.1 1.00997e-009 -2.52493e-010 0.00577638 
0.142037 0.647704 0.1 9.46119e-010 -2.3653e-010 0.00541117 
0.149906 0.666296 0.1 1.00579e-009 -2.51446e-010 0.00575242 
0.159875 0.6825 0.1 9.05436e-010 -2.26359e-010 0.00517849 
0.172073 0.696287 0.1 8.13206e-010 -2.03302e-010 0.004651 
0.18663 0.70763 0.1 7.43362e-010 -1.8584e-010 0.00425153 
0.203672 0.7165 0.1 6.972e-010 -1.743e-010 0.00398752 
0.223329 0.72287 0.1 6.7591e-010 -1.68977e-010 0.00386575 
0.245729 0.726713 0.1 1.19863e-009 -2.99657e-010 0.00685535 
0.271 0.728 0.1 8.77592e-012 -2.19398e-012 5.01924e-005 
0.31 0.728 0.1 8.62826e-010 -2.15706e-010 0.00493479 
0.31 0.652 0.1 3.21624e-009 -8.04062e-010 0.0183948 
0.295 0.652 0.1 8.85814e-011 -2.21453e-011 0.000506627 
0.278642 0.651598 0.1 5.11579e-010 -1.27895e-010 0.00292589 
0.264472 0.650282 0.1 6.75024e-011 -1.68756e-011 0.000386069 
0.252344 0.647891 0.1 1.15434e-010 -2.88584e-011 0.000660204 
0.242111 0.644259 0.1 5.07211e-010 -1.26803e-010 0.00290091 
0.233628 0.639225 0.1 1.64798e-010 -4.11995e-011 0.000942534 
0.22675 0.632625 0.1 2.23881e-010 -5.59703e-011 0.00128045 
0.22133 0.624296 0.1 6.19518e-010 -1.5488e-010 0.00354323 
0.217222 0.614074 0.1 3.21826e-010 -8.04567e-011 0.00184063 
0.214281 0.601797 0.1 7.51983e-010 -1.87996e-010 0.00430084 
0.212361 0.587301 0.1 4.48276e-010 -1.12069e-010 0.00256384 
0.211316 0.570423 0.1 9.18922e-010 -2.2973e-010 0.00525562 
0.211 0.551 0.1 1.31071e-009 -3.27677e-010 0.00749637 
0.211 0.479 0.1 2.75216e-009 -6.88041e-010 0.0157405 
0.210425 0.446923 0.1 1.22022e-009 -3.05054e-010 0.00697883 
0.208653 0.418051 0.1 1.10145e-009 -2.75363e-010 0.00629956 
0.205609 0.392172 0.1 1.26293e-009 -3.15733e-010 0.00722312 
0.201222 0.369074 0.1 8.66739e-010 -2.16685e-010 0.00495717 
0.195418 0.348546 0.1 7.79371e-010 -1.94843e-010 0.00445748 
0.188125 0.330375 0.1 7.0425e-010 -1.76063e-010 0.00402784 
0.179269 0.31435 0.1 7.97917e-010 -1.99479e-010 0.00456355 
0.168778 0.300259 0.1 7.70492e-010 -1.92623e-010 0.0044067 
0.156578 0.287891 0.1 2.17597e-009 -5.43992e-010 0.0124451 
0.142597 0.277032 0.1 1.02353e-010 -2.55883e-011 0.000585392 
0.126762 0.267473 0.1 6.22738e-012 -1.55685e-012 3.56165e-005 
0.109 0.259 0.1 2.70856e-010 -6.77142e-011 0.00154912 
0.126762 0.250527 0.1 4.96578e-010 -1.24144e-010 0.00284009 
0.142597 0.240968 0.1 5.23634e-010 -1.30909e-010 0.00299484 
0.156578 0.230109 0.1 5.73026e-010 -1.43257e-010 0.00327733 
0.168778 0.217741 0.1 6.72935e-010 -1.68234e-010 0.00384874 
0.179269 0.20365 0.1 7.57919e-010 -1.8948e-010 0.00433479 
0.188125 0.187625 0.1 8.78158e-010 -2.1954e-010 0.00502248 
0.195418 0.169454 0.1 7.79371e-010 -1.94843e-010 0.00445748 
0.201222 0.148926 0.1 8.66739e-010 -2.16685e-010 0.00495717 
0.205609 0.125828 0.1 9.653e-010 -2.41325e-010 0.00552087 
0.208653 0.099949 0.1 1.39904e-009 -3.49761e-010 0.0080016 
0.210425 0.071077 0.1 1.22022e-009 -3.05054e-010 0.00697883 
0.211 0.039 0.1 2.75216e-009 -6.88041e-010 0.0157405 
0.211 -0.033 0.1 1.70915e-009 -4.27287e-010 0.00977518 
0.211316 -0.052423 0.1 5.19471e-010 -1.29868e-010 0.00297103 
0.212361 -0.069301 0.1 8.16756e-010 -2.04189e-010 0.0046713 
0.214281 -0.083797 0.1 3.86172e-010 -9.65432e-011 0.00220865 
0.217222 -0.096074 0.1 6.70424e-010 -1.67606e-010 0.00383438 
0.22133 -0.106296 0.1 2.80404e-010 -7.0101e-011 0.00160372 
0.22675 -0.114625 0.1 5.68186e-010 -1.42046e-010 0.00324964 
0.233628 -0.121225 0.1 2.09084e-010 -5.22708e-011 0.00119582 
0.242111 -0.126259 0.1 1.62907e-010 -4.07267e-011 0.000931717 
0.252344 -0.129891 0.1 5.09888e-010 -1.27472e-010 0.00291622 
0.264472 -0.132282 0.1 1.4789e-010 -3.69725e-011 0.000845833 
0.278642 -0.133598 0.1 1.17124e-010 -2.92809e-011 0.000669869 
0.295 -0.134 0.1 8.85806e-011 -2.21452e-011 0.000506622 
0.31 -0.134 0.1 2.16486e-009 -5.41216e-010 0.0123816 
0.31 -0.21 0.1 3.18754e-009 -7.96883e-010 0.0182306 
0.271 -0.21 0.1 8.77601e-012 -2.194e-012 5.01929e-005 
0.245729 -0.208713 0.1 4.6921e-011 -1.17303e-011 0.000268357 
0.223329 -0.20487 0.1 1.17045e-010 -2.92612e-011 0.000669418 
0.203672 -0.1985 0.1 2.09535e-010 -5.23838e-011 0.0011984 
0.18663 -0.18963 0.1 3.23466e-010 -8.08664e-011 0.00185001 
0.172073 -0.178287 0.1 4.5768e-010 -1.1442e-010 0.00261763 
0.159875 -0.1645 0.1 6.10876e-010 -1.52719e-010 0.0034938 
0.149906 -0.148296 0.1 3.06818e-009 -7.67047e-010 0.017548 
0.142037 -0.129704 0.1 9.63027e-010 -2.40757e-010 0.00550787 
0.136141 -0.10875 0.1 9.45427e-010 -2.36357e-010 0.00540721 
0.132088 -0.085463 0.1 1.0911e-009 -2.72775e-010 0.00624036 
0.129751 -0.05987 0.1 1.28473e-009 -3.21183e-010 0.00734781 
0.129 -0.032 0.1 2.69342e-009 -6.73356e-010 0.0154046 
0.129 0.056 0.1 2.0717e-009 -5.17924e-010 0.0118487 
0.128579 0.080634 0.1 1.08665e-009 -2.71663e-010 0.00621493 
0.127213 0.103491 0.1 6.22255e-010 -1.55564e-010 0.00355888 
0.12475 0.1245 0.1 9.35006e-010 -2.33752e-010 0.00534761 
0.121037 0.143593 0.1 8.43316e-010 -2.10829e-010 0.00482321 
0.115921 0.160699 0.1 7.5823e-010 -1.89557e-010 0.00433657 
0.10925 0.17575 0.1 6.80816e-010 -1.70204e-010 0.00389381 
0.10087 0.188676 0.1 3.57492e-010 -8.93732e-011 0.00204462 
0.09063 0.199407 0.1 5.5709e-010 -1.39272e-010 0.00318618 
0.078375 0.207875 0.1 2.37886e-010 -5.94715e-011 0.00136055 
0.063954 0.214009 0.1 4.41986e-010 -1.10496e-010 0.00252786 
0.047213 0.217741 0.1 1.06084e-010 -2.6521e-011 0.00060673 
0.028 0.219 0.1 2.991e-009 -7.47748e-010 0.0171065 
0.028 0.299 0.1 2.12701e-009 -5.31752e-010 0.0121651 
0.047213 0.300259 -0.1 -1.06084e-010 2.6521e-011 -0.00060673 
0.063954 0.303991 -0.1 -2.01158e-010 5.02895e-011 -0.00115049 
0.078375 0.310125 -0.1 -5.02992e-010 1.25748e-010 -0.00287678 
0.09063 0.318593 -0.1 -3.14238e-010 7.85593e-011 -0.00179723 
0.10087 0.329324 -0.1 -6.12421e-010 1.53105e-010 -0.00350264 
0.10925 0.34225 -0.1 -6.80815e-010 1.70204e-010 -0.00389381 
0.115921 0.357301 -0.1 -7.5823e-010 1.89558e-010 -0.00433657 
0.121037 0.374407 -0.1 -8.43316e-010 2.10829e-010 -0.00482321 
0.12475 0.3935 -0.1 -5.6839e-010 1.42097e-010 -0.00325081 
0.127213 0.414509 -0.1 -9.88836e-010 2.47209e-010 -0.00565548 
0.128579 0.437366 -0.1 -1.08665e-009 2.71663e-010 -0.00621493 
0.129 0.462 -0.1 -2.0717e-009 5.17924e-010 -0.0118487 
0.129 0.55 -0.1 -2.97084e-009 7.42708e-010 -0.0169912 
0.129751 0.57787 -0.1 -1.2152e-009 3.03799e-010 -0.00695011 
0.132088 0.603463 -0.1 -1.0389e-009 2.59726e-010 -0.00594183 
0.136141 0.62675 -0.1 -1.00997e-009 2.52493e-010 -0.00577638 
0.142037 0.647704 -0.1 -9.46119e-010 2.3653e-010 -0.00541117 
0.149906 0.666296 -0.1 -1.00579e-009 2.51447e-010 -0.00575243 
0.159875 0.6825 -0.1 -9.05436e-010 2.26359e-010 -0.00517849 
0.172073 0.696287 -0.1 -8.13206e-010 2.03302e-010 -0.004651 
0.18663 0.70763 -0.1 -7.43362e-010 1.8584e-010 -0.00425153 
0.203672 0.7165 -0.1 -6.97202e-010 1.743e-010 -0.00398753 
0.223329 0.72287 -0.1 -6.7591e-010 1.68977e-010 -0.00386575 
0.245729 0.726713 -0.1 -1.19863e-009 2.99657e-010 -0.00685535 
0.271 0.728 -0.1 -8.77592e-012 2.19398e-012 -5.01924e-005 
0.31 0.728 -0.1 -8.62826e-010 2.15706e-010 -0.00493479 
0.31 0.652 -0.1 -3.21624e-009 8.04062e-010 -0.0183948 
0.295 0.652 -0.1 -8.85814e-011 2.21453e-011 -0.000506627 
0.278642 0.651598 -0.1 -5.11579e-010 1.27895e-010 -0.00292589 
0.264472 0.650282 -0.1 -6.75024e-011 1.68756e-011 -0.000386069 
0.252344 0.647891 -0.1 -1.15434e-010 2.88584e-011 -0.000660204 
0.242111 0.644259 -0.1 -5.07211e-010 1.26803e-010 -0.00290091 
0.233628 0.639225 -0.1 -1.64798e-010 4.11995e-011 -0.000942534 
0.22675 0.632625 -0.1 -2.23881e-010 5.59703e-011 -0.00128045 
0.22133 0.624296 -0.1 -6.19518e-010 1.5488e-010 -0.00354323 
0.217222 0.614074 -0.1 -3.21826e-010 8.04567e-011 -0.00184063 
0.214281 0.601797 -0.1 -7.51984e-010 1.87996e-010 -0.00430085 
0.212361 0.587301 -0.1 -4.48276e-010 1.12069e-010 -0.00256384 
0.211316 0.570423 -0.1 -9.18922e-010 2.2973e-010 -0.00525562 
0.211 0.551 -0.1 -1.31071e-009 3.27677e-010 -0.00749637 
0.211 0.479 -0.1 -2.75216e-009 6.88041e-010 -0.0157405 
0.210425 0.446923 -0.1 -1.22022e-009 3.05054e-010 -0.00697883 
0.208653 0.418051 -0.1 -1.10145e-009 2.75363e-010 -0.00629956 
0.205609 0.392172 -0.1 -1.26293e-009 3.15733e-010 -0.00722312 
0.201222 0.369074 -0.1 -8.66739e-010 2.16685e-010 -0.00495717 
0.195418 0.348546 -0.1 -7.79371e-010 1.94843e-010 -0.00445748 
0.188125 0.330375 -0.1 -7.0425e-010 1.76063e-010 -0.00402784 
0.179269 0.31435 -0.1 -7.97917e-010 1.99479e-010 -0.00456355 
0.168778 0.300259 -0.1 -7.70492e-010 1.92623e-010 -0.0044067 
0.156578 0.287891 -0.1 -2.17597e-009 5.43992e-010 -0.0124451 
0.142597 0.277032 -0.1 -1.02353e-010 2.55883e-011 -0.000585392 
0.126762 0.267473 -0.1 -6.22738e-012 1.55685e-012 -3.56165e-005 
0.109 0.259 -0.1 -2.70856e-010 6.77142e-011 -0.00154912 
0.126762 0.250527 -0.1 -4.96577e-010 1.24144e-010 -0.00284009 
0.142597 0.240968 -0.1 -5.23634e-010 1.30909e-010 -0.00299484 
0.156578 0.230109 -0.1 -5.73026e-010 1.43257e-010 -0.00327733 
0.168778 0.217741 -0.1 -6.72935e-010 1.68234e-010 -0.00384874 
0.179269 0.20365 -0.1 -7.57919e-010 1.8948e-010 -0.00433479 
0.188125 0.187625 -0.1 -8.78158e-010 2.1954e-010 -0.00502248 
0.195418 0.169454 -0.1 -7.79371e-010 1.94843e-010 -0.00445748 
0.201222 0.148926 -0.1 -8.66739e-010 2.16685e-010 -0.00495717 
0.205609 0.125828 -0.1 -9.653e-010 2.41325e-010 -0.00552087 
0.208653 0.099949 -0.1 -1.39904e-009 3.49761e-010 -0.0080016 
0.210425 0.071077 -0.1 -1.22022e-009 3.05054e-010 -0.00697883 
0.211 0.039 -0.1 -2.75216e-009 6.88041e-010 -0.0157405 
0.211 -0.033 -0.1 -1.70915e-009 4.27287e-010 -0.00977518 
0.211316 -0.052423 -0.1 -5.19471e-010 1.29868e-010 -0.00297103 
0.212361 -0.069301 -0.1 -8.16756e-010 2.04189e-010 -0.0046713 
0.214281 -0.083797 -0.1 -3.86172e-010 9.65432e-011 -0.00220865 
0.217222 -0.096074 -0.1 -6.70424e-010 1.67606e-010 -0.00383438 
0.22133 -0.106296 -0.1 -2.80404e-010 7.0101e-011 -0.00160372 
0.22675 -0.114625 -0.1 -5.68186e-010 1.42046e-010 -0.00324964 
0.233628 -0.121225 -0.1 -2.09084e-010 5.22708e-011 -0.00119582 
0.242111 -0.126259 -0.1 -1.62907e-010 4.07267e-011 -0.000931717 
0.252344 -0.129891 -0.1 -5.09888e-010 1.27472e-010 -0.00291622 
0.264472 -0.132282 -0.1 -1.4789e-010 3.69725e-011 -0.000845833 
0.278642 -0.133598 -0.1 -1.17124e-010 2.92809e-011 -0.000669869 
0.295 -0.134 -0.1 -8.85806e-011 2.21452e-011 -0.000506622 
0.31 -0.134 -0.1 -2.16486e-009 5.41216e-010 -0.0123816 
0.31 -0.21 -0.1 -3.18754e-009 7.96883e-010 -0.0182306 
0.271 -0.21 -0.1 -8.77601e-012 2.194e-012 -5.01929e-005 
0.245729 -0.208713 -0.1 -4.6921e-011 1.17303e-011 -0.000268357 
0.223329 -0.20487 -0.1 -1.17045e-010 2.92612e-011 -0.000669418 
0.203672 -0.1985 -0.1 -2.09534e-010 5.23837e-011 -0.0011984 
0.18663 -0.18963 -0.1 -3.23466e-010 8.08664e-011 -0.00185001 
0.172073 -0.178287 -0.1 -4.5768e-010 1.1442e-010 -0.00261762 
0.159875 -0.1645 -0.1 -6.10876e-010 1.52719e-010 -0.0034938 
0.149906 -0.148296 -0.1 -3.06818e-009 7.67047e-010 -0.017548 
0.142037 -0.129704 -0.1 -9.63027e-010 2.40757e-010 -0.00550787 
0.136141 -0.10875 -0.1 -9.45427e-010 2.36357e-010 -0.00540721 
0.132088 -0.085463 -0.1 -1.0911e-009 2.72775e-010 -0.00624036 
0.129751 -0.05987 -0.1 -1.28473e-009 3.21183e-010 -0.00734781 
0.129 -0.032 -0.1 -2.69342e-009 6.73356e-010 -0.0154046 
0.129 0.056 -0.1 -2.0717e-009 5.17924e-010 -0.0118487 
0.128579 0.080634 -0.1 -1.08665e-009 2.71663e-010 -0.00621493 
0.127213 0.103491 -0.1 -6.22255e-010 1.55564e-010 -0.00355888 
0.12475 0.1245 -0.1 -9.35006e-010 2.33752e-010 -0.00534761 
0.121037 0.143593 -0.1 -8.43316e-010 2.10829e-010 -0.00482321 
0.115921 0.160699 -0.1 -7.5823e-010 1.89558e-010 -0.00433657 
0.10925 0.17575 -0.1 -6.80816e-010 1.70204e-010 -0.00389381 
0.10087 0.188676 -0.1 -3.57493e-010 8.93733e-011 -0.00204462 
0.09063 0.199407 -0.1 -5.5709e-010 1.39272e-010 -0.00318618 
0.078375 0.207875 -0.1 -2.37886e-010 5.94715e-011 -0.00136055 
0.063954 0.214009 -0.1 -4.41986e-010 1.10496e-010 -0.00252786 
0.047213 0.217741 -0.1 -1.06084e-010 2.6521e-011 -0.00060673 
0.028 0.219 -0.1 -2.991e-009 7.47748e-010 -0.0171065 
0.028 0.299 -0.1 -2.12701e-009 5.31752e-010 -0.0121651 
0.047213 0.300259 -0.1 -0.348361 2.97176 1.90809e-007 
0.047213 0.300259 0.1 -0.500557 2.94994 2.16466e-007 
0.063954 0.303991 -0.1 -0.826584 2.8723 2.70076e-007 
0.063954 0.303991 0.1 -1.00041 2.81647 2.9803e-007 
0.078375 0.310125 -0.1 -1.3513 2.66313 3.52678e-007 
0.078375 0.310125 0.1 -1.52836 2.56562 3.79373e-007 
0.09063 0.318593 -0.1 -1.86041 2.33576 4.27384e-007 
0.09063 0.318593 0.1 -2.0154 2.20342 4.48699e-007 
0.10087 0.329324 -0.1 -2.28602 1.92471 4.83832e-007 
0.10087 0.329324 0.1 -2.40165 1.77834 4.97652e-007 
0.10925 0.34225 -0.1 -2.59241 1.49319 5.18541e-007 
0.10925 0.34225 0.1 -2.66754 1.35441 5.25611e-007 
0.115921 0.357301 -0.1 -2.78652 1.09695 5.35159e-007 
0.115921 0.357301 0.1 -2.83036 0.97828 5.37638e-007 
0.121037 0.374407 -0.1 -2.89775 0.763965 5.40052e-007 
0.121037 0.374407 0.1 -2.92129 0.668322 5.39988e-007 
0.12475 0.3935 -0.1 -2.95642 0.498224 5.38694e-007 
0.12475 0.3935 0.1 -2.96801 0.423769 5.37467e-007 
0.127213 0.414509 -0.1 -2.98461 0.292533 5.34633e-007 
0.127213 0.414509 0.1 -2.98964 0.235751 5.3303e-007 
0.128579 0.437366 -0.1 -2.99629 0.1364 5.2985e-007 
0.128579 0.437366 0.1 -2.99793 0.093831 5.28276e-007 
0.129 0.462 -0.1 -2.99971 0.0341744 5.2598e-007 
0.129 0.462 0.1 -2.99985 0.0170872 5.25257e-007 
0.129 0.55 -0.1 -2.99964 0.0269369 5.25651e-007 
0.129 0.55 0.1 -2.99927 0.0538738 5.26764e-007 
0.129751 0.57787 -0.1 -2.99513 0.14481 5.30015e-007 
0.129751 0.57787 0.1 -2.99135 0.208809 5.32152e-007 
0.132088 0.603463 -0.1 -2.9769 0.35334 5.35943e-007 
0.132088 0.603463 0.1 -2.96624 0.433872 5.37599e-007 
0.136141 0.62675 -0.1 -2.933 0.613796 5.39652e-007 
0.136141 0.62675 0.1 -2.91043 0.713188 5.4005e-007 
0.142037 0.647704 -0.1 -2.84615 0.931492 5.38353e-007 
0.142037 0.647704 0.1 -2.80444 1.0504 5.36259e-007 
0.149906 0.666296 -0.1 -2.69354 1.30354 5.27934e-007 
0.149906 0.666296 0.1 -2.62435 1.43776 5.21703e-007 
0.159875 0.6825 -0.1 -2.45239 1.71062 5.03563e-007 
0.159875 0.6825 0.1 -2.34962 1.84925 4.91653e-007 
0.172073 0.696287 -0.1 -2.11254 2.11406 4.61777e-007 
0.172073 0.696287 0.1 -1.97824 2.24024 4.4381e-007 
0.18663 0.70763 -0.1 -1.69098 2.46465 4.03393e-007 
0.18663 0.70763 0.1 -1.53802 2.56289 3.80943e-007 
0.203672 0.7165 -0.1 -1.23165 2.72538 3.34479e-007 
0.203672 0.7165 0.1 -1.07824 2.78964 3.10464e-007 
0.223329 0.72287 -0.1 -0.785644 2.88819 2.63613e-007 
0.223329 0.72287 0.1 -0.64646 2.9225 2.40777e-007 
0.245729 0.726713 -0.1 -0.389046 2.96991 1.97841e-007 
0.245729 0.726713 0.1 -0.270815 2.98301 1.77742e-007 
0.271 0.728 -0.1 -0.101723 2.99741 1.48807e-007 
0.271 0.728 0.1 -0.0508614 2.99871 1.3997e-007 
0.31 0.728 -0.1 1 2 -8.74228e-008 
0.31 0.728 0.1 2 1 -3.0598e-007 
0.31 0.652 -0.1 2 -1 -3.93403e-007 
0.31 0.652 0.1 1 -2 -2.62269e-007 
0.295 0.652 -0.1 0.0245698 -2.9997 -1.35417e-007 
0.295 0.652 0.1 0.0491395 -2.9994 -1.397e-007 
0.278642 0.651598 -0.1 0.141611 -2.99511 -1.5568e-007 
0.278642 0.651598 0.1 0.209512 -2.99113 -1.67378e-007 
0.264472 0.650282 -0.1 0.378369 -2.97255 -1.9609e-007 
0.264472 0.650282 0.1 0.479325 -2.95794 -2.13104e-007 
0.252344 0.647891 -0.1 0.721341 -2.90463 -2.53089e-007 
0.252344 0.647891 0.1 0.862401 -2.86592 -2.7606e-007 
0.242111 0.644259 -0.1 1.1793 -2.74478 -3.26174e-007 
0.242111 0.644259 0.1 1.35514 -2.66236 -3.53316e-007 
0.233628 0.639225 -0.1 1.71303 -2.4415 -4.06237e-007 
0.233628 0.639225 0.1 1.89508 -2.30305 -4.32016e-007 
0.22675 0.632625 -0.1 2.22291 -1.9885 -4.75586e-007 
0.22675 0.632625 0.1 2.3687 -1.81239 -4.93378e-007 
0.22133 0.624296 -0.1 2.60419 -1.46374 -5.19314e-007 
0.22133 0.624296 0.1 2.69391 -1.29121 -5.27459e-007 
0.217222 0.614074 -0.1 2.82823 -0.978747 -5.37287e-007 
0.217222 0.614074 0.1 2.87285 -0.838818 -5.38971e-007 
0.214281 0.601797 -0.1 2.93631 -0.59723 -5.39506e-007 
0.214281 0.601797 0.1 2.95517 -0.495571 -5.3836e-007 
0.212361 0.587301 -0.1 2.98077 -0.324404 -5.35355e-007 
0.212361 0.587301 0.1 2.98752 -0.254896 -5.33496e-007 
0.211316 0.570423 -0.1 2.99604 -0.139859 -5.29958e-007 
0.211316 0.570423 0.1 2.99782 -0.0943312 -5.28279e-007 
0.211 0.551 -0.1 2.99974 -0.0325353 -5.25913e-007 
0.211 0.551 0.1 2.99987 -0.0162677 -5.25225e-007 
0.211 0.479 -0.1 2.99984 -0.0179225 -5.25292e-007 
0.211 0.479 0.1 2.99968 -0.0358449 -5.26047e-007 
0.210425 0.446923 -0.1 2.9978 -0.0971041 -5.28397e-007 
0.210425 0.446923 0.1 2.99608 -0.140441 -5.29991e-007 
0.208653 0.418051 -0.1 2.9894 -0.239338 -5.33145e-007 
0.208653 0.418051 0.1 2.98443 -0.294898 -5.34704e-007 
0.205609 0.392172 -0.1 2.96874 -0.420232 -5.3744e-007 
0.205609 0.392172 0.1 2.95803 -0.490007 -5.38617e-007 
0.201222 0.369074 -0.1 2.92715 -0.645258 -5.40005e-007 
0.201222 0.369074 0.1 2.90699 -0.730735 -5.40216e-007 
0.195418 0.348546 -0.1 2.8526 -0.916614 -5.3883e-007 
0.195418 0.348546 0.1 2.81836 -1.01702 -5.37233e-007 
0.188125 0.330375 -0.1 2.73132 -1.22864 -5.31265e-007 
0.188125 0.330375 0.1 2.67852 -1.33985 -5.26895e-007 
0.179269 0.31435 -0.1 2.55258 -1.56456 -5.14697e-007 
0.179269 0.31435 0.1 2.47945 -1.67805 -5.06871e-007 
0.168778 0.300259 -0.1 2.31614 -1.89662 -4.8787e-007 
0.168778 0.300259 0.1 2.22596 -2.00169 -4.76696e-007 
0.156578 0.287891 -0.1 2.03726 -2.19428 -4.52121e-007 
0.156578 0.287891 0.1 1.93874 -2.28179 -4.3872e-007 
0.142597 0.277032 -0.1 1.74362 -2.43564 -4.11329e-007 
0.142597 0.277032 0.1 1.64701 -2.50198 -3.97337e-007 
0.126762 0.267473 -0.1 1.46415 -2.61478 -3.70296e-007 
0.126762 0.267473 0.1 1.3779 -2.66124 -3.57246e-007 
0.109 0.259 -0.1 1.29165 -0.902566 -2.65292e-007 
0.109 0.259 0.1 1.29165 0.902566 -1.86387e-007 
0.126762 0.250527 -0.1 1.3779 2.66124 -1.24593e-007 
0.126762 0.250527 0.1 1.46415 2.61478 -1.41704e-007 
0.142597 0.240968 -0.1 1.64701 2.50198 -1.78607e-007 
0.142597 0.240968 0.1 1.74362 2.43564 -1.98399e-007 
0.156578 0.230109 -0.1 1.93874 2.28179 -2.3924e-007 
0.156578 0.230109 0.1 2.03726 2.19428 -2.60291e-007 
0.168778 0.217741 -0.1 2.22596 2.00169 -3.01703e-007 
0.168778 0.217741 0.1 2.31614 1.89662 -3.22062e-007 
0.179269 0.20365 -0.1 2.47945 1.67805 -3.6017e-007 
0.179269 0.20365 0.1 2.55258 1.56456 -3.77919e-007 
0.188125 0.187625 -0.1 2.67852 1.33985 -4.09761e-007 
0.188125 0.187625 0.1 2.73133 1.22864 -4.23855e-007 
0.195418 0.169454 -0.1 2.81836 1.01702 -4.48323e-007 
0.195418 0.169454 0.1 2.8526 0.916614 -4.58697e-007 
0.201222 0.148926 -0.1 2.90699 0.730735 -4.76333e-007 
0.201222 0.148926 0.1 2.92715 0.645258 -4.83595e-007 
0.205609 0.125828 -0.1 2.95803 0.490007 -4.95779e-007 
0.205609 0.125828 0.1 2.96874 0.420232 -5.00702e-007 
0.208653 0.099949 -0.1 2.98443 0.294898 -5.08924e-007 
0.208653 0.099949 0.1 2.9894 0.239338 -5.12222e-007 
0.210425 0.071077 -0.1 2.99608 0.140441 -5.17713e-007 
0.210425 0.071077 0.1 2.9978 0.097104 -5.19907e-007 
0.211 0.039 -0.1 2.99968 0.0358449 -5.22913e-007 
0.211 0.039 0.1 2.99984 0.0179225 -5.23725e-007 
0.211 -0.033 -0.1 2.99987 0.0162677 -5.23803e-007 
0.211 -0.033 0.1 2.99974 0.0325354 -5.23069e-007 
0.211316 -0.052423 -0.1 2.99782 0.0943313 -5.20033e-007 
0.211316 -0.052423 0.1 2.99605 0.139859 -5.17732e-007 
0.212361 -0.069301 -0.1 2.98752 0.254895 -5.11212e-007 
0.212361 -0.069301 0.1 2.98077 0.324403 -5.06994e-007 
0.214281 -0.083797 -0.1 2.95517 0.495571 -4.95036e-007 
0.214281 -0.083797 0.1 2.93631 0.59723 -4.87295e-007 
0.217222 -0.096074 -0.1 2.87285 0.838819 -4.65639e-007 
0.217222 -0.096074 0.1 2.82823 0.978748 -4.51722e-007 
0.22133 -0.106296 -0.1 2.69391 1.29121 -4.14578e-007 
0.22133 -0.106296 0.1 2.6042 1.46374 -3.9135e-007 
0.22675 -0.114625 -0.1 2.3687 1.81239 -3.34934e-007 
0.22675 -0.114625 0.1 2.22291 1.9885 -3.01746e-007 
0.233628 -0.121225 -0.1 1.89508 2.30306 -2.30676e-007 
0.233628 -0.121225 0.1 1.71304 2.44149 -1.92796e-007 
0.242111 -0.126259 -0.1 1.35515 2.66236 -1.20566e-007 
0.242111 -0.126259 0.1 1.1793 2.74478 -8.62174e-008 
0.252344 -0.129891 -0.1 0.862396 2.86592 -2.55129e-008 
0.252344 -0.129891 0.1 0.721335 2.90463 8.43194e-010 
0.264472 -0.132282 -0.1 0.479324 2.95795 4.54883e-008 
0.264472 -0.132282 0.1 0.378373 2.97255 6.37773e-008 
0.278642 -0.133598 -0.1 0.209516 2.99113 9.41135e-008 
0.278642 -0.133598 0.1 0.14161 2.99511 1.06161e-007 
0.295 -0.134 -0.1 0.0491359 2.9994 1.22516e-007 
0.295 -0.134 0.1 0.0245679 2.9997 1.26825e-007 
0.31 -0.134 -0.1 1 2 -8.74228e-008 
0.31 -0.134 0.1 2 1 -3.0598e-007 
0.31 -0.21 -0.1 2 -1 -3.93403e-007 
0.31 -0.21 0.1 1 -2 -2.62269e-007 
0.271 -0.21 -0.1 -0.050862 -2.99871 -1.22185e-007 
0.271 -0.21 0.1 -0.101724 -2.99741 -1.13235e-007 
0.245729 -0.208713 -0.1 -0.270816 -2.98301 -8.30405e-008 
0.245729 -0.208713 0.1 -0.389045 -2.96991 -6.17959e-008 
0.223329 -0.20487 -0.1 -0.646458 -2.9225 -1.4716e-008 
0.223329 -0.20487 0.1 -0.785642 -2.88819 1.1119e-008 
0.203672 -0.1985 -0.1 -1.07824 -2.78964 6.65862e-008 
0.203672 -0.1985 0.1 -1.23165 -2.72538 9.62182e-008 
0.18663 -0.18963 -0.1 -1.53802 -2.56289 1.56888e-007 
0.18663 -0.18963 0.1 -1.69098 -2.46465 1.87927e-007 
0.172073 -0.178287 -0.1 -1.97824 -2.24024 2.47963e-007 
0.172073 -0.178287 0.1 -2.11254 -2.11406 2.7696e-007 
0.159875 -0.1645 -0.1 -2.34962 -1.84925 3.29987e-007 
0.159875 -0.1645 0.1 -2.45239 -1.71062 3.54016e-007 
0.149906 -0.148296 -0.1 -2.62435 -1.43776 3.9601e-007 
0.149906 -0.148296 0.1 -2.69354 -1.30354 4.13975e-007 
0.142037 -0.129704 -0.1 -2.80444 -1.0504 4.44429e-007 
0.142037 -0.129704 0.1 -2.84615 -0.931492 4.56919e-007 
0.136141 -0.10875 -0.1 -2.91043 -0.713188 4.77701e-007 
0.136141 -0.10875 0.1 -2.933 -0.613796 4.85992e-007 
0.132088 -0.085463 -0.1 -2.96624 -0.433872 4.99668e-007 
0.132088 -0.085463 0.1 -2.9769 -0.35334 5.05053e-007 
0.129751 -0.05987 -0.1 -2.99135 -0.208809 5.13897e-007 
0.129751 -0.05987 0.1 -2.99513 -0.14481 5.17356e-007 
0.129 -0.032 -0.1 -2.99927 -0.0538738 5.22055e-007 
0.129 -0.032 0.1 -2.99964 -0.0269369 5.23296e-007 
0.129 0.056 -0.1 -2.99985 -0.0170872 5.23764e-007 
0.129 0.056 0.1 -2.99971 -0.0341744 5.22992e-007 
0.128579 0.080634 -0.1 -2.99793 -0.093831 5.20073e-007 
0.128579 0.080634 0.1 -2.99629 -0.1364 5.17926e-007 
0.127213 0.103491 -0.1 -2.98964 -0.235751 5.1242e-007 
0.127213 0.103491 0.1 -2.98461 -0.292533 5.09059e-007 
0.12475 0.1245 -0.1 -2.96801 -0.423769 5.0042e-007 
0.12475 0.1245 0.1 -2.95642 -0.498224 4.95138e-007 
0.121037 0.143593 -0.1 -2.92129 -0.668323 4.81561e-007 
0.121037 0.143593 0.1 -2.89775 -0.763965 4.73264e-007 
0.115921 0.160699 -0.1 -2.83036 -0.97828 4.52114e-007 
0.115921 0.160699 0.1 -2.78652 -1.09695 4.39261e-007 
0.10925 0.17575 -0.1 -2.66754 -1.3544 4.07205e-007 
0.10925 0.17575 0.1 -2.59241 -1.49319 3.88002e-007 
0.10087 0.188676 -0.1 -2.40165 -1.77834 3.42184e-007 
0.10087 0.188676 0.1 -2.28602 -1.92471 3.15568e-007 
0.09063 0.199407 -0.1 -2.0154 -2.20343 2.56069e-007 
0.09063 0.199407 0.1 -1.86041 -2.33577 2.23185e-007 
0.078375 0.207875 -0.1 -1.52836 -2.56562 1.5508e-007 
0.078375 0.207875 0.1 -1.3513 -2.66313 1.1986e-007 
0.063954 0.214009 -0.1 -1.00041 -2.81647 5.18058e-008 
0.063954 0.214009 0.1 -0.826584 -2.8723 1.89725e-008 
0.047213 0.217741 -0.1 -0.500557 -2.94994 -4.14259e-008 
0.047213 0.217741 0.1 -0.348361 -2.97176 -6.89904e-008 
0.028 0.219 -0.1 -1.13078 -1.99572 1.10476e-007 
0.028 0.219 0.1 -2.06539 -0.99786 3.17506e-007 
0.028 0.299 -0.1 -2.06539 0.99786 4.04742e-007 
0.028 0.299 0.1 -1.13078 1.99572 2.84947e-007 
3 23 25 24 
3 23 26 25 
3 22 26 23 
3 21 26 22 
3 20 26 21 
3 19 26 20 
3 18 26 19 
3 17 26 18 
3 16 28 17 
3 28 27 17 
3 27 26 17 
3 16 29 28 
3 16 30 29 
3 16 31 30 
3 15 31 16 
3 15 32 31 
3 15 33 32 
3 15 34 33 
3 14 34 15 
3 14 35 34 
3 14 36 35 
3 13 36 14 
3 13 37 36 
3 13 38 37 
3 12 38 13 
3 12 39 38 
3 12 40 39 
3 11 40 12 
3 11 41 40 
3 10 41 11 
3 10 42 41 
3 9 42 10 
3 9 43 42 
3 8 43 9 
3 7 43 8 
3 7 44 43 
3 6 44 7 
3 6 45 44 
3 5 45 6 
3 5 46 45 
3 4 46 5 
3 4 47 46 
3 3 47 4 
3 2 47 3 
3 2 48 47 
3 1 48 2 
3 0 48 1 
3 106 48 0 
3 106 49 48 
3 105 49 106 
3 105 50 49 
3 105 52 50 
3 52 51 50 
3 105 53 52 
3 105 54 53 
3 105 55 54 
3 105 56 55 
3 104 56 105 
3 103 56 104 
3 103 57 56 
3 102 57 103 
3 101 57 102 
3 101 58 57 
3 100 58 101 
3 99 58 100 
3 99 59 58 
3 98 59 99 
3 98 60 59 
3 97 60 98 
3 97 61 60 
3 96 61 97 
3 96 62 61 
3 95 62 96 
3 94 62 95 
3 94 63 62 
3 93 63 94 
3 93 64 63 
3 92 64 93 
3 92 65 64 
3 91 65 92 
3 91 66 65 
3 91 67 66 
3 90 67 91 
3 90 68 67 
3 90 69 68 
3 89 69 90 
3 89 70 69 
3 89 71 70 
3 88 71 89 
3 88 72 71 
3 88 73 72 
3 88 74 73 
3 87 74 88 
3 87 75 74 
3 87 76 75 
3 87 77 76 
3 87 78 77 
3 87 79 78 
3 86 79 87 
3 85 79 86 
3 84 79 85 
3 83 79 84 
3 82 79 83 
3 81 79 82 
3 80 79 81 
3 132 130 131 
3 133 130 132 
3 133 129 130 
3 133 128 129 
3 133 127 128 
3 133 126 127 
3 133 125 126 
3 133 124 125 
3 135 123 124 
3 134 135 124 
3 133 134 124 
3 136 123 135 
3 137 123 136 
3 138 123 137 
3 138 122 123 
3 139 122 138 
3 140 122 139 
3 141 122 140 
3 141 121 122 
3 142 121 141 
3 143 121 142 
3 143 120 121 
3 144 120 143 
3 145 120 144 
3 145 119 120 
3 146 119 145 
3 147 119 146 
3 147 118 119 
3 148 118 147 
3 148 117 118 
3 149 117 148 
3 149 116 117 
3 150 116 149 
3 150 115 116 
3 150 114 115 
3 151 114 150 
3 151 113 114 
3 152 113 151 
3 152 112 113 
3 153 112 152 
3 153 111 112 
3 154 111 153 
3 154 110 111 
3 154 109 110 
3 155 109 154 
3 155 108 109 
3 155 107 108 
3 155 213 107 
3 156 213 155 
3 156 212 213 
3 157 212 156 
3 159 212 157 
3 158 159 157 
3 160 212 159 
3 161 212 160 
3 162 212 161 
3 163 212 162 
3 163 211 212 
3 163 210 211 
3 164 210 163 
3 164 209 210 
3 164 208 209 
3 165 208 164 
3 165 207 208 
3 165 206 207 
3 166 206 165 
3 166 205 206 
3 167 205 166 
3 167 204 205 
3 168 204 167 
3 168 203 204 
3 169 203 168 
3 169 202 203 
3 169 201 202 
3 170 201 169 
3 170 200 201 
3 171 200 170 
3 171 199 200 
3 172 199 171 
3 172 198 199 
3 173 198 172 
3 174 198 173 
3 174 197 198 
3 175 197 174 
3 176 197 175 
3 176 196 197 
3 177 196 176 
3 178 196 177 
3 178 195 196 
3 179 195 178 
3 180 195 179 
3 181 195 180 
3 181 194 195 
3 182 194 181 
3 183 194 182 
3 184 194 183 
3 185 194 184 
3 186 194 185 
3 186 193 194 
3 186 192 193 
3 186 191 192 
3 186 190 191 
3 186 189 190 
3 186 188 189 
3 186 187 188 
3 215 217 216 
3 215 216 214 
3 217 219 218 
3 217 218 216 
3 219 221 220 
3 219 220 218 
3 221 223 222 
3 221 222 220 
3 223 225 224 
3 223 224 222 
3 225 227 226 
3 225 226 224 
3 227 229 228 
3 227 228 226 
3 229 231 230 
3 229 230 228 
3 231 233 232 
3 231 232 230 
3 233 235 234 
3 233 234 232 
3 235 237 236 
3 235 236 234 
3 237 239 238 
3 237 238 236 
3 239 241 240 
3 239 240 238 
3 241 243 242 
3 241 242 240 
3 243 245 244 
3 243 244 242 
3 245 247 246 
3 245 246 244 
3 247 249 248 
3 247 248 246 
3 249 251 250 
3 249 250 248 
3 251 253 252 
3 251 252 250 
3 253 255 254 
3 253 254 252 
3 255 257 256 
3 255 256 254 
3 257 259 258 
3 257 258 256 
3 259 261 260 
3 259 260 258 
3 261 263 262 
3 261 262 260 
3 263 265 264 
3 263 264 262 
3 265 267 266 
3 265 266 264 
3 267 269 268 
3 267 268 266 
3 269 271 270 
3 269 270 268 
3 271 273 272 
3 271 272 270 
3 273 275 274 
3 273 274 272 
3 275 277 276 
3 275 276 274 
3 277 279 278 
3 277 278 276 
3 279 281 280 
3 279 280 278 
3 281 283 282 
3 281 282 280 
3 283 285 284 
3 283 284 282 
3 285 287 286 
3 285 286 284 
3 287 289 288 
3 287 288 286 
3 289 291 290 
3 289 290 288 
3 291 293 292 
3 291 292 290 
3 293 295 294 
3 293 294 292 
3 295 297 296 
3 295 296 294 
3 297 299 298 
3 297 298 296 
3 299 301 300 
3 299 300 298 
3 301 303 302 
3 301 302 300 
3 303 305 304 
3 303 304 302 
3 305 307 306 
3 305 306 304 
3 307 309 308 
3 307 308 306 
3 309 311 310 
3 309 310 308 
3 311 313 312 
3 311 312 310 
3 313 315 314 
3 313 314 312 
3 315 317 316 
3 315 316 314 
3 317 319 318 
3 317 318 316 
3 319 321 320 
3 319 320 318 
3 321 323 322 
3 321 322 320 
3 323 325 324 
3 323 324 322 
3 325 327 326 
3 325 326 324 
3 327 329 328 
3 327 328 326 
3 329 331 330 
3 329 330 328 
3 331 333 332 
3 331 332 330 
3 333 335 334 
3 333 334 332 
3 335 337 336 
3 335 336 334 
3 337 339 338 
3 337 338 336 
3 339 341 340 
3 339 340 338 
3 341 343 342 
3 341 342 340 
3 343 345 344 
3 343 344 342 
3 345 347 346 
3 345 346 344 
3 347 349 348 
3 347 348 346 
3 349 351 350 
3 349 350 348 
3 351 353 352 
3 351 352 350 
3 353 355 354 
3 353 354 352 
3 355 357 356 
3 355 356 354 
3 357 359 358 
3 357 358 356 
3 359 361 360 
3 359 360 358 
3 361 363 362 
3 361 362 360 
3 363 365 364 
3 363 364 362 
3 365 367 366 
3 365 366 364 
3 367 369 368 
3 367 368 366 
3 369 371 370 
3 369 370 368 
3 371 373 372 
3 371 372 370 
3 373 375 374 
3 373 374 372 
3 375 377 376 
3 375 376 374 
3 377 379 378 
3 377 378 376 
3 379 381 380 
3 379 380 378 
3 381 383 382 
3 381 382 380 
3 383 385 384 
3 383 384 382 
3 385 387 386 
3 385 386 384 
3 387 389 388 
3 387 388 386 
3 389 391 390 
3 389 390 388 
3 391 393 392 
3 391 392 390 
3 393 395 394 
3 393 394 392 
3 395 397 396 
3 395 396 394 
3 397 399 398 
3 397 398 396 
3 399 401 400 
3 399 400 398 
3 401 403 402 
3 401 402 400 
3 403 405 404 
3 403 404 402 
3 405 407 406 
3 405 406 404 
3 407 409 408 
3 407 408 406 
3 409 411 410 
3 409 410 408 
3 411 413 412 
3 411 412 410 
3 413 415 414 
3 413 414 412 
3 415 417 416 
3 415 416 414 
3 417 419 418 
3 417 418 416 
3 419 421 420 
3 419 420 418 
3 421 423 422 
3 421 422 420 
3 423 425 424 
3 423 424 422 
3 425 427 426 
3 425 426 424 
3 427 215 214 
3 427 214 426 
