ply
format ascii 1.0
comment VCGLIB generated
element vertex 484
property float x
property float y
property float z
property float nx
property float ny
property float nz
element face 484
property list uchar int vertex_indices
end_header
0.352256 0.601131 0.1 7.75929e-010 -1.93982e-010 0.0044378 
0.32913 0.584634 0.1 1.67597e-009 -4.18993e-010 0.00958545 
0.306781 0.566672 0.1 8.38446e-010 -2.09611e-010 0.00479535 
0.28537 0.547407 0.1 1.68321e-009 -4.20803e-010 0.00962685 
0.265057 0.527004 0.1 8.75832e-010 -2.18958e-010 0.00500918 
0.246 0.505625 0.1 1.67463e-009 -4.18658e-010 0.00957778 
0.22836 0.483433 0.1 8.90264e-010 -2.22566e-010 0.00509172 
0.212296 0.460593 0.1 1.65312e-009 -4.13279e-010 0.00945473 
0.197969 0.437266 0.1 1.63123e-009 -4.07808e-010 0.00932957 
0.185537 0.413616 0.1 8.65328e-010 -2.16332e-010 0.0049491 
0.175161 0.389806 0.1 1.61599e-009 -4.03999e-010 0.00924241 
0.167 0.366 0.1 1.52393e-009 -3.80981e-010 0.00871584 
0.173918 0.369492 0.1 2.45033e-010 -6.12582e-011 0.00140143 
0.181176 0.372935 0.1 2.40547e-010 -6.01366e-011 0.00137577 
0.188781 0.376281 0.1 5.32788e-010 -1.33197e-010 0.00304719 
0.196741 0.379482 0.1 1.68063e-010 -4.20159e-011 0.000961211 
0.205061 0.382487 0.1 1.56973e-010 -3.92432e-011 0.000897779 
0.21375 0.38525 0.1 2.91899e-010 -7.29747e-011 0.00166947 
0.222814 0.387721 0.1 8.50135e-011 -2.12534e-011 0.000486221 
0.232259 0.389852 0.1 7.27324e-011 -1.81831e-011 0.000415981 
0.242094 0.391594 0.1 1.00925e-010 -2.52314e-011 0.000577226 
0.252324 0.392898 0.1 2.03252e-011 -5.08131e-012 0.000116247 
0.262957 0.393716 0.1 1.28502e-011 -3.21255e-012 7.34946e-005 
0.274 0.394 0.1 4.7179e-012 -1.17948e-012 2.69833e-005 
0.300656 0.392242 0.1 8.05034e-011 -2.01258e-011 0.000460426 
0.325995 0.387106 0.1 3.44548e-010 -8.61372e-011 0.00197059 
0.349828 0.378797 0.1 7.41744e-010 -1.85436e-010 0.00424228 
0.371963 0.367518 0.1 1.19978e-009 -2.99946e-010 0.00686196 
0.392209 0.353476 0.1 4.50918e-009 -1.12729e-009 0.0257895 
0.410375 0.336875 0.1 2.34015e-009 -5.85037e-010 0.0133841 
0.42627 0.31792 0.1 3.11207e-009 -7.78017e-010 0.017799 
0.439704 0.296815 0.1 1.45536e-009 -3.63841e-010 0.00832371 
0.450484 0.273766 0.1 1.52354e-009 -3.80884e-010 0.00871361 
0.458421 0.248977 0.1 1.58476e-009 -3.96189e-010 0.00906376 
0.463324 0.222653 0.1 1.41482e-009 -3.53706e-010 0.00809184 
0.465 0.195 0.1 1.4719e-009 -3.67976e-010 0.00841831 
0.463127 0.167668 0.1 1.1882e-009 -2.9705e-010 0.00679572 
0.457681 0.141347 0.1 1.39267e-009 -3.48169e-010 0.00796517 
0.448922 0.116297 0.1 1.33747e-009 -3.34368e-010 0.00764946 
0.437111 0.092778 0.1 1.4814e-009 -3.7035e-010 0.00847261 
0.422509 0.07105 0.1 3.66064e-009 -9.15158e-010 0.0209364 
0.405375 0.051375 0.1 2.87093e-009 -7.17734e-010 0.0164198 
0.38597 0.034012 0.1 2.1085e-009 -5.27124e-010 0.0120592 
0.364556 0.019222 0.1 1.40793e-009 -3.51982e-010 0.0080524 
0.341391 0.007266 0.1 8.09272e-010 -2.02318e-010 0.0046285 
0.316736 -0.001597 0.1 3.52472e-010 -8.8118e-011 0.0020159 
0.290852 -0.007106 0.1 7.70682e-011 -1.92671e-011 0.000440779 
0.264 -0.009 0.1 1.99929e-011 -4.99824e-012 0.000114346 
0.232152 -0.006988 0.1 1.92747e-010 -4.81867e-011 0.00110238 
0.202218 -0.001074 0.1 5.70526e-010 -1.42631e-010 0.00326303 
0.174359 0.008563 0.1 1.11553e-009 -2.78884e-010 0.00638011 
0.148741 0.021741 0.1 1.78932e-009 -4.47331e-010 0.0102337 
0.125525 0.03828 0.1 2.55316e-009 -6.38291e-010 0.0146024 
0.104875 0.058 0.1 3.36847e-009 -8.42118e-010 0.0192654 
0.086954 0.08072 0.1 2.92933e-009 -7.32334e-010 0.0167538 
0.071926 0.106259 0.1 1.59391e-009 -3.98477e-010 0.00911609 
0.059953 0.134438 0.1 1.35764e-009 -3.39411e-010 0.00776481 
0.051199 0.165074 0.1 1.7686e-009 -4.42149e-010 0.0101152 
0.045827 0.197988 0.1 1.52152e-009 -3.80379e-010 0.00870205 
0.044 0.233 0.1 2.35348e-009 -5.88369e-010 0.0134603 
0.045991 0.27568 0.1 2.64594e-009 -6.61486e-010 0.015133 
0.051931 0.318107 0.1 7.30468e-009 -1.82617e-009 0.0417779 
0.061766 0.360109 0.1 4.08016e-009 -1.02004e-009 0.0233358 
0.075444 0.401519 0.1 2.37686e-009 -5.94217e-010 0.0135941 
0.092915 0.442164 0.1 1.96284e-009 -4.90709e-010 0.0112261 
0.114125 0.481875 0.1 2.43762e-009 -6.09405e-010 0.0139416 
0.139023 0.520482 0.1 2.48359e-009 -6.20897e-010 0.0142045 
0.167556 0.557815 0.1 2.52266e-009 -6.30664e-010 0.0144279 
0.199672 0.593703 0.1 2.55688e-009 -6.39222e-010 0.0146237 
0.235319 0.627977 0.1 1.79879e-009 -4.49697e-010 0.0102879 
0.274446 0.660466 0.1 1.7541e-009 -4.38524e-010 0.0100323 
0.317 0.691 0.1 8.73013e-010 -2.18253e-010 0.00499305 
0.376 0.616 0.1 3.03764e-009 -7.59412e-010 0.0173733 
0.273799 0.084924 0.1 1.69085e-010 -4.22713e-011 0.000967055 
0.288644 0.087644 0.1 2.50581e-010 -6.26452e-011 0.00143316 
0.302453 0.092078 0.1 7.94991e-010 -1.98748e-010 0.00454682 
0.315148 0.098148 0.1 3.14782e-010 -7.86953e-011 0.00180034 
0.326649 0.105774 0.1 3.72432e-010 -9.3108e-011 0.00213006 
0.336875 0.114875 0.1 8.60274e-010 -2.15068e-010 0.00492019 
0.345747 0.125372 0.1 4.28346e-010 -1.07086e-010 0.00244985 
0.353185 0.137185 0.1 9.10314e-010 -2.27579e-010 0.00520639 
0.359109 0.150234 0.1 4.85672e-010 -1.21418e-010 0.00277772 
0.36344 0.16444 0.1 9.72128e-010 -2.43032e-010 0.00555992 
0.366097 0.179722 0.1 1.01158e-009 -2.52896e-010 0.00578559 
0.367 0.196 0.1 5.30276e-010 -1.32569e-010 0.00303282 
0.366018 0.21067 0.1 9.6839e-010 -2.42098e-010 0.00553855 
0.363144 0.224611 0.1 4.71212e-010 -1.17803e-010 0.00269502 
0.358484 0.237719 0.1 9.22754e-010 -2.30689e-010 0.00527754 
0.352148 0.249889 0.1 4.30638e-010 -1.07659e-010 0.00246296 
0.344242 0.261017 0.1 3.85092e-010 -9.62728e-011 0.00220247 
0.334875 0.271 0.1 8.66208e-010 -2.16552e-010 0.00495413 
0.324153 0.279733 0.1 3.32194e-010 -8.30486e-011 0.00189993 
0.312185 0.287111 0.1 2.6305e-010 -6.57627e-011 0.00150447 
0.299078 0.293031 0.1 8.02933e-010 -2.00733e-010 0.00459224 
0.28494 0.297389 0.1 1.87814e-010 -4.69535e-011 0.00107417 
0.269878 0.30008 0.1 8.95599e-011 -2.239e-011 0.000512223 
0.254 0.301 0.1 7.18411e-010 -1.79603e-010 0.00410883 
0.243873 0.300826 0.1 3.55464e-011 -8.88661e-012 0.000203302 
0.234403 0.300278 0.1 1.23048e-009 -3.07621e-010 0.00703755 
0.225453 0.299313 0.1 1.37472e-009 -3.4368e-010 0.00786247 
0.216889 0.297889 0.1 3.45018e-011 -8.62543e-012 0.000197327 
0.208575 0.295965 0.1 6.61954e-011 -1.65488e-011 0.000378593 
0.200375 0.2935 0.1 9.76808e-011 -2.44202e-011 0.000558669 
0.192155 0.290451 0.1 1.28924e-010 -3.22311e-011 0.000737361 
0.183778 0.286778 0.1 1.59968e-010 -3.99919e-011 0.000914908 
0.175109 0.282438 0.1 1.90973e-010 -4.77434e-011 0.00109224 
0.166014 0.277389 0.1 2.22047e-010 -5.55118e-011 0.00126996 
0.156356 0.27159 0.1 1.00341e-009 -2.50852e-010 0.00573882 
0.146 0.265 0.1 5.16882e-010 -1.2922e-010 0.00295622 
0.141386 0.237911 0.1 8.85608e-010 -2.21402e-010 0.00506509 
0.140338 0.212704 0.1 1.40122e-009 -3.50305e-010 0.00801404 
0.142547 0.189469 0.1 1.29841e-009 -3.24604e-010 0.00742607 
0.147704 0.168296 0.1 6.85475e-010 -1.71369e-010 0.00392046 
0.155499 0.149277 0.1 1.16636e-009 -2.91591e-010 0.00667083 
0.165625 0.1325 0.1 1.11548e-009 -2.78869e-010 0.00637978 
0.177771 0.118057 0.1 5.43382e-010 -1.35846e-010 0.00310778 
0.19163 0.106037 0.1 1.02651e-009 -2.56628e-010 0.00587096 
0.206891 0.096531 0.1 4.31462e-010 -1.07865e-010 0.00246767 
0.223245 0.08963 0.1 3.16906e-010 -7.92264e-011 0.00181249 
0.240385 0.085422 0.1 1.79607e-010 -4.49019e-011 0.00102723 
0.258 0.084 0.1 5.96615e-010 -1.49154e-010 0.00341224 
0.352256 0.601131 -0.1 -7.75929e-010 1.93982e-010 -0.0044378 
0.32913 0.584634 -0.1 -1.67597e-009 4.18993e-010 -0.00958545 
0.306781 0.566672 -0.1 -8.38446e-010 2.09611e-010 -0.00479535 
0.28537 0.547407 -0.1 -1.68321e-009 4.20803e-010 -0.00962685 
0.265057 0.527004 -0.1 -8.75832e-010 2.18958e-010 -0.00500918 
0.246 0.505625 -0.1 -1.67463e-009 4.18658e-010 -0.00957778 
0.22836 0.483433 -0.1 -8.90264e-010 2.22566e-010 -0.00509172 
0.212296 0.460593 -0.1 -1.65312e-009 4.13279e-010 -0.00945473 
0.197969 0.437266 -0.1 -1.63123e-009 4.07808e-010 -0.00932957 
0.185537 0.413616 -0.1 -8.65328e-010 2.16332e-010 -0.0049491 
0.175161 0.389806 -0.1 -1.61599e-009 4.03999e-010 -0.00924241 
0.167 0.366 -0.1 -1.52393e-009 3.80981e-010 -0.00871584 
0.173918 0.369492 -0.1 -2.45034e-010 6.12583e-011 -0.00140143 
0.181176 0.372935 -0.1 -2.40547e-010 6.01366e-011 -0.00137577 
0.188781 0.376281 -0.1 -5.32788e-010 1.33197e-010 -0.00304719 
0.196741 0.379482 -0.1 -1.68063e-010 4.20159e-011 -0.000961211 
0.205061 0.382487 -0.1 -1.56973e-010 3.92432e-011 -0.00089778 
0.21375 0.38525 -0.1 -2.91899e-010 7.29747e-011 -0.00166947 
0.222814 0.387721 -0.1 -8.50134e-011 2.12534e-011 -0.00048622 
0.232259 0.389852 -0.1 -7.27324e-011 1.81831e-011 -0.000415981 
0.242094 0.391594 -0.1 -1.00925e-010 2.52314e-011 -0.000577226 
0.252324 0.392898 -0.1 -2.03252e-011 5.08131e-012 -0.000116247 
0.262957 0.393716 -0.1 -1.28502e-011 3.21255e-012 -7.34946e-005 
0.274 0.394 -0.1 -4.7179e-012 1.17948e-012 -2.69833e-005 
0.300656 0.392242 -0.1 -8.05034e-011 2.01258e-011 -0.000460426 
0.325995 0.387106 -0.1 -3.44548e-010 8.61372e-011 -0.00197059 
0.349828 0.378797 -0.1 -7.41744e-010 1.85436e-010 -0.00424228 
0.371963 0.367518 -0.1 -1.19978e-009 2.99946e-010 -0.00686196 
0.392209 0.353476 -0.1 -4.50918e-009 1.12729e-009 -0.0257895 
0.410375 0.336875 -0.1 -2.34015e-009 5.85037e-010 -0.0133841 
0.42627 0.31792 -0.1 -3.11206e-009 7.78017e-010 -0.0177989 
0.439704 0.296815 -0.1 -1.45536e-009 3.63841e-010 -0.00832371 
0.450484 0.273766 -0.1 -1.52354e-009 3.80884e-010 -0.00871361 
0.458421 0.248977 -0.1 -1.58476e-009 3.96189e-010 -0.00906376 
0.463324 0.222653 -0.1 -1.41482e-009 3.53706e-010 -0.00809184 
0.465 0.195 -0.1 -1.4719e-009 3.67976e-010 -0.00841831 
0.463127 0.167668 -0.1 -1.1882e-009 2.9705e-010 -0.00679572 
0.457681 0.141347 -0.1 -1.39267e-009 3.48169e-010 -0.00796517 
0.448922 0.116297 -0.1 -1.33747e-009 3.34368e-010 -0.00764946 
0.437111 0.092778 -0.1 -1.4814e-009 3.7035e-010 -0.00847261 
0.422509 0.07105 -0.1 -3.66064e-009 9.15158e-010 -0.0209364 
0.405375 0.051375 -0.1 -2.87093e-009 7.17734e-010 -0.0164198 
0.38597 0.034012 -0.1 -2.1085e-009 5.27124e-010 -0.0120592 
0.364556 0.019222 -0.1 -1.40793e-009 3.51982e-010 -0.0080524 
0.341391 0.007266 -0.1 -8.09272e-010 2.02318e-010 -0.0046285 
0.316736 -0.001597 -0.1 -3.52472e-010 8.8118e-011 -0.0020159 
0.290852 -0.007106 -0.1 -7.70682e-011 1.92671e-011 -0.000440779 
0.264 -0.00899999 -0.1 -1.99929e-011 4.99824e-012 -0.000114346 
0.232152 -0.006988 -0.1 -1.92747e-010 4.81867e-011 -0.00110238 
0.202218 -0.001074 -0.1 -5.70526e-010 1.42631e-010 -0.00326303 
0.174359 0.008563 -0.1 -1.11553e-009 2.78884e-010 -0.00638011 
0.148741 0.021741 -0.1 -1.78932e-009 4.47331e-010 -0.0102337 
0.125525 0.03828 -0.1 -2.55316e-009 6.38291e-010 -0.0146024 
0.104875 0.058 -0.1 -3.36847e-009 8.42118e-010 -0.0192654 
0.086954 0.08072 -0.1 -2.92933e-009 7.32333e-010 -0.0167538 
0.071926 0.106259 -0.1 -1.59391e-009 3.98477e-010 -0.00911609 
0.059953 0.134438 -0.1 -1.35764e-009 3.39411e-010 -0.00776481 
0.051199 0.165074 -0.1 -1.7686e-009 4.42149e-010 -0.0101152 
0.045827 0.197988 -0.1 -1.52152e-009 3.80379e-010 -0.00870205 
0.044 0.233 -0.1 -2.35348e-009 5.88369e-010 -0.0134603 
0.045991 0.27568 -0.1 -2.64594e-009 6.61486e-010 -0.015133 
0.051931 0.318107 -0.1 -7.30468e-009 1.82617e-009 -0.0417779 
0.061766 0.360109 -0.1 -4.08016e-009 1.02004e-009 -0.0233358 
0.075444 0.401519 -0.1 -2.37686e-009 5.94217e-010 -0.0135941 
0.092915 0.442164 -0.1 -1.96284e-009 4.90709e-010 -0.0112261 
0.114125 0.481875 -0.1 -2.43762e-009 6.09405e-010 -0.0139416 
0.139023 0.520482 -0.1 -2.48359e-009 6.20897e-010 -0.0142045 
0.167556 0.557815 -0.1 -2.52266e-009 6.30664e-010 -0.0144279 
0.199672 0.593703 -0.1 -2.55688e-009 6.39222e-010 -0.0146237 
0.235319 0.627977 -0.1 -1.79879e-009 4.49697e-010 -0.0102879 
0.274446 0.660466 -0.1 -1.7541e-009 4.38524e-010 -0.0100323 
0.317 0.691 -0.1 -8.73012e-010 2.18253e-010 -0.00499305 
0.376 0.616 -0.1 -3.03764e-009 7.59411e-010 -0.0173733 
0.273799 0.084924 -0.1 -1.69085e-010 4.22713e-011 -0.000967055 
0.288644 0.087644 -0.1 -2.50581e-010 6.26452e-011 -0.00143316 
0.302453 0.092078 -0.1 -7.94991e-010 1.98748e-010 -0.00454682 
0.315148 0.098148 -0.1 -3.14782e-010 7.86953e-011 -0.00180034 
0.326649 0.105774 -0.1 -3.72432e-010 9.3108e-011 -0.00213006 
0.336875 0.114875 -0.1 -8.60274e-010 2.15068e-010 -0.00492019 
0.345747 0.125372 -0.1 -4.28346e-010 1.07086e-010 -0.00244985 
0.353185 0.137185 -0.1 -9.10314e-010 2.27579e-010 -0.00520639 
0.359109 0.150234 -0.1 -4.85672e-010 1.21418e-010 -0.00277772 
0.36344 0.16444 -0.1 -9.72128e-010 2.43032e-010 -0.00555992 
0.366097 0.179722 -0.1 -1.01158e-009 2.52896e-010 -0.00578559 
0.367 0.196 -0.1 -5.30276e-010 1.32569e-010 -0.00303282 
0.366018 0.21067 -0.1 -9.6839e-010 2.42098e-010 -0.00553855 
0.363144 0.224611 -0.1 -4.71212e-010 1.17803e-010 -0.00269502 
0.358484 0.237719 -0.1 -9.22754e-010 2.30689e-010 -0.00527754 
0.352148 0.249889 -0.1 -4.30638e-010 1.07659e-010 -0.00246296 
0.344242 0.261017 -0.1 -3.85092e-010 9.62728e-011 -0.00220247 
0.334875 0.271 -0.1 -8.66208e-010 2.16552e-010 -0.00495413 
0.324153 0.279733 -0.1 -3.32194e-010 8.30486e-011 -0.00189993 
0.312185 0.287111 -0.1 -2.6305e-010 6.57627e-011 -0.00150447 
0.299078 0.293031 -0.1 -8.02933e-010 2.00733e-010 -0.00459224 
0.28494 0.297389 -0.1 -1.87814e-010 4.69535e-011 -0.00107417 
0.269878 0.30008 -0.1 -8.95599e-011 2.239e-011 -0.000512223 
0.254 0.301 -0.1 -7.18411e-010 1.79603e-010 -0.00410883 
0.243873 0.300826 -0.1 -3.55464e-011 8.88661e-012 -0.000203302 
0.234403 0.300278 -0.1 -1.23048e-009 3.07621e-010 -0.00703755 
0.225453 0.299313 -0.1 -1.37472e-009 3.4368e-010 -0.00786247 
0.216889 0.297889 -0.1 -3.45018e-011 8.62543e-012 -0.000197327 
0.208575 0.295965 -0.1 -6.61954e-011 1.65488e-011 -0.000378593 
0.200375 0.2935 -0.1 -9.76806e-011 2.44202e-011 -0.000558668 
0.192155 0.290451 -0.1 -1.28924e-010 3.22311e-011 -0.000737361 
0.183778 0.286778 -0.1 -1.59968e-010 3.99919e-011 -0.000914908 
0.175109 0.282438 -0.1 -1.90973e-010 4.77434e-011 -0.00109224 
0.166014 0.277389 -0.1 -2.22047e-010 5.55118e-011 -0.00126996 
0.156356 0.27159 -0.1 -1.00341e-009 2.50852e-010 -0.00573882 
0.146 0.265 -0.1 -5.16882e-010 1.2922e-010 -0.00295622 
0.141386 0.237911 -0.1 -8.85608e-010 2.21402e-010 -0.00506509 
0.140338 0.212704 -0.1 -1.40122e-009 3.50305e-010 -0.00801404 
0.142547 0.189469 -0.1 -1.29841e-009 3.24604e-010 -0.00742606 
0.147704 0.168296 -0.1 -6.85475e-010 1.71369e-010 -0.00392046 
0.155499 0.149277 -0.1 -1.16636e-009 2.91591e-010 -0.00667083 
0.165625 0.1325 -0.1 -1.11548e-009 2.78869e-010 -0.00637978 
0.177771 0.118057 -0.1 -5.43382e-010 1.35845e-010 -0.00310778 
0.19163 0.106037 -0.1 -1.02651e-009 2.56628e-010 -0.00587096 
0.206891 0.096531 -0.1 -4.31462e-010 1.07865e-010 -0.00246767 
0.223245 0.08963 -0.1 -3.16906e-010 7.92264e-011 -0.00181249 
0.240385 0.085422 -0.1 -1.79607e-010 4.49019e-011 -0.00102723 
0.258 0.084 -0.1 -5.96615e-010 1.49154e-010 -0.00341224 
0.352256 0.601131 -0.1 1.64222 -2.50916 -3.96813e-007 
0.352256 0.601131 0.1 1.69221 -2.47572 -4.04093e-007 
0.32913 0.584634 -0.1 1.78792 -2.40764 -4.17852e-007 
0.32913 0.584634 0.1 1.83364 -2.37301 -4.24332e-007 
0.306781 0.566672 -0.1 1.92178 -2.30229 -4.36651e-007 
0.306781 0.566672 0.1 1.9642 -2.26621 -4.42491e-007 
0.28537 0.547407 -0.1 2.04641 -2.1923 -4.53634e-007 
0.28537 0.547407 0.1 2.08621 -2.15446 -4.58939e-007 
0.265057 0.527004 -0.1 2.16382 -2.07649 -4.691e-007 
0.265057 0.527004 0.1 2.20163 -2.03635 -4.73958e-007 
0.246 0.505625 -0.1 2.27578 -1.95306 -4.83281e-007 
0.246 0.505625 0.1 2.31212 -1.9099 -4.87749e-007 
0.22836 0.483433 -0.1 2.38359 -1.81978 -4.96305e-007 
0.22836 0.483433 0.1 2.41872 -1.77282 -5.00395e-007 
0.212296 0.460593 -0.1 2.48802 -1.67393 -5.08189e-007 
0.212296 0.460593 0.1 2.52218 -1.62199 -5.11892e-007 
0.197969 0.437266 -0.1 2.58939 -1.512 -5.18835e-007 
0.197969 0.437266 0.1 2.62243 -1.45395 -5.22074e-007 
0.185537 0.413616 -0.1 2.68704 -1.33009 -5.27958e-007 
0.185537 0.413616 0.1 2.71862 -1.26429 -5.30603e-007 
0.175161 0.389806 -0.1 2.77943 -1.12328 -5.35071e-007 
0.175161 0.389806 0.1 2.80865 -1.04807 -5.36893e-007 
0.167 0.366 -0.1 1.4413 0.244143 -2.41333e-007 
0.167 0.366 0.1 0.0447249 1.46115 5.60488e-008 
0.173918 0.369492 -0.1 -1.32983 2.68893 3.50051e-007 
0.173918 0.369492 0.1 -1.30781 2.69971 3.46672e-007 
0.181176 0.372935 -0.1 -1.25991 2.72232 3.39286e-007 
0.181176 0.372935 0.1 -1.23403 2.73414 3.35278e-007 
0.188781 0.376281 -0.1 -1.17854 2.75844 3.26637e-007 
0.188781 0.376281 0.1 -1.14892 2.77091 3.22004e-007 
0.196741 0.379482 -0.1 -1.0859 2.79612 3.12086e-007 
0.196741 0.379482 0.1 -1.0525 2.80886 3.06803e-007 
0.205061 0.382487 -0.1 -0.982436 2.83405 2.95654e-007 
0.205061 0.382487 0.1 -0.945773 2.84649 2.89788e-007 
0.21375 0.38525 -0.1 -0.869091 2.87075 2.77441e-007 
0.21375 0.38525 0.1 -0.829074 2.88256 2.70961e-007 
0.222814 0.387721 -0.1 -0.746125 2.90506 2.57441e-007 
0.222814 0.387721 0.1 -0.703194 2.91575 2.50402e-007 
0.232259 0.389852 -0.1 -0.614584 2.93563 2.35778e-007 
0.232259 0.389852 0.1 -0.568905 2.94483 2.28193e-007 
0.242094 0.391594 -0.1 -0.475262 2.96132 2.12541e-007 
0.242094 0.391594 0.1 -0.427299 2.96862 2.04474e-007 
0.252324 0.392898 -0.1 -0.329595 2.981 1.87932e-007 
0.252324 0.392898 0.1 -0.279855 2.98608 1.79457e-007 
0.262957 0.393716 -0.1 -0.179118 2.99378 1.6218e-007 
0.262957 0.393716 0.1 -0.128121 2.99639 1.53378e-007 
0.274 0.394 -0.1 0.0143917 2.99717 1.28494e-007 
0.274 0.394 0.1 0.105907 2.99533 1.12413e-007 
0.300656 0.392242 -0.1 0.330268 2.97573 7.23281e-008 
0.300656 0.392242 0.1 0.463112 2.95797 4.8324e-008 
0.325995 0.387106 -0.1 0.726506 2.9044 -7.0969e-011 
0.325995 0.387106 0.1 0.857055 2.86859 -2.44622e-008 
0.349828 0.378797 -0.1 1.11241 2.77952 -7.30038e-008 
0.349828 0.378797 0.1 1.23722 2.72625 -9.71545e-008 
0.371963 0.367518 -0.1 1.47793 2.6037 -1.44598e-007 
0.371963 0.367518 0.1 1.59383 2.53441 -1.67892e-007 
0.392209 0.353476 -0.1 1.81442 2.3816 -2.1314e-007 
0.392209 0.353476 0.1 1.9191 2.29808 -2.35093e-007 
0.410375 0.336875 -0.1 2.11543 2.11893 -2.77253e-007 
0.410375 0.336875 0.1 2.20709 2.02328 -2.97459e-007 
0.42627 0.31792 -0.1 2.37609 1.82207 -3.35803e-007 
0.42627 0.31792 0.1 2.45344 1.7165 -3.53943e-007 
0.439704 0.296815 -0.1 2.59302 1.49761 -3.87915e-007 
0.439704 0.296815 0.1 2.65525 1.38428 -4.03749e-007 
0.450484 0.273766 -0.1 2.76402 1.15224 -4.3291e-007 
0.450484 0.273766 0.1 2.81057 1.03352 -4.46239e-007 
0.458421 0.248977 -0.1 2.88784 0.792973 -4.70264e-007 
0.458421 0.248977 0.1 2.91856 0.671148 -4.80961e-007 
0.463324 0.222653 -0.1 2.96435 0.426712 -4.99652e-007 
0.463324 0.222653 0.1 2.97943 0.304101 -5.07647e-007 
0.465 0.195 -0.1 2.994 0.052626 -5.21187e-007 
0.465 0.195 0.1 2.99349 -0.076239 -5.26731e-007 
0.463127 0.167668 -0.1 2.97458 -0.339351 -5.34925e-007 
0.463127 0.167668 0.1 2.95618 -0.473598 -5.37576e-007 
0.457681 0.141347 -0.1 2.90248 -0.735295 -5.39626e-007 
0.457681 0.141347 0.1 2.86717 -0.862744 -5.39024e-007 
0.448922 0.116297 -0.1 2.78156 -1.10891 -5.34816e-007 
0.448922 0.116297 0.1 2.73124 -1.22762 -5.31207e-007 
0.437111 0.092778 -0.1 2.61727 -1.45534 -5.21233e-007 
0.437111 0.092778 0.1 2.55362 -1.56434 -5.14869e-007 
0.422509 0.07105 -0.1 2.4141 -1.77229 -4.99564e-007 
0.422509 0.07105 0.1 2.33824 -1.87124 -4.90625e-007 
0.405375 0.051375 -0.1 2.17506 -2.05869 -4.70288e-007 
0.405375 0.051375 0.1 2.08774 -2.14719 -4.58889e-007 
0.38597 0.034012 -0.1 1.90192 -2.31328 -4.33658e-007 
0.38597 0.034012 0.1 1.80341 -2.39087 -4.19826e-007 
0.364556 0.019222 -0.1 1.59524 -2.53427 -3.89696e-007 
0.364556 0.019222 0.1 1.48558 -2.60007 -3.734e-007 
0.341391 0.007266 -0.1 1.25556 -2.71829 -3.3835e-007 
0.341391 0.007266 0.1 1.13521 -2.77071 -3.19598e-007 
0.316736 -0.001597 -0.1 0.884746 -2.86018 -2.79716e-007 
0.316736 -0.001597 0.1 0.75463 -2.89723 -2.58586e-007 
0.290852 -0.007106 -0.1 0.486703 -2.95371 -2.14209e-007 
0.290852 -0.007106 0.1 0.348891 -2.97314 -1.90962e-007 
0.264 -0.00899999 -0.1 0.0776705 -2.99305 -1.44411e-007 
0.264 -0.009 0.1 -0.0557388 -2.99354 -1.21106e-007 
0.232152 -0.006988 -0.1 -0.31992 -2.97706 -7.41947e-008 
0.232152 -0.006988 0.1 -0.450692 -2.96008 -5.05879e-008 
0.202218 -0.001074 -0.1 -0.714556 -2.90713 -2.13763e-009 
0.202218 -0.001074 0.1 -0.847649 -2.87115 2.27058e-008 
0.174359 0.008563 -0.1 -1.11126 -2.77935 7.28093e-008 
0.174359 0.008563 0.1 -1.24178 -2.72354 9.80695e-008 
0.148741 0.021741 -0.1 -1.49508 -2.59295 1.48067e-007 
0.148741 0.021741 0.1 -1.61787 -2.51817 1.72805e-007 
0.125525 0.03828 -0.1 -1.85107 -2.35213 2.20837e-007 
0.125525 0.03828 0.1 -1.96149 -2.26087 2.44132e-007 
0.104875 0.058 -0.1 -2.16642 -2.06572 2.88493e-007 
0.104875 0.058 0.1 -2.26093 -1.96182 3.0956e-007 
0.086954 0.08072 -0.1 -2.43216 -1.74576 3.48942e-007 
0.086954 0.08072 0.1 -2.50887 -1.6336 3.67257e-007 
0.071926 0.106259 -0.1 -2.64409 -1.40535 4.00878e-007 
0.071926 0.106259 0.1 -2.70259 -1.28926 4.16181e-007 
0.059953 0.134438 -0.1 -2.80225 -1.05686 4.43764e-007 
0.059953 0.134438 0.1 -2.8434 -0.940547 4.56043e-007 
0.051199 0.165074 -0.1 -2.90997 -0.710574 4.77736e-007 
0.051199 0.165074 0.1 -2.9354 -0.59691 4.8715e-007 
0.045827 0.197988 -0.1 -2.97252 -0.374275 5.03372e-007 
0.045827 0.197988 0.1 -2.98422 -0.265304 5.10181e-007 
0.044 0.233 -0.1 -2.9962 -0.0576237 5.21353e-007 
0.044 0.233 0.1 -2.99647 0.0410863 5.25716e-007 
0.045991 0.27568 -0.1 -2.98817 0.23185 5.32602e-007 
0.045991 0.27568 0.1 -2.9796 0.323905 5.35128e-007 
0.051931 0.318107 -0.1 -2.95435 0.505295 5.38641e-007 
0.051931 0.318107 0.1 -2.93767 0.59463 5.3963e-007 
0.061766 0.360109 -0.1 -2.89687 0.769618 5.40145e-007 
0.061766 0.360109 0.1 -2.87275 0.855269 5.39673e-007 
0.075444 0.401519 -0.1 -2.8178 1.02219 5.37362e-007 
0.075444 0.401519 0.1 -2.78698 1.10345 5.35525e-007 
0.092915 0.442164 -0.1 -2.71951 1.26093 5.30611e-007 
0.092915 0.442164 0.1 -2.68286 1.33715 5.27535e-007 
0.114125 0.481875 -0.1 -2.60453 1.48422 5.20268e-007 
0.114125 0.481875 0.1 -2.56286 1.55508 5.16078e-007 
0.139023 0.520482 -0.1 -2.47531 1.69119 5.06721e-007 
0.139023 0.520482 0.1 -2.42943 1.75645 5.01553e-007 
0.167556 0.557815 -0.1 -2.33422 1.88134 4.90364e-007 
0.167556 0.557815 0.1 -2.28488 1.94096 4.84344e-007 
0.199672 0.593703 -0.1 -2.18345 2.05457 4.71575e-007 
0.199672 0.593703 0.1 -2.13136 2.10857 4.64827e-007 
0.235319 0.627977 -0.1 -2.025 2.21105 4.50711e-007 
0.235319 0.627977 0.1 -1.97074 2.25955 4.43344e-007 
0.274446 0.660466 -0.1 -1.86064 2.35118 4.28098e-007 
0.274446 0.660466 0.1 -1.8048 2.39432 4.2022e-007 
0.317 0.691 -0.1 -0.380015 2.24325 1.645e-007 
0.317 0.691 0.1 0.988924 2.04905 -8.33421e-008 
0.376 0.616 -0.1 2.10265 0.389035 -3.50634e-007 
0.376 0.616 0.1 1.84744 -1.07678 -3.70084e-007 
0.273799 0.084924 -0.1 -0.296997 2.98021 1.82198e-007 
0.273799 0.084924 0.1 -0.418839 2.96554 2.0286e-007 
0.288644 0.087644 -0.1 -0.666174 2.91937 2.44088e-007 
0.288644 0.087644 0.1 -0.791668 2.88787 2.64653e-007 
0.302453 0.092078 -0.1 -1.04281 2.80642 3.05003e-007 
0.302453 0.092078 0.1 -1.16846 2.75647 3.24789e-007 
0.315148 0.098148 -0.1 -1.41536 2.63778 3.62771e-007 
0.315148 0.098148 0.1 -1.53662 2.56904 3.80967e-007 
0.326649 0.105774 -0.1 -1.77007 2.41386 4.15002e-007 
0.326649 0.105774 0.1 -1.88227 2.32743 4.30842e-007 
0.336875 0.114875 -0.1 -2.09339 2.13952 4.59541e-007 
0.336875 0.114875 0.1 -2.19232 2.03803 4.72403e-007 
0.345747 0.125372 -0.1 -2.37372 1.82385 4.94757e-007 
0.345747 0.125372 0.1 -2.4562 1.71116 5.04253e-007 
0.353185 0.137185 -0.1 -2.60301 1.47902 5.19775e-007 
0.353185 0.137185 0.1 -2.66735 1.35958 5.25803e-007 
0.359109 0.150234 -0.1 -2.77765 1.11838 5.34546e-007 
0.359109 0.150234 0.1 -2.82363 0.996617 5.37263e-007 
0.36344 0.16444 -0.1 -2.89829 0.754533 5.39735e-007 
0.36344 0.16444 0.1 -2.92697 0.634209 5.3949e-007 
0.366097 0.179722 -0.1 -2.9689 0.397979 5.36495e-007 
0.366097 0.179722 0.1 -2.98215 0.282073 5.33746e-007 
0.367 0.196 -0.1 -2.9947 0.0439873 5.25532e-007 
0.367 0.196 0.1 -2.994 -0.0781928 5.2007e-007 
0.366018 0.21067 -0.1 -2.97494 -0.33549 5.05491e-007 
0.366018 0.21067 0.1 -2.95658 -0.470606 4.96373e-007 
0.363144 0.224611 -0.1 -2.90104 -0.738786 4.7494e-007 
0.363144 0.224611 0.1 -2.86386 -0.871849 4.62624e-007 
0.358484 0.237719 -0.1 -2.77145 -1.13173 4.35106e-007 
0.358484 0.237719 0.1 -2.71621 -1.25855 4.19905e-007 
0.352148 0.249889 -0.1 -2.58919 -1.50275 3.87021e-007 
0.352148 0.249889 0.1 -2.5174 -1.62013 3.69338e-007 
0.344242 0.261017 -0.1 -2.35966 -1.84259 3.32034e-007 
0.344242 0.261017 0.1 -2.2737 -1.94767 3.12411e-007 
0.334875 0.271 -0.1 -2.09002 -2.14386 2.7172e-007 
0.334875 0.271 0.1 -1.9923 -2.23496 2.50651e-007 
0.324153 0.279733 -0.1 -1.78782 -2.40196 2.076e-007 
0.324153 0.279733 0.1 -1.68107 -2.47784 1.85617e-007 
0.312185 0.287111 -0.1 -1.46117 -2.61384 1.41225e-007 
0.312185 0.287111 0.1 -1.34803 -2.67395 1.18815e-007 
0.299078 0.293031 -0.1 -1.11782 -2.77833 7.40014e-008 
0.299078 0.293031 0.1 -1.00077 -2.82261 5.15997e-008 
0.28494 0.297389 -0.1 -0.765017 -2.89567 7.186e-009 
0.28494 0.297389 0.1 -0.646323 -2.92445 -1.48252e-008 
0.269878 0.30008 -0.1 -0.409598 -2.96715 -5.80819e-008 
0.269878 0.30008 0.1 -0.291566 -2.98106 -7.93275e-008 
0.254 0.301 -0.1 -0.0985115 -2.9965 -1.13757e-007 
0.254 0.301 0.1 -0.023489 -2.99803 -1.26942e-007 
0.243873 0.300826 -0.1 0.0921265 -2.99803 -1.47156e-007 
0.243873 0.300826 0.1 0.13272 -2.99651 -1.54187e-007 
0.234403 0.300278 -0.1 0.222742 -2.9909 -1.69682e-007 
0.234403 0.300278 0.1 0.272171 -2.9868 -1.78145e-007 
0.225453 0.299313 -0.1 0.378427 -2.97493 -1.96204e-007 
0.225453 0.299313 0.1 0.435254 -2.96715 -2.058e-007 
0.216889 0.297889 -0.1 0.553513 -2.94716 -2.25604e-007 
0.216889 0.297889 0.1 0.614946 -2.93496 -2.35811e-007 
0.208575 0.295965 -0.1 0.738801 -2.90617 -2.56209e-007 
0.208575 0.295965 0.1 0.801223 -2.88958 -2.66398e-007 
0.200375 0.2935 -0.1 0.923536 -2.85291 -2.86181e-007 
0.200375 0.2935 0.1 0.983427 -2.83282 -2.95775e-007 
0.192155 0.290451 -0.1 1.0971 -2.79099 -3.13822e-007 
0.192155 0.290451 0.1 1.15089 -2.76925 -3.22275e-007 
0.183778 0.286778 -0.1 1.25078 -2.72587 -3.37845e-007 
0.183778 0.286778 0.1 1.29689 -2.70423 -3.44962e-007 
0.175109 0.282438 -0.1 1.3807 -2.66271 -3.578e-007 
0.175109 0.282438 0.1 1.4184 -2.64282 -3.63522e-007 
0.166014 0.277389 -0.1 1.4855 -2.60595 -3.73644e-007 
0.166014 0.277389 0.1 1.51491 -2.58897 -3.78043e-007 
0.156356 0.27159 -0.1 1.5664 -2.55832 -3.85706e-007 
0.156356 0.27159 0.1 1.5885 -2.54466 -3.88973e-007 
0.146 0.265 -0.1 2.05953 -1.85525 -4.41195e-007 
0.146 0.265 0.1 2.50847 -1.17949 -4.90151e-007 
0.141386 0.237911 -0.1 2.97074 -0.377358 -5.35915e-007 
0.141386 0.237911 0.1 2.98408 -0.250989 -5.32724e-007 
0.140338 0.212704 -0.1 2.99378 0.0115653 -5.22944e-007 
0.140338 0.212704 0.1 2.99016 0.14775 -5.16358e-007 
0.142547 0.189469 -0.1 2.96262 0.425937 -4.99383e-007 
0.142547 0.189469 0.1 2.9387 0.567939 -4.88993e-007 
0.147704 0.168296 -0.1 2.86849 0.852531 -4.64277e-007 
0.147704 0.168296 0.1 2.82219 0.995121 -4.4995e-007 
0.155499 0.149277 -0.1 2.70674 1.27521 -4.17521e-007 
0.155499 0.149277 0.1 2.63759 1.41271 -3.99418e-007 
0.165625 0.1325 -0.1 2.47763 1.6771 -3.59894e-007 
0.165625 0.1325 0.1 2.38683 1.80398 -3.38472e-007 
0.177771 0.118057 -0.1 2.18589 2.0427 -2.92905e-007 
0.177771 0.118057 0.1 2.07576 2.15452 -2.6876e-007 
0.19163 0.106037 -0.1 1.83913 2.3597 -2.18418e-007 
0.19163 0.106037 0.1 1.71263 2.45305 -1.9222e-007 
0.206891 0.096531 -0.1 1.44621 2.61893 -1.38386e-007 
0.206891 0.096531 0.1 1.30627 2.69146 -1.10748e-007 
0.223245 0.08963 -0.1 1.01599 2.81382 -5.46451e-008 
0.223245 0.08963 0.1 0.865634 2.86365 -2.61781e-008 
0.240385 0.085422 -0.1 0.557319 2.93908 3.10264e-008 
0.240385 0.085422 0.1 0.399357 2.96468 5.97642e-008 
0.258 0.084 -0.1 0.102545 2.99181 1.12846e-007 
0.258 0.084 0.1 -0.0363045 2.99335 1.37191e-007 
3 70 72 71 
3 69 72 70 
3 68 72 69 
3 68 0 72 
3 68 1 0 
3 67 1 68 
3 67 2 1 
3 67 3 2 
3 66 3 67 
3 66 4 3 
3 66 5 4 
3 65 5 66 
3 65 6 5 
3 65 7 6 
3 64 7 65 
3 64 8 7 
3 63 8 64 
3 63 9 8 
3 63 10 9 
3 62 10 63 
3 22 24 23 
3 21 24 22 
3 20 24 21 
3 20 25 24 
3 19 25 20 
3 18 25 19 
3 62 11 10 
3 17 25 18 
3 17 26 25 
3 16 26 17 
3 15 26 16 
3 14 26 15 
3 14 27 26 
3 13 27 14 
3 12 27 13 
3 11 27 12 
3 11 28 27 
3 62 28 11 
3 61 28 62 
3 61 29 28 
3 61 30 29 
3 60 99 61 
3 99 98 61 
3 98 30 61 
3 98 97 30 
3 97 96 30 
3 96 31 30 
3 95 31 96 
3 94 31 95 
3 60 100 99 
3 60 101 100 
3 93 31 94 
3 93 32 31 
3 60 102 101 
3 60 103 102 
3 92 32 93 
3 60 104 103 
3 91 32 92 
3 60 105 104 
3 60 106 105 
3 90 32 91 
3 60 107 106 
3 59 107 60 
3 90 33 32 
3 59 108 107 
3 89 33 90 
3 59 109 108 
3 88 33 89 
3 87 33 88 
3 87 34 33 
3 59 110 109 
3 86 34 87 
3 58 110 59 
3 85 34 86 
3 85 35 34 
3 58 111 110 
3 84 35 85 
3 57 111 58 
3 83 35 84 
3 83 36 35 
3 57 112 111 
3 82 36 83 
3 57 113 112 
3 82 37 36 
3 56 113 57 
3 81 37 82 
3 80 37 81 
3 56 114 113 
3 80 38 37 
3 79 38 80 
3 55 114 56 
3 55 115 114 
3 78 38 79 
3 55 116 115 
3 78 39 38 
3 77 39 78 
3 54 116 55 
3 54 117 116 
3 76 39 77 
3 75 39 76 
3 54 118 117 
3 75 40 39 
3 74 40 75 
3 54 119 118 
3 73 40 74 
3 54 120 119 
3 120 40 73 
3 54 40 120 
3 53 40 54 
3 53 41 40 
3 52 41 53 
3 52 42 41 
3 51 42 52 
3 51 43 42 
3 50 43 51 
3 50 44 43 
3 49 44 50 
3 49 45 44 
3 48 45 49 
3 48 46 45 
3 47 46 48 
3 193 191 192 
3 193 190 191 
3 193 189 190 
3 121 189 193 
3 122 189 121 
3 122 188 189 
3 123 188 122 
3 124 188 123 
3 124 187 188 
3 125 187 124 
3 126 187 125 
3 126 186 187 
3 127 186 126 
3 128 186 127 
3 128 185 186 
3 129 185 128 
3 129 184 185 
3 130 184 129 
3 131 184 130 
3 131 183 184 
3 145 143 144 
3 145 142 143 
3 145 141 142 
3 146 141 145 
3 146 140 141 
3 146 139 140 
3 132 183 131 
3 146 138 139 
3 147 138 146 
3 147 137 138 
3 147 136 137 
3 147 135 136 
3 148 135 147 
3 148 134 135 
3 148 133 134 
3 148 132 133 
3 149 132 148 
3 149 183 132 
3 149 182 183 
3 150 182 149 
3 151 182 150 
3 220 181 182 
3 219 220 182 
3 151 219 182 
3 218 219 151 
3 217 218 151 
3 152 217 151 
3 152 216 217 
3 152 215 216 
3 221 181 220 
3 222 181 221 
3 152 214 215 
3 153 214 152 
3 223 181 222 
3 224 181 223 
3 153 213 214 
3 225 181 224 
3 153 212 213 
3 226 181 225 
3 227 181 226 
3 153 211 212 
3 228 181 227 
3 228 180 181 
3 154 211 153 
3 229 180 228 
3 154 210 211 
3 230 180 229 
3 154 209 210 
3 154 208 209 
3 155 208 154 
3 231 180 230 
3 155 207 208 
3 231 179 180 
3 155 206 207 
3 156 206 155 
3 232 179 231 
3 156 205 206 
3 232 178 179 
3 156 204 205 
3 157 204 156 
3 233 178 232 
3 157 203 204 
3 234 178 233 
3 158 203 157 
3 234 177 178 
3 158 202 203 
3 158 201 202 
3 235 177 234 
3 159 201 158 
3 159 200 201 
3 235 176 177 
3 236 176 235 
3 159 199 200 
3 237 176 236 
3 160 199 159 
3 160 198 199 
3 237 175 176 
3 238 175 237 
3 160 197 198 
3 160 196 197 
3 239 175 238 
3 161 196 160 
3 161 195 196 
3 240 175 239 
3 161 194 195 
3 241 175 240 
3 161 241 194 
3 161 175 241 
3 161 174 175 
3 162 174 161 
3 162 173 174 
3 163 173 162 
3 163 172 173 
3 164 172 163 
3 164 171 172 
3 165 171 164 
3 165 170 171 
3 166 170 165 
3 166 169 170 
3 167 169 166 
3 167 168 169 
3 243 245 244 
3 243 244 242 
3 245 247 246 
3 245 246 244 
3 247 249 248 
3 247 248 246 
3 249 251 250 
3 249 250 248 
3 251 253 252 
3 251 252 250 
3 253 255 254 
3 253 254 252 
3 255 257 256 
3 255 256 254 
3 257 259 258 
3 257 258 256 
3 259 261 260 
3 259 260 258 
3 261 263 262 
3 261 262 260 
3 263 265 264 
3 263 264 262 
3 265 267 266 
3 265 266 264 
3 267 269 268 
3 267 268 266 
3 269 271 270 
3 269 270 268 
3 271 273 272 
3 271 272 270 
3 273 275 274 
3 273 274 272 
3 275 277 276 
3 275 276 274 
3 277 279 278 
3 277 278 276 
3 279 281 280 
3 279 280 278 
3 281 283 282 
3 281 282 280 
3 283 285 284 
3 283 284 282 
3 285 287 286 
3 285 286 284 
3 287 289 288 
3 287 288 286 
3 289 291 290 
3 289 290 288 
3 291 293 292 
3 291 292 290 
3 293 295 294 
3 293 294 292 
3 295 297 296 
3 295 296 294 
3 297 299 298 
3 297 298 296 
3 299 301 300 
3 299 300 298 
3 301 303 302 
3 301 302 300 
3 303 305 304 
3 303 304 302 
3 305 307 306 
3 305 306 304 
3 307 309 308 
3 307 308 306 
3 309 311 310 
3 309 310 308 
3 311 313 312 
3 311 312 310 
3 313 315 314 
3 313 314 312 
3 315 317 316 
3 315 316 314 
3 317 319 318 
3 317 318 316 
3 319 321 320 
3 319 320 318 
3 321 323 322 
3 321 322 320 
3 323 325 324 
3 323 324 322 
3 325 327 326 
3 325 326 324 
3 327 329 328 
3 327 328 326 
3 329 331 330 
3 329 330 328 
3 331 333 332 
3 331 332 330 
3 333 335 334 
3 333 334 332 
3 335 337 336 
3 335 336 334 
3 337 339 338 
3 337 338 336 
3 339 341 340 
3 339 340 338 
3 341 343 342 
3 341 342 340 
3 343 345 344 
3 343 344 342 
3 345 347 346 
3 345 346 344 
3 347 349 348 
3 347 348 346 
3 349 351 350 
3 349 350 348 
3 351 353 352 
3 351 352 350 
3 353 355 354 
3 353 354 352 
3 355 357 356 
3 355 356 354 
3 357 359 358 
3 357 358 356 
3 359 361 360 
3 359 360 358 
3 361 363 362 
3 361 362 360 
3 363 365 364 
3 363 364 362 
3 365 367 366 
3 365 366 364 
3 367 369 368 
3 367 368 366 
3 369 371 370 
3 369 370 368 
3 371 373 372 
3 371 372 370 
3 373 375 374 
3 373 374 372 
3 375 377 376 
3 375 376 374 
3 377 379 378 
3 377 378 376 
3 379 381 380 
3 379 380 378 
3 381 383 382 
3 381 382 380 
3 383 385 384 
3 383 384 382 
3 385 387 386 
3 385 386 384 
3 387 243 242 
3 387 242 386 
3 389 391 390 
3 389 390 388 
3 391 393 392 
3 391 392 390 
3 393 395 394 
3 393 394 392 
3 395 397 396 
3 395 396 394 
3 397 399 398 
3 397 398 396 
3 399 401 400 
3 399 400 398 
3 401 403 402 
3 401 402 400 
3 403 405 404 
3 403 404 402 
3 405 407 406 
3 405 406 404 
3 407 409 408 
3 407 408 406 
3 409 411 410 
3 409 410 408 
3 411 413 412 
3 411 412 410 
3 413 415 414 
3 413 414 412 
3 415 417 416 
3 415 416 414 
3 417 419 418 
3 417 418 416 
3 419 421 420 
3 419 420 418 
3 421 423 422 
3 421 422 420 
3 423 425 424 
3 423 424 422 
3 425 427 426 
3 425 426 424 
3 427 429 428 
3 427 428 426 
3 429 431 430 
3 429 430 428 
3 431 433 432 
3 431 432 430 
3 433 435 434 
3 433 434 432 
3 435 437 436 
3 435 436 434 
3 437 439 438 
3 437 438 436 
3 439 441 440 
3 439 440 438 
3 441 443 442 
3 441 442 440 
3 443 445 444 
3 443 444 442 
3 445 447 446 
3 445 446 444 
3 447 449 448 
3 447 448 446 
3 449 451 450 
3 449 450 448 
3 451 453 452 
3 451 452 450 
3 453 455 454 
3 453 454 452 
3 455 457 456 
3 455 456 454 
3 457 459 458 
3 457 458 456 
3 459 461 460 
3 459 460 458 
3 461 463 462 
3 461 462 460 
3 463 465 464 
3 463 464 462 
3 465 467 466 
3 465 466 464 
3 467 469 468 
3 467 468 466 
3 469 471 470 
3 469 470 468 
3 471 473 472 
3 471 472 470 
3 473 475 474 
3 473 474 472 
3 475 477 476 
3 475 476 474 
3 477 479 478 
3 477 478 476 
3 479 481 480 
3 479 480 478 
3 481 483 482 
3 481 482 480 
3 483 389 388 
3 483 388 482 
