ply
format ascii 1.0
comment VCGLIB generated
element vertex 28
property float x
property float y
property float z
property float nx
property float ny
property float nz
element face 24
property list uchar int vertex_indices
end_header
0.1 0.449 0.1 1.2342e-008 -3.0855e-009 0.070588 
0.221 0.173 0.1 1.76153e-008 -4.40383e-009 0.100748 
0.339 0.449 0.1 4.58446e-009 -1.14611e-009 0.02622 
0.434 0.449 0.1 1.20864e-008 -3.02159e-009 0.069126 
0.236 -0.009 0.1 8.45658e-009 -2.11414e-009 0.048366 
0.206 -0.009 0.1 1.32967e-008 -3.32416e-009 0.076048 
0.00300002 0.449 0.1 7.76768e-009 -1.94192e-009 0.044426 
0.1 0.449 -0.1 -1.2342e-008 3.0855e-009 -0.070588 
0.221 0.173 -0.1 -1.76153e-008 4.40383e-009 -0.100748 
0.339 0.449 -0.1 -4.58446e-009 1.14611e-009 -0.02622 
0.434 0.449 -0.1 -1.20864e-008 3.02159e-009 -0.069126 
0.236 -0.00899999 -0.1 -8.45658e-009 2.11414e-009 -0.048366 
0.206 -0.00899999 -0.1 -1.32967e-008 3.32416e-009 -0.076048 
0.00299998 0.449 -0.1 -7.76768e-009 1.94192e-009 -0.044426 
0.1 0.449 -0.1 0.915852 2.40152 -5.51591e-008 
0.1 0.449 0.1 1.8317 1.80303 -2.41452e-007 
0.221 0.173 -0.1 0.912216 1.19614 -1.07212e-007 
0.221 0.173 0.1 -0.923126 1.18774 2.13322e-007 
0.339 0.449 -0.1 -1.83898 1.78623 3.99616e-007 
0.339 0.449 0.1 -0.919489 2.39312 2.65375e-007 
0.434 0.449 -0.1 0.917896 1.60318 -9.04128e-008 
0.434 0.449 0.1 1.83579 0.20636 -3.1196e-007 
0.236 -0.00899999 -0.1 1.83579 -1.79364 -3.99383e-007 
0.236 -0.009 0.1 0.917896 -2.39682 -2.65258e-007 
0.206 -0.00899999 -0.1 -0.914223 -2.40521 5.47126e-008 
0.206 -0.009 0.1 -1.82845 -1.81042 2.4056e-007 
0.00299998 0.449 -0.1 -1.82845 0.189576 3.27982e-007 
0.00300002 0.449 0.1 -0.914223 1.59479 2.29558e-007 
3 5 0 6 
3 5 1 0 
3 1 3 2 
3 1 4 3 
3 5 4 1 
3 7 12 13 
3 8 12 7 
3 10 8 9 
3 11 8 10 
3 11 12 8 
3 15 17 16 
3 15 16 14 
3 17 19 18 
3 17 18 16 
3 19 21 20 
3 19 20 18 
3 21 23 22 
3 21 22 20 
3 23 25 24 
3 23 24 22 
3 25 27 26 
3 25 26 24 
3 27 15 14 
3 27 14 26 
