ply
format ascii 1.0
comment VCGLIB generated
element vertex 384
property float x
property float y
property float z
property float nx
property float ny
property float nz
element face 384
property list uchar int vertex_indices
end_header
0.217942 -0.006124 0.1 3.11116e-010 -7.77791e-011 0.00177938 
0.18787 0.002343 0.1 9.1909e-010 -2.29772e-010 0.00525658 
0.159938 0.016156 0.1 1.79626e-009 -4.49067e-010 0.0102734 
0.134296 0.035074 0.1 2.88254e-009 -7.20636e-010 0.0164862 
0.1111 0.058853 0.1 3.20204e-009 -8.00508e-010 0.0183135 
0.0905 0.08725 0.1 1.97887e-009 -4.94717e-010 0.0113178 
0.07265 0.120022 0.1 1.97713e-009 -4.94283e-010 0.0113079 
0.057704 0.156926 0.1 1.77572e-009 -4.43929e-010 0.0101559 
0.045813 0.197719 0.1 2.44316e-009 -6.10791e-010 0.0139733 
0.03713 0.242157 0.1 2.13848e-009 -5.3462e-010 0.0122307 
0.031808 0.289999 0.1 2.96308e-009 -7.40768e-010 0.0169468 
0.03 0.341 0.1 2.4066e-009 -6.0165e-010 0.0137641 
0.031808 0.392001 0.1 2.3005e-009 -5.75125e-010 0.0131573 
0.03713 0.439843 0.1 2.65452e-009 -6.63629e-010 0.0151821 
0.045812 0.484281 0.1 1.93094e-009 -4.82734e-010 0.0110437 
0.057704 0.525074 0.1 2.15373e-009 -5.38433e-010 0.0123179 
0.07265 0.561978 0.1 2.13264e-009 -5.33162e-010 0.0121973 
0.0905 0.59475 0.1 2.91506e-009 -7.28766e-010 0.0166722 
0.1111 0.623147 0.1 3.49641e-009 -8.74103e-010 0.0199971 
0.134296 0.646926 0.1 1.72755e-009 -4.31887e-010 0.00988043 
0.159938 0.665844 0.1 1.79626e-009 -4.49066e-010 0.0102734 
0.18787 0.679657 0.1 9.19108e-010 -2.29777e-010 0.00525668 
0.217942 0.688124 0.1 3.111e-010 -7.7775e-011 0.00177928 
0.25 0.691 0.1 3.2241e-011 -8.06023e-012 0.000184397 
0.282058 0.688124 0.1 1.27148e-010 -3.17871e-011 0.000727203 
0.31213 0.679658 0.1 5.7899e-010 -1.44748e-010 0.00331144 
0.340062 0.665844 0.1 1.33096e-009 -3.32739e-010 0.00761219 
0.365704 0.646926 0.1 3.47834e-009 -8.69587e-010 0.0198938 
0.3889 0.623147 0.1 3.9369e-009 -9.84223e-010 0.0225164 
0.4095 0.59475 0.1 1.69362e-009 -4.23405e-010 0.00968637 
0.42735 0.561978 0.1 2.13264e-009 -5.33162e-010 0.0121973 
0.442296 0.525074 0.1 2.15373e-009 -5.38433e-010 0.0123179 
0.454188 0.484281 0.1 1.93094e-009 -4.82734e-010 0.0110437 
0.46287 0.439843 0.1 2.65452e-009 -6.63629e-010 0.0151821 
0.468192 0.392001 0.1 2.3005e-009 -5.75125e-010 0.0131573 
0.47 0.341 0.1 3.0654e-009 -7.66352e-010 0.0175321 
0.468192 0.289999 0.1 2.3005e-009 -5.75125e-010 0.0131573 
0.46287 0.242157 0.1 2.13848e-009 -5.34621e-010 0.0122307 
0.454188 0.197719 0.1 2.44318e-009 -6.10795e-010 0.0139734 
0.442296 0.156926 0.1 1.77572e-009 -4.4393e-010 0.0101559 
0.42735 0.120022 0.1 1.97713e-009 -4.94283e-010 0.0113079 
0.4095 0.08725 0.1 1.97887e-009 -4.94717e-010 0.0113178 
0.3889 0.058853 0.1 4.16414e-009 -1.04104e-009 0.0238161 
0.365704 0.035074 0.1 2.32335e-009 -5.80838e-010 0.013288 
0.340063 0.016156 0.1 1.33094e-009 -3.32734e-010 0.00761207 
0.31213 0.002343 0.1 5.7898e-010 -1.44745e-010 0.00331138 
0.282058 -0.006124 0.1 1.2716e-010 -3.17899e-011 0.000727268 
0.25 -0.009 0.1 3.22411e-011 -8.06027e-012 0.000184398 
0.231634 0.595999 0.1 1.8785e-010 -4.69626e-011 0.00107438 
0.214574 0.590074 0.1 1.03235e-009 -2.58088e-010 0.00590437 
0.198875 0.580344 0.1 4.14598e-010 -1.03649e-010 0.00237122 
0.184593 0.566926 0.1 5.71671e-010 -1.42918e-010 0.00326958 
0.171782 0.549939 0.1 1.35114e-009 -3.37784e-010 0.0077276 
0.1605 0.5295 0.1 7.78386e-010 -1.94597e-010 0.00445185 
0.150801 0.505728 0.1 1.58917e-009 -3.97292e-010 0.00908899 
0.142741 0.478741 0.1 1.73894e-009 -4.34735e-010 0.00994559 
0.136375 0.448656 0.1 1.07886e-009 -2.69714e-010 0.00617034 
0.131759 0.415593 0.1 1.99698e-009 -4.99245e-010 0.0114214 
0.128949 0.379668 0.1 2.14894e-009 -5.37235e-010 0.0122905 
0.128 0.341 0.1 2.19528e-009 -5.48819e-010 0.0125555 
0.128949 0.302332 0.1 1.27504e-009 -3.18761e-010 0.0072924 
0.131759 0.266407 0.1 1.99698e-009 -4.99245e-010 0.0114214 
0.136375 0.233344 0.1 1.84037e-009 -4.60094e-010 0.0105257 
0.142741 0.203259 0.1 9.81197e-010 -2.45299e-010 0.00561179 
0.150801 0.176272 0.1 1.58916e-009 -3.9729e-010 0.00908894 
0.1605 0.1525 0.1 1.4495e-009 -3.62374e-010 0.00829015 
0.171782 0.132061 0.1 6.99412e-010 -1.74853e-010 0.00400017 
0.184593 0.115074 0.1 1.23762e-009 -3.09406e-010 0.00707838 
0.198875 0.101656 0.1 5.14146e-010 -1.28536e-010 0.00294057 
0.214574 0.091926 0.1 3.664e-010 -9.15998e-011 0.00209556 
0.231634 0.086001 0.1 9.68076e-010 -2.42019e-010 0.00553675 
0.25 0.084 0.1 1.48014e-009 -3.70035e-010 0.00846541 
0.268366 0.086001 0.1 9.68076e-010 -2.42019e-010 0.00553675 
0.285426 0.091926 0.1 3.664e-010 -9.15998e-011 0.00209556 
0.301125 0.101656 0.1 5.14146e-010 -1.28536e-010 0.00294057 
0.315407 0.115074 0.1 1.23762e-009 -3.09406e-010 0.00707838 
0.328218 0.132061 0.1 6.99412e-010 -1.74853e-010 0.00400017 
0.3395 0.1525 0.1 1.4495e-009 -3.62374e-010 0.00829015 
0.349199 0.176272 0.1 1.58917e-009 -3.97292e-010 0.00908898 
0.357259 0.203259 0.1 9.81208e-010 -2.45302e-010 0.00561185 
0.363625 0.233344 0.1 1.84039e-009 -4.60096e-010 0.0105258 
0.368241 0.266407 0.1 1.99698e-009 -4.99245e-010 0.0114214 
0.371051 0.302332 0.1 2.14894e-009 -5.37234e-010 0.0122905 
0.372 0.341 0.1 1.32514e-009 -3.31285e-010 0.00757893 
0.371051 0.379668 0.1 2.14894e-009 -5.37235e-010 0.0122905 
0.368241 0.415593 0.1 1.99698e-009 -4.99245e-010 0.0114214 
0.363625 0.448656 0.1 1.07886e-009 -2.69714e-010 0.00617034 
0.357259 0.478741 0.1 1.73894e-009 -4.34735e-010 0.00994559 
0.349199 0.505728 0.1 1.58917e-009 -3.97292e-010 0.00908898 
0.3395 0.5295 0.1 7.78386e-010 -1.94596e-010 0.00445185 
0.328218 0.549939 0.1 1.35114e-009 -3.37784e-010 0.0077276 
0.315407 0.566926 0.1 5.71671e-010 -1.42918e-010 0.00326958 
0.301125 0.580344 0.1 4.14598e-010 -1.0365e-010 0.00237122 
0.285426 0.590074 0.1 1.03235e-009 -2.58088e-010 0.00590437 
0.268366 0.595999 0.1 1.8785e-010 -4.69626e-011 0.00107438 
0.25 0.598 0.1 1.49333e-009 -3.73332e-010 0.00854084 
0.217942 -0.006124 -0.1 -3.11116e-010 7.77791e-011 -0.00177938 
0.18787 0.002343 -0.1 -9.1909e-010 2.29772e-010 -0.00525658 
0.159938 0.016156 -0.1 -1.79626e-009 4.49067e-010 -0.0102734 
0.134296 0.035074 -0.1 -2.88254e-009 7.20636e-010 -0.0164862 
0.1111 0.058853 -0.1 -3.20204e-009 8.00508e-010 -0.0183135 
0.0905 0.08725 -0.1 -1.97887e-009 4.94717e-010 -0.0113178 
0.07265 0.120022 -0.1 -1.97713e-009 4.94283e-010 -0.0113079 
0.057704 0.156926 -0.1 -1.77572e-009 4.43929e-010 -0.0101559 
0.045813 0.197719 -0.1 -2.44316e-009 6.10791e-010 -0.0139733 
0.03713 0.242157 -0.1 -2.13848e-009 5.3462e-010 -0.0122307 
0.031808 0.289999 -0.1 -2.96308e-009 7.40768e-010 -0.0169468 
0.03 0.341 -0.1 -2.4066e-009 6.0165e-010 -0.0137641 
0.031808 0.392001 -0.1 -2.3005e-009 5.75125e-010 -0.0131573 
0.03713 0.439843 -0.1 -2.65452e-009 6.63629e-010 -0.0151821 
0.045812 0.484281 -0.1 -1.93094e-009 4.82734e-010 -0.0110437 
0.057704 0.525074 -0.1 -2.15373e-009 5.38433e-010 -0.0123179 
0.07265 0.561978 -0.1 -2.13264e-009 5.33162e-010 -0.0121973 
0.0905 0.59475 -0.1 -2.91506e-009 7.28766e-010 -0.0166722 
0.1111 0.623147 -0.1 -3.49641e-009 8.74103e-010 -0.0199971 
0.134296 0.646926 -0.1 -1.72755e-009 4.31887e-010 -0.00988043 
0.159938 0.665844 -0.1 -1.79626e-009 4.49066e-010 -0.0102734 
0.18787 0.679657 -0.1 -9.19108e-010 2.29777e-010 -0.00525668 
0.217942 0.688124 -0.1 -3.111e-010 7.7775e-011 -0.00177928 
0.25 0.691 -0.1 -3.2241e-011 8.06023e-012 -0.000184397 
0.282058 0.688124 -0.1 -1.27148e-010 3.17871e-011 -0.000727203 
0.31213 0.679658 -0.1 -5.7899e-010 1.44748e-010 -0.00331144 
0.340062 0.665844 -0.1 -1.33096e-009 3.32739e-010 -0.00761219 
0.365704 0.646926 -0.1 -3.47834e-009 8.69587e-010 -0.0198938 
0.3889 0.623147 -0.1 -3.9369e-009 9.84223e-010 -0.0225164 
0.4095 0.59475 -0.1 -1.69362e-009 4.23405e-010 -0.00968637 
0.42735 0.561978 -0.1 -2.13264e-009 5.33162e-010 -0.0121973 
0.442296 0.525074 -0.1 -2.15373e-009 5.38433e-010 -0.0123179 
0.454188 0.484281 -0.1 -1.93094e-009 4.82734e-010 -0.0110437 
0.46287 0.439843 -0.1 -2.65452e-009 6.63629e-010 -0.0151821 
0.468192 0.392001 -0.1 -2.3005e-009 5.75125e-010 -0.0131573 
0.47 0.341 -0.1 -3.0654e-009 7.66352e-010 -0.0175321 
0.468192 0.289999 -0.1 -2.3005e-009 5.75125e-010 -0.0131573 
0.46287 0.242157 -0.1 -2.13848e-009 5.34621e-010 -0.0122307 
0.454188 0.197719 -0.1 -2.44318e-009 6.10795e-010 -0.0139734 
0.442296 0.156926 -0.1 -1.77572e-009 4.4393e-010 -0.0101559 
0.42735 0.120022 -0.1 -1.97713e-009 4.94283e-010 -0.0113079 
0.4095 0.08725 -0.1 -1.97887e-009 4.94717e-010 -0.0113178 
0.3889 0.058853 -0.1 -4.16414e-009 1.04104e-009 -0.0238161 
0.365704 0.035074 -0.1 -2.32335e-009 5.80838e-010 -0.013288 
0.340063 0.016156 -0.1 -1.33094e-009 3.32734e-010 -0.00761207 
0.31213 0.002343 -0.1 -5.7898e-010 1.44745e-010 -0.00331138 
0.282058 -0.006124 -0.1 -1.2716e-010 3.17899e-011 -0.000727268 
0.25 -0.00899999 -0.1 -3.22411e-011 8.06027e-012 -0.000184398 
0.231634 0.595999 -0.1 -1.8785e-010 4.69626e-011 -0.00107438 
0.214574 0.590074 -0.1 -1.03235e-009 2.58088e-010 -0.00590437 
0.198875 0.580344 -0.1 -4.14598e-010 1.03649e-010 -0.00237122 
0.184593 0.566926 -0.1 -5.71671e-010 1.42918e-010 -0.00326958 
0.171782 0.549939 -0.1 -1.35114e-009 3.37784e-010 -0.0077276 
0.1605 0.5295 -0.1 -7.78386e-010 1.94597e-010 -0.00445185 
0.150801 0.505728 -0.1 -1.58917e-009 3.97292e-010 -0.00908899 
0.142741 0.478741 -0.1 -1.73894e-009 4.34735e-010 -0.00994559 
0.136375 0.448656 -0.1 -1.07886e-009 2.69714e-010 -0.00617034 
0.131759 0.415593 -0.1 -1.99698e-009 4.99245e-010 -0.0114214 
0.128949 0.379668 -0.1 -2.14894e-009 5.37235e-010 -0.0122905 
0.128 0.341 -0.1 -2.19528e-009 5.48819e-010 -0.0125555 
0.128949 0.302332 -0.1 -1.27504e-009 3.18761e-010 -0.0072924 
0.131759 0.266407 -0.1 -1.99698e-009 4.99245e-010 -0.0114214 
0.136375 0.233344 -0.1 -1.84037e-009 4.60094e-010 -0.0105257 
0.142741 0.203259 -0.1 -9.81197e-010 2.45299e-010 -0.00561179 
0.150801 0.176272 -0.1 -1.58916e-009 3.9729e-010 -0.00908894 
0.1605 0.1525 -0.1 -1.4495e-009 3.62374e-010 -0.00829015 
0.171782 0.132061 -0.1 -6.99412e-010 1.74853e-010 -0.00400017 
0.184593 0.115074 -0.1 -1.23762e-009 3.09406e-010 -0.00707838 
0.198875 0.101656 -0.1 -5.14146e-010 1.28536e-010 -0.00294057 
0.214574 0.091926 -0.1 -3.664e-010 9.15998e-011 -0.00209556 
0.231634 0.086001 -0.1 -9.68076e-010 2.42019e-010 -0.00553675 
0.25 0.084 -0.1 -1.48014e-009 3.70035e-010 -0.00846541 
0.268366 0.086001 -0.1 -9.68076e-010 2.42019e-010 -0.00553675 
0.285426 0.091926 -0.1 -3.664e-010 9.15998e-011 -0.00209556 
0.301125 0.101656 -0.1 -5.14146e-010 1.28536e-010 -0.00294057 
0.315407 0.115074 -0.1 -1.23762e-009 3.09406e-010 -0.00707838 
0.328218 0.132061 -0.1 -6.99412e-010 1.74853e-010 -0.00400017 
0.3395 0.1525 -0.1 -1.4495e-009 3.62374e-010 -0.00829015 
0.349199 0.176272 -0.1 -1.58917e-009 3.97292e-010 -0.00908898 
0.357259 0.203259 -0.1 -9.81208e-010 2.45302e-010 -0.00561185 
0.363625 0.233344 -0.1 -1.84039e-009 4.60096e-010 -0.0105258 
0.368241 0.266407 -0.1 -1.99698e-009 4.99245e-010 -0.0114214 
0.371051 0.302332 -0.1 -2.14894e-009 5.37234e-010 -0.0122905 
0.372 0.341 -0.1 -1.32514e-009 3.31285e-010 -0.00757893 
0.371051 0.379668 -0.1 -2.14894e-009 5.37235e-010 -0.0122905 
0.368241 0.415593 -0.1 -1.99698e-009 4.99245e-010 -0.0114214 
0.363625 0.448656 -0.1 -1.07886e-009 2.69714e-010 -0.00617034 
0.357259 0.478741 -0.1 -1.73894e-009 4.34735e-010 -0.00994559 
0.349199 0.505728 -0.1 -1.58917e-009 3.97292e-010 -0.00908898 
0.3395 0.5295 -0.1 -7.78386e-010 1.94596e-010 -0.00445185 
0.328218 0.549939 -0.1 -1.35114e-009 3.37784e-010 -0.0077276 
0.315407 0.566926 -0.1 -5.71671e-010 1.42918e-010 -0.00326958 
0.301125 0.580344 -0.1 -4.14598e-010 1.0365e-010 -0.00237122 
0.285426 0.590074 -0.1 -1.03235e-009 2.58088e-010 -0.00590437 
0.268366 0.595999 -0.1 -1.8785e-010 4.69626e-011 -0.00107438 
0.25 0.598 -0.1 -1.49333e-009 3.73332e-010 -0.00854084 
0.217942 -0.006124 -0.1 -0.449727 -2.95457 -5.05157e-008 
0.217942 -0.006124 0.1 -0.631393 -2.92115 -1.72912e-008 
0.18787 0.002343 -0.1 -0.985321 -2.82153 4.8946e-008 
0.18787 0.002343 0.1 -1.15758 -2.75534 8.19583e-008 
0.159938 0.016156 -0.1 -1.48025 -2.59746 1.45276e-007 
0.159938 0.016156 0.1 -1.63065 -2.50578 1.75581e-007 
0.134296 0.035074 -0.1 -1.9032 -2.30767 2.31894e-007 
0.134296 0.035074 0.1 -2.02534 -2.20125 2.57902e-007 
0.1111 0.058853 -0.1 -2.2411 -1.98375 3.05134e-007 
0.1111 0.058853 0.1 -2.33472 -1.87267 3.26359e-007 
0.0905 0.08725 -0.1 -2.49707 -1.65271 3.6436e-007 
0.0905 0.08725 0.1 -2.56581 -1.54384 3.81137e-007 
0.07265 0.120022 -0.1 -2.68324 -1.33202 4.10928e-007 
0.07265 0.120022 0.1 -2.73193 -1.22908 4.23941e-007 
0.057704 0.156926 -0.1 -2.81379 -1.03061 4.46929e-007 
0.057704 0.156926 0.1 -2.84696 -0.935078 4.56904e-007 
0.045813 0.197719 -0.1 -2.90153 -0.751468 4.74472e-007 
0.045813 0.197719 0.1 -2.92292 -0.663388 4.82063e-007 
0.03713 0.242157 -0.1 -2.95675 -0.494098 4.95377e-007 
0.03713 0.242157 0.1 -2.96918 -0.412888 5.011e-007 
0.031808 0.289999 -0.1 -2.98711 -0.256546 5.11069e-007 
0.031808 0.289999 0.1 -2.99261 -0.181415 5.15315e-007 
0.03 0.341 -0.1 -2.99812 -0.0354281 5.22659e-007 
0.03 0.341 0.1 -2.99812 0.035428 5.25756e-007 
0.031808 0.392001 -0.1 -2.99261 0.181415 5.31175e-007 
0.031808 0.392001 0.1 -2.98711 0.256546 5.33497e-007 
0.03713 0.439843 -0.1 -2.96918 0.412866 5.37195e-007 
0.03713 0.439843 0.1 -2.95676 0.494055 5.38572e-007 
0.045812 0.484281 -0.1 -2.92293 0.663367 5.40058e-007 
0.045812 0.484281 0.1 -2.90152 0.75149 5.40167e-007 
0.057704 0.525074 -0.1 -2.84695 0.935122 5.38651e-007 
0.057704 0.525074 0.1 -2.81378 1.03063 5.37027e-007 
0.07265 0.561978 -0.1 -2.73193 1.22908 5.3139e-007 
0.07265 0.561978 0.1 -2.68324 1.33202 5.27377e-007 
0.0905 0.59475 -0.1 -2.56581 1.54384 5.16104e-007 
0.0905 0.59475 0.1 -2.49708 1.65271 5.08846e-007 
0.1111 0.623147 -0.1 -2.33472 1.87267 4.90072e-007 
0.1111 0.623147 0.1 -2.2411 1.98375 4.78559e-007 
0.134296 0.646926 -0.1 -2.02534 2.20125 4.50342e-007 
0.134296 0.646926 0.1 -1.9032 2.30767 4.33637e-007 
0.159938 0.665844 -0.1 -1.63065 2.50578 3.94643e-007 
0.159938 0.665844 0.1 -1.48025 2.59746 3.72354e-007 
0.18787 0.679657 -0.1 -1.15758 2.75534 3.22838e-007 
0.18787 0.679657 0.1 -0.985321 2.82153 2.95611e-007 
0.217942 0.688124 -0.1 -0.631394 2.92115 2.38084e-007 
0.217942 0.688124 0.1 -0.449726 2.95457 2.07781e-007 
0.25 0.691 -0.1 -0.089353 2.988 1.46232e-007 
0.25 0.691 0.1 0.089353 2.988 1.14987e-007 
0.282058 0.688124 -0.1 0.449696 2.95458 5.05215e-008 
0.282058 0.688124 0.1 0.631334 2.92116 1.73022e-008 
0.31213 0.679658 -0.1 0.985287 2.82153 -4.89399e-008 
0.31213 0.679658 0.1 1.1576 2.75532 -8.19625e-008 
0.340062 0.665844 -0.1 1.4803 2.59744 -1.45286e-007 
0.340062 0.665844 0.1 1.63068 2.50576 -1.75586e-007 
0.365704 0.646926 -0.1 1.9032 2.30767 -2.31894e-007 
0.365704 0.646926 0.1 2.02534 2.20125 -2.57902e-007 
0.3889 0.623147 -0.1 2.2411 1.98375 -3.05134e-007 
0.3889 0.623147 0.1 2.33472 1.87267 -3.26359e-007 
0.4095 0.59475 -0.1 2.49708 1.65271 -3.64361e-007 
0.4095 0.59475 0.1 2.56581 1.54384 -3.81137e-007 
0.42735 0.561978 -0.1 2.68324 1.33203 -4.10928e-007 
0.42735 0.561978 0.1 2.73193 1.22908 -4.23941e-007 
0.442296 0.525074 -0.1 2.81378 1.03063 -4.46926e-007 
0.442296 0.525074 0.1 2.84695 0.935121 -4.56901e-007 
0.454188 0.484281 -0.1 2.90152 0.751489 -4.74469e-007 
0.454188 0.484281 0.1 2.92293 0.663367 -4.82065e-007 
0.46287 0.439843 -0.1 2.95676 0.494056 -4.9538e-007 
0.46287 0.439843 0.1 2.96918 0.412867 -5.01101e-007 
0.468192 0.392001 -0.1 2.98711 0.256547 -5.11069e-007 
0.468192 0.392001 0.1 2.99261 0.181415 -5.15315e-007 
0.47 0.341 -0.1 2.99812 0.0354278 -5.22659e-007 
0.47 0.341 0.1 2.99812 -0.0354278 -5.25756e-007 
0.468192 0.289999 -0.1 2.99261 -0.181415 -5.31175e-007 
0.468192 0.289999 0.1 2.98711 -0.256547 -5.33497e-007 
0.46287 0.242157 -0.1 2.96918 -0.412867 -5.37195e-007 
0.46287 0.242157 0.1 2.95676 -0.494056 -5.38572e-007 
0.454188 0.197719 -0.1 2.92293 -0.663367 -5.40058e-007 
0.454188 0.197719 0.1 2.90152 -0.75149 -5.40167e-007 
0.442296 0.156926 -0.1 2.84695 -0.935121 -5.38651e-007 
0.442296 0.156926 0.1 2.81378 -1.03063 -5.37027e-007 
0.42735 0.120022 -0.1 2.73193 -1.22908 -5.3139e-007 
0.42735 0.120022 0.1 2.68324 -1.33203 -5.27377e-007 
0.4095 0.08725 -0.1 2.56581 -1.54384 -5.16104e-007 
0.4095 0.08725 0.1 2.49708 -1.65271 -5.08846e-007 
0.3889 0.058853 -0.1 2.33472 -1.87267 -4.90072e-007 
0.3889 0.058853 0.1 2.2411 -1.98375 -4.78559e-007 
0.365704 0.035074 -0.1 2.02535 -2.20124 -4.50343e-007 
0.365704 0.035074 0.1 1.90323 -2.30765 -4.33642e-007 
0.340063 0.016156 -0.1 1.63067 -2.50576 -3.94646e-007 
0.340063 0.016156 0.1 1.48024 -2.59746 -3.72352e-007 
0.31213 0.002343 -0.1 1.15756 -2.75535 -3.22834e-007 
0.31213 0.002343 0.1 0.985308 -2.82154 -2.9561e-007 
0.282058 -0.006124 -0.1 0.631393 -2.92115 -2.38084e-007 
0.282058 -0.006124 0.1 0.449727 -2.95457 -2.07781e-007 
0.25 -0.00899999 -0.1 0.0893535 -2.988 -1.46233e-007 
0.25 -0.009 0.1 -0.0893535 -2.988 -1.14986e-007 
0.231634 0.595999 -0.1 0.544699 -2.93288 -2.23439e-007 
0.231634 0.595999 0.1 0.76447 -2.88342 -2.59702e-007 
0.214574 0.590074 -0.1 1.18297 -2.73928 -3.26575e-007 
0.214574 0.590074 0.1 1.38169 -2.64462 -3.57183e-007 
0.198875 0.580344 -0.1 1.73833 -2.42878 -4.10105e-007 
0.198875 0.580344 0.1 1.89624 -2.3076 -4.32418e-007 
0.184593 0.566926 -0.1 2.16784 -2.05974 -4.69072e-007 
0.184593 0.566926 0.1 2.28152 -1.93306 -4.83411e-007 
0.171782 0.549939 -0.1 2.47228 -1.6875 -5.06031e-007 
0.171782 0.549939 0.1 2.54936 -1.56863 -5.14311e-007 
0.1605 0.5295 -0.1 2.67686 -1.34427 -5.26798e-007 
0.1605 0.5295 0.1 2.72728 -1.23879 -5.31002e-007 
0.150801 0.505728 -0.1 2.80998 -1.04171 -5.36847e-007 
0.150801 0.505728 0.1 2.84226 -0.950112 -5.38487e-007 
0.142741 0.478741 -0.1 2.89469 -0.77936 -5.40191e-007 
0.142741 0.478741 0.1 2.91485 -0.700205 -5.40255e-007 
0.136375 0.448656 -0.1 2.94707 -0.552304 -5.39424e-007 
0.136375 0.448656 0.1 2.95913 -0.483559 -5.38527e-007 
0.131759 0.415593 -0.1 2.97774 -0.354522 -5.36141e-007 
0.131759 0.415593 0.1 2.9843 -0.294232 -5.34653e-007 
0.128949 0.379668 -0.1 2.99361 -0.180495 -5.31309e-007 
0.128949 0.379668 0.1 2.99635 -0.12705 -5.29452e-007 
0.128 0.341 -0.1 2.9991 -0.0245347 -5.25452e-007 
0.128 0.341 0.1 2.9991 0.0245348 -5.23307e-007 
0.128949 0.302332 -0.1 2.99635 0.12705 -5.18345e-007 
0.128949 0.302332 0.1 2.99361 0.180495 -5.1553e-007 
0.131759 0.266407 -0.1 2.9843 0.294232 -5.08931e-007 
0.131759 0.266407 0.1 2.97774 0.354522 -5.05148e-007 
0.136375 0.233344 -0.1 2.95913 0.483559 -4.96253e-007 
0.136375 0.233344 0.1 2.94707 0.552304 -4.9114e-007 
0.142741 0.203259 -0.1 2.91485 0.700205 -4.79042e-007 
0.142741 0.203259 0.1 2.89469 0.779361 -4.72057e-007 
0.150801 0.176272 -0.1 2.84226 0.950112 -4.55425e-007 
0.150801 0.176272 0.1 2.80998 1.04171 -4.45778e-007 
0.1605 0.1525 -0.1 2.72728 1.23879 -4.22703e-007 
0.1605 0.1525 0.1 2.67686 1.34427 -4.09278e-007 
0.171782 0.132061 -0.1 2.54936 1.56863 -3.77177e-007 
0.171782 0.132061 0.1 2.47228 1.6875 -3.58505e-007 
0.184593 0.115074 -0.1 2.28152 1.93306 -3.14417e-007 
0.184593 0.115074 0.1 2.16784 2.05974 -2.89003e-007 
0.198875 0.101656 -0.1 1.89624 2.3076 -2.30681e-007 
0.198875 0.101656 0.1 1.73833 2.42878 -1.97774e-007 
0.214574 0.091926 -0.1 1.38169 2.64462 -1.25983e-007 
0.214574 0.091926 0.1 1.18297 2.73928 -8.70989e-008 
0.231634 0.086001 -0.1 0.764471 2.88342 -7.62618e-009 
0.231634 0.086001 0.1 0.544701 2.93288 3.29619e-008 
0.25 0.084 -0.1 0.108311 2.98235 1.11425e-007 
0.25 0.084 0.1 -0.10831 2.98235 1.49301e-007 
0.268366 0.086001 -0.1 -0.544701 2.93288 2.23439e-007 
0.268366 0.086001 0.1 -0.764472 2.88342 2.59702e-007 
0.285426 0.091926 -0.1 -1.18297 2.73928 3.26575e-007 
0.285426 0.091926 0.1 -1.3817 2.64462 3.57184e-007 
0.301125 0.101656 -0.1 -1.73833 2.42878 4.10105e-007 
0.301125 0.101656 0.1 -1.89624 2.3076 4.32418e-007 
0.315407 0.115074 -0.1 -2.16784 2.05974 4.69071e-007 
0.315407 0.115074 0.1 -2.28152 1.93306 4.83411e-007 
0.328218 0.132061 -0.1 -2.47228 1.6875 5.06031e-007 
0.328218 0.132061 0.1 -2.54936 1.56863 5.14311e-007 
0.3395 0.1525 -0.1 -2.67686 1.34427 5.26798e-007 
0.3395 0.1525 0.1 -2.72728 1.23879 5.31002e-007 
0.349199 0.176272 -0.1 -2.80998 1.04171 5.36847e-007 
0.349199 0.176272 0.1 -2.84226 0.950112 5.38487e-007 
0.357259 0.203259 -0.1 -2.89469 0.77936 5.40191e-007 
0.357259 0.203259 0.1 -2.91485 0.700204 5.40255e-007 
0.363625 0.233344 -0.1 -2.94707 0.552304 5.39424e-007 
0.363625 0.233344 0.1 -2.95913 0.48356 5.38527e-007 
0.368241 0.266407 -0.1 -2.97774 0.354524 5.36141e-007 
0.368241 0.266407 0.1 -2.9843 0.294232 5.34653e-007 
0.371051 0.302332 -0.1 -2.99361 0.180495 5.31309e-007 
0.371051 0.302332 0.1 -2.99635 0.12705 5.29452e-007 
0.372 0.341 -0.1 -2.9991 0.0245348 5.25452e-007 
0.372 0.341 0.1 -2.9991 -0.0245347 5.23307e-007 
0.371051 0.379668 -0.1 -2.99635 -0.12705 5.18345e-007 
0.371051 0.379668 0.1 -2.99361 -0.180495 5.1553e-007 
0.368241 0.415593 -0.1 -2.9843 -0.294233 5.08931e-007 
0.368241 0.415593 0.1 -2.97774 -0.354524 5.05148e-007 
0.363625 0.448656 -0.1 -2.95913 -0.48356 4.96253e-007 
0.363625 0.448656 0.1 -2.94707 -0.552304 4.9114e-007 
0.357259 0.478741 -0.1 -2.91485 -0.700204 4.79042e-007 
0.357259 0.478741 0.1 -2.89469 -0.77936 4.72057e-007 
0.349199 0.505728 -0.1 -2.84226 -0.950112 4.55425e-007 
0.349199 0.505728 0.1 -2.80998 -1.04171 4.45778e-007 
0.3395 0.5295 -0.1 -2.72728 -1.23879 4.22703e-007 
0.3395 0.5295 0.1 -2.67686 -1.34427 4.09278e-007 
0.328218 0.549939 -0.1 -2.54936 -1.56863 3.77177e-007 
0.328218 0.549939 0.1 -2.47228 -1.6875 3.58505e-007 
0.315407 0.566926 -0.1 -2.28152 -1.93306 3.14417e-007 
0.315407 0.566926 0.1 -2.16784 -2.05974 2.89003e-007 
0.301125 0.580344 -0.1 -1.89624 -2.3076 2.30681e-007 
0.301125 0.580344 0.1 -1.73833 -2.42878 1.97774e-007 
0.285426 0.590074 -0.1 -1.38169 -2.64462 1.25983e-007 
0.285426 0.590074 0.1 -1.18297 -2.73928 8.70989e-008 
0.268366 0.595999 -0.1 -0.764471 -2.88342 7.62618e-009 
0.268366 0.595999 0.1 -0.5447 -2.93288 -3.29621e-008 
0.25 0.598 -0.1 -0.10831 -2.98235 -1.11425e-007 
0.25 0.598 0.1 0.10831 -2.98235 -1.493e-007 
3 22 24 23 
3 22 25 24 
3 21 25 22 
3 21 26 25 
3 20 26 21 
3 20 27 26 
3 19 27 20 
3 18 27 19 
3 18 28 27 
3 17 28 18 
3 17 95 28 
3 95 29 28 
3 17 48 95 
3 94 29 95 
3 17 49 48 
3 93 29 94 
3 16 49 17 
3 93 30 29 
3 16 50 49 
3 92 30 93 
3 16 51 50 
3 91 30 92 
3 16 52 51 
3 90 30 91 
3 15 52 16 
3 90 31 30 
3 15 53 52 
3 89 31 90 
3 15 54 53 
3 88 31 89 
3 14 54 15 
3 88 32 31 
3 14 55 54 
3 87 32 88 
3 13 55 14 
3 87 33 32 
3 13 56 55 
3 86 33 87 
3 13 57 56 
3 85 33 86 
3 12 57 13 
3 85 34 33 
3 12 58 57 
3 84 34 85 
3 11 58 12 
3 84 35 34 
3 11 59 58 
3 83 35 84 
3 10 59 11 
3 10 60 59 
3 82 35 83 
3 82 36 35 
3 10 61 60 
3 81 36 82 
3 9 61 10 
3 81 37 36 
3 9 62 61 
3 80 37 81 
3 8 62 9 
3 80 38 37 
3 79 38 80 
3 8 63 62 
3 78 38 79 
3 8 64 63 
3 7 64 8 
3 78 39 38 
3 77 39 78 
3 7 65 64 
3 6 65 7 
3 77 40 39 
3 76 40 77 
3 6 66 65 
3 75 40 76 
3 6 67 66 
3 5 67 6 
3 75 41 40 
3 74 41 75 
3 5 68 67 
3 73 41 74 
3 5 69 68 
3 72 41 73 
3 5 70 69 
3 4 70 5 
3 72 42 41 
3 71 42 72 
3 4 71 70 
3 4 42 71 
3 3 42 4 
3 3 43 42 
3 2 43 3 
3 2 44 43 
3 1 44 2 
3 1 45 44 
3 0 45 1 
3 0 46 45 
3 47 46 0 
3 120 118 119 
3 121 118 120 
3 121 117 118 
3 122 117 121 
3 122 116 117 
3 123 116 122 
3 123 115 116 
3 123 114 115 
3 124 114 123 
3 124 113 114 
3 191 113 124 
3 125 191 124 
3 144 113 191 
3 125 190 191 
3 145 113 144 
3 125 189 190 
3 145 112 113 
3 126 189 125 
3 146 112 145 
3 126 188 189 
3 147 112 146 
3 126 187 188 
3 148 112 147 
3 126 186 187 
3 148 111 112 
3 127 186 126 
3 149 111 148 
3 127 185 186 
3 150 111 149 
3 127 184 185 
3 150 110 111 
3 128 184 127 
3 151 110 150 
3 128 183 184 
3 151 109 110 
3 129 183 128 
3 152 109 151 
3 129 182 183 
3 153 109 152 
3 129 181 182 
3 153 108 109 
3 130 181 129 
3 154 108 153 
3 130 180 181 
3 154 107 108 
3 131 180 130 
3 155 107 154 
3 131 179 180 
3 155 106 107 
3 156 106 155 
3 131 178 179 
3 132 178 131 
3 157 106 156 
3 132 177 178 
3 157 105 106 
3 133 177 132 
3 158 105 157 
3 133 176 177 
3 158 104 105 
3 134 176 133 
3 134 175 176 
3 159 104 158 
3 134 174 175 
3 160 104 159 
3 160 103 104 
3 135 174 134 
3 135 173 174 
3 161 103 160 
3 161 102 103 
3 136 173 135 
3 136 172 173 
3 162 102 161 
3 136 171 172 
3 163 102 162 
3 163 101 102 
3 137 171 136 
3 137 170 171 
3 164 101 163 
3 137 169 170 
3 165 101 164 
3 137 168 169 
3 166 101 165 
3 166 100 101 
3 138 168 137 
3 138 167 168 
3 167 100 166 
3 138 100 167 
3 138 99 100 
3 139 99 138 
3 139 98 99 
3 140 98 139 
3 140 97 98 
3 141 97 140 
3 141 96 97 
3 142 96 141 
3 142 143 96 
3 193 195 194 
3 193 194 192 
3 195 197 196 
3 195 196 194 
3 197 199 198 
3 197 198 196 
3 199 201 200 
3 199 200 198 
3 201 203 202 
3 201 202 200 
3 203 205 204 
3 203 204 202 
3 205 207 206 
3 205 206 204 
3 207 209 208 
3 207 208 206 
3 209 211 210 
3 209 210 208 
3 211 213 212 
3 211 212 210 
3 213 215 214 
3 213 214 212 
3 215 217 216 
3 215 216 214 
3 217 219 218 
3 217 218 216 
3 219 221 220 
3 219 220 218 
3 221 223 222 
3 221 222 220 
3 223 225 224 
3 223 224 222 
3 225 227 226 
3 225 226 224 
3 227 229 228 
3 227 228 226 
3 229 231 230 
3 229 230 228 
3 231 233 232 
3 231 232 230 
3 233 235 234 
3 233 234 232 
3 235 237 236 
3 235 236 234 
3 237 239 238 
3 237 238 236 
3 239 241 240 
3 239 240 238 
3 241 243 242 
3 241 242 240 
3 243 245 244 
3 243 244 242 
3 245 247 246 
3 245 246 244 
3 247 249 248 
3 247 248 246 
3 249 251 250 
3 249 250 248 
3 251 253 252 
3 251 252 250 
3 253 255 254 
3 253 254 252 
3 255 257 256 
3 255 256 254 
3 257 259 258 
3 257 258 256 
3 259 261 260 
3 259 260 258 
3 261 263 262 
3 261 262 260 
3 263 265 264 
3 263 264 262 
3 265 267 266 
3 265 266 264 
3 267 269 268 
3 267 268 266 
3 269 271 270 
3 269 270 268 
3 271 273 272 
3 271 272 270 
3 273 275 274 
3 273 274 272 
3 275 277 276 
3 275 276 274 
3 277 279 278 
3 277 278 276 
3 279 281 280 
3 279 280 278 
3 281 283 282 
3 281 282 280 
3 283 285 284 
3 283 284 282 
3 285 287 286 
3 285 286 284 
3 287 193 192 
3 287 192 286 
3 289 291 290 
3 289 290 288 
3 291 293 292 
3 291 292 290 
3 293 295 294 
3 293 294 292 
3 295 297 296 
3 295 296 294 
3 297 299 298 
3 297 298 296 
3 299 301 300 
3 299 300 298 
3 301 303 302 
3 301 302 300 
3 303 305 304 
3 303 304 302 
3 305 307 306 
3 305 306 304 
3 307 309 308 
3 307 308 306 
3 309 311 310 
3 309 310 308 
3 311 313 312 
3 311 312 310 
3 313 315 314 
3 313 314 312 
3 315 317 316 
3 315 316 314 
3 317 319 318 
3 317 318 316 
3 319 321 320 
3 319 320 318 
3 321 323 322 
3 321 322 320 
3 323 325 324 
3 323 324 322 
3 325 327 326 
3 325 326 324 
3 327 329 328 
3 327 328 326 
3 329 331 330 
3 329 330 328 
3 331 333 332 
3 331 332 330 
3 333 335 334 
3 333 334 332 
3 335 337 336 
3 335 336 334 
3 337 339 338 
3 337 338 336 
3 339 341 340 
3 339 340 338 
3 341 343 342 
3 341 342 340 
3 343 345 344 
3 343 344 342 
3 345 347 346 
3 345 346 344 
3 347 349 348 
3 347 348 346 
3 349 351 350 
3 349 350 348 
3 351 353 352 
3 351 352 350 
3 353 355 354 
3 353 354 352 
3 355 357 356 
3 355 356 354 
3 357 359 358 
3 357 358 356 
3 359 361 360 
3 359 360 358 
3 361 363 362 
3 361 362 360 
3 363 365 364 
3 363 364 362 
3 365 367 366 
3 365 366 364 
3 367 369 368 
3 367 368 366 
3 369 371 370 
3 369 370 368 
3 371 373 372 
3 371 372 370 
3 373 375 374 
3 373 374 372 
3 375 377 376 
3 375 376 374 
3 377 379 378 
3 377 378 376 
3 379 381 380 
3 379 380 378 
3 381 383 382 
3 381 382 380 
3 383 289 288 
3 383 288 382 
