ply
format ascii 1.0
comment VCGLIB generated
element vertex 240
property float x
property float y
property float z
property float nx
property float ny
property float nz
element face 236
property list uchar int vertex_indices
end_header
0.292367 0.596418 0.1 3.01132e-012 -7.52828e-013 1.72227e-005 
0.28894 0.597676 0.1 7.48882e-012 -1.87221e-012 4.28311e-005 
0.285672 0.598781 0.1 3.38432e-010 -8.46079e-011 0.0019356 
0.282519 0.599741 0.1 4.84717e-012 -1.21179e-012 2.77226e-005 
0.279435 0.600561 0.1 3.17978e-010 -7.94945e-011 0.00181862 
0.276375 0.60125 0.1 6.1796e-012 -1.5449e-012 3.53432e-005 
0.273295 0.601814 0.1 3.1461e-010 -7.86526e-011 0.00179936 
0.270148 0.602259 0.1 3.15298e-010 -7.88243e-011 0.00180329 
0.266891 0.602594 0.1 3.42556e-012 -8.56391e-013 1.95919e-005 
0.263477 0.602824 0.1 1.01233e-011 -2.53082e-012 5.78984e-005 
0.259862 0.602957 0.1 3.19014e-010 -7.97536e-011 0.00182455 
0.256 0.603 0.1 3.3349e-010 -8.33724e-011 0.00190734 
0.239006 0.602134 0.1 5.918e-011 -1.4795e-011 0.00033847 
0.223963 0.599569 0.1 1.4326e-010 -3.5815e-011 0.000819352 
0.210781 0.595359 0.1 4.551e-010 -1.13775e-010 0.00260287 
0.19937 0.589556 0.1 2.39656e-010 -5.99138e-011 0.00137067 
0.18964 0.58221 0.1 5.30422e-010 -1.32606e-010 0.00303366 
0.1815 0.573375 0.1 3.24438e-010 -8.11096e-011 0.00185557 
0.17486 0.563102 0.1 6.0836e-010 -1.5209e-010 0.00347941 
0.16963 0.551444 0.1 6.53616e-010 -1.63404e-010 0.00373825 
0.165719 0.538453 0.1 7.05119e-010 -1.7628e-010 0.00403281 
0.163037 0.524181 0.1 4.6361e-010 -1.15902e-010 0.00265154 
0.161494 0.508679 0.1 7.99895e-010 -1.99974e-010 0.00457487 
0.161 0.492 0.1 1.25541e-009 -3.13852e-010 0.0071801 
0.161 0.449 0.1 3.56056e-009 -8.90139e-010 0.020364 
0.242 0.449 0.1 4.39212e-009 -1.09803e-009 0.02512 
0.242 0.369 0.1 3.25912e-009 -8.1478e-010 0.01864 
0.161 0.369 0.1 1.14842e-008 -2.87105e-009 0.065682 
0.161 -4.37114e-009 0.1 5.7421e-009 -1.43553e-009 0.032841 
0.072 -4.37114e-009 0.1 1.14842e-008 -2.87105e-009 0.065682 
0.072 0.369 0.1 5.7421e-009 -1.43553e-009 0.032841 
0.00900002 0.369 0.1 6.51824e-009 -1.62956e-009 0.03728 
0.00900002 0.449 0.1 8.81222e-010 -2.20305e-010 0.00504 
0.072 0.449 0.1 2.63964e-009 -6.59911e-010 0.015097 
0.072 0.482 0.1 1.50969e-009 -3.77424e-010 0.00863445 
0.072434 0.503065 0.1 8.85342e-010 -2.21336e-010 0.00506357 
0.073722 0.522352 0.1 1.04058e-009 -2.60144e-010 0.00595141 
0.075844 0.54 0.1 7.42027e-010 -1.85507e-010 0.0042439 
0.078778 0.556148 0.1 6.923e-010 -1.73075e-010 0.0039595 
0.082503 0.570935 0.1 8.13564e-010 -2.03391e-010 0.00465304 
0.087 0.5845 0.1 7.45075e-010 -1.86269e-010 0.00426133 
0.092247 0.596982 0.1 7.34388e-010 -1.83597e-010 0.00420021 
0.098222 0.608519 0.1 6.36356e-010 -1.59089e-010 0.00363953 
0.104906 0.61925 0.1 6.32596e-010 -1.58149e-010 0.00361803 
0.112278 0.629315 0.1 6.22447e-010 -1.55612e-010 0.00355998 
0.120316 0.638852 0.1 6.25974e-010 -1.56493e-010 0.00358015 
0.129 0.648 0.1 6.50164e-010 -1.62541e-010 0.0037185 
0.138779 0.657072 0.1 6.77702e-010 -1.69426e-010 0.003876 
0.149148 0.665241 0.1 6.57082e-010 -1.64271e-010 0.00375807 
0.160156 0.672438 0.1 6.24538e-010 -1.56134e-010 0.00357194 
0.171852 0.678593 0.1 2.29512e-009 -5.7378e-010 0.0131266 
0.184284 0.683637 0.1 2.43669e-010 -6.09173e-011 0.00139362 
0.1975 0.6875 0.1 1.18553e-010 -2.96382e-011 0.000678042 
0.21155 0.690113 0.1 3.83678e-011 -9.59196e-012 0.000219438 
0.226481 0.691407 0.1 3.83445e-012 -9.58611e-013 2.19305e-005 
0.242344 0.691313 0.1 1.57351e-011 -3.93377e-012 8.99942e-005 
0.259185 0.689759 0.1 7.48212e-011 -1.87053e-011 0.000427927 
0.277054 0.686678 0.1 1.81873e-010 -4.54682e-011 0.00104019 
0.296 0.682 0.1 2.07652e-009 -5.1913e-010 0.0118763 
0.296 0.595 0.1 2.85056e-009 -7.12642e-010 0.0163033 
0.292367 0.596418 -0.1 -3.01131e-012 7.52827e-013 -1.72227e-005 
0.28894 0.597676 -0.1 -7.48882e-012 1.87221e-012 -4.28311e-005 
0.285672 0.598781 -0.1 -3.38432e-010 8.46079e-011 -0.0019356 
0.282519 0.599741 -0.1 -4.84717e-012 1.21179e-012 -2.77226e-005 
0.279435 0.600561 -0.1 -3.17978e-010 7.94945e-011 -0.00181862 
0.276375 0.60125 -0.1 -6.1796e-012 1.5449e-012 -3.53432e-005 
0.273295 0.601814 -0.1 -3.1461e-010 7.86526e-011 -0.00179936 
0.270148 0.602259 -0.1 -3.15298e-010 7.88243e-011 -0.00180329 
0.266891 0.602594 -0.1 -3.42556e-012 8.56391e-013 -1.95919e-005 
0.263477 0.602824 -0.1 -1.01233e-011 2.53082e-012 -5.78984e-005 
0.259862 0.602957 -0.1 -3.19014e-010 7.97536e-011 -0.00182455 
0.256 0.603 -0.1 -3.3349e-010 8.33724e-011 -0.00190734 
0.239006 0.602134 -0.1 -5.918e-011 1.4795e-011 -0.00033847 
0.223963 0.599569 -0.1 -1.4326e-010 3.5815e-011 -0.000819352 
0.210781 0.595359 -0.1 -4.551e-010 1.13775e-010 -0.00260287 
0.19937 0.589556 -0.1 -2.39656e-010 5.99138e-011 -0.00137067 
0.18964 0.58221 -0.1 -5.30422e-010 1.32606e-010 -0.00303366 
0.1815 0.573375 -0.1 -3.24438e-010 8.11096e-011 -0.00185557 
0.17486 0.563102 -0.1 -6.0836e-010 1.5209e-010 -0.00347941 
0.16963 0.551444 -0.1 -6.53616e-010 1.63404e-010 -0.00373825 
0.165719 0.538453 -0.1 -7.05119e-010 1.7628e-010 -0.00403281 
0.163037 0.524181 -0.1 -4.6361e-010 1.15902e-010 -0.00265154 
0.161494 0.508679 -0.1 -7.99895e-010 1.99974e-010 -0.00457487 
0.161 0.492 -0.1 -1.25541e-009 3.13852e-010 -0.0071801 
0.161 0.449 -0.1 -3.56056e-009 8.90139e-010 -0.020364 
0.242 0.449 -0.1 -4.39212e-009 1.09803e-009 -0.02512 
0.242 0.369 -0.1 -3.25912e-009 8.1478e-010 -0.01864 
0.161 0.369 -0.1 -1.14842e-008 2.87105e-009 -0.065682 
0.161 4.37114e-009 -0.1 -5.7421e-009 1.43553e-009 -0.032841 
0.072 4.37114e-009 -0.1 -1.14842e-008 2.87105e-009 -0.065682 
0.072 0.369 -0.1 -5.7421e-009 1.43553e-009 -0.032841 
0.00899998 0.369 -0.1 -6.51824e-009 1.62956e-009 -0.03728 
0.00899998 0.449 -0.1 -8.81222e-010 2.20305e-010 -0.00504 
0.072 0.449 -0.1 -2.63964e-009 6.59911e-010 -0.015097 
0.072 0.482 -0.1 -1.50969e-009 3.77424e-010 -0.00863445 
0.072434 0.503065 -0.1 -8.85342e-010 2.21336e-010 -0.00506357 
0.073722 0.522352 -0.1 -1.04058e-009 2.60144e-010 -0.00595141 
0.075844 0.54 -0.1 -7.42027e-010 1.85507e-010 -0.0042439 
0.078778 0.556148 -0.1 -6.923e-010 1.73075e-010 -0.0039595 
0.082503 0.570935 -0.1 -8.13564e-010 2.03391e-010 -0.00465304 
0.087 0.5845 -0.1 -7.45075e-010 1.86269e-010 -0.00426133 
0.092247 0.596982 -0.1 -7.34388e-010 1.83597e-010 -0.00420021 
0.098222 0.608519 -0.1 -6.36356e-010 1.59089e-010 -0.00363953 
0.104906 0.61925 -0.1 -6.32596e-010 1.58149e-010 -0.00361803 
0.112278 0.629315 -0.1 -6.22447e-010 1.55612e-010 -0.00355998 
0.120316 0.638852 -0.1 -6.25974e-010 1.56493e-010 -0.00358015 
0.129 0.648 -0.1 -6.50164e-010 1.62541e-010 -0.00371851 
0.138779 0.657072 -0.1 -6.77702e-010 1.69426e-010 -0.003876 
0.149148 0.665241 -0.1 -6.57082e-010 1.64271e-010 -0.00375807 
0.160156 0.672438 -0.1 -6.24538e-010 1.56134e-010 -0.00357194 
0.171852 0.678593 -0.1 -2.29512e-009 5.7378e-010 -0.0131266 
0.184284 0.683637 -0.1 -2.43669e-010 6.09173e-011 -0.00139362 
0.1975 0.6875 -0.1 -1.18553e-010 2.96382e-011 -0.000678042 
0.21155 0.690113 -0.1 -3.83678e-011 9.59196e-012 -0.000219438 
0.226481 0.691407 -0.1 -3.83445e-012 9.58611e-013 -2.19305e-005 
0.242344 0.691313 -0.1 -1.57351e-011 3.93377e-012 -8.99942e-005 
0.259185 0.689759 -0.1 -7.48212e-011 1.87053e-011 -0.000427927 
0.277054 0.686678 -0.1 -1.81873e-010 4.54682e-011 -0.00104019 
0.296 0.682 -0.1 -2.07652e-009 5.1913e-010 -0.0118763 
0.296 0.595 -0.1 -2.85056e-009 7.12642e-010 -0.0163033 
0.292367 0.596418 -0.1 -1.07178 -2.80187 6.49227e-008 
0.292367 0.596418 0.1 -1.05278 -2.80906 6.12856e-008 
0.28894 0.597676 -0.1 -1.00949 -2.82482 5.30285e-008 
0.28894 0.597676 0.1 -0.985219 -2.83338 4.84104e-008 
0.285672 0.598781 -0.1 -0.931897 -2.85126 3.83054e-008 
0.285672 0.598781 0.1 -0.902851 -2.86059 3.28189e-008 
0.282519 0.599741 -0.1 -0.839509 -2.8797 2.09087e-008 
0.282519 0.599741 0.1 -0.805213 -2.88948 1.44848e-008 
0.279435 0.600561 -0.1 -0.733598 -2.90842 1.13548e-009 
0.279435 0.600561 0.1 -0.69628 -2.91757 -5.78977e-009 
0.276375 0.60125 -0.1 -0.619423 -2.9348 -1.99809e-008 
0.276375 0.60125 0.1 -0.579884 -2.94287 -2.72468e-008 
0.273295 0.601814 -0.1 -0.500245 -2.95744 -4.18082e-008 
0.273295 0.601814 0.1 -0.460145 -2.96394 -4.91038e-008 
0.270148 0.602259 -0.1 -0.382357 -2.97505 -6.31901e-008 
0.270148 0.602259 0.1 -0.344669 -2.97965 -6.99811e-008 
0.266891 0.602594 -0.1 -0.271858 -2.98724 -8.30434e-008 
0.266891 0.602594 0.1 -0.236735 -2.99023 -8.9315e-008 
0.263477 0.602824 -0.1 -0.171185 -2.9948 -1.00977e-007 
0.263477 0.602824 0.1 -0.140757 -2.99639 -1.06366e-007 
0.259862 0.602957 -0.1 -0.0846804 -2.99858 -1.16266e-007 
0.259862 0.602957 0.1 -0.0590307 -2.9992 -1.20778e-007 
0.256 0.603 -0.1 0.0286389 -2.99858 -1.3608e-007 
0.256 0.603 0.1 0.0906587 -2.99735 -1.4687e-007 
0.239006 0.602134 -0.1 0.269869 -2.98318 -1.77585e-007 
0.239006 0.602134 0.1 0.387059 -2.97025 -1.9751e-007 
0.223963 0.599569 -0.1 0.640401 -2.92414 -2.3979e-007 
0.223963 0.599569 0.1 0.776553 -2.89097 -2.62145e-007 
0.210781 0.595359 -0.1 1.06177 -2.79655 -3.07887e-007 
0.210781 0.595359 0.1 1.21083 -2.73531 -3.31273e-007 
0.19937 0.589556 -0.1 1.50914 -2.5808 -3.76677e-007 
0.19937 0.589556 0.1 1.65838 -2.48753 -3.98694e-007 
0.18964 0.58221 -0.1 1.94053 -2.27376 -4.38682e-007 
0.18964 0.58221 0.1 2.07343 -2.15326 -4.56652e-007 
0.1815 0.573375 -0.1 2.31072 -1.89801 -4.86985e-007 
0.1815 0.573375 0.1 2.41512 -1.76326 -4.99347e-007 
0.17486 0.563102 -0.1 2.59207 -1.49499 -5.1856e-007 
0.17486 0.563102 0.1 2.66462 -1.36147 -5.25408e-007 
0.16963 0.551444 -0.1 2.78233 -1.10691 -5.34863e-007 
0.16963 0.551444 0.1 2.82749 -0.985864 -5.37467e-007 
0.165719 0.538453 -0.1 2.89789 -0.761236 -5.39959e-007 
0.165719 0.538453 0.1 2.92314 -0.65765 -5.39845e-007 
0.163037 0.524181 -0.1 2.96068 -0.468422 -5.38137e-007 
0.163037 0.524181 0.1 2.97296 -0.38278 -5.3654e-007 
0.161494 0.508679 -0.1 2.98973 -0.227697 -5.32693e-007 
0.161494 0.508679 0.1 2.99421 -0.158257 -5.30441e-007 
0.161 0.492 -0.1 2.99912 -0.0592107 -5.26971e-007 
0.161 0.492 0.1 2.99956 -0.0296054 -5.25754e-007 
0.161 0.449 -0.1 2 1 -3.0598e-007 
0.161 0.449 0.1 1 2 -8.74228e-008 
0.242 0.449 -0.1 1 2 -8.74228e-008 
0.242 0.449 0.1 2 1 -3.0598e-007 
0.242 0.369 -0.1 2 -1 -3.93403e-007 
0.242 0.369 0.1 1 -2 -2.62269e-007 
0.161 0.369 -0.1 1 -2 -2.62269e-007 
0.161 0.369 0.1 2 -1 -3.93403e-007 
0.161 4.37114e-009 -0.1 2 -1 -3.93403e-007 
0.161 -4.37114e-009 0.1 1 -2 -2.62269e-007 
0.072 4.37114e-009 -0.1 -1 -2 8.74228e-008 
0.072 -4.37114e-009 0.1 -2 -1 3.0598e-007 
0.072 0.369 -0.1 -2 -1 3.0598e-007 
0.072 0.369 0.1 -1 -2 8.74228e-008 
0.00899998 0.369 -0.1 -1 -2 8.74228e-008 
0.00900002 0.369 0.1 -2 -1 3.0598e-007 
0.00899998 0.449 -0.1 -2 1 3.93403e-007 
0.00900002 0.449 0.1 -1 2 2.62269e-007 
0.072 0.449 -0.1 -1 2 2.62269e-007 
0.072 0.449 0.1 -2 1 3.93403e-007 
0.072 0.482 -0.1 -2.99979 0.0205987 5.254e-007 
0.072 0.482 0.1 -2.99958 0.0411974 5.26264e-007 
0.072434 0.503065 -0.1 -2.99735 0.10783 5.28787e-007 
0.072434 0.503065 0.1 -2.99534 0.153863 5.30448e-007 
0.073722 0.522352 -0.1 -2.9884 0.252644 5.33552e-007 
0.073722 0.522352 0.1 -2.98347 0.305392 5.34996e-007 
0.075844 0.54 -0.1 -2.96959 0.417528 5.3747e-007 
0.075844 0.54 0.1 -2.96063 0.476916 5.385e-007 
0.078778 0.556148 -0.1 -2.93749 0.601814 5.39913e-007 
0.078778 0.556148 0.1 -2.9233 0.667325 5.40296e-007 
0.082503 0.570935 -0.1 -2.88861 0.803231 5.40171e-007 
0.082503 0.570935 0.1 -2.8681 0.873626 5.39662e-007 
0.087 0.5845 -0.1 -2.82026 1.01687 5.37559e-007 
0.087 0.5845 0.1 -2.79292 1.08971 5.35963e-007 
0.092247 0.596982 -0.1 -2.7317 1.23492 5.31606e-007 
0.092247 0.596982 0.1 -2.69782 1.30729 5.28845e-007 
0.098222 0.608519 -0.1 -2.62477 1.44846 5.22244e-007 
0.098222 0.608519 0.1 -2.5856 1.51728 5.18403e-007 
0.104906 0.61925 -0.1 -2.50437 1.64829 5.09927e-007 
0.104906 0.61925 0.1 -2.46231 1.71048 5.05292e-007 
0.112278 0.629315 -0.1 -2.37814 1.82624 4.95635e-007 
0.112278 0.629315 0.1 -2.33603 1.87981 4.90613e-007 
0.120316 0.638852 -0.1 -2.25454 1.97739 4.80631e-007 
0.120316 0.638852 0.1 -2.21516 2.02141 4.75669e-007 
0.129 0.648 -0.1 -2.13063 2.11006 4.64765e-007 
0.129 0.648 0.1 -2.08548 2.1547 4.58821e-007 
0.138779 0.657072 -0.1 -1.97907 2.25173 4.44458e-007 
0.138779 0.657072 0.1 -1.9178 2.30413 4.36036e-007 
0.149148 0.665241 -0.1 -1.78492 2.40801 4.17343e-007 
0.149148 0.665241 0.1 -1.71329 2.45949 4.07069e-007 
0.160156 0.672438 -0.1 -1.56014 2.55892 3.84638e-007 
0.160156 0.672438 0.1 -1.47862 2.60688 3.7248e-007 
0.171852 0.678593 -0.1 -1.30736 2.69652 3.46455e-007 
0.171852 0.678593 0.1 -1.21762 2.73821 3.32587e-007 
0.184284 0.683637 -0.1 -1.03248 2.81311 3.03489e-007 
0.184284 0.683637 0.1 -0.937076 2.84631 2.8826e-007 
0.1975 0.6875 -0.1 -0.743956 2.90282 2.56964e-007 
0.1975 0.6875 0.1 -0.646244 2.92612 2.40897e-007 
0.21155 0.690113 -0.1 -0.452031 2.96255 2.08533e-007 
0.21155 0.690113 0.1 -0.35553 2.97567 1.92233e-007 
0.226481 0.691407 -0.1 -0.16676 2.99251 1.59965e-007 
0.226481 0.691407 0.1 -0.0744919 2.99623 1.43994e-007 
0.242344 0.691313 -0.1 0.103736 2.99573 1.1281e-007 
0.242344 0.691313 0.1 0.189696 2.99152 9.75962e-008 
0.259185 0.689759 -0.1 0.353686 2.977 6.82883e-008 
0.259185 0.689759 0.1 0.431716 2.96669 5.41944e-008 
0.277054 0.686678 -0.1 0.579544 2.94176 2.72578e-008 
0.277054 0.686678 0.1 0.649343 2.92715 1.44148e-008 
0.296 0.682 -0.1 1.47943 1.94169 -1.73798e-007 
0.296 0.682 0.1 2.23971 0.970844 -3.49167e-007 
0.296 0.595 -0.1 1.6364 -0.931557 -3.26838e-007 
0.296 0.595 0.1 0.272808 -1.86311 -1.29139e-007 
3 53 55 54 
3 53 56 55 
3 52 56 53 
3 52 57 56 
3 51 57 52 
3 51 58 57 
3 50 58 51 
3 50 59 58 
3 49 59 50 
3 48 59 49 
3 47 59 48 
3 46 2 47 
3 2 1 47 
3 1 0 47 
3 0 59 47 
3 45 4 46 
3 4 3 46 
3 3 2 46 
3 44 6 45 
3 6 5 45 
3 5 4 45 
3 43 7 44 
3 7 6 44 
3 42 10 43 
3 10 9 43 
3 9 8 43 
3 8 7 43 
3 41 11 42 
3 11 10 42 
3 41 12 11 
3 41 13 12 
3 41 14 13 
3 40 14 41 
3 40 15 14 
3 40 16 15 
3 39 16 40 
3 39 17 16 
3 39 18 17 
3 38 18 39 
3 38 19 18 
3 37 19 38 
3 37 20 19 
3 36 20 37 
3 36 21 20 
3 36 22 21 
3 35 22 36 
3 35 23 22 
3 34 23 35 
3 34 24 23 
3 33 24 34 
3 31 33 32 
3 31 24 33 
3 31 25 24 
3 31 26 25 
3 30 26 31 
3 29 27 30 
3 27 26 30 
3 29 28 27 
3 115 113 114 
3 116 113 115 
3 116 112 113 
3 117 112 116 
3 117 111 112 
3 118 111 117 
3 118 110 111 
3 119 110 118 
3 119 109 110 
3 119 108 109 
3 119 107 108 
3 62 106 107 
3 61 62 107 
3 60 61 107 
3 119 60 107 
3 64 105 106 
3 63 64 106 
3 62 63 106 
3 66 104 105 
3 65 66 105 
3 64 65 105 
3 67 103 104 
3 66 67 104 
3 70 102 103 
3 69 70 103 
3 68 69 103 
3 67 68 103 
3 71 101 102 
3 70 71 102 
3 72 101 71 
3 73 101 72 
3 74 101 73 
3 74 100 101 
3 75 100 74 
3 76 100 75 
3 76 99 100 
3 77 99 76 
3 78 99 77 
3 78 98 99 
3 79 98 78 
3 79 97 98 
3 80 97 79 
3 80 96 97 
3 81 96 80 
3 82 96 81 
3 82 95 96 
3 83 95 82 
3 83 94 95 
3 84 94 83 
3 84 93 94 
3 93 91 92 
3 84 91 93 
3 85 91 84 
3 86 91 85 
3 86 90 91 
3 87 89 90 
3 86 87 90 
3 88 89 87 
3 121 123 122 
3 121 122 120 
3 123 125 124 
3 123 124 122 
3 125 127 126 
3 125 126 124 
3 127 129 128 
3 127 128 126 
3 129 131 130 
3 129 130 128 
3 131 133 132 
3 131 132 130 
3 133 135 134 
3 133 134 132 
3 135 137 136 
3 135 136 134 
3 137 139 138 
3 137 138 136 
3 139 141 140 
3 139 140 138 
3 141 143 142 
3 141 142 140 
3 143 145 144 
3 143 144 142 
3 145 147 146 
3 145 146 144 
3 147 149 148 
3 147 148 146 
3 149 151 150 
3 149 150 148 
3 151 153 152 
3 151 152 150 
3 153 155 154 
3 153 154 152 
3 155 157 156 
3 155 156 154 
3 157 159 158 
3 157 158 156 
3 159 161 160 
3 159 160 158 
3 161 163 162 
3 161 162 160 
3 163 165 164 
3 163 164 162 
3 165 167 166 
3 165 166 164 
3 167 169 168 
3 167 168 166 
3 169 171 170 
3 169 170 168 
3 171 173 172 
3 171 172 170 
3 173 175 174 
3 173 174 172 
3 175 177 176 
3 175 176 174 
3 177 179 178 
3 177 178 176 
3 179 181 180 
3 179 180 178 
3 181 183 182 
3 181 182 180 
3 183 185 184 
3 183 184 182 
3 185 187 186 
3 185 186 184 
3 187 189 188 
3 187 188 186 
3 189 191 190 
3 189 190 188 
3 191 193 192 
3 191 192 190 
3 193 195 194 
3 193 194 192 
3 195 197 196 
3 195 196 194 
3 197 199 198 
3 197 198 196 
3 199 201 200 
3 199 200 198 
3 201 203 202 
3 201 202 200 
3 203 205 204 
3 203 204 202 
3 205 207 206 
3 205 206 204 
3 207 209 208 
3 207 208 206 
3 209 211 210 
3 209 210 208 
3 211 213 212 
3 211 212 210 
3 213 215 214 
3 213 214 212 
3 215 217 216 
3 215 216 214 
3 217 219 218 
3 217 218 216 
3 219 221 220 
3 219 220 218 
3 221 223 222 
3 221 222 220 
3 223 225 224 
3 223 224 222 
3 225 227 226 
3 225 226 224 
3 227 229 228 
3 227 228 226 
3 229 231 230 
3 229 230 228 
3 231 233 232 
3 231 232 230 
3 233 235 234 
3 233 234 232 
3 235 237 236 
3 235 236 234 
3 237 239 238 
3 237 238 236 
3 239 121 120 
3 239 120 238 
