ply
format ascii 1.0
comment VCGLIB generated
element vertex 128
property float x
property float y
property float z
property float nx
property float ny
property float nz
element face 128
property list uchar int vertex_indices
end_header
0.227 0.422 0.1 5.66394e-009 -1.41599e-009 0.032394 
0.421 0.422 0.1 8.11878e-009 -2.02969e-009 0.046434 
0.462 0.617 0.1 2.45484e-009 -6.13708e-010 0.01404 
0.534 0.617 0.1 4.90966e-009 -1.22742e-009 0.02808 
0.493 0.422 0.1 4.42132e-009 -1.10533e-009 0.025287 
0.584 0.422 0.0999999 8.13136e-009 -2.03284e-009 0.046506 
0.584 0.353 0.0999999 7.03352e-009 -1.75838e-009 0.040227 
0.479 0.353 0.1 4.28022e-009 -1.07005e-009 0.02448 
0.443 0.183 0.1 4.70982e-009 -1.17745e-009 0.026937 
0.584 0.183 0.0999999 8.73458e-009 -2.18365e-009 0.049956 
0.584 0.114 0.0999999 7.03352e-009 -1.75838e-009 0.040227 
0.429 0.114 0.1 4.90966e-009 -1.22742e-009 0.02808 
0.388 -0.081 0.1 2.45484e-009 -6.13708e-010 0.01404 
0.316 -0.081 0.1 4.90966e-009 -1.22742e-009 0.02808 
0.357 0.114 0.1 2.45484e-009 -6.13708e-010 0.01404 
0.163 0.114 0.1 4.90966e-009 -1.22742e-009 0.02808 
0.122 -0.081 0.1 2.45484e-009 -6.13708e-010 0.01404 
0.05 -0.081 0.1 4.90966e-009 -1.22742e-009 0.02808 
0.091 0.114 0.1 2.45484e-009 -6.13708e-010 0.01404 
0.00100002 0.114 0.1 1.4067e-008 -3.51676e-009 0.080454 
0.00100002 0.183 0.1 1.25469e-009 -3.13673e-010 0.007176 
0.105 0.183 0.1 6.40354e-009 -1.60089e-009 0.036624 
0.141 0.353 0.1 2.1401e-009 -5.35027e-010 0.01224 
0.00100002 0.353 0.1 1.4067e-008 -3.51676e-009 0.080454 
0.00100002 0.422 0.1 1.85791e-009 -4.64477e-010 0.010626 
0.155 0.422 0.1 7.6362e-009 -1.90905e-009 0.043674 
0.196 0.617 0.1 2.45484e-009 -6.13708e-010 0.01404 
0.268 0.617 0.1 4.90966e-009 -1.22742e-009 0.02808 
0.371 0.183 0.1 7.48934e-009 -1.87233e-009 0.042834 
0.407 0.353 0.1 2.1401e-009 -5.35027e-010 0.01224 
0.213 0.353 0.1 4.28022e-009 -1.07005e-009 0.02448 
0.177 0.183 0.1 5.34922e-009 -1.33731e-009 0.030594 
0.227 0.422 -0.1 -5.66394e-009 1.41599e-009 -0.032394 
0.421 0.422 -0.1 -8.11878e-009 2.02969e-009 -0.046434 
0.462 0.617 -0.1 -2.45484e-009 6.13708e-010 -0.01404 
0.534 0.617 -0.1 -4.90966e-009 1.22742e-009 -0.02808 
0.493 0.422 -0.1 -4.42132e-009 1.10533e-009 -0.025287 
0.584 0.422 -0.1 -8.13136e-009 2.03284e-009 -0.046506 
0.584 0.353 -0.1 -7.03352e-009 1.75838e-009 -0.040227 
0.479 0.353 -0.1 -4.28022e-009 1.07005e-009 -0.02448 
0.443 0.183 -0.1 -4.70982e-009 1.17745e-009 -0.026937 
0.584 0.183 -0.1 -8.73458e-009 2.18365e-009 -0.049956 
0.584 0.114 -0.1 -7.03352e-009 1.75838e-009 -0.040227 
0.429 0.114 -0.1 -4.90966e-009 1.22742e-009 -0.02808 
0.388 -0.081 -0.1 -2.45484e-009 6.13708e-010 -0.01404 
0.316 -0.081 -0.1 -4.90966e-009 1.22742e-009 -0.02808 
0.357 0.114 -0.1 -2.45484e-009 6.13708e-010 -0.01404 
0.163 0.114 -0.1 -4.90966e-009 1.22742e-009 -0.02808 
0.122 -0.081 -0.1 -2.45484e-009 6.13708e-010 -0.01404 
0.05 -0.081 -0.1 -4.90966e-009 1.22742e-009 -0.02808 
0.091 0.114 -0.1 -2.45484e-009 6.13708e-010 -0.01404 
0.000999982 0.114 -0.1 -1.4067e-008 3.51676e-009 -0.080454 
0.000999982 0.183 -0.1 -1.25469e-009 3.13673e-010 -0.007176 
0.105 0.183 -0.1 -6.40354e-009 1.60089e-009 -0.036624 
0.141 0.353 -0.1 -2.1401e-009 5.35027e-010 -0.01224 
0.000999982 0.353 -0.1 -1.4067e-008 3.51676e-009 -0.080454 
0.000999982 0.422 -0.1 -1.85791e-009 4.64477e-010 -0.010626 
0.155 0.422 -0.1 -7.6362e-009 1.90905e-009 -0.043674 
0.196 0.617 -0.1 -2.45484e-009 6.13708e-010 -0.01404 
0.268 0.617 -0.1 -4.90966e-009 1.22742e-009 -0.02808 
0.371 0.183 -0.1 -7.48934e-009 1.87233e-009 -0.042834 
0.407 0.353 -0.1 -2.1401e-009 5.35027e-010 -0.01224 
0.213 0.353 -0.1 -4.28022e-009 1.07005e-009 -0.02448 
0.177 0.183 -0.1 -5.34922e-009 1.33731e-009 -0.030594 
0.227 0.422 -0.1 1.95721 0.588485 -3.16486e-007 
0.227 0.422 0.1 0.978603 1.79424 -9.26755e-008 
0.421 0.422 -0.1 -0.978603 2.20576 2.67521e-007 
0.421 0.422 0.1 -1.95721 1.41152 4.03909e-007 
0.462 0.617 -0.1 -1.95721 1.41152 4.03909e-007 
0.462 0.617 0.1 -0.978603 2.20576 2.67521e-007 
0.534 0.617 -0.1 0.978603 1.79424 -9.26755e-008 
0.534 0.617 0.1 1.95721 0.588485 -3.16486e-007 
0.493 0.422 -0.1 1.95721 0.588485 -3.16486e-007 
0.493 0.422 0.1 0.978603 1.79424 -9.26755e-008 
0.584 0.422 -0.1 1 2 -8.74228e-008 
0.584 0.422 0.0999999 2 1 -3.0598e-007 
0.584 0.353 -0.1 2 -1 -3.93403e-007 
0.584 0.353 0.0999999 1 -2 -2.62269e-007 
0.479 0.353 -0.1 0.978305 -2.20717 -2.67531e-007 
0.479 0.353 0.1 1.95661 -1.41434 -4.03927e-007 
0.443 0.183 -0.1 1.95661 0.585659 -3.16504e-007 
0.443 0.183 0.1 0.978305 1.79283 -9.26852e-008 
0.584 0.183 -0.1 1 2 -8.74228e-008 
0.584 0.183 0.0999999 2 1 -3.0598e-007 
0.584 0.114 -0.1 2 -1 -3.93403e-007 
0.584 0.114 0.0999999 1 -2 -2.62269e-007 
0.429 0.114 -0.1 0.978603 -2.20576 -2.67521e-007 
0.429 0.114 0.1 1.95721 -1.41151 -4.03909e-007 
0.388 -0.081 -0.1 1.95721 -1.41151 -4.03909e-007 
0.388 -0.081 0.1 0.978603 -2.20576 -2.67521e-007 
0.316 -0.081 -0.1 -0.978603 -1.79424 9.26755e-008 
0.316 -0.081 0.1 -1.95721 -0.588485 3.16486e-007 
0.357 0.114 -0.1 -1.95721 -0.588485 3.16486e-007 
0.357 0.114 0.1 -0.978603 -1.79424 9.26755e-008 
0.163 0.114 -0.1 0.978603 -2.20576 -2.67521e-007 
0.163 0.114 0.1 1.95721 -1.41151 -4.03909e-007 
0.122 -0.081 -0.1 1.95721 -1.41152 -4.03909e-007 
0.122 -0.081 0.1 0.978603 -2.20576 -2.67521e-007 
0.05 -0.081 -0.1 -0.978603 -1.79424 9.26755e-008 
0.05 -0.081 0.1 -1.95721 -0.588485 3.16486e-007 
0.091 0.114 -0.1 -1.95721 -0.588485 3.16486e-007 
0.091 0.114 0.1 -0.978603 -1.79424 9.26755e-008 
0.000999982 0.114 -0.1 -1 -2 8.74228e-008 
0.00100002 0.114 0.1 -2 -1 3.0598e-007 
0.000999982 0.183 -0.1 -2 1 3.93403e-007 
0.00100002 0.183 0.1 -1 2 2.62269e-007 
0.105 0.183 -0.1 -0.978305 2.20717 2.67531e-007 
0.105 0.183 0.1 -1.95661 1.41434 4.03927e-007 
0.141 0.353 -0.1 -1.95661 -0.585659 3.16504e-007 
0.141 0.353 0.1 -0.978305 -1.79283 9.26852e-008 
0.000999982 0.353 -0.1 -1 -2 8.74228e-008 
0.00100002 0.353 0.1 -2 -1 3.0598e-007 
0.000999982 0.422 -0.1 -2 1 3.93403e-007 
0.00100002 0.422 0.1 -1 2 2.62269e-007 
0.155 0.422 -0.1 -0.978603 2.20576 2.67521e-007 
0.155 0.422 0.1 -1.95721 1.41151 4.03909e-007 
0.196 0.617 -0.1 -1.95721 1.41151 4.03909e-007 
0.196 0.617 0.1 -0.978603 2.20576 2.67521e-007 
0.268 0.617 -0.1 0.978603 1.79424 -9.26755e-008 
0.268 0.617 0.1 1.95721 0.588485 -3.16486e-007 
0.371 0.183 -0.1 -0.978305 2.20717 2.67531e-007 
0.371 0.183 0.1 -1.95661 1.41434 4.03927e-007 
0.407 0.353 -0.1 -1.95661 -0.585659 3.16504e-007 
0.407 0.353 0.1 -0.978305 -1.79283 9.26852e-008 
0.213 0.353 -0.1 0.978305 -2.20717 -2.67531e-007 
0.213 0.353 0.1 1.95661 -1.41434 -4.03927e-007 
0.177 0.183 -0.1 1.95661 0.585659 -3.16504e-007 
0.177 0.183 0.1 0.978305 1.79283 -9.26852e-008 
3 25 27 26 
3 25 0 27 
3 1 3 2 
3 1 4 3 
3 23 25 24 
3 23 0 25 
3 23 1 0 
3 23 4 1 
3 23 5 4 
3 23 6 5 
3 22 6 23 
3 21 30 22 
3 30 6 22 
3 21 31 30 
3 29 6 30 
3 28 7 29 
3 7 6 29 
3 28 8 7 
3 19 21 20 
3 19 31 21 
3 19 28 31 
3 19 8 28 
3 19 9 8 
3 19 10 9 
3 18 10 19 
3 17 15 18 
3 15 10 18 
3 17 16 15 
3 14 10 15 
3 13 11 14 
3 11 10 14 
3 13 12 11 
3 59 57 58 
3 32 57 59 
3 35 33 34 
3 36 33 35 
3 57 55 56 
3 32 55 57 
3 33 55 32 
3 36 55 33 
3 37 55 36 
3 38 55 37 
3 38 54 55 
3 62 53 54 
3 38 62 54 
3 63 53 62 
3 38 61 62 
3 39 60 61 
3 38 39 61 
3 40 60 39 
3 53 51 52 
3 63 51 53 
3 60 51 63 
3 40 51 60 
3 41 51 40 
3 42 51 41 
3 42 50 51 
3 47 49 50 
3 42 47 50 
3 48 49 47 
3 42 46 47 
3 43 45 46 
3 42 43 46 
3 44 45 43 
3 65 67 66 
3 65 66 64 
3 67 69 68 
3 67 68 66 
3 69 71 70 
3 69 70 68 
3 71 73 72 
3 71 72 70 
3 73 75 74 
3 73 74 72 
3 75 77 76 
3 75 76 74 
3 77 79 78 
3 77 78 76 
3 79 81 80 
3 79 80 78 
3 81 83 82 
3 81 82 80 
3 83 85 84 
3 83 84 82 
3 85 87 86 
3 85 86 84 
3 87 89 88 
3 87 88 86 
3 89 91 90 
3 89 90 88 
3 91 93 92 
3 91 92 90 
3 93 95 94 
3 93 94 92 
3 95 97 96 
3 95 96 94 
3 97 99 98 
3 97 98 96 
3 99 101 100 
3 99 100 98 
3 101 103 102 
3 101 102 100 
3 103 105 104 
3 103 104 102 
3 105 107 106 
3 105 106 104 
3 107 109 108 
3 107 108 106 
3 109 111 110 
3 109 110 108 
3 111 113 112 
3 111 112 110 
3 113 115 114 
3 113 114 112 
3 115 117 116 
3 115 116 114 
3 117 119 118 
3 117 118 116 
3 119 65 64 
3 119 64 118 
3 121 123 122 
3 121 122 120 
3 123 125 124 
3 123 124 122 
3 125 127 126 
3 125 126 124 
3 127 121 120 
3 127 120 126 
