ply
format ascii 1.0
comment VCGLIB generated
element vertex 408
property float x
property float y
property float z
property float nx
property float ny
property float nz
element face 404
property list uchar int vertex_indices
end_header
0.650582 0.037495 0.0999998 1.32943e-009 -3.32359e-010 0.00760348 
0.628741 0.028963 0.0999998 2.36895e-009 -5.92239e-010 0.0135488 
0.607344 0.021375 0.0999998 8.12798e-010 -2.03199e-010 0.00464866 
0.586259 0.014704 0.0999998 1.38334e-009 -3.45836e-010 0.00791181 
0.565355 0.008921 0.0999998 4.26158e-010 -1.06539e-010 0.00243734 
0.5445 0.004 0.1 3.54601e-010 -8.86503e-011 0.00202808 
0.523561 -8.80044e-005 0.1 5.28738e-010 -1.32184e-010 0.00302403 
0.502407 -0.00337 0.1 1.22419e-010 -3.06048e-011 0.000700156 
0.480906 -0.005875 0.1 8.75672e-011 -2.18918e-011 0.000500826 
0.458926 -0.00763 0.1 7.50833e-011 -1.87708e-011 0.000429426 
0.436335 -0.008662 0.1 2.8755e-012 -7.18877e-013 1.6446e-005 
0.413 -0.009 0.1 3.91048e-011 -9.77619e-012 0.000223653 
0.361953 -0.006011 0.1 4.92062e-010 -1.23016e-010 0.00281427 
0.313542 0.002741 0.1 1.65606e-009 -4.14014e-010 0.00947154 
0.268109 0.016938 0.1 2.89161e-009 -7.22902e-010 0.0165381 
0.226 0.036259 0.1 4.59419e-009 -1.14855e-009 0.0262757 
0.187557 0.060387 0.1 5.63978e-009 -1.40995e-009 0.0322558 
0.153125 0.089 0.1 3.07635e-009 -7.69087e-010 0.0175947 
0.123047 0.12178 0.1 2.69362e-009 -6.73406e-010 0.0154057 
0.097667 0.158407 0.1 2.17986e-009 -5.44967e-010 0.0124674 
0.077328 0.198563 0.1 2.77452e-009 -6.93628e-010 0.0158684 
0.062375 0.241926 0.1 2.25131e-009 -5.62826e-010 0.012876 
0.053151 0.288178 0.1 2.32626e-009 -5.81564e-010 0.0133046 
0.05 0.337 0.1 3.02366e-009 -7.55916e-010 0.0172933 
0.053229 0.386189 0.1 2.31784e-009 -5.7946e-010 0.0132565 
0.062667 0.433014 0.1 2.82512e-009 -7.06281e-010 0.0161578 
0.077937 0.477109 0.1 2.2053e-009 -5.51323e-010 0.0126128 
0.098667 0.518111 0.1 2.6789e-009 -6.69724e-010 0.0153215 
0.124479 0.555655 0.1 2.63088e-009 -6.57721e-010 0.0150469 
0.155 0.589375 0.1 2.80922e-009 -7.02306e-010 0.0160669 
0.189854 0.618908 0.1 6.29747e-009 -1.57437e-009 0.0360173 
0.228667 0.643889 0.1 4.1343e-009 -1.03357e-009 0.0236454 
0.271062 0.663953 0.1 2.45764e-009 -6.14412e-010 0.0140561 
0.316667 0.678736 0.1 1.29505e-009 -3.23762e-010 0.00740681 
0.365104 0.687873 0.1 3.2566e-010 -8.14151e-011 0.00186256 
0.416 0.691 0.1 1.31943e-011 -3.29858e-012 7.54627e-005 
0.435543 0.690718 0.1 3.3497e-011 -8.37424e-012 0.00019158 
0.454347 0.689829 0.1 5.09586e-011 -1.27396e-011 0.000291449 
0.472672 0.688266 0.1 7.52144e-011 -1.88036e-011 0.000430176 
0.490778 0.685963 0.1 3.79052e-010 -9.47631e-011 0.00216793 
0.508925 0.682855 0.1 2.64622e-010 -6.61554e-011 0.00151346 
0.527375 0.678875 0.1 3.28688e-010 -8.21722e-011 0.00187988 
0.546387 0.673958 0.1 1.13321e-009 -2.83302e-010 0.00648119 
0.566222 0.668037 0.0999999 6.95406e-010 -1.73851e-010 0.00397726 
0.587141 0.661047 0.0999999 2.08215e-009 -5.20538e-010 0.0119085 
0.609403 0.652921 0.0999999 1.23469e-009 -3.08672e-010 0.0070616 
0.633269 0.643594 0.0999999 3.36022e-009 -8.40056e-010 0.0192182 
0.659 0.633 0.0999999 6.19506e-009 -1.54876e-009 0.0354316 
0.659 0.534 0.0999999 3.47232e-010 -8.68082e-011 0.00198594 
0.63894 0.544561 0.0999999 6.93092e-010 -1.73273e-010 0.00396402 
0.618769 0.554241 0.0999999 6.86807e-010 -1.71702e-010 0.00392808 
0.5985 0.563031 0.0999999 6.73444e-010 -1.68361e-010 0.00385165 
0.578148 0.570926 0.0999999 6.52976e-010 -1.63244e-010 0.00373459 
0.557727 0.577918 0.0999999 6.25386e-010 -1.56346e-010 0.00357679 
0.53725 0.584 0.1 5.90664e-010 -1.47666e-010 0.0033782 
0.516732 0.589166 0.1 5.48728e-010 -1.37182e-010 0.00313836 
0.496185 0.593407 0.1 4.99586e-010 -1.24896e-010 0.0028573 
0.475625 0.596719 0.1 4.43155e-010 -1.10789e-010 0.00253455 
0.455065 0.599093 0.1 2.4903e-009 -6.22576e-010 0.0142429 
0.434519 0.600522 0.1 5.04338e-011 -1.26084e-011 0.000288448 
0.414 0.601 0.1 1.34292e-009 -3.35731e-010 0.00768062 
0.377735 0.598691 0.1 2.37204e-010 -5.93009e-011 0.00135665 
0.34313 0.591945 0.1 5.50676e-010 -1.37669e-010 0.0031495 
0.310469 0.581031 0.1 1.65202e-009 -4.13006e-010 0.00944848 
0.280037 0.566222 0.1 7.96356e-010 -1.99089e-010 0.00455463 
0.252119 0.547788 0.1 1.77743e-009 -4.44356e-010 0.0101657 
0.227 0.526 0.1 9.81914e-010 -2.45478e-010 0.00561589 
0.204964 0.501129 0.1 1.88775e-009 -4.71938e-010 0.0107967 
0.186296 0.473444 0.1 1.9289e-009 -4.82225e-010 0.011032 
0.171281 0.443219 0.1 1.14458e-009 -2.86144e-010 0.00654622 
0.160204 0.410722 0.1 2.04852e-009 -5.1213e-010 0.0117162 
0.153348 0.376226 0.1 2.121e-009 -5.3025e-010 0.0121307 
0.151 0.34 0.1 1.2936e-009 -3.234e-010 0.00739852 
0.153337 0.302973 0.1 2.14818e-009 -5.37046e-010 0.0122862 
0.160194 0.268037 0.1 2.07188e-009 -5.17971e-010 0.0118498 
0.171344 0.235406 0.1 2.01109e-009 -5.02772e-010 0.0115021 
0.186556 0.205296 0.1 1.13816e-009 -2.8454e-010 0.00650951 
0.205601 0.177922 0.1 1.91059e-009 -4.77648e-010 0.0109273 
0.22825 0.1535 0.1 1.88798e-009 -4.71994e-010 0.010798 
0.254274 0.132244 0.1 9.98798e-010 -2.497e-010 0.00571246 
0.283444 0.11437 0.1 1.81144e-009 -4.52859e-010 0.0103602 
0.315531 0.100094 0.1 8.3221e-010 -2.08053e-010 0.00475969 
0.350306 0.08963 0.1 5.90614e-010 -1.47654e-010 0.00337792 
0.387538 0.083193 0.1 1.59783e-009 -3.99459e-010 0.00913855 
0.427 0.081 0.1 2.63277e-009 -6.58192e-010 0.0150577 
0.440148 0.081245 0.1 1.95292e-010 -4.88228e-011 0.00111694 
0.453102 0.081958 0.1 2.28917e-010 -5.72293e-011 0.00130925 
0.465875 0.083109 0.1 2.58336e-010 -6.4584e-011 0.00147751 
0.478481 0.084667 0.1 2.83741e-010 -7.09351e-011 0.00162281 
0.490935 0.086599 0.1 3.05448e-010 -7.6362e-011 0.00174696 
0.50325 0.088875 0.1 3.2381e-010 -8.09526e-011 0.00185198 
0.51544 0.091464 0.1 3.39036e-010 -8.47589e-011 0.00193906 
0.527519 0.094333 0.1 3.5146e-010 -8.78651e-011 0.00201012 
0.5395 0.097453 0.1 3.61413e-010 -9.03533e-011 0.00206704 
0.551398 0.100792 0.1 3.6912e-010 -9.228e-011 0.00211112 
0.563227 0.104318 0.0999999 3.7488e-010 -9.372e-011 0.00214406 
0.575 0.108 0.0999999 2.58754e-009 -6.46884e-010 0.014799 
0.575 0.248 0.0999999 9.36648e-009 -2.34162e-009 0.05357 
0.444 0.248 0.1 5.5391e-009 -1.38478e-009 0.03168 
0.444 0.336 0.1 3.52348e-009 -8.80872e-010 0.020152 
0.673 0.336 0.0999999 1.04911e-008 -2.62277e-009 0.060002 
0.673 0.047 0.0999998 1.4154e-008 -3.5385e-009 0.0809515 
0.650582 0.037495 -0.1 -1.32943e-009 3.32359e-010 -0.00760348 
0.628741 0.028963 -0.1 -2.36895e-009 5.92239e-010 -0.0135488 
0.607344 0.021375 -0.1 -8.12798e-010 2.03199e-010 -0.00464866 
0.586259 0.014704 -0.1 -1.38334e-009 3.45836e-010 -0.00791181 
0.565355 0.008921 -0.1 -4.26158e-010 1.06539e-010 -0.00243734 
0.5445 0.004 -0.1 -3.54601e-010 8.86503e-011 -0.00202808 
0.523561 -8.79956e-005 -0.1 -5.28738e-010 1.32184e-010 -0.00302403 
0.502407 -0.00337 -0.1 -1.22419e-010 3.06048e-011 -0.000700156 
0.480906 -0.005875 -0.1 -8.75672e-011 2.18918e-011 -0.000500826 
0.458926 -0.00763 -0.1 -7.50833e-011 1.87708e-011 -0.000429426 
0.436335 -0.008662 -0.1 -2.8755e-012 7.18877e-013 -1.6446e-005 
0.413 -0.00899999 -0.1 -3.91048e-011 9.77619e-012 -0.000223653 
0.361953 -0.006011 -0.1 -4.92062e-010 1.23016e-010 -0.00281427 
0.313542 0.002741 -0.1 -1.65606e-009 4.14014e-010 -0.00947154 
0.268109 0.016938 -0.1 -2.89161e-009 7.22902e-010 -0.0165381 
0.226 0.036259 -0.1 -4.59419e-009 1.14855e-009 -0.0262757 
0.187557 0.060387 -0.1 -5.63978e-009 1.40995e-009 -0.0322558 
0.153125 0.089 -0.1 -3.07635e-009 7.69087e-010 -0.0175947 
0.123047 0.12178 -0.1 -2.69362e-009 6.73405e-010 -0.0154057 
0.097667 0.158407 -0.1 -2.17986e-009 5.44967e-010 -0.0124674 
0.077328 0.198563 -0.1 -2.77452e-009 6.93628e-010 -0.0158684 
0.062375 0.241926 -0.1 -2.25131e-009 5.62826e-010 -0.012876 
0.053151 0.288178 -0.1 -2.32626e-009 5.81564e-010 -0.0133046 
0.05 0.337 -0.1 -3.02366e-009 7.55916e-010 -0.0172933 
0.053229 0.386189 -0.1 -2.31784e-009 5.7946e-010 -0.0132565 
0.062667 0.433014 -0.1 -2.82512e-009 7.06281e-010 -0.0161578 
0.077937 0.477109 -0.1 -2.2053e-009 5.51324e-010 -0.0126128 
0.098667 0.518111 -0.1 -2.6789e-009 6.69724e-010 -0.0153215 
0.124479 0.555655 -0.1 -2.63088e-009 6.57721e-010 -0.0150469 
0.155 0.589375 -0.1 -2.80922e-009 7.02306e-010 -0.0160669 
0.189854 0.618908 -0.1 -6.29747e-009 1.57437e-009 -0.0360173 
0.228667 0.643889 -0.1 -4.1343e-009 1.03357e-009 -0.0236454 
0.271062 0.663953 -0.1 -2.45764e-009 6.14412e-010 -0.0140561 
0.316667 0.678736 -0.1 -1.29505e-009 3.23762e-010 -0.00740681 
0.365104 0.687873 -0.1 -3.2566e-010 8.14151e-011 -0.00186256 
0.416 0.691 -0.1 -1.31943e-011 3.29858e-012 -7.54627e-005 
0.435543 0.690718 -0.1 -3.3497e-011 8.37424e-012 -0.00019158 
0.454347 0.689829 -0.1 -5.09586e-011 1.27396e-011 -0.000291449 
0.472672 0.688266 -0.1 -7.52144e-011 1.88036e-011 -0.000430176 
0.490778 0.685963 -0.1 -3.79052e-010 9.47631e-011 -0.00216793 
0.508925 0.682855 -0.1 -2.64622e-010 6.61554e-011 -0.00151346 
0.527375 0.678875 -0.1 -3.28688e-010 8.21722e-011 -0.00187988 
0.546387 0.673958 -0.1 -1.13321e-009 2.83302e-010 -0.00648119 
0.566222 0.668037 -0.1 -6.95406e-010 1.73851e-010 -0.00397726 
0.587141 0.661047 -0.1 -2.08215e-009 5.20538e-010 -0.0119085 
0.609403 0.652921 -0.1 -1.23469e-009 3.08672e-010 -0.0070616 
0.633269 0.643594 -0.1 -3.36022e-009 8.40056e-010 -0.0192182 
0.659 0.633 -0.1 -6.19506e-009 1.54876e-009 -0.0354316 
0.659 0.534 -0.1 -3.47232e-010 8.68082e-011 -0.00198594 
0.63894 0.544561 -0.1 -6.93092e-010 1.73273e-010 -0.00396402 
0.618769 0.554241 -0.1 -6.86807e-010 1.71702e-010 -0.00392808 
0.5985 0.563031 -0.1 -6.73444e-010 1.68361e-010 -0.00385165 
0.578148 0.570926 -0.1 -6.52976e-010 1.63244e-010 -0.00373459 
0.557727 0.577918 -0.1 -6.25386e-010 1.56346e-010 -0.00357679 
0.53725 0.584 -0.1 -5.90664e-010 1.47666e-010 -0.0033782 
0.516732 0.589166 -0.1 -5.48728e-010 1.37182e-010 -0.00313836 
0.496185 0.593407 -0.1 -4.99586e-010 1.24896e-010 -0.0028573 
0.475625 0.596719 -0.1 -4.43155e-010 1.10789e-010 -0.00253455 
0.455065 0.599093 -0.1 -2.4903e-009 6.22576e-010 -0.0142429 
0.434519 0.600522 -0.1 -5.04338e-011 1.26084e-011 -0.000288448 
0.414 0.601 -0.1 -1.34292e-009 3.35731e-010 -0.00768062 
0.377735 0.598691 -0.1 -2.37204e-010 5.93009e-011 -0.00135665 
0.34313 0.591945 -0.1 -5.50676e-010 1.37669e-010 -0.0031495 
0.310469 0.581031 -0.1 -1.65202e-009 4.13006e-010 -0.00944848 
0.280037 0.566222 -0.1 -7.96356e-010 1.99089e-010 -0.00455463 
0.252119 0.547788 -0.1 -1.77743e-009 4.44356e-010 -0.0101657 
0.227 0.526 -0.1 -9.81914e-010 2.45478e-010 -0.00561589 
0.204964 0.501129 -0.1 -1.88775e-009 4.71938e-010 -0.0107967 
0.186296 0.473444 -0.1 -1.9289e-009 4.82225e-010 -0.011032 
0.171281 0.443219 -0.1 -1.14458e-009 2.86144e-010 -0.00654622 
0.160204 0.410722 -0.1 -2.04852e-009 5.1213e-010 -0.0117162 
0.153348 0.376226 -0.1 -2.121e-009 5.3025e-010 -0.0121307 
0.151 0.34 -0.1 -1.2936e-009 3.234e-010 -0.00739852 
0.153337 0.302973 -0.1 -2.14818e-009 5.37046e-010 -0.0122862 
0.160194 0.268037 -0.1 -2.07188e-009 5.17971e-010 -0.0118498 
0.171344 0.235406 -0.1 -2.01109e-009 5.02772e-010 -0.0115021 
0.186556 0.205296 -0.1 -1.13816e-009 2.8454e-010 -0.00650951 
0.205601 0.177922 -0.1 -1.91059e-009 4.77648e-010 -0.0109273 
0.22825 0.1535 -0.1 -1.88798e-009 4.71994e-010 -0.010798 
0.254274 0.132244 -0.1 -9.98798e-010 2.497e-010 -0.00571246 
0.283444 0.11437 -0.1 -1.81144e-009 4.52859e-010 -0.0103602 
0.315531 0.100094 -0.1 -8.3221e-010 2.08053e-010 -0.00475969 
0.350306 0.08963 -0.1 -5.90614e-010 1.47654e-010 -0.00337792 
0.387538 0.083193 -0.1 -1.59783e-009 3.99459e-010 -0.00913855 
0.427 0.081 -0.1 -2.63278e-009 6.58193e-010 -0.0150577 
0.440148 0.081245 -0.1 -1.95292e-010 4.88228e-011 -0.00111694 
0.453102 0.081958 -0.1 -2.28917e-010 5.72293e-011 -0.00130925 
0.465875 0.083109 -0.1 -2.58336e-010 6.4584e-011 -0.00147751 
0.478481 0.084667 -0.1 -2.83741e-010 7.09351e-011 -0.00162281 
0.490935 0.086599 -0.1 -3.05448e-010 7.6362e-011 -0.00174696 
0.50325 0.088875 -0.1 -3.2381e-010 8.09526e-011 -0.00185198 
0.51544 0.091464 -0.1 -3.39036e-010 8.47589e-011 -0.00193906 
0.527519 0.094333 -0.1 -3.5146e-010 8.78651e-011 -0.00201012 
0.5395 0.097453 -0.1 -3.61413e-010 9.03533e-011 -0.00206704 
0.551398 0.100792 -0.1 -3.6912e-010 9.228e-011 -0.00211112 
0.563227 0.104318 -0.1 -3.7488e-010 9.372e-011 -0.00214406 
0.575 0.108 -0.1 -2.58754e-009 6.46884e-010 -0.014799 
0.575 0.248 -0.1 -9.36648e-009 2.34162e-009 -0.05357 
0.444 0.248 -0.1 -5.5391e-009 1.38478e-009 -0.03168 
0.444 0.336 -0.1 -3.52348e-009 8.80872e-010 -0.020152 
0.673 0.336 -0.1 -1.04911e-008 2.62277e-009 -0.060002 
0.673 0.047 -0.1 -1.4154e-008 3.5385e-009 -0.0809515 
0.650582 0.037495 -0.1 1.14457 -2.77278 -3.21326e-007 
0.650582 0.037495 0.0999998 1.11808 -2.78357 -3.17165e-007 
0.628741 0.028963 -0.1 1.06196 -2.80539 -3.08306e-007 
0.628741 0.028963 0.0999998 1.03233 -2.81643 -3.03608e-007 
0.607344 0.021375 -0.1 0.970116 -2.8384 -2.93691e-007 
0.607344 0.021375 0.0999998 0.937532 -2.84933 -2.88472e-007 
0.586259 0.014704 -0.1 0.869929 -2.87064 -2.77583e-007 
0.586259 0.014704 0.0999998 0.83491 -2.88102 -2.71913e-007 
0.565355 0.008921 -0.1 0.762917 -2.90087 -2.60193e-007 
0.565355 0.008921 0.0999998 0.725942 -2.91034 -2.54143e-007 
0.5445 0.004 -0.1 0.650927 -2.92801 -2.41799e-007 
0.5445 0.004 0.1 0.612888 -2.93621 -2.35506e-007 
0.523561 -8.79956e-005 -0.1 0.536546 -2.95112 -2.2281e-007 
0.523561 -8.80044e-005 0.1 0.498244 -2.95783 -2.16407e-007 
0.502407 -0.00337 -0.1 0.422351 -2.96964 -2.03653e-007 
0.502407 -0.00337 0.1 0.384761 -2.97474 -1.97304e-007 
0.480906 -0.005875 -0.1 0.311039 -2.98339 -1.84792e-007 
0.480906 -0.005875 0.1 0.274907 -2.98694 -1.78629e-007 
0.458926 -0.00763 -0.1 0.204818 -2.99261 -1.66623e-007 
0.458926 -0.00763 0.1 0.170861 -2.99474 -1.60779e-007 
0.436335 -0.008662 -0.1 0.105752 -2.99781 -1.49529e-007 
0.436335 -0.008662 0.1 0.0746006 -2.99875 -1.44123e-007 
0.413 -0.00899999 -0.1 -0.0294875 -2.99808 -1.25894e-007 
0.413 -0.009 0.1 -0.102424 -2.99648 -1.13072e-007 
0.361953 -0.006011 -0.1 -0.294809 -2.98063 -7.8741e-008 
0.361953 -0.006011 0.1 -0.414257 -2.96639 -5.72339e-008 
0.313542 0.002741 -0.1 -0.654063 -2.92258 -1.33901e-008 
0.313542 0.002741 0.1 -0.77442 -2.89302 8.94605e-009 
0.268109 0.016938 -0.1 -1.01355 -2.81786 5.4042e-008 
0.268109 0.016938 0.1 -1.13232 -2.77227 7.68013e-008 
0.226 0.036259 -0.1 -1.36566 -2.66478 1.22298e-007 
0.226 0.036259 0.1 -1.48023 -2.60288 1.45036e-007 
0.187557 0.060387 -0.1 -1.70233 -2.46309 1.89979e-007 
0.187557 0.060387 0.1 -1.80985 -2.3852 2.12184e-007 
0.153125 0.089 -0.1 -2.01507 -2.21429 2.55536e-007 
0.153125 0.089 0.1 -2.11277 -2.12128 2.76684e-007 
0.123047 0.12178 -0.1 -2.2956 -1.92173 3.17374e-007 
0.123047 0.12178 0.1 -2.38073 -1.8152 3.36915e-007 
0.097667 0.158407 -0.1 -2.536 -1.59096 3.73865e-007 
0.097667 0.158407 0.1 -2.60614 -1.47325 3.91275e-007 
0.077328 0.198563 -0.1 -2.72956 -1.22969 4.23501e-007 
0.077328 0.198563 0.1 -2.78284 -1.10384 4.38317e-007 
0.062375 0.241926 -0.1 -2.87143 -0.847568 4.65008e-007 
0.062375 0.241926 0.1 -2.90675 -0.717151 4.76884e-007 
0.053151 0.288178 -0.1 -2.9593 -0.455562 4.97507e-007 
0.053151 0.288178 0.1 -2.97654 -0.324391 5.06254e-007 
0.05 0.337 -0.1 -2.9937 -0.0633093 5.20668e-007 
0.05 0.337 0.1 -2.99363 0.066601 5.26334e-007 
0.053229 0.386189 -0.1 -2.97599 0.328593 5.34702e-007 
0.053229 0.386189 0.1 -2.95842 0.460674 5.37403e-007 
0.062667 0.433014 -0.1 -2.90551 0.722403 5.39593e-007 
0.062667 0.433014 0.1 -2.87017 0.85205 5.39081e-007 
0.077937 0.477109 -0.1 -2.78231 1.10566 5.34804e-007 
0.077937 0.477109 0.1 -2.72979 1.22963 5.31041e-007 
0.098667 0.518111 -0.1 -2.60889 1.46893 5.20361e-007 
0.098667 0.518111 0.1 -2.5405 1.58427 5.13446e-007 
0.124479 0.555655 -0.1 -2.38947 1.80414 4.9665e-007 
0.124479 0.555655 0.1 -2.30684 1.90866 4.8677e-007 
0.155 0.589375 -0.1 -2.12927 2.10507 4.64309e-007 
0.155 0.589375 0.1 -2.03433 2.19695 4.51726e-007 
0.189854 0.618908 -0.1 -1.83415 2.36677 4.24148e-007 
0.189854 0.618908 0.1 -1.7289 2.44471 4.09152e-007 
0.228667 0.643889 -0.1 -1.5102 2.58565 3.77075e-007 
0.228667 0.643889 0.1 -1.39677 2.64865 3.59996e-007 
0.271062 0.663953 -0.1 -1.16391 2.75904 3.24106e-007 
0.271062 0.663953 0.1 -1.04449 2.80643 3.05297e-007 
0.316667 0.678736 -0.1 -0.802081 2.88521 2.66357e-007 
0.316667 0.678736 0.1 -0.679093 2.91661 2.46225e-007 
0.365104 0.687873 -0.1 -0.432059 2.96346 2.05081e-007 
0.365104 0.687873 0.1 -0.308014 2.9789 1.84067e-007 
0.416 0.691 -0.1 -0.108218 2.99613 1.49887e-007 
0.416 0.691 0.1 -0.0324676 2.99791 1.36719e-007 
0.435543 0.690718 -0.1 0.0760799 2.99868 1.17774e-007 
0.435543 0.690718 0.1 0.108877 2.99766 1.11996e-007 
0.454347 0.689829 -0.1 0.179435 2.99415 9.95053e-008 
0.454347 0.689829 0.1 0.217196 2.99165 9.27931e-008 
0.472672 0.688266 -0.1 0.29615 2.98477 7.86877e-008 
0.472672 0.688266 0.1 0.337343 2.9804 7.12945e-008 
0.490778 0.685963 -0.1 0.421166 2.96966 5.61691e-008 
0.490778 0.685963 0.1 0.463795 2.96331 4.84378e-008 
0.508925 0.682855 -0.1 0.548483 2.94881 3.29969e-008 
0.508925 0.682855 0.1 0.590542 2.94068 2.52875e-008 
0.527375 0.678875 -0.1 0.672123 2.92317 1.02583e-008 
0.527375 0.678875 0.1 0.711644 2.91381 2.93871e-009 
0.546387 0.673958 -0.1 0.786818 2.89451 -1.10486e-008 
0.546387 0.673958 0.1 0.822469 2.88458 -1.7716e-008 
0.566222 0.668037 -0.1 0.889003 2.86489 -3.02101e-008 
0.566222 0.668037 0.0999999 0.919885 2.85512 -3.60366e-008 
0.587141 0.661047 -0.1 0.976731 2.83628 -4.67993e-008 
0.587141 0.661047 0.0999999 1.00269 2.82721 -5.17351e-008 
0.609403 0.652921 -0.1 1.04977 2.81015 -6.07118e-008 
0.609403 0.652921 0.0999999 1.07088 2.80218 -6.47516e-008 
0.633269 0.643594 -0.1 1.10871 2.78749 -7.2008e-008 
0.633269 0.643594 0.0999999 1.12543 2.78078 -7.52245e-008 
0.659 0.633 -0.1 1.76143 1.84938 -2.27139e-007 
0.659 0.633 0.0999999 2.38072 0.924692 -3.75838e-007 
0.659 0.534 -0.1 1.53414 -0.884861 -3.06917e-007 
0.659 0.534 0.0999999 0.0682893 -1.76972 -8.9297e-008 
0.63894 0.544561 -0.1 -1.36437 -2.67128 1.21788e-007 
0.63894 0.544561 0.0999999 -1.33116 -2.68798 1.15252e-007 
0.618769 0.554241 -0.1 -1.26318 -2.72056 1.01941e-007 
0.618769 0.554241 0.0999999 -1.22839 -2.73645 9.51644e-008 
0.5985 0.563031 -0.1 -1.1574 -2.7672 8.14079e-008 
0.5985 0.563031 0.0999999 -1.12119 -2.78206 7.44275e-008 
0.578148 0.570926 -0.1 -1.04726 -2.8107 6.02489e-008 
0.578148 0.570926 0.0999999 -1.00952 -2.82447 5.30489e-008 
0.557727 0.577918 -0.1 -0.932582 -2.85077 3.84466e-008 
0.557727 0.577918 0.0999999 -0.893375 -2.8633 3.10438e-008 
0.53725 0.584 -0.1 -0.813604 -2.88696 1.60622e-008 
0.53725 0.584 0.1 -0.77304 -2.89808 8.4835e-009 
0.516732 0.589166 -0.1 -0.690461 -2.91883 -6.86198e-009 
0.516732 0.589166 0.1 -0.648446 -2.92845 -1.46287e-008 
0.496185 0.593407 -0.1 -0.563329 -2.94598 -3.02775e-008 
0.496185 0.593407 0.1 -0.520227 -2.9539 -3.81597e-008 
0.475625 0.596719 -0.1 -0.432788 -2.96794 -5.40619e-008 
0.475625 0.596719 0.1 -0.388451 -2.97407 -6.20818e-008 
0.455065 0.599093 -0.1 -0.298791 -2.98439 -7.82099e-008 
0.455065 0.599093 0.1 -0.253468 -2.98858 -8.63171e-008 
0.434519 0.600522 -0.1 -0.162054 -2.99491 -1.02577e-007 
0.434519 0.600522 0.1 -0.115963 -2.99705 -1.10729e-007 
0.414 0.601 -0.1 0.016961 -2.99744 -1.33988e-007 
0.414 0.601 0.1 0.103794 -2.99569 -1.49094e-007 
0.377735 0.598691 -0.1 0.318425 -2.97748 -1.85825e-007 
0.377735 0.598691 0.1 0.446224 -2.96103 -2.07451e-007 
0.34313 0.591945 -0.1 0.699614 -2.9115 -2.4959e-007 
0.34313 0.591945 0.1 0.825206 -2.87842 -2.70104e-007 
0.310469 0.581031 -0.1 1.07143 -2.79608 -3.09555e-007 
0.310469 0.581031 0.1 1.19207 -2.74682 -3.28495e-007 
0.280037 0.566222 -0.1 1.42615 -2.63287 -3.64442e-007 
0.280037 0.566222 0.1 1.53959 -2.56818 -3.81449e-007 
0.252119 0.547788 -0.1 1.75727 -2.42441 -4.13225e-007 
0.252119 0.547788 0.1 1.8615 -2.34533 -4.27993e-007 
0.227 0.526 -0.1 2.05896 -2.174 -4.55029e-007 
0.227 0.526 0.1 2.1522 -2.08174 -4.67298e-007 
0.204964 0.501129 -0.1 2.32607 -1.88539 -4.89116e-007 
0.204964 0.501129 0.1 2.40671 -1.78131 -4.98666e-007 
0.186296 0.473444 -0.1 2.55381 -1.56305 -5.14846e-007 
0.186296 0.473444 0.1 2.62028 -1.44888 -5.21476e-007 
0.171281 0.443219 -0.1 2.73768 -1.21244 -5.31669e-007 
0.171281 0.443219 0.1 2.78863 -1.09017 -5.35232e-007 
0.160204 0.410722 -0.1 2.87386 -0.840203 -5.39209e-007 
0.160204 0.410722 0.1 2.90816 -0.712504 -5.39623e-007 
0.153348 0.376226 -0.1 2.95954 -0.45455 -5.37331e-007 
0.153348 0.376226 0.1 2.97663 -0.324294 -5.34625e-007 
0.151 0.34 -0.1 2.99383 -0.0663685 -5.26359e-007 
0.151 0.34 0.1 2.99393 0.0613022 -5.20796e-007 
0.153337 0.302973 -0.1 2.97731 0.31858 -5.06644e-007 
0.153337 0.302973 0.1 2.96057 0.448187 -4.98051e-007 
0.160194 0.268037 -0.1 2.90884 0.708541 -4.77626e-007 
0.160194 0.268037 0.1 2.87384 0.839286 -4.65792e-007 
0.171344 0.235406 -0.1 2.78512 1.09762 -4.38987e-007 
0.171344 0.235406 0.1 2.7314 1.22521 -4.24018e-007 
0.186556 0.205296 -0.1 2.60599 1.47298 -3.9126e-007 
0.186556 0.205296 0.1 2.53431 1.59315 -3.73473e-007 
0.205601 0.177922 -0.1 2.37497 1.82221 -3.35601e-007 
0.205601 0.177922 0.1 2.28732 1.93109 -3.15517e-007 
0.22825 0.1535 -0.1 2.09903 2.13447 -2.73706e-007 
0.22825 0.1535 0.1 1.9984 2.22897 -2.5198e-007 
0.254274 0.132244 -0.1 1.78765 2.40163 -2.07584e-007 
0.254274 0.132244 0.1 1.67753 2.4798 -1.84913e-007 
0.283444 0.11437 -0.1 1.45144 2.61897 -1.39299e-007 
0.283444 0.11437 0.1 1.33546 2.67996 -1.16355e-007 
0.315531 0.100094 -0.1 1.10114 2.78489 -7.07979e-008 
0.315531 0.100094 0.1 0.982785 2.82883 -4.81836e-008 
0.350306 0.08963 -0.1 0.746648 2.90056 -3.76075e-009 
0.350306 0.08963 0.1 0.628867 2.92835 1.80477e-008 
0.387538 0.083193 -0.1 0.39621 2.96922 6.05133e-008 
0.387538 0.083193 0.1 0.281335 2.9823 8.11699e-008 
0.427 0.081 -0.1 0.0923429 2.99675 1.14846e-007 
0.427 0.081 0.1 0.0182256 2.99811 1.27865e-007 
0.440148 0.081245 -0.1 -0.0922193 2.99814 1.47177e-007 
0.440148 0.081245 0.1 -0.128547 2.9968 1.5347e-007 
0.453102 0.081958 -0.1 -0.199664 2.99294 1.65736e-007 
0.453102 0.081958 0.1 -0.234454 2.99042 1.71709e-007 
0.465875 0.083109 -0.1 -0.302154 2.98438 1.83281e-007 
0.465875 0.083109 0.1 -0.335065 2.98086 1.88882e-007 
0.478481 0.084667 -0.1 -0.398615 2.97308 1.99653e-007 
0.478481 0.084667 0.1 -0.429253 2.96881 2.04823e-007 
0.490935 0.086599 -0.1 -0.488333 2.95971 2.14755e-007 
0.490935 0.086599 0.1 -0.516773 2.95487 2.19517e-007 
0.50325 0.088875 -0.1 -0.571228 2.94488 2.28601e-007 
0.50325 0.088875 0.1 -0.597244 2.93971 2.32925e-007 
0.51544 0.091464 -0.1 -0.646597 2.92929 2.41098e-007 
0.51544 0.091464 0.1 -0.669934 2.92405 2.44949e-007 
0.527519 0.094333 -0.1 -0.714189 2.91359 2.52229e-007 
0.527519 0.094333 0.1 -0.735105 2.90838 2.55659e-007 
0.5395 0.097453 -0.1 -0.774212 2.89826 2.62055e-007 
0.5395 0.097453 0.1 -0.792402 2.89334 2.6502e-007 
0.551398 0.100792 -0.1 -0.826055 2.88394 2.70493e-007 
0.551398 0.100792 0.1 -0.841517 2.87947 2.73001e-007 
0.563227 0.104318 -0.1 -0.869812 2.87107 2.77581e-007 
0.563227 0.104318 0.0999999 -0.882645 2.86716 2.79654e-007 
0.575 0.108 -0.1 -1.59698 1.90882 3.62662e-007 
0.575 0.108 0.0999999 -2.29849 0.954412 4.43599e-007 
0.575 0.248 -0.1 -2 -1 3.0598e-007 
0.575 0.248 0.0999999 -1 -2 8.74228e-008 
0.444 0.248 -0.1 -1 -2 8.74228e-008 
0.444 0.248 0.1 -2 -1 3.0598e-007 
0.444 0.336 -0.1 -2 1 3.93403e-007 
0.444 0.336 0.1 -1 2 2.62269e-007 
0.673 0.336 -0.1 1 2 -8.74228e-008 
0.673 0.336 0.0999999 2 1 -3.0598e-007 
0.673 0.047 -0.1 2.39035 -0.920665 -4.58186e-007 
0.673 0.047 0.0999998 1.78071 -1.84133 -3.91836e-007 
3 34 36 35 
3 34 37 36 
3 34 38 37 
3 34 39 38 
3 33 39 34 
3 33 40 39 
3 33 41 40 
3 33 42 41 
3 32 42 33 
3 32 43 42 
3 32 44 43 
3 31 44 32 
3 31 45 44 
3 31 46 45 
3 30 46 31 
3 30 47 46 
3 30 58 47 
3 58 57 47 
3 57 56 47 
3 56 55 47 
3 55 54 47 
3 54 53 47 
3 53 52 47 
3 52 51 47 
3 51 50 47 
3 50 49 47 
3 49 48 47 
3 29 60 30 
3 60 59 30 
3 59 58 30 
3 29 61 60 
3 29 62 61 
3 29 63 62 
3 28 63 29 
3 28 64 63 
3 28 65 64 
3 27 65 28 
3 27 66 65 
3 27 67 66 
3 26 67 27 
3 26 68 67 
3 25 68 26 
3 25 69 68 
3 25 70 69 
3 24 70 25 
3 24 71 70 
3 23 71 24 
3 23 72 71 
3 23 73 72 
3 22 73 23 
3 98 100 99 
3 98 97 100 
3 97 101 100 
3 22 74 73 
3 21 74 22 
3 21 75 74 
3 96 101 97 
3 20 75 21 
3 20 76 75 
3 20 77 76 
3 19 77 20 
3 19 78 77 
3 18 78 19 
3 18 79 78 
3 18 80 79 
3 17 80 18 
3 17 81 80 
3 95 101 96 
3 94 101 95 
3 93 101 94 
3 17 82 81 
3 92 101 93 
3 91 101 92 
3 90 101 91 
3 17 83 82 
3 16 83 17 
3 89 101 90 
3 88 101 89 
3 87 101 88 
3 16 84 83 
3 86 101 87 
3 85 101 86 
3 84 101 85 
3 16 101 84 
3 15 101 16 
3 15 0 101 
3 15 1 0 
3 14 1 15 
3 14 2 1 
3 14 3 2 
3 13 3 14 
3 13 4 3 
3 13 5 4 
3 13 6 5 
3 12 6 13 
3 12 7 6 
3 12 8 7 
3 12 9 8 
3 11 9 12 
3 11 10 9 
3 138 136 137 
3 139 136 138 
3 140 136 139 
3 141 136 140 
3 141 135 136 
3 142 135 141 
3 143 135 142 
3 144 135 143 
3 144 134 135 
3 145 134 144 
3 146 134 145 
3 146 133 134 
3 147 133 146 
3 148 133 147 
3 148 132 133 
3 149 132 148 
3 160 132 149 
3 159 160 149 
3 158 159 149 
3 157 158 149 
3 156 157 149 
3 155 156 149 
3 154 155 149 
3 153 154 149 
3 152 153 149 
3 151 152 149 
3 150 151 149 
3 162 131 132 
3 161 162 132 
3 160 161 132 
3 163 131 162 
3 164 131 163 
3 165 131 164 
3 165 130 131 
3 166 130 165 
3 167 130 166 
3 167 129 130 
3 168 129 167 
3 169 129 168 
3 169 128 129 
3 170 128 169 
3 170 127 128 
3 171 127 170 
3 172 127 171 
3 172 126 127 
3 173 126 172 
3 173 125 126 
3 174 125 173 
3 175 125 174 
3 175 124 125 
3 202 200 201 
3 199 200 202 
3 203 199 202 
3 176 124 175 
3 176 123 124 
3 177 123 176 
3 203 198 199 
3 177 122 123 
3 178 122 177 
3 179 122 178 
3 179 121 122 
3 180 121 179 
3 180 120 121 
3 181 120 180 
3 182 120 181 
3 182 119 120 
3 183 119 182 
3 203 197 198 
3 203 196 197 
3 203 195 196 
3 184 119 183 
3 203 194 195 
3 203 193 194 
3 203 192 193 
3 185 119 184 
3 185 118 119 
3 203 191 192 
3 203 190 191 
3 203 189 190 
3 186 118 185 
3 203 188 189 
3 203 187 188 
3 203 186 187 
3 203 118 186 
3 203 117 118 
3 102 117 203 
3 103 117 102 
3 103 116 117 
3 104 116 103 
3 105 116 104 
3 105 115 116 
3 106 115 105 
3 107 115 106 
3 108 115 107 
3 108 114 115 
3 109 114 108 
3 110 114 109 
3 111 114 110 
3 111 113 114 
3 112 113 111 
3 205 207 206 
3 205 206 204 
3 207 209 208 
3 207 208 206 
3 209 211 210 
3 209 210 208 
3 211 213 212 
3 211 212 210 
3 213 215 214 
3 213 214 212 
3 215 217 216 
3 215 216 214 
3 217 219 218 
3 217 218 216 
3 219 221 220 
3 219 220 218 
3 221 223 222 
3 221 222 220 
3 223 225 224 
3 223 224 222 
3 225 227 226 
3 225 226 224 
3 227 229 228 
3 227 228 226 
3 229 231 230 
3 229 230 228 
3 231 233 232 
3 231 232 230 
3 233 235 234 
3 233 234 232 
3 235 237 236 
3 235 236 234 
3 237 239 238 
3 237 238 236 
3 239 241 240 
3 239 240 238 
3 241 243 242 
3 241 242 240 
3 243 245 244 
3 243 244 242 
3 245 247 246 
3 245 246 244 
3 247 249 248 
3 247 248 246 
3 249 251 250 
3 249 250 248 
3 251 253 252 
3 251 252 250 
3 253 255 254 
3 253 254 252 
3 255 257 256 
3 255 256 254 
3 257 259 258 
3 257 258 256 
3 259 261 260 
3 259 260 258 
3 261 263 262 
3 261 262 260 
3 263 265 264 
3 263 264 262 
3 265 267 266 
3 265 266 264 
3 267 269 268 
3 267 268 266 
3 269 271 270 
3 269 270 268 
3 271 273 272 
3 271 272 270 
3 273 275 274 
3 273 274 272 
3 275 277 276 
3 275 276 274 
3 277 279 278 
3 277 278 276 
3 279 281 280 
3 279 280 278 
3 281 283 282 
3 281 282 280 
3 283 285 284 
3 283 284 282 
3 285 287 286 
3 285 286 284 
3 287 289 288 
3 287 288 286 
3 289 291 290 
3 289 290 288 
3 291 293 292 
3 291 292 290 
3 293 295 294 
3 293 294 292 
3 295 297 296 
3 295 296 294 
3 297 299 298 
3 297 298 296 
3 299 301 300 
3 299 300 298 
3 301 303 302 
3 301 302 300 
3 303 305 304 
3 303 304 302 
3 305 307 306 
3 305 306 304 
3 307 309 308 
3 307 308 306 
3 309 311 310 
3 309 310 308 
3 311 313 312 
3 311 312 310 
3 313 315 314 
3 313 314 312 
3 315 317 316 
3 315 316 314 
3 317 319 318 
3 317 318 316 
3 319 321 320 
3 319 320 318 
3 321 323 322 
3 321 322 320 
3 323 325 324 
3 323 324 322 
3 325 327 326 
3 325 326 324 
3 327 329 328 
3 327 328 326 
3 329 331 330 
3 329 330 328 
3 331 333 332 
3 331 332 330 
3 333 335 334 
3 333 334 332 
3 335 337 336 
3 335 336 334 
3 337 339 338 
3 337 338 336 
3 339 341 340 
3 339 340 338 
3 341 343 342 
3 341 342 340 
3 343 345 344 
3 343 344 342 
3 345 347 346 
3 345 346 344 
3 347 349 348 
3 347 348 346 
3 349 351 350 
3 349 350 348 
3 351 353 352 
3 351 352 350 
3 353 355 354 
3 353 354 352 
3 355 357 356 
3 355 356 354 
3 357 359 358 
3 357 358 356 
3 359 361 360 
3 359 360 358 
3 361 363 362 
3 361 362 360 
3 363 365 364 
3 363 364 362 
3 365 367 366 
3 365 366 364 
3 367 369 368 
3 367 368 366 
3 369 371 370 
3 369 370 368 
3 371 373 372 
3 371 372 370 
3 373 375 374 
3 373 374 372 
3 375 377 376 
3 375 376 374 
3 377 379 378 
3 377 378 376 
3 379 381 380 
3 379 380 378 
3 381 383 382 
3 381 382 380 
3 383 385 384 
3 383 384 382 
3 385 387 386 
3 385 386 384 
3 387 389 388 
3 387 388 386 
3 389 391 390 
3 389 390 388 
3 391 393 392 
3 391 392 390 
3 393 395 394 
3 393 394 392 
3 395 397 396 
3 395 396 394 
3 397 399 398 
3 397 398 396 
3 399 401 400 
3 399 400 398 
3 401 403 402 
3 401 402 400 
3 403 405 404 
3 403 404 402 
3 405 407 406 
3 405 406 404 
3 407 205 204 
3 407 204 406 
