ply
format ascii 1.0
comment VCGLIB generated
element vertex 24
property float x
property float y
property float z
property float nx
property float ny
property float nz
element face 20
property list uchar int vertex_indices
end_header
0.48 0.088 0.1 1.09859e-008 -2.74647e-009 0.062832 
0.48 -4.37114e-009 0.1 6.24688e-009 -1.56172e-009 0.035728 
0.074 -4.37114e-009 0.1 3.285e-008 -8.2125e-009 0.18788 
0.074 0.682 0.1 1.1686e-008 -2.92149e-009 0.066836 
0.172 0.682 0.1 2.1864e-008 -5.46602e-009 0.125048 
0.172 0.088 0.1 1.49171e-008 -3.72928e-009 0.085316 
0.48 0.088 -0.1 -1.09859e-008 2.74647e-009 -0.062832 
0.48 4.37114e-009 -0.1 -6.24688e-009 1.56172e-009 -0.035728 
0.074 4.37114e-009 -0.1 -3.285e-008 8.2125e-009 -0.18788 
0.074 0.682 -0.1 -1.1686e-008 2.92149e-009 -0.066836 
0.172 0.682 -0.1 -2.1864e-008 5.46602e-009 -0.125048 
0.172 0.088 -0.1 -1.49171e-008 3.72928e-009 -0.085316 
0.48 0.088 -0.1 1 2 -8.74228e-008 
0.48 0.088 0.1 2 1 -3.0598e-007 
0.48 4.37114e-009 -0.1 2 -1 -3.93403e-007 
0.48 -4.37114e-009 0.1 1 -2 -2.62269e-007 
0.074 4.37114e-009 -0.1 -1 -2 8.74228e-008 
0.074 -4.37114e-009 0.1 -2 -1 3.0598e-007 
0.074 0.682 -0.1 -2 1 3.93403e-007 
0.074 0.682 0.1 -1 2 2.62269e-007 
0.172 0.682 -0.1 1 2 -8.74228e-008 
0.172 0.682 0.1 2 1 -3.0598e-007 
0.172 0.088 -0.1 2 1 -3.0598e-007 
0.172 0.088 0.1 1 2 -8.74228e-008 
3 2 4 3 
3 2 5 4 
3 2 0 5 
3 2 1 0 
3 10 8 9 
3 11 8 10 
3 6 8 11 
3 7 8 6 
3 13 15 14 
3 13 14 12 
3 15 17 16 
3 15 16 14 
3 17 19 18 
3 17 18 16 
3 19 21 20 
3 19 20 18 
3 21 23 22 
3 21 22 20 
3 23 13 12 
3 23 12 22 
