ply
format ascii 1.0
comment VCGLIB generated
element vertex 200
property float x
property float y
property float z
property float nx
property float ny
property float nz
element face 196
property list uchar int vertex_indices
end_header
0.258 -0.23 0.1 2.84214e-010 -7.10533e-011 0.00162551 
0.229185 -0.19933 0.1 9.74379e-010 -2.43595e-010 0.0055728 
0.20231 -0.166472 0.1 1.14075e-009 -2.85188e-010 0.00652435 
0.177484 -0.131656 0.1 1.29816e-009 -3.24541e-010 0.00742463 
0.154815 -0.095111 0.1 1.44916e-009 -3.62289e-010 0.00828821 
0.134409 -0.057066 0.1 2.1639e-009 -5.40976e-010 0.0123761 
0.116375 -0.01775 0.1 1.81134e-009 -4.52836e-010 0.0103597 
0.10082 0.022608 0.1 1.9436e-009 -4.85901e-010 0.0111161 
0.087852 0.063778 0.1 2.06512e-009 -5.16279e-010 0.0118111 
0.077578 0.105531 0.1 2.17124e-009 -5.42808e-010 0.012418 
0.070106 0.147639 0.1 2.25606e-009 -5.64017e-010 0.0129032 
0.065545 0.189872 0.1 2.31234e-009 -5.78085e-010 0.0132251 
0.064 0.232 0.1 1.51737e-009 -3.79343e-010 0.00867837 
0.065545 0.274128 0.1 2.31234e-009 -5.78086e-010 0.0132251 
0.070107 0.316361 0.1 2.25605e-009 -5.64013e-010 0.0129031 
0.077578 0.358469 0.1 2.17122e-009 -5.42806e-010 0.0124179 
0.087852 0.400222 0.1 2.06512e-009 -5.16279e-010 0.0118111 
0.10082 0.441392 0.1 1.9436e-009 -4.85901e-010 0.0111161 
0.116375 0.48175 0.1 2.34996e-009 -5.87489e-010 0.0134402 
0.134409 0.521066 0.1 1.59501e-009 -3.98751e-010 0.00912237 
0.154815 0.559111 0.1 1.44915e-009 -3.62289e-010 0.0082882 
0.177484 0.595656 0.1 1.29816e-009 -3.24539e-010 0.00742458 
0.20231 0.630472 0.1 1.14077e-009 -2.85193e-010 0.00652446 
0.229185 0.66333 0.1 9.7438e-010 -2.43595e-010 0.0055728 
0.258 0.694 0.1 2.84214e-010 -7.10533e-011 0.00162551 
0.311 0.694 0.1 6.27994e-010 -1.56999e-010 0.00359171 
0.28779 0.661267 0.1 1.08021e-009 -2.70052e-010 0.00617808 
0.266653 0.627555 0.1 1.22917e-009 -3.07293e-010 0.00703004 
0.247578 0.592844 0.1 1.37297e-009 -3.43243e-010 0.00785249 
0.230556 0.557111 0.1 1.51392e-009 -3.78479e-010 0.0086586 
0.215575 0.520337 0.1 1.65294e-009 -4.13235e-010 0.00945372 
0.202625 0.4825 0.1 1.1544e-009 -2.88599e-010 0.00660238 
0.191696 0.44358 0.1 1.85335e-009 -4.63336e-010 0.0105999 
0.182778 0.403556 0.1 1.98724e-009 -4.96811e-010 0.0113657 
0.175859 0.362406 0.1 2.11276e-009 -5.28191e-010 0.0120836 
0.170931 0.320111 0.1 2.22505e-009 -5.56263e-010 0.0127258 
0.167981 0.276649 0.1 2.3179e-009 -5.79474e-010 0.0132568 
0.167 0.232 0.1 3.11588e-009 -7.7897e-010 0.0178207 
0.167981 0.187351 0.1 2.3179e-009 -5.79476e-010 0.0132569 
0.170931 0.143889 0.1 2.22506e-009 -5.56267e-010 0.0127259 
0.175859 0.101594 0.1 2.11276e-009 -5.28191e-010 0.0120836 
0.182778 0.060444 0.1 1.98724e-009 -4.96811e-010 0.0113657 
0.191696 0.02042 0.1 1.85335e-009 -4.63336e-010 0.0105999 
0.202625 -0.0185 0.1 1.71465e-009 -4.28662e-010 0.00980665 
0.215575 -0.056337 0.1 1.0624e-009 -2.65601e-010 0.00607624 
0.230556 -0.093111 0.1 1.51392e-009 -3.78479e-010 0.00865859 
0.247578 -0.128844 0.1 1.37299e-009 -3.43247e-010 0.00785257 
0.266653 -0.163556 0.1 1.22916e-009 -3.07291e-010 0.00703 
0.28779 -0.197267 0.1 1.08019e-009 -2.70048e-010 0.00617799 
0.311 -0.23 0.1 6.27994e-010 -1.56999e-010 0.00359171 
0.258 -0.23 -0.1 -2.84214e-010 7.10533e-011 -0.00162551 
0.229185 -0.19933 -0.1 -9.74379e-010 2.43595e-010 -0.0055728 
0.20231 -0.166472 -0.1 -1.14075e-009 2.85188e-010 -0.00652435 
0.177484 -0.131656 -0.1 -1.29816e-009 3.24541e-010 -0.00742463 
0.154815 -0.095111 -0.1 -1.44916e-009 3.62289e-010 -0.0082882 
0.134409 -0.057066 -0.1 -2.1639e-009 5.40976e-010 -0.0123761 
0.116375 -0.01775 -0.1 -1.81134e-009 4.52836e-010 -0.0103597 
0.10082 0.022608 -0.1 -1.9436e-009 4.85901e-010 -0.0111161 
0.087852 0.063778 -0.1 -2.06512e-009 5.16279e-010 -0.0118111 
0.077578 0.105531 -0.1 -2.17124e-009 5.42808e-010 -0.012418 
0.070106 0.147639 -0.1 -2.25606e-009 5.64017e-010 -0.0129032 
0.065545 0.189872 -0.1 -2.31234e-009 5.78085e-010 -0.0132251 
0.064 0.232 -0.1 -1.51737e-009 3.79343e-010 -0.00867837 
0.065545 0.274128 -0.1 -2.31234e-009 5.78086e-010 -0.0132251 
0.070107 0.316361 -0.1 -2.25605e-009 5.64013e-010 -0.0129031 
0.077578 0.358469 -0.1 -2.17122e-009 5.42806e-010 -0.0124179 
0.087852 0.400222 -0.1 -2.06512e-009 5.16279e-010 -0.0118111 
0.10082 0.441392 -0.1 -1.9436e-009 4.85901e-010 -0.0111161 
0.116375 0.48175 -0.1 -2.34996e-009 5.87489e-010 -0.0134402 
0.134409 0.521066 -0.1 -1.59501e-009 3.98751e-010 -0.00912237 
0.154815 0.559111 -0.1 -1.44915e-009 3.62289e-010 -0.0082882 
0.177484 0.595656 -0.1 -1.29816e-009 3.24539e-010 -0.00742458 
0.20231 0.630472 -0.1 -1.14077e-009 2.85193e-010 -0.00652446 
0.229185 0.66333 -0.1 -9.7438e-010 2.43595e-010 -0.0055728 
0.258 0.694 -0.1 -2.84214e-010 7.10533e-011 -0.00162551 
0.311 0.694 -0.1 -6.27994e-010 1.56999e-010 -0.00359171 
0.28779 0.661267 -0.1 -1.08021e-009 2.70052e-010 -0.00617808 
0.266653 0.627555 -0.1 -1.22917e-009 3.07293e-010 -0.00703004 
0.247578 0.592844 -0.1 -1.37297e-009 3.43243e-010 -0.00785249 
0.230556 0.557111 -0.1 -1.51392e-009 3.78479e-010 -0.0086586 
0.215575 0.520337 -0.1 -1.65294e-009 4.13235e-010 -0.00945372 
0.202625 0.4825 -0.1 -1.1544e-009 2.88599e-010 -0.00660238 
0.191696 0.44358 -0.1 -1.85335e-009 4.63336e-010 -0.0105999 
0.182778 0.403556 -0.1 -1.98724e-009 4.96811e-010 -0.0113657 
0.175859 0.362406 -0.1 -2.11276e-009 5.28191e-010 -0.0120836 
0.170931 0.320111 -0.1 -2.22505e-009 5.56263e-010 -0.0127258 
0.167981 0.276649 -0.1 -2.3179e-009 5.79474e-010 -0.0132568 
0.167 0.232 -0.1 -3.11588e-009 7.7897e-010 -0.0178207 
0.167981 0.187351 -0.1 -2.3179e-009 5.79476e-010 -0.0132569 
0.170931 0.143889 -0.1 -2.22506e-009 5.56267e-010 -0.0127259 
0.175859 0.101594 -0.1 -2.11276e-009 5.28191e-010 -0.0120836 
0.182778 0.060444 -0.1 -1.98724e-009 4.96811e-010 -0.0113657 
0.191696 0.02042 -0.1 -1.85335e-009 4.63336e-010 -0.0105999 
0.202625 -0.0185 -0.1 -1.71465e-009 4.28662e-010 -0.00980665 
0.215575 -0.056337 -0.1 -1.0624e-009 2.65601e-010 -0.00607624 
0.230556 -0.093111 -0.1 -1.51392e-009 3.78479e-010 -0.00865859 
0.247578 -0.128844 -0.1 -1.37299e-009 3.43247e-010 -0.00785257 
0.266653 -0.163556 -0.1 -1.22916e-009 3.07291e-010 -0.00703 
0.28779 -0.197267 -0.1 -1.08019e-009 2.70048e-010 -0.00617799 
0.311 -0.23 -0.1 -6.27994e-010 1.56999e-010 -0.00359171 
0.258 -0.23 -0.1 -0.728803 -2.68472 1.0075e-008 
0.258 -0.23 0.1 -1.45761 -2.36945 1.51285e-007 
0.229185 -0.19933 -0.1 -2.23167 -2.00256 3.02663e-007 
0.229185 -0.19933 0.1 -2.27692 -1.95095 3.12831e-007 
0.20231 -0.166472 -0.1 -2.36232 -1.84681 3.32315e-007 
0.20231 -0.166472 0.1 -2.40247 -1.79427 3.41631e-007 
0.177484 -0.131656 -0.1 -2.4782 -1.68828 3.59505e-007 
0.177484 -0.131656 0.1 -2.51378 -1.63483 3.68063e-007 
0.154815 -0.095111 -0.1 -2.58082 -1.52692 3.845e-007 
0.154815 -0.095111 0.1 -2.61227 -1.47246 3.92381e-007 
0.134409 -0.057066 -0.1 -2.67142 -1.36226 4.0754e-007 
0.134409 -0.057066 0.1 -2.69912 -1.30652 4.1482e-007 
0.116375 -0.01775 -0.1 -2.75097 -1.19349 4.28826e-007 
0.116375 -0.01775 0.1 -2.77512 -1.1362 4.35553e-007 
0.10082 0.022608 -0.1 -2.81999 -1.01971 4.48489e-007 
0.10082 0.022608 0.1 -2.8407 -0.960507 4.54698e-007 
0.087852 0.063778 -0.1 -2.87864 -0.839809 4.66608e-007 
0.087852 0.063778 0.1 -2.89587 -0.778312 4.72309e-007 
0.077578 0.105531 -0.1 -2.92669 -0.652596 4.83192e-007 
0.077578 0.105531 0.1 -2.94027 -0.588377 4.88375e-007 
0.070106 0.147639 -0.1 -2.96346 -0.45681 4.9818e-007 
0.070106 0.147639 0.1 -2.97306 -0.389463 5.02802e-007 
0.065545 0.189872 -0.1 -2.98777 -0.251393 5.11409e-007 
0.065545 0.189872 0.1 -2.99288 -0.18067 5.15394e-007 
0.064 0.232 -0.1 -2.99798 -0.0366492 5.22582e-007 
0.064 0.232 0.1 -2.99798 0.0366492 5.25786e-007 
0.065545 0.274128 -0.1 -2.99287 0.180693 5.31189e-007 
0.065545 0.274128 0.1 -2.98776 0.251439 5.33387e-007 
0.070107 0.316361 -0.1 -2.97306 0.389486 5.36851e-007 
0.070107 0.316361 0.1 -2.96346 0.456788 5.38115e-007 
0.077578 0.358469 -0.1 -2.94028 0.588332 5.39811e-007 
0.077578 0.358469 0.1 -2.92669 0.652574 5.40243e-007 
0.087852 0.400222 -0.1 -2.89587 0.778312 5.40351e-007 
0.087852 0.400222 0.1 -2.87864 0.839809 5.40027e-007 
0.10082 0.441392 -0.1 -2.8407 0.960507 5.38669e-007 
0.10082 0.441392 0.1 -2.81999 1.01971 5.37635e-007 
0.116375 0.48175 -0.1 -2.77512 1.1362 5.34883e-007 
0.116375 0.48175 0.1 -2.75097 1.19349 5.33164e-007 
0.134409 0.521066 -0.1 -2.69912 1.30652 5.29039e-007 
0.134409 0.521066 0.1 -2.67142 1.36226 5.26632e-007 
0.154815 0.559111 -0.1 -2.61227 1.47246 5.21107e-007 
0.154815 0.559111 0.1 -2.58081 1.52692 5.17988e-007 
0.177484 0.595656 -0.1 -2.51378 1.63483 5.10984e-007 
0.177484 0.595656 0.1 -2.4782 1.68828 5.07099e-007 
0.20231 0.630472 -0.1 -2.40247 1.79427 4.98491e-007 
0.20231 0.630472 0.1 -2.36232 1.8468 4.93768e-007 
0.229185 0.66333 -0.1 -2.27692 1.95095 4.83389e-007 
0.229185 0.66333 0.1 -2.23167 2.00256 4.77732e-007 
0.258 0.694 -0.1 -1.45761 2.36945 3.58428e-007 
0.258 0.694 0.1 -0.728803 2.68472 2.44781e-007 
0.311 0.694 -0.1 0.815741 1.42158 -8.04893e-008 
0.311 0.694 0.1 1.63148 -0.156834 -2.92113e-007 
0.28779 0.661267 -0.1 2.47872 -1.68804 -5.07181e-007 
0.28779 0.661267 0.1 2.51022 -1.64084 -5.10624e-007 
0.266653 0.627555 -0.1 2.57087 -1.54403 -5.16997e-007 
0.266653 0.627555 0.1 2.60001 -1.49442 -5.19924e-007 
0.247578 0.592844 -0.1 2.65557 -1.39328 -5.25217e-007 
0.247578 0.592844 0.1 2.68198 -1.34173 -5.27582e-007 
0.230556 0.557111 -0.1 2.7317 -1.2374 -5.31714e-007 
0.230556 0.557111 0.1 2.755 -1.18461 -5.33481e-007 
0.215575 0.520337 -0.1 2.79832 -1.07837 -5.36411e-007 
0.215575 0.520337 0.1 2.81834 -1.02491 -5.37574e-007 
0.202625 0.4825 -0.1 2.855 -0.917983 -5.3931e-007 
0.202625 0.4825 0.1 2.87164 -0.864517 -5.39883e-007 
0.191696 0.44358 -0.1 2.90159 -0.758184 -5.40471e-007 
0.191696 0.44358 0.1 2.91489 -0.705316 -5.40486e-007 
0.182778 0.403556 -0.1 2.93828 -0.600779 -5.40007e-007 
0.182778 0.403556 0.1 2.94838 -0.54911 -5.39514e-007 
0.175859 0.362406 -0.1 2.96559 -0.447359 -5.38075e-007 
0.175859 0.362406 0.1 2.97272 -0.397278 -5.37132e-007 
0.170931 0.320111 -0.1 2.98427 -0.299184 -5.34863e-007 
0.170931 0.320111 0.1 2.98869 -0.251171 -5.33539e-007 
0.167981 0.276649 -0.1 2.99517 -0.157405 -5.30572e-007 
0.167981 0.276649 0.1 2.99722 -0.111652 -5.28931e-007 
0.167 0.232 -0.1 2.99928 -0.0219661 -5.2537e-007 
0.167 0.232 0.1 2.99928 0.0219662 -5.2345e-007 
0.167981 0.187351 -0.1 2.99722 0.111652 -5.1917e-007 
0.167981 0.187351 0.1 2.99517 0.157405 -5.16811e-007 
0.170931 0.143889 -0.1 2.98869 0.251171 -5.1158e-007 
0.170931 0.143889 0.1 2.98427 0.299184 -5.08708e-007 
0.175859 0.101594 -0.1 2.97272 0.397278 -5.02401e-007 
0.175859 0.101594 0.1 2.96559 0.447359 -4.98966e-007 
0.182778 0.060444 -0.1 2.94838 0.54911 -4.91509e-007 
0.182778 0.060444 0.1 2.93829 0.600779 -4.87485e-007 
0.191696 0.02042 -0.1 2.91489 0.705316 -4.78825e-007 
0.191696 0.02042 0.1 2.90159 0.758183 -4.74189e-007 
0.202625 -0.0185 -0.1 2.87164 0.864517 -4.64305e-007 
0.202625 -0.0185 0.1 2.855 0.917983 -4.59058e-007 
0.215575 -0.056337 -0.1 2.81834 1.02491 -4.47974e-007 
0.215575 -0.056337 0.1 2.79832 1.07837 -4.42137e-007 
0.230556 -0.093111 -0.1 2.755 1.18461 -4.29919e-007 
0.230556 -0.093111 0.1 2.7317 1.2374 -4.23537e-007 
0.247578 -0.128844 -0.1 2.68199 1.34172 -4.10285e-007 
0.247578 -0.128844 0.1 2.65558 1.39326 -4.03415e-007 
0.266653 -0.163556 -0.1 2.60002 1.49441 -3.89279e-007 
0.266653 -0.163556 0.1 2.57086 1.54404 -3.82012e-007 
0.28779 -0.197267 -0.1 2.51021 1.64086 -3.67175e-007 
0.28779 -0.197267 0.1 2.47872 1.68806 -3.59606e-007 
0.311 -0.23 -0.1 1.63148 0.156835 -2.78402e-007 
0.311 -0.23 0.1 0.815741 -1.42158 -2.04768e-007 
3 23 25 24 
3 23 26 25 
3 22 26 23 
3 22 27 26 
3 21 27 22 
3 21 28 27 
3 20 28 21 
3 20 29 28 
3 19 29 20 
3 19 30 29 
3 18 30 19 
3 18 31 30 
3 18 32 31 
3 17 32 18 
3 17 33 32 
3 16 33 17 
3 16 34 33 
3 15 34 16 
3 15 35 34 
3 14 35 15 
3 14 36 35 
3 13 36 14 
3 13 37 36 
3 12 37 13 
3 11 37 12 
3 11 38 37 
3 10 38 11 
3 10 39 38 
3 9 39 10 
3 9 40 39 
3 8 40 9 
3 8 41 40 
3 7 41 8 
3 7 42 41 
3 6 42 7 
3 6 43 42 
3 5 43 6 
3 5 44 43 
3 5 45 44 
3 4 45 5 
3 4 46 45 
3 3 46 4 
3 3 47 46 
3 2 47 3 
3 2 48 47 
3 1 48 2 
3 1 49 48 
3 0 49 1 
3 75 73 74 
3 76 73 75 
3 76 72 73 
3 77 72 76 
3 77 71 72 
3 78 71 77 
3 78 70 71 
3 79 70 78 
3 79 69 70 
3 80 69 79 
3 80 68 69 
3 81 68 80 
3 82 68 81 
3 82 67 68 
3 83 67 82 
3 83 66 67 
3 84 66 83 
3 84 65 66 
3 85 65 84 
3 85 64 65 
3 86 64 85 
3 86 63 64 
3 87 63 86 
3 87 62 63 
3 87 61 62 
3 88 61 87 
3 88 60 61 
3 89 60 88 
3 89 59 60 
3 90 59 89 
3 90 58 59 
3 91 58 90 
3 91 57 58 
3 92 57 91 
3 92 56 57 
3 93 56 92 
3 93 55 56 
3 94 55 93 
3 95 55 94 
3 95 54 55 
3 96 54 95 
3 96 53 54 
3 97 53 96 
3 97 52 53 
3 98 52 97 
3 98 51 52 
3 99 51 98 
3 99 50 51 
3 101 103 102 
3 101 102 100 
3 103 105 104 
3 103 104 102 
3 105 107 106 
3 105 106 104 
3 107 109 108 
3 107 108 106 
3 109 111 110 
3 109 110 108 
3 111 113 112 
3 111 112 110 
3 113 115 114 
3 113 114 112 
3 115 117 116 
3 115 116 114 
3 117 119 118 
3 117 118 116 
3 119 121 120 
3 119 120 118 
3 121 123 122 
3 121 122 120 
3 123 125 124 
3 123 124 122 
3 125 127 126 
3 125 126 124 
3 127 129 128 
3 127 128 126 
3 129 131 130 
3 129 130 128 
3 131 133 132 
3 131 132 130 
3 133 135 134 
3 133 134 132 
3 135 137 136 
3 135 136 134 
3 137 139 138 
3 137 138 136 
3 139 141 140 
3 139 140 138 
3 141 143 142 
3 141 142 140 
3 143 145 144 
3 143 144 142 
3 145 147 146 
3 145 146 144 
3 147 149 148 
3 147 148 146 
3 149 151 150 
3 149 150 148 
3 151 153 152 
3 151 152 150 
3 153 155 154 
3 153 154 152 
3 155 157 156 
3 155 156 154 
3 157 159 158 
3 157 158 156 
3 159 161 160 
3 159 160 158 
3 161 163 162 
3 161 162 160 
3 163 165 164 
3 163 164 162 
3 165 167 166 
3 165 166 164 
3 167 169 168 
3 167 168 166 
3 169 171 170 
3 169 170 168 
3 171 173 172 
3 171 172 170 
3 173 175 174 
3 173 174 172 
3 175 177 176 
3 175 176 174 
3 177 179 178 
3 177 178 176 
3 179 181 180 
3 179 180 178 
3 181 183 182 
3 181 182 180 
3 183 185 184 
3 183 184 182 
3 185 187 186 
3 185 186 184 
3 187 189 188 
3 187 188 186 
3 189 191 190 
3 189 190 188 
3 191 193 192 
3 191 192 190 
3 193 195 194 
3 193 194 192 
3 195 197 196 
3 195 196 194 
3 197 199 198 
3 197 198 196 
3 199 101 100 
3 199 100 198 
