ply
format ascii 1.0
comment VCGLIB generated
element vertex 48
property float x
property float y
property float z
property float nx
property float ny
property float nz
element face 44
property list uchar int vertex_indices
end_header
0.333 0.394 0.1 6.76722e-009 -1.69181e-009 0.038704 
0.528 0.394 0.1 9.563e-009 -2.39075e-009 0.054694 
0.528 0.312 0.1 6.76722e-009 -1.69181e-009 0.038704 
0.333 0.312 0.1 5.59156e-009 -1.39789e-009 0.03198 
0.333 0.117 0.1 2.79578e-009 -6.98945e-010 0.01599 
0.251 0.117 0.1 5.59156e-009 -1.39789e-009 0.03198 
0.251 0.312 0.1 2.79578e-009 -6.98945e-010 0.01599 
0.056 0.312 0.1 1.35344e-008 -3.38361e-009 0.077408 
0.056 0.394 0.1 2.79578e-009 -6.98945e-010 0.01599 
0.251 0.394 0.1 9.563e-009 -2.39075e-009 0.054694 
0.251 0.589 0.1 2.79578e-009 -6.98945e-010 0.01599 
0.333 0.589 0.1 5.59156e-009 -1.39789e-009 0.03198 
0.333 0.394 -0.1 -6.76722e-009 1.69181e-009 -0.038704 
0.528 0.394 -0.1 -9.563e-009 2.39075e-009 -0.054694 
0.528 0.312 -0.1 -6.76722e-009 1.69181e-009 -0.038704 
0.333 0.312 -0.1 -5.59156e-009 1.39789e-009 -0.03198 
0.333 0.117 -0.1 -2.79578e-009 6.98945e-010 -0.01599 
0.251 0.117 -0.1 -5.59156e-009 1.39789e-009 -0.03198 
0.251 0.312 -0.1 -2.79578e-009 6.98945e-010 -0.01599 
0.056 0.312 -0.1 -1.35344e-008 3.38361e-009 -0.077408 
0.056 0.394 -0.1 -2.79578e-009 6.98945e-010 -0.01599 
0.251 0.394 -0.1 -9.563e-009 2.39075e-009 -0.054694 
0.251 0.589 -0.1 -2.79578e-009 6.98945e-010 -0.01599 
0.333 0.589 -0.1 -5.59156e-009 1.39789e-009 -0.03198 
0.333 0.394 -0.1 2 1 -3.0598e-007 
0.333 0.394 0.1 1 2 -8.74228e-008 
0.528 0.394 -0.1 1 2 -8.74228e-008 
0.528 0.394 0.1 2 1 -3.0598e-007 
0.528 0.312 -0.1 2 -1 -3.93403e-007 
0.528 0.312 0.1 1 -2 -2.62269e-007 
0.333 0.312 -0.1 1 -2 -2.62269e-007 
0.333 0.312 0.1 2 -1 -3.93403e-007 
0.333 0.117 -0.1 2 -1 -3.93403e-007 
0.333 0.117 0.1 1 -2 -2.62269e-007 
0.251 0.117 -0.1 -1 -2 8.74228e-008 
0.251 0.117 0.1 -2 -1 3.0598e-007 
0.251 0.312 -0.1 -2 -1 3.0598e-007 
0.251 0.312 0.1 -1 -2 8.74228e-008 
0.056 0.312 -0.1 -1 -2 8.74228e-008 
0.056 0.312 0.1 -2 -1 3.0598e-007 
0.056 0.394 -0.1 -2 1 3.93403e-007 
0.056 0.394 0.1 -1 2 2.62269e-007 
0.251 0.394 -0.1 -1 2 2.62269e-007 
0.251 0.394 0.1 -2 1 3.93403e-007 
0.251 0.589 -0.1 -2 1 3.93403e-007 
0.251 0.589 0.1 -1 2 2.62269e-007 
0.333 0.589 -0.1 1 2 -8.74228e-008 
0.333 0.589 0.1 2 1 -3.0598e-007 
3 9 11 10 
3 9 0 11 
3 7 9 8 
3 7 0 9 
3 7 1 0 
3 7 2 1 
3 6 2 7 
3 5 3 6 
3 3 2 6 
3 5 4 3 
3 23 21 22 
3 12 21 23 
3 21 19 20 
3 12 19 21 
3 13 19 12 
3 14 19 13 
3 14 18 19 
3 15 17 18 
3 14 15 18 
3 16 17 15 
3 25 27 26 
3 25 26 24 
3 27 29 28 
3 27 28 26 
3 29 31 30 
3 29 30 28 
3 31 33 32 
3 31 32 30 
3 33 35 34 
3 33 34 32 
3 35 37 36 
3 35 36 34 
3 37 39 38 
3 37 38 36 
3 39 41 40 
3 39 40 38 
3 41 43 42 
3 41 42 40 
3 43 45 44 
3 43 44 42 
3 45 47 46 
3 45 46 44 
3 47 25 24 
3 47 24 46 
