ply
format ascii 1.0
comment VCGLIB generated
element vertex 24
property float x
property float y
property float z
property float nx
property float ny
property float nz
element face 20
property list uchar int vertex_indices
end_header
0.094 0.029 0.1 1.01795e-008 -2.54488e-009 0.05822 
0.344 0.589 0.1 2.75914e-008 -6.89783e-009 0.157804 
0.049 0.589 0.1 1.19678e-008 -2.99196e-009 0.068448 
0.049 0.682 0.1 7.17094e-009 -1.79274e-009 0.041013 
0.49 0.682 0.1 2.45828e-008 -6.14569e-009 0.140597 
0.181 -0.009 0.1 2.27944e-008 -5.69861e-009 0.130369 
0.094 0.029 -0.1 -1.01795e-008 2.54488e-009 -0.05822 
0.344 0.589 -0.1 -2.75914e-008 6.89783e-009 -0.157804 
0.049 0.589 -0.1 -1.19678e-008 2.99196e-009 -0.068448 
0.049 0.682 -0.1 -7.17094e-009 1.79274e-009 -0.041013 
0.49 0.682 -0.1 -2.45828e-008 6.14569e-009 -0.140597 
0.181 -0.00899999 -0.1 -2.27944e-008 5.69861e-009 -0.130369 
0.094 0.029 -0.1 -1.71367 -1.42515 2.37332e-007 
0.094 0.029 0.1 -2.22654 -0.101097 3.84881e-007 
0.344 0.589 -0.1 -1.82628 -0.184698 3.11243e-007 
0.344 0.589 0.1 -0.913138 -1.59235 9.00543e-008 
0.049 0.589 -0.1 -1 -2 8.74228e-008 
0.049 0.589 0.1 -2 -1 3.0598e-007 
0.049 0.682 -0.1 -2 1 3.93403e-007 
0.049 0.682 0.1 -1 2 2.62269e-007 
0.49 0.682 -0.1 0.912883 1.59178 -9.00347e-008 
0.49 0.682 0.1 1.82577 0.183558 -3.11204e-007 
0.181 -0.00899999 -0.1 1.4255 -1.73284 -3.24987e-007 
0.181 -0.009 0.1 0.112351 -2.24102 -1.17602e-007 
3 2 4 3 
3 2 1 4 
3 1 5 4 
3 0 5 1 
3 10 8 9 
3 7 8 10 
3 11 7 10 
3 11 6 7 
3 13 15 14 
3 13 14 12 
3 15 17 16 
3 15 16 14 
3 17 19 18 
3 17 18 16 
3 19 21 20 
3 19 20 18 
3 21 23 22 
3 21 22 20 
3 23 13 12 
3 23 12 22 
