ply
format ascii 1.0
comment VCGLIB generated
element vertex 428
property float x
property float y
property float z
property float nx
property float ny
property float nz
element face 424
property list uchar int vertex_indices
end_header
0.285787 0.217741 0.1 3.7119e-010 -9.27974e-011 0.00212296 
0.269046 0.214009 0.1 1.4248e-010 -3.562e-011 0.000814891 
0.254625 0.207875 0.1 2.37886e-010 -5.94715e-011 0.00136055 
0.24237 0.199407 0.1 5.5709e-010 -1.39272e-010 0.00318618 
0.23213 0.188676 0.1 3.57493e-010 -8.93733e-011 0.00204462 
0.22375 0.17575 0.1 6.80815e-010 -1.70204e-010 0.00389381 
0.217079 0.160699 0.1 7.5823e-010 -1.89557e-010 0.00433657 
0.211963 0.143593 0.1 8.43316e-010 -2.10829e-010 0.00482321 
0.20825 0.1245 0.1 9.35006e-010 -2.33752e-010 0.00534761 
0.205787 0.103491 0.1 6.22255e-010 -1.55564e-010 0.00355888 
0.204421 0.080634 0.1 1.08665e-009 -2.71663e-010 0.00621493 
0.204 0.056 0.1 2.0717e-009 -5.17923e-010 0.0118487 
0.204 -0.032 0.1 2.69342e-009 -6.73356e-010 0.0154046 
0.203249 -0.05987 0.1 1.28473e-009 -3.21183e-010 0.00734781 
0.200912 -0.085463 0.1 1.0911e-009 -2.72775e-010 0.00624036 
0.196859 -0.10875 0.1 9.45427e-010 -2.36357e-010 0.00540721 
0.190963 -0.129704 0.1 9.63027e-010 -2.40757e-010 0.00550787 
0.183094 -0.148296 0.1 2.86886e-009 -7.17216e-010 0.016408 
0.173125 -0.1645 0.1 6.10876e-010 -1.52719e-010 0.0034938 
0.160927 -0.178287 0.1 4.5768e-010 -1.1442e-010 0.00261762 
0.14637 -0.18963 0.1 3.23466e-010 -8.08664e-011 0.00185001 
0.129328 -0.1985 0.1 2.09535e-010 -5.23838e-011 0.0011984 
0.109671 -0.20487 0.1 1.17045e-010 -2.92612e-011 0.000669418 
0.087271 -0.208713 0.1 4.6921e-011 -1.17303e-011 0.000268357 
0.062 -0.21 0.1 8.77601e-012 -2.194e-012 5.01929e-005 
0.023 -0.21 0.1 3.22502e-009 -8.06257e-010 0.018445 
0.023 -0.134 0.1 1.99324e-010 -4.9831e-011 0.00114 
0.038 -0.134 0.1 2.21596e-009 -5.53988e-010 0.0126738 
0.054358 -0.133598 0.1 1.17124e-010 -2.92809e-011 0.000669869 
0.068528 -0.132282 0.1 1.4789e-010 -3.69725e-011 0.000845833 
0.080656 -0.129891 0.1 5.09888e-010 -1.27472e-010 0.00291622 
0.090889 -0.126259 0.1 1.62907e-010 -4.07267e-011 0.000931717 
0.099372 -0.121225 0.1 2.09084e-010 -5.22708e-011 0.00119582 
0.10625 -0.114625 0.1 5.68186e-010 -1.42046e-010 0.00324964 
0.11167 -0.106296 0.1 2.80404e-010 -7.0101e-011 0.00160372 
0.115778 -0.096074 0.1 6.70424e-010 -1.67606e-010 0.00383438 
0.118719 -0.083797 0.1 3.86172e-010 -9.65432e-011 0.00220865 
0.120639 -0.069301 0.1 8.16756e-010 -2.04189e-010 0.0046713 
0.121684 -0.052423 0.1 5.19471e-010 -1.29868e-010 0.00297103 
0.122 -0.033 0.1 1.70915e-009 -4.27287e-010 0.00977518 
0.122 0.039 0.1 2.75216e-009 -6.88041e-010 0.0157405 
0.122575 0.071077 0.1 1.22022e-009 -3.05054e-010 0.00697883 
0.124347 0.099949 0.1 1.39904e-009 -3.49761e-010 0.0080016 
0.127391 0.125828 0.1 9.653e-010 -2.41325e-010 0.00552087 
0.131778 0.148926 0.1 8.66739e-010 -2.16685e-010 0.00495717 
0.137582 0.169454 0.1 7.79371e-010 -1.94843e-010 0.00445748 
0.144875 0.187625 0.1 8.78158e-010 -2.1954e-010 0.00502248 
0.153731 0.20365 0.1 8.37242e-010 -2.09311e-010 0.00478847 
0.164222 0.217741 0.1 6.28012e-010 -1.57003e-010 0.00359181 
0.176422 0.230109 0.1 5.73026e-010 -1.43257e-010 0.00327733 
0.190403 0.240968 0.1 5.23634e-010 -1.30909e-010 0.00299484 
0.206238 0.250527 0.1 4.96577e-010 -1.24144e-010 0.00284009 
0.224 0.259 0.1 2.70856e-010 -6.77142e-011 0.00154912 
0.206238 0.267473 0.1 6.22738e-012 -1.55685e-012 3.56165e-005 
0.190403 0.277032 0.1 1.02353e-010 -2.55883e-011 0.000585392 
0.176422 0.287891 0.1 2.17597e-009 -5.43992e-010 0.0124451 
0.164222 0.300259 0.1 7.70492e-010 -1.92623e-010 0.0044067 
0.153731 0.31435 0.1 7.97916e-010 -1.99479e-010 0.00456355 
0.144875 0.330375 0.1 7.0425e-010 -1.76063e-010 0.00402784 
0.137582 0.348546 0.1 7.79371e-010 -1.94843e-010 0.00445748 
0.131778 0.369074 0.1 8.66739e-010 -2.16685e-010 0.00495717 
0.127391 0.392172 0.1 1.26293e-009 -3.15733e-010 0.00722312 
0.124347 0.418051 0.1 1.10145e-009 -2.75363e-010 0.00629956 
0.122575 0.446923 0.1 1.22022e-009 -3.05054e-010 0.00697883 
0.122 0.479 0.1 2.75216e-009 -6.88041e-010 0.0157405 
0.122 0.551 0.1 1.31071e-009 -3.27677e-010 0.00749637 
0.121684 0.570423 0.1 9.18922e-010 -2.2973e-010 0.00525562 
0.120639 0.587301 0.1 4.48276e-010 -1.12069e-010 0.00256384 
0.118719 0.601797 0.1 7.51984e-010 -1.87996e-010 0.00430085 
0.115778 0.614074 0.1 3.21826e-010 -8.04567e-011 0.00184063 
0.11167 0.624296 0.1 6.19518e-010 -1.5488e-010 0.00354323 
0.10625 0.632625 0.1 2.23881e-010 -5.59703e-011 0.00128045 
0.099372 0.639225 0.1 1.64798e-010 -4.11995e-011 0.000942534 
0.090889 0.644259 0.1 5.07211e-010 -1.26803e-010 0.00290091 
0.080656 0.647891 0.1 1.15434e-010 -2.88584e-011 0.000660203 
0.068528 0.650282 0.1 6.75024e-011 -1.68756e-011 0.000386069 
0.054358 0.651598 0.1 5.11579e-010 -1.27895e-010 0.00292589 
0.038 0.652 0.1 8.85814e-011 -2.21453e-011 0.000506626 
0.023 0.652 0.1 3.22502e-009 -8.06256e-010 0.018445 
0.023 0.728 0.1 5.18242e-010 -1.29561e-010 0.002964 
0.062 0.728 0.1 8.62826e-010 -2.15706e-010 0.00493479 
0.087271 0.726713 0.1 6.80386e-010 -1.70096e-010 0.00389135 
0.109671 0.72287 0.1 6.7591e-010 -1.68977e-010 0.00386575 
0.129328 0.7165 0.1 6.97202e-010 -1.743e-010 0.00398753 
0.14637 0.70763 0.1 7.43362e-010 -1.8584e-010 0.00425153 
0.160927 0.696287 0.1 8.13206e-010 -2.03302e-010 0.004651 
0.173125 0.6825 0.1 9.05436e-010 -2.26359e-010 0.00517849 
0.183094 0.666296 0.1 1.00579e-009 -2.51446e-010 0.00575242 
0.190963 0.647704 0.1 9.46119e-010 -2.3653e-010 0.00541117 
0.196859 0.62675 0.1 1.00997e-009 -2.52493e-010 0.00577638 
0.200912 0.603463 0.1 1.0389e-009 -2.59726e-010 0.00594183 
0.203249 0.57787 0.1 1.2152e-009 -3.03799e-010 0.00695011 
0.204 0.55 0.1 2.97084e-009 -7.42708e-010 0.0169912 
0.204 0.462 0.1 2.0717e-009 -5.17924e-010 0.0118487 
0.204421 0.437366 0.1 1.08665e-009 -2.71663e-010 0.00621493 
0.205787 0.414509 0.1 9.88836e-010 -2.47209e-010 0.00565548 
0.20825 0.3935 0.1 5.6839e-010 -1.42097e-010 0.00325081 
0.211963 0.374407 0.1 8.43317e-010 -2.10829e-010 0.00482321 
0.217079 0.357301 0.1 7.5823e-010 -1.89557e-010 0.00433657 
0.22375 0.34225 0.1 6.80815e-010 -1.70204e-010 0.00389381 
0.23213 0.329324 0.1 6.12421e-010 -1.53105e-010 0.00350264 
0.24237 0.318593 0.1 3.14238e-010 -7.85593e-011 0.00179723 
0.254625 0.310125 0.1 5.02992e-010 -1.25748e-010 0.00287678 
0.269046 0.303991 0.1 2.01158e-010 -5.02895e-011 0.00115049 
0.285787 0.300259 0.1 1.06084e-010 -2.6521e-011 0.00060673 
0.305 0.299 0.1 2.12701e-009 -5.31752e-010 0.0121651 
0.305 0.219 0.1 2.991e-009 -7.47748e-010 0.0171065 
0.285787 0.217741 -0.1 -3.7119e-010 9.27974e-011 -0.00212296 
0.269046 0.214009 -0.1 -1.4248e-010 3.562e-011 -0.00081489 
0.254625 0.207875 -0.1 -2.37886e-010 5.94715e-011 -0.00136055 
0.24237 0.199407 -0.1 -5.5709e-010 1.39272e-010 -0.00318618 
0.23213 0.188676 -0.1 -3.57492e-010 8.93732e-011 -0.00204462 
0.22375 0.17575 -0.1 -6.80815e-010 1.70204e-010 -0.00389381 
0.217079 0.160699 -0.1 -7.5823e-010 1.89557e-010 -0.00433657 
0.211963 0.143593 -0.1 -8.43316e-010 2.10829e-010 -0.00482321 
0.20825 0.1245 -0.1 -9.35006e-010 2.33752e-010 -0.00534761 
0.205787 0.103491 -0.1 -6.22255e-010 1.55564e-010 -0.00355888 
0.204421 0.080634 -0.1 -1.08665e-009 2.71663e-010 -0.00621493 
0.204 0.056 -0.1 -2.0717e-009 5.17923e-010 -0.0118487 
0.204 -0.032 -0.1 -2.69342e-009 6.73356e-010 -0.0154046 
0.203249 -0.05987 -0.1 -1.28473e-009 3.21183e-010 -0.00734781 
0.200912 -0.085463 -0.1 -1.0911e-009 2.72775e-010 -0.00624036 
0.196859 -0.10875 -0.1 -9.45427e-010 2.36357e-010 -0.00540721 
0.190963 -0.129704 -0.1 -9.63027e-010 2.40757e-010 -0.00550787 
0.183094 -0.148296 -0.1 -2.86886e-009 7.17216e-010 -0.016408 
0.173125 -0.1645 -0.1 -6.10876e-010 1.52719e-010 -0.0034938 
0.160927 -0.178287 -0.1 -4.5768e-010 1.1442e-010 -0.00261762 
0.14637 -0.18963 -0.1 -3.23466e-010 8.08664e-011 -0.00185001 
0.129328 -0.1985 -0.1 -2.09535e-010 5.23838e-011 -0.0011984 
0.109671 -0.20487 -0.1 -1.17045e-010 2.92612e-011 -0.000669418 
0.087271 -0.208713 -0.1 -4.6921e-011 1.17303e-011 -0.000268357 
0.062 -0.21 -0.1 -8.77601e-012 2.194e-012 -5.01929e-005 
0.023 -0.21 -0.1 -3.22502e-009 8.06257e-010 -0.018445 
0.023 -0.134 -0.1 -1.99324e-010 4.9831e-011 -0.00114 
0.038 -0.134 -0.1 -2.21596e-009 5.53988e-010 -0.0126738 
0.054358 -0.133598 -0.1 -1.17124e-010 2.92809e-011 -0.000669869 
0.068528 -0.132282 -0.1 -1.4789e-010 3.69725e-011 -0.000845833 
0.080656 -0.129891 -0.1 -5.09888e-010 1.27472e-010 -0.00291622 
0.090889 -0.126259 -0.1 -1.62907e-010 4.07267e-011 -0.000931717 
0.099372 -0.121225 -0.1 -2.09084e-010 5.22708e-011 -0.00119582 
0.10625 -0.114625 -0.1 -5.68186e-010 1.42046e-010 -0.00324964 
0.11167 -0.106296 -0.1 -2.80404e-010 7.0101e-011 -0.00160372 
0.115778 -0.096074 -0.1 -6.70424e-010 1.67606e-010 -0.00383438 
0.118719 -0.083797 -0.1 -3.86172e-010 9.65432e-011 -0.00220865 
0.120639 -0.069301 -0.1 -8.16756e-010 2.04189e-010 -0.0046713 
0.121684 -0.052423 -0.1 -5.19471e-010 1.29868e-010 -0.00297103 
0.122 -0.033 -0.1 -1.70915e-009 4.27287e-010 -0.00977518 
0.122 0.039 -0.1 -2.75216e-009 6.88041e-010 -0.0157405 
0.122575 0.071077 -0.1 -1.22022e-009 3.05054e-010 -0.00697883 
0.124347 0.099949 -0.1 -1.39904e-009 3.49761e-010 -0.0080016 
0.127391 0.125828 -0.1 -9.653e-010 2.41325e-010 -0.00552087 
0.131778 0.148926 -0.1 -8.66738e-010 2.16685e-010 -0.00495716 
0.137582 0.169454 -0.1 -7.79371e-010 1.94843e-010 -0.00445748 
0.144875 0.187625 -0.1 -8.78158e-010 2.1954e-010 -0.00502248 
0.153731 0.20365 -0.1 -8.37242e-010 2.09311e-010 -0.00478847 
0.164222 0.217741 -0.1 -6.28012e-010 1.57003e-010 -0.00359181 
0.176422 0.230109 -0.1 -5.73026e-010 1.43257e-010 -0.00327733 
0.190403 0.240968 -0.1 -5.23634e-010 1.30909e-010 -0.00299484 
0.206238 0.250527 -0.1 -4.96578e-010 1.24144e-010 -0.00284009 
0.224 0.259 -0.1 -2.70856e-010 6.77142e-011 -0.00154912 
0.206238 0.267473 -0.1 -6.22738e-012 1.55685e-012 -3.56165e-005 
0.190403 0.277032 -0.1 -1.02353e-010 2.55883e-011 -0.000585392 
0.176422 0.287891 -0.1 -2.17597e-009 5.43992e-010 -0.0124451 
0.164222 0.300259 -0.1 -7.70492e-010 1.92623e-010 -0.0044067 
0.153731 0.31435 -0.1 -7.97916e-010 1.99479e-010 -0.00456355 
0.144875 0.330375 -0.1 -7.0425e-010 1.76063e-010 -0.00402784 
0.137582 0.348546 -0.1 -7.79371e-010 1.94843e-010 -0.00445748 
0.131778 0.369074 -0.1 -8.66739e-010 2.16685e-010 -0.00495717 
0.127391 0.392172 -0.1 -1.26293e-009 3.15733e-010 -0.00722312 
0.124347 0.418051 -0.1 -1.10145e-009 2.75363e-010 -0.00629956 
0.122575 0.446923 -0.1 -1.22022e-009 3.05054e-010 -0.00697883 
0.122 0.479 -0.1 -2.75216e-009 6.88041e-010 -0.0157405 
0.122 0.551 -0.1 -1.31071e-009 3.27677e-010 -0.00749637 
0.121684 0.570423 -0.1 -9.18922e-010 2.2973e-010 -0.00525562 
0.120639 0.587301 -0.1 -4.48276e-010 1.12069e-010 -0.00256384 
0.118719 0.601797 -0.1 -7.51984e-010 1.87996e-010 -0.00430085 
0.115778 0.614074 -0.1 -3.21827e-010 8.04567e-011 -0.00184064 
0.11167 0.624296 -0.1 -6.19518e-010 1.5488e-010 -0.00354323 
0.10625 0.632625 -0.1 -2.23881e-010 5.59703e-011 -0.00128045 
0.099372 0.639225 -0.1 -1.64798e-010 4.11995e-011 -0.000942534 
0.090889 0.644259 -0.1 -5.07211e-010 1.26803e-010 -0.00290091 
0.080656 0.647891 -0.1 -1.15434e-010 2.88584e-011 -0.000660203 
0.068528 0.650282 -0.1 -6.75024e-011 1.68756e-011 -0.000386069 
0.054358 0.651598 -0.1 -5.11579e-010 1.27895e-010 -0.00292589 
0.038 0.652 -0.1 -8.85814e-011 2.21453e-011 -0.000506626 
0.023 0.652 -0.1 -3.22502e-009 8.06256e-010 -0.018445 
0.023 0.728 -0.1 -5.18242e-010 1.29561e-010 -0.002964 
0.062 0.728 -0.1 -8.62826e-010 2.15706e-010 -0.00493479 
0.087271 0.726713 -0.1 -6.80386e-010 1.70096e-010 -0.00389135 
0.109671 0.72287 -0.1 -6.7591e-010 1.68977e-010 -0.00386575 
0.129328 0.7165 -0.1 -6.972e-010 1.743e-010 -0.00398752 
0.14637 0.70763 -0.1 -7.43362e-010 1.8584e-010 -0.00425153 
0.160927 0.696287 -0.1 -8.13206e-010 2.03302e-010 -0.004651 
0.173125 0.6825 -0.1 -9.05436e-010 2.26359e-010 -0.00517849 
0.183094 0.666296 -0.1 -1.00579e-009 2.51446e-010 -0.00575242 
0.190963 0.647704 -0.1 -9.46119e-010 2.3653e-010 -0.00541117 
0.196859 0.62675 -0.1 -1.00997e-009 2.52493e-010 -0.00577638 
0.200912 0.603463 -0.1 -1.0389e-009 2.59726e-010 -0.00594183 
0.203249 0.57787 -0.1 -1.2152e-009 3.03799e-010 -0.00695011 
0.204 0.55 -0.1 -2.97084e-009 7.42708e-010 -0.0169912 
0.204 0.462 -0.1 -2.0717e-009 5.17924e-010 -0.0118487 
0.204421 0.437366 -0.1 -1.08665e-009 2.71663e-010 -0.00621493 
0.205787 0.414509 -0.1 -9.88836e-010 2.47209e-010 -0.00565548 
0.20825 0.3935 -0.1 -5.6839e-010 1.42097e-010 -0.00325081 
0.211963 0.374407 -0.1 -8.43317e-010 2.10829e-010 -0.00482321 
0.217079 0.357301 -0.1 -7.5823e-010 1.89557e-010 -0.00433657 
0.22375 0.34225 -0.1 -6.80815e-010 1.70204e-010 -0.00389381 
0.23213 0.329324 -0.1 -6.12421e-010 1.53105e-010 -0.00350264 
0.24237 0.318593 -0.1 -3.14238e-010 7.85593e-011 -0.00179723 
0.254625 0.310125 -0.1 -5.02992e-010 1.25748e-010 -0.00287678 
0.269046 0.303991 -0.1 -2.01158e-010 5.02895e-011 -0.00115049 
0.285787 0.300259 -0.1 -1.06084e-010 2.6521e-011 -0.00060673 
0.305 0.299 -0.1 -2.12701e-009 5.31752e-010 -0.0121651 
0.305 0.219 -0.1 -2.991e-009 7.47748e-010 -0.0171065 
0.285787 0.217741 -0.1 0.348361 -2.97176 -1.9081e-007 
0.285787 0.217741 0.1 0.500558 -2.94994 -2.16466e-007 
0.269046 0.214009 -0.1 0.826584 -2.8723 -2.70076e-007 
0.269046 0.214009 0.1 1.00041 -2.81647 -2.9803e-007 
0.254625 0.207875 -0.1 1.3513 -2.66313 -3.52678e-007 
0.254625 0.207875 0.1 1.52836 -2.56562 -3.79373e-007 
0.24237 0.199407 -0.1 1.86041 -2.33576 -4.27384e-007 
0.24237 0.199407 0.1 2.0154 -2.20342 -4.48699e-007 
0.23213 0.188676 -0.1 2.28602 -1.92471 -4.83832e-007 
0.23213 0.188676 0.1 2.40165 -1.77834 -4.97652e-007 
0.22375 0.17575 -0.1 2.59241 -1.49319 -5.18541e-007 
0.22375 0.17575 0.1 2.66754 -1.35441 -5.25611e-007 
0.217079 0.160699 -0.1 2.78652 -1.09695 -5.35159e-007 
0.217079 0.160699 0.1 2.83036 -0.97828 -5.37638e-007 
0.211963 0.143593 -0.1 2.89775 -0.763965 -5.40052e-007 
0.211963 0.143593 0.1 2.92129 -0.668322 -5.39988e-007 
0.20825 0.1245 -0.1 2.95642 -0.498224 -5.38694e-007 
0.20825 0.1245 0.1 2.96801 -0.423769 -5.37467e-007 
0.205787 0.103491 -0.1 2.98461 -0.292533 -5.34633e-007 
0.205787 0.103491 0.1 2.98964 -0.235751 -5.3303e-007 
0.204421 0.080634 -0.1 2.99629 -0.136401 -5.2985e-007 
0.204421 0.080634 0.1 2.99793 -0.0938322 -5.28276e-007 
0.204 0.056 -0.1 2.99971 -0.0341756 -5.2598e-007 
0.204 0.056 0.1 2.99985 -0.0170878 -5.25257e-007 
0.204 -0.032 -0.1 2.99964 -0.0269369 -5.25651e-007 
0.204 -0.032 0.1 2.99927 -0.0538738 -5.26764e-007 
0.203249 -0.05987 -0.1 2.99513 -0.144809 -5.30015e-007 
0.203249 -0.05987 0.1 2.99135 -0.208808 -5.32151e-007 
0.200912 -0.085463 -0.1 2.9769 -0.353339 -5.35943e-007 
0.200912 -0.085463 0.1 2.96624 -0.433871 -5.37599e-007 
0.196859 -0.10875 -0.1 2.933 -0.613796 -5.39652e-007 
0.196859 -0.10875 0.1 2.91043 -0.713188 -5.4005e-007 
0.190963 -0.129704 -0.1 2.84615 -0.931493 -5.38353e-007 
0.190963 -0.129704 0.1 2.80444 -1.05041 -5.36259e-007 
0.183094 -0.148296 -0.1 2.69354 -1.30354 -5.27934e-007 
0.183094 -0.148296 0.1 2.62435 -1.43776 -5.21703e-007 
0.173125 -0.1645 -0.1 2.45239 -1.71062 -5.03563e-007 
0.173125 -0.1645 0.1 2.34962 -1.84925 -4.91653e-007 
0.160927 -0.178287 -0.1 2.11254 -2.11406 -4.61777e-007 
0.160927 -0.178287 0.1 1.97824 -2.24024 -4.4381e-007 
0.14637 -0.18963 -0.1 1.69098 -2.46465 -4.03393e-007 
0.14637 -0.18963 0.1 1.53802 -2.56289 -3.80943e-007 
0.129328 -0.1985 -0.1 1.23165 -2.72538 -3.34478e-007 
0.129328 -0.1985 0.1 1.07824 -2.78964 -3.10464e-007 
0.109671 -0.20487 -0.1 0.785641 -2.88819 -2.63613e-007 
0.109671 -0.20487 0.1 0.646458 -2.9225 -2.40777e-007 
0.087271 -0.208713 -0.1 0.389046 -2.96991 -1.97841e-007 
0.087271 -0.208713 0.1 0.270816 -2.98301 -1.77742e-007 
0.062 -0.21 -0.1 0.101724 -2.99741 -1.48807e-007 
0.062 -0.21 0.1 0.050862 -2.99871 -1.3997e-007 
0.023 -0.21 -0.1 -1 -2 8.74228e-008 
0.023 -0.21 0.1 -2 -1 3.0598e-007 
0.023 -0.134 -0.1 -2 1 3.93403e-007 
0.023 -0.134 0.1 -1 2 2.62269e-007 
0.038 -0.134 -0.1 -0.0245679 2.9997 1.35417e-007 
0.038 -0.134 0.1 -0.0491358 2.9994 1.39699e-007 
0.054358 -0.133598 -0.1 -0.14161 2.99511 1.5568e-007 
0.054358 -0.133598 0.1 -0.209516 2.99113 1.67379e-007 
0.068528 -0.132282 -0.1 -0.378373 2.97255 1.9609e-007 
0.068528 -0.132282 0.1 -0.479324 2.95795 2.13104e-007 
0.080656 -0.129891 -0.1 -0.721335 2.90463 2.53088e-007 
0.080656 -0.129891 0.1 -0.862397 2.86592 2.76059e-007 
0.090889 -0.126259 -0.1 -1.1793 2.74478 3.26174e-007 
0.090889 -0.126259 0.1 -1.35515 2.66236 3.53317e-007 
0.099372 -0.121225 -0.1 -1.71303 2.4415 4.06237e-007 
0.099372 -0.121225 0.1 -1.89508 2.30306 4.32016e-007 
0.10625 -0.114625 -0.1 -2.22291 1.9885 4.75586e-007 
0.10625 -0.114625 0.1 -2.3687 1.81239 4.93378e-007 
0.11167 -0.106296 -0.1 -2.6042 1.46374 5.19314e-007 
0.11167 -0.106296 0.1 -2.69391 1.29121 5.27459e-007 
0.115778 -0.096074 -0.1 -2.82823 0.978747 5.37287e-007 
0.115778 -0.096074 0.1 -2.87285 0.838817 5.38971e-007 
0.118719 -0.083797 -0.1 -2.93631 0.597228 5.39506e-007 
0.118719 -0.083797 0.1 -2.95517 0.49557 5.3836e-007 
0.120639 -0.069301 -0.1 -2.98077 0.324404 5.35355e-007 
0.120639 -0.069301 0.1 -2.98752 0.254897 5.33496e-007 
0.121684 -0.052423 -0.1 -2.99604 0.139861 5.29958e-007 
0.121684 -0.052423 0.1 -2.99782 0.0943314 5.28279e-007 
0.122 -0.033 -0.1 -2.99974 0.0325346 5.25913e-007 
0.122 -0.033 0.1 -2.99987 0.0162673 5.25225e-007 
0.122 0.039 -0.1 -2.99984 0.0179227 5.25292e-007 
0.122 0.039 0.1 -2.99968 0.0358454 5.26047e-007 
0.122575 0.071077 -0.1 -2.9978 0.0971045 5.28397e-007 
0.122575 0.071077 0.1 -2.99608 0.140441 5.29991e-007 
0.124347 0.099949 -0.1 -2.9894 0.239337 5.33145e-007 
0.124347 0.099949 0.1 -2.98443 0.294897 5.34704e-007 
0.127391 0.125828 -0.1 -2.96874 0.420232 5.3744e-007 
0.127391 0.125828 0.1 -2.95803 0.490007 5.38617e-007 
0.131778 0.148926 -0.1 -2.92715 0.645259 5.40005e-007 
0.131778 0.148926 0.1 -2.90699 0.730735 5.40216e-007 
0.137582 0.169454 -0.1 -2.8526 0.916614 5.3883e-007 
0.137582 0.169454 0.1 -2.81836 1.01702 5.37233e-007 
0.144875 0.187625 -0.1 -2.73133 1.22864 5.31265e-007 
0.144875 0.187625 0.1 -2.67852 1.33985 5.26895e-007 
0.153731 0.20365 -0.1 -2.55258 1.56456 5.14697e-007 
0.153731 0.20365 0.1 -2.47945 1.67805 5.06871e-007 
0.164222 0.217741 -0.1 -2.31614 1.89662 4.8787e-007 
0.164222 0.217741 0.1 -2.22596 2.00169 4.76696e-007 
0.176422 0.230109 -0.1 -2.03726 2.19428 4.52121e-007 
0.176422 0.230109 0.1 -1.93874 2.28179 4.3872e-007 
0.190403 0.240968 -0.1 -1.74362 2.43564 4.11329e-007 
0.190403 0.240968 0.1 -1.64701 2.50198 3.97337e-007 
0.206238 0.250527 -0.1 -1.46415 2.61478 3.70296e-007 
0.206238 0.250527 0.1 -1.3779 2.66124 3.57246e-007 
0.224 0.259 -0.1 -1.29165 0.902566 2.65292e-007 
0.224 0.259 0.1 -1.29165 -0.902566 1.86387e-007 
0.206238 0.267473 -0.1 -1.3779 -2.66124 1.24593e-007 
0.206238 0.267473 0.1 -1.46415 -2.61478 1.41704e-007 
0.190403 0.277032 -0.1 -1.64701 -2.50198 1.78607e-007 
0.190403 0.277032 0.1 -1.74362 -2.43564 1.98399e-007 
0.176422 0.287891 -0.1 -1.93874 -2.28179 2.3924e-007 
0.176422 0.287891 0.1 -2.03726 -2.19428 2.60291e-007 
0.164222 0.300259 -0.1 -2.22596 -2.00169 3.01703e-007 
0.164222 0.300259 0.1 -2.31614 -1.89662 3.22062e-007 
0.153731 0.31435 -0.1 -2.47945 -1.67805 3.60171e-007 
0.153731 0.31435 0.1 -2.55258 -1.56456 3.77919e-007 
0.144875 0.330375 -0.1 -2.67852 -1.33985 4.09761e-007 
0.144875 0.330375 0.1 -2.73132 -1.22864 4.23855e-007 
0.137582 0.348546 -0.1 -2.81836 -1.01702 4.48323e-007 
0.137582 0.348546 0.1 -2.8526 -0.916614 4.58697e-007 
0.131778 0.369074 -0.1 -2.90699 -0.730735 4.76333e-007 
0.131778 0.369074 0.1 -2.92715 -0.645259 4.83595e-007 
0.127391 0.392172 -0.1 -2.95803 -0.490007 4.95779e-007 
0.127391 0.392172 0.1 -2.96874 -0.420232 5.00702e-007 
0.124347 0.418051 -0.1 -2.98443 -0.294897 5.08924e-007 
0.124347 0.418051 0.1 -2.9894 -0.239337 5.12222e-007 
0.122575 0.446923 -0.1 -2.99608 -0.140441 5.17713e-007 
0.122575 0.446923 0.1 -2.9978 -0.0971045 5.19907e-007 
0.122 0.479 -0.1 -2.99968 -0.0358454 5.22913e-007 
0.122 0.479 0.1 -2.99984 -0.0179227 5.23725e-007 
0.122 0.551 -0.1 -2.99987 -0.0162673 5.23803e-007 
0.122 0.551 0.1 -2.99974 -0.0325346 5.23069e-007 
0.121684 0.570423 -0.1 -2.99782 -0.0943313 5.20033e-007 
0.121684 0.570423 0.1 -2.99604 -0.139861 5.17731e-007 
0.120639 0.587301 -0.1 -2.98752 -0.254897 5.11212e-007 
0.120639 0.587301 0.1 -2.98077 -0.324404 5.06994e-007 
0.118719 0.601797 -0.1 -2.95517 -0.49557 4.95036e-007 
0.118719 0.601797 0.1 -2.93631 -0.597228 4.87295e-007 
0.115778 0.614074 -0.1 -2.87285 -0.838816 4.65639e-007 
0.115778 0.614074 0.1 -2.82824 -0.978746 4.51723e-007 
0.11167 0.624296 -0.1 -2.69391 -1.29121 4.14578e-007 
0.11167 0.624296 0.1 -2.60419 -1.46374 3.9135e-007 
0.10625 0.632625 -0.1 -2.3687 -1.81239 3.34934e-007 
0.10625 0.632625 0.1 -2.22291 -1.9885 3.01746e-007 
0.099372 0.639225 -0.1 -1.89508 -2.30305 2.30677e-007 
0.099372 0.639225 0.1 -1.71303 -2.4415 1.92795e-007 
0.090889 0.644259 -0.1 -1.35514 -2.66236 1.20565e-007 
0.090889 0.644259 0.1 -1.1793 -2.74478 8.62174e-008 
0.080656 0.647891 -0.1 -0.862401 -2.86592 2.55139e-008 
0.080656 0.647891 0.1 -0.721341 -2.90463 -8.42064e-010 
0.068528 0.650282 -0.1 -0.479325 -2.95794 -4.5488e-008 
0.068528 0.650282 0.1 -0.378369 -2.97255 -6.37779e-008 
0.054358 0.651598 -0.1 -0.209512 -2.99113 -9.41139e-008 
0.054358 0.651598 0.1 -0.14161 -2.99511 -1.06161e-007 
0.038 0.652 -0.1 -0.0491395 -2.9994 -1.22516e-007 
0.038 0.652 0.1 -0.0245697 -2.9997 -1.26825e-007 
0.023 0.652 -0.1 -1 -2 8.74228e-008 
0.023 0.652 0.1 -2 -1 3.0598e-007 
0.023 0.728 -0.1 -2 1 3.93403e-007 
0.023 0.728 0.1 -1 2 2.62269e-007 
0.062 0.728 -0.1 0.0508614 2.99871 1.22185e-007 
0.062 0.728 0.1 0.101723 2.99741 1.13235e-007 
0.087271 0.726713 -0.1 0.270815 2.98301 8.30406e-008 
0.087271 0.726713 0.1 0.389046 2.96991 6.17957e-008 
0.109671 0.72287 -0.1 0.64646 2.9225 1.47158e-008 
0.109671 0.72287 0.1 0.785643 2.88819 -1.11192e-008 
0.129328 0.7165 -0.1 1.07824 2.78964 -6.65863e-008 
0.129328 0.7165 0.1 1.23165 2.72538 -9.62183e-008 
0.14637 0.70763 -0.1 1.53802 2.56289 -1.56889e-007 
0.14637 0.70763 0.1 1.69098 2.46465 -1.87927e-007 
0.160927 0.696287 -0.1 1.97824 2.24024 -2.47962e-007 
0.160927 0.696287 0.1 2.11254 2.11406 -2.76959e-007 
0.173125 0.6825 -0.1 2.34962 1.84925 -3.29986e-007 
0.173125 0.6825 0.1 2.45239 1.71062 -3.54016e-007 
0.183094 0.666296 -0.1 2.62435 1.43776 -3.9601e-007 
0.183094 0.666296 0.1 2.69354 1.30354 -4.13975e-007 
0.190963 0.647704 -0.1 2.80444 1.05041 -4.44429e-007 
0.190963 0.647704 0.1 2.84615 0.931493 -4.56919e-007 
0.196859 0.62675 -0.1 2.91043 0.713188 -4.77701e-007 
0.196859 0.62675 0.1 2.933 0.613796 -4.85992e-007 
0.200912 0.603463 -0.1 2.96624 0.433871 -4.99668e-007 
0.200912 0.603463 0.1 2.9769 0.353339 -5.05053e-007 
0.203249 0.57787 -0.1 2.99135 0.208808 -5.13897e-007 
0.203249 0.57787 0.1 2.99513 0.144809 -5.17356e-007 
0.204 0.55 -0.1 2.99927 0.0538738 -5.22055e-007 
0.204 0.55 0.1 2.99964 0.0269369 -5.23296e-007 
0.204 0.462 -0.1 2.99985 0.0170878 -5.23764e-007 
0.204 0.462 0.1 2.99971 0.0341756 -5.22992e-007 
0.204421 0.437366 -0.1 2.99793 0.0938322 -5.20073e-007 
0.204421 0.437366 0.1 2.99629 0.136401 -5.17926e-007 
0.205787 0.414509 -0.1 2.98964 0.235751 -5.1242e-007 
0.205787 0.414509 0.1 2.98461 0.292533 -5.09059e-007 
0.20825 0.3935 -0.1 2.96801 0.423769 -5.0042e-007 
0.20825 0.3935 0.1 2.95642 0.498224 -4.95138e-007 
0.211963 0.374407 -0.1 2.92129 0.668322 -4.81561e-007 
0.211963 0.374407 0.1 2.89775 0.763965 -4.73264e-007 
0.217079 0.357301 -0.1 2.83036 0.97828 -4.52114e-007 
0.217079 0.357301 0.1 2.78652 1.09695 -4.39261e-007 
0.22375 0.34225 -0.1 2.66754 1.35441 -4.07205e-007 
0.22375 0.34225 0.1 2.59241 1.49319 -3.88002e-007 
0.23213 0.329324 -0.1 2.40165 1.77834 -3.42184e-007 
0.23213 0.329324 0.1 2.28602 1.92471 -3.15569e-007 
0.24237 0.318593 -0.1 2.0154 2.20342 -2.56069e-007 
0.24237 0.318593 0.1 1.86041 2.33576 -2.23185e-007 
0.254625 0.310125 -0.1 1.52836 2.56562 -1.5508e-007 
0.254625 0.310125 0.1 1.3513 2.66313 -1.1986e-007 
0.269046 0.303991 -0.1 1.00041 2.81647 -5.18058e-008 
0.269046 0.303991 0.1 0.826584 2.8723 -1.89725e-008 
0.285787 0.300259 -0.1 0.500558 2.94994 4.14258e-008 
0.285787 0.300259 0.1 0.348361 2.97176 6.89904e-008 
0.305 0.299 -0.1 1.13078 1.99572 -1.10476e-007 
0.305 0.299 0.1 2.06539 0.99786 -3.17506e-007 
0.305 0.219 -0.1 2.06539 -0.99786 -4.04742e-007 
0.305 0.219 0.1 1.13078 -1.99572 -2.84947e-007 
3 78 80 79 
3 78 81 80 
3 78 82 81 
3 78 83 82 
3 78 84 83 
3 78 85 84 
3 78 86 85 
3 78 87 86 
3 78 77 87 
3 77 76 87 
3 76 88 87 
3 75 88 76 
3 74 88 75 
3 73 88 74 
3 73 89 88 
3 72 89 73 
3 71 89 72 
3 70 89 71 
3 70 90 89 
3 69 90 70 
3 68 90 69 
3 68 91 90 
3 67 91 68 
3 66 91 67 
3 66 92 91 
3 65 92 66 
3 64 92 65 
3 64 93 92 
3 63 93 64 
3 63 94 93 
3 62 94 63 
3 62 95 94 
3 61 95 62 
3 61 96 95 
3 61 97 96 
3 60 97 61 
3 60 98 97 
3 59 98 60 
3 59 99 98 
3 58 99 59 
3 58 100 99 
3 57 100 58 
3 57 101 100 
3 57 102 101 
3 56 102 57 
3 56 103 102 
3 56 104 103 
3 56 105 104 
3 55 105 56 
3 55 106 105 
3 54 106 55 
3 53 52 54 
3 52 106 54 
3 51 106 52 
3 50 106 51 
3 49 106 50 
3 48 106 49 
3 48 0 106 
3 47 0 48 
3 47 1 0 
3 47 2 1 
3 47 3 2 
3 46 3 47 
3 46 4 3 
3 46 5 4 
3 45 5 46 
3 45 6 5 
3 44 6 45 
3 44 7 6 
3 43 7 44 
3 43 8 7 
3 42 8 43 
3 42 9 8 
3 42 10 9 
3 41 10 42 
3 41 11 10 
3 40 11 41 
3 40 12 11 
3 39 12 40 
3 39 13 12 
3 38 13 39 
3 37 13 38 
3 37 14 13 
3 36 14 37 
3 35 14 36 
3 35 15 14 
3 34 15 35 
3 33 15 34 
3 33 16 15 
3 32 16 33 
3 31 16 32 
3 30 16 31 
3 30 17 16 
3 29 17 30 
3 28 17 29 
3 27 17 28 
3 25 27 26 
3 25 17 27 
3 25 18 17 
3 25 19 18 
3 25 20 19 
3 25 21 20 
3 25 22 21 
3 25 23 22 
3 25 24 23 
3 187 185 186 
3 188 185 187 
3 189 185 188 
3 190 185 189 
3 191 185 190 
3 192 185 191 
3 193 185 192 
3 194 185 193 
3 184 185 194 
3 183 184 194 
3 195 183 194 
3 195 182 183 
3 195 181 182 
3 195 180 181 
3 196 180 195 
3 196 179 180 
3 196 178 179 
3 196 177 178 
3 197 177 196 
3 197 176 177 
3 197 175 176 
3 198 175 197 
3 198 174 175 
3 198 173 174 
3 199 173 198 
3 199 172 173 
3 199 171 172 
3 200 171 199 
3 200 170 171 
3 201 170 200 
3 201 169 170 
3 202 169 201 
3 202 168 169 
3 203 168 202 
3 204 168 203 
3 204 167 168 
3 205 167 204 
3 205 166 167 
3 206 166 205 
3 206 165 166 
3 207 165 206 
3 207 164 165 
3 208 164 207 
3 209 164 208 
3 209 163 164 
3 210 163 209 
3 211 163 210 
3 212 163 211 
3 212 162 163 
3 213 162 212 
3 213 161 162 
3 159 160 161 
3 213 159 161 
3 213 158 159 
3 213 157 158 
3 213 156 157 
3 213 155 156 
3 107 155 213 
3 107 154 155 
3 108 154 107 
3 109 154 108 
3 110 154 109 
3 110 153 154 
3 111 153 110 
3 112 153 111 
3 112 152 153 
3 113 152 112 
3 113 151 152 
3 114 151 113 
3 114 150 151 
3 115 150 114 
3 115 149 150 
3 116 149 115 
3 117 149 116 
3 117 148 149 
3 118 148 117 
3 118 147 148 
3 119 147 118 
3 119 146 147 
3 120 146 119 
3 120 145 146 
3 120 144 145 
3 121 144 120 
3 121 143 144 
3 121 142 143 
3 122 142 121 
3 122 141 142 
3 122 140 141 
3 123 140 122 
3 123 139 140 
3 123 138 139 
3 123 137 138 
3 124 137 123 
3 124 136 137 
3 124 135 136 
3 124 134 135 
3 134 132 133 
3 124 132 134 
3 125 132 124 
3 126 132 125 
3 127 132 126 
3 128 132 127 
3 129 132 128 
3 130 132 129 
3 131 132 130 
3 215 217 216 
3 215 216 214 
3 217 219 218 
3 217 218 216 
3 219 221 220 
3 219 220 218 
3 221 223 222 
3 221 222 220 
3 223 225 224 
3 223 224 222 
3 225 227 226 
3 225 226 224 
3 227 229 228 
3 227 228 226 
3 229 231 230 
3 229 230 228 
3 231 233 232 
3 231 232 230 
3 233 235 234 
3 233 234 232 
3 235 237 236 
3 235 236 234 
3 237 239 238 
3 237 238 236 
3 239 241 240 
3 239 240 238 
3 241 243 242 
3 241 242 240 
3 243 245 244 
3 243 244 242 
3 245 247 246 
3 245 246 244 
3 247 249 248 
3 247 248 246 
3 249 251 250 
3 249 250 248 
3 251 253 252 
3 251 252 250 
3 253 255 254 
3 253 254 252 
3 255 257 256 
3 255 256 254 
3 257 259 258 
3 257 258 256 
3 259 261 260 
3 259 260 258 
3 261 263 262 
3 261 262 260 
3 263 265 264 
3 263 264 262 
3 265 267 266 
3 265 266 264 
3 267 269 268 
3 267 268 266 
3 269 271 270 
3 269 270 268 
3 271 273 272 
3 271 272 270 
3 273 275 274 
3 273 274 272 
3 275 277 276 
3 275 276 274 
3 277 279 278 
3 277 278 276 
3 279 281 280 
3 279 280 278 
3 281 283 282 
3 281 282 280 
3 283 285 284 
3 283 284 282 
3 285 287 286 
3 285 286 284 
3 287 289 288 
3 287 288 286 
3 289 291 290 
3 289 290 288 
3 291 293 292 
3 291 292 290 
3 293 295 294 
3 293 294 292 
3 295 297 296 
3 295 296 294 
3 297 299 298 
3 297 298 296 
3 299 301 300 
3 299 300 298 
3 301 303 302 
3 301 302 300 
3 303 305 304 
3 303 304 302 
3 305 307 306 
3 305 306 304 
3 307 309 308 
3 307 308 306 
3 309 311 310 
3 309 310 308 
3 311 313 312 
3 311 312 310 
3 313 315 314 
3 313 314 312 
3 315 317 316 
3 315 316 314 
3 317 319 318 
3 317 318 316 
3 319 321 320 
3 319 320 318 
3 321 323 322 
3 321 322 320 
3 323 325 324 
3 323 324 322 
3 325 327 326 
3 325 326 324 
3 327 329 328 
3 327 328 326 
3 329 331 330 
3 329 330 328 
3 331 333 332 
3 331 332 330 
3 333 335 334 
3 333 334 332 
3 335 337 336 
3 335 336 334 
3 337 339 338 
3 337 338 336 
3 339 341 340 
3 339 340 338 
3 341 343 342 
3 341 342 340 
3 343 345 344 
3 343 344 342 
3 345 347 346 
3 345 346 344 
3 347 349 348 
3 347 348 346 
3 349 351 350 
3 349 350 348 
3 351 353 352 
3 351 352 350 
3 353 355 354 
3 353 354 352 
3 355 357 356 
3 355 356 354 
3 357 359 358 
3 357 358 356 
3 359 361 360 
3 359 360 358 
3 361 363 362 
3 361 362 360 
3 363 365 364 
3 363 364 362 
3 365 367 366 
3 365 366 364 
3 367 369 368 
3 367 368 366 
3 369 371 370 
3 369 370 368 
3 371 373 372 
3 371 372 370 
3 373 375 374 
3 373 374 372 
3 375 377 376 
3 375 376 374 
3 377 379 378 
3 377 378 376 
3 379 381 380 
3 379 380 378 
3 381 383 382 
3 381 382 380 
3 383 385 384 
3 383 384 382 
3 385 387 386 
3 385 386 384 
3 387 389 388 
3 387 388 386 
3 389 391 390 
3 389 390 388 
3 391 393 392 
3 391 392 390 
3 393 395 394 
3 393 394 392 
3 395 397 396 
3 395 396 394 
3 397 399 398 
3 397 398 396 
3 399 401 400 
3 399 400 398 
3 401 403 402 
3 401 402 400 
3 403 405 404 
3 403 404 402 
3 405 407 406 
3 405 406 404 
3 407 409 408 
3 407 408 406 
3 409 411 410 
3 409 410 408 
3 411 413 412 
3 411 412 410 
3 413 415 414 
3 413 414 412 
3 415 417 416 
3 415 416 414 
3 417 419 418 
3 417 418 416 
3 419 421 420 
3 419 420 418 
3 421 423 422 
3 421 422 420 
3 423 425 424 
3 423 424 422 
3 425 427 426 
3 425 426 424 
3 427 215 214 
3 427 214 426 
