ply
format ascii 1.0
comment VCGLIB generated
element vertex 624
property float x
property float y
property float z
property float nx
property float ny
property float nz
element face 628
property list uchar int vertex_indices
end_header
0.460709 0.496678 0.1 3.67904e-010 -9.19758e-011 0.00210416 
0.450421 0.505171 0.1 3.97858e-010 -9.94643e-011 0.00227548 
0.439266 0.513422 0.1 4.19868e-010 -1.04967e-010 0.00240136 
0.42737 0.52137 0.1 4.34215e-010 -1.08554e-010 0.00248342 
0.414864 0.528958 0.1 4.41096e-010 -1.10274e-010 0.00252277 
0.401875 0.536125 0.1 4.40698e-010 -1.10175e-010 0.0025205 
0.388532 0.542813 0.1 4.33138e-010 -1.08284e-010 0.00247726 
0.374963 0.548963 0.1 4.18453e-010 -1.04613e-010 0.00239327 
0.361297 0.554516 0.1 3.96618e-010 -9.91545e-011 0.00226839 
0.347662 0.559412 0.1 3.67588e-010 -9.1897e-011 0.00210236 
0.334187 0.563593 0.1 3.31259e-010 -8.28148e-011 0.00189458 
0.321 0.567 0.1 8.09281e-009 -2.0232e-009 0.0462855 
0.321 0.369 0.1 5.25374e-009 -1.31343e-009 0.0300479 
0.348509 0.360409 0.1 8.02756e-010 -2.00689e-010 0.00459123 
0.373991 0.35019 0.1 1.58822e-009 -3.97054e-010 0.00908354 
0.397375 0.338422 0.1 1.71716e-009 -4.2929e-010 0.00982101 
0.418593 0.325185 0.1 1.76874e-009 -4.42184e-010 0.010116 
0.437574 0.31056 0.1 1.73964e-009 -4.3491e-010 0.00994958 
0.45425 0.294625 0.1 2.75304e-009 -6.88258e-010 0.0157455 
0.468551 0.277461 0.1 9.85968e-010 -2.46492e-010 0.00563908 
0.480407 0.259148 0.1 1.16933e-009 -2.92332e-010 0.00668778 
0.48975 0.239766 0.1 1.35972e-009 -3.3993e-010 0.00777669 
0.496509 0.219394 0.1 1.24144e-009 -3.10359e-010 0.00710018 
0.500616 0.198112 0.1 1.06457e-009 -2.66143e-010 0.00608865 
0.502 0.176 0.1 1.19091e-009 -2.97728e-010 0.00681122 
0.500788 0.156223 0.1 1.01819e-009 -2.54547e-010 0.00582335 
0.497134 0.136116 0.1 9.9245e-010 -2.48112e-010 0.00567615 
0.491016 0.116016 0.1 9.91177e-010 -2.47794e-010 0.00566887 
0.482407 0.096259 0.1 1.15932e-009 -2.89831e-010 0.00663056 
0.471285 0.077183 0.1 3.08666e-009 -7.71664e-010 0.0176536 
0.457625 0.059125 0.1 3.03608e-009 -7.59019e-010 0.0173643 
0.441402 0.042421 0.1 3.04718e-009 -7.61795e-010 0.0174278 
0.422593 0.027407 0.1 2.32916e-009 -5.82289e-010 0.0133212 
0.401172 0.014422 0.1 1.41892e-009 -3.54731e-010 0.00811529 
0.377116 0.003801 0.1 1.15394e-009 -2.88484e-010 0.00659974 
0.3504 -0.004119 0.1 6.00981e-010 -1.50245e-010 0.00343721 
0.321 -0.009 0.1 3.30596e-009 -8.26489e-010 0.0189079 
0.321 -0.118 0.1 1.56277e-009 -3.90692e-010 0.008938 
0.239 -0.118 0.1 3.12554e-009 -7.81385e-010 0.017876 
0.239 -0.009 0.1 1.58471e-009 -3.96177e-010 0.00906346 
0.22241 -0.00747 0.1 6.14308e-011 -1.53577e-011 0.000351343 
0.206116 -0.004926 0.1 2.48738e-010 -6.21844e-011 0.00142261 
0.190078 -0.001438 0.1 2.0517e-010 -5.12927e-011 0.00117344 
0.174259 0.002926 0.1 5.77469e-010 -1.44367e-010 0.00330274 
0.158621 0.008095 0.1 3.99683e-010 -9.99209e-011 0.00228592 
0.143125 0.014 0.1 9.89034e-010 -2.47259e-010 0.00565662 
0.127733 0.020572 0.1 1.32941e-009 -3.32352e-010 0.00760333 
0.112407 0.027741 0.1 8.04464e-010 -2.01116e-010 0.004601 
0.097109 0.035438 0.1 1.80701e-009 -4.51751e-010 0.0103349 
0.081801 0.043593 0.1 1.04366e-009 -2.60915e-010 0.00596904 
0.066444 0.052137 0.1 2.28178e-009 -5.70447e-010 0.0130503 
0.051 0.061 0.1 6.06024e-009 -1.51506e-009 0.0346605 
0.051 0.182 0.1 3.27944e-010 -8.1986e-011 0.00187562 
0.066501 0.168421 0.1 6.36921e-010 -1.5923e-010 0.00364276 
0.081176 0.156116 0.1 6.02286e-010 -1.50571e-010 0.00344467 
0.095281 0.144984 0.1 5.7372e-010 -1.4343e-010 0.0032813 
0.109074 0.134926 0.1 5.5023e-010 -1.37558e-010 0.00314695 
0.122811 0.12584 0.1 5.3099e-010 -1.32748e-010 0.00303691 
0.13675 0.117625 0.1 5.15319e-010 -1.2883e-010 0.00294728 
0.151147 0.110181 0.1 5.0271e-010 -1.25678e-010 0.00287517 
0.166259 0.103407 0.1 4.92855e-010 -1.23214e-010 0.0028188 
0.182344 0.097203 0.1 4.85585e-010 -1.21396e-010 0.00277722 
0.199657 0.091468 0.1 4.8097e-010 -1.20243e-010 0.00275083 
0.218457 0.0861 0.1 4.79156e-010 -1.19789e-010 0.00274045 
0.239 0.081 0.1 6.95015e-009 -1.73754e-009 0.0397502 
0.239 0.297 0.1 4.7176e-009 -1.1794e-009 0.0269815 
0.208432 0.306306 0.1 1.44209e-009 -3.60523e-010 0.00824781 
0.180704 0.317116 0.1 1.62934e-009 -4.07334e-010 0.00931872 
0.155781 0.329266 0.1 1.73206e-009 -4.33016e-010 0.00990625 
0.13363 0.342593 0.1 1.75253e-009 -4.38131e-010 0.0100233 
0.114214 0.356934 0.1 2.01574e-009 -5.03936e-010 0.0115287 
0.0975 0.372125 0.1 1.19735e-009 -2.99336e-010 0.00684802 
0.083453 0.388004 0.1 2.06032e-009 -5.15078e-010 0.0117836 
0.072037 0.404407 0.1 1.25511e-009 -3.13779e-010 0.00717842 
0.063219 0.421172 0.1 9.98891e-010 -2.49723e-010 0.00571299 
0.056963 0.438134 0.1 9.44154e-010 -2.36038e-010 0.00539993 
0.053235 0.455131 0.1 9.13154e-010 -2.28288e-010 0.00522263 
0.052 0.472 0.1 1.19155e-009 -2.97887e-010 0.00681485 
0.053464 0.495653 0.1 1.11427e-009 -2.78568e-010 0.0063729 
0.057796 0.518055 0.1 1.22456e-009 -3.06141e-010 0.00700368 
0.064906 0.539125 0.1 1.19418e-009 -2.98544e-010 0.00682989 
0.074704 0.558778 0.1 1.17356e-009 -2.93391e-010 0.006712 
0.087098 0.576931 0.1 1.34953e-009 -3.37383e-010 0.00771843 
0.102 0.5935 0.1 3.90012e-009 -9.75029e-010 0.0223061 
0.119318 0.608403 0.1 2.42747e-009 -6.06868e-010 0.0138835 
0.138963 0.621556 0.1 1.83999e-009 -4.59997e-010 0.0105235 
0.160844 0.632875 0.1 1.28696e-009 -3.2174e-010 0.00736055 
0.18487 0.642278 0.1 8.02854e-010 -2.00714e-010 0.00459179 
0.210953 0.649681 0.1 4.38356e-010 -1.09589e-010 0.0025071 
0.239 0.655 0.1 1.10855e-009 -2.77137e-010 0.00634016 
0.239 0.691 0.1 5.16144e-010 -1.29036e-010 0.002952 
0.321 0.691 0.1 1.03229e-009 -2.58072e-010 0.005904 
0.321 0.655 0.1 6.30376e-010 -1.57594e-010 0.00360533 
0.332678 0.653591 0.1 9.3217e-011 -2.33043e-011 0.000533139 
0.345093 0.651394 0.1 1.28108e-010 -3.20271e-011 0.000732694 
0.358063 0.648453 0.1 3.9345e-010 -9.83626e-011 0.00225027 
0.371407 0.644815 0.1 2.7053e-010 -6.76325e-011 0.00154725 
0.384947 0.640524 0.1 6.92353e-010 -1.73088e-010 0.0039598 
0.3985 0.635625 0.1 4.43444e-010 -1.10861e-010 0.0025362 
0.411887 0.630164 0.1 1.0455e-009 -2.61376e-010 0.00597959 
0.424926 0.624185 0.1 6.33238e-010 -1.58309e-010 0.0036217 
0.437438 0.617734 0.1 1.42961e-009 -3.57402e-010 0.0081764 
0.449241 0.610857 0.1 8.2525e-010 -2.06312e-010 0.00471988 
0.460155 0.603597 0.1 1.81928e-009 -4.54819e-010 0.0104051 
0.47 0.596 0.1 4.68382e-009 -1.17096e-009 0.0267883 
0.47 0.488 0.1 1.75445e-010 -4.38612e-011 0.00100343 
0.239 0.567 0.1 3.1456e-009 -7.864e-010 0.0179907 
0.239 0.396 0.1 6.30744e-009 -1.57686e-009 0.0360743 
0.224225 0.401418 0.1 7.44758e-010 -1.86189e-010 0.00425952 
0.21088 0.407176 0.1 3.0023e-010 -7.50575e-011 0.00171712 
0.198937 0.413281 0.1 3.13717e-010 -7.84293e-011 0.00179425 
0.18837 0.419741 0.1 6.71306e-010 -1.67826e-010 0.00383942 
0.17915 0.426561 0.1 3.00094e-010 -7.50235e-011 0.00171634 
0.17125 0.43375 0.1 6.33397e-010 -1.58349e-010 0.00362261 
0.164641 0.441314 0.1 2.98634e-010 -7.46587e-011 0.00170799 
0.159296 0.449259 0.1 6.1427e-010 -1.53568e-010 0.00351321 
0.155187 0.457594 0.1 3.07216e-010 -7.68041e-011 0.00175707 
0.152287 0.466324 0.1 6.09874e-010 -1.52469e-010 0.00348807 
0.150567 0.475457 0.1 3.23244e-010 -8.08112e-011 0.00184874 
0.15 0.485 0.1 3.36026e-010 -8.40064e-011 0.00192184 
0.150758 0.495093 0.1 7.39489e-010 -1.84872e-010 0.00422938 
0.152981 0.504824 0.1 3.21801e-010 -8.04502e-011 0.00184049 
0.156594 0.514125 0.1 7.01419e-010 -1.75355e-010 0.00401165 
0.161519 0.522926 0.1 2.99444e-010 -7.48609e-011 0.00171262 
0.167679 0.531157 0.1 2.73137e-010 -6.82843e-011 0.00156216 
0.175 0.53875 0.1 6.68225e-010 -1.67056e-010 0.0038218 
0.183404 0.545634 0.1 2.48884e-010 -6.22211e-011 0.00142345 
0.192815 0.551741 0.1 2.10623e-010 -5.26558e-011 0.00120462 
0.203156 0.557 0.1 6.40262e-010 -1.60065e-010 0.00366187 
0.214352 0.561343 0.1 1.77594e-010 -4.43986e-011 0.00101572 
0.226325 0.564699 0.1 1.2445e-010 -3.11126e-011 0.000711773 
0.334436 0.085564 0.1 2.23374e-010 -5.58433e-011 0.00127755 
0.346741 0.089759 0.1 2.48244e-010 -6.2061e-011 0.00141979 
0.357906 0.094594 0.1 6.58228e-010 -1.64557e-010 0.00376463 
0.367926 0.100074 0.1 2.4505e-010 -6.12624e-011 0.00140152 
0.376793 0.106207 0.1 2.67521e-010 -6.68804e-011 0.00153004 
0.3845 0.113 0.1 6.37723e-010 -1.59431e-010 0.00364735 
0.391041 0.120459 0.1 2.81818e-010 -7.04546e-011 0.00161181 
0.396407 0.128593 0.1 6.42004e-010 -1.60501e-010 0.00367183 
0.400594 0.137406 0.1 3.10754e-010 -7.76884e-011 0.0017773 
0.403593 0.146907 0.1 6.67132e-010 -1.66783e-010 0.00381555 
0.405397 0.157103 0.1 3.52174e-010 -8.80435e-011 0.0020142 
0.406 0.168 0.1 6.80388e-010 -1.70097e-010 0.00389137 
0.405512 0.177985 0.1 3.27659e-010 -8.19149e-011 0.00187399 
0.404009 0.187463 0.1 3.08526e-010 -7.71316e-011 0.00176456 
0.401438 0.196469 0.1 6.82626e-010 -1.70656e-010 0.00390416 
0.397741 0.205037 0.1 2.90616e-010 -7.2654e-011 0.00166213 
0.392863 0.213203 0.1 6.79012e-010 -1.69753e-010 0.00388349 
0.38675 0.221 0.1 2.89076e-010 -7.2269e-011 0.00165332 
0.379345 0.228464 0.1 2.74082e-010 -6.85205e-011 0.00156757 
0.370593 0.23563 0.1 7.1336e-010 -1.7834e-010 0.00407994 
0.360438 0.242531 0.1 2.96378e-010 -7.40947e-011 0.00169509 
0.348824 0.249204 0.1 2.83216e-010 -7.08042e-011 0.00161981 
0.335697 0.255682 0.1 8.02786e-010 -2.00696e-010 0.0045914 
0.321 0.262 0.1 8.11551e-009 -2.02888e-009 0.0464153 
0.321 0.082 0.1 2.78102e-009 -6.95257e-010 0.0159056 
0.460709 0.496678 -0.1 -3.67904e-010 9.19758e-011 -0.00210416 
0.450421 0.505171 -0.1 -3.97858e-010 9.94643e-011 -0.00227548 
0.439266 0.513422 -0.1 -4.19868e-010 1.04967e-010 -0.00240136 
0.42737 0.52137 -0.1 -4.34215e-010 1.08554e-010 -0.00248342 
0.414864 0.528958 -0.1 -4.41096e-010 1.10274e-010 -0.00252277 
0.401875 0.536125 -0.1 -4.40698e-010 1.10175e-010 -0.0025205 
0.388532 0.542813 -0.1 -4.33138e-010 1.08284e-010 -0.00247726 
0.374963 0.548963 -0.1 -4.18453e-010 1.04613e-010 -0.00239327 
0.361297 0.554516 -0.1 -3.96618e-010 9.91545e-011 -0.00226839 
0.347662 0.559412 -0.1 -3.67588e-010 9.1897e-011 -0.00210236 
0.334187 0.563593 -0.1 -3.31259e-010 8.28148e-011 -0.00189458 
0.321 0.567 -0.1 -8.09281e-009 2.0232e-009 -0.0462855 
0.321 0.369 -0.1 -5.25374e-009 1.31343e-009 -0.0300479 
0.348509 0.360409 -0.1 -8.02756e-010 2.00689e-010 -0.00459123 
0.373991 0.35019 -0.1 -1.58822e-009 3.97054e-010 -0.00908354 
0.397375 0.338422 -0.1 -1.71716e-009 4.2929e-010 -0.00982101 
0.418593 0.325185 -0.1 -1.76874e-009 4.42184e-010 -0.010116 
0.437574 0.31056 -0.1 -1.73964e-009 4.3491e-010 -0.00994958 
0.45425 0.294625 -0.1 -2.75304e-009 6.88258e-010 -0.0157455 
0.468551 0.277461 -0.1 -9.85968e-010 2.46492e-010 -0.00563908 
0.480407 0.259148 -0.1 -1.16933e-009 2.92332e-010 -0.00668778 
0.48975 0.239766 -0.1 -1.35972e-009 3.3993e-010 -0.00777669 
0.496509 0.219394 -0.1 -1.24144e-009 3.10359e-010 -0.00710018 
0.500616 0.198112 -0.1 -1.06457e-009 2.66143e-010 -0.00608865 
0.502 0.176 -0.1 -1.19091e-009 2.97728e-010 -0.00681122 
0.500788 0.156223 -0.1 -1.01819e-009 2.54547e-010 -0.00582335 
0.497134 0.136116 -0.1 -9.9245e-010 2.48112e-010 -0.00567615 
0.491016 0.116016 -0.1 -9.91177e-010 2.47794e-010 -0.00566887 
0.482407 0.096259 -0.1 -1.15932e-009 2.89831e-010 -0.00663056 
0.471285 0.077183 -0.1 -3.08666e-009 7.71664e-010 -0.0176536 
0.457625 0.059125 -0.1 -3.03608e-009 7.59019e-010 -0.0173643 
0.441402 0.042421 -0.1 -3.04718e-009 7.61795e-010 -0.0174278 
0.422593 0.027407 -0.1 -2.32916e-009 5.82289e-010 -0.0133212 
0.401172 0.014422 -0.1 -1.41892e-009 3.54731e-010 -0.00811529 
0.377116 0.003801 -0.1 -1.15394e-009 2.88484e-010 -0.00659974 
0.3504 -0.004119 -0.1 -6.00981e-010 1.50245e-010 -0.00343721 
0.321 -0.00899999 -0.1 -3.30596e-009 8.26489e-010 -0.0189079 
0.321 -0.118 -0.1 -1.56277e-009 3.90692e-010 -0.008938 
0.239 -0.118 -0.1 -3.12554e-009 7.81385e-010 -0.017876 
0.239 -0.00899999 -0.1 -1.58471e-009 3.96177e-010 -0.00906346 
0.22241 -0.00747 -0.1 -6.14308e-011 1.53577e-011 -0.000351343 
0.206116 -0.004926 -0.1 -2.48738e-010 6.21844e-011 -0.00142261 
0.190078 -0.001438 -0.1 -2.0517e-010 5.12927e-011 -0.00117344 
0.174259 0.002926 -0.1 -5.77469e-010 1.44367e-010 -0.00330274 
0.158621 0.008095 -0.1 -3.99683e-010 9.99209e-011 -0.00228592 
0.143125 0.014 -0.1 -9.89034e-010 2.47259e-010 -0.00565662 
0.127733 0.020572 -0.1 -1.32941e-009 3.32352e-010 -0.00760333 
0.112407 0.027741 -0.1 -8.04464e-010 2.01116e-010 -0.004601 
0.097109 0.035438 -0.1 -1.80701e-009 4.51751e-010 -0.0103349 
0.081801 0.043593 -0.1 -1.04366e-009 2.60915e-010 -0.00596904 
0.066444 0.052137 -0.1 -2.28178e-009 5.70447e-010 -0.0130503 
0.051 0.061 -0.1 -6.06024e-009 1.51506e-009 -0.0346605 
0.051 0.182 -0.1 -3.27944e-010 8.1986e-011 -0.00187562 
0.066501 0.168421 -0.1 -6.36921e-010 1.5923e-010 -0.00364276 
0.081176 0.156116 -0.1 -6.02286e-010 1.50571e-010 -0.00344467 
0.095281 0.144984 -0.1 -5.7372e-010 1.4343e-010 -0.0032813 
0.109074 0.134926 -0.1 -5.5023e-010 1.37558e-010 -0.00314695 
0.122811 0.12584 -0.1 -5.3099e-010 1.32748e-010 -0.00303691 
0.13675 0.117625 -0.1 -5.15319e-010 1.2883e-010 -0.00294728 
0.151147 0.110181 -0.1 -5.02711e-010 1.25678e-010 -0.00287517 
0.166259 0.103407 -0.1 -4.92855e-010 1.23214e-010 -0.0028188 
0.182344 0.097203 -0.1 -4.85585e-010 1.21396e-010 -0.00277722 
0.199657 0.091468 -0.1 -4.8097e-010 1.20243e-010 -0.00275083 
0.218457 0.0861 -0.1 -4.79156e-010 1.19789e-010 -0.00274045 
0.239 0.081 -0.1 -6.95015e-009 1.73754e-009 -0.0397502 
0.239 0.297 -0.1 -4.7176e-009 1.1794e-009 -0.0269815 
0.208432 0.306306 -0.1 -1.44209e-009 3.60523e-010 -0.00824781 
0.180704 0.317116 -0.1 -1.62934e-009 4.07334e-010 -0.00931872 
0.155781 0.329266 -0.1 -1.73206e-009 4.33016e-010 -0.00990625 
0.13363 0.342593 -0.1 -1.75253e-009 4.38131e-010 -0.0100233 
0.114214 0.356934 -0.1 -2.01574e-009 5.03936e-010 -0.0115287 
0.0975 0.372125 -0.1 -1.19735e-009 2.99336e-010 -0.00684802 
0.083453 0.388004 -0.1 -2.06032e-009 5.15078e-010 -0.0117836 
0.072037 0.404407 -0.1 -1.25511e-009 3.13779e-010 -0.00717842 
0.063219 0.421172 -0.1 -9.98891e-010 2.49723e-010 -0.00571299 
0.056963 0.438134 -0.1 -9.44154e-010 2.36038e-010 -0.00539993 
0.053235 0.455131 -0.1 -9.13154e-010 2.28288e-010 -0.00522263 
0.052 0.472 -0.1 -1.19155e-009 2.97887e-010 -0.00681485 
0.053464 0.495653 -0.1 -1.11427e-009 2.78568e-010 -0.0063729 
0.057796 0.518055 -0.1 -1.22456e-009 3.06141e-010 -0.00700368 
0.064906 0.539125 -0.1 -1.19418e-009 2.98544e-010 -0.00682989 
0.074704 0.558778 -0.1 -1.17356e-009 2.93391e-010 -0.006712 
0.087098 0.576931 -0.1 -1.34953e-009 3.37383e-010 -0.00771843 
0.102 0.5935 -0.1 -3.90012e-009 9.75029e-010 -0.0223061 
0.119318 0.608403 -0.1 -2.42747e-009 6.06868e-010 -0.0138835 
0.138963 0.621556 -0.1 -1.83999e-009 4.59997e-010 -0.0105235 
0.160844 0.632875 -0.1 -1.28696e-009 3.2174e-010 -0.00736055 
0.18487 0.642278 -0.1 -8.02854e-010 2.00714e-010 -0.00459179 
0.210953 0.649681 -0.1 -4.38356e-010 1.09589e-010 -0.0025071 
0.239 0.655 -0.1 -1.10855e-009 2.77137e-010 -0.00634016 
0.239 0.691 -0.1 -5.16144e-010 1.29036e-010 -0.002952 
0.321 0.691 -0.1 -1.03229e-009 2.58072e-010 -0.005904 
0.321 0.655 -0.1 -6.30376e-010 1.57594e-010 -0.00360533 
0.332678 0.653591 -0.1 -9.3217e-011 2.33043e-011 -0.000533139 
0.345093 0.651394 -0.1 -1.28108e-010 3.20271e-011 -0.000732694 
0.358063 0.648453 -0.1 -3.9345e-010 9.83626e-011 -0.00225027 
0.371407 0.644815 -0.1 -2.7053e-010 6.76325e-011 -0.00154725 
0.384947 0.640524 -0.1 -6.92354e-010 1.73088e-010 -0.0039598 
0.3985 0.635625 -0.1 -4.43444e-010 1.10861e-010 -0.0025362 
0.411887 0.630164 -0.1 -1.0455e-009 2.61376e-010 -0.00597959 
0.424926 0.624185 -0.1 -6.33238e-010 1.58309e-010 -0.0036217 
0.437438 0.617734 -0.1 -1.42961e-009 3.57402e-010 -0.0081764 
0.449241 0.610857 -0.1 -8.2525e-010 2.06312e-010 -0.00471988 
0.460155 0.603597 -0.1 -1.81928e-009 4.54819e-010 -0.0104051 
0.47 0.596 -0.1 -4.68382e-009 1.17096e-009 -0.0267883 
0.47 0.488 -0.1 -1.75445e-010 4.38612e-011 -0.00100343 
0.239 0.567 -0.1 -3.1456e-009 7.864e-010 -0.0179907 
0.239 0.396 -0.1 -6.30744e-009 1.57686e-009 -0.0360743 
0.224225 0.401418 -0.1 -7.44758e-010 1.86189e-010 -0.00425952 
0.21088 0.407176 -0.1 -3.0023e-010 7.50575e-011 -0.00171712 
0.198937 0.413281 -0.1 -3.13717e-010 7.84293e-011 -0.00179425 
0.18837 0.419741 -0.1 -6.71306e-010 1.67826e-010 -0.00383942 
0.17915 0.426561 -0.1 -3.00094e-010 7.50235e-011 -0.00171634 
0.17125 0.43375 -0.1 -6.33397e-010 1.58349e-010 -0.00362261 
0.164641 0.441314 -0.1 -2.98634e-010 7.46587e-011 -0.00170799 
0.159296 0.449259 -0.1 -6.1427e-010 1.53568e-010 -0.00351321 
0.155187 0.457594 -0.1 -3.07216e-010 7.68041e-011 -0.00175707 
0.152287 0.466324 -0.1 -6.09875e-010 1.52469e-010 -0.00348808 
0.150567 0.475457 -0.1 -3.23244e-010 8.08112e-011 -0.00184874 
0.15 0.485 -0.1 -3.36026e-010 8.40064e-011 -0.00192184 
0.150758 0.495093 -0.1 -7.39489e-010 1.84872e-010 -0.00422938 
0.152981 0.504824 -0.1 -3.21801e-010 8.04502e-011 -0.00184049 
0.156594 0.514125 -0.1 -7.01419e-010 1.75355e-010 -0.00401165 
0.161519 0.522926 -0.1 -2.99444e-010 7.48609e-011 -0.00171262 
0.167679 0.531157 -0.1 -2.73137e-010 6.82843e-011 -0.00156216 
0.175 0.53875 -0.1 -6.68225e-010 1.67056e-010 -0.0038218 
0.183404 0.545634 -0.1 -2.48884e-010 6.22211e-011 -0.00142345 
0.192815 0.551741 -0.1 -2.10623e-010 5.26558e-011 -0.00120462 
0.203156 0.557 -0.1 -6.40262e-010 1.60065e-010 -0.00366187 
0.214352 0.561343 -0.1 -1.77594e-010 4.43986e-011 -0.00101572 
0.226325 0.564699 -0.1 -1.2445e-010 3.11126e-011 -0.000711773 
0.334436 0.085564 -0.1 -2.23374e-010 5.58433e-011 -0.00127755 
0.346741 0.089759 -0.1 -2.48244e-010 6.2061e-011 -0.00141979 
0.357906 0.094594 -0.1 -6.58228e-010 1.64557e-010 -0.00376463 
0.367926 0.100074 -0.1 -2.4505e-010 6.12625e-011 -0.00140152 
0.376793 0.106207 -0.1 -2.67521e-010 6.68804e-011 -0.00153004 
0.3845 0.113 -0.1 -6.37723e-010 1.59431e-010 -0.00364735 
0.391041 0.120459 -0.1 -2.81818e-010 7.04546e-011 -0.00161181 
0.396407 0.128593 -0.1 -6.42004e-010 1.60501e-010 -0.00367183 
0.400594 0.137406 -0.1 -3.10754e-010 7.76884e-011 -0.0017773 
0.403593 0.146907 -0.1 -6.67132e-010 1.66783e-010 -0.00381555 
0.405397 0.157103 -0.1 -3.52174e-010 8.80435e-011 -0.0020142 
0.406 0.168 -0.1 -6.80388e-010 1.70097e-010 -0.00389137 
0.405512 0.177985 -0.1 -3.27659e-010 8.19149e-011 -0.00187399 
0.404009 0.187463 -0.1 -3.08526e-010 7.71315e-011 -0.00176456 
0.401438 0.196469 -0.1 -6.82626e-010 1.70656e-010 -0.00390416 
0.397741 0.205037 -0.1 -2.90616e-010 7.2654e-011 -0.00166213 
0.392863 0.213203 -0.1 -6.79012e-010 1.69753e-010 -0.00388349 
0.38675 0.221 -0.1 -2.89076e-010 7.2269e-011 -0.00165332 
0.379345 0.228464 -0.1 -2.74082e-010 6.85205e-011 -0.00156757 
0.370593 0.23563 -0.1 -7.1336e-010 1.7834e-010 -0.00407994 
0.360438 0.242531 -0.1 -2.96378e-010 7.40947e-011 -0.00169509 
0.348824 0.249204 -0.1 -2.83216e-010 7.08042e-011 -0.00161981 
0.335697 0.255682 -0.1 -8.02786e-010 2.00696e-010 -0.0045914 
0.321 0.262 -0.1 -8.11551e-009 2.02888e-009 -0.0464153 
0.321 0.082 -0.1 -2.78102e-009 6.95257e-010 -0.0159056 
0.460709 0.496678 -0.1 -2.0018 -2.23278 2.52408e-007 
0.460709 0.496678 0.1 -1.95583 -2.27315 2.42606e-007 
0.450421 0.505171 -0.1 -1.86792 -2.34632 2.24037e-007 
0.450421 0.505171 0.1 -1.82597 -2.37911 2.15268e-007 
0.439266 0.513422 -0.1 -1.74488 -2.43943 1.98454e-007 
0.439266 0.513422 0.1 -1.70575 -2.46695 1.90409e-007 
0.42737 0.52137 -0.1 -1.62981 -2.51792 1.74903e-007 
0.42737 0.52137 0.1 -1.593 -2.54136 1.67443e-007 
0.414864 0.528958 -0.1 -1.52058 -2.58543 1.52853e-007 
0.414864 0.528958 0.1 -1.48495 -2.60606 1.45723e-007 
0.401875 0.536125 -0.1 -1.41432 -2.6451 1.31666e-007 
0.401875 0.536125 0.1 -1.37931 -2.66353 1.24739e-007 
0.388532 0.542813 -0.1 -1.30901 -2.69878 1.10907e-007 
0.388532 0.542813 0.1 -1.27373 -2.71561 1.04003e-007 
0.374963 0.548963 -0.1 -1.20208 -2.74807 9.00565e-008 
0.374963 0.548963 0.1 -1.16571 -2.76369 8.30145e-008 
0.361297 0.554516 -0.1 -1.09084 -2.79404 6.85974e-008 
0.361297 0.554516 0.1 -1.05234 -2.80877 6.12222e-008 
0.347662 0.559412 -0.1 -0.972236 -2.83741 4.59639e-008 
0.347662 0.559412 0.1 -0.930627 -2.85133 3.80804e-008 
0.334187 0.563593 -0.1 -0.842825 -2.87837 2.15465e-008 
0.334187 0.563593 0.1 -0.796633 -2.8915 1.28964e-008 
0.321 0.567 -0.1 0.499706 -1.93642 -1.72015e-007 
0.321 0.567 0.1 1.74985 -0.968208 -3.48276e-007 
0.321 0.369 -0.1 2.2981 0.954535 -3.60088e-007 
0.321 0.369 0.1 1.5962 1.90907 -1.9564e-007 
0.348509 0.360409 -0.1 0.96841 2.83722 -4.53035e-008 
0.348509 0.360409 0.1 1.04252 2.81083 -5.9415e-008 
0.373991 0.35019 -0.1 1.19396 2.74956 -8.85716e-008 
0.373991 0.35019 0.1 1.27128 2.71467 -1.03616e-007 
0.397375 0.338422 -0.1 1.42837 2.63496 -1.34567e-007 
0.397375 0.338422 0.1 1.50814 2.59013 -1.50473e-007 
0.418593 0.325185 -0.1 1.66895 2.489 -1.83011e-007 
0.418593 0.325185 0.1 1.74999 2.4327 -1.99641e-007 
0.437574 0.31056 -0.1 1.91155 2.30726 -2.33373e-007 
0.437574 0.31056 0.1 1.99207 2.23811 -2.50473e-007 
0.45425 0.294625 -0.1 2.14999 2.0861 -2.8473e-007 
0.45425 0.294625 0.1 2.22741 2.00323 -3.01888e-007 
0.468551 0.277461 -0.1 2.37598 1.8237 -3.35713e-007 
0.468551 0.277461 0.1 2.44715 1.72704 -3.52382e-007 
0.480407 0.259148 -0.1 2.57968 1.52114 -3.84554e-007 
0.480407 0.259148 0.1 2.64104 1.41191 -4.00058e-007 
0.48975 0.239766 -0.1 2.75073 1.18335 -4.29226e-007 
0.48975 0.239766 0.1 2.79905 1.06403 -4.42892e-007 
0.496509 0.219394 -0.1 2.88013 0.819283 -4.67766e-007 
0.496509 0.219394 0.1 2.91289 0.693869 -4.78976e-007 
0.500616 0.198112 -0.1 2.96181 0.441437 -4.98564e-007 
0.500616 0.198112 0.1 2.97798 0.314418 -5.06942e-007 
0.502 0.176 -0.1 2.99422 0.0637642 -5.20739e-007 
0.502 0.176 0.1 2.9943 -0.0598708 -5.26157e-007 
0.500788 0.156223 -0.1 2.98014 -0.301135 -5.34227e-007 
0.500788 0.156223 0.1 2.9659 -0.418765 -5.36879e-007 
0.497134 0.136116 -0.1 2.92444 -0.648784 -5.39685e-007 
0.497134 0.136116 0.1 2.89722 -0.761174 -5.39838e-007 
0.491016 0.116016 -0.1 2.83008 -0.981844 -5.37744e-007 
0.491016 0.116016 0.1 2.79016 -1.09012 -5.35498e-007 
0.482407 0.096259 -0.1 2.69739 -1.30261 -5.28565e-007 
0.482407 0.096259 0.1 2.64453 -1.40683 -5.23878e-007 
0.471285 0.077183 -0.1 2.5253 -1.61065 -5.11942e-007 
0.471285 0.077183 0.1 2.45894 -1.71025 -5.04692e-007 
0.457625 0.059125 -0.1 2.31241 -1.90328 -4.87509e-007 
0.457625 0.059125 0.1 2.23224 -1.99669 -4.77576e-007 
0.441402 0.042421 -0.1 2.05857 -2.17495 -4.55002e-007 
0.441402 0.042421 0.1 1.96507 -2.25979 -4.42362e-007 
0.422593 0.027407 -0.1 1.76608 -2.41823 -4.14496e-007 
0.422593 0.027407 0.1 1.66061 -2.49185 -3.99272e-007 
0.401172 0.014422 -0.1 1.44065 -2.62511 -3.66639e-007 
0.401172 0.014422 0.1 1.32617 -2.68476 -3.49229e-007 
0.377116 0.003801 -0.1 1.09202 -2.78837 -3.12818e-007 
0.377116 0.003801 0.1 0.972347 -2.83232 -2.93815e-007 
0.3504 -0.004119 -0.1 0.732229 -2.90401 -2.54965e-007 
0.3504 -0.004119 0.1 0.611783 -2.93175 -2.35119e-007 
0.321 -0.00899999 -0.1 1.32756 -1.97299 -3.1836e-007 
0.321 -0.009 0.1 2.16378 -0.986497 -4.21449e-007 
0.321 -0.118 -0.1 2 -1 -3.93403e-007 
0.321 -0.118 0.1 1 -2 -2.62269e-007 
0.239 -0.118 -0.1 -1 -2 8.74228e-008 
0.239 -0.118 0.1 -2 -1 3.0598e-007 
0.239 -0.00899999 -0.1 -2.09183 -0.995774 3.22221e-007 
0.239 -0.009 0.1 -1.18367 -1.99155 1.19906e-007 
0.22241 -0.00747 -0.1 -0.337931 -2.97958 -7.11561e-008 
0.22241 -0.00747 0.1 -0.400359 -2.97183 -5.9902e-008 
0.206116 -0.004926 -0.1 -0.52104 -2.95322 -3.79877e-008 
0.206116 -0.004926 0.1 -0.579293 -2.94235 -2.73271e-008 
0.190078 -0.001438 -0.1 -0.690968 -2.91831 -6.75056e-009 
0.190078 -0.001438 0.1 -0.744389 -2.90514 3.16545e-009 
0.174259 0.002926 -0.1 -0.845714 -2.87746 2.20917e-008 
0.174259 0.002926 0.1 -0.893618 -2.86294 3.1102e-008 
0.158621 0.008095 -0.1 -0.983769 -2.8334 4.81556e-008 
0.158621 0.008095 0.1 -1.02602 -2.81838 5.61994e-008 
0.143125 0.014 -0.1 -1.10485 -2.78858 7.12859e-008 
0.143125 0.014 0.1 -1.14145 -2.7738 7.83302e-008 
0.127733 0.020572 -0.1 -1.20906 -2.74515 9.14045e-008 
0.127733 0.020572 0.1 -1.24009 -2.73128 9.74359e-008 
0.112407 0.027741 -0.1 -1.29686 -2.70491 1.08515e-007 
0.112407 0.027741 0.1 -1.32261 -2.69241 1.13564e-007 
0.097109 0.035438 -0.1 -1.36908 -2.66918 1.22704e-007 
0.097109 0.035438 0.1 -1.3898 -2.65845 1.26796e-007 
0.081801 0.043593 -0.1 -1.42652 -2.63901 1.34066e-007 
0.081801 0.043593 0.1 -1.44253 -2.63029 1.37246e-007 
0.066444 0.052137 -0.1 -1.4701 -2.61504 1.42733e-007 
0.066444 0.052137 0.1 -1.48166 -2.60851 1.4504e-007 
0.051 0.061 -0.1 -1.99548 -1.73465 2.73077e-007 
0.051 0.061 0.1 -2.49774 -0.867326 3.98806e-007 
0.051 0.182 -0.1 -1.34107 0.752201 2.67359e-007 
0.051 0.182 0.1 0.317867 1.5044 1.01818e-008 
0.066501 0.168421 -0.1 1.96039 2.27067 -2.43511e-007 
0.066501 0.168421 0.1 1.94397 2.28474 -2.40025e-007 
0.081176 0.156116 -0.1 1.90456 2.31752 -2.31702e-007 
0.081176 0.156116 0.1 1.88156 2.33623 -2.26863e-007 
0.095281 0.144984 -0.1 1.82824 2.37795 -2.15716e-007 
0.095281 0.144984 0.1 1.79791 2.40096 -2.09408e-007 
0.109074 0.134926 -0.1 1.73006 2.45004 -1.95399e-007 
0.109074 0.134926 0.1 1.69254 2.47611 -1.87698e-007 
0.122811 0.12584 -0.1 1.61108 2.52964 -1.71116e-007 
0.122811 0.12584 0.1 1.56714 2.55709 -1.62234e-007 
0.13675 0.117625 -0.1 1.47476 2.61131 -1.43711e-007 
0.13675 0.117625 0.1 1.42632 2.63809 -1.34071e-007 
0.151147 0.110181 -0.1 1.32762 2.68909 -1.14585e-007 
0.151147 0.110181 0.1 1.27737 2.71332 -1.04739e-007 
0.166259 0.103407 -0.1 1.17794 2.75804 -8.53996e-008 
0.166259 0.103407 0.1 1.12876 2.77853 -7.59053e-008 
0.182344 0.097203 -0.1 1.03417 2.81529 -5.77603e-008 
0.182344 0.097203 0.1 0.988763 2.83155 -4.91097e-008 
0.199657 0.091468 -0.1 0.903461 2.86012 -3.29465e-008 
0.199657 0.091468 0.1 0.863569 2.87241 -2.5434e-008 
0.218457 0.0861 -0.1 0.790064 2.89368 -1.16524e-008 
0.218457 0.0861 0.1 0.75645 2.90265 -5.38316e-009 
0.239 0.081 -0.1 -0.518109 1.94108 1.75437e-007 
0.239 0.081 0.1 -1.75905 0.970539 3.49986e-007 
0.239 0.297 -0.1 -2.29124 -0.95665 3.58797e-007 
0.239 0.297 0.1 -1.58248 -1.9133 1.93056e-007 
0.208432 0.306306 -0.1 -0.945709 -2.845 4.09941e-008 
0.208432 0.306306 0.1 -1.0177 -2.82005 5.46721e-008 
0.180704 0.317116 -0.1 -1.16466 -2.76227 8.28932e-008 
0.180704 0.317116 0.1 -1.23964 -2.72945 9.74373e-008 
0.155781 0.329266 -0.1 -1.39194 -2.65462 1.27337e-007 
0.155781 0.329266 0.1 -1.46927 -2.61262 1.42694e-007 
0.13363 0.342593 -0.1 -1.62519 -2.51812 1.74087e-007 
0.13363 0.342593 0.1 -1.70378 -2.46562 1.90123e-007 
0.114214 0.356934 -0.1 -1.86084 -2.34876 2.22691e-007 
0.114214 0.356934 0.1 -1.9393 -2.28441 2.39223e-007 
0.0975 0.372125 -0.1 -2.09416 -2.14262 2.72498e-007 
0.0975 0.372125 0.1 -2.17057 -2.06518 2.89243e-007 
0.083453 0.388004 -0.1 -2.31877 -1.8964 3.22532e-007 
0.083453 0.388004 0.1 -2.39056 -1.80506 3.39076e-007 
0.072037 0.404407 -0.1 -2.52661 -1.60799 3.71478e-007 
0.072037 0.404407 0.1 -2.59087 -1.50226 3.87336e-007 
0.063219 0.421172 -0.1 -2.7083 -1.27706 4.17712e-007 
0.063219 0.421172 0.1 -2.76148 -1.15759 4.32233e-007 
0.056963 0.438134 -0.1 -2.85322 -0.906317 4.59256e-007 
0.056963 0.438134 0.1 -2.89178 -0.774519 4.71759e-007 
0.053235 0.455131 -0.1 -2.95089 -0.501496 4.94029e-007 
0.053235 0.455131 0.1 -2.97144 -0.360272 5.03796e-007 
0.052 0.472 -0.1 -2.99275 -0.084255 5.19586e-007 
0.052 0.472 0.1 -2.99351 0.0505374 5.25611e-007 
0.053464 0.495653 -0.1 -2.97799 0.313412 5.34388e-007 
0.053464 0.495653 0.1 -2.96171 0.441493 5.3714e-007 
0.057796 0.518055 -0.1 -2.91113 0.69945 5.39572e-007 
0.057796 0.518055 0.1 -2.87683 0.829325 5.39251e-007 
0.064906 0.539125 -0.1 -2.78996 1.08564 5.35267e-007 
0.064906 0.539125 0.1 -2.7374 1.21208 5.31604e-007 
0.074704 0.558778 -0.1 -2.61576 1.45621 5.21007e-007 
0.074704 0.558778 0.1 -2.54668 1.5739 5.14073e-007 
0.087098 0.576931 -0.1 -2.39526 1.79644 4.97325e-007 
0.087098 0.576931 0.1 -2.31291 1.90129 4.8751e-007 
0.102 0.5935 -0.1 -2.13932 2.09541 4.65643e-007 
0.102 0.5935 0.1 -2.04808 2.18467 4.53593e-007 
0.119318 0.608403 -0.1 -1.86091 2.34691 4.27958e-007 
0.119318 0.608403 0.1 -1.76497 2.41988 4.14374e-007 
0.138963 0.621556 -0.1 -1.57216 2.5501 3.86354e-007 
0.138963 0.621556 0.1 -1.47528 2.60734 3.71916e-007 
0.160844 0.632875 -0.1 -1.28338 2.70762 3.42747e-007 
0.160844 0.632875 0.1 -1.18836 2.75064 3.28014e-007 
0.18487 0.642278 -0.1 -1.00194 2.82445 2.98645e-007 
0.18487 0.642278 0.1 -0.910528 2.85523 2.84008e-007 
0.210953 0.649681 -0.1 -0.732402 2.90649 2.55105e-007 
0.210953 0.649681 0.1 -0.645688 2.92698 2.40838e-007 
0.239 0.655 -0.1 -1.37265 1.96498 3.25894e-007 
0.239 0.655 0.1 -2.18632 0.982488 4.25215e-007 
0.239 0.691 -0.1 -2 1 3.93403e-007 
0.239 0.691 0.1 -1 2 2.62269e-007 
0.321 0.691 -0.1 1 2 -8.74228e-008 
0.321 0.691 0.1 2 1 -3.0598e-007 
0.321 0.655 -0.1 2.11979 0.9928 -3.27239e-007 
0.321 0.655 0.1 1.23957 1.9856 -1.2994e-007 
0.332678 0.653591 -0.1 0.413823 2.9703 5.74808e-008 
0.332678 0.653591 0.1 0.468291 2.9622 4.76033e-008 
0.345093 0.651394 -0.1 0.569647 2.94464 2.91142e-008 
0.345093 0.651394 0.1 0.616535 2.93518 2.05026e-008 
0.358063 0.648453 -0.1 0.705312 2.91527 4.10986e-009 
0.358063 0.648453 0.1 0.747201 2.90482 -3.67119e-009 
0.371407 0.644815 -0.1 0.828165 2.88285 -1.87876e-008 
0.371407 0.644815 0.1 0.86724 2.87134 -2.61229e-008 
0.384947 0.640524 -0.1 0.944154 2.84699 -4.06351e-008 
0.384947 0.640524 0.1 0.981994 2.83417 -4.78119e-008 
0.3985 0.635625 -0.1 1.0576 2.80681 -6.22271e-008 
0.3985 0.635625 0.1 1.09537 2.79229 -6.94657e-008 
0.411887 0.630164 -0.1 1.17224 2.76084 -8.42811e-008 
0.411887 0.630164 0.1 1.21134 2.74391 -9.18578e-008 
0.424926 0.624185 -0.1 1.29189 2.7068 -1.07563e-007 
0.424926 0.624185 0.1 1.33334 2.68663 -1.15692e-007 
0.437438 0.617734 -0.1 1.41995 2.64167 -1.32801e-007 
0.437438 0.617734 0.1 1.46512 2.61689 -1.41782e-007 
0.449241 0.610857 -0.1 1.56072 2.56068 -1.60953e-007 
0.449241 0.610857 0.1 1.61114 2.52926 -1.71143e-007 
0.460155 0.603597 -0.1 1.71863 2.45692 -1.931e-007 
0.460155 0.603597 0.1 1.77569 2.416 -2.04865e-007 
0.47 0.596 -0.1 2.22183 1.58339 -3.19266e-007 
0.47 0.596 0.1 2.61092 0.791694 -4.21902e-007 
0.47 0.488 -0.1 1.31741 -0.730804 -2.62288e-007 
0.47 0.488 0.1 -0.365174 -1.46161 -3.98757e-011 
0.239 0.567 -0.1 0.642765 1.96784 -2.63677e-008 
0.239 0.567 0.1 1.82138 0.983919 -2.75452e-007 
0.239 0.396 -0.1 1.65572 -0.938866 -3.30535e-007 
0.239 0.396 0.1 0.311434 -1.87773 -1.36531e-007 
0.224225 0.401418 -0.1 -1.08473 -2.79591 6.74474e-008 
0.224225 0.401418 0.1 -1.13662 -2.77522 7.7424e-008 
0.21088 0.407176 -0.1 -1.24749 -2.72677 9.89276e-008 
0.21088 0.407176 0.1 -1.30649 -2.699 1.10457e-007 
0.198937 0.413281 -0.1 -1.43191 -2.63402 1.35226e-007 
0.198937 0.413281 0.1 -1.49834 -2.5968 1.48468e-007 
0.18837 0.419741 -0.1 -1.63787 -2.51035 1.76643e-007 
0.18837 0.419741 0.1 -1.71096 -2.46111 1.91575e-007 
0.17915 0.426561 -0.1 -1.86241 -2.34752 2.23021e-007 
0.17915 0.426561 0.1 -1.94077 -2.28317 2.39534e-007 
0.17125 0.43375 -0.1 -2.09913 -2.13718 2.73604e-007 
0.17125 0.43375 0.1 -2.17913 -2.05554 2.91161e-007 
0.164641 0.441314 -0.1 -2.3358 -1.87413 3.26484e-007 
0.164641 0.441314 0.1 -2.41247 -1.77435 3.44251e-007 
0.159296 0.449259 -0.1 -2.55636 -1.55855 3.78842e-007 
0.159296 0.449259 0.1 -2.62357 -1.44253 3.95665e-007 
0.155187 0.457594 -0.1 -2.74287 -1.19959 4.27143e-007 
0.155187 0.457594 0.1 -2.79495 -1.07267 4.41796e-007 
0.152287 0.466324 -0.1 -2.88074 -0.815572 4.68035e-007 
0.152287 0.466324 0.1 -2.91446 -0.685399 4.7962e-007 
0.150567 0.475457 -0.1 -2.96369 -0.429461 4.99416e-007 
0.150567 0.475457 0.1 -2.9792 -0.303695 5.07625e-007 
0.15 0.485 -0.1 -2.99367 -0.043729 5.21519e-007 
0.15 0.485 0.1 -2.99262 0.0904706 5.27201e-007 
0.150758 0.495093 -0.1 -2.96927 0.372488 5.35446e-007 
0.150758 0.495093 0.1 -2.94696 0.520306 5.38006e-007 
0.152981 0.504824 -0.1 -2.88191 0.807508 5.39187e-007 
0.152981 0.504824 0.1 -2.83917 0.946893 5.37806e-007 
0.156594 0.514125 -0.1 -2.73694 1.21252 5.31543e-007 
0.156594 0.514125 0.1 -2.67745 1.33877 5.2666e-007 
0.161519 0.522926 -0.1 -2.54593 1.57584 5.14027e-007 
0.161519 0.522926 0.1 -2.4739 1.68668 5.06277e-007 
0.167679 0.531157 -0.1 -2.32112 1.89244 4.88559e-007 
0.167679 0.531157 0.1 -2.24038 1.98737 4.78591e-007 
0.175 0.53875 -0.1 -2.07344 2.16179 4.57027e-007 
0.175 0.53875 0.1 -1.98724 2.24129 4.4543e-007 
0.183404 0.545634 -0.1 -1.81171 2.38605 4.21067e-007 
0.183404 0.545634 0.1 -1.72239 2.45131 4.08302e-007 
0.192815 0.551741 -0.1 -1.54201 2.56907 3.81911e-007 
0.192815 0.551741 0.1 -1.45096 2.62157 3.68287e-007 
0.203156 0.557 -0.1 -1.26826 2.71502 3.40427e-007 
0.203156 0.557 0.1 -1.17661 2.75598 3.26193e-007 
0.214352 0.561343 -0.1 -0.993199 2.82752 2.97251e-007 
0.214352 0.561343 0.1 -0.90144 2.85809 2.82544e-007 
0.226325 0.564699 -0.1 -0.718405 2.9097 2.52797e-007 
0.226325 0.564699 0.1 -0.627129 2.93073 2.37756e-007 
0.334436 0.085564 -0.1 -0.835464 2.87965 2.71951e-007 
0.334436 0.085564 0.1 -0.901755 2.85959 2.82664e-007 
0.346741 0.089759 -0.1 -1.04275 2.81067 3.05178e-007 
0.346741 0.089759 0.1 -1.11746 2.78181 3.16979e-007 
0.357906 0.094594 -0.1 -1.27461 2.71266 3.41434e-007 
0.357906 0.094594 0.1 -1.35706 2.67237 3.54089e-007 
0.367926 0.100074 -0.1 -1.52852 2.57716 3.79906e-007 
0.367926 0.100074 0.1 -1.61754 2.52224 3.9307e-007 
0.376793 0.106207 -0.1 -1.79893 2.39507 4.19226e-007 
0.376793 0.106207 0.1 -1.8913 2.32282 4.32219e-007 
0.3845 0.113 -0.1 -2.0743 2.15971 4.57086e-007 
0.3845 0.113 0.1 -2.16494 2.06884 4.68962e-007 
0.391041 0.120459 -0.1 -2.33844 1.86932 4.90576e-007 
0.391041 0.120459 0.1 -2.42131 1.76066 5.00316e-007 
0.396407 0.128593 -0.1 -2.57269 1.53046 5.16723e-007 
0.396407 0.128593 0.1 -2.64122 1.40892 5.23391e-007 
0.400594 0.137406 -0.1 -2.76011 1.15926 5.33266e-007 
0.400594 0.137406 0.1 -2.81049 1.03115 5.36474e-007 
0.403593 0.146907 -0.1 -2.89195 0.77625 5.39575e-007 
0.403593 0.146907 0.1 -2.92303 0.649463 5.39467e-007 
0.405397 0.157103 -0.1 -2.96788 0.403702 5.36567e-007 
0.405397 0.157103 0.1 -2.98165 0.284727 5.33774e-007 
0.406 0.168 -0.1 -2.99575 0.0616885 5.2649e-007 
0.406 0.168 0.1 -2.99609 -0.0423758 5.22001e-007 
0.405512 0.177985 -0.1 -2.98527 -0.254246 5.10849e-007 
0.405512 0.177985 0.1 -2.97413 -0.362053 5.04187e-007 
0.404009 0.187463 -0.1 -2.9369 -0.587751 4.87813e-007 
0.404009 0.187463 0.1 -2.91083 -0.705643 4.78101e-007 
0.401438 0.196469 -0.1 -2.84134 -0.945205 4.5548e-007 
0.401438 0.196469 0.1 -2.79793 -1.06688 4.42571e-007 
0.397741 0.205037 -0.1 -2.69484 -1.30519 4.14129e-007 
0.397741 0.205037 0.1 -2.63516 -1.42183 3.98596e-007 
0.392863 0.213203 -0.1 -2.50395 -1.64264 3.66002e-007 
0.392863 0.213203 0.1 -2.43243 -1.74682 3.48944e-007 
0.38675 0.221 -0.1 -2.28384 -1.93829 3.14594e-007 
0.38675 0.221 0.1 -2.20678 -2.02559 2.97305e-007 
0.379345 0.228464 -0.1 -2.05333 -2.18232 2.63623e-007 
0.379345 0.228464 0.1 -1.97694 -2.25175 2.47232e-007 
0.370593 0.23563 -0.1 -1.8291 -2.37455 2.16015e-007 
0.370593 0.23563 0.1 -1.75765 -2.42792 2.01189e-007 
0.360438 0.242531 -0.1 -1.62232 -2.52126 1.73447e-007 
0.360438 0.242531 0.1 -1.55844 -2.56123 1.60531e-007 
0.348824 0.249204 -0.1 -1.43891 -2.63089 1.36587e-007 
0.348824 0.249204 0.1 -1.38326 -2.66057 1.25559e-007 
0.335697 0.255682 -0.1 -1.28001 -2.71221 1.05249e-007 
0.335697 0.255682 0.1 -1.23241 -2.73417 9.59672e-008 
0.321 0.262 -0.1 0.210124 -1.83742 -1.17055e-007 
0.321 0.262 0.1 1.60506 -0.918708 -3.20796e-007 
0.321 0.082 -0.1 1.74361 0.966573 -2.62612e-007 
0.321 0.082 0.1 0.487218 1.93315 -6.87351e-010 
3 89 91 90 
3 89 92 91 
3 88 92 89 
3 88 93 92 
3 88 94 93 
3 88 95 94 
3 87 95 88 
3 87 96 95 
3 87 97 96 
3 86 97 87 
3 86 98 97 
3 86 99 98 
3 85 99 86 
3 85 100 99 
3 85 101 100 
3 84 101 85 
3 84 102 101 
3 84 103 102 
3 83 103 84 
3 83 104 103 
3 83 11 104 
3 11 10 104 
3 10 9 104 
3 9 8 104 
3 8 7 104 
3 7 6 104 
3 6 5 104 
3 5 4 104 
3 4 3 104 
3 3 2 104 
3 2 1 104 
3 1 0 104 
3 0 105 104 
3 82 11 83 
3 81 106 82 
3 106 11 82 
3 81 130 106 
3 107 11 106 
3 107 12 11 
3 81 129 130 
3 81 128 129 
3 80 128 81 
3 80 127 128 
3 80 126 127 
3 80 125 126 
3 79 125 80 
3 79 124 125 
3 79 123 124 
3 79 122 123 
3 78 122 79 
3 78 121 122 
3 78 120 121 
3 77 120 78 
3 77 119 120 
3 77 118 119 
3 77 117 118 
3 76 117 77 
3 76 116 117 
3 76 115 116 
3 75 115 76 
3 75 114 115 
3 75 113 114 
3 74 113 75 
3 74 112 113 
3 74 111 112 
3 73 111 74 
3 73 110 111 
3 73 109 110 
3 73 108 109 
3 72 108 73 
3 72 107 108 
3 72 12 107 
3 71 12 72 
3 70 12 71 
3 70 13 12 
3 70 14 13 
3 69 14 70 
3 69 15 14 
3 68 15 69 
3 68 16 15 
3 67 16 68 
3 67 17 16 
3 66 17 67 
3 66 18 17 
3 65 18 66 
3 64 154 65 
3 154 18 65 
3 154 19 18 
3 154 20 19 
3 64 155 154 
3 153 20 154 
3 153 21 20 
3 152 21 153 
3 151 21 152 
3 150 21 151 
3 150 22 21 
3 149 22 150 
3 148 22 149 
3 147 22 148 
3 147 23 22 
3 146 23 147 
3 145 23 146 
3 145 24 23 
3 144 24 145 
3 143 24 144 
3 51 53 52 
3 142 24 143 
3 142 25 24 
3 51 54 53 
3 141 25 142 
3 140 25 141 
3 140 26 25 
3 51 55 54 
3 139 26 140 
3 51 56 55 
3 138 26 139 
3 138 27 26 
3 51 57 56 
3 137 27 138 
3 51 58 57 
3 136 27 137 
3 51 59 58 
3 136 28 27 
3 135 28 136 
3 51 60 59 
3 134 28 135 
3 51 61 60 
3 133 28 134 
3 51 62 61 
3 133 29 28 
3 132 29 133 
3 51 63 62 
3 131 29 132 
3 51 64 63 
3 155 29 131 
3 64 29 155 
3 51 29 64 
3 51 30 29 
3 50 30 51 
3 50 31 30 
3 49 31 50 
3 48 31 49 
3 48 32 31 
3 47 32 48 
3 46 32 47 
3 46 33 32 
3 45 33 46 
3 45 34 33 
3 44 34 45 
3 43 34 44 
3 43 35 34 
3 42 35 43 
3 41 35 42 
3 41 36 35 
3 40 36 41 
3 39 36 40 
3 38 36 39 
3 38 37 36 
3 247 245 246 
3 248 245 247 
3 248 244 245 
3 249 244 248 
3 250 244 249 
3 251 244 250 
3 251 243 244 
3 252 243 251 
3 253 243 252 
3 253 242 243 
3 254 242 253 
3 255 242 254 
3 255 241 242 
3 256 241 255 
3 257 241 256 
3 257 240 241 
3 258 240 257 
3 259 240 258 
3 259 239 240 
3 260 239 259 
3 167 239 260 
3 166 167 260 
3 165 166 260 
3 164 165 260 
3 163 164 260 
3 162 163 260 
3 161 162 260 
3 160 161 260 
3 159 160 260 
3 158 159 260 
3 157 158 260 
3 156 157 260 
3 261 156 260 
3 167 238 239 
3 262 237 238 
3 167 262 238 
3 286 237 262 
3 167 263 262 
3 168 263 167 
3 285 237 286 
3 284 237 285 
3 284 236 237 
3 283 236 284 
3 282 236 283 
3 281 236 282 
3 281 235 236 
3 280 235 281 
3 279 235 280 
3 278 235 279 
3 278 234 235 
3 277 234 278 
3 276 234 277 
3 276 233 234 
3 275 233 276 
3 274 233 275 
3 273 233 274 
3 273 232 233 
3 272 232 273 
3 271 232 272 
3 271 231 232 
3 270 231 271 
3 269 231 270 
3 269 230 231 
3 268 230 269 
3 267 230 268 
3 267 229 230 
3 266 229 267 
3 265 229 266 
3 264 229 265 
3 264 228 229 
3 263 228 264 
3 168 228 263 
3 168 227 228 
3 168 226 227 
3 169 226 168 
3 170 226 169 
3 170 225 226 
3 171 225 170 
3 171 224 225 
3 172 224 171 
3 172 223 224 
3 173 223 172 
3 173 222 223 
3 174 222 173 
3 174 221 222 
3 310 220 221 
3 174 310 221 
3 175 310 174 
3 176 310 175 
3 311 220 310 
3 176 309 310 
3 177 309 176 
3 177 308 309 
3 177 307 308 
3 177 306 307 
3 178 306 177 
3 178 305 306 
3 178 304 305 
3 178 303 304 
3 179 303 178 
3 179 302 303 
3 179 301 302 
3 180 301 179 
3 180 300 301 
3 180 299 300 
3 209 207 208 
3 180 298 299 
3 181 298 180 
3 210 207 209 
3 181 297 298 
3 181 296 297 
3 182 296 181 
3 211 207 210 
3 182 295 296 
3 212 207 211 
3 182 294 295 
3 183 294 182 
3 213 207 212 
3 183 293 294 
3 214 207 213 
3 183 292 293 
3 215 207 214 
3 184 292 183 
3 184 291 292 
3 216 207 215 
3 184 290 291 
3 217 207 216 
3 184 289 290 
3 218 207 217 
3 185 289 184 
3 185 288 289 
3 219 207 218 
3 185 287 288 
3 220 207 219 
3 185 311 287 
3 185 220 311 
3 185 207 220 
3 186 207 185 
3 186 206 207 
3 187 206 186 
3 187 205 206 
3 187 204 205 
3 188 204 187 
3 188 203 204 
3 188 202 203 
3 189 202 188 
3 189 201 202 
3 190 201 189 
3 190 200 201 
3 190 199 200 
3 191 199 190 
3 191 198 199 
3 191 197 198 
3 192 197 191 
3 192 196 197 
3 192 195 196 
3 192 194 195 
3 193 194 192 
3 313 315 314 
3 313 314 312 
3 315 317 316 
3 315 316 314 
3 317 319 318 
3 317 318 316 
3 319 321 320 
3 319 320 318 
3 321 323 322 
3 321 322 320 
3 323 325 324 
3 323 324 322 
3 325 327 326 
3 325 326 324 
3 327 329 328 
3 327 328 326 
3 329 331 330 
3 329 330 328 
3 331 333 332 
3 331 332 330 
3 333 335 334 
3 333 334 332 
3 335 337 336 
3 335 336 334 
3 337 339 338 
3 337 338 336 
3 339 341 340 
3 339 340 338 
3 341 343 342 
3 341 342 340 
3 343 345 344 
3 343 344 342 
3 345 347 346 
3 345 346 344 
3 347 349 348 
3 347 348 346 
3 349 351 350 
3 349 350 348 
3 351 353 352 
3 351 352 350 
3 353 355 354 
3 353 354 352 
3 355 357 356 
3 355 356 354 
3 357 359 358 
3 357 358 356 
3 359 361 360 
3 359 360 358 
3 361 363 362 
3 361 362 360 
3 363 365 364 
3 363 364 362 
3 365 367 366 
3 365 366 364 
3 367 369 368 
3 367 368 366 
3 369 371 370 
3 369 370 368 
3 371 373 372 
3 371 372 370 
3 373 375 374 
3 373 374 372 
3 375 377 376 
3 375 376 374 
3 377 379 378 
3 377 378 376 
3 379 381 380 
3 379 380 378 
3 381 383 382 
3 381 382 380 
3 383 385 384 
3 383 384 382 
3 385 387 386 
3 385 386 384 
3 387 389 388 
3 387 388 386 
3 389 391 390 
3 389 390 388 
3 391 393 392 
3 391 392 390 
3 393 395 394 
3 393 394 392 
3 395 397 396 
3 395 396 394 
3 397 399 398 
3 397 398 396 
3 399 401 400 
3 399 400 398 
3 401 403 402 
3 401 402 400 
3 403 405 404 
3 403 404 402 
3 405 407 406 
3 405 406 404 
3 407 409 408 
3 407 408 406 
3 409 411 410 
3 409 410 408 
3 411 413 412 
3 411 412 410 
3 413 415 414 
3 413 414 412 
3 415 417 416 
3 415 416 414 
3 417 419 418 
3 417 418 416 
3 419 421 420 
3 419 420 418 
3 421 423 422 
3 421 422 420 
3 423 425 424 
3 423 424 422 
3 425 427 426 
3 425 426 424 
3 427 429 428 
3 427 428 426 
3 429 431 430 
3 429 430 428 
3 431 433 432 
3 431 432 430 
3 433 435 434 
3 433 434 432 
3 435 437 436 
3 435 436 434 
3 437 439 438 
3 437 438 436 
3 439 441 440 
3 439 440 438 
3 441 443 442 
3 441 442 440 
3 443 445 444 
3 443 444 442 
3 445 447 446 
3 445 446 444 
3 447 449 448 
3 447 448 446 
3 449 451 450 
3 449 450 448 
3 451 453 452 
3 451 452 450 
3 453 455 454 
3 453 454 452 
3 455 457 456 
3 455 456 454 
3 457 459 458 
3 457 458 456 
3 459 461 460 
3 459 460 458 
3 461 463 462 
3 461 462 460 
3 463 465 464 
3 463 464 462 
3 465 467 466 
3 465 466 464 
3 467 469 468 
3 467 468 466 
3 469 471 470 
3 469 470 468 
3 471 473 472 
3 471 472 470 
3 473 475 474 
3 473 474 472 
3 475 477 476 
3 475 476 474 
3 477 479 478 
3 477 478 476 
3 479 481 480 
3 479 480 478 
3 481 483 482 
3 481 482 480 
3 483 485 484 
3 483 484 482 
3 485 487 486 
3 485 486 484 
3 487 489 488 
3 487 488 486 
3 489 491 490 
3 489 490 488 
3 491 493 492 
3 491 492 490 
3 493 495 494 
3 493 494 492 
3 495 497 496 
3 495 496 494 
3 497 499 498 
3 497 498 496 
3 499 501 500 
3 499 500 498 
3 501 503 502 
3 501 502 500 
3 503 505 504 
3 503 504 502 
3 505 507 506 
3 505 506 504 
3 507 509 508 
3 507 508 506 
3 509 511 510 
3 509 510 508 
3 511 513 512 
3 511 512 510 
3 513 515 514 
3 513 514 512 
3 515 517 516 
3 515 516 514 
3 517 519 518 
3 517 518 516 
3 519 521 520 
3 519 520 518 
3 521 523 522 
3 521 522 520 
3 523 313 312 
3 523 312 522 
3 525 527 526 
3 525 526 524 
3 527 529 528 
3 527 528 526 
3 529 531 530 
3 529 530 528 
3 531 533 532 
3 531 532 530 
3 533 535 534 
3 533 534 532 
3 535 537 536 
3 535 536 534 
3 537 539 538 
3 537 538 536 
3 539 541 540 
3 539 540 538 
3 541 543 542 
3 541 542 540 
3 543 545 544 
3 543 544 542 
3 545 547 546 
3 545 546 544 
3 547 549 548 
3 547 548 546 
3 549 551 550 
3 549 550 548 
3 551 553 552 
3 551 552 550 
3 553 555 554 
3 553 554 552 
3 555 557 556 
3 555 556 554 
3 557 559 558 
3 557 558 556 
3 559 561 560 
3 559 560 558 
3 561 563 562 
3 561 562 560 
3 563 565 564 
3 563 564 562 
3 565 567 566 
3 565 566 564 
3 567 569 568 
3 567 568 566 
3 569 571 570 
3 569 570 568 
3 571 573 572 
3 571 572 570 
3 573 525 524 
3 573 524 572 
3 575 577 576 
3 575 576 574 
3 577 579 578 
3 577 578 576 
3 579 581 580 
3 579 580 578 
3 581 583 582 
3 581 582 580 
3 583 585 584 
3 583 584 582 
3 585 587 586 
3 585 586 584 
3 587 589 588 
3 587 588 586 
3 589 591 590 
3 589 590 588 
3 591 593 592 
3 591 592 590 
3 593 595 594 
3 593 594 592 
3 595 597 596 
3 595 596 594 
3 597 599 598 
3 597 598 596 
3 599 601 600 
3 599 600 598 
3 601 603 602 
3 601 602 600 
3 603 605 604 
3 603 604 602 
3 605 607 606 
3 605 606 604 
3 607 609 608 
3 607 608 606 
3 609 611 610 
3 609 610 608 
3 611 613 612 
3 611 612 610 
3 613 615 614 
3 613 614 612 
3 615 617 616 
3 615 616 614 
3 617 619 618 
3 617 618 616 
3 619 621 620 
3 619 620 618 
3 621 623 622 
3 621 622 620 
3 623 575 574 
3 623 574 622 
