ply
format ascii 1.0
comment VCGLIB generated
element vertex 164
property float x
property float y
property float z
property float nx
property float ny
property float nz
element face 160
property list uchar int vertex_indices
end_header
0.172917 -0.039047 0.1 1.40662e-009 -3.51655e-010 0.00804492 
0.169588 -0.068542 0.1 1.61619e-009 -4.04048e-010 0.00924355 
0.163891 -0.096266 0.1 1.22421e-009 -3.06052e-010 0.00700166 
0.155704 -0.122 0.1 1.61134e-009 -4.02835e-010 0.00921578 
0.144906 -0.145526 0.1 4.29984e-009 -1.07496e-009 0.0245922 
0.131375 -0.166625 0.1 8.9177e-010 -2.22943e-010 0.00510033 
0.11499 -0.185078 0.1 6.78066e-010 -1.69517e-010 0.00387809 
0.09563 -0.200667 0.1 4.86027e-010 -1.21507e-010 0.00277975 
0.073172 -0.213172 0.1 3.19937e-010 -7.99842e-011 0.00182983 
0.047495 -0.222375 0.1 1.84331e-010 -4.60829e-011 0.00105425 
0.018479 -0.228057 0.1 8.43548e-011 -2.10887e-011 0.000482453 
-0.014 -0.23 0.1 2.17708e-011 -5.44271e-012 0.000124515 
-0.01692 -0.22998 0.1 2.04276e-014 -5.10691e-015 1.16832e-007 
-0.019694 -0.229921 0.1 7.64072e-014 -1.91018e-014 4.36998e-007 
-0.022344 -0.229828 0.1 1.60357e-013 -4.00892e-014 9.17134e-007 
-0.024889 -0.229704 0.1 2.6823e-013 -6.70576e-014 1.5341e-006 
-0.027351 -0.229551 0.1 3.8636e-013 -9.65898e-014 2.20972e-006 
-0.02975 -0.229375 0.1 5.07352e-013 -1.26838e-013 2.90172e-006 
-0.032108 -0.229178 0.1 6.29799e-013 -1.5745e-013 3.60203e-006 
-0.034444 -0.228963 0.1 7.39793e-013 -1.84948e-013 4.23112e-006 
-0.036781 -0.228734 0.1 8.2486e-013 -2.06215e-013 4.71765e-006 
-0.039139 -0.228495 0.1 8.80032e-013 -2.20008e-013 5.0332e-006 
-0.041538 -0.228249 0.1 2.24446e-011 -5.61115e-012 0.000128368 
-0.044 -0.228 0.1 4.86734e-009 -1.21683e-009 0.0278379 
-0.062 -0.137 0.1 3.97774e-010 -9.94434e-011 0.002275 
-0.037 -0.137 0.1 3.37286e-009 -8.43216e-010 0.0192905 
-0.012929 -0.135916 0.1 1.94593e-010 -4.86481e-011 0.00111294 
0.00748102 -0.132657 0.1 2.93261e-010 -7.33152e-011 0.00167726 
0.024531 -0.127219 0.1 8.60884e-010 -2.15221e-010 0.00492368 
0.038519 -0.119593 0.1 3.68086e-010 -9.20217e-011 0.00210521 
0.049742 -0.109772 0.1 4.47405e-010 -1.11851e-010 0.00255886 
0.0585 -0.09775 0.1 9.74044e-010 -2.43511e-010 0.00557088 
0.065091 -0.08352 0.1 1.04024e-009 -2.6006e-010 0.00594948 
0.069815 -0.067074 0.1 6.14581e-010 -1.53645e-010 0.00351499 
0.072969 -0.048406 0.1 1.19857e-009 -2.99641e-010 0.00685499 
0.074852 -0.027509 0.1 1.29454e-009 -3.23636e-010 0.00740393 
0.075763 -0.004376 0.1 8.33932e-010 -2.08483e-010 0.00476954 
0.076 0.021 0.1 2.35852e-008 -5.8963e-009 0.134892 
0.076 0.682 0.1 1.13261e-008 -2.83154e-009 0.064778 
0.174 0.682 0.1 2.31492e-008 -5.7873e-009 0.132398 
0.174 -0.00800001 0.1 1.31915e-008 -3.29788e-009 0.0754467 
0.172917 -0.039047 -0.1 -1.40662e-009 3.51655e-010 -0.00804492 
0.169588 -0.068542 -0.1 -1.61619e-009 4.04048e-010 -0.00924355 
0.163891 -0.096266 -0.1 -1.22421e-009 3.06052e-010 -0.00700166 
0.155704 -0.122 -0.1 -1.61134e-009 4.02835e-010 -0.00921578 
0.144906 -0.145526 -0.1 -4.29984e-009 1.07496e-009 -0.0245922 
0.131375 -0.166625 -0.1 -8.9177e-010 2.22943e-010 -0.00510033 
0.11499 -0.185078 -0.1 -6.78066e-010 1.69517e-010 -0.00387809 
0.09563 -0.200667 -0.1 -4.86027e-010 1.21507e-010 -0.00277975 
0.073172 -0.213172 -0.1 -3.19937e-010 7.99842e-011 -0.00182983 
0.047495 -0.222375 -0.1 -1.84331e-010 4.60829e-011 -0.00105425 
0.018479 -0.228057 -0.1 -8.43548e-011 2.10887e-011 -0.000482453 
-0.014 -0.23 -0.1 -2.17708e-011 5.44271e-012 -0.000124515 
-0.01692 -0.22998 -0.1 -2.04276e-014 5.10691e-015 -1.16832e-007 
-0.019694 -0.229921 -0.1 -7.64072e-014 1.91018e-014 -4.36998e-007 
-0.022344 -0.229828 -0.1 -1.60357e-013 4.00892e-014 -9.17134e-007 
-0.024889 -0.229704 -0.1 -2.6823e-013 6.70576e-014 -1.5341e-006 
-0.027351 -0.229551 -0.1 -3.8636e-013 9.65899e-014 -2.20972e-006 
-0.02975 -0.229375 -0.1 -5.07352e-013 1.26838e-013 -2.90172e-006 
-0.032108 -0.229178 -0.1 -6.29799e-013 1.5745e-013 -3.60203e-006 
-0.034444 -0.228963 -0.1 -7.39793e-013 1.84948e-013 -4.23112e-006 
-0.036781 -0.228734 -0.1 -8.2486e-013 2.06215e-013 -4.71765e-006 
-0.039139 -0.228495 -0.1 -8.80031e-013 2.20008e-013 -5.03319e-006 
-0.041538 -0.228249 -0.1 -2.24446e-011 5.61115e-012 -0.000128368 
-0.044 -0.228 -0.1 -4.86734e-009 1.21683e-009 -0.0278379 
-0.062 -0.137 -0.1 -3.97774e-010 9.94434e-011 -0.002275 
-0.037 -0.137 -0.1 -3.37286e-009 8.43217e-010 -0.0192905 
-0.012929 -0.135916 -0.1 -1.94593e-010 4.86481e-011 -0.00111294 
0.00748098 -0.132657 -0.1 -2.93261e-010 7.33152e-011 -0.00167726 
0.024531 -0.127219 -0.1 -8.60884e-010 2.15221e-010 -0.00492368 
0.038519 -0.119593 -0.1 -3.68086e-010 9.20217e-011 -0.00210521 
0.049742 -0.109772 -0.1 -4.47405e-010 1.11851e-010 -0.00255886 
0.0585 -0.09775 -0.1 -9.74044e-010 2.43511e-010 -0.00557088 
0.065091 -0.08352 -0.1 -1.04024e-009 2.6006e-010 -0.00594948 
0.069815 -0.067074 -0.1 -6.14581e-010 1.53645e-010 -0.00351499 
0.072969 -0.048406 -0.1 -1.19857e-009 2.99641e-010 -0.00685499 
0.074852 -0.027509 -0.1 -1.29454e-009 3.23636e-010 -0.00740393 
0.075763 -0.004376 -0.1 -8.33932e-010 2.08483e-010 -0.00476954 
0.076 0.021 -0.1 -2.35852e-008 5.8963e-009 -0.134892 
0.076 0.682 -0.1 -1.13261e-008 2.83154e-009 -0.064778 
0.174 0.682 -0.1 -2.31492e-008 5.7873e-009 -0.132398 
0.174 -0.008 -0.1 -1.31915e-008 3.29788e-009 -0.0754467 
0.172917 -0.039047 -0.1 2.99247 -0.181877 -5.31171e-007 
0.172917 -0.039047 0.1 2.98677 -0.25917 -5.33553e-007 
0.169588 -0.068542 -0.1 2.96691 -0.425592 -5.37354e-007 
0.169588 -0.068542 0.1 2.95276 -0.514722 -5.38775e-007 
0.163891 -0.096266 -0.1 2.912 -0.705735 -5.39999e-007 
0.163891 -0.096266 0.1 2.88541 -0.807618 -5.39803e-007 
0.155704 -0.122 -0.1 2.81472 -1.02348 -5.36879e-007 
0.155704 -0.122 0.1 2.77062 -1.13745 -5.3415e-007 
0.144906 -0.145526 -0.1 2.65945 -1.37412 -5.25057e-007 
0.144906 -0.145526 0.1 2.59238 -1.49681 -5.18694e-007 
0.131375 -0.166625 -0.1 2.4313 -1.74364 -5.01319e-007 
0.131375 -0.166625 0.1 2.3373 -1.86776 -4.90309e-007 
0.11499 -0.185078 -0.1 2.1227 -2.10681 -4.63236e-007 
0.11499 -0.185078 0.1 2.0021 -2.22173 -4.47173e-007 
0.09563 -0.200667 -0.1 1.74082 -2.43145 -4.10657e-007 
0.09563 -0.200667 0.1 1.60014 -2.52626 -3.90204e-007 
0.073172 -0.213172 -0.1 1.31037 -2.68874 -3.46641e-007 
0.073172 -0.213172 0.1 1.16128 -2.75641 -3.23531e-007 
0.047495 -0.222375 -0.1 0.866968 -2.86409 -2.76779e-007 
0.047495 -0.222375 0.1 0.721743 -2.90408 -2.53135e-007 
0.018479 -0.228057 -0.1 0.444062 -2.96094 -2.07069e-007 
0.018479 -0.228057 0.1 0.311606 -2.97779 -1.84646e-007 
-0.014 -0.23 -0.1 0.112585 -2.99641 -1.50663e-007 
-0.014 -0.23 0.1 0.0460202 -2.99817 -1.391e-007 
-0.01692 -0.22998 -0.1 -0.0349637 -2.99973 -1.25009e-007 
-0.01692 -0.22998 0.1 -0.0493827 -2.99952 -1.22479e-007 
-0.019694 -0.229921 -0.1 -0.0776065 -2.99893 -1.17518e-007 
-0.019694 -0.229921 0.1 -0.0914113 -2.99854 -1.15088e-007 
-0.022344 -0.229828 -0.1 -0.118812 -2.99758 -1.10255e-007 
-0.022344 -0.229828 0.1 -0.132408 -2.99701 -1.07853e-007 
-0.024889 -0.229704 -0.1 -0.159357 -2.9957 -1.03084e-007 
-0.024889 -0.229704 0.1 -0.17271 -2.99496 -1.00716e-007 
-0.027351 -0.229551 -0.1 -0.197208 -2.99347 -9.63675e-008 
-0.027351 -0.229551 0.1 -0.208353 -2.99271 -9.43862e-008 
-0.02975 -0.229375 -0.1 -0.229591 -2.99117 -9.06055e-008 
-0.02975 -0.229375 0.1 -0.239684 -2.99038 -8.88062e-008 
-0.032108 -0.229178 -0.1 -0.258165 -2.98885 -8.55075e-008 
-0.032108 -0.229178 0.1 -0.266554 -2.98811 -8.40091e-008 
-0.034444 -0.228963 -0.1 -0.280818 -2.98682 -8.14581e-008 
-0.034444 -0.228963 0.1 -0.286692 -2.98626 -8.04066e-008 
-0.036781 -0.228734 -0.1 -0.295885 -2.98537 -7.87609e-008 
-0.036781 -0.228734 0.1 -0.299203 -2.98504 -7.81658e-008 
-0.039139 -0.228495 -0.1 -0.30369 -2.98459 -7.73616e-008 
-0.039139 -0.228495 0.1 -0.304859 -2.98447 -7.71524e-008 
-0.041538 -0.228249 -0.1 -0.304642 -2.98449 -7.71914e-008 
-0.041538 -0.228249 0.1 -0.303256 -2.98463 -7.74395e-008 
-0.044 -0.228 -0.1 -1.18224 -2.18389 1.11248e-007 
-0.044 -0.228 0.1 -2.06261 -1.38301 3.00185e-007 
-0.062 -0.137 -0.1 -1.96199 0.611915 3.69793e-007 
-0.062 -0.137 0.1 -0.980993 1.80596 2.50463e-007 
-0.037 -0.137 -0.1 -0.0449878 2.99899 1.38956e-007 
-0.037 -0.137 0.1 -0.0899757 2.99797 1.46778e-007 
-0.012929 -0.135916 -0.1 -0.247654 2.98547 1.738e-007 
-0.012929 -0.135916 0.1 -0.360345 2.97397 1.93001e-007 
0.00748098 -0.132657 -0.1 -0.61922 2.9277 2.36242e-007 
0.00748102 -0.132657 0.1 -0.765405 2.89292 2.60281e-007 
0.024531 -0.127219 -0.1 -1.08639 2.78343 3.11618e-007 
0.024531 -0.127219 0.1 -1.2612 2.70871 3.38917e-007 
0.038519 -0.119593 -0.1 -1.61587 2.50854 3.9218e-007 
0.038519 -0.119593 0.1 -1.79574 2.38309 4.18146e-007 
0.049742 -0.109772 -0.1 -2.12534 2.09391 4.63134e-007 
0.049742 -0.109772 0.1 -2.27507 1.93019 4.82157e-007 
0.0585 -0.09775 -0.1 -2.52392 1.59792 5.11144e-007 
0.0585 -0.09775 0.1 -2.62305 1.42939 5.21109e-007 
0.065091 -0.08352 -0.1 -2.77592 1.11665 5.34168e-007 
0.065091 -0.08352 0.1 -2.82966 0.972442 5.37261e-007 
0.069815 -0.067074 -0.1 -2.9083 0.71875 5.39921e-007 
0.069815 -0.067074 0.1 -2.93319 0.609262 5.39487e-007 
0.072969 -0.048406 -0.1 -2.96802 0.422927 5.37432e-007 
0.072969 -0.048406 0.1 -2.97796 0.346081 5.35811e-007 
0.074852 -0.027509 -0.1 -2.99115 0.218841 5.32556e-007 
0.074852 -0.027509 0.1 -2.99442 0.168446 5.30924e-007 
0.075763 -0.004376 -0.1 -2.99841 0.0880403 5.28106e-007 
0.075763 -0.004376 0.1 -2.99914 0.0580286 5.26922e-007 
0.076 0.021 -0.1 -2.99991 0.0186779 5.25337e-007 
0.076 0.021 0.1 -2.99996 0.00933895 5.24938e-007 
0.076 0.682 -0.1 -2 1 3.93403e-007 
0.076 0.682 0.1 -1 2 2.62269e-007 
0.174 0.682 -0.1 1 2 -8.74228e-008 
0.174 0.682 0.1 2 1 -3.0598e-007 
0.174 -0.008 -0.1 2.99939 -0.0348614 -5.25954e-007 
0.174 -0.00800001 0.1 2.99878 -0.0697229 -5.27372e-007 
3 37 39 38 
3 37 40 39 
3 36 40 37 
3 35 40 36 
3 35 0 40 
3 34 0 35 
3 34 1 0 
3 33 1 34 
3 32 1 33 
3 32 2 1 
3 31 2 32 
3 31 3 2 
3 30 3 31 
3 29 3 30 
3 28 3 29 
3 28 4 3 
3 27 4 28 
3 26 4 27 
3 25 4 26 
3 23 25 24 
3 23 4 25 
3 23 5 4 
3 23 6 5 
3 23 7 6 
3 23 8 7 
3 23 9 8 
3 23 10 9 
3 22 10 23 
3 22 11 10 
3 21 11 22 
3 20 11 21 
3 19 11 20 
3 18 11 19 
3 17 11 18 
3 16 11 17 
3 15 11 16 
3 14 11 15 
3 13 11 14 
3 12 11 13 
3 80 78 79 
3 81 78 80 
3 81 77 78 
3 81 76 77 
3 41 76 81 
3 41 75 76 
3 42 75 41 
3 42 74 75 
3 42 73 74 
3 43 73 42 
3 43 72 73 
3 44 72 43 
3 44 71 72 
3 44 70 71 
3 44 69 70 
3 45 69 44 
3 45 68 69 
3 45 67 68 
3 45 66 67 
3 66 64 65 
3 45 64 66 
3 46 64 45 
3 47 64 46 
3 48 64 47 
3 49 64 48 
3 50 64 49 
3 51 64 50 
3 51 63 64 
3 52 63 51 
3 52 62 63 
3 52 61 62 
3 52 60 61 
3 52 59 60 
3 52 58 59 
3 52 57 58 
3 52 56 57 
3 52 55 56 
3 52 54 55 
3 52 53 54 
3 83 85 84 
3 83 84 82 
3 85 87 86 
3 85 86 84 
3 87 89 88 
3 87 88 86 
3 89 91 90 
3 89 90 88 
3 91 93 92 
3 91 92 90 
3 93 95 94 
3 93 94 92 
3 95 97 96 
3 95 96 94 
3 97 99 98 
3 97 98 96 
3 99 101 100 
3 99 100 98 
3 101 103 102 
3 101 102 100 
3 103 105 104 
3 103 104 102 
3 105 107 106 
3 105 106 104 
3 107 109 108 
3 107 108 106 
3 109 111 110 
3 109 110 108 
3 111 113 112 
3 111 112 110 
3 113 115 114 
3 113 114 112 
3 115 117 116 
3 115 116 114 
3 117 119 118 
3 117 118 116 
3 119 121 120 
3 119 120 118 
3 121 123 122 
3 121 122 120 
3 123 125 124 
3 123 124 122 
3 125 127 126 
3 125 126 124 
3 127 129 128 
3 127 128 126 
3 129 131 130 
3 129 130 128 
3 131 133 132 
3 131 132 130 
3 133 135 134 
3 133 134 132 
3 135 137 136 
3 135 136 134 
3 137 139 138 
3 137 138 136 
3 139 141 140 
3 139 140 138 
3 141 143 142 
3 141 142 140 
3 143 145 144 
3 143 144 142 
3 145 147 146 
3 145 146 144 
3 147 149 148 
3 147 148 146 
3 149 151 150 
3 149 150 148 
3 151 153 152 
3 151 152 150 
3 153 155 154 
3 153 154 152 
3 155 157 156 
3 155 156 154 
3 157 159 158 
3 157 158 156 
3 159 161 160 
3 159 160 158 
3 161 163 162 
3 161 162 160 
3 163 83 82 
3 163 82 162 
