ply
format ascii 1.0
comment VCGLIB generated
element vertex 40
property float x
property float y
property float z
property float nx
property float ny
property float nz
element face 36
property list uchar int vertex_indices
end_header
0.622 -4.37114e-009 0.0999998 1.38058e-008 -3.45145e-009 0.07896 
0.166 0.525 0.1 3.51894e-008 -8.79735e-009 0.20126 
0.166 -4.37114e-009 0.1 8.44504e-009 -2.11126e-009 0.0483 
0.074 -4.37114e-009 0.1 2.15568e-008 -5.38918e-009 0.12329 
0.074 0.682 0.1 9.30108e-009 -2.32527e-009 0.053196 
0.152 0.682 0.1 2.45014e-008 -6.12536e-009 0.140132 
0.614 0.154 0.0999999 4.46594e-008 -1.11648e-008 0.255422 
0.614 0.682 0.0999999 8.4933e-009 -2.12332e-009 0.048576 
0.706 0.682 0.0999999 1.94638e-008 -4.86595e-009 0.11132 
0.706 -4.37114e-009 0.0999998 1.32323e-008 -3.30808e-009 0.07568 
0.622 4.37114e-009 -0.1 -1.38058e-008 3.45145e-009 -0.07896 
0.166 0.525 -0.1 -3.51894e-008 8.79735e-009 -0.20126 
0.166 4.37114e-009 -0.1 -8.44504e-009 2.11126e-009 -0.0483 
0.074 4.37114e-009 -0.1 -2.15568e-008 5.38918e-009 -0.12329 
0.074 0.682 -0.1 -9.30108e-009 2.32527e-009 -0.053196 
0.152 0.682 -0.1 -2.45014e-008 6.12536e-009 -0.140132 
0.614 0.154 -0.1 -4.46594e-008 1.11648e-008 -0.255422 
0.614 0.682 -0.1 -8.4933e-009 2.12332e-009 -0.048576 
0.706 0.682 -0.1 -1.94638e-008 4.86595e-009 -0.11132 
0.706 4.37114e-009 -0.1 -1.32323e-008 3.30808e-009 -0.07568 
0.622 4.37114e-009 -0.1 -0.754977 -2.65575 1.59178e-008 
0.622 -4.37114e-009 0.0999998 -1.50995 -2.3115 1.62969e-007 
0.166 0.525 -0.1 -0.509954 -1.3115 3.18356e-008 
0.166 0.525 0.1 1.24502 -0.655751 -2.4635e-007 
0.166 4.37114e-009 -0.1 2 -1 -3.93403e-007 
0.166 -4.37114e-009 0.1 1 -2 -2.62269e-007 
0.074 4.37114e-009 -0.1 -1 -2 8.74228e-008 
0.074 -4.37114e-009 0.1 -2 -1 3.0598e-007 
0.074 0.682 -0.1 -2 1 3.93403e-007 
0.074 0.682 0.1 -1 2 2.62269e-007 
0.152 0.682 -0.1 0.752577 2.6585 -1.53778e-008 
0.152 0.682 0.1 1.50515 2.31701 -1.61889e-007 
0.614 0.154 -0.1 0.505153 1.31701 -3.07555e-008 
0.614 0.154 0.0999999 -1.24742 0.658505 2.4689e-007 
0.614 0.682 -0.1 -2 1 3.93403e-007 
0.614 0.682 0.0999999 -1 2 2.62269e-007 
0.706 0.682 -0.1 1 2 -8.74228e-008 
0.706 0.682 0.0999999 2 1 -3.0598e-007 
0.706 4.37114e-009 -0.1 2 -1 -3.93403e-007 
0.706 -4.37114e-009 0.0999998 1 -2 -2.62269e-007 
3 3 5 4 
3 3 1 5 
3 1 6 5 
3 6 8 7 
3 6 9 8 
3 3 2 1 
3 0 6 1 
3 0 9 6 
3 15 13 14 
3 11 13 15 
3 16 11 15 
3 18 16 17 
3 19 16 18 
3 12 13 11 
3 16 10 11 
3 19 10 16 
3 21 23 22 
3 21 22 20 
3 23 25 24 
3 23 24 22 
3 25 27 26 
3 25 26 24 
3 27 29 28 
3 27 28 26 
3 29 31 30 
3 29 30 28 
3 31 33 32 
3 31 32 30 
3 33 35 34 
3 33 34 32 
3 35 37 36 
3 35 36 34 
3 37 39 38 
3 37 38 36 
3 39 21 20 
3 39 20 38 
