ply
format ascii 1.0
comment VCGLIB generated
element vertex 220
property float x
property float y
property float z
property float nx
property float ny
property float nz
element face 216
property list uchar int vertex_indices
end_header
0.158 0.346 0.1 1.7238e-009 -4.3095e-010 0.009859 
0.16 0.346 0.1 2.06409e-009 -5.16023e-010 0.0118052 
0.171209 0.364799 0.1 4.99184e-010 -1.24796e-010 0.002855 
0.182338 0.381727 0.1 5.25654e-010 -1.31413e-010 0.00300639 
0.193391 0.396828 0.1 1.83496e-009 -4.5874e-010 0.0104947 
0.20437 0.410148 0.1 1.09551e-009 -2.73876e-010 0.00626556 
0.215281 0.421732 0.1 1.03274e-009 -2.58184e-010 0.00590657 
0.226125 0.431625 0.1 5.91433e-010 -1.47858e-010 0.0033826 
0.236907 0.439872 0.1 5.0608e-010 -1.2652e-010 0.00289444 
0.24763 0.446519 0.1 2.49772e-010 -6.24432e-011 0.00142853 
0.258297 0.451609 0.1 1.72419e-010 -4.31049e-011 0.000986124 
0.268912 0.45519 0.1 5.67708e-011 -1.41927e-011 0.000324691 
0.279479 0.457305 0.1 1.77375e-011 -4.43438e-012 0.000101447 
0.29 0.458 0.1 1.74196e-012 -4.35489e-013 9.96283e-006 
0.298961 0.457645 0.1 5.90194e-012 -1.47548e-012 3.37552e-005 
0.307857 0.456579 0.1 3.02782e-011 -7.56954e-012 0.000173171 
0.316703 0.454797 0.1 7.53897e-011 -1.88474e-011 0.000431179 
0.325519 0.452296 0.1 6.93812e-011 -1.73453e-011 0.000396814 
0.33432 0.449074 0.1 1.75102e-010 -4.37755e-011 0.00100147 
0.343125 0.445125 0.1 2.72372e-010 -6.80931e-011 0.00155779 
0.351951 0.440447 0.1 2.04698e-010 -5.11746e-011 0.00117074 
0.360815 0.435037 0.1 4.47556e-010 -1.11889e-010 0.00255972 
0.369734 0.428891 0.1 6.00866e-010 -1.50216e-010 0.00343655 
0.378727 0.422005 0.1 4.1567e-010 -1.03917e-010 0.00237736 
0.38781 0.414376 0.1 8.57372e-010 -2.14343e-010 0.0049036 
0.397 0.406 0.1 2.97752e-009 -7.44379e-010 0.0170294 
0.35 0.329 0.1 1.44951e-010 -3.62378e-011 0.000829025 
0.343096 0.335328 0.1 2.896e-010 -7.24e-011 0.00165632 
0.335935 0.341287 0.1 2.87042e-010 -7.17606e-011 0.00164169 
0.328594 0.346844 0.1 2.80634e-010 -7.01587e-011 0.00160504 
0.321148 0.351963 0.1 2.70478e-010 -6.76193e-011 0.00154695 
0.313675 0.35661 0.1 2.56672e-010 -6.41678e-011 0.00146799 
0.30625 0.36075 0.1 2.39282e-010 -5.98203e-011 0.00136853 
0.29895 0.364348 0.1 2.18347e-010 -5.45867e-011 0.0012488 
0.291852 0.36737 0.1 1.93897e-010 -4.84741e-011 0.00110896 
0.285031 0.369781 0.1 1.20253e-009 -3.00633e-010 0.00687768 
0.278565 0.371546 0.1 1.28209e-011 -3.20523e-012 7.3327e-005 
0.272529 0.372631 0.1 2.69212e-010 -6.73029e-011 0.00153971 
0.267 0.373 0.1 4.42296e-011 -1.10574e-011 0.000252964 
0.252041 0.371755 0.1 3.00882e-010 -7.52204e-011 0.00172084 
0.237745 0.368125 0.1 9.42198e-011 -2.35549e-011 0.000538874 
0.224234 0.362266 0.1 2.92806e-010 -7.32016e-011 0.00167466 
0.21163 0.354333 0.1 1.25292e-010 -3.13229e-011 0.000716584 
0.200053 0.344484 0.1 1.56105e-010 -3.90263e-011 0.000892817 
0.189625 0.332875 0.1 1.73523e-010 -4.33807e-011 0.000992434 
0.180468 0.319661 0.1 1.77683e-010 -4.44207e-011 0.00101623 
0.172704 0.305 0.1 1.6847e-010 -4.21174e-011 0.000963534 
0.166453 0.289047 0.1 1.43475e-009 -3.58689e-010 0.00820584 
0.161838 0.271958 0.1 2.15317e-010 -5.38292e-011 0.00123147 
0.15898 0.253891 0.1 4.1107e-010 -1.02768e-010 0.00235105 
0.158 0.235 0.1 3.9106e-009 -9.77649e-010 0.022366 
0.158 -4.37114e-009 0.1 3.6569e-009 -9.14224e-010 0.020915 
0.069 -4.37114e-009 0.1 1.41333e-008 -3.53332e-009 0.0808329 
0.069 0.449 0.1 6.987e-009 -1.74675e-009 0.039961 
0.158 0.449 0.1 8.58982e-009 -2.14745e-009 0.049128 
0.158 0.346 -0.1 -1.7238e-009 4.3095e-010 -0.009859 
0.16 0.346 -0.1 -2.06409e-009 5.16023e-010 -0.0118052 
0.171209 0.364799 -0.1 -4.99184e-010 1.24796e-010 -0.002855 
0.182338 0.381727 -0.1 -5.25654e-010 1.31413e-010 -0.00300639 
0.193391 0.396828 -0.1 -1.83496e-009 4.5874e-010 -0.0104947 
0.20437 0.410148 -0.1 -1.09551e-009 2.73876e-010 -0.00626556 
0.215281 0.421732 -0.1 -1.03274e-009 2.58184e-010 -0.00590657 
0.226125 0.431625 -0.1 -5.91433e-010 1.47858e-010 -0.0033826 
0.236907 0.439872 -0.1 -5.0608e-010 1.2652e-010 -0.00289444 
0.24763 0.446519 -0.1 -2.49772e-010 6.24432e-011 -0.00142853 
0.258297 0.451609 -0.1 -1.72419e-010 4.31049e-011 -0.000986124 
0.268912 0.45519 -0.1 -5.67708e-011 1.41927e-011 -0.000324691 
0.279479 0.457305 -0.1 -1.77375e-011 4.43438e-012 -0.000101447 
0.29 0.458 -0.1 -1.74196e-012 4.35489e-013 -9.96283e-006 
0.298961 0.457645 -0.1 -5.90194e-012 1.47548e-012 -3.37552e-005 
0.307857 0.456579 -0.1 -3.02782e-011 7.56954e-012 -0.000173171 
0.316703 0.454797 -0.1 -7.53897e-011 1.88474e-011 -0.000431179 
0.325519 0.452296 -0.1 -6.93812e-011 1.73453e-011 -0.000396814 
0.33432 0.449074 -0.1 -1.75102e-010 4.37755e-011 -0.00100147 
0.343125 0.445125 -0.1 -2.72372e-010 6.80931e-011 -0.00155779 
0.351951 0.440447 -0.1 -2.04698e-010 5.11746e-011 -0.00117074 
0.360815 0.435037 -0.1 -4.47556e-010 1.11889e-010 -0.00255972 
0.369734 0.428891 -0.1 -6.00866e-010 1.50216e-010 -0.00343655 
0.378727 0.422005 -0.1 -4.1567e-010 1.03917e-010 -0.00237736 
0.38781 0.414376 -0.1 -8.57372e-010 2.14343e-010 -0.0049036 
0.397 0.406 -0.1 -2.97752e-009 7.44379e-010 -0.0170294 
0.35 0.329 -0.1 -1.44951e-010 3.62378e-011 -0.000829025 
0.343096 0.335328 -0.1 -2.896e-010 7.24e-011 -0.00165632 
0.335935 0.341287 -0.1 -2.87042e-010 7.17606e-011 -0.00164169 
0.328594 0.346844 -0.1 -2.80634e-010 7.01587e-011 -0.00160504 
0.321148 0.351963 -0.1 -2.70478e-010 6.76193e-011 -0.00154695 
0.313675 0.35661 -0.1 -2.56672e-010 6.41678e-011 -0.00146799 
0.30625 0.36075 -0.1 -2.39282e-010 5.98203e-011 -0.00136853 
0.29895 0.364348 -0.1 -2.18347e-010 5.45867e-011 -0.0012488 
0.291852 0.36737 -0.1 -1.93897e-010 4.84741e-011 -0.00110896 
0.285031 0.369781 -0.1 -1.20253e-009 3.00633e-010 -0.00687768 
0.278565 0.371546 -0.1 -1.28209e-011 3.20523e-012 -7.3327e-005 
0.272529 0.372631 -0.1 -2.69212e-010 6.73029e-011 -0.00153971 
0.267 0.373 -0.1 -4.42296e-011 1.10574e-011 -0.000252964 
0.252041 0.371755 -0.1 -3.00882e-010 7.52204e-011 -0.00172084 
0.237745 0.368125 -0.1 -9.42198e-011 2.35549e-011 -0.000538874 
0.224234 0.362266 -0.1 -2.92806e-010 7.32016e-011 -0.00167466 
0.21163 0.354333 -0.1 -1.25292e-010 3.13229e-011 -0.000716584 
0.200053 0.344484 -0.1 -1.56105e-010 3.90263e-011 -0.000892817 
0.189625 0.332875 -0.1 -1.73523e-010 4.33807e-011 -0.000992434 
0.180468 0.319661 -0.1 -1.77683e-010 4.44207e-011 -0.00101623 
0.172704 0.305 -0.1 -1.6847e-010 4.21174e-011 -0.000963534 
0.166453 0.289047 -0.1 -1.43475e-009 3.58689e-010 -0.00820584 
0.161838 0.271958 -0.1 -2.15318e-010 5.38293e-011 -0.00123147 
0.15898 0.253891 -0.1 -4.1107e-010 1.02768e-010 -0.00235105 
0.158 0.235 -0.1 -3.9106e-009 9.77649e-010 -0.022366 
0.158 4.37114e-009 -0.1 -3.6569e-009 9.14224e-010 -0.020915 
0.069 4.37114e-009 -0.1 -1.41333e-008 3.53332e-009 -0.0808329 
0.069 0.449 -0.1 -6.987e-009 1.74675e-009 -0.039961 
0.158 0.449 -0.1 -8.58982e-009 2.14745e-009 -0.049128 
0.158 0.346 -0.1 2 1 -3.0598e-007 
0.158 0.346 0.1 1 2 -8.74228e-008 
0.16 0.346 -0.1 -0.858909 2.51213 2.59985e-007 
0.16 0.346 0.1 -1.71782 2.02426 3.88836e-007 
0.171209 0.364799 -0.1 -2.55341 1.5736 5.15237e-007 
0.171209 0.364799 0.1 -2.5301 1.61082 5.12787e-007 
0.182338 0.381727 -0.1 -2.47813 1.68932 5.07133e-007 
0.182338 0.381727 0.1 -2.44948 1.73061 5.03927e-007 
0.193391 0.396828 -0.1 -2.38554 1.8173 4.96538e-007 
0.193391 0.396828 0.1 -2.35026 1.86271 4.92353e-007 
0.20437 0.410148 -0.1 -2.27125 1.95772 4.82693e-007 
0.20437 0.410148 0.1 -2.22753 2.00733 4.77217e-007 
0.215281 0.421732 -0.1 -2.12984 2.11005 4.64627e-007 
0.215281 0.421732 0.1 -2.07588 2.16316 4.57513e-007 
0.226125 0.431625 -0.1 -1.95548 2.27181 4.4121e-007 
0.226125 0.431625 0.1 -1.88905 2.32734 4.32023e-007 
0.236907 0.439872 -0.1 -1.74195 2.43853 4.11163e-007 
0.236907 0.439872 0.1 -1.66127 2.49418 3.9949e-007 
0.24763 0.446519 -0.1 -1.48439 2.60241 3.73294e-007 
0.24763 0.446519 0.1 -1.38818 2.65498 3.5877e-007 
0.258297 0.451609 -0.1 -1.18097 2.75257 3.26806e-007 
0.258297 0.451609 0.1 -1.06997 2.79758 3.09366e-007 
0.268912 0.45519 -0.1 -0.83557 2.87562 2.71793e-007 
0.268912 0.45519 0.1 -0.712174 2.90864 2.51661e-007 
0.279479 0.457305 -0.1 -0.458433 2.95893 2.09493e-007 
0.279479 0.457305 0.1 -0.328087 2.9762 1.87458e-007 
0.29 0.458 -0.1 -0.092242 2.99487 1.47038e-007 
0.29 0.458 0.1 0.0132573 2.99626 1.28653e-007 
0.298961 0.457645 -0.1 0.198149 2.99133 9.61093e-008 
0.298961 0.457645 0.1 0.277541 2.98501 8.19516e-008 
0.307857 0.456579 -0.1 0.435436 2.9661 5.35183e-008 
0.307857 0.456579 0.1 0.513938 2.95351 3.92422e-008 
0.316703 0.454797 -0.1 0.66788 2.92265 1.09772e-008 
0.316703 0.454797 0.1 0.74332 2.90438 -3.0117e-009 
0.325519 0.452296 -0.1 0.88962 2.86312 -3.0395e-008 
0.325519 0.452296 0.1 0.960479 2.84014 -4.37891e-008 
0.33432 0.449074 -0.1 1.09678 2.79054 -6.97891e-008 
0.33432 0.449074 0.1 1.16222 2.76392 -8.23946e-008 
0.343125 0.445125 -0.1 1.28676 2.70843 -1.06594e-007 
0.343125 0.445125 0.1 1.34584 2.67956 -1.18187e-007 
0.351951 0.440447 -0.1 1.45759 2.6207 -1.40299e-007 
0.351951 0.440447 0.1 1.51025 2.59072 -1.50817e-007 
0.360815 0.435037 -0.1 1.60935 2.53058 -1.70773e-007 
0.360815 0.435037 0.1 1.6558 2.50044 -1.80212e-007 
0.369734 0.428891 -0.1 1.74279 2.44084 -1.98026e-007 
0.369734 0.428891 0.1 1.78332 2.41138 -2.06401e-007 
0.378727 0.422005 -0.1 1.85906 2.35368 -2.22166e-007 
0.378727 0.422005 0.1 1.89427 2.32544 -2.29556e-007 
0.38781 0.414376 -0.1 1.95993 2.27055 -2.43436e-007 
0.38781 0.414376 0.1 1.99039 2.2439 -2.49927e-007 
0.397 0.406 -0.1 2.20079 0.957161 -3.42959e-007 
0.397 0.406 0.1 2.38073 -0.302922 -4.29501e-007 
0.35 0.329 -0.1 1.03142 -1.77919 -2.58111e-007 
0.35 0.329 0.1 -0.497818 -1.99538 -1.79568e-010 
0.343096 0.335328 -0.1 -1.99102 -2.24305 2.50074e-007 
0.343096 0.335328 0.1 -1.95498 -2.27453 2.42396e-007 
0.335935 0.341287 -0.1 -1.88285 -2.33466 2.27156e-007 
0.335935 0.341287 0.1 -1.84676 -2.36331 2.19594e-007 
0.328594 0.346844 -0.1 -1.77364 -2.41869 2.04388e-007 
0.328594 0.346844 0.1 -1.7366 -2.44541 1.96744e-007 
0.321148 0.351963 -0.1 -1.66111 -2.4973 1.81277e-007 
0.321148 0.351963 0.1 -1.62265 -2.52245 1.73453e-007 
0.313675 0.35661 -0.1 -1.54312 -2.57182 1.5739e-007 
0.313675 0.35661 0.1 -1.50205 -2.59602 1.49151e-007 
0.30625 0.36075 -0.1 -1.41608 -2.64378 1.32032e-007 
0.30625 0.36075 0.1 -1.37118 -2.66734 1.23151e-007 
0.29895 0.364348 -0.1 -1.27592 -2.71402 1.04455e-007 
0.29895 0.364348 0.1 -1.22555 -2.73713 9.46387e-008 
0.291852 0.36737 -0.1 -1.11672 -2.783 7.36048e-008 
0.291852 0.36737 0.1 -1.05825 -2.80575 6.23866e-008 
0.285031 0.369781 -0.1 -0.92985 -2.85038 3.79863e-008 
0.285031 0.369781 0.1 -0.859925 -2.87225 2.48043e-008 
0.278565 0.371546 -0.1 -0.703589 -2.91363 -4.33959e-009 
0.278565 0.371546 0.1 -0.617177 -2.93315 -2.03016e-008 
0.272529 0.372631 -0.1 -0.420431 -2.96623 -5.61476e-008 
0.272529 0.372631 0.1 -0.310097 -2.97979 -7.60315e-008 
0.267 0.373 -0.1 -0.0502347 -2.99212 -1.22006e-007 
0.267 0.373 0.1 0.0992931 -2.99089 -1.48096e-007 
0.252041 0.371755 -0.1 0.411989 -2.96235 -2.01523e-007 
0.252041 0.371755 0.1 0.575156 -2.93504 -2.28858e-007 
0.237745 0.368125 -0.1 0.890065 -2.85594 -2.80461e-007 
0.237745 0.368125 0.1 1.04181 -2.80414 -3.04729e-007 
0.224234 0.362266 -0.1 1.32837 -2.68122 -3.4946e-007 
0.224234 0.362266 0.1 1.4632 -2.61009 -3.69925e-007 
0.21163 0.354333 -0.1 1.71333 -2.4543 -4.06849e-007 
0.21163 0.354333 0.1 1.82863 -2.36964 -4.23308e-007 
0.200053 0.344484 -0.1 2.03988 -2.19158 -4.52461e-007 
0.200053 0.344484 0.1 2.13584 -2.09817 -4.65156e-007 
0.189625 0.332875 -0.1 2.3098 -1.90609 -4.87176e-007 
0.189625 0.332875 0.1 2.3878 -1.80742 -4.96501e-007 
0.180468 0.319661 -0.1 2.5276 -1.60716 -5.12191e-007 
0.180468 0.319661 0.1 2.5894 -1.50557 -5.18556e-007 
0.172704 0.305 -0.1 2.69853 -1.30082 -5.28687e-007 
0.172704 0.305 0.1 2.74588 -1.19766 -5.32456e-007 
0.166453 0.289047 -0.1 2.82756 -0.990378 -5.37677e-007 
0.166453 0.289047 0.1 2.8619 -0.886265 -5.3913e-007 
0.161838 0.271958 -0.1 2.91855 -0.677681 -5.39918e-007 
0.161838 0.271958 0.1 2.94085 -0.573209 -5.3925e-007 
0.15898 0.253891 -0.1 2.97409 -0.364298 -5.3593e-007 
0.15898 0.253891 0.1 2.98503 -0.259859 -5.33279e-007 
0.158 0.235 -0.1 2.99731 -0.103613 -5.28596e-007 
0.158 0.235 0.1 2.99866 -0.0518064 -5.26566e-007 
0.158 4.37114e-009 -0.1 2 -1 -3.93403e-007 
0.158 -4.37114e-009 0.1 1 -2 -2.62269e-007 
0.069 4.37114e-009 -0.1 -1 -2 8.74228e-008 
0.069 -4.37114e-009 0.1 -2 -1 3.0598e-007 
0.069 0.449 -0.1 -2 1 3.93403e-007 
0.069 0.449 0.1 -1 2 2.62269e-007 
0.158 0.449 -0.1 1 2 -8.74228e-008 
0.158 0.449 0.1 2 1 -3.0598e-007 
3 12 14 13 
3 12 15 14 
3 11 15 12 
3 11 16 15 
3 10 16 11 
3 10 17 16 
3 10 18 17 
3 9 18 10 
3 9 19 18 
3 52 54 53 
3 52 0 54 
3 8 19 9 
3 8 20 19 
3 8 21 20 
3 7 21 8 
3 7 22 21 
3 6 22 7 
3 6 23 22 
3 6 24 23 
3 5 24 6 
3 5 25 24 
3 4 25 5 
3 4 35 25 
3 35 34 25 
3 34 33 25 
3 33 32 25 
3 32 31 25 
3 31 30 25 
3 30 29 25 
3 29 28 25 
3 28 27 25 
3 27 26 25 
3 3 37 4 
3 37 36 4 
3 36 35 4 
3 2 39 3 
3 39 38 3 
3 38 37 3 
3 2 40 39 
3 2 41 40 
3 1 41 2 
3 1 42 41 
3 1 43 42 
3 52 1 0 
3 52 47 1 
3 47 46 1 
3 46 45 1 
3 45 44 1 
3 44 43 1 
3 52 48 47 
3 52 49 48 
3 52 50 49 
3 52 51 50 
3 69 67 68 
3 70 67 69 
3 70 66 67 
3 71 66 70 
3 71 65 66 
3 72 65 71 
3 73 65 72 
3 73 64 65 
3 74 64 73 
3 109 107 108 
3 55 107 109 
3 74 63 64 
3 75 63 74 
3 76 63 75 
3 76 62 63 
3 77 62 76 
3 77 61 62 
3 78 61 77 
3 79 61 78 
3 79 60 61 
3 80 60 79 
3 80 59 60 
3 90 59 80 
3 89 90 80 
3 88 89 80 
3 87 88 80 
3 86 87 80 
3 85 86 80 
3 84 85 80 
3 83 84 80 
3 82 83 80 
3 81 82 80 
3 92 58 59 
3 91 92 59 
3 90 91 59 
3 94 57 58 
3 93 94 58 
3 92 93 58 
3 95 57 94 
3 96 57 95 
3 96 56 57 
3 97 56 96 
3 98 56 97 
3 56 107 55 
3 102 107 56 
3 101 102 56 
3 100 101 56 
3 99 100 56 
3 98 99 56 
3 103 107 102 
3 104 107 103 
3 105 107 104 
3 106 107 105 
3 111 113 112 
3 111 112 110 
3 113 115 114 
3 113 114 112 
3 115 117 116 
3 115 116 114 
3 117 119 118 
3 117 118 116 
3 119 121 120 
3 119 120 118 
3 121 123 122 
3 121 122 120 
3 123 125 124 
3 123 124 122 
3 125 127 126 
3 125 126 124 
3 127 129 128 
3 127 128 126 
3 129 131 130 
3 129 130 128 
3 131 133 132 
3 131 132 130 
3 133 135 134 
3 133 134 132 
3 135 137 136 
3 135 136 134 
3 137 139 138 
3 137 138 136 
3 139 141 140 
3 139 140 138 
3 141 143 142 
3 141 142 140 
3 143 145 144 
3 143 144 142 
3 145 147 146 
3 145 146 144 
3 147 149 148 
3 147 148 146 
3 149 151 150 
3 149 150 148 
3 151 153 152 
3 151 152 150 
3 153 155 154 
3 153 154 152 
3 155 157 156 
3 155 156 154 
3 157 159 158 
3 157 158 156 
3 159 161 160 
3 159 160 158 
3 161 163 162 
3 161 162 160 
3 163 165 164 
3 163 164 162 
3 165 167 166 
3 165 166 164 
3 167 169 168 
3 167 168 166 
3 169 171 170 
3 169 170 168 
3 171 173 172 
3 171 172 170 
3 173 175 174 
3 173 174 172 
3 175 177 176 
3 175 176 174 
3 177 179 178 
3 177 178 176 
3 179 181 180 
3 179 180 178 
3 181 183 182 
3 181 182 180 
3 183 185 184 
3 183 184 182 
3 185 187 186 
3 185 186 184 
3 187 189 188 
3 187 188 186 
3 189 191 190 
3 189 190 188 
3 191 193 192 
3 191 192 190 
3 193 195 194 
3 193 194 192 
3 195 197 196 
3 195 196 194 
3 197 199 198 
3 197 198 196 
3 199 201 200 
3 199 200 198 
3 201 203 202 
3 201 202 200 
3 203 205 204 
3 203 204 202 
3 205 207 206 
3 205 206 204 
3 207 209 208 
3 207 208 206 
3 209 211 210 
3 209 210 208 
3 211 213 212 
3 211 212 210 
3 213 215 214 
3 213 214 212 
3 215 217 216 
3 215 216 214 
3 217 219 218 
3 217 218 216 
3 219 111 110 
3 219 110 218 
