ply
format ascii 1.0
comment VCGLIB generated
element vertex 60
property float x
property float y
property float z
property float nx
property float ny
property float nz
element face 60
property list uchar int vertex_indices
end_header
0.471 0.312 0.1 7.62658e-009 -1.90665e-009 0.043619 
0.471 0.224 0.1 1.0697e-008 -2.67426e-009 0.06118 
0.398 0.224 0.1 7.67642e-009 -1.9191e-009 0.043904 
0.398 -4.37114e-009 0.1 3.8382e-009 -9.59552e-010 0.021952 
0.3 -4.37114e-009 0.1 7.67642e-009 -1.9191e-009 0.043904 
0.3 0.224 0.1 3.8382e-009 -9.59552e-010 0.021952 
0.011 0.224 0.1 3.6193e-009 -9.04825e-010 0.0207 
0.011 0.269 0.1 2.46798e-008 -6.16995e-009 0.141152 
0.356 0.691 0.1 3.09896e-009 -7.74741e-010 0.017724 
0.398 0.691 0.1 1.47974e-008 -3.69934e-009 0.084631 
0.398 0.312 0.1 1.11039e-008 -2.77598e-009 0.063507 
0.3 0.312 0.1 5.24886e-009 -1.31222e-009 0.03002 
0.3 0.506 0.1 9.88297e-009 -2.47074e-009 0.056524 
0.298 0.506 0.1 8.47494e-009 -2.11873e-009 0.048471 
0.142 0.312 0.1 4.45856e-009 -1.11464e-009 0.0255 
0.471 0.312 -0.1 -7.62658e-009 1.90665e-009 -0.043619 
0.471 0.224 -0.1 -1.0697e-008 2.67426e-009 -0.06118 
0.398 0.224 -0.1 -7.67642e-009 1.9191e-009 -0.043904 
0.398 4.37114e-009 -0.1 -3.8382e-009 9.59552e-010 -0.021952 
0.3 4.37114e-009 -0.1 -7.67642e-009 1.9191e-009 -0.043904 
0.3 0.224 -0.1 -3.8382e-009 9.59552e-010 -0.021952 
0.011 0.224 -0.1 -3.6193e-009 9.04825e-010 -0.0207 
0.011 0.269 -0.1 -2.46798e-008 6.16995e-009 -0.141152 
0.356 0.691 -0.1 -3.09896e-009 7.74741e-010 -0.017724 
0.398 0.691 -0.1 -1.47974e-008 3.69934e-009 -0.084631 
0.398 0.312 -0.1 -1.11039e-008 2.77598e-009 -0.063507 
0.3 0.312 -0.1 -5.24886e-009 1.31222e-009 -0.03002 
0.3 0.506 -0.1 -9.88297e-009 2.47074e-009 -0.056524 
0.298 0.506 -0.1 -8.47494e-009 2.11873e-009 -0.048471 
0.142 0.312 -0.1 -4.45856e-009 1.11464e-009 -0.0255 
0.471 0.312 -0.1 1 2 -8.74228e-008 
0.471 0.312 0.1 2 1 -3.0598e-007 
0.471 0.224 -0.1 2 -1 -3.93403e-007 
0.471 0.224 0.1 1 -2 -2.62269e-007 
0.398 0.224 -0.1 1 -2 -2.62269e-007 
0.398 0.224 0.1 2 -1 -3.93403e-007 
0.398 4.37114e-009 -0.1 2 -1 -3.93403e-007 
0.398 -4.37114e-009 0.1 1 -2 -2.62269e-007 
0.3 4.37114e-009 -0.1 -1 -2 8.74228e-008 
0.3 -4.37114e-009 0.1 -2 -1 3.0598e-007 
0.3 0.224 -0.1 -2 -1 3.0598e-007 
0.3 0.224 0.1 -1 -2 8.74228e-008 
0.011 0.224 -0.1 -1 -2 8.74228e-008 
0.011 0.224 0.1 -2 -1 3.0598e-007 
0.011 0.269 -0.1 -2.7742 0.632938 5.12723e-007 
0.011 0.269 0.1 -2.5484 1.26588 5.0091e-007 
0.356 0.691 -0.1 -1.5484 2.26588 3.69775e-007 
0.356 0.691 0.1 -0.774202 2.63294 2.50455e-007 
0.398 0.691 -0.1 1 2 -8.74228e-008 
0.398 0.691 0.1 2 1 -3.0598e-007 
0.398 0.312 -0.1 2 1 -3.0598e-007 
0.398 0.312 0.1 1 2 -8.74228e-008 
0.3 0.312 -0.1 -1 2 2.62269e-007 
0.3 0.312 0.1 -2 1 3.93403e-007 
0.3 0.506 -0.1 -2 -1 3.0598e-007 
0.3 0.506 0.1 -1 -2 8.74228e-008 
0.298 0.506 -0.1 0.779299 -2.62665 -2.51071e-007 
0.298 0.506 0.1 1.5586 -2.25331 -3.71009e-007 
0.142 0.312 -0.1 1.5586 -0.253305 -2.83586e-007 
0.142 0.312 0.1 0.779299 1.37335 -7.6226e-008 
3 7 9 8 
3 7 13 9 
3 13 12 9 
3 12 10 9 
3 7 14 13 
3 11 10 12 
3 7 11 14 
3 7 10 11 
3 7 0 10 
3 7 1 0 
3 6 1 7 
3 5 1 6 
3 4 2 5 
3 2 1 5 
3 4 3 2 
3 24 22 23 
3 28 22 24 
3 27 28 24 
3 25 27 24 
3 29 22 28 
3 25 26 27 
3 26 22 29 
3 25 22 26 
3 15 22 25 
3 16 22 15 
3 16 21 22 
3 16 20 21 
3 17 19 20 
3 16 17 20 
3 18 19 17 
3 31 33 32 
3 31 32 30 
3 33 35 34 
3 33 34 32 
3 35 37 36 
3 35 36 34 
3 37 39 38 
3 37 38 36 
3 39 41 40 
3 39 40 38 
3 41 43 42 
3 41 42 40 
3 43 45 44 
3 43 44 42 
3 45 47 46 
3 45 46 44 
3 47 49 48 
3 47 48 46 
3 49 51 50 
3 49 50 48 
3 51 31 30 
3 51 30 50 
3 53 55 54 
3 53 54 52 
3 55 57 56 
3 55 56 54 
3 57 59 58 
3 57 58 56 
3 59 53 52 
3 59 52 58 
