ply
format ascii 1.0
comment VCGLIB generated
element vertex 588
property float x
property float y
property float z
property float nx
property float ny
property float nz
element face 584
property list uchar int vertex_indices
end_header
0.091216 0.666772 0.1 8.76777e-010 -2.19194e-010 0.00501458 
0.101398 0.671093 0.1 3.18899e-010 -7.97246e-011 0.00182389 
0.111594 0.674969 0.1 5.74222e-010 -1.43555e-010 0.00328417 
0.121852 0.678407 0.1 1.95122e-010 -4.87805e-011 0.00111597 
0.132221 0.681415 0.1 1.70169e-010 -4.25423e-011 0.000973254 
0.14275 0.684 0.1 2.83986e-010 -7.09964e-011 0.00162421 
0.153487 0.686168 0.1 8.27056e-011 -2.06764e-011 0.000473021 
0.164482 0.687926 0.1 6.72018e-011 -1.68004e-011 0.000384349 
0.175781 0.689281 0.1 9.06446e-011 -2.26612e-011 0.000518427 
0.187435 0.690241 0.1 1.73084e-011 -4.32711e-012 9.89928e-005 
0.199492 0.690811 0.1 1.09589e-011 -2.73973e-012 6.26777e-005 
0.212 0.691 0.1 4.12684e-012 -1.03171e-012 2.36028e-005 
0.241583 0.68956 0.1 7.16243e-011 -1.79061e-011 0.000409643 
0.26925 0.685315 0.1 3.22264e-010 -8.05661e-011 0.00184314 
0.294875 0.678375 0.1 7.52768e-010 -1.88192e-010 0.00430533 
0.318333 0.668852 0.1 1.12206e-009 -2.80516e-010 0.00641746 
0.3395 0.656857 0.1 4.84776e-009 -1.21194e-009 0.0277259 
0.35825 0.6425 0.1 1.43537e-009 -3.58843e-010 0.00820936 
0.374458 0.625894 0.1 1.42741e-009 -3.56852e-010 0.00816382 
0.388 0.607148 0.1 1.3909e-009 -3.47724e-010 0.007955 
0.39875 0.586375 0.1 1.47278e-009 -3.68195e-010 0.00842332 
0.406583 0.563685 0.1 1.52642e-009 -3.81604e-010 0.00873008 
0.411375 0.53919 0.1 1.38184e-009 -3.45459e-010 0.00790318 
0.413 0.513 0.1 1.26565e-009 -3.16411e-010 0.00723865 
0.412472 0.494674 0.1 1.12106e-009 -2.80264e-010 0.0064117 
0.410861 0.477639 0.1 7.96612e-010 -1.99153e-010 0.00455609 
0.408125 0.461813 0.1 7.47171e-010 -1.86793e-010 0.00427332 
0.404222 0.447111 0.1 7.07406e-010 -1.76851e-010 0.00404589 
0.399111 0.433451 0.1 6.76494e-010 -1.69124e-010 0.0038691 
0.39275 0.42075 0.1 8.2723e-010 -2.06807e-010 0.0047312 
0.385097 0.408924 0.1 6.4764e-010 -1.6191e-010 0.00370407 
0.376111 0.397889 0.1 8.81449e-010 -2.20362e-010 0.0050413 
0.36575 0.387563 0.1 3.44748e-009 -8.61869e-010 0.0197173 
0.353972 0.377861 0.1 2.63832e-010 -6.59578e-011 0.00150894 
0.340736 0.368701 0.1 2.00198e-010 -5.00497e-011 0.001145 
0.326 0.36 0.1 3.95654e-010 -9.89136e-011 0.00226288 
0.342213 0.353738 0.1 6.61563e-010 -1.65391e-010 0.0037837 
0.35687 0.345569 0.1 7.46075e-010 -1.86519e-010 0.00426705 
0.37 0.335672 0.1 8.33288e-010 -2.08322e-010 0.00476585 
0.38163 0.324222 0.1 9.21362e-010 -2.30341e-010 0.00526958 
0.391787 0.311398 0.1 9.66176e-010 -2.41544e-010 0.00552588 
0.4005 0.297375 0.1 1.14069e-009 -2.85171e-010 0.00652396 
0.407796 0.282332 0.1 1.08789e-009 -2.71972e-010 0.00622199 
0.413704 0.266444 0.1 8.83084e-010 -2.20771e-010 0.00505065 
0.41825 0.249891 0.1 1.12142e-009 -2.80355e-010 0.00641378 
0.421463 0.232847 0.1 8.75813e-010 -2.18953e-010 0.00500907 
0.42337 0.215491 0.1 8.78596e-010 -2.19649e-010 0.00502498 
0.424 0.198 0.1 1.09102e-009 -2.72756e-010 0.00623992 
0.422176 0.168299 0.1 1.52053e-009 -3.80132e-010 0.0086964 
0.416824 0.140306 0.1 1.42392e-009 -3.5598e-010 0.00814388 
0.408125 0.114188 0.1 1.35837e-009 -3.39592e-010 0.00776897 
0.396259 0.090111 0.1 1.64717e-009 -4.11793e-010 0.00942073 
0.381407 0.068243 0.1 3.68898e-009 -9.22247e-010 0.0210985 
0.36375 0.04875 0.1 1.78565e-009 -4.46413e-010 0.0102127 
0.343468 0.031799 0.1 1.51073e-009 -3.77682e-010 0.00864035 
0.320741 0.017556 0.1 1.77893e-009 -4.44735e-010 0.0101743 
0.29575 0.006188 0.1 9.2625e-010 -2.31563e-010 0.00529753 
0.268676 -0.002139 0.1 5.16109e-010 -1.29027e-010 0.0029518 
0.239699 -0.007257 0.1 1.33661e-010 -3.34151e-011 0.000764449 
0.209 -0.009 0.1 1.45757e-011 -3.64393e-012 8.33634e-005 
0.19721 -0.00871 0.1 1.1773e-012 -2.94324e-013 6.73335e-006 
0.185343 -0.007847 0.1 2.93502e-011 -7.33755e-012 0.000167864 
0.173406 -0.006422 0.1 3.59498e-011 -8.98743e-012 0.000205609 
0.161407 -0.004444 0.1 1.57591e-010 -3.93977e-011 0.000901314 
0.149353 -0.001925 0.1 1.15283e-010 -2.88207e-011 0.00065934 
0.13725 0.001125 0.1 1.38307e-010 -3.45768e-011 0.000791026 
0.125105 0.004696 0.1 4.41484e-010 -1.10371e-010 0.00252499 
0.112926 0.008778 0.1 2.65878e-010 -6.64695e-011 0.00152064 
0.100719 0.013359 0.1 7.63987e-010 -1.90997e-010 0.0043695 
0.088491 0.018431 0.1 4.27594e-010 -1.06898e-010 0.00244555 
0.076249 0.023981 0.1 4.67042e-010 -1.16761e-010 0.00267117 
0.064 0.03 0.1 7.06334e-009 -1.76584e-009 0.0403976 
0.064 0.136 0.1 2.40177e-010 -6.00443e-011 0.00137365 
0.076959 0.127624 0.1 4.77382e-010 -1.19345e-010 0.00273031 
0.089843 0.119995 0.1 4.69934e-010 -1.17484e-010 0.00268771 
0.102656 0.113109 0.1 4.59558e-010 -1.14889e-010 0.00262836 
0.115407 0.106963 0.1 4.463e-010 -1.11575e-010 0.00255254 
0.128103 0.101553 0.1 4.30127e-010 -1.07532e-010 0.00246004 
0.14075 0.096875 0.1 4.11022e-010 -1.02756e-010 0.00235077 
0.153355 0.092927 0.1 3.89034e-010 -9.72584e-011 0.00222501 
0.165926 0.089704 0.1 3.64174e-010 -9.10434e-011 0.00208283 
0.178469 0.087203 0.1 3.36414e-010 -8.41035e-011 0.00192406 
0.190991 0.085421 0.1 3.0578e-010 -7.64451e-011 0.00174886 
0.203499 0.084355 0.1 2.72338e-010 -6.80846e-011 0.00155759 
0.216 0.084 0.1 2.17826e-009 -5.44563e-010 0.0124582 
0.232239 0.084884 0.1 1.82446e-010 -4.56116e-011 0.00104347 
0.247412 0.087491 0.1 7.78868e-010 -1.94717e-010 0.0044546 
0.261453 0.09175 0.1 2.4581e-010 -6.14527e-011 0.00140587 
0.274296 0.097593 0.1 3.13414e-010 -7.83536e-011 0.00179252 
0.285876 0.104949 0.1 3.68462e-010 -9.21155e-011 0.00210736 
0.296125 0.11375 0.1 8.65628e-010 -2.16407e-010 0.00495082 
0.304979 0.123926 0.1 4.18236e-010 -1.04559e-010 0.00239203 
0.31237 0.135407 0.1 9.16439e-010 -2.2911e-010 0.00524142 
0.318234 0.148125 0.1 4.72422e-010 -1.18105e-010 0.00270194 
0.322505 0.162009 0.1 9.85342e-010 -2.46336e-010 0.0056355 
0.325115 0.176991 0.1 5.3125e-010 -1.32813e-010 0.0030384 
0.326 0.193 0.1 1.06248e-009 -2.65621e-010 0.00607669 
0.32498 0.209413 0.1 8.56052e-010 -2.14013e-010 0.00489605 
0.321921 0.225056 0.1 8.40247e-010 -2.10062e-010 0.00480565 
0.316828 0.239781 0.1 8.26024e-010 -2.06506e-010 0.00472431 
0.309704 0.253444 0.1 4.85577e-010 -1.21394e-010 0.00277718 
0.300552 0.265899 0.1 7.79304e-010 -1.94826e-010 0.0044571 
0.289375 0.277 0.1 7.6626e-010 -1.91565e-010 0.00438249 
0.276178 0.286601 0.1 3.82806e-010 -9.57014e-011 0.00218939 
0.260963 0.294556 0.1 7.0117e-010 -1.75292e-010 0.00401022 
0.243734 0.300719 0.1 2.63412e-010 -6.58529e-011 0.00150654 
0.224495 0.304944 0.1 1.42389e-010 -3.55973e-011 0.00081437 
0.203249 0.307087 0.1 5.21323e-010 -1.30331e-010 0.00298162 
0.18 0.307 0.1 5.26456e-009 -1.31614e-009 0.0301098 
0.18 0.397 0.1 2.98338e-009 -7.45843e-010 0.0170629 
0.201563 0.397764 0.1 4.43968e-010 -1.10992e-010 0.0025392 
0.22125 0.400028 0.1 1.76106e-010 -4.40266e-011 0.00100721 
0.239063 0.40375 0.1 2.46916e-010 -6.17289e-011 0.00141219 
0.255 0.408889 0.1 5.38519e-010 -1.3463e-010 0.00307997 
0.269063 0.415403 0.1 5.54989e-010 -1.38747e-010 0.00317417 
0.28125 0.42325 0.1 3.40982e-010 -8.52454e-011 0.00195019 
0.291563 0.432389 0.1 6.14118e-010 -1.5353e-010 0.00351235 
0.3 0.442778 0.1 6.452e-010 -1.613e-010 0.00369011 
0.306563 0.454375 0.1 6.82918e-010 -1.7073e-010 0.00390584 
0.31125 0.467139 0.1 7.27908e-010 -1.81977e-010 0.00416315 
0.314063 0.481028 0.1 7.81379e-010 -1.95345e-010 0.00446897 
0.315 0.496 0.1 5.14904e-010 -1.28726e-010 0.00294491 
0.314053 0.511241 0.1 8.22764e-010 -2.05691e-010 0.00470566 
0.311259 0.525431 0.1 4.69186e-010 -1.17296e-010 0.00268343 
0.306688 0.538516 0.1 9.2148e-010 -2.3037e-010 0.00527025 
0.300407 0.550444 0.1 4.115e-010 -1.02875e-010 0.00235351 
0.292488 0.561165 0.1 8.7609e-010 -2.19022e-010 0.00501065 
0.283 0.570625 0.1 3.55628e-010 -8.89069e-011 0.00203395 
0.272012 0.578773 0.1 2.89564e-010 -7.23909e-011 0.00165611 
0.259593 0.585556 0.1 8.1256e-010 -2.0314e-010 0.0046473 
0.245813 0.590922 0.1 2.24758e-010 -5.61897e-011 0.00128547 
0.230741 0.594819 0.1 1.37994e-010 -3.44984e-011 0.000789231 
0.214447 0.597196 0.1 7.49587e-010 -1.87397e-010 0.00428714 
0.197 0.598 0.1 6.3726e-011 -1.59315e-011 0.00036447 
0.187843 0.59783 0.1 7.14366e-010 -1.78592e-010 0.0040857 
0.178824 0.59731 0.1 4.16392e-011 -1.04098e-011 0.000238148 
0.169875 0.596422 0.1 1.48943e-011 -3.72357e-012 8.51853e-005 
0.160926 0.595148 0.1 7.24506e-010 -1.81127e-010 0.00414369 
0.151907 0.593472 0.1 1.96865e-011 -4.92163e-012 0.000112594 
0.14275 0.591375 0.1 7.3147e-010 -1.82868e-010 0.00418352 
0.133384 0.588841 0.1 2.70214e-011 -6.75533e-012 0.000154544 
0.123741 0.585852 0.1 3.56912e-009 -8.92279e-010 0.020413 
0.11375 0.582391 0.1 3.26368e-010 -8.1592e-011 0.00186661 
0.103343 0.57844 0.1 3.4406e-010 -8.6015e-011 0.00196779 
0.092449 0.573982 0.1 3.62746e-010 -9.06865e-011 0.00207466 
0.081 0.569 0.1 1.86168e-010 -4.6542e-011 0.00106476 
0.081 0.662 0.1 4.31726e-009 -1.07931e-009 0.0246918 
0.091216 0.666772 -0.1 -8.76777e-010 2.19194e-010 -0.00501458 
0.101398 0.671093 -0.1 -3.18899e-010 7.97246e-011 -0.00182389 
0.111594 0.674969 -0.1 -5.74222e-010 1.43555e-010 -0.00328417 
0.121852 0.678407 -0.1 -1.95122e-010 4.87805e-011 -0.00111597 
0.132221 0.681415 -0.1 -1.70169e-010 4.25423e-011 -0.000973254 
0.14275 0.684 -0.1 -2.83986e-010 7.09964e-011 -0.00162421 
0.153487 0.686168 -0.1 -8.27056e-011 2.06764e-011 -0.000473021 
0.164482 0.687926 -0.1 -6.72018e-011 1.68004e-011 -0.000384349 
0.175781 0.689281 -0.1 -9.06446e-011 2.26612e-011 -0.000518427 
0.187435 0.690241 -0.1 -1.73084e-011 4.32711e-012 -9.89928e-005 
0.199492 0.690811 -0.1 -1.09589e-011 2.73973e-012 -6.26777e-005 
0.212 0.691 -0.1 -4.12684e-012 1.03171e-012 -2.36028e-005 
0.241583 0.68956 -0.1 -7.16243e-011 1.79061e-011 -0.000409643 
0.26925 0.685315 -0.1 -3.22264e-010 8.05661e-011 -0.00184314 
0.294875 0.678375 -0.1 -7.52768e-010 1.88192e-010 -0.00430533 
0.318333 0.668852 -0.1 -1.12206e-009 2.80516e-010 -0.00641746 
0.3395 0.656857 -0.1 -4.84776e-009 1.21194e-009 -0.0277259 
0.35825 0.6425 -0.1 -1.43537e-009 3.58843e-010 -0.00820936 
0.374458 0.625894 -0.1 -1.42741e-009 3.56852e-010 -0.00816383 
0.388 0.607148 -0.1 -1.3909e-009 3.47724e-010 -0.007955 
0.39875 0.586375 -0.1 -1.47278e-009 3.68195e-010 -0.00842332 
0.406583 0.563685 -0.1 -1.52642e-009 3.81604e-010 -0.00873008 
0.411375 0.53919 -0.1 -1.38184e-009 3.45459e-010 -0.00790319 
0.413 0.513 -0.1 -1.26565e-009 3.16411e-010 -0.00723865 
0.412472 0.494674 -0.1 -1.12106e-009 2.80264e-010 -0.0064117 
0.410861 0.477639 -0.1 -7.96612e-010 1.99153e-010 -0.00455609 
0.408125 0.461813 -0.1 -7.47171e-010 1.86793e-010 -0.00427332 
0.404222 0.447111 -0.1 -7.07406e-010 1.76851e-010 -0.00404589 
0.399111 0.433451 -0.1 -6.76494e-010 1.69124e-010 -0.0038691 
0.39275 0.42075 -0.1 -8.2723e-010 2.06807e-010 -0.0047312 
0.385097 0.408924 -0.1 -6.4764e-010 1.6191e-010 -0.00370407 
0.376111 0.397889 -0.1 -8.81449e-010 2.20362e-010 -0.0050413 
0.36575 0.387563 -0.1 -3.44748e-009 8.61869e-010 -0.0197173 
0.353972 0.377861 -0.1 -2.63832e-010 6.59578e-011 -0.00150894 
0.340736 0.368701 -0.1 -2.00198e-010 5.00497e-011 -0.001145 
0.326 0.36 -0.1 -3.95654e-010 9.89136e-011 -0.00226288 
0.342213 0.353738 -0.1 -6.61563e-010 1.65391e-010 -0.0037837 
0.35687 0.345569 -0.1 -7.46075e-010 1.86519e-010 -0.00426705 
0.37 0.335672 -0.1 -8.33288e-010 2.08322e-010 -0.00476585 
0.38163 0.324222 -0.1 -9.21362e-010 2.30341e-010 -0.00526958 
0.391787 0.311398 -0.1 -9.66176e-010 2.41544e-010 -0.00552588 
0.4005 0.297375 -0.1 -1.14068e-009 2.85171e-010 -0.00652396 
0.407796 0.282332 -0.1 -1.08789e-009 2.71972e-010 -0.00622199 
0.413704 0.266444 -0.1 -8.83084e-010 2.20771e-010 -0.00505065 
0.41825 0.249891 -0.1 -1.12142e-009 2.80355e-010 -0.00641378 
0.421463 0.232847 -0.1 -8.75813e-010 2.18953e-010 -0.00500907 
0.42337 0.215491 -0.1 -8.78596e-010 2.19649e-010 -0.00502498 
0.424 0.198 -0.1 -1.09102e-009 2.72756e-010 -0.00623992 
0.422176 0.168299 -0.1 -1.52053e-009 3.80132e-010 -0.0086964 
0.416824 0.140306 -0.1 -1.42392e-009 3.5598e-010 -0.00814388 
0.408125 0.114188 -0.1 -1.35837e-009 3.39592e-010 -0.00776897 
0.396259 0.090111 -0.1 -1.64717e-009 4.11793e-010 -0.00942073 
0.381407 0.068243 -0.1 -3.68898e-009 9.22247e-010 -0.0210985 
0.36375 0.04875 -0.1 -1.78565e-009 4.46413e-010 -0.0102127 
0.343468 0.031799 -0.1 -1.51073e-009 3.77682e-010 -0.00864035 
0.320741 0.017556 -0.1 -1.77893e-009 4.44735e-010 -0.0101743 
0.29575 0.006188 -0.1 -9.2625e-010 2.31563e-010 -0.00529753 
0.268676 -0.002139 -0.1 -5.16109e-010 1.29027e-010 -0.0029518 
0.239699 -0.007257 -0.1 -1.33661e-010 3.34151e-011 -0.000764449 
0.209 -0.00899999 -0.1 -1.45757e-011 3.64393e-012 -8.33634e-005 
0.19721 -0.00871 -0.1 -1.1773e-012 2.94324e-013 -6.73335e-006 
0.185343 -0.007847 -0.1 -2.93502e-011 7.33755e-012 -0.000167864 
0.173406 -0.006422 -0.1 -3.59498e-011 8.98743e-012 -0.000205609 
0.161407 -0.004444 -0.1 -1.57591e-010 3.93977e-011 -0.000901314 
0.149353 -0.001925 -0.1 -1.15283e-010 2.88207e-011 -0.00065934 
0.13725 0.001125 -0.1 -1.38307e-010 3.45768e-011 -0.000791026 
0.125105 0.004696 -0.1 -4.41484e-010 1.10371e-010 -0.00252499 
0.112926 0.008778 -0.1 -2.65878e-010 6.64695e-011 -0.00152064 
0.100719 0.013359 -0.1 -7.63987e-010 1.90997e-010 -0.0043695 
0.088491 0.018431 -0.1 -4.27594e-010 1.06898e-010 -0.00244555 
0.076249 0.023981 -0.1 -4.67042e-010 1.16761e-010 -0.00267117 
0.064 0.03 -0.1 -7.06334e-009 1.76584e-009 -0.0403976 
0.064 0.136 -0.1 -2.40177e-010 6.00443e-011 -0.00137365 
0.076959 0.127624 -0.1 -4.77382e-010 1.19345e-010 -0.00273031 
0.089843 0.119995 -0.1 -4.69934e-010 1.17484e-010 -0.00268771 
0.102656 0.113109 -0.1 -4.59558e-010 1.14889e-010 -0.00262836 
0.115407 0.106963 -0.1 -4.463e-010 1.11575e-010 -0.00255254 
0.128103 0.101553 -0.1 -4.30127e-010 1.07532e-010 -0.00246004 
0.14075 0.096875 -0.1 -4.11022e-010 1.02756e-010 -0.00235077 
0.153355 0.092927 -0.1 -3.89034e-010 9.72584e-011 -0.00222501 
0.165926 0.089704 -0.1 -3.64174e-010 9.10434e-011 -0.00208283 
0.178469 0.087203 -0.1 -3.36414e-010 8.41035e-011 -0.00192406 
0.190991 0.085421 -0.1 -3.0578e-010 7.64451e-011 -0.00174886 
0.203499 0.084355 -0.1 -2.72338e-010 6.80846e-011 -0.00155759 
0.216 0.084 -0.1 -2.17826e-009 5.44563e-010 -0.0124582 
0.232239 0.084884 -0.1 -1.82446e-010 4.56116e-011 -0.00104347 
0.247412 0.087491 -0.1 -7.78868e-010 1.94717e-010 -0.0044546 
0.261453 0.09175 -0.1 -2.4581e-010 6.14527e-011 -0.00140587 
0.274296 0.097593 -0.1 -3.13414e-010 7.83536e-011 -0.00179252 
0.285876 0.104949 -0.1 -3.68462e-010 9.21155e-011 -0.00210736 
0.296125 0.11375 -0.1 -8.65628e-010 2.16407e-010 -0.00495082 
0.304979 0.123926 -0.1 -4.18236e-010 1.04559e-010 -0.00239203 
0.31237 0.135407 -0.1 -9.16439e-010 2.2911e-010 -0.00524142 
0.318234 0.148125 -0.1 -4.72422e-010 1.18105e-010 -0.00270194 
0.322505 0.162009 -0.1 -9.85342e-010 2.46336e-010 -0.0056355 
0.325115 0.176991 -0.1 -5.3125e-010 1.32813e-010 -0.0030384 
0.326 0.193 -0.1 -1.06248e-009 2.65621e-010 -0.00607669 
0.32498 0.209413 -0.1 -8.56052e-010 2.14013e-010 -0.00489605 
0.321921 0.225056 -0.1 -8.40247e-010 2.10062e-010 -0.00480565 
0.316828 0.239781 -0.1 -8.26024e-010 2.06506e-010 -0.00472431 
0.309704 0.253444 -0.1 -4.85577e-010 1.21394e-010 -0.00277718 
0.300552 0.265899 -0.1 -7.79304e-010 1.94826e-010 -0.0044571 
0.289375 0.277 -0.1 -7.6626e-010 1.91565e-010 -0.00438249 
0.276178 0.286601 -0.1 -3.82806e-010 9.57014e-011 -0.00218939 
0.260963 0.294556 -0.1 -7.0117e-010 1.75292e-010 -0.00401022 
0.243734 0.300719 -0.1 -2.63412e-010 6.58529e-011 -0.00150654 
0.224495 0.304944 -0.1 -1.42389e-010 3.55973e-011 -0.00081437 
0.203249 0.307087 -0.1 -5.21323e-010 1.30331e-010 -0.00298162 
0.18 0.307 -0.1 -5.26456e-009 1.31614e-009 -0.0301098 
0.18 0.397 -0.1 -2.98338e-009 7.45843e-010 -0.0170629 
0.201563 0.397764 -0.1 -4.43968e-010 1.10992e-010 -0.0025392 
0.22125 0.400028 -0.1 -1.76106e-010 4.40266e-011 -0.00100721 
0.239063 0.40375 -0.1 -2.46916e-010 6.17289e-011 -0.00141219 
0.255 0.408889 -0.1 -5.38519e-010 1.3463e-010 -0.00307997 
0.269063 0.415403 -0.1 -5.54989e-010 1.38747e-010 -0.00317417 
0.28125 0.42325 -0.1 -3.40982e-010 8.52454e-011 -0.00195019 
0.291563 0.432389 -0.1 -6.14118e-010 1.5353e-010 -0.00351235 
0.3 0.442778 -0.1 -6.452e-010 1.613e-010 -0.00369011 
0.306563 0.454375 -0.1 -6.82918e-010 1.70729e-010 -0.00390584 
0.31125 0.467139 -0.1 -7.27908e-010 1.81977e-010 -0.00416315 
0.314063 0.481028 -0.1 -7.81379e-010 1.95345e-010 -0.00446897 
0.315 0.496 -0.1 -5.14904e-010 1.28726e-010 -0.00294491 
0.314053 0.511241 -0.1 -8.22764e-010 2.05691e-010 -0.00470566 
0.311259 0.525431 -0.1 -4.69186e-010 1.17296e-010 -0.00268343 
0.306688 0.538516 -0.1 -9.2148e-010 2.3037e-010 -0.00527025 
0.300407 0.550444 -0.1 -4.115e-010 1.02875e-010 -0.00235351 
0.292488 0.561165 -0.1 -8.7609e-010 2.19022e-010 -0.00501065 
0.283 0.570625 -0.1 -3.55628e-010 8.89069e-011 -0.00203395 
0.272012 0.578773 -0.1 -2.89564e-010 7.23909e-011 -0.00165611 
0.259593 0.585556 -0.1 -8.1256e-010 2.0314e-010 -0.0046473 
0.245813 0.590922 -0.1 -2.24758e-010 5.61897e-011 -0.00128547 
0.230741 0.594819 -0.1 -1.37994e-010 3.44984e-011 -0.000789231 
0.214447 0.597196 -0.1 -7.49587e-010 1.87397e-010 -0.00428714 
0.197 0.598 -0.1 -6.3726e-011 1.59315e-011 -0.00036447 
0.187843 0.59783 -0.1 -7.14366e-010 1.78592e-010 -0.0040857 
0.178824 0.59731 -0.1 -4.16392e-011 1.04098e-011 -0.000238148 
0.169875 0.596422 -0.1 -1.48943e-011 3.72357e-012 -8.51853e-005 
0.160926 0.595148 -0.1 -7.24506e-010 1.81127e-010 -0.00414369 
0.151907 0.593472 -0.1 -1.96865e-011 4.92163e-012 -0.000112594 
0.14275 0.591375 -0.1 -7.3147e-010 1.82868e-010 -0.00418352 
0.133384 0.588841 -0.1 -2.70213e-011 6.75532e-012 -0.000154544 
0.123741 0.585852 -0.1 -3.56912e-009 8.92279e-010 -0.020413 
0.11375 0.582391 -0.1 -3.26368e-010 8.1592e-011 -0.00186661 
0.103343 0.57844 -0.1 -3.4406e-010 8.6015e-011 -0.00196779 
0.092449 0.573982 -0.1 -3.62746e-010 9.06865e-011 -0.00207466 
0.081 0.569 -0.1 -1.86168e-010 4.6542e-011 -0.00106476 
0.081 0.662 -0.1 -4.31726e-009 1.07931e-009 -0.0246918 
0.091216 0.666772 -0.1 -1.23708 2.7326 3.35744e-007 
0.091216 0.666772 0.1 -1.20452 2.7471 3.30684e-007 
0.101398 0.671093 -0.1 -1.13665 2.77581 3.20072e-007 
0.101398 0.671093 0.1 -1.10134 2.79001 3.14519e-007 
0.111594 0.674969 -0.1 -1.02846 2.81764 3.02985e-007 
0.111594 0.674969 0.1 -0.990901 2.83107 2.97004e-007 
0.121852 0.678407 -0.1 -0.914169 2.85673 2.8471e-007 
0.121852 0.678407 0.1 -0.874999 2.86897 2.78397e-007 
0.132221 0.681415 -0.1 -0.795651 2.89197 2.65528e-007 
0.132221 0.681415 0.1 -0.755472 2.90272 2.58973e-007 
0.14275 0.684 -0.1 -0.674786 2.92254 2.45732e-007 
0.14275 0.684 0.1 -0.634279 2.93159 2.39044e-007 
0.153487 0.686168 -0.1 -0.553732 2.94789 2.25674e-007 
0.153487 0.686168 0.1 -0.513691 2.95513 2.18989e-007 
0.164482 0.687926 -0.1 -0.434835 2.9678 2.05755e-007 
0.164482 0.687926 0.1 -0.39602 2.97323 1.99206e-007 
0.175781 0.689281 -0.1 -0.320233 2.9824 1.86356e-007 
0.175781 0.689281 0.1 -0.283261 2.98613 1.80055e-007 
0.187435 0.690241 -0.1 -0.211415 2.99213 1.67755e-007 
0.187435 0.690241 0.1 -0.176542 2.99439 1.61757e-007 
0.199492 0.690811 -0.1 -0.109554 2.99765 1.50187e-007 
0.199492 0.690811 0.1 -0.0774409 2.99866 1.44616e-007 
0.212 0.691 -0.1 0.0184004 2.99859 1.27855e-007 
0.212 0.691 0.1 0.0821282 2.99752 1.16666e-007 
0.241583 0.68956 -0.1 0.248894 2.98607 8.7007e-008 
0.241583 0.68956 0.1 0.351932 2.97568 6.85375e-008 
0.26925 0.685315 -0.1 0.564725 2.94209 2.98634e-008 
0.26925 0.685315 0.1 0.674481 2.91889 9.6586e-009 
0.294875 0.678375 -0.1 0.898971 2.85701 -3.2297e-008 
0.294875 0.678375 0.1 1.01371 2.81835 -5.40485e-008 
0.318333 0.668852 -0.1 1.24532 2.72314 -9.87063e-008 
0.318333 0.668852 0.1 1.36219 2.66659 -1.21613e-007 
0.3395 0.656857 -0.1 1.594 2.53401 -1.67939e-007 
0.3395 0.656857 0.1 1.70893 2.45796 -1.91358e-007 
0.35825 0.6425 -0.1 1.93154 2.28643 -2.37778e-007 
0.35825 0.6425 0.1 2.03921 2.19093 -2.60778e-007 
0.374458 0.625894 -0.1 2.24187 1.98254 -3.05321e-007 
0.374458 0.625894 0.1 2.33686 1.86964 -3.26865e-007 
0.388 0.607148 -0.1 2.50935 1.63077 -3.67465e-007 
0.388 0.607148 0.1 2.58686 1.50479 -3.86524e-007 
0.39875 0.586375 -0.1 2.72151 1.24553 -4.214e-007 
0.39875 0.586375 0.1 2.77864 1.11224 -4.37215e-007 
0.406583 0.563685 -0.1 2.87191 0.844633 -4.65221e-007 
0.406583 0.563685 0.1 2.90805 0.710303 -4.77412e-007 
0.411375 0.53919 -0.1 2.96087 0.44591 -4.98203e-007 
0.411375 0.53919 0.1 2.97756 0.315847 -5.06807e-007 
0.413 0.513 -0.1 2.99575 0.0950568 -5.19638e-007 
0.413 0.513 0.1 2.99725 0.0043309 -5.23867e-007 
0.412472 0.494674 -0.1 2.99473 -0.151748 -5.30249e-007 
0.412472 0.494674 0.1 2.9907 -0.217101 -5.324e-007 
0.410861 0.477639 -0.1 2.9765 -0.358654 -5.36105e-007 
0.410861 0.477639 0.1 2.96632 -0.434854 -5.37656e-007 
0.408125 0.461813 -0.1 2.93729 -0.59729 -5.3968e-007 
0.408125 0.461813 0.1 2.91843 -0.683525 -5.40152e-007 
0.404222 0.447111 -0.1 2.86963 -0.863605 -5.39491e-007 
0.404222 0.447111 0.1 2.8397 -0.957451 -5.3836e-007 
0.399111 0.433451 -0.1 2.76731 -1.14867 -5.34062e-007 
0.399111 0.433451 0.1 2.72485 -1.24604 -5.30894e-007 
0.39275 0.42075 -0.1 2.6278 -1.43891 -5.22356e-007 
0.39275 0.42075 0.1 2.57321 -1.5344 -5.16985e-007 
0.385097 0.408924 -0.1 2.45451 -1.71803 -5.04257e-007 
0.385097 0.408924 0.1 2.39039 -1.80618 -4.969e-007 
0.376111 0.397889 -0.1 2.25676 -1.97118 -4.80747e-007 
0.376111 0.397889 0.1 2.18724 -2.04804 -4.71953e-007 
0.36575 0.387563 -0.1 2.04762 -2.18845 -4.53678e-007 
0.36575 0.387563 0.1 1.97752 -2.252 -4.44198e-007 
0.353972 0.377861 -0.1 1.84067 -2.36599 -4.25254e-007 
0.353972 0.377861 0.1 1.77394 -2.41643 -4.15791e-007 
0.340736 0.368701 -0.1 1.64658 -2.50568 -3.97424e-007 
0.340736 0.368701 0.1 1.58595 -2.54448 -3.88519e-007 
0.326 0.36 -0.1 1.37718 -0.789354 -2.75297e-007 
0.326 0.36 0.1 1.22903 1.00458 -1.70979e-007 
0.342213 0.353738 -0.1 1.20742 2.73917 -9.13794e-008 
0.342213 0.353738 0.1 1.33397 2.67982 -1.161e-007 
0.35687 0.345569 -0.1 1.5756 2.54554 -1.64218e-007 
0.35687 0.345569 0.1 1.69069 2.4706 -1.87616e-007 
0.37 0.335672 -0.1 1.90542 2.3097 -2.32194e-007 
0.37 0.335672 0.1 2.00507 2.22375 -2.53374e-007 
0.38163 0.324222 -0.1 2.18705 2.04608 -2.92959e-007 
0.38163 0.324222 0.1 2.26939 1.95436 -3.11364e-007 
0.391787 0.311398 -0.1 2.41721 1.76952 -3.4529e-007 
0.391787 0.311398 0.1 2.48269 1.6764 -3.6081e-007 
0.4005 0.297375 -0.1 2.59854 1.49191 -3.89131e-007 
0.4005 0.297375 0.1 2.64891 1.40054 -4.0193e-007 
0.407796 0.282332 -0.1 2.73681 1.22132 -4.25134e-007 
0.407796 0.282332 0.1 2.77435 1.13346 -4.35537e-007 
0.413704 0.266444 -0.1 2.83889 0.9619 -4.54321e-007 
0.413704 0.266444 0.1 2.86589 0.87819 -4.62701e-007 
0.41825 0.249891 -0.1 2.91128 0.714904 -4.77775e-007 
0.41825 0.249891 0.1 2.92968 0.635327 -4.84471e-007 
0.421463 0.232847 -0.1 2.9594 0.479718 -4.96469e-007 
0.421463 0.232847 0.1 2.97073 0.403686 -5.01772e-007 
0.42337 0.215491 -0.1 2.98739 0.25443 -5.1121e-007 
0.42337 0.215491 0.1 2.99272 0.181207 -5.15343e-007 
0.424 0.198 -0.1 2.99682 0.0106931 -5.23513e-007 
0.424 0.198 0.1 2.99559 -0.086598 -5.27551e-007 
0.422176 0.168299 -0.1 2.97845 -0.310382 -5.34335e-007 
0.422176 0.168299 0.1 2.96254 -0.436874 -5.37083e-007 
0.416824 0.140306 -0.1 2.91318 -0.691577 -5.39586e-007 
0.416824 0.140306 0.1 2.87973 -0.819787 -5.39342e-007 
0.408125 0.114188 -0.1 2.7945 -1.07406 -5.35555e-007 
0.408125 0.114188 0.1 2.74273 -1.20013 -5.32013e-007 
0.396259 0.090111 -0.1 2.62121 -1.44597 -5.21512e-007 
0.396259 0.090111 0.1 2.55148 -1.56574 -5.14555e-007 
0.381407 0.068243 -0.1 2.39564 -1.79502 -4.97329e-007 
0.381407 0.068243 0.1 2.30954 -1.90452 -4.87062e-007 
0.36375 0.04875 -0.1 2.12358 -2.10998 -4.63529e-007 
0.36375 0.04875 0.1 2.02372 -2.20595 -4.50263e-007 
0.343468 0.031799 -0.1 1.8136 -2.38196 -4.21219e-007 
0.343468 0.031799 0.1 1.70335 -2.462 -4.05441e-007 
0.320741 0.017556 -0.1 1.47613 -2.60495 -3.7196e-007 
0.320741 0.017556 0.1 1.35915 -2.66785 -3.54257e-007 
0.29575 0.006188 -0.1 1.12209 -2.77631 -3.17549e-007 
0.29575 0.006188 0.1 1.00201 -2.82188 -2.98544e-007 
0.268676 -0.002139 -0.1 0.76188 -2.89638 -2.59817e-007 
0.268676 -0.002139 0.1 0.641836 -2.92533 -2.40092e-007 
0.239699 -0.007257 -0.1 0.404547 -2.96791 -2.00465e-007 
0.239699 -0.007257 0.1 0.287302 -2.98154 -1.80561e-007 
0.209 -0.00899999 -0.1 0.0887819 -2.99648 -1.46504e-007 
0.209 -0.009 0.1 0.00750648 -2.99779 -1.3235e-007 
0.19721 -0.00871 -0.1 -0.12171 -2.99676 -1.09712e-007 
0.19721 -0.00871 0.1 -0.169652 -2.99443 -1.01228e-007 
0.185343 -0.007847 -0.1 -0.263597 -2.98768 -8.45066e-008 
0.185343 -0.007847 0.1 -0.309601 -2.98327 -7.62698e-008 
0.173406 -0.006422 -0.1 -0.399722 -2.97258 -6.00461e-008 
0.173406 -0.006422 0.1 -0.443839 -2.96632 -5.20586e-008 
0.161407 -0.004444 -0.1 -0.529861 -2.95222 -3.64019e-008 
0.161407 -0.004444 0.1 -0.571767 -2.94439 -2.87326e-008 
0.149353 -0.001925 -0.1 -0.653479 -2.92739 -1.37026e-008 
0.149353 -0.001925 0.1 -0.693285 -2.91822 -6.3417e-009 
0.13725 0.001125 -0.1 -0.770817 -2.89876 8.06526e-009 
0.13725 0.001125 0.1 -0.808542 -2.88846 1.51114e-008 
0.125105 0.004696 -0.1 -0.88197 -2.86694 2.88908e-008 
0.125105 0.004696 0.1 -0.917674 -2.85571 3.56242e-008 
0.112926 0.008778 -0.1 -0.986935 -2.83256 4.87458e-008 
0.112926 0.008778 0.1 -1.02049 -2.82065 5.5134e-008 
0.100719 0.013359 -0.1 -1.08584 -2.79618 6.76289e-008 
0.100719 0.013359 0.1 -1.11762 -2.78363 7.37345e-008 
0.088491 0.018431 -0.1 -1.17918 -2.75816 8.5611e-008 
0.088491 0.018431 0.1 -1.20895 -2.74524 9.1381e-008 
0.076249 0.023981 -0.1 -1.26683 -2.71905 1.02646e-007 
0.076249 0.023981 0.1 -1.29494 -2.70577 1.08142e-007 
0.064 0.03 -0.1 -1.88204 -1.795 2.50604e-007 
0.064 0.03 0.1 -2.44102 -0.897498 3.87571e-007 
0.064 0.136 -0.1 -1.45717 0.839843 2.91491e-007 
0.064 0.136 0.1 0.0856591 1.67969 5.84442e-008 
0.076959 0.127624 -0.1 1.59517 2.54015 -1.67875e-007 
0.076959 0.127624 0.1 1.56185 2.56077 -1.61147e-007 
0.089843 0.119995 -0.1 1.49241 2.60178 -1.47213e-007 
0.089843 0.119995 0.1 1.45629 2.62217 -1.40007e-007 
0.102656 0.113109 -0.1 1.38098 2.66252 -1.25075e-007 
0.102656 0.113109 0.1 1.34178 2.68249 -1.17349e-007 
0.115407 0.106963 -0.1 1.2604 2.7216 -1.01411e-007 
0.115407 0.106963 0.1 1.21822 2.74074 -9.31988e-008 
0.128103 0.101553 -0.1 1.13094 2.77782 -7.63178e-008 
0.128103 0.101553 0.1 1.08585 2.79575 -6.76497e-008 
0.14075 0.096875 -0.1 0.992728 2.83008 -4.98674e-008 
0.14075 0.096875 0.1 0.944701 2.84647 -4.07536e-008 
0.153355 0.092927 -0.1 0.846134 2.87724 -2.21744e-008 
0.153355 0.092927 0.1 0.795594 2.89163 -1.2709e-008 
0.165926 0.089704 -0.1 0.692247 2.91803 6.51504e-009 
0.165926 0.089704 0.1 0.63944 2.93006 1.62737e-008 
0.178469 0.087203 -0.1 0.531979 2.95142 3.59963e-008 
0.178469 0.087203 0.1 0.477324 2.96075 4.59603e-008 
0.190991 0.085421 -0.1 0.366698 2.97644 6.59887e-008 
0.190991 0.085421 0.1 0.310726 2.9828 7.60535e-008 
0.203499 0.084355 -0.1 0.198222 2.99237 9.61429e-008 
0.203499 0.084355 0.1 0.14169 2.99558 1.06167e-007 
0.216 0.084 -0.1 0.00241556 2.99772 1.30612e-007 
0.216 0.084 0.1 -0.0803272 2.99664 1.45032e-007 
0.232239 0.084884 -0.1 -0.27805 2.9826 1.7899e-007 
0.232239 0.084884 0.1 -0.39303 2.96964 1.98527e-007 
0.247412 0.087491 -0.1 -0.62894 2.92806 2.37957e-007 
0.247412 0.087491 0.1 -0.74987 2.89945 2.57851e-007 
0.261453 0.09175 -0.1 -0.994646 2.82412 2.97356e-007 
0.261453 0.09175 0.1 -1.11849 2.7774 3.16968e-007 
0.274296 0.097593 -0.1 -1.36442 2.66455 3.55033e-007 
0.274296 0.097593 0.1 -1.4865 2.59841 3.73489e-007 
0.285876 0.104949 -0.1 -1.72387 2.44685 4.08366e-007 
0.285876 0.104949 0.1 -1.83916 2.36142 4.24789e-007 
0.296125 0.11375 -0.1 -2.05737 2.17373 4.54739e-007 
0.296125 0.11375 0.1 -2.1603 2.07147 4.68265e-007 
0.304979 0.123926 -0.1 -2.34965 1.8541 4.91872e-007 
0.304979 0.123926 0.1 -2.43608 1.73899 5.01951e-007 
0.31237 0.135407 -0.1 -2.58978 1.5013 5.18436e-007 
0.31237 0.135407 0.1 -2.65707 1.37872 5.24842e-007 
0.318234 0.148125 -0.1 -2.77203 1.13145 5.34135e-007 
0.318234 0.148125 0.1 -2.81971 1.00676 5.37021e-007 
0.322505 0.162009 -0.1 -2.89676 0.75967 5.39692e-007 
0.322505 0.162009 0.1 -2.92612 0.637271 5.39476e-007 
0.325115 0.176991 -0.1 -2.9688 0.398446 5.36498e-007 
0.325115 0.176991 0.1 -2.98211 0.28202 5.33736e-007 
0.326 0.193 -0.1 -2.99503 0.0483684 5.25782e-007 
0.326 0.193 0.1 -2.99462 -0.0688564 5.20587e-007 
0.32498 0.209413 -0.1 -2.97756 -0.31597 5.06802e-007 
0.32498 0.209413 0.1 -2.9609 -0.445859 4.98211e-007 
0.321921 0.225056 -0.1 -2.90789 -0.710705 4.77366e-007 
0.321921 0.225056 0.1 -2.87155 -0.845662 4.65113e-007 
0.316828 0.239781 -0.1 -2.77684 -1.11608 4.36733e-007 
0.316828 0.239781 0.1 -2.71848 -1.25155 4.20607e-007 
0.309704 0.253444 -0.1 -2.57925 -1.51681 3.84668e-007 
0.309704 0.253444 0.1 -2.49838 -1.6466 3.64855e-007 
0.300552 0.265899 -0.1 -2.31637 -1.89378 3.22227e-007 
0.300552 0.265899 0.1 -2.21522 -2.01116 2.99411e-007 
0.289375 0.277 -0.1 -1.99768 -2.22767 2.51911e-007 
0.289375 0.277 0.1 -1.88129 -2.3268 2.27227e-007 
0.276178 0.286601 -0.1 -1.63993 -2.50347 1.77304e-007 
0.276178 0.286601 0.1 -1.51496 -2.58101 1.52064e-007 
0.260963 0.294556 -0.1 -1.26347 -2.71394 1.02282e-007 
0.260963 0.294556 0.1 -1.13695 -2.76933 7.77396e-008 
0.243734 0.300719 -0.1 -0.888117 -2.85987 3.02745e-008 
0.243734 0.300719 0.1 -0.765801 -2.89502 7.35155e-009 
0.224495 0.304944 -0.1 -0.529347 -2.9484 -3.63247e-008 
0.224495 0.304944 0.1 -0.415209 -2.96663 -5.7078e-008 
0.203249 0.307087 -0.1 -0.196971 -2.9899 -9.62532e-008 
0.203249 0.307087 0.1 -0.0928731 -2.99494 -1.14675e-007 
0.18 0.307 -0.1 -0.992516 -1.99999 8.61149e-008 
0.18 0.307 0.1 -1.99626 -0.999993 3.05326e-007 
0.18 0.397 -0.1 -2.03541 0.999373 3.99566e-007 
0.18 0.397 0.1 -1.07082 1.99875 2.74596e-007 
0.201563 0.397764 -0.1 -0.185063 2.9922 1.63151e-007 
0.201563 0.397764 0.1 -0.263901 2.98628 1.76676e-007 
0.22125 0.400028 -0.1 -0.433025 2.96576 2.0535e-007 
0.22125 0.400028 0.1 -0.52331 2.95117 2.20498e-007 
0.239063 0.40375 -0.1 -0.71596 2.90946 2.52359e-007 
0.239063 0.40375 0.1 -0.818324 2.88235 2.69072e-007 
0.255 0.408889 -0.1 -1.03409 2.81087 3.03673e-007 
0.255 0.408889 0.1 -1.1475 2.76651 3.21564e-007 
0.269063 0.415403 -0.1 -1.38197 2.65556 3.5771e-007 
0.269063 0.415403 0.1 -1.50304 2.58896 3.75966e-007 
0.28125 0.42325 -0.1 -1.74596 2.42999 4.11492e-007 
0.28125 0.42325 0.1 -1.86781 2.33763 4.28759e-007 
0.291563 0.432389 -0.1 -2.10271 2.12725 4.60635e-007 
0.291563 0.432389 0.1 -2.21575 2.00924 4.75241e-007 
0.3 0.442778 -0.1 -2.42283 1.75334 5.00262e-007 
0.3 0.442778 0.1 -2.51686 1.61545 5.10676e-007 
0.306563 0.454375 -0.1 -2.67931 1.32974 5.26591e-007 
0.306563 0.454375 0.1 -2.74773 1.18192 5.32091e-007 
0.31125 0.467139 -0.1 -2.85753 0.887906 5.38437e-007 
0.31125 0.467139 0.1 -2.89891 0.74171 5.39283e-007 
0.314063 0.481028 -0.1 -2.95825 0.45947 5.3732e-007 
0.314063 0.481028 0.1 -2.97619 0.323426 5.34512e-007 
0.315 0.496 -0.1 -2.99417 0.0629054 5.26267e-007 
0.315 0.496 0.1 -2.9942 -0.0615702 5.20831e-007 
0.314053 0.511241 -0.1 -2.97731 -0.317221 5.06704e-007 
0.314053 0.511241 0.1 -2.9604 -0.448396 4.98012e-007 
0.311259 0.525431 -0.1 -2.90638 -0.716168 4.76863e-007 
0.311259 0.525431 0.1 -2.86927 -0.852765 4.64404e-007 
0.306688 0.538516 -0.1 -2.77293 -1.1255 4.35637e-007 
0.306688 0.538516 0.1 -2.7137 -1.26164 4.1933e-007 
0.300407 0.550444 -0.1 -2.57401 -1.52599 3.83351e-007 
0.300407 0.550444 0.1 -2.49355 -1.6542 3.63678e-007 
0.292488 0.561165 -0.1 -2.31479 -1.89643 3.21835e-007 
0.292488 0.561165 0.1 -2.21649 -2.01044 2.99664e-007 
0.283 0.570625 -0.1 -2.00776 -2.21955 2.54029e-007 
0.283 0.570625 0.1 -1.89734 -2.31465 2.30565e-007 
0.272012 0.578773 -0.1 -1.67062 -2.48413 1.83516e-007 
0.272012 0.578773 0.1 -1.55432 -2.55851 1.5993e-007 
0.259593 0.585556 -0.1 -1.32155 -2.6871 1.1361e-007 
0.259593 0.585556 0.1 -1.20507 -2.74131 9.08746e-008 
0.245813 0.590922 -0.1 -0.976058 -2.83184 4.68755e-008 
0.245813 0.590922 0.1 -0.86352 -2.86816 2.56112e-008 
0.230741 0.594819 -0.1 -0.645007 -2.92585 -1.51163e-008 
0.230741 0.594819 0.1 -0.539032 -2.94721 -3.45794e-008 
0.214447 0.597196 -0.1 -0.334739 -2.97799 -7.16442e-008 
0.214447 0.597196 0.1 -0.23642 -2.98741 -8.92465e-008 
0.197 0.598 -0.1 -0.0735069 -2.99771 -1.18182e-007 
0.197 0.598 0.1 -0.00891194 -2.9986 -1.29515e-007 
0.187843 0.59783 -0.1 0.0946814 -2.998 -1.47601e-007 
0.187843 0.59783 0.1 0.13368 -2.99651 -1.54355e-007 
0.178824 0.59731 -0.1 0.213862 -2.9918 -1.68168e-007 
0.178824 0.59731 0.1 0.255045 -2.98857 -1.75228e-007 
0.169875 0.596422 -0.1 0.338426 -2.98024 -1.89443e-007 
0.169875 0.596422 0.1 0.380623 -2.97515 -1.96598e-007 
0.160926 0.595148 -0.1 0.464585 -2.9632 -2.10756e-007 
0.160926 0.595148 0.1 0.506349 -2.95635 -2.17759e-007 
0.151907 0.593472 -0.1 0.588636 -2.9411 -2.3148e-007 
0.151907 0.593472 0.1 0.62916 -2.9327 -2.38198e-007 
0.14275 0.591375 -0.1 0.707616 -2.91483 -2.51135e-007 
0.14275 0.591375 0.1 0.745549 -2.90536 -2.57353e-007 
0.133384 0.588841 -0.1 0.81839 -2.88576 -2.69232e-007 
0.133384 0.588841 0.1 0.853298 -2.87563 -2.74893e-007 
0.123741 0.585852 -0.1 0.919465 -2.85524 -2.85571e-007 
0.123741 0.585852 0.1 0.950725 -2.84499 -2.90588e-007 
0.11375 0.582391 -0.1 1.00959 -2.82471 -2.99994e-007 
0.11375 0.582391 0.1 1.03719 -2.8147 -3.04382e-007 
0.103343 0.57844 -0.1 1.0886 -2.79529 -3.12522e-007 
0.103343 0.57844 0.1 1.1124 -2.7859 -3.16274e-007 
0.092449 0.573982 -0.1 1.15647 -2.76796 -3.23195e-007 
0.092449 0.573982 0.1 1.17675 -2.7594 -3.26367e-007 
0.081 0.569 -0.1 -0.201986 -1.8339 -4.48457e-008 
0.081 0.569 0.1 -1.60099 -0.916948 2.39845e-007 
0.081 0.662 -0.1 -2.42322 0.906029 4.63293e-007 
0.081 0.662 0.1 -1.84643 1.81206 4.02048e-007 
3 10 12 11 
3 9 12 10 
3 8 12 9 
3 8 13 12 
3 7 13 8 
3 6 13 7 
3 5 13 6 
3 5 14 13 
3 4 14 5 
3 3 14 4 
3 2 14 3 
3 2 15 14 
3 1 15 2 
3 0 15 1 
3 0 16 15 
3 146 16 0 
3 145 144 146 
3 144 143 146 
3 143 142 146 
3 142 141 146 
3 141 16 146 
3 141 140 16 
3 140 139 16 
3 139 17 16 
3 139 138 17 
3 138 137 17 
3 137 18 17 
3 137 136 18 
3 136 135 18 
3 135 134 18 
3 134 19 18 
3 134 133 19 
3 133 132 19 
3 132 20 19 
3 131 20 132 
3 130 20 131 
3 129 20 130 
3 129 21 20 
3 128 21 129 
3 127 21 128 
3 126 21 127 
3 126 22 21 
3 125 22 126 
3 124 22 125 
3 124 23 22 
3 123 23 124 
3 122 23 123 
3 122 24 23 
3 121 24 122 
3 120 24 121 
3 120 25 24 
3 119 25 120 
3 119 26 25 
3 118 26 119 
3 118 27 26 
3 117 27 118 
3 117 28 27 
3 116 28 117 
3 116 29 28 
3 115 29 116 
3 114 29 115 
3 114 30 29 
3 113 30 114 
3 113 31 30 
3 112 31 113 
3 111 31 112 
3 110 31 111 
3 110 32 31 
3 109 32 110 
3 108 32 109 
3 108 33 32 
3 108 34 33 
3 108 35 34 
3 108 36 35 
3 108 37 36 
3 108 38 37 
3 108 39 38 
3 108 40 39 
3 108 107 40 
3 107 41 40 
3 106 41 107 
3 105 41 106 
3 104 41 105 
3 104 42 41 
3 103 42 104 
3 102 42 103 
3 102 43 42 
3 101 43 102 
3 101 44 43 
3 100 44 101 
3 99 44 100 
3 99 45 44 
3 98 45 99 
3 98 46 45 
3 97 46 98 
3 97 47 46 
3 96 47 97 
3 96 48 47 
3 95 48 96 
3 94 48 95 
3 94 49 48 
3 93 49 94 
3 92 49 93 
3 92 50 49 
3 71 73 72 
3 91 50 92 
3 71 74 73 
3 90 50 91 
3 71 75 74 
3 90 51 50 
3 89 51 90 
3 71 76 75 
3 71 77 76 
3 88 51 89 
3 71 78 77 
3 87 51 88 
3 71 79 78 
3 71 80 79 
3 86 51 87 
3 86 52 51 
3 71 81 80 
3 85 52 86 
3 71 82 81 
3 71 83 82 
3 84 52 85 
3 71 84 83 
3 71 52 84 
3 71 53 52 
3 71 54 53 
3 71 55 54 
3 70 55 71 
3 69 55 70 
3 68 55 69 
3 68 56 55 
3 67 56 68 
3 66 56 67 
3 66 57 56 
3 65 57 66 
3 64 57 65 
3 63 57 64 
3 63 58 57 
3 62 58 63 
3 61 58 62 
3 61 59 58 
3 60 59 61 
3 159 157 158 
3 159 156 157 
3 159 155 156 
3 160 155 159 
3 160 154 155 
3 160 153 154 
3 160 152 153 
3 161 152 160 
3 161 151 152 
3 161 150 151 
3 161 149 150 
3 162 149 161 
3 162 148 149 
3 162 147 148 
3 163 147 162 
3 163 293 147 
3 291 292 293 
3 290 291 293 
3 289 290 293 
3 288 289 293 
3 163 288 293 
3 287 288 163 
3 286 287 163 
3 164 286 163 
3 285 286 164 
3 284 285 164 
3 165 284 164 
3 283 284 165 
3 282 283 165 
3 281 282 165 
3 166 281 165 
3 280 281 166 
3 279 280 166 
3 167 279 166 
3 167 278 279 
3 167 277 278 
3 167 276 277 
3 168 276 167 
3 168 275 276 
3 168 274 275 
3 168 273 274 
3 169 273 168 
3 169 272 273 
3 169 271 272 
3 170 271 169 
3 170 270 271 
3 170 269 270 
3 171 269 170 
3 171 268 269 
3 171 267 268 
3 172 267 171 
3 172 266 267 
3 173 266 172 
3 173 265 266 
3 174 265 173 
3 174 264 265 
3 175 264 174 
3 175 263 264 
3 176 263 175 
3 176 262 263 
3 176 261 262 
3 177 261 176 
3 177 260 261 
3 178 260 177 
3 178 259 260 
3 178 258 259 
3 178 257 258 
3 179 257 178 
3 179 256 257 
3 179 255 256 
3 180 255 179 
3 181 255 180 
3 182 255 181 
3 183 255 182 
3 184 255 183 
3 185 255 184 
3 186 255 185 
3 187 255 186 
3 254 255 187 
3 188 254 187 
3 188 253 254 
3 188 252 253 
3 188 251 252 
3 189 251 188 
3 189 250 251 
3 189 249 250 
3 190 249 189 
3 190 248 249 
3 191 248 190 
3 191 247 248 
3 191 246 247 
3 192 246 191 
3 192 245 246 
3 193 245 192 
3 193 244 245 
3 194 244 193 
3 194 243 244 
3 195 243 194 
3 195 242 243 
3 195 241 242 
3 196 241 195 
3 196 240 241 
3 196 239 240 
3 197 239 196 
3 220 218 219 
3 197 238 239 
3 221 218 220 
3 197 237 238 
3 222 218 221 
3 198 237 197 
3 198 236 237 
3 223 218 222 
3 224 218 223 
3 198 235 236 
3 225 218 224 
3 198 234 235 
3 226 218 225 
3 227 218 226 
3 198 233 234 
3 199 233 198 
3 228 218 227 
3 199 232 233 
3 229 218 228 
3 230 218 229 
3 199 231 232 
3 231 218 230 
3 199 218 231 
3 200 218 199 
3 201 218 200 
3 202 218 201 
3 202 217 218 
3 202 216 217 
3 202 215 216 
3 203 215 202 
3 203 214 215 
3 203 213 214 
3 204 213 203 
3 204 212 213 
3 204 211 212 
3 204 210 211 
3 205 210 204 
3 205 209 210 
3 205 208 209 
3 206 208 205 
3 206 207 208 
3 295 297 296 
3 295 296 294 
3 297 299 298 
3 297 298 296 
3 299 301 300 
3 299 300 298 
3 301 303 302 
3 301 302 300 
3 303 305 304 
3 303 304 302 
3 305 307 306 
3 305 306 304 
3 307 309 308 
3 307 308 306 
3 309 311 310 
3 309 310 308 
3 311 313 312 
3 311 312 310 
3 313 315 314 
3 313 314 312 
3 315 317 316 
3 315 316 314 
3 317 319 318 
3 317 318 316 
3 319 321 320 
3 319 320 318 
3 321 323 322 
3 321 322 320 
3 323 325 324 
3 323 324 322 
3 325 327 326 
3 325 326 324 
3 327 329 328 
3 327 328 326 
3 329 331 330 
3 329 330 328 
3 331 333 332 
3 331 332 330 
3 333 335 334 
3 333 334 332 
3 335 337 336 
3 335 336 334 
3 337 339 338 
3 337 338 336 
3 339 341 340 
3 339 340 338 
3 341 343 342 
3 341 342 340 
3 343 345 344 
3 343 344 342 
3 345 347 346 
3 345 346 344 
3 347 349 348 
3 347 348 346 
3 349 351 350 
3 349 350 348 
3 351 353 352 
3 351 352 350 
3 353 355 354 
3 353 354 352 
3 355 357 356 
3 355 356 354 
3 357 359 358 
3 357 358 356 
3 359 361 360 
3 359 360 358 
3 361 363 362 
3 361 362 360 
3 363 365 364 
3 363 364 362 
3 365 367 366 
3 365 366 364 
3 367 369 368 
3 367 368 366 
3 369 371 370 
3 369 370 368 
3 371 373 372 
3 371 372 370 
3 373 375 374 
3 373 374 372 
3 375 377 376 
3 375 376 374 
3 377 379 378 
3 377 378 376 
3 379 381 380 
3 379 380 378 
3 381 383 382 
3 381 382 380 
3 383 385 384 
3 383 384 382 
3 385 387 386 
3 385 386 384 
3 387 389 388 
3 387 388 386 
3 389 391 390 
3 389 390 388 
3 391 393 392 
3 391 392 390 
3 393 395 394 
3 393 394 392 
3 395 397 396 
3 395 396 394 
3 397 399 398 
3 397 398 396 
3 399 401 400 
3 399 400 398 
3 401 403 402 
3 401 402 400 
3 403 405 404 
3 403 404 402 
3 405 407 406 
3 405 406 404 
3 407 409 408 
3 407 408 406 
3 409 411 410 
3 409 410 408 
3 411 413 412 
3 411 412 410 
3 413 415 414 
3 413 414 412 
3 415 417 416 
3 415 416 414 
3 417 419 418 
3 417 418 416 
3 419 421 420 
3 419 420 418 
3 421 423 422 
3 421 422 420 
3 423 425 424 
3 423 424 422 
3 425 427 426 
3 425 426 424 
3 427 429 428 
3 427 428 426 
3 429 431 430 
3 429 430 428 
3 431 433 432 
3 431 432 430 
3 433 435 434 
3 433 434 432 
3 435 437 436 
3 435 436 434 
3 437 439 438 
3 437 438 436 
3 439 441 440 
3 439 440 438 
3 441 443 442 
3 441 442 440 
3 443 445 444 
3 443 444 442 
3 445 447 446 
3 445 446 444 
3 447 449 448 
3 447 448 446 
3 449 451 450 
3 449 450 448 
3 451 453 452 
3 451 452 450 
3 453 455 454 
3 453 454 452 
3 455 457 456 
3 455 456 454 
3 457 459 458 
3 457 458 456 
3 459 461 460 
3 459 460 458 
3 461 463 462 
3 461 462 460 
3 463 465 464 
3 463 464 462 
3 465 467 466 
3 465 466 464 
3 467 469 468 
3 467 468 466 
3 469 471 470 
3 469 470 468 
3 471 473 472 
3 471 472 470 
3 473 475 474 
3 473 474 472 
3 475 477 476 
3 475 476 474 
3 477 479 478 
3 477 478 476 
3 479 481 480 
3 479 480 478 
3 481 483 482 
3 481 482 480 
3 483 485 484 
3 483 484 482 
3 485 487 486 
3 485 486 484 
3 487 489 488 
3 487 488 486 
3 489 491 490 
3 489 490 488 
3 491 493 492 
3 491 492 490 
3 493 495 494 
3 493 494 492 
3 495 497 496 
3 495 496 494 
3 497 499 498 
3 497 498 496 
3 499 501 500 
3 499 500 498 
3 501 503 502 
3 501 502 500 
3 503 505 504 
3 503 504 502 
3 505 507 506 
3 505 506 504 
3 507 509 508 
3 507 508 506 
3 509 511 510 
3 509 510 508 
3 511 513 512 
3 511 512 510 
3 513 515 514 
3 513 514 512 
3 515 517 516 
3 515 516 514 
3 517 519 518 
3 517 518 516 
3 519 521 520 
3 519 520 518 
3 521 523 522 
3 521 522 520 
3 523 525 524 
3 523 524 522 
3 525 527 526 
3 525 526 524 
3 527 529 528 
3 527 528 526 
3 529 531 530 
3 529 530 528 
3 531 533 532 
3 531 532 530 
3 533 535 534 
3 533 534 532 
3 535 537 536 
3 535 536 534 
3 537 539 538 
3 537 538 536 
3 539 541 540 
3 539 540 538 
3 541 543 542 
3 541 542 540 
3 543 545 544 
3 543 544 542 
3 545 547 546 
3 545 546 544 
3 547 549 548 
3 547 548 546 
3 549 551 550 
3 549 550 548 
3 551 553 552 
3 551 552 550 
3 553 555 554 
3 553 554 552 
3 555 557 556 
3 555 556 554 
3 557 559 558 
3 557 558 556 
3 559 561 560 
3 559 560 558 
3 561 563 562 
3 561 562 560 
3 563 565 564 
3 563 564 562 
3 565 567 566 
3 565 566 564 
3 567 569 568 
3 567 568 566 
3 569 571 570 
3 569 570 568 
3 571 573 572 
3 571 572 570 
3 573 575 574 
3 573 574 572 
3 575 577 576 
3 575 576 574 
3 577 579 578 
3 577 578 576 
3 579 581 580 
3 579 580 578 
3 581 583 582 
3 581 582 580 
3 583 585 584 
3 583 584 582 
3 585 587 586 
3 585 586 584 
3 587 295 294 
3 587 294 586 
