ply
format ascii 1.0
comment VCGLIB generated
element vertex 16
property float x
property float y
property float z
property float nx
property float ny
property float nz
element face 12
property list uchar int vertex_indices
end_header
0.172 0.507 0.1 3.98386e-009 -9.95964e-010 0.022785 
0.06 0.654 0.1 2.57022e-009 -6.42557e-010 0.0147 
0.16 0.654 0.1 3.98386e-009 -9.95964e-010 0.022785 
0.227 0.507 0.1 1.41363e-009 -3.53406e-010 0.008085 
0.172 0.507 -0.1 -3.98386e-009 9.95964e-010 -0.022785 
0.06 0.654 -0.1 -2.57022e-009 6.42557e-010 -0.0147 
0.16 0.654 -0.1 -3.98386e-009 9.95964e-010 -0.022785 
0.227 0.507 -0.1 -1.41363e-009 3.53406e-010 -0.008085 
0.172 0.507 -0.1 -0.795431 -2.60604 2.51639e-008 
0.172 0.507 0.1 -1.59086 -2.21209 1.81462e-007 
0.06 0.654 -0.1 -1.59086 -0.212087 2.68884e-007 
0.06 0.654 0.1 -0.795431 1.39396 2.0001e-007 
0.16 0.654 -0.1 0.909942 2.41474 -5.35479e-008 
0.16 0.654 0.1 1.81988 1.82947 -2.3823e-007 
0.227 0.507 -0.1 1.81988 -0.170529 -3.25652e-007 
0.227 0.507 0.1 0.909942 -1.58526 -2.28394e-007 
3 0 2 1 
3 0 3 2 
3 6 4 5 
3 7 4 6 
3 9 11 10 
3 9 10 8 
3 11 13 12 
3 11 12 10 
3 13 15 14 
3 13 14 12 
3 15 9 8 
3 15 8 14 
