ply
format ascii 1.0
comment VCGLIB generated
element vertex 32
property float x
property float y
property float z
property float nx
property float ny
property float nz
element face 28
property list uchar int vertex_indices
end_header
0.151 -0.141 0.1 1.76468e-008 -4.4117e-009 0.100928 
0.151 0.602 0.1 2.95448e-008 -7.38618e-009 0.168976 
0.014 0.602 0.1 5.17542e-009 -1.29386e-009 0.0296 
0.014 0.682 0.1 3.25912e-009 -8.1478e-010 0.01864 
0.247 0.682 0.1 2.03324e-008 -5.08311e-009 0.116288 
0.247 -0.221 0.1 3.08876e-008 -7.72188e-009 0.176656 
0.014 -0.221 0.1 5.17542e-009 -1.29386e-009 0.0296 
0.014 -0.141 0.1 1.91631e-009 -4.79077e-010 0.01096 
0.151 -0.141 -0.1 -1.76468e-008 4.4117e-009 -0.100928 
0.151 0.602 -0.1 -2.95448e-008 7.38618e-009 -0.168976 
0.014 0.602 -0.1 -5.17542e-009 1.29386e-009 -0.0296 
0.014 0.682 -0.1 -3.25912e-009 8.1478e-010 -0.01864 
0.247 0.682 -0.1 -2.03324e-008 5.08311e-009 -0.116288 
0.247 -0.221 -0.1 -3.08876e-008 7.72188e-009 -0.176656 
0.014 -0.221 -0.1 -5.17542e-009 1.29386e-009 -0.0296 
0.014 -0.141 -0.1 -1.91631e-009 4.79077e-010 -0.01096 
0.151 -0.141 -0.1 -1 2 2.62269e-007 
0.151 -0.141 0.1 -2 1 3.93403e-007 
0.151 0.602 -0.1 -2 -1 3.0598e-007 
0.151 0.602 0.1 -1 -2 8.74228e-008 
0.014 0.602 -0.1 -1 -2 8.74228e-008 
0.014 0.602 0.1 -2 -1 3.0598e-007 
0.014 0.682 -0.1 -2 1 3.93403e-007 
0.014 0.682 0.1 -1 2 2.62269e-007 
0.247 0.682 -0.1 1 2 -8.74228e-008 
0.247 0.682 0.1 2 1 -3.0598e-007 
0.247 -0.221 -0.1 2 -1 -3.93403e-007 
0.247 -0.221 0.1 1 -2 -2.62269e-007 
0.014 -0.221 -0.1 -1 -2 8.74228e-008 
0.014 -0.221 0.1 -2 -1 3.0598e-007 
0.014 -0.141 -0.1 -2 1 3.93403e-007 
0.014 -0.141 0.1 -1 2 2.62269e-007 
3 2 4 3 
3 2 1 4 
3 1 5 4 
3 0 5 1 
3 6 0 7 
3 6 5 0 
3 12 10 11 
3 9 10 12 
3 13 9 12 
3 13 8 9 
3 8 14 15 
3 13 14 8 
3 17 19 18 
3 17 18 16 
3 19 21 20 
3 19 20 18 
3 21 23 22 
3 21 22 20 
3 23 25 24 
3 23 24 22 
3 25 27 26 
3 25 26 24 
3 27 29 28 
3 27 28 26 
3 29 31 30 
3 29 30 28 
3 31 17 16 
3 31 16 30 
