ply
format ascii 1.0
comment Created by Blender 2.71 (sub 0) - www.blender.org, source file: 'Room2.blend'
element vertex 240
property float x
property float y
property float z
property float nx
property float ny
property float nz
element face 200
property list uchar uint vertex_indices
end_header
2.000000 -0.588689 0.208835 1.000000 0.000000 0.000000
2.000000 0.045070 0.208835 1.000000 0.000000 0.000000
2.000000 -0.811358 1.978765 1.000000 0.000000 0.000000
2.000000 0.811358 -2.021235 1.000000 -0.000000 0.000000
2.000000 0.811358 1.978765 1.000000 -0.000000 0.000000
2.000000 0.478975 0.038348 1.000000 -0.000000 0.000000
2.000000 0.811358 -2.021235 0.000000 0.000000 -1.000000
0.215601 0.459032 -2.021235 0.000000 0.000000 -1.000000
0.151886 0.459032 -2.021235 0.000000 0.000000 -1.000000
-2.000000 -0.811358 -2.021235 -0.000000 0.000000 -1.000000
-0.203900 -0.446474 -2.021235 -0.000000 0.000000 -1.000000
-0.203900 -0.608632 -2.021235 -0.000000 0.000000 -1.000000
-2.000000 0.811358 -2.021235 0.000000 1.000000 0.000000
-2.000000 0.811358 1.978765 0.000000 1.000000 0.000000
2.000000 0.811358 1.978765 0.000000 1.000000 0.000000
-2.000000 -0.811358 1.978765 0.000000 0.000000 1.000000
-0.203897 -0.608632 1.978765 0.000000 0.000000 1.000000
-0.203897 0.059592 1.978765 0.000000 0.000000 1.000000
2.000000 0.811358 1.978765 0.000000 0.000000 1.000000
0.215603 0.459032 1.978765 0.000000 0.000000 1.000000
0.215603 -0.209192 1.978765 0.000000 0.000000 1.000000
2.000000 -0.811358 -2.021235 0.000000 -1.000000 0.000000
2.000000 -0.811358 1.978765 0.000000 -1.000000 0.000000
-2.000000 -0.811358 1.978765 0.000000 -1.000000 0.000000
-2.000000 0.811358 -2.021235 -1.000000 0.000000 0.000000
-2.000000 0.478975 -0.210666 -1.000000 0.000000 0.000000
-2.000000 0.478975 -0.144356 -1.000000 0.000000 0.000000
-2.000000 -0.811358 1.978765 -1.000000 0.000000 0.000000
-2.000000 -0.588689 0.208835 -1.000000 0.000000 0.000000
-2.000000 -0.588689 0.142525 -1.000000 0.000000 0.000000
-1.700000 -0.700000 -1.673423 0.000000 1.000000 0.000000
-1.700000 -0.700000 1.726577 0.000000 1.000000 0.000000
1.700000 -0.700000 -1.673423 0.000000 1.000000 0.000000
-1.700000 -0.700000 1.726577 1.000000 0.000000 -0.000000
-1.700000 -0.700000 -1.673423 1.000000 0.000000 -0.000000
-1.700000 -0.588689 0.120792 1.000000 0.000000 -0.000000
1.700000 -0.700000 -1.673423 -0.000000 0.000000 1.000000
-0.114988 -0.608632 -1.673423 -0.000000 0.000000 1.000000
-1.700000 -0.700000 -1.673423 -0.000000 0.000000 1.000000
1.700000 -0.700000 1.726577 0.000000 1.000000 0.000000
-1.700000 -0.588689 0.208835 1.000000 0.000000 0.000000
-1.700000 -0.588689 -0.210666 1.000000 0.000000 -0.000000
0.215601 -0.608632 -1.673423 0.000000 0.000000 1.000000
-0.203899 -0.608632 -1.673423 -0.000000 0.000000 1.000000
1.700000 -0.588689 -0.125516 -1.000000 0.000000 0.000000
1.700000 -0.700000 -1.673423 -1.000000 0.000000 0.000000
1.700000 -0.700000 1.726577 -1.000000 0.000000 0.000000
-1.700000 -0.700000 1.726577 -0.000000 0.000000 -1.000000
0.131322 -0.608632 1.726577 -0.000000 0.000000 -1.000000
1.700000 -0.700000 1.726577 -0.000000 0.000000 -1.000000
-1.700000 -0.364613 0.208835 1.000000 0.000000 0.000000
-2.000000 -0.588689 0.142525 0.000000 1.000000 0.000000
-2.000000 -0.588689 0.208835 0.000000 1.000000 0.000000
-1.700000 -0.588689 0.208835 0.000000 1.000000 0.000000
-2.000000 -0.588689 0.038973 0.000000 1.000000 -0.000000
-1.700000 -0.588689 0.120792 0.000000 1.000000 -0.000000
-1.700000 -0.588689 -0.210666 0.000000 1.000000 -0.000000
-1.700000 0.254899 -0.210666 1.000000 0.000000 -0.000000
-0.021302 -0.608632 -2.021235 0.000000 1.000000 0.000000
-0.114988 -0.608632 -1.673423 0.000000 1.000000 0.000000
0.215601 -0.608632 -1.673423 0.000000 1.000000 0.000000
0.215601 0.232746 -1.673423 0.000000 0.000000 1.000000
-0.203899 -0.382346 -1.673423 -0.000000 0.000000 1.000000
-0.140185 -0.608632 -2.021235 -0.000000 1.000000 0.000000
-0.203900 -0.608632 -2.021235 -0.000000 1.000000 0.000000
-0.203899 -0.608632 -1.673423 -0.000000 1.000000 0.000000
1.700000 -0.588689 -0.210666 -1.000000 0.000000 -0.000000
1.700000 -0.588689 0.208835 -1.000000 0.000000 0.000000
-0.203897 -0.608632 1.726577 -0.000000 0.000000 -1.000000
0.215603 -0.608632 1.726577 -0.000000 -0.000000 -1.000000
-2.000000 -0.419926 0.208835 -0.000000 0.000000 -1.000000
-1.700000 -0.364613 0.208835 -0.000000 0.000000 -1.000000
-1.700000 -0.588689 0.208835 -0.000000 0.000000 -1.000000
-1.700000 0.700000 1.726577 1.000000 -0.000000 0.000000
-2.000000 0.046662 -0.210666 0.000000 -0.000000 1.000000
-2.000000 -0.588689 -0.210666 0.000000 -0.000000 1.000000
-1.700000 -0.588689 -0.210666 0.000000 -0.000000 1.000000
-1.700000 0.700000 -1.673423 1.000000 0.000000 -0.000000
0.215601 -0.005695 -2.021235 -1.000000 0.000000 0.000001
0.215601 -0.608632 -2.021235 -1.000000 0.000000 0.000001
0.215601 -0.608632 -1.673423 -1.000000 0.000000 0.000001
1.700000 0.700000 -1.673423 0.000000 0.000000 1.000000
-0.203900 -0.446474 -2.021235 1.000000 0.000000 -0.000001
-0.203899 -0.382346 -1.673423 1.000000 0.000000 -0.000001
-0.203899 -0.608632 -1.673423 1.000000 0.000000 -0.000001
-1.700000 0.700000 -1.673423 -0.000000 0.000000 1.000000
1.700000 -0.371976 -0.210666 -1.000000 0.000000 -0.000000
2.000000 -0.588689 -0.147249 0.000000 1.000000 0.000000
2.000000 -0.588689 -0.210666 0.000000 1.000000 0.000000
1.700000 -0.588689 -0.210666 0.000000 1.000000 0.000000
2.000000 -0.588689 -0.040178 -0.000000 1.000000 0.000000
1.700000 -0.588689 -0.125516 -0.000000 1.000000 0.000000
1.700000 -0.588689 0.208835 -0.000000 1.000000 0.000000
1.700000 0.262262 0.208835 -1.000000 0.000000 0.000000
-0.203897 0.244529 1.726577 -0.000000 0.000000 -1.000000
0.058658 -0.608632 1.978765 0.000000 1.000000 -0.000000
0.131322 -0.608632 1.726577 0.000000 1.000000 -0.000000
-0.203897 -0.608632 1.726577 0.000000 1.000000 -0.000000
0.215603 -0.394129 1.726577 0.000000 0.000000 -1.000000
0.149591 -0.608632 1.978765 0.000000 1.000000 -0.000000
0.215603 -0.608632 1.978765 0.000000 1.000000 -0.000000
0.215603 -0.608632 1.726577 0.000000 1.000000 -0.000000
-2.000000 -0.156376 0.208835 -0.000000 -0.000000 -1.000000
-1.700000 0.478975 0.208835 1.000000 -0.000000 0.000000
-1.700000 0.700000 1.726577 0.000000 0.000000 -1.000000
-2.000000 0.310211 -0.210666 0.000000 -0.000000 1.000000
-1.700000 0.254899 -0.210666 0.000000 -0.000000 1.000000
-1.700000 0.478975 -0.210666 1.000000 0.000000 -0.000000
0.215601 0.296873 -2.021235 -1.000000 0.000000 0.000001
0.215601 0.232746 -1.673423 -1.000000 0.000000 0.000001
0.215601 0.459032 -1.673423 0.000000 -0.000000 1.000000
1.700000 0.700000 -1.673423 -1.000000 0.000000 -0.000000
-0.203900 -0.143906 -2.021235 1.000000 0.000000 -0.000001
-0.203899 0.459032 -1.673423 -0.000000 -0.000000 1.000000
2.000000 -0.427289 -0.210666 -0.000000 0.000000 1.000000
1.700000 -0.371976 -0.210666 -0.000000 0.000000 1.000000
1.700000 -0.588689 -0.210666 -0.000000 0.000000 1.000000
2.000000 0.045070 0.208835 0.000000 0.000000 -1.000000
2.000000 -0.588689 0.208835 0.000000 0.000000 -1.000000
1.700000 -0.588689 0.208835 0.000000 0.000000 -1.000000
1.700000 0.700000 1.726577 -1.000000 0.000000 0.000000
-0.203897 0.059592 1.978765 1.000000 0.000000 -0.000001
-0.203897 -0.608632 1.978765 1.000000 0.000000 -0.000001
-0.203897 -0.608632 1.726577 1.000000 0.000000 -0.000001
1.700000 0.700000 1.726577 0.000000 0.000000 -1.000000
0.215603 -0.440626 1.978765 -1.000000 0.000000 0.000001
0.215603 -0.394129 1.726577 -1.000000 0.000000 0.000001
0.215603 -0.608632 1.726577 -1.000000 0.000000 0.000001
-2.000000 0.478975 0.208835 -0.000000 -0.000000 -1.000000
-1.700000 0.478975 0.208835 -0.000000 -0.000000 -1.000000
-1.700000 0.478975 -0.122623 1.000000 -0.000000 0.000000
-0.203897 0.459032 1.726577 -0.000000 -0.000000 -1.000000
-1.700000 0.478975 -0.210666 0.000000 0.000000 1.000000
0.215601 0.459032 -1.673423 -1.000000 0.000000 0.000001
0.126690 0.459032 -1.673423 0.000000 -0.000000 1.000000
1.700000 0.478975 -0.210666 -1.000000 -0.000000 -0.000000
-0.203900 0.459032 -2.021235 1.000000 0.000000 -0.000001
-0.203899 0.459032 -1.673423 1.000000 0.000000 -0.000001
2.000000 -0.154785 -0.210666 -0.000000 0.000000 1.000000
2.000000 0.317574 0.208835 0.000000 0.000000 -1.000000
1.700000 0.262262 0.208835 0.000000 0.000000 -1.000000
1.700000 0.478975 0.208835 -1.000000 -0.000000 0.000000
-0.203897 0.291026 1.978765 1.000000 0.000000 -0.000001
-0.203897 0.244529 1.726577 1.000000 0.000000 -0.000001
0.215603 0.459032 1.726577 0.000000 0.000000 -1.000000
0.215603 -0.209192 1.978765 -1.000000 0.000000 0.000001
-2.000000 0.478975 -0.040803 -0.000000 -1.000000 -0.000000
-1.700000 0.478975 -0.122623 -0.000000 -1.000000 -0.000000
-1.700000 0.478975 0.208835 -0.000000 -1.000000 -0.000000
-0.203897 0.459032 1.726577 1.000000 0.000000 -0.000001
-0.119616 0.459032 1.726577 -0.000000 -0.000000 -1.000000
-2.000000 0.478975 -0.144356 0.000000 -1.000000 0.000000
-2.000000 0.478975 -0.210666 0.000000 -1.000000 0.000000
-1.700000 0.478975 -0.210666 0.000000 -1.000000 0.000000
0.151886 0.459032 -2.021235 -0.000000 -1.000000 0.000000
0.215601 0.459032 -2.021235 -0.000000 -1.000000 0.000000
0.215601 0.459032 -1.673423 -0.000000 -1.000000 0.000000
1.700000 0.478975 0.123685 -1.000000 -0.000000 -0.000000
2.000000 0.478975 -0.210666 -0.000000 0.000000 1.000000
1.700000 0.478975 -0.210666 -0.000000 0.000000 1.000000
0.033003 0.459032 -2.021235 0.000000 -1.000000 -0.000000
0.126690 0.459032 -1.673423 0.000000 -1.000000 -0.000000
-0.203899 0.459032 -1.673423 0.000000 -1.000000 -0.000000
1.700000 0.478975 0.208835 0.000000 0.000000 -1.000000
0.215603 0.459032 1.978765 -1.000000 0.000000 0.000001
0.215603 0.459032 1.726577 -1.000000 0.000000 0.000001
-1.700000 0.700000 -1.673423 0.000000 -1.000000 -0.000000
1.700000 0.700000 1.726577 0.000000 -1.000000 -0.000000
-1.700000 0.700000 1.726577 0.000000 -1.000000 -0.000000
-0.137885 0.459032 1.978765 0.000000 -1.000000 0.000000
-0.203897 0.459032 1.978765 0.000000 -1.000000 0.000000
-0.203897 0.459032 1.726577 0.000000 -1.000000 0.000000
1.700000 0.700000 -1.673423 0.000000 -1.000000 0.000000
2.000000 0.478975 0.038348 0.000000 -1.000000 0.000000
1.700000 0.478975 0.123685 0.000000 -1.000000 0.000000
1.700000 0.478975 -0.210666 0.000000 -1.000000 0.000000
2.000000 0.478975 0.145418 0.000000 -1.000000 0.000000
2.000000 0.478975 0.208835 0.000000 -1.000000 0.000000
1.700000 0.478975 0.208835 0.000000 -1.000000 0.000000
-0.046951 0.459032 1.978765 0.000000 -1.000000 0.000000
-0.119616 0.459032 1.726577 0.000000 -1.000000 0.000000
0.215603 0.459032 1.726577 0.000000 -1.000000 0.000000
2.000000 -0.588689 -0.210666 1.000000 -0.000000 0.000000
2.000000 -0.588689 -0.147249 1.000000 -0.000000 0.000000
2.000000 -0.811358 -2.021235 1.000000 -0.000000 0.000000
2.000000 -0.588689 -0.040178 1.000000 -0.000000 -0.000000
2.000000 0.317574 0.208835 1.000000 -0.000000 0.000000
2.000000 0.478975 0.208835 1.000000 0.000000 0.000000
2.000000 -0.154785 -0.210666 1.000000 -0.000000 0.000000
2.000000 0.478975 0.145418 1.000000 0.000000 -0.000000
2.000000 0.478975 -0.210666 1.000000 0.000000 0.000000
2.000000 -0.427289 -0.210666 1.000000 0.000000 -0.000000
0.215601 -0.608632 -2.021235 -0.000000 -0.000000 -1.000000
0.215601 -0.005695 -2.021235 -0.000000 -0.000000 -1.000000
2.000000 -0.811358 -2.021235 -0.000000 -0.000000 -1.000000
0.215601 0.296873 -2.021235 -0.000000 0.000000 -1.000000
0.033003 0.459032 -2.021235 -0.000000 0.000000 -1.000000
-0.203900 0.459032 -2.021235 0.000000 0.000000 -1.000000
-2.000000 0.811358 -2.021235 0.000000 0.000000 -1.000000
-0.021302 -0.608632 -2.021235 -0.000000 0.000000 -1.000000
-0.203900 -0.143906 -2.021235 0.000000 0.000000 -1.000000
-0.140185 -0.608632 -2.021235 0.000000 -0.000000 -1.000000
2.000000 0.811358 -2.021235 -0.000000 1.000000 0.000000
0.215603 -0.608632 1.978765 0.000000 -0.000000 1.000000
0.149591 -0.608632 1.978765 0.000000 -0.000000 1.000000
2.000000 -0.811358 1.978765 0.000000 -0.000000 1.000000
0.058658 -0.608632 1.978765 0.000000 -0.000000 1.000000
-0.203897 0.291026 1.978765 0.000000 0.000000 1.000000
-0.203897 0.459032 1.978765 0.000000 0.000000 1.000000
-2.000000 0.811358 1.978765 0.000000 0.000000 1.000000
-0.046951 0.459032 1.978765 0.000000 -0.000000 1.000000
-0.137885 0.459032 1.978765 0.000000 0.000000 1.000000
0.215603 -0.440626 1.978765 0.000000 0.000000 1.000000
-2.000000 -0.811358 -2.021235 -0.000000 -1.000000 -0.000000
-2.000000 -0.588689 -0.210666 -1.000000 0.000000 0.000000
-2.000000 0.046662 -0.210666 -1.000000 0.000000 0.000000
-2.000000 -0.811358 -2.021235 -1.000000 0.000000 0.000000
-2.000000 0.310211 -0.210666 -1.000000 0.000000 0.000000
-2.000000 0.478975 -0.040803 -1.000000 0.000000 0.000000
-2.000000 0.478975 0.208835 -1.000000 0.000000 -0.000000
-2.000000 0.811358 1.978765 -1.000000 0.000000 -0.000000
-2.000000 -0.156376 0.208835 -1.000000 0.000000 -0.000000
-2.000000 -0.419926 0.208835 -1.000000 -0.000000 -0.000000
-2.000000 -0.588689 0.038973 -1.000000 -0.000000 -0.000000
-2.000000 -0.588689 -0.210666 0.000000 1.000000 0.000000
0.215601 -0.608632 -2.021235 -0.000000 1.000000 0.000000
-2.000000 -0.588689 0.208835 -0.000000 -0.000000 -1.000000
-0.203900 -0.608632 -2.021235 1.000000 0.000000 -0.000001
2.000000 -0.588689 0.208835 -0.000000 1.000000 0.000000
-0.203897 -0.608632 1.978765 0.000000 1.000000 -0.000000
2.000000 -0.588689 -0.210666 -0.000000 0.000000 1.000000
0.215603 -0.608632 1.978765 -1.000000 0.000000 0.000001
-2.000000 0.478975 -0.210666 0.000000 -0.000000 1.000000
0.215601 0.459032 -2.021235 -1.000000 0.000000 0.000001
-2.000000 0.478975 0.208835 -0.000000 -1.000000 0.000000
-0.203897 0.459032 1.978765 1.000000 0.000000 -0.000001
-0.203900 0.459032 -2.021235 -0.000000 -1.000000 -0.000000
2.000000 0.478975 0.208835 0.000000 0.000000 -1.000000
2.000000 0.478975 -0.210666 0.000000 -1.000000 0.000000
0.215603 0.459032 1.978765 0.000000 -1.000000 0.000000
3 0 1 2
3 3 4 5
3 6 7 8
3 9 10 11
3 12 13 14
3 15 16 17
3 18 19 20
3 21 22 23
3 24 25 26
3 27 28 29
3 30 31 32
3 33 34 35
3 36 37 38
3 32 31 39
3 33 35 40
3 35 34 41
3 37 36 42
3 38 37 43
3 44 45 46
3 47 48 49
3 40 50 33
3 51 52 53
3 54 55 56
3 41 34 57
3 58 59 60
3 42 36 61
3 43 62 38
3 63 64 65
3 66 45 44
3 67 44 46
3 47 68 48
3 49 48 69
3 70 71 72
3 50 73 33
3 54 51 55
3 74 75 76
3 57 34 77
3 78 79 80
3 58 63 59
3 61 36 81
3 82 83 84
3 62 85 38
3 86 45 66
3 87 88 89
3 90 91 92
3 46 93 67
3 47 94 68
3 95 96 97
3 98 49 69
3 99 100 101
3 70 102 71
3 103 73 50
3 104 94 47
3 105 74 106
3 107 57 77
3 108 78 109
3 110 61 81
3 111 45 86
3 82 112 83
3 113 85 62
3 114 115 116
3 90 87 91
3 117 118 119
3 120 93 46
3 121 122 123
3 95 99 96
3 124 49 98
3 125 126 127
3 102 128 129
3 130 73 103
3 94 104 131
3 105 106 132
3 77 130 107
3 108 109 133
3 81 134 110
3 111 86 135
3 112 136 137
3 134 85 113
3 114 138 115
3 139 117 140
3 93 120 141
3 142 121 143
3 124 98 144
3 125 145 126
3 146 147 148
3 77 73 130
3 142 143 149
3 131 104 150
3 151 152 153
3 154 155 156
3 81 85 134
3 135 157 111
3 138 158 159
3 160 161 162
3 139 140 163
3 141 120 157
3 144 150 124
3 145 164 165
3 146 151 147
3 166 167 168
3 169 170 171
3 150 104 124
3 160 154 161
3 172 167 166
3 173 174 175
3 157 120 111
3 176 177 178
3 179 180 181
3 179 169 180
3 173 176 174
3 182 183 184
3 0 2 185
3 186 4 1
3 186 187 4
3 184 183 185
3 1 4 2
3 3 188 184
3 2 184 185
3 187 189 4
3 190 3 5
3 182 184 191
3 4 189 5
3 184 188 191
3 192 193 194
3 3 190 188
3 7 6 195
3 196 6 8
3 196 197 198
3 6 193 195
3 198 6 196
3 9 199 194
3 193 6 194
3 197 200 198
3 199 9 201
3 9 11 201
3 199 192 194
3 202 12 14
3 9 200 10
3 200 9 198
3 203 204 205
3 16 15 206
3 204 206 205
3 207 208 209
3 18 209 210
3 15 17 209
3 206 15 205
3 17 207 209
3 208 211 209
3 19 18 210
3 205 18 20
3 209 211 210
3 212 205 20
3 213 21 23
3 212 203 205
3 214 215 216
3 217 24 215
3 218 24 26
3 218 219 220
3 215 24 216
3 220 24 218
3 24 217 25
3 219 221 220
3 222 27 221
3 223 27 29
3 223 214 216
3 221 27 220
3 216 27 223
3 27 222 28
3 55 51 53
3 224 54 56
3 225 58 60
3 59 63 65
3 226 70 72
3 106 74 76
3 109 78 80
3 227 82 84
3 91 87 89
3 228 90 92
3 229 95 97
3 96 99 101
3 230 114 116
3 140 117 119
3 143 121 123
3 231 125 127
3 71 102 129
3 232 105 132
3 233 108 133
3 83 112 137
3 234 146 148
3 235 142 149
3 147 151 153
3 161 154 156
3 115 138 159
3 236 160 162
3 237 139 163
3 126 145 165
3 180 169 171
3 238 173 175
3 174 176 178
3 239 179 181
