ply
format ascii 1.0
comment VCGLIB generated
element vertex 758
property float x
property float y
property float z
property float nx
property float ny
property float nz
element face 384
property list uchar int vertex_indices
end_header
0.710861 -0.0766089 0.185754 -0.357905 -1.07174 0.0872206 
0.65524 -0.049727 0.211273 -0.512349 -1.53422 0.124858 
0.620862 -0.049727 0.176006 -0.368823 -1.10443 0.0898815 
0.616231 0.022891 0.22917 -0.284813 -0.70312 0.558043 
0.65524 -0.049727 0.211273 -0.292099 -0.721107 0.572318 
0.710861 0.00875807 0.236793 -0.258461 -0.638068 0.506413 
0.710861 -0.0766089 0.185754 -0.298343 -1.44556 -0.307995 
0.620862 -0.049727 0.176006 -0.1678 -0.813041 -0.173229 
0.710861 -0.0497259 0.15421 -0.272188 -1.31882 -0.280993 
0.710861 -0.0766089 0.185754 0.298343 -1.44556 -0.307995 
0.710861 -0.0497259 0.15421 0.272188 -1.31882 -0.280993 
0.80086 -0.049727 0.176006 0.1678 -0.813041 -0.173229 
0.710861 -0.0766089 0.185754 0.357901 -1.07173 0.0872174 
0.80086 -0.049727 0.176006 0.368826 -1.10445 0.0898796 
0.766483 -0.049727 0.211273 0.512347 -1.53422 0.124854 
0.616231 0.022891 0.22917 -0.293616 -0.361915 0.743523 
0.710861 0.00875807 0.236793 -0.220186 -0.271405 0.557579 
0.65524 0.103391 0.242817 -0.231964 -0.285921 0.587404 
0.557744 0.022891 0.169171 -1.70824 -0.598163 0.0336064 
0.565239 0.00875807 0.201526 -1.22089 -0.427509 0.0240185 
0.530861 0.103391 0.185754 -0.80405 -0.281548 0.0158181 
0.710861 0.022892 0.132088 -0.32641 -0.342256 -0.691256 
0.620862 0.00875807 0.144462 -0.28711 -0.301048 -0.608025 
0.65524 0.103391 0.12869 -0.270693 -0.283835 -0.57326 
0.863978 0.022891 0.169171 1.11682 -0.492769 -0.642761 
0.80086 0.00875807 0.144462 0.730435 -0.322288 -0.420389 
0.856484 0.103391 0.150486 0.646338 -0.285182 -0.371989 
0.805491 0.022891 0.22917 1.04787 -0.445068 0.540102 
0.856483 0.00875807 0.201526 0.932565 -0.396094 0.48067 
0.856484 0.103391 0.221021 0.662414 -0.281352 0.341427 
0.616231 0.022891 0.22917 -0.605219 -0.130385 0.624769 
0.65524 0.103391 0.242817 -0.570976 -0.123008 0.589419 
0.565238 0.103391 0.221021 -0.541662 -0.116692 0.559157 
0.557744 0.022891 0.169171 -1.01303 -0.134885 -0.246869 
0.530861 0.103391 0.185754 -1.23339 -0.164226 -0.300569 
0.565238 0.103391 0.150486 -1.28642 -0.171285 -0.313489 
0.710861 0.022892 0.132088 -6.61795e-008 -0.127824 -0.757005 
0.65524 0.103391 0.12869 -5.31121e-008 -0.102585 -0.607531 
0.766483 0.103391 0.12869 -5.31116e-008 -0.102584 -0.607526 
0.863978 0.022891 0.169171 1.01303 -0.134885 -0.246869 
0.856484 0.103391 0.150486 1.28642 -0.171285 -0.313489 
0.890862 0.103391 0.185754 1.23339 -0.164226 -0.300569 
0.805491 0.022891 0.22917 0.605221 -0.130388 0.624763 
0.856484 0.103391 0.221021 0.541665 -0.116696 0.559156 
0.766483 0.103391 0.242817 0.570985 -0.123013 0.589423 
0.557744 0.183891 0.202337 -0.713496 0.751268 0.348228 
0.620862 0.198024 0.227045 -0.891075 0.938249 0.434897 
0.620862 0.256509 0.195501 -0.657607 0.692421 0.320951 
0.616231 0.183891 0.142337 -0.924591 1.04919 -0.560465 
0.565239 0.198024 0.169982 -0.618971 0.702382 -0.375205 
0.65524 0.256509 0.160234 -0.498391 0.565552 -0.302112 
0.805491 0.183891 0.142337 0.284815 0.703124 -0.558049 
0.710861 0.198024 0.134714 0.258459 0.638059 -0.50641 
0.766483 0.256509 0.160234 0.292098 0.721103 -0.572318 
0.863978 0.183891 0.202337 1.1253 0.994433 0.0434267 
0.856483 0.198024 0.169982 1.17002 1.03396 0.0451526 
0.80086 0.256509 0.195501 0.66572 0.588301 0.025691 
0.710861 0.18389 0.239419 0.248541 0.844568 0.693101 
0.80086 0.198024 0.227045 0.162235 0.551294 0.452423 
0.710861 0.256508 0.217297 0.188298 0.639858 0.525104 
0.710861 0.256508 0.217297 0.272188 1.31882 0.280993 
0.80086 0.256509 0.195501 0.167801 0.813041 0.173229 
0.710861 0.283391 0.185754 0.298344 1.44556 0.307995 
0.710861 0.256508 0.217297 0.332527 0.740579 0.343273 
0.80086 0.198024 0.227045 0.414682 0.923549 0.428083 
0.80086 0.256509 0.195501 0.490757 1.09298 0.506616 
0.80086 0.198024 0.227045 0.891075 0.938249 0.434897 
0.863978 0.183891 0.202337 0.713496 0.751268 0.348228 
0.80086 0.256509 0.195501 0.657607 0.692421 0.320951 
0.80086 0.256509 0.195501 0.368827 1.10445 -0.0898796 
0.766483 0.256509 0.160234 0.512348 1.53422 -0.124854 
0.710861 0.283391 0.185754 0.357901 1.07173 -0.0872174 
0.80086 0.256509 0.195501 0.956532 1.31657 -0.233098 
0.856483 0.198024 0.169982 0.552811 0.760886 -0.134715 
0.766483 0.256509 0.160234 0.727223 1.00095 -0.177217 
0.856483 0.198024 0.169982 0.618975 0.702378 -0.375207 
0.805491 0.183891 0.142337 0.924591 1.04917 -0.560463 
0.766483 0.256509 0.160234 0.498397 0.565552 -0.302115 
0.766483 0.256509 0.160234 -2.06242e-008 0.895827 -0.235913 
0.65524 0.256509 0.160234 -2.06244e-008 0.895835 -0.235915 
0.710861 0.283391 0.185754 -3.93786e-008 1.71044 -0.450439 
0.766483 0.256509 0.160234 -3.93798e-008 0.786202 -0.450453 
0.710861 0.198024 0.134714 -5.15981e-008 1.03014 -0.590213 
0.65524 0.256509 0.160234 -3.93801e-008 0.786208 -0.450456 
0.710861 0.198024 0.134714 -0.258461 0.638068 -0.506413 
0.616231 0.183891 0.142337 -0.284813 0.70312 -0.558043 
0.65524 0.256509 0.160234 -0.292099 0.721107 -0.572318 
0.65524 0.256509 0.160234 -0.512351 1.53422 -0.124859 
0.620862 0.256509 0.195501 -0.368823 1.10443 -0.0898815 
0.710861 0.283391 0.185754 -0.357905 1.07174 -0.0872206 
0.65524 0.256509 0.160234 -0.727211 1.00094 -0.17722 
0.565239 0.198024 0.169982 -0.552807 0.760888 -0.134718 
0.620862 0.256509 0.195501 -0.956531 1.31658 -0.233104 
0.565239 0.198024 0.169982 -1.17002 1.03396 0.0451526 
0.557744 0.183891 0.202337 -1.1253 0.994433 0.0434267 
0.620862 0.256509 0.195501 -0.66572 0.588301 0.025691 
0.620862 0.256509 0.195501 -0.167801 0.813041 0.173229 
0.710861 0.256508 0.217297 -0.272188 1.31882 0.280993 
0.710861 0.283391 0.185754 -0.298344 1.44556 0.307995 
0.620862 0.256509 0.195501 -0.490757 1.09298 0.506616 
0.620862 0.198024 0.227045 -0.414682 0.923549 0.428083 
0.710861 0.256508 0.217297 -0.332527 0.740579 0.343273 
0.620862 0.198024 0.227045 -0.162235 0.551294 0.452423 
0.710861 0.18389 0.239419 -0.248541 0.844568 0.693101 
0.710861 0.256508 0.217297 -0.188298 0.639858 0.525104 
0.766483 0.103391 0.242817 0.270693 0.283838 0.573259 
0.80086 0.198024 0.227045 0.287112 0.301053 0.60803 
0.710861 0.18389 0.239419 0.326408 0.342258 0.691249 
0.766483 0.103391 0.242817 0.61635 0.200266 0.636254 
0.856484 0.103391 0.221021 0.5689 0.184848 0.587269 
0.80086 0.198024 0.227045 0.523131 0.169977 0.540023 
0.856484 0.103391 0.221021 0.646338 0.285186 0.371988 
0.863978 0.183891 0.202337 1.11681 0.492774 0.642761 
0.80086 0.198024 0.227045 0.730438 0.322293 0.42039 
0.890862 0.103391 0.185754 0.80405 0.281548 -0.0158181 
0.856483 0.198024 0.169982 1.22088 0.427508 -0.0240185 
0.863978 0.183891 0.202337 1.70824 0.598163 -0.0336064 
0.890862 0.103391 0.185754 1.27805 0.256653 -0.311451 
0.856484 0.103391 0.150486 1.36119 0.27335 -0.331713 
0.856483 0.198024 0.169982 0.862221 0.173148 -0.210116 
0.856484 0.103391 0.150486 0.662415 0.281348 -0.341427 
0.805491 0.183891 0.142337 1.04787 0.445062 -0.5401 
0.856483 0.198024 0.169982 0.932568 0.39609 -0.480671 
0.766483 0.103391 0.12869 0.231964 0.285923 -0.587402 
0.710861 0.198024 0.134714 0.220185 0.271405 -0.557575 
0.805491 0.183891 0.142337 0.293618 0.36192 -0.74353 
0.766483 0.103391 0.12869 -5.69768e-008 0.165967 -0.651738 
0.65524 0.103391 0.12869 -5.69773e-008 0.165968 -0.651745 
0.710861 0.198024 0.134714 -5.76768e-008 0.168004 -0.659745 
0.65524 0.103391 0.12869 -0.231964 0.285921 -0.587404 
0.616231 0.183891 0.142337 -0.293616 0.361914 -0.743523 
0.710861 0.198024 0.134714 -0.220186 0.271405 -0.557579 
0.565238 0.103391 0.150486 -0.662415 0.281348 -0.341427 
0.565239 0.198024 0.169982 -0.932568 0.39609 -0.480671 
0.616231 0.183891 0.142337 -1.04787 0.445062 -0.5401 
0.565238 0.103391 0.150486 -1.36119 0.27335 -0.331713 
0.530861 0.103391 0.185754 -1.27805 0.256653 -0.311451 
0.565239 0.198024 0.169982 -0.862221 0.173148 -0.210116 
0.530861 0.103391 0.185754 -0.80405 0.281548 -0.0158181 
0.557744 0.183891 0.202337 -1.70824 0.598163 -0.0336063 
0.565239 0.198024 0.169982 -1.22088 0.427508 -0.0240185 
0.565238 0.103391 0.221021 -0.646338 0.285186 0.371988 
0.620862 0.198024 0.227045 -0.730438 0.322293 0.42039 
0.557744 0.183891 0.202337 -1.11681 0.492774 0.642761 
0.565238 0.103391 0.221021 -0.568895 0.184846 0.58727 
0.65524 0.103391 0.242817 -0.616341 0.200262 0.636248 
0.620862 0.198024 0.227045 -0.523131 0.169976 0.540028 
0.65524 0.103391 0.242817 -0.270693 0.283835 0.57326 
0.710861 0.18389 0.239419 -0.32641 0.342256 0.691256 
0.620862 0.198024 0.227045 -0.28711 0.301048 0.608025 
0.856484 0.103391 0.221021 1.2864 0.171286 0.313486 
0.890862 0.103391 0.185754 1.2334 0.164228 0.300567 
0.863978 0.183891 0.202337 1.01304 0.134887 0.246869 
0.856484 0.103391 0.221021 1.36119 -0.273351 0.33171 
0.856483 0.00875807 0.201526 0.862226 -0.17315 0.210116 
0.890862 0.103391 0.185754 1.27805 -0.256656 0.31145 
0.856483 0.00875807 0.201526 1.22088 -0.427508 0.0240185 
0.863978 0.022891 0.169171 1.70824 -0.598163 0.0336063 
0.890862 0.103391 0.185754 0.80405 -0.281548 0.0158181 
0.856484 0.103391 0.150486 0.541669 0.116693 -0.559154 
0.766483 0.103391 0.12869 0.57099 0.123009 -0.589421 
0.805491 0.183891 0.142337 0.605227 0.130385 -0.624763 
0.856484 0.103391 0.150486 0.568904 -0.184846 -0.587267 
0.80086 0.00875807 0.144462 0.523137 -0.169975 -0.540023 
0.766483 0.103391 0.12869 0.616355 -0.200263 -0.636248 
0.80086 0.00875807 0.144462 0.287111 -0.301053 -0.60803 
0.710861 0.022892 0.132088 0.326408 -0.342258 -0.691249 
0.766483 0.103391 0.12869 0.270693 -0.283838 -0.573259 
0.65524 0.103391 0.12869 -0.570981 0.123005 -0.589418 
0.565238 0.103391 0.150486 -0.541665 0.116689 -0.559155 
0.616231 0.183891 0.142337 -0.605227 0.130382 -0.62477 
0.65524 0.103391 0.12869 -0.616346 -0.200258 -0.636248 
0.620862 0.00875807 0.144462 -0.523136 -0.169973 -0.540028 
0.565238 0.103391 0.150486 -0.568898 -0.184843 -0.587268 
0.620862 0.00875807 0.144462 -0.730435 -0.322288 -0.420389 
0.557744 0.022891 0.169171 -1.11682 -0.492769 -0.642761 
0.565238 0.103391 0.150486 -0.646338 -0.285182 -0.371989 
0.530861 0.103391 0.185754 -1.2334 0.164228 0.300567 
0.565238 0.103391 0.221021 -1.2864 0.171286 0.313486 
0.557744 0.183891 0.202337 -1.01304 0.134887 0.246869 
0.530861 0.103391 0.185754 -1.27805 -0.256656 0.31145 
0.565239 0.00875807 0.201526 -0.862226 -0.17315 0.210116 
0.565238 0.103391 0.221021 -1.36119 -0.273351 0.33171 
0.565239 0.00875807 0.201526 -0.932565 -0.396094 0.48067 
0.616231 0.022891 0.22917 -1.04787 -0.445068 0.540102 
0.565238 0.103391 0.221021 -0.662414 -0.281352 0.341427 
0.65524 0.103391 0.242817 5.31121e-008 0.102585 0.607531 
0.766483 0.103391 0.242817 5.31116e-008 0.102584 0.607526 
0.710861 0.18389 0.239419 6.61795e-008 0.127824 0.757005 
0.65524 0.103391 0.242817 5.69773e-008 -0.165968 0.651745 
0.710861 0.00875807 0.236793 5.76768e-008 -0.168004 0.659745 
0.766483 0.103391 0.242817 5.69768e-008 -0.165967 0.651738 
0.710861 0.00875807 0.236793 0.220185 -0.271405 0.557575 
0.805491 0.022891 0.22917 0.293618 -0.36192 0.74353 
0.766483 0.103391 0.242817 0.231964 -0.285923 0.587402 
0.766483 -0.049727 0.211273 0.498397 -0.565552 0.302115 
0.856483 0.00875807 0.201526 0.618975 -0.702378 0.375207 
0.805491 0.022891 0.22917 0.924591 -1.04917 0.560463 
0.766483 -0.049727 0.211273 0.727223 -1.00095 0.177217 
0.80086 -0.049727 0.176006 0.956532 -1.31657 0.233098 
0.856483 0.00875807 0.201526 0.552811 -0.760886 0.134715 
0.80086 -0.049727 0.176006 0.66572 -0.588301 -0.025691 
0.863978 0.022891 0.169171 1.1253 -0.994433 -0.0434267 
0.856483 0.00875807 0.201526 1.17002 -1.03396 -0.0451526 
0.80086 -0.049727 0.176006 0.657607 -0.692421 -0.320951 
0.80086 0.00875807 0.144462 0.891075 -0.938249 -0.434897 
0.863978 0.022891 0.169171 0.713496 -0.751268 -0.348228 
0.80086 -0.049727 0.176006 0.490756 -1.09298 -0.506616 
0.710861 -0.0497259 0.15421 0.332526 -0.740579 -0.343273 
0.80086 0.00875807 0.144462 0.414682 -0.923549 -0.428083 
0.710861 -0.0497259 0.15421 0.188298 -0.639858 -0.525104 
0.710861 0.022892 0.132088 0.24854 -0.844569 -0.693101 
0.80086 0.00875807 0.144462 0.162235 -0.551294 -0.452422 
0.710861 -0.0497259 0.15421 -0.188298 -0.639858 -0.525104 
0.620862 0.00875807 0.144462 -0.162235 -0.551294 -0.452422 
0.710861 0.022892 0.132088 -0.24854 -0.844569 -0.693101 
0.710861 -0.0497259 0.15421 -0.332526 -0.740579 -0.343273 
0.620862 -0.049727 0.176006 -0.490756 -1.09298 -0.506616 
0.620862 0.00875807 0.144462 -0.414682 -0.923549 -0.428083 
0.620862 -0.049727 0.176006 -0.657607 -0.692421 -0.320951 
0.557744 0.022891 0.169171 -0.713496 -0.751268 -0.348228 
0.620862 0.00875807 0.144462 -0.891075 -0.938249 -0.434897 
0.710861 0.00875807 0.236793 0.258459 -0.638059 0.50641 
0.766483 -0.049727 0.211273 0.292098 -0.721103 0.572318 
0.805491 0.022891 0.22917 0.284815 -0.703124 0.558049 
0.710861 0.00875807 0.236793 5.15981e-008 -1.03014 0.590213 
0.65524 -0.049727 0.211273 3.93801e-008 -0.786208 0.450456 
0.766483 -0.049727 0.211273 3.93798e-008 -0.786202 0.450453 
0.65524 -0.049727 0.211273 2.06243e-008 -0.895835 0.235915 
0.710861 -0.0766089 0.185754 3.93786e-008 -1.71044 0.450438 
0.766483 -0.049727 0.211273 2.0624e-008 -0.895827 0.235912 
0.620862 -0.049727 0.176006 -0.66572 -0.588301 -0.025691 
0.565239 0.00875807 0.201526 -1.17002 -1.03396 -0.0451526 
0.557744 0.022891 0.169171 -1.1253 -0.994433 -0.0434267 
0.620862 -0.049727 0.176006 -0.956531 -1.31658 0.233104 
0.65524 -0.049727 0.211273 -0.727211 -1.00094 0.17722 
0.565239 0.00875807 0.201526 -0.552807 -0.760888 0.134718 
0.65524 -0.049727 0.211273 -0.49839 -0.565552 0.302112 
0.616231 0.022891 0.22917 -0.924591 -1.04919 0.560465 
0.565239 0.00875807 0.201526 -0.618971 -0.702382 0.375205 
0.780861 0.103391 0.0651184 1.96956 -0.193938 -4.30461e-008 
0.780861 0.103391 0.155119 1.96956 -0.193938 -4.30461e-008 
0.779516 0.089735 0.155119 1.96956 -0.193938 -4.30461e-008 
0.779516 0.089735 0.0651184 1.89386 -0.574491 -4.13917e-008 
0.779516 0.089735 0.155119 1.89386 -0.574491 -4.13917e-008 
0.775533 0.0766031 0.155119 1.89386 -0.574491 -4.13917e-008 
0.775533 0.0766031 0.0651184 1.74538 -0.932945 -3.81465e-008 
0.775533 0.0766031 0.155119 1.74538 -0.932945 -3.81465e-008 
0.769064 0.064501 0.155119 1.74538 -0.932945 -3.81465e-008 
0.769064 0.064501 0.0651184 1.52983 -1.25553 -3.34356e-008 
0.769064 0.064501 0.155119 1.52983 -1.25553 -3.34356e-008 
0.760359 0.053894 0.155119 1.52983 -1.25553 -3.34356e-008 
0.760359 0.053894 0.0651184 1.25562 -1.52976 -2.74425e-008 
0.760359 0.053894 0.155119 1.25562 -1.52976 -2.74425e-008 
0.749752 0.0451881 0.155119 1.25562 -1.52976 -2.74425e-008 
0.749752 0.0451881 0.0651184 0.932907 -1.74541 -2.03894e-008 
0.749752 0.0451881 0.155119 0.932907 -1.74541 -2.03894e-008 
0.737649 0.0387191 0.155119 0.932907 -1.74541 -2.03894e-008 
0.737649 0.0387191 0.0651184 0.574461 -1.89388 -1.25552e-008 
0.737649 0.0387191 0.155119 0.574461 -1.89388 -1.25552e-008 
0.724518 0.034736 0.155119 0.574461 -1.89388 -1.25552e-008 
0.724518 0.034736 0.0651184 0.193981 -1.96955 -4.2396e-009 
0.724518 0.034736 0.155119 0.193981 -1.96955 -4.2396e-009 
0.710861 0.033391 0.155119 0.193981 -1.96955 -4.2396e-009 
0.710861 0.033391 0.0651184 -0.193981 -1.96955 4.2396e-009 
0.710861 0.033391 0.155119 -0.193981 -1.96955 4.2396e-009 
0.697205 0.034736 0.155119 -0.193981 -1.96955 4.2396e-009 
0.697205 0.034736 0.0651184 -0.574461 -1.89388 1.25552e-008 
0.697205 0.034736 0.155119 -0.574461 -1.89388 1.25552e-008 
0.684073 0.0387191 0.155119 -0.574461 -1.89388 1.25552e-008 
0.684073 0.0387191 0.0651184 -0.932964 -1.74537 2.03906e-008 
0.684073 0.0387191 0.155119 -0.932964 -1.74537 2.03906e-008 
0.671971 0.0451881 0.155119 -0.932964 -1.74537 2.03906e-008 
0.671971 0.0451881 0.0651184 -1.25555 -1.52982 2.7441e-008 
0.671971 0.0451881 0.155119 -1.25555 -1.52982 2.7441e-008 
0.661364 0.053894 0.155119 -1.25555 -1.52982 2.7441e-008 
0.661364 0.053894 0.0651184 -1.52983 -1.25553 3.34356e-008 
0.661364 0.053894 0.155119 -1.52983 -1.25553 3.34356e-008 
0.652658 0.064501 0.155119 -1.52983 -1.25553 3.34356e-008 
0.652658 0.064501 0.0651184 -1.74538 -0.932945 3.81465e-008 
0.652658 0.064501 0.155119 -1.74538 -0.932945 3.81465e-008 
0.64619 0.0766031 0.155119 -1.74538 -0.932945 3.81465e-008 
0.64619 0.0766031 0.0651184 -1.89386 -0.574491 4.13917e-008 
0.64619 0.0766031 0.155119 -1.89386 -0.574491 4.13917e-008 
0.642206 0.089735 0.155119 -1.89386 -0.574491 4.13917e-008 
0.642206 0.089735 0.0651184 -1.96956 -0.193938 4.30461e-008 
0.642206 0.089735 0.155119 -1.96956 -0.193938 4.30461e-008 
0.640862 0.103391 0.155119 -1.96956 -0.193938 4.30461e-008 
0.640862 0.103391 0.0651184 -1.96956 0.193938 4.30461e-008 
0.640862 0.103391 0.155119 -1.96956 0.193938 4.30461e-008 
0.642206 0.117047 0.155119 -1.96956 0.193938 4.30461e-008 
0.642206 0.117047 0.0651184 -1.89386 0.574491 4.13917e-008 
0.642206 0.117047 0.155119 -1.89386 0.574491 4.13917e-008 
0.64619 0.130179 0.155119 -1.89386 0.574491 4.13917e-008 
0.64619 0.130179 0.0651184 -1.74538 0.932945 3.81465e-008 
0.64619 0.130179 0.155119 -1.74538 0.932945 3.81465e-008 
0.652658 0.142281 0.155119 -1.74538 0.932945 3.81465e-008 
0.652658 0.142281 0.0651184 -1.52988 1.25547 3.19818e-006 
0.652658 0.142281 0.155119 -1.52983 1.25553 3.34356e-008 
0.661364 0.152888 0.155119 -1.52985 1.25553 1.94537e-007 
0.661364 0.152889 0.0651184 -1.25548 1.52988 2.2375e-007 
0.661364 0.152888 0.155119 -1.25555 1.52981 4.08006e-006 
0.671971 0.161594 0.155119 -1.25555 1.52982 3.88376e-006 
0.671971 0.161594 0.0651184 -0.932964 1.74537 2.03906e-008 
0.671971 0.161594 0.155119 -0.932964 1.74537 2.03906e-008 
0.684073 0.168063 0.155119 -0.932964 1.74537 2.03906e-008 
0.684073 0.168063 0.0651184 -0.574461 1.89388 1.25552e-008 
0.684073 0.168063 0.155119 -0.574461 1.89388 1.25552e-008 
0.697205 0.172046 0.155119 -0.574461 1.89388 1.25552e-008 
0.697205 0.172046 0.0651184 -0.193981 1.96955 4.2396e-009 
0.697205 0.172046 0.155119 -0.193981 1.96955 4.2396e-009 
0.710861 0.173391 0.155119 -0.193981 1.96955 4.2396e-009 
0.710861 0.173391 0.0651184 0.193981 1.96955 -4.2396e-009 
0.710861 0.173391 0.155119 0.193981 1.96955 -4.2396e-009 
0.724518 0.172046 0.155119 0.193981 1.96955 -4.2396e-009 
0.724518 0.172046 0.0651184 0.574461 1.89388 -1.25552e-008 
0.724518 0.172046 0.155119 0.574461 1.89388 -1.25552e-008 
0.737649 0.168063 0.155119 0.574461 1.89388 -1.25552e-008 
0.737649 0.168063 0.0651184 0.932907 1.74541 -2.03894e-008 
0.737649 0.168063 0.155119 0.932907 1.74541 -2.03894e-008 
0.749752 0.161594 0.155119 0.932907 1.74541 -2.03894e-008 
0.749752 0.161594 0.0651184 1.25562 1.52976 -2.74425e-008 
0.749752 0.161594 0.155119 1.25562 1.52976 -2.74425e-008 
0.760359 0.152888 0.155119 1.25562 1.52976 -2.74425e-008 
0.760359 0.152888 0.0651184 1.52983 1.25553 -3.34356e-008 
0.760359 0.152888 0.155119 1.52983 1.25553 -3.34356e-008 
0.769064 0.142281 0.155119 1.52983 1.25553 -3.34356e-008 
0.769064 0.142281 0.0651184 1.74538 0.932945 -3.81465e-008 
0.769064 0.142281 0.155119 1.74538 0.932945 -3.81465e-008 
0.775533 0.130179 0.155119 1.74538 0.932945 -3.81465e-008 
0.684073 0.0387191 0.155119 1.62201e-007 0 1.85536 
0.64619 0.130179 0.155119 1.62202e-007 0 1.85538 
0.640862 0.103391 0.155119 1.62206e-007 0 1.85542 
0.779516 0.117047 0.0651184 0.0954021 0.00939405 -2.08508e-009 
0.779516 0.117047 0.155119 1.96956 0.193938 -4.30461e-008 
0.780861 0.103391 0.155119 1.87416 0.184544 -4.0961e-008 
0.775533 0.130179 0.0651184 1.89386 0.574491 -4.13917e-008 
0.775533 0.130179 0.155119 1.89386 0.574491 -4.13917e-008 
0.779516 0.117047 0.155119 1.89386 0.574491 -4.13917e-008 
0.760359 0.152888 0.0651184 -1.62207e-007 0 -1.85544 
0.769064 0.142281 0.0651184 -1.62203e-007 0 -1.85538 
0.779516 0.117047 0.0651184 -1.62202e-007 0 -1.85537 
0.779516 0.089735 0.0651184 1.96956 -0.193938 -4.30461e-008 
0.775533 0.0766031 0.0651184 1.89386 -0.574491 -4.13917e-008 
0.769064 0.064501 0.0651184 1.74538 -0.932945 -3.81465e-008 
0.760359 0.053894 0.0651184 1.52983 -1.25553 -3.34356e-008 
0.749752 0.0451881 0.0651184 1.25562 -1.52976 -2.74425e-008 
0.737649 0.0387191 0.0651184 0.932907 -1.74541 -2.03894e-008 
0.724518 0.034736 0.0651184 0.574461 -1.89388 -1.25552e-008 
0.710861 0.033391 0.0651184 0.193981 -1.96955 -4.2396e-009 
0.697205 0.034736 0.0651184 -0.193981 -1.96955 4.2396e-009 
0.684073 0.0387191 0.0651184 -0.574461 -1.89388 1.25552e-008 
0.671971 0.0451881 0.0651184 -0.932964 -1.74537 2.03906e-008 
0.661364 0.053894 0.0651184 -1.25555 -1.52982 2.7441e-008 
0.652658 0.064501 0.0651184 -1.52983 -1.25553 3.34356e-008 
0.64619 0.0766031 0.0651184 -1.74538 -0.932945 3.81465e-008 
0.642206 0.089735 0.0651184 -1.89386 -0.574491 4.13917e-008 
0.640862 0.103391 0.0651184 -1.96956 -0.193938 4.30461e-008 
0.642206 0.117047 0.0651184 -1.96956 0.193938 4.30461e-008 
0.64619 0.130179 0.0651184 -1.89386 0.574491 4.13917e-008 
0.652658 0.142281 0.0651184 -1.74538 0.932945 3.81465e-008 
0.661364 0.152889 0.0651184 -1.52988 1.25546 3.35927e-006 
0.671971 0.161594 0.0651184 -1.25547 1.52988 2.74392e-008 
0.684073 0.168063 0.0651184 -0.932964 1.74537 2.03906e-008 
0.697205 0.172046 0.0651184 -0.574461 1.89388 1.25552e-008 
0.710861 0.173391 0.0651184 -0.193981 1.96955 4.2396e-009 
0.724518 0.172046 0.0651184 0.193981 1.96955 -4.2396e-009 
0.737649 0.168063 0.0651184 0.574461 1.89388 -1.25552e-008 
0.749752 0.161594 0.0651184 0.932907 1.74541 -2.03894e-008 
0.760359 0.152888 0.0651184 1.25562 1.52976 -2.74425e-008 
0.769064 0.142281 0.0651184 1.52983 1.25553 -3.34356e-008 
0.775533 0.130179 0.0651184 1.74538 0.932945 -3.81465e-008 
0.780861 0.103391 0.155119 1.62206e-007 0 1.85542 
0.779516 0.117047 0.155119 1.62202e-007 0 1.85537 
0.779516 0.089735 0.155119 1.62202e-007 0 1.85537 
0.760359 0.152888 0.155119 1.62207e-007 0 1.85544 
0.737649 0.168063 0.155119 1.62203e-007 0 1.85538 
0.775533 0.130179 0.155119 1.62202e-007 0 1.85538 
0.769064 0.142281 0.155119 1.62203e-007 0 1.85538 
0.749752 0.161594 0.155119 1.62198e-007 0 1.85533 
0.710861 0.173391 0.155119 1.62203e-007 0 1.85539 
0.724518 0.172046 0.155119 1.62203e-007 0 1.8554 
0.684073 0.168063 0.155119 1.62201e-007 0 1.85537 
0.671971 0.161594 0.155119 1.62203e-007 0 1.85538 
0.697205 0.172046 0.155119 1.62203e-007 0 1.8554 
0.661364 0.152888 0.155119 1.62205e-007 0 1.85541 
0.652658 0.142281 0.155119 1.62203e-007 0 1.85538 
0.642206 0.117047 0.155119 1.62202e-007 0 1.85537 
0.642206 0.089735 0.155119 1.62202e-007 0 1.85537 
0.64619 0.0766031 0.155119 1.62202e-007 0 1.85538 
0.652658 0.064501 0.155119 1.62203e-007 0 1.85538 
0.661364 0.053894 0.155119 1.62205e-007 0 1.85541 
0.671971 0.0451881 0.155119 1.62203e-007 0 1.85538 
0.697205 0.034736 0.155119 1.62203e-007 0 1.8554 
0.710861 0.033391 0.155119 1.62203e-007 0 1.85539 
0.737649 0.0387191 0.155119 1.62203e-007 0 1.85538 
0.775533 0.0766031 0.155119 1.62202e-007 0 1.85538 
0.724518 0.034736 0.155119 1.62203e-007 0 1.8554 
0.749752 0.0451881 0.155119 1.62198e-007 0 1.85533 
0.760359 0.053894 0.155119 1.62207e-007 0 1.85544 
0.769064 0.064501 0.155119 1.62203e-007 0 1.85538 
0.780861 0.103391 0.0651184 1.96956 0.193938 -4.30461e-008 
0.779516 0.117047 0.0651184 1.87416 0.184544 -4.0961e-008 
0.780861 0.103391 0.155119 0.0954021 0.00939405 -2.08508e-009 
0.779516 0.117047 0.0651184 1.89386 0.574491 -4.13917e-008 
0.780861 0.103391 0.0651184 -1.62206e-007 0 -1.85542 
0.779516 0.089735 0.0651184 -1.62202e-007 0 -1.85537 
0.775533 0.0766031 0.0651184 -1.62202e-007 0 -1.85538 
0.769064 0.064501 0.0651184 -1.62203e-007 0 -1.85538 
0.749752 0.0451881 0.0651184 -1.62198e-007 0 -1.85533 
0.737649 0.0387191 0.0651184 -1.62203e-007 0 -1.85538 
0.760359 0.053894 0.0651184 -1.62207e-007 0 -1.85544 
0.724518 0.034736 0.0651184 -1.62203e-007 0 -1.8554 
0.710861 0.033391 0.0651184 -1.62203e-007 0 -1.85539 
0.697205 0.034736 0.0651184 -1.62203e-007 0 -1.8554 
0.671971 0.0451881 0.0651184 -1.62203e-007 0 -1.85538 
0.684073 0.0387191 0.0651184 -1.62201e-007 0 -1.85537 
0.652658 0.064501 0.0651184 -1.62203e-007 0 -1.85538 
0.642206 0.089735 0.0651184 -1.62202e-007 0 -1.85537 
0.661364 0.053894 0.0651184 -1.62205e-007 0 -1.85541 
0.64619 0.0766031 0.0651184 -1.62202e-007 0 -1.85538 
0.640862 0.103391 0.0651184 -1.62206e-007 0 -1.85542 
0.642206 0.117047 0.0651184 -1.62202e-007 0 -1.85537 
0.652658 0.142281 0.0651184 -1.62205e-007 0 -1.85541 
0.661364 0.152889 0.0651184 -1.622e-007 0 -1.85535 
0.671971 0.161594 0.0651184 -1.62206e-007 0 -1.85542 
0.684073 0.168063 0.0651184 -1.62201e-007 0 -1.85537 
0.697205 0.172046 0.0651184 -1.62203e-007 0 -1.8554 
0.710861 0.173391 0.0651184 -1.62203e-007 0 -1.85539 
0.724518 0.172046 0.0651184 -1.62203e-007 0 -1.8554 
0.737649 0.168063 0.0651184 -1.62203e-007 0 -1.85538 
0.64619 0.130179 0.0651184 -1.62202e-007 0 -1.85538 
0.775533 0.130179 0.0651184 -1.62202e-007 0 -1.85538 
0.749752 0.161594 0.0651184 -1.62198e-007 0 -1.85533 
-1 1.36224 -0.102817 -8.65084e-008 0 -0.989542 
1 1.36224 -0.102817 -8.65084e-008 0 -0.989542 
1 -1.36224 -0.102817 -8.65084e-008 0 -0.989542 
-1 1.36224 0.0971828 -1.97908 0 4.32542e-008 
-1 1.36224 -0.102817 -1.97908 0 4.32542e-008 
-1 -1.36224 -0.102817 -1.97908 0 4.32542e-008 
-1 1.36224 0.0971828 0 1.97908 0 
1 1.36224 0.0971828 0 1.97908 0 
1 1.36224 -0.102817 0 1.97908 0 
1 1.36224 -0.102817 1.97908 0 -4.32542e-008 
1 1.36224 0.0971828 1.97908 0 -4.32542e-008 
1 -1.36224 0.0971828 1.97908 0 -4.32542e-008 
-1 -1.36224 -0.102817 0 -1.97908 0 
1 -1.36224 -0.102817 0 -1.97908 0 
1 -1.36224 0.0971828 0 -1.97908 0 
-1 1.36224 0.0971828 8.65079e-008 0 0.989536 
-0.745459 0.999533 0.0971828 2.0975e-007 0 2.39927 
-0.640458 1.13288 0.0971828 2.22791e-007 0 2.54843 
0.804542 0.377229 0.0971828 2.0975e-007 0 2.39927 
0.699542 0.243878 0.0971828 2.22791e-007 0 2.54843 
0.699542 -0.0671159 0.0971828 2.22791e-007 0 2.54843 
0.209541 -0.956122 0.0971828 2.22791e-007 0 2.54843 
0.104541 -0.822771 0.0971828 2.0975e-007 0 2.39927 
-0.0454578 -0.822771 0.0971828 2.0975e-007 0 2.39927 
-0.745459 -0.822771 0.0971828 1.55492 1.22434 -3.39839e-008 
-0.640458 -0.956122 0.0971828 1.55492 1.22434 -3.39839e-008 
-0.640458 -0.956122 0.0957375 1.55492 1.22434 -3.39839e-008 
-0.745459 -0.200467 0.0971828 1.9791 0 -4.32545e-008 
-0.745459 -0.822771 0.0971828 1.97908 0 -4.32542e-008 
-0.745459 -0.822771 0.0957375 1.9791 0 -4.32545e-008 
-0.640458 -0.0671159 0.0971828 1.55492 -1.22434 -3.39839e-008 
-0.745459 -0.200467 0.0971828 1.55492 -1.22434 -3.39839e-008 
-0.745459 -0.200467 0.0957375 1.55492 -1.22434 -3.39839e-008 
-0.745459 0.377229 0.0971828 1.55491 1.22433 -3.39835e-008 
-0.640458 0.243878 0.0971828 1.55491 1.22434 -3.39835e-008 
-0.640458 0.243878 0.0957375 1.55491 1.22433 -3.39835e-008 
-0.745459 0.999533 0.0971828 1.97906 0 -4.32537e-008 
-0.745459 0.377229 0.0971828 1.97908 0 -4.32542e-008 
-0.745459 0.377229 0.0957375 1.97906 0 -4.32537e-008 
-0.640458 1.13288 0.0971828 1.55492 -1.22434 -3.39839e-008 
-0.745459 0.999533 0.0971828 1.55492 -1.22434 -3.39839e-008 
-0.745459 0.999533 0.0957375 1.55492 -1.22434 -3.39839e-008 
-0.150458 1.13288 0.0971828 0 -1.97908 0 
-0.640458 1.13288 0.0971828 0 -1.97908 0 
-0.640458 1.13288 0.0957375 0 -1.97908 0 
-0.0454578 0.999533 0.0971828 -1.55492 -1.22434 3.39839e-008 
-0.150458 1.13288 0.0971828 -1.55492 -1.22434 3.39839e-008 
-0.150458 1.13288 0.0957375 -1.55492 -1.22434 3.39839e-008 
-0.0454578 0.377229 0.0971828 -1.97906 0 4.32537e-008 
-0.0454578 0.999533 0.0971828 -1.97908 0 4.32542e-008 
-0.0454578 0.999533 0.0957375 -1.97906 0 4.32537e-008 
-0.150458 0.243878 0.0971828 -1.55491 1.22433 3.39835e-008 
-0.0454578 0.377229 0.0971828 -1.55491 1.22434 3.39835e-008 
-0.0454578 0.377229 0.0957375 -1.55491 1.22433 3.39835e-008 
-0.640458 0.243878 0.0971828 0 1.97908 0 
-0.150458 0.243878 0.0971828 0 1.97908 0 
-0.150458 0.243878 0.0957375 0 1.97908 0 
-0.150458 -0.0671159 0.0971828 0 -1.97908 0 
-0.640458 -0.0671159 0.0971828 0 -1.97908 0 
-0.640458 -0.0671159 0.0957375 0 -1.97908 0 
0.104541 -0.354181 0.0971828 3.95816 0 -8.65081e-008 
0.104541 -0.822771 0.0957375 1.97907 0 -4.3254e-008 
0.104541 -0.200467 0.0957375 1.97908 0 -4.32542e-008 
0.209541 -0.0671159 0.0971828 1.55492 -1.22434 -3.39839e-008 
0.104541 -0.200467 0.0971828 1.55492 -1.22434 -3.39839e-008 
0.104541 -0.200467 0.0957375 1.55492 -1.22434 -3.39839e-008 
0.699542 -0.0671159 0.0971828 0 -1.97908 0 
0.209541 -0.0671159 0.0971828 0 -1.97908 0 
0.209541 -0.0671159 0.0957375 0 -1.97908 0 
0.804542 -0.200467 0.0971828 -1.55492 -1.22433 3.39839e-008 
0.699542 -0.0671159 0.0971828 -1.55492 -1.22433 3.39839e-008 
0.699542 -0.0671159 0.0957375 -1.55492 -1.22433 3.39839e-008 
0.804542 -0.822771 0.0971828 -1.9791 0 4.32545e-008 
0.804542 -0.200467 0.0971828 -1.97908 0 4.32542e-008 
0.804542 -0.200467 0.0957375 -1.9791 0 4.32545e-008 
0.699542 -0.956122 0.0971828 -1.55492 1.22433 3.39839e-008 
0.804542 -0.822771 0.0971828 -1.55492 1.22433 3.39839e-008 
0.804542 -0.822771 0.0957375 -1.55492 1.22433 3.39839e-008 
0.639242 -0.956122 0.0971828 0 3.95816 0 
0.699542 -0.956122 0.0957375 0 1.97908 0 
0.209541 -0.956122 0.0957375 0 1.97907 0 
0.104541 -0.822771 0.0971828 1.55492 1.22434 -3.39839e-008 
0.209541 -0.956122 0.0971828 1.55492 1.22434 -3.39839e-008 
0.209541 -0.956122 0.0957375 1.55492 1.22434 -3.39839e-008 
-0.0454578 -0.200467 0.0971828 -1.55492 -1.22434 3.39839e-008 
-0.150458 -0.0671159 0.0971828 -1.55492 -1.22434 3.39839e-008 
-0.150458 -0.0671159 0.0957375 -1.55492 -1.22434 3.39839e-008 
-0.0454578 -0.822771 0.0971828 -1.9791 0 4.32545e-008 
-0.0454578 -0.200467 0.0971828 -1.97908 0 4.32542e-008 
-0.0454578 -0.200467 0.0957375 -1.9791 0 4.32545e-008 
-0.150458 -0.956122 0.0971828 -1.55492 1.22434 3.39839e-008 
-0.0454578 -0.822771 0.0971828 -1.55492 1.22434 3.39839e-008 
-0.0454578 -0.822771 0.0957375 -1.55492 1.22434 3.39839e-008 
-0.640458 -0.956122 0.0971828 0 1.97908 0 
-0.150458 -0.956122 0.0971828 0 1.97908 0 
-0.150458 -0.956122 0.0957375 0 1.97908 0 
-0.640458 -0.956122 0.0957375 0.70483 0.554983 0.352416 
-0.640458 -0.822771 0.0432375 0.870264 0.685245 0.435134 
-0.745459 -0.822771 0.0957375 0.870261 0.685243 0.435133 
-0.745459 -0.822771 0.0957375 1.39942 0 0.69971 
-0.640458 -0.822771 0.0432375 1.39942 0 0.69971 
-0.640458 -0.200467 0.0432375 1.39942 0 0.69971 
-0.640458 -0.200467 0.0432375 0.870264 -0.685245 0.435134 
-0.640458 -0.0671159 0.0957375 0.70483 -0.554983 0.352416 
-0.745459 -0.200467 0.0957375 0.870261 -0.685243 0.435133 
-0.640458 0.243878 0.0957375 0.70483 0.554983 0.352417 
-0.640458 0.377229 0.0432375 0.870264 0.685246 0.435134 
-0.745459 0.377229 0.0957375 0.870261 0.685243 0.435133 
-0.745459 0.377229 0.0957375 1.39942 0 0.69971 
-0.640458 0.377229 0.0432375 1.39942 0 0.69971 
-0.640458 0.999533 0.0432375 1.39942 0 0.69971 
-0.640458 0.999533 0.0432375 0.870264 -0.685246 0.435134 
-0.640458 1.13288 0.0957375 0.70483 -0.554983 0.352417 
-0.745459 0.999533 0.0957375 0.870261 -0.685243 0.435133 
-0.640458 1.13288 0.0957375 6.79677e-008 -1.22433 0.77746 
-0.640458 0.999533 0.0432375 6.79677e-008 -1.22433 0.77746 
-0.150458 0.999533 0.0432375 6.79677e-008 -1.22433 0.77746 
-0.150458 0.999533 0.0432375 -0.870264 -0.685246 0.435134 
-0.0454578 0.999533 0.0957375 -0.870261 -0.685243 0.435133 
-0.150458 1.13288 0.0957375 -0.70483 -0.554983 0.352417 
-0.0454578 0.999533 0.0957375 -1.39942 0 0.69971 
-0.150458 0.999533 0.0432375 -1.39942 0 0.69971 
-0.150458 0.377229 0.0432375 -1.39942 0 0.69971 
-0.150458 0.377229 0.0432375 -0.870264 0.685246 0.435134 
-0.150458 0.243878 0.0957375 -0.70483 0.554983 0.352417 
-0.0454578 0.377229 0.0957375 -0.870261 0.685243 0.435133 
-0.150458 0.243878 0.0957375 6.79677e-008 1.22433 0.77746 
-0.150458 0.377229 0.0432375 6.79677e-008 1.22433 0.77746 
-0.640458 0.377229 0.0432375 6.79677e-008 1.22433 0.77746 
-0.640458 -0.0671159 0.0957375 6.79677e-008 -1.22433 0.77746 
-0.640458 -0.200467 0.0432375 6.79677e-008 -1.22433 0.77746 
-0.150458 -0.200467 0.0432375 6.79677e-008 -1.22433 0.77746 
0.104541 -0.822771 0.0957375 1.39942 0 0.69971 
0.209541 -0.822771 0.0432375 1.39942 0 0.69971 
0.209541 -0.200467 0.0432375 1.39942 0 0.69971 
0.209541 -0.200467 0.0432375 0.870264 -0.685245 0.435134 
0.209541 -0.0671159 0.0957375 0.70483 -0.554983 0.352416 
0.104541 -0.200467 0.0957375 0.870261 -0.685243 0.435133 
0.209541 -0.0671159 0.0957375 6.79677e-008 -1.22433 0.77746 
0.209541 -0.200467 0.0432375 6.79677e-008 -1.22433 0.77746 
0.699542 -0.200467 0.0432375 6.79677e-008 -1.22433 0.77746 
0.699542 -0.200467 0.0432375 -0.870268 -0.685241 0.435132 
0.804542 -0.200467 0.0957375 -0.87027 -0.685243 0.435133 
0.699542 -0.0671159 0.0957375 -0.704831 -0.554979 0.352414 
0.804542 -0.200467 0.0957375 -1.39942 0 0.69971 
0.699542 -0.200467 0.0432375 -1.39942 0 0.69971 
0.699542 -0.822771 0.0432375 -1.39942 0 0.69971 
0.699542 -0.822771 0.0432375 -0.870268 0.685241 0.435132 
0.699542 -0.956122 0.0957375 -0.704831 0.554979 0.352414 
0.804542 -0.822771 0.0957375 -0.87027 0.685243 0.435133 
0.699542 -0.956122 0.0957375 6.79677e-008 1.22433 0.77746 
0.699542 -0.822771 0.0432375 6.79677e-008 1.22433 0.77746 
0.209541 -0.822771 0.0432375 6.79677e-008 1.22433 0.77746 
0.209541 -0.956122 0.0957375 0.70483 0.554983 0.352416 
0.209541 -0.822771 0.0432375 0.870264 0.685245 0.435134 
0.104541 -0.822771 0.0957375 0.870261 0.685243 0.435133 
-0.150458 -0.200467 0.0432375 -0.870264 -0.685245 0.435134 
-0.0454578 -0.200467 0.0957375 -0.870261 -0.685243 0.435133 
-0.150458 -0.0671159 0.0957375 -0.70483 -0.554983 0.352416 
-0.0454578 -0.200467 0.0957375 -1.39942 0 0.69971 
-0.150458 -0.200467 0.0432375 -1.39942 0 0.69971 
-0.150458 -0.822771 0.0432375 -1.39942 0 0.69971 
-0.150458 -0.822771 0.0432375 -0.870264 0.685245 0.435134 
-0.150458 -0.956122 0.0957375 -0.70483 0.554983 0.352416 
-0.0454578 -0.822771 0.0957375 -0.870261 0.685243 0.435133 
-0.150458 -0.956122 0.0957375 6.79677e-008 1.22433 0.77746 
-0.150458 -0.822771 0.0432375 6.79677e-008 1.22433 0.77746 
-0.640458 -0.822771 0.0432375 6.79677e-008 1.22433 0.77746 
-0.640458 -0.200467 0.0432375 8.65084e-008 0 0.989542 
-0.640458 -0.822771 0.0432375 8.65084e-008 0 0.989542 
-0.150458 -0.822771 0.0432375 8.65084e-008 0 0.989542 
-0.640458 0.999533 0.0432375 8.65084e-008 0 0.989542 
-0.640458 0.377229 0.0432375 8.65084e-008 0 0.989542 
-0.150458 0.377229 0.0432375 8.65084e-008 0 0.989542 
0.209541 -0.200467 0.0432375 8.65084e-008 0 0.989542 
0.209541 -0.822771 0.0432375 8.65084e-008 0 0.989542 
0.699542 -0.822771 0.0432375 8.65084e-008 0 0.989542 
0.209541 0.243878 0.0971828 0 1.97908 0 
0.699542 0.243878 0.0971828 0 1.97908 0 
0.699542 0.243878 0.0957375 0 1.97908 0 
0.104541 0.377229 0.0971828 1.55491 1.22433 -3.39835e-008 
0.209541 0.243878 0.0971828 1.55491 1.22434 -3.39835e-008 
0.209541 0.243878 0.0957375 1.55491 1.22433 -3.39835e-008 
0.699542 0.243878 0.0957375 6.79677e-008 1.22433 0.77746 
0.699542 0.377229 0.0432375 6.79677e-008 1.22433 0.77746 
0.209541 0.377229 0.0432375 6.79677e-008 1.22433 0.77746 
0.699542 0.243878 0.0971828 -1.55492 1.22433 3.39839e-008 
0.804542 0.377229 0.0971828 -1.55492 1.22433 3.39839e-008 
0.804542 0.377229 0.0957375 -1.55492 1.22433 3.39839e-008 
0.104541 0.999533 0.0971828 1.97906 0 -4.32537e-008 
0.104541 0.377229 0.0971828 1.97908 0 -4.32542e-008 
0.104541 0.377229 0.0957375 1.97906 0 -4.32537e-008 
0.209541 0.243878 0.0957375 0.70483 0.554983 0.352417 
0.209541 0.377229 0.0432375 0.870264 0.685246 0.435134 
0.104541 0.377229 0.0957375 0.870261 0.685243 0.435133 
0.699542 0.377229 0.0432375 -0.870267 0.685242 0.435131 
0.699542 0.243878 0.0957375 -0.704833 0.55498 0.352414 
0.804542 0.377229 0.0957375 -0.87027 0.685243 0.435133 
0.209541 0.999533 0.0432375 8.65084e-008 0 0.989542 
0.209541 0.377229 0.0432375 8.65084e-008 0 0.989542 
0.699542 0.377229 0.0432375 8.65084e-008 0 0.989542 
0.804542 0.377229 0.0971828 -1.97906 0 4.32537e-008 
0.804542 0.999533 0.0971828 -1.97908 0 4.32542e-008 
0.804542 0.999533 0.0957375 -1.97906 0 4.32537e-008 
0.160919 1.07113 0.0971828 3.04205 -2.39531 -0.000296821 
0.104541 0.999533 0.0957375 0.0313851 -0.0247127 -3.06233e-006 
0.209541 1.13288 0.0957375 0.0363879 -0.0286519 -3.55046e-006 
0.104541 0.377229 0.0957375 1.39942 0 0.69971 
0.209541 0.377229 0.0432375 1.39942 0 0.69971 
0.209541 0.999533 0.0432375 1.39942 0 0.69971 
0.804542 0.999533 0.0957375 -1.39942 0 0.69971 
0.699542 0.999533 0.0432375 -1.39942 0 0.69971 
0.699542 0.377229 0.0432375 -1.39942 0 0.69971 
0.209541 1.13288 0.0957375 6.79677e-008 -1.22433 0.77746 
0.209541 0.999533 0.0432375 6.79677e-008 -1.22433 0.77746 
0.699542 0.999533 0.0432375 6.79677e-008 -1.22433 0.77746 
0.804542 0.999533 0.0971828 -1.55492 -1.22433 3.39839e-008 
0.699542 1.13288 0.0971828 -1.55492 -1.22433 3.39839e-008 
0.699542 1.13288 0.0957375 -1.55492 -1.22433 3.39839e-008 
0.338905 1.13288 0.0971828 0 -3.95816 0 
0.209541 1.13288 0.0957375 0 -1.97908 0 
0.699542 1.13288 0.0957375 0 -1.97908 0 
0.209541 0.999533 0.0432375 0.870264 -0.685246 0.435134 
0.209541 1.13288 0.0957375 0.70483 -0.554983 0.352417 
0.104541 0.999533 0.0957375 0.870261 -0.685243 0.435133 
0.699542 0.999533 0.0432375 -0.870267 -0.685242 0.435131 
0.804542 0.999533 0.0957375 -0.87027 -0.685243 0.435133 
0.699542 1.13288 0.0957375 -0.704833 -0.554979 0.352414 
-1 -1.36224 -0.102817 -8.65084e-008 0 -0.989542 
-1 -1.36224 0.0971828 -1.97908 0 4.32542e-008 
-1 1.36224 -0.102817 0 1.97908 0 
1 -1.36224 -0.102817 1.97908 0 -4.32542e-008 
-1 -1.36224 0.0971828 0 -1.97908 0 
-1 -1.36224 0.0971828 8.65084e-008 0 0.989542 
-0.640458 -0.956122 0.0971828 2.22791e-007 0 2.54843 
-0.745459 -0.822771 0.0971828 2.0975e-007 0 2.39927 
-0.640458 0.243878 0.0971828 2.22791e-007 0 2.54843 
-0.745459 0.377229 0.0971828 2.0975e-007 0 2.39927 
-0.640458 -0.0671159 0.0971828 2.22791e-007 0 2.54843 
-0.150458 1.13288 0.0971828 2.22791e-007 0 2.54843 
-0.0454578 0.999533 0.0971828 2.0975e-007 0 2.39927 
0.160919 1.07113 0.0971828 1.73016e-007 0 1.97907 
0.209541 1.13288 0.0971828 2.22791e-007 0 2.54843 
0.338905 1.13288 0.0971828 1.73016e-007 0 1.97908 
1 1.36224 0.0971828 8.65084e-008 0 0.989542 
-0.745459 -0.200467 0.0971828 2.0975e-007 0 2.39927 
0.699542 1.13288 0.0971828 2.22791e-007 0 2.54843 
0.104541 0.999533 0.0971828 2.09752e-007 0 2.39927 
-0.150458 0.243878 0.0971828 2.22791e-007 0 2.54843 
-0.150458 -0.0671159 0.0971828 2.22791e-007 0 2.54843 
0.104541 -0.354181 0.0971828 1.73016e-007 0 1.97908 
0.104541 -0.200467 0.0971828 2.0975e-007 0 2.39927 
0.699542 -0.956122 0.0971828 2.22791e-007 0 2.54843 
0.639242 -0.956122 0.0971828 1.73016e-007 0 1.97908 
1 -1.36224 0.0971828 8.65084e-008 0 0.989542 
0.804542 0.999533 0.0971828 2.0975e-007 0 2.39927 
0.104541 0.377229 0.0971828 2.0975e-007 0 2.39927 
0.209541 -0.0671159 0.0971828 2.22791e-007 0 2.54843 
0.804542 -0.822771 0.0971828 2.0975e-007 0 2.39927 
-0.0454578 0.377229 0.0971828 2.0975e-007 0 2.39927 
-0.150458 -0.956122 0.0971828 2.22791e-007 0 2.54843 
0.804542 -0.200467 0.0971828 2.0975e-007 0 2.39927 
0.209541 0.243878 0.0971828 2.22791e-007 0 2.54843 
-0.0454578 -0.200467 0.0971828 2.0975e-007 0 2.39927 
-0.745459 -0.822771 0.0957375 1.55492 1.22434 -3.39839e-008 
-0.745459 -0.200467 0.0957375 1.97908 0 -4.32542e-008 
-0.640458 -0.0671159 0.0957375 1.55492 -1.22434 -3.39839e-008 
-0.745459 0.377229 0.0957375 1.55491 1.22434 -3.39835e-008 
-0.745459 0.999533 0.0957375 1.97908 0 -4.32542e-008 
-0.640458 1.13288 0.0957375 1.55492 -1.22434 -3.39839e-008 
-0.150458 1.13288 0.0957375 0 -1.97908 0 
-0.0454578 0.999533 0.0957375 -1.55492 -1.22434 3.39839e-008 
-0.0454578 0.377229 0.0957375 -1.97908 0 4.32542e-008 
-0.150458 0.243878 0.0957375 -1.55491 1.22434 3.39835e-008 
-0.640458 0.243878 0.0957375 0 1.97908 0 
-0.150458 -0.0671159 0.0957375 0 -1.97908 0 
0.104541 -0.200467 0.0971828 1.97908 0 -4.32542e-008 
0.104541 -0.822771 0.0971828 1.97908 0 -4.32542e-008 
0.209541 -0.0671159 0.0957375 1.55492 -1.22434 -3.39839e-008 
0.699542 -0.0671159 0.0957375 0 -1.97908 0 
0.804542 -0.200467 0.0957375 -1.55492 -1.22433 3.39839e-008 
0.804542 -0.822771 0.0957375 -1.97908 0 4.32542e-008 
0.699542 -0.956122 0.0957375 -1.55492 1.22433 3.39839e-008 
0.209541 -0.956122 0.0971828 0 1.97908 0 
0.699542 -0.956122 0.0971828 0 1.97908 0 
0.104541 -0.822771 0.0957375 1.55492 1.22434 -3.39839e-008 
-0.0454578 -0.200467 0.0957375 -1.55492 -1.22434 3.39839e-008 
-0.0454578 -0.822771 0.0957375 -1.97908 0 4.32542e-008 
-0.150458 -0.956122 0.0957375 -1.55492 1.22434 3.39839e-008 
-0.640458 -0.956122 0.0957375 0 1.97908 0 
-0.745459 -0.200467 0.0957375 1.39942 0 0.69971 
-0.745459 0.999533 0.0957375 1.39942 0 0.69971 
-0.150458 1.13288 0.0957375 6.79677e-008 -1.22433 0.77746 
-0.0454578 0.377229 0.0957375 -1.39942 0 0.69971 
-0.640458 0.243878 0.0957375 6.79677e-008 1.22433 0.77746 
-0.150458 -0.0671159 0.0957375 6.79677e-008 -1.22433 0.77746 
0.104541 -0.200467 0.0957375 1.39942 0 0.69971 
0.699542 -0.0671159 0.0957375 6.79677e-008 -1.22433 0.77746 
0.804542 -0.822771 0.0957375 -1.39942 0 0.69971 
0.209541 -0.956122 0.0957375 6.79677e-008 1.22433 0.77746 
-0.0454578 -0.822771 0.0957375 -1.39942 0 0.69971 
-0.640458 -0.956122 0.0957375 6.79677e-008 1.22433 0.77746 
-0.150458 -0.200467 0.0432375 8.65084e-008 0 0.989542 
-0.150458 0.999533 0.0432375 8.65084e-008 0 0.989542 
0.699542 -0.200467 0.0432375 8.65084e-008 0 0.989542 
0.209541 0.243878 0.0957375 0 1.97908 0 
0.104541 0.377229 0.0957375 1.55491 1.22434 -3.39835e-008 
0.209541 0.243878 0.0957375 6.79677e-008 1.22433 0.77746 
0.699542 0.243878 0.0957375 -1.55492 1.22433 3.39839e-008 
0.104541 0.999533 0.0957375 1.97908 0 -4.32542e-008 
0.699542 0.999533 0.0432375 8.65084e-008 0 0.989542 
0.804542 0.377229 0.0957375 -1.97908 0 4.32542e-008 
0.209541 1.13288 0.0957375 1.51853 -1.19568 -3.31886e-008 
0.209541 1.13288 0.0971828 1.55492 -1.22433 -3.39839e-008 
0.160919 1.07113 0.0971828 0.0363897 -0.0286529 -7.95319e-010 
0.160919 1.07113 0.0971828 0.0313869 -0.0247142 -6.85983e-010 
0.104541 0.999533 0.0971828 1.55491 -1.22434 -3.39835e-008 
0.104541 0.999533 0.0957375 1.52352 -1.19963 -3.32976e-008 
0.104541 0.999533 0.0957375 1.39942 0 0.69971 
0.804542 0.377229 0.0957375 -1.39942 0 0.69971 
0.699542 1.13288 0.0957375 6.79677e-008 -1.22433 0.77746 
0.804542 0.999533 0.0957375 -1.55492 -1.22433 3.39839e-008 
0.699542 1.13288 0.0971828 0 -1.97908 0 
0.209541 1.13288 0.0971828 0 -1.97908 0 
3 0 1 2 
3 3 4 5 
3 6 7 8 
3 9 10 11 
3 12 13 14 
3 15 16 17 
3 18 19 20 
3 21 22 23 
3 24 25 26 
3 27 28 29 
3 30 31 32 
3 33 34 35 
3 36 37 38 
3 39 40 41 
3 42 43 44 
3 45 46 47 
3 48 49 50 
3 51 52 53 
3 54 55 56 
3 57 58 59 
3 60 61 62 
3 63 64 65 
3 66 67 68 
3 69 70 71 
3 72 73 74 
3 75 76 77 
3 78 79 80 
3 81 82 83 
3 84 85 86 
3 87 88 89 
3 90 91 92 
3 93 94 95 
3 96 97 98 
3 99 100 101 
3 102 103 104 
3 105 106 107 
3 108 109 110 
3 111 112 113 
3 114 115 116 
3 117 118 119 
3 120 121 122 
3 123 124 125 
3 126 127 128 
3 129 130 131 
3 132 133 134 
3 135 136 137 
3 138 139 140 
3 141 142 143 
3 144 145 146 
3 147 148 149 
3 150 151 152 
3 153 154 155 
3 156 157 158 
3 159 160 161 
3 162 163 164 
3 165 166 167 
3 168 169 170 
3 171 172 173 
3 174 175 176 
3 177 178 179 
3 180 181 182 
3 183 184 185 
3 186 187 188 
3 189 190 191 
3 192 193 194 
3 195 196 197 
3 198 199 200 
3 201 202 203 
3 204 205 206 
3 207 208 209 
3 210 211 212 
3 213 214 215 
3 216 217 218 
3 219 220 221 
3 222 223 224 
3 225 226 227 
3 228 229 230 
3 231 232 233 
3 234 235 236 
3 237 238 239 
3 240 241 242 
3 243 244 245 
3 246 247 248 
3 249 250 251 
3 252 253 254 
3 255 256 257 
3 258 259 260 
3 261 262 263 
3 264 265 266 
3 267 268 269 
3 270 271 272 
3 273 274 275 
3 276 277 278 
3 279 280 281 
3 282 283 284 
3 285 286 287 
3 288 289 290 
3 291 292 293 
3 294 295 296 
3 297 298 299 
3 300 301 302 
3 303 304 305 
3 306 307 308 
3 309 310 311 
3 312 313 314 
3 315 316 317 
3 318 319 320 
3 321 322 323 
3 324 325 326 
3 327 328 329 
3 330 331 332 
3 333 334 335 
3 336 337 338 
3 339 340 341 
3 342 240 242 
3 343 243 245 
3 344 246 248 
3 345 249 251 
3 346 252 254 
3 347 255 257 
3 348 258 260 
3 349 261 263 
3 350 264 266 
3 351 267 269 
3 352 270 272 
3 353 273 275 
3 354 276 278 
3 355 279 281 
3 356 282 284 
3 357 285 287 
3 358 288 290 
3 359 291 293 
3 360 294 296 
3 361 297 299 
3 362 300 302 
3 363 303 305 
3 364 306 308 
3 365 309 311 
3 366 312 314 
3 367 315 317 
3 368 318 320 
3 369 321 323 
3 370 324 326 
3 371 327 329 
3 372 373 374 
3 373 375 376 
3 377 378 375 
3 375 379 376 
3 380 331 381 
3 382 383 384 
3 385 331 383 
3 385 386 331 
3 331 387 332 
3 388 389 390 
3 391 388 390 
3 391 392 330 
3 330 393 394 
3 395 396 397 
3 395 398 399 
3 399 400 396 
3 373 377 375 
3 396 373 376 
3 373 396 374 
3 401 402 403 
3 331 376 381 
3 330 388 391 
3 396 394 397 
3 395 399 396 
3 330 332 388 
3 380 383 331 
3 383 380 384 
3 376 394 396 
3 331 330 376 
3 376 330 394 
3 404 336 338 
3 341 405 406 
3 406 407 408 
3 409 410 411 
3 412 408 410 
3 412 413 414 
3 415 412 416 
3 417 418 419 
3 417 420 418 
3 418 421 422 
3 423 424 425 
3 425 426 427 
3 427 428 429 
3 430 339 341 
3 422 431 418 
3 340 432 341 
3 341 406 408 
3 410 408 411 
3 418 415 419 
3 431 423 425 
3 431 427 418 
3 427 431 425 
3 430 433 339 
3 412 414 416 
3 341 408 412 
3 412 415 418 
3 427 429 430 
3 430 341 412 
3 418 427 412 
3 427 430 412 
3 434 435 436 
3 437 438 439 
3 440 441 442 
3 443 444 445 
3 446 447 448 
3 449 450 451 
3 452 453 454 
3 455 456 457 
3 458 459 460 
3 461 462 463 
3 464 465 466 
3 467 468 469 
3 470 471 472 
3 473 474 475 
3 476 477 478 
3 479 480 481 
3 482 483 484 
3 485 486 487 
3 488 489 490 
3 491 492 493 
3 494 495 496 
3 497 498 499 
3 500 501 502 
3 503 504 505 
3 506 507 508 
3 509 510 511 
3 512 513 514 
3 515 516 517 
3 518 519 520 
3 521 522 523 
3 524 525 526 
3 527 528 529 
3 530 531 532 
3 533 534 535 
3 536 537 538 
3 539 540 541 
3 542 543 544 
3 545 546 547 
3 548 549 550 
3 551 552 553 
3 554 555 556 
3 557 558 559 
3 560 561 562 
3 563 564 565 
3 566 567 568 
3 569 570 571 
3 572 573 574 
3 575 576 577 
3 578 579 580 
3 581 582 583 
3 584 585 586 
3 587 588 589 
3 590 591 592 
3 593 594 595 
3 596 597 598 
3 599 600 601 
3 602 603 604 
3 605 606 607 
3 608 609 610 
3 611 612 613 
3 614 615 616 
3 617 618 619 
3 620 621 622 
3 623 624 625 
3 626 627 628 
3 629 630 631 
3 632 633 634 
3 635 636 637 
3 638 639 640 
3 641 642 643 
3 644 645 646 
3 647 648 649 
3 650 651 652 
3 653 654 655 
3 656 657 658 
3 659 660 661 
3 662 434 436 
3 663 437 439 
3 664 440 442 
3 665 443 445 
3 666 446 448 
3 667 668 669 
3 670 671 672 
3 673 674 675 
3 676 677 678 
3 669 679 667 
3 678 677 680 
3 673 675 676 
3 449 673 678 
3 449 679 671 
3 450 449 671 
3 671 679 672 
3 449 451 673 
3 673 676 678 
3 679 449 667 
3 681 675 674 
3 682 670 672 
3 683 684 685 
3 686 687 688 
3 678 680 689 
3 690 681 674 
3 682 672 683 
3 683 685 691 
3 692 686 688 
3 689 452 678 
3 690 674 693 
3 683 691 682 
3 688 694 667 
3 695 692 688 
3 678 452 695 
3 696 690 693 
3 691 454 696 
3 688 678 695 
3 693 682 696 
3 454 695 452 
3 453 696 454 
3 682 691 696 
3 688 687 455 
3 684 683 697 
3 457 456 684 
3 697 457 684 
3 694 688 455 
3 698 458 460 
3 457 694 455 
3 694 668 667 
3 699 461 463 
3 700 464 466 
3 701 467 469 
3 702 470 472 
3 703 473 475 
3 704 476 478 
3 705 479 481 
3 706 482 484 
3 707 485 487 
3 708 488 490 
3 709 491 493 
3 496 710 494 
3 494 711 495 
3 712 497 499 
3 713 500 502 
3 714 503 505 
3 715 506 508 
3 716 509 511 
3 717 512 514 
3 718 513 512 
3 719 515 517 
3 720 518 520 
3 721 521 523 
3 722 524 526 
3 723 527 529 
3 724 533 535 
3 725 542 544 
3 726 548 550 
3 727 554 556 
3 728 560 562 
3 729 563 565 
3 730 566 568 
3 731 572 574 
3 732 578 580 
3 733 584 586 
3 734 593 595 
3 735 599 601 
3 736 602 604 
3 737 605 607 
3 738 608 610 
3 739 611 613 
3 740 614 616 
3 741 617 619 
3 742 620 622 
3 743 623 625 
3 744 632 634 
3 745 635 637 
3 746 747 748 
3 749 750 751 
3 752 641 643 
3 753 644 646 
3 754 647 649 
3 755 650 652 
3 655 756 653 
3 653 757 654 
