ply
format ascii 1.0
comment VCGLIB generated
element vertex 569
property float x
property float y
property float z
property float nx
property float ny
property float nz
element face 260
property list uchar int vertex_indices
end_header
0.71087 -0.096607 0.49004 -0.378694 -1.13399 0.123048 
0.64906 -0.066738 0.5751 -0.305594 -0.915094 0.0992962 
0.61087 -0.066738 0.457541 -0.305591 -0.915085 0.0992952 
0.60572 0.013949 0.63476 -0.322145 -0.795278 0.841579 
0.64906 -0.066738 0.5751 -0.259956 -0.641751 0.679115 
0.71087 -0.00175404 0.66017 -0.259958 -0.641757 0.679121 
0.71087 -0.096607 0.49004 -0.234046 -1.134 -0.322146 
0.61087 -0.066738 0.457541 -0.188866 -0.915092 -0.259959 
0.71087 -0.066737 0.38489 -0.188863 -0.915077 -0.259955 
0.71087 -0.096607 0.49004 0.234047 -1.13399 -0.322145 
0.71087 -0.066737 0.38489 0.188864 -0.915074 -0.259954 
0.81087 -0.066738 0.457541 0.188868 -0.915097 -0.259961 
0.71087 -0.096607 0.49004 0.378695 -1.13399 0.123045 
0.81087 -0.066738 0.457541 0.305594 -0.915091 0.0992932 
0.77267 -0.066738 0.5751 0.305593 -0.915089 0.0992929 
0.60572 0.013949 0.63476 -0.322147 -0.397082 1.08767 
0.71087 -0.00175404 0.66017 -0.259965 -0.320437 0.877727 
0.64906 0.103393 0.68025 -0.259957 -0.320426 0.877698 
0.54074 0.013949 0.43476 -1.134 -0.397087 0.0297456 
0.54906 -0.00175504 0.54261 -0.915087 -0.32043 0.0240033 
0.51087 0.103393 0.49004 -0.915068 -0.320423 0.0240028 
0.71087 0.01395 0.31115 -0.378716 -0.397084 -1.06931 
0.61087 -0.00175404 0.3524 -0.305603 -0.320424 -0.862872 
0.64906 0.103393 0.29982 -0.305604 -0.320426 -0.862876 
0.881 0.013949 0.43476 0.899938 -0.397073 -0.690598 
0.81087 -0.00175404 0.3524 0.726224 -0.320427 -0.557293 
0.87267 0.103393 0.37248 0.726213 -0.320421 -0.557284 
0.81601 0.013949 0.63476 0.934893 -0.397079 0.6425 
0.87267 -0.00175504 0.54261 0.754423 -0.320428 0.518473 
0.87267 0.103393 0.60759 0.75441 -0.320422 0.518464 
0.60572 0.013949 0.63476 -0.700843 -0.150991 0.964623 
0.64906 0.103393 0.68025 -0.565556 -0.121844 0.778417 
0.54906 0.103393 0.60759 -0.565559 -0.121845 0.778421 
0.54074 0.013949 0.43476 -1.13398 -0.150981 -0.368456 
0.51087 0.103393 0.49004 -0.915093 -0.121838 -0.297335 
0.54906 0.103393 0.37248 -0.915089 -0.121837 -0.297334 
0.71087 0.01395 0.31115 0 -0.150981 -1.19233 
0.64906 0.103393 0.29982 0 -0.121838 -0.962188 
0.77267 0.103393 0.29982 0 -0.121838 -0.962184 
0.881 0.013949 0.43476 1.13398 -0.150981 -0.368456 
0.87267 0.103393 0.37248 0.915089 -0.121837 -0.297334 
0.91087 0.103393 0.49004 0.915093 -0.121838 -0.297335 
0.81601 0.013949 0.63476 0.700843 -0.150995 0.964614 
0.87267 0.103393 0.60759 0.565561 -0.121849 0.778418 
0.77267 0.103393 0.68025 0.565563 -0.121849 0.77842 
0.54074 0.192837 0.54531 -0.755281 0.795277 0.491505 
0.61087 0.20854 0.62767 -0.60948 0.641755 0.396624 
0.61087 0.273524 0.52253 -0.609483 0.641758 0.396626 
0.60572 0.192837 0.34531 -0.700841 0.795273 -0.56643 
0.54906 0.20854 0.43746 -0.565556 0.64176 -0.457091 
0.64906 0.273524 0.40497 -0.565553 0.641756 -0.457088 
0.81601 0.192837 0.34531 0.322138 0.795278 -0.841586 
0.71087 0.20854 0.319901 0.259953 0.641759 -0.679127 
0.77267 0.273524 0.40497 0.259947 0.641746 -0.679113 
0.881 0.192837 0.54531 0.899932 0.795276 0.0463087 
0.87267 0.20854 0.43746 0.726213 0.641759 0.0373694 
0.81087 0.273524 0.52253 0.726211 0.641757 0.0373693 
0.71087 0.192836 0.668921 0.234046 0.795267 0.870199 
0.81087 0.20854 0.62767 0.188868 0.641754 0.702222 
0.71087 0.273523 0.595181 0.188868 0.641756 0.702224 
0.71087 0.273523 0.595181 0.188864 0.915073 0.259955 
0.81087 0.273524 0.52253 0.188868 0.915093 0.259961 
0.71087 0.303393 0.49004 0.234048 1.134 0.322147 
0.71087 0.273523 0.595181 0.373666 0.832173 0.514305 
0.81087 0.20854 0.62767 0.37366 0.832161 0.514298 
0.81087 0.273524 0.52253 0.373658 0.832157 0.514295 
0.81087 0.20854 0.62767 0.609484 0.641759 0.396621 
0.881 0.192837 0.54531 0.755284 0.79528 0.4915 
0.81087 0.273524 0.52253 0.609481 0.641756 0.396619 
0.81087 0.273524 0.52253 0.305595 0.915098 -0.0992928 
0.77267 0.273524 0.40497 0.305589 0.915079 -0.0992908 
0.71087 0.303393 0.49004 0.378695 1.13399 -0.123044 
0.81087 0.273524 0.52253 0.6046 0.832163 -0.196444 
0.87267 0.20854 0.43746 0.604593 0.832153 -0.196442 
0.77267 0.273524 0.40497 0.604604 0.832168 -0.196446 
0.87267 0.20854 0.43746 0.565551 0.641751 -0.457094 
0.81601 0.192837 0.34531 0.70084 0.795267 -0.566438 
0.77267 0.273524 0.40497 0.565557 0.641757 -0.457098 
0.77267 0.273524 0.40497 0 0.915093 -0.321317 
0.64906 0.273524 0.40497 0 0.915097 -0.321318 
0.71087 0.303393 0.49004 0 1.13398 -0.398175 
0.77267 0.273524 0.40497 0 0.832162 -0.635717 
0.71087 0.20854 0.319901 0 0.832151 -0.635709 
0.64906 0.273524 0.40497 0 0.832165 -0.635719 
0.71087 0.20854 0.319901 -0.259952 0.641763 -0.679128 
0.60572 0.192837 0.34531 -0.322133 0.795274 -0.841577 
0.64906 0.273524 0.40497 -0.259948 0.641752 -0.679117 
0.64906 0.273524 0.40497 -0.30559 0.915084 -0.099294 
0.61087 0.273524 0.52253 -0.305592 0.915091 -0.0992948 
0.71087 0.303393 0.49004 -0.378694 1.13399 -0.123048 
0.64906 0.273524 0.40497 -0.604601 0.83216 -0.196451 
0.54906 0.20854 0.43746 -0.604597 0.832156 -0.196449 
0.61087 0.273524 0.52253 -0.604602 0.832162 -0.196451 
0.54906 0.20854 0.43746 -0.726216 0.641758 0.0373626 
0.54074 0.192837 0.54531 -0.89993 0.795269 0.0462999 
0.61087 0.273524 0.52253 -0.726216 0.641758 0.0373626 
0.61087 0.273524 0.52253 -0.188866 0.915088 0.259959 
0.71087 0.273523 0.595181 -0.188864 0.915077 0.259956 
0.71087 0.303393 0.49004 -0.234047 1.134 0.322148 
0.61087 0.273524 0.52253 -0.373656 0.832152 0.514295 
0.61087 0.20854 0.62767 -0.373662 0.832165 0.514303 
0.71087 0.273523 0.595181 -0.373664 0.83217 0.514307 
0.61087 0.20854 0.62767 -0.188868 0.641755 0.702223 
0.71087 0.192836 0.668921 -0.234047 0.795266 0.870199 
0.71087 0.273523 0.595181 -0.188869 0.641755 0.702224 
0.77267 0.103393 0.68025 0.305594 0.32043 0.862875 
0.81087 0.20854 0.62767 0.305595 0.320431 0.862878 
0.71087 0.192836 0.668921 0.378704 0.397089 1.06931 
0.77267 0.103393 0.68025 0.604603 0.196447 0.832153 
0.87267 0.103393 0.60759 0.604609 0.196449 0.832161 
0.81087 0.20854 0.62767 0.604603 0.196447 0.832153 
0.87267 0.103393 0.60759 0.726213 0.320421 0.557284 
0.881 0.192837 0.54531 0.899938 0.397073 0.690598 
0.81087 0.20854 0.62767 0.726224 0.320427 0.557293 
0.91087 0.103393 0.49004 0.915079 0.320424 -0.0239982 
0.87267 0.20854 0.43746 0.915086 0.320426 -0.0239983 
0.881 0.192837 0.54531 1.134 0.397081 -0.0297393 
0.91087 0.103393 0.49004 0.978257 0.196443 -0.317859 
0.87267 0.103393 0.37248 0.978272 0.196446 -0.317864 
0.87267 0.20854 0.43746 0.978258 0.196443 -0.317859 
0.87267 0.103393 0.37248 0.754422 0.320421 -0.518465 
0.81601 0.192837 0.34531 0.934884 0.397068 -0.642484 
0.87267 0.20854 0.43746 0.754436 0.320427 -0.518474 
0.77267 0.103393 0.29982 0.259945 0.32042 -0.877696 
0.71087 0.20854 0.319901 0.259953 0.320431 -0.877724 
0.81601 0.192837 0.34531 0.322139 0.397083 -1.08769 
0.77267 0.103393 0.29982 0 0.196454 -1.02861 
0.64906 0.103393 0.29982 0 0.196455 -1.02862 
0.71087 0.20854 0.319901 0 0.19645 -1.02859 
0.64906 0.103393 0.29982 -0.259945 0.32042 -0.877702 
0.60572 0.192837 0.34531 -0.322134 0.397077 -1.08768 
0.71087 0.20854 0.319901 -0.259953 0.32043 -0.877728 
0.54906 0.103393 0.37248 -0.754421 0.320422 -0.518454 
0.54906 0.20854 0.43746 -0.75444 0.32043 -0.518468 
0.60572 0.192837 0.34531 -0.934892 0.397072 -0.642478 
0.54906 0.103393 0.37248 -0.978273 0.196455 -0.317864 
0.51087 0.103393 0.49004 -0.978255 0.196451 -0.317858 
0.54906 0.20854 0.43746 -0.978255 0.196451 -0.317858 
0.51087 0.103393 0.49004 -0.915077 0.320428 -0.0240055 
0.54074 0.192837 0.54531 -1.134 0.397086 -0.0297486 
0.54906 0.20854 0.43746 -0.915082 0.32043 -0.0240057 
0.54906 0.103393 0.60759 -0.726211 0.320425 0.557288 
0.61087 0.20854 0.62767 -0.726218 0.320428 0.557294 
0.54074 0.192837 0.54531 -0.899935 0.397076 0.690602 
0.54906 0.103393 0.60759 -0.604602 0.19645 0.83216 
0.64906 0.103393 0.68025 -0.604599 0.196449 0.832156 
0.61087 0.20854 0.62767 -0.604602 0.19645 0.83216 
0.64906 0.103393 0.68025 -0.305594 0.320428 0.862874 
0.71087 0.192836 0.668921 -0.378707 0.397089 1.06931 
0.61087 0.20854 0.62767 -0.305595 0.320429 0.862876 
0.87267 0.103393 0.60759 0.915089 0.121838 0.297335 
0.91087 0.103393 0.49004 0.915096 0.121839 0.297337 
0.881 0.192837 0.54531 1.13397 0.150981 0.368456 
0.87267 0.103393 0.60759 0.97827 -0.196447 0.317864 
0.87267 -0.00175504 0.54261 0.978246 -0.196442 0.317856 
0.91087 0.103393 0.49004 0.978269 -0.196447 0.317864 
0.87267 -0.00175504 0.54261 0.91509 -0.320426 0.0239959 
0.881 0.013949 0.43476 1.134 -0.397081 0.0297364 
0.91087 0.103393 0.49004 0.91507 -0.32042 0.0239954 
0.87267 0.103393 0.37248 0.565558 0.121836 -0.778413 
0.77267 0.103393 0.29982 0.565567 0.121838 -0.778425 
0.81601 0.192837 0.34531 0.700845 0.15098 -0.964617 
0.87267 0.103393 0.37248 0.604609 -0.196449 -0.832161 
0.81087 -0.00175404 0.3524 0.604603 -0.196447 -0.832153 
0.77267 0.103393 0.29982 0.604603 -0.196447 -0.832153 
0.81087 -0.00175404 0.3524 0.305602 -0.320426 -0.862874 
0.71087 0.01395 0.31115 0.378714 -0.397084 -1.06931 
0.77267 0.103393 0.29982 0.305603 -0.320427 -0.862877 
0.64906 0.103393 0.29982 -0.56556 0.121833 -0.778423 
0.54906 0.103393 0.37248 -0.565556 0.121832 -0.778417 
0.60572 0.192837 0.34531 -0.700845 0.150976 -0.964626 
0.64906 0.103393 0.29982 -0.604599 -0.196449 -0.832156 
0.61087 -0.00175404 0.3524 -0.604602 -0.19645 -0.83216 
0.54906 0.103393 0.37248 -0.604602 -0.19645 -0.83216 
0.61087 -0.00175404 0.3524 -0.726218 -0.320428 -0.557294 
0.54074 0.013949 0.43476 -0.899934 -0.397076 -0.690602 
0.54906 0.103393 0.37248 -0.726211 -0.320425 -0.557289 
0.51087 0.103393 0.49004 -0.915096 0.121839 0.297337 
0.54906 0.103393 0.60759 -0.915089 0.121838 0.297335 
0.54074 0.192837 0.54531 -1.13397 0.150981 0.368456 
0.51087 0.103393 0.49004 -0.978267 -0.196455 0.317863 
0.54906 -0.00175504 0.54261 -0.978243 -0.196451 0.317855 
0.54906 0.103393 0.60759 -0.978271 -0.196456 0.317864 
0.54906 -0.00175504 0.54261 -0.754428 -0.320431 0.518466 
0.60572 0.013949 0.63476 -0.934901 -0.397084 0.642493 
0.54906 0.103393 0.60759 -0.75441 -0.320423 0.518454 
0.64906 0.103393 0.68025 0 0.121848 0.962187 
0.77267 0.103393 0.68025 0 0.121848 0.962184 
0.71087 0.192836 0.668921 0 0.150993 1.19233 
0.64906 0.103393 0.68025 0 -0.196455 1.02862 
0.71087 -0.00175404 0.66017 0 -0.19645 1.02859 
0.77267 0.103393 0.68025 0 -0.196454 1.02861 
0.71087 -0.00175404 0.66017 0.259966 -0.320438 0.877722 
0.81601 0.013949 0.63476 0.322151 -0.397088 1.08768 
0.77267 0.103393 0.68025 0.259957 -0.320426 0.877691 
0.77267 -0.066738 0.5751 0.565553 -0.641757 0.457105 
0.87267 -0.00175504 0.54261 0.565547 -0.641751 0.457101 
0.81601 0.013949 0.63476 0.700832 -0.795265 0.566444 
0.77267 -0.066738 0.5751 0.604596 -0.832169 0.196444 
0.81087 -0.066738 0.457541 0.604597 -0.832171 0.196445 
0.87267 -0.00175504 0.54261 0.604587 -0.832157 0.196442 
0.81087 -0.066738 0.457541 0.726209 -0.641757 -0.0373757 
0.881 0.013949 0.43476 0.899924 -0.795272 -0.0463164 
0.87267 -0.00175504 0.54261 0.726218 -0.641766 -0.0373762 
0.81087 -0.066738 0.457541 0.609481 -0.641756 -0.396619 
0.81087 -0.00175404 0.3524 0.609484 -0.641758 -0.396621 
0.881 0.013949 0.43476 0.755284 -0.79528 -0.4915 
0.81087 -0.066738 0.457541 0.373659 -0.832157 -0.514295 
0.71087 -0.066737 0.38489 0.373666 -0.832173 -0.514305 
0.81087 -0.00175404 0.3524 0.37366 -0.832161 -0.514297 
0.71087 -0.066737 0.38489 0.188873 -0.641761 -0.702221 
0.71087 0.01395 0.31115 0.23405 -0.795268 -0.870189 
0.81087 -0.00175404 0.3524 0.188873 -0.641761 -0.702221 
0.71087 -0.066737 0.38489 -0.188873 -0.64176 -0.70222 
0.61087 -0.00175404 0.3524 -0.188874 -0.641762 -0.702222 
0.71087 0.01395 0.31115 -0.234051 -0.795267 -0.870189 
0.71087 -0.066737 0.38489 -0.373664 -0.83217 -0.514307 
0.61087 -0.066738 0.457541 -0.373656 -0.832152 -0.514295 
0.61087 -0.00175404 0.3524 -0.373662 -0.832165 -0.514303 
0.61087 -0.066738 0.457541 -0.609483 -0.641758 -0.396626 
0.54074 0.013949 0.43476 -0.755281 -0.795277 -0.491505 
0.61087 -0.00175404 0.3524 -0.60948 -0.641755 -0.396624 
0.71087 -0.00175404 0.66017 0.259959 -0.641753 0.67912 
0.77267 -0.066738 0.5751 0.259956 -0.641745 0.679112 
0.81601 0.013949 0.63476 0.32215 -0.795282 0.841588 
0.71087 -0.00175404 0.66017 0 -0.83215 0.635701 
0.64906 -0.066738 0.5751 0 -0.83217 0.635716 
0.77267 -0.066738 0.5751 0 -0.832168 0.635714 
0.64906 -0.066738 0.5751 0 -0.915089 0.32132 
0.71087 -0.096607 0.49004 0 -1.13399 0.398186 
0.77267 -0.066738 0.5751 0 -0.915085 0.321319 
0.61087 -0.066738 0.457541 -0.726214 -0.641758 -0.037369 
0.54906 -0.00175504 0.54261 -0.726222 -0.641765 -0.0373694 
0.54074 0.013949 0.43476 -0.899923 -0.795265 -0.0463075 
0.61087 -0.066738 0.457541 -0.604599 -0.83217 0.196452 
0.64906 -0.066738 0.5751 -0.604593 -0.832161 0.196449 
0.54906 -0.00175504 0.54261 -0.604591 -0.83216 0.196449 
0.64906 -0.066738 0.5751 -0.565549 -0.641756 0.457095 
0.60572 0.013949 0.63476 -0.700834 -0.795271 0.566437 
0.54906 -0.00175504 0.54261 -0.565552 -0.64176 0.457098 
-1 1.36224 -0.68025 0 0 -1.5708 
1 1.36224 -0.68025 0 0 -1.5708 
1 -1.36224 -0.68025 0 0 -1.5708 
-1 -1.36224 -0.68025 0 0 -1.5708 
-1 1.36224 0.31975 -1.5708 0 0 
-1 1.36224 -0.68025 -1.5708 0 0 
-1 -1.36224 -0.68025 -1.5708 0 0 
-1 -1.36224 0.31975 -1.5708 0 0 
1 1.36224 -0.68025 0 1.5708 0 
-1 1.36224 -0.68025 0 1.5708 0 
-1 1.36224 0.31975 0 1.5708 0 
1 1.36224 0.31975 0 1.5708 0 
1 1.36224 -0.68025 1.5708 0 0 
1 1.36224 0.31975 1.5708 0 0 
1 -1.36224 0.31975 1.5708 0 0 
1 -1.36224 -0.68025 1.5708 0 0 
-1 -1.36224 -0.68025 0 -1.5708 0 
1 -1.36224 -0.68025 0 -1.5708 0 
1 -1.36224 0.31975 0 -1.5708 0 
-1 -1.36224 0.31975 0 -1.5708 0 
-1 1.36224 0.31975 0 0 1.5708 
0.33891 1.13289 0.31975 0 0 3.14159 
1 1.36224 0.31975 0 0 1.57079 
-0.0454597 0.999535 0.31975 0 0 3.8086 
0.16092 1.07114 0.31975 0 0 3.1416 
0.20954 1.13289 0.31975 0 0 4.04538 
-1 -1.36224 0.31975 0 0 1.5708 
-0.64046 -0.95612 0.31975 0 0 4.04538 
-0.74546 -0.822769 0.31975 0 0 3.8086 
-0.15046 1.13289 0.31975 0 0 4.04538 
-0.64046 -0.067114 0.31975 0 0 4.04538 
-0.64046 0.243881 0.31975 0 0 4.04538 
-0.74546 0.377231 0.31975 0 0 0.667012 
-0.64046 1.13289 0.31975 0 0 4.04538 
-0.74546 -0.200465 0.31975 0 0 3.8086 
-0.74546 0.999535 0.31975 0 0 3.8086 
-0.74546 -0.200465 0.31975 0 0 0 
-0.74546 0.377231 0.31975 0 0 0 
-0.74546 0.999535 0.31975 0 0 0 
0.69954 -0.95612 0.31975 0 0 4.04537 
0.63924 -0.95612 0.31975 0 0 3.14159 
1 -1.36224 0.31975 0 0 1.5708 
0.69954 1.13289 0.31975 0 0 4.04538 
0.80454 -0.822769 0.31975 0 0 3.80861 
0.80454 0.999535 0.31975 0 0 3.80861 
-0.15046 -0.067114 0.31975 0 0 4.04538 
0.10454 -0.35418 0.31975 0 0 3.14159 
0.10454 -0.200465 0.31975 0 0 3.80861 
0.80454 -0.200465 0.31975 0 0 3.80861 
0.20954 -0.067114 0.31975 0 0 0.903784 
0.80454 0.377231 0.31975 0 0 3.80861 
0.69954 -0.067114 0.31975 0 0 4.04538 
0.10454 0.999535 0.31975 0 0 3.8086 
-0.15046 0.243881 0.31975 0 0 4.04538 
-0.0454597 0.377231 0.31975 0 0 3.80861 
0.69954 0.24388 0.31975 0 0 4.04538 
0.10454 0.377231 0.31975 0 0 3.80861 
0.20954 0.24388 0.31975 0 0 4.04538 
-0.15046 -0.95612 0.31975 0 0 4.04538 
-0.0454597 -0.200465 0.31975 0 0 3.8086 
-0.0454597 -0.822769 0.31975 0 0 3.8086 
0.20954 -0.95612 0.31975 0 0 4.04538 
0.10454 -0.822769 0.31975 0 0 3.80861 
-0.74546 -0.822769 0.31975 1.23414 0.971756 0 
-0.64046 -0.95612 0.31975 1.23414 0.971755 0 
-0.64046 -0.95612 0.31686 1.23414 0.971756 0 
-0.74546 -0.822769 0.31686 1.23414 0.971755 0 
-0.74546 -0.200465 0.31975 1.57078 0 0 
-0.74546 -0.822769 0.31975 1.5708 0 0 
-0.74546 -0.822769 0.31686 1.57078 0 0 
-0.74546 -0.200465 0.31686 1.5708 0 0 
-0.64046 -0.067114 0.31975 1.23413 -0.971751 0 
-0.74546 -0.200465 0.31975 1.23414 -0.971754 0 
-0.74546 -0.200465 0.31686 1.23413 -0.971751 0 
-0.64046 -0.067114 0.31686 1.23414 -0.971754 0 
-0.74546 0.377231 0.31975 1.23413 0.971757 0 
-0.64046 0.243881 0.31975 1.23413 0.971759 0 
-0.64046 0.243881 0.31686 1.23413 0.971757 0 
-0.74546 0.377231 0.31686 1.23413 0.971759 0 
-0.74546 0.999535 0.31975 1.57081 0 0 
-0.74546 0.377231 0.31975 1.5708 0 0 
-0.74546 0.377231 0.31686 1.57081 0 0 
-0.74546 0.999535 0.31686 1.5708 0 0 
-0.64046 1.13289 0.31975 1.23414 -0.971755 0 
-0.74546 0.999535 0.31975 1.23414 -0.971754 0 
-0.74546 0.999535 0.31686 1.23414 -0.971755 0 
-0.64046 1.13289 0.31686 1.23414 -0.971754 0 
-0.15046 1.13289 0.31975 0 -1.5708 0 
-0.64046 1.13289 0.31975 0 -1.5708 0 
-0.64046 1.13289 0.31686 0 -1.5708 0 
-0.15046 1.13289 0.31686 0 -1.5708 0 
-0.0454597 0.999535 0.31975 -1.23414 -0.971755 0 
-0.15046 1.13289 0.31975 -1.23414 -0.971754 0 
-0.15046 1.13289 0.31686 -1.23414 -0.971755 0 
-0.0454597 0.999535 0.31686 -1.23414 -0.971754 0 
-0.0454597 0.377231 0.31975 -1.57081 0 0 
-0.0454597 0.999535 0.31975 -1.5708 0 0 
-0.0454597 0.999535 0.31686 -1.57081 0 0 
-0.0454597 0.377231 0.31686 -1.5708 0 0 
-0.15046 0.243881 0.31975 -1.23413 0.971757 0 
-0.0454597 0.377231 0.31975 -1.23413 0.971759 0 
-0.0454597 0.377231 0.31686 -1.23413 0.971757 0 
-0.15046 0.243881 0.31686 -1.23413 0.971759 0 
-0.64046 0.243881 0.31975 0 1.5708 0 
-0.15046 0.243881 0.31975 0 1.5708 0 
-0.15046 0.243881 0.31686 0 1.5708 0 
-0.64046 0.243881 0.31686 0 1.5708 0 
-0.15046 -0.067114 0.31975 0 -1.5708 0 
-0.64046 -0.067114 0.31975 0 -1.5708 0 
-0.64046 -0.067114 0.31686 0 -1.5708 0 
-0.15046 -0.067114 0.31686 0 -1.5708 0 
0.10454 -0.200465 0.31975 1.57078 0 0 
0.10454 -0.822769 0.31686 1.57072 0 0 
0.10454 -0.200465 0.31686 1.5708 0 0 
0.10454 -0.35418 0.31975 3.14159 0 0 
0.10454 -0.822769 0.31975 1.5708 0 0 
0.20954 -0.067114 0.31975 1.23413 -0.971759 0 
0.10454 -0.200465 0.31975 1.23413 -0.97176 0 
0.10454 -0.200465 0.31686 1.23413 -0.971759 0 
0.20954 -0.067114 0.31686 1.23413 -0.97176 0 
0.69954 -0.067114 0.31975 0 -1.5708 0 
0.20954 -0.067114 0.31975 0 -1.5708 0 
0.20954 -0.067114 0.31686 0 -1.5708 0 
0.69954 -0.067114 0.31686 0 -1.5708 0 
0.80454 -0.200465 0.31975 -1.23413 -0.971763 0 
0.69954 -0.067114 0.31975 -1.23413 -0.971761 0 
0.69954 -0.067114 0.31686 -1.23413 -0.971763 0 
0.80454 -0.200465 0.31686 -1.23413 -0.971761 0 
0.80454 -0.822769 0.31975 -1.57078 0 0 
0.80454 -0.200465 0.31975 -1.5708 0 0 
0.80454 -0.200465 0.31686 -1.57078 0 0 
0.80454 -0.822769 0.31686 -1.5708 0 0 
0.69954 -0.95612 0.31975 -1.23414 0.971767 0 
0.80454 -0.822769 0.31975 -1.23413 0.971761 0 
0.80454 -0.822769 0.31686 -1.23414 0.971767 0 
0.69954 -0.95612 0.31686 -1.23413 0.971761 0 
0.20954 -0.95612 0.31686 0 1.5708 0 
0.69954 -0.95612 0.31975 0 1.5708 0 
0.69954 -0.95612 0.31686 0 1.5708 0 
0.20954 -0.95612 0.31975 0 0 0 
0.63924 -0.95612 0.31975 0 0 0 
0.69954 -0.95612 0.31975 0 0 0 
0.20954 -0.95612 0.31975 0 1.5708 0 
0.10454 -0.822769 0.31975 1.23413 0.971757 0 
0.20954 -0.95612 0.31975 1.23413 0.97176 0 
0.20954 -0.95612 0.31686 1.23413 0.971757 0 
0.10454 -0.822769 0.31686 1.23413 0.97176 0 
-0.0454597 -0.200465 0.31975 -1.23413 -0.971751 0 
-0.15046 -0.067114 0.31975 -1.23414 -0.971754 0 
-0.15046 -0.067114 0.31686 -1.23413 -0.971751 0 
-0.0454597 -0.200465 0.31686 -1.23414 -0.971754 0 
-0.0454597 -0.822769 0.31975 -1.57078 0 0 
-0.0454597 -0.200465 0.31975 -1.5708 0 0 
-0.0454597 -0.200465 0.31686 -1.57078 0 0 
-0.0454597 -0.822769 0.31686 -1.5708 0 0 
-0.15046 -0.95612 0.31975 -1.23414 0.971756 0 
-0.0454597 -0.822769 0.31975 -1.23414 0.971755 0 
-0.0454597 -0.822769 0.31686 -1.23414 0.971756 0 
-0.15046 -0.95612 0.31686 -1.23414 0.971755 0 
-0.64046 -0.95612 0.31975 0 1.5708 0 
-0.15046 -0.95612 0.31975 0 1.5708 0 
-0.15046 -0.95612 0.31686 0 1.5708 0 
-0.64046 -0.95612 0.31686 0 1.5708 0 
-0.74546 -0.822769 0.31686 0.69073 0.543878 0.69073 
-0.64046 -0.95612 0.31686 0.559425 0.440489 0.559425 
-0.64046 -0.822769 0.21186 0.69073 0.543878 0.69073 
-0.74546 -0.822769 0.31686 1.11072 0 1.11072 
-0.64046 -0.822769 0.21186 1.11072 0 1.11072 
-0.64046 -0.200465 0.21186 1.11072 0 1.11072 
-0.74546 -0.200465 0.31686 1.11072 0 1.11072 
-0.74546 -0.200465 0.31686 0.69073 -0.543878 0.69073 
-0.64046 -0.200465 0.21186 0.69073 -0.543878 0.69073 
-0.64046 -0.067114 0.31686 0.559425 -0.440489 0.559425 
-0.74546 0.377231 0.31686 0.690728 0.54388 0.690728 
-0.64046 0.243881 0.31686 0.559426 0.440493 0.559426 
-0.64046 0.377231 0.21186 0.690728 0.54388 0.690728 
-0.74546 0.377231 0.31686 1.11072 0 1.11072 
-0.64046 0.377231 0.21186 1.11072 0 1.11072 
-0.64046 0.999535 0.21186 1.11072 0 1.11072 
-0.74546 0.999535 0.31686 1.11072 0 1.11072 
-0.74546 0.999535 0.31686 0.69073 -0.543878 0.69073 
-0.64046 0.999535 0.21186 0.69073 -0.543878 0.69073 
-0.64046 1.13289 0.31686 0.559425 -0.440489 0.559425 
-0.64046 1.13289 0.31686 0 -0.971754 1.23414 
-0.64046 0.999535 0.21186 0 -0.971754 1.23414 
-0.15046 0.999535 0.21186 0 -0.971754 1.23414 
-0.15046 1.13289 0.31686 0 -0.971754 1.23414 
-0.15046 1.13289 0.31686 -0.559425 -0.440489 0.559425 
-0.15046 0.999535 0.21186 -0.69073 -0.543878 0.69073 
-0.0454597 0.999535 0.31686 -0.69073 -0.543878 0.69073 
-0.0454597 0.999535 0.31686 -1.11072 0 1.11072 
-0.15046 0.999535 0.21186 -1.11072 0 1.11072 
-0.15046 0.377231 0.21186 -1.11072 0 1.11072 
-0.0454597 0.377231 0.31686 -1.11072 0 1.11072 
-0.0454597 0.377231 0.31686 -0.690728 0.54388 0.690728 
-0.15046 0.377231 0.21186 -0.690728 0.54388 0.690728 
-0.15046 0.243881 0.31686 -0.559426 0.440493 0.559426 
-0.15046 0.243881 0.31686 0 0.971759 1.23413 
-0.15046 0.377231 0.21186 0 0.971759 1.23413 
-0.64046 0.377231 0.21186 0 0.971759 1.23413 
-0.64046 0.243881 0.31686 0 0.971759 1.23413 
-0.64046 -0.067114 0.31686 0 -0.971755 1.23414 
-0.64046 -0.200465 0.21186 0 -0.971754 1.23414 
-0.15046 -0.200465 0.21186 0 -0.971755 1.23414 
-0.15046 -0.067114 0.31686 0 -0.971754 1.23414 
0.10454 -0.822769 0.31686 1.11072 0 1.11073 
0.20954 -0.822769 0.21186 1.11072 0 1.11073 
0.20954 -0.200465 0.21186 1.11072 0 1.11073 
0.10454 -0.200465 0.31686 1.11072 0 1.11073 
0.10454 -0.200465 0.31686 0.690723 -0.543878 0.69073 
0.20954 -0.200465 0.21186 0.690728 -0.543881 0.690734 
0.20954 -0.067114 0.31686 0.559423 -0.440492 0.559428 
0.20954 -0.067114 0.31686 0 -0.971754 1.23414 
0.20954 -0.200465 0.21186 0 -0.971754 1.23414 
0.69954 -0.200465 0.21186 0 -0.971754 1.23414 
0.69954 -0.067114 0.31686 0 -0.971754 1.23414 
0.69954 -0.067114 0.31686 -0.559423 -0.440492 0.559429 
0.69954 -0.200465 0.21186 -0.690727 -0.543882 0.690735 
0.80454 -0.200465 0.31686 -0.690722 -0.543877 0.690729 
0.80454 -0.200465 0.31686 -1.11071 0 1.11073 
0.69954 -0.200465 0.21186 -1.11071 0 1.11073 
0.69954 -0.822769 0.21186 -1.11071 0 1.11073 
0.80454 -0.822769 0.31686 -1.11071 0 1.11073 
0.80454 -0.822769 0.31686 -0.690722 0.543878 0.690729 
0.69954 -0.822769 0.21186 -0.690727 0.543882 0.690735 
0.69954 -0.95612 0.31686 -0.559423 0.440493 0.559429 
0.69954 -0.95612 0.31686 0 0.971755 1.23414 
0.69954 -0.822769 0.21186 0 0.971755 1.23414 
0.20954 -0.822769 0.21186 0 0.971755 1.23414 
0.20954 -0.95612 0.31686 0 0.971755 1.23414 
0.10454 -0.822769 0.31686 0.690723 0.543878 0.690729 
0.20954 -0.95612 0.31686 0.559423 0.440492 0.559429 
0.20954 -0.822769 0.21186 0.690728 0.543881 0.690734 
-0.15046 -0.067114 0.31686 -0.559425 -0.440489 0.559425 
-0.15046 -0.200465 0.21186 -0.69073 -0.543878 0.69073 
-0.0454597 -0.200465 0.31686 -0.69073 -0.543878 0.69073 
-0.0454597 -0.200465 0.31686 -1.11072 0 1.11072 
-0.15046 -0.200465 0.21186 -1.11072 0 1.11072 
-0.15046 -0.822769 0.21186 -1.11072 0 1.11072 
-0.0454597 -0.822769 0.31686 -1.11072 0 1.11072 
-0.0454597 -0.822769 0.31686 -0.69073 0.543878 0.69073 
-0.15046 -0.822769 0.21186 -0.69073 0.543878 0.69073 
-0.15046 -0.95612 0.31686 -0.559425 0.440489 0.559425 
-0.15046 -0.95612 0.31686 0 0.971755 1.23414 
-0.15046 -0.822769 0.21186 0 0.971755 1.23414 
-0.64046 -0.822769 0.21186 0 0.971755 1.23414 
-0.64046 -0.95612 0.31686 0 0.971755 1.23414 
-0.64046 -0.200465 0.21186 0 0 1.5708 
-0.64046 -0.822769 0.21186 0 0 1.5708 
-0.15046 -0.822769 0.21186 0 0 1.5708 
-0.15046 -0.200465 0.21186 0 0 1.5708 
-0.64046 0.999535 0.21186 0 0 1.5708 
-0.64046 0.377231 0.21186 0 0 1.5708 
-0.15046 0.377231 0.21186 0 0 1.5708 
-0.15046 0.999535 0.21186 0 0 1.5708 
0.20954 -0.200465 0.21186 0 0 1.5708 
0.20954 -0.822769 0.21186 0 0 1.5708 
0.69954 -0.822769 0.21186 0 0 1.5708 
0.69954 -0.200465 0.21186 0 0 1.5708 
0.20954 0.24388 0.31975 0 1.5708 0 
0.69954 0.24388 0.31975 0 1.5708 0 
0.69954 0.24388 0.31686 0 1.5708 0 
0.20954 0.24388 0.31686 0 1.5708 0 
0.10454 0.377231 0.31975 1.23413 0.971756 0 
0.20954 0.24388 0.31975 1.23413 0.97176 0 
0.20954 0.24388 0.31686 1.23413 0.971756 0 
0.10454 0.377231 0.31686 1.23413 0.97176 0 
0.69954 0.24388 0.31686 0 0.971754 1.23414 
0.69954 0.377231 0.21186 0 0.971754 1.23414 
0.20954 0.377231 0.21186 0 0.971754 1.23414 
0.20954 0.24388 0.31686 0 0.971754 1.23414 
0.69954 0.24388 0.31975 -1.23414 0.971766 0 
0.80454 0.377231 0.31975 -1.23413 0.971761 0 
0.80454 0.377231 0.31686 -1.23414 0.971766 0 
0.69954 0.24388 0.31686 -1.23413 0.971761 0 
0.10454 0.999535 0.31975 1.57081 0 0 
0.10454 0.377231 0.31975 1.5708 0 0 
0.10454 0.377231 0.31686 1.57081 0 0 
0.10454 0.999535 0.31686 1.5708 0 0 
0.10454 0.377231 0.31686 0.690723 0.543877 0.69073 
0.20954 0.24388 0.31686 0.559423 0.440492 0.559428 
0.20954 0.377231 0.21186 0.690728 0.543881 0.690734 
0.80454 0.377231 0.31686 -0.690722 0.543877 0.690729 
0.69954 0.377231 0.21186 -0.690727 0.543882 0.690735 
0.69954 0.24388 0.31686 -0.559423 0.440492 0.559429 
0.20954 0.999535 0.21186 0 0 1.5708 
0.20954 0.377231 0.21186 0 0 1.5708 
0.69954 0.377231 0.21186 0 0 1.5708 
0.69954 0.999535 0.21186 0 0 1.5708 
0.80454 0.377231 0.31975 -1.57081 0 0 
0.80454 0.999535 0.31975 -1.5708 0 0 
0.80454 0.999535 0.31686 -1.57081 0 0 
0.80454 0.377231 0.31686 -1.5708 0 0 
0.20954 1.13289 0.31975 1.22076 -0.961227 0 
0.10454 0.999535 0.31686 0.0133723 -0.0105294 0 
0.20954 1.13289 0.31686 1.23413 -0.97176 0 
0.16092 1.07114 0.31975 0.0249075 -0.0196122 0 
0.10454 0.999535 0.31975 1.23413 -0.971758 0 
0.10454 0.999535 0.31686 1.20923 -0.952145 0 
0.20954 1.13289 0.31975 0.013375 -0.0105316 1.71002e-006 
0.16092 1.07114 0.31975 2.44336 -1.92391 0.000312388 
0.10454 0.999535 0.31686 0.0115281 -0.00907732 1.4739e-006 
0.10454 0.377231 0.31686 1.11072 0 1.11073 
0.20954 0.377231 0.21186 1.11072 0 1.11073 
0.20954 0.999535 0.21186 1.11072 0 1.11073 
0.10454 0.999535 0.31686 1.11072 0 1.11073 
0.80454 0.999535 0.31686 -1.11071 0 1.11073 
0.69954 0.999535 0.21186 -1.11071 0 1.11073 
0.69954 0.377231 0.21186 -1.11071 0 1.11073 
0.80454 0.377231 0.31686 -1.11071 0 1.11073 
0.20954 1.13289 0.31686 0 -0.971754 1.23414 
0.20954 0.999535 0.21186 0 -0.971754 1.23414 
0.69954 0.999535 0.21186 0 -0.971754 1.23414 
0.69954 1.13289 0.31686 0 -0.971754 1.23414 
0.80454 0.999535 0.31975 -1.23413 -0.971762 0 
0.69954 1.13289 0.31975 -1.23413 -0.971761 0 
0.69954 1.13289 0.31686 -1.23413 -0.971762 0 
0.80454 0.999535 0.31686 -1.23413 -0.971761 0 
0.69954 1.13289 0.31975 0 -1.5708 0 
0.20954 1.13289 0.31686 0 -1.5708 0 
0.69954 1.13289 0.31686 0 -1.5708 0 
0.33891 1.13289 0.31975 0 -3.14159 0 
0.20954 1.13289 0.31975 0 -1.5708 0 
0.10454 0.999535 0.31686 0.690723 -0.543878 0.69073 
0.20954 0.999535 0.21186 0.690728 -0.543881 0.690734 
0.20954 1.13289 0.31686 0.559423 -0.440491 0.559428 
0.69954 1.13289 0.31686 -0.559423 -0.440492 0.559429 
0.69954 0.999535 0.21186 -0.690727 -0.543882 0.690735 
0.80454 0.999535 0.31686 -0.690722 -0.543877 0.690729 
3 0 1 2 
3 3 4 5 
3 6 7 8 
3 9 10 11 
3 12 13 14 
3 15 16 17 
3 18 19 20 
3 21 22 23 
3 24 25 26 
3 27 28 29 
3 30 31 32 
3 33 34 35 
3 36 37 38 
3 39 40 41 
3 42 43 44 
3 45 46 47 
3 48 49 50 
3 51 52 53 
3 54 55 56 
3 57 58 59 
3 60 61 62 
3 63 64 65 
3 66 67 68 
3 69 70 71 
3 72 73 74 
3 75 76 77 
3 78 79 80 
3 81 82 83 
3 84 85 86 
3 87 88 89 
3 90 91 92 
3 93 94 95 
3 96 97 98 
3 99 100 101 
3 102 103 104 
3 105 106 107 
3 108 109 110 
3 111 112 113 
3 114 115 116 
3 117 118 119 
3 120 121 122 
3 123 124 125 
3 126 127 128 
3 129 130 131 
3 132 133 134 
3 135 136 137 
3 138 139 140 
3 141 142 143 
3 144 145 146 
3 147 148 149 
3 150 151 152 
3 153 154 155 
3 156 157 158 
3 159 160 161 
3 162 163 164 
3 165 166 167 
3 168 169 170 
3 171 172 173 
3 174 175 176 
3 177 178 179 
3 180 181 182 
3 183 184 185 
3 186 187 188 
3 189 190 191 
3 192 193 194 
3 195 196 197 
3 198 199 200 
3 201 202 203 
3 204 205 206 
3 207 208 209 
3 210 211 212 
3 213 214 215 
3 216 217 218 
3 219 220 221 
3 222 223 224 
3 225 226 227 
3 228 229 230 
3 231 232 233 
3 234 235 236 
3 237 238 239 
3 240 241 242 
3 240 242 243 
3 244 245 246 
3 244 246 247 
3 248 249 250 
3 248 250 251 
3 252 253 254 
3 252 254 255 
3 256 257 258 
3 256 258 259 
3 260 261 262 
3 263 264 265 
3 260 265 261 
3 266 267 268 
3 269 263 265 
3 260 266 268 
3 260 269 265 
3 270 271 272 
3 260 273 269 
3 274 270 272 
3 260 275 273 
3 276 277 278 
3 260 268 274 
3 260 274 275 
3 279 280 281 
3 262 261 282 
3 283 279 281 
3 262 282 284 
3 262 283 281 
3 285 286 287 
3 262 288 283 
3 285 287 289 
3 262 284 290 
3 285 289 291 
3 262 290 288 
3 271 270 285 
3 290 291 288 
3 271 285 291 
3 292 264 263 
3 293 271 291 
3 292 263 294 
3 294 293 291 
3 290 295 291 
3 296 292 294 
3 295 297 291 
3 297 296 294 
3 297 294 291 
3 266 298 267 
3 286 285 299 
3 266 281 298 
3 286 299 300 
3 281 280 301 
3 302 286 300 
3 281 301 298 
3 302 300 298 
3 301 302 298 
3 303 304 305 
3 303 305 306 
3 307 308 309 
3 307 309 310 
3 311 312 313 
3 311 313 314 
3 315 316 317 
3 315 317 318 
3 319 320 321 
3 319 321 322 
3 323 324 325 
3 323 325 326 
3 327 328 329 
3 327 329 330 
3 331 332 333 
3 331 333 334 
3 335 336 337 
3 335 337 338 
3 339 340 341 
3 339 341 342 
3 343 344 345 
3 343 345 346 
3 347 348 349 
3 347 349 350 
3 351 352 353 
3 354 355 352 
3 351 354 352 
3 356 357 358 
3 356 358 359 
3 360 361 362 
3 360 362 363 
3 364 365 366 
3 364 366 367 
3 368 369 370 
3 368 370 371 
3 372 373 374 
3 372 374 375 
3 376 377 378 
3 379 380 381 
3 376 382 377 
3 383 384 385 
3 383 385 386 
3 387 388 389 
3 387 389 390 
3 391 392 393 
3 391 393 394 
3 395 396 397 
3 395 397 398 
3 399 400 401 
3 399 401 402 
3 403 404 405 
3 406 407 408 
3 406 408 409 
3 410 411 412 
3 413 414 415 
3 416 417 418 
3 416 418 419 
3 420 421 422 
3 423 424 425 
3 423 425 426 
3 427 428 429 
3 430 431 432 
3 430 432 433 
3 434 435 436 
3 437 438 439 
3 437 439 440 
3 441 442 443 
3 441 443 444 
3 445 446 447 
3 445 447 448 
3 449 450 451 
3 452 453 454 
3 452 454 455 
3 456 457 458 
3 459 460 461 
3 459 461 462 
3 463 464 465 
3 466 467 468 
3 466 468 469 
3 470 471 472 
3 473 474 475 
3 476 477 478 
3 476 478 479 
3 480 481 482 
3 483 484 485 
3 483 485 486 
3 487 488 489 
3 487 489 490 
3 491 492 493 
3 491 493 494 
3 495 496 497 
3 495 497 498 
3 499 500 501 
3 499 501 502 
3 503 504 505 
3 503 505 506 
3 507 508 509 
3 507 509 510 
3 511 512 513 
3 511 513 514 
3 515 516 517 
3 515 517 518 
3 519 520 521 
3 522 523 524 
3 525 526 527 
3 525 527 528 
3 529 530 531 
3 529 531 532 
3 533 534 535 
3 536 537 538 
3 539 540 541 
3 542 543 544 
3 542 544 545 
3 546 547 548 
3 546 548 549 
3 550 551 552 
3 550 552 553 
3 554 555 556 
3 554 556 557 
3 558 559 560 
3 561 562 559 
3 558 561 559 
3 563 564 565 
3 566 567 568 
