ply
format ascii 1.0
comment VCGLIB generated
element vertex 758
property float x
property float y
property float z
property float nx
property float ny
property float nz
element face 384
property list uchar int vertex_indices
end_header
0.710861 -0.0766089 0.231507 -0.284069 -0.850639 0.138454 
0.65524 -0.049727 0.282546 -0.406652 -1.21771 0.1982 
0.620862 -0.049727 0.212012 -0.292735 -0.876588 0.142678 
0.616231 0.022891 0.31834 -0.226056 -0.558067 0.885838 
0.65524 -0.049727 0.282546 -0.231839 -0.572343 0.908499 
0.710861 0.00875807 0.333585 -0.205141 -0.506435 0.80388 
0.710861 -0.0766089 0.231507 -0.236795 -1.14734 -0.488912 
0.620862 -0.049727 0.212012 -0.133183 -0.645311 -0.274984 
0.710861 -0.0497259 0.16842 -0.216036 -1.04675 -0.446049 
0.710861 -0.0766089 0.231507 0.236795 -1.14734 -0.488912 
0.710861 -0.0497259 0.16842 0.216036 -1.04675 -0.446049 
0.80086 -0.049727 0.212012 0.133183 -0.645311 -0.274984 
0.710861 -0.0766089 0.231507 0.284066 -0.850632 0.138449 
0.80086 -0.049727 0.212012 0.292737 -0.876599 0.142675 
0.766483 -0.049727 0.282546 0.40665 -1.21771 0.198194 
0.616231 0.022891 0.31834 -0.233043 -0.287252 1.18027 
0.710861 0.00875807 0.333585 -0.174762 -0.215414 0.885102 
0.65524 0.103391 0.345634 -0.18411 -0.226936 0.932445 
0.557744 0.022891 0.198341 -1.35583 -0.474762 0.0533468 
0.565239 0.00875807 0.263051 -0.969018 -0.339314 0.038127 
0.530861 0.103391 0.231507 -0.638175 -0.223465 0.0251097 
0.710861 0.022892 0.124176 -0.259072 -0.271649 -1.0973 
0.620862 0.00875807 0.148924 -0.227879 -0.238942 -0.96518 
0.65524 0.103391 0.11738 -0.214849 -0.22528 -0.909993 
0.863978 0.022891 0.198341 0.886417 -0.391111 -1.02032 
0.80086 0.00875807 0.148924 0.579747 -0.2558 -0.667326 
0.856484 0.103391 0.160973 0.512999 -0.226349 -0.590495 
0.805491 0.022891 0.31834 0.831695 -0.353251 0.857358 
0.856483 0.00875807 0.263051 0.740177 -0.31438 0.763016 
0.856484 0.103391 0.302041 0.525758 -0.223309 0.541981 
0.616231 0.022891 0.31834 -0.480363 -0.103487 0.991759 
0.65524 0.103391 0.345634 -0.453184 -0.0976316 0.935645 
0.565238 0.103391 0.302041 -0.429917 -0.0926189 0.887607 
0.557744 0.022891 0.198341 -0.804046 -0.107058 -0.39188 
0.530861 0.103391 0.231507 -0.978946 -0.130346 -0.477124 
0.565238 0.103391 0.160973 -1.02103 -0.135949 -0.497633 
0.710861 0.022892 0.124176 -5.25267e-008 -0.101454 -1.20167 
0.65524 0.103391 0.11738 -4.21551e-008 -0.0814219 -0.964396 
0.766483 0.103391 0.11738 -4.21547e-008 -0.0814212 -0.964388 
0.863978 0.022891 0.198341 0.804046 -0.107058 -0.39188 
0.856484 0.103391 0.160973 1.02103 -0.135949 -0.497633 
0.890862 0.103391 0.231507 0.978946 -0.130346 -0.477124 
0.805491 0.022891 0.31834 0.480364 -0.103489 0.99175 
0.856484 0.103391 0.302041 0.42992 -0.0926216 0.887605 
0.766483 0.103391 0.345634 0.453191 -0.0976351 0.93565 
0.557744 0.183891 0.264673 -0.566302 0.596282 0.552777 
0.620862 0.198024 0.31409 -0.707247 0.744689 0.690356 
0.620862 0.256509 0.251002 -0.521943 0.549575 0.509478 
0.616231 0.183891 0.144674 -0.733848 0.832739 -0.889682 
0.565239 0.198024 0.199963 -0.491278 0.557481 -0.595601 
0.65524 0.256509 0.180468 -0.395573 0.448879 -0.479573 
0.805491 0.183891 0.144674 0.226058 0.55807 -0.885847 
0.710861 0.198024 0.129429 0.205139 0.506428 -0.803875 
0.766483 0.256509 0.180468 0.231838 0.57234 -0.908499 
0.863978 0.183891 0.264673 0.893148 0.789282 0.0689356 
0.856483 0.198024 0.199963 0.928645 0.820651 0.0716753 
0.80086 0.256509 0.251002 0.528382 0.466935 0.0407819 
0.710861 0.18389 0.338838 0.197267 0.670334 1.10023 
0.80086 0.198024 0.31409 0.128766 0.437562 0.718176 
0.710861 0.256508 0.294594 0.149452 0.507856 0.833551 
0.710861 0.256508 0.294594 0.216036 1.04675 0.446049 
0.80086 0.256509 0.251002 0.133184 0.645311 0.274984 
0.710861 0.283391 0.231507 0.236796 1.14734 0.488912 
0.710861 0.256508 0.294594 0.263927 0.587798 0.544912 
0.80086 0.198024 0.31409 0.329133 0.733021 0.67954 
0.80086 0.256509 0.251002 0.389514 0.867495 0.804203 
0.80086 0.198024 0.31409 0.707247 0.744689 0.690356 
0.863978 0.183891 0.264673 0.566302 0.596282 0.552777 
0.80086 0.256509 0.251002 0.521943 0.549575 0.509478 
0.80086 0.256509 0.251002 0.292738 0.876599 -0.142675 
0.766483 0.256509 0.180468 0.406651 1.21771 -0.198194 
0.710861 0.283391 0.231507 0.284066 0.850632 -0.138449 
0.80086 0.256509 0.251002 0.7592 1.04496 -0.37002 
0.856483 0.198024 0.199963 0.438766 0.603916 -0.213847 
0.766483 0.256509 0.180468 0.577197 0.794452 -0.281315 
0.856483 0.198024 0.199963 0.491281 0.557478 -0.595604 
0.805491 0.183891 0.144674 0.733848 0.832728 -0.889679 
0.766483 0.256509 0.180468 0.395578 0.448879 -0.479578 
0.766483 0.256509 0.180468 -1.63694e-008 0.711018 -0.374488 
0.65524 0.256509 0.180468 -1.63696e-008 0.711025 -0.374492 
0.710861 0.283391 0.231507 -3.12548e-008 1.35758 -0.715027 
0.766483 0.256509 0.180468 -3.12558e-008 0.624009 -0.715049 
0.710861 0.198024 0.129429 -4.09534e-008 0.817619 -0.936905 
0.65524 0.256509 0.180468 -3.1256e-008 0.624014 -0.715055 
0.710861 0.198024 0.129429 -0.205141 0.506435 -0.80388 
0.616231 0.183891 0.144674 -0.226056 0.558067 -0.885838 
0.65524 0.256509 0.180468 -0.231839 0.572343 -0.908499 
0.65524 0.256509 0.180468 -0.406653 1.21771 -0.198201 
0.620862 0.256509 0.251002 -0.292735 0.876588 -0.142678 
0.710861 0.283391 0.231507 -0.284069 0.850638 -0.138454 
0.65524 0.256509 0.180468 -0.577188 0.794447 -0.281319 
0.565239 0.198024 0.199963 -0.438763 0.603917 -0.213851 
0.620862 0.256509 0.251002 -0.759199 1.04497 -0.37003 
0.565239 0.198024 0.199963 -0.928645 0.820651 0.0716753 
0.557744 0.183891 0.264673 -0.893148 0.789282 0.0689356 
0.620862 0.256509 0.251002 -0.528382 0.466935 0.0407819 
0.620862 0.256509 0.251002 -0.133184 0.645311 0.274984 
0.710861 0.256508 0.294594 -0.216036 1.04675 0.446049 
0.710861 0.283391 0.231507 -0.236796 1.14734 0.488912 
0.620862 0.256509 0.251002 -0.389514 0.867495 0.804203 
0.620862 0.198024 0.31409 -0.329133 0.733021 0.67954 
0.710861 0.256508 0.294594 -0.263927 0.587798 0.544912 
0.620862 0.198024 0.31409 -0.128766 0.437562 0.718176 
0.710861 0.18389 0.338838 -0.197267 0.670334 1.10023 
0.710861 0.256508 0.294594 -0.149452 0.507856 0.833551 
0.766483 0.103391 0.345634 0.214849 0.225282 0.909992 
0.80086 0.198024 0.31409 0.227881 0.238946 0.965187 
0.710861 0.18389 0.338838 0.25907 0.27165 1.09729 
0.766483 0.103391 0.345634 0.489197 0.158951 1.00999 
0.856484 0.103391 0.302041 0.451536 0.146714 0.932232 
0.80086 0.198024 0.31409 0.415209 0.134911 0.857233 
0.856484 0.103391 0.302041 0.512999 0.226352 0.590494 
0.863978 0.183891 0.264673 0.886415 0.391115 1.02032 
0.80086 0.198024 0.31409 0.579749 0.255804 0.667327 
0.890862 0.103391 0.231507 0.638175 0.223465 -0.0251097 
0.856483 0.198024 0.199963 0.969017 0.339313 -0.038127 
0.863978 0.183891 0.264673 1.35583 0.474762 -0.0533468 
0.890862 0.103391 0.231507 1.01439 0.203706 -0.494398 
0.856484 0.103391 0.160973 1.08038 0.216958 -0.526561 
0.856483 0.198024 0.199963 0.684345 0.137428 -0.333539 
0.856484 0.103391 0.160973 0.525759 0.223306 -0.541982 
0.805491 0.183891 0.144674 0.831694 0.353246 -0.857356 
0.856483 0.198024 0.199963 0.74018 0.314377 -0.763018 
0.766483 0.103391 0.11738 0.18411 0.226937 -0.932443 
0.710861 0.198024 0.129429 0.174761 0.215414 -0.885095 
0.805491 0.183891 0.144674 0.233045 0.287256 -1.18028 
0.766483 0.103391 0.11738 -4.52225e-008 0.131728 -1.03457 
0.65524 0.103391 0.11738 -4.52229e-008 0.131729 -1.03458 
0.710861 0.198024 0.129429 -4.57781e-008 0.133345 -1.04728 
0.65524 0.103391 0.11738 -0.18411 0.226936 -0.932445 
0.616231 0.183891 0.144674 -0.233043 0.287251 -1.18027 
0.710861 0.198024 0.129429 -0.174762 0.215414 -0.885102 
0.565238 0.103391 0.160973 -0.525759 0.223306 -0.541982 
0.565239 0.198024 0.199963 -0.74018 0.314377 -0.763018 
0.616231 0.183891 0.144674 -0.831694 0.353246 -0.857356 
0.565238 0.103391 0.160973 -1.08038 0.216958 -0.526561 
0.530861 0.103391 0.231507 -1.01439 0.203706 -0.494398 
0.565239 0.198024 0.199963 -0.684345 0.137428 -0.333539 
0.530861 0.103391 0.231507 -0.638175 0.223465 -0.0251097 
0.557744 0.183891 0.264673 -1.35583 0.474762 -0.0533466 
0.565239 0.198024 0.199963 -0.969017 0.339313 -0.038127 
0.565238 0.103391 0.302041 -0.512999 0.226352 0.590494 
0.620862 0.198024 0.31409 -0.579749 0.255804 0.667327 
0.557744 0.183891 0.264673 -0.886415 0.391115 1.02032 
0.565238 0.103391 0.302041 -0.451532 0.146712 0.932233 
0.65524 0.103391 0.345634 -0.48919 0.158948 1.00998 
0.620862 0.198024 0.31409 -0.415209 0.13491 0.857241 
0.65524 0.103391 0.345634 -0.214849 0.22528 0.909993 
0.710861 0.18389 0.338838 -0.259072 0.271649 1.0973 
0.620862 0.198024 0.31409 -0.227879 0.238942 0.96518 
0.856484 0.103391 0.302041 1.02102 0.13595 0.497628 
0.890862 0.103391 0.231507 0.978948 0.130348 0.477121 
0.863978 0.183891 0.264673 0.804051 0.10706 0.39188 
0.856484 0.103391 0.302041 1.08038 -0.216959 0.526556 
0.856483 0.00875807 0.263051 0.684349 -0.137429 0.333539 
0.890862 0.103391 0.231507 1.01439 -0.203708 0.494396 
0.856483 0.00875807 0.263051 0.969017 -0.339313 0.038127 
0.863978 0.022891 0.198341 1.35583 -0.474762 0.0533466 
0.890862 0.103391 0.231507 0.638175 -0.223465 0.0251097 
0.856484 0.103391 0.160973 0.429923 0.092619 -0.887602 
0.766483 0.103391 0.11738 0.453195 0.0976325 -0.935648 
0.805491 0.183891 0.144674 0.480369 0.103487 -0.99175 
0.856484 0.103391 0.160973 0.451539 -0.146712 -0.932229 
0.80086 0.00875807 0.148924 0.415214 -0.134909 -0.857233 
0.766483 0.103391 0.11738 0.489201 -0.158949 -1.00998 
0.80086 0.00875807 0.148924 0.22788 -0.238946 -0.965187 
0.710861 0.022892 0.124176 0.25907 -0.27165 -1.09729 
0.766483 0.103391 0.11738 0.214849 -0.225282 -0.909992 
0.65524 0.103391 0.11738 -0.453188 0.0976289 -0.935643 
0.565238 0.103391 0.160973 -0.42992 0.0926163 -0.887603 
0.616231 0.183891 0.144674 -0.480369 0.103484 -0.99176 
0.65524 0.103391 0.11738 -0.489194 -0.158945 -1.00998 
0.620862 0.00875807 0.148924 -0.415213 -0.134908 -0.857241 
0.565238 0.103391 0.160973 -0.451535 -0.14671 -0.93223 
0.620862 0.00875807 0.148924 -0.579747 -0.2558 -0.667326 
0.557744 0.022891 0.198341 -0.886417 -0.391111 -1.02032 
0.565238 0.103391 0.160973 -0.512999 -0.226349 -0.590495 
0.530861 0.103391 0.231507 -0.978948 0.130348 0.477121 
0.565238 0.103391 0.302041 -1.02102 0.13595 0.497628 
0.557744 0.183891 0.264673 -0.804051 0.10706 0.39188 
0.530861 0.103391 0.231507 -1.01439 -0.203708 0.494396 
0.565239 0.00875807 0.263051 -0.684349 -0.137429 0.333539 
0.565238 0.103391 0.302041 -1.08038 -0.216959 0.526556 
0.565239 0.00875807 0.263051 -0.740177 -0.31438 0.763016 
0.616231 0.022891 0.31834 -0.831695 -0.353251 0.857358 
0.565238 0.103391 0.302041 -0.525758 -0.223309 0.541981 
0.65524 0.103391 0.345634 4.21551e-008 0.0814219 0.964396 
0.766483 0.103391 0.345634 4.21547e-008 0.0814212 0.964388 
0.710861 0.18389 0.338838 5.25267e-008 0.101454 1.20167 
0.65524 0.103391 0.345634 4.52229e-008 -0.131729 1.03458 
0.710861 0.00875807 0.333585 4.57781e-008 -0.133345 1.04728 
0.766483 0.103391 0.345634 4.52225e-008 -0.131728 1.03457 
0.710861 0.00875807 0.333585 0.174761 -0.215414 0.885095 
0.805491 0.022891 0.31834 0.233045 -0.287256 1.18028 
0.766483 0.103391 0.345634 0.18411 -0.226937 0.932443 
0.766483 -0.049727 0.282546 0.395578 -0.448879 0.479578 
0.856483 0.00875807 0.263051 0.491281 -0.557478 0.595604 
0.805491 0.022891 0.31834 0.733848 -0.832728 0.889679 
0.766483 -0.049727 0.282546 0.577197 -0.794452 0.281315 
0.80086 -0.049727 0.212012 0.7592 -1.04496 0.37002 
0.856483 0.00875807 0.263051 0.438766 -0.603916 0.213847 
0.80086 -0.049727 0.212012 0.528382 -0.466935 -0.0407819 
0.863978 0.022891 0.198341 0.893148 -0.789282 -0.0689356 
0.856483 0.00875807 0.263051 0.928645 -0.820651 -0.0716753 
0.80086 -0.049727 0.212012 0.521943 -0.549575 -0.509478 
0.80086 0.00875807 0.148924 0.707247 -0.744689 -0.690356 
0.863978 0.022891 0.198341 0.566302 -0.596282 -0.552777 
0.80086 -0.049727 0.212012 0.389513 -0.867495 -0.804203 
0.710861 -0.0497259 0.16842 0.263926 -0.587798 -0.544912 
0.80086 0.00875807 0.148924 0.329133 -0.733021 -0.67954 
0.710861 -0.0497259 0.16842 0.149452 -0.507856 -0.833551 
0.710861 0.022892 0.124176 0.197266 -0.670335 -1.10023 
0.80086 0.00875807 0.148924 0.128766 -0.437562 -0.718175 
0.710861 -0.0497259 0.16842 -0.149452 -0.507856 -0.833551 
0.620862 0.00875807 0.148924 -0.128766 -0.437562 -0.718175 
0.710861 0.022892 0.124176 -0.197266 -0.670335 -1.10023 
0.710861 -0.0497259 0.16842 -0.263926 -0.587798 -0.544912 
0.620862 -0.049727 0.212012 -0.389513 -0.867495 -0.804203 
0.620862 0.00875807 0.148924 -0.329133 -0.733021 -0.67954 
0.620862 -0.049727 0.212012 -0.521943 -0.549575 -0.509478 
0.557744 0.022891 0.198341 -0.566302 -0.596282 -0.552777 
0.620862 0.00875807 0.148924 -0.707247 -0.744689 -0.690356 
0.710861 0.00875807 0.333585 0.205139 -0.506428 0.803875 
0.766483 -0.049727 0.282546 0.231838 -0.57234 0.908499 
0.805491 0.022891 0.31834 0.226058 -0.55807 0.885847 
0.710861 0.00875807 0.333585 4.09534e-008 -0.817619 0.936905 
0.65524 -0.049727 0.282546 3.1256e-008 -0.624014 0.715055 
0.766483 -0.049727 0.282546 3.12558e-008 -0.624009 0.715049 
0.65524 -0.049727 0.282546 1.63695e-008 -0.711025 0.374491 
0.710861 -0.0766089 0.231507 3.12548e-008 -1.35758 0.715026 
0.766483 -0.049727 0.282546 1.63693e-008 -0.711018 0.374487 
0.620862 -0.049727 0.212012 -0.528382 -0.466935 -0.0407819 
0.565239 0.00875807 0.263051 -0.928645 -0.820651 -0.0716753 
0.557744 0.022891 0.198341 -0.893148 -0.789282 -0.0689356 
0.620862 -0.049727 0.212012 -0.759199 -1.04497 0.37003 
0.65524 -0.049727 0.282546 -0.577188 -0.794447 0.281319 
0.565239 0.00875807 0.263051 -0.438763 -0.603917 0.213851 
0.65524 -0.049727 0.282546 -0.395572 -0.448879 0.479573 
0.616231 0.022891 0.31834 -0.733848 -0.832739 0.889682 
0.565239 0.00875807 0.263051 -0.491278 -0.557481 0.595601 
0.780861 0.103391 -0.00976327 1.56324 -0.153929 -6.83314e-008 
0.780861 0.103391 0.170237 1.56324 -0.153929 -6.83314e-008 
0.779516 0.089735 0.170237 1.56324 -0.153929 -6.83314e-008 
0.779516 0.089735 -0.00976327 1.50316 -0.455974 -6.57052e-008 
0.779516 0.089735 0.170237 1.50316 -0.455974 -6.57052e-008 
0.775533 0.0766031 0.170237 1.50316 -0.455974 -6.57052e-008 
0.775533 0.0766031 -0.00976327 1.38531 -0.740479 -6.05538e-008 
0.775533 0.0766031 0.170237 1.38531 -0.740479 -6.05538e-008 
0.769064 0.064501 0.170237 1.38531 -0.740479 -6.05538e-008 
0.769064 0.064501 -0.00976327 1.21423 -0.996516 -5.30757e-008 
0.769064 0.064501 0.170237 1.21423 -0.996516 -5.30757e-008 
0.760359 0.053894 0.170237 1.21423 -0.996516 -5.30757e-008 
0.760359 0.053894 -0.00976327 0.996587 -1.21417 -4.35622e-008 
0.760359 0.053894 0.170237 0.996587 -1.21417 -4.35622e-008 
0.749752 0.0451881 0.170237 0.996587 -1.21417 -4.35622e-008 
0.749752 0.0451881 -0.00976327 0.740449 -1.38533 -3.23661e-008 
0.749752 0.0451881 0.170237 0.740449 -1.38533 -3.23661e-008 
0.737649 0.0387191 0.170237 0.740449 -1.38533 -3.23661e-008 
0.737649 0.0387191 -0.00976327 0.45595 -1.50317 -1.99302e-008 
0.737649 0.0387191 0.170237 0.45595 -1.50317 -1.99302e-008 
0.724518 0.034736 0.170237 0.45595 -1.50317 -1.99302e-008 
0.724518 0.034736 -0.00976327 0.153963 -1.56323 -6.72994e-009 
0.724518 0.034736 0.170237 0.153963 -1.56323 -6.72994e-009 
0.710861 0.033391 0.170237 0.153963 -1.56323 -6.72994e-009 
0.710861 0.033391 -0.00976327 -0.153963 -1.56323 6.72994e-009 
0.710861 0.033391 0.170237 -0.153963 -1.56323 6.72994e-009 
0.697205 0.034736 0.170237 -0.153963 -1.56323 6.72994e-009 
0.697205 0.034736 -0.00976327 -0.45595 -1.50317 1.99302e-008 
0.697205 0.034736 0.170237 -0.45595 -1.50317 1.99302e-008 
0.684073 0.0387191 0.170237 -0.45595 -1.50317 1.99302e-008 
0.684073 0.0387191 -0.00976327 -0.740494 -1.3853 3.2368e-008 
0.684073 0.0387191 0.170237 -0.740494 -1.3853 3.2368e-008 
0.671971 0.0451881 0.170237 -0.740494 -1.3853 3.2368e-008 
0.671971 0.0451881 -0.00976327 -0.996533 -1.21422 4.35598e-008 
0.671971 0.0451881 0.170237 -0.996533 -1.21422 4.35598e-008 
0.661364 0.053894 0.170237 -0.996533 -1.21422 4.35598e-008 
0.661364 0.053894 -0.00976327 -1.21423 -0.996516 5.30757e-008 
0.661364 0.053894 0.170237 -1.21423 -0.996516 5.30757e-008 
0.652658 0.064501 0.170237 -1.21423 -0.996516 5.30757e-008 
0.652658 0.064501 -0.00976327 -1.38531 -0.740479 6.05538e-008 
0.652658 0.064501 0.170237 -1.38531 -0.740479 6.05538e-008 
0.64619 0.0766031 0.170237 -1.38531 -0.740479 6.05538e-008 
0.64619 0.0766031 -0.00976327 -1.50316 -0.455974 6.57052e-008 
0.64619 0.0766031 0.170237 -1.50316 -0.455974 6.57052e-008 
0.642206 0.089735 0.170237 -1.50316 -0.455974 6.57052e-008 
0.642206 0.089735 -0.00976327 -1.56324 -0.153929 6.83314e-008 
0.642206 0.089735 0.170237 -1.56324 -0.153929 6.83314e-008 
0.640862 0.103391 0.170237 -1.56324 -0.153929 6.83314e-008 
0.640862 0.103391 -0.00976327 -1.56324 0.153929 6.83314e-008 
0.640862 0.103391 0.170237 -1.56324 0.153929 6.83314e-008 
0.642206 0.117047 0.170237 -1.56324 0.153929 6.83314e-008 
0.642206 0.117047 -0.00976327 -1.50316 0.455974 6.57052e-008 
0.642206 0.117047 0.170237 -1.50316 0.455974 6.57052e-008 
0.64619 0.130179 0.170237 -1.50316 0.455974 6.57052e-008 
0.64619 0.130179 -0.00976327 -1.38531 0.740479 6.05538e-008 
0.64619 0.130179 0.170237 -1.38531 0.740479 6.05538e-008 
0.652658 0.142281 0.170237 -1.38531 0.740479 6.05538e-008 
0.652658 0.142281 -0.00976327 -1.21427 0.996465 5.0768e-006 
0.652658 0.142281 0.170237 -1.21423 0.996516 5.30757e-008 
0.661364 0.152888 0.170237 -1.21424 0.996516 3.08809e-007 
0.661364 0.152889 -0.00976327 -0.996472 1.21427 3.55181e-007 
0.661364 0.152888 0.170237 -0.996531 1.21421 6.47669e-006 
0.671971 0.161594 0.170237 -0.996529 1.21422 6.16509e-006 
0.671971 0.161594 -0.00976327 -0.740494 1.3853 3.2368e-008 
0.671971 0.161594 0.170237 -0.740494 1.3853 3.2368e-008 
0.684073 0.168063 0.170237 -0.740494 1.3853 3.2368e-008 
0.684073 0.168063 -0.00976327 -0.45595 1.50317 1.99302e-008 
0.684073 0.168063 0.170237 -0.45595 1.50317 1.99302e-008 
0.697205 0.172046 0.170237 -0.45595 1.50317 1.99302e-008 
0.697205 0.172046 -0.00976327 -0.153963 1.56323 6.72994e-009 
0.697205 0.172046 0.170237 -0.153963 1.56323 6.72994e-009 
0.710861 0.173391 0.170237 -0.153963 1.56323 6.72994e-009 
0.710861 0.173391 -0.00976327 0.153963 1.56323 -6.72994e-009 
0.710861 0.173391 0.170237 0.153963 1.56323 -6.72994e-009 
0.724518 0.172046 0.170237 0.153963 1.56323 -6.72994e-009 
0.724518 0.172046 -0.00976327 0.45595 1.50317 -1.99302e-008 
0.724518 0.172046 0.170237 0.45595 1.50317 -1.99302e-008 
0.737649 0.168063 0.170237 0.45595 1.50317 -1.99302e-008 
0.737649 0.168063 -0.00976327 0.740449 1.38533 -3.23661e-008 
0.737649 0.168063 0.170237 0.740449 1.38533 -3.23661e-008 
0.749752 0.161594 0.170237 0.740449 1.38533 -3.23661e-008 
0.749752 0.161594 -0.00976327 0.996587 1.21417 -4.35622e-008 
0.749752 0.161594 0.170237 0.996587 1.21417 -4.35622e-008 
0.760359 0.152888 0.170237 0.996587 1.21417 -4.35622e-008 
0.760359 0.152888 -0.00976327 1.21423 0.996516 -5.30757e-008 
0.760359 0.152888 0.170237 1.21423 0.996516 -5.30757e-008 
0.769064 0.142281 0.170237 1.21423 0.996516 -5.30757e-008 
0.769064 0.142281 -0.00976327 1.38531 0.740479 -6.05538e-008 
0.769064 0.142281 0.170237 1.38531 0.740479 -6.05538e-008 
0.775533 0.130179 0.170237 1.38531 0.740479 -6.05538e-008 
0.684073 0.0387191 0.170237 1.28739e-007 0 2.9452 
0.64619 0.130179 0.170237 1.2874e-007 0 2.94523 
0.640862 0.103391 0.170237 1.28743e-007 0 2.94529 
0.779516 0.117047 -0.00976327 0.0757207 0.00745606 -3.30986e-009 
0.779516 0.117047 0.170237 1.56324 0.153929 -6.83314e-008 
0.780861 0.103391 0.170237 1.48752 0.146473 -6.50216e-008 
0.775533 0.130179 -0.00976327 1.50316 0.455974 -6.57052e-008 
0.775533 0.130179 0.170237 1.50316 0.455974 -6.57052e-008 
0.779516 0.117047 0.170237 1.50316 0.455974 -6.57052e-008 
0.760359 0.152888 -0.00976327 -1.28744e-007 0 -2.94532 
0.769064 0.142281 -0.00976327 -1.28741e-007 0 -2.94524 
0.779516 0.117047 -0.00976327 -1.2874e-007 0 -2.94522 
0.779516 0.089735 -0.00976327 1.56324 -0.153929 -6.83314e-008 
0.775533 0.0766031 -0.00976327 1.50316 -0.455974 -6.57052e-008 
0.769064 0.064501 -0.00976327 1.38531 -0.740479 -6.05538e-008 
0.760359 0.053894 -0.00976327 1.21423 -0.996516 -5.30757e-008 
0.749752 0.0451881 -0.00976327 0.996587 -1.21417 -4.35622e-008 
0.737649 0.0387191 -0.00976327 0.740449 -1.38533 -3.23661e-008 
0.724518 0.034736 -0.00976327 0.45595 -1.50317 -1.99302e-008 
0.710861 0.033391 -0.00976327 0.153963 -1.56323 -6.72994e-009 
0.697205 0.034736 -0.00976327 -0.153963 -1.56323 6.72994e-009 
0.684073 0.0387191 -0.00976327 -0.45595 -1.50317 1.99302e-008 
0.671971 0.0451881 -0.00976327 -0.740494 -1.3853 3.2368e-008 
0.661364 0.053894 -0.00976327 -0.996533 -1.21422 4.35598e-008 
0.652658 0.064501 -0.00976327 -1.21423 -0.996516 5.30757e-008 
0.64619 0.0766031 -0.00976327 -1.38531 -0.740479 6.05538e-008 
0.642206 0.089735 -0.00976327 -1.50316 -0.455974 6.57052e-008 
0.640862 0.103391 -0.00976327 -1.56324 -0.153929 6.83314e-008 
0.642206 0.117047 -0.00976327 -1.56324 0.153929 6.83314e-008 
0.64619 0.130179 -0.00976327 -1.50316 0.455974 6.57052e-008 
0.652658 0.142281 -0.00976327 -1.38531 0.740479 6.05538e-008 
0.661364 0.152889 -0.00976327 -1.21427 0.99646 5.33251e-006 
0.671971 0.161594 -0.00976327 -0.996468 1.21427 4.3557e-008 
0.684073 0.168063 -0.00976327 -0.740494 1.3853 3.2368e-008 
0.697205 0.172046 -0.00976327 -0.45595 1.50317 1.99302e-008 
0.710861 0.173391 -0.00976327 -0.153963 1.56323 6.72994e-009 
0.724518 0.172046 -0.00976327 0.153963 1.56323 -6.72994e-009 
0.737649 0.168063 -0.00976327 0.45595 1.50317 -1.99302e-008 
0.749752 0.161594 -0.00976327 0.740449 1.38533 -3.23661e-008 
0.760359 0.152888 -0.00976327 0.996587 1.21417 -4.35622e-008 
0.769064 0.142281 -0.00976327 1.21423 0.996516 -5.30757e-008 
0.775533 0.130179 -0.00976327 1.38531 0.740479 -6.05538e-008 
0.780861 0.103391 0.170237 1.28743e-007 0 2.94529 
0.779516 0.117047 0.170237 1.2874e-007 0 2.94522 
0.779516 0.089735 0.170237 1.2874e-007 0 2.94522 
0.760359 0.152888 0.170237 1.28744e-007 0 2.94532 
0.737649 0.168063 0.170237 1.28741e-007 0 2.94524 
0.775533 0.130179 0.170237 1.2874e-007 0 2.94523 
0.769064 0.142281 0.170237 1.28741e-007 0 2.94524 
0.749752 0.161594 0.170237 1.28737e-007 0 2.94516 
0.710861 0.173391 0.170237 1.28741e-007 0 2.94525 
0.724518 0.172046 0.170237 1.28741e-007 0 2.94526 
0.684073 0.168063 0.170237 1.28739e-007 0 2.94521 
0.671971 0.161594 0.170237 1.28741e-007 0 2.94524 
0.697205 0.172046 0.170237 1.28741e-007 0 2.94526 
0.661364 0.152888 0.170237 1.28742e-007 0 2.94528 
0.652658 0.142281 0.170237 1.28741e-007 0 2.94524 
0.642206 0.117047 0.170237 1.2874e-007 0 2.94522 
0.642206 0.089735 0.170237 1.2874e-007 0 2.94522 
0.64619 0.0766031 0.170237 1.2874e-007 0 2.94523 
0.652658 0.064501 0.170237 1.28741e-007 0 2.94524 
0.661364 0.053894 0.170237 1.28742e-007 0 2.94528 
0.671971 0.0451881 0.170237 1.28741e-007 0 2.94524 
0.697205 0.034736 0.170237 1.28741e-007 0 2.94526 
0.710861 0.033391 0.170237 1.28741e-007 0 2.94525 
0.737649 0.0387191 0.170237 1.28741e-007 0 2.94524 
0.775533 0.0766031 0.170237 1.2874e-007 0 2.94523 
0.724518 0.034736 0.170237 1.28741e-007 0 2.94526 
0.749752 0.0451881 0.170237 1.28737e-007 0 2.94516 
0.760359 0.053894 0.170237 1.28744e-007 0 2.94532 
0.769064 0.064501 0.170237 1.28741e-007 0 2.94524 
0.780861 0.103391 -0.00976327 1.56324 0.153929 -6.83314e-008 
0.779516 0.117047 -0.00976327 1.48752 0.146473 -6.50216e-008 
0.780861 0.103391 0.170237 0.0757207 0.00745606 -3.30986e-009 
0.779516 0.117047 -0.00976327 1.50316 0.455974 -6.57052e-008 
0.780861 0.103391 -0.00976327 -1.28743e-007 0 -2.94529 
0.779516 0.089735 -0.00976327 -1.2874e-007 0 -2.94522 
0.775533 0.0766031 -0.00976327 -1.2874e-007 0 -2.94523 
0.769064 0.064501 -0.00976327 -1.28741e-007 0 -2.94524 
0.749752 0.0451881 -0.00976327 -1.28737e-007 0 -2.94516 
0.737649 0.0387191 -0.00976327 -1.28741e-007 0 -2.94524 
0.760359 0.053894 -0.00976327 -1.28744e-007 0 -2.94532 
0.724518 0.034736 -0.00976327 -1.28741e-007 0 -2.94526 
0.710861 0.033391 -0.00976327 -1.28741e-007 0 -2.94525 
0.697205 0.034736 -0.00976327 -1.28741e-007 0 -2.94526 
0.671971 0.0451881 -0.00976327 -1.28741e-007 0 -2.94524 
0.684073 0.0387191 -0.00976327 -1.28739e-007 0 -2.94521 
0.652658 0.064501 -0.00976327 -1.28741e-007 0 -2.94524 
0.642206 0.089735 -0.00976327 -1.2874e-007 0 -2.94522 
0.661364 0.053894 -0.00976327 -1.28742e-007 0 -2.94528 
0.64619 0.0766031 -0.00976327 -1.2874e-007 0 -2.94523 
0.640862 0.103391 -0.00976327 -1.28743e-007 0 -2.94529 
0.642206 0.117047 -0.00976327 -1.2874e-007 0 -2.94522 
0.652658 0.142281 -0.00976327 -1.28742e-007 0 -2.94528 
0.661364 0.152889 -0.00976327 -1.28738e-007 0 -2.94518 
0.671971 0.161594 -0.00976327 -1.28743e-007 0 -2.94529 
0.684073 0.168063 -0.00976327 -1.28739e-007 0 -2.94521 
0.697205 0.172046 -0.00976327 -1.28741e-007 0 -2.94526 
0.710861 0.173391 -0.00976327 -1.28741e-007 0 -2.94525 
0.724518 0.172046 -0.00976327 -1.28741e-007 0 -2.94526 
0.737649 0.168063 -0.00976327 -1.28741e-007 0 -2.94524 
0.64619 0.130179 -0.00976327 -1.2874e-007 0 -2.94523 
0.775533 0.130179 -0.00976327 -1.2874e-007 0 -2.94523 
0.749752 0.161594 -0.00976327 -1.28737e-007 0 -2.94516 
-1 1.36224 -0.345634 -6.86618e-008 0 -1.5708 
1 1.36224 -0.345634 -6.86618e-008 0 -1.5708 
1 -1.36224 -0.345634 -6.86618e-008 0 -1.5708 
-1 1.36224 0.0543656 -1.5708 0 6.86618e-008 
-1 1.36224 -0.345634 -1.5708 0 6.86618e-008 
-1 -1.36224 -0.345634 -1.5708 0 6.86618e-008 
-1 1.36224 0.0543656 0 1.5708 0 
1 1.36224 0.0543656 0 1.5708 0 
1 1.36224 -0.345634 0 1.5708 0 
1 1.36224 -0.345634 1.5708 0 -6.86618e-008 
1 1.36224 0.0543656 1.5708 0 -6.86618e-008 
1 -1.36224 0.0543656 1.5708 0 -6.86618e-008 
-1 -1.36224 -0.345634 0 -1.5708 -0 
1 -1.36224 -0.345634 0 -1.5708 -0 
1 -1.36224 0.0543656 0 -1.5708 -0 
-1 1.36224 0.0543656 6.86614e-008 0 1.57079 
-0.745459 0.999533 0.0543656 1.66479e-007 0 3.8086 
-0.640458 1.13288 0.0543656 1.76829e-007 0 4.04538 
0.804542 0.377229 0.0543656 1.66479e-007 0 3.8086 
0.699542 0.243878 0.0543656 1.76829e-007 0 4.04538 
0.699542 -0.0671159 0.0543656 1.76829e-007 0 4.04538 
0.209541 -0.956122 0.0543656 1.76829e-007 0 4.04538 
0.104541 -0.822771 0.0543656 1.66479e-007 0 3.8086 
-0.0454578 -0.822771 0.0543656 1.66479e-007 0 3.8086 
-0.745459 -0.822771 0.0543656 1.23414 0.97176 -5.3946e-008 
-0.640458 -0.956122 0.0543656 1.23414 0.971757 -5.3946e-008 
-0.640458 -0.956122 0.051475 1.23414 0.97176 -5.3946e-008 
-0.745459 -0.200467 0.0543656 1.57081 0 -6.86623e-008 
-0.745459 -0.822771 0.0543656 1.5708 0 -6.86618e-008 
-0.745459 -0.822771 0.051475 1.57081 0 -6.86623e-008 
-0.640458 -0.0671159 0.0543656 1.23414 -0.97176 -5.3946e-008 
-0.745459 -0.200467 0.0543656 1.23414 -0.971757 -5.3946e-008 
-0.745459 -0.200467 0.051475 1.23414 -0.97176 -5.3946e-008 
-0.745459 0.377229 0.0543656 1.23413 0.971754 -5.39455e-008 
-0.640458 0.243878 0.0543656 1.23413 0.971757 -5.39455e-008 
-0.640458 0.243878 0.051475 1.23413 0.971754 -5.39455e-008 
-0.745459 0.999533 0.0543656 1.57078 0 -6.8661e-008 
-0.745459 0.377229 0.0543656 1.5708 0 -6.86618e-008 
-0.745459 0.377229 0.051475 1.57078 0 -6.8661e-008 
-0.640458 1.13288 0.0543656 1.23414 -0.971758 -5.3946e-008 
-0.745459 0.999533 0.0543656 1.23414 -0.971757 -5.3946e-008 
-0.745459 0.999533 0.051475 1.23414 -0.971758 -5.3946e-008 
-0.150458 1.13288 0.0543656 0 -1.5708 -0 
-0.640458 1.13288 0.0543656 0 -1.5708 -0 
-0.640458 1.13288 0.051475 0 -1.5708 -0 
-0.0454578 0.999533 0.0543656 -1.23414 -0.971758 5.3946e-008 
-0.150458 1.13288 0.0543656 -1.23414 -0.971757 5.3946e-008 
-0.150458 1.13288 0.051475 -1.23414 -0.971758 5.3946e-008 
-0.0454578 0.377229 0.0543656 -1.57078 0 6.8661e-008 
-0.0454578 0.999533 0.0543656 -1.5708 0 6.86618e-008 
-0.0454578 0.999533 0.051475 -1.57078 0 6.8661e-008 
-0.150458 0.243878 0.0543656 -1.23413 0.971754 5.39455e-008 
-0.0454578 0.377229 0.0543656 -1.23413 0.971757 5.39455e-008 
-0.0454578 0.377229 0.051475 -1.23413 0.971754 5.39455e-008 
-0.640458 0.243878 0.0543656 0 1.5708 0 
-0.150458 0.243878 0.0543656 0 1.5708 0 
-0.150458 0.243878 0.051475 0 1.5708 0 
-0.150458 -0.0671159 0.0543656 0 -1.5708 -0 
-0.640458 -0.0671159 0.0543656 0 -1.5708 -0 
-0.640458 -0.0671159 0.051475 0 -1.5708 -0 
0.104541 -0.354181 0.0543656 3.14159 0 -1.37323e-007 
0.104541 -0.822771 0.051475 1.57079 0 -6.86614e-008 
0.104541 -0.200467 0.051475 1.5708 0 -6.86618e-008 
0.209541 -0.0671159 0.0543656 1.23414 -0.97176 -5.3946e-008 
0.104541 -0.200467 0.0543656 1.23414 -0.971757 -5.3946e-008 
0.104541 -0.200467 0.051475 1.23414 -0.97176 -5.3946e-008 
0.699542 -0.0671159 0.0543656 0 -1.5708 -0 
0.209541 -0.0671159 0.0543656 0 -1.5708 -0 
0.209541 -0.0671159 0.051475 0 -1.5708 -0 
0.804542 -0.200467 0.0543656 -1.23414 -0.971752 5.3946e-008 
0.699542 -0.0671159 0.0543656 -1.23414 -0.971751 5.3946e-008 
0.699542 -0.0671159 0.051475 -1.23414 -0.971752 5.3946e-008 
0.804542 -0.822771 0.0543656 -1.57081 0 6.86623e-008 
0.804542 -0.200467 0.0543656 -1.5708 0 6.86618e-008 
0.804542 -0.200467 0.051475 -1.57081 0 6.86623e-008 
0.699542 -0.956122 0.0543656 -1.23414 0.971752 5.3946e-008 
0.804542 -0.822771 0.0543656 -1.23414 0.971751 5.3946e-008 
0.804542 -0.822771 0.051475 -1.23414 0.971752 5.3946e-008 
0.639242 -0.956122 0.0543656 0 3.14159 0 
0.699542 -0.956122 0.051475 0 1.5708 0 
0.209541 -0.956122 0.051475 0 1.57079 0 
0.104541 -0.822771 0.0543656 1.23414 0.97176 -5.3946e-008 
0.209541 -0.956122 0.0543656 1.23414 0.971757 -5.3946e-008 
0.209541 -0.956122 0.051475 1.23414 0.97176 -5.3946e-008 
-0.0454578 -0.200467 0.0543656 -1.23414 -0.97176 5.3946e-008 
-0.150458 -0.0671159 0.0543656 -1.23414 -0.971757 5.3946e-008 
-0.150458 -0.0671159 0.051475 -1.23414 -0.97176 5.3946e-008 
-0.0454578 -0.822771 0.0543656 -1.57081 0 6.86623e-008 
-0.0454578 -0.200467 0.0543656 -1.5708 0 6.86618e-008 
-0.0454578 -0.200467 0.051475 -1.57081 0 6.86623e-008 
-0.150458 -0.956122 0.0543656 -1.23414 0.97176 5.3946e-008 
-0.0454578 -0.822771 0.0543656 -1.23414 0.971757 5.3946e-008 
-0.0454578 -0.822771 0.051475 -1.23414 0.97176 5.3946e-008 
-0.640458 -0.956122 0.0543656 0 1.5708 0 
-0.150458 -0.956122 0.0543656 0 1.5708 0 
-0.150458 -0.956122 0.051475 0 1.5708 0 
-0.640458 -0.956122 0.051475 0.559424 0.44049 0.559426 
-0.640458 -0.822771 -0.053525 0.690729 0.543879 0.690732 
-0.745459 -0.822771 0.051475 0.690727 0.543878 0.69073 
-0.745459 -0.822771 0.051475 1.11072 0 1.11072 
-0.640458 -0.822771 -0.053525 1.11072 0 1.11072 
-0.640458 -0.200467 -0.053525 1.11072 0 1.11072 
-0.640458 -0.200467 -0.053525 0.690729 -0.543879 0.690732 
-0.640458 -0.0671159 0.051475 0.559424 -0.44049 0.559426 
-0.745459 -0.200467 0.051475 0.690727 -0.543878 0.69073 
-0.640458 0.243878 0.051475 0.559424 0.44049 0.559427 
-0.640458 0.377229 -0.053525 0.690729 0.54388 0.690732 
-0.745459 0.377229 0.051475 0.690727 0.543878 0.69073 
-0.745459 0.377229 0.051475 1.11072 0 1.11072 
-0.640458 0.377229 -0.053525 1.11072 0 1.11072 
-0.640458 0.999533 -0.053525 1.11072 0 1.11072 
-0.640458 0.999533 -0.053525 0.690729 -0.54388 0.690732 
-0.640458 1.13288 0.051475 0.559424 -0.44049 0.559427 
-0.745459 0.999533 0.051475 0.690727 -0.543878 0.69073 
-0.640458 1.13288 0.051475 5.3946e-008 -0.971755 1.23414 
-0.640458 0.999533 -0.053525 5.3946e-008 -0.971754 1.23414 
-0.150458 0.999533 -0.053525 5.3946e-008 -0.971755 1.23414 
-0.150458 0.999533 -0.053525 -0.690729 -0.54388 0.690732 
-0.0454578 0.999533 0.051475 -0.690727 -0.543878 0.69073 
-0.150458 1.13288 0.051475 -0.559424 -0.44049 0.559427 
-0.0454578 0.999533 0.051475 -1.11072 0 1.11072 
-0.150458 0.999533 -0.053525 -1.11072 0 1.11072 
-0.150458 0.377229 -0.053525 -1.11072 0 1.11072 
-0.150458 0.377229 -0.053525 -0.690729 0.54388 0.690732 
-0.150458 0.243878 0.051475 -0.559424 0.44049 0.559427 
-0.0454578 0.377229 0.051475 -0.690727 0.543878 0.69073 
-0.150458 0.243878 0.051475 5.3946e-008 0.971755 1.23414 
-0.150458 0.377229 -0.053525 5.3946e-008 0.971755 1.23414 
-0.640458 0.377229 -0.053525 5.3946e-008 0.971755 1.23414 
-0.640458 -0.0671159 0.051475 5.3946e-008 -0.971754 1.23414 
-0.640458 -0.200467 -0.053525 5.3946e-008 -0.971754 1.23414 
-0.150458 -0.200467 -0.053525 5.3946e-008 -0.971754 1.23414 
0.104541 -0.822771 0.051475 1.11072 0 1.11072 
0.209541 -0.822771 -0.053525 1.11072 0 1.11072 
0.209541 -0.200467 -0.053525 1.11072 0 1.11072 
0.209541 -0.200467 -0.053525 0.690729 -0.543879 0.690732 
0.209541 -0.0671159 0.051475 0.559424 -0.44049 0.559426 
0.104541 -0.200467 0.051475 0.690727 -0.543878 0.69073 
0.209541 -0.0671159 0.051475 5.3946e-008 -0.971754 1.23414 
0.209541 -0.200467 -0.053525 5.3946e-008 -0.971754 1.23414 
0.699542 -0.200467 -0.053525 5.3946e-008 -0.971754 1.23414 
0.699542 -0.200467 -0.053525 -0.690732 -0.543876 0.690729 
0.804542 -0.200467 0.051475 -0.690734 -0.543878 0.690731 
0.699542 -0.0671159 0.051475 -0.559425 -0.440487 0.559423 
0.804542 -0.200467 0.051475 -1.11072 0 1.11072 
0.699542 -0.200467 -0.053525 -1.11072 0 1.11072 
0.699542 -0.822771 -0.053525 -1.11072 0 1.11072 
0.699542 -0.822771 -0.053525 -0.690732 0.543876 0.690729 
0.699542 -0.956122 0.051475 -0.559425 0.440487 0.559423 
0.804542 -0.822771 0.051475 -0.690734 0.543878 0.690731 
0.699542 -0.956122 0.051475 5.3946e-008 0.971754 1.23414 
0.699542 -0.822771 -0.053525 5.3946e-008 0.971754 1.23414 
0.209541 -0.822771 -0.053525 5.3946e-008 0.971754 1.23414 
0.209541 -0.956122 0.051475 0.559424 0.44049 0.559426 
0.209541 -0.822771 -0.053525 0.690729 0.543879 0.690732 
0.104541 -0.822771 0.051475 0.690727 0.543878 0.69073 
-0.150458 -0.200467 -0.053525 -0.690729 -0.543879 0.690732 
-0.0454578 -0.200467 0.051475 -0.690727 -0.543878 0.69073 
-0.150458 -0.0671159 0.051475 -0.559424 -0.44049 0.559426 
-0.0454578 -0.200467 0.051475 -1.11072 0 1.11072 
-0.150458 -0.200467 -0.053525 -1.11072 0 1.11072 
-0.150458 -0.822771 -0.053525 -1.11072 0 1.11072 
-0.150458 -0.822771 -0.053525 -0.690729 0.543879 0.690732 
-0.150458 -0.956122 0.051475 -0.559424 0.44049 0.559426 
-0.0454578 -0.822771 0.051475 -0.690727 0.543878 0.69073 
-0.150458 -0.956122 0.051475 5.3946e-008 0.971754 1.23414 
-0.150458 -0.822771 -0.053525 5.3946e-008 0.971754 1.23414 
-0.640458 -0.822771 -0.053525 5.3946e-008 0.971754 1.23414 
-0.640458 -0.200467 -0.053525 6.86618e-008 0 1.5708 
-0.640458 -0.822771 -0.053525 6.86618e-008 0 1.5708 
-0.150458 -0.822771 -0.053525 6.86618e-008 0 1.5708 
-0.640458 0.999533 -0.053525 6.86618e-008 0 1.5708 
-0.640458 0.377229 -0.053525 6.86618e-008 0 1.5708 
-0.150458 0.377229 -0.053525 6.86618e-008 0 1.5708 
0.209541 -0.200467 -0.053525 6.86618e-008 0 1.5708 
0.209541 -0.822771 -0.053525 6.86618e-008 0 1.5708 
0.699542 -0.822771 -0.053525 6.86618e-008 0 1.5708 
0.209541 0.243878 0.0543656 0 1.5708 0 
0.699542 0.243878 0.0543656 0 1.5708 0 
0.699542 0.243878 0.051475 0 1.5708 0 
0.104541 0.377229 0.0543656 1.23413 0.971754 -5.39455e-008 
0.209541 0.243878 0.0543656 1.23413 0.971757 -5.39455e-008 
0.209541 0.243878 0.051475 1.23413 0.971754 -5.39455e-008 
0.699542 0.243878 0.051475 5.3946e-008 0.971754 1.23414 
0.699542 0.377229 -0.053525 5.3946e-008 0.971755 1.23414 
0.209541 0.377229 -0.053525 5.3946e-008 0.971754 1.23414 
0.699542 0.243878 0.0543656 -1.23414 0.971755 5.3946e-008 
0.804542 0.377229 0.0543656 -1.23414 0.971752 5.3946e-008 
0.804542 0.377229 0.051475 -1.23414 0.971755 5.3946e-008 
0.104541 0.999533 0.0543656 1.57078 0 -6.8661e-008 
0.104541 0.377229 0.0543656 1.5708 0 -6.86618e-008 
0.104541 0.377229 0.051475 1.57078 0 -6.8661e-008 
0.209541 0.243878 0.051475 0.559424 0.44049 0.559427 
0.209541 0.377229 -0.053525 0.690729 0.54388 0.690732 
0.104541 0.377229 0.051475 0.690727 0.543878 0.69073 
0.699542 0.377229 -0.053525 -0.690731 0.543877 0.690728 
0.699542 0.243878 0.051475 -0.559426 0.440488 0.559423 
0.804542 0.377229 0.051475 -0.690734 0.543878 0.690731 
0.209541 0.999533 -0.053525 6.86618e-008 0 1.5708 
0.209541 0.377229 -0.053525 6.86618e-008 0 1.5708 
0.699542 0.377229 -0.053525 6.86618e-008 0 1.5708 
0.804542 0.377229 0.0543656 -1.57078 0 6.8661e-008 
0.804542 0.999533 0.0543656 -1.5708 0 6.86618e-008 
0.804542 0.999533 0.051475 -1.57078 0 6.8661e-008 
0.160919 1.07113 0.0543656 2.41448 -1.90116 -0.000471174 
0.104541 0.999533 0.051475 0.0249104 -0.0196145 -4.86115e-006 
0.209541 1.13288 0.051475 0.0288811 -0.022741 -5.636e-006 
0.104541 0.377229 0.051475 1.11072 0 1.11072 
0.209541 0.377229 -0.053525 1.11072 0 1.11072 
0.209541 0.999533 -0.053525 1.11072 0 1.11072 
0.804542 0.999533 0.051475 -1.11072 0 1.11072 
0.699542 0.999533 -0.053525 -1.11072 0 1.11072 
0.699542 0.377229 -0.053525 -1.11072 0 1.11072 
0.209541 1.13288 0.051475 5.3946e-008 -0.971754 1.23414 
0.209541 0.999533 -0.053525 5.3946e-008 -0.971754 1.23414 
0.699542 0.999533 -0.053525 5.3946e-008 -0.971754 1.23414 
0.804542 0.999533 0.0543656 -1.23414 -0.97175 5.3946e-008 
0.699542 1.13288 0.0543656 -1.23414 -0.971752 5.3946e-008 
0.699542 1.13288 0.051475 -1.23414 -0.97175 5.3946e-008 
0.338905 1.13288 0.0543656 0 -3.14159 -0 
0.209541 1.13288 0.051475 0 -1.5708 -0 
0.699542 1.13288 0.051475 0 -1.5708 -0 
0.209541 0.999533 -0.053525 0.690729 -0.54388 0.690732 
0.209541 1.13288 0.051475 0.559424 -0.44049 0.559427 
0.104541 0.999533 0.051475 0.690727 -0.543878 0.69073 
0.699542 0.999533 -0.053525 -0.690731 -0.543877 0.690728 
0.804542 0.999533 0.051475 -0.690734 -0.543878 0.690731 
0.699542 1.13288 0.051475 -0.559426 -0.440487 0.559423 
-1 -1.36224 -0.345634 -6.86618e-008 0 -1.5708 
-1 -1.36224 0.0543656 -1.5708 0 6.86618e-008 
-1 1.36224 -0.345634 0 1.5708 0 
1 -1.36224 -0.345634 1.5708 0 -6.86618e-008 
-1 -1.36224 0.0543656 0 -1.5708 -0 
-1 -1.36224 0.0543656 6.86618e-008 0 1.5708 
-0.640458 -0.956122 0.0543656 1.76829e-007 0 4.04538 
-0.745459 -0.822771 0.0543656 1.66479e-007 0 3.8086 
-0.640458 0.243878 0.0543656 1.76829e-007 0 4.04538 
-0.745459 0.377229 0.0543656 1.66479e-007 0 3.8086 
-0.640458 -0.0671159 0.0543656 1.76829e-007 0 4.04538 
-0.150458 1.13288 0.0543656 1.76829e-007 0 4.04538 
-0.0454578 0.999533 0.0543656 1.66479e-007 0 3.8086 
0.160919 1.07113 0.0543656 1.37323e-007 0 3.14158 
0.209541 1.13288 0.0543656 1.76829e-007 0 4.04538 
0.338905 1.13288 0.0543656 1.37323e-007 0 3.14159 
1 1.36224 0.0543656 6.86618e-008 0 1.5708 
-0.745459 -0.200467 0.0543656 1.66479e-007 0 3.8086 
0.699542 1.13288 0.0543656 1.76829e-007 0 4.04538 
0.104541 0.999533 0.0543656 1.6648e-007 0 3.80861 
-0.150458 0.243878 0.0543656 1.76829e-007 0 4.04538 
-0.150458 -0.0671159 0.0543656 1.76829e-007 0 4.04538 
0.104541 -0.354181 0.0543656 1.37323e-007 0 3.14159 
0.104541 -0.200467 0.0543656 1.66479e-007 0 3.8086 
0.699542 -0.956122 0.0543656 1.76829e-007 0 4.04538 
0.639242 -0.956122 0.0543656 1.37323e-007 0 3.14159 
1 -1.36224 0.0543656 6.86618e-008 0 1.5708 
0.804542 0.999533 0.0543656 1.66479e-007 0 3.8086 
0.104541 0.377229 0.0543656 1.66479e-007 0 3.8086 
0.209541 -0.0671159 0.0543656 1.76829e-007 0 4.04538 
0.804542 -0.822771 0.0543656 1.66479e-007 0 3.8086 
-0.0454578 0.377229 0.0543656 1.66479e-007 0 3.8086 
-0.150458 -0.956122 0.0543656 1.76829e-007 0 4.04538 
0.804542 -0.200467 0.0543656 1.66479e-007 0 3.8086 
0.209541 0.243878 0.0543656 1.76829e-007 0 4.04538 
-0.0454578 -0.200467 0.0543656 1.66479e-007 0 3.8086 
-0.745459 -0.822771 0.051475 1.23414 0.971757 -5.3946e-008 
-0.745459 -0.200467 0.051475 1.5708 0 -6.86618e-008 
-0.640458 -0.0671159 0.051475 1.23414 -0.971757 -5.3946e-008 
-0.745459 0.377229 0.051475 1.23413 0.971757 -5.39455e-008 
-0.745459 0.999533 0.051475 1.5708 0 -6.86618e-008 
-0.640458 1.13288 0.051475 1.23414 -0.971757 -5.3946e-008 
-0.150458 1.13288 0.051475 0 -1.5708 -0 
-0.0454578 0.999533 0.051475 -1.23414 -0.971757 5.3946e-008 
-0.0454578 0.377229 0.051475 -1.5708 0 6.86618e-008 
-0.150458 0.243878 0.051475 -1.23413 0.971757 5.39455e-008 
-0.640458 0.243878 0.051475 0 1.5708 0 
-0.150458 -0.0671159 0.051475 0 -1.5708 -0 
0.104541 -0.200467 0.0543656 1.5708 0 -6.86618e-008 
0.104541 -0.822771 0.0543656 1.5708 0 -6.86618e-008 
0.209541 -0.0671159 0.051475 1.23414 -0.971757 -5.3946e-008 
0.699542 -0.0671159 0.051475 0 -1.5708 -0 
0.804542 -0.200467 0.051475 -1.23414 -0.971751 5.3946e-008 
0.804542 -0.822771 0.051475 -1.5708 0 6.86618e-008 
0.699542 -0.956122 0.051475 -1.23414 0.971751 5.3946e-008 
0.209541 -0.956122 0.0543656 0 1.5708 0 
0.699542 -0.956122 0.0543656 0 1.5708 0 
0.104541 -0.822771 0.051475 1.23414 0.971757 -5.3946e-008 
-0.0454578 -0.200467 0.051475 -1.23414 -0.971757 5.3946e-008 
-0.0454578 -0.822771 0.051475 -1.5708 0 6.86618e-008 
-0.150458 -0.956122 0.051475 -1.23414 0.971757 5.3946e-008 
-0.640458 -0.956122 0.051475 0 1.5708 0 
-0.745459 -0.200467 0.051475 1.11072 0 1.11072 
-0.745459 0.999533 0.051475 1.11072 0 1.11072 
-0.150458 1.13288 0.051475 5.3946e-008 -0.971754 1.23414 
-0.0454578 0.377229 0.051475 -1.11072 0 1.11072 
-0.640458 0.243878 0.051475 5.3946e-008 0.971755 1.23414 
-0.150458 -0.0671159 0.051475 5.3946e-008 -0.971754 1.23414 
0.104541 -0.200467 0.051475 1.11072 0 1.11072 
0.699542 -0.0671159 0.051475 5.3946e-008 -0.971754 1.23414 
0.804542 -0.822771 0.051475 -1.11072 0 1.11072 
0.209541 -0.956122 0.051475 5.3946e-008 0.971754 1.23414 
-0.0454578 -0.822771 0.051475 -1.11072 0 1.11072 
-0.640458 -0.956122 0.051475 5.3946e-008 0.971754 1.23414 
-0.150458 -0.200467 -0.053525 6.86618e-008 0 1.5708 
-0.150458 0.999533 -0.053525 6.86618e-008 0 1.5708 
0.699542 -0.200467 -0.053525 6.86618e-008 0 1.5708 
0.209541 0.243878 0.051475 0 1.5708 0 
0.104541 0.377229 0.051475 1.23413 0.971757 -5.39455e-008 
0.209541 0.243878 0.051475 5.3946e-008 0.971755 1.23414 
0.699542 0.243878 0.051475 -1.23414 0.971752 5.3946e-008 
0.104541 0.999533 0.051475 1.5708 0 -6.86618e-008 
0.699542 0.999533 -0.053525 6.86618e-008 0 1.5708 
0.804542 0.377229 0.051475 -1.5708 0 6.86618e-008 
0.209541 1.13288 0.051475 1.20526 -0.949008 -5.26836e-008 
0.209541 1.13288 0.0543656 1.23414 -0.97175 -5.3946e-008 
0.160919 1.07113 0.0543656 0.0288825 -0.0227418 -1.26249e-009 
0.160919 1.07113 0.0543656 0.0249118 -0.0196157 -1.08893e-009 
0.104541 0.999533 0.0543656 1.23413 -0.971763 -5.39455e-008 
0.104541 0.999533 0.051475 1.20922 -0.952147 -5.28567e-008 
0.104541 0.999533 0.051475 1.11072 0 1.11072 
0.804542 0.377229 0.051475 -1.11072 0 1.11072 
0.699542 1.13288 0.051475 5.3946e-008 -0.971754 1.23414 
0.804542 0.999533 0.051475 -1.23414 -0.971752 5.3946e-008 
0.699542 1.13288 0.0543656 0 -1.5708 -0 
0.209541 1.13288 0.0543656 0 -1.5708 -0 
3 0 1 2 
3 3 4 5 
3 6 7 8 
3 9 10 11 
3 12 13 14 
3 15 16 17 
3 18 19 20 
3 21 22 23 
3 24 25 26 
3 27 28 29 
3 30 31 32 
3 33 34 35 
3 36 37 38 
3 39 40 41 
3 42 43 44 
3 45 46 47 
3 48 49 50 
3 51 52 53 
3 54 55 56 
3 57 58 59 
3 60 61 62 
3 63 64 65 
3 66 67 68 
3 69 70 71 
3 72 73 74 
3 75 76 77 
3 78 79 80 
3 81 82 83 
3 84 85 86 
3 87 88 89 
3 90 91 92 
3 93 94 95 
3 96 97 98 
3 99 100 101 
3 102 103 104 
3 105 106 107 
3 108 109 110 
3 111 112 113 
3 114 115 116 
3 117 118 119 
3 120 121 122 
3 123 124 125 
3 126 127 128 
3 129 130 131 
3 132 133 134 
3 135 136 137 
3 138 139 140 
3 141 142 143 
3 144 145 146 
3 147 148 149 
3 150 151 152 
3 153 154 155 
3 156 157 158 
3 159 160 161 
3 162 163 164 
3 165 166 167 
3 168 169 170 
3 171 172 173 
3 174 175 176 
3 177 178 179 
3 180 181 182 
3 183 184 185 
3 186 187 188 
3 189 190 191 
3 192 193 194 
3 195 196 197 
3 198 199 200 
3 201 202 203 
3 204 205 206 
3 207 208 209 
3 210 211 212 
3 213 214 215 
3 216 217 218 
3 219 220 221 
3 222 223 224 
3 225 226 227 
3 228 229 230 
3 231 232 233 
3 234 235 236 
3 237 238 239 
3 240 241 242 
3 243 244 245 
3 246 247 248 
3 249 250 251 
3 252 253 254 
3 255 256 257 
3 258 259 260 
3 261 262 263 
3 264 265 266 
3 267 268 269 
3 270 271 272 
3 273 274 275 
3 276 277 278 
3 279 280 281 
3 282 283 284 
3 285 286 287 
3 288 289 290 
3 291 292 293 
3 294 295 296 
3 297 298 299 
3 300 301 302 
3 303 304 305 
3 306 307 308 
3 309 310 311 
3 312 313 314 
3 315 316 317 
3 318 319 320 
3 321 322 323 
3 324 325 326 
3 327 328 329 
3 330 331 332 
3 333 334 335 
3 336 337 338 
3 339 340 341 
3 342 240 242 
3 343 243 245 
3 344 246 248 
3 345 249 251 
3 346 252 254 
3 347 255 257 
3 348 258 260 
3 349 261 263 
3 350 264 266 
3 351 267 269 
3 352 270 272 
3 353 273 275 
3 354 276 278 
3 355 279 281 
3 356 282 284 
3 357 285 287 
3 358 288 290 
3 359 291 293 
3 360 294 296 
3 361 297 299 
3 362 300 302 
3 363 303 305 
3 364 306 308 
3 365 309 311 
3 366 312 314 
3 367 315 317 
3 368 318 320 
3 369 321 323 
3 370 324 326 
3 371 327 329 
3 372 373 374 
3 373 375 376 
3 377 378 375 
3 375 379 376 
3 380 331 381 
3 382 383 384 
3 385 331 383 
3 385 386 331 
3 331 387 332 
3 388 389 390 
3 391 388 390 
3 391 392 330 
3 330 393 394 
3 395 396 397 
3 395 398 399 
3 399 400 396 
3 373 377 375 
3 396 373 376 
3 373 396 374 
3 401 402 403 
3 331 376 381 
3 330 388 391 
3 396 394 397 
3 395 399 396 
3 330 332 388 
3 380 383 331 
3 383 380 384 
3 376 394 396 
3 331 330 376 
3 376 330 394 
3 404 336 338 
3 341 405 406 
3 406 407 408 
3 409 410 411 
3 412 408 410 
3 412 413 414 
3 415 412 416 
3 417 418 419 
3 417 420 418 
3 418 421 422 
3 423 424 425 
3 425 426 427 
3 427 428 429 
3 430 339 341 
3 422 431 418 
3 340 432 341 
3 341 406 408 
3 410 408 411 
3 418 415 419 
3 431 423 425 
3 431 427 418 
3 427 431 425 
3 430 433 339 
3 412 414 416 
3 341 408 412 
3 412 415 418 
3 427 429 430 
3 430 341 412 
3 418 427 412 
3 427 430 412 
3 434 435 436 
3 437 438 439 
3 440 441 442 
3 443 444 445 
3 446 447 448 
3 449 450 451 
3 452 453 454 
3 455 456 457 
3 458 459 460 
3 461 462 463 
3 464 465 466 
3 467 468 469 
3 470 471 472 
3 473 474 475 
3 476 477 478 
3 479 480 481 
3 482 483 484 
3 485 486 487 
3 488 489 490 
3 491 492 493 
3 494 495 496 
3 497 498 499 
3 500 501 502 
3 503 504 505 
3 506 507 508 
3 509 510 511 
3 512 513 514 
3 515 516 517 
3 518 519 520 
3 521 522 523 
3 524 525 526 
3 527 528 529 
3 530 531 532 
3 533 534 535 
3 536 537 538 
3 539 540 541 
3 542 543 544 
3 545 546 547 
3 548 549 550 
3 551 552 553 
3 554 555 556 
3 557 558 559 
3 560 561 562 
3 563 564 565 
3 566 567 568 
3 569 570 571 
3 572 573 574 
3 575 576 577 
3 578 579 580 
3 581 582 583 
3 584 585 586 
3 587 588 589 
3 590 591 592 
3 593 594 595 
3 596 597 598 
3 599 600 601 
3 602 603 604 
3 605 606 607 
3 608 609 610 
3 611 612 613 
3 614 615 616 
3 617 618 619 
3 620 621 622 
3 623 624 625 
3 626 627 628 
3 629 630 631 
3 632 633 634 
3 635 636 637 
3 638 639 640 
3 641 642 643 
3 644 645 646 
3 647 648 649 
3 650 651 652 
3 653 654 655 
3 656 657 658 
3 659 660 661 
3 662 434 436 
3 663 437 439 
3 664 440 442 
3 665 443 445 
3 666 446 448 
3 667 668 669 
3 670 671 672 
3 673 674 675 
3 676 677 678 
3 669 679 667 
3 678 677 680 
3 673 675 676 
3 449 673 678 
3 449 679 671 
3 450 449 671 
3 671 679 672 
3 449 451 673 
3 673 676 678 
3 679 449 667 
3 681 675 674 
3 682 670 672 
3 683 684 685 
3 686 687 688 
3 678 680 689 
3 690 681 674 
3 682 672 683 
3 683 685 691 
3 692 686 688 
3 689 452 678 
3 690 674 693 
3 683 691 682 
3 688 694 667 
3 695 692 688 
3 678 452 695 
3 696 690 693 
3 691 454 696 
3 688 678 695 
3 693 682 696 
3 454 695 452 
3 453 696 454 
3 682 691 696 
3 688 687 455 
3 684 683 697 
3 457 456 684 
3 697 457 684 
3 694 688 455 
3 698 458 460 
3 457 694 455 
3 694 668 667 
3 699 461 463 
3 700 464 466 
3 701 467 469 
3 702 470 472 
3 703 473 475 
3 704 476 478 
3 705 479 481 
3 706 482 484 
3 707 485 487 
3 708 488 490 
3 709 491 493 
3 496 710 494 
3 494 711 495 
3 712 497 499 
3 713 500 502 
3 714 503 505 
3 715 506 508 
3 716 509 511 
3 717 512 514 
3 718 513 512 
3 719 515 517 
3 720 518 520 
3 721 521 523 
3 722 524 526 
3 723 527 529 
3 724 533 535 
3 725 542 544 
3 726 548 550 
3 727 554 556 
3 728 560 562 
3 729 563 565 
3 730 566 568 
3 731 572 574 
3 732 578 580 
3 733 584 586 
3 734 593 595 
3 735 599 601 
3 736 602 604 
3 737 605 607 
3 738 608 610 
3 739 611 613 
3 740 614 616 
3 741 617 619 
3 742 620 622 
3 743 623 625 
3 744 632 634 
3 745 635 637 
3 746 747 748 
3 749 750 751 
3 752 641 643 
3 753 644 646 
3 754 647 649 
3 755 650 652 
3 655 756 653 
3 653 757 654 
