ply
format ascii 1.0
comment VCGLIB generated
element vertex 56
property float x
property float y
property float z
property float nx
property float ny
property float nz
property float texture_u
property float texture_v
element face 32
property list uchar int vertex_indices
end_header
0.36 -0.01 -0.75 -1.5708 0 0 0 1
0.36 -0.01 -2.25 -1.5708 0 0 0 1
0.36 5.94 -2.25 -1.5708 0 0 0 1
0.36 5.94 -0.75 -1.5708 0 0 0 1
0.36 5.94 -0.75 0 1.5708 0 0 1
0.36 5.94 -2.25 0 1.5708 0 0 1
5.57 5.94 -2.25 0 1.5708 0 0 1
5.57 5.94 -0.75 0 1.5708 0 0 1
5.57 5.94 -0.75 1.5708 0 0 0 1
5.57 5.94 -2.25 1.5708 0 0 0 1
5.57 -0.01 -2.25 1.5708 0 0 0 1
5.57 -0.01 -0.75 1.5708 0 0 0 1
5.57 -0.01 -0.75 0 -1.5708 0 0 1
5.57 -0.01 -2.25 0 -1.5708 0 0 1
0.36 -0.01 -2.25 0 -1.5708 0 0 1
0.36 -0.01 -0.75 0 -1.5708 0 0 1
5.21 0.35 -0.75 -1.5708 0 0 0 1
5.21 0.35 -2.25 -1.5708 0 0 0 1
5.21 5.58 -2.25 -1.5708 0 0 0 1
5.21 5.58 -0.75 -1.5708 0 0 0 1
5.21 5.58 -0.75 0 -1.5708 0 0 1
5.21 5.58 -2.25 0 -1.5708 0 0 1
0.72 5.58 -2.25 0 -1.5708 0 0 1
0.72 5.58 -0.75 0 -1.5708 0 0 1
0.72 5.58 -0.75 1.5708 0 0 0 1
0.72 5.58 -2.25 1.5708 0 0 0 1
0.72 0.35 -2.25 1.5708 0 0 0 1
0.72 0.35 -0.75 1.5708 0 0 0 1
0.72 0.35 -0.75 0 1.5708 0 0 1
0.72 0.35 -2.25 0 1.5708 0 0 1
5.21 0.35 -2.25 0 1.5708 0 0 1
5.21 0.35 -0.75 0 1.5708 0 0 1
0.36 -0.01 -0.75 0 0 0.785398 0 1
0.72 0.35 -0.75 0 0 2.35619 0 1
0.36 5.94 -0.75 0 0 1.5708 0 1
0.72 5.58 -0.75 0 0 4.71239 0 1
5.57 5.94 -0.75 0 0 1.5708 0 1
5.21 5.58 -0.75 0 0 4.71239 0 1
5.57 -0.01 -0.75 0 0 1.4967 0 1
5.21 0.35 -0.75 0 0 4.71239 0 1
0.72 0.35 -0.75 0 0 0.074091 0 1
0.72 0.35 -0.75 0 0 2.2821 0 1
0.36 -0.01 -0.75 0 0 0.785398 0 1
5.57 -0.01 -0.75 0 0 0.074091 0 1
0.36 -0.01 -2.25 0 0 -0.785398 0 1
0.72 0.35 -2.25 0 0 -2.35619 0 1
0.36 5.94 -2.25 0 0 -1.5708 0 1
0.72 5.58 -2.25 0 0 -4.71239 0 1
5.57 5.94 -2.25 0 0 -1.5708 0 1
5.21 5.58 -2.25 0 0 -4.71239 0 1
5.57 -0.01 -2.25 0 0 -1.4967 0 1
5.21 0.35 -2.25 0 0 -4.71239 0 1
0.72 0.35 -2.25 0 0 -0.074091 0 1
0.72 0.35 -2.25 0 0 -2.2821 0 1
0.36 -0.01 -2.25 0 0 -0.785398 0 1
5.57 -0.01 -2.25 0 0 -0.074091 0 1
3 0 2 1 
3 0 3 2 
3 4 6 5 
3 4 7 6 
3 8 10 9 
3 8 11 10 
3 12 14 13 
3 12 15 14 
3 16 18 17 
3 16 19 18 
3 20 22 21 
3 20 23 22 
3 24 26 25 
3 24 27 26 
3 28 30 29 
3 28 31 30 
3 32 33 34 
3 34 33 35 
3 34 35 36 
3 36 35 37 
3 36 37 38 
3 38 37 39 
3 38 39 40 
3 41 42 43 
3 44 46 45 
3 46 47 45 
3 46 48 47 
3 48 49 47 
3 48 50 49 
3 50 51 49 
3 50 52 51 
3 53 55 54 
