ply
format ascii 1.0
comment VCGLIB generated
element vertex 114
property float x
property float y
property float z
property float nx
property float ny
property float nz
property float texture_u
property float texture_v
element face 64
property list uchar int vertex_indices
end_header
1.41 -0.4 -0.75 0 -1.5708 0 0 1
1.41 -0.4 -2.25 0 -1.5708 0 0 1
0.37 -0.4 -2.25 0 -1.5708 0 0 1
0.37 -0.4 -0.75 0 -1.5708 0 0 1
0.37 -0.4 -0.75 -1.10911 -1.11233 0 0 1
0.37 -0.4 -2.25 -1.10911 -1.11233 0 0 1
0.1 -0.130781 -2.25 -1.10911 -1.11233 0 0 1
0.1 -0.130781 -0.75 -1.10911 -1.11233 0 0 1
0.1 -0.130781 -0.75 -1.5708 0 0 0 1
0.1 -0.130781 -2.25 -1.5708 0 0 0 1
0.1 4.08078 -2.25 -1.5708 0 0 0 1
0.1 4.08078 -0.75 -1.5708 0 0 0 1
0.1 4.08078 -0.75 -1.11233 1.10911 0 0 1
0.1 4.08078 -2.25 -1.11233 1.10911 0 0 1
0.368438 4.35 -2.25 -1.11233 1.10911 0 0 1
0.368438 4.35 -0.75 -1.11233 1.10911 0 0 1
0.368438 4.35 -0.75 0 1.5708 0 0 1
0.368438 4.35 -2.25 0 1.5708 0 0 1
0.881563 4.35 -2.25 0 1.5708 0 0 1
0.881563 4.35 -0.75 0 1.5708 0 0 1
0.881563 4.35 -0.75 1.11072 1.11072 0 0 1
0.881563 4.35 -2.25 1.11072 1.11072 0 0 1
1.15 4.08156 -2.25 1.11072 1.11072 0 0 1
1.15 4.08156 -0.75 1.11072 1.11072 0 0 1
1.15 4.08156 -0.75 1.5708 0 0 0 1
1.15 4.08156 -2.25 1.5708 0 0 0 1
1.15 3.3 -2.25 1.5708 0 0 0 1
1.15 3.3 -0.75 1.5708 0 0 0 1
1.15 3.3 -0.75 0 1.5708 0 0 1
1.15 3.3 -2.25 0 1.5708 0 0 1
2.99906 3.3 -2.25 0 1.5708 0 0 1
2.99906 3.3 -0.75 0 1.5708 0 0 1
2.99906 3.3 -0.75 1.12362 1.09767 0 0 1
2.99906 3.3 -2.25 1.12362 1.09767 0 0 1
3.27 3.02266 -2.25 1.12362 1.09767 0 0 1
3.27 3.02266 -0.75 1.12362 1.09767 0 0 1
3.27 3.02266 -0.75 1.5708 0 0 0 1
3.27 3.02266 -2.25 1.5708 0 0 0 1
3.27 -0.4 -2.25 1.5708 0 0 0 1
3.27 -0.4 -0.75 1.5708 0 0 0 1
3.27 -0.4 -0.75 0 -1.5708 0 0 1
3.27 -0.4 -2.25 0 -1.5708 0 0 1
2.73 -0.4 -2.25 0 -1.5708 0 0 1
2.73 -0.4 -0.75 0 -1.5708 0 0 1
2.73 -0.4 -0.75 -1.5708 0 0 0 1
2.73 -0.4 -2.25 -1.5708 0 0 0 1
2.73 2.77 -2.25 -1.5708 0 0 0 1
2.73 2.77 -0.75 -1.5708 0 0 0 1
2.73 2.77 -0.75 0 -1.5708 0 0 1
2.73 2.77 -2.25 0 -1.5708 0 0 1
1.15 2.77 -2.25 0 -1.5708 0 0 1
1.15 2.77 -0.75 0 -1.5708 0 0 1
1.15 2.77 -0.75 1.5708 0 0 0 1
1.15 2.77 -2.25 1.5708 0 0 0 1
1.15 1.9775 -2.25 1.5708 0 0 0 1
1.15 1.9775 -0.75 1.5708 0 0 0 1
1.15 1.9775 -0.75 1.10345 1.11795 0 0 1
1.15 1.9775 -2.25 1.10345 1.11795 0 0 1
1.68 1.45438 -2.25 1.10345 1.11795 0 0 1
1.68 1.45438 -0.75 1.10345 1.11795 0 0 1
1.68 1.45438 -0.75 1.5708 0 0 0 1
1.68 1.45438 -2.25 1.5708 0 0 0 1
1.68 -0.130625 -2.25 1.5708 0 0 0 1
1.68 -0.130625 -0.75 1.5708 0 0 0 1
1.68 -0.130625 -0.75 1.10943 -1.11201 0 0 1
1.68 -0.130625 -2.25 1.10943 -1.11201 0 0 1
1.41 -0.4 -2.25 1.10943 -1.11201 0 0 1
1.41 -0.4 -0.75 1.10943 -1.11201 0 0 1
1.41 -0.4 -0.75 0 0 2.35734 0 1
1.68 -0.130625 -0.75 0 0 2.35504 0 1
1.68 1.45438 -0.75 0 0 2.34967 0 1
1.15 1.9775 -0.75 0 0 3.82084 0 1
0.881563 4.35 -0.75 0 0 0.220001 0 1
0.37 -0.4 -0.75 0 0 1.46351 0 1
0.37 -0.4 -0.75 0 0 0.894128 0 1
0.881563 4.35 -0.75 0 0 1.46351 0 1
0.368438 4.35 -0.75 0 0 2.35474 0 1
0.1 4.08078 -0.75 0 0 2.35765 0 1
0.1 -0.130781 -0.75 0 0 2.35475 0 1
0.881563 4.35 -0.75 0 0 0.672732 0 1
1.15 1.9775 -0.75 0 0 0.112666 0 1
1.15 4.08156 -0.75 0 0 2.35619 0 1
1.15 2.77 -0.75 0 0 1.5708 0 1
1.15 3.3 -0.75 0 0 1.5708 0 1
2.73 2.77 -0.75 0 0 4.54366 0 1
2.99906 3.3 -0.75 0 0 2.34451 0 1
3.27 -0.4 -0.75 0 0 0.168729 0 1
3.27 3.02266 -0.75 0 0 2.36788 0 1
3.27 -0.4 -0.75 0 0 1.40207 0 1
2.73 2.77 -0.75 0 0 0.168728 0 1
2.73 -0.4 -0.75 0 0 1.5708 0 1
1.41 -0.4 -2.25 0 0 -2.35734 0 1
1.68 -0.130625 -2.25 0 0 -2.35504 0 1
1.68 1.45438 -2.25 0 0 -2.34967 0 1
1.15 1.9775 -2.25 0 0 -3.82084 0 1
0.881563 4.35 -2.25 0 0 -0.220001 0 1
0.37 -0.4 -2.25 0 0 -1.46351 0 1
0.37 -0.4 -2.25 0 0 -0.894128 0 1
0.881563 4.35 -2.25 0 0 -1.46351 0 1
0.368438 4.35 -2.25 0 0 -2.35474 0 1
0.1 4.08078 -2.25 0 0 -2.35765 0 1
0.1 -0.130781 -2.25 0 0 -2.35475 0 1
0.881563 4.35 -2.25 0 0 -0.672732 0 1
1.15 1.9775 -2.25 0 0 -0.112666 0 1
1.15 4.08156 -2.25 0 0 -2.35619 0 1
1.15 2.77 -2.25 0 0 -1.5708 0 1
1.15 3.3 -2.25 0 0 -1.5708 0 1
2.73 2.77 -2.25 0 0 -4.54366 0 1
2.99906 3.3 -2.25 0 0 -2.34451 0 1
3.27 -0.4 -2.25 0 0 -0.168729 0 1
3.27 3.02266 -2.25 0 0 -2.36788 0 1
3.27 -0.4 -2.25 0 0 -1.40207 0 1
2.73 2.77 -2.25 0 0 -0.168728 0 1
2.73 -0.4 -2.25 0 0 -1.5708 0 1
3 0 2 1 
3 0 3 2 
3 4 6 5 
3 4 7 6 
3 8 10 9 
3 8 11 10 
3 12 14 13 
3 12 15 14 
3 16 18 17 
3 16 19 18 
3 20 22 21 
3 20 23 22 
3 24 26 25 
3 24 27 26 
3 28 30 29 
3 28 31 30 
3 32 34 33 
3 32 35 34 
3 36 38 37 
3 36 39 38 
3 40 42 41 
3 40 43 42 
3 44 46 45 
3 44 47 46 
3 48 50 49 
3 48 51 50 
3 52 54 53 
3 52 55 54 
3 56 58 57 
3 56 59 58 
3 60 62 61 
3 60 63 62 
3 64 66 65 
3 64 67 66 
3 68 69 70 
3 68 70 71 
3 68 71 72 
3 68 72 73 
3 74 75 76 
3 74 76 77 
3 74 77 78 
3 79 80 81 
3 81 80 82 
3 81 82 83 
3 83 82 84 
3 83 84 85 
3 85 84 86 
3 85 86 87 
3 88 89 90 
3 91 93 92 
3 91 94 93 
3 91 95 94 
3 91 96 95 
3 97 99 98 
3 97 100 99 
3 97 101 100 
3 102 104 103 
3 104 105 103 
3 104 106 105 
3 106 107 105 
3 106 108 107 
3 108 109 107 
3 108 110 109 
3 111 113 112 
