ply
format ascii 1.0
comment VCGLIB generated
element vertex 172
property float x
property float y
property float z
property float nx
property float ny
property float nz
property float texture_u
property float texture_v
element face 96
property list uchar int vertex_indices
end_header
0.71 0.391094 -0.75 -1.11137 1.11008 0 0 1
0.71 0.391094 -2.25 -1.11137 1.11008 0 0 1
0.978594 0.66 -2.25 -1.11137 1.11008 0 0 1
0.978594 0.66 -0.75 -1.11137 1.11008 0 0 1
0.978594 0.66 -0.75 0 1.5708 0 0 1
0.978594 0.66 -2.25 0 1.5708 0 0 1
2.02938 0.66 -2.25 0 1.5708 0 0 1
2.02938 0.66 -0.75 0 1.5708 0 0 1
2.02938 0.66 -0.75 1.11172 1.10972 0 0 1
2.02938 0.66 -2.25 1.11172 1.10972 0 0 1
2.29 0.398906 -2.25 1.11172 1.10972 0 0 1
2.29 0.398906 -0.75 1.11172 1.10972 0 0 1
2.29 0.398906 -0.75 1.5708 0 0 0 1
2.29 0.398906 -2.25 1.5708 0 0 0 1
2.29 -0.138906 -2.25 1.5708 0 0 0 1
2.29 -0.138906 -0.75 1.5708 0 0 0 1
2.29 -0.138906 -0.75 1.11172 -1.10972 0 0 1
2.29 -0.138906 -2.25 1.11172 -1.10972 0 0 1
2.02938 -0.4 -2.25 1.11172 -1.10972 0 0 1
2.02938 -0.4 -0.75 1.11172 -1.10972 0 0 1
2.02938 -0.4 -0.75 0 -1.5708 0 0 1
2.02938 -0.4 -2.25 0 -1.5708 0 0 1
0.978594 -0.4 -2.25 0 -1.5708 0 0 1
0.978594 -0.4 -0.75 0 -1.5708 0 0 1
0.978594 -0.4 -0.75 -1.11137 -1.11008 0 0 1
0.978594 -0.4 -2.25 -1.11137 -1.11008 0 0 1
0.71 -0.131094 -2.25 -1.11137 -1.11008 0 0 1
0.71 -0.131094 -0.75 -1.11137 -1.11008 0 0 1
0.71 -0.131094 -0.75 -1.5708 0 0 0 1
0.71 -0.131094 -2.25 -1.5708 0 0 0 1
0.71 0.391094 -2.25 -1.5708 0 0 0 1
0.71 0.391094 -0.75 -1.5708 0 0 0 1
2.02938 1.19 -0.75 0 -1.5708 0 0 1
2.02938 1.19 -2.25 0 -1.5708 0 0 1
0.978594 1.19 -2.25 0 -1.5708 0 0 1
0.978594 1.19 -0.75 0 -1.5708 0 0 1
0.978594 1.19 -0.75 -1.11072 -1.11072 0 0 1
0.978594 1.19 -2.25 -1.11072 -1.11072 0 0 1
0.71 1.45859 -2.25 -1.11072 -1.11072 0 0 1
0.71 1.45859 -0.75 -1.11072 -1.11072 0 0 1
0.71 1.45859 -0.75 -1.5708 0 0 0 1
0.71 1.45859 -2.25 -1.5708 0 0 0 1
0.71 2.50141 -2.25 -1.5708 0 0 0 1
0.71 2.50141 -0.75 -1.5708 0 0 0 1
0.71 2.50141 -0.75 -1.10782 1.11362 0 0 1
0.71 2.50141 -2.25 -1.10782 1.11362 0 0 1
0.98 2.77 -2.25 -1.10782 1.11362 0 0 1
0.98 2.77 -0.75 -1.10782 1.11362 0 0 1
0.98 2.77 -0.75 0 1.5708 0 0 1
0.98 2.77 -2.25 0 1.5708 0 0 1
2.83 2.77 -2.25 0 1.5708 0 0 1
2.83 2.77 -0.75 0 1.5708 0 0 1
2.83 2.77 -0.75 -1.5708 0 0 0 1
2.83 2.77 -2.25 -1.5708 0 0 0 1
2.83 3.82 -2.25 -1.5708 0 0 0 1
2.83 3.82 -0.75 -1.5708 0 0 0 1
2.83 3.82 -0.75 0 -1.5708 0 0 1
2.83 3.82 -2.25 0 -1.5708 0 0 1
0.71 3.82 -2.25 0 -1.5708 0 0 1
0.71 3.82 -0.75 0 -1.5708 0 0 1
0.71 3.82 -0.75 1.5708 0 0 0 1
0.71 3.82 -2.25 1.5708 0 0 0 1
0.71 3.3 -2.25 1.5708 0 0 0 1
0.71 3.3 -0.75 1.5708 0 0 0 1
0.71 3.3 -0.75 0 -1.5708 0 0 1
0.71 3.3 -2.25 0 -1.5708 0 0 1
0.19 3.3 -2.25 0 -1.5708 0 0 1
0.19 3.3 -0.75 0 -1.5708 0 0 1
0.19 3.3 -0.75 -1.5708 0 0 0 1
0.19 3.3 -2.25 -1.5708 0 0 0 1
0.19 4.08953 -2.25 -1.5708 0 0 0 1
0.19 4.08953 -0.75 -1.5708 0 0 0 1
0.19 4.08953 -0.75 -1.10906 1.11238 0 0 1
0.19 4.08953 -2.25 -1.10906 1.11238 0 0 1
0.45125 4.35 -2.25 -1.10906 1.11238 0 0 1
0.45125 4.35 -0.75 -1.10906 1.11238 0 0 1
0.45125 4.35 -0.75 0 1.5708 0 0 1
0.45125 4.35 -2.25 0 1.5708 0 0 1
3.61875 4.35 -2.25 0 1.5708 0 0 1
3.61875 4.35 -0.75 0 1.5708 0 0 1
3.61875 4.35 -0.75 1.11171 1.10973 0 0 1
3.61875 4.35 -2.25 1.11171 1.10973 0 0 1
3.88 4.08828 -2.25 1.11171 1.10973 0 0 1
3.88 4.08828 -0.75 1.11171 1.10973 0 0 1
3.88 4.08828 -0.75 1.5708 0 0 0 1
3.88 4.08828 -2.25 1.5708 0 0 0 1
3.88 2.49391 -2.25 1.5708 0 0 0 1
3.88 2.49391 -0.75 1.5708 0 0 0 1
3.88 2.49391 -0.75 1.10969 -1.11175 0 0 1
3.88 2.49391 -2.25 1.10969 -1.11175 0 0 1
3.62562 2.24 -2.25 1.10969 -1.11175 0 0 1
3.62562 2.24 -0.75 1.10969 -1.11175 0 0 1
3.62562 2.24 -0.75 0 -1.5708 0 0 1
3.62562 2.24 -2.25 0 -1.5708 0 0 1
2.29 2.24 -2.25 0 -1.5708 0 0 1
2.29 2.24 -0.75 0 -1.5708 0 0 1
2.29 2.24 -0.75 1.5708 0 0 0 1
2.29 2.24 -2.25 1.5708 0 0 0 1
2.29 1.44859 -2.25 1.5708 0 0 0 1
2.29 1.44859 -0.75 1.5708 0 0 0 1
2.29 1.44859 -0.75 1.10637 -1.11506 0 0 1
2.29 1.44859 -2.25 1.10637 -1.11506 0 0 1
2.02938 1.19 -2.25 1.10637 -1.11506 0 0 1
2.02938 1.19 -0.75 1.10637 -1.11506 0 0 1
0.71 0.391094 -0.75 0 0 2.02946 0 1
0.978594 -0.4 -0.75 0 0 1.89811 0 1
0.978594 0.66 -0.75 0 0 2.35561 0 1
2.02938 -0.4 -0.75 0 0 2.3553 0 1
2.02938 0.66 -0.75 0 0 2.3553 0 1
2.29 -0.138906 -0.75 0 0 2.35709 0 1
2.29 0.398906 -0.75 0 0 2.35709 0 1
0.978594 1.19 -0.75 0 0 1.56991 0 1
2.02938 1.19 -0.75 0 0 1.81409 0 1
0.98 2.77 -0.75 0 0 1.57169 0 1
2.29 2.24 -0.75 0 0 4.46909 0 1
2.83 2.77 -0.75 0 0 4.71239 0 1
3.62562 2.24 -0.75 0 0 1.56754 0 1
2.83 3.82 -0.75 0 0 4.71239 0 1
3.61875 4.35 -0.75 0 0 1.57405 0 1
0.71 3.82 -0.75 0 0 4.71239 0 1
0.45125 4.35 -0.75 0 0 2.35769 0 1
0.71 3.3 -0.75 0 0 1.5708 0 1
0.19 4.08953 -0.75 0 0 2.3547 0 1
0.19 3.3 -0.75 0 0 1.5708 0 1
3.88 4.08828 -0.75 0 0 2.35709 0 1
3.61875 4.35 -0.75 0 0 0.781246 0 1
3.62562 2.24 -0.75 0 0 0.789579 0 1
3.88 2.49391 -0.75 0 0 2.35527 0 1
0.71 2.50141 -0.75 0 0 2.35358 0 1
0.71 1.45859 -0.75 0 0 2.35619 0 1
0.978594 1.19 -0.75 0 0 0.786288 0 1
0.98 2.77 -0.75 0 0 0.787119 0 1
2.29 2.24 -0.75 0 0 0.243297 0 1
2.02938 1.19 -0.75 0 0 0.546012 0 1
2.29 1.44859 -0.75 0 0 2.35228 0 1
0.978594 -0.4 -0.75 0 0 0.457508 0 1
0.71 0.391094 -0.75 0 0 0.32731 0 1
0.71 -0.131094 -0.75 0 0 2.35677 0 1
0.71 0.391094 -2.25 0 0 -2.02946 0 1
0.978594 -0.4 -2.25 0 0 -1.89811 0 1
0.978594 0.66 -2.25 0 0 -2.35561 0 1
2.02938 -0.4 -2.25 0 0 -2.3553 0 1
2.02938 0.66 -2.25 0 0 -2.3553 0 1
2.29 -0.138906 -2.25 0 0 -2.35709 0 1
2.29 0.398906 -2.25 0 0 -2.35709 0 1
0.978594 1.19 -2.25 0 0 -1.56991 0 1
2.02938 1.19 -2.25 0 0 -1.81409 0 1
0.98 2.77 -2.25 0 0 -1.57169 0 1
2.29 2.24 -2.25 0 0 -4.46909 0 1
2.83 2.77 -2.25 0 0 -4.71239 0 1
3.62562 2.24 -2.25 0 0 -1.56754 0 1
2.83 3.82 -2.25 0 0 -4.71239 0 1
3.61875 4.35 -2.25 0 0 -1.57405 0 1
0.71 3.82 -2.25 0 0 -4.71239 0 1
0.45125 4.35 -2.25 0 0 -2.35769 0 1
0.71 3.3 -2.25 0 0 -1.5708 0 1
0.19 4.08953 -2.25 0 0 -2.3547 0 1
0.19 3.3 -2.25 0 0 -1.5708 0 1
3.88 4.08828 -2.25 0 0 -2.35709 0 1
3.61875 4.35 -2.25 0 0 -0.781246 0 1
3.62562 2.24 -2.25 0 0 -0.789579 0 1
3.88 2.49391 -2.25 0 0 -2.35527 0 1
0.71 2.50141 -2.25 0 0 -2.35358 0 1
0.71 1.45859 -2.25 0 0 -2.35619 0 1
0.978594 1.19 -2.25 0 0 -0.786288 0 1
0.98 2.77 -2.25 0 0 -0.787119 0 1
2.29 2.24 -2.25 0 0 -0.243297 0 1
2.02938 1.19 -2.25 0 0 -0.546012 0 1
2.29 1.44859 -2.25 0 0 -2.35228 0 1
0.978594 -0.4 -2.25 0 0 -0.457508 0 1
0.71 0.391094 -2.25 0 0 -0.32731 0 1
0.71 -0.131094 -2.25 0 0 -2.35677 0 1
3 0 2 1 
3 0 3 2 
3 4 6 5 
3 4 7 6 
3 8 10 9 
3 8 11 10 
3 12 14 13 
3 12 15 14 
3 16 18 17 
3 16 19 18 
3 20 22 21 
3 20 23 22 
3 24 26 25 
3 24 27 26 
3 28 30 29 
3 28 31 30 
3 32 34 33 
3 32 35 34 
3 36 38 37 
3 36 39 38 
3 40 42 41 
3 40 43 42 
3 44 46 45 
3 44 47 46 
3 48 50 49 
3 48 51 50 
3 52 54 53 
3 52 55 54 
3 56 58 57 
3 56 59 58 
3 60 62 61 
3 60 63 62 
3 64 66 65 
3 64 67 66 
3 68 70 69 
3 68 71 70 
3 72 74 73 
3 72 75 74 
3 76 78 77 
3 76 79 78 
3 80 82 81 
3 80 83 82 
3 84 86 85 
3 84 87 86 
3 88 90 89 
3 88 91 90 
3 92 94 93 
3 92 95 94 
3 96 98 97 
3 96 99 98 
3 100 102 101 
3 100 103 102 
3 104 105 106 
3 106 105 107 
3 106 107 108 
3 108 107 109 
3 108 109 110 
3 111 112 113 
3 113 112 114 
3 113 114 115 
3 115 114 116 
3 115 116 117 
3 117 116 118 
3 117 118 119 
3 119 118 120 
3 119 120 121 
3 121 120 122 
3 121 122 123 
3 124 125 126 
3 124 126 127 
3 128 129 130 
3 128 130 131 
3 132 133 134 
3 135 136 137 
3 138 140 139 
3 140 141 139 
3 140 142 141 
3 142 143 141 
3 142 144 143 
3 145 147 146 
3 147 148 146 
3 147 149 148 
3 149 150 148 
3 149 151 150 
3 151 152 150 
3 151 153 152 
3 153 154 152 
3 153 155 154 
3 155 156 154 
3 155 157 156 
3 158 160 159 
3 158 161 160 
3 162 164 163 
3 162 165 164 
3 166 168 167 
3 169 171 170 
