ply
format ascii 1.0
comment VCGLIB generated
element vertex 96
property float x
property float y
property float z
property float nx
property float ny
property float nz
property float texture_u
property float texture_v
element face 52
property list uchar int vertex_indices
end_header
3.04063 -0.4 -0.75 0 -1.5708 0 0 1
3.04063 -0.4 -2.25 0 -1.5708 0 0 1
0.409375 -0.4 -2.25 0 -1.5708 0 0 1
0.409375 -0.4 -0.75 0 -1.5708 0 0 1
0.409375 -0.4 -0.75 -1.11072 -1.11072 0 0 1
0.409375 -0.4 -2.25 -1.11072 -1.11072 0 0 1
0.14 -0.130625 -2.25 -1.11072 -1.11072 0 0 1
0.14 -0.130625 -0.75 -1.11072 -1.11072 0 0 1
0.14 -0.130625 -0.75 -1.5708 0 0 0 1
0.14 -0.130625 -2.25 -1.5708 0 0 0 1
0.14 3.03063 -2.25 -1.5708 0 0 0 1
0.14 3.03063 -0.75 -1.5708 0 0 0 1
0.14 3.03063 -0.75 -1.11266 1.10878 0 0 1
0.14 3.03063 -2.25 -1.11266 1.10878 0 0 1
0.408437 3.3 -2.25 -1.11266 1.10878 0 0 1
0.408437 3.3 -0.75 -1.11266 1.10878 0 0 1
0.408437 3.3 -0.75 0 1.5708 0 0 1
0.408437 3.3 -2.25 0 1.5708 0 0 1
0.921563 3.3 -2.25 0 1.5708 0 0 1
0.921563 3.3 -0.75 0 1.5708 0 0 1
0.921563 3.3 -0.75 1.11266 1.10878 0 0 1
0.921563 3.3 -2.25 1.11266 1.10878 0 0 1
1.19 3.03063 -2.25 1.11266 1.10878 0 0 1
1.19 3.03063 -0.75 1.11266 1.10878 0 0 1
1.19 3.03063 -0.75 1.5708 0 0 0 1
1.19 3.03063 -2.25 1.5708 0 0 0 1
1.19 1.97656 -2.25 1.5708 0 0 0 1
1.19 1.97656 -0.75 1.5708 0 0 0 1
1.19 1.97656 -0.75 1.1117 1.10974 0 0 1
1.19 1.97656 -2.25 1.1117 1.10974 0 0 1
1.72 1.44562 -2.25 1.1117 1.10974 0 0 1
1.72 1.44562 -0.75 1.1117 1.10974 0 0 1
1.72 1.44562 -0.75 1.5708 0 0 0 1
1.72 1.44562 -2.25 1.5708 0 0 0 1
1.72 0.13 -2.25 1.5708 0 0 0 1
1.72 0.13 -0.75 1.5708 0 0 0 1
1.72 0.13 -0.75 0 1.5708 0 0 1
1.72 0.13 -2.25 0 1.5708 0 0 1
2.78 0.13 -2.25 0 1.5708 0 0 1
2.78 0.13 -0.75 0 1.5708 0 0 1
2.78 0.13 -0.75 -1.5708 0 0 0 1
2.78 0.13 -2.25 -1.5708 0 0 0 1
2.78 3.3 -2.25 -1.5708 0 0 0 1
2.78 3.3 -0.75 -1.5708 0 0 0 1
2.78 3.3 -0.75 0 1.5708 0 0 1
2.78 3.3 -2.25 0 1.5708 0 0 1
3.31 3.3 -2.25 0 1.5708 0 0 1
3.31 3.3 -0.75 0 1.5708 0 0 1
3.31 3.3 -0.75 1.5708 0 0 0 1
3.31 3.3 -2.25 1.5708 0 0 0 1
3.31 -0.130625 -2.25 1.5708 0 0 0 1
3.31 -0.130625 -0.75 1.5708 0 0 0 1
3.31 -0.130625 -0.75 1.11072 -1.11072 0 0 1
3.31 -0.130625 -2.25 1.11072 -1.11072 0 0 1
3.04063 -0.4 -2.25 1.11072 -1.11072 0 0 1
3.04063 -0.4 -0.75 1.11072 -1.11072 0 0 1
3.04063 -0.4 -0.75 0 0 2.35619 0 1
3.31 -0.130625 -0.75 0 0 2.35619 0 1
3.31 3.3 -0.75 0 0 1.5708 0 1
2.78 3.3 -0.75 0 0 1.5708 0 1
2.78 0.13 -0.75 0 0 4.71239 0 1
1.72 0.13 -0.75 0 0 2.75731 0 1
0.409375 -0.4 -0.75 0 0 0.384283 0 1
0.409375 -0.4 -0.75 0 0 1.97191 0 1
1.72 0.13 -0.75 0 0 1.67557 0 1
1.19 1.97656 -0.75 0 0 3.22098 0 1
0.921563 3.3 -0.75 0 0 1.77091 0 1
0.408437 3.3 -0.75 0 0 2.35445 0 1
0.14 3.03063 -0.75 0 0 2.35794 0 1
0.14 -0.130625 -0.75 0 0 2.35619 0 1
1.19 3.03063 -0.75 0 0 2.35794 0 1
0.921563 3.3 -0.75 0 0 0.583536 0 1
1.19 1.97656 -0.75 0 0 0.200119 0 1
1.72 1.44562 -0.75 0 0 2.35708 0 1
1.19 1.97656 -0.75 0 0 0.505008 0 1
1.72 0.13 -0.75 0 0 0.279506 0 1
3.04063 -0.4 -2.25 0 0 -2.35619 0 1
3.31 -0.130625 -2.25 0 0 -2.35619 0 1
3.31 3.3 -2.25 0 0 -1.5708 0 1
2.78 3.3 -2.25 0 0 -1.5708 0 1
2.78 0.13 -2.25 0 0 -4.71239 0 1
1.72 0.13 -2.25 0 0 -2.75731 0 1
0.409375 -0.4 -2.25 0 0 -0.384283 0 1
0.409375 -0.4 -2.25 0 0 -1.97191 0 1
1.72 0.13 -2.25 0 0 -1.67557 0 1
1.19 1.97656 -2.25 0 0 -3.22098 0 1
0.921563 3.3 -2.25 0 0 -1.77091 0 1
0.408437 3.3 -2.25 0 0 -2.35445 0 1
0.14 3.03063 -2.25 0 0 -2.35794 0 1
0.14 -0.130625 -2.25 0 0 -2.35619 0 1
1.19 3.03063 -2.25 0 0 -2.35794 0 1
0.921563 3.3 -2.25 0 0 -0.583536 0 1
1.19 1.97656 -2.25 0 0 -0.200119 0 1
1.72 1.44562 -2.25 0 0 -2.35708 0 1
1.19 1.97656 -2.25 0 0 -0.505008 0 1
1.72 0.13 -2.25 0 0 -0.279506 0 1
3 0 2 1 
3 0 3 2 
3 4 6 5 
3 4 7 6 
3 8 10 9 
3 8 11 10 
3 12 14 13 
3 12 15 14 
3 16 18 17 
3 16 19 18 
3 20 22 21 
3 20 23 22 
3 24 26 25 
3 24 27 26 
3 28 30 29 
3 28 31 30 
3 32 34 33 
3 32 35 34 
3 36 38 37 
3 36 39 38 
3 40 42 41 
3 40 43 42 
3 44 46 45 
3 44 47 46 
3 48 50 49 
3 48 51 50 
3 52 54 53 
3 52 55 54 
3 56 57 58 
3 56 58 59 
3 56 59 60 
3 56 60 61 
3 56 61 62 
3 63 64 65 
3 63 65 66 
3 63 66 67 
3 63 67 68 
3 63 68 69 
3 70 71 72 
3 73 74 75 
3 76 78 77 
3 76 79 78 
3 76 80 79 
3 76 81 80 
3 76 82 81 
3 83 85 84 
3 83 86 85 
3 83 87 86 
3 83 88 87 
3 83 89 88 
3 90 92 91 
3 93 95 94 
