ply
format ascii 1.0
comment VCGLIB generated
element vertex 142
property float x
property float y
property float z
property float nx
property float ny
property float nz
property float texture_u
property float texture_v
element face 76
property list uchar int vertex_indices
end_header
0.18 -0.130781 -0.75 -1.5708 0 0 0 1
0.18 -0.130781 -2.25 -1.5708 0 0 0 1
0.18 4.08078 -2.25 -1.5708 0 0 0 1
0.18 4.08078 -0.75 -1.5708 0 0 0 1
0.18 4.08078 -0.75 -1.1104 1.11104 0 0 1
0.18 4.08078 -2.25 -1.1104 1.11104 0 0 1
0.449375 4.35 -2.25 -1.1104 1.11104 0 0 1
0.449375 4.35 -0.75 -1.1104 1.11104 0 0 1
0.449375 4.35 -0.75 0 1.5708 0 0 1
0.449375 4.35 -2.25 0 1.5708 0 0 1
3.61063 4.35 -2.25 0 1.5708 0 0 1
3.61063 4.35 -0.75 0 1.5708 0 0 1
3.61063 4.35 -0.75 1.10878 1.11266 0 0 1
3.61063 4.35 -2.25 1.10878 1.11266 0 0 1
3.88 4.08156 -2.25 1.10878 1.11266 0 0 1
3.88 4.08156 -0.75 1.10878 1.11266 0 0 1
3.88 4.08156 -0.75 1.5708 0 0 0 1
3.88 4.08156 -2.25 1.5708 0 0 0 1
3.88 3.3 -2.25 1.5708 0 0 0 1
3.88 3.3 -0.75 1.5708 0 0 0 1
3.88 3.3 -0.75 0 -1.5708 0 0 1
3.88 3.3 -2.25 0 -1.5708 0 0 1
2.83 3.3 -2.25 0 -1.5708 0 0 1
2.83 3.3 -0.75 0 -1.5708 0 0 1
2.83 3.3 -0.75 -1.5708 0 0 0 1
2.83 3.3 -2.25 -1.5708 0 0 0 1
2.83 3.82 -2.25 -1.5708 0 0 0 1
2.83 3.82 -0.75 -1.5708 0 0 0 1
2.83 3.82 -0.75 0 -1.5708 0 0 1
2.83 3.82 -2.25 0 -1.5708 0 0 1
0.7 3.82 -2.25 0 -1.5708 0 0 1
0.7 3.82 -0.75 0 -1.5708 0 0 1
0.7 3.82 -0.75 1.5708 0 0 0 1
0.7 3.82 -2.25 1.5708 0 0 0 1
0.7 2.77 -2.25 1.5708 0 0 0 1
0.7 2.77 -0.75 1.5708 0 0 0 1
0.7 2.77 -0.75 0 1.5708 0 0 1
0.7 2.77 -2.25 0 1.5708 0 0 1
3.61703 2.77 -2.25 0 1.5708 0 0 1
3.61703 2.77 -0.75 0 1.5708 0 0 1
3.61703 2.77 -0.75 1.10774 1.1137 0 0 1
3.61703 2.77 -2.25 1.10774 1.1137 0 0 1
3.88 2.50844 -2.25 1.10774 1.1137 0 0 1
3.88 2.50844 -0.75 1.10774 1.1137 0 0 1
3.88 2.50844 -0.75 1.5708 0 0 0 1
3.88 2.50844 -2.25 1.5708 0 0 0 1
3.88 -0.130625 -2.25 1.5708 0 0 0 1
3.88 -0.130625 -0.75 1.5708 0 0 0 1
3.88 -0.130625 -0.75 1.11072 -1.11072 0 0 1
3.88 -0.130625 -2.25 1.11072 -1.11072 0 0 1
3.61063 -0.4 -2.25 1.11072 -1.11072 0 0 1
3.61063 -0.4 -0.75 1.11072 -1.11072 0 0 1
3.61063 -0.4 -0.75 0 -1.5708 0 0 1
3.61063 -0.4 -2.25 0 -1.5708 0 0 1
0.449375 -0.4 -2.25 0 -1.5708 0 0 1
0.449375 -0.4 -0.75 0 -1.5708 0 0 1
0.449375 -0.4 -0.75 -1.1104 -1.11104 0 0 1
0.449375 -0.4 -2.25 -1.1104 -1.11104 0 0 1
0.18 -0.130781 -2.25 -1.1104 -1.11104 0 0 1
0.18 -0.130781 -0.75 -1.1104 -1.11104 0 0 1
2.3 2.24 -0.75 0 -1.5708 0 0 1
2.3 2.24 -2.25 0 -1.5708 0 0 1
0.7 2.24 -2.25 0 -1.5708 0 0 1
0.7 2.24 -0.75 0 -1.5708 0 0 1
0.7 2.24 -0.75 1.5708 0 0 0 1
0.7 2.24 -2.25 1.5708 0 0 0 1
0.7 0.13 -2.25 1.5708 0 0 0 1
0.7 0.13 -0.75 1.5708 0 0 0 1
0.7 0.13 -0.75 0 1.5708 0 0 1
0.7 0.13 -2.25 0 1.5708 0 0 1
2.3 0.13 -2.25 0 1.5708 0 0 1
2.3 0.13 -0.75 0 1.5708 0 0 1
2.3 0.13 -0.75 -1.5708 0 0 0 1
2.3 0.13 -2.25 -1.5708 0 0 0 1
2.3 2.24 -2.25 -1.5708 0 0 0 1
2.3 2.24 -0.75 -1.5708 0 0 0 1
2.83 3.3 -0.75 0 0 1.5708 0 1
3.88 3.3 -0.75 0 0 1.31966 0 1
2.83 3.82 -0.75 0 0 4.71239 0 1
3.61063 4.35 -0.75 0 0 1.82193 0 1
0.7 3.82 -0.75 0 0 4.71239 0 1
0.449375 4.35 -0.75 0 0 1.5708 0 1
0.7 0.13 -0.75 0 0 4.53227 0 1
0.449375 -0.4 -0.75 0 0 1.5708 0 1
3.61063 -0.4 -0.75 0 0 0.180118 0 1
0.7 3.82 -0.75 0 0 0 0 1
0.7 2.24 -0.75 0 0 1.5708 0 1
0.7 2.77 -0.75 0 0 1.5708 0 1
2.3 2.24 -0.75 0 0 4.25159 0 1
3.61703 2.77 -0.75 0 0 1.66121 0 1
3.61063 -0.4 -0.75 0 0 1.2462 0 1
3.88 -0.130625 -0.75 0 0 2.26578 0 1
2.3 0.13 -0.75 0 0 4.71239 0 1
0.7 0.13 -0.75 0 0 0.180118 0 1
3.61063 -0.4 -0.75 0 0 0.929876 0 1
2.3 2.24 -0.75 0 0 0.460803 0 1
0.18 4.08078 -0.75 0 0 2.3559 0 1
0.18 -0.130781 -0.75 0 0 2.3559 0 1
0.449375 -0.4 -0.75 0 0 0.785687 0 1
0.449375 4.35 -0.75 0 0 0.785688 0 1
3.61703 2.77 -0.75 0 0 0.697669 0 1
3.88 -0.130625 -0.75 0 0 0.0904123 0 1
3.88 2.50844 -0.75 0 0 2.35351 0 1
3.61063 4.35 -0.75 0 0 0.536011 0 1
3.88 3.3 -0.75 0 0 0.251132 0 1
3.88 4.08156 -0.75 0 0 2.35445 0 1
0.7 3.82 -0.75 0 0 0 0 1
0.7 0.13 -0.75 0 0 0 0 1
0.7 2.24 -0.75 0 0 0 0 1
2.83 3.3 -2.25 0 0 -1.5708 0 1
3.88 3.3 -2.25 0 0 -1.31966 0 1
2.83 3.82 -2.25 0 0 -4.71239 0 1
3.61063 4.35 -2.25 0 0 -1.82193 0 1
0.7 3.82 -2.25 0 0 -4.71239 0 1
0.449375 4.35 -2.25 0 0 -1.5708 0 1
0.7 0.13 -2.25 0 0 -4.53227 0 1
0.449375 -0.4 -2.25 0 0 -1.5708 0 1
3.61063 -0.4 -2.25 0 0 -0.180118 0 1
0.7 3.82 -2.25 0 0 0 0 1
0.7 2.24 -2.25 0 0 -1.5708 0 1
0.7 2.77 -2.25 0 0 -1.5708 0 1
2.3 2.24 -2.25 0 0 -4.25159 0 1
3.61703 2.77 -2.25 0 0 -1.66121 0 1
3.61063 -0.4 -2.25 0 0 -1.2462 0 1
3.88 -0.130625 -2.25 0 0 -2.26578 0 1
2.3 0.13 -2.25 0 0 -4.71239 0 1
0.7 0.13 -2.25 0 0 -0.180118 0 1
3.61063 -0.4 -2.25 0 0 -0.929876 0 1
2.3 2.24 -2.25 0 0 -0.460803 0 1
0.18 4.08078 -2.25 0 0 -2.3559 0 1
0.18 -0.130781 -2.25 0 0 -2.3559 0 1
0.449375 -0.4 -2.25 0 0 -0.785687 0 1
0.449375 4.35 -2.25 0 0 -0.785688 0 1
3.61703 2.77 -2.25 0 0 -0.697669 0 1
3.88 -0.130625 -2.25 0 0 -0.0904123 0 1
3.88 2.50844 -2.25 0 0 -2.35351 0 1
3.61063 4.35 -2.25 0 0 -0.536011 0 1
3.88 3.3 -2.25 0 0 -0.251132 0 1
3.88 4.08156 -2.25 0 0 -2.35445 0 1
0.7 3.82 -2.25 0 0 0 0 1
0.7 0.13 -2.25 0 0 0 0 1
0.7 2.24 -2.25 0 0 0 0 1
3 0 2 1 
3 0 3 2 
3 4 6 5 
3 4 7 6 
3 8 10 9 
3 8 11 10 
3 12 14 13 
3 12 15 14 
3 16 18 17 
3 16 19 18 
3 20 22 21 
3 20 23 22 
3 24 26 25 
3 24 27 26 
3 28 30 29 
3 28 31 30 
3 32 34 33 
3 32 35 34 
3 36 38 37 
3 36 39 38 
3 40 42 41 
3 40 43 42 
3 44 46 45 
3 44 47 46 
3 48 50 49 
3 48 51 50 
3 52 54 53 
3 52 55 54 
3 56 58 57 
3 56 59 58 
3 60 62 61 
3 60 63 62 
3 64 66 65 
3 64 67 66 
3 68 70 69 
3 68 71 70 
3 72 74 73 
3 72 75 74 
3 76 77 78 
3 78 77 79 
3 78 79 80 
3 80 79 81 
3 80 81 82 
3 82 81 83 
3 82 83 84 
3 85 86 87 
3 87 86 88 
3 87 88 89 
3 89 88 90 
3 89 90 91 
3 92 93 94 
3 92 94 95 
3 96 97 98 
3 96 98 99 
3 100 101 102 
3 103 104 105 
3 106 107 108 
3 109 111 110 
3 111 112 110 
3 111 113 112 
3 113 114 112 
3 113 115 114 
3 115 116 114 
3 115 117 116 
3 118 120 119 
3 120 121 119 
3 120 122 121 
3 122 123 121 
3 122 124 123 
3 125 127 126 
3 125 128 127 
3 129 131 130 
3 129 132 131 
3 133 135 134 
3 136 138 137 
3 139 141 140 
