ply
format ascii 1.0
comment VCGLIB generated
element vertex 144
property float x
property float y
property float z
property float nx
property float ny
property float nz
property float texture_u
property float texture_v
element face 84
property list uchar int vertex_indices
end_header
0.14 2.77 -0.75 -1.5708 0 0 0 1
0.14 2.77 -2.25 -1.5708 0 0 0 1
0.14 4.08141 -2.25 -1.5708 0 0 0 1
0.14 4.08141 -0.75 -1.5708 0 0 0 1
0.14 4.08141 -0.75 -1.1075 1.11394 0 0 1
0.14 4.08141 -2.25 -1.1075 1.11394 0 0 1
0.410156 4.35 -2.25 -1.1075 1.11394 0 0 1
0.410156 4.35 -0.75 -1.1075 1.11394 0 0 1
0.410156 4.35 -0.75 0 1.5708 0 0 1
0.410156 4.35 -2.25 0 1.5708 0 0 1
3.57984 4.35 -2.25 0 1.5708 0 0 1
3.57984 4.35 -0.75 0 1.5708 0 0 1
3.57984 4.35 -0.75 1.10911 1.11233 0 0 1
3.57984 4.35 -2.25 1.10911 1.11233 0 0 1
3.85 4.08063 -2.25 1.10911 1.11233 0 0 1
3.85 4.08063 -0.75 1.10911 1.11233 0 0 1
3.85 4.08063 -0.75 1.5708 0 0 0 1
3.85 4.08063 -2.25 1.5708 0 0 0 1
3.85 1.44156 -2.25 1.5708 0 0 0 1
3.85 1.44156 -0.75 1.5708 0 0 0 1
3.85 1.44156 -0.75 1.10708 -1.11435 0 0 1
3.85 1.44156 -2.25 1.10708 -1.11435 0 0 1
3.58672 1.18 -2.25 1.10708 -1.11435 0 0 1
3.58672 1.18 -0.75 1.10708 -1.11435 0 0 1
3.58672 1.18 -0.75 0 -1.5708 0 0 1
3.58672 1.18 -2.25 0 -1.5708 0 0 1
1.72 1.18 -2.25 0 -1.5708 0 0 1
1.72 1.18 -0.75 0 -1.5708 0 0 1
1.72 1.18 -0.75 1.5708 0 0 0 1
1.72 1.18 -2.25 1.5708 0 0 0 1
1.72 0.13 -2.25 1.5708 0 0 0 1
1.72 0.13 -0.75 1.5708 0 0 0 1
1.72 0.13 -0.75 0 1.5708 0 0 1
1.72 0.13 -2.25 0 1.5708 0 0 1
3.33 0.13 -2.25 0 1.5708 0 0 1
3.33 0.13 -0.75 0 1.5708 0 0 1
3.33 0.13 -0.75 -1.5708 0 0 0 1
3.33 0.13 -2.25 -1.5708 0 0 0 1
3.33 0.66 -2.25 -1.5708 0 0 0 1
3.33 0.66 -0.75 -1.5708 0 0 0 1
3.33 0.66 -0.75 0 1.5708 0 0 1
3.33 0.66 -2.25 0 1.5708 0 0 1
3.85 0.66 -2.25 0 1.5708 0 0 1
3.85 0.66 -0.75 0 1.5708 0 0 1
3.85 0.66 -0.75 1.5708 0 0 0 1
3.85 0.66 -2.25 1.5708 0 0 0 1
3.85 -0.138906 -2.25 1.5708 0 0 0 1
3.85 -0.138906 -0.75 1.5708 0 0 0 1
3.85 -0.138906 -0.75 1.1084 -1.11304 0 0 1
3.85 -0.138906 -2.25 1.1084 -1.11304 0 0 1
3.58781 -0.4 -2.25 1.1084 -1.11304 0 0 1
3.58781 -0.4 -0.75 1.1084 -1.11304 0 0 1
3.58781 -0.4 -0.75 0 -1.5708 0 0 1
3.58781 -0.4 -2.25 0 -1.5708 0 0 1
0.402188 -0.4 -2.25 0 -1.5708 0 0 1
0.402188 -0.4 -0.75 0 -1.5708 0 0 1
0.402188 -0.4 -0.75 -1.10773 -1.11371 0 0 1
0.402188 -0.4 -2.25 -1.10773 -1.11371 0 0 1
0.14 -0.139219 -2.25 -1.10773 -1.11371 0 0 1
0.14 -0.139219 -0.75 -1.10773 -1.11371 0 0 1
0.14 -0.139219 -0.75 -1.5708 0 0 0 1
0.14 -0.139219 -2.25 -1.5708 0 0 0 1
0.14 1.44125 -2.25 -1.5708 0 0 0 1
0.14 1.44125 -0.75 -1.5708 0 0 0 1
0.14 1.44125 -0.75 -1.10493 1.11649 0 0 1
0.14 1.44125 -2.25 -1.10493 1.11649 0 0 1
0.411562 1.71 -2.25 -1.10493 1.11649 0 0 1
0.411562 1.71 -0.75 -1.10493 1.11649 0 0 1
0.411562 1.71 -0.75 0 1.5708 0 0 1
0.411562 1.71 -2.25 0 1.5708 0 0 1
2.8 1.71 -2.25 0 1.5708 0 0 1
2.8 1.71 -0.75 0 1.5708 0 0 1
2.8 1.71 -0.75 -1.5708 0 0 0 1
2.8 1.71 -2.25 -1.5708 0 0 0 1
2.8 3.82 -2.25 -1.5708 0 0 0 1
2.8 3.82 -0.75 -1.5708 0 0 0 1
2.8 3.82 -0.75 0 -1.5708 0 0 1
2.8 3.82 -2.25 0 -1.5708 0 0 1
0.68 3.82 -2.25 0 -1.5708 0 0 1
0.68 3.82 -0.75 0 -1.5708 0 0 1
0.68 3.82 -0.75 1.5708 0 0 0 1
0.68 3.82 -2.25 1.5708 0 0 0 1
0.68 2.77 -2.25 1.5708 0 0 0 1
0.68 2.77 -0.75 1.5708 0 0 0 1
0.68 2.77 -0.75 0 -1.5708 0 0 1
0.68 2.77 -2.25 0 -1.5708 0 0 1
0.14 2.77 -2.25 0 -1.5708 0 0 1
0.14 2.77 -0.75 0 -1.5708 0 0 1
3.58781 -0.4 -0.75 0 0 2.35828 0 1
3.85 -0.138906 -0.75 0 0 2.35411 0 1
3.85 0.66 -0.75 0 0 1.5708 0 1
3.33 0.66 -0.75 0 0 1.5708 0 1
3.33 0.13 -0.75 0 0 4.71239 0 1
1.72 0.13 -0.75 0 0 2.75921 0 1
0.402188 -0.4 -0.75 0 0 0.382386 0 1
0.402188 -0.4 -0.75 0 0 1.18397 0 1
1.72 0.13 -0.75 0 0 1.95318 0 1
0.411562 1.71 -0.75 0 0 1.57524 0 1
1.72 1.18 -0.75 0 0 4.71239 0 1
2.8 1.71 -0.75 0 0 4.71239 0 1
3.58672 1.18 -0.75 0 0 1.56863 0 1
2.8 3.82 -0.75 0 0 4.71239 0 1
3.57984 4.35 -0.75 0 0 1.57297 0 1
0.68 3.82 -0.75 0 0 4.71239 0 1
0.410156 4.35 -0.75 0 0 2.35909 0 1
0.68 2.77 -0.75 0 0 1.5708 0 1
0.14 4.08141 -0.75 0 0 2.35329 0 1
0.14 2.77 -0.75 0 0 1.5708 0 1
0.14 1.44125 -0.75 0 0 2.35099 0 1
0.14 -0.139219 -0.75 0 0 2.3535 0 1
0.402188 -0.4 -0.75 0 0 0.79253 0 1
0.411562 1.71 -0.75 0 0 0.78616 0 1
3.85 4.08063 -0.75 0 0 2.35475 0 1
3.57984 4.35 -0.75 0 0 0.784677 0 1
3.58672 1.18 -0.75 0 0 0.79084 0 1
3.85 1.44156 -0.75 0 0 2.35292 0 1
3.58781 -0.4 -2.25 0 0 -2.35828 0 1
3.85 -0.138906 -2.25 0 0 -2.35411 0 1
3.85 0.66 -2.25 0 0 -1.5708 0 1
3.33 0.66 -2.25 0 0 -1.5708 0 1
3.33 0.13 -2.25 0 0 -4.71239 0 1
1.72 0.13 -2.25 0 0 -2.75921 0 1
0.402188 -0.4 -2.25 0 0 -0.382386 0 1
0.402188 -0.4 -2.25 0 0 -1.18397 0 1
1.72 0.13 -2.25 0 0 -1.95318 0 1
0.411562 1.71 -2.25 0 0 -1.57524 0 1
1.72 1.18 -2.25 0 0 -4.71239 0 1
2.8 1.71 -2.25 0 0 -4.71239 0 1
3.58672 1.18 -2.25 0 0 -1.56863 0 1
2.8 3.82 -2.25 0 0 -4.71239 0 1
3.57984 4.35 -2.25 0 0 -1.57297 0 1
0.68 3.82 -2.25 0 0 -4.71239 0 1
0.410156 4.35 -2.25 0 0 -2.35909 0 1
0.68 2.77 -2.25 0 0 -1.5708 0 1
0.14 4.08141 -2.25 0 0 -2.35329 0 1
0.14 2.77 -2.25 0 0 -1.5708 0 1
0.14 1.44125 -2.25 0 0 -2.35099 0 1
0.14 -0.139219 -2.25 0 0 -2.3535 0 1
0.402188 -0.4 -2.25 0 0 -0.79253 0 1
0.411562 1.71 -2.25 0 0 -0.78616 0 1
3.85 4.08063 -2.25 0 0 -2.35475 0 1
3.57984 4.35 -2.25 0 0 -0.784677 0 1
3.58672 1.18 -2.25 0 0 -0.79084 0 1
3.85 1.44156 -2.25 0 0 -2.35292 0 1
3 0 2 1 
3 0 3 2 
3 4 6 5 
3 4 7 6 
3 8 10 9 
3 8 11 10 
3 12 14 13 
3 12 15 14 
3 16 18 17 
3 16 19 18 
3 20 22 21 
3 20 23 22 
3 24 26 25 
3 24 27 26 
3 28 30 29 
3 28 31 30 
3 32 34 33 
3 32 35 34 
3 36 38 37 
3 36 39 38 
3 40 42 41 
3 40 43 42 
3 44 46 45 
3 44 47 46 
3 48 50 49 
3 48 51 50 
3 52 54 53 
3 52 55 54 
3 56 58 57 
3 56 59 58 
3 60 62 61 
3 60 63 62 
3 64 66 65 
3 64 67 66 
3 68 70 69 
3 68 71 70 
3 72 74 73 
3 72 75 74 
3 76 78 77 
3 76 79 78 
3 80 82 81 
3 80 83 82 
3 84 86 85 
3 84 87 86 
3 88 89 90 
3 88 90 91 
3 88 91 92 
3 88 92 93 
3 88 93 94 
3 95 96 97 
3 97 96 98 
3 97 98 99 
3 99 98 100 
3 99 100 101 
3 101 100 102 
3 101 102 103 
3 103 102 104 
3 103 104 105 
3 105 104 106 
3 105 106 107 
3 108 109 110 
3 108 110 111 
3 112 113 114 
3 112 114 115 
3 116 118 117 
3 116 119 118 
3 116 120 119 
3 116 121 120 
3 116 122 121 
3 123 125 124 
3 125 126 124 
3 125 127 126 
3 127 128 126 
3 127 129 128 
3 129 130 128 
3 129 131 130 
3 131 132 130 
3 131 133 132 
3 133 134 132 
3 133 135 134 
3 136 138 137 
3 136 139 138 
3 140 142 141 
3 140 143 142 
