ply
format ascii 1.0
comment VCGLIB generated
element vertex 108
property float x
property float y
property float z
property float nx
property float ny
property float nz
property float texture_u
property float texture_v
element face 56
property list uchar int vertex_indices
end_header
3.15 -0.4 -0.75 0 -1.5708 0 0 1
3.15 -0.4 -2.25 0 -1.5708 0 0 1
0.52 -0.4 -2.25 0 -1.5708 0 0 1
0.52 -0.4 -0.75 0 -1.5708 0 0 1
0.52 -0.4 -0.75 -1.5708 0 0 0 1
0.52 -0.4 -2.25 -1.5708 0 0 0 1
0.52 0.13 -2.25 -1.5708 0 0 0 1
0.52 0.13 -0.75 -1.5708 0 0 0 1
0.52 0.13 -0.75 0 1.5708 0 0 1
0.52 0.13 -2.25 0 1.5708 0 0 1
3.15 0.13 -2.25 0 1.5708 0 0 1
3.15 0.13 -0.75 0 1.5708 0 0 1
3.15 0.13 -0.75 1.5708 0 0 0 1
3.15 0.13 -2.25 1.5708 0 0 0 1
3.15 -0.4 -2.25 1.5708 0 0 0 1
3.15 -0.4 -0.75 1.5708 0 0 0 1
2.09 0.66 -0.75 0 -1.5708 0 0 1
2.09 0.66 -2.25 0 -1.5708 0 0 1
1.57 0.66 -2.25 0 -1.5708 0 0 1
1.57 0.66 -0.75 0 -1.5708 0 0 1
1.57 0.66 -0.75 -1.5708 0 0 0 1
1.57 0.66 -2.25 -1.5708 0 0 0 1
1.57 1.71 -2.25 -1.5708 0 0 0 1
1.57 1.71 -0.75 -1.5708 0 0 0 1
1.57 1.71 -0.75 0 -1.5708 0 0 1
1.57 1.71 -2.25 0 -1.5708 0 0 1
0.52 1.71 -2.25 0 -1.5708 0 0 1
0.52 1.71 -0.75 0 -1.5708 0 0 1
0.52 1.71 -0.75 -1.5708 0 0 0 1
0.52 1.71 -2.25 -1.5708 0 0 0 1
0.52 2.24 -2.25 -1.5708 0 0 0 1
0.52 2.24 -0.75 -1.5708 0 0 0 1
0.52 2.24 -0.75 0 1.5708 0 0 1
0.52 2.24 -2.25 0 1.5708 0 0 1
1.57 2.24 -2.25 0 1.5708 0 0 1
1.57 2.24 -0.75 0 1.5708 0 0 1
1.57 2.24 -0.75 -1.5708 0 0 0 1
1.57 2.24 -2.25 -1.5708 0 0 0 1
1.57 3.3 -2.25 -1.5708 0 0 0 1
1.57 3.3 -0.75 -1.5708 0 0 0 1
1.57 3.3 -0.75 0 1.5708 0 0 1
1.57 3.3 -2.25 0 1.5708 0 0 1
2.09 3.3 -2.25 0 1.5708 0 0 1
2.09 3.3 -0.75 0 1.5708 0 0 1
2.09 3.3 -0.75 1.5708 0 0 0 1
2.09 3.3 -2.25 1.5708 0 0 0 1
2.09 2.24 -2.25 1.5708 0 0 0 1
2.09 2.24 -0.75 1.5708 0 0 0 1
2.09 2.24 -0.75 0 1.5708 0 0 1
2.09 2.24 -2.25 0 1.5708 0 0 1
3.15 2.24 -2.25 0 1.5708 0 0 1
3.15 2.24 -0.75 0 1.5708 0 0 1
3.15 2.24 -0.75 1.5708 0 0 0 1
3.15 2.24 -2.25 1.5708 0 0 0 1
3.15 1.71 -2.25 1.5708 0 0 0 1
3.15 1.71 -0.75 1.5708 0 0 0 1
3.15 1.71 -0.75 0 -1.5708 0 0 1
3.15 1.71 -2.25 0 -1.5708 0 0 1
2.09 1.71 -2.25 0 -1.5708 0 0 1
2.09 1.71 -0.75 0 -1.5708 0 0 1
2.09 1.71 -0.75 1.5708 0 0 0 1
2.09 1.71 -2.25 1.5708 0 0 0 1
2.09 0.66 -2.25 1.5708 0 0 0 1
2.09 0.66 -0.75 1.5708 0 0 0 1
0.52 0.13 -0.75 0 0 1.5708 0 1
0.52 -0.4 -0.75 0 0 1.5708 0 1
3.15 -0.4 -0.75 0 0 1.5708 0 1
3.15 0.13 -0.75 0 0 1.5708 0 1
2.09 3.3 -0.75 0 0 1.5708 0 1
1.57 3.3 -0.75 0 0 1.5708 0 1
2.09 0.66 -0.75 0 0 0.45983 0 1
1.57 2.24 -0.75 0 0 4.71239 0 1
1.57 1.71 -0.75 0 0 4.25256 0 1
0.52 2.24 -0.75 0 0 1.5708 0 1
0.52 1.71 -0.75 0 0 1.5708 0 1
2.09 1.71 -0.75 0 0 1.5708 0 1
3.15 1.71 -0.75 0 0 0.463647 0 1
2.09 2.24 -0.75 0 0 1.10715 0 1
2.09 3.3 -0.75 0 0 0 0 1
2.09 0.66 -0.75 0 0 0 0 1
2.09 2.24 -0.75 0 0 0.463647 0 1
3.15 1.71 -0.75 0 0 1.10715 0 1
3.15 2.24 -0.75 0 0 1.5708 0 1
2.09 0.66 -0.75 0 0 1.11097 0 1
1.57 1.71 -0.75 0 0 0.459831 0 1
1.57 0.66 -0.75 0 0 1.5708 0 1
0.52 0.13 -2.25 0 0 -1.5708 0 1
0.52 -0.4 -2.25 0 0 -1.5708 0 1
3.15 -0.4 -2.25 0 0 -1.5708 0 1
3.15 0.13 -2.25 0 0 -1.5708 0 1
2.09 3.3 -2.25 0 0 -1.5708 0 1
1.57 3.3 -2.25 0 0 -1.5708 0 1
2.09 0.66 -2.25 0 0 -0.45983 0 1
1.57 2.24 -2.25 0 0 -4.71239 0 1
1.57 1.71 -2.25 0 0 -4.25256 0 1
0.52 2.24 -2.25 0 0 -1.5708 0 1
0.52 1.71 -2.25 0 0 -1.5708 0 1
2.09 1.71 -2.25 0 0 -1.5708 0 1
3.15 1.71 -2.25 0 0 -0.463647 0 1
2.09 2.24 -2.25 0 0 -1.10715 0 1
2.09 3.3 -2.25 0 0 0 0 1
2.09 0.66 -2.25 0 0 0 0 1
2.09 2.24 -2.25 0 0 -0.463647 0 1
3.15 1.71 -2.25 0 0 -1.10715 0 1
3.15 2.24 -2.25 0 0 -1.5708 0 1
2.09 0.66 -2.25 0 0 -1.11097 0 1
1.57 1.71 -2.25 0 0 -0.459831 0 1
1.57 0.66 -2.25 0 0 -1.5708 0 1
3 0 2 1 
3 0 3 2 
3 4 6 5 
3 4 7 6 
3 8 10 9 
3 8 11 10 
3 12 14 13 
3 12 15 14 
3 16 18 17 
3 16 19 18 
3 20 22 21 
3 20 23 22 
3 24 26 25 
3 24 27 26 
3 28 30 29 
3 28 31 30 
3 32 34 33 
3 32 35 34 
3 36 38 37 
3 36 39 38 
3 40 42 41 
3 40 43 42 
3 44 46 45 
3 44 47 46 
3 48 50 49 
3 48 51 50 
3 52 54 53 
3 52 55 54 
3 56 58 57 
3 56 59 58 
3 60 62 61 
3 60 63 62 
3 64 65 66 
3 64 66 67 
3 68 69 70 
3 70 69 71 
3 70 71 72 
3 72 71 73 
3 72 73 74 
3 75 76 77 
3 75 77 78 
3 75 78 79 
3 80 81 82 
3 83 84 85 
3 86 88 87 
3 86 89 88 
3 90 92 91 
3 92 93 91 
3 92 94 93 
3 94 95 93 
3 94 96 95 
3 97 99 98 
3 97 100 99 
3 97 101 100 
3 102 104 103 
3 105 107 106 
