ply
format ascii 1.0
comment VCGLIB generated
element vertex 124
property float x
property float y
property float z
property float nx
property float ny
property float nz
property float texture_u
property float texture_v
element face 68
property list uchar int vertex_indices
end_header
1.36 3.82 -0.75 1.5708 0 0 0 1
1.36 3.82 -2.25 1.5708 0 0 0 1
1.36 3.02187 -2.25 1.5708 0 0 0 1
1.36 3.02187 -0.75 1.5708 0 0 0 1
1.36 3.02187 -0.75 1.11006 1.11138 0 0 1
1.36 3.02187 -2.25 1.11007 1.11138 0 0 1
1.89 2.4925 -2.25 1.11006 1.11138 0 0 1
1.89 2.4925 -0.75 1.11007 1.11138 0 0 1
1.89 2.4925 -0.75 1.5708 0 0 0 1
1.89 2.4925 -2.25 1.5708 0 0 0 1
1.89 0.13 -2.25 1.5708 0 0 0 1
1.89 0.13 -0.75 1.5708 0 0 0 1
1.89 0.13 -0.75 0 1.5708 0 0 1
1.89 0.13 -2.25 0 1.5708 0 0 1
3.48 0.13 -2.25 0 1.5708 0 0 1
3.48 0.13 -0.75 0 1.5708 0 0 1
3.48 0.13 -0.75 -1.5708 0 0 0 1
3.48 0.13 -2.25 -1.5708 0 0 0 1
3.48 0.66 -2.25 -1.5708 0 0 0 1
3.48 0.66 -0.75 -1.5708 0 0 0 1
3.48 0.66 -0.75 0 1.5708 0 0 1
3.48 0.66 -2.25 0 1.5708 0 0 1
4 0.66 -2.25 0 1.5708 0 0 1
4 0.66 -0.75 0 1.5708 0 0 1
4 0.66 -0.75 1.5708 0 0 0 1
4 0.66 -2.25 1.5708 0 0 0 1
4 -0.131094 -2.25 1.5708 0 0 0 1
4 -0.131094 -0.75 1.5708 0 0 0 1
4 -0.131094 -0.75 1.11007 -1.11137 0 0 1
4 -0.131094 -2.25 1.11007 -1.11137 0 0 1
3.73078 -0.4 -2.25 1.11007 -1.11137 0 0 1
3.73078 -0.4 -0.75 1.11007 -1.11137 0 0 1
3.73078 -0.4 -0.75 0 -1.5708 0 0 1
3.73078 -0.4 -2.25 0 -1.5708 0 0 1
0.579219 -0.4 -2.25 0 -1.5708 0 0 1
0.579219 -0.4 -0.75 0 -1.5708 0 0 1
0.579219 -0.4 -0.75 -1.11072 -1.11072 0 0 1
0.579219 -0.4 -2.25 -1.11072 -1.11072 0 0 1
0.31 -0.130781 -2.25 -1.11072 -1.11072 0 0 1
0.31 -0.130781 -0.75 -1.11072 -1.11072 0 0 1
0.31 -0.130781 -0.75 -1.5708 0 0 0 1
0.31 -0.130781 -2.25 -1.5708 0 0 0 1
0.31 4.08078 -2.25 -1.5708 0 0 0 1
0.31 4.08078 -0.75 -1.5708 0 0 0 1
0.31 4.08078 -0.75 -1.11201 1.10943 0 0 1
0.31 4.08078 -2.25 -1.11201 1.10943 0 0 1
0.578594 4.35 -2.25 -1.11201 1.10943 0 0 1
0.578594 4.35 -0.75 -1.11201 1.10943 0 0 1
0.578594 4.35 -0.75 0 1.5708 0 0 1
0.578594 4.35 -2.25 0 1.5708 0 0 1
3.73141 4.35 -2.25 0 1.5708 0 0 1
3.73141 4.35 -0.75 0 1.5708 0 0 1
3.73141 4.35 -0.75 1.1104 1.11105 0 0 1
3.73141 4.35 -2.25 1.1104 1.11105 0 0 1
4 4.08156 -2.25 1.1104 1.11105 0 0 1
4 4.08156 -0.75 1.1104 1.11105 0 0 1
4 4.08156 -0.75 1.5708 0 0 0 1
4 4.08156 -2.25 1.5708 0 0 0 1
4 3.3 -2.25 1.5708 0 0 0 1
4 3.3 -0.75 1.5708 0 0 0 1
4 3.3 -0.75 0 -1.5708 0 0 1
4 3.3 -2.25 0 -1.5708 0 0 1
3.48 3.3 -2.25 0 -1.5708 0 0 1
3.48 3.3 -0.75 0 -1.5708 0 0 1
3.48 3.3 -0.75 -1.5708 0 0 0 1
3.48 3.3 -2.25 -1.5708 0 0 0 1
3.48 3.82 -2.25 -1.5708 0 0 0 1
3.48 3.82 -0.75 -1.5708 0 0 0 1
3.48 3.82 -0.75 0 -1.5708 0 0 1
3.48 3.82 -2.25 0 -1.5708 0 0 1
1.36 3.82 -2.25 0 -1.5708 0 0 1
1.36 3.82 -0.75 0 -1.5708 0 0 1
3.48 3.3 -0.75 0 0 1.5708 0 1
4 3.3 -0.75 0 0 1.32036 0 1
3.48 3.82 -0.75 0 0 4.71239 0 1
3.73141 4.35 -0.75 0 0 1.82123 0 1
1.36 3.82 -0.75 0 0 4.52944 0 1
0.578594 4.35 -0.75 0 0 2.35503 0 1
0.579219 -0.4 -0.75 0 0 0.968349 0 1
0.31 4.08078 -0.75 0 0 2.35736 0 1
0.31 -0.130781 -0.75 0 0 2.35619 0 1
3.48 0.66 -0.75 0 0 0.232314 0 1
3.48 0.13 -0.75 0 0 4.71239 0 1
3.73078 -0.4 -0.75 0 0 1.33848 0 1
1.89 0.13 -0.75 0 0 4.53113 0 1
0.579219 -0.4 -0.75 0 0 1.38785 0 1
1.36 3.02187 -0.75 0 0 3.32285 0 1
1.36 3.82 -0.75 0 0 0.18295 0 1
4 0.66 -0.75 0 0 1.5708 0 1
3.48 0.66 -0.75 0 0 1.33848 0 1
3.73078 -0.4 -0.75 0 0 1.01829 0 1
4 -0.131094 -0.75 0 0 2.35561 0 1
1.89 2.4925 -0.75 0 0 2.3556 0 1
1.36 3.02187 -0.75 0 0 0.604728 0 1
1.89 0.13 -0.75 0 0 0.18126 0 1
3.73141 4.35 -0.75 0 0 0.535257 0 1
4 3.3 -0.75 0 0 0.250433 0 1
4 4.08156 -0.75 0 0 2.3559 0 1
3.48 3.3 -2.25 0 0 -1.5708 0 1
4 3.3 -2.25 0 0 -1.32036 0 1
3.48 3.82 -2.25 0 0 -4.71239 0 1
3.73141 4.35 -2.25 0 0 -1.82123 0 1
1.36 3.82 -2.25 0 0 -4.52944 0 1
0.578594 4.35 -2.25 0 0 -2.35503 0 1
0.579219 -0.4 -2.25 0 0 -0.968349 0 1
0.31 4.08078 -2.25 0 0 -2.35736 0 1
0.31 -0.130781 -2.25 0 0 -2.35619 0 1
3.48 0.66 -2.25 0 0 -0.232314 0 1
3.48 0.13 -2.25 0 0 -4.71239 0 1
3.73078 -0.4 -2.25 0 0 -1.33848 0 1
1.89 0.13 -2.25 0 0 -4.53113 0 1
0.579219 -0.4 -2.25 0 0 -1.38785 0 1
1.36 3.02187 -2.25 0 0 -3.32285 0 1
1.36 3.82 -2.25 0 0 -0.18295 0 1
4 0.66 -2.25 0 0 -1.5708 0 1
3.48 0.66 -2.25 0 0 -1.33848 0 1
3.73078 -0.4 -2.25 0 0 -1.01829 0 1
4 -0.131094 -2.25 0 0 -2.35561 0 1
1.89 2.4925 -2.25 0 0 -2.3556 0 1
1.36 3.02187 -2.25 0 0 -0.604728 0 1
1.89 0.13 -2.25 0 0 -0.18126 0 1
3.73141 4.35 -2.25 0 0 -0.535257 0 1
4 3.3 -2.25 0 0 -0.250433 0 1
4 4.08156 -2.25 0 0 -2.3559 0 1
3 0 2 1 
3 0 3 2 
3 4 6 5 
3 4 7 6 
3 8 10 9 
3 8 11 10 
3 12 14 13 
3 12 15 14 
3 16 18 17 
3 16 19 18 
3 20 22 21 
3 20 23 22 
3 24 26 25 
3 24 27 26 
3 28 30 29 
3 28 31 30 
3 32 34 33 
3 32 35 34 
3 36 38 37 
3 36 39 38 
3 40 42 41 
3 40 43 42 
3 44 46 45 
3 44 47 46 
3 48 50 49 
3 48 51 50 
3 52 54 53 
3 52 55 54 
3 56 58 57 
3 56 59 58 
3 60 62 61 
3 60 63 62 
3 64 66 65 
3 64 67 66 
3 68 70 69 
3 68 71 70 
3 72 73 74 
3 74 73 75 
3 74 75 76 
3 76 75 77 
3 76 77 78 
3 78 77 79 
3 78 79 80 
3 81 82 83 
3 83 82 84 
3 83 84 85 
3 85 84 86 
3 85 86 87 
3 88 89 90 
3 88 90 91 
3 92 93 94 
3 95 96 97 
3 98 100 99 
3 100 101 99 
3 100 102 101 
3 102 103 101 
3 102 104 103 
3 104 105 103 
3 104 106 105 
3 107 109 108 
3 109 110 108 
3 109 111 110 
3 111 112 110 
3 111 113 112 
3 114 116 115 
3 114 117 116 
3 118 120 119 
3 121 123 122 
