ply
format ascii 1.0
comment VCGLIB generated
element vertex 96
property float x
property float y
property float z
property float nx
property float ny
property float nz
property float texture_u
property float texture_v
element face 52
property list uchar int vertex_indices
end_header
1.32 3.82 -0.75 1.5708 0 0 0 1
1.32 3.82 -2.25 1.5708 0 0 0 1
1.32 2.77 -2.25 1.5708 0 0 0 1
1.32 2.77 -0.75 1.5708 0 0 0 1
1.32 2.77 -0.75 0 1.5708 0 0 1
1.32 2.77 -2.25 0 1.5708 0 0 1
3.43016 2.77 -2.25 0 1.5708 0 0 1
3.43016 2.77 -0.75 0 1.5708 0 0 1
3.43016 2.77 -0.75 1.5708 0 0 0 1
3.43016 2.77 -2.25 1.5708 0 0 0 1
3.43016 2.24 -2.25 1.5708 0 0 0 1
3.43016 2.24 -0.75 1.5708 0 0 0 1
3.43016 2.24 -0.75 0 -1.5708 0 0 1
3.43016 2.24 -2.25 0 -1.5708 0 0 1
1.85 2.24 -2.25 0 -1.5708 0 0 1
1.85 2.24 -0.75 0 -1.5708 0 0 1
1.85 2.24 -0.75 1.5708 0 0 0 1
1.85 2.24 -2.25 1.5708 0 0 0 1
1.85 0.13 -2.25 1.5708 0 0 0 1
1.85 0.13 -0.75 1.5708 0 0 0 1
1.85 0.13 -0.75 0 1.5708 0 0 1
1.85 0.13 -2.25 0 1.5708 0 0 1
3.43016 0.13 -2.25 0 1.5708 0 0 1
3.43016 0.13 -0.75 0 1.5708 0 0 1
3.43016 0.13 -0.75 1.5708 0 0 0 1
3.43016 0.13 -2.25 1.5708 0 0 0 1
3.43016 -0.4 -2.25 1.5708 0 0 0 1
3.43016 -0.4 -0.75 1.5708 0 0 0 1
3.43016 -0.4 -0.75 0 -1.5708 0 0 1
3.43016 -0.4 -2.25 0 -1.5708 0 0 1
0.539219 -0.4 -2.25 0 -1.5708 0 0 1
0.539219 -0.4 -0.75 0 -1.5708 0 0 1
0.539219 -0.4 -0.75 -1.11072 -1.11072 0 0 1
0.539219 -0.4 -2.25 -1.11072 -1.11072 0 0 1
0.27 -0.130781 -2.25 -1.11072 -1.11072 0 0 1
0.27 -0.130781 -0.75 -1.11072 -1.11072 0 0 1
0.27 -0.130781 -0.75 -1.5708 0 0 0 1
0.27 -0.130781 -2.25 -1.5708 0 0 0 1
0.27 4.08078 -2.25 -1.5708 0 0 0 1
0.27 4.08078 -0.75 -1.5708 0 0 0 1
0.27 4.08078 -0.75 -1.11072 1.11072 0 0 1
0.27 4.08078 -2.25 -1.11072 1.11072 0 0 1
0.539219 4.35 -2.25 -1.11072 1.11072 0 0 1
0.539219 4.35 -0.75 -1.11072 1.11072 0 0 1
0.539219 4.35 -0.75 0 1.5708 0 0 1
0.539219 4.35 -2.25 0 1.5708 0 0 1
3.43016 4.35 -2.25 0 1.5708 0 0 1
3.43016 4.35 -0.75 0 1.5708 0 0 1
3.43016 4.35 -0.75 1.5708 0 0 0 1
3.43016 4.35 -2.25 1.5708 0 0 0 1
3.43016 3.82 -2.25 1.5708 0 0 0 1
3.43016 3.82 -0.75 1.5708 0 0 0 1
3.43016 3.82 -0.75 0 -1.5708 0 0 1
3.43016 3.82 -2.25 0 -1.5708 0 0 1
1.32 3.82 -2.25 0 -1.5708 0 0 1
1.32 3.82 -0.75 0 -1.5708 0 0 1
1.85 0.13 -0.75 0 0 4.71239 0 1
1.85 2.24 -0.75 0 0 2.35619 0 1
1.32 2.77 -0.75 0 0 3.46802 0 1
0.539219 4.35 -0.75 0 0 0.458968 0 1
0.539219 -0.4 -0.75 0 0 1.5708 0 1
3.43016 -0.4 -0.75 0 0 1.5708 0 1
3.43016 0.13 -0.75 0 0 1.5708 0 1
0.27 4.08078 -0.75 0 0 2.35619 0 1
0.27 -0.130781 -0.75 0 0 2.35619 0 1
0.539219 -0.4 -0.75 0 0 0.785398 0 1
0.539219 4.35 -0.75 0 0 0.785398 0 1
3.43016 2.77 -0.75 0 0 1.5708 0 1
1.32 2.77 -0.75 0 0 0.785398 0 1
1.85 2.24 -0.75 0 0 2.35619 0 1
3.43016 2.24 -0.75 0 0 1.5708 0 1
1.32 3.82 -0.75 0 0 4.71239 0 1
3.43016 3.82 -0.75 0 0 1.5708 0 1
3.43016 4.35 -0.75 0 0 1.5708 0 1
0.539219 4.35 -0.75 0 0 1.11183 0 1
1.32 2.77 -0.75 0 0 0.458969 0 1
1.85 0.13 -2.25 0 0 -4.71239 0 1
1.85 2.24 -2.25 0 0 -2.35619 0 1
1.32 2.77 -2.25 0 0 -3.46802 0 1
0.539219 4.35 -2.25 0 0 -0.458968 0 1
0.539219 -0.4 -2.25 0 0 -1.5708 0 1
3.43016 -0.4 -2.25 0 0 -1.5708 0 1
3.43016 0.13 -2.25 0 0 -1.5708 0 1
0.27 4.08078 -2.25 0 0 -2.35619 0 1
0.27 -0.130781 -2.25 0 0 -2.35619 0 1
0.539219 -0.4 -2.25 0 0 -0.785398 0 1
0.539219 4.35 -2.25 0 0 -0.785398 0 1
3.43016 2.77 -2.25 0 0 -1.5708 0 1
1.32 2.77 -2.25 0 0 -0.785398 0 1
1.85 2.24 -2.25 0 0 -2.35619 0 1
3.43016 2.24 -2.25 0 0 -1.5708 0 1
1.32 3.82 -2.25 0 0 -4.71239 0 1
3.43016 3.82 -2.25 0 0 -1.5708 0 1
3.43016 4.35 -2.25 0 0 -1.5708 0 1
0.539219 4.35 -2.25 0 0 -1.11183 0 1
1.32 2.77 -2.25 0 0 -0.458969 0 1
3 0 2 1 
3 0 3 2 
3 4 6 5 
3 4 7 6 
3 8 10 9 
3 8 11 10 
3 12 14 13 
3 12 15 14 
3 16 18 17 
3 16 19 18 
3 20 22 21 
3 20 23 22 
3 24 26 25 
3 24 27 26 
3 28 30 29 
3 28 31 30 
3 32 34 33 
3 32 35 34 
3 36 38 37 
3 36 39 38 
3 40 42 41 
3 40 43 42 
3 44 46 45 
3 44 47 46 
3 48 50 49 
3 48 51 50 
3 52 54 53 
3 52 55 54 
3 56 57 58 
3 56 58 59 
3 56 59 60 
3 56 60 61 
3 56 61 62 
3 63 64 65 
3 63 65 66 
3 67 68 69 
3 67 69 70 
3 71 72 73 
3 71 73 74 
3 71 74 75 
3 76 78 77 
3 76 79 78 
3 76 80 79 
3 76 81 80 
3 76 82 81 
3 83 85 84 
3 83 86 85 
3 87 89 88 
3 87 90 89 
3 91 93 92 
3 91 94 93 
3 91 95 94 
