ply
format ascii 1.0
comment VCGLIB generated
element vertex 92
property float x
property float y
property float z
property float nx
property float ny
property float nz
property float texture_u
property float texture_v
element face 52
property list uchar int vertex_indices
end_header
0.75 4.63 -0.75 -1.5708 0 0 0 1
0.75 4.63 -2.25 -1.5708 0 0 0 1
0.75 -0.65 -2.25 -1.5708 0 0 0 1
0.75 -0.65 -0.75 -1.5708 0 0 0 1
0.75 -0.65 -0.75 0 1.5708 0 0 1
0.75 -0.65 -2.25 0 1.5708 0 0 1
0.22 -0.65 -2.25 0 1.5708 0 0 1
0.22 -0.65 -0.75 0 1.5708 0 0 1
0.22 -0.65 -0.75 -1.5708 0 0 0 1
0.22 -0.65 -2.25 -1.5708 0 0 0 1
0.22 -0.92 -2.25 -1.5708 0 0 0 1
0.22 -0.92 -0.75 -1.5708 0 0 0 1
0.22 -0.92 -0.75 0 -1.5708 0 0 1
0.22 -0.92 -2.25 0 -1.5708 0 0 1
1.54109 -0.92 -2.25 0 -1.5708 0 0 1
1.54109 -0.92 -0.75 0 -1.5708 0 0 1
1.54109 -0.92 -0.75 1.11008 -1.11137 0 0 1
1.54109 -0.92 -2.25 1.11008 -1.11137 0 0 1
1.81 -0.651406 -2.25 1.11008 -1.11137 0 0 1
1.81 -0.651406 -0.75 1.11008 -1.11137 0 0 1
1.81 -0.651406 -0.75 1.5708 0 0 0 1
1.81 -0.651406 -2.25 1.5708 0 0 0 1
1.81 1.71078 -2.25 1.5708 0 0 0 1
1.81 1.71078 -0.75 1.5708 0 0 0 1
1.81 1.71078 -0.75 0 -1.5708 0 0 1
1.81 1.71078 -2.25 0 -1.5708 0 0 1
2.33 1.71078 -2.25 0 -1.5708 0 0 1
2.33 1.71078 -0.75 0 -1.5708 0 0 1
2.33 1.71078 -0.75 1.5708 0 0 0 1
2.33 1.71078 -2.25 1.5708 0 0 0 1
2.33 2.24922 -2.25 1.5708 0 0 0 1
2.33 2.24922 -0.75 1.5708 0 0 0 1
2.33 2.24922 -0.75 0 1.5708 0 0 1
2.33 2.24922 -2.25 0 1.5708 0 0 1
1.81 2.24922 -2.25 0 1.5708 0 0 1
1.81 2.24922 -0.75 0 1.5708 0 0 1
1.81 2.24922 -0.75 1.5708 0 0 0 1
1.81 2.24922 -2.25 1.5708 0 0 0 1
1.81 4.61062 -2.25 1.5708 0 0 0 1
1.81 4.61062 -0.75 1.5708 0 0 0 1
1.81 4.61062 -0.75 1.11169 1.10975 0 0 1
1.81 4.61062 -2.25 1.11169 1.10975 0 0 1
1.54109 4.88 -2.25 1.11169 1.10975 0 0 1
1.54109 4.88 -0.75 1.11169 1.10975 0 0 1
1.54109 4.88 -0.75 0 1.5708 0 0 1
1.54109 4.88 -2.25 0 1.5708 0 0 1
0.22 4.88 -2.25 0 1.5708 0 0 1
0.22 4.88 -0.75 0 1.5708 0 0 1
0.22 4.88 -0.75 -1.5708 0 0 0 1
0.22 4.88 -2.25 -1.5708 0 0 0 1
0.22 4.63 -2.25 -1.5708 0 0 0 1
0.22 4.63 -0.75 -1.5708 0 0 0 1
0.22 4.63 -0.75 0 -1.5708 0 0 1
0.22 4.63 -2.25 0 -1.5708 0 0 1
0.75 4.63 -2.25 0 -1.5708 0 0 1
0.75 4.63 -0.75 0 -1.5708 0 0 1
0.75 4.63 -0.75 0 0 1.7353 0 1
1.54109 -0.92 -0.75 0 0 0.927564 0 1
1.54109 4.88 -0.75 0 0 2.04923 0 1
1.81 -0.651406 -0.75 0 0 2.35561 0 1
1.81 4.61062 -0.75 0 0 2.35707 0 1
1.81 1.71078 -0.75 0 0 1.5708 0 1
1.81 2.24922 -0.75 0 0 1.5708 0 1
2.33 1.71078 -0.75 0 0 1.5708 0 1
2.33 2.24922 -0.75 0 0 1.5708 0 1
0.22 4.88 -0.75 0 0 1.5708 0 1
0.22 4.63 -0.75 0 0 1.5708 0 1
0.75 4.63 -0.75 0 0 2.83551 0 1
1.54109 4.88 -0.75 0 0 0.306087 0 1
1.54109 -0.92 -0.75 0 0 1.42921 0 1
0.75 4.63 -0.75 0 0 0.141585 0 1
0.75 -0.65 -0.75 0 0 4.71239 0 1
0.22 -0.65 -0.75 0 0 1.5708 0 1
0.22 -0.92 -0.75 0 0 1.5708 0 1
0.75 4.63 -2.25 0 0 -1.7353 0 1
1.54109 -0.92 -2.25 0 0 -0.927564 0 1
1.54109 4.88 -2.25 0 0 -2.04923 0 1
1.81 -0.651406 -2.25 0 0 -2.35561 0 1
1.81 4.61062 -2.25 0 0 -2.35707 0 1
1.81 1.71078 -2.25 0 0 -1.5708 0 1
1.81 2.24922 -2.25 0 0 -1.5708 0 1
2.33 1.71078 -2.25 0 0 -1.5708 0 1
2.33 2.24922 -2.25 0 0 -1.5708 0 1
0.22 4.88 -2.25 0 0 -1.5708 0 1
0.22 4.63 -2.25 0 0 -1.5708 0 1
0.75 4.63 -2.25 0 0 -2.83551 0 1
1.54109 4.88 -2.25 0 0 -0.306087 0 1
1.54109 -0.92 -2.25 0 0 -1.42921 0 1
0.75 4.63 -2.25 0 0 -0.141585 0 1
0.75 -0.65 -2.25 0 0 -4.71239 0 1
0.22 -0.65 -2.25 0 0 -1.5708 0 1
0.22 -0.92 -2.25 0 0 -1.5708 0 1
3 0 1 2 
3 0 2 3 
3 4 5 6 
3 4 6 7 
3 8 9 10 
3 8 10 11 
3 12 13 14 
3 12 14 15 
3 16 17 18 
3 16 18 19 
3 20 21 22 
3 20 22 23 
3 24 25 26 
3 24 26 27 
3 28 29 30 
3 28 30 31 
3 32 33 34 
3 32 34 35 
3 36 37 38 
3 36 38 39 
3 40 41 42 
3 40 42 43 
3 44 45 46 
3 44 46 47 
3 48 49 50 
3 48 50 51 
3 52 53 54 
3 52 54 55 
3 56 57 58 
3 58 57 59 
3 58 59 60 
3 60 59 61 
3 60 61 62 
3 62 61 63 
3 62 63 64 
3 65 66 67 
3 65 67 68 
3 69 70 71 
3 69 71 72 
3 69 72 73 
3 74 76 75 
3 76 77 75 
3 76 78 77 
3 78 79 77 
3 78 80 79 
3 80 81 79 
3 80 82 81 
3 83 85 84 
3 83 86 85 
3 87 89 88 
3 87 90 89 
3 87 91 90 
