ply
format ascii 1.0
comment VCGLIB generated
element vertex 110
property float x
property float y
property float z
property float nx
property float ny
property float nz
property float texture_u
property float texture_v
element face 60
property list uchar int vertex_indices
end_header
1.46141 -0.4 -0.75 0 -1.5708 0 0 1
1.46141 -0.4 -2.25 0 -1.5708 0 0 1
0.410625 -0.4 -2.25 0 -1.5708 0 0 1
0.410625 -0.4 -0.75 0 -1.5708 0 0 1
0.410625 -0.4 -0.75 -1.12859 -1.09256 0 0 1
0.410625 -0.4 -2.25 -1.12859 -1.09256 0 0 1
0.15 -0.130781 -2.25 -1.12859 -1.09256 0 0 1
0.15 -0.130781 -0.75 -1.12859 -1.09256 0 0 1
0.15 -0.130781 -0.75 -1.5708 0 0 0 1
0.15 -0.130781 -2.25 -1.5708 0 0 0 1
0.15 4.08078 -2.25 -1.5708 0 0 0 1
0.15 4.08078 -0.75 -1.5708 0 0 0 1
0.15 4.08078 -0.75 -1.1104 1.11104 0 0 1
0.15 4.08078 -2.25 -1.1104 1.11104 0 0 1
0.419375 4.35 -2.25 -1.1104 1.11104 0 0 1
0.419375 4.35 -0.75 -1.1104 1.11104 0 0 1
0.419375 4.35 -0.75 0 1.5708 0 0 1
0.419375 4.35 -2.25 0 1.5708 0 0 1
3.05063 4.35 -2.25 0 1.5708 0 0 1
3.05063 4.35 -0.75 0 1.5708 0 0 1
3.05063 4.35 -0.75 1.11136 1.11008 0 0 1
3.05063 4.35 -2.25 1.11136 1.11008 0 0 1
3.32 4.08031 -2.25 1.11136 1.11008 0 0 1
3.32 4.08031 -0.75 1.11136 1.11008 0 0 1
3.32 4.08031 -0.75 1.5708 0 0 0 1
3.32 4.08031 -2.25 1.5708 0 0 0 1
3.32 2.50969 -2.25 1.5708 0 0 0 1
3.32 2.50969 -0.75 1.5708 0 0 0 1
3.32 2.50969 -0.75 1.10943 -1.11201 0 0 1
3.32 2.50969 -2.25 1.10943 -1.11201 0 0 1
3.04969 2.24 -2.25 1.10943 -1.11201 0 0 1
3.04969 2.24 -0.75 1.10943 -1.11201 0 0 1
3.04969 2.24 -0.75 0 -1.5708 0 0 1
3.04969 2.24 -2.25 0 -1.5708 0 0 1
1.73 2.24 -2.25 0 -1.5708 0 0 1
1.73 2.24 -0.75 0 -1.5708 0 0 1
1.73 2.24 -0.75 1.5708 0 0 0 1
1.73 2.24 -2.25 1.5708 0 0 0 1
1.73 -0.13125 -2.25 1.5708 0 0 0 1
1.73 -0.13125 -0.75 1.5708 0 0 0 1
1.73 -0.13125 -0.75 1.11104 -1.1104 0 0 1
1.73 -0.13125 -2.25 1.11104 -1.1104 0 0 1
1.46141 -0.4 -2.25 1.11104 -1.1104 0 0 1
1.46141 -0.4 -0.75 1.11104 -1.1104 0 0 1
2.8 2.77 -0.75 -1.5708 0 0 0 1
2.8 2.77 -2.25 -1.5708 0 0 0 1
2.8 3.82 -2.25 -1.5708 0 0 0 1
2.8 3.82 -0.75 -1.5708 0 0 0 1
2.8 3.82 -0.75 0 -1.5708 0 0 1
2.8 3.82 -2.25 0 -1.5708 0 0 1
1.2 3.82 -2.25 0 -1.5708 0 0 1
1.2 3.82 -0.75 0 -1.5708 0 0 1
1.2 3.82 -0.75 1.5708 0 0 0 1
1.2 3.82 -2.25 1.5708 0 0 0 1
1.2 2.77 -2.25 1.5708 0 0 0 1
1.2 2.77 -0.75 1.5708 0 0 0 1
1.2 2.77 -0.75 0 1.5708 0 0 1
1.2 2.77 -2.25 0 1.5708 0 0 1
2.8 2.77 -2.25 0 1.5708 0 0 1
2.8 2.77 -0.75 0 1.5708 0 0 1
3.05063 4.35 -0.75 0 0 2.35562 0 1
0.419375 4.35 -0.75 0 0 0.596454 0 1
1.2 3.82 -0.75 0 0 2.54514 0 1
2.8 3.82 -0.75 0 0 4.55565 0 1
3.04969 2.24 -0.75 0 0 0.943289 0 1
3.32 2.50969 -0.75 0 0 2.35504 0 1
3.32 4.08031 -0.75 0 0 2.35677 0 1
0.419375 4.35 -0.75 0 0 1.76003 0 1
0.15 4.08078 -0.75 0 0 2.29781 0 1
0.410625 -0.4 -0.75 0 0 1.6289 0 1
1.46141 -0.4 -0.75 0 0 1.48852 0 1
1.2 2.77 -0.75 0 0 3.22387 0 1
1.2 3.82 -0.75 0 0 2.16725 0 1
2.8 2.77 -0.75 0 0 4.71239 0 1
1.2 2.77 -0.75 0 0 0.785398 0 1
1.73 2.24 -0.75 0 0 2.35619 0 1
3.04969 2.24 -0.75 0 0 1.41406 0 1
2.8 3.82 -0.75 0 0 0.156734 0 1
1.73 2.24 -0.75 0 0 2.35619 0 1
1.2 2.77 -0.75 0 0 0.703122 0 1
1.46141 -0.4 -0.75 0 0 0.867385 0 1
1.73 -0.13125 -0.75 0 0 2.35648 0 1
0.410625 -0.4 -0.75 0 0 0.71108 0 1
0.15 4.08078 -0.75 0 0 0.0580993 0 1
0.15 -0.130781 -0.75 0 0 2.37241 0 1
3.05063 4.35 -2.25 0 0 -2.35562 0 1
0.419375 4.35 -2.25 0 0 -0.596454 0 1
1.2 3.82 -2.25 0 0 -2.54514 0 1
2.8 3.82 -2.25 0 0 -4.55565 0 1
3.04969 2.24 -2.25 0 0 -0.943289 0 1
3.32 2.50969 -2.25 0 0 -2.35504 0 1
3.32 4.08031 -2.25 0 0 -2.35677 0 1
0.419375 4.35 -2.25 0 0 -1.76003 0 1
0.15 4.08078 -2.25 0 0 -2.29781 0 1
0.410625 -0.4 -2.25 0 0 -1.6289 0 1
1.46141 -0.4 -2.25 0 0 -1.48852 0 1
1.2 2.77 -2.25 0 0 -3.22387 0 1
1.2 3.82 -2.25 0 0 -2.16725 0 1
2.8 2.77 -2.25 0 0 -4.71239 0 1
1.2 2.77 -2.25 0 0 -0.785398 0 1
1.73 2.24 -2.25 0 0 -2.35619 0 1
3.04969 2.24 -2.25 0 0 -1.41406 0 1
2.8 3.82 -2.25 0 0 -0.156734 0 1
1.73 2.24 -2.25 0 0 -2.35619 0 1
1.2 2.77 -2.25 0 0 -0.703122 0 1
1.46141 -0.4 -2.25 0 0 -0.867385 0 1
1.73 -0.13125 -2.25 0 0 -2.35648 0 1
0.410625 -0.4 -2.25 0 0 -0.71108 0 1
0.15 4.08078 -2.25 0 0 -0.0580993 0 1
0.15 -0.130781 -2.25 0 0 -2.37241 0 1
3 0 2 1 
3 0 3 2 
3 4 6 5 
3 4 7 6 
3 8 10 9 
3 8 11 10 
3 12 14 13 
3 12 15 14 
3 16 18 17 
3 16 19 18 
3 20 22 21 
3 20 23 22 
3 24 26 25 
3 24 27 26 
3 28 30 29 
3 28 31 30 
3 32 34 33 
3 32 35 34 
3 36 38 37 
3 36 39 38 
3 40 42 41 
3 40 43 42 
3 44 46 45 
3 44 47 46 
3 48 50 49 
3 48 51 50 
3 52 54 53 
3 52 55 54 
3 56 58 57 
3 56 59 58 
3 60 61 62 
3 60 62 63 
3 60 63 64 
3 60 64 65 
3 60 65 66 
3 67 68 69 
3 67 69 70 
3 67 70 71 
3 67 71 72 
3 73 74 75 
3 73 75 76 
3 73 76 77 
3 78 79 80 
3 78 80 81 
3 82 83 84 
3 85 87 86 
3 85 88 87 
3 85 89 88 
3 85 90 89 
3 85 91 90 
3 92 94 93 
3 92 95 94 
3 92 96 95 
3 92 97 96 
3 98 100 99 
3 98 101 100 
3 98 102 101 
3 103 105 104 
3 103 106 105 
3 107 109 108 
