ply
format ascii 1.0
comment VCGLIB generated
element vertex 124
property float x
property float y
property float z
property float nx
property float ny
property float nz
property float texture_u
property float texture_v
element face 68
property list uchar int vertex_indices
end_header
1.2 4.08141 -0.75 1.5708 0 0 0 1
1.2 4.08141 -2.25 1.5708 0 0 0 1
1.2 2.77 -2.25 1.5708 0 0 0 1
1.2 2.77 -0.75 1.5708 0 0 0 1
1.2 2.77 -0.75 0 1.5708 0 0 1
1.2 2.77 -2.25 0 1.5708 0 0 1
2.8 2.77 -2.25 0 1.5708 0 0 1
2.8 2.77 -0.75 0 1.5708 0 0 1
2.8 2.77 -0.75 -1.5708 0 0 0 1
2.8 2.77 -2.25 -1.5708 0 0 0 1
2.8 4.35 -2.25 -1.5708 0 0 0 1
2.8 4.35 -0.75 -1.5708 0 0 0 1
2.8 4.35 -0.75 0 1.5708 0 0 1
2.8 4.35 -2.25 0 1.5708 0 0 1
3.32 4.35 -2.25 0 1.5708 0 0 1
3.32 4.35 -0.75 0 1.5708 0 0 1
3.32 4.35 -0.75 1.5708 0 0 0 1
3.32 4.35 -2.25 1.5708 0 0 0 1
3.32 3.02797 -2.25 1.5708 0 0 0 1
3.32 3.02797 -0.75 1.5708 0 0 0 1
3.32 3.02797 -0.75 1.12173 1.0996 0 0 1
3.32 3.02797 -2.25 1.12173 1.0996 0 0 1
3.84 2.4975 -2.25 1.12173 1.0996 0 0 1
3.84 2.4975 -0.75 1.12173 1.0996 0 0 1
3.84 2.4975 -0.75 1.5708 0 0 0 1
3.84 2.4975 -2.25 1.5708 0 0 0 1
3.84 -0.4 -2.25 1.5708 0 0 0 1
3.84 -0.4 -0.75 1.5708 0 0 0 1
3.84 -0.4 -0.75 0 -1.5708 0 0 1
3.84 -0.4 -2.25 0 -1.5708 0 0 1
3.32 -0.4 -2.25 0 -1.5708 0 0 1
3.32 -0.4 -0.75 0 -1.5708 0 0 1
3.32 -0.4 -0.75 -1.5708 0 0 0 1
3.32 -0.4 -2.25 -1.5708 0 0 0 1
3.32 2.24 -2.25 -1.5708 0 0 0 1
3.32 2.24 -0.75 -1.5708 0 0 0 1
3.32 2.24 -0.75 0 -1.5708 0 0 1
3.32 2.24 -2.25 0 -1.5708 0 0 1
1.73 2.24 -2.25 0 -1.5708 0 0 1
1.73 2.24 -0.75 0 -1.5708 0 0 1
1.73 2.24 -0.75 1.5708 0 0 0 1
1.73 2.24 -2.25 1.5708 0 0 0 1
1.73 -0.13125 -2.25 1.5708 0 0 0 1
1.73 -0.13125 -0.75 1.5708 0 0 0 1
1.73 -0.13125 -0.75 1.11104 -1.1104 0 0 1
1.73 -0.13125 -2.25 1.11104 -1.1104 0 0 1
1.46141 -0.4 -2.25 1.11104 -1.1104 0 0 1
1.46141 -0.4 -0.75 1.11104 -1.1104 0 0 1
1.46141 -0.4 -0.75 0 -1.5708 0 0 1
1.46141 -0.4 -2.25 0 -1.5708 0 0 1
0.418594 -0.4 -2.25 0 -1.5708 0 0 1
0.418594 -0.4 -0.75 0 -1.5708 0 0 1
0.418594 -0.4 -0.75 -1.11201 -1.10943 0 0 1
0.418594 -0.4 -2.25 -1.11201 -1.10943 0 0 1
0.15 -0.130781 -2.25 -1.11201 -1.10943 0 0 1
0.15 -0.130781 -0.75 -1.11201 -1.10943 0 0 1
0.15 -0.130781 -0.75 -1.5708 0 0 0 1
0.15 -0.130781 -2.25 -1.5708 0 0 0 1
0.15 4.08078 -2.25 -1.5708 0 0 0 1
0.15 4.08078 -0.75 -1.5708 0 0 0 1
0.15 4.08078 -0.75 -1.11233 1.1091 0 0 1
0.15 4.08078 -2.25 -1.11233 1.1091 0 0 1
0.418437 4.35 -2.25 -1.11233 1.1091 0 0 1
0.418437 4.35 -0.75 -1.11233 1.1091 0 0 1
0.418437 4.35 -0.75 0 1.5708 0 0 1
0.418437 4.35 -2.25 0 1.5708 0 0 1
0.931563 4.35 -2.25 0 1.5708 0 0 1
0.931563 4.35 -0.75 0 1.5708 0 0 1
0.931563 4.35 -0.75 1.11104 1.1104 0 0 1
0.931563 4.35 -2.25 1.11104 1.1104 0 0 1
1.2 4.08141 -2.25 1.11104 1.1104 0 0 1
1.2 4.08141 -0.75 1.11104 1.1104 0 0 1
0.931563 4.35 -0.75 0 0 2.3559 0 1
0.418437 4.35 -0.75 0 0 1.57076 0 1
0.418594 -0.4 -0.75 0 0 1.57083 0 1
1.46141 -0.4 -0.75 0 0 1.48852 0 1
1.2 2.77 -0.75 0 0 3.22387 0 1
1.2 4.08141 -0.75 0 0 2.35649 0 1
3.32 2.24 -0.75 0 0 4.71239 0 1
3.32 -0.4 -0.75 0 0 1.5708 0 1
3.84 -0.4 -0.75 0 0 1.42025 0 1
3.32 3.02797 -0.75 0 0 0.150546 0 1
3.32 4.35 -0.75 0 0 1.5708 0 1
2.8 4.35 -0.75 0 0 1.5708 0 1
2.8 2.77 -0.75 0 0 4.25249 0 1
1.73 2.24 -0.75 0 0 0.459902 0 1
1.73 2.24 -0.75 0 0 4.25249 0 1
2.8 2.77 -0.75 0 0 0.459902 0 1
1.2 2.77 -0.75 0 0 1.48852 0 1
1.46141 -0.4 -0.75 0 0 0.867385 0 1
1.73 -0.13125 -0.75 0 0 2.35648 0 1
0.15 4.08078 -0.75 0 0 2.35765 0 1
0.15 -0.130781 -0.75 0 0 2.35736 0 1
0.418594 -0.4 -0.75 0 0 0.784202 0 1
0.418437 4.35 -0.75 0 0 0.783977 0 1
3.32 3.02797 -0.75 0 0 0.624887 0 1
3.84 -0.4 -0.75 0 0 0.150546 0 1
3.84 2.4975 -0.75 0 0 2.36616 0 1
0.931563 4.35 -2.25 0 0 -2.3559 0 1
0.418437 4.35 -2.25 0 0 -1.57076 0 1
0.418594 -0.4 -2.25 0 0 -1.57083 0 1
1.46141 -0.4 -2.25 0 0 -1.48852 0 1
1.2 2.77 -2.25 0 0 -3.22387 0 1
1.2 4.08141 -2.25 0 0 -2.35649 0 1
3.32 2.24 -2.25 0 0 -4.71239 0 1
3.32 -0.4 -2.25 0 0 -1.5708 0 1
3.84 -0.4 -2.25 0 0 -1.42025 0 1
3.32 3.02797 -2.25 0 0 -0.150546 0 1
3.32 4.35 -2.25 0 0 -1.5708 0 1
2.8 4.35 -2.25 0 0 -1.5708 0 1
2.8 2.77 -2.25 0 0 -4.25249 0 1
1.73 2.24 -2.25 0 0 -0.459902 0 1
1.73 2.24 -2.25 0 0 -4.25249 0 1
2.8 2.77 -2.25 0 0 -0.459902 0 1
1.2 2.77 -2.25 0 0 -1.48852 0 1
1.46141 -0.4 -2.25 0 0 -0.867385 0 1
1.73 -0.13125 -2.25 0 0 -2.35648 0 1
0.15 4.08078 -2.25 0 0 -2.35765 0 1
0.15 -0.130781 -2.25 0 0 -2.35736 0 1
0.418594 -0.4 -2.25 0 0 -0.784202 0 1
0.418437 4.35 -2.25 0 0 -0.783977 0 1
3.32 3.02797 -2.25 0 0 -0.624887 0 1
3.84 -0.4 -2.25 0 0 -0.150546 0 1
3.84 2.4975 -2.25 0 0 -2.36616 0 1
3 0 2 1 
3 0 3 2 
3 4 6 5 
3 4 7 6 
3 8 10 9 
3 8 11 10 
3 12 14 13 
3 12 15 14 
3 16 18 17 
3 16 19 18 
3 20 22 21 
3 20 23 22 
3 24 26 25 
3 24 27 26 
3 28 30 29 
3 28 31 30 
3 32 34 33 
3 32 35 34 
3 36 38 37 
3 36 39 38 
3 40 42 41 
3 40 43 42 
3 44 46 45 
3 44 47 46 
3 48 50 49 
3 48 51 50 
3 52 54 53 
3 52 55 54 
3 56 58 57 
3 56 59 58 
3 60 62 61 
3 60 63 62 
3 64 66 65 
3 64 67 66 
3 68 70 69 
3 68 71 70 
3 72 73 74 
3 72 74 75 
3 72 75 76 
3 72 76 77 
3 78 79 80 
3 78 80 81 
3 78 81 82 
3 78 82 83 
3 78 83 84 
3 78 84 85 
3 86 87 88 
3 86 88 89 
3 86 89 90 
3 91 92 93 
3 91 93 94 
3 95 96 97 
3 98 100 99 
3 98 101 100 
3 98 102 101 
3 98 103 102 
3 104 106 105 
3 104 107 106 
3 104 108 107 
3 104 109 108 
3 104 110 109 
3 104 111 110 
3 112 114 113 
3 112 115 114 
3 112 116 115 
3 117 119 118 
3 117 120 119 
3 121 123 122 
