ply
format ascii 1.0
comment VCGLIB generated
element vertex 120
property float x
property float y
property float z
property float nx
property float ny
property float nz
property float texture_u
property float texture_v
element face 64
property list uchar int vertex_indices
end_header
1.57547 1.18 -0.75 0 -1.5708 0 0 1
1.57547 1.18 -2.25 0 -1.5708 0 0 1
0.519844 1.18 -2.25 0 -1.5708 0 0 1
0.519844 1.18 -0.75 0 -1.5708 0 0 1
0.519844 1.18 -0.75 -1.10975 -1.11169 0 0 1
0.519844 1.18 -2.25 -1.10975 -1.11169 0 0 1
0.25 1.44938 -2.25 -1.10975 -1.11169 0 0 1
0.25 1.44938 -0.75 -1.10975 -1.11169 0 0 1
0.25 1.44938 -0.75 -1.5708 0 0 0 1
0.25 1.44938 -2.25 -1.5708 0 0 0 1
0.25 4.08063 -2.25 -1.5708 0 0 0 1
0.25 4.08063 -0.75 -1.5708 0 0 0 1
0.25 4.08063 -0.75 -1.1104 1.11104 0 0 1
0.25 4.08063 -2.25 -1.1104 1.11104 0 0 1
0.519531 4.35 -2.25 -1.1104 1.11104 0 0 1
0.519531 4.35 -0.75 -1.1104 1.11104 0 0 1
0.519531 4.35 -0.75 0 1.5708 0 0 1
0.519531 4.35 -2.25 0 1.5708 0 0 1
1.05047 4.35 -2.25 0 1.5708 0 0 1
1.05047 4.35 -0.75 0 1.5708 0 0 1
1.05047 4.35 -0.75 1.1104 1.11104 0 0 1
1.05047 4.35 -2.25 1.1104 1.11104 0 0 1
1.32 4.08063 -2.25 1.1104 1.11104 0 0 1
1.32 4.08063 -0.75 1.1104 1.11104 0 0 1
1.32 4.08063 -0.75 1.5708 0 0 0 1
1.32 4.08063 -2.25 1.5708 0 0 0 1
1.32 3.01859 -2.25 1.5708 0 0 0 1
1.32 3.01859 -0.75 1.5708 0 0 0 1
1.32 3.01859 -0.75 1.10823 1.1132 0 0 1
1.32 3.01859 -2.25 1.10823 1.1132 0 0 1
1.84531 2.49563 -2.25 1.10823 1.1132 0 0 1
1.84531 2.49563 -0.75 1.10823 1.1132 0 0 1
1.84531 2.49563 -0.75 1.5708 0 0 0 1
1.84531 2.49563 -2.25 1.5708 0 0 0 1
1.84531 1.44938 -2.25 1.5708 0 0 0 1
1.84531 1.44938 -0.75 1.5708 0 0 0 1
1.84531 1.44938 -0.75 1.10975 -1.11169 0 0 1
1.84531 1.44938 -2.25 1.10975 -1.11169 0 0 1
1.57547 1.18 -2.25 1.10975 -1.11169 0 0 1
1.57547 1.18 -0.75 1.10975 -1.11169 0 0 1
1.57547 -0.4 -0.75 0 -1.5708 0 0 1
1.57547 -0.4 -2.25 0 -1.5708 0 0 1
0.519844 -0.4 -2.25 0 -1.5708 0 0 1
0.519844 -0.4 -0.75 0 -1.5708 0 0 1
0.519844 -0.4 -0.75 -1.10879 -1.11265 0 0 1
0.519844 -0.4 -2.25 -1.10879 -1.11265 0 0 1
0.25 -0.131094 -2.25 -1.10879 -1.11265 0 0 1
0.25 -0.131094 -0.75 -1.10879 -1.11265 0 0 1
0.25 -0.131094 -0.75 -1.5708 0 0 0 1
0.25 -0.131094 -2.25 -1.5708 0 0 0 1
0.25 0.391094 -2.25 -1.5708 0 0 0 1
0.25 0.391094 -0.75 -1.5708 0 0 0 1
0.25 0.391094 -0.75 -1.10879 1.11265 0 0 1
0.25 0.391094 -2.25 -1.10879 1.11265 0 0 1
0.519844 0.66 -2.25 -1.10879 1.11265 0 0 1
0.519844 0.66 -0.75 -1.10879 1.11265 0 0 1
0.519844 0.66 -0.75 0 1.5708 0 0 1
0.519844 0.66 -2.25 0 1.5708 0 0 1
1.57547 0.66 -2.25 0 1.5708 0 0 1
1.57547 0.66 -0.75 0 1.5708 0 0 1
1.57547 0.66 -0.75 1.10879 1.11265 0 0 1
1.57547 0.66 -2.25 1.10879 1.11265 0 0 1
1.84531 0.391094 -2.25 1.10879 1.11265 0 0 1
1.84531 0.391094 -0.75 1.10879 1.11265 0 0 1
1.84531 0.391094 -0.75 1.5708 0 0 0 1
1.84531 0.391094 -2.25 1.5708 0 0 0 1
1.84531 -0.131094 -2.25 1.5708 0 0 0 1
1.84531 -0.131094 -0.75 1.5708 0 0 0 1
1.84531 -0.131094 -0.75 1.10879 -1.11265 0 0 1
1.84531 -0.131094 -2.25 1.10879 -1.11265 0 0 1
1.57547 -0.4 -2.25 1.10879 -1.11265 0 0 1
1.57547 -0.4 -0.75 1.10879 -1.11265 0 0 1
1.57547 1.18 -0.75 0 0 2.35707 0 1
1.84531 1.44938 -0.75 0 0 2.35532 0 1
1.84531 2.49563 -0.75 0 0 2.35396 0 1
1.32 3.01859 -0.75 0 0 3.72948 0 1
1.05047 4.35 -0.75 0 0 0.365596 0 1
0.519844 1.18 -0.75 0 0 1.40494 0 1
0.519844 1.18 -0.75 0 0 0.95212 0 1
1.05047 4.35 -0.75 0 0 1.40494 0 1
0.519531 4.35 -0.75 0 0 2.35648 0 1
0.25 4.08063 -0.75 0 0 2.3559 0 1
0.25 1.44938 -0.75 0 0 2.35532 0 1
0.25 0.391094 -0.75 0 0 2.02573 0 1
0.519844 -0.4 -0.75 0 0 1.89952 0 1
0.519844 0.66 -0.75 0 0 2.35794 0 1
1.57547 -0.4 -0.75 0 0 2.35794 0 1
1.57547 0.66 -0.75 0 0 2.35794 0 1
1.84531 -0.131094 -0.75 0 0 2.35445 0 1
1.84531 0.391094 -0.75 0 0 2.35445 0 1
0.519844 -0.4 -0.75 0 0 0.458413 0 1
0.25 0.391094 -0.75 0 0 0.328726 0 1
0.25 -0.131094 -0.75 0 0 2.35445 0 1
1.32 4.08063 -0.75 0 0 2.3559 0 1
1.05047 4.35 -0.75 0 0 0.585947 0 1
1.32 3.01859 -0.75 0 0 0.199742 0 1
1.57547 1.18 -2.25 0 0 -2.35707 0 1
1.84531 1.44938 -2.25 0 0 -2.35532 0 1
1.84531 2.49563 -2.25 0 0 -2.35396 0 1
1.32 3.01859 -2.25 0 0 -3.72948 0 1
1.05047 4.35 -2.25 0 0 -0.365596 0 1
0.519844 1.18 -2.25 0 0 -1.40494 0 1
0.519844 1.18 -2.25 0 0 -0.95212 0 1
1.05047 4.35 -2.25 0 0 -1.40494 0 1
0.519531 4.35 -2.25 0 0 -2.35648 0 1
0.25 4.08063 -2.25 0 0 -2.3559 0 1
0.25 1.44938 -2.25 0 0 -2.35532 0 1
0.25 0.391094 -2.25 0 0 -2.02573 0 1
0.519844 -0.4 -2.25 0 0 -1.89952 0 1
0.519844 0.66 -2.25 0 0 -2.35794 0 1
1.57547 -0.4 -2.25 0 0 -2.35794 0 1
1.57547 0.66 -2.25 0 0 -2.35794 0 1
1.84531 -0.131094 -2.25 0 0 -2.35445 0 1
1.84531 0.391094 -2.25 0 0 -2.35445 0 1
0.519844 -0.4 -2.25 0 0 -0.458413 0 1
0.25 0.391094 -2.25 0 0 -0.328726 0 1
0.25 -0.131094 -2.25 0 0 -2.35445 0 1
1.32 4.08063 -2.25 0 0 -2.3559 0 1
1.05047 4.35 -2.25 0 0 -0.585947 0 1
1.32 3.01859 -2.25 0 0 -0.199742 0 1
3 0 2 1 
3 0 3 2 
3 4 6 5 
3 4 7 6 
3 8 10 9 
3 8 11 10 
3 12 14 13 
3 12 15 14 
3 16 18 17 
3 16 19 18 
3 20 22 21 
3 20 23 22 
3 24 26 25 
3 24 27 26 
3 28 30 29 
3 28 31 30 
3 32 34 33 
3 32 35 34 
3 36 38 37 
3 36 39 38 
3 40 42 41 
3 40 43 42 
3 44 46 45 
3 44 47 46 
3 48 50 49 
3 48 51 50 
3 52 54 53 
3 52 55 54 
3 56 58 57 
3 56 59 58 
3 60 62 61 
3 60 63 62 
3 64 66 65 
3 64 67 66 
3 68 70 69 
3 68 71 70 
3 72 73 74 
3 72 74 75 
3 72 75 76 
3 72 76 77 
3 78 79 80 
3 78 80 81 
3 78 81 82 
3 83 84 85 
3 85 84 86 
3 85 86 87 
3 87 86 88 
3 87 88 89 
3 90 91 92 
3 93 94 95 
3 96 98 97 
3 96 99 98 
3 96 100 99 
3 96 101 100 
3 102 104 103 
3 102 105 104 
3 102 106 105 
3 107 109 108 
3 109 110 108 
3 109 111 110 
3 111 112 110 
3 111 113 112 
3 114 116 115 
3 117 119 118 
