ply
format ascii 1.0
comment VCGLIB generated
element vertex 80
property float x
property float y
property float z
property float nx
property float ny
property float nz
property float texture_u
property float texture_v
element face 44
property list uchar int vertex_indices
end_header
2.42359 -0.92 -0.75 0 -1.5708 0 0 1
2.42359 -0.92 -2.25 0 -1.5708 0 0 1
0.57125 -0.92 -2.25 0 -1.5708 0 0 1
0.57125 -0.92 -0.75 0 -1.5708 0 0 1
0.57125 -0.92 -0.75 -1.11039 -1.11105 0 0 1
0.57125 -0.92 -2.25 -1.11039 -1.11105 0 0 1
0.31 -0.658906 -2.25 -1.11039 -1.11105 0 0 1
0.31 -0.658906 -0.75 -1.11039 -1.11105 0 0 1
0.31 -0.658906 -0.75 -1.5708 0 0 0 1
0.31 -0.658906 -2.25 -1.5708 0 0 0 1
0.31 4.61891 -2.25 -1.5708 0 0 0 1
0.31 4.61891 -0.75 -1.5708 0 0 0 1
0.31 4.61891 -0.75 -1.11039 1.11105 0 0 1
0.31 4.61891 -2.25 -1.11039 1.11105 0 0 1
0.57125 4.88 -2.25 -1.11039 1.11105 0 0 1
0.57125 4.88 -0.75 -1.11039 1.11105 0 0 1
0.57125 4.88 -0.75 0 1.5708 0 0 1
0.57125 4.88 -2.25 0 1.5708 0 0 1
2.42359 4.88 -2.25 0 1.5708 0 0 1
2.42359 4.88 -0.75 0 1.5708 0 0 1
2.42359 4.88 -0.75 1.5708 0 0 0 1
2.42359 4.88 -2.25 1.5708 0 0 0 1
2.42359 4.35 -2.25 1.5708 0 0 0 1
2.42359 4.35 -0.75 1.5708 0 0 0 1
2.42359 4.35 -0.75 0 -1.5708 0 0 1
2.42359 4.35 -2.25 0 -1.5708 0 0 1
1.37 4.35 -2.25 0 -1.5708 0 0 1
1.37 4.35 -0.75 0 -1.5708 0 0 1
1.37 4.35 -0.75 1.5708 0 0 0 1
1.37 4.35 -2.25 1.5708 0 0 0 1
1.37 3.03063 -2.25 1.5708 0 0 0 1
1.37 3.03063 -0.75 1.5708 0 0 0 1
1.37 3.03063 -0.75 1.10908 1.11236 0 0 1
1.37 3.03063 -2.25 1.10908 1.11236 0 0 1
1.90078 2.50141 -2.25 1.10908 1.11236 0 0 1
1.90078 2.50141 -0.75 1.10908 1.11236 0 0 1
1.90078 2.50141 -0.75 1.5708 0 0 0 1
1.90078 2.50141 -2.25 1.5708 0 0 0 1
1.90078 -0.39 -2.25 1.5708 0 0 0 1
1.90078 -0.39 -0.75 1.5708 0 0 0 1
1.90078 -0.39 -0.75 0 1.5708 0 0 1
1.90078 -0.39 -2.25 0 1.5708 0 0 1
2.42359 -0.39 -2.25 0 1.5708 0 0 1
2.42359 -0.39 -0.75 0 1.5708 0 0 1
2.42359 -0.39 -0.75 1.5708 0 0 0 1
2.42359 -0.39 -2.25 1.5708 0 0 0 1
2.42359 -0.92 -2.25 1.5708 0 0 0 1
2.42359 -0.92 -0.75 1.5708 0 0 0 1
1.90078 -0.39 -0.75 0 0 4.71239 0 1
1.90078 2.50141 -0.75 0 0 2.35472 0 1
1.37 3.03063 -0.75 0 0 3.52076 0 1
0.57125 4.88 -0.75 0 0 0.407703 0 1
0.57125 -0.92 -0.75 0 0 1.5708 0 1
2.42359 -0.92 -0.75 0 0 1.5708 0 1
2.42359 -0.39 -0.75 0 0 1.5708 0 1
0.31 4.61891 -0.75 0 0 2.3559 0 1
0.31 -0.658906 -0.75 0 0 2.3559 0 1
0.57125 -0.92 -0.75 0 0 0.785697 0 1
0.57125 4.88 -0.75 0 0 0.785697 0 1
1.37 4.35 -0.75 0 0 4.71239 0 1
2.42359 4.35 -0.75 0 0 1.5708 0 1
2.42359 4.88 -0.75 0 0 1.5708 0 1
0.57125 4.88 -0.75 0 0 1.16309 0 1
1.37 3.03063 -0.75 0 0 0.407703 0 1
1.90078 -0.39 -2.25 0 0 -4.71239 0 1
1.90078 2.50141 -2.25 0 0 -2.35472 0 1
1.37 3.03063 -2.25 0 0 -3.52076 0 1
0.57125 4.88 -2.25 0 0 -0.407703 0 1
0.57125 -0.92 -2.25 0 0 -1.5708 0 1
2.42359 -0.92 -2.25 0 0 -1.5708 0 1
2.42359 -0.39 -2.25 0 0 -1.5708 0 1
0.31 4.61891 -2.25 0 0 -2.3559 0 1
0.31 -0.658906 -2.25 0 0 -2.3559 0 1
0.57125 -0.92 -2.25 0 0 -0.785697 0 1
0.57125 4.88 -2.25 0 0 -0.785697 0 1
1.37 4.35 -2.25 0 0 -4.71239 0 1
2.42359 4.35 -2.25 0 0 -1.5708 0 1
2.42359 4.88 -2.25 0 0 -1.5708 0 1
0.57125 4.88 -2.25 0 0 -1.16309 0 1
1.37 3.03063 -2.25 0 0 -0.407703 0 1
3 0 2 1 
3 0 3 2 
3 4 6 5 
3 4 7 6 
3 8 10 9 
3 8 11 10 
3 12 14 13 
3 12 15 14 
3 16 18 17 
3 16 19 18 
3 20 22 21 
3 20 23 22 
3 24 26 25 
3 24 27 26 
3 28 30 29 
3 28 31 30 
3 32 34 33 
3 32 35 34 
3 36 38 37 
3 36 39 38 
3 40 42 41 
3 40 43 42 
3 44 46 45 
3 44 47 46 
3 48 49 50 
3 48 50 51 
3 48 51 52 
3 48 52 53 
3 48 53 54 
3 55 56 57 
3 55 57 58 
3 59 60 61 
3 59 61 62 
3 59 62 63 
3 64 66 65 
3 64 67 66 
3 64 68 67 
3 64 69 68 
3 64 70 69 
3 71 73 72 
3 71 74 73 
3 75 77 76 
3 75 78 77 
3 75 79 78 
