ply
format ascii 1.0
comment VCGLIB generated
element vertex 130
property float x
property float y
property float z
property float nx
property float ny
property float nz
property float texture_u
property float texture_v
element face 76
property list uchar int vertex_indices
end_header
2.79 1.71 -0.75 -1.5708 0 0 0 1
2.79 1.71 -2.25 -1.5708 0 0 0 1
2.79 2.77 -2.25 -1.5708 0 0 0 1
2.79 2.77 -0.75 -1.5708 0 0 0 1
2.79 2.77 -0.75 0 -1.5708 0 0 1
2.79 2.77 -2.25 0 -1.5708 0 0 1
1.2 2.77 -2.25 0 -1.5708 0 0 1
1.2 2.77 -0.75 0 -1.5708 0 0 1
1.2 2.77 -0.75 1.5708 0 0 0 1
1.2 2.77 -2.25 1.5708 0 0 0 1
1.2 1.71 -2.25 1.5708 0 0 0 1
1.2 1.71 -0.75 1.5708 0 0 0 1
1.2 1.71 -0.75 0 1.5708 0 0 1
1.2 1.71 -2.25 0 1.5708 0 0 1
2.79 1.71 -2.25 0 1.5708 0 0 1
2.79 1.71 -0.75 0 1.5708 0 0 1
1.73 1.18 -0.75 1.5708 0 0 0 1
1.73 1.18 -2.25 1.5708 0 0 0 1
1.73 0.13 -2.25 1.5708 0 0 0 1
1.73 0.13 -0.75 1.5708 0 0 0 1
1.73 0.13 -0.75 0 1.5708 0 0 1
1.73 0.13 -2.25 0 1.5708 0 0 1
2.79 0.13 -2.25 0 1.5708 0 0 1
2.79 0.13 -0.75 0 1.5708 0 0 1
2.79 0.13 -0.75 -1.5708 0 0 0 1
2.79 0.13 -2.25 -1.5708 0 0 0 1
2.79 0.66 -2.25 -1.5708 0 0 0 1
2.79 0.66 -0.75 -1.5708 0 0 0 1
2.79 0.66 -0.75 0 1.5708 0 0 1
2.79 0.66 -2.25 0 1.5708 0 0 1
3.31 0.66 -2.25 0 1.5708 0 0 1
3.31 0.66 -0.75 0 1.5708 0 0 1
3.31 0.66 -0.75 1.5708 0 0 0 1
3.31 0.66 -2.25 1.5708 0 0 0 1
3.31 -0.131094 -2.25 1.5708 0 0 0 1
3.31 -0.131094 -0.75 1.5708 0 0 0 1
3.31 -0.131094 -0.75 1.11137 -1.11008 0 0 1
3.31 -0.131094 -2.25 1.11137 -1.11008 0 0 1
3.04141 -0.4 -2.25 1.11137 -1.11008 0 0 1
3.04141 -0.4 -0.75 1.11137 -1.11008 0 0 1
3.04141 -0.4 -0.75 0 -1.5708 0 0 1
3.04141 -0.4 -2.25 0 -1.5708 0 0 1
0.418594 -0.4 -2.25 0 -1.5708 0 0 1
0.418594 -0.4 -0.75 0 -1.5708 0 0 1
0.418594 -0.4 -0.75 -1.11233 -1.10911 0 0 1
0.418594 -0.4 -2.25 -1.11233 -1.10911 0 0 1
0.15 -0.130625 -2.25 -1.11233 -1.10911 0 0 1
0.15 -0.130625 -0.75 -1.11233 -1.10911 0 0 1
0.15 -0.130625 -0.75 -1.5708 0 0 0 1
0.15 -0.130625 -2.25 -1.5708 0 0 0 1
0.15 3.03859 -2.25 -1.5708 0 0 0 1
0.15 3.03859 -0.75 -1.5708 0 0 0 1
0.15 3.03859 -0.75 -1.11072 1.11072 0 0 1
0.15 3.03859 -2.25 -1.11072 1.11072 0 0 1
0.411406 3.3 -2.25 -1.11072 1.11072 0 0 1
0.411406 3.3 -0.75 -1.11072 1.11072 0 0 1
0.411406 3.3 -0.75 0 1.5708 0 0 1
0.411406 3.3 -2.25 0 1.5708 0 0 1
3.04859 3.3 -2.25 0 1.5708 0 0 1
3.04859 3.3 -0.75 0 1.5708 0 0 1
3.04859 3.3 -0.75 1.11205 1.10939 0 0 1
3.04859 3.3 -2.25 1.11205 1.10939 0 0 1
3.31 3.03797 -2.25 1.11205 1.10939 0 0 1
3.31 3.03797 -0.75 1.11205 1.10939 0 0 1
3.31 3.03797 -0.75 1.5708 0 0 0 1
3.31 3.03797 -2.25 1.5708 0 0 0 1
3.31 1.44203 -2.25 1.5708 0 0 0 1
3.31 1.44203 -0.75 1.5708 0 0 0 1
3.31 1.44203 -0.75 1.11371 -1.10773 0 0 1
3.31 1.44203 -2.25 1.11371 -1.10773 0 0 1
3.04938 1.18 -2.25 1.11371 -1.10773 0 0 1
3.04938 1.18 -0.75 1.11371 -1.10773 0 0 1
3.04938 1.18 -0.75 0 -1.5708 0 0 1
3.04938 1.18 -2.25 0 -1.5708 0 0 1
1.73 1.18 -2.25 0 -1.5708 0 0 1
1.73 1.18 -0.75 0 -1.5708 0 0 1
3.04141 -0.4 -0.75 0 0 2.35561 0 1
3.31 -0.131094 -0.75 0 0 2.35677 0 1
3.31 0.66 -0.75 0 0 1.5708 0 1
2.79 0.66 -0.75 0 0 1.5708 0 1
2.79 0.13 -0.75 0 0 4.71239 0 1
1.73 0.13 -0.75 0 0 2.75752 0 1
0.418594 -0.4 -0.75 0 0 0.384076 0 1
0.418594 -0.4 -0.75 0 0 0.832047 0 1
1.73 0.13 -0.75 0 0 1.95487 0 1
1.2 1.71 -0.75 0 0 1.92547 0 1
1.73 1.18 -0.75 0 0 4.71239 0 1
2.79 1.71 -0.75 0 0 4.71239 0 1
3.04938 1.18 -0.75 0 0 1.57043 0 1
2.79 2.77 -0.75 0 0 4.71239 0 1
3.04859 3.3 -0.75 0 0 1.57116 0 1
1.2 2.77 -0.75 0 0 4.47071 0 1
0.411406 3.3 -0.75 0 0 2.35619 0 1
0.418594 -0.4 -0.75 0 0 1.02563 0 1
0.15 3.03859 -0.75 0 0 2.35619 0 1
0.15 -0.130625 -0.75 0 0 2.35765 0 1
3.31 3.03797 -0.75 0 0 2.35739 0 1
3.04859 3.3 -0.75 0 0 0.783836 0 1
3.04938 1.18 -0.75 0 0 0.783077 0 1
3.31 1.44203 -0.75 0 0 2.35888 0 1
1.2 2.77 -0.75 0 0 0.241682 0 1
0.418594 -0.4 -0.75 0 0 0.112993 0 1
1.2 1.71 -0.75 0 0 2.78692 0 1
3.04141 -0.4 -2.25 0 0 -2.35561 0 1
3.31 -0.131094 -2.25 0 0 -2.35677 0 1
3.31 0.66 -2.25 0 0 -1.5708 0 1
2.79 0.66 -2.25 0 0 -1.5708 0 1
2.79 0.13 -2.25 0 0 -4.71239 0 1
1.73 0.13 -2.25 0 0 -2.75752 0 1
0.418594 -0.4 -2.25 0 0 -0.384076 0 1
0.418594 -0.4 -2.25 0 0 -0.832047 0 1
1.73 0.13 -2.25 0 0 -1.95487 0 1
1.2 1.71 -2.25 0 0 -1.92547 0 1
1.73 1.18 -2.25 0 0 -4.71239 0 1
2.79 1.71 -2.25 0 0 -4.71239 0 1
3.04938 1.18 -2.25 0 0 -1.57043 0 1
2.79 2.77 -2.25 0 0 -4.71239 0 1
3.04859 3.3 -2.25 0 0 -1.57116 0 1
1.2 2.77 -2.25 0 0 -4.47071 0 1
0.411406 3.3 -2.25 0 0 -2.35619 0 1
0.418594 -0.4 -2.25 0 0 -1.02563 0 1
0.15 3.03859 -2.25 0 0 -2.35619 0 1
0.15 -0.130625 -2.25 0 0 -2.35765 0 1
3.31 3.03797 -2.25 0 0 -2.35739 0 1
3.04859 3.3 -2.25 0 0 -0.783836 0 1
3.04938 1.18 -2.25 0 0 -0.783077 0 1
3.31 1.44203 -2.25 0 0 -2.35888 0 1
1.2 2.77 -2.25 0 0 -0.241682 0 1
0.418594 -0.4 -2.25 0 0 -0.112993 0 1
1.2 1.71 -2.25 0 0 -2.78692 0 1
3 0 2 1 
3 0 3 2 
3 4 6 5 
3 4 7 6 
3 8 10 9 
3 8 11 10 
3 12 14 13 
3 12 15 14 
3 16 18 17 
3 16 19 18 
3 20 22 21 
3 20 23 22 
3 24 26 25 
3 24 27 26 
3 28 30 29 
3 28 31 30 
3 32 34 33 
3 32 35 34 
3 36 38 37 
3 36 39 38 
3 40 42 41 
3 40 43 42 
3 44 46 45 
3 44 47 46 
3 48 50 49 
3 48 51 50 
3 52 54 53 
3 52 55 54 
3 56 58 57 
3 56 59 58 
3 60 62 61 
3 60 63 62 
3 64 66 65 
3 64 67 66 
3 68 70 69 
3 68 71 70 
3 72 74 73 
3 72 75 74 
3 76 77 78 
3 76 78 79 
3 76 79 80 
3 76 80 81 
3 76 81 82 
3 83 84 85 
3 85 84 86 
3 85 86 87 
3 87 86 88 
3 87 88 89 
3 89 88 90 
3 89 90 91 
3 91 90 92 
3 91 92 93 
3 93 92 94 
3 93 94 95 
3 96 97 98 
3 96 98 99 
3 100 101 102 
3 103 105 104 
3 103 106 105 
3 103 107 106 
3 103 108 107 
3 103 109 108 
3 110 112 111 
3 112 113 111 
3 112 114 113 
3 114 115 113 
3 114 116 115 
3 116 117 115 
3 116 118 117 
3 118 119 117 
3 118 120 119 
3 120 121 119 
3 120 122 121 
3 123 125 124 
3 123 126 125 
3 127 129 128 
