ply
format ascii 1.0
comment VCGLIB generated
element vertex 130
property float x
property float y
property float z
property float nx
property float ny
property float nz
property float texture_u
property float texture_v
element face 72
property list uchar int vertex_indices
end_header
1.64 2.77 -0.75 1.5708 0 0 0 1
1.64 2.77 -2.25 1.5708 0 0 0 1
1.64 1.96953 -2.25 1.5708 0 0 0 1
1.64 1.96953 -0.75 1.5708 0 0 0 1
1.64 1.96953 -0.75 1.10328 1.11811 0 0 1
1.64 1.96953 -2.25 1.10328 1.11811 0 0 1
2.17 1.44656 -2.25 1.10328 1.11811 0 0 1
2.17 1.44656 -0.75 1.10328 1.11811 0 0 1
2.17 1.44656 -0.75 1.5708 0 0 0 1
2.17 1.44656 -2.25 1.5708 0 0 0 1
2.17 -0.130625 -2.25 1.5708 0 0 0 1
2.17 -0.130625 -0.75 1.5708 0 0 0 1
2.17 -0.130625 -0.75 1.10943 -1.11201 0 0 1
2.17 -0.130625 -2.25 1.10943 -1.11201 0 0 1
1.9 -0.4 -2.25 1.10943 -1.11201 0 0 1
1.9 -0.4 -0.75 1.10943 -1.11201 0 0 1
1.9 -0.4 -0.75 0 -1.5708 0 0 1
1.9 -0.4 -2.25 0 -1.5708 0 0 1
0.86 -0.4 -2.25 0 -1.5708 0 0 1
0.86 -0.4 -0.75 0 -1.5708 0 0 1
0.86 -0.4 -0.75 -1.10943 -1.11201 0 0 1
0.86 -0.4 -2.25 -1.10943 -1.11201 0 0 1
0.59 -0.130625 -2.25 -1.10943 -1.11201 0 0 1
0.59 -0.130625 -0.75 -1.10943 -1.11201 0 0 1
0.59 -0.130625 -0.75 -1.5708 0 0 0 1
0.59 -0.130625 -2.25 -1.5708 0 0 0 1
0.59 2.77 -2.25 -1.5708 0 0 0 1
0.59 2.77 -0.75 -1.5708 0 0 0 1
0.59 2.77 -0.75 0 -1.5708 0 0 1
0.59 2.77 -2.25 0 -1.5708 0 0 1
0.05 2.77 -2.25 0 -1.5708 0 0 1
0.05 2.77 -0.75 0 -1.5708 0 0 1
0.05 2.77 -0.75 -1.5708 0 0 0 1
0.05 2.77 -2.25 -1.5708 0 0 0 1
0.05 3.3 -2.25 -1.5708 0 0 0 1
0.05 3.3 -0.75 -1.5708 0 0 0 1
0.05 3.3 -0.75 0 1.5708 0 0 1
0.05 3.3 -2.25 0 1.5708 0 0 1
0.59 3.3 -2.25 0 1.5708 0 0 1
0.59 3.3 -0.75 0 1.5708 0 0 1
0.59 3.3 -0.75 -1.5708 0 0 0 1
0.59 3.3 -2.25 -1.5708 0 0 0 1
0.59 4.08953 -2.25 -1.5708 0 0 0 1
0.59 4.08953 -0.75 -1.5708 0 0 0 1
0.59 4.08953 -0.75 -1.11039 1.11105 0 0 1
0.59 4.08953 -2.25 -1.11039 1.11105 0 0 1
0.850625 4.35 -2.25 -1.11039 1.11105 0 0 1
0.850625 4.35 -0.75 -1.11039 1.11105 0 0 1
0.850625 4.35 -0.75 0 1.5708 0 0 1
0.850625 4.35 -2.25 0 1.5708 0 0 1
2.17 4.35 -2.25 0 1.5708 0 0 1
2.17 4.35 -0.75 0 1.5708 0 0 1
2.17 4.35 -0.75 1.5708 0 0 0 1
2.17 4.35 -2.25 1.5708 0 0 0 1
2.17 3.82 -2.25 1.5708 0 0 0 1
2.17 3.82 -0.75 1.5708 0 0 0 1
2.17 3.82 -0.75 0 -1.5708 0 0 1
2.17 3.82 -2.25 0 -1.5708 0 0 1
1.11 3.82 -2.25 0 -1.5708 0 0 1
1.11 3.82 -0.75 0 -1.5708 0 0 1
1.11 3.82 -0.75 1.5708 0 0 0 1
1.11 3.82 -2.25 1.5708 0 0 0 1
1.11 3.3 -2.25 1.5708 0 0 0 1
1.11 3.3 -0.75 1.5708 0 0 0 1
1.11 3.3 -0.75 0 1.5708 0 0 1
1.11 3.3 -2.25 0 1.5708 0 0 1
2.17 3.3 -2.25 0 1.5708 0 0 1
2.17 3.3 -0.75 0 1.5708 0 0 1
2.17 3.3 -0.75 1.5708 0 0 0 1
2.17 3.3 -2.25 1.5708 0 0 0 1
2.17 2.77 -2.25 1.5708 0 0 0 1
2.17 2.77 -0.75 1.5708 0 0 0 1
2.17 2.77 -0.75 0 -1.5708 0 0 1
2.17 2.77 -2.25 0 -1.5708 0 0 1
1.64 2.77 -2.25 0 -1.5708 0 0 1
1.64 2.77 -0.75 0 -1.5708 0 0 1
0.850625 4.35 -0.75 0 0 0.787671 0 1
0.59 4.08953 -0.75 0 0 2.3559 0 1
0.86 -0.4 -0.75 0 0 0.0830015 0 1
0.59 3.3 -0.75 0 0 4.71239 0 1
0.59 2.77 -0.75 0 0 4.62742 0 1
0.05 3.3 -0.75 0 0 1.5708 0 1
0.05 2.77 -0.75 0 0 1.5708 0 1
1.11 3.82 -0.75 0 0 4.71239 0 1
2.17 3.82 -0.75 0 0 1.5708 0 1
2.17 4.35 -0.75 0 0 1.5708 0 1
0.850625 4.35 -0.75 0 0 1.56882 0 1
0.86 -0.4 -0.75 0 0 0.0694388 0 1
1.11 3.3 -0.75 0 0 3.07413 0 1
2.17 2.77 -0.75 0 0 1.5708 0 1
2.17 3.3 -0.75 0 0 1.5708 0 1
1.64 2.77 -0.75 0 0 4.71239 0 1
1.11 3.3 -0.75 0 0 1.36044 0 1
1.64 1.96953 -0.75 0 0 3.93367 0 1
1.9 -0.4 -0.75 0 0 0.996911 0 1
2.17 1.44656 -0.75 0 0 2.34952 0 1
2.17 -0.130625 -0.75 0 0 2.35504 0 1
1.9 -0.4 -0.75 0 0 1.36044 0 1
1.11 3.3 -0.75 0 0 0.27782 0 1
0.86 -0.4 -0.75 0 0 1.50333 0 1
0.86 -0.4 -0.75 0 0 0.701589 0 1
0.59 2.77 -0.75 0 0 0.084969 0 1
0.59 -0.130625 -0.75 0 0 2.35504 0 1
0.850625 4.35 -2.25 0 0 -0.787671 0 1
0.59 4.08953 -2.25 0 0 -2.3559 0 1
0.86 -0.4 -2.25 0 0 -0.0830015 0 1
0.59 3.3 -2.25 0 0 -4.71239 0 1
0.59 2.77 -2.25 0 0 -4.62742 0 1
0.05 3.3 -2.25 0 0 -1.5708 0 1
0.05 2.77 -2.25 0 0 -1.5708 0 1
1.11 3.82 -2.25 0 0 -4.71239 0 1
2.17 3.82 -2.25 0 0 -1.5708 0 1
2.17 4.35 -2.25 0 0 -1.5708 0 1
0.850625 4.35 -2.25 0 0 -1.56882 0 1
0.86 -0.4 -2.25 0 0 -0.0694388 0 1
1.11 3.3 -2.25 0 0 -3.07413 0 1
2.17 2.77 -2.25 0 0 -1.5708 0 1
2.17 3.3 -2.25 0 0 -1.5708 0 1
1.64 2.77 -2.25 0 0 -4.71239 0 1
1.11 3.3 -2.25 0 0 -1.36044 0 1
1.64 1.96953 -2.25 0 0 -3.93367 0 1
1.9 -0.4 -2.25 0 0 -0.996911 0 1
2.17 1.44656 -2.25 0 0 -2.34952 0 1
2.17 -0.130625 -2.25 0 0 -2.35504 0 1
1.9 -0.4 -2.25 0 0 -1.36044 0 1
1.11 3.3 -2.25 0 0 -0.27782 0 1
0.86 -0.4 -2.25 0 0 -1.50333 0 1
0.86 -0.4 -2.25 0 0 -0.701589 0 1
0.59 2.77 -2.25 0 0 -0.084969 0 1
0.59 -0.130625 -2.25 0 0 -2.35504 0 1
3 0 2 1 
3 0 3 2 
3 4 6 5 
3 4 7 6 
3 8 10 9 
3 8 11 10 
3 12 14 13 
3 12 15 14 
3 16 18 17 
3 16 19 18 
3 20 22 21 
3 20 23 22 
3 24 26 25 
3 24 27 26 
3 28 30 29 
3 28 31 30 
3 32 34 33 
3 32 35 34 
3 36 38 37 
3 36 39 38 
3 40 42 41 
3 40 43 42 
3 44 46 45 
3 44 47 46 
3 48 50 49 
3 48 51 50 
3 52 54 53 
3 52 55 54 
3 56 58 57 
3 56 59 58 
3 60 62 61 
3 60 63 62 
3 64 66 65 
3 64 67 66 
3 68 70 69 
3 68 71 70 
3 72 74 73 
3 72 75 74 
3 76 77 78 
3 78 77 79 
3 78 79 80 
3 80 79 81 
3 80 81 82 
3 83 84 85 
3 83 85 86 
3 83 86 87 
3 83 87 88 
3 89 90 91 
3 91 90 92 
3 91 92 93 
3 93 92 94 
3 93 94 95 
3 95 94 96 
3 97 98 99 
3 100 101 102 
3 103 105 104 
3 105 106 104 
3 105 107 106 
3 107 108 106 
3 107 109 108 
3 110 112 111 
3 110 113 112 
3 110 114 113 
3 110 115 114 
3 116 118 117 
3 118 119 117 
3 118 120 119 
3 120 121 119 
3 120 122 121 
3 122 123 121 
3 124 126 125 
3 127 129 128 
