ply
format ascii 1.0
comment VCGLIB generated
element vertex 136
property float x
property float y
property float z
property float nx
property float ny
property float nz
property float texture_u
property float texture_v
element face 76
property list uchar int vertex_indices
end_header
1.69406 1.45859 -0.75 1.5704 0.0353083 0 0 1
1.69406 1.45859 -2.25 1.5704 0.0353083 0 0 1
1.7 1.19453 -2.25 1.5704 0.0353083 0 0 1
1.7 1.19453 -0.75 1.5704 0.0353083 0 0 1
1.7 1.19453 -0.75 1.5708 0 0 0 1
1.7 1.19453 -2.25 1.5708 0 0 0 1
1.7 0.13 -2.25 1.5708 0 0 0 1
1.7 0.13 -0.75 1.5708 0 0 0 1
1.7 0.13 -0.75 0 1.5708 0 0 1
1.7 0.13 -2.25 0 1.5708 0 0 1
2.75 0.13 -2.25 0 1.5708 0 0 1
2.75 0.13 -0.75 0 1.5708 0 0 1
2.75 0.13 -0.75 -1.5708 0 0 0 1
2.75 0.13 -2.25 -1.5708 0 0 0 1
2.75 0.66 -2.25 -1.5708 0 0 0 1
2.75 0.66 -0.75 -1.5708 0 0 0 1
2.75 0.66 -0.75 0 1.5708 0 0 1
2.75 0.66 -2.25 0 1.5708 0 0 1
3.27 0.66 -2.25 0 1.5708 0 0 1
3.27 0.66 -0.75 0 1.5708 0 0 1
3.27 0.66 -0.75 1.5708 0 0 0 1
3.27 0.66 -2.25 1.5708 0 0 0 1
3.27 -0.131094 -2.25 1.5708 0 0 0 1
3.27 -0.131094 -0.75 1.5708 0 0 0 1
3.27 -0.131094 -0.75 1.10911 -1.11233 0 0 1
3.27 -0.131094 -2.25 1.10911 -1.11233 0 0 1
3.00031 -0.4 -2.25 1.10911 -1.11233 0 0 1
3.00031 -0.4 -0.75 1.10911 -1.11233 0 0 1
3.00031 -0.4 -0.75 0 -1.5708 0 0 1
3.00031 -0.4 -2.25 0 -1.5708 0 0 1
0.359687 -0.4 -2.25 0 -1.5708 0 0 1
0.359687 -0.4 -0.75 0 -1.5708 0 0 1
0.359687 -0.4 -0.75 -1.11104 -1.1104 0 0 1
0.359687 -0.4 -2.25 -1.11104 -1.1104 0 0 1
0.09 -0.130156 -2.25 -1.11104 -1.1104 0 0 1
0.09 -0.130156 -0.75 -1.11104 -1.1104 0 0 1
0.09 -0.130156 -0.75 -1.5708 0 0 0 1
0.09 -0.130156 -2.25 -1.5708 0 0 0 1
0.09 1.44938 -2.25 -1.5708 0 0 0 1
0.09 1.44938 -0.75 -1.5708 0 0 0 1
0.09 1.44938 -0.75 -0.859552 1.31475 0 0 1
0.09 1.44938 -2.25 -0.859551 1.31475 0 0 1
2.11 2.77 -2.25 -0.859552 1.31475 0 0 1
2.11 2.77 -0.75 -0.859551 1.31475 0 0 1
2.11 2.77 -0.75 0 -1.5708 0 0 1
2.11 2.77 -2.25 0 -1.5708 0 0 1
0.63 2.77 -2.25 0 -1.5708 0 0 1
0.63 2.77 -0.75 0 -1.5708 0 0 1
0.63 2.77 -0.75 1.5708 0 0 0 1
0.63 2.77 -2.25 1.5708 0 0 0 1
0.63 2.25 -2.25 1.5708 0 0 0 1
0.63 2.25 -0.75 1.5708 0 0 0 1
0.63 2.25 -0.75 0 -1.5708 0 0 1
0.63 2.25 -2.25 0 -1.5708 0 0 1
0.09 2.25 -2.25 0 -1.5708 0 0 1
0.09 2.25 -0.75 0 -1.5708 0 0 1
0.09 2.25 -0.75 -1.5708 0 0 0 1
0.09 2.25 -2.25 -1.5708 0 0 0 1
0.09 3.03156 -2.25 -1.5708 0 0 0 1
0.09 3.03156 -0.75 -1.5708 0 0 0 1
0.09 3.03156 -0.75 -1.10814 1.1133 0 0 1
0.09 3.03156 -2.25 -1.10814 1.1133 0 0 1
0.359687 3.3 -2.25 -1.10814 1.1133 0 0 1
0.359687 3.3 -0.75 -1.10814 1.1133 0 0 1
0.359687 3.3 -0.75 0 1.5708 0 0 1
0.359687 3.3 -2.25 0 1.5708 0 0 1
3.00031 3.3 -2.25 0 1.5708 0 0 1
3.00031 3.3 -0.75 0 1.5708 0 0 1
3.00031 3.3 -0.75 1.11072 1.11072 0 0 1
3.00031 3.3 -2.25 1.11072 1.11072 0 0 1
3.27 3.03031 -2.25 1.11072 1.11072 0 0 1
3.27 3.03031 -0.75 1.11072 1.11072 0 0 1
3.27 3.03031 -0.75 1.57077 0.00884027 0 0 1
3.27 3.03031 -2.25 1.57077 0.00884027 0 0 1
3.2725 2.58609 -2.25 1.57077 0.00884027 0 0 1
3.2725 2.58609 -0.75 1.57077 0.00884027 0 0 1
3.2725 2.58609 -0.75 0.913031 -1.27819 0 0 1
3.2725 2.58609 -2.25 0.913031 -1.27819 0 0 1
1.69406 1.45859 -2.25 0.913031 -1.27819 0 0 1
1.69406 1.45859 -0.75 0.913031 -1.27819 0 0 1
1.69406 1.45859 -0.75 0 0 0.643395 0 1
3.2725 2.58609 -0.75 0 0 1.82681 0 1
2.11 2.77 -0.75 0 0 5.01952 0 1
3.00031 3.3 -0.75 0 0 1.93505 0 1
0.63 2.77 -0.75 0 0 4.71239 0 1
0.359687 3.3 -0.75 0 0 2.35852 0 1
0.63 2.25 -0.75 0 0 1.5708 0 1
0.09 3.03156 -0.75 0 0 2.35387 0 1
0.09 2.25 -0.75 0 0 1.5708 0 1
0.359687 -0.4 -0.75 0 0 2.3559 0 1
3.00031 -0.4 -0.75 0 0 0.387036 0 1
1.7 0.13 -0.75 0 0 4.32088 0 1
1.69406 1.45859 -0.75 0 0 3.45319 0 1
2.11 2.77 -0.75 0 0 0.68464 0 1
0.09 1.44938 -0.75 0 0 2.14982 0 1
0.09 -0.130156 -0.75 0 0 2.35649 0 1
3.00031 -0.4 -0.75 0 0 1.97061 0 1
3.27 -0.131094 -0.75 0 0 2.35474 0 1
3.27 0.66 -0.75 0 0 1.5708 0 1
2.75 0.66 -0.75 0 0 1.5708 0 1
2.75 0.13 -0.75 0 0 4.71239 0 1
1.7 0.13 -0.75 0 0 0.387036 0 1
1.7 1.19453 -0.75 0 0 3.11912 0 1
1.69406 1.45859 -0.75 0 0 0.0180138 0 1
1.7 0.13 -0.75 0 0 0.00448847 0 1
3.00031 3.3 -0.75 0 0 0.421147 0 1
3.2725 2.58609 -0.75 0 0 0.358624 0 1
3.27 3.03031 -0.75 0 0 2.36182 0 1
1.69406 1.45859 -2.25 0 0 -0.643395 0 1
3.2725 2.58609 -2.25 0 0 -1.82681 0 1
2.11 2.77 -2.25 0 0 -5.01952 0 1
3.00031 3.3 -2.25 0 0 -1.93505 0 1
0.63 2.77 -2.25 0 0 -4.71239 0 1
0.359687 3.3 -2.25 0 0 -2.35852 0 1
0.63 2.25 -2.25 0 0 -1.5708 0 1
0.09 3.03156 -2.25 0 0 -2.35387 0 1
0.09 2.25 -2.25 0 0 -1.5708 0 1
0.359687 -0.4 -2.25 0 0 -2.3559 0 1
3.00031 -0.4 -2.25 0 0 -0.387036 0 1
1.7 0.13 -2.25 0 0 -4.32088 0 1
1.69406 1.45859 -2.25 0 0 -3.45319 0 1
2.11 2.77 -2.25 0 0 -0.68464 0 1
0.09 1.44938 -2.25 0 0 -2.14982 0 1
0.09 -0.130156 -2.25 0 0 -2.35649 0 1
3.00031 -0.4 -2.25 0 0 -1.97061 0 1
3.27 -0.131094 -2.25 0 0 -2.35474 0 1
3.27 0.66 -2.25 0 0 -1.5708 0 1
2.75 0.66 -2.25 0 0 -1.5708 0 1
2.75 0.13 -2.25 0 0 -4.71239 0 1
1.7 0.13 -2.25 0 0 -0.387036 0 1
1.7 1.19453 -2.25 0 0 -3.11912 0 1
1.69406 1.45859 -2.25 0 0 -0.0180138 0 1
1.7 0.13 -2.25 0 0 -0.00448847 0 1
3.00031 3.3 -2.25 0 0 -0.421147 0 1
3.2725 2.58609 -2.25 0 0 -0.358624 0 1
3.27 3.03031 -2.25 0 0 -2.36182 0 1
3 0 2 1 
3 0 3 2 
3 4 6 5 
3 4 7 6 
3 8 10 9 
3 8 11 10 
3 12 14 13 
3 12 15 14 
3 16 18 17 
3 16 19 18 
3 20 22 21 
3 20 23 22 
3 24 26 25 
3 24 27 26 
3 28 30 29 
3 28 31 30 
3 32 34 33 
3 32 35 34 
3 36 38 37 
3 36 39 38 
3 40 42 41 
3 40 43 42 
3 44 46 45 
3 44 47 46 
3 48 50 49 
3 48 51 50 
3 52 54 53 
3 52 55 54 
3 56 58 57 
3 56 59 58 
3 60 62 61 
3 60 63 62 
3 64 66 65 
3 64 67 66 
3 68 70 69 
3 68 71 70 
3 72 74 73 
3 72 75 74 
3 76 78 77 
3 76 79 78 
3 80 81 82 
3 82 81 83 
3 82 83 84 
3 84 83 85 
3 84 85 86 
3 86 85 87 
3 86 87 88 
3 89 90 91 
3 89 91 92 
3 89 92 93 
3 89 93 94 
3 89 94 95 
3 96 97 98 
3 96 98 99 
3 96 99 100 
3 96 100 101 
3 102 103 104 
3 105 106 107 
3 108 110 109 
3 110 111 109 
3 110 112 111 
3 112 113 111 
3 112 114 113 
3 114 115 113 
3 114 116 115 
3 117 119 118 
3 117 120 119 
3 117 121 120 
3 117 122 121 
3 117 123 122 
3 124 126 125 
3 124 127 126 
3 124 128 127 
3 124 129 128 
3 130 132 131 
3 133 135 134 
