ply
format ascii 1.0
comment VCGLIB generated
element vertex 64
property float x
property float y
property float z
property float nx
property float ny
property float nz
property float texture_u
property float texture_v
element face 36
property list uchar int vertex_indices
end_header
0.71 3.3 -0.75 0 -1.5708 0 0 1
0.71 3.3 -2.25 0 -1.5708 0 0 1
0.19 3.3 -2.25 0 -1.5708 0 0 1
0.19 3.3 -0.75 0 -1.5708 0 0 1
0.19 3.3 -0.75 -1.5708 0 0 0 1
0.19 3.3 -2.25 -1.5708 0 0 0 1
0.19 4.61938 -2.25 -1.5708 0 0 0 1
0.19 4.61938 -0.75 -1.5708 0 0 0 1
0.19 4.61938 -0.75 -1.10839 1.11304 0 0 1
0.19 4.61938 -2.25 -1.10839 1.11304 0 0 1
0.451719 4.88 -2.25 -1.10839 1.11304 0 0 1
0.451719 4.88 -0.75 -1.10839 1.11304 0 0 1
0.451719 4.88 -0.75 0 1.5708 0 0 1
0.451719 4.88 -2.25 0 1.5708 0 0 1
2.03828 4.88 -2.25 0 1.5708 0 0 1
2.03828 4.88 -0.75 0 1.5708 0 0 1
2.03828 4.88 -0.75 1.10839 1.11304 0 0 1
2.03828 4.88 -2.25 1.10839 1.11304 0 0 1
2.3 4.61938 -2.25 1.10839 1.11304 0 0 1
2.3 4.61938 -0.75 1.10839 1.11304 0 0 1
2.3 4.61938 -0.75 1.5708 0 0 0 1
2.3 4.61938 -2.25 1.5708 0 0 0 1
2.3 3.3 -2.25 1.5708 0 0 0 1
2.3 3.3 -0.75 1.5708 0 0 0 1
2.3 3.3 -0.75 0 -1.5708 0 0 1
2.3 3.3 -2.25 0 -1.5708 0 0 1
1.78 3.3 -2.25 0 -1.5708 0 0 1
1.78 3.3 -0.75 0 -1.5708 0 0 1
1.78 3.3 -0.75 -1.5708 0 0 0 1
1.78 3.3 -2.25 -1.5708 0 0 0 1
1.78 4.35 -2.25 -1.5708 0 0 0 1
1.78 4.35 -0.75 -1.5708 0 0 0 1
1.78 4.35 -0.75 0 -1.5708 0 0 1
1.78 4.35 -2.25 0 -1.5708 0 0 1
0.71 4.35 -2.25 0 -1.5708 0 0 1
0.71 4.35 -0.75 0 -1.5708 0 0 1
0.71 4.35 -0.75 1.5708 0 0 0 1
0.71 4.35 -2.25 1.5708 0 0 0 1
0.71 3.3 -2.25 1.5708 0 0 0 1
0.71 3.3 -0.75 1.5708 0 0 0 1
1.78 3.3 -0.75 0 0 1.5708 0 1
2.3 3.3 -0.75 0 0 1.40664 0 1
1.78 4.35 -0.75 0 0 4.71239 0 1
2.03828 4.88 -0.75 0 0 1.73495 0 1
0.71 4.35 -0.75 0 0 4.71239 0 1
0.451719 4.88 -0.75 0 0 2.35829 0 1
0.71 3.3 -0.75 0 0 1.5708 0 1
0.19 4.61938 -0.75 0 0 2.3541 0 1
0.19 3.3 -0.75 0 0 1.5708 0 1
2.03828 4.88 -0.75 0 0 0.623338 0 1
2.3 3.3 -0.75 0 0 0.164154 0 1
2.3 4.61938 -0.75 0 0 2.3541 0 1
1.78 3.3 -2.25 0 0 -1.5708 0 1
2.3 3.3 -2.25 0 0 -1.40664 0 1
1.78 4.35 -2.25 0 0 -4.71239 0 1
2.03828 4.88 -2.25 0 0 -1.73495 0 1
0.71 4.35 -2.25 0 0 -4.71239 0 1
0.451719 4.88 -2.25 0 0 -2.35829 0 1
0.71 3.3 -2.25 0 0 -1.5708 0 1
0.19 4.61938 -2.25 0 0 -2.3541 0 1
0.19 3.3 -2.25 0 0 -1.5708 0 1
2.03828 4.88 -2.25 0 0 -0.623338 0 1
2.3 3.3 -2.25 0 0 -0.164154 0 1
2.3 4.61938 -2.25 0 0 -2.3541 0 1
3 0 2 1 
3 0 3 2 
3 4 6 5 
3 4 7 6 
3 8 10 9 
3 8 11 10 
3 12 14 13 
3 12 15 14 
3 16 18 17 
3 16 19 18 
3 20 22 21 
3 20 23 22 
3 24 26 25 
3 24 27 26 
3 28 30 29 
3 28 31 30 
3 32 34 33 
3 32 35 34 
3 36 38 37 
3 36 39 38 
3 40 41 42 
3 42 41 43 
3 42 43 44 
3 44 43 45 
3 44 45 46 
3 46 45 47 
3 46 47 48 
3 49 50 51 
3 52 54 53 
3 54 55 53 
3 54 56 55 
3 56 57 55 
3 56 58 57 
3 58 59 57 
3 58 60 59 
3 61 63 62 
