ply
format ascii 1.0
comment VCGLIB generated
element vertex 152
property float x
property float y
property float z
property float nx
property float ny
property float nz
property float texture_u
property float texture_v
element face 84
property list uchar int vertex_indices
end_header
0.491719 2.505 -0.75 -1.10972 -1.11172 0 0 1
0.491719 2.505 -2.25 -1.10972 -1.11172 0 0 1
0.23 2.76625 -2.25 -1.10972 -1.11172 0 0 1
0.23 2.76625 -0.75 -1.10972 -1.11172 0 0 1
0.23 2.76625 -0.75 -1.5708 0 0 0 1
0.23 2.76625 -2.25 -1.5708 0 0 0 1
0.23 4.08078 -2.25 -1.5708 0 0 0 1
0.23 4.08078 -0.75 -1.5708 0 0 0 1
0.23 4.08078 -0.75 -1.11137 1.11007 0 0 1
0.23 4.08078 -2.25 -1.11137 1.11007 0 0 1
0.498906 4.35 -2.25 -1.11137 1.11007 0 0 1
0.498906 4.35 -0.75 -1.11137 1.11007 0 0 1
0.498906 4.35 -0.75 0 1.5708 0 0 1
0.498906 4.35 -2.25 0 1.5708 0 0 1
1.02109 4.35 -2.25 0 1.5708 0 0 1
1.02109 4.35 -0.75 0 1.5708 0 0 1
1.02109 4.35 -0.75 1.11008 1.11137 0 0 1
1.02109 4.35 -2.25 1.11008 1.11137 0 0 1
1.29 4.08141 -2.25 1.11008 1.11137 0 0 1
1.29 4.08141 -0.75 1.11008 1.11137 0 0 1
1.29 4.08141 -0.75 1.5708 0 0 0 1
1.29 4.08141 -2.25 1.5708 0 0 0 1
1.29 2.77 -2.25 1.5708 0 0 0 1
1.29 2.77 -0.75 1.5708 0 0 0 1
1.29 2.77 -0.75 0 1.5708 0 0 1
1.29 2.77 -2.25 0 1.5708 0 0 1
3.41 2.77 -2.25 0 1.5708 0 0 1
3.41 2.77 -0.75 0 1.5708 0 0 1
3.41 2.77 -0.75 -1.5708 0 0 0 1
3.41 2.77 -2.25 -1.5708 0 0 0 1
3.41 4.35 -2.25 -1.5708 0 0 0 1
3.41 4.35 -0.75 -1.5708 0 0 0 1
3.41 4.35 -0.75 0 1.5708 0 0 1
3.41 4.35 -2.25 0 1.5708 0 0 1
3.93 4.35 -2.25 0 1.5708 0 0 1
3.93 4.35 -0.75 0 1.5708 0 0 1
3.93 4.35 -0.75 1.5708 0 0 0 1
3.93 4.35 -2.25 1.5708 0 0 0 1
3.93 2.76672 -2.25 1.5708 0 0 0 1
3.93 2.76672 -0.75 1.5708 0 0 0 1
3.93 2.76672 -0.75 1.10774 -1.1137 0 0 1
3.93 2.76672 -2.25 1.10774 -1.1137 0 0 1
3.66734 2.50547 -2.25 1.10774 -1.1137 0 0 1
3.66734 2.50547 -0.75 1.10774 -1.1137 0 0 1
3.66734 2.50547 -0.75 1.10774 1.1137 0 0 1
3.66734 2.50547 -2.25 1.10774 1.1137 0 0 1
3.93 2.24422 -2.25 1.10774 1.1137 0 0 1
3.93 2.24422 -0.75 1.10774 1.1137 0 0 1
3.93 2.24422 -0.75 1.5708 0 0 0 1
3.93 2.24422 -2.25 1.5708 0 0 0 1
3.93 -0.4 -2.25 1.5708 0 0 0 1
3.93 -0.4 -0.75 1.5708 0 0 0 1
3.93 -0.4 -0.75 0 -1.5708 0 0 1
3.93 -0.4 -2.25 0 -1.5708 0 0 1
3.41 -0.4 -2.25 0 -1.5708 0 0 1
3.41 -0.4 -0.75 0 -1.5708 0 0 1
3.41 -0.4 -0.75 -1.5708 0 0 0 1
3.41 -0.4 -2.25 -1.5708 0 0 0 1
3.41 2.24 -2.25 -1.5708 0 0 0 1
3.41 2.24 -0.75 -1.5708 0 0 0 1
3.41 2.24 -0.75 0 -1.5708 0 0 1
3.41 2.24 -2.25 0 -1.5708 0 0 1
1.81 2.24 -2.25 0 -1.5708 0 0 1
1.81 2.24 -0.75 0 -1.5708 0 0 1
1.81 2.24 -0.75 1.5708 0 0 0 1
1.81 2.24 -2.25 1.5708 0 0 0 1
1.81 -0.13125 -2.25 1.5708 0 0 0 1
1.81 -0.13125 -0.75 1.5708 0 0 0 1
1.81 -0.13125 -0.75 1.10814 -1.11329 0 0 1
1.81 -0.13125 -2.25 1.10814 -1.11329 0 0 1
1.54 -0.4 -2.25 1.10814 -1.11329 0 0 1
1.54 -0.4 -0.75 1.10814 -1.11329 0 0 1
1.54 -0.4 -0.75 0 -1.5708 0 0 1
1.54 -0.4 -2.25 0 -1.5708 0 0 1
0.5 -0.4 -2.25 0 -1.5708 0 0 1
0.5 -0.4 -0.75 0 -1.5708 0 0 1
0.5 -0.4 -0.75 -1.10879 -1.11265 0 0 1
0.5 -0.4 -2.25 -1.10879 -1.11265 0 0 1
0.23 -0.130938 -2.25 -1.10879 -1.11265 0 0 1
0.23 -0.130938 -0.75 -1.10879 -1.11265 0 0 1
0.23 -0.130938 -0.75 -1.5708 0 0 0 1
0.23 -0.130938 -2.25 -1.5708 0 0 0 1
0.23 2.24375 -2.25 -1.5708 0 0 0 1
0.23 2.24375 -0.75 -1.5708 0 0 0 1
0.23 2.24375 -0.75 -1.10972 1.11172 0 0 1
0.23 2.24375 -2.25 -1.10972 1.11172 0 0 1
0.491719 2.505 -2.25 -1.10972 1.11172 0 0 1
0.491719 2.505 -0.75 -1.10972 1.11172 0 0 1
3.41 -0.4 -0.75 0 0 1.5708 0 1
3.93 -0.4 -0.75 0 0 1.40821 0 1
3.41 2.24 -0.75 0 0 4.71239 0 1
3.41 2.77 -0.75 0 0 1.73339 0 1
1.81 2.24 -0.75 0 0 4.61047 0 1
1.29 2.77 -0.75 0 0 4.54381 0 1
1.54 -0.4 -0.75 0 0 1.67272 0 1
1.02109 4.35 -0.75 0 0 1.73937 0 1
0.5 -0.4 -0.75 0 0 1.57361 0 1
0.498906 4.35 -0.75 0 0 2.3556 0 1
0.491719 2.505 -0.75 0 0 3.92505 0 1
0.23 4.08078 -0.75 0 0 2.35678 0 1
0.23 2.76625 -0.75 0 0 2.3553 0 1
0.23 2.24375 -0.75 0 0 2.3553 0 1
0.23 -0.130938 -0.75 0 0 2.35445 0 1
0.5 -0.4 -0.75 0 0 0.784287 0 1
0.491719 2.505 -0.75 0 0 0.789145 0 1
3.66734 2.50547 -0.75 0 0 4.71776 0 1
3.93 2.76672 -0.75 0 0 2.35351 0 1
3.93 4.35 -0.75 0 0 1.5708 0 1
3.41 4.35 -0.75 0 0 1.46176 0 1
3.93 -0.4 -0.75 0 0 0.109042 0 1
3.93 2.24422 -0.75 0 0 2.35351 0 1
1.29 4.08141 -0.75 0 0 2.35561 0 1
1.02109 4.35 -0.75 0 0 0.6174 0 1
1.29 2.77 -0.75 0 0 0.168578 0 1
3.41 2.77 -0.75 0 0 2.979 0 1
3.93 -0.4 -0.75 0 0 0.0535517 0 1
3.41 4.35 -0.75 0 0 0.10904 0 1
1.81 2.24 -0.75 0 0 0.101918 0 1
1.54 -0.4 -0.75 0 0 0.6858 0 1
1.81 -0.13125 -0.75 0 0 2.35387 0 1
3.41 -0.4 -2.25 0 0 -1.5708 0 1
3.93 -0.4 -2.25 0 0 -1.40821 0 1
3.41 2.24 -2.25 0 0 -4.71239 0 1
3.41 2.77 -2.25 0 0 -1.73339 0 1
1.81 2.24 -2.25 0 0 -4.61047 0 1
1.29 2.77 -2.25 0 0 -4.54381 0 1
1.54 -0.4 -2.25 0 0 -1.67272 0 1
1.02109 4.35 -2.25 0 0 -1.73937 0 1
0.5 -0.4 -2.25 0 0 -1.57361 0 1
0.498906 4.35 -2.25 0 0 -2.3556 0 1
0.491719 2.505 -2.25 0 0 -3.92505 0 1
0.23 4.08078 -2.25 0 0 -2.35678 0 1
0.23 2.76625 -2.25 0 0 -2.3553 0 1
0.23 2.24375 -2.25 0 0 -2.3553 0 1
0.23 -0.130938 -2.25 0 0 -2.35445 0 1
0.5 -0.4 -2.25 0 0 -0.784287 0 1
0.491719 2.505 -2.25 0 0 -0.789145 0 1
3.66734 2.50547 -2.25 0 0 -4.71776 0 1
3.93 2.76672 -2.25 0 0 -2.35351 0 1
3.93 4.35 -2.25 0 0 -1.5708 0 1
3.41 4.35 -2.25 0 0 -1.46176 0 1
3.93 -0.4 -2.25 0 0 -0.109042 0 1
3.93 2.24422 -2.25 0 0 -2.35351 0 1
1.29 4.08141 -2.25 0 0 -2.35561 0 1
1.02109 4.35 -2.25 0 0 -0.6174 0 1
1.29 2.77 -2.25 0 0 -0.168578 0 1
3.41 2.77 -2.25 0 0 -2.979 0 1
3.93 -0.4 -2.25 0 0 -0.0535517 0 1
3.41 4.35 -2.25 0 0 -0.10904 0 1
1.81 2.24 -2.25 0 0 -0.101918 0 1
1.54 -0.4 -2.25 0 0 -0.6858 0 1
1.81 -0.13125 -2.25 0 0 -2.35387 0 1
3 0 2 1 
3 0 3 2 
3 4 6 5 
3 4 7 6 
3 8 10 9 
3 8 11 10 
3 12 14 13 
3 12 15 14 
3 16 18 17 
3 16 19 18 
3 20 22 21 
3 20 23 22 
3 24 26 25 
3 24 27 26 
3 28 30 29 
3 28 31 30 
3 32 34 33 
3 32 35 34 
3 36 38 37 
3 36 39 38 
3 40 42 41 
3 40 43 42 
3 44 46 45 
3 44 47 46 
3 48 50 49 
3 48 51 50 
3 52 54 53 
3 52 55 54 
3 56 58 57 
3 56 59 58 
3 60 62 61 
3 60 63 62 
3 64 66 65 
3 64 67 66 
3 68 70 69 
3 68 71 70 
3 72 74 73 
3 72 75 74 
3 76 78 77 
3 76 79 78 
3 80 82 81 
3 80 83 82 
3 84 86 85 
3 84 87 86 
3 88 89 90 
3 90 89 91 
3 90 91 92 
3 92 91 93 
3 92 93 94 
3 94 93 95 
3 94 95 96 
3 96 95 97 
3 96 97 98 
3 98 97 99 
3 98 99 100 
3 101 102 103 
3 101 103 104 
3 105 106 107 
3 105 107 108 
3 105 108 109 
3 105 109 110 
3 111 112 113 
3 114 115 116 
3 117 118 119 
3 120 122 121 
3 122 123 121 
3 122 124 123 
3 124 125 123 
3 124 126 125 
3 126 127 125 
3 126 128 127 
3 128 129 127 
3 128 130 129 
3 130 131 129 
3 130 132 131 
3 133 135 134 
3 133 136 135 
3 137 139 138 
3 137 140 139 
3 137 141 140 
3 137 142 141 
3 143 145 144 
3 146 148 147 
3 149 151 150 
