ply
format ascii 1.0
comment VCGLIB generated
element vertex 110
property float x
property float y
property float z
property float nx
property float ny
property float nz
property float texture_u
property float texture_v
element face 60
property list uchar int vertex_indices
end_header
3.27 -1.98 -0.75 0 -1.5708 0 0 1
3.27 -1.98 -2.25 0 -1.5708 0 0 1
2.75 -1.98 -2.25 0 -1.5708 0 0 1
2.75 -1.98 -0.75 0 -1.5708 0 0 1
2.75 -1.98 -0.75 -1.5708 0 0 0 1
2.75 -1.98 -2.25 -1.5708 0 0 0 1
2.75 -0.4 -2.25 -1.5708 0 0 0 1
2.75 -0.4 -0.75 -1.5708 0 0 0 1
2.75 -0.4 -0.75 0 -1.5708 0 0 1
2.75 -0.4 -2.25 0 -1.5708 0 0 1
0.367969 -0.4 -2.25 0 -1.5708 0 0 1
0.367969 -0.4 -0.75 0 -1.5708 0 0 1
0.367969 -0.4 -0.75 -1.10947 -1.11197 0 0 1
0.367969 -0.4 -2.25 -1.10947 -1.11197 0 0 1
0.09 -0.122656 -2.25 -1.10947 -1.11197 0 0 1
0.09 -0.122656 -0.75 -1.10947 -1.11197 0 0 1
0.09 -0.122656 -0.75 -1.5708 0 0 0 1
0.09 -0.122656 -2.25 -1.5708 0 0 0 1
0.09 3.02266 -2.25 -1.5708 0 0 0 1
0.09 3.02266 -0.75 -1.5708 0 0 0 1
0.09 3.02266 -0.75 -1.11041 1.11103 0 0 1
0.09 3.02266 -2.25 -1.11041 1.11103 0 0 1
0.3675 3.3 -2.25 -1.11041 1.11103 0 0 1
0.3675 3.3 -0.75 -1.11041 1.11103 0 0 1
0.3675 3.3 -0.75 0 1.5708 0 0 1
0.3675 3.3 -2.25 0 1.5708 0 0 1
2.9925 3.3 -2.25 0 1.5708 0 0 1
2.9925 3.3 -0.75 0 1.5708 0 0 1
2.9925 3.3 -0.75 1.10978 1.11166 0 0 1
2.9925 3.3 -2.25 1.10978 1.11166 0 0 1
3.27 3.02297 -2.25 1.10978 1.11166 0 0 1
3.27 3.02297 -0.75 1.10978 1.11166 0 0 1
3.27 3.02297 -0.75 1.5708 0 0 0 1
3.27 3.02297 -2.25 1.5708 0 0 0 1
3.27 -1.98 -2.25 1.5708 0 0 0 1
3.27 -1.98 -0.75 1.5708 0 0 0 1
1.67 1.44609 -0.75 1.5708 0 0 0 1
1.67 1.44609 -2.25 1.5708 0 0 0 1
1.67 0.13 -2.25 1.5708 0 0 0 1
1.67 0.13 -0.75 1.5708 0 0 0 1
1.67 0.13 -0.75 0 1.5708 0 0 1
1.67 0.13 -2.25 0 1.5708 0 0 1
2.75 0.13 -2.25 0 1.5708 0 0 1
2.75 0.13 -0.75 0 1.5708 0 0 1
2.75 0.13 -0.75 -1.5708 0 0 0 1
2.75 0.13 -2.25 -1.5708 0 0 0 1
2.75 2.77 -2.25 -1.5708 0 0 0 1
2.75 2.77 -0.75 -1.5708 0 0 0 1
2.75 2.77 -0.75 0 -1.5708 0 0 1
2.75 2.77 -2.25 0 -1.5708 0 0 1
1.15 2.77 -2.25 0 -1.5708 0 0 1
1.15 2.77 -0.75 0 -1.5708 0 0 1
1.15 2.77 -0.75 1.5708 0 0 0 1
1.15 2.77 -2.25 1.5708 0 0 0 1
1.15 1.96922 -2.25 1.5708 0 0 0 1
1.15 1.96922 -0.75 1.5708 0 0 0 1
1.15 1.96922 -0.75 1.11404 1.10739 0 0 1
1.15 1.96922 -2.25 1.11404 1.10739 0 0 1
1.67 1.44609 -2.25 1.11404 1.10739 0 0 1
1.67 1.44609 -0.75 1.11404 1.10739 0 0 1
1.15 1.96922 -0.75 0 0 0.594356 0 1
0.367969 -0.4 -0.75 0 0 1.25198 0 1
1.67 0.13 -0.75 0 0 4.43685 0 1
2.75 -0.4 -0.75 0 0 4.39444 0 1
2.75 0.13 -0.75 0 0 4.71239 0 1
3.27 -1.98 -0.75 0 0 0.26544 0 1
2.75 2.77 -0.75 0 0 4.71239 0 1
2.9925 3.3 -0.75 0 0 1.6233 0 1
1.15 2.77 -0.75 0 0 4.47052 0 1
0.3675 3.3 -0.75 0 0 2.35648 0 1
0.367969 -0.4 -0.75 0 0 1.02839 0 1
0.09 3.02266 -0.75 0 0 2.35591 0 1
0.09 -0.122656 -0.75 0 0 2.35507 0 1
1.67 1.44609 -0.75 0 0 2.35919 0 1
1.15 1.96922 -0.75 0 0 0.506865 0 1
1.67 0.13 -0.75 0 0 0.275537 0 1
3.27 -1.98 -0.75 0 0 1.25285 0 1
2.75 -0.4 -0.75 0 0 0.317948 0 1
2.75 -1.98 -0.75 0 0 1.5708 0 1
2.9925 3.3 -0.75 0 0 0.733735 0 1
3.27 -1.98 -0.75 0 0 0.0525082 0 1
3.27 3.02297 -0.75 0 0 2.35535 0 1
1.15 2.77 -0.75 0 0 0.241868 0 1
0.367969 -0.4 -0.75 0 0 0.0769508 0 1
1.15 1.96922 -0.75 0 0 2.82277 0 1
1.15 1.96922 -2.25 0 0 -0.594356 0 1
0.367969 -0.4 -2.25 0 0 -1.25198 0 1
1.67 0.13 -2.25 0 0 -4.43685 0 1
2.75 -0.4 -2.25 0 0 -4.39444 0 1
2.75 0.13 -2.25 0 0 -4.71239 0 1
3.27 -1.98 -2.25 0 0 -0.26544 0 1
2.75 2.77 -2.25 0 0 -4.71239 0 1
2.9925 3.3 -2.25 0 0 -1.6233 0 1
1.15 2.77 -2.25 0 0 -4.47052 0 1
0.3675 3.3 -2.25 0 0 -2.35648 0 1
0.367969 -0.4 -2.25 0 0 -1.02839 0 1
0.09 3.02266 -2.25 0 0 -2.35591 0 1
0.09 -0.122656 -2.25 0 0 -2.35507 0 1
1.67 1.44609 -2.25 0 0 -2.35919 0 1
1.15 1.96922 -2.25 0 0 -0.506865 0 1
1.67 0.13 -2.25 0 0 -0.275537 0 1
3.27 -1.98 -2.25 0 0 -1.25285 0 1
2.75 -0.4 -2.25 0 0 -0.317948 0 1
2.75 -1.98 -2.25 0 0 -1.5708 0 1
2.9925 3.3 -2.25 0 0 -0.733735 0 1
3.27 -1.98 -2.25 0 0 -0.0525082 0 1
3.27 3.02297 -2.25 0 0 -2.35535 0 1
1.15 2.77 -2.25 0 0 -0.241868 0 1
0.367969 -0.4 -2.25 0 0 -0.0769508 0 1
1.15 1.96922 -2.25 0 0 -2.82277 0 1
3 0 2 1 
3 0 3 2 
3 4 6 5 
3 4 7 6 
3 8 10 9 
3 8 11 10 
3 12 14 13 
3 12 15 14 
3 16 18 17 
3 16 19 18 
3 20 22 21 
3 20 23 22 
3 24 26 25 
3 24 27 26 
3 28 30 29 
3 28 31 30 
3 32 34 33 
3 32 35 34 
3 36 38 37 
3 36 39 38 
3 40 42 41 
3 40 43 42 
3 44 46 45 
3 44 47 46 
3 48 50 49 
3 48 51 50 
3 52 54 53 
3 52 55 54 
3 56 58 57 
3 56 59 58 
3 60 61 62 
3 62 61 63 
3 62 63 64 
3 64 63 65 
3 64 65 66 
3 66 65 67 
3 66 67 68 
3 68 67 69 
3 68 69 70 
3 70 69 71 
3 70 71 72 
3 73 74 75 
3 76 77 78 
3 79 80 81 
3 82 83 84 
3 85 87 86 
3 87 88 86 
3 87 89 88 
3 89 90 88 
3 89 91 90 
3 91 92 90 
3 91 93 92 
3 93 94 92 
3 93 95 94 
3 95 96 94 
3 95 97 96 
3 98 100 99 
3 101 103 102 
3 104 106 105 
3 107 109 108 
