ply
format ascii 1.0
comment VCGLIB generated
element vertex 80
property float x
property float y
property float z
property float nx
property float ny
property float nz
property float texture_u
property float texture_v
element face 44
property list uchar int vertex_indices
end_header
1.77344 -0.4 -0.75 0 -1.5708 0 0 1
1.77344 -0.4 -2.25 0 -1.5708 0 0 1
0.746562 -0.4 -2.25 0 -1.5708 0 0 1
0.746562 -0.4 -0.75 0 -1.5708 0 0 1
0.746562 -0.4 -0.75 -1.11104 -1.11041 0 0 1
0.746562 -0.4 -2.25 -1.11104 -1.11041 0 0 1
0.47 -0.123281 -2.25 -1.11104 -1.11041 0 0 1
0.47 -0.123281 -0.75 -1.11104 -1.11041 0 0 1
0.47 -0.123281 -0.75 -1.5708 0 0 0 1
0.47 -0.123281 -2.25 -1.5708 0 0 0 1
0.47 1.96328 -2.25 -1.5708 0 0 0 1
0.47 1.96328 -0.75 -1.5708 0 0 0 1
0.47 1.96328 -0.75 -1.10978 1.11166 0 0 1
0.47 1.96328 -2.25 -1.10978 1.11166 0 0 1
0.747187 2.24 -2.25 -1.10978 1.11166 0 0 1
0.747187 2.24 -0.75 -1.10978 1.11166 0 0 1
0.747187 2.24 -0.75 0 1.5708 0 0 1
0.747187 2.24 -2.25 0 1.5708 0 0 1
4.16 2.24 -2.25 0 1.5708 0 0 1
4.16 2.24 -0.75 0 1.5708 0 0 1
4.16 2.24 -0.75 -1.5708 0 0 0 1
4.16 2.24 -2.25 -1.5708 0 0 0 1
4.16 4.35 -2.25 -1.5708 0 0 0 1
4.16 4.35 -0.75 -1.5708 0 0 0 1
4.16 4.35 -0.75 0 1.5708 0 0 1
4.16 4.35 -2.25 0 1.5708 0 0 1
4.68 4.35 -2.25 0 1.5708 0 0 1
4.68 4.35 -0.75 0 1.5708 0 0 1
4.68 4.35 -0.75 1.5708 0 0 0 1
4.68 4.35 -2.25 1.5708 0 0 0 1
4.68 1.96375 -2.25 1.5708 0 0 0 1
4.68 1.96375 -0.75 1.5708 0 0 0 1
4.68 1.96375 -0.75 1.11141 -1.11004 0 0 1
4.68 1.96375 -2.25 1.11141 -1.11004 0 0 1
4.42656 1.71 -2.25 1.11141 -1.11004 0 0 1
4.42656 1.71 -0.75 1.11141 -1.11004 0 0 1
4.42656 1.71 -0.75 0 -1.5708 0 0 1
4.42656 1.71 -2.25 0 -1.5708 0 0 1
2.05 1.71 -2.25 0 -1.5708 0 0 1
2.05 1.71 -0.75 0 -1.5708 0 0 1
2.05 1.71 -0.75 1.5708 0 0 0 1
2.05 1.71 -2.25 1.5708 0 0 0 1
2.05 -0.123438 -2.25 1.5708 0 0 0 1
2.05 -0.123438 -0.75 1.5708 0 0 0 1
2.05 -0.123438 -0.75 1.11072 -1.11072 0 0 1
2.05 -0.123438 -2.25 1.11072 -1.11072 0 0 1
1.77344 -0.4 -2.25 1.11072 -1.11072 0 0 1
1.77344 -0.4 -0.75 1.11072 -1.11072 0 0 1
4.42656 1.71 -0.75 0 0 2.35558 0 1
4.68 1.96375 -0.75 0 0 2.35681 0 1
4.68 4.35 -0.75 0 0 1.5708 0 1
4.16 4.35 -0.75 0 0 1.5708 0 1
4.16 2.24 -0.75 0 0 4.4663 0 1
2.05 1.71 -0.75 0 0 0.246093 0 1
2.05 -0.123438 -0.75 0 0 2.35619 0 1
2.05 1.71 -0.75 0 0 1.95716 0 1
1.77344 -0.4 -0.75 0 0 2.35619 0 1
0.747187 2.24 -0.75 0 0 1.97067 0 1
0.746562 -0.4 -0.75 0 0 2.35591 0 1
0.47 1.96328 -0.75 0 0 2.35535 0 1
0.47 -0.123281 -0.75 0 0 2.35648 0 1
0.747187 2.24 -0.75 0 0 0.386365 0 1
2.05 1.71 -0.75 0 0 2.50913 0 1
4.16 2.24 -0.75 0 0 0.246093 0 1
4.42656 1.71 -2.25 0 0 -2.35558 0 1
4.68 1.96375 -2.25 0 0 -2.35681 0 1
4.68 4.35 -2.25 0 0 -1.5708 0 1
4.16 4.35 -2.25 0 0 -1.5708 0 1
4.16 2.24 -2.25 0 0 -4.4663 0 1
2.05 1.71 -2.25 0 0 -0.246093 0 1
2.05 -0.123438 -2.25 0 0 -2.35619 0 1
2.05 1.71 -2.25 0 0 -1.95716 0 1
1.77344 -0.4 -2.25 0 0 -2.35619 0 1
0.747187 2.24 -2.25 0 0 -1.97067 0 1
0.746562 -0.4 -2.25 0 0 -2.35591 0 1
0.47 1.96328 -2.25 0 0 -2.35535 0 1
0.47 -0.123281 -2.25 0 0 -2.35648 0 1
0.747187 2.24 -2.25 0 0 -0.386365 0 1
2.05 1.71 -2.25 0 0 -2.50913 0 1
4.16 2.24 -2.25 0 0 -0.246093 0 1
3 0 2 1 
3 0 3 2 
3 4 6 5 
3 4 7 6 
3 8 10 9 
3 8 11 10 
3 12 14 13 
3 12 15 14 
3 16 18 17 
3 16 19 18 
3 20 22 21 
3 20 23 22 
3 24 26 25 
3 24 27 26 
3 28 30 29 
3 28 31 30 
3 32 34 33 
3 32 35 34 
3 36 38 37 
3 36 39 38 
3 40 42 41 
3 40 43 42 
3 44 46 45 
3 44 47 46 
3 48 49 50 
3 48 50 51 
3 48 51 52 
3 48 52 53 
3 54 55 56 
3 56 55 57 
3 56 57 58 
3 58 57 59 
3 58 59 60 
3 61 62 63 
3 64 66 65 
3 64 67 66 
3 64 68 67 
3 64 69 68 
3 70 72 71 
3 72 73 71 
3 72 74 73 
3 74 75 73 
3 74 76 75 
3 77 79 78 
