ply
format ascii 1.0
comment VCGLIB generated
element vertex 60
property float x
property float y
property float z
property float nx
property float ny
property float nz
property float texture_u
property float texture_v
element face 36
property list uchar int vertex_indices
end_header
0.369219 -0.4 -0.75 -1.11072 -1.11072 0 0 1
0.369219 -0.4 -2.25 -1.11072 -1.11072 0 0 1
0.1 -0.130781 -2.25 -1.11072 -1.11072 0 0 1
0.1 -0.130781 -0.75 -1.11072 -1.11072 0 0 1
0.1 -0.130781 -0.75 -1.5708 0 0 0 1
0.1 -0.130781 -2.25 -1.5708 0 0 0 1
0.1 4.08078 -2.25 -1.5708 0 0 0 1
0.1 4.08078 -0.75 -1.5708 0 0 0 1
0.1 4.08078 -0.75 -1.11233 1.10911 0 0 1
0.1 4.08078 -2.25 -1.11233 1.10911 0 0 1
0.368438 4.35 -2.25 -1.11233 1.10911 0 0 1
0.368438 4.35 -0.75 -1.11233 1.10911 0 0 1
0.368438 4.35 -0.75 0 1.5708 0 0 1
0.368438 4.35 -2.25 0 1.5708 0 0 1
0.881563 4.35 -2.25 0 1.5708 0 0 1
0.881563 4.35 -0.75 0 1.5708 0 0 1
0.881563 4.35 -0.75 1.11233 1.1091 0 0 1
0.881563 4.35 -2.25 1.11234 1.1091 0 0 1
1.15 4.08078 -2.25 1.11233 1.1091 0 0 1
1.15 4.08078 -0.75 1.11234 1.1091 0 0 1
1.15 4.08078 -0.75 1.5708 0 0 0 1
1.15 4.08078 -2.25 1.5708 0 0 0 1
1.15 1.975 -2.25 1.5708 0 0 0 1
1.15 1.975 -0.75 1.5708 0 0 0 1
1.15 1.975 -0.75 1.10691 1.11452 0 0 1
1.15 1.975 -2.25 1.10691 1.11452 0 0 1
1.67609 1.4525 -2.25 1.10691 1.11452 0 0 1
1.67609 1.4525 -0.75 1.10691 1.11452 0 0 1
1.67609 1.4525 -0.75 1.5708 0 0 0 1
1.67609 1.4525 -2.25 1.5708 0 0 0 1
1.67609 -0.130781 -2.25 1.5708 0 0 0 1
1.67609 -0.130781 -0.75 1.5708 0 0 0 1
1.67609 -0.130781 -0.75 1.11072 -1.11072 0 0 1
1.67609 -0.130781 -2.25 1.11072 -1.11072 0 0 1
1.40688 -0.4 -2.25 1.11072 -1.11072 0 0 1
1.40688 -0.4 -0.75 1.11072 -1.11072 0 0 1
1.40688 -0.4 -0.75 0 -1.5708 0 0 1
1.40688 -0.4 -2.25 0 -1.5708 0 0 1
0.369219 -0.4 -2.25 0 -1.5708 0 0 1
0.369219 -0.4 -0.75 0 -1.5708 0 0 1
0.369219 -0.4 -0.75 0 0 2.3562 0 1
1.40688 -0.4 -0.75 0 0 2.35619 0 1
1.67609 -0.130781 -0.75 0 0 2.35619 0 1
1.67609 1.4525 -0.75 0 0 2.35277 0 1
1.15 1.975 -0.75 0 0 3.93042 0 1
1.15 4.08078 -0.75 0 0 2.35765 0 1
0.881563 4.35 -0.75 0 0 2.35474 0 1
0.368438 4.35 -0.75 0 0 2.35474 0 1
0.1 4.08078 -0.75 0 0 2.35765 0 1
0.1 -0.130781 -0.75 0 0 2.35619 0 1
0.369219 -0.4 -2.25 0 0 -2.3562 0 1
1.40688 -0.4 -2.25 0 0 -2.35619 0 1
1.67609 -0.130781 -2.25 0 0 -2.35619 0 1
1.67609 1.4525 -2.25 0 0 -2.35277 0 1
1.15 1.975 -2.25 0 0 -3.93042 0 1
1.15 4.08078 -2.25 0 0 -2.35765 0 1
0.881563 4.35 -2.25 0 0 -2.35474 0 1
0.368438 4.35 -2.25 0 0 -2.35474 0 1
0.1 4.08078 -2.25 0 0 -2.35765 0 1
0.1 -0.130781 -2.25 0 0 -2.35619 0 1
3 0 2 1 
3 0 3 2 
3 4 6 5 
3 4 7 6 
3 8 10 9 
3 8 11 10 
3 12 14 13 
3 12 15 14 
3 16 18 17 
3 16 19 18 
3 20 22 21 
3 20 23 22 
3 24 26 25 
3 24 27 26 
3 28 30 29 
3 28 31 30 
3 32 34 33 
3 32 35 34 
3 36 38 37 
3 36 39 38 
3 40 41 42 
3 40 42 43 
3 40 43 44 
3 40 44 45 
3 40 45 46 
3 40 46 47 
3 40 47 48 
3 40 48 49 
3 50 52 51 
3 50 53 52 
3 50 54 53 
3 50 55 54 
3 50 56 55 
3 50 57 56 
3 50 58 57 
3 50 59 58 
