ply
format ascii 1.0
comment VCGLIB generated
element vertex 128
property float x
property float y
property float z
property float nx
property float ny
property float nz
property float texture_u
property float texture_v
element face 72
property list uchar int vertex_indices
end_header
2.81 0.13 -0.75 -1.5708 0 0 0 1
2.81 0.13 -2.25 -1.5708 0 0 0 1
2.81 2.77 -2.25 -1.5708 0 0 0 1
2.81 2.77 -0.75 -1.5708 0 0 0 1
2.81 2.77 -0.75 0 -1.5708 0 0 1
2.81 2.77 -2.25 0 -1.5708 0 0 1
1.22 2.77 -2.25 0 -1.5708 0 0 1
1.22 2.77 -0.75 0 -1.5708 0 0 1
1.22 2.77 -0.75 1.5708 0 0 0 1
1.22 2.77 -2.25 1.5708 0 0 0 1
1.22 1.97719 -2.25 1.5708 0 0 0 1
1.22 1.97719 -0.75 1.5708 0 0 0 1
1.22 1.97719 -0.75 1.10361 1.11778 0 0 1
1.22 1.97719 -2.25 1.10361 1.11778 0 0 1
1.75 1.45391 -2.25 1.10361 1.11778 0 0 1
1.75 1.45391 -0.75 1.10361 1.11778 0 0 1
1.75 1.45391 -0.75 1.5708 0 0 0 1
1.75 1.45391 -2.25 1.5708 0 0 0 1
1.75 0.13 -2.25 1.5708 0 0 0 1
1.75 0.13 -0.75 1.5708 0 0 0 1
1.75 0.13 -0.75 0 1.5708 0 0 1
1.75 0.13 -2.25 0 1.5708 0 0 1
2.81 0.13 -2.25 0 1.5708 0 0 1
2.81 0.13 -0.75 0 1.5708 0 0 1
2.81 -1.45 -0.75 -1.5708 0 0 0 1
2.81 -1.45 -2.25 -1.5708 0 0 0 1
2.81 -0.4 -2.25 -1.5708 0 0 0 1
2.81 -0.4 -0.75 -1.5708 0 0 0 1
2.81 -0.4 -0.75 0 -1.5708 0 0 1
2.81 -0.4 -2.25 0 -1.5708 0 0 1
0.439531 -0.4 -2.25 0 -1.5708 0 0 1
0.439531 -0.4 -0.75 0 -1.5708 0 0 1
0.439531 -0.4 -0.75 -1.1104 -1.11104 0 0 1
0.439531 -0.4 -2.25 -1.1104 -1.11104 0 0 1
0.17 -0.130625 -2.25 -1.1104 -1.11104 0 0 1
0.17 -0.130625 -0.75 -1.1104 -1.11104 0 0 1
0.17 -0.130625 -0.75 -1.5708 0 0 0 1
0.17 -0.130625 -2.25 -1.5708 0 0 0 1
0.17 3.03063 -2.25 -1.5708 0 0 0 1
0.17 3.03063 -0.75 -1.5708 0 0 0 1
0.17 3.03063 -0.75 -1.11104 1.1104 0 0 1
0.17 3.03063 -2.25 -1.11104 1.1104 0 0 1
0.439219 3.3 -2.25 -1.11104 1.1104 0 0 1
0.439219 3.3 -0.75 -1.11104 1.1104 0 0 1
0.439219 3.3 -0.75 0 1.5708 0 0 1
0.439219 3.3 -2.25 0 1.5708 0 0 1
3.06859 3.3 -2.25 0 1.5708 0 0 1
3.06859 3.3 -0.75 0 1.5708 0 0 1
3.06859 3.3 -0.75 1.11039 1.11105 0 0 1
3.06859 3.3 -2.25 1.11039 1.11105 0 0 1
3.33 3.03875 -2.25 1.11039 1.11105 0 0 1
3.33 3.03875 -0.75 1.11039 1.11105 0 0 1
3.33 3.03875 -0.75 1.5708 0 0 0 1
3.33 3.03875 -2.25 1.5708 0 0 0 1
3.33 -1.71078 -2.25 1.5708 0 0 0 1
3.33 -1.71078 -0.75 1.5708 0 0 0 1
3.33 -1.71078 -0.75 1.11201 -1.10943 0 0 1
3.33 -1.71078 -2.25 1.11201 -1.10943 0 0 1
3.06141 -1.98 -2.25 1.11201 -1.10943 0 0 1
3.06141 -1.98 -0.75 1.11201 -1.10943 0 0 1
3.06141 -1.98 -0.75 0 -1.5708 0 0 1
3.06141 -1.98 -2.25 0 -1.5708 0 0 1
0.17 -1.98 -2.25 0 -1.5708 0 0 1
0.17 -1.98 -0.75 0 -1.5708 0 0 1
0.17 -1.98 -0.75 -1.5708 0 0 0 1
0.17 -1.98 -2.25 -1.5708 0 0 0 1
0.17 -1.45 -2.25 -1.5708 0 0 0 1
0.17 -1.45 -0.75 -1.5708 0 0 0 1
0.17 -1.45 -0.75 0 1.5708 0 0 1
0.17 -1.45 -2.25 0 1.5708 0 0 1
2.81 -1.45 -2.25 0 1.5708 0 0 1
2.81 -1.45 -0.75 0 1.5708 0 0 1
1.22 1.97719 -0.75 0 0 0.596645 0 1
0.439531 -0.4 -0.75 0 0 1.25357 0 1
1.75 0.13 -0.75 0 0 4.43297 0 1
2.81 -0.4 -0.75 0 0 4.55459 0 1
2.81 0.13 -0.75 0 0 4.71239 0 1
3.06141 -1.98 -0.75 0 0 0.159159 0 1
2.81 2.77 -0.75 0 0 4.71239 0 1
3.06859 3.3 -0.75 0 0 1.56943 0 1
1.22 2.77 -0.75 0 0 4.47099 0 1
0.439219 3.3 -0.75 0 0 2.35591 0 1
0.439531 -0.4 -0.75 0 0 1.02709 0 1
0.17 3.03063 -0.75 0 0 2.35648 0 1
0.17 -0.130625 -0.75 0 0 2.35591 0 1
3.06859 3.3 -0.75 0 0 0.787058 0 1
3.06141 -1.98 -0.75 0 0 0.782875 0 1
3.33 -1.71078 -0.75 0 0 2.35736 0 1
3.33 3.03875 -0.75 0 0 2.3559 0 1
3.06141 -1.98 -0.75 0 0 1.413 0 1
2.81 -0.4 -0.75 0 0 0.157795 0 1
2.81 -1.45 -0.75 0 0 4.71239 0 1
0.17 -1.45 -0.75 0 0 1.5708 0 1
0.17 -1.98 -0.75 0 0 1.5708 0 1
1.75 1.45391 -0.75 0 0 2.34982 0 1
1.22 1.97719 -0.75 0 0 0.51236 0 1
1.75 0.13 -0.75 0 0 0.279416 0 1
1.22 2.77 -0.75 0 0 0.241403 0 1
0.439531 -0.4 -0.75 0 0 0.0758245 0 1
1.22 1.97719 -0.75 0 0 2.82436 0 1
1.22 1.97719 -2.25 0 0 -0.596645 0 1
0.439531 -0.4 -2.25 0 0 -1.25357 0 1
1.75 0.13 -2.25 0 0 -4.43297 0 1
2.81 -0.4 -2.25 0 0 -4.55459 0 1
2.81 0.13 -2.25 0 0 -4.71239 0 1
3.06141 -1.98 -2.25 0 0 -0.159159 0 1
2.81 2.77 -2.25 0 0 -4.71239 0 1
3.06859 3.3 -2.25 0 0 -1.56943 0 1
1.22 2.77 -2.25 0 0 -4.47099 0 1
0.439219 3.3 -2.25 0 0 -2.35591 0 1
0.439531 -0.4 -2.25 0 0 -1.02709 0 1
0.17 3.03063 -2.25 0 0 -2.35648 0 1
0.17 -0.130625 -2.25 0 0 -2.35591 0 1
3.06859 3.3 -2.25 0 0 -0.787058 0 1
3.06141 -1.98 -2.25 0 0 -0.782875 0 1
3.33 -1.71078 -2.25 0 0 -2.35736 0 1
3.33 3.03875 -2.25 0 0 -2.3559 0 1
3.06141 -1.98 -2.25 0 0 -1.413 0 1
2.81 -0.4 -2.25 0 0 -0.157795 0 1
2.81 -1.45 -2.25 0 0 -4.71239 0 1
0.17 -1.45 -2.25 0 0 -1.5708 0 1
0.17 -1.98 -2.25 0 0 -1.5708 0 1
1.75 1.45391 -2.25 0 0 -2.34982 0 1
1.22 1.97719 -2.25 0 0 -0.51236 0 1
1.75 0.13 -2.25 0 0 -0.279416 0 1
1.22 2.77 -2.25 0 0 -0.241403 0 1
0.439531 -0.4 -2.25 0 0 -0.0758245 0 1
1.22 1.97719 -2.25 0 0 -2.82436 0 1
3 0 2 1 
3 0 3 2 
3 4 6 5 
3 4 7 6 
3 8 10 9 
3 8 11 10 
3 12 14 13 
3 12 15 14 
3 16 18 17 
3 16 19 18 
3 20 22 21 
3 20 23 22 
3 24 26 25 
3 24 27 26 
3 28 30 29 
3 28 31 30 
3 32 34 33 
3 32 35 34 
3 36 38 37 
3 36 39 38 
3 40 42 41 
3 40 43 42 
3 44 46 45 
3 44 47 46 
3 48 50 49 
3 48 51 50 
3 52 54 53 
3 52 55 54 
3 56 58 57 
3 56 59 58 
3 60 62 61 
3 60 63 62 
3 64 66 65 
3 64 67 66 
3 68 70 69 
3 68 71 70 
3 72 73 74 
3 74 73 75 
3 74 75 76 
3 76 75 77 
3 76 77 78 
3 78 77 79 
3 78 79 80 
3 80 79 81 
3 80 81 82 
3 82 81 83 
3 82 83 84 
3 85 86 87 
3 85 87 88 
3 89 90 91 
3 89 91 92 
3 89 92 93 
3 94 95 96 
3 97 98 99 
3 100 102 101 
3 102 103 101 
3 102 104 103 
3 104 105 103 
3 104 106 105 
3 106 107 105 
3 106 108 107 
3 108 109 107 
3 108 110 109 
3 110 111 109 
3 110 112 111 
3 113 115 114 
3 113 116 115 
3 117 119 118 
3 117 120 119 
3 117 121 120 
3 122 124 123 
3 125 127 126 
