ply
format ascii 1.0
comment VCGLIB generated
element vertex 128
property float x
property float y
property float z
property float nx
property float ny
property float nz
property float texture_u
property float texture_v
element face 72
property list uchar int vertex_indices
end_header
3.4 2.24 -0.75 0 -1.5708 0 0 1
3.4 2.24 -2.25 0 -1.5708 0 0 1
1.81 2.24 -2.25 0 -1.5708 0 0 1
1.81 2.24 -0.75 0 -1.5708 0 0 1
1.81 2.24 -0.75 1.5708 0 0 0 1
1.81 2.24 -2.25 1.5708 0 0 0 1
1.81 -0.13125 -2.25 1.5708 0 0 0 1
1.81 -0.13125 -0.75 1.5708 0 0 0 1
1.81 -0.13125 -0.75 1.10814 -1.11329 0 0 1
1.81 -0.13125 -2.25 1.10814 -1.11329 0 0 1
1.54 -0.4 -2.25 1.10814 -1.11329 0 0 1
1.54 -0.4 -0.75 1.10814 -1.11329 0 0 1
1.54 -0.4 -0.75 0 -1.5708 0 0 1
1.54 -0.4 -2.25 0 -1.5708 0 0 1
0.5 -0.4 -2.25 0 -1.5708 0 0 1
0.5 -0.4 -0.75 0 -1.5708 0 0 1
0.5 -0.4 -0.75 -1.10911 -1.11233 0 0 1
0.5 -0.4 -2.25 -1.10911 -1.11233 0 0 1
0.23 -0.130781 -2.25 -1.10911 -1.11233 0 0 1
0.23 -0.130781 -0.75 -1.10911 -1.11233 0 0 1
0.23 -0.130781 -0.75 -1.5708 0 0 0 1
0.23 -0.130781 -2.25 -1.5708 0 0 0 1
0.23 4.08078 -2.25 -1.5708 0 0 0 1
0.23 4.08078 -0.75 -1.5708 0 0 0 1
0.23 4.08078 -0.75 -1.1104 1.11104 0 0 1
0.23 4.08078 -2.25 -1.1104 1.11104 0 0 1
0.499375 4.35 -2.25 -1.1104 1.11104 0 0 1
0.499375 4.35 -0.75 -1.1104 1.11104 0 0 1
0.499375 4.35 -0.75 0 1.5708 0 0 1
0.499375 4.35 -2.25 0 1.5708 0 0 1
3.13063 4.35 -2.25 0 1.5708 0 0 1
3.13063 4.35 -0.75 0 1.5708 0 0 1
3.13063 4.35 -0.75 1.1104 1.11104 0 0 1
3.13063 4.35 -2.25 1.1104 1.11104 0 0 1
3.4 4.08078 -2.25 1.1104 1.11104 0 0 1
3.4 4.08078 -0.75 1.1104 1.11104 0 0 1
3.4 4.08078 -0.75 1.5708 0 0 0 1
3.4 4.08078 -2.25 1.5708 0 0 0 1
3.4 3.02 -2.25 1.5708 0 0 0 1
3.4 3.02 -0.75 1.5708 0 0 0 1
3.4 3.02 -0.75 1.10483 1.11658 0 0 1
3.4 3.02 -2.25 1.10483 1.11658 0 0 1
3.92 2.50547 -2.25 1.10483 1.11658 0 0 1
3.92 2.50547 -0.75 1.10483 1.11658 0 0 1
3.92 2.50547 -0.75 1.5708 0 0 0 1
3.92 2.50547 -2.25 1.5708 0 0 0 1
3.92 -0.4 -2.25 1.5708 0 0 0 1
3.92 -0.4 -0.75 1.5708 0 0 0 1
3.92 -0.4 -0.75 0 -1.5708 0 0 1
3.92 -0.4 -2.25 0 -1.5708 0 0 1
3.4 -0.4 -2.25 0 -1.5708 0 0 1
3.4 -0.4 -0.75 0 -1.5708 0 0 1
3.4 -0.4 -0.75 -1.5708 0 0 0 1
3.4 -0.4 -2.25 -1.5708 0 0 0 1
3.4 2.24 -2.25 -1.5708 0 0 0 1
3.4 2.24 -0.75 -1.5708 0 0 0 1
2.88 3.82 -0.75 0 -1.5708 0 0 1
2.88 3.82 -2.25 0 -1.5708 0 0 1
1.29 3.82 -2.25 0 -1.5708 0 0 1
1.29 3.82 -0.75 0 -1.5708 0 0 1
1.29 3.82 -0.75 1.5708 0 0 0 1
1.29 3.82 -2.25 1.5708 0 0 0 1
1.29 2.77 -2.25 1.5708 0 0 0 1
1.29 2.77 -0.75 1.5708 0 0 0 1
1.29 2.77 -0.75 0 1.5708 0 0 1
1.29 2.77 -2.25 0 1.5708 0 0 1
2.88 2.77 -2.25 0 1.5708 0 0 1
2.88 2.77 -0.75 0 1.5708 0 0 1
2.88 2.77 -0.75 -1.5708 0 0 0 1
2.88 2.77 -2.25 -1.5708 0 0 0 1
2.88 3.82 -2.25 -1.5708 0 0 0 1
2.88 3.82 -0.75 -1.5708 0 0 0 1
0.5 -0.4 -0.75 0 0 1.32656 0 1
1.54 -0.4 -0.75 0 0 1.67272 0 1
1.29 2.77 -0.75 0 0 1.81503 0 1
1.81 2.24 -0.75 0 0 4.61047 0 1
2.88 2.77 -0.75 0 0 4.71239 0 1
3.4 2.24 -0.75 0 0 1.44382 0 1
2.88 3.82 -0.75 0 0 4.71239 0 1
3.13063 4.35 -0.75 0 0 1.69778 0 1
1.29 3.82 -0.75 0 0 4.52733 0 1
0.499375 4.35 -0.75 0 0 2.35648 0 1
0.5 -0.4 -0.75 0 0 0.971907 0 1
0.23 4.08078 -0.75 0 0 2.3559 0 1
0.23 -0.130781 -0.75 0 0 2.35475 0 1
3.4 2.24 -0.75 0 0 3.26857 0 1
3.4 -0.4 -0.75 0 0 1.5708 0 1
3.92 -0.4 -0.75 0 0 1.4199 0 1
3.4 3.02 -0.75 0 0 0.150891 0 1
3.4 4.08078 -0.75 0 0 2.3559 0 1
3.13063 4.35 -0.75 0 0 0.658709 0 1
3.4 3.02 -0.75 0 0 0.639794 0 1
3.92 -0.4 -0.75 0 0 0.150891 0 1
3.92 2.50547 -0.75 0 0 2.35091 0 1
1.81 2.24 -0.75 0 0 0.101918 0 1
1.54 -0.4 -0.75 0 0 0.6858 0 1
1.81 -0.13125 -0.75 0 0 2.35387 0 1
1.29 3.82 -0.75 0 0 0.185061 0 1
0.5 -0.4 -0.75 0 0 0.0591733 0 1
1.29 2.77 -0.75 0 0 2.89736 0 1
0.5 -0.4 -2.25 0 0 -1.32656 0 1
1.54 -0.4 -2.25 0 0 -1.67272 0 1
1.29 2.77 -2.25 0 0 -1.81503 0 1
1.81 2.24 -2.25 0 0 -4.61047 0 1
2.88 2.77 -2.25 0 0 -4.71239 0 1
3.4 2.24 -2.25 0 0 -1.44382 0 1
2.88 3.82 -2.25 0 0 -4.71239 0 1
3.13063 4.35 -2.25 0 0 -1.69778 0 1
1.29 3.82 -2.25 0 0 -4.52733 0 1
0.499375 4.35 -2.25 0 0 -2.35648 0 1
0.5 -0.4 -2.25 0 0 -0.971907 0 1
0.23 4.08078 -2.25 0 0 -2.3559 0 1
0.23 -0.130781 -2.25 0 0 -2.35475 0 1
3.4 2.24 -2.25 0 0 -3.26857 0 1
3.4 -0.4 -2.25 0 0 -1.5708 0 1
3.92 -0.4 -2.25 0 0 -1.4199 0 1
3.4 3.02 -2.25 0 0 -0.150891 0 1
3.4 4.08078 -2.25 0 0 -2.3559 0 1
3.13063 4.35 -2.25 0 0 -0.658709 0 1
3.4 3.02 -2.25 0 0 -0.639794 0 1
3.92 -0.4 -2.25 0 0 -0.150891 0 1
3.92 2.50547 -2.25 0 0 -2.35091 0 1
1.81 2.24 -2.25 0 0 -0.101918 0 1
1.54 -0.4 -2.25 0 0 -0.6858 0 1
1.81 -0.13125 -2.25 0 0 -2.35387 0 1
1.29 3.82 -2.25 0 0 -0.185061 0 1
0.5 -0.4 -2.25 0 0 -0.0591733 0 1
1.29 2.77 -2.25 0 0 -2.89736 0 1
3 0 2 1 
3 0 3 2 
3 4 6 5 
3 4 7 6 
3 8 10 9 
3 8 11 10 
3 12 14 13 
3 12 15 14 
3 16 18 17 
3 16 19 18 
3 20 22 21 
3 20 23 22 
3 24 26 25 
3 24 27 26 
3 28 30 29 
3 28 31 30 
3 32 34 33 
3 32 35 34 
3 36 38 37 
3 36 39 38 
3 40 42 41 
3 40 43 42 
3 44 46 45 
3 44 47 46 
3 48 50 49 
3 48 51 50 
3 52 54 53 
3 52 55 54 
3 56 58 57 
3 56 59 58 
3 60 62 61 
3 60 63 62 
3 64 66 65 
3 64 67 66 
3 68 70 69 
3 68 71 70 
3 72 73 74 
3 74 73 75 
3 74 75 76 
3 76 75 77 
3 76 77 78 
3 78 77 79 
3 78 79 80 
3 80 79 81 
3 80 81 82 
3 82 81 83 
3 82 83 84 
3 85 86 87 
3 85 87 88 
3 85 88 89 
3 85 89 90 
3 91 92 93 
3 94 95 96 
3 97 98 99 
3 100 102 101 
3 102 103 101 
3 102 104 103 
3 104 105 103 
3 104 106 105 
3 106 107 105 
3 106 108 107 
3 108 109 107 
3 108 110 109 
3 110 111 109 
3 110 112 111 
3 113 115 114 
3 113 116 115 
3 113 117 116 
3 113 118 117 
3 119 121 120 
3 122 124 123 
3 125 127 126 
