ply
format ascii 1.0
comment VCGLIB generated
element vertex 112
property float x
property float y
property float z
property float nx
property float ny
property float nz
property float texture_u
property float texture_v
element face 60
property list uchar int vertex_indices
end_header
1.37 4.08141 -0.75 1.5708 0 0 0 1
1.37 4.08141 -2.25 1.5708 0 0 0 1
1.37 2.77 -2.25 1.5708 0 0 0 1
1.37 2.77 -0.75 1.5708 0 0 0 1
1.37 2.77 -0.75 0 1.5708 0 0 1
1.37 2.77 -2.25 0 1.5708 0 0 1
3.49 2.77 -2.25 0 1.5708 0 0 1
3.49 2.77 -0.75 0 1.5708 0 0 1
3.49 2.77 -0.75 -1.5708 0 0 0 1
3.49 2.77 -2.25 -1.5708 0 0 0 1
3.49 4.35 -2.25 -1.5708 0 0 0 1
3.49 4.35 -0.75 -1.5708 0 0 0 1
3.49 4.35 -0.75 0 1.5708 0 0 1
3.49 4.35 -2.25 0 1.5708 0 0 1
4.01 4.35 -2.25 0 1.5708 0 0 1
4.01 4.35 -0.75 0 1.5708 0 0 1
4.01 4.35 -0.75 1.5708 0 0 0 1
4.01 4.35 -2.25 1.5708 0 0 0 1
4.01 -0.4 -2.25 1.5708 0 0 0 1
4.01 -0.4 -0.75 1.5708 0 0 0 1
4.01 -0.4 -0.75 0 -1.5708 0 0 1
4.01 -0.4 -2.25 0 -1.5708 0 0 1
3.49 -0.4 -2.25 0 -1.5708 0 0 1
3.49 -0.4 -0.75 0 -1.5708 0 0 1
3.49 -0.4 -0.75 -1.5708 0 0 0 1
3.49 -0.4 -2.25 -1.5708 0 0 0 1
3.49 2.24 -2.25 -1.5708 0 0 0 1
3.49 2.24 -0.75 -1.5708 0 0 0 1
3.49 2.24 -0.75 0 -1.5708 0 0 1
3.49 2.24 -2.25 0 -1.5708 0 0 1
1.89 2.24 -2.25 0 -1.5708 0 0 1
1.89 2.24 -0.75 0 -1.5708 0 0 1
1.89 2.24 -0.75 1.5708 0 0 0 1
1.89 2.24 -2.25 1.5708 0 0 0 1
1.89 -0.139219 -2.25 1.5708 0 0 0 1
1.89 -0.139219 -0.75 1.5708 0 0 0 1
1.89 -0.139219 -0.75 1.10806 -1.11337 0 0 1
1.89 -0.139219 -2.25 1.10806 -1.11337 0 0 1
1.62797 -0.4 -2.25 1.10806 -1.11337 0 0 1
1.62797 -0.4 -0.75 1.10806 -1.11337 0 0 1
1.62797 -0.4 -0.75 0 -1.5708 0 0 1
1.62797 -0.4 -2.25 0 -1.5708 0 0 1
0.58 -0.4 -2.25 0 -1.5708 0 0 1
0.58 -0.4 -0.75 0 -1.5708 0 0 1
0.58 -0.4 -0.75 -1.10911 -1.11233 0 0 1
0.58 -0.4 -2.25 -1.10911 -1.11233 0 0 1
0.31 -0.130781 -2.25 -1.10911 -1.11233 0 0 1
0.31 -0.130781 -0.75 -1.10911 -1.11233 0 0 1
0.31 -0.130781 -0.75 -1.5708 0 0 0 1
0.31 -0.130781 -2.25 -1.5708 0 0 0 1
0.31 4.08078 -2.25 -1.5708 0 0 0 1
0.31 4.08078 -0.75 -1.5708 0 0 0 1
0.31 4.08078 -0.75 -1.11137 1.11007 0 0 1
0.31 4.08078 -2.25 -1.11137 1.11007 0 0 1
0.578906 4.35 -2.25 -1.11137 1.11007 0 0 1
0.578906 4.35 -0.75 -1.11137 1.11007 0 0 1
0.578906 4.35 -0.75 0 1.5708 0 0 1
0.578906 4.35 -2.25 0 1.5708 0 0 1
1.10109 4.35 -2.25 0 1.5708 0 0 1
1.10109 4.35 -0.75 0 1.5708 0 0 1
1.10109 4.35 -0.75 1.11008 1.11137 0 0 1
1.10109 4.35 -2.25 1.11008 1.11137 0 0 1
1.37 4.08141 -2.25 1.11008 1.11137 0 0 1
1.37 4.08141 -0.75 1.11008 1.11137 0 0 1
3.49 -0.4 -0.75 0 0 1.5708 0 1
4.01 -0.4 -0.75 0 0 1.40821 0 1
3.49 2.24 -0.75 0 0 4.71239 0 1
3.49 2.77 -0.75 0 0 1.73339 0 1
1.89 2.24 -0.75 0 0 4.61346 0 1
1.37 2.77 -0.75 0 0 4.54381 0 1
1.62797 -0.4 -0.75 0 0 1.66973 0 1
1.10109 4.35 -0.75 0 0 1.73937 0 1
0.58 -0.4 -0.75 0 0 1.63098 0 1
0.578906 4.35 -0.75 0 0 2.35561 0 1
0.31 4.08078 -0.75 0 0 2.29659 0 1
3.49 4.35 -0.75 0 0 1.5708 0 1
3.49 2.77 -0.75 0 0 2.979 0 1
4.01 -0.4 -0.75 0 0 0.162591 0 1
4.01 4.35 -0.75 0 0 1.5708 0 1
1.37 4.08141 -0.75 0 0 2.35561 0 1
1.10109 4.35 -0.75 0 0 0.6174 0 1
1.37 2.77 -0.75 0 0 0.168578 0 1
0.58 -0.4 -0.75 0 0 0.726662 0 1
0.31 4.08078 -0.75 0 0 0.0601837 0 1
0.31 -0.130781 -0.75 0 0 2.35475 0 1
1.89 2.24 -0.75 0 0 0.0989297 0 1
1.62797 -0.4 -0.75 0 0 0.688859 0 1
1.89 -0.139219 -0.75 0 0 2.3538 0 1
3.49 -0.4 -2.25 0 0 -1.5708 0 1
4.01 -0.4 -2.25 0 0 -1.40821 0 1
3.49 2.24 -2.25 0 0 -4.71239 0 1
3.49 2.77 -2.25 0 0 -1.73339 0 1
1.89 2.24 -2.25 0 0 -4.61346 0 1
1.37 2.77 -2.25 0 0 -4.54381 0 1
1.62797 -0.4 -2.25 0 0 -1.66973 0 1
1.10109 4.35 -2.25 0 0 -1.73937 0 1
0.58 -0.4 -2.25 0 0 -1.63098 0 1
0.578906 4.35 -2.25 0 0 -2.35561 0 1
0.31 4.08078 -2.25 0 0 -2.29659 0 1
3.49 4.35 -2.25 0 0 -1.5708 0 1
3.49 2.77 -2.25 0 0 -2.979 0 1
4.01 -0.4 -2.25 0 0 -0.162591 0 1
4.01 4.35 -2.25 0 0 -1.5708 0 1
1.37 4.08141 -2.25 0 0 -2.35561 0 1
1.10109 4.35 -2.25 0 0 -0.6174 0 1
1.37 2.77 -2.25 0 0 -0.168578 0 1
0.58 -0.4 -2.25 0 0 -0.726662 0 1
0.31 4.08078 -2.25 0 0 -0.0601837 0 1
0.31 -0.130781 -2.25 0 0 -2.35475 0 1
1.89 2.24 -2.25 0 0 -0.0989297 0 1
1.62797 -0.4 -2.25 0 0 -0.688859 0 1
1.89 -0.139219 -2.25 0 0 -2.3538 0 1
3 0 2 1 
3 0 3 2 
3 4 6 5 
3 4 7 6 
3 8 10 9 
3 8 11 10 
3 12 14 13 
3 12 15 14 
3 16 18 17 
3 16 19 18 
3 20 22 21 
3 20 23 22 
3 24 26 25 
3 24 27 26 
3 28 30 29 
3 28 31 30 
3 32 34 33 
3 32 35 34 
3 36 38 37 
3 36 39 38 
3 40 42 41 
3 40 43 42 
3 44 46 45 
3 44 47 46 
3 48 50 49 
3 48 51 50 
3 52 54 53 
3 52 55 54 
3 56 58 57 
3 56 59 58 
3 60 62 61 
3 60 63 62 
3 64 65 66 
3 66 65 67 
3 66 67 68 
3 68 67 69 
3 68 69 70 
3 70 69 71 
3 70 71 72 
3 72 71 73 
3 72 73 74 
3 75 76 77 
3 75 77 78 
3 79 80 81 
3 82 83 84 
3 85 86 87 
3 88 90 89 
3 90 91 89 
3 90 92 91 
3 92 93 91 
3 92 94 93 
3 94 95 93 
3 94 96 95 
3 96 97 95 
3 96 98 97 
3 99 101 100 
3 99 102 101 
3 103 105 104 
3 106 108 107 
3 109 111 110 
