ply
format ascii 1.0
comment VCGLIB generated
element vertex 80
property float x
property float y
property float z
property float nx
property float ny
property float nz
property float texture_u
property float texture_v
element face 44
property list uchar int vertex_indices
end_header
0.4 -0.92 -0.75 0 -1.5708 0 0 1
0.4 -0.92 -2.25 0 -1.5708 0 0 1
2.24828 -0.92 -2.25 0 -1.5708 0 0 1
2.24828 -0.92 -0.75 0 -1.5708 0 0 1
2.24828 -0.92 -0.75 1.10939 -1.11205 0 0 1
2.24828 -0.92 -2.25 1.10939 -1.11205 0 0 1
2.51 -0.658906 -2.25 1.10939 -1.11205 0 0 1
2.51 -0.658906 -0.75 1.10939 -1.11205 0 0 1
2.51 -0.658906 -0.75 1.5708 0 0 0 1
2.51 -0.658906 -2.25 1.5708 0 0 0 1
2.51 4.61094 -2.25 1.5708 0 0 0 1
2.51 4.61094 -0.75 1.5708 0 0 0 1
2.51 4.61094 -0.75 1.12598 1.09525 0 0 1
2.51 4.61094 -2.25 1.12598 1.09525 0 0 1
2.24828 4.88 -2.25 1.12598 1.09525 0 0 1
2.24828 4.88 -0.75 1.12598 1.09525 0 0 1
2.24828 4.88 -0.75 0 1.5708 0 0 1
2.24828 4.88 -2.25 0 1.5708 0 0 1
0.4 4.88 -2.25 0 1.5708 0 0 1
0.4 4.88 -0.75 0 1.5708 0 0 1
0.4 4.88 -0.75 -1.5708 0 0 0 1
0.4 4.88 -2.25 -1.5708 0 0 0 1
0.4 4.35 -2.25 -1.5708 0 0 0 1
0.4 4.35 -0.75 -1.5708 0 0 0 1
0.4 4.35 -0.75 0 -1.5708 0 0 1
0.4 4.35 -2.25 0 -1.5708 0 0 1
1.46 4.35 -2.25 0 -1.5708 0 0 1
1.46 4.35 -0.75 0 -1.5708 0 0 1
1.46 4.35 -0.75 -1.5708 0 0 0 1
1.46 4.35 -2.25 -1.5708 0 0 0 1
1.46 3.02797 -2.25 -1.5708 0 0 0 1
1.46 3.02797 -0.75 -1.5708 0 0 0 1
1.46 3.02797 -0.75 -1.11121 1.11023 0 0 1
1.46 3.02797 -2.25 -1.11121 1.11023 0 0 1
0.93 2.4975 -2.25 -1.11121 1.11023 0 0 1
0.93 2.4975 -0.75 -1.11121 1.11023 0 0 1
0.93 2.4975 -0.75 -1.5708 0 0 0 1
0.93 2.4975 -2.25 -1.5708 0 0 0 1
0.93 -0.4 -2.25 -1.5708 0 0 0 1
0.93 -0.4 -0.75 -1.5708 0 0 0 1
0.93 -0.4 -0.75 0 1.5708 0 0 1
0.93 -0.4 -2.25 0 1.5708 0 0 1
0.4 -0.4 -2.25 0 1.5708 0 0 1
0.4 -0.4 -0.75 0 1.5708 0 0 1
0.4 -0.4 -0.75 -1.5708 0 0 0 1
0.4 -0.4 -2.25 -1.5708 0 0 0 1
0.4 -0.92 -2.25 -1.5708 0 0 0 1
0.4 -0.92 -0.75 -1.5708 0 0 0 1
2.24828 4.88 -0.75 0 0 2.34236 0 1
0.4 4.88 -0.75 0 0 0.463648 0 1
1.46 4.35 -0.75 0 0 4.10026 0 1
2.24828 -0.92 -0.75 0 0 0.935072 0 1
2.51 -0.658906 -0.75 0 0 2.355 0 1
2.51 4.61094 -0.75 0 0 2.37003 0 1
2.24828 -0.92 -0.75 0 0 1.42232 0 1
1.46 4.35 -0.75 0 0 0.148478 0 1
1.46 3.02797 -0.75 0 0 3.92655 0 1
0.93 2.4975 -0.75 0 0 2.35664 0 1
0.93 -0.4 -0.75 0 0 4.71239 0 1
0.4 -0.4 -0.75 0 0 1.5708 0 1
0.4 -0.92 -0.75 0 0 1.5708 0 1
1.46 4.35 -0.75 0 0 0.463648 0 1
0.4 4.88 -0.75 0 0 1.10715 0 1
0.4 4.35 -0.75 0 0 1.5708 0 1
2.24828 4.88 -2.25 0 0 -2.34236 0 1
0.4 4.88 -2.25 0 0 -0.463648 0 1
1.46 4.35 -2.25 0 0 -4.10026 0 1
2.24828 -0.92 -2.25 0 0 -0.935072 0 1
2.51 -0.658906 -2.25 0 0 -2.355 0 1
2.51 4.61094 -2.25 0 0 -2.37003 0 1
2.24828 -0.92 -2.25 0 0 -1.42232 0 1
1.46 4.35 -2.25 0 0 -0.148478 0 1
1.46 3.02797 -2.25 0 0 -3.92655 0 1
0.93 2.4975 -2.25 0 0 -2.35664 0 1
0.93 -0.4 -2.25 0 0 -4.71239 0 1
0.4 -0.4 -2.25 0 0 -1.5708 0 1
0.4 -0.92 -2.25 0 0 -1.5708 0 1
1.46 4.35 -2.25 0 0 -0.463648 0 1
0.4 4.88 -2.25 0 0 -1.10715 0 1
0.4 4.35 -2.25 0 0 -1.5708 0 1
3 0 1 2 
3 0 2 3 
3 4 5 6 
3 4 6 7 
3 8 9 10 
3 8 10 11 
3 12 13 14 
3 12 14 15 
3 16 17 18 
3 16 18 19 
3 20 21 22 
3 20 22 23 
3 24 25 26 
3 24 26 27 
3 28 29 30 
3 28 30 31 
3 32 33 34 
3 32 34 35 
3 36 37 38 
3 36 38 39 
3 40 41 42 
3 40 42 43 
3 44 45 46 
3 44 46 47 
3 48 49 50 
3 48 50 51 
3 48 51 52 
3 48 52 53 
3 54 55 56 
3 54 56 57 
3 54 57 58 
3 54 58 59 
3 54 59 60 
3 61 62 63 
3 64 66 65 
3 64 67 66 
3 64 68 67 
3 64 69 68 
3 70 72 71 
3 70 73 72 
3 70 74 73 
3 70 75 74 
3 70 76 75 
3 77 79 78 
