ply
format ascii 1.0
comment VCGLIB generated
element vertex 48
property float x
property float y
property float z
property float nx
property float ny
property float nz
property float texture_u
property float texture_v
element face 24
property list uchar int vertex_indices
end_header
3.80953 2.24 -0.75 0 -1.5708 0 0 1
3.80953 2.24 -2.25 0 -1.5708 0 0 1
0.641563 2.24 -2.25 0 -1.5708 0 0 1
0.641563 2.24 -0.75 0 -1.5708 0 0 1
0.641563 2.24 -0.75 -1.5708 0 0 0 1
0.641563 2.24 -2.25 -1.5708 0 0 0 1
0.641563 2.77 -2.25 -1.5708 0 0 0 1
0.641563 2.77 -0.75 -1.5708 0 0 0 1
0.641563 2.77 -0.75 0 1.5708 0 0 1
0.641563 2.77 -2.25 0 1.5708 0 0 1
3.80953 2.77 -2.25 0 1.5708 0 0 1
3.80953 2.77 -0.75 0 1.5708 0 0 1
3.80953 2.77 -0.75 1.5708 0 0 0 1
3.80953 2.77 -2.25 1.5708 0 0 0 1
3.80953 2.24 -2.25 1.5708 0 0 0 1
3.80953 2.24 -0.75 1.5708 0 0 0 1
0.641563 1.71 -0.75 0 1.5708 0 0 1
0.641563 1.71 -2.25 0 1.5708 0 0 1
3.80953 1.71 -2.25 0 1.5708 0 0 1
3.80953 1.71 -0.75 0 1.5708 0 0 1
3.80953 1.71 -0.75 1.5708 0 0 0 1
3.80953 1.71 -2.25 1.5708 0 0 0 1
3.80953 1.18 -2.25 1.5708 0 0 0 1
3.80953 1.18 -0.75 1.5708 0 0 0 1
3.80953 1.18 -0.75 0 -1.5708 0 0 1
3.80953 1.18 -2.25 0 -1.5708 0 0 1
0.641563 1.18 -2.25 0 -1.5708 0 0 1
0.641563 1.18 -0.75 0 -1.5708 0 0 1
0.641563 1.18 -0.75 -1.5708 0 0 0 1
0.641563 1.18 -2.25 -1.5708 0 0 0 1
0.641563 1.71 -2.25 -1.5708 0 0 0 1
0.641563 1.71 -0.75 -1.5708 0 0 0 1
0.641563 2.77 -0.75 0 0 1.5708 0 1
0.641563 2.24 -0.75 0 0 1.5708 0 1
3.80953 2.24 -0.75 0 0 1.5708 0 1
3.80953 2.77 -0.75 0 0 1.5708 0 1
0.641563 1.71 -0.75 0 0 1.5708 0 1
0.641563 1.18 -0.75 0 0 1.5708 0 1
3.80953 1.18 -0.75 0 0 1.5708 0 1
3.80953 1.71 -0.75 0 0 1.5708 0 1
0.641563 2.77 -2.25 0 0 -1.5708 0 1
0.641563 2.24 -2.25 0 0 -1.5708 0 1
3.80953 2.24 -2.25 0 0 -1.5708 0 1
3.80953 2.77 -2.25 0 0 -1.5708 0 1
0.641563 1.71 -2.25 0 0 -1.5708 0 1
0.641563 1.18 -2.25 0 0 -1.5708 0 1
3.80953 1.18 -2.25 0 0 -1.5708 0 1
3.80953 1.71 -2.25 0 0 -1.5708 0 1
3 0 2 1 
3 0 3 2 
3 4 6 5 
3 4 7 6 
3 8 10 9 
3 8 11 10 
3 12 14 13 
3 12 15 14 
3 16 18 17 
3 16 19 18 
3 20 22 21 
3 20 23 22 
3 24 26 25 
3 24 27 26 
3 28 30 29 
3 28 31 30 
3 32 33 34 
3 32 34 35 
3 36 37 38 
3 36 38 39 
3 40 42 41 
3 40 43 42 
3 44 46 45 
3 44 47 46 
