ply
format ascii 1.0
comment VCGLIB generated
element vertex 42
property float x
property float y
property float z
property float nx
property float ny
property float nz
property float texture_u
property float texture_v
element face 24
property list uchar int vertex_indices
end_header
0.253438 4.35 -0.75 -1.11036 -1.11109 0 0 1
0.253438 4.35 -2.25 -1.11036 -1.11109 0 0 1
2.63 1.975 -2.25 -1.11036 -1.11109 0 0 1
2.63 1.975 -0.75 -1.11036 -1.11109 0 0 1
2.63 1.975 -0.75 -1.11036 1.11109 0 0 1
2.63 1.975 -2.25 -1.11036 1.11109 0 0 1
0.253438 -0.4 -2.25 -1.11036 1.11109 0 0 1
0.253438 -0.4 -0.75 -1.11036 1.11109 0 0 1
0.253438 -0.4 -0.75 0 -1.5708 0 0 1
0.253438 -0.4 -2.25 0 -1.5708 0 0 1
1.83656 -0.4 -2.25 0 -1.5708 0 0 1
1.83656 -0.4 -0.75 0 -1.5708 0 0 1
1.83656 -0.4 -0.75 1.1108 -1.11064 0 0 1
1.83656 -0.4 -2.25 1.1108 -1.11064 0 0 1
3.95 1.71375 -2.25 1.1108 -1.11064 0 0 1
3.95 1.71375 -0.75 1.1108 -1.11064 0 0 1
3.95 1.71375 -0.75 1.5708 0 0 0 1
3.95 1.71375 -2.25 1.5708 0 0 0 1
3.95 2.23625 -2.25 1.5708 0 0 0 1
3.95 2.23625 -0.75 1.5708 0 0 0 1
3.95 2.23625 -0.75 1.1108 1.11064 0 0 1
3.95 2.23625 -2.25 1.1108 1.11064 0 0 1
1.83656 4.35 -2.25 1.1108 1.11064 0 0 1
1.83656 4.35 -0.75 1.1108 1.11064 0 0 1
1.83656 4.35 -0.75 0 1.5708 0 0 1
1.83656 4.35 -2.25 0 1.5708 0 0 1
0.253438 4.35 -2.25 0 1.5708 0 0 1
0.253438 4.35 -0.75 0 1.5708 0 0 1
2.63 1.975 -0.75 0 0 4.71305 0 1
0.253438 -0.4 -0.75 0 0 0.785069 0 1
1.83656 -0.4 -0.75 0 0 2.35612 0 1
3.95 1.71375 -0.75 0 0 2.35627 0 1
3.95 2.23625 -0.75 0 0 2.35627 0 1
1.83656 4.35 -0.75 0 0 2.35612 0 1
0.253438 4.35 -0.75 0 0 0.785069 0 1
2.63 1.975 -2.25 0 0 -4.71305 0 1
0.253438 -0.4 -2.25 0 0 -0.785069 0 1
1.83656 -0.4 -2.25 0 0 -2.35612 0 1
3.95 1.71375 -2.25 0 0 -2.35627 0 1
3.95 2.23625 -2.25 0 0 -2.35627 0 1
1.83656 4.35 -2.25 0 0 -2.35612 0 1
0.253438 4.35 -2.25 0 0 -0.785069 0 1
3 0 1 2 
3 0 2 3 
3 4 5 6 
3 4 6 7 
3 8 9 10 
3 8 10 11 
3 12 13 14 
3 12 14 15 
3 16 17 18 
3 16 18 19 
3 20 21 22 
3 20 22 23 
3 24 25 26 
3 24 26 27 
3 28 29 30 
3 28 30 31 
3 28 31 32 
3 28 32 33 
3 28 33 34 
3 35 37 36 
3 35 38 37 
3 35 39 38 
3 35 40 39 
3 35 41 40 
