ply
format ascii 1.0
comment VCGLIB generated
element vertex 114
property float x
property float y
property float z
property float nx
property float ny
property float nz
property float texture_u
property float texture_v
element face 60
property list uchar int vertex_indices
end_header
1.58141 2.25 -0.75 0 -1.5708 0 0 1
1.58141 2.25 -2.25 0 -1.5708 0 0 1
0.538594 2.25 -2.25 0 -1.5708 0 0 1
0.538594 2.25 -0.75 0 -1.5708 0 0 1
0.538594 2.25 -0.75 -1.1104 -1.11105 0 0 1
0.538594 2.25 -2.25 -1.1104 -1.11105 0 0 1
0.27 2.51844 -2.25 -1.1104 -1.11105 0 0 1
0.27 2.51844 -0.75 -1.1104 -1.11105 0 0 1
0.27 2.51844 -0.75 -1.5708 0 0 0 1
0.27 2.51844 -2.25 -1.5708 0 0 0 1
0.27 3.03156 -2.25 -1.5708 0 0 0 1
0.27 3.03156 -0.75 -1.5708 0 0 0 1
0.27 3.03156 -0.75 -1.1104 1.11105 0 0 1
0.27 3.03156 -2.25 -1.1104 1.11105 0 0 1
0.538594 3.3 -2.25 -1.1104 1.11105 0 0 1
0.538594 3.3 -0.75 -1.1104 1.11105 0 0 1
0.538594 3.3 -0.75 0 1.5708 0 0 1
0.538594 3.3 -2.25 0 1.5708 0 0 1
1.58141 3.3 -2.25 0 1.5708 0 0 1
1.58141 3.3 -0.75 0 1.5708 0 0 1
1.58141 3.3 -0.75 1.1104 1.11105 0 0 1
1.58141 3.3 -2.25 1.1104 1.11105 0 0 1
1.85 3.03156 -2.25 1.1104 1.11105 0 0 1
1.85 3.03156 -0.75 1.1104 1.11105 0 0 1
1.85 3.03156 -0.75 1.5708 0 0 0 1
1.85 3.03156 -2.25 1.5708 0 0 0 1
1.85 2.51844 -2.25 1.5708 0 0 0 1
1.85 2.51844 -0.75 1.5708 0 0 0 1
1.85 2.51844 -0.75 1.1104 -1.11105 0 0 1
1.85 2.51844 -2.25 1.1104 -1.11105 0 0 1
1.58141 2.25 -2.25 1.1104 -1.11105 0 0 1
1.58141 2.25 -0.75 1.1104 -1.11105 0 0 1
1.33 -0.4 -0.75 0 -1.5708 0 0 1
1.33 -0.4 -2.25 0 -1.5708 0 0 1
0.538906 -0.4 -2.25 0 -1.5708 0 0 1
0.538906 -0.4 -0.75 0 -1.5708 0 0 1
0.538906 -0.4 -0.75 -1.11072 -1.11072 0 0 1
0.538906 -0.4 -2.25 -1.11072 -1.11072 0 0 1
0.27 -0.131094 -2.25 -1.11072 -1.11072 0 0 1
0.27 -0.131094 -0.75 -1.11072 -1.11072 0 0 1
0.27 -0.131094 -0.75 -1.5708 0 0 0 1
0.27 -0.131094 -2.25 -1.5708 0 0 0 1
0.27 0.391094 -2.25 -1.5708 0 0 0 1
0.27 0.391094 -0.75 -1.5708 0 0 0 1
0.27 0.391094 -0.75 -1.11137 1.11008 0 0 1
0.27 0.391094 -2.25 -1.11137 1.11008 0 0 1
0.538594 0.66 -2.25 -1.11137 1.11008 0 0 1
0.538594 0.66 -0.75 -1.11137 1.11008 0 0 1
0.538594 0.66 -0.75 0 1.5708 0 0 1
0.538594 0.66 -2.25 0 1.5708 0 0 1
1.58141 0.66 -2.25 0 1.5708 0 0 1
1.58141 0.66 -0.75 0 1.5708 0 0 1
1.58141 0.66 -0.75 1.11104 1.1104 0 0 1
1.58141 0.66 -2.25 1.11104 1.1104 0 0 1
1.85 0.39125 -2.25 1.11104 1.1104 0 0 1
1.85 0.39125 -0.75 1.11104 1.1104 0 0 1
1.85 0.39125 -0.75 1.5708 0 0 0 1
1.85 0.39125 -2.25 1.5708 0 0 0 1
1.85 -1.45 -2.25 1.5708 0 0 0 1
1.85 -1.45 -0.75 1.5708 0 0 0 1
1.85 -1.45 -0.75 0 -1.5708 0 0 1
1.85 -1.45 -2.25 0 -1.5708 0 0 1
1.33 -1.45 -2.25 0 -1.5708 0 0 1
1.33 -1.45 -0.75 0 -1.5708 0 0 1
1.33 -1.45 -0.75 -1.5708 0 0 0 1
1.33 -1.45 -2.25 -1.5708 0 0 0 1
1.33 -0.4 -2.25 -1.5708 0 0 0 1
1.33 -0.4 -0.75 -1.5708 0 0 0 1
0.27 3.03156 -0.75 0 0 2.02488 0 1
0.538594 2.25 -0.75 0 0 1.90181 0 1
0.538594 3.3 -0.75 0 0 2.35649 0 1
1.58141 2.25 -0.75 0 0 2.35649 0 1
1.58141 3.3 -0.75 0 0 2.35649 0 1
1.85 2.51844 -0.75 0 0 2.3559 0 1
1.85 3.03156 -0.75 0 0 2.3559 0 1
1.33 -1.45 -0.75 0 0 1.5708 0 1
1.85 -1.45 -0.75 0 0 1.44418 0 1
1.33 -0.4 -0.75 0 0 4.71239 0 1
1.58141 0.66 -0.75 0 0 1.69741 0 1
0.538906 -0.4 -0.75 0 0 1.89846 0 1
0.538594 0.66 -0.75 0 0 2.35561 0 1
0.27 0.391094 -0.75 0 0 2.02911 0 1
1.58141 0.66 -0.75 0 0 0.658493 0 1
1.85 -1.45 -0.75 0 0 0.126614 0 1
1.85 0.39125 -0.75 0 0 2.35648 0 1
0.538906 -0.4 -0.75 0 0 0.457734 0 1
0.27 0.391094 -0.75 0 0 0.327664 0 1
0.27 -0.131094 -0.75 0 0 2.35619 0 1
0.538594 2.25 -0.75 0 0 0.454673 0 1
0.27 3.03156 -0.75 0 0 0.331018 0 1
0.27 2.51844 -0.75 0 0 2.3559 0 1
0.27 3.03156 -2.25 0 0 -2.02488 0 1
0.538594 2.25 -2.25 0 0 -1.90181 0 1
0.538594 3.3 -2.25 0 0 -2.35649 0 1
1.58141 2.25 -2.25 0 0 -2.35649 0 1
1.58141 3.3 -2.25 0 0 -2.35649 0 1
1.85 2.51844 -2.25 0 0 -2.3559 0 1
1.85 3.03156 -2.25 0 0 -2.3559 0 1
1.33 -1.45 -2.25 0 0 -1.5708 0 1
1.85 -1.45 -2.25 0 0 -1.44418 0 1
1.33 -0.4 -2.25 0 0 -4.71239 0 1
1.58141 0.66 -2.25 0 0 -1.69741 0 1
0.538906 -0.4 -2.25 0 0 -1.89846 0 1
0.538594 0.66 -2.25 0 0 -2.35561 0 1
0.27 0.391094 -2.25 0 0 -2.02911 0 1
1.58141 0.66 -2.25 0 0 -0.658493 0 1
1.85 -1.45 -2.25 0 0 -0.126614 0 1
1.85 0.39125 -2.25 0 0 -2.35648 0 1
0.538906 -0.4 -2.25 0 0 -0.457734 0 1
0.27 0.391094 -2.25 0 0 -0.327664 0 1
0.27 -0.131094 -2.25 0 0 -2.35619 0 1
0.538594 2.25 -2.25 0 0 -0.454673 0 1
0.27 3.03156 -2.25 0 0 -0.331018 0 1
0.27 2.51844 -2.25 0 0 -2.3559 0 1
3 0 2 1 
3 0 3 2 
3 4 6 5 
3 4 7 6 
3 8 10 9 
3 8 11 10 
3 12 14 13 
3 12 15 14 
3 16 18 17 
3 16 19 18 
3 20 22 21 
3 20 23 22 
3 24 26 25 
3 24 27 26 
3 28 30 29 
3 28 31 30 
3 32 34 33 
3 32 35 34 
3 36 38 37 
3 36 39 38 
3 40 42 41 
3 40 43 42 
3 44 46 45 
3 44 47 46 
3 48 50 49 
3 48 51 50 
3 52 54 53 
3 52 55 54 
3 56 58 57 
3 56 59 58 
3 60 62 61 
3 60 63 62 
3 64 66 65 
3 64 67 66 
3 68 69 70 
3 70 69 71 
3 70 71 72 
3 72 71 73 
3 72 73 74 
3 75 76 77 
3 77 76 78 
3 77 78 79 
3 79 78 80 
3 79 80 81 
3 82 83 84 
3 85 86 87 
3 88 89 90 
3 91 93 92 
3 93 94 92 
3 93 95 94 
3 95 96 94 
3 95 97 96 
3 98 100 99 
3 100 101 99 
3 100 102 101 
3 102 103 101 
3 102 104 103 
3 105 107 106 
3 108 110 109 
3 111 113 112 
