ply
format ascii 1.0
comment VCGLIB generated
element vertex 154
property float x
property float y
property float z
property float nx
property float ny
property float nz
property float texture_u
property float texture_v
element face 88
property list uchar int vertex_indices
end_header
1.29 3.82 -0.75 1.5708 0 0 0 1
1.29 3.82 -2.25 1.5708 0 0 0 1
1.29 3.01391 -2.25 1.5708 0 0 0 1
1.29 3.01391 -0.75 1.5708 0 0 0 1
1.29 3.01391 -0.75 1.10381 1.11758 0 0 1
1.29 3.01391 -2.25 1.10381 1.11758 0 0 1
1.81 2.50031 -2.25 1.10381 1.11758 0 0 1
1.81 2.50031 -0.75 1.10381 1.11758 0 0 1
1.81 2.50031 -0.75 1.5708 0 0 0 1
1.81 2.50031 -2.25 1.5708 0 0 0 1
1.81 -0.139219 -2.25 1.5708 0 0 0 1
1.81 -0.139219 -0.75 1.5708 0 0 0 1
1.81 -0.139219 -0.75 1.10806 -1.11337 0 0 1
1.81 -0.139219 -2.25 1.10806 -1.11337 0 0 1
1.54797 -0.4 -2.25 1.10806 -1.11337 0 0 1
1.54797 -0.4 -0.75 1.10806 -1.11337 0 0 1
1.54797 -0.4 -0.75 0 -1.5708 0 0 1
1.54797 -0.4 -2.25 0 -1.5708 0 0 1
0.5 -0.4 -2.25 0 -1.5708 0 0 1
0.5 -0.4 -0.75 0 -1.5708 0 0 1
0.5 -0.4 -0.75 -1.10911 -1.11233 0 0 1
0.5 -0.4 -2.25 -1.10911 -1.11233 0 0 1
0.23 -0.130781 -2.25 -1.10911 -1.11233 0 0 1
0.23 -0.130781 -0.75 -1.10911 -1.11233 0 0 1
0.23 -0.130781 -0.75 -1.5708 0 0 0 1
0.23 -0.130781 -2.25 -1.5708 0 0 0 1
0.23 4.08078 -2.25 -1.5708 0 0 0 1
0.23 4.08078 -0.75 -1.5708 0 0 0 1
0.23 4.08078 -0.75 -1.10911 1.11233 0 0 1
0.23 4.08078 -2.25 -1.10911 1.11233 0 0 1
0.5 4.35 -2.25 -1.10911 1.11233 0 0 1
0.5 4.35 -0.75 -1.10911 1.11233 0 0 1
0.5 4.35 -0.75 0 1.5708 0 0 1
0.5 4.35 -2.25 0 1.5708 0 0 1
2.87391 4.35 -2.25 0 1.5708 0 0 1
2.87391 4.35 -0.75 0 1.5708 0 0 1
2.87391 4.35 -0.75 1.09664 1.12462 0 0 1
2.87391 4.35 -2.25 1.09664 1.12462 0 0 1
3.14391 4.08672 -2.25 1.09664 1.12462 0 0 1
3.14391 4.08672 -0.75 1.09664 1.12462 0 0 1
3.14391 4.08672 -0.75 -1.10088 1.12048 0 0 1
3.14391 4.08672 -2.25 -1.10088 1.12048 0 0 1
3.41188 4.35 -2.25 -1.10088 1.12048 0 0 1
3.41188 4.35 -0.75 -1.10088 1.12048 0 0 1
3.41188 4.35 -0.75 0 1.5708 0 0 1
3.41188 4.35 -2.25 0 1.5708 0 0 1
5.23203 4.35 -2.25 0 1.5708 0 0 1
5.23203 4.35 -0.75 0 1.5708 0 0 1
5.23203 4.35 -0.75 1.1133 1.10813 0 0 1
5.23203 4.35 -2.25 1.1133 1.10813 0 0 1
5.5 4.08078 -2.25 1.1133 1.10813 0 0 1
5.5 4.08078 -0.75 1.1133 1.10813 0 0 1
5.5 4.08078 -0.75 1.5708 0 0 0 1
5.5 4.08078 -2.25 1.5708 0 0 0 1
5.5 -0.13875 -2.25 1.5708 0 0 0 1
5.5 -0.13875 -0.75 1.5708 0 0 0 1
5.5 -0.13875 -0.75 1.10807 -1.11337 0 0 1
5.5 -0.13875 -2.25 1.10807 -1.11337 0 0 1
5.2375 -0.4 -2.25 1.10807 -1.11337 0 0 1
5.2375 -0.4 -0.75 1.10807 -1.11337 0 0 1
5.2375 -0.4 -0.75 0 -1.5708 0 0 1
5.2375 -0.4 -2.25 0 -1.5708 0 0 1
4.7125 -0.4 -2.25 0 -1.5708 0 0 1
4.7125 -0.4 -0.75 0 -1.5708 0 0 1
4.7125 -0.4 -0.75 -1.10707 -1.11436 0 0 1
4.7125 -0.4 -2.25 -1.10707 -1.11436 0 0 1
4.45 -0.139219 -2.25 -1.10707 -1.11436 0 0 1
4.45 -0.139219 -0.75 -1.10707 -1.11436 0 0 1
4.45 -0.139219 -0.75 -1.5708 0 0 0 1
4.45 -0.139219 -2.25 -1.5708 0 0 0 1
4.45 3.82 -2.25 -1.5708 0 0 0 1
4.45 3.82 -0.75 -1.5708 0 0 0 1
4.45 3.82 -0.75 0 -1.5708 0 0 1
4.45 3.82 -2.25 0 -1.5708 0 0 1
3.4 3.82 -2.25 0 -1.5708 0 0 1
3.4 3.82 -0.75 0 -1.5708 0 0 1
3.4 3.82 -0.75 1.5708 0 0 0 1
3.4 3.82 -2.25 1.5708 0 0 0 1
3.4 -0.4 -2.25 1.5708 0 0 0 1
3.4 -0.4 -0.75 1.5708 0 0 0 1
3.4 -0.4 -0.75 0 -1.5708 0 0 1
3.4 -0.4 -2.25 0 -1.5708 0 0 1
2.88 -0.4 -2.25 0 -1.5708 0 0 1
2.88 -0.4 -0.75 0 -1.5708 0 0 1
2.88 -0.4 -0.75 -1.5708 0 0 0 1
2.88 -0.4 -2.25 -1.5708 0 0 0 1
2.88 3.82 -2.25 -1.5708 0 0 0 1
2.88 3.82 -0.75 -1.5708 0 0 0 1
2.88 3.82 -0.75 0 -1.5708 0 0 1
2.88 3.82 -2.25 0 -1.5708 0 0 1
1.29 3.82 -2.25 0 -1.5708 0 0 1
1.29 3.82 -0.75 0 -1.5708 0 0 1
1.81 -0.139219 -0.75 0 0 2.3538 0 1
1.81 2.50031 -0.75 0 0 2.35 0 1
1.54797 -0.4 -0.75 0 0 1.00494 0 1
1.29 3.01391 -0.75 0 0 3.93319 0 1
0.5 4.35 -0.75 0 0 1.35365 0 1
1.29 3.82 -0.75 0 0 4.71239 0 1
2.87391 4.35 -0.75 0 0 2.36879 0 1
2.88 3.82 -0.75 0 0 4.58978 0 1
3.14391 4.08672 -0.75 0 0 3.10868 0 1
3.4 -0.4 -0.75 0 0 0.122604 0 1
3.4 3.82 -0.75 0 0 2.37651 0 1
0.5 -0.4 -0.75 0 0 2.35764 0 1
1.54797 -0.4 -0.75 0 0 1.35365 0 1
0.5 4.35 -0.75 0 0 1.00399 0 1
0.23 4.08078 -0.75 0 0 2.35475 0 1
0.23 -0.130781 -0.75 0 0 2.35475 0 1
5.5 -0.13875 -0.75 0 0 2.35381 0 1
5.5 4.08078 -0.75 0 0 2.35852 0 1
5.2375 -0.4 -0.75 0 0 2.35858 0 1
5.23203 4.35 -0.75 0 0 1.75825 0 1
4.7125 -0.4 -0.75 0 0 2.35948 0 1
4.45 3.82 -0.75 0 0 2.16641 0 1
4.45 -0.139219 -0.75 0 0 2.35291 0 1
3.41188 4.35 -0.75 0 0 2.36502 0 1
3.14391 4.08672 -0.75 0 0 1.58229 0 1
3.4 3.82 -0.75 0 0 2.33587 0 1
4.45 3.82 -0.75 0 0 2.54598 0 1
5.23203 4.35 -0.75 0 0 0.595618 0 1
3.4 -0.4 -0.75 0 0 1.44819 0 1
2.88 3.82 -0.75 0 0 0.122604 0 1
2.88 -0.4 -0.75 0 0 1.5708 0 1
1.81 -0.139219 -2.25 0 0 -2.3538 0 1
1.81 2.50031 -2.25 0 0 -2.35 0 1
1.54797 -0.4 -2.25 0 0 -1.00494 0 1
1.29 3.01391 -2.25 0 0 -3.93319 0 1
0.5 4.35 -2.25 0 0 -1.35365 0 1
1.29 3.82 -2.25 0 0 -4.71239 0 1
2.87391 4.35 -2.25 0 0 -2.36879 0 1
2.88 3.82 -2.25 0 0 -4.58978 0 1
3.14391 4.08672 -2.25 0 0 -3.10868 0 1
3.4 -0.4 -2.25 0 0 -0.122604 0 1
3.4 3.82 -2.25 0 0 -2.37651 0 1
0.5 -0.4 -2.25 0 0 -2.35764 0 1
1.54797 -0.4 -2.25 0 0 -1.35365 0 1
0.5 4.35 -2.25 0 0 -1.00399 0 1
0.23 4.08078 -2.25 0 0 -2.35475 0 1
0.23 -0.130781 -2.25 0 0 -2.35475 0 1
5.5 -0.13875 -2.25 0 0 -2.35381 0 1
5.5 4.08078 -2.25 0 0 -2.35852 0 1
5.2375 -0.4 -2.25 0 0 -2.35858 0 1
5.23203 4.35 -2.25 0 0 -1.75825 0 1
4.7125 -0.4 -2.25 0 0 -2.35948 0 1
4.45 3.82 -2.25 0 0 -2.16641 0 1
4.45 -0.139219 -2.25 0 0 -2.35291 0 1
3.41188 4.35 -2.25 0 0 -2.36502 0 1
3.14391 4.08672 -2.25 0 0 -1.58229 0 1
3.4 3.82 -2.25 0 0 -2.33587 0 1
4.45 3.82 -2.25 0 0 -2.54598 0 1
5.23203 4.35 -2.25 0 0 -0.595618 0 1
3.4 -0.4 -2.25 0 0 -1.44819 0 1
2.88 3.82 -2.25 0 0 -0.122604 0 1
2.88 -0.4 -2.25 0 0 -1.5708 0 1
3 0 2 1 
3 0 3 2 
3 4 6 5 
3 4 7 6 
3 8 10 9 
3 8 11 10 
3 12 14 13 
3 12 15 14 
3 16 18 17 
3 16 19 18 
3 20 22 21 
3 20 23 22 
3 24 26 25 
3 24 27 26 
3 28 30 29 
3 28 31 30 
3 32 34 33 
3 32 35 34 
3 36 38 37 
3 36 39 38 
3 40 42 41 
3 40 43 42 
3 44 46 45 
3 44 47 46 
3 48 50 49 
3 48 51 50 
3 52 54 53 
3 52 55 54 
3 56 58 57 
3 56 59 58 
3 60 62 61 
3 60 63 62 
3 64 66 65 
3 64 67 66 
3 68 70 69 
3 68 71 70 
3 72 74 73 
3 72 75 74 
3 76 78 77 
3 76 79 78 
3 80 82 81 
3 80 83 82 
3 84 86 85 
3 84 87 86 
3 88 90 89 
3 88 91 90 
3 92 93 94 
3 94 93 95 
3 94 95 96 
3 96 95 97 
3 96 97 98 
3 98 97 99 
3 98 99 100 
3 100 99 101 
3 100 101 102 
3 103 104 105 
3 103 105 106 
3 103 106 107 
3 108 109 110 
3 110 109 111 
3 110 111 112 
3 112 111 113 
3 112 113 114 
3 115 116 117 
3 115 117 118 
3 115 118 119 
3 120 121 122 
3 123 125 124 
3 125 126 124 
3 125 127 126 
3 127 128 126 
3 127 129 128 
3 129 130 128 
3 129 131 130 
3 131 132 130 
3 131 133 132 
3 134 136 135 
3 134 137 136 
3 134 138 137 
3 139 141 140 
3 141 142 140 
3 141 143 142 
3 143 144 142 
3 143 145 144 
3 146 148 147 
3 146 149 148 
3 146 150 149 
3 151 153 152 
