ply
format ascii 1.0
comment VCGLIB generated
element vertex 90
property float x
property float y
property float z
property float nx
property float ny
property float nz
property float texture_u
property float texture_v
element face 48
property list uchar int vertex_indices
end_header
1.77406 -0.13125 -0.75 1.10878 -1.11265 0 0 1
1.77406 -0.13125 -2.25 1.10878 -1.11265 0 0 1
1.50437 -0.4 -2.25 1.10878 -1.11265 0 0 1
1.50437 -0.4 -0.75 1.10878 -1.11265 0 0 1
1.50437 -0.4 -0.75 0 -1.5708 0 0 1
1.50437 -0.4 -2.25 0 -1.5708 0 0 1
0.449687 -0.4 -2.25 0 -1.5708 0 0 1
0.449687 -0.4 -0.75 0 -1.5708 0 0 1
0.449687 -0.4 -0.75 -1.10976 -1.11168 0 0 1
0.449687 -0.4 -2.25 -1.10976 -1.11168 0 0 1
0.18 -0.130781 -2.25 -1.10976 -1.11168 0 0 1
0.18 -0.130781 -0.75 -1.10976 -1.11168 0 0 1
0.18 -0.130781 -0.75 -1.5708 0 0 0 1
0.18 -0.130781 -2.25 -1.5708 0 0 0 1
0.18 4.08078 -2.25 -1.5708 0 0 0 1
0.18 4.08078 -0.75 -1.5708 0 0 0 1
0.18 4.08078 -0.75 -1.11008 1.11136 0 0 1
0.18 4.08078 -2.25 -1.11008 1.11136 0 0 1
0.449531 4.35 -2.25 -1.11008 1.11136 0 0 1
0.449531 4.35 -0.75 -1.11008 1.11136 0 0 1
0.449531 4.35 -0.75 0 1.5708 0 0 1
0.449531 4.35 -2.25 0 1.5708 0 0 1
3.35016 4.35 -2.25 0 1.5708 0 0 1
3.35016 4.35 -0.75 0 1.5708 0 0 1
3.35016 4.35 -0.75 1.5708 0 0 0 1
3.35016 4.35 -2.25 1.5708 0 0 0 1
3.35016 3.82 -2.25 1.5708 0 0 0 1
3.35016 3.82 -0.75 1.5708 0 0 0 1
3.35016 3.82 -0.75 0 -1.5708 0 0 1
3.35016 3.82 -2.25 0 -1.5708 0 0 1
1.25 3.82 -2.25 0 -1.5708 0 0 1
1.25 3.82 -0.75 0 -1.5708 0 0 1
1.25 3.82 -0.75 1.5708 0 0 0 1
1.25 3.82 -2.25 1.5708 0 0 0 1
1.25 2.77 -2.25 1.5708 0 0 0 1
1.25 2.77 -0.75 1.5708 0 0 0 1
1.25 2.77 -0.75 0 1.5708 0 0 1
1.25 2.77 -2.25 0 1.5708 0 0 1
3.35016 2.77 -2.25 0 1.5708 0 0 1
3.35016 2.77 -0.75 0 1.5708 0 0 1
3.35016 2.77 -0.75 1.5708 0 0 0 1
3.35016 2.77 -2.25 1.5708 0 0 0 1
3.35016 2.24 -2.25 1.5708 0 0 0 1
3.35016 2.24 -0.75 1.5708 0 0 0 1
3.35016 2.24 -0.75 0 -1.5708 0 0 1
3.35016 2.24 -2.25 0 -1.5708 0 0 1
1.77406 2.24 -2.25 0 -1.5708 0 0 1
1.77406 2.24 -0.75 0 -1.5708 0 0 1
1.77406 2.24 -0.75 1.5708 0 0 0 1
1.77406 2.24 -2.25 1.5708 0 0 0 1
1.77406 -0.13125 -2.25 1.5708 0 0 0 1
1.77406 -0.13125 -0.75 1.5708 0 0 0 1
3.35016 3.82 -0.75 0 0 1.5708 0 1
3.35016 4.35 -0.75 0 0 1.5708 0 1
1.25 3.82 -0.75 0 0 4.52497 0 1
0.449531 4.35 -0.75 0 0 2.35677 0 1
0.449687 -0.4 -0.75 0 0 0.973689 0 1
0.18 4.08078 -0.75 0 0 2.35562 0 1
0.18 -0.130781 -0.75 0 0 2.35533 0 1
1.25 2.77 -0.75 0 0 4.71239 0 1
1.25 3.82 -0.75 0 0 0.187422 0 1
0.449687 -0.4 -0.75 0 0 1.38337 0 1
1.50437 -0.4 -0.75 0 0 1.6726 0 1
1.77406 2.24 -0.75 0 0 4.28619 0 1
3.35016 2.77 -0.75 0 0 0.324395 0 1
1.77406 2.24 -0.75 0 0 0.101801 0 1
1.50437 -0.4 -0.75 0 0 0.685339 0 1
1.77406 -0.13125 -0.75 0 0 2.35445 0 1
3.35016 2.77 -0.75 0 0 1.2464 0 1
1.77406 2.24 -0.75 0 0 0.324395 0 1
3.35016 2.24 -0.75 0 0 1.5708 0 1
3.35016 3.82 -2.25 0 0 -1.5708 0 1
3.35016 4.35 -2.25 0 0 -1.5708 0 1
1.25 3.82 -2.25 0 0 -4.52497 0 1
0.449531 4.35 -2.25 0 0 -2.35677 0 1
0.449687 -0.4 -2.25 0 0 -0.973689 0 1
0.18 4.08078 -2.25 0 0 -2.35562 0 1
0.18 -0.130781 -2.25 0 0 -2.35533 0 1
1.25 2.77 -2.25 0 0 -4.71239 0 1
1.25 3.82 -2.25 0 0 -0.187422 0 1
0.449687 -0.4 -2.25 0 0 -1.38337 0 1
1.50437 -0.4 -2.25 0 0 -1.6726 0 1
1.77406 2.24 -2.25 0 0 -4.28619 0 1
3.35016 2.77 -2.25 0 0 -0.324395 0 1
1.77406 2.24 -2.25 0 0 -0.101801 0 1
1.50437 -0.4 -2.25 0 0 -0.685339 0 1
1.77406 -0.13125 -2.25 0 0 -2.35445 0 1
3.35016 2.77 -2.25 0 0 -1.2464 0 1
1.77406 2.24 -2.25 0 0 -0.324395 0 1
3.35016 2.24 -2.25 0 0 -1.5708 0 1
3 0 2 1 
3 0 3 2 
3 4 6 5 
3 4 7 6 
3 8 10 9 
3 8 11 10 
3 12 14 13 
3 12 15 14 
3 16 18 17 
3 16 19 18 
3 20 22 21 
3 20 23 22 
3 24 26 25 
3 24 27 26 
3 28 30 29 
3 28 31 30 
3 32 34 33 
3 32 35 34 
3 36 38 37 
3 36 39 38 
3 40 42 41 
3 40 43 42 
3 44 46 45 
3 44 47 46 
3 48 50 49 
3 48 51 50 
3 52 53 54 
3 54 53 55 
3 54 55 56 
3 56 55 57 
3 56 57 58 
3 59 60 61 
3 59 61 62 
3 59 62 63 
3 59 63 64 
3 65 66 67 
3 68 69 70 
3 71 73 72 
3 73 74 72 
3 73 75 74 
3 75 76 74 
3 75 77 76 
3 78 80 79 
3 78 81 80 
3 78 82 81 
3 78 83 82 
3 84 86 85 
3 87 89 88 
