ply
format ascii 1.0
comment VCGLIB generated
element vertex 162
property float x
property float y
property float z
property float nx
property float ny
property float nz
property float texture_u
property float texture_v
element face 92
property list uchar int vertex_indices
end_header
3.71047 -0.4 -0.75 0 -1.5708 0 0 1
3.71047 -0.4 -2.25 0 -1.5708 0 0 1
0.5475 -0.4 -2.25 0 -1.5708 0 0 1
0.5475 -0.4 -0.75 0 -1.5708 0 0 1
0.5475 -0.4 -0.75 -1.10978 -1.11166 0 0 1
0.5475 -0.4 -2.25 -1.10978 -1.11166 0 0 1
0.27 -0.122969 -2.25 -1.10978 -1.11166 0 0 1
0.27 -0.122969 -0.75 -1.10978 -1.11166 0 0 1
0.27 -0.122969 -0.75 -1.5708 0 0 0 1
0.27 -0.122969 -2.25 -1.5708 0 0 0 1
0.27 2.4975 -2.25 -1.5708 0 0 0 1
0.27 2.4975 -0.75 -1.5708 0 0 0 1
0.27 2.4975 -0.75 -1.11121 1.11023 0 0 1
0.27 2.4975 -2.25 -1.11121 1.11023 0 0 1
0.8 3.02797 -2.25 -1.11121 1.11023 0 0 1
0.8 3.02797 -0.75 -1.11121 1.11023 0 0 1
0.8 3.02797 -0.75 -1.5708 0 0 0 1
0.8 3.02797 -2.25 -1.5708 0 0 0 1
0.8 4.08078 -2.25 -1.5708 0 0 0 1
0.8 4.08078 -0.75 -1.5708 0 0 0 1
0.8 4.08078 -0.75 -1.1104 1.11104 0 0 1
0.8 4.08078 -2.25 -1.1104 1.11104 0 0 1
1.06938 4.35 -2.25 -1.1104 1.11104 0 0 1
1.06938 4.35 -0.75 -1.1104 1.11104 0 0 1
1.06938 4.35 -0.75 0 1.5708 0 0 1
1.06938 4.35 -2.25 0 1.5708 0 0 1
2.92328 4.35 -2.25 0 1.5708 0 0 1
2.92328 4.35 -0.75 0 1.5708 0 0 1
2.92328 4.35 -0.75 1.5708 0 0 0 1
2.92328 4.35 -2.25 1.5708 0 0 0 1
2.92328 3.82 -2.25 1.5708 0 0 0 1
2.92328 3.82 -0.75 1.5708 0 0 0 1
2.92328 3.82 -0.75 0 -1.5708 0 0 1
2.92328 3.82 -2.25 0 -1.5708 0 0 1
1.85 3.82 -2.25 0 -1.5708 0 0 1
1.85 3.82 -0.75 0 -1.5708 0 0 1
1.85 3.82 -0.75 1.5708 0 0 0 1
1.85 3.82 -2.25 1.5708 0 0 0 1
1.85 2.77 -2.25 1.5708 0 0 0 1
1.85 2.77 -0.75 1.5708 0 0 0 1
1.85 2.77 -0.75 0 1.5708 0 0 1
1.85 2.77 -2.25 0 1.5708 0 0 1
3.46 2.77 -2.25 0 1.5708 0 0 1
3.46 2.77 -0.75 0 1.5708 0 0 1
3.46 2.77 -0.75 -1.5708 0 0 0 1
3.46 2.77 -2.25 -1.5708 0 0 0 1
3.46 3.56406 -2.25 -1.5708 0 0 0 1
3.46 3.56406 -0.75 -1.5708 0 0 0 1
3.46 3.56406 -0.75 0 1.5708 0 0 1
3.46 3.56406 -2.25 0 1.5708 0 0 1
3.98 3.56406 -2.25 0 1.5708 0 0 1
3.98 3.56406 -0.75 0 1.5708 0 0 1
3.98 3.56406 -0.75 1.5708 0 0 0 1
3.98 3.56406 -2.25 1.5708 0 0 0 1
3.98 2.77 -2.25 1.5708 0 0 0 1
3.98 2.77 -0.75 1.5708 0 0 0 1
3.98 2.77 -0.75 0 1.5708 0 0 1
3.98 2.77 -2.25 0 1.5708 0 0 1
4.76859 2.77 -2.25 0 1.5708 0 0 1
4.76859 2.77 -0.75 0 1.5708 0 0 1
4.76859 2.77 -0.75 1.5708 0 0 0 1
4.76859 2.77 -2.25 1.5708 0 0 0 1
4.76859 2.24 -2.25 1.5708 0 0 0 1
4.76859 2.24 -0.75 1.5708 0 0 0 1
4.76859 2.24 -0.75 0 -1.5708 0 0 1
4.76859 2.24 -2.25 0 -1.5708 0 0 1
3.98 2.24 -2.25 0 -1.5708 0 0 1
3.98 2.24 -0.75 0 -1.5708 0 0 1
3.98 2.24 -0.75 1.5708 0 0 0 1
3.98 2.24 -2.25 1.5708 0 0 0 1
3.98 -0.13125 -2.25 1.5708 0 0 0 1
3.98 -0.13125 -0.75 1.5708 0 0 0 1
3.98 -0.13125 -0.75 1.10911 -1.11233 0 0 1
3.98 -0.13125 -2.25 1.10911 -1.11233 0 0 1
3.71047 -0.4 -2.25 1.10911 -1.11233 0 0 1
3.71047 -0.4 -0.75 1.10911 -1.11233 0 0 1
3.46 2.24 -0.75 0 -1.5708 0 0 1
3.46 2.24 -2.25 0 -1.5708 0 0 1
1.85 2.24 -2.25 0 -1.5708 0 0 1
1.85 2.24 -0.75 0 -1.5708 0 0 1
1.85 2.24 -0.75 1.5708 0 0 0 1
1.85 2.24 -2.25 1.5708 0 0 0 1
1.85 0.13 -2.25 1.5708 0 0 0 1
1.85 0.13 -0.75 1.5708 0 0 0 1
1.85 0.13 -0.75 0 1.5708 0 0 1
1.85 0.13 -2.25 0 1.5708 0 0 1
3.46 0.13 -2.25 0 1.5708 0 0 1
3.46 0.13 -0.75 0 1.5708 0 0 1
3.46 0.13 -0.75 -1.5708 0 0 0 1
3.46 0.13 -2.25 -1.5708 0 0 0 1
3.46 2.24 -2.25 -1.5708 0 0 0 1
3.46 2.24 -0.75 -1.5708 0 0 0 1
1.85 3.82 -0.75 0 0 4.71239 0 1
2.92328 3.82 -0.75 0 0 1.5708 0 1
2.92328 4.35 -0.75 0 0 1.5708 0 1
1.06938 4.35 -0.75 0 0 1.38788 0 1
1.85 0.13 -0.75 0 0 0.182914 0 1
1.85 2.24 -0.75 0 0 0 0 1
1.85 2.77 -0.75 0 0 0 0 1
3.98 3.56406 -0.75 0 0 1.50291 0 1
3.46 3.56406 -0.75 0 0 1.5708 0 1
3.71047 -0.4 -0.75 0 0 0.162473 0 1
3.46 2.77 -0.75 0 0 4.71239 0 1
3.46 2.24 -0.75 0 0 4.6178 0 1
1.85 2.77 -0.75 0 0 1.5708 0 1
1.85 2.24 -0.75 0 0 1.5708 0 1
3.71047 -0.4 -0.75 0 0 0.71896 0 1
3.98 -0.13125 -0.75 0 0 2.35474 0 1
3.98 3.56406 -0.75 0 0 0.0678894 0 1
3.98 2.24 -0.75 0 0 1.5708 0 1
3.98 2.77 -0.75 0 0 1.5708 0 1
4.76859 2.24 -0.75 0 0 1.5708 0 1
4.76859 2.77 -0.75 0 0 1.5708 0 1
3.46 2.24 -0.75 0 0 0.0945911 0 1
3.46 0.13 -0.75 0 0 4.71239 0 1
3.71047 -0.4 -0.75 0 0 1.4762 0 1
1.85 0.13 -0.75 0 0 4.36478 0 1
0.5475 -0.4 -0.75 0 0 1.66628 0 1
0.8 3.02797 -0.75 0 0 1.13257 0 1
0.27 2.4975 -0.75 0 0 2.26116 0 1
0.8 4.08078 -0.75 0 0 2.3559 0 1
0.8 3.02797 -0.75 0 0 2.79398 0 1
1.85 0.13 -0.75 0 0 0.164694 0 1
1.06938 4.35 -0.75 0 0 0.968603 0 1
0.5475 -0.4 -0.75 0 0 0.690763 0 1
0.27 2.4975 -0.75 0 0 0.0954818 0 1
0.27 -0.122969 -0.75 0 0 2.35535 0 1
1.85 3.82 -2.25 0 0 -4.71239 0 1
2.92328 3.82 -2.25 0 0 -1.5708 0 1
2.92328 4.35 -2.25 0 0 -1.5708 0 1
1.06938 4.35 -2.25 0 0 -1.38788 0 1
1.85 0.13 -2.25 0 0 -0.182914 0 1
1.85 2.24 -2.25 0 0 0 0 1
1.85 2.77 -2.25 0 0 0 0 1
3.98 3.56406 -2.25 0 0 -1.50291 0 1
3.46 3.56406 -2.25 0 0 -1.5708 0 1
3.71047 -0.4 -2.25 0 0 -0.162473 0 1
3.46 2.77 -2.25 0 0 -4.71239 0 1
3.46 2.24 -2.25 0 0 -4.6178 0 1
1.85 2.77 -2.25 0 0 -1.5708 0 1
1.85 2.24 -2.25 0 0 -1.5708 0 1
3.71047 -0.4 -2.25 0 0 -0.71896 0 1
3.98 -0.13125 -2.25 0 0 -2.35474 0 1
3.98 3.56406 -2.25 0 0 -0.0678894 0 1
3.98 2.24 -2.25 0 0 -1.5708 0 1
3.98 2.77 -2.25 0 0 -1.5708 0 1
4.76859 2.24 -2.25 0 0 -1.5708 0 1
4.76859 2.77 -2.25 0 0 -1.5708 0 1
3.46 2.24 -2.25 0 0 -0.0945911 0 1
3.46 0.13 -2.25 0 0 -4.71239 0 1
3.71047 -0.4 -2.25 0 0 -1.4762 0 1
1.85 0.13 -2.25 0 0 -4.36478 0 1
0.5475 -0.4 -2.25 0 0 -1.66628 0 1
0.8 3.02797 -2.25 0 0 -1.13257 0 1
0.27 2.4975 -2.25 0 0 -2.26116 0 1
0.8 4.08078 -2.25 0 0 -2.3559 0 1
0.8 3.02797 -2.25 0 0 -2.79398 0 1
1.85 0.13 -2.25 0 0 -0.164694 0 1
1.06938 4.35 -2.25 0 0 -0.968603 0 1
0.5475 -0.4 -2.25 0 0 -0.690763 0 1
0.27 2.4975 -2.25 0 0 -0.0954818 0 1
0.27 -0.122969 -2.25 0 0 -2.35535 0 1
3 0 2 1 
3 0 3 2 
3 4 6 5 
3 4 7 6 
3 8 10 9 
3 8 11 10 
3 12 14 13 
3 12 15 14 
3 16 18 17 
3 16 19 18 
3 20 22 21 
3 20 23 22 
3 24 26 25 
3 24 27 26 
3 28 30 29 
3 28 31 30 
3 32 34 33 
3 32 35 34 
3 36 38 37 
3 36 39 38 
3 40 42 41 
3 40 43 42 
3 44 46 45 
3 44 47 46 
3 48 50 49 
3 48 51 50 
3 52 54 53 
3 52 55 54 
3 56 58 57 
3 56 59 58 
3 60 62 61 
3 60 63 62 
3 64 66 65 
3 64 67 66 
3 68 70 69 
3 68 71 70 
3 72 74 73 
3 72 75 74 
3 76 78 77 
3 76 79 78 
3 80 82 81 
3 80 83 82 
3 84 86 85 
3 84 87 86 
3 88 90 89 
3 88 91 90 
3 92 93 94 
3 92 94 95 
3 92 95 96 
3 92 96 97 
3 92 97 98 
3 99 100 101 
3 101 100 102 
3 101 102 103 
3 103 102 104 
3 103 104 105 
3 106 107 108 
3 108 107 109 
3 108 109 110 
3 110 109 111 
3 110 111 112 
3 113 114 115 
3 115 114 116 
3 115 116 117 
3 117 116 118 
3 117 118 119 
3 120 121 122 
3 120 122 123 
3 124 125 126 
3 127 129 128 
3 127 130 129 
3 127 131 130 
3 127 132 131 
3 127 133 132 
3 134 136 135 
3 136 137 135 
3 136 138 137 
3 138 139 137 
3 138 140 139 
3 141 143 142 
3 143 144 142 
3 143 145 144 
3 145 146 144 
3 145 147 146 
3 148 150 149 
3 150 151 149 
3 150 152 151 
3 152 153 151 
3 152 154 153 
3 155 157 156 
3 155 158 157 
3 159 161 160 
