ply
format ascii 1.0
comment VCGLIB generated
element vertex 152
property float x
property float y
property float z
property float nx
property float ny
property float nz
property float texture_u
property float texture_v
element face 84
property list uchar int vertex_indices
end_header
0.67 0.13 -0.75 0 1.5708 0 0 1
0.67 0.13 -2.25 0 1.5708 0 0 1
2.26 0.13 -2.25 0 1.5708 0 0 1
2.26 0.13 -0.75 0 1.5708 0 0 1
2.26 0.13 -0.75 -1.5708 0 0 0 1
2.26 0.13 -2.25 -1.5708 0 0 0 1
2.26 2.24 -2.25 -1.5708 0 0 0 1
2.26 2.24 -0.75 -1.5708 0 0 0 1
2.26 2.24 -0.75 0 -1.5708 0 0 1
2.26 2.24 -2.25 0 -1.5708 0 0 1
0.41875 2.24 -2.25 0 -1.5708 0 0 1
0.41875 2.24 -0.75 0 -1.5708 0 0 1
0.41875 2.24 -0.75 -1.11265 -1.10879 0 0 1
0.41875 2.24 -2.25 -1.11265 -1.10879 0 0 1
0.15 2.50969 -2.25 -1.11265 -1.10879 0 0 1
0.15 2.50969 -0.75 -1.11265 -1.10879 0 0 1
0.15 2.50969 -0.75 -1.5708 0 0 0 1
0.15 2.50969 -2.25 -1.5708 0 0 0 1
0.15 4.08031 -2.25 -1.5708 0 0 0 1
0.15 4.08031 -0.75 -1.5708 0 0 0 1
0.15 4.08031 -0.75 -1.11168 1.10976 0 0 1
0.15 4.08031 -2.25 -1.11168 1.10976 0 0 1
0.419219 4.35 -2.25 -1.11168 1.10976 0 0 1
0.419219 4.35 -0.75 -1.11168 1.10976 0 0 1
0.419219 4.35 -0.75 0 1.5708 0 0 1
0.419219 4.35 -2.25 0 1.5708 0 0 1
3.57078 4.35 -2.25 0 1.5708 0 0 1
3.57078 4.35 -0.75 0 1.5708 0 0 1
3.57078 4.35 -0.75 1.1091 1.11234 0 0 1
3.57078 4.35 -2.25 1.1091 1.11234 0 0 1
3.84 4.08156 -2.25 1.1091 1.11234 0 0 1
3.84 4.08156 -0.75 1.1091 1.11234 0 0 1
3.84 4.08156 -0.75 1.5708 0 0 0 1
3.84 4.08156 -2.25 1.5708 0 0 0 1
3.84 3.3 -2.25 1.5708 0 0 0 1
3.84 3.3 -0.75 1.5708 0 0 0 1
3.84 3.3 -0.75 0 -1.5708 0 0 1
3.84 3.3 -2.25 0 -1.5708 0 0 1
3.32 3.3 -2.25 0 -1.5708 0 0 1
3.32 3.3 -0.75 0 -1.5708 0 0 1
3.32 3.3 -0.75 -1.5708 0 0 0 1
3.32 3.3 -2.25 -1.5708 0 0 0 1
3.32 3.82 -2.25 -1.5708 0 0 0 1
3.32 3.82 -0.75 -1.5708 0 0 0 1
3.32 3.82 -0.75 0 -1.5708 0 0 1
3.32 3.82 -2.25 0 -1.5708 0 0 1
1.21 3.82 -2.25 0 -1.5708 0 0 1
1.21 3.82 -0.75 0 -1.5708 0 0 1
1.21 3.82 -0.75 1.5708 0 0 0 1
1.21 3.82 -2.25 1.5708 0 0 0 1
1.21 2.77 -2.25 1.5708 0 0 0 1
1.21 2.77 -0.75 1.5708 0 0 0 1
1.21 2.77 -0.75 0 1.5708 0 0 1
1.21 2.77 -2.25 0 1.5708 0 0 1
3.57063 2.77 -2.25 0 1.5708 0 0 1
3.57063 2.77 -0.75 0 1.5708 0 0 1
3.57063 2.77 -0.75 1.11072 1.11072 0 0 1
3.57063 2.77 -2.25 1.11072 1.11072 0 0 1
3.84 2.50062 -2.25 1.11072 1.11072 0 0 1
3.84 2.50062 -0.75 1.11072 1.11072 0 0 1
3.84 2.50062 -0.75 1.5708 0 0 0 1
3.84 2.50062 -2.25 1.5708 0 0 0 1
3.84 -0.130625 -2.25 1.5708 0 0 0 1
3.84 -0.130625 -0.75 1.5708 0 0 0 1
3.84 -0.130625 -0.75 1.11104 -1.1104 0 0 1
3.84 -0.130625 -2.25 1.11104 -1.1104 0 0 1
3.57078 -0.4 -2.25 1.11104 -1.1104 0 0 1
3.57078 -0.4 -0.75 1.11104 -1.1104 0 0 1
3.57078 -0.4 -0.75 0 -1.5708 0 0 1
3.57078 -0.4 -2.25 0 -1.5708 0 0 1
0.419219 -0.4 -2.25 0 -1.5708 0 0 1
0.419219 -0.4 -0.75 0 -1.5708 0 0 1
0.419219 -0.4 -0.75 -1.11007 -1.11137 0 0 1
0.419219 -0.4 -2.25 -1.11007 -1.11137 0 0 1
0.15 -0.131094 -2.25 -1.11007 -1.11137 0 0 1
0.15 -0.131094 -0.75 -1.11007 -1.11137 0 0 1
0.15 -0.131094 -0.75 -1.5708 0 0 0 1
0.15 -0.131094 -2.25 -1.5708 0 0 0 1
0.15 0.66 -2.25 -1.5708 0 0 0 1
0.15 0.66 -0.75 -1.5708 0 0 0 1
0.15 0.66 -0.75 0 1.5708 0 0 1
0.15 0.66 -2.25 0 1.5708 0 0 1
0.67 0.66 -2.25 0 1.5708 0 0 1
0.67 0.66 -0.75 0 1.5708 0 0 1
0.67 0.66 -0.75 1.5708 0 0 0 1
0.67 0.66 -2.25 1.5708 0 0 0 1
0.67 0.13 -2.25 1.5708 0 0 0 1
0.67 0.13 -0.75 1.5708 0 0 0 1
2.26 2.24 -0.75 0 0 0.46085 0 1
2.26 0.13 -0.75 0 0 4.71239 0 1
3.57078 -0.4 -0.75 0 0 1.10995 0 1
0.67 0.13 -0.75 0 0 4.71239 0 1
0.419219 -0.4 -0.75 0 0 1.81952 0 1
0.67 0.66 -0.75 0 0 1.5708 0 1
0.15 0.66 -0.75 0 0 1.32208 0 1
3.84 -0.130625 -0.75 0 0 2.35648 0 1
3.84 2.50062 -0.75 0 0 2.3562 0 1
3.57078 -0.4 -0.75 0 0 1.24596 0 1
3.57063 2.77 -0.75 0 0 2.35619 0 1
2.26 2.24 -0.75 0 0 4.25154 0 1
1.21 2.77 -0.75 0 0 4.24835 0 1
0.41875 2.24 -0.75 0 0 1.71581 0 1
0.419219 4.35 -0.75 0 0 1.24857 0 1
0.15 4.08031 -0.75 0 0 2.21205 0 1
3.32 3.3 -0.75 0 0 1.5708 0 1
3.84 3.3 -0.75 0 0 1.3198 0 1
3.32 3.82 -0.75 0 0 4.71239 0 1
3.57078 4.35 -0.75 0 0 1.82179 0 1
1.21 3.82 -0.75 0 0 4.71239 0 1
0.419219 4.35 -0.75 0 0 1.10675 0 1
1.21 2.77 -0.75 0 0 0.464043 0 1
3.57078 4.35 -0.75 0 0 0.535861 0 1
3.84 3.3 -0.75 0 0 0.250992 0 1
3.84 4.08156 -0.75 0 0 2.35474 0 1
0.41875 2.24 -0.75 0 0 0.638648 0 1
0.15 4.08031 -0.75 0 0 0.14501 0 1
0.15 2.50969 -0.75 0 0 2.35793 0 1
0.419219 -0.4 -0.75 0 0 0.537259 0 1
0.15 0.66 -0.75 0 0 0.248721 0 1
0.15 -0.131094 -0.75 0 0 2.35561 0 1
2.26 2.24 -2.25 0 0 -0.46085 0 1
2.26 0.13 -2.25 0 0 -4.71239 0 1
3.57078 -0.4 -2.25 0 0 -1.10995 0 1
0.67 0.13 -2.25 0 0 -4.71239 0 1
0.419219 -0.4 -2.25 0 0 -1.81952 0 1
0.67 0.66 -2.25 0 0 -1.5708 0 1
0.15 0.66 -2.25 0 0 -1.32208 0 1
3.84 -0.130625 -2.25 0 0 -2.35648 0 1
3.84 2.50062 -2.25 0 0 -2.3562 0 1
3.57078 -0.4 -2.25 0 0 -1.24596 0 1
3.57063 2.77 -2.25 0 0 -2.35619 0 1
2.26 2.24 -2.25 0 0 -4.25154 0 1
1.21 2.77 -2.25 0 0 -4.24835 0 1
0.41875 2.24 -2.25 0 0 -1.71581 0 1
0.419219 4.35 -2.25 0 0 -1.24857 0 1
0.15 4.08031 -2.25 0 0 -2.21205 0 1
3.32 3.3 -2.25 0 0 -1.5708 0 1
3.84 3.3 -2.25 0 0 -1.3198 0 1
3.32 3.82 -2.25 0 0 -4.71239 0 1
3.57078 4.35 -2.25 0 0 -1.82179 0 1
1.21 3.82 -2.25 0 0 -4.71239 0 1
0.419219 4.35 -2.25 0 0 -1.10675 0 1
1.21 2.77 -2.25 0 0 -0.464043 0 1
3.57078 4.35 -2.25 0 0 -0.535861 0 1
3.84 3.3 -2.25 0 0 -0.250992 0 1
3.84 4.08156 -2.25 0 0 -2.35474 0 1
0.41875 2.24 -2.25 0 0 -0.638648 0 1
0.15 4.08031 -2.25 0 0 -0.14501 0 1
0.15 2.50969 -2.25 0 0 -2.35793 0 1
0.419219 -0.4 -2.25 0 0 -0.537259 0 1
0.15 0.66 -2.25 0 0 -0.248721 0 1
0.15 -0.131094 -2.25 0 0 -2.35561 0 1
3 0 2 1 
3 0 3 2 
3 4 6 5 
3 4 7 6 
3 8 10 9 
3 8 11 10 
3 12 14 13 
3 12 15 14 
3 16 18 17 
3 16 19 18 
3 20 22 21 
3 20 23 22 
3 24 26 25 
3 24 27 26 
3 28 30 29 
3 28 31 30 
3 32 34 33 
3 32 35 34 
3 36 38 37 
3 36 39 38 
3 40 42 41 
3 40 43 42 
3 44 46 45 
3 44 47 46 
3 48 50 49 
3 48 51 50 
3 52 54 53 
3 52 55 54 
3 56 58 57 
3 56 59 58 
3 60 62 61 
3 60 63 62 
3 64 66 65 
3 64 67 66 
3 68 70 69 
3 68 71 70 
3 72 74 73 
3 72 75 74 
3 76 78 77 
3 76 79 78 
3 80 82 81 
3 80 83 82 
3 84 86 85 
3 84 87 86 
3 88 89 90 
3 90 89 91 
3 90 91 92 
3 92 91 93 
3 92 93 94 
3 95 96 97 
3 97 96 98 
3 97 98 99 
3 99 98 100 
3 99 100 101 
3 101 100 102 
3 101 102 103 
3 104 105 106 
3 106 105 107 
3 106 107 108 
3 108 107 109 
3 108 109 110 
3 111 112 113 
3 114 115 116 
3 117 118 119 
3 120 122 121 
3 122 123 121 
3 122 124 123 
3 124 125 123 
3 124 126 125 
3 127 129 128 
3 129 130 128 
3 129 131 130 
3 131 132 130 
3 131 133 132 
3 133 134 132 
3 133 135 134 
3 136 138 137 
3 138 139 137 
3 138 140 139 
3 140 141 139 
3 140 142 141 
3 143 145 144 
3 146 148 147 
3 149 151 150 
