ply
format ascii 1.0
comment VCGLIB generated
element vertex 104
property float x
property float y
property float z
property float nx
property float ny
property float nz
property float texture_u
property float texture_v
element face 56
property list uchar int vertex_indices
end_header
0.79 2.77 -0.75 1.5708 0 0 0 1
0.79 2.77 -2.25 1.5708 0 0 0 1
0.79 1.84281 -2.25 1.5708 0 0 0 1
0.79 1.84281 -0.75 1.5708 0 0 0 1
0.79 1.84281 -0.75 0.975593 1.23111 0 0 1
0.79 1.84281 -2.25 0.975593 1.23111 0 0 1
1.32 1.42281 -2.25 0.975593 1.23111 0 0 1
1.32 1.42281 -0.75 0.975593 1.23111 0 0 1
1.32 1.42281 -0.75 1.5708 0 0 0 1
1.32 1.42281 -2.25 1.5708 0 0 0 1
1.32 -0.130625 -2.25 1.5708 0 0 0 1
1.32 -0.130625 -0.75 1.5708 0 0 0 1
1.32 -0.130625 -0.75 1.11686 -1.10455 0 0 1
1.32 -0.130625 -2.25 1.11686 -1.10455 0 0 1
1.05359 -0.4 -2.25 1.11686 -1.10455 0 0 1
1.05359 -0.4 -0.75 1.11686 -1.10455 0 0 1
1.05359 -0.4 -0.75 0 -1.5708 0 0 1
1.05359 -0.4 -2.25 0 -1.5708 0 0 1
0.536406 -0.4 -2.25 0 -1.5708 0 0 1
0.536406 -0.4 -0.75 0 -1.5708 0 0 1
0.536406 -0.4 -0.75 -1.11686 -1.10455 0 0 1
0.536406 -0.4 -2.25 -1.11686 -1.10455 0 0 1
0.27 -0.130625 -2.25 -1.11686 -1.10455 0 0 1
0.27 -0.130625 -0.75 -1.11686 -1.10455 0 0 1
0.27 -0.130625 -0.75 -1.5708 0 0 0 1
0.27 -0.130625 -2.25 -1.5708 0 0 0 1
0.27 2.77 -2.25 -1.5708 0 0 0 1
0.27 2.77 -0.75 -1.5708 0 0 0 1
0.27 2.77 -0.75 0 1.5708 0 0 1
0.27 2.77 -2.25 0 1.5708 0 0 1
0.79 2.77 -2.25 0 1.5708 0 0 1
0.79 2.77 -0.75 0 1.5708 0 0 1
0.01 4.08156 -0.75 -1.12831 1.09285 0 0 1
0.01 4.08156 -2.25 -1.12831 1.09285 0 0 1
0.27 4.35 -2.25 -1.12831 1.09285 0 0 1
0.27 4.35 -0.75 -1.12831 1.09285 0 0 1
0.27 4.35 -0.75 0 1.5708 0 0 1
0.27 4.35 -2.25 0 1.5708 0 0 1
1.0575 4.35 -2.25 0 1.5708 0 0 1
1.0575 4.35 -0.75 0 1.5708 0 0 1
1.0575 4.35 -0.75 1.1064 1.11503 0 0 1
1.0575 4.35 -2.25 1.1064 1.11503 0 0 1
1.32 4.08953 -2.25 1.1064 1.11503 0 0 1
1.32 4.08953 -0.75 1.1064 1.11503 0 0 1
1.32 4.08953 -0.75 1.5708 0 0 0 1
1.32 4.08953 -2.25 1.5708 0 0 0 1
1.32 3.56047 -2.25 1.5708 0 0 0 1
1.32 3.56047 -0.75 1.5708 0 0 0 1
1.32 3.56047 -0.75 1.11072 -1.11072 0 0 1
1.32 3.56047 -2.25 1.11072 -1.11072 0 0 1
1.05953 3.3 -2.25 1.11072 -1.11072 0 0 1
1.05953 3.3 -0.75 1.11072 -1.11072 0 0 1
1.05953 3.3 -0.75 0 -1.5708 0 0 1
1.05953 3.3 -2.25 0 -1.5708 0 0 1
0.278281 3.3 -2.25 0 -1.5708 0 0 1
0.278281 3.3 -0.75 0 -1.5708 0 0 1
0.278281 3.3 -0.75 -1.11105 -1.1104 0 0 1
0.278281 3.3 -2.25 -1.11105 -1.1104 0 0 1
0.01 3.56844 -2.25 -1.11105 -1.1104 0 0 1
0.01 3.56844 -0.75 -1.11105 -1.1104 0 0 1
0.01 3.56844 -0.75 -1.5708 0 0 0 1
0.01 3.56844 -2.25 -1.5708 0 0 0 1
0.01 4.08156 -2.25 -1.5708 0 0 0 1
0.01 4.08156 -0.75 -1.5708 0 0 0 1
1.32 -0.130625 -0.75 0 0 2.36174 0 1
1.32 1.42281 -0.75 0 0 2.24092 0 1
1.05359 -0.4 -0.75 0 0 2.35065 0 1
0.79 1.84281 -0.75 0 0 4.04227 0 1
0.536406 -0.4 -0.75 0 0 1.65464 0 1
0.79 2.77 -0.75 0 0 1.5708 0 1
0.27 2.77 -0.75 0 0 1.48695 0 1
1.32 3.56047 -0.75 0 0 2.35619 0 1
1.32 4.08953 -0.75 0 0 2.35231 0 1
1.05953 3.3 -0.75 0 0 2.35619 0 1
1.0575 4.35 -0.75 0 0 2.36008 0 1
0.278281 3.3 -0.75 0 0 1.90146 0 1
0.27 4.35 -0.75 0 0 2.34023 0 1
0.01 4.08156 -0.75 0 0 2.0415 0 1
0.278281 3.3 -0.75 0 0 0.454446 0 1
0.01 4.08156 -0.75 0 0 0.33066 0 1
0.01 3.56844 -0.75 0 0 2.35649 0 1
0.536406 -0.4 -0.75 0 0 0.696014 0 1
0.27 2.77 -0.75 0 0 0.0838427 0 1
0.27 -0.130625 -0.75 0 0 2.36174 0 1
1.32 -0.130625 -2.25 0 0 -2.36174 0 1
1.32 1.42281 -2.25 0 0 -2.24092 0 1
1.05359 -0.4 -2.25 0 0 -2.35065 0 1
0.79 1.84281 -2.25 0 0 -4.04227 0 1
0.536406 -0.4 -2.25 0 0 -1.65464 0 1
0.79 2.77 -2.25 0 0 -1.5708 0 1
0.27 2.77 -2.25 0 0 -1.48695 0 1
1.32 3.56047 -2.25 0 0 -2.35619 0 1
1.32 4.08953 -2.25 0 0 -2.35231 0 1
1.05953 3.3 -2.25 0 0 -2.35619 0 1
1.0575 4.35 -2.25 0 0 -2.36008 0 1
0.278281 3.3 -2.25 0 0 -1.90146 0 1
0.27 4.35 -2.25 0 0 -2.34023 0 1
0.01 4.08156 -2.25 0 0 -2.0415 0 1
0.278281 3.3 -2.25 0 0 -0.454446 0 1
0.01 4.08156 -2.25 0 0 -0.33066 0 1
0.01 3.56844 -2.25 0 0 -2.35649 0 1
0.536406 -0.4 -2.25 0 0 -0.696014 0 1
0.27 2.77 -2.25 0 0 -0.0838427 0 1
0.27 -0.130625 -2.25 0 0 -2.36174 0 1
3 0 2 1 
3 0 3 2 
3 4 6 5 
3 4 7 6 
3 8 10 9 
3 8 11 10 
3 12 14 13 
3 12 15 14 
3 16 18 17 
3 16 19 18 
3 20 22 21 
3 20 23 22 
3 24 26 25 
3 24 27 26 
3 28 30 29 
3 28 31 30 
3 32 34 33 
3 32 35 34 
3 36 38 37 
3 36 39 38 
3 40 42 41 
3 40 43 42 
3 44 46 45 
3 44 47 46 
3 48 50 49 
3 48 51 50 
3 52 54 53 
3 52 55 54 
3 56 58 57 
3 56 59 58 
3 60 62 61 
3 60 63 62 
3 64 65 66 
3 66 65 67 
3 66 67 68 
3 68 67 69 
3 68 69 70 
3 71 72 73 
3 73 72 74 
3 73 74 75 
3 75 74 76 
3 75 76 77 
3 78 79 80 
3 81 82 83 
3 84 86 85 
3 86 87 85 
3 86 88 87 
3 88 89 87 
3 88 90 89 
3 91 93 92 
3 93 94 92 
3 93 95 94 
3 95 96 94 
3 95 97 96 
3 98 100 99 
3 101 103 102 
