ply
format ascii 1.0
comment VCGLIB generated
element vertex 24
property float x
property float y
property float z
property float nx
property float ny
property float nz
property float texture_u
property float texture_v
element face 12
property list uchar int vertex_indices
end_header
4.22141 -0.4 -0.75 0 -1.5708 0 0 1
4.22141 -0.4 -2.25 0 -1.5708 0 0 1
0 -0.4 -2.25 0 -1.5708 0 0 1
0 -0.4 -0.75 0 -1.5708 0 0 1
0 -0.4 -0.75 -1.5708 0 0 0 1
0 -0.4 -2.25 -1.5708 0 0 0 1
0 -0.13 -2.25 -1.5708 0 0 0 1
0 -0.13 -0.75 -1.5708 0 0 0 1
0 -0.13 -0.75 0 1.5708 0 0 1
0 -0.13 -2.25 0 1.5708 0 0 1
4.22141 -0.13 -2.25 0 1.5708 0 0 1
4.22141 -0.13 -0.75 0 1.5708 0 0 1
4.22141 -0.13 -0.75 1.5708 0 0 0 1
4.22141 -0.13 -2.25 1.5708 0 0 0 1
4.22141 -0.4 -2.25 1.5708 0 0 0 1
4.22141 -0.4 -0.75 1.5708 0 0 0 1
4.22141 -0.4 -0.75 0 0 1.5708 0 1
4.22141 -0.13 -0.75 0 0 1.5708 0 1
0 -0.13 -0.75 0 0 1.5708 0 1
0 -0.4 -0.75 0 0 1.5708 0 1
4.22141 -0.4 -2.25 0 0 -1.5708 0 1
4.22141 -0.13 -2.25 0 0 -1.5708 0 1
0 -0.13 -2.25 0 0 -1.5708 0 1
0 -0.4 -2.25 0 0 -1.5708 0 1
3 0 2 1 
3 0 3 2 
3 4 6 5 
3 4 7 6 
3 8 10 9 
3 8 11 10 
3 12 14 13 
3 12 15 14 
3 16 17 18 
3 16 18 19 
3 20 22 21 
3 20 23 22 
