ply
format ascii 1.0
comment VCGLIB generated
element vertex 194
property float x
property float y
property float z
property float nx
property float ny
property float nz
property float texture_u
property float texture_v
element face 108
property list uchar int vertex_indices
end_header
0.497031 -0.4 -0.75 -1.11072 -1.11072 0 0 1
0.497031 -0.4 -2.25 -1.11072 -1.11072 0 0 1
0.22 -0.122969 -2.25 -1.11072 -1.11072 0 0 1
0.22 -0.122969 -0.75 -1.11072 -1.11072 0 0 1
0.22 -0.122969 -0.75 -1.5708 0 0 0 1
0.22 -0.122969 -2.25 -1.5708 0 0 0 1
0.22 4.07297 -2.25 -1.5708 0 0 0 1
0.22 4.07297 -0.75 -1.5708 0 0 0 1
0.22 4.07297 -0.75 -1.11072 1.11072 0 0 1
0.22 4.07297 -2.25 -1.11072 1.11072 0 0 1
0.497031 4.35 -2.25 -1.11072 1.11072 0 0 1
0.497031 4.35 -0.75 -1.11072 1.11072 0 0 1
0.497031 4.35 -0.75 0 1.5708 0 0 1
0.497031 4.35 -2.25 0 1.5708 0 0 1
4.70875 4.35 -2.25 0 1.5708 0 0 1
4.70875 4.35 -0.75 0 1.5708 0 0 1
4.70875 4.35 -0.75 1.11072 1.11072 0 0 1
4.70875 4.35 -2.25 1.11072 1.11072 0 0 1
4.97 4.08875 -2.25 1.11072 1.11072 0 0 1
4.97 4.08875 -0.75 1.11072 1.11072 0 0 1
4.97 4.08875 -0.75 1.5708 0 0 0 1
4.97 4.08875 -2.25 1.5708 0 0 0 1
4.97 0.92125 -2.25 1.5708 0 0 0 1
4.97 0.92125 -0.75 1.5708 0 0 0 1
4.97 0.92125 -0.75 1.11006 -1.11139 0 0 1
4.97 0.92125 -2.25 1.11006 -1.11139 0 0 1
4.70844 0.66 -2.25 1.11006 -1.11139 0 0 1
4.70844 0.66 -0.75 1.11006 -1.11139 0 0 1
4.70844 0.66 -0.75 0 -1.5708 0 0 1
4.70844 0.66 -2.25 0 -1.5708 0 0 1
2.06938 0.66 -2.25 0 -1.5708 0 0 1
2.06938 0.66 -0.75 0 -1.5708 0 0 1
2.06938 0.66 -0.75 -1.11104 -1.1104 0 0 1
2.06938 0.66 -2.25 -1.11104 -1.1104 0 0 1
1.8 0.929531 -2.25 -1.11104 -1.1104 0 0 1
1.8 0.929531 -0.75 -1.11104 -1.1104 0 0 1
1.8 0.929531 -0.75 -1.5708 0 0 0 1
1.8 0.929531 -2.25 -1.5708 0 0 0 1
1.8 3.03047 -2.25 -1.5708 0 0 0 1
1.8 3.03047 -0.75 -1.5708 0 0 0 1
1.8 3.03047 -0.75 -1.10943 1.11201 0 0 1
1.8 3.03047 -2.25 -1.10943 1.11201 0 0 1
2.07016 3.3 -2.25 -1.10943 1.11201 0 0 1
2.07016 3.3 -0.75 -1.10943 1.11201 0 0 1
2.07016 3.3 -0.75 0 1.5708 0 0 1
2.07016 3.3 -2.25 0 1.5708 0 0 1
3.66766 3.3 -2.25 0 1.5708 0 0 1
3.66766 3.3 -0.75 0 1.5708 0 0 1
3.66766 3.3 -0.75 1.1074 1.11403 0 0 1
3.66766 3.3 -2.25 1.1074 1.11403 0 0 1
3.93 3.03922 -2.25 1.1074 1.11403 0 0 1
3.93 3.03922 -0.75 1.1074 1.11403 0 0 1
3.93 3.03922 -0.75 1.5708 0 0 0 1
3.93 3.03922 -2.25 1.5708 0 0 0 1
3.93 1.19 -2.25 1.5708 0 0 0 1
3.93 1.19 -0.75 1.5708 0 0 0 1
3.93 1.19 -0.75 0 1.5708 0 0 1
3.93 1.19 -2.25 0 1.5708 0 0 1
4.45 1.19 -2.25 0 1.5708 0 0 1
4.45 1.19 -0.75 0 1.5708 0 0 1
4.45 1.19 -0.75 -1.5708 0 0 0 1
4.45 1.19 -2.25 -1.5708 0 0 0 1
4.45 3.82 -2.25 -1.5708 0 0 0 1
4.45 3.82 -0.75 -1.5708 0 0 0 1
4.45 3.82 -0.75 0 -1.5708 0 0 1
4.45 3.82 -2.25 0 -1.5708 0 0 1
0.76 3.82 -2.25 0 -1.5708 0 0 1
0.76 3.82 -0.75 0 -1.5708 0 0 1
0.76 3.82 -0.75 1.5708 0 0 0 1
0.76 3.82 -2.25 1.5708 0 0 0 1
0.76 2.49766 -2.25 1.5708 0 0 0 1
0.76 2.49766 -0.75 1.5708 0 0 0 1
0.76 2.49766 -0.75 1.11138 1.11007 0 0 1
0.76 2.49766 -2.25 1.11138 1.11007 0 0 1
1.29 1.96703 -2.25 1.11138 1.11007 0 0 1
1.29 1.96703 -0.75 1.11138 1.11007 0 0 1
1.29 1.96703 -0.75 1.5708 0 0 0 1
1.29 1.96703 -2.25 1.5708 0 0 0 1
1.29 0.13 -2.25 1.5708 0 0 0 1
1.29 0.13 -0.75 1.5708 0 0 0 1
1.29 0.13 -0.75 0 1.5708 0 0 1
1.29 0.13 -2.25 0 1.5708 0 0 1
4.97 0.13 -2.25 0 1.5708 0 0 1
4.97 0.13 -0.75 0 1.5708 0 0 1
4.97 0.13 -0.75 1.5708 0 0 0 1
4.97 0.13 -2.25 1.5708 0 0 0 1
4.97 -0.4 -2.25 1.5708 0 0 0 1
4.97 -0.4 -0.75 1.5708 0 0 0 1
4.97 -0.4 -0.75 0 -1.5708 0 0 1
4.97 -0.4 -2.25 0 -1.5708 0 0 1
0.497031 -0.4 -2.25 0 -1.5708 0 0 1
0.497031 -0.4 -0.75 0 -1.5708 0 0 1
2.34 2.77 -0.75 1.5708 0 0 0 1
2.34 2.77 -2.25 1.5708 0 0 0 1
2.34 1.19 -2.25 1.5708 0 0 0 1
2.34 1.19 -0.75 1.5708 0 0 0 1
2.34 1.19 -0.75 0 1.5708 0 0 1
2.34 1.19 -2.25 0 1.5708 0 0 1
3.39 1.19 -2.25 0 1.5708 0 0 1
3.39 1.19 -0.75 0 1.5708 0 0 1
3.39 1.19 -0.75 -1.5708 0 0 0 1
3.39 1.19 -2.25 -1.5708 0 0 0 1
3.39 2.77 -2.25 -1.5708 0 0 0 1
3.39 2.77 -0.75 -1.5708 0 0 0 1
3.39 2.77 -0.75 0 -1.5708 0 0 1
3.39 2.77 -2.25 0 -1.5708 0 0 1
2.34 2.77 -2.25 0 -1.5708 0 0 1
2.34 2.77 -0.75 0 -1.5708 0 0 1
4.45 1.19 -0.75 0 0 2.6879 0 1
4.70844 0.66 -0.75 0 0 0.453777 0 1
4.45 3.82 -0.75 0 0 4.71239 0 1
4.70875 4.35 -0.75 0 0 1.57071 0 1
0.76 3.82 -0.75 0 0 4.71239 0 1
0.497031 4.35 -0.75 0 0 1.5708 0 1
0.76 2.49766 -0.75 0 0 3.36181 0 1
0.497031 -0.4 -0.75 0 0 1.5708 0 1
1.29 0.13 -0.75 0 0 4.49217 0 1
4.97 -0.4 -0.75 0 0 1.5708 0 1
4.97 0.13 -0.75 0 0 1.5708 0 1
0.22 4.07297 -0.75 0 0 2.35619 0 1
0.22 -0.122969 -0.75 0 0 2.35619 0 1
0.497031 -0.4 -0.75 0 0 0.785398 0 1
0.497031 4.35 -0.75 0 0 0.785398 0 1
2.34 1.19 -0.75 0 0 0.220149 0 1
4.70844 0.66 -0.75 0 0 0.377609 0 1
3.39 1.19 -0.75 0 0 4.71239 0 1
3.93 1.19 -0.75 0 0 3.99093 0 1
3.39 2.77 -0.75 0 0 4.71239 0 1
3.66766 3.3 -0.75 0 0 1.6945 0 1
2.34 2.77 -0.75 0 0 4.71239 0 1
2.07016 3.3 -0.75 0 0 1.57109 0 1
2.34 1.19 -0.75 0 0 4.49224 0 1
2.06938 0.66 -0.75 0 0 1.5705 0 1
4.70844 0.66 -0.75 0 0 0.220149 0 1
4.70875 4.35 -0.75 0 0 0.785483 0 1
4.70844 0.66 -0.75 0 0 0.785912 0 1
4.97 0.92125 -0.75 0 0 2.3556 0 1
4.97 4.08875 -0.75 0 0 2.35619 0 1
1.8 3.03047 -0.75 0 0 2.35504 0 1
1.8 0.929531 -0.75 0 0 2.35648 0 1
2.06938 0.66 -0.75 0 0 0.785405 0 1
2.07016 3.3 -0.75 0 0 0.786261 0 1
3.93 3.03922 -0.75 0 0 2.35321 0 1
3.66766 3.3 -0.75 0 0 0.664687 0 1
3.93 1.19 -0.75 0 0 0.123699 0 1
3.93 1.19 -0.75 0 0 0.597759 0 1
4.70844 0.66 -0.75 0 0 0.519345 0 1
4.45 1.19 -0.75 0 0 2.02449 0 1
1.29 1.96703 -0.75 0 0 2.35678 0 1
0.76 2.49766 -0.75 0 0 0.564589 0 1
1.29 0.13 -0.75 0 0 0.22022 0 1
4.45 1.19 -2.25 0 0 -2.6879 0 1
4.70844 0.66 -2.25 0 0 -0.453777 0 1
4.45 3.82 -2.25 0 0 -4.71239 0 1
4.70875 4.35 -2.25 0 0 -1.57071 0 1
0.76 3.82 -2.25 0 0 -4.71239 0 1
0.497031 4.35 -2.25 0 0 -1.5708 0 1
0.76 2.49766 -2.25 0 0 -3.36181 0 1
0.497031 -0.4 -2.25 0 0 -1.5708 0 1
1.29 0.13 -2.25 0 0 -4.49217 0 1
4.97 -0.4 -2.25 0 0 -1.5708 0 1
4.97 0.13 -2.25 0 0 -1.5708 0 1
0.22 4.07297 -2.25 0 0 -2.35619 0 1
0.22 -0.122969 -2.25 0 0 -2.35619 0 1
0.497031 -0.4 -2.25 0 0 -0.785398 0 1
0.497031 4.35 -2.25 0 0 -0.785398 0 1
2.34 1.19 -2.25 0 0 -0.220149 0 1
4.70844 0.66 -2.25 0 0 -0.377609 0 1
3.39 1.19 -2.25 0 0 -4.71239 0 1
3.93 1.19 -2.25 0 0 -3.99093 0 1
3.39 2.77 -2.25 0 0 -4.71239 0 1
3.66766 3.3 -2.25 0 0 -1.6945 0 1
2.34 2.77 -2.25 0 0 -4.71239 0 1
2.07016 3.3 -2.25 0 0 -1.57109 0 1
2.34 1.19 -2.25 0 0 -4.49224 0 1
2.06938 0.66 -2.25 0 0 -1.5705 0 1
4.70844 0.66 -2.25 0 0 -0.220149 0 1
4.70875 4.35 -2.25 0 0 -0.785483 0 1
4.70844 0.66 -2.25 0 0 -0.785912 0 1
4.97 0.92125 -2.25 0 0 -2.3556 0 1
4.97 4.08875 -2.25 0 0 -2.35619 0 1
1.8 3.03047 -2.25 0 0 -2.35504 0 1
1.8 0.929531 -2.25 0 0 -2.35648 0 1
2.06938 0.66 -2.25 0 0 -0.785405 0 1
2.07016 3.3 -2.25 0 0 -0.786261 0 1
3.93 3.03922 -2.25 0 0 -2.35321 0 1
3.66766 3.3 -2.25 0 0 -0.664687 0 1
3.93 1.19 -2.25 0 0 -0.123699 0 1
3.93 1.19 -2.25 0 0 -0.597759 0 1
4.70844 0.66 -2.25 0 0 -0.519345 0 1
4.45 1.19 -2.25 0 0 -2.02449 0 1
1.29 1.96703 -2.25 0 0 -2.35678 0 1
0.76 2.49766 -2.25 0 0 -0.564589 0 1
1.29 0.13 -2.25 0 0 -0.22022 0 1
3 0 2 1 
3 0 3 2 
3 4 6 5 
3 4 7 6 
3 8 10 9 
3 8 11 10 
3 12 14 13 
3 12 15 14 
3 16 18 17 
3 16 19 18 
3 20 22 21 
3 20 23 22 
3 24 26 25 
3 24 27 26 
3 28 30 29 
3 28 31 30 
3 32 34 33 
3 32 35 34 
3 36 38 37 
3 36 39 38 
3 40 42 41 
3 40 43 42 
3 44 46 45 
3 44 47 46 
3 48 50 49 
3 48 51 50 
3 52 54 53 
3 52 55 54 
3 56 58 57 
3 56 59 58 
3 60 62 61 
3 60 63 62 
3 64 66 65 
3 64 67 66 
3 68 70 69 
3 68 71 70 
3 72 74 73 
3 72 75 74 
3 76 78 77 
3 76 79 78 
3 80 82 81 
3 80 83 82 
3 84 86 85 
3 84 87 86 
3 88 90 89 
3 88 91 90 
3 92 94 93 
3 92 95 94 
3 96 98 97 
3 96 99 98 
3 100 102 101 
3 100 103 102 
3 104 106 105 
3 104 107 106 
3 108 109 110 
3 110 109 111 
3 110 111 112 
3 112 111 113 
3 112 113 114 
3 114 113 115 
3 114 115 116 
3 116 115 117 
3 116 117 118 
3 119 120 121 
3 119 121 122 
3 123 124 125 
3 125 124 126 
3 125 126 127 
3 127 126 128 
3 127 128 129 
3 129 128 130 
3 129 130 131 
3 131 130 132 
3 131 132 133 
3 134 135 136 
3 134 136 137 
3 138 139 140 
3 138 140 141 
3 142 143 144 
3 145 146 147 
3 148 149 150 
3 151 153 152 
3 153 154 152 
3 153 155 154 
3 155 156 154 
3 155 157 156 
3 157 158 156 
3 157 159 158 
3 159 160 158 
3 159 161 160 
3 162 164 163 
3 162 165 164 
3 166 168 167 
3 168 169 167 
3 168 170 169 
3 170 171 169 
3 170 172 171 
3 172 173 171 
3 172 174 173 
3 174 175 173 
3 174 176 175 
3 177 179 178 
3 177 180 179 
3 181 183 182 
3 181 184 183 
3 185 187 186 
3 188 190 189 
3 191 193 192 
