ply
format ascii 1.0
comment VCGLIB generated
element vertex 146
property float x
property float y
property float z
property float nx
property float ny
property float nz
property float texture_u
property float texture_v
element face 84
property list uchar int vertex_indices
end_header
2.22 1.18 -0.75 0 -1.5708 0 0 1
2.22 1.18 -2.25 0 -1.5708 0 0 1
1.15 1.18 -2.25 0 -1.5708 0 0 1
1.15 1.18 -0.75 0 -1.5708 0 0 1
1.15 1.18 -0.75 1.5708 0 0 0 1
1.15 1.18 -2.25 1.5708 0 0 0 1
1.15 0.13 -2.25 1.5708 0 0 0 1
1.15 0.13 -0.75 1.5708 0 0 0 1
1.15 0.13 -0.75 0 1.5708 0 0 1
1.15 0.13 -2.25 0 1.5708 0 0 1
2.22 0.13 -2.25 0 1.5708 0 0 1
2.22 0.13 -0.75 0 1.5708 0 0 1
2.22 0.13 -0.75 -1.5708 0 0 0 1
2.22 0.13 -2.25 -1.5708 0 0 0 1
2.22 1.18 -2.25 -1.5708 0 0 0 1
2.22 1.18 -0.75 -1.5708 0 0 0 1
0.369219 -0.4 -0.75 -1.10975 -1.11169 0 0 1
0.369219 -0.4 -2.25 -1.10975 -1.11169 0 0 1
0.1 -0.13125 -2.25 -1.10975 -1.11169 0 0 1
0.1 -0.13125 -0.75 -1.10975 -1.11169 0 0 1
0.1 -0.13125 -0.75 -1.5708 0 0 0 1
0.1 -0.13125 -2.25 -1.5708 0 0 0 1
0.1 1.44125 -2.25 -1.5708 0 0 0 1
0.1 1.44125 -0.75 -1.5708 0 0 0 1
0.1 1.44125 -0.75 -1.10814 1.11329 0 0 1
0.1 1.44125 -2.25 -1.10814 1.11329 0 0 1
0.37 1.71 -2.25 -1.10814 1.11329 0 0 1
0.37 1.71 -0.75 -1.10814 1.11329 0 0 1
0.37 1.71 -0.75 0 1.5708 0 0 1
0.37 1.71 -2.25 0 1.5708 0 0 1
2.22 1.71 -2.25 0 1.5708 0 0 1
2.22 1.71 -0.75 0 1.5708 0 0 1
2.22 1.71 -0.75 -1.5708 0 0 0 1
2.22 1.71 -2.25 -1.5708 0 0 0 1
2.22 2.77 -2.25 -1.5708 0 0 0 1
2.22 2.77 -0.75 -1.5708 0 0 0 1
2.22 2.77 -0.75 0 -1.5708 0 0 1
2.22 2.77 -2.25 0 -1.5708 0 0 1
0.62 2.77 -2.25 0 -1.5708 0 0 1
0.62 2.77 -0.75 0 -1.5708 0 0 1
0.62 2.77 -0.75 1.5708 0 0 0 1
0.62 2.77 -2.25 1.5708 0 0 0 1
0.62 2.25 -2.25 1.5708 0 0 0 1
0.62 2.25 -0.75 1.5708 0 0 0 1
0.62 2.25 -0.75 0 -1.5708 0 0 1
0.62 2.25 -2.25 0 -1.5708 0 0 1
0.1 2.25 -2.25 0 -1.5708 0 0 1
0.1 2.25 -0.75 0 -1.5708 0 0 1
0.1 2.25 -0.75 -1.5708 0 0 0 1
0.1 2.25 -2.25 -1.5708 0 0 0 1
0.1 3.03953 -2.25 -1.5708 0 0 0 1
0.1 3.03953 -0.75 -1.5708 0 0 0 1
0.1 3.03953 -0.75 -1.10839 1.11304 0 0 1
0.1 3.03953 -2.25 -1.10839 1.11304 0 0 1
0.361562 3.3 -2.25 -1.10839 1.11304 0 0 1
0.361562 3.3 -0.75 -1.10839 1.11304 0 0 1
0.361562 3.3 -0.75 0 1.5708 0 0 1
0.361562 3.3 -2.25 0 1.5708 0 0 1
2.47844 3.3 -2.25 0 1.5708 0 0 1
2.47844 3.3 -0.75 0 1.5708 0 0 1
2.47844 3.3 -0.75 1.11039 1.11105 0 0 1
2.47844 3.3 -2.25 1.11039 1.11105 0 0 1
2.74 3.03859 -2.25 1.11039 1.11105 0 0 1
2.74 3.03859 -0.75 1.11039 1.11105 0 0 1
2.74 3.03859 -0.75 1.5708 0 0 0 1
2.74 3.03859 -2.25 1.5708 0 0 0 1
2.74 1.96891 -2.25 1.5708 0 0 0 1
2.74 1.96891 -0.75 1.5708 0 0 0 1
2.74 1.96891 -0.75 1.11371 1.10772 0 0 1
2.74 1.96891 -2.25 1.11371 1.10772 0 0 1
3.26 1.44609 -2.25 1.11371 1.10772 0 0 1
3.26 1.44609 -0.75 1.11371 1.10772 0 0 1
3.26 1.44609 -0.75 1.5708 0 0 0 1
3.26 1.44609 -2.25 1.5708 0 0 0 1
3.26 -0.130625 -2.25 1.5708 0 0 0 1
3.26 -0.130625 -0.75 1.5708 0 0 0 1
3.26 -0.130625 -0.75 1.11104 -1.1104 0 0 1
3.26 -0.130625 -2.25 1.11104 -1.1104 0 0 1
2.99078 -0.4 -2.25 1.11104 -1.1104 0 0 1
2.99078 -0.4 -0.75 1.11104 -1.1104 0 0 1
2.99078 -0.4 -0.75 0 -1.5708 0 0 1
2.99078 -0.4 -2.25 0 -1.5708 0 0 1
0.369219 -0.4 -2.25 0 -1.5708 0 0 1
0.369219 -0.4 -0.75 0 -1.5708 0 0 1
1.15 1.18 -0.75 0 0 0.459902 0 1
2.22 1.18 -0.75 0 0 4.25852 0 1
2.22 1.71 -0.75 0 0 4.25249 0 1
2.99078 -0.4 -0.75 0 0 0.316273 0 1
2.22 2.77 -0.75 0 0 4.71239 0 1
2.47844 3.3 -0.75 0 0 1.70839 0 1
0.62 2.77 -0.75 0 0 4.71239 0 1
0.361562 3.3 -0.75 0 0 2.35829 0 1
0.62 2.25 -0.75 0 0 1.5708 0 1
0.1 3.03953 -0.75 0 0 2.3541 0 1
0.1 2.25 -0.75 0 0 1.5708 0 1
0.37 1.71 -0.75 0 0 2.35851 0 1
0.1 1.44125 -0.75 0 0 2.20869 0 1
0.369219 -0.4 -0.75 0 0 1.11962 0 1
1.15 0.13 -0.75 0 0 2.16716 0 1
1.15 1.18 -0.75 0 0 4.25249 0 1
2.22 1.71 -0.75 0 0 0.459902 0 1
2.74 3.03859 -0.75 0 0 2.3559 0 1
2.47844 3.3 -0.75 0 0 0.648099 0 1
2.74 1.96891 -0.75 0 0 3.92429 0 1
2.99078 -0.4 -0.75 0 0 0.922703 0 1
3.26 1.44609 -0.75 0 0 2.35889 0 1
3.26 -0.130625 -0.75 0 0 2.35648 0 1
2.99078 -0.4 -0.75 0 0 1.11693 0 1
2.22 1.18 -0.75 0 0 0.453869 0 1
2.22 0.13 -0.75 0 0 4.71239 0 1
1.15 0.13 -0.75 0 0 2.54523 0 1
0.369219 -0.4 -0.75 0 0 0.596361 0 1
0.369219 -0.4 -0.75 0 0 0.641083 0 1
0.1 1.44125 -0.75 0 0 0.145186 0 1
0.1 -0.13125 -0.75 0 0 2.35532 0 1
1.15 1.18 -2.25 0 0 -0.459902 0 1
2.22 1.18 -2.25 0 0 -4.25852 0 1
2.22 1.71 -2.25 0 0 -4.25249 0 1
2.99078 -0.4 -2.25 0 0 -0.316273 0 1
2.22 2.77 -2.25 0 0 -4.71239 0 1
2.47844 3.3 -2.25 0 0 -1.70839 0 1
0.62 2.77 -2.25 0 0 -4.71239 0 1
0.361562 3.3 -2.25 0 0 -2.35829 0 1
0.62 2.25 -2.25 0 0 -1.5708 0 1
0.1 3.03953 -2.25 0 0 -2.3541 0 1
0.1 2.25 -2.25 0 0 -1.5708 0 1
0.37 1.71 -2.25 0 0 -2.35851 0 1
0.1 1.44125 -2.25 0 0 -2.20869 0 1
0.369219 -0.4 -2.25 0 0 -1.11962 0 1
1.15 0.13 -2.25 0 0 -2.16716 0 1
1.15 1.18 -2.25 0 0 -4.25249 0 1
2.22 1.71 -2.25 0 0 -0.459902 0 1
2.74 3.03859 -2.25 0 0 -2.3559 0 1
2.47844 3.3 -2.25 0 0 -0.648099 0 1
2.74 1.96891 -2.25 0 0 -3.92429 0 1
2.99078 -0.4 -2.25 0 0 -0.922703 0 1
3.26 1.44609 -2.25 0 0 -2.35889 0 1
3.26 -0.130625 -2.25 0 0 -2.35648 0 1
2.99078 -0.4 -2.25 0 0 -1.11693 0 1
2.22 1.18 -2.25 0 0 -0.453869 0 1
2.22 0.13 -2.25 0 0 -4.71239 0 1
1.15 0.13 -2.25 0 0 -2.54523 0 1
0.369219 -0.4 -2.25 0 0 -0.596361 0 1
0.369219 -0.4 -2.25 0 0 -0.641083 0 1
0.1 1.44125 -2.25 0 0 -0.145186 0 1
0.1 -0.13125 -2.25 0 0 -2.35532 0 1
3 0 2 1 
3 0 3 2 
3 4 6 5 
3 4 7 6 
3 8 10 9 
3 8 11 10 
3 12 14 13 
3 12 15 14 
3 16 18 17 
3 16 19 18 
3 20 22 21 
3 20 23 22 
3 24 26 25 
3 24 27 26 
3 28 30 29 
3 28 31 30 
3 32 34 33 
3 32 35 34 
3 36 38 37 
3 36 39 38 
3 40 42 41 
3 40 43 42 
3 44 46 45 
3 44 47 46 
3 48 50 49 
3 48 51 50 
3 52 54 53 
3 52 55 54 
3 56 58 57 
3 56 59 58 
3 60 62 61 
3 60 63 62 
3 64 66 65 
3 64 67 66 
3 68 70 69 
3 68 71 70 
3 72 74 73 
3 72 75 74 
3 76 78 77 
3 76 79 78 
3 80 82 81 
3 80 83 82 
3 84 85 86 
3 86 85 87 
3 86 87 88 
3 88 87 89 
3 88 89 90 
3 90 89 91 
3 90 91 92 
3 92 91 93 
3 92 93 94 
3 95 96 97 
3 95 97 98 
3 95 98 99 
3 95 99 100 
3 101 102 103 
3 103 102 104 
3 103 104 105 
3 105 104 106 
3 107 108 109 
3 107 109 110 
3 107 110 111 
3 112 113 114 
3 115 117 116 
3 117 118 116 
3 117 119 118 
3 119 120 118 
3 119 121 120 
3 121 122 120 
3 121 123 122 
3 123 124 122 
3 123 125 124 
3 126 128 127 
3 126 129 128 
3 126 130 129 
3 126 131 130 
3 132 134 133 
3 134 135 133 
3 134 136 135 
3 136 137 135 
3 138 140 139 
3 138 141 140 
3 138 142 141 
3 143 145 144 
