ply
format ascii 1.0
comment VCGLIB generated
element vertex 70
property float x
property float y
property float z
property float nx
property float ny
property float nz
property float texture_u
property float texture_v
element face 40
property list uchar int vertex_indices
end_header
0.37 -0.4 -0.75 -1.10943 -1.11201 0 0 1
0.37 -0.4 -2.25 -1.10943 -1.11201 0 0 1
0.1 -0.130625 -2.25 -1.10943 -1.11201 0 0 1
0.1 -0.130625 -0.75 -1.10943 -1.11201 0 0 1
0.1 -0.130625 -0.75 -1.5708 0 0 0 1
0.1 -0.130625 -2.25 -1.5708 0 0 0 1
0.1 3.03063 -2.25 -1.5708 0 0 0 1
0.1 3.03063 -0.75 -1.5708 0 0 0 1
0.1 3.03063 -0.75 -1.11104 1.1104 0 0 1
0.1 3.03063 -2.25 -1.11104 1.1104 0 0 1
0.369219 3.3 -2.25 -1.11104 1.1104 0 0 1
0.369219 3.3 -0.75 -1.11104 1.1104 0 0 1
0.369219 3.3 -0.75 0 1.5708 0 0 1
0.369219 3.3 -2.25 0 1.5708 0 0 1
2.73734 3.3 -2.25 0 1.5708 0 0 1
2.73734 3.3 -0.75 0 1.5708 0 0 1
2.73734 3.3 -0.75 1.5708 0 0 0 1
2.73734 3.3 -2.25 1.5708 0 0 0 1
2.73734 2.77 -2.25 1.5708 0 0 0 1
2.73734 2.77 -0.75 1.5708 0 0 0 1
2.73734 2.77 -0.75 0 -1.5708 0 0 1
2.73734 2.77 -2.25 0 -1.5708 0 0 1
1.15 2.77 -2.25 0 -1.5708 0 0 1
1.15 2.77 -0.75 0 -1.5708 0 0 1
1.15 2.77 -0.75 1.5708 0 0 0 1
1.15 2.77 -2.25 1.5708 0 0 0 1
1.15 1.9775 -2.25 1.5708 0 0 0 1
1.15 1.9775 -0.75 1.5708 0 0 0 1
1.15 1.9775 -0.75 1.10345 1.11795 0 0 1
1.15 1.9775 -2.25 1.10345 1.11795 0 0 1
1.68 1.45438 -2.25 1.10345 1.11795 0 0 1
1.68 1.45438 -0.75 1.10345 1.11795 0 0 1
1.68 1.45438 -0.75 1.5708 0 0 0 1
1.68 1.45438 -2.25 1.5708 0 0 0 1
1.68 -0.130625 -2.25 1.5708 0 0 0 1
1.68 -0.130625 -0.75 1.5708 0 0 0 1
1.68 -0.130625 -0.75 1.10943 -1.11201 0 0 1
1.68 -0.130625 -2.25 1.10943 -1.11201 0 0 1
1.41 -0.4 -2.25 1.10943 -1.11201 0 0 1
1.41 -0.4 -0.75 1.10943 -1.11201 0 0 1
1.41 -0.4 -0.75 0 -1.5708 0 0 1
1.41 -0.4 -2.25 0 -1.5708 0 0 1
0.37 -0.4 -2.25 0 -1.5708 0 0 1
0.37 -0.4 -0.75 0 -1.5708 0 0 1
2.73734 2.77 -0.75 0 0 1.5708 0 1
2.73734 3.3 -0.75 0 0 1.5708 0 1
1.15 2.77 -0.75 0 0 4.47113 0 1
0.369219 3.3 -0.75 0 0 2.35591 0 1
0.37 -0.4 -0.75 0 0 1.02782 0 1
0.1 3.03063 -0.75 0 0 2.35648 0 1
0.1 -0.130625 -0.75 0 0 2.35504 0 1
1.68 -0.130625 -0.75 0 0 2.35504 0 1
1.68 1.45438 -0.75 0 0 2.34967 0 1
1.41 -0.4 -0.75 0 0 2.35735 0 1
1.15 1.9775 -0.75 0 0 3.93352 0 1
0.37 -0.4 -0.75 0 0 1.32953 0 1
1.15 2.77 -0.75 0 0 0.241264 0 1
2.73734 2.77 -2.25 0 0 -1.5708 0 1
2.73734 3.3 -2.25 0 0 -1.5708 0 1
1.15 2.77 -2.25 0 0 -4.47113 0 1
0.369219 3.3 -2.25 0 0 -2.35591 0 1
0.37 -0.4 -2.25 0 0 -1.02782 0 1
0.1 3.03063 -2.25 0 0 -2.35648 0 1
0.1 -0.130625 -2.25 0 0 -2.35504 0 1
1.68 -0.130625 -2.25 0 0 -2.35504 0 1
1.68 1.45438 -2.25 0 0 -2.34967 0 1
1.41 -0.4 -2.25 0 0 -2.35735 0 1
1.15 1.9775 -2.25 0 0 -3.93352 0 1
0.37 -0.4 -2.25 0 0 -1.32953 0 1
1.15 2.77 -2.25 0 0 -0.241264 0 1
3 0 2 1 
3 0 3 2 
3 4 6 5 
3 4 7 6 
3 8 10 9 
3 8 11 10 
3 12 14 13 
3 12 15 14 
3 16 18 17 
3 16 19 18 
3 20 22 21 
3 20 23 22 
3 24 26 25 
3 24 27 26 
3 28 30 29 
3 28 31 30 
3 32 34 33 
3 32 35 34 
3 36 38 37 
3 36 39 38 
3 40 42 41 
3 40 43 42 
3 44 45 46 
3 46 45 47 
3 46 47 48 
3 48 47 49 
3 48 49 50 
3 51 52 53 
3 53 52 54 
3 53 54 55 
3 55 54 56 
3 57 59 58 
3 59 60 58 
3 59 61 60 
3 61 62 60 
3 61 63 62 
3 64 66 65 
3 66 67 65 
3 66 68 67 
3 68 69 67 
