ply
format ascii 1.0
comment VCGLIB generated
element vertex 62
property float x
property float y
property float z
property float nx
property float ny
property float nz
property float texture_u
property float texture_v
element face 32
property list uchar int vertex_indices
end_header
1.81 -1.45 -0.75 0 -1.5708 0 0 1
1.81 -1.45 -2.25 0 -1.5708 0 0 1
1.29 -1.45 -2.25 0 -1.5708 0 0 1
1.29 -1.45 -0.75 0 -1.5708 0 0 1
1.29 -1.45 -0.75 -1.5708 0 0 0 1
1.29 -1.45 -2.25 -1.5708 0 0 0 1
1.29 -0.4 -2.25 -1.5708 0 0 0 1
1.29 -0.4 -0.75 -1.5708 0 0 0 1
1.29 -0.4 -0.75 0 -1.5708 0 0 1
1.29 -0.4 -2.25 0 -1.5708 0 0 1
0.504844 -0.4 -2.25 0 -1.5708 0 0 1
0.504844 -0.4 -0.75 0 -1.5708 0 0 1
0.504844 -0.4 -0.75 -1.1148 -1.10662 0 0 1
0.504844 -0.4 -2.25 -1.1148 -1.10662 0 0 1
0.23 -0.123125 -2.25 -1.1148 -1.10662 0 0 1
0.23 -0.123125 -0.75 -1.1148 -1.10662 0 0 1
0.23 -0.123125 -0.75 -1.5708 0 0 0 1
0.23 -0.123125 -2.25 -1.5708 0 0 0 1
0.23 0.391094 -2.25 -1.5708 0 0 0 1
0.23 0.391094 -0.75 -1.5708 0 0 0 1
0.23 0.391094 -0.75 -1.11137 1.11008 0 0 1
0.23 0.391094 -2.25 -1.11137 1.11008 0 0 1
0.498594 0.66 -2.25 -1.11137 1.11008 0 0 1
0.498594 0.66 -0.75 -1.11137 1.11008 0 0 1
0.498594 0.66 -0.75 0 1.5708 0 0 1
0.498594 0.66 -2.25 0 1.5708 0 0 1
1.54141 0.66 -2.25 0 1.5708 0 0 1
1.54141 0.66 -0.75 0 1.5708 0 0 1
1.54141 0.66 -0.75 1.11104 1.1104 0 0 1
1.54141 0.66 -2.25 1.11104 1.1104 0 0 1
1.81 0.39125 -2.25 1.11104 1.1104 0 0 1
1.81 0.39125 -0.75 1.11104 1.1104 0 0 1
1.81 0.39125 -0.75 1.5708 0 0 0 1
1.81 0.39125 -2.25 1.5708 0 0 0 1
1.81 -1.45 -2.25 1.5708 0 0 0 1
1.81 -1.45 -0.75 1.5708 0 0 0 1
1.29 -1.45 -0.75 0 0 1.5708 0 1
1.81 -1.45 -0.75 0 0 1.44418 0 1
1.29 -0.4 -0.75 0 0 4.71239 0 1
1.54141 0.66 -0.75 0 0 1.69741 0 1
0.504844 -0.4 -0.75 0 0 1.90517 0 1
0.498594 0.66 -0.75 0 0 2.35561 0 1
0.23 0.391094 -0.75 0 0 2.0224 0 1
1.54141 0.66 -0.75 0 0 0.658493 0 1
1.81 -1.45 -0.75 0 0 0.126614 0 1
1.81 0.39125 -0.75 0 0 2.35649 0 1
0.504844 -0.4 -0.75 0 0 0.44734 0 1
0.23 0.391094 -0.75 0 0 0.334377 0 1
0.23 -0.123125 -0.75 0 0 2.35988 0 1
1.29 -1.45 -2.25 0 0 -1.5708 0 1
1.81 -1.45 -2.25 0 0 -1.44418 0 1
1.29 -0.4 -2.25 0 0 -4.71239 0 1
1.54141 0.66 -2.25 0 0 -1.69741 0 1
0.504844 -0.4 -2.25 0 0 -1.90517 0 1
0.498594 0.66 -2.25 0 0 -2.35561 0 1
0.23 0.391094 -2.25 0 0 -2.0224 0 1
1.54141 0.66 -2.25 0 0 -0.658493 0 1
1.81 -1.45 -2.25 0 0 -0.126614 0 1
1.81 0.39125 -2.25 0 0 -2.35649 0 1
0.504844 -0.4 -2.25 0 0 -0.44734 0 1
0.23 0.391094 -2.25 0 0 -0.334377 0 1
0.23 -0.123125 -2.25 0 0 -2.35988 0 1
3 0 2 1 
3 0 3 2 
3 4 6 5 
3 4 7 6 
3 8 10 9 
3 8 11 10 
3 12 14 13 
3 12 15 14 
3 16 18 17 
3 16 19 18 
3 20 22 21 
3 20 23 22 
3 24 26 25 
3 24 27 26 
3 28 30 29 
3 28 31 30 
3 32 34 33 
3 32 35 34 
3 36 37 38 
3 38 37 39 
3 38 39 40 
3 40 39 41 
3 40 41 42 
3 43 44 45 
3 46 47 48 
3 49 51 50 
3 51 52 50 
3 51 53 52 
3 53 54 52 
3 53 55 54 
3 56 58 57 
3 59 61 60 
