ply
format ascii 1.0
comment VCGLIB generated
element vertex 152
property float x
property float y
property float z
property float nx
property float ny
property float nz
property float texture_u
property float texture_v
element face 84
property list uchar int vertex_indices
end_header
0.33 -0.4 -0.75 -1.10943 -1.11201 0 0 1
0.33 -0.4 -2.25 -1.10943 -1.11201 0 0 1
0.06 -0.130625 -2.25 -1.10943 -1.11201 0 0 1
0.06 -0.130625 -0.75 -1.10943 -1.11201 0 0 1
0.06 -0.130625 -0.75 -1.5708 0 0 0 1
0.06 -0.130625 -2.25 -1.5708 0 0 0 1
0.06 3.03063 -2.25 -1.5708 0 0 0 1
0.06 3.03063 -0.75 -1.5708 0 0 0 1
0.06 3.03063 -0.75 -1.11137 1.11007 0 0 1
0.06 3.03063 -2.25 -1.11137 1.11008 0 0 1
0.329062 3.3 -2.25 -1.11137 1.11007 0 0 1
0.329062 3.3 -0.75 -1.11137 1.11008 0 0 1
0.329062 3.3 -0.75 0 1.5708 0 0 1
0.329062 3.3 -2.25 0 1.5708 0 0 1
5.06094 3.3 -2.25 0 1.5708 0 0 1
5.06094 3.3 -0.75 0 1.5708 0 0 1
5.06094 3.3 -0.75 1.11137 1.11008 0 0 1
5.06094 3.3 -2.25 1.11137 1.11008 0 0 1
5.33 3.03063 -2.25 1.11137 1.11008 0 0 1
5.33 3.03063 -0.75 1.11137 1.11008 0 0 1
5.33 3.03063 -0.75 1.5708 0 0 0 1
5.33 3.03063 -2.25 1.5708 0 0 0 1
5.33 -0.4 -2.25 1.5708 0 0 0 1
5.33 -0.4 -0.75 1.5708 0 0 0 1
5.33 -0.4 -0.75 0 -1.5708 0 0 1
5.33 -0.4 -2.25 0 -1.5708 0 0 1
4.81 -0.4 -2.25 0 -1.5708 0 0 1
4.81 -0.4 -0.75 0 -1.5708 0 0 1
4.81 -0.4 -0.75 -1.5708 0 0 0 1
4.81 -0.4 -2.25 -1.5708 0 0 0 1
4.81 2.77 -2.25 -1.5708 0 0 0 1
4.81 2.77 -0.75 -1.5708 0 0 0 1
4.81 2.77 -0.75 0 -1.5708 0 0 1
4.81 2.77 -2.25 0 -1.5708 0 0 1
3.23 2.77 -2.25 0 -1.5708 0 0 1
3.23 2.77 -0.75 0 -1.5708 0 0 1
3.23 2.77 -0.75 1.5708 0 0 0 1
3.23 2.77 -2.25 1.5708 0 0 0 1
3.23 1.9775 -2.25 1.5708 0 0 0 1
3.23 1.9775 -0.75 1.5708 0 0 0 1
3.23 1.9775 -0.75 1.11404 1.10739 0 0 1
3.23 1.9775 -2.25 1.11404 1.10739 0 0 1
3.75 1.45438 -2.25 1.11404 1.10739 0 0 1
3.75 1.45438 -0.75 1.11404 1.10739 0 0 1
3.75 1.45438 -0.75 1.5708 0 0 0 1
3.75 1.45438 -2.25 1.5708 0 0 0 1
3.75 -0.130625 -2.25 1.5708 0 0 0 1
3.75 -0.130625 -0.75 1.5708 0 0 0 1
3.75 -0.130625 -0.75 1.11395 -1.10748 0 0 1
3.75 -0.130625 -2.25 1.11395 -1.10748 0 0 1
3.48219 -0.4 -2.25 1.11395 -1.10748 0 0 1
3.48219 -0.4 -0.75 1.11395 -1.10748 0 0 1
3.48219 -0.4 -0.75 0 -1.5708 0 0 1
3.48219 -0.4 -2.25 0 -1.5708 0 0 1
2.97781 -0.4 -2.25 0 -1.5708 0 0 1
2.97781 -0.4 -0.75 0 -1.5708 0 0 1
2.97781 -0.4 -0.75 -1.11395 -1.10749 0 0 1
2.97781 -0.4 -2.25 -1.11395 -1.10749 0 0 1
2.71 -0.130625 -2.25 -1.11395 -1.10749 0 0 1
2.71 -0.130625 -0.75 -1.11395 -1.10749 0 0 1
2.71 -0.130625 -0.75 -1.5708 0 0 0 1
2.71 -0.130625 -2.25 -1.5708 0 0 0 1
2.71 2.77 -2.25 -1.5708 0 0 0 1
2.71 2.77 -0.75 -1.5708 0 0 0 1
2.71 2.77 -0.75 0 -1.5708 0 0 1
2.71 2.77 -2.25 0 -1.5708 0 0 1
1.11 2.77 -2.25 0 -1.5708 0 0 1
1.11 2.77 -0.75 0 -1.5708 0 0 1
1.11 2.77 -0.75 1.5708 0 0 0 1
1.11 2.77 -2.25 1.5708 0 0 0 1
1.11 1.9775 -2.25 1.5708 0 0 0 1
1.11 1.9775 -0.75 1.5708 0 0 0 1
1.11 1.9775 -0.75 1.10345 1.11795 0 0 1
1.11 1.9775 -2.25 1.10345 1.11795 0 0 1
1.64 1.45438 -2.25 1.10345 1.11795 0 0 1
1.64 1.45438 -0.75 1.10345 1.11795 0 0 1
1.64 1.45438 -0.75 1.5708 0 0 0 1
1.64 1.45438 -2.25 1.5708 0 0 0 1
1.64 -0.130625 -2.25 1.5708 0 0 0 1
1.64 -0.130625 -0.75 1.5708 0 0 0 1
1.64 -0.130625 -0.75 1.10943 -1.11201 0 0 1
1.64 -0.130625 -2.25 1.10943 -1.11201 0 0 1
1.37 -0.4 -2.25 1.10943 -1.11201 0 0 1
1.37 -0.4 -0.75 1.10943 -1.11201 0 0 1
1.37 -0.4 -0.75 0 -1.5708 0 0 1
1.37 -0.4 -2.25 0 -1.5708 0 0 1
0.33 -0.4 -2.25 0 -1.5708 0 0 1
0.33 -0.4 -0.75 0 -1.5708 0 0 1
5.06094 3.3 -0.75 0 0 2.35561 0 1
0.329062 3.3 -0.75 0 0 0.596267 0 1
1.11 2.77 -0.75 0 0 2.54533 0 1
2.71 2.77 -0.75 0 0 3.14159 0 1
3.23 2.77 -0.75 0 0 3.14159 0 1
4.81 2.77 -0.75 0 0 4.5498 0 1
5.33 -0.4 -0.75 0 0 0.16259 0 1
5.33 3.03063 -0.75 0 0 2.35678 0 1
3.75 -0.130625 -0.75 0 0 2.3591 0 1
3.75 1.45438 -0.75 0 0 2.35919 0 1
3.48219 -0.4 -0.75 0 0 2.35328 0 1
3.23 1.9775 -0.75 0 0 3.92399 0 1
2.97781 -0.4 -0.75 0 0 1.65508 0 1
3.23 2.77 -0.75 0 0 1.5708 0 1
2.71 2.77 -0.75 0 0 1.48651 0 1
0.33 -0.4 -0.75 0 0 2.35735 0 1
1.37 -0.4 -0.75 0 0 1.46187 0 1
1.11 1.9775 -0.75 0 0 3.25052 0 1
1.11 2.77 -0.75 0 0 2.16706 0 1
0.329062 3.3 -0.75 0 0 1.75935 0 1
0.06 3.03063 -0.75 0 0 2.35678 0 1
0.06 -0.130625 -0.75 0 0 2.35504 0 1
1.64 1.45438 -0.75 0 0 2.34967 0 1
1.11 1.9775 -0.75 0 0 0.683001 0 1
1.37 -0.4 -0.75 0 0 0.895483 0 1
1.64 -0.130625 -0.75 0 0 2.35504 0 1
2.97781 -0.4 -0.75 0 0 0.698207 0 1
2.71 2.77 -0.75 0 0 0.0842842 0 1
2.71 -0.130625 -0.75 0 0 2.3591 0 1
5.33 -0.4 -0.75 0 0 1.40821 0 1
4.81 2.77 -0.75 0 0 0.16259 0 1
4.81 -0.4 -0.75 0 0 1.5708 0 1
5.06094 3.3 -2.25 0 0 -2.35561 0 1
0.329062 3.3 -2.25 0 0 -0.596267 0 1
1.11 2.77 -2.25 0 0 -2.54533 0 1
2.71 2.77 -2.25 0 0 -3.14159 0 1
3.23 2.77 -2.25 0 0 -3.14159 0 1
4.81 2.77 -2.25 0 0 -4.5498 0 1
5.33 -0.4 -2.25 0 0 -0.16259 0 1
5.33 3.03063 -2.25 0 0 -2.35678 0 1
3.75 -0.130625 -2.25 0 0 -2.3591 0 1
3.75 1.45438 -2.25 0 0 -2.35919 0 1
3.48219 -0.4 -2.25 0 0 -2.35328 0 1
3.23 1.9775 -2.25 0 0 -3.92399 0 1
2.97781 -0.4 -2.25 0 0 -1.65508 0 1
3.23 2.77 -2.25 0 0 -1.5708 0 1
2.71 2.77 -2.25 0 0 -1.48651 0 1
0.33 -0.4 -2.25 0 0 -2.35735 0 1
1.37 -0.4 -2.25 0 0 -1.46187 0 1
1.11 1.9775 -2.25 0 0 -3.25052 0 1
1.11 2.77 -2.25 0 0 -2.16706 0 1
0.329062 3.3 -2.25 0 0 -1.75935 0 1
0.06 3.03063 -2.25 0 0 -2.35678 0 1
0.06 -0.130625 -2.25 0 0 -2.35504 0 1
1.64 1.45438 -2.25 0 0 -2.34967 0 1
1.11 1.9775 -2.25 0 0 -0.683001 0 1
1.37 -0.4 -2.25 0 0 -0.895483 0 1
1.64 -0.130625 -2.25 0 0 -2.35504 0 1
2.97781 -0.4 -2.25 0 0 -0.698207 0 1
2.71 2.77 -2.25 0 0 -0.0842842 0 1
2.71 -0.130625 -2.25 0 0 -2.3591 0 1
5.33 -0.4 -2.25 0 0 -1.40821 0 1
4.81 2.77 -2.25 0 0 -0.16259 0 1
4.81 -0.4 -2.25 0 0 -1.5708 0 1
3 0 2 1 
3 0 3 2 
3 4 6 5 
3 4 7 6 
3 8 10 9 
3 8 11 10 
3 12 14 13 
3 12 15 14 
3 16 18 17 
3 16 19 18 
3 20 22 21 
3 20 23 22 
3 24 26 25 
3 24 27 26 
3 28 30 29 
3 28 31 30 
3 32 34 33 
3 32 35 34 
3 36 38 37 
3 36 39 38 
3 40 42 41 
3 40 43 42 
3 44 46 45 
3 44 47 46 
3 48 50 49 
3 48 51 50 
3 52 54 53 
3 52 55 54 
3 56 58 57 
3 56 59 58 
3 60 62 61 
3 60 63 62 
3 64 66 65 
3 64 67 66 
3 68 70 69 
3 68 71 70 
3 72 74 73 
3 72 75 74 
3 76 78 77 
3 76 79 78 
3 80 82 81 
3 80 83 82 
3 84 86 85 
3 84 87 86 
3 88 89 90 
3 88 90 91 
3 88 91 92 
3 88 92 93 
3 88 93 94 
3 88 94 95 
3 96 97 98 
3 98 97 99 
3 98 99 100 
3 100 99 101 
3 100 101 102 
3 103 104 105 
3 103 105 106 
3 103 106 107 
3 103 107 108 
3 103 108 109 
3 110 111 112 
3 110 112 113 
3 114 115 116 
3 117 118 119 
3 120 122 121 
3 120 123 122 
3 120 124 123 
3 120 125 124 
3 120 126 125 
3 120 127 126 
3 128 130 129 
3 130 131 129 
3 130 132 131 
3 132 133 131 
3 132 134 133 
3 135 137 136 
3 135 138 137 
3 135 139 138 
3 135 140 139 
3 135 141 140 
3 142 144 143 
3 142 145 144 
3 146 148 147 
3 149 151 150 
