ply
format ascii 1.0
comment VCGLIB generated
element vertex 124
property float x
property float y
property float z
property float nx
property float ny
property float nz
property float texture_u
property float texture_v
element face 68
property list uchar int vertex_indices
end_header
1.68 1.18 -0.75 1.5708 0 0 0 1
1.68 1.18 -2.25 1.5708 0 0 0 1
1.68 -0.123438 -2.25 1.5708 0 0 0 1
1.68 -0.123438 -0.75 1.5708 0 0 0 1
1.68 -0.123438 -0.75 1.11009 -1.11135 0 0 1
1.68 -0.123438 -2.25 1.11009 -1.11135 0 0 1
1.40313 -0.4 -2.25 1.11009 -1.11135 0 0 1
1.40313 -0.4 -0.75 1.11009 -1.11135 0 0 1
1.40313 -0.4 -0.75 0 -1.5708 0 0 1
1.40313 -0.4 -2.25 0 -1.5708 0 0 1
0.366875 -0.4 -2.25 0 -1.5708 0 0 1
0.366875 -0.4 -0.75 0 -1.5708 0 0 1
0.366875 -0.4 -0.75 -1.11103 -1.11041 0 0 1
0.366875 -0.4 -2.25 -1.11103 -1.11041 0 0 1
0.09 -0.122969 -2.25 -1.11103 -1.11041 0 0 1
0.09 -0.122969 -0.75 -1.11103 -1.11041 0 0 1
0.09 -0.122969 -0.75 -1.5708 0 0 0 1
0.09 -0.122969 -2.25 -1.5708 0 0 0 1
0.09 4.07297 -2.25 -1.5708 0 0 0 1
0.09 4.07297 -0.75 -1.5708 0 0 0 1
0.09 4.07297 -0.75 -1.11009 1.11135 0 0 1
0.09 4.07297 -2.25 -1.11009 1.11135 0 0 1
0.367344 4.35 -2.25 -1.11009 1.11135 0 0 1
0.367344 4.35 -0.75 -1.11009 1.11135 0 0 1
0.367344 4.35 -0.75 0 1.5708 0 0 1
0.367344 4.35 -2.25 0 1.5708 0 0 1
0.882656 4.35 -2.25 0 1.5708 0 0 1
0.882656 4.35 -0.75 0 1.5708 0 0 1
0.882656 4.35 -0.75 1.11103 1.11041 0 0 1
0.882656 4.35 -2.25 1.11103 1.11041 0 0 1
1.16 4.0725 -2.25 1.11103 1.11041 0 0 1
1.16 4.0725 -0.75 1.11103 1.11041 0 0 1
1.16 4.0725 -0.75 1.5708 0 0 0 1
1.16 4.0725 -2.25 1.5708 0 0 0 1
1.16 1.71 -2.25 1.5708 0 0 0 1
1.16 1.71 -0.75 1.5708 0 0 0 1
1.16 1.71 -0.75 0 1.5708 0 0 1
1.16 1.71 -2.25 0 1.5708 0 0 1
2.22 1.71 -2.25 0 1.5708 0 0 1
2.22 1.71 -0.75 0 1.5708 0 0 1
2.22 1.71 -0.75 -1.5708 0 0 0 1
2.22 1.71 -2.25 -1.5708 0 0 0 1
2.22 3.30266 -2.25 -1.5708 0 0 0 1
2.22 3.30266 -0.75 -1.5708 0 0 0 1
2.22 3.30266 -0.75 0 1.5708 0 0 1
2.22 3.30266 -2.25 0 1.5708 0 0 1
2.74 3.30266 -2.25 0 1.5708 0 0 1
2.74 3.30266 -0.75 0 1.5708 0 0 1
2.74 3.30266 -0.75 1.5708 0 0 0 1
2.74 3.30266 -2.25 1.5708 0 0 0 1
2.74 1.97859 -2.25 1.5708 0 0 0 1
2.74 1.97859 -0.75 1.5708 0 0 0 1
2.74 1.97859 -0.75 1.11421 1.10722 0 0 1
2.74 1.97859 -2.25 1.11421 1.10722 0 0 1
3.26 1.45531 -2.25 1.11421 1.10722 0 0 1
3.26 1.45531 -0.75 1.11421 1.10722 0 0 1
3.26 1.45531 -0.75 1.5708 0 0 0 1
3.26 1.45531 -2.25 1.5708 0 0 0 1
3.26 -0.4 -2.25 1.5708 0 0 0 1
3.26 -0.4 -0.75 1.5708 0 0 0 1
3.26 -0.4 -0.75 0 -1.5708 0 0 1
3.26 -0.4 -2.25 0 -1.5708 0 0 1
2.74 -0.4 -2.25 0 -1.5708 0 0 1
2.74 -0.4 -0.75 0 -1.5708 0 0 1
2.74 -0.4 -0.75 -1.5708 0 0 0 1
2.74 -0.4 -2.25 -1.5708 0 0 0 1
2.74 1.18 -2.25 -1.5708 0 0 0 1
2.74 1.18 -0.75 -1.5708 0 0 0 1
2.74 1.18 -0.75 0 -1.5708 0 0 1
2.74 1.18 -2.25 0 -1.5708 0 0 1
1.68 1.18 -2.25 0 -1.5708 0 0 1
1.68 1.18 -0.75 0 -1.5708 0 0 1
1.16 1.71 -0.75 0 0 4.71239 0 1
1.16 4.0725 -0.75 0 0 2.35648 0 1
0.882656 4.35 -0.75 0 0 2.35591 0 1
0.367344 4.35 -0.75 0 0 1.3561 0 1
1.40313 -0.4 -0.75 0 0 0.388174 0 1
1.68 1.18 -0.75 0 0 3.76286 0 1
2.22 1.71 -0.75 0 0 0.776053 0 1
2.74 1.18 -0.75 0 0 4.71239 0 1
2.74 -0.4 -0.75 0 0 1.5708 0 1
3.26 -0.4 -0.75 0 0 1.35557 0 1
2.74 1.97859 -0.75 0 0 0.21523 0 1
2.74 3.30266 -0.75 0 0 1.5708 0 1
2.22 3.30266 -0.75 0 0 1.5708 0 1
2.22 1.71 -0.75 0 0 3.93634 0 1
1.68 1.18 -0.75 0 0 0.776053 0 1
0.366875 -0.4 -0.75 0 0 2.35591 0 1
1.40313 -0.4 -0.75 0 0 1.3561 0 1
0.367344 4.35 -0.75 0 0 1.00066 0 1
0.09 4.07297 -0.75 0 0 2.35563 0 1
0.09 -0.122969 -0.75 0 0 2.35648 0 1
2.74 1.97859 -0.75 0 0 0.567022 0 1
3.26 -0.4 -0.75 0 0 0.21523 0 1
3.26 1.45531 -0.75 0 0 2.35934 0 1
1.68 1.18 -0.75 0 0 0.173475 0 1
1.40313 -0.4 -0.75 0 0 0.612487 0 1
1.68 -0.123438 -0.75 0 0 2.35563 0 1
1.16 1.71 -2.25 0 0 -4.71239 0 1
1.16 4.0725 -2.25 0 0 -2.35648 0 1
0.882656 4.35 -2.25 0 0 -2.35591 0 1
0.367344 4.35 -2.25 0 0 -1.3561 0 1
1.40313 -0.4 -2.25 0 0 -0.388174 0 1
1.68 1.18 -2.25 0 0 -3.76286 0 1
2.22 1.71 -2.25 0 0 -0.776053 0 1
2.74 1.18 -2.25 0 0 -4.71239 0 1
2.74 -0.4 -2.25 0 0 -1.5708 0 1
3.26 -0.4 -2.25 0 0 -1.35557 0 1
2.74 1.97859 -2.25 0 0 -0.21523 0 1
2.74 3.30266 -2.25 0 0 -1.5708 0 1
2.22 3.30266 -2.25 0 0 -1.5708 0 1
2.22 1.71 -2.25 0 0 -3.93634 0 1
1.68 1.18 -2.25 0 0 -0.776053 0 1
0.366875 -0.4 -2.25 0 0 -2.35591 0 1
1.40313 -0.4 -2.25 0 0 -1.3561 0 1
0.367344 4.35 -2.25 0 0 -1.00066 0 1
0.09 4.07297 -2.25 0 0 -2.35563 0 1
0.09 -0.122969 -2.25 0 0 -2.35648 0 1
2.74 1.97859 -2.25 0 0 -0.567022 0 1
3.26 -0.4 -2.25 0 0 -0.21523 0 1
3.26 1.45531 -2.25 0 0 -2.35934 0 1
1.68 1.18 -2.25 0 0 -0.173475 0 1
1.40313 -0.4 -2.25 0 0 -0.612487 0 1
1.68 -0.123438 -2.25 0 0 -2.35563 0 1
3 0 2 1 
3 0 3 2 
3 4 6 5 
3 4 7 6 
3 8 10 9 
3 8 11 10 
3 12 14 13 
3 12 15 14 
3 16 18 17 
3 16 19 18 
3 20 22 21 
3 20 23 22 
3 24 26 25 
3 24 27 26 
3 28 30 29 
3 28 31 30 
3 32 34 33 
3 32 35 34 
3 36 38 37 
3 36 39 38 
3 40 42 41 
3 40 43 42 
3 44 46 45 
3 44 47 46 
3 48 50 49 
3 48 51 50 
3 52 54 53 
3 52 55 54 
3 56 58 57 
3 56 59 58 
3 60 62 61 
3 60 63 62 
3 64 66 65 
3 64 67 66 
3 68 70 69 
3 68 71 70 
3 72 73 74 
3 72 74 75 
3 72 75 76 
3 72 76 77 
3 72 77 78 
3 79 80 81 
3 79 81 82 
3 79 82 83 
3 79 83 84 
3 79 84 85 
3 79 85 86 
3 87 88 89 
3 87 89 90 
3 87 90 91 
3 92 93 94 
3 95 96 97 
3 98 100 99 
3 98 101 100 
3 98 102 101 
3 98 103 102 
3 98 104 103 
3 105 107 106 
3 105 108 107 
3 105 109 108 
3 105 110 109 
3 105 111 110 
3 105 112 111 
3 113 115 114 
3 113 116 115 
3 113 117 116 
3 118 120 119 
3 121 123 122 
