ply
format ascii 1.0
comment VCGLIB generated
element vertex 54
property float x
property float y
property float z
property float nx
property float ny
property float nz
property float texture_u
property float texture_v
element face 32
property list uchar int vertex_indices
end_header
1.62797 4.35 -0.75 1.10773 1.1137 0 0 1
1.62797 4.35 -2.25 1.10773 1.1137 0 0 1
1.89 4.08938 -2.25 1.10773 1.1137 0 0 1
1.89 4.08938 -0.75 1.10773 1.1137 0 0 1
1.89 4.08938 -0.75 1.5708 0 0 0 1
1.89 4.08938 -2.25 1.5708 0 0 0 1
1.89 2.77 -2.25 1.5708 0 0 0 1
1.89 2.77 -0.75 1.5708 0 0 0 1
1.89 2.77 -0.75 0 -1.5708 0 0 1
1.89 2.77 -2.25 0 -1.5708 0 0 1
1.37 2.77 -2.25 0 -1.5708 0 0 1
1.37 2.77 -0.75 0 -1.5708 0 0 1
1.37 2.77 -0.75 -1.5708 0 0 0 1
1.37 2.77 -2.25 -1.5708 0 0 0 1
1.37 3.3 -2.25 -1.5708 0 0 0 1
1.37 3.3 -0.75 -1.5708 0 0 0 1
1.37 3.3 -0.75 0 -1.5708 0 0 1
1.37 3.3 -2.25 0 -1.5708 0 0 1
0.571094 3.3 -2.25 0 -1.5708 0 0 1
0.571094 3.3 -0.75 0 -1.5708 0 0 1
0.571094 3.3 -0.75 -1.10939 -1.11205 0 0 1
0.571094 3.3 -2.25 -1.10939 -1.11205 0 0 1
0.31 3.56047 -2.25 -1.10939 -1.11205 0 0 1
0.31 3.56047 -0.75 -1.10939 -1.11205 0 0 1
0.31 3.56047 -0.75 -1.5708 0 0 0 1
0.31 3.56047 -2.25 -1.5708 0 0 0 1
0.31 4.08953 -2.25 -1.5708 0 0 0 1
0.31 4.08953 -0.75 -1.5708 0 0 0 1
0.31 4.08953 -0.75 -1.1074 1.11404 0 0 1
0.31 4.08953 -2.25 -1.1074 1.11404 0 0 1
0.572031 4.35 -2.25 -1.1074 1.11404 0 0 1
0.572031 4.35 -0.75 -1.1074 1.11404 0 0 1
0.572031 4.35 -0.75 0 1.5708 0 0 1
0.572031 4.35 -2.25 0 1.5708 0 0 1
1.62797 4.35 -2.25 0 1.5708 0 0 1
1.62797 4.35 -0.75 0 1.5708 0 0 1
1.62797 4.35 -0.75 0 0 2.35888 0 1
0.572031 4.35 -0.75 0 0 2.35918 0 1
0.31 4.08953 -0.75 0 0 2.3532 0 1
0.31 3.56047 -0.75 0 0 2.355 0 1
0.571094 3.3 -0.75 0 0 2.35739 0 1
1.37 3.3 -0.75 0 0 4.71239 0 1
1.37 2.77 -0.75 0 0 1.5708 0 1
1.89 2.77 -0.75 0 0 1.5708 0 1
1.89 4.08938 -0.75 0 0 2.3535 0 1
1.62797 4.35 -2.25 0 0 -2.35888 0 1
0.572031 4.35 -2.25 0 0 -2.35918 0 1
0.31 4.08953 -2.25 0 0 -2.3532 0 1
0.31 3.56047 -2.25 0 0 -2.355 0 1
0.571094 3.3 -2.25 0 0 -2.35739 0 1
1.37 3.3 -2.25 0 0 -4.71239 0 1
1.37 2.77 -2.25 0 0 -1.5708 0 1
1.89 2.77 -2.25 0 0 -1.5708 0 1
1.89 4.08938 -2.25 0 0 -2.3535 0 1
3 0 2 1 
3 0 3 2 
3 4 6 5 
3 4 7 6 
3 8 10 9 
3 8 11 10 
3 12 14 13 
3 12 15 14 
3 16 18 17 
3 16 19 18 
3 20 22 21 
3 20 23 22 
3 24 26 25 
3 24 27 26 
3 28 30 29 
3 28 31 30 
3 32 34 33 
3 32 35 34 
3 36 37 38 
3 36 38 39 
3 36 39 40 
3 36 40 41 
3 36 41 42 
3 36 42 43 
3 36 43 44 
3 45 47 46 
3 45 48 47 
3 45 49 48 
3 45 50 49 
3 45 51 50 
3 45 52 51 
3 45 53 52 
