ply
format ascii 1.0
comment VCGLIB generated
element vertex 160
property float x
property float y
property float z
property float nx
property float ny
property float nz
property float texture_u
property float texture_v
element face 92
property list uchar int vertex_indices
end_header
0.539688 1.98 -0.75 -1.10846 -1.11298 0 0 1
0.539688 1.98 -2.25 -1.10846 -1.11298 0 0 1
0.27 2.24859 -2.25 -1.10846 -1.11298 0 0 1
0.27 2.24859 -0.75 -1.10846 -1.11298 0 0 1
0.27 2.24859 -0.75 -1.5708 0 0 0 1
0.27 2.24859 -2.25 -1.5708 0 0 0 1
0.27 4.08938 -2.25 -1.5708 0 0 0 1
0.27 4.08938 -0.75 -1.5708 0 0 0 1
0.27 4.08938 -0.75 -1.10806 1.11338 0 0 1
0.27 4.08938 -2.25 -1.10806 1.11337 0 0 1
0.531875 4.35 -2.25 -1.10806 1.11338 0 0 1
0.531875 4.35 -0.75 -1.10806 1.11337 0 0 1
0.531875 4.35 -0.75 0 1.5708 0 0 1
0.531875 4.35 -2.25 0 1.5708 0 0 1
2.38812 4.35 -2.25 0 1.5708 0 0 1
2.38812 4.35 -0.75 0 1.5708 0 0 1
2.38812 4.35 -0.75 1.10806 1.11338 0 0 1
2.38812 4.35 -2.25 1.10806 1.11338 0 0 1
2.65 4.08938 -2.25 1.10806 1.11338 0 0 1
2.65 4.08938 -0.75 1.10806 1.11338 0 0 1
2.65 4.08938 -0.75 1.5708 0 0 0 1
2.65 4.08938 -2.25 1.5708 0 0 0 1
2.65 2.24859 -2.25 1.5708 0 0 0 1
2.65 2.24859 -0.75 1.5708 0 0 0 1
2.65 2.24859 -0.75 1.10846 -1.11297 0 0 1
2.65 2.24859 -2.25 1.10846 -1.11297 0 0 1
2.38031 1.98 -2.25 1.10846 -1.11297 0 0 1
2.38031 1.98 -0.75 1.10846 -1.11297 0 0 1
2.38031 1.98 -0.75 0 -1.5708 0 0 1
2.38031 1.98 -2.25 0 -1.5708 0 0 1
0.539688 1.98 -2.25 0 -1.5708 0 0 1
0.539688 1.98 -0.75 0 -1.5708 0 0 1
2.38 4.09 -0.75 0 -1.5708 0 0 1
2.38 4.09 -2.25 0 -1.5708 0 0 1
0.54 4.09 -2.25 0 -1.5708 0 0 1
0.54 4.09 -0.75 0 -1.5708 0 0 1
0.54 4.09 -0.75 1.5708 0 0 0 1
0.54 4.09 -2.25 1.5708 0 0 0 1
0.54 2.25 -2.25 1.5708 0 0 0 1
0.54 2.25 -0.75 1.5708 0 0 0 1
0.54 2.25 -0.75 0 1.5708 0 0 1
0.54 2.25 -2.25 0 1.5708 0 0 1
2.38 2.25 -2.25 0 1.5708 0 0 1
2.38 2.25 -0.75 0 1.5708 0 0 1
2.38 2.25 -0.75 -1.5708 0 0 0 1
2.38 2.25 -2.25 -1.5708 0 0 0 1
2.38 4.09 -2.25 -1.5708 0 0 0 1
2.38 4.09 -0.75 -1.5708 0 0 0 1
2.12 2.51 -0.75 0 -1.5708 0 0 1
2.12 2.51 -2.25 0 -1.5708 0 0 1
0.79 2.51 -2.25 0 -1.5708 0 0 1
0.79 2.51 -0.75 0 -1.5708 0 0 1
0.79 2.51 -0.75 -1.5708 0 0 0 1
0.79 2.51 -2.25 -1.5708 0 0 0 1
0.79 3.84 -2.25 -1.5708 0 0 0 1
0.79 3.84 -0.75 -1.5708 0 0 0 1
0.79 3.84 -0.75 0 1.5708 0 0 1
0.79 3.84 -2.25 0 1.5708 0 0 1
2.12 3.84 -2.25 0 1.5708 0 0 1
2.12 3.84 -0.75 0 1.5708 0 0 1
2.12 3.84 -0.75 1.5708 0 0 0 1
2.12 3.84 -2.25 1.5708 0 0 0 1
2.12 3.31 -2.25 1.5708 0 0 0 1
2.12 3.31 -0.75 1.5708 0 0 0 1
2.12 3.31 -0.75 0 -1.5708 0 0 1
2.12 3.31 -2.25 0 -1.5708 0 0 1
1.86 3.31 -2.25 0 -1.5708 0 0 1
1.86 3.31 -0.75 0 -1.5708 0 0 1
1.86 3.31 -0.75 -1.5708 0 0 0 1
1.86 3.31 -2.25 -1.5708 0 0 0 1
1.86 3.57 -2.25 -1.5708 0 0 0 1
1.86 3.57 -0.75 -1.5708 0 0 0 1
1.86 3.57 -0.75 0 -1.5708 0 0 1
1.86 3.57 -2.25 0 -1.5708 0 0 1
1.33 3.57 -2.25 0 -1.5708 0 0 1
1.33 3.57 -0.75 0 -1.5708 0 0 1
1.33 3.57 -0.75 1.5708 0 0 0 1
1.33 3.57 -2.25 1.5708 0 0 0 1
1.33 2.77 -2.25 1.5708 0 0 0 1
1.33 2.77 -0.75 1.5708 0 0 0 1
1.33 2.77 -0.75 0 1.5708 0 0 1
1.33 2.77 -2.25 0 1.5708 0 0 1
1.86 2.77 -2.25 0 1.5708 0 0 1
1.86 2.77 -0.75 0 1.5708 0 0 1
1.86 2.77 -0.75 -1.5708 0 0 0 1
1.86 2.77 -2.25 -1.5708 0 0 0 1
1.86 3.04 -2.25 -1.5708 0 0 0 1
1.86 3.04 -0.75 -1.5708 0 0 0 1
1.86 3.04 -0.75 0 1.5708 0 0 1
1.86 3.04 -2.25 0 1.5708 0 0 1
2.12 3.04 -2.25 0 1.5708 0 0 1
2.12 3.04 -0.75 0 1.5708 0 0 1
2.12 3.04 -0.75 1.5708 0 0 0 1
2.12 3.04 -2.25 1.5708 0 0 0 1
2.12 2.51 -2.25 1.5708 0 0 0 1
2.12 2.51 -0.75 1.5708 0 0 0 1
2.38812 4.35 -0.75 0 0 2.35859 0 1
0.531875 4.35 -0.75 0 0 1.53956 0 1
0.54 4.09 -0.75 0 0 1.60204 0 1
2.38 4.09 -0.75 0 0 4.71224 0 1
2.38031 1.98 -0.75 0 0 0.787568 0 1
2.65 2.24859 -0.75 0 0 2.35416 0 1
2.65 4.08938 -0.75 0 0 2.3538 0 1
0.539688 1.98 -0.75 0 0 2.35819 0 1
2.38031 1.98 -0.75 0 0 0.145675 0 1
0.54 2.25 -0.75 0 0 4.56672 0 1
0.54 4.09 -0.75 0 0 3.11021 0 1
0.531875 4.35 -0.75 0 0 0.819029 0 1
0.27 4.08938 -0.75 0 0 2.3538 0 1
0.27 2.24859 -0.75 0 0 2.35416 0 1
2.38 2.25 -0.75 0 0 4.7124 0 1
0.54 2.25 -0.75 0 0 0.145675 0 1
2.38031 1.98 -0.75 0 0 1.42494 0 1
2.38 4.09 -0.75 0 0 0 0 1
2.12 2.51 -0.75 0 0 1.5708 0 1
2.12 3.04 -0.75 0 0 1.5708 0 1
1.86 3.04 -0.75 0 0 1.5708 0 1
1.86 2.77 -0.75 0 0 4.71239 0 1
1.33 2.77 -0.75 0 0 2.69287 0 1
0.79 2.51 -0.75 0 0 0.448723 0 1
1.86 3.31 -0.75 0 0 1.5708 0 1
2.12 3.31 -0.75 0 0 1.5708 0 1
1.86 3.57 -0.75 0 0 4.71239 0 1
2.12 3.84 -0.75 0 0 1.5708 0 1
1.33 3.57 -0.75 0 0 4.71239 0 1
0.79 3.84 -0.75 0 0 1.5708 0 1
1.33 2.77 -0.75 0 0 2.01952 0 1
0.79 2.51 -0.75 0 0 1.12207 0 1
2.38812 4.35 -2.25 0 0 -2.35859 0 1
0.531875 4.35 -2.25 0 0 -1.53956 0 1
0.54 4.09 -2.25 0 0 -1.60204 0 1
2.38 4.09 -2.25 0 0 -4.71224 0 1
2.38031 1.98 -2.25 0 0 -0.787568 0 1
2.65 2.24859 -2.25 0 0 -2.35416 0 1
2.65 4.08938 -2.25 0 0 -2.3538 0 1
0.539688 1.98 -2.25 0 0 -2.35819 0 1
2.38031 1.98 -2.25 0 0 -0.145675 0 1
0.54 2.25 -2.25 0 0 -4.56672 0 1
0.54 4.09 -2.25 0 0 -3.11021 0 1
0.531875 4.35 -2.25 0 0 -0.819029 0 1
0.27 4.08938 -2.25 0 0 -2.3538 0 1
0.27 2.24859 -2.25 0 0 -2.35416 0 1
2.38 2.25 -2.25 0 0 -4.7124 0 1
0.54 2.25 -2.25 0 0 -0.145675 0 1
2.38031 1.98 -2.25 0 0 -1.42494 0 1
2.38 4.09 -2.25 0 0 0 0 1
2.12 2.51 -2.25 0 0 -1.5708 0 1
2.12 3.04 -2.25 0 0 -1.5708 0 1
1.86 3.04 -2.25 0 0 -1.5708 0 1
1.86 2.77 -2.25 0 0 -4.71239 0 1
1.33 2.77 -2.25 0 0 -2.69287 0 1
0.79 2.51 -2.25 0 0 -0.448723 0 1
1.86 3.31 -2.25 0 0 -1.5708 0 1
2.12 3.31 -2.25 0 0 -1.5708 0 1
1.86 3.57 -2.25 0 0 -4.71239 0 1
2.12 3.84 -2.25 0 0 -1.5708 0 1
1.33 3.57 -2.25 0 0 -4.71239 0 1
0.79 3.84 -2.25 0 0 -1.5708 0 1
1.33 2.77 -2.25 0 0 -2.01952 0 1
0.79 2.51 -2.25 0 0 -1.12207 0 1
3 0 2 1 
3 0 3 2 
3 4 6 5 
3 4 7 6 
3 8 10 9 
3 8 11 10 
3 12 14 13 
3 12 15 14 
3 16 18 17 
3 16 19 18 
3 20 22 21 
3 20 23 22 
3 24 26 25 
3 24 27 26 
3 28 30 29 
3 28 31 30 
3 32 34 33 
3 32 35 34 
3 36 38 37 
3 36 39 38 
3 40 42 41 
3 40 43 42 
3 44 46 45 
3 44 47 46 
3 48 50 49 
3 48 51 50 
3 52 54 53 
3 52 55 54 
3 56 58 57 
3 56 59 58 
3 60 62 61 
3 60 63 62 
3 64 66 65 
3 64 67 66 
3 68 70 69 
3 68 71 70 
3 72 74 73 
3 72 75 74 
3 76 78 77 
3 76 79 78 
3 80 82 81 
3 80 83 82 
3 84 86 85 
3 84 87 86 
3 88 90 89 
3 88 91 90 
3 92 94 93 
3 92 95 94 
3 96 97 98 
3 96 98 99 
3 96 99 100 
3 96 100 101 
3 96 101 102 
3 103 104 105 
3 103 105 106 
3 103 106 107 
3 103 107 108 
3 103 108 109 
3 110 111 112 
3 110 112 113 
3 114 115 116 
3 114 116 117 
3 114 117 118 
3 114 118 119 
3 120 121 122 
3 122 121 123 
3 122 123 124 
3 124 123 125 
3 124 125 126 
3 126 125 127 
3 128 130 129 
3 128 131 130 
3 128 132 131 
3 128 133 132 
3 128 134 133 
3 135 137 136 
3 135 138 137 
3 135 139 138 
3 135 140 139 
3 135 141 140 
3 142 144 143 
3 142 145 144 
3 146 148 147 
3 146 149 148 
3 146 150 149 
3 146 151 150 
3 152 154 153 
3 154 155 153 
3 154 156 155 
3 156 157 155 
3 156 158 157 
3 158 159 157 
