ply
format ascii 1.0
comment VCGLIB generated
element vertex 68
property float x
property float y
property float z
property float nx
property float ny
property float nz
property float texture_u
property float texture_v
element face 36
property list uchar int vertex_indices
end_header
0.781406 -1.45 -0.75 -1.11105 -1.11039 0 0 1
0.781406 -1.45 -2.25 -1.11105 -1.11039 0 0 1
0.52 -1.18844 -2.25 -1.11105 -1.11039 0 0 1
0.52 -1.18844 -0.75 -1.11105 -1.11039 0 0 1
0.52 -1.18844 -0.75 -1.5708 0 0 0 1
0.52 -1.18844 -2.25 -1.5708 0 0 0 1
0.52 5.15063 -2.25 -1.5708 0 0 0 1
0.52 5.15063 -0.75 -1.5708 0 0 0 1
0.52 5.15063 -0.75 -1.11104 1.1104 0 0 1
0.52 5.15063 -2.25 -1.11104 1.1104 0 0 1
0.789219 5.42 -2.25 -1.11104 1.1104 0 0 1
0.789219 5.42 -0.75 -1.11104 1.1104 0 0 1
0.789219 5.42 -0.75 0 1.5708 0 0 1
0.789219 5.42 -2.25 0 1.5708 0 0 1
2.10406 5.42 -2.25 0 1.5708 0 0 1
2.10406 5.42 -0.75 0 1.5708 0 0 1
2.10406 5.42 -0.75 1.5708 0 0 0 1
2.10406 5.42 -2.25 1.5708 0 0 0 1
2.10406 4.89 -2.25 1.5708 0 0 0 1
2.10406 4.89 -0.75 1.5708 0 0 0 1
2.10406 4.89 -0.75 0 -1.5708 0 0 1
2.10406 4.89 -2.25 0 -1.5708 0 0 1
1.04 4.89 -2.25 0 -1.5708 0 0 1
1.04 4.89 -0.75 0 -1.5708 0 0 1
1.04 4.89 -0.75 1.5708 0 0 0 1
1.04 4.89 -2.25 1.5708 0 0 0 1
1.04 -0.92 -2.25 1.5708 0 0 0 1
1.04 -0.92 -0.75 1.5708 0 0 0 1
1.04 -0.92 -0.75 0 1.5708 0 0 1
1.04 -0.92 -2.25 0 1.5708 0 0 1
2.10406 -0.92 -2.25 0 1.5708 0 0 1
2.10406 -0.92 -0.75 0 1.5708 0 0 1
2.10406 -0.92 -0.75 1.5708 0 0 0 1
2.10406 -0.92 -2.25 1.5708 0 0 0 1
2.10406 -1.45 -2.25 1.5708 0 0 0 1
2.10406 -1.45 -0.75 1.5708 0 0 0 1
2.10406 -1.45 -0.75 0 -1.5708 0 0 1
2.10406 -1.45 -2.25 0 -1.5708 0 0 1
0.781406 -1.45 -2.25 0 -1.5708 0 0 1
0.781406 -1.45 -0.75 0 -1.5708 0 0 1
1.04 -0.92 -0.75 0 0 4.71239 0 1
1.04 4.89 -0.75 0 0 2.69964 0 1
0.789219 5.42 -0.75 0 0 0.443091 0 1
0.781406 -1.45 -0.75 0 0 1.56966 0 1
2.10406 -1.45 -0.75 0 0 1.5708 0 1
2.10406 -0.92 -0.75 0 0 1.5708 0 1
0.52 5.15063 -0.75 0 0 2.35648 0 1
0.52 -1.18844 -0.75 0 0 2.35649 0 1
0.781406 -1.45 -0.75 0 0 0.786233 0 1
0.789219 5.42 -0.75 0 0 0.78397 0 1
2.10406 5.42 -0.75 0 0 1.5708 0 1
0.789219 5.42 -0.75 0 0 1.12884 0 1
1.04 4.89 -0.75 0 0 2.01275 0 1
2.10406 4.89 -0.75 0 0 1.5708 0 1
1.04 -0.92 -2.25 0 0 -4.71239 0 1
1.04 4.89 -2.25 0 0 -2.69964 0 1
0.789219 5.42 -2.25 0 0 -0.443091 0 1
0.781406 -1.45 -2.25 0 0 -1.56966 0 1
2.10406 -1.45 -2.25 0 0 -1.5708 0 1
2.10406 -0.92 -2.25 0 0 -1.5708 0 1
0.52 5.15063 -2.25 0 0 -2.35648 0 1
0.52 -1.18844 -2.25 0 0 -2.35649 0 1
0.781406 -1.45 -2.25 0 0 -0.786233 0 1
0.789219 5.42 -2.25 0 0 -0.78397 0 1
2.10406 5.42 -2.25 0 0 -1.5708 0 1
0.789219 5.42 -2.25 0 0 -1.12884 0 1
1.04 4.89 -2.25 0 0 -2.01275 0 1
2.10406 4.89 -2.25 0 0 -1.5708 0 1
3 0 2 1 
3 0 3 2 
3 4 6 5 
3 4 7 6 
3 8 10 9 
3 8 11 10 
3 12 14 13 
3 12 15 14 
3 16 18 17 
3 16 19 18 
3 20 22 21 
3 20 23 22 
3 24 26 25 
3 24 27 26 
3 28 30 29 
3 28 31 30 
3 32 34 33 
3 32 35 34 
3 36 38 37 
3 36 39 38 
3 40 41 42 
3 40 42 43 
3 40 43 44 
3 40 44 45 
3 46 47 48 
3 46 48 49 
3 50 51 52 
3 50 52 53 
3 54 56 55 
3 54 57 56 
3 54 58 57 
3 54 59 58 
3 60 62 61 
3 60 63 62 
3 64 66 65 
3 64 67 66 
