ply
format ascii 1.0
comment VCGLIB generated
element vertex 92
property float x
property float y
property float z
property float nx
property float ny
property float nz
property float texture_u
property float texture_v
element face 52
property list uchar int vertex_indices
end_header
3.93 4.08078 -0.75 1.5708 0 0 0 1
3.93 4.08078 -2.25 1.5708 0 0 0 1
3.93 -0.4 -2.25 1.5708 0 0 0 1
3.93 -0.4 -0.75 1.5708 0 0 0 1
3.93 -0.4 -0.75 0 -1.5708 0 0 1
3.93 -0.4 -2.25 0 -1.5708 0 0 1
3.41 -0.4 -2.25 0 -1.5708 0 0 1
3.41 -0.4 -0.75 0 -1.5708 0 0 1
3.41 -0.4 -0.75 -1.5708 0 0 0 1
3.41 -0.4 -2.25 -1.5708 0 0 0 1
3.41 3.82 -2.25 -1.5708 0 0 0 1
3.41 3.82 -0.75 -1.5708 0 0 0 1
3.41 3.82 -0.75 0 -1.5708 0 0 1
3.41 3.82 -2.25 0 -1.5708 0 0 1
1.29 3.82 -2.25 0 -1.5708 0 0 1
1.29 3.82 -0.75 0 -1.5708 0 0 1
1.29 3.82 -0.75 1.5708 0 0 0 1
1.29 3.82 -2.25 1.5708 0 0 0 1
1.29 3.01391 -2.25 1.5708 0 0 0 1
1.29 3.01391 -0.75 1.5708 0 0 0 1
1.29 3.01391 -0.75 1.10381 1.11758 0 0 1
1.29 3.01391 -2.25 1.10381 1.11758 0 0 1
1.81 2.50031 -2.25 1.10381 1.11758 0 0 1
1.81 2.50031 -0.75 1.10381 1.11758 0 0 1
1.81 2.50031 -0.75 1.5708 0 0 0 1
1.81 2.50031 -2.25 1.5708 0 0 0 1
1.81 -0.139219 -2.25 1.5708 0 0 0 1
1.81 -0.139219 -0.75 1.5708 0 0 0 1
1.81 -0.139219 -0.75 1.10806 -1.11337 0 0 1
1.81 -0.139219 -2.25 1.10806 -1.11337 0 0 1
1.54797 -0.4 -2.25 1.10806 -1.11337 0 0 1
1.54797 -0.4 -0.75 1.10806 -1.11337 0 0 1
1.54797 -0.4 -0.75 0 -1.5708 0 0 1
1.54797 -0.4 -2.25 0 -1.5708 0 0 1
0.492031 -0.4 -2.25 0 -1.5708 0 0 1
0.492031 -0.4 -0.75 0 -1.5708 0 0 1
0.492031 -0.4 -0.75 -1.10906 -1.11238 0 0 1
0.492031 -0.4 -2.25 -1.10906 -1.11238 0 0 1
0.23 -0.13875 -2.25 -1.10906 -1.11238 0 0 1
0.23 -0.13875 -0.75 -1.10906 -1.11238 0 0 1
0.23 -0.13875 -0.75 -1.5708 0 0 0 1
0.23 -0.13875 -2.25 -1.5708 0 0 0 1
0.23 4.08078 -2.25 -1.5708 0 0 0 1
0.23 4.08078 -0.75 -1.5708 0 0 0 1
0.23 4.08078 -0.75 -1.1104 1.11104 0 0 1
0.23 4.08078 -2.25 -1.1104 1.11104 0 0 1
0.499375 4.35 -2.25 -1.1104 1.11104 0 0 1
0.499375 4.35 -0.75 -1.1104 1.11104 0 0 1
0.499375 4.35 -0.75 0 1.5708 0 0 1
0.499375 4.35 -2.25 0 1.5708 0 0 1
3.66062 4.35 -2.25 0 1.5708 0 0 1
3.66062 4.35 -0.75 0 1.5708 0 0 1
3.66062 4.35 -0.75 1.1104 1.11104 0 0 1
3.66062 4.35 -2.25 1.1104 1.11104 0 0 1
3.93 4.08078 -2.25 1.1104 1.11104 0 0 1
3.93 4.08078 -0.75 1.1104 1.11104 0 0 1
3.41 -0.4 -0.75 0 0 1.5708 0 1
3.93 -0.4 -0.75 0 0 1.51415 0 1
3.41 3.82 -0.75 0 0 4.71239 0 1
3.66062 4.35 -0.75 0 0 1.62745 0 1
1.29 3.82 -0.75 0 0 4.71239 0 1
0.499375 4.35 -0.75 0 0 1.35352 0 1
1.29 3.01391 -0.75 0 0 3.93319 0 1
1.54797 -0.4 -0.75 0 0 1.00506 0 1
1.81 2.50031 -0.75 0 0 2.35 0 1
1.81 -0.139219 -0.75 0 0 2.3538 0 1
0.492031 -0.4 -0.75 0 0 2.35769 0 1
1.54797 -0.4 -0.75 0 0 1.35352 0 1
0.499375 4.35 -0.75 0 0 1.00296 0 1
0.23 4.08078 -0.75 0 0 2.35591 0 1
0.23 -0.13875 -0.75 0 0 2.3547 0 1
3.66062 4.35 -0.75 0 0 0.729038 0 1
3.93 -0.4 -0.75 0 0 0.0566503 0 1
3.93 4.08078 -0.75 0 0 2.3559 0 1
3.41 -0.4 -2.25 0 0 -1.5708 0 1
3.93 -0.4 -2.25 0 0 -1.51415 0 1
3.41 3.82 -2.25 0 0 -4.71239 0 1
3.66062 4.35 -2.25 0 0 -1.62745 0 1
1.29 3.82 -2.25 0 0 -4.71239 0 1
0.499375 4.35 -2.25 0 0 -1.35352 0 1
1.29 3.01391 -2.25 0 0 -3.93319 0 1
1.54797 -0.4 -2.25 0 0 -1.00506 0 1
1.81 2.50031 -2.25 0 0 -2.35 0 1
1.81 -0.139219 -2.25 0 0 -2.3538 0 1
0.492031 -0.4 -2.25 0 0 -2.35769 0 1
1.54797 -0.4 -2.25 0 0 -1.35352 0 1
0.499375 4.35 -2.25 0 0 -1.00296 0 1
0.23 4.08078 -2.25 0 0 -2.35591 0 1
0.23 -0.13875 -2.25 0 0 -2.3547 0 1
3.66062 4.35 -2.25 0 0 -0.729038 0 1
3.93 -0.4 -2.25 0 0 -0.0566503 0 1
3.93 4.08078 -2.25 0 0 -2.3559 0 1
3 0 2 1 
3 0 3 2 
3 4 6 5 
3 4 7 6 
3 8 10 9 
3 8 11 10 
3 12 14 13 
3 12 15 14 
3 16 18 17 
3 16 19 18 
3 20 22 21 
3 20 23 22 
3 24 26 25 
3 24 27 26 
3 28 30 29 
3 28 31 30 
3 32 34 33 
3 32 35 34 
3 36 38 37 
3 36 39 38 
3 40 42 41 
3 40 43 42 
3 44 46 45 
3 44 47 46 
3 48 50 49 
3 48 51 50 
3 52 54 53 
3 52 55 54 
3 56 57 58 
3 58 57 59 
3 58 59 60 
3 60 59 61 
3 60 61 62 
3 62 61 63 
3 62 63 64 
3 64 63 65 
3 66 67 68 
3 66 68 69 
3 66 69 70 
3 71 72 73 
3 74 76 75 
3 76 77 75 
3 76 78 77 
3 78 79 77 
3 78 80 79 
3 80 81 79 
3 80 82 81 
3 82 83 81 
3 84 86 85 
3 84 87 86 
3 84 88 87 
3 89 91 90 
