ply
format ascii 1.0
comment VCGLIB generated
element vertex 42
property float x
property float y
property float z
property float nx
property float ny
property float nz
property float texture_u
property float texture_v
element face 24
property list uchar int vertex_indices
end_header
1.45 4.35 -0.75 0 -1.5708 0 0 1
1.45 4.35 -2.25 0 -1.5708 0 0 1
0.39 4.35 -2.25 0 -1.5708 0 0 1
0.39 4.35 -0.75 0 -1.5708 0 0 1
0.39 4.35 -0.75 -1.5708 0 0 0 1
0.39 4.35 -2.25 -1.5708 0 0 0 1
0.39 4.88 -2.25 -1.5708 0 0 0 1
0.39 4.88 -0.75 -1.5708 0 0 0 1
0.39 4.88 -0.75 0 1.5708 0 0 1
0.39 4.88 -2.25 0 1.5708 0 0 1
1.70141 4.88 -2.25 0 1.5708 0 0 1
1.70141 4.88 -0.75 0 1.5708 0 0 1
1.70141 4.88 -0.75 1.11072 1.11072 0 0 1
1.70141 4.88 -2.25 1.11072 1.11072 0 0 1
1.97 4.61141 -2.25 1.11072 1.11072 0 0 1
1.97 4.61141 -0.75 1.11072 1.11072 0 0 1
1.97 4.61141 -0.75 1.5708 0 0 0 1
1.97 4.61141 -2.25 1.5708 0 0 0 1
1.97 3.3 -2.25 1.5708 0 0 0 1
1.97 3.3 -0.75 1.5708 0 0 0 1
1.97 3.3 -0.75 0 -1.5708 0 0 1
1.97 3.3 -2.25 0 -1.5708 0 0 1
1.45 3.3 -2.25 0 -1.5708 0 0 1
1.45 3.3 -0.75 0 -1.5708 0 0 1
1.45 3.3 -0.75 -1.5708 0 0 0 1
1.45 3.3 -2.25 -1.5708 0 0 0 1
1.45 4.35 -2.25 -1.5708 0 0 0 1
1.45 4.35 -0.75 -1.5708 0 0 0 1
1.45 4.35 -0.75 0 0 4.71239 0 1
1.45 3.3 -0.75 0 0 1.5708 0 1
1.97 3.3 -0.75 0 0 1.5708 0 1
1.97 4.61141 -0.75 0 0 2.35619 0 1
1.70141 4.88 -0.75 0 0 2.35619 0 1
0.39 4.88 -0.75 0 0 1.5708 0 1
0.39 4.35 -0.75 0 0 1.5708 0 1
1.45 4.35 -2.25 0 0 -4.71239 0 1
1.45 3.3 -2.25 0 0 -1.5708 0 1
1.97 3.3 -2.25 0 0 -1.5708 0 1
1.97 4.61141 -2.25 0 0 -2.35619 0 1
1.70141 4.88 -2.25 0 0 -2.35619 0 1
0.39 4.88 -2.25 0 0 -1.5708 0 1
0.39 4.35 -2.25 0 0 -1.5708 0 1
3 0 2 1 
3 0 3 2 
3 4 6 5 
3 4 7 6 
3 8 10 9 
3 8 11 10 
3 12 14 13 
3 12 15 14 
3 16 18 17 
3 16 19 18 
3 20 22 21 
3 20 23 22 
3 24 26 25 
3 24 27 26 
3 28 29 30 
3 28 30 31 
3 28 31 32 
3 28 32 33 
3 28 33 34 
3 35 37 36 
3 35 38 37 
3 35 39 38 
3 35 40 39 
3 35 41 40 
