ply
format ascii 1.0
comment VCGLIB generated
element vertex 96
property float x
property float y
property float z
property float nx
property float ny
property float nz
property float texture_u
property float texture_v
element face 52
property list uchar int vertex_indices
end_header
0.62 3.3 -0.75 0 -1.5708 0 0 1
0.62 3.3 -2.25 0 -1.5708 0 0 1
0.1 3.3 -2.25 0 -1.5708 0 0 1
0.1 3.3 -0.75 0 -1.5708 0 0 1
0.1 3.3 -0.75 -1.5708 0 0 0 1
0.1 3.3 -2.25 -1.5708 0 0 0 1
0.1 4.08156 -2.25 -1.5708 0 0 0 1
0.1 4.08156 -0.75 -1.5708 0 0 0 1
0.1 4.08156 -0.75 -1.1091 1.11234 0 0 1
0.1 4.08156 -2.25 -1.1091 1.11234 0 0 1
0.369219 4.35 -2.25 -1.1091 1.11234 0 0 1
0.369219 4.35 -0.75 -1.1091 1.11234 0 0 1
0.369219 4.35 -0.75 0 1.5708 0 0 1
0.369219 4.35 -2.25 0 1.5708 0 0 1
3.52078 4.35 -2.25 0 1.5708 0 0 1
3.52078 4.35 -0.75 0 1.5708 0 0 1
3.52078 4.35 -0.75 1.11072 1.11072 0 0 1
3.52078 4.35 -2.25 1.11072 1.11072 0 0 1
3.79 4.08078 -2.25 1.11072 1.11072 0 0 1
3.79 4.08078 -0.75 1.11072 1.11072 0 0 1
3.79 4.08078 -0.75 1.5708 0 0 0 1
3.79 4.08078 -2.25 1.5708 0 0 0 1
3.79 -0.130781 -2.25 1.5708 0 0 0 1
3.79 -0.130781 -0.75 1.5708 0 0 0 1
3.79 -0.130781 -0.75 1.10911 -1.11233 0 0 1
3.79 -0.130781 -2.25 1.10911 -1.11233 0 0 1
3.52 -0.4 -2.25 1.10911 -1.11233 0 0 1
3.52 -0.4 -0.75 1.10911 -1.11233 0 0 1
3.52 -0.4 -0.75 0 -1.5708 0 0 1
3.52 -0.4 -2.25 0 -1.5708 0 0 1
2.48 -0.4 -2.25 0 -1.5708 0 0 1
2.48 -0.4 -0.75 0 -1.5708 0 0 1
2.48 -0.4 -0.75 -1.10814 -1.11329 0 0 1
2.48 -0.4 -2.25 -1.10814 -1.11329 0 0 1
2.21 -0.13125 -2.25 -1.10814 -1.11329 0 0 1
2.21 -0.13125 -0.75 -1.10814 -1.11329 0 0 1
2.21 -0.13125 -0.75 -1.5708 0 0 0 1
2.21 -0.13125 -2.25 -1.5708 0 0 0 1
2.21 2.50031 -2.25 -1.5708 0 0 0 1
2.21 2.50031 -0.75 -1.5708 0 0 0 1
2.21 2.50031 -0.75 -1.11006 1.11138 0 0 1
2.21 2.50031 -2.25 -1.11007 1.11138 0 0 1
2.74 3.02969 -2.25 -1.11006 1.11138 0 0 1
2.74 3.02969 -0.75 -1.11007 1.11138 0 0 1
2.74 3.02969 -0.75 -1.5708 0 0 0 1
2.74 3.02969 -2.25 -1.5708 0 0 0 1
2.74 3.82 -2.25 -1.5708 0 0 0 1
2.74 3.82 -0.75 -1.5708 0 0 0 1
2.74 3.82 -0.75 0 -1.5708 0 0 1
2.74 3.82 -2.25 0 -1.5708 0 0 1
0.62 3.82 -2.25 0 -1.5708 0 0 1
0.62 3.82 -0.75 0 -1.5708 0 0 1
0.62 3.82 -0.75 1.5708 0 0 0 1
0.62 3.82 -2.25 1.5708 0 0 0 1
0.62 3.3 -2.25 1.5708 0 0 0 1
0.62 3.3 -0.75 1.5708 0 0 0 1
3.52078 4.35 -0.75 0 0 2.35619 0 1
0.369219 4.35 -0.75 0 0 1.12884 0 1
0.62 3.82 -0.75 0 0 2.01275 0 1
2.74 3.82 -0.75 0 0 4.52962 0 1
3.52 -0.4 -0.75 0 0 0.969618 0 1
3.79 -0.130781 -0.75 0 0 2.35475 0 1
3.79 4.08078 -0.75 0 0 2.3562 0 1
0.62 3.3 -0.75 0 0 1.5708 0 1
0.62 3.82 -0.75 0 0 2.69964 0 1
0.369219 4.35 -0.75 0 0 1.22881 0 1
0.1 4.08156 -0.75 0 0 2.35474 0 1
0.1 3.3 -0.75 0 0 1.5708 0 1
2.74 3.02969 -0.75 0 0 3.92758 0 1
2.21 2.50031 -0.75 0 0 2.26278 0 1
2.48 -0.4 -0.75 0 0 1.66362 0 1
3.52 -0.4 -0.75 0 0 1.38803 0 1
2.74 3.82 -0.75 0 0 0.182771 0 1
2.48 -0.4 -0.75 0 0 0.694892 0 1
2.21 2.50031 -0.75 0 0 0.092826 0 1
2.21 -0.13125 -0.75 0 0 2.35387 0 1
3.52078 4.35 -2.25 0 0 -2.35619 0 1
0.369219 4.35 -2.25 0 0 -1.12884 0 1
0.62 3.82 -2.25 0 0 -2.01275 0 1
2.74 3.82 -2.25 0 0 -4.52962 0 1
3.52 -0.4 -2.25 0 0 -0.969618 0 1
3.79 -0.130781 -2.25 0 0 -2.35475 0 1
3.79 4.08078 -2.25 0 0 -2.3562 0 1
0.62 3.3 -2.25 0 0 -1.5708 0 1
0.62 3.82 -2.25 0 0 -2.69964 0 1
0.369219 4.35 -2.25 0 0 -1.22881 0 1
0.1 4.08156 -2.25 0 0 -2.35474 0 1
0.1 3.3 -2.25 0 0 -1.5708 0 1
2.74 3.02969 -2.25 0 0 -3.92758 0 1
2.21 2.50031 -2.25 0 0 -2.26278 0 1
2.48 -0.4 -2.25 0 0 -1.66362 0 1
3.52 -0.4 -2.25 0 0 -1.38803 0 1
2.74 3.82 -2.25 0 0 -0.182771 0 1
2.48 -0.4 -2.25 0 0 -0.694892 0 1
2.21 2.50031 -2.25 0 0 -0.092826 0 1
2.21 -0.13125 -2.25 0 0 -2.35387 0 1
3 0 2 1 
3 0 3 2 
3 4 6 5 
3 4 7 6 
3 8 10 9 
3 8 11 10 
3 12 14 13 
3 12 15 14 
3 16 18 17 
3 16 19 18 
3 20 22 21 
3 20 23 22 
3 24 26 25 
3 24 27 26 
3 28 30 29 
3 28 31 30 
3 32 34 33 
3 32 35 34 
3 36 38 37 
3 36 39 38 
3 40 42 41 
3 40 43 42 
3 44 46 45 
3 44 47 46 
3 48 50 49 
3 48 51 50 
3 52 54 53 
3 52 55 54 
3 56 57 58 
3 56 58 59 
3 56 59 60 
3 56 60 61 
3 56 61 62 
3 63 64 65 
3 63 65 66 
3 63 66 67 
3 68 69 70 
3 68 70 71 
3 68 71 72 
3 73 74 75 
3 76 78 77 
3 76 79 78 
3 76 80 79 
3 76 81 80 
3 76 82 81 
3 83 85 84 
3 83 86 85 
3 83 87 86 
3 88 90 89 
3 88 91 90 
3 88 92 91 
3 93 95 94 
