ply
format ascii 1.0
comment VCGLIB generated
element vertex 134
property float x
property float y
property float z
property float nx
property float ny
property float nz
property float texture_u
property float texture_v
element face 76
property list uchar int vertex_indices
end_header
2.74 3.82 -0.75 0 -1.5708 0 0 1
2.74 3.82 -2.25 0 -1.5708 0 0 1
0.62 3.82 -2.25 0 -1.5708 0 0 1
0.62 3.82 -0.75 0 -1.5708 0 0 1
0.62 3.82 -0.75 1.5708 0 0 0 1
0.62 3.82 -2.25 1.5708 0 0 0 1
0.62 1.71 -2.25 1.5708 0 0 0 1
0.62 1.71 -0.75 1.5708 0 0 0 1
0.62 1.71 -0.75 0 1.5708 0 0 1
0.62 1.71 -2.25 0 1.5708 0 0 1
2.74 1.71 -2.25 0 1.5708 0 0 1
2.74 1.71 -0.75 0 1.5708 0 0 1
2.74 1.71 -0.75 -1.5708 0 0 0 1
2.74 1.71 -2.25 -1.5708 0 0 0 1
2.74 3.82 -2.25 -1.5708 0 0 0 1
2.74 3.82 -0.75 -1.5708 0 0 0 1
3.79 -0.139375 -0.75 1.10773 -1.1137 0 0 1
3.79 -0.139375 -2.25 1.10773 -1.1137 0 0 1
3.52797 -0.4 -2.25 1.10773 -1.1137 0 0 1
3.52797 -0.4 -0.75 1.10773 -1.1137 0 0 1
3.52797 -0.4 -0.75 0 -1.5708 0 0 1
3.52797 -0.4 -2.25 0 -1.5708 0 0 1
2.47203 -0.4 -2.25 0 -1.5708 0 0 1
2.47203 -0.4 -0.75 0 -1.5708 0 0 1
2.47203 -0.4 -0.75 -1.10773 -1.1137 0 0 1
2.47203 -0.4 -2.25 -1.10773 -1.1137 0 0 1
2.21 -0.139375 -2.25 -1.10773 -1.1137 0 0 1
2.21 -0.139375 -0.75 -1.10773 -1.1137 0 0 1
2.21 -0.139375 -0.75 -1.5708 0 0 0 1
2.21 -0.139375 -2.25 -1.5708 0 0 0 1
2.21 1.18 -2.25 -1.5708 0 0 0 1
2.21 1.18 -0.75 -1.5708 0 0 0 1
2.21 1.18 -0.75 0 -1.5708 0 0 1
2.21 1.18 -2.25 0 -1.5708 0 0 1
0.360781 1.18 -2.25 0 -1.5708 0 0 1
0.360781 1.18 -0.75 0 -1.5708 0 0 1
0.360781 1.18 -0.75 -1.11238 -1.10906 0 0 1
0.360781 1.18 -2.25 -1.11238 -1.10906 0 0 1
0.1 1.44156 -2.25 -1.11238 -1.10906 0 0 1
0.1 1.44156 -0.75 -1.11238 -1.10906 0 0 1
0.1 1.44156 -0.75 -1.5708 0 0 0 1
0.1 1.44156 -2.25 -1.5708 0 0 0 1
0.1 4.08844 -2.25 -1.5708 0 0 0 1
0.1 4.08844 -0.75 -1.5708 0 0 0 1
0.1 4.08844 -0.75 -1.11138 1.11006 0 0 1
0.1 4.08844 -2.25 -1.11138 1.11006 0 0 1
0.36125 4.35 -2.25 -1.11138 1.11006 0 0 1
0.36125 4.35 -0.75 -1.11138 1.11006 0 0 1
0.36125 4.35 -0.75 0 1.5708 0 0 1
0.36125 4.35 -2.25 0 1.5708 0 0 1
3.52875 4.35 -2.25 0 1.5708 0 0 1
3.52875 4.35 -0.75 0 1.5708 0 0 1
3.52875 4.35 -0.75 1.11138 1.11006 0 0 1
3.52875 4.35 -2.25 1.11138 1.11006 0 0 1
3.79 4.08844 -2.25 1.11138 1.11006 0 0 1
3.79 4.08844 -0.75 1.11138 1.11006 0 0 1
3.79 4.08844 -0.75 1.5708 0 0 0 1
3.79 4.08844 -2.25 1.5708 0 0 0 1
3.79 1.71 -2.25 1.5708 0 0 0 1
3.79 1.71 -0.75 1.5708 0 0 0 1
3.79 1.71 -0.75 0 1.5708 0 0 1
3.79 1.71 -2.25 0 1.5708 0 0 1
4.31344 1.71 -2.25 0 1.5708 0 0 1
4.31344 1.71 -0.75 0 1.5708 0 0 1
4.31344 1.71 -0.75 1.5708 0 0 0 1
4.31344 1.71 -2.25 1.5708 0 0 0 1
4.31344 1.18 -2.25 1.5708 0 0 0 1
4.31344 1.18 -0.75 1.5708 0 0 0 1
4.31344 1.18 -0.75 0 -1.5708 0 0 1
4.31344 1.18 -2.25 0 -1.5708 0 0 1
3.79 1.18 -2.25 0 -1.5708 0 0 1
3.79 1.18 -0.75 0 -1.5708 0 0 1
3.79 1.18 -0.75 1.5708 0 0 0 1
3.79 1.18 -2.25 1.5708 0 0 0 1
3.79 -0.139375 -2.25 1.5708 0 0 0 1
3.79 -0.139375 -0.75 1.5708 0 0 0 1
2.74 3.82 -0.75 0 0 1.97785 0 1
3.52797 -0.4 -0.75 0 0 0.972685 0 1
3.52875 4.35 -0.75 0 0 1.76395 0 1
3.79 -0.139375 -0.75 0 0 2.3535 0 1
3.79 4.08844 -0.75 0 0 2.35679 0 1
3.79 1.18 -0.75 0 0 1.5708 0 1
3.79 1.71 -0.75 0 0 1.5708 0 1
4.31344 1.18 -0.75 0 0 1.5708 0 1
4.31344 1.71 -0.75 0 0 1.5708 0 1
2.74 3.82 -0.75 0 0 2.54994 0 1
3.52875 4.35 -0.75 0 0 0.591651 0 1
0.62 3.82 -0.75 0 0 4.71239 0 1
0.36125 4.35 -0.75 0 0 1.57094 0 1
0.62 1.71 -0.75 0 0 4.39064 0 1
0.360781 1.18 -0.75 0 0 1.57065 0 1
2.21 1.18 -0.75 0 0 0.32175 0 1
2.74 1.71 -0.75 0 0 4.71239 0 1
0.62 1.71 -0.75 0 0 0.32175 0 1
2.21 1.18 -0.75 0 0 4.22629 0 1
2.47203 -0.4 -0.75 0 0 1.73514 0 1
3.52797 -0.4 -0.75 0 0 1.3862 0 1
2.74 3.82 -0.75 0 0 0.184597 0 1
0.1 4.08844 -0.75 0 0 2.35679 0 1
0.1 1.44156 -0.75 0 0 2.35769 0 1
0.360781 1.18 -0.75 0 0 0.784049 0 1
0.36125 4.35 -0.75 0 0 0.784654 0 1
2.47203 -0.4 -0.75 0 0 0.623742 0 1
2.21 1.18 -0.75 0 0 0.164346 0 1
2.21 -0.139375 -0.75 0 0 2.3535 0 1
2.74 3.82 -2.25 0 0 -1.97785 0 1
3.52797 -0.4 -2.25 0 0 -0.972685 0 1
3.52875 4.35 -2.25 0 0 -1.76395 0 1
3.79 -0.139375 -2.25 0 0 -2.3535 0 1
3.79 4.08844 -2.25 0 0 -2.35679 0 1
3.79 1.18 -2.25 0 0 -1.5708 0 1
3.79 1.71 -2.25 0 0 -1.5708 0 1
4.31344 1.18 -2.25 0 0 -1.5708 0 1
4.31344 1.71 -2.25 0 0 -1.5708 0 1
2.74 3.82 -2.25 0 0 -2.54994 0 1
3.52875 4.35 -2.25 0 0 -0.591651 0 1
0.62 3.82 -2.25 0 0 -4.71239 0 1
0.36125 4.35 -2.25 0 0 -1.57094 0 1
0.62 1.71 -2.25 0 0 -4.39064 0 1
0.360781 1.18 -2.25 0 0 -1.57065 0 1
2.21 1.18 -2.25 0 0 -0.32175 0 1
2.74 1.71 -2.25 0 0 -4.71239 0 1
0.62 1.71 -2.25 0 0 -0.32175 0 1
2.21 1.18 -2.25 0 0 -4.22629 0 1
2.47203 -0.4 -2.25 0 0 -1.73514 0 1
3.52797 -0.4 -2.25 0 0 -1.3862 0 1
2.74 3.82 -2.25 0 0 -0.184597 0 1
0.1 4.08844 -2.25 0 0 -2.35679 0 1
0.1 1.44156 -2.25 0 0 -2.35769 0 1
0.360781 1.18 -2.25 0 0 -0.784049 0 1
0.36125 4.35 -2.25 0 0 -0.784654 0 1
2.47203 -0.4 -2.25 0 0 -0.623742 0 1
2.21 1.18 -2.25 0 0 -0.164346 0 1
2.21 -0.139375 -2.25 0 0 -2.3535 0 1
3 0 2 1 
3 0 3 2 
3 4 6 5 
3 4 7 6 
3 8 10 9 
3 8 11 10 
3 12 14 13 
3 12 15 14 
3 16 18 17 
3 16 19 18 
3 20 22 21 
3 20 23 22 
3 24 26 25 
3 24 27 26 
3 28 30 29 
3 28 31 30 
3 32 34 33 
3 32 35 34 
3 36 38 37 
3 36 39 38 
3 40 42 41 
3 40 43 42 
3 44 46 45 
3 44 47 46 
3 48 50 49 
3 48 51 50 
3 52 54 53 
3 52 55 54 
3 56 58 57 
3 56 59 58 
3 60 62 61 
3 60 63 62 
3 64 66 65 
3 64 67 66 
3 68 70 69 
3 68 71 70 
3 72 74 73 
3 72 75 74 
3 76 77 78 
3 78 77 79 
3 78 79 80 
3 80 79 81 
3 80 81 82 
3 82 81 83 
3 82 83 84 
3 85 86 87 
3 87 86 88 
3 87 88 89 
3 89 88 90 
3 89 90 91 
3 92 93 94 
3 92 94 95 
3 92 95 96 
3 92 96 97 
3 98 99 100 
3 98 100 101 
3 102 103 104 
3 105 107 106 
3 107 108 106 
3 107 109 108 
3 109 110 108 
3 109 111 110 
3 111 112 110 
3 111 113 112 
3 114 116 115 
3 116 117 115 
3 116 118 117 
3 118 119 117 
3 118 120 119 
3 121 123 122 
3 121 124 123 
3 121 125 124 
3 121 126 125 
3 127 129 128 
3 127 130 129 
3 131 133 132 
