ply
format ascii 1.0
comment VCGLIB generated
element vertex 112
property float x
property float y
property float z
property float nx
property float ny
property float nz
property float texture_u
property float texture_v
element face 60
property list uchar int vertex_indices
end_header
0.82 -0.4 -0.75 -1.10943 -1.11201 0 0 1
0.82 -0.4 -2.25 -1.10943 -1.11201 0 0 1
0.55 -0.130625 -2.25 -1.10943 -1.11201 0 0 1
0.55 -0.130625 -0.75 -1.10943 -1.11201 0 0 1
0.55 -0.130625 -0.75 -1.5708 0 0 0 1
0.55 -0.130625 -2.25 -1.5708 0 0 0 1
0.55 2.77 -2.25 -1.5708 0 0 0 1
0.55 2.77 -0.75 -1.5708 0 0 0 1
0.55 2.77 -0.75 0 -1.5708 0 0 1
0.55 2.77 -2.25 0 -1.5708 0 0 1
0.01 2.77 -2.25 0 -1.5708 0 0 1
0.01 2.77 -0.75 0 -1.5708 0 0 1
0.01 2.77 -0.75 -1.5708 0 0 0 1
0.01 2.77 -2.25 -1.5708 0 0 0 1
0.01 3.3 -2.25 -1.5708 0 0 0 1
0.01 3.3 -0.75 -1.5708 0 0 0 1
0.01 3.3 -0.75 0 1.5708 0 0 1
0.01 3.3 -2.25 0 1.5708 0 0 1
0.55 3.3 -2.25 0 1.5708 0 0 1
0.55 3.3 -0.75 0 1.5708 0 0 1
0.55 3.3 -0.75 -1.5708 0 0 0 1
0.55 3.3 -2.25 -1.5708 0 0 0 1
0.55 4.35 -2.25 -1.5708 0 0 0 1
0.55 4.35 -0.75 -1.5708 0 0 0 1
0.55 4.35 -0.75 0 1.5708 0 0 1
0.55 4.35 -2.25 0 1.5708 0 0 1
1.08 4.35 -2.25 0 1.5708 0 0 1
1.08 4.35 -0.75 0 1.5708 0 0 1
1.08 4.35 -0.75 1.5708 0 0 0 1
1.08 4.35 -2.25 1.5708 0 0 0 1
1.08 3.3 -2.25 1.5708 0 0 0 1
1.08 3.3 -0.75 1.5708 0 0 0 1
1.08 3.3 -0.75 0 1.5708 0 0 1
1.08 3.3 -2.25 0 1.5708 0 0 1
2.13 3.3 -2.25 0 1.5708 0 0 1
2.13 3.3 -0.75 0 1.5708 0 0 1
2.13 3.3 -0.75 1.5708 0 0 0 1
2.13 3.3 -2.25 1.5708 0 0 0 1
2.13 2.77 -2.25 1.5708 0 0 0 1
2.13 2.77 -0.75 1.5708 0 0 0 1
2.13 2.77 -0.75 0 -1.5708 0 0 1
2.13 2.77 -2.25 0 -1.5708 0 0 1
1.6 2.77 -2.25 0 -1.5708 0 0 1
1.6 2.77 -0.75 0 -1.5708 0 0 1
1.6 2.77 -0.75 1.5708 0 0 0 1
1.6 2.77 -2.25 1.5708 0 0 0 1
1.6 1.9775 -2.25 1.5708 0 0 0 1
1.6 1.9775 -0.75 1.5708 0 0 0 1
1.6 1.9775 -0.75 1.1117 1.10974 0 0 1
1.6 1.9775 -2.25 1.1117 1.10974 0 0 1
2.13 1.44656 -2.25 1.1117 1.10974 0 0 1
2.13 1.44656 -0.75 1.1117 1.10974 0 0 1
2.13 1.44656 -0.75 1.5708 0 0 0 1
2.13 1.44656 -2.25 1.5708 0 0 0 1
2.13 -0.130625 -2.25 1.5708 0 0 0 1
2.13 -0.130625 -0.75 1.5708 0 0 0 1
2.13 -0.130625 -0.75 1.10943 -1.11201 0 0 1
2.13 -0.130625 -2.25 1.10943 -1.11201 0 0 1
1.86 -0.4 -2.25 1.10943 -1.11201 0 0 1
1.86 -0.4 -0.75 1.10943 -1.11201 0 0 1
1.86 -0.4 -0.75 0 -1.5708 0 0 1
1.86 -0.4 -2.25 0 -1.5708 0 0 1
0.82 -0.4 -2.25 0 -1.5708 0 0 1
0.82 -0.4 -0.75 0 -1.5708 0 0 1
1.08 4.35 -0.75 0 0 1.51611 0 1
0.55 4.35 -0.75 0 0 1.5708 0 1
0.82 -0.4 -0.75 0 0 0.139657 0 1
0.55 3.3 -0.75 0 0 4.71239 0 1
0.55 2.77 -0.75 0 0 4.62742 0 1
0.01 3.3 -0.75 0 0 1.5708 0 1
0.01 2.77 -0.75 0 0 1.5708 0 1
1.08 3.3 -0.75 0 0 4.71239 0 1
1.08 4.35 -0.75 0 0 0.0546823 0 1
0.82 -0.4 -0.75 0 0 1.51612 0 1
1.86 -0.4 -0.75 0 0 1.46187 0 1
1.6 1.9775 -0.75 0 0 3.25052 0 1
1.6 2.77 -0.75 0 0 3.92699 0 1
2.13 3.3 -0.75 0 0 0.785398 0 1
2.13 1.44656 -0.75 0 0 2.35708 0 1
1.6 1.9775 -0.75 0 0 0.675589 0 1
1.86 -0.4 -0.75 0 0 0.895483 0 1
2.13 -0.130625 -0.75 0 0 2.35504 0 1
2.13 3.3 -0.75 0 0 0.785398 0 1
1.6 2.77 -0.75 0 0 0.785398 0 1
2.13 2.77 -0.75 0 0 1.5708 0 1
0.82 -0.4 -0.75 0 0 0.701588 0 1
0.55 2.77 -0.75 0 0 0.084969 0 1
0.55 -0.130625 -0.75 0 0 2.35504 0 1
1.08 4.35 -2.25 0 0 -1.51611 0 1
0.55 4.35 -2.25 0 0 -1.5708 0 1
0.82 -0.4 -2.25 0 0 -0.139657 0 1
0.55 3.3 -2.25 0 0 -4.71239 0 1
0.55 2.77 -2.25 0 0 -4.62742 0 1
0.01 3.3 -2.25 0 0 -1.5708 0 1
0.01 2.77 -2.25 0 0 -1.5708 0 1
1.08 3.3 -2.25 0 0 -4.71239 0 1
1.08 4.35 -2.25 0 0 -0.0546823 0 1
0.82 -0.4 -2.25 0 0 -1.51612 0 1
1.86 -0.4 -2.25 0 0 -1.46187 0 1
1.6 1.9775 -2.25 0 0 -3.25052 0 1
1.6 2.77 -2.25 0 0 -3.92699 0 1
2.13 3.3 -2.25 0 0 -0.785398 0 1
2.13 1.44656 -2.25 0 0 -2.35708 0 1
1.6 1.9775 -2.25 0 0 -0.675589 0 1
1.86 -0.4 -2.25 0 0 -0.895483 0 1
2.13 -0.130625 -2.25 0 0 -2.35504 0 1
2.13 3.3 -2.25 0 0 -0.785398 0 1
1.6 2.77 -2.25 0 0 -0.785398 0 1
2.13 2.77 -2.25 0 0 -1.5708 0 1
0.82 -0.4 -2.25 0 0 -0.701588 0 1
0.55 2.77 -2.25 0 0 -0.084969 0 1
0.55 -0.130625 -2.25 0 0 -2.35504 0 1
3 0 2 1 
3 0 3 2 
3 4 6 5 
3 4 7 6 
3 8 10 9 
3 8 11 10 
3 12 14 13 
3 12 15 14 
3 16 18 17 
3 16 19 18 
3 20 22 21 
3 20 23 22 
3 24 26 25 
3 24 27 26 
3 28 30 29 
3 28 31 30 
3 32 34 33 
3 32 35 34 
3 36 38 37 
3 36 39 38 
3 40 42 41 
3 40 43 42 
3 44 46 45 
3 44 47 46 
3 48 50 49 
3 48 51 50 
3 52 54 53 
3 52 55 54 
3 56 58 57 
3 56 59 58 
3 60 62 61 
3 60 63 62 
3 64 65 66 
3 66 65 67 
3 66 67 68 
3 68 67 69 
3 68 69 70 
3 71 72 73 
3 71 73 74 
3 71 74 75 
3 71 75 76 
3 71 76 77 
3 78 79 80 
3 78 80 81 
3 82 83 84 
3 85 86 87 
3 88 90 89 
3 90 91 89 
3 90 92 91 
3 92 93 91 
3 92 94 93 
3 95 97 96 
3 95 98 97 
3 95 99 98 
3 95 100 99 
3 95 101 100 
3 102 104 103 
3 102 105 104 
3 106 108 107 
3 109 111 110 
