ply
format ascii 1.0
comment VCGLIB generated
element vertex 136
property float x
property float y
property float z
property float nx
property float ny
property float nz
property float texture_u
property float texture_v
element face 76
property list uchar int vertex_indices
end_header
0.23 2.49469 -0.75 -0.77162 1.36821 0 0 1
0.23 2.49469 -2.25 -0.77162 1.36821 0 0 1
2.58 3.82 -2.25 -0.77162 1.36821 0 0 1
2.58 3.82 -0.75 -0.77162 1.36821 0 0 1
2.58 3.82 -0.75 0 -1.5708 0 0 1
2.58 3.82 -2.25 0 -1.5708 0 0 1
0.75 3.82 -2.25 0 -1.5708 0 0 1
0.75 3.82 -0.75 0 -1.5708 0 0 1
0.75 3.82 -0.75 1.5708 0 0 0 1
0.75 3.82 -2.25 1.5708 0 0 0 1
0.75 3.3 -2.25 1.5708 0 0 0 1
0.75 3.3 -0.75 1.5708 0 0 0 1
0.75 3.3 -0.75 0 -1.5708 0 0 1
0.75 3.3 -2.25 0 -1.5708 0 0 1
0.23 3.3 -2.25 0 -1.5708 0 0 1
0.23 3.3 -0.75 0 -1.5708 0 0 1
0.23 3.3 -0.75 -1.5708 0 0 0 1
0.23 3.3 -2.25 -1.5708 0 0 0 1
0.23 4.08953 -2.25 -1.5708 0 0 0 1
0.23 4.08953 -0.75 -1.5708 0 0 0 1
0.23 4.08953 -0.75 -1.11006 1.11139 0 0 1
0.23 4.08953 -2.25 -1.11006 1.11139 0 0 1
0.490781 4.35 -2.25 -1.11006 1.11139 0 0 1
0.490781 4.35 -0.75 -1.11006 1.11139 0 0 1
0.490781 4.35 -0.75 0 1.5708 0 0 1
0.490781 4.35 -2.25 0 1.5708 0 0 1
3.65141 4.35 -2.25 0 1.5708 0 0 1
3.65141 4.35 -0.75 0 1.5708 0 0 1
3.65141 4.35 -0.75 1.1206 1.10075 0 0 1
3.65141 4.35 -2.25 1.1206 1.10075 0 0 1
3.92 4.07656 -2.25 1.1206 1.10075 0 0 1
3.92 4.07656 -0.75 1.1206 1.10075 0 0 1
3.92 4.07656 -0.75 1.57006 0.0480526 0 0 1
3.92 4.07656 -2.25 1.57006 0.0480526 0 0 1
3.92812 3.81109 -2.25 1.57006 0.0480526 0 0 1
3.92812 3.81109 -0.75 1.57006 0.0480526 0 0 1
3.92812 3.81109 -0.75 0.831176 -1.33287 0 0 1
3.92812 3.81109 -2.25 0.831176 -1.33287 0 0 1
1.81187 2.49141 -2.25 0.831176 -1.33287 0 0 1
1.81187 2.49141 -0.75 0.831176 -1.33287 0 0 1
1.81187 2.49141 -0.75 1.57075 -0.0119907 0 0 1
1.81187 2.49141 -2.25 1.57075 -0.0119907 0 0 1
1.81 2.24578 -2.25 1.57075 -0.0119907 0 0 1
1.81 2.24578 -0.75 1.57075 -0.0119907 0 0 1
1.81 2.24578 -0.75 1.5708 0 0 0 1
1.81 2.24578 -2.25 1.5708 0 0 0 1
1.81 0.13 -2.25 1.5708 0 0 0 1
1.81 0.13 -0.75 1.5708 0 0 0 1
1.81 0.13 -0.75 0 1.5708 0 0 1
1.81 0.13 -2.25 0 1.5708 0 0 1
3.4 0.13 -2.25 0 1.5708 0 0 1
3.4 0.13 -0.75 0 1.5708 0 0 1
3.4 0.13 -0.75 -1.5708 0 0 0 1
3.4 0.13 -2.25 -1.5708 0 0 0 1
3.4 1.18 -2.25 -1.5708 0 0 0 1
3.4 1.18 -0.75 -1.5708 0 0 0 1
3.4 1.18 -0.75 0 1.5708 0 0 1
3.4 1.18 -2.25 0 1.5708 0 0 1
3.92 1.18 -2.25 0 1.5708 0 0 1
3.92 1.18 -0.75 0 1.5708 0 0 1
3.92 1.18 -0.75 1.5708 0 0 0 1
3.92 1.18 -2.25 1.5708 0 0 0 1
3.92 -0.131406 -2.25 1.5708 0 0 0 1
3.92 -0.131406 -0.75 1.5708 0 0 0 1
3.92 -0.131406 -0.75 1.10943 -1.11201 0 0 1
3.92 -0.131406 -2.25 1.10943 -1.11201 0 0 1
3.65078 -0.4 -2.25 1.10943 -1.11201 0 0 1
3.65078 -0.4 -0.75 1.10943 -1.11201 0 0 1
3.65078 -0.4 -0.75 0 -1.5708 0 0 1
3.65078 -0.4 -2.25 0 -1.5708 0 0 1
0.499219 -0.4 -2.25 0 -1.5708 0 0 1
0.499219 -0.4 -0.75 0 -1.5708 0 0 1
0.499219 -0.4 -0.75 -1.11169 -1.10975 0 0 1
0.499219 -0.4 -2.25 -1.11169 -1.10975 0 0 1
0.23 -0.130312 -2.25 -1.11169 -1.10975 0 0 1
0.23 -0.130312 -0.75 -1.11169 -1.10975 0 0 1
0.23 -0.130312 -0.75 -1.5708 0 0 0 1
0.23 -0.130312 -2.25 -1.5708 0 0 0 1
0.23 2.49469 -2.25 -1.5708 0 0 0 1
0.23 2.49469 -0.75 -1.5708 0 0 0 1
1.81187 2.49141 -0.75 0 0 0.489009 0 1
3.92812 3.81109 -0.75 0 0 1.65401 0 1
2.58 3.82 -0.75 0 0 5.23659 0 1
3.65141 4.35 -0.75 0 0 2.04517 0 1
0.75 3.82 -0.75 0 0 4.71239 0 1
0.490781 4.35 -0.75 0 0 2.35679 0 1
0.75 3.3 -0.75 0 0 1.5708 0 1
0.23 4.08953 -0.75 0 0 2.3556 0 1
0.23 3.3 -0.75 0 0 1.5708 0 1
0.499219 -0.4 -0.75 0 0 2.35532 0 1
3.65078 -0.4 -0.75 0 0 0.280339 0 1
1.81 0.13 -0.75 0 0 4.43205 0 1
1.81 2.24578 -0.75 0 0 3.14923 0 1
1.81187 2.49141 -0.75 0 0 1.56524 0 1
0.23 2.49469 -0.75 0 0 1.56872 0 1
0.23 -0.130312 -0.75 0 0 2.35706 0 1
3.65078 -0.4 -0.75 0 0 2.07702 0 1
3.92 -0.131406 -0.75 0 0 2.35503 0 1
3.92 1.18 -0.75 0 0 1.5708 0 1
3.4 1.18 -0.75 0 0 1.5708 0 1
3.4 0.13 -0.75 0 0 4.71239 0 1
1.81 0.13 -0.75 0 0 0.280339 0 1
0.23 2.49469 -0.75 0 0 0.515574 0 1
1.81187 2.49141 -0.75 0 0 2.09292 0 1
2.58 3.82 -0.75 0 0 0.533099 0 1
3.65141 4.35 -0.75 0 0 0.302087 0 1
3.92812 3.81109 -0.75 0 0 0.443778 0 1
3.92 4.07656 -0.75 0 0 2.39573 0 1
1.81187 2.49141 -2.25 0 0 -0.489009 0 1
3.92812 3.81109 -2.25 0 0 -1.65401 0 1
2.58 3.82 -2.25 0 0 -5.23659 0 1
3.65141 4.35 -2.25 0 0 -2.04517 0 1
0.75 3.82 -2.25 0 0 -4.71239 0 1
0.490781 4.35 -2.25 0 0 -2.35679 0 1
0.75 3.3 -2.25 0 0 -1.5708 0 1
0.23 4.08953 -2.25 0 0 -2.3556 0 1
0.23 3.3 -2.25 0 0 -1.5708 0 1
0.499219 -0.4 -2.25 0 0 -2.35532 0 1
3.65078 -0.4 -2.25 0 0 -0.280339 0 1
1.81 0.13 -2.25 0 0 -4.43205 0 1
1.81 2.24578 -2.25 0 0 -3.14923 0 1
1.81187 2.49141 -2.25 0 0 -1.56524 0 1
0.23 2.49469 -2.25 0 0 -1.56872 0 1
0.23 -0.130312 -2.25 0 0 -2.35706 0 1
3.65078 -0.4 -2.25 0 0 -2.07702 0 1
3.92 -0.131406 -2.25 0 0 -2.35503 0 1
3.92 1.18 -2.25 0 0 -1.5708 0 1
3.4 1.18 -2.25 0 0 -1.5708 0 1
3.4 0.13 -2.25 0 0 -4.71239 0 1
1.81 0.13 -2.25 0 0 -0.280339 0 1
0.23 2.49469 -2.25 0 0 -0.515574 0 1
1.81187 2.49141 -2.25 0 0 -2.09292 0 1
2.58 3.82 -2.25 0 0 -0.533099 0 1
3.65141 4.35 -2.25 0 0 -0.302087 0 1
3.92812 3.81109 -2.25 0 0 -0.443778 0 1
3.92 4.07656 -2.25 0 0 -2.39573 0 1
3 0 2 1 
3 0 3 2 
3 4 6 5 
3 4 7 6 
3 8 10 9 
3 8 11 10 
3 12 14 13 
3 12 15 14 
3 16 18 17 
3 16 19 18 
3 20 22 21 
3 20 23 22 
3 24 26 25 
3 24 27 26 
3 28 30 29 
3 28 31 30 
3 32 34 33 
3 32 35 34 
3 36 38 37 
3 36 39 38 
3 40 42 41 
3 40 43 42 
3 44 46 45 
3 44 47 46 
3 48 50 49 
3 48 51 50 
3 52 54 53 
3 52 55 54 
3 56 58 57 
3 56 59 58 
3 60 62 61 
3 60 63 62 
3 64 66 65 
3 64 67 66 
3 68 70 69 
3 68 71 70 
3 72 74 73 
3 72 75 74 
3 76 78 77 
3 76 79 78 
3 80 81 82 
3 82 81 83 
3 82 83 84 
3 84 83 85 
3 84 85 86 
3 86 85 87 
3 86 87 88 
3 89 90 91 
3 89 91 92 
3 89 92 93 
3 89 93 94 
3 89 94 95 
3 96 97 98 
3 96 98 99 
3 96 99 100 
3 96 100 101 
3 102 103 104 
3 105 106 107 
3 108 110 109 
3 110 111 109 
3 110 112 111 
3 112 113 111 
3 112 114 113 
3 114 115 113 
3 114 116 115 
3 117 119 118 
3 117 120 119 
3 117 121 120 
3 117 122 121 
3 117 123 122 
3 124 126 125 
3 124 127 126 
3 124 128 127 
3 124 129 128 
3 130 132 131 
3 133 135 134 
