ply
format ascii 1.0
comment VCGLIB generated
element vertex 142
property float x
property float y
property float z
property float nx
property float ny
property float nz
property float texture_u
property float texture_v
element face 80
property list uchar int vertex_indices
end_header
3.97 2.44359 -0.75 1.5708 0 0 0 1
3.97 2.44359 -2.25 1.5708 0 0 0 1
3.97 -0.122813 -2.25 1.5708 0 0 0 1
3.97 -0.122813 -0.75 1.5708 0 0 0 1
3.97 -0.122813 -0.75 1.11009 -1.11135 0 0 1
3.97 -0.122813 -2.25 1.11009 -1.11135 0 0 1
3.6925 -0.4 -2.25 1.11009 -1.11135 0 0 1
3.6925 -0.4 -0.75 1.11009 -1.11135 0 0 1
3.6925 -0.4 -0.75 0 -1.5708 0 0 1
3.6925 -0.4 -2.25 0 -1.5708 0 0 1
0.5375 -0.4 -2.25 0 -1.5708 0 0 1
0.5375 -0.4 -0.75 0 -1.5708 0 0 1
0.5375 -0.4 -0.75 -1.10978 -1.11166 0 0 1
0.5375 -0.4 -2.25 -1.10978 -1.11166 0 0 1
0.26 -0.122969 -2.25 -1.10978 -1.11166 0 0 1
0.26 -0.122969 -0.75 -1.10978 -1.11166 0 0 1
0.26 -0.122969 -0.75 -1.5708 0 0 0 1
0.26 -0.122969 -2.25 -1.5708 0 0 0 1
0.26 4.07297 -2.25 -1.5708 0 0 0 1
0.26 4.07297 -0.75 -1.5708 0 0 0 1
0.26 4.07297 -0.75 -1.10978 1.11166 0 0 1
0.26 4.07297 -2.25 -1.10978 1.11166 0 0 1
0.5375 4.35 -2.25 -1.10978 1.11166 0 0 1
0.5375 4.35 -0.75 -1.10978 1.11166 0 0 1
0.5375 4.35 -0.75 0 1.5708 0 0 1
0.5375 4.35 -2.25 0 1.5708 0 0 1
3.6925 4.35 -2.25 0 1.5708 0 0 1
3.6925 4.35 -0.75 0 1.5708 0 0 1
3.6925 4.35 -0.75 1.10821 1.11323 0 0 1
3.6925 4.35 -2.25 1.10821 1.11323 0 0 1
3.97 4.07375 -2.25 1.10821 1.11323 0 0 1
3.97 4.07375 -0.75 1.10821 1.11323 0 0 1
3.97 4.07375 -0.75 1.5708 0 0 0 1
3.97 4.07375 -2.25 1.5708 0 0 0 1
3.97 3.3 -2.25 1.5708 0 0 0 1
3.97 3.3 -0.75 1.5708 0 0 0 1
3.97 3.3 -0.75 0 -1.5708 0 0 1
3.97 3.3 -2.25 0 -1.5708 0 0 1
3.45 3.3 -2.25 0 -1.5708 0 0 1
3.45 3.3 -0.75 0 -1.5708 0 0 1
3.45 3.3 -0.75 -1.5708 0 0 0 1
3.45 3.3 -2.25 -1.5708 0 0 0 1
3.45 3.82 -2.25 -1.5708 0 0 0 1
3.45 3.82 -0.75 -1.5708 0 0 0 1
3.45 3.82 -0.75 0 -1.5708 0 0 1
3.45 3.82 -2.25 0 -1.5708 0 0 1
1.31 3.82 -2.25 0 -1.5708 0 0 1
1.31 3.82 -0.75 0 -1.5708 0 0 1
1.31 3.82 -0.75 1.5708 0 0 0 1
1.31 3.82 -2.25 1.5708 0 0 0 1
1.31 2.79281 -2.25 1.5708 0 0 0 1
1.31 2.79281 -0.75 1.5708 0 0 0 1
1.31 2.79281 -0.75 0.886724 1.29658 0 0 1
1.31 2.79281 -2.25 0.886724 1.29658 0 0 1
1.83 2.43719 -2.25 0.886724 1.29658 0 0 1
1.83 2.43719 -0.75 0.886724 1.29658 0 0 1
1.83 2.43719 -0.75 1.5708 0 0 0 1
1.83 2.43719 -2.25 1.5708 0 0 0 1
1.83 0.13 -2.25 1.5708 0 0 0 1
1.83 0.13 -0.75 1.5708 0 0 0 1
1.83 0.13 -0.75 0 1.5708 0 0 1
1.83 0.13 -2.25 0 1.5708 0 0 1
3.45 0.13 -2.25 0 1.5708 0 0 1
3.45 0.13 -0.75 0 1.5708 0 0 1
3.45 0.13 -0.75 -1.5708 0 0 0 1
3.45 0.13 -2.25 -1.5708 0 0 0 1
3.45 2.44 -2.25 -1.5708 0 0 0 1
3.45 2.44 -0.75 -1.5708 0 0 0 1
3.45 2.44 -0.75 0 -1.5708 0 0 1
3.45 2.44 -2.25 0 -1.5708 0 0 1
2.32703 2.44 -2.25 0 -1.5708 0 0 1
2.32703 2.44 -0.75 0 -1.5708 0 0 1
2.32703 2.44 -0.75 -1.5708 0 0 0 1
2.32703 2.44 -2.25 -1.5708 0 0 0 1
2.32703 2.8 -2.25 -1.5708 0 0 0 1
2.32703 2.8 -0.75 -1.5708 0 0 0 1
2.32703 2.8 -0.75 0 1.5708 0 0 1
2.32703 2.8 -2.25 0 1.5708 0 0 1
3.51766 2.8 -2.25 0 1.5708 0 0 1
3.51766 2.8 -0.75 0 1.5708 0 0 1
3.51766 2.8 -0.75 0.972145 1.23383 0 0 1
3.51766 2.8 -2.25 0.972145 1.23383 0 0 1
3.97 2.44359 -2.25 0.972145 1.23383 0 0 1
3.97 2.44359 -0.75 0.972145 1.23383 0 0 1
3.97 -0.122813 -0.75 0 0 2.35563 0 1
3.97 2.44359 -0.75 0 0 2.23812 0 1
3.6925 -0.4 -0.75 0 0 0.871143 0 1
3.51766 2.8 -0.75 0 0 2.47427 0 1
3.45 2.44 -0.75 0 0 4.62721 0 1
2.32703 2.8 -0.75 0 0 1.5708 0 1
2.32703 2.44 -0.75 0 0 1.5708 0 1
3.45 2.44 -0.75 0 0 0.0851801 0 1
3.45 0.13 -0.75 0 0 4.71239 0 1
3.6925 -0.4 -0.75 0 0 1.48562 0 1
1.83 0.13 -0.75 0 0 4.41518 0 1
0.5375 -0.4 -0.75 0 0 1.63276 0 1
0.5375 4.35 -0.75 0 0 1.08345 0 1
0.26 4.07297 -0.75 0 0 2.29339 0 1
3.45 3.3 -0.75 0 0 1.5708 0 1
3.97 3.3 -0.75 0 0 1.31242 0 1
3.45 3.82 -0.75 0 0 4.71239 0 1
3.6925 4.35 -0.75 0 0 1.82917 0 1
1.31 3.82 -0.75 0 0 4.71239 0 1
0.5375 4.35 -0.75 0 0 1.27359 0 1
1.31 2.79281 -0.75 0 0 4.11255 0 1
1.83 0.13 -0.75 0 0 0.297209 0 1
1.83 2.43719 -0.75 0 0 2.17063 0 1
3.6925 4.35 -0.75 0 0 0.529277 0 1
3.97 3.3 -0.75 0 0 0.258378 0 1
3.97 4.07375 -0.75 0 0 2.35394 0 1
0.5375 -0.4 -0.75 0 0 0.724284 0 1
0.26 4.07297 -0.75 0 0 0.0619601 0 1
0.26 -0.122969 -0.75 0 0 2.35535 0 1
3.97 -0.122813 -2.25 0 0 -2.35563 0 1
3.97 2.44359 -2.25 0 0 -2.23812 0 1
3.6925 -0.4 -2.25 0 0 -0.871143 0 1
3.51766 2.8 -2.25 0 0 -2.47427 0 1
3.45 2.44 -2.25 0 0 -4.62721 0 1
2.32703 2.8 -2.25 0 0 -1.5708 0 1
2.32703 2.44 -2.25 0 0 -1.5708 0 1
3.45 2.44 -2.25 0 0 -0.0851801 0 1
3.45 0.13 -2.25 0 0 -4.71239 0 1
3.6925 -0.4 -2.25 0 0 -1.48562 0 1
1.83 0.13 -2.25 0 0 -4.41518 0 1
0.5375 -0.4 -2.25 0 0 -1.63276 0 1
0.5375 4.35 -2.25 0 0 -1.08345 0 1
0.26 4.07297 -2.25 0 0 -2.29339 0 1
3.45 3.3 -2.25 0 0 -1.5708 0 1
3.97 3.3 -2.25 0 0 -1.31242 0 1
3.45 3.82 -2.25 0 0 -4.71239 0 1
3.6925 4.35 -2.25 0 0 -1.82917 0 1
1.31 3.82 -2.25 0 0 -4.71239 0 1
0.5375 4.35 -2.25 0 0 -1.27359 0 1
1.31 2.79281 -2.25 0 0 -4.11255 0 1
1.83 0.13 -2.25 0 0 -0.297209 0 1
1.83 2.43719 -2.25 0 0 -2.17063 0 1
3.6925 4.35 -2.25 0 0 -0.529277 0 1
3.97 3.3 -2.25 0 0 -0.258378 0 1
3.97 4.07375 -2.25 0 0 -2.35394 0 1
0.5375 -0.4 -2.25 0 0 -0.724284 0 1
0.26 4.07297 -2.25 0 0 -0.0619601 0 1
0.26 -0.122969 -2.25 0 0 -2.35535 0 1
3 0 2 1 
3 0 3 2 
3 4 6 5 
3 4 7 6 
3 8 10 9 
3 8 11 10 
3 12 14 13 
3 12 15 14 
3 16 18 17 
3 16 19 18 
3 20 22 21 
3 20 23 22 
3 24 26 25 
3 24 27 26 
3 28 30 29 
3 28 31 30 
3 32 34 33 
3 32 35 34 
3 36 38 37 
3 36 39 38 
3 40 42 41 
3 40 43 42 
3 44 46 45 
3 44 47 46 
3 48 50 49 
3 48 51 50 
3 52 54 53 
3 52 55 54 
3 56 58 57 
3 56 59 58 
3 60 62 61 
3 60 63 62 
3 64 66 65 
3 64 67 66 
3 68 70 69 
3 68 71 70 
3 72 74 73 
3 72 75 74 
3 76 78 77 
3 76 79 78 
3 80 82 81 
3 80 83 82 
3 84 85 86 
3 86 85 87 
3 86 87 88 
3 88 87 89 
3 88 89 90 
3 91 92 93 
3 93 92 94 
3 93 94 95 
3 95 94 96 
3 95 96 97 
3 98 99 100 
3 100 99 101 
3 100 101 102 
3 102 101 103 
3 102 103 104 
3 104 103 105 
3 104 105 106 
3 107 108 109 
3 110 111 112 
3 113 115 114 
3 115 116 114 
3 115 117 116 
3 117 118 116 
3 117 119 118 
3 120 122 121 
3 122 123 121 
3 122 124 123 
3 124 125 123 
3 124 126 125 
3 127 129 128 
3 129 130 128 
3 129 131 130 
3 131 132 130 
3 131 133 132 
3 133 134 132 
3 133 135 134 
3 136 138 137 
3 139 141 140 
