ply
format ascii 1.0
comment VCGLIB generated
element vertex 152
property float x
property float y
property float z
property float nx
property float ny
property float nz
property float texture_u
property float texture_v
element face 84
property list uchar int vertex_indices
end_header
0.09 1.17938 -0.75 -1.11975 1.10162 0 0 1
0.09 1.17938 -2.25 -1.11975 1.10162 0 0 1
0.346406 1.44 -2.25 -1.11975 1.10162 0 0 1
0.346406 1.44 -0.75 -1.11975 1.10162 0 0 1
0.346406 1.44 -0.75 -1.11842 -1.10296 0 0 1
0.346406 1.44 -2.25 -1.11842 -1.10296 0 0 1
0.09 1.7 -2.25 -1.11842 -1.10296 0 0 1
0.09 1.7 -0.75 -1.11842 -1.10296 0 0 1
0.09 1.7 -0.75 -1.5708 0 0 0 1
0.09 1.7 -2.25 -1.5708 0 0 0 1
0.09 3.02141 -2.25 -1.5708 0 0 0 1
0.09 3.02141 -0.75 -1.5708 0 0 0 1
0.09 3.02141 -0.75 -1.11947 1.1019 0 0 1
0.09 3.02141 -2.25 -1.11947 1.1019 0 0 1
0.364219 3.3 -2.25 -1.11947 1.1019 0 0 1
0.364219 3.3 -0.75 -1.11947 1.1019 0 0 1
0.364219 3.3 -0.75 0 1.5708 0 0 1
0.364219 3.3 -2.25 0 1.5708 0 0 1
0.873594 3.3 -2.25 0 1.5708 0 0 1
0.873594 3.3 -0.75 0 1.5708 0 0 1
0.873594 3.3 -0.75 1.11877 1.10261 0 0 1
0.873594 3.3 -2.25 1.11877 1.10261 0 0 1
1.14 3.02969 -2.25 1.11877 1.10261 0 0 1
1.14 3.02969 -0.75 1.11877 1.10261 0 0 1
1.14 3.02969 -0.75 1.5708 0 0 0 1
1.14 3.02969 -2.25 1.5708 0 0 0 1
1.14 1.71 -2.25 1.5708 0 0 0 1
1.14 1.71 -0.75 1.5708 0 0 0 1
1.14 1.71 -0.75 0 1.5708 0 0 1
1.14 1.71 -2.25 0 1.5708 0 0 1
2.74 1.71 -2.25 0 1.5708 0 0 1
2.74 1.71 -0.75 0 1.5708 0 0 1
2.74 1.71 -0.75 -1.5708 0 0 0 1
2.74 1.71 -2.25 -1.5708 0 0 0 1
2.74 3.3 -2.25 -1.5708 0 0 0 1
2.74 3.3 -0.75 -1.5708 0 0 0 1
2.74 3.3 -0.75 0 1.5708 0 0 1
2.74 3.3 -2.25 0 1.5708 0 0 1
3.26 3.3 -2.25 0 1.5708 0 0 1
3.26 3.3 -0.75 0 1.5708 0 0 1
3.26 3.3 -0.75 1.5708 0 0 0 1
3.26 3.3 -2.25 1.5708 0 0 0 1
3.26 1.7075 -2.25 1.5708 0 0 0 1
3.26 1.7075 -0.75 1.5708 0 0 0 1
3.26 1.7075 -0.75 1.10212 -1.11925 0 0 1
3.26 1.7075 -2.25 1.10212 -1.11925 0 0 1
2.99453 1.44609 -2.25 1.10212 -1.11925 0 0 1
2.99453 1.44609 -0.75 1.10212 -1.11925 0 0 1
2.99453 1.44609 -0.75 1.10246 1.11892 0 0 1
2.99453 1.44609 -2.25 1.10246 1.11892 0 0 1
3.26 1.18453 -2.25 1.10246 1.11892 0 0 1
3.26 1.18453 -0.75 1.10246 1.11892 0 0 1
3.26 1.18453 -0.75 1.5708 0 0 0 1
3.26 1.18453 -2.25 1.5708 0 0 0 1
3.26 -0.4 -2.25 1.5708 0 0 0 1
3.26 -0.4 -0.75 1.5708 0 0 0 1
3.26 -0.4 -0.75 0 -1.5708 0 0 1
3.26 -0.4 -2.25 0 -1.5708 0 0 1
2.74 -0.4 -2.25 0 -1.5708 0 0 1
2.74 -0.4 -0.75 0 -1.5708 0 0 1
2.74 -0.4 -0.75 -1.5708 0 0 0 1
2.74 -0.4 -2.25 -1.5708 0 0 0 1
2.74 1.18 -2.25 -1.5708 0 0 0 1
2.74 1.18 -0.75 -1.5708 0 0 0 1
2.74 1.18 -0.75 0 -1.5708 0 0 1
2.74 1.18 -2.25 0 -1.5708 0 0 1
1.67 1.18 -2.25 0 -1.5708 0 0 1
1.67 1.18 -0.75 0 -1.5708 0 0 1
1.67 1.18 -0.75 1.5708 0 0 0 1
1.67 1.18 -2.25 1.5708 0 0 0 1
1.67 -0.131406 -2.25 1.5708 0 0 0 1
1.67 -0.131406 -0.75 1.5708 0 0 0 1
1.67 -0.131406 -0.75 1.11072 -1.11072 0 0 1
1.67 -0.131406 -2.25 1.11072 -1.11072 0 0 1
1.40141 -0.4 -2.25 1.11072 -1.11072 0 0 1
1.40141 -0.4 -0.75 1.11072 -1.11072 0 0 1
1.40141 -0.4 -0.75 0 -1.5708 0 0 1
1.40141 -0.4 -2.25 0 -1.5708 0 0 1
0.358594 -0.4 -2.25 0 -1.5708 0 0 1
0.358594 -0.4 -0.75 0 -1.5708 0 0 1
0.358594 -0.4 -0.75 -1.1104 -1.11104 0 0 1
0.358594 -0.4 -2.25 -1.1104 -1.11104 0 0 1
0.09 -0.131562 -2.25 -1.1104 -1.11104 0 0 1
0.09 -0.131562 -0.75 -1.1104 -1.11104 0 0 1
0.09 -0.131562 -0.75 -1.5708 0 0 0 1
0.09 -0.131562 -2.25 -1.5708 0 0 0 1
0.09 1.17938 -2.25 -1.5708 0 0 0 1
0.09 1.17938 -0.75 -1.5708 0 0 0 1
2.74 -0.4 -0.75 0 0 1.5708 0 1
3.26 -0.4 -0.75 0 0 1.32917 0 1
2.74 1.18 -0.75 0 0 4.71239 0 1
2.74 1.71 -0.75 0 0 1.81243 0 1
1.67 1.18 -0.75 0 0 4.544 0 1
1.14 1.71 -0.75 0 0 4.54638 0 1
1.40141 -0.4 -0.75 0 0 0.441693 0 1
0.873594 3.3 -0.75 0 0 1.7368 0 1
0.364219 3.3 -0.75 0 0 1.29749 0 1
0.358594 -0.4 -0.75 0 0 2.35648 0 1
1.40141 -0.4 -0.75 0 0 1.29749 0 1
0.364219 3.3 -0.75 0 0 0.282879 0 1
0.346406 1.44 -0.75 0 0 3.90926 0 1
0.09 1.17938 -0.75 0 0 2.36435 0 1
0.09 -0.131562 -0.75 0 0 2.3559 0 1
0.09 3.02141 -0.75 0 0 2.36411 0 1
0.09 1.7 -0.75 0 0 2.36315 0 1
0.346406 1.44 -0.75 0 0 0.788016 0 1
0.364219 3.3 -0.75 0 0 0.767909 0 1
2.99453 1.44609 -0.75 0 0 4.72751 0 1
3.26 1.7075 -0.75 0 0 2.34848 0 1
3.26 3.3 -0.75 0 0 1.5708 0 1
2.74 3.3 -0.75 0 0 1.5708 0 1
2.74 1.71 -0.75 0 0 2.89996 0 1
3.26 -0.4 -0.75 0 0 0.241631 0 1
3.26 1.18453 -0.75 0 0 2.34878 0 1
1.14 3.02969 -0.75 0 0 2.36347 0 1
0.873594 3.3 -0.75 0 0 0.612112 0 1
1.14 1.71 -0.75 0 0 0.166009 0 1
1.67 1.18 -0.75 0 0 0.168386 0 1
1.40141 -0.4 -0.75 0 0 0.617011 0 1
1.67 -0.131406 -0.75 0 0 2.35619 0 1
2.74 -0.4 -2.25 0 0 -1.5708 0 1
3.26 -0.4 -2.25 0 0 -1.32917 0 1
2.74 1.18 -2.25 0 0 -4.71239 0 1
2.74 1.71 -2.25 0 0 -1.81243 0 1
1.67 1.18 -2.25 0 0 -4.544 0 1
1.14 1.71 -2.25 0 0 -4.54638 0 1
1.40141 -0.4 -2.25 0 0 -0.441693 0 1
0.873594 3.3 -2.25 0 0 -1.7368 0 1
0.364219 3.3 -2.25 0 0 -1.29749 0 1
0.358594 -0.4 -2.25 0 0 -2.35648 0 1
1.40141 -0.4 -2.25 0 0 -1.29749 0 1
0.364219 3.3 -2.25 0 0 -0.282879 0 1
0.346406 1.44 -2.25 0 0 -3.90926 0 1
0.09 1.17938 -2.25 0 0 -2.36435 0 1
0.09 -0.131562 -2.25 0 0 -2.3559 0 1
0.09 3.02141 -2.25 0 0 -2.36411 0 1
0.09 1.7 -2.25 0 0 -2.36315 0 1
0.346406 1.44 -2.25 0 0 -0.788016 0 1
0.364219 3.3 -2.25 0 0 -0.767909 0 1
2.99453 1.44609 -2.25 0 0 -4.72751 0 1
3.26 1.7075 -2.25 0 0 -2.34848 0 1
3.26 3.3 -2.25 0 0 -1.5708 0 1
2.74 3.3 -2.25 0 0 -1.5708 0 1
2.74 1.71 -2.25 0 0 -2.89996 0 1
3.26 -0.4 -2.25 0 0 -0.241631 0 1
3.26 1.18453 -2.25 0 0 -2.34878 0 1
1.14 3.02969 -2.25 0 0 -2.36347 0 1
0.873594 3.3 -2.25 0 0 -0.612112 0 1
1.14 1.71 -2.25 0 0 -0.166009 0 1
1.67 1.18 -2.25 0 0 -0.168386 0 1
1.40141 -0.4 -2.25 0 0 -0.617011 0 1
1.67 -0.131406 -2.25 0 0 -2.35619 0 1
3 0 2 1 
3 0 3 2 
3 4 6 5 
3 4 7 6 
3 8 10 9 
3 8 11 10 
3 12 14 13 
3 12 15 14 
3 16 18 17 
3 16 19 18 
3 20 22 21 
3 20 23 22 
3 24 26 25 
3 24 27 26 
3 28 30 29 
3 28 31 30 
3 32 34 33 
3 32 35 34 
3 36 38 37 
3 36 39 38 
3 40 42 41 
3 40 43 42 
3 44 46 45 
3 44 47 46 
3 48 50 49 
3 48 51 50 
3 52 54 53 
3 52 55 54 
3 56 58 57 
3 56 59 58 
3 60 62 61 
3 60 63 62 
3 64 66 65 
3 64 67 66 
3 68 70 69 
3 68 71 70 
3 72 74 73 
3 72 75 74 
3 76 78 77 
3 76 79 78 
3 80 82 81 
3 80 83 82 
3 84 86 85 
3 84 87 86 
3 88 89 90 
3 90 89 91 
3 90 91 92 
3 92 91 93 
3 92 93 94 
3 94 93 95 
3 94 95 96 
3 97 98 99 
3 97 99 100 
3 97 100 101 
3 97 101 102 
3 103 104 105 
3 103 105 106 
3 107 108 109 
3 107 109 110 
3 107 110 111 
3 107 111 112 
3 107 112 113 
3 114 115 116 
3 117 118 119 
3 120 122 121 
3 122 123 121 
3 122 124 123 
3 124 125 123 
3 124 126 125 
3 126 127 125 
3 126 128 127 
3 129 131 130 
3 129 132 131 
3 129 133 132 
3 129 134 133 
3 135 137 136 
3 135 138 137 
3 139 141 140 
3 139 142 141 
3 139 143 142 
3 139 144 143 
3 139 145 144 
3 146 148 147 
3 149 151 150 
