ply
format ascii 1.0
comment VCGLIB generated
element vertex 110
property float x
property float y
property float z
property float nx
property float ny
property float nz
property float texture_u
property float texture_v
element face 60
property list uchar int vertex_indices
end_header
0.1 1.44938 -0.75 -1.5708 0 0 0 1
0.1 1.44938 -2.25 -1.5708 0 0 0 1
0.1 4.08063 -2.25 -1.5708 0 0 0 1
0.1 4.08063 -0.75 -1.5708 0 0 0 1
0.1 4.08063 -0.75 -1.11072 1.11072 0 0 1
0.1 4.08063 -2.25 -1.11072 1.11072 0 0 1
0.369375 4.35 -2.25 -1.11072 1.11072 0 0 1
0.369375 4.35 -0.75 -1.11072 1.11072 0 0 1
0.369375 4.35 -0.75 0 1.5708 0 0 1
0.369375 4.35 -2.25 0 1.5708 0 0 1
3.53063 4.35 -2.25 0 1.5708 0 0 1
3.53063 4.35 -0.75 0 1.5708 0 0 1
3.53063 4.35 -0.75 1.1104 1.11104 0 0 1
3.53063 4.35 -2.25 1.1104 1.11104 0 0 1
3.8 4.08078 -2.25 1.1104 1.11104 0 0 1
3.8 4.08078 -0.75 1.1104 1.11104 0 0 1
3.8 4.08078 -0.75 1.5708 0 0 0 1
3.8 4.08078 -2.25 1.5708 0 0 0 1
3.8 -0.130781 -2.25 1.5708 0 0 0 1
3.8 -0.130781 -0.75 1.5708 0 0 0 1
3.8 -0.130781 -0.75 1.11008 -1.11136 0 0 1
3.8 -0.130781 -2.25 1.11008 -1.11136 0 0 1
3.53047 -0.4 -2.25 1.11008 -1.11136 0 0 1
3.53047 -0.4 -0.75 1.11008 -1.11136 0 0 1
3.53047 -0.4 -0.75 0 -1.5708 0 0 1
3.53047 -0.4 -2.25 0 -1.5708 0 0 1
2.47625 -0.4 -2.25 0 -1.5708 0 0 1
2.47625 -0.4 -0.75 0 -1.5708 0 0 1
2.47625 -0.4 -0.75 -1.10879 -1.11265 0 0 1
2.47625 -0.4 -2.25 -1.10879 -1.11265 0 0 1
2.20672 -0.131406 -2.25 -1.10879 -1.11265 0 0 1
2.20672 -0.131406 -0.75 -1.10879 -1.11265 0 0 1
2.20672 -0.131406 -0.75 -1.5708 0 0 0 1
2.20672 -0.131406 -2.25 -1.5708 0 0 0 1
2.20672 1.18 -2.25 -1.5708 0 0 0 1
2.20672 1.18 -0.75 -1.5708 0 0 0 1
2.20672 1.18 -0.75 0 -1.5708 0 0 1
2.20672 1.18 -2.25 0 -1.5708 0 0 1
0.369219 1.18 -2.25 0 -1.5708 0 0 1
0.369219 1.18 -0.75 0 -1.5708 0 0 1
0.369219 1.18 -0.75 -1.11104 -1.1104 0 0 1
0.369219 1.18 -2.25 -1.11104 -1.1104 0 0 1
0.1 1.44938 -2.25 -1.11104 -1.1104 0 0 1
0.1 1.44938 -0.75 -1.11104 -1.1104 0 0 1
2.75 1.71 -0.75 -1.5708 0 0 0 1
2.75 1.71 -2.25 -1.5708 0 0 0 1
2.75 3.82 -2.25 -1.5708 0 0 0 1
2.75 3.82 -0.75 -1.5708 0 0 0 1
2.75 3.82 -0.75 0 -1.5708 0 0 1
2.75 3.82 -2.25 0 -1.5708 0 0 1
0.62 3.82 -2.25 0 -1.5708 0 0 1
0.62 3.82 -0.75 0 -1.5708 0 0 1
0.62 3.82 -0.75 1.5708 0 0 0 1
0.62 3.82 -2.25 1.5708 0 0 0 1
0.62 1.71 -2.25 1.5708 0 0 0 1
0.62 1.71 -0.75 1.5708 0 0 0 1
0.62 1.71 -0.75 0 1.5708 0 0 1
0.62 1.71 -2.25 0 1.5708 0 0 1
2.75 1.71 -2.25 0 1.5708 0 0 1
2.75 1.71 -0.75 0 1.5708 0 0 1
3.53063 4.35 -0.75 0 0 2.35648 0 1
0.369375 4.35 -0.75 0 0 1.12908 0 1
0.62 3.82 -0.75 0 0 2.01251 0 1
2.75 3.82 -0.75 0 0 4.52951 0 1
3.53047 -0.4 -0.75 0 0 0.968856 0 1
3.8 -0.130781 -0.75 0 0 2.35561 0 1
3.8 4.08078 -0.75 0 0 2.35591 0 1
0.62 1.71 -0.75 0 0 4.71239 0 1
0.62 3.82 -0.75 0 0 2.69988 0 1
0.369375 4.35 -0.75 0 0 0.441764 0 1
0.369219 1.18 -0.75 0 0 1.57075 0 1
2.20672 1.18 -0.75 0 0 2.36857 0 1
2.75 1.71 -0.75 0 0 0.773025 0 1
2.75 1.71 -0.75 0 0 3.93936 0 1
2.20672 1.18 -0.75 0 0 2.17486 0 1
2.47625 -0.4 -0.75 0 0 1.73976 0 1
3.53047 -0.4 -0.75 0 0 1.38792 0 1
2.75 3.82 -0.75 0 0 0.182879 0 1
0.1 4.08063 -0.75 0 0 2.35619 0 1
0.1 1.44938 -0.75 0 0 2.35648 0 1
0.369219 1.18 -0.75 0 0 0.785158 0 1
0.369375 4.35 -0.75 0 0 0.785349 0 1
2.47625 -0.4 -0.75 0 0 0.618177 0 1
2.20672 1.18 -0.75 0 0 0.168963 0 1
2.20672 -0.131406 -0.75 0 0 2.35445 0 1
3.53063 4.35 -2.25 0 0 -2.35648 0 1
0.369375 4.35 -2.25 0 0 -1.12908 0 1
0.62 3.82 -2.25 0 0 -2.01251 0 1
2.75 3.82 -2.25 0 0 -4.52951 0 1
3.53047 -0.4 -2.25 0 0 -0.968856 0 1
3.8 -0.130781 -2.25 0 0 -2.35561 0 1
3.8 4.08078 -2.25 0 0 -2.35591 0 1
0.62 1.71 -2.25 0 0 -4.71239 0 1
0.62 3.82 -2.25 0 0 -2.69988 0 1
0.369375 4.35 -2.25 0 0 -0.441764 0 1
0.369219 1.18 -2.25 0 0 -1.57075 0 1
2.20672 1.18 -2.25 0 0 -2.36857 0 1
2.75 1.71 -2.25 0 0 -0.773025 0 1
2.75 1.71 -2.25 0 0 -3.93936 0 1
2.20672 1.18 -2.25 0 0 -2.17486 0 1
2.47625 -0.4 -2.25 0 0 -1.73976 0 1
3.53047 -0.4 -2.25 0 0 -1.38792 0 1
2.75 3.82 -2.25 0 0 -0.182879 0 1
0.1 4.08063 -2.25 0 0 -2.35619 0 1
0.1 1.44938 -2.25 0 0 -2.35648 0 1
0.369219 1.18 -2.25 0 0 -0.785158 0 1
0.369375 4.35 -2.25 0 0 -0.785349 0 1
2.47625 -0.4 -2.25 0 0 -0.618177 0 1
2.20672 1.18 -2.25 0 0 -0.168963 0 1
2.20672 -0.131406 -2.25 0 0 -2.35445 0 1
3 0 2 1 
3 0 3 2 
3 4 6 5 
3 4 7 6 
3 8 10 9 
3 8 11 10 
3 12 14 13 
3 12 15 14 
3 16 18 17 
3 16 19 18 
3 20 22 21 
3 20 23 22 
3 24 26 25 
3 24 27 26 
3 28 30 29 
3 28 31 30 
3 32 34 33 
3 32 35 34 
3 36 38 37 
3 36 39 38 
3 40 42 41 
3 40 43 42 
3 44 46 45 
3 44 47 46 
3 48 50 49 
3 48 51 50 
3 52 54 53 
3 52 55 54 
3 56 58 57 
3 56 59 58 
3 60 61 62 
3 60 62 63 
3 60 63 64 
3 60 64 65 
3 60 65 66 
3 67 68 69 
3 67 69 70 
3 67 70 71 
3 67 71 72 
3 73 74 75 
3 73 75 76 
3 73 76 77 
3 78 79 80 
3 78 80 81 
3 82 83 84 
3 85 87 86 
3 85 88 87 
3 85 89 88 
3 85 90 89 
3 85 91 90 
3 92 94 93 
3 92 95 94 
3 92 96 95 
3 92 97 96 
3 98 100 99 
3 98 101 100 
3 98 102 101 
3 103 105 104 
3 103 106 105 
3 107 109 108 
