ply
format ascii 1.0
comment VCGLIB generated
element vertex 106
property float x
property float y
property float z
property float nx
property float ny
property float nz
property float texture_u
property float texture_v
element face 60
property list uchar int vertex_indices
end_header
3.61078 4.35 -0.75 1.11072 1.11072 0 0 1
3.61078 4.35 -2.25 1.11072 1.11072 0 0 1
3.88 4.08078 -2.25 1.11072 1.11072 0 0 1
3.88 4.08078 -0.75 1.11072 1.11072 0 0 1
3.88 4.08078 -0.75 1.5708 0 0 0 1
3.88 4.08078 -2.25 1.5708 0 0 0 1
3.88 -0.130781 -2.25 1.5708 0 0 0 1
3.88 -0.130781 -0.75 1.5708 0 0 0 1
3.88 -0.130781 -0.75 1.11072 -1.11072 0 0 1
3.88 -0.130781 -2.25 1.11072 -1.11072 0 0 1
3.61078 -0.4 -2.25 1.11072 -1.11072 0 0 1
3.61078 -0.4 -0.75 1.11072 -1.11072 0 0 1
3.61078 -0.4 -0.75 0 -1.5708 0 0 1
3.61078 -0.4 -2.25 0 -1.5708 0 0 1
0.459219 -0.4 -2.25 0 -1.5708 0 0 1
0.459219 -0.4 -0.75 0 -1.5708 0 0 1
0.459219 -0.4 -0.75 -1.11072 -1.11072 0 0 1
0.459219 -0.4 -2.25 -1.11072 -1.11072 0 0 1
0.19 -0.130781 -2.25 -1.11072 -1.11072 0 0 1
0.19 -0.130781 -0.75 -1.11072 -1.11072 0 0 1
0.19 -0.130781 -0.75 -1.5708 0 0 0 1
0.19 -0.130781 -2.25 -1.5708 0 0 0 1
0.19 4.08078 -2.25 -1.5708 0 0 0 1
0.19 4.08078 -0.75 -1.5708 0 0 0 1
0.19 4.08078 -0.75 -1.11072 1.11072 0 0 1
0.19 4.08078 -2.25 -1.11072 1.11072 0 0 1
0.459219 4.35 -2.25 -1.11072 1.11072 0 0 1
0.459219 4.35 -0.75 -1.11072 1.11072 0 0 1
0.459219 4.35 -0.75 0 1.5708 0 0 1
0.459219 4.35 -2.25 0 1.5708 0 0 1
3.61078 4.35 -2.25 0 1.5708 0 0 1
3.61078 4.35 -0.75 0 1.5708 0 0 1
1.77 0.13 -0.75 -1.5708 0 0 0 1
1.77 0.13 -2.25 -1.5708 0 0 0 1
1.77 0.911563 -2.25 -1.5708 0 0 0 1
1.77 0.911563 -0.75 -1.5708 0 0 0 1
1.77 0.911563 -0.75 -1.10975 1.11169 0 0 1
1.77 0.911563 -2.25 -1.10975 1.11169 0 0 1
2.03891 1.18 -2.25 -1.10975 1.11169 0 0 1
2.03891 1.18 -0.75 -1.10975 1.11169 0 0 1
2.03891 1.18 -0.75 0 1.5708 0 0 1
2.03891 1.18 -2.25 0 1.5708 0 0 1
2.83 1.18 -2.25 0 1.5708 0 0 1
2.83 1.18 -0.75 0 1.5708 0 0 1
2.83 1.18 -0.75 -1.5708 0 0 0 1
2.83 1.18 -2.25 -1.5708 0 0 0 1
2.83 3.82 -2.25 -1.5708 0 0 0 1
2.83 3.82 -0.75 -1.5708 0 0 0 1
2.83 3.82 -0.75 0 -1.5708 0 0 1
2.83 3.82 -2.25 0 -1.5708 0 0 1
0.71 3.82 -2.25 0 -1.5708 0 0 1
0.71 3.82 -0.75 0 -1.5708 0 0 1
0.71 3.82 -0.75 1.5708 0 0 0 1
0.71 3.82 -2.25 1.5708 0 0 0 1
0.71 0.13 -2.25 1.5708 0 0 0 1
0.71 0.13 -0.75 1.5708 0 0 0 1
0.71 0.13 -0.75 0 1.5708 0 0 1
0.71 0.13 -2.25 0 1.5708 0 0 1
1.77 0.13 -2.25 0 1.5708 0 0 1
1.77 0.13 -0.75 0 1.5708 0 0 1
3.61078 4.35 -0.75 0 0 2.35619 0 1
0.459219 4.35 -0.75 0 0 1.12884 0 1
0.71 3.82 -0.75 0 0 2.01275 0 1
2.83 3.82 -0.75 0 0 4.52944 0 1
3.61078 -0.4 -0.75 0 0 0.968349 0 1
3.88 -0.130781 -0.75 0 0 2.35619 0 1
3.88 4.08078 -0.75 0 0 2.35619 0 1
0.71 0.13 -0.75 0 0 4.71239 0 1
0.71 3.82 -0.75 0 0 2.69964 0 1
0.459219 4.35 -0.75 0 0 0.441955 0 1
0.459219 -0.4 -0.75 0 0 1.5708 0 1
3.61078 -0.4 -0.75 0 0 0.280339 0 1
1.77 0.13 -0.75 0 0 2.86125 0 1
3.61078 -0.4 -0.75 0 0 1.10751 0 1
2.83 3.82 -0.75 0 0 0.18295 0 1
2.83 1.18 -0.75 0 0 4.71239 0 1
2.03891 1.18 -0.75 0 0 2.35707 0 1
1.77 0.911563 -0.75 0 0 2.35532 0 1
1.77 0.13 -0.75 0 0 1.85114 0 1
0.19 4.08078 -0.75 0 0 2.35619 0 1
0.19 -0.130781 -0.75 0 0 2.35619 0 1
0.459219 -0.4 -0.75 0 0 0.785398 0 1
0.459219 4.35 -0.75 0 0 0.785398 0 1
3.61078 4.35 -2.25 0 0 -2.35619 0 1
0.459219 4.35 -2.25 0 0 -1.12884 0 1
0.71 3.82 -2.25 0 0 -2.01275 0 1
2.83 3.82 -2.25 0 0 -4.52944 0 1
3.61078 -0.4 -2.25 0 0 -0.968349 0 1
3.88 -0.130781 -2.25 0 0 -2.35619 0 1
3.88 4.08078 -2.25 0 0 -2.35619 0 1
0.71 0.13 -2.25 0 0 -4.71239 0 1
0.71 3.82 -2.25 0 0 -2.69964 0 1
0.459219 4.35 -2.25 0 0 -0.441955 0 1
0.459219 -0.4 -2.25 0 0 -1.5708 0 1
3.61078 -0.4 -2.25 0 0 -0.280339 0 1
1.77 0.13 -2.25 0 0 -2.86125 0 1
3.61078 -0.4 -2.25 0 0 -1.10751 0 1
2.83 3.82 -2.25 0 0 -0.18295 0 1
2.83 1.18 -2.25 0 0 -4.71239 0 1
2.03891 1.18 -2.25 0 0 -2.35707 0 1
1.77 0.911563 -2.25 0 0 -2.35532 0 1
1.77 0.13 -2.25 0 0 -1.85114 0 1
0.19 4.08078 -2.25 0 0 -2.35619 0 1
0.19 -0.130781 -2.25 0 0 -2.35619 0 1
0.459219 -0.4 -2.25 0 0 -0.785398 0 1
0.459219 4.35 -2.25 0 0 -0.785398 0 1
3 0 2 1 
3 0 3 2 
3 4 6 5 
3 4 7 6 
3 8 10 9 
3 8 11 10 
3 12 14 13 
3 12 15 14 
3 16 18 17 
3 16 19 18 
3 20 22 21 
3 20 23 22 
3 24 26 25 
3 24 27 26 
3 28 30 29 
3 28 31 30 
3 32 34 33 
3 32 35 34 
3 36 38 37 
3 36 39 38 
3 40 42 41 
3 40 43 42 
3 44 46 45 
3 44 47 46 
3 48 50 49 
3 48 51 50 
3 52 54 53 
3 52 55 54 
3 56 58 57 
3 56 59 58 
3 60 61 62 
3 60 62 63 
3 60 63 64 
3 60 64 65 
3 60 65 66 
3 67 68 69 
3 67 69 70 
3 67 70 71 
3 67 71 72 
3 73 74 75 
3 73 75 76 
3 73 76 77 
3 73 77 78 
3 79 80 81 
3 79 81 82 
3 83 85 84 
3 83 86 85 
3 83 87 86 
3 83 88 87 
3 83 89 88 
3 90 92 91 
3 90 93 92 
3 90 94 93 
3 90 95 94 
3 96 98 97 
3 96 99 98 
3 96 100 99 
3 96 101 100 
3 102 104 103 
3 102 105 104 
