ply
format ascii 1.0
comment VCGLIB generated
element vertex 104
property float x
property float y
property float z
property float nx
property float ny
property float nz
property float texture_u
property float texture_v
element face 56
property list uchar int vertex_indices
end_header
0.359219 -0.4 -0.75 -1.11104 -1.1104 0 0 1
0.359219 -0.4 -2.25 -1.11104 -1.1104 0 0 1
0.09 -0.130625 -2.25 -1.11104 -1.1104 0 0 1
0.09 -0.130625 -0.75 -1.11104 -1.1104 0 0 1
0.09 -0.130625 -0.75 -1.5708 0 0 0 1
0.09 -0.130625 -2.25 -1.5708 0 0 0 1
0.09 3.03063 -2.25 -1.5708 0 0 0 1
0.09 3.03063 -0.75 -1.5708 0 0 0 1
0.09 3.03063 -0.75 -1.11104 1.1104 0 0 1
0.09 3.03063 -2.25 -1.11104 1.1104 0 0 1
0.359219 3.3 -2.25 -1.11104 1.1104 0 0 1
0.359219 3.3 -0.75 -1.11104 1.1104 0 0 1
0.359219 3.3 -0.75 0 1.5708 0 0 1
0.359219 3.3 -2.25 0 1.5708 0 0 1
2.98078 3.3 -2.25 0 1.5708 0 0 1
2.98078 3.3 -0.75 0 1.5708 0 0 1
2.98078 3.3 -0.75 1.11104 1.1104 0 0 1
2.98078 3.3 -2.25 1.11104 1.1104 0 0 1
3.25 3.03063 -2.25 1.11104 1.1104 0 0 1
3.25 3.03063 -0.75 1.11104 1.1104 0 0 1
3.25 3.03063 -0.75 1.5708 0 0 0 1
3.25 3.03063 -2.25 1.5708 0 0 0 1
3.25 -0.130625 -2.25 1.5708 0 0 0 1
3.25 -0.130625 -0.75 1.5708 0 0 0 1
3.25 -0.130625 -0.75 1.11104 -1.1104 0 0 1
3.25 -0.130625 -2.25 1.11104 -1.1104 0 0 1
2.98078 -0.4 -2.25 1.11104 -1.1104 0 0 1
2.98078 -0.4 -0.75 1.11104 -1.1104 0 0 1
2.98078 -0.4 -0.75 0 -1.5708 0 0 1
2.98078 -0.4 -2.25 0 -1.5708 0 0 1
0.359219 -0.4 -2.25 0 -1.5708 0 0 1
0.359219 -0.4 -0.75 0 -1.5708 0 0 1
2.73 2.77 -0.75 0 -1.5708 0 0 1
2.73 2.77 -2.25 0 -1.5708 0 0 1
1.15 2.77 -2.25 0 -1.5708 0 0 1
1.15 2.77 -0.75 0 -1.5708 0 0 1
1.15 2.77 -0.75 1.5708 0 0 0 1
1.15 2.77 -2.25 1.5708 0 0 0 1
1.15 1.96922 -2.25 1.5708 0 0 0 1
1.15 1.96922 -0.75 1.5708 0 0 0 1
1.15 1.96922 -0.75 1.10568 1.11574 0 0 1
1.15 1.96922 -2.25 1.10568 1.11574 0 0 1
1.67 1.45391 -2.25 1.10568 1.11574 0 0 1
1.67 1.45391 -0.75 1.10568 1.11574 0 0 1
1.67 1.45391 -0.75 1.5708 0 0 0 1
1.67 1.45391 -2.25 1.5708 0 0 0 1
1.67 0.13 -2.25 1.5708 0 0 0 1
1.67 0.13 -0.75 1.5708 0 0 0 1
1.67 0.13 -0.75 0 1.5708 0 0 1
1.67 0.13 -2.25 0 1.5708 0 0 1
2.73 0.13 -2.25 0 1.5708 0 0 1
2.73 0.13 -0.75 0 1.5708 0 0 1
2.73 0.13 -0.75 -1.5708 0 0 0 1
2.73 0.13 -2.25 -1.5708 0 0 0 1
2.73 2.77 -2.25 -1.5708 0 0 0 1
2.73 2.77 -0.75 -1.5708 0 0 0 1
2.98078 3.3 -0.75 0 0 2.3559 0 1
0.359219 3.3 -0.75 0 0 0.590461 0 1
1.15 2.77 -0.75 0 0 2.55113 0 1
2.73 2.77 -0.75 0 0 4.63344 0 1
2.98078 -0.4 -0.75 0 0 0.864054 0 1
3.25 -0.130625 -0.75 0 0 2.35649 0 1
3.25 3.03063 -0.75 0 0 2.35649 0 1
0.359219 3.3 -0.75 0 0 1.76544 0 1
0.09 3.03063 -0.75 0 0 2.27817 0 1
0.359219 -0.4 -0.75 0 0 1.26487 0 1
1.67 0.13 -0.75 0 0 1.6795 0 1
1.15 1.96922 -0.75 0 0 3.41713 0 1
1.15 2.77 -0.75 0 0 2.16126 0 1
2.98078 -0.4 -0.75 0 0 1.49185 0 1
2.73 2.77 -0.75 0 0 0.0789471 0 1
2.73 0.13 -0.75 0 0 4.71239 0 1
1.67 0.13 -0.75 0 0 2.75735 0 1
0.359219 -0.4 -0.75 0 0 0.384241 0 1
1.67 1.45391 -0.75 0 0 2.35167 0 1
1.15 1.96922 -0.75 0 0 0.514388 0 1
1.67 0.13 -0.75 0 0 0.275537 0 1
0.359219 -0.4 -0.75 0 0 0.706794 0 1
0.09 3.03063 -0.75 0 0 0.078315 0 1
0.09 -0.130625 -0.75 0 0 2.35648 0 1
2.98078 3.3 -2.25 0 0 -2.3559 0 1
0.359219 3.3 -2.25 0 0 -0.590461 0 1
1.15 2.77 -2.25 0 0 -2.55113 0 1
2.73 2.77 -2.25 0 0 -4.63344 0 1
2.98078 -0.4 -2.25 0 0 -0.864054 0 1
3.25 -0.130625 -2.25 0 0 -2.35649 0 1
3.25 3.03063 -2.25 0 0 -2.35649 0 1
0.359219 3.3 -2.25 0 0 -1.76544 0 1
0.09 3.03063 -2.25 0 0 -2.27817 0 1
0.359219 -0.4 -2.25 0 0 -1.26487 0 1
1.67 0.13 -2.25 0 0 -1.6795 0 1
1.15 1.96922 -2.25 0 0 -3.41713 0 1
1.15 2.77 -2.25 0 0 -2.16126 0 1
2.98078 -0.4 -2.25 0 0 -1.49185 0 1
2.73 2.77 -2.25 0 0 -0.0789471 0 1
2.73 0.13 -2.25 0 0 -4.71239 0 1
1.67 0.13 -2.25 0 0 -2.75735 0 1
0.359219 -0.4 -2.25 0 0 -0.384241 0 1
1.67 1.45391 -2.25 0 0 -2.35167 0 1
1.15 1.96922 -2.25 0 0 -0.514388 0 1
1.67 0.13 -2.25 0 0 -0.275537 0 1
0.359219 -0.4 -2.25 0 0 -0.706794 0 1
0.09 3.03063 -2.25 0 0 -0.078315 0 1
0.09 -0.130625 -2.25 0 0 -2.35648 0 1
3 0 2 1 
3 0 3 2 
3 4 6 5 
3 4 7 6 
3 8 10 9 
3 8 11 10 
3 12 14 13 
3 12 15 14 
3 16 18 17 
3 16 19 18 
3 20 22 21 
3 20 23 22 
3 24 26 25 
3 24 27 26 
3 28 30 29 
3 28 31 30 
3 32 34 33 
3 32 35 34 
3 36 38 37 
3 36 39 38 
3 40 42 41 
3 40 43 42 
3 44 46 45 
3 44 47 46 
3 48 50 49 
3 48 51 50 
3 52 54 53 
3 52 55 54 
3 56 57 58 
3 56 58 59 
3 56 59 60 
3 56 60 61 
3 56 61 62 
3 63 64 65 
3 63 65 66 
3 63 66 67 
3 63 67 68 
3 69 70 71 
3 69 71 72 
3 69 72 73 
3 74 75 76 
3 77 78 79 
3 80 82 81 
3 80 83 82 
3 80 84 83 
3 80 85 84 
3 80 86 85 
3 87 89 88 
3 87 90 89 
3 87 91 90 
3 87 92 91 
3 93 95 94 
3 93 96 95 
3 93 97 96 
3 98 100 99 
3 101 103 102 
