ply
format ascii 1.0
comment VCGLIB generated
element vertex 140
property float x
property float y
property float z
property float nx
property float ny
property float nz
property float texture_u
property float texture_v
element face 76
property list uchar int vertex_indices
end_header
5.37 -0.130625 -0.75 1.11136 -1.11008 0 0 1
5.37 -0.130625 -2.25 1.11136 -1.11008 0 0 1
5.10094 -0.4 -2.25 1.11136 -1.11008 0 0 1
5.10094 -0.4 -0.75 1.11136 -1.11008 0 0 1
5.10094 -0.4 -0.75 0 -1.5708 0 0 1
5.10094 -0.4 -2.25 0 -1.5708 0 0 1
0.369063 -0.4 -2.25 0 -1.5708 0 0 1
0.369063 -0.4 -0.75 0 -1.5708 0 0 1
0.369063 -0.4 -0.75 -1.11136 -1.11008 0 0 1
0.369063 -0.4 -2.25 -1.11136 -1.11008 0 0 1
0.1 -0.130625 -2.25 -1.11136 -1.11008 0 0 1
0.1 -0.130625 -0.75 -1.11136 -1.11008 0 0 1
0.1 -0.130625 -0.75 -1.5708 0 0 0 1
0.1 -0.130625 -2.25 -1.5708 0 0 0 1
0.1 3.03063 -2.25 -1.5708 0 0 0 1
0.1 3.03063 -0.75 -1.5708 0 0 0 1
0.1 3.03063 -0.75 -1.11265 1.10878 0 0 1
0.1 3.03063 -2.25 -1.11265 1.10878 0 0 1
0.368438 3.3 -2.25 -1.11265 1.10878 0 0 1
0.368438 3.3 -0.75 -1.11265 1.10878 0 0 1
0.368438 3.3 -0.75 0 1.5708 0 0 1
0.368438 3.3 -2.25 0 1.5708 0 0 1
0.881562 3.3 -2.25 0 1.5708 0 0 1
0.881562 3.3 -0.75 0 1.5708 0 0 1
0.881562 3.3 -0.75 1.11265 1.10878 0 0 1
0.881562 3.3 -2.25 1.11265 1.10878 0 0 1
1.15 3.03063 -2.25 1.11265 1.10878 0 0 1
1.15 3.03063 -0.75 1.11265 1.10878 0 0 1
1.15 3.03063 -0.75 1.5708 0 0 0 1
1.15 3.03063 -2.25 1.5708 0 0 0 1
1.15 1.97656 -2.25 1.5708 0 0 0 1
1.15 1.97656 -0.75 1.5708 0 0 0 1
1.15 1.97656 -0.75 1.1117 1.10974 0 0 1
1.15 1.97656 -2.25 1.1117 1.10974 0 0 1
1.68 1.44562 -2.25 1.1117 1.10974 0 0 1
1.68 1.44562 -0.75 1.1117 1.10974 0 0 1
1.68 1.44562 -0.75 1.5708 0 0 0 1
1.68 1.44562 -2.25 1.5708 0 0 0 1
1.68 0.13 -2.25 1.5708 0 0 0 1
1.68 0.13 -0.75 1.5708 0 0 0 1
1.68 0.13 -0.75 0 1.5708 0 0 1
1.68 0.13 -2.25 0 1.5708 0 0 1
2.75 0.13 -2.25 0 1.5708 0 0 1
2.75 0.13 -0.75 0 1.5708 0 0 1
2.75 0.13 -0.75 -1.5708 0 0 0 1
2.75 0.13 -2.25 -1.5708 0 0 0 1
2.75 3.3 -2.25 -1.5708 0 0 0 1
2.75 3.3 -0.75 -1.5708 0 0 0 1
2.75 3.3 -0.75 0 1.5708 0 0 1
2.75 3.3 -2.25 0 1.5708 0 0 1
3.27 3.3 -2.25 0 1.5708 0 0 1
3.27 3.3 -0.75 0 1.5708 0 0 1
3.27 3.3 -0.75 1.5708 0 0 0 1
3.27 3.3 -2.25 1.5708 0 0 0 1
3.27 1.97656 -2.25 1.5708 0 0 0 1
3.27 1.97656 -0.75 1.5708 0 0 0 1
3.27 1.97656 -0.75 1.11404 1.10739 0 0 1
3.27 1.97656 -2.25 1.11404 1.10739 0 0 1
3.79 1.45344 -2.25 1.11404 1.10739 0 0 1
3.79 1.45344 -0.75 1.11404 1.10739 0 0 1
3.79 1.45344 -0.75 1.5708 0 0 0 1
3.79 1.45344 -2.25 1.5708 0 0 0 1
3.79 0.13 -2.25 1.5708 0 0 0 1
3.79 0.13 -0.75 1.5708 0 0 0 1
3.79 0.13 -0.75 0 1.5708 0 0 1
3.79 0.13 -2.25 0 1.5708 0 0 1
4.85 0.13 -2.25 0 1.5708 0 0 1
4.85 0.13 -0.75 0 1.5708 0 0 1
4.85 0.13 -0.75 -1.5708 0 0 0 1
4.85 0.13 -2.25 -1.5708 0 0 0 1
4.85 3.3 -2.25 -1.5708 0 0 0 1
4.85 3.3 -0.75 -1.5708 0 0 0 1
4.85 3.3 -0.75 0 1.5708 0 0 1
4.85 3.3 -2.25 0 1.5708 0 0 1
5.37 3.3 -2.25 0 1.5708 0 0 1
5.37 3.3 -0.75 0 1.5708 0 0 1
5.37 3.3 -0.75 1.5708 0 0 0 1
5.37 3.3 -2.25 1.5708 0 0 0 1
5.37 -0.130625 -2.25 1.5708 0 0 0 1
5.37 -0.130625 -0.75 1.5708 0 0 0 1
5.10094 -0.4 -0.75 0 0 2.35561 0 1
5.37 -0.130625 -0.75 0 0 2.35677 0 1
5.37 3.3 -0.75 0 0 1.5708 0 1
4.85 3.3 -0.75 0 0 1.5708 0 1
4.85 0.13 -0.75 0 0 4.71239 0 1
3.79 0.13 -0.75 0 0 3.14159 0 1
2.75 0.13 -0.75 0 0 3.14159 0 1
1.68 0.13 -0.75 0 0 2.75739 0 1
0.369063 -0.4 -0.75 0 0 0.3842 0 1
2.75 3.3 -0.75 0 0 1.5708 0 1
2.75 0.13 -0.75 0 0 1.5708 0 1
3.79 0.13 -0.75 0 0 1.2963 0 1
3.27 1.97656 -0.75 0 0 3.41609 0 1
3.27 3.3 -0.75 0 0 1.5708 0 1
0.369063 -0.4 -0.75 0 0 1.97141 0 1
1.68 0.13 -0.75 0 0 1.67549 0 1
1.15 1.97656 -0.75 0 0 3.22098 0 1
0.881562 3.3 -0.75 0 0 1.77092 0 1
0.368438 3.3 -0.75 0 0 2.35445 0 1
0.1 3.03063 -0.75 0 0 2.35794 0 1
0.1 -0.130625 -0.75 0 0 2.35677 0 1
1.15 3.03063 -0.75 0 0 2.35794 0 1
0.881562 3.3 -0.75 0 0 0.583537 0 1
1.15 1.97656 -0.75 0 0 0.200119 0 1
1.68 1.44562 -0.75 0 0 2.35708 0 1
1.15 1.97656 -0.75 0 0 0.505008 0 1
1.68 0.13 -0.75 0 0 0.279506 0 1
3.79 1.45344 -0.75 0 0 2.35919 0 1
3.27 1.97656 -0.75 0 0 0.507907 0 1
3.79 0.13 -0.75 0 0 0.274496 0 1
5.10094 -0.4 -2.25 0 0 -2.35561 0 1
5.37 -0.130625 -2.25 0 0 -2.35677 0 1
5.37 3.3 -2.25 0 0 -1.5708 0 1
4.85 3.3 -2.25 0 0 -1.5708 0 1
4.85 0.13 -2.25 0 0 -4.71239 0 1
3.79 0.13 -2.25 0 0 -3.14159 0 1
2.75 0.13 -2.25 0 0 -3.14159 0 1
1.68 0.13 -2.25 0 0 -2.75739 0 1
0.369063 -0.4 -2.25 0 0 -0.3842 0 1
2.75 3.3 -2.25 0 0 -1.5708 0 1
2.75 0.13 -2.25 0 0 -1.5708 0 1
3.79 0.13 -2.25 0 0 -1.2963 0 1
3.27 1.97656 -2.25 0 0 -3.41609 0 1
3.27 3.3 -2.25 0 0 -1.5708 0 1
0.369063 -0.4 -2.25 0 0 -1.97141 0 1
1.68 0.13 -2.25 0 0 -1.67549 0 1
1.15 1.97656 -2.25 0 0 -3.22098 0 1
0.881562 3.3 -2.25 0 0 -1.77092 0 1
0.368438 3.3 -2.25 0 0 -2.35445 0 1
0.1 3.03063 -2.25 0 0 -2.35794 0 1
0.1 -0.130625 -2.25 0 0 -2.35677 0 1
1.15 3.03063 -2.25 0 0 -2.35794 0 1
0.881562 3.3 -2.25 0 0 -0.583537 0 1
1.15 1.97656 -2.25 0 0 -0.200119 0 1
1.68 1.44562 -2.25 0 0 -2.35708 0 1
1.15 1.97656 -2.25 0 0 -0.505008 0 1
1.68 0.13 -2.25 0 0 -0.279506 0 1
3.79 1.45344 -2.25 0 0 -2.35919 0 1
3.27 1.97656 -2.25 0 0 -0.507907 0 1
3.79 0.13 -2.25 0 0 -0.274496 0 1
3 0 2 1 
3 0 3 2 
3 4 6 5 
3 4 7 6 
3 8 10 9 
3 8 11 10 
3 12 14 13 
3 12 15 14 
3 16 18 17 
3 16 19 18 
3 20 22 21 
3 20 23 22 
3 24 26 25 
3 24 27 26 
3 28 30 29 
3 28 31 30 
3 32 34 33 
3 32 35 34 
3 36 38 37 
3 36 39 38 
3 40 42 41 
3 40 43 42 
3 44 46 45 
3 44 47 46 
3 48 50 49 
3 48 51 50 
3 52 54 53 
3 52 55 54 
3 56 58 57 
3 56 59 58 
3 60 62 61 
3 60 63 62 
3 64 66 65 
3 64 67 66 
3 68 70 69 
3 68 71 70 
3 72 74 73 
3 72 75 74 
3 76 78 77 
3 76 79 78 
3 80 81 82 
3 80 82 83 
3 80 83 84 
3 80 84 85 
3 80 85 86 
3 80 86 87 
3 80 87 88 
3 89 90 91 
3 89 91 92 
3 89 92 93 
3 94 95 96 
3 94 96 97 
3 94 97 98 
3 94 98 99 
3 94 99 100 
3 101 102 103 
3 104 105 106 
3 107 108 109 
3 110 112 111 
3 110 113 112 
3 110 114 113 
3 110 115 114 
3 110 116 115 
3 110 117 116 
3 110 118 117 
3 119 121 120 
3 119 122 121 
3 119 123 122 
3 124 126 125 
3 124 127 126 
3 124 128 127 
3 124 129 128 
3 124 130 129 
3 131 133 132 
3 134 136 135 
3 137 139 138 
