ply
format ascii 1.0
comment VCGLIB generated
element vertex 108
property float x
property float y
property float z
property float nx
property float ny
property float nz
property float texture_u
property float texture_v
element face 60
property list uchar int vertex_indices
end_header
0.82 3.29 -0.75 0 -1.5708 0 0 1
0.82 3.29 -2.25 0 -1.5708 0 0 1
0.27 3.29 -2.25 0 -1.5708 0 0 1
0.27 3.29 -0.75 0 -1.5708 0 0 1
0.27 3.29 -0.75 -1.5708 0 0 0 1
0.27 3.29 -2.25 -1.5708 0 0 0 1
0.27 4.08109 -2.25 -1.5708 0 0 0 1
0.27 4.08109 -0.75 -1.5708 0 0 0 1
0.27 4.08109 -0.75 -1.10493 1.11648 0 0 1
0.27 4.08109 -2.25 -1.10493 1.11648 0 0 1
0.541719 4.35 -2.25 -1.10493 1.11648 0 0 1
0.541719 4.35 -0.75 -1.10493 1.11648 0 0 1
0.541719 4.35 -0.75 0 1.5708 0 0 1
0.541719 4.35 -2.25 0 1.5708 0 0 1
2.14828 4.35 -2.25 0 1.5708 0 0 1
2.14828 4.35 -0.75 0 1.5708 0 0 1
2.14828 4.35 -0.75 1.11327 1.10817 0 0 1
2.14828 4.35 -2.25 1.11327 1.10817 0 0 1
2.42 4.07703 -2.25 1.11327 1.10817 0 0 1
2.42 4.07703 -0.75 1.11327 1.10817 0 0 1
2.42 4.07703 -0.75 1.5708 0 0 0 1
2.42 4.07703 -2.25 1.5708 0 0 0 1
2.42 3.82 -2.25 1.5708 0 0 0 1
2.42 3.82 -0.75 1.5708 0 0 0 1
2.42 3.82 -0.75 0 1.5708 0 0 1
2.42 3.82 -2.25 0 1.5708 0 0 1
2.93 3.82 -2.25 0 1.5708 0 0 1
2.93 3.82 -0.75 0 1.5708 0 0 1
2.93 3.82 -0.75 -1.5708 0 0 0 1
2.93 3.82 -2.25 -1.5708 0 0 0 1
2.93 4.35 -2.25 -1.5708 0 0 0 1
2.93 4.35 -0.75 -1.5708 0 0 0 1
2.93 4.35 -0.75 0 1.5708 0 0 1
2.93 4.35 -2.25 0 1.5708 0 0 1
3.45 4.35 -2.25 0 1.5708 0 0 1
3.45 4.35 -0.75 0 1.5708 0 0 1
3.45 4.35 -0.75 1.5708 0 0 0 1
3.45 4.35 -2.25 1.5708 0 0 0 1
3.45 3.55891 -2.25 1.5708 0 0 0 1
3.45 3.55891 -0.75 1.5708 0 0 0 1
3.45 3.55891 -0.75 1.11072 -1.11072 0 0 1
3.45 3.55891 -2.25 1.11072 -1.11072 0 0 1
3.18109 3.29 -2.25 1.11072 -1.11072 0 0 1
3.18109 3.29 -0.75 1.11072 -1.11072 0 0 1
3.18109 3.29 -0.75 0 -1.5708 0 0 1
3.18109 3.29 -2.25 0 -1.5708 0 0 1
1.59891 3.29 -2.25 0 -1.5708 0 0 1
1.59891 3.29 -0.75 0 -1.5708 0 0 1
1.59891 3.29 -0.75 -1.11072 -1.11072 0 0 1
1.59891 3.29 -2.25 -1.11072 -1.11072 0 0 1
1.33 3.55891 -2.25 -1.11072 -1.11072 0 0 1
1.33 3.55891 -0.75 -1.11072 -1.11072 0 0 1
1.33 3.55891 -0.75 -1.5708 0 0 0 1
1.33 3.55891 -2.25 -1.5708 0 0 0 1
1.33 3.82 -2.25 -1.5708 0 0 0 1
1.33 3.82 -0.75 -1.5708 0 0 0 1
1.33 3.82 -0.75 0 -1.5708 0 0 1
1.33 3.82 -2.25 0 -1.5708 0 0 1
0.82 3.82 -2.25 0 -1.5708 0 0 1
0.82 3.82 -0.75 0 -1.5708 0 0 1
0.82 3.82 -0.75 1.5708 0 0 0 1
0.82 3.82 -2.25 1.5708 0 0 0 1
0.82 3.29 -2.25 1.5708 0 0 0 1
0.82 3.29 -0.75 1.5708 0 0 0 1
3.18109 3.29 -0.75 0 0 2.3562 0 1
3.45 3.55891 -0.75 0 0 2.35619 0 1
3.45 4.35 -0.75 0 0 1.5708 0 1
2.93 4.35 -0.75 0 0 1.5708 0 1
2.93 3.82 -0.75 0 0 4.71239 0 1
2.42 3.82 -0.75 0 0 2.5684 0 1
1.59891 3.29 -0.75 0 0 0.573191 0 1
2.14828 4.35 -0.75 0 0 2.3539 0 1
0.541719 4.35 -0.75 0 0 1.0873 0 1
0.82 3.82 -0.75 0 0 2.05429 0 1
1.33 3.82 -0.75 0 0 4.24286 0 1
1.59891 3.29 -0.75 0 0 1.46713 0 1
2.42 3.82 -0.75 0 0 2.14399 0 1
2.42 4.07703 -0.75 0 0 2.35849 0 1
0.82 3.29 -0.75 0 0 1.5708 0 1
0.82 3.82 -0.75 0 0 2.6581 0 1
0.541719 4.35 -0.75 0 0 1.27409 0 1
0.27 4.08109 -0.75 0 0 2.35099 0 1
0.27 3.29 -0.75 0 0 1.5708 0 1
1.59891 3.29 -0.75 0 0 0.315872 0 1
1.33 3.82 -0.75 0 0 0.469526 0 1
1.33 3.55891 -0.75 0 0 2.35619 0 1
3.18109 3.29 -2.25 0 0 -2.3562 0 1
3.45 3.55891 -2.25 0 0 -2.35619 0 1
3.45 4.35 -2.25 0 0 -1.5708 0 1
2.93 4.35 -2.25 0 0 -1.5708 0 1
2.93 3.82 -2.25 0 0 -4.71239 0 1
2.42 3.82 -2.25 0 0 -2.5684 0 1
1.59891 3.29 -2.25 0 0 -0.573191 0 1
2.14828 4.35 -2.25 0 0 -2.3539 0 1
0.541719 4.35 -2.25 0 0 -1.0873 0 1
0.82 3.82 -2.25 0 0 -2.05429 0 1
1.33 3.82 -2.25 0 0 -4.24286 0 1
1.59891 3.29 -2.25 0 0 -1.46713 0 1
2.42 3.82 -2.25 0 0 -2.14399 0 1
2.42 4.07703 -2.25 0 0 -2.35849 0 1
0.82 3.29 -2.25 0 0 -1.5708 0 1
0.82 3.82 -2.25 0 0 -2.6581 0 1
0.541719 4.35 -2.25 0 0 -1.27409 0 1
0.27 4.08109 -2.25 0 0 -2.35099 0 1
0.27 3.29 -2.25 0 0 -1.5708 0 1
1.59891 3.29 -2.25 0 0 -0.315872 0 1
1.33 3.82 -2.25 0 0 -0.469526 0 1
1.33 3.55891 -2.25 0 0 -2.35619 0 1
3 0 2 1 
3 0 3 2 
3 4 6 5 
3 4 7 6 
3 8 10 9 
3 8 11 10 
3 12 14 13 
3 12 15 14 
3 16 18 17 
3 16 19 18 
3 20 22 21 
3 20 23 22 
3 24 26 25 
3 24 27 26 
3 28 30 29 
3 28 31 30 
3 32 34 33 
3 32 35 34 
3 36 38 37 
3 36 39 38 
3 40 42 41 
3 40 43 42 
3 44 46 45 
3 44 47 46 
3 48 50 49 
3 48 51 50 
3 52 54 53 
3 52 55 54 
3 56 58 57 
3 56 59 58 
3 60 62 61 
3 60 63 62 
3 64 65 66 
3 64 66 67 
3 64 67 68 
3 64 68 69 
3 64 69 70 
3 71 72 73 
3 71 73 74 
3 71 74 75 
3 71 75 76 
3 71 76 77 
3 78 79 80 
3 78 80 81 
3 78 81 82 
3 83 84 85 
3 86 88 87 
3 86 89 88 
3 86 90 89 
3 86 91 90 
3 86 92 91 
3 93 95 94 
3 93 96 95 
3 93 97 96 
3 93 98 97 
3 93 99 98 
3 100 102 101 
3 100 103 102 
3 100 104 103 
3 105 107 106 
