ply
format ascii 1.0
comment VCGLIB generated
element vertex 124
property float x
property float y
property float z
property float nx
property float ny
property float nz
property float texture_u
property float texture_v
element face 68
property list uchar int vertex_indices
end_header
2.88 1.45219 -0.75 -1.12173 1.0996 0 0 1
2.88 1.45219 -2.25 -1.12173 1.0996 0 0 1
3.4 1.98266 -2.25 -1.12173 1.0996 0 0 1
3.4 1.98266 -0.75 -1.12173 1.0996 0 0 1
3.4 1.98266 -0.75 -1.5708 0 0 0 1
3.4 1.98266 -2.25 -1.5708 0 0 0 1
3.4 4.35 -2.25 -1.5708 0 0 0 1
3.4 4.35 -0.75 -1.5708 0 0 0 1
3.4 4.35 -0.75 0 1.5708 0 0 1
3.4 4.35 -2.25 0 1.5708 0 0 1
3.92 4.35 -2.25 0 1.5708 0 0 1
3.92 4.35 -0.75 0 1.5708 0 0 1
3.92 4.35 -0.75 1.5708 0 0 0 1
3.92 4.35 -2.25 1.5708 0 0 0 1
3.92 1.4525 -2.25 1.5708 0 0 0 1
3.92 1.4525 -0.75 1.5708 0 0 0 1
3.92 1.4525 -0.75 1.11338 -1.10805 0 0 1
3.92 1.4525 -2.25 1.11338 -1.10805 0 0 1
3.4 0.93 -2.25 1.11338 -1.10805 0 0 1
3.4 0.93 -0.75 1.11338 -1.10805 0 0 1
3.4 0.93 -0.75 1.5708 0 0 0 1
3.4 0.93 -2.25 1.5708 0 0 0 1
3.4 -0.130781 -2.25 1.5708 0 0 0 1
3.4 -0.130781 -0.75 1.5708 0 0 0 1
3.4 -0.130781 -0.75 1.11008 -1.11136 0 0 1
3.4 -0.130781 -2.25 1.11008 -1.11136 0 0 1
3.13047 -0.4 -2.25 1.11008 -1.11136 0 0 1
3.13047 -0.4 -0.75 1.11008 -1.11136 0 0 1
3.13047 -0.4 -0.75 0 -1.5708 0 0 1
3.13047 -0.4 -2.25 0 -1.5708 0 0 1
1.02953 -0.4 -2.25 0 -1.5708 0 0 1
1.02953 -0.4 -0.75 0 -1.5708 0 0 1
1.02953 -0.4 -0.75 -1.11008 -1.11136 0 0 1
1.02953 -0.4 -2.25 -1.11008 -1.11136 0 0 1
0.76 -0.130781 -2.25 -1.11008 -1.11136 0 0 1
0.76 -0.130781 -0.75 -1.11008 -1.11136 0 0 1
0.76 -0.130781 -0.75 -1.5708 0 0 0 1
0.76 -0.130781 -2.25 -1.5708 0 0 0 1
0.76 0.922031 -2.25 -1.5708 0 0 0 1
0.76 0.922031 -0.75 -1.5708 0 0 0 1
0.76 0.922031 -0.75 -1.11121 -1.11023 0 0 1
0.76 0.922031 -2.25 -1.11121 -1.11023 0 0 1
0.23 1.4525 -2.25 -1.11121 -1.11023 0 0 1
0.23 1.4525 -0.75 -1.11121 -1.11023 0 0 1
0.23 1.4525 -0.75 -1.5708 0 0 0 1
0.23 1.4525 -2.25 -1.5708 0 0 0 1
0.23 4.08078 -2.25 -1.5708 0 0 0 1
0.23 4.08078 -0.75 -1.5708 0 0 0 1
0.23 4.08078 -0.75 -1.10911 1.11233 0 0 1
0.23 4.08078 -2.25 -1.10911 1.11233 0 0 1
0.5 4.35 -2.25 -1.10911 1.11233 0 0 1
0.5 4.35 -0.75 -1.10911 1.11233 0 0 1
0.5 4.35 -0.75 0 1.5708 0 0 1
0.5 4.35 -2.25 0 1.5708 0 0 1
1.54 4.35 -2.25 0 1.5708 0 0 1
1.54 4.35 -0.75 0 1.5708 0 0 1
1.54 4.35 -0.75 1.10911 1.11233 0 0 1
1.54 4.35 -2.25 1.10911 1.11233 0 0 1
1.81 4.08078 -2.25 1.10911 1.11233 0 0 1
1.81 4.08078 -0.75 1.10911 1.11233 0 0 1
1.81 4.08078 -0.75 1.5708 0 0 0 1
1.81 4.08078 -2.25 1.5708 0 0 0 1
1.81 0.13 -2.25 1.5708 0 0 0 1
1.81 0.13 -0.75 1.5708 0 0 0 1
1.81 0.13 -0.75 0 1.5708 0 0 1
1.81 0.13 -2.25 0 1.5708 0 0 1
2.88 0.13 -2.25 0 1.5708 0 0 1
2.88 0.13 -0.75 0 1.5708 0 0 1
2.88 0.13 -0.75 -1.5708 0 0 0 1
2.88 0.13 -2.25 -1.5708 0 0 0 1
2.88 1.45219 -2.25 -1.5708 0 0 0 1
2.88 1.45219 -0.75 -1.5708 0 0 0 1
3.4 -0.130781 -0.75 0 0 0 0 1
3.4 0.93 -0.75 0 0 0.783 0 1
3.4 1.98266 -0.75 0 0 3.14159 0 1
3.92 1.4525 -0.75 0 0 2.35859 0 1
3.4 4.35 -0.75 0 0 1.5708 0 1
3.92 4.35 -0.75 0 0 1.5708 0 1
3.13047 -0.4 -0.75 0 0 2.35677 0 1
3.4 -0.130781 -0.75 0 0 2.35562 0 1
3.4 1.98266 -0.75 0 0 0.775434 0 1
2.88 1.45219 -0.75 0 0 2.36616 0 1
2.88 0.13 -0.75 0 0 4.71239 0 1
1.81 0.13 -0.75 0 0 2.54505 0 1
1.02953 -0.4 -0.75 0 0 0.596546 0 1
1.54 4.35 -0.75 0 0 2.35764 0 1
0.5 4.35 -0.75 0 0 1.49509 0 1
0.76 0.922031 -0.75 0 0 3.01617 0 1
1.02953 -0.4 -0.75 0 0 1.17537 0 1
1.81 0.13 -0.75 0 0 2.16734 0 1
1.81 4.08078 -0.75 0 0 2.35475 0 1
0.23 4.08078 -0.75 0 0 2.35475 0 1
0.23 1.4525 -0.75 0 0 2.35664 0 1
0.76 0.922031 -0.75 0 0 0.709254 0 1
0.5 4.35 -0.75 0 0 0.862548 0 1
1.02953 -0.4 -0.75 0 0 0.584857 0 1
0.76 0.922031 -0.75 0 0 0.20112 0 1
0.76 -0.130781 -0.75 0 0 2.35562 0 1
3.4 -0.130781 -2.25 0 0 0 0 1
3.4 0.93 -2.25 0 0 -0.783 0 1
3.4 1.98266 -2.25 0 0 -3.14159 0 1
3.92 1.4525 -2.25 0 0 -2.35859 0 1
3.4 4.35 -2.25 0 0 -1.5708 0 1
3.92 4.35 -2.25 0 0 -1.5708 0 1
3.13047 -0.4 -2.25 0 0 -2.35677 0 1
3.4 -0.130781 -2.25 0 0 -2.35562 0 1
3.4 1.98266 -2.25 0 0 -0.775434 0 1
2.88 1.45219 -2.25 0 0 -2.36616 0 1
2.88 0.13 -2.25 0 0 -4.71239 0 1
1.81 0.13 -2.25 0 0 -2.54505 0 1
1.02953 -0.4 -2.25 0 0 -0.596546 0 1
1.54 4.35 -2.25 0 0 -2.35764 0 1
0.5 4.35 -2.25 0 0 -1.49509 0 1
0.76 0.922031 -2.25 0 0 -3.01617 0 1
1.02953 -0.4 -2.25 0 0 -1.17537 0 1
1.81 0.13 -2.25 0 0 -2.16734 0 1
1.81 4.08078 -2.25 0 0 -2.35475 0 1
0.23 4.08078 -2.25 0 0 -2.35475 0 1
0.23 1.4525 -2.25 0 0 -2.35664 0 1
0.76 0.922031 -2.25 0 0 -0.709254 0 1
0.5 4.35 -2.25 0 0 -0.862548 0 1
1.02953 -0.4 -2.25 0 0 -0.584857 0 1
0.76 0.922031 -2.25 0 0 -0.20112 0 1
0.76 -0.130781 -2.25 0 0 -2.35562 0 1
3 0 2 1 
3 0 3 2 
3 4 6 5 
3 4 7 6 
3 8 10 9 
3 8 11 10 
3 12 14 13 
3 12 15 14 
3 16 18 17 
3 16 19 18 
3 20 22 21 
3 20 23 22 
3 24 26 25 
3 24 27 26 
3 28 30 29 
3 28 31 30 
3 32 34 33 
3 32 35 34 
3 36 38 37 
3 36 39 38 
3 40 42 41 
3 40 43 42 
3 44 46 45 
3 44 47 46 
3 48 50 49 
3 48 51 50 
3 52 54 53 
3 52 55 54 
3 56 58 57 
3 56 59 58 
3 60 62 61 
3 60 63 62 
3 64 66 65 
3 64 67 66 
3 68 70 69 
3 68 71 70 
3 72 73 74 
3 74 73 75 
3 74 75 76 
3 76 75 77 
3 78 79 80 
3 78 80 81 
3 78 81 82 
3 78 82 83 
3 78 83 84 
3 85 86 87 
3 85 87 88 
3 85 88 89 
3 85 89 90 
3 91 92 93 
3 91 93 94 
3 95 96 97 
3 98 100 99 
3 100 101 99 
3 100 102 101 
3 102 103 101 
3 104 106 105 
3 104 107 106 
3 104 108 107 
3 104 109 108 
3 104 110 109 
3 111 113 112 
3 111 114 113 
3 111 115 114 
3 111 116 115 
3 117 119 118 
3 117 120 119 
3 121 123 122 
