ply
format ascii 1.0
comment VCGLIB generated
element vertex 180
property float x
property float y
property float z
property float nx
property float ny
property float nz
property float texture_u
property float texture_v
element face 100
property list uchar int vertex_indices
end_header
0.67 3.04688 -0.75 -0.675938 -1.41792 0 0 1
0.67 3.04688 -2.25 -0.675938 -1.41792 0 0 1
0.14 3.29953 -2.25 -0.675938 -1.41792 0 0 1
0.14 3.29953 -0.75 -0.675938 -1.41792 0 0 1
0.14 3.29953 -0.75 -1.5708 0 0 0 1
0.14 3.29953 -2.25 -1.5708 0 0 0 1
0.14 4.35 -2.25 -1.5708 0 0 0 1
0.14 4.35 -0.75 -1.5708 0 0 0 1
0.14 4.35 -0.75 0 1.5708 0 0 1
0.14 4.35 -2.25 0 1.5708 0 0 1
1.21 4.35 -2.25 0 1.5708 0 0 1
1.21 4.35 -0.75 0 1.5708 0 0 1
1.21 4.35 -0.75 1.5708 0 0 0 1
1.21 4.35 -2.25 1.5708 0 0 0 1
1.21 3.3 -2.25 1.5708 0 0 0 1
1.21 3.3 -0.75 1.5708 0 0 0 1
1.21 3.3 -0.75 0 1.5708 0 0 1
1.21 3.3 -2.25 0 1.5708 0 0 1
1.72 3.3 -2.25 0 1.5708 0 0 1
1.72 3.3 -0.75 0 1.5708 0 0 1
1.72 3.3 -0.75 -1.5708 0 0 0 1
1.72 3.3 -2.25 -1.5708 0 0 0 1
1.72 4.88 -2.25 -1.5708 0 0 0 1
1.72 4.88 -0.75 -1.5708 0 0 0 1
1.72 4.88 -0.75 0 1.5708 0 0 1
1.72 4.88 -2.25 0 1.5708 0 0 1
2.24 4.88 -2.25 0 1.5708 0 0 1
2.24 4.88 -0.75 0 1.5708 0 0 1
2.24 4.88 -0.75 1.5708 0 0 0 1
2.24 4.88 -2.25 1.5708 0 0 0 1
2.24 3.3 -2.25 1.5708 0 0 0 1
2.24 3.3 -0.75 1.5708 0 0 0 1
2.24 3.3 -0.75 0 1.5708 0 0 1
2.24 3.3 -2.25 0 1.5708 0 0 1
2.77 3.3 -2.25 0 1.5708 0 0 1
2.77 3.3 -0.75 0 1.5708 0 0 1
2.77 3.3 -0.75 -1.5708 0 0 0 1
2.77 3.3 -2.25 -1.5708 0 0 0 1
2.77 4.35 -2.25 -1.5708 0 0 0 1
2.77 4.35 -0.75 -1.5708 0 0 0 1
2.77 4.35 -0.75 0 1.5708 0 0 1
2.77 4.35 -2.25 0 1.5708 0 0 1
3.82 4.35 -2.25 0 1.5708 0 0 1
3.82 4.35 -0.75 0 1.5708 0 0 1
3.82 4.35 -0.75 1.5708 0 0 0 1
3.82 4.35 -2.25 1.5708 0 0 0 1
3.82 3.29953 -2.25 1.5708 0 0 0 1
3.82 3.29953 -0.75 1.5708 0 0 0 1
3.82 3.29953 -0.75 0.675938 -1.41792 0 0 1
3.82 3.29953 -2.25 0.675938 -1.41792 0 0 1
3.29 3.04688 -2.25 0.675938 -1.41792 0 0 1
3.29 3.04688 -0.75 0.675938 -1.41792 0 0 1
3.29 3.04688 -0.75 0.726358 1.39277 0 0 1
3.29 3.04688 -2.25 0.726358 1.39277 0 0 1
3.82 2.77047 -2.25 0.726358 1.39277 0 0 1
3.82 2.77047 -0.75 0.726358 1.39277 0 0 1
3.82 2.77047 -0.75 1.5708 0 0 0 1
3.82 2.77047 -2.25 1.5708 0 0 0 1
3.82 1.72 -2.25 1.5708 0 0 0 1
3.82 1.72 -0.75 1.5708 0 0 0 1
3.82 1.72 -0.75 0 -1.5708 0 0 1
3.82 1.72 -2.25 0 -1.5708 0 0 1
2.77 1.72 -2.25 0 -1.5708 0 0 1
2.77 1.72 -0.75 0 -1.5708 0 0 1
2.77 1.72 -0.75 -1.5708 0 0 0 1
2.77 1.72 -2.25 -1.5708 0 0 0 1
2.77 2.77 -2.25 -1.5708 0 0 0 1
2.77 2.77 -0.75 -1.5708 0 0 0 1
2.77 2.77 -0.75 0 -1.5708 0 0 1
2.77 2.77 -2.25 0 -1.5708 0 0 1
2.24 2.77 -2.25 0 -1.5708 0 0 1
2.24 2.77 -0.75 0 -1.5708 0 0 1
2.24 2.77 -0.75 1.5708 0 0 0 1
2.24 2.77 -2.25 1.5708 0 0 0 1
2.24 1.18 -2.25 1.5708 0 0 0 1
2.24 1.18 -0.75 1.5708 0 0 0 1
2.24 1.18 -0.75 0 -1.5708 0 0 1
2.24 1.18 -2.25 0 -1.5708 0 0 1
1.72 1.18 -2.25 0 -1.5708 0 0 1
1.72 1.18 -0.75 0 -1.5708 0 0 1
1.72 1.18 -0.75 -1.5708 0 0 0 1
1.72 1.18 -2.25 -1.5708 0 0 0 1
1.72 2.77 -2.25 -1.5708 0 0 0 1
1.72 2.77 -0.75 -1.5708 0 0 0 1
1.72 2.77 -0.75 0 -1.5708 0 0 1
1.72 2.77 -2.25 0 -1.5708 0 0 1
1.21 2.77 -2.25 0 -1.5708 0 0 1
1.21 2.77 -0.75 0 -1.5708 0 0 1
1.21 2.77 -0.75 1.5708 0 0 0 1
1.21 2.77 -2.25 1.5708 0 0 0 1
1.21 1.72 -2.25 1.5708 0 0 0 1
1.21 1.72 -0.75 1.5708 0 0 0 1
1.21 1.72 -0.75 0 -1.5708 0 0 1
1.21 1.72 -2.25 0 -1.5708 0 0 1
0.14 1.72 -2.25 0 -1.5708 0 0 1
0.14 1.72 -0.75 0 -1.5708 0 0 1
0.14 1.72 -0.75 -1.5708 0 0 0 1
0.14 1.72 -2.25 -1.5708 0 0 0 1
0.14 2.77047 -2.25 -1.5708 0 0 0 1
0.14 2.77047 -0.75 -1.5708 0 0 0 1
0.14 2.77047 -0.75 -0.726358 1.39277 0 0 1
0.14 2.77047 -2.25 -0.726358 1.39277 0 0 1
0.67 3.04688 -2.25 -0.726358 1.39277 0 0 1
0.67 3.04688 -0.75 -0.726358 1.39277 0 0 1
2.24 4.88 -0.75 0 0 1.5708 0 1
1.72 4.88 -0.75 0 0 1.5708 0 1
2.24 1.18 -0.75 0 0 0.31608 0 1
1.72 3.3 -0.75 0 0 4.71239 0 1
1.72 2.77 -0.75 0 0 4.39631 0 1
1.21 3.3 -0.75 0 0 1.5708 0 1
1.21 2.77 -0.75 0 0 1.5708 0 1
1.21 4.35 -0.75 0 0 0.392848 0 1
1.21 1.72 -0.75 0 0 0.794609 0 1
0.67 3.04688 -0.75 0 0 3.83882 0 1
0.14 2.77047 -0.75 0 0 1.2569 0 1
0.14 4.35 -0.75 0 0 1.5708 0 1
0.14 3.29953 -0.75 0 0 2.01564 0 1
0.67 3.04688 -0.75 0 0 1.5188 0 1
1.21 4.35 -0.75 0 0 1.17795 0 1
3.82 2.77047 -0.75 0 0 2.05151 0 1
3.29 3.04688 -0.75 0 0 3.11389 0 1
3.82 1.72 -0.75 0 0 0.785398 0 1
2.77 3.3 -0.75 0 0 2.68858 0 1
2.77 2.77 -0.75 0 0 3.92699 0 1
2.24 3.3 -0.75 0 0 1.5708 0 1
2.24 2.77 -0.75 0 0 1.5708 0 1
2.24 4.88 -0.75 0 0 0 0 1
2.24 1.18 -0.75 0 0 0 0 1
3.29 3.04688 -0.75 0 0 2.24374 0 1
3.82 3.29953 -0.75 0 0 2.01564 0 1
3.82 4.35 -0.75 0 0 1.5708 0 1
2.77 4.35 -0.75 0 0 1.5708 0 1
2.77 3.3 -0.75 0 0 2.02381 0 1
1.21 1.72 -0.75 0 0 0.776188 0 1
0.14 2.77047 -0.75 0 0 0.794609 0 1
0.14 1.72 -0.75 0 0 1.5708 0 1
3.82 1.72 -0.75 0 0 0.785398 0 1
2.77 2.77 -0.75 0 0 0.785398 0 1
2.77 1.72 -0.75 0 0 1.5708 0 1
2.24 1.18 -0.75 0 0 1.25472 0 1
1.72 2.77 -0.75 0 0 0.316079 0 1
1.72 1.18 -0.75 0 0 1.5708 0 1
2.24 4.88 -2.25 0 0 -1.5708 0 1
1.72 4.88 -2.25 0 0 -1.5708 0 1
2.24 1.18 -2.25 0 0 -0.31608 0 1
1.72 3.3 -2.25 0 0 -4.71239 0 1
1.72 2.77 -2.25 0 0 -4.39631 0 1
1.21 3.3 -2.25 0 0 -1.5708 0 1
1.21 2.77 -2.25 0 0 -1.5708 0 1
1.21 4.35 -2.25 0 0 -0.392848 0 1
1.21 1.72 -2.25 0 0 -0.794609 0 1
0.67 3.04688 -2.25 0 0 -3.83882 0 1
0.14 2.77047 -2.25 0 0 -1.2569 0 1
0.14 4.35 -2.25 0 0 -1.5708 0 1
0.14 3.29953 -2.25 0 0 -2.01564 0 1
0.67 3.04688 -2.25 0 0 -1.5188 0 1
1.21 4.35 -2.25 0 0 -1.17795 0 1
3.82 2.77047 -2.25 0 0 -2.05151 0 1
3.29 3.04688 -2.25 0 0 -3.11389 0 1
3.82 1.72 -2.25 0 0 -0.785398 0 1
2.77 3.3 -2.25 0 0 -2.68858 0 1
2.77 2.77 -2.25 0 0 -3.92699 0 1
2.24 3.3 -2.25 0 0 -1.5708 0 1
2.24 2.77 -2.25 0 0 -1.5708 0 1
2.24 4.88 -2.25 0 0 0 0 1
2.24 1.18 -2.25 0 0 0 0 1
3.29 3.04688 -2.25 0 0 -2.24374 0 1
3.82 3.29953 -2.25 0 0 -2.01564 0 1
3.82 4.35 -2.25 0 0 -1.5708 0 1
2.77 4.35 -2.25 0 0 -1.5708 0 1
2.77 3.3 -2.25 0 0 -2.02381 0 1
1.21 1.72 -2.25 0 0 -0.776188 0 1
0.14 2.77047 -2.25 0 0 -0.794609 0 1
0.14 1.72 -2.25 0 0 -1.5708 0 1
3.82 1.72 -2.25 0 0 -0.785398 0 1
2.77 2.77 -2.25 0 0 -0.785398 0 1
2.77 1.72 -2.25 0 0 -1.5708 0 1
2.24 1.18 -2.25 0 0 -1.25472 0 1
1.72 2.77 -2.25 0 0 -0.316079 0 1
1.72 1.18 -2.25 0 0 -1.5708 0 1
3 0 2 1 
3 0 3 2 
3 4 6 5 
3 4 7 6 
3 8 10 9 
3 8 11 10 
3 12 14 13 
3 12 15 14 
3 16 18 17 
3 16 19 18 
3 20 22 21 
3 20 23 22 
3 24 26 25 
3 24 27 26 
3 28 30 29 
3 28 31 30 
3 32 34 33 
3 32 35 34 
3 36 38 37 
3 36 39 38 
3 40 42 41 
3 40 43 42 
3 44 46 45 
3 44 47 46 
3 48 50 49 
3 48 51 50 
3 52 54 53 
3 52 55 54 
3 56 58 57 
3 56 59 58 
3 60 62 61 
3 60 63 62 
3 64 66 65 
3 64 67 66 
3 68 70 69 
3 68 71 70 
3 72 74 73 
3 72 75 74 
3 76 78 77 
3 76 79 78 
3 80 82 81 
3 80 83 82 
3 84 86 85 
3 84 87 86 
3 88 90 89 
3 88 91 90 
3 92 94 93 
3 92 95 94 
3 96 98 97 
3 96 99 98 
3 100 102 101 
3 100 103 102 
3 104 105 106 
3 106 105 107 
3 106 107 108 
3 108 107 109 
3 108 109 110 
3 110 109 111 
3 110 111 112 
3 112 111 113 
3 112 113 114 
3 115 116 117 
3 115 117 118 
3 119 120 121 
3 121 120 122 
3 121 122 123 
3 123 122 124 
3 123 124 125 
3 125 124 126 
3 125 126 127 
3 128 129 130 
3 128 130 131 
3 128 131 132 
3 133 134 135 
3 136 137 138 
3 139 140 141 
3 142 144 143 
3 144 145 143 
3 144 146 145 
3 146 147 145 
3 146 148 147 
3 148 149 147 
3 148 150 149 
3 150 151 149 
3 150 152 151 
3 153 155 154 
3 153 156 155 
3 157 159 158 
3 159 160 158 
3 159 161 160 
3 161 162 160 
3 161 163 162 
3 163 164 162 
3 163 165 164 
3 166 168 167 
3 166 169 168 
3 166 170 169 
3 171 173 172 
3 174 176 175 
3 177 179 178 
