ply
format ascii 1.0
comment VCGLIB generated
element vertex 46
property float x
property float y
property float z
property float nx
property float ny
property float nz
property float texture_u
property float texture_v
element face 24
property list uchar int vertex_indices
end_header
3.94656 4.35 -0.75 1.11036 -1.11109 0 0 1
3.94656 4.35 -2.25 1.11036 -1.11109 0 0 1
1.57 1.975 -2.25 1.11036 -1.11109 0 0 1
1.57 1.975 -0.75 1.11036 -1.11109 0 0 1
1.57 1.975 -0.75 1.11036 1.11109 0 0 1
1.57 1.975 -2.25 1.11036 1.11109 0 0 1
3.94656 -0.4 -2.25 1.11036 1.11109 0 0 1
3.94656 -0.4 -0.75 1.11036 1.11109 0 0 1
3.94656 -0.4 -0.75 0 -1.5708 0 0 1
3.94656 -0.4 -2.25 0 -1.5708 0 0 1
2.36344 -0.4 -2.25 0 -1.5708 0 0 1
2.36344 -0.4 -0.75 0 -1.5708 0 0 1
2.36344 -0.4 -0.75 -1.1108 -1.11064 0 0 1
2.36344 -0.4 -2.25 -1.1108 -1.11064 0 0 1
0.25 1.71375 -2.25 -1.1108 -1.11064 0 0 1
0.25 1.71375 -0.75 -1.1108 -1.11064 0 0 1
0.25 1.71375 -0.75 -1.5708 0 0 0 1
0.25 1.71375 -2.25 -1.5708 0 0 0 1
0.25 2.24422 -2.25 -1.5708 0 0 0 1
0.25 2.24422 -0.75 -1.5708 0 0 0 1
0.25 2.24422 -0.75 -1.1078 1.11364 0 0 1
0.25 2.24422 -2.25 -1.1078 1.11364 0 0 1
2.36687 4.35 -2.25 -1.1078 1.11364 0 0 1
2.36687 4.35 -0.75 -1.1078 1.11364 0 0 1
2.36687 4.35 -0.75 0 1.5708 0 0 1
2.36687 4.35 -2.25 0 1.5708 0 0 1
3.94656 4.35 -2.25 0 1.5708 0 0 1
3.94656 4.35 -0.75 0 1.5708 0 0 1
1.57 1.975 -0.75 0 0 4.71305 0 1
3.94656 4.35 -0.75 0 0 0.785069 0 1
2.36687 4.35 -0.75 0 0 2.35882 0 1
0.25 2.24422 -0.75 0 0 1.67927 0 1
2.36344 -0.4 -0.75 0 0 2.24509 0 1
3.94656 -0.4 -0.75 0 0 0.785069 0 1
2.36344 -0.4 -0.75 0 0 0.111031 0 1
0.25 2.24422 -0.75 0 0 0.674294 0 1
0.25 1.71375 -0.75 0 0 2.35627 0 1
1.57 1.975 -2.25 0 0 -4.71305 0 1
3.94656 4.35 -2.25 0 0 -0.785069 0 1
2.36687 4.35 -2.25 0 0 -2.35882 0 1
0.25 2.24422 -2.25 0 0 -1.67927 0 1
2.36344 -0.4 -2.25 0 0 -2.24509 0 1
3.94656 -0.4 -2.25 0 0 -0.785069 0 1
2.36344 -0.4 -2.25 0 0 -0.111031 0 1
0.25 2.24422 -2.25 0 0 -0.674294 0 1
0.25 1.71375 -2.25 0 0 -2.35627 0 1
3 0 2 1 
3 0 3 2 
3 4 6 5 
3 4 7 6 
3 8 10 9 
3 8 11 10 
3 12 14 13 
3 12 15 14 
3 16 18 17 
3 16 19 18 
3 20 22 21 
3 20 23 22 
3 24 26 25 
3 24 27 26 
3 28 29 30 
3 28 30 31 
3 28 31 32 
3 28 32 33 
3 34 35 36 
3 37 39 38 
3 37 40 39 
3 37 41 40 
3 37 42 41 
3 43 45 44 
