ply
format ascii 1.0
comment VCGLIB generated
element vertex 140
property float x
property float y
property float z
property float nx
property float ny
property float nz
property float texture_u
property float texture_v
element face 84
property list uchar int vertex_indices
end_header
0.1 -0.130781 -0.75 -1.5708 0 0 0 1
0.1 -0.130781 -2.25 -1.5708 0 0 0 1
0.1 2.4975 -2.25 -1.5708 0 0 0 1
0.1 2.4975 -0.75 -1.5708 0 0 0 1
0.1 2.4975 -0.75 -1.11121 1.11023 0 0 1
0.1 2.4975 -2.25 -1.11121 1.11023 0 0 1
0.63 3.02797 -2.25 -1.11121 1.11023 0 0 1
0.63 3.02797 -0.75 -1.11121 1.11023 0 0 1
0.63 3.02797 -0.75 -1.5708 0 0 0 1
0.63 3.02797 -2.25 -1.5708 0 0 0 1
0.63 4.08078 -2.25 -1.5708 0 0 0 1
0.63 4.08078 -0.75 -1.5708 0 0 0 1
0.63 4.08078 -0.75 -1.11008 1.11136 0 0 1
0.63 4.08078 -2.25 -1.11008 1.11136 0 0 1
0.899531 4.35 -2.25 -1.11008 1.11136 0 0 1
0.899531 4.35 -0.75 -1.11008 1.11136 0 0 1
0.899531 4.35 -0.75 0 1.5708 0 0 1
0.899531 4.35 -2.25 0 1.5708 0 0 1
3.00047 4.35 -2.25 0 1.5708 0 0 1
3.00047 4.35 -0.75 0 1.5708 0 0 1
3.00047 4.35 -0.75 1.11008 1.11136 0 0 1
3.00047 4.35 -2.25 1.11008 1.11136 0 0 1
3.27 4.08078 -2.25 1.11008 1.11136 0 0 1
3.27 4.08078 -0.75 1.11008 1.11136 0 0 1
3.27 4.08078 -0.75 1.5708 0 0 0 1
3.27 4.08078 -2.25 1.5708 0 0 0 1
3.27 3.02797 -2.25 1.5708 0 0 0 1
3.27 3.02797 -0.75 1.5708 0 0 0 1
3.27 3.02797 -0.75 1.11269 1.10875 0 0 1
3.27 3.02797 -2.25 1.11269 1.10875 0 0 1
3.79859 2.4975 -2.25 1.11269 1.10875 0 0 1
3.79859 2.4975 -0.75 1.11269 1.10875 0 0 1
3.79859 2.4975 -0.75 1.5708 0 0 0 1
3.79859 2.4975 -2.25 1.5708 0 0 0 1
3.79859 -0.130781 -2.25 1.5708 0 0 0 1
3.79859 -0.130781 -0.75 1.5708 0 0 0 1
3.79859 -0.130781 -0.75 1.11072 -1.11072 0 0 1
3.79859 -0.130781 -2.25 1.11072 -1.11072 0 0 1
3.52938 -0.4 -2.25 1.11072 -1.11072 0 0 1
3.52938 -0.4 -0.75 1.11072 -1.11072 0 0 1
3.52938 -0.4 -0.75 0 -1.5708 0 0 1
3.52938 -0.4 -2.25 0 -1.5708 0 0 1
0.369219 -0.4 -2.25 0 -1.5708 0 0 1
0.369219 -0.4 -0.75 0 -1.5708 0 0 1
0.369219 -0.4 -0.75 -1.11072 -1.11072 0 0 1
0.369219 -0.4 -2.25 -1.11072 -1.11072 0 0 1
0.1 -0.130781 -2.25 -1.11072 -1.11072 0 0 1
0.1 -0.130781 -0.75 -1.11072 -1.11072 0 0 1
2.21 0.13 -0.75 -1.5708 0 0 0 1
2.21 0.13 -2.25 -1.5708 0 0 0 1
2.21 2.24 -2.25 -1.5708 0 0 0 1
2.21 2.24 -0.75 -1.5708 0 0 0 1
2.21 2.24 -0.75 0 -1.5708 0 0 1
2.21 2.24 -2.25 0 -1.5708 0 0 1
0.62 2.24 -2.25 0 -1.5708 0 0 1
0.62 2.24 -0.75 0 -1.5708 0 0 1
0.62 2.24 -0.75 1.5708 0 0 0 1
0.62 2.24 -2.25 1.5708 0 0 0 1
0.62 0.13 -2.25 1.5708 0 0 0 1
0.62 0.13 -0.75 1.5708 0 0 0 1
0.62 0.13 -0.75 0 1.5708 0 0 1
0.62 0.13 -2.25 0 1.5708 0 0 1
2.21 0.13 -2.25 0 1.5708 0 0 1
2.21 0.13 -0.75 0 1.5708 0 0 1
2.21 2.77 -0.75 -1.5708 0 0 0 1
2.21 2.77 -2.25 -1.5708 0 0 0 1
2.21 3.82 -2.25 -1.5708 0 0 0 1
2.21 3.82 -0.75 -1.5708 0 0 0 1
2.21 3.82 -0.75 0 -1.5708 0 0 1
2.21 3.82 -2.25 0 -1.5708 0 0 1
1.15 3.82 -2.25 0 -1.5708 0 0 1
1.15 3.82 -0.75 0 -1.5708 0 0 1
1.15 3.82 -0.75 1.5708 0 0 0 1
1.15 3.82 -2.25 1.5708 0 0 0 1
1.15 2.77 -2.25 1.5708 0 0 0 1
1.15 2.77 -0.75 1.5708 0 0 0 1
1.15 2.77 -0.75 0 1.5708 0 0 1
1.15 2.77 -2.25 0 1.5708 0 0 1
2.21 2.77 -2.25 0 1.5708 0 0 1
2.21 2.77 -0.75 0 1.5708 0 0 1
1.15 2.77 -0.75 0 0 0.463647 0 1
2.21 2.24 -0.75 0 0 3.78528 0 1
2.21 2.77 -0.75 0 0 4.71239 0 1
3.52938 -0.4 -0.75 0 0 0.352567 0 1
2.21 3.82 -0.75 0 0 4.71239 0 1
3.00047 4.35 -0.75 0 0 1.68169 0 1
1.15 3.82 -0.75 0 0 4.71239 0 1
0.899531 4.35 -0.75 0 0 2.35677 0 1
1.15 2.77 -0.75 0 0 1.11028 0 1
0.63 4.08078 -0.75 0 0 2.35562 0 1
0.63 3.02797 -0.75 0 0 2.03131 0 1
2.21 2.24 -0.75 0 0 0.463458 0 1
2.21 0.13 -0.75 0 0 4.71239 0 1
3.52938 -0.4 -0.75 0 0 1.10734 0 1
0.62 0.13 -0.75 0 0 4.71239 0 1
0.369219 -0.4 -0.75 0 0 1.49487 0 1
0.62 2.24 -0.75 0 0 4.71239 0 1
0.63 3.02797 -0.75 0 0 1.18618 0 1
2.21 2.24 -0.75 0 0 0.463595 0 1
1.15 2.77 -0.75 0 0 3.13847 0 1
0.1 2.4975 -0.75 0 0 2.35664 0 1
0.1 -0.130781 -0.75 0 0 2.35619 0 1
0.369219 -0.4 -0.75 0 0 0.861327 0 1
0.63 3.02797 -0.75 0 0 0.709028 0 1
3.27 4.08078 -0.75 0 0 2.35562 0 1
3.00047 4.35 -0.75 0 0 0.675085 0 1
3.27 3.02797 -0.75 0 0 3.92522 0 1
3.52938 -0.4 -0.75 0 0 0.896289 0 1
3.79859 2.4975 -0.75 0 0 2.35797 0 1
3.79859 -0.130781 -0.75 0 0 2.35619 0 1
1.15 2.77 -2.25 0 0 -0.463647 0 1
2.21 2.24 -2.25 0 0 -3.78528 0 1
2.21 2.77 -2.25 0 0 -4.71239 0 1
3.52938 -0.4 -2.25 0 0 -0.352567 0 1
2.21 3.82 -2.25 0 0 -4.71239 0 1
3.00047 4.35 -2.25 0 0 -1.68169 0 1
1.15 3.82 -2.25 0 0 -4.71239 0 1
0.899531 4.35 -2.25 0 0 -2.35677 0 1
1.15 2.77 -2.25 0 0 -1.11028 0 1
0.63 4.08078 -2.25 0 0 -2.35562 0 1
0.63 3.02797 -2.25 0 0 -2.03131 0 1
2.21 2.24 -2.25 0 0 -0.463458 0 1
2.21 0.13 -2.25 0 0 -4.71239 0 1
3.52938 -0.4 -2.25 0 0 -1.10734 0 1
0.62 0.13 -2.25 0 0 -4.71239 0 1
0.369219 -0.4 -2.25 0 0 -1.49487 0 1
0.62 2.24 -2.25 0 0 -4.71239 0 1
0.63 3.02797 -2.25 0 0 -1.18618 0 1
2.21 2.24 -2.25 0 0 -0.463595 0 1
1.15 2.77 -2.25 0 0 -3.13847 0 1
0.1 2.4975 -2.25 0 0 -2.35664 0 1
0.1 -0.130781 -2.25 0 0 -2.35619 0 1
0.369219 -0.4 -2.25 0 0 -0.861327 0 1
0.63 3.02797 -2.25 0 0 -0.709028 0 1
3.27 4.08078 -2.25 0 0 -2.35562 0 1
3.00047 4.35 -2.25 0 0 -0.675085 0 1
3.27 3.02797 -2.25 0 0 -3.92522 0 1
3.52938 -0.4 -2.25 0 0 -0.896289 0 1
3.79859 2.4975 -2.25 0 0 -2.35797 0 1
3.79859 -0.130781 -2.25 0 0 -2.35619 0 1
3 0 2 1 
3 0 3 2 
3 4 6 5 
3 4 7 6 
3 8 10 9 
3 8 11 10 
3 12 14 13 
3 12 15 14 
3 16 18 17 
3 16 19 18 
3 20 22 21 
3 20 23 22 
3 24 26 25 
3 24 27 26 
3 28 30 29 
3 28 31 30 
3 32 34 33 
3 32 35 34 
3 36 38 37 
3 36 39 38 
3 40 42 41 
3 40 43 42 
3 44 46 45 
3 44 47 46 
3 48 50 49 
3 48 51 50 
3 52 54 53 
3 52 55 54 
3 56 58 57 
3 56 59 58 
3 60 62 61 
3 60 63 62 
3 64 66 65 
3 64 67 66 
3 68 70 69 
3 68 71 70 
3 72 74 73 
3 72 75 74 
3 76 78 77 
3 76 79 78 
3 80 81 82 
3 82 81 83 
3 82 83 84 
3 84 83 85 
3 84 85 86 
3 86 85 87 
3 86 87 88 
3 88 87 89 
3 88 89 90 
3 91 92 93 
3 93 92 94 
3 93 94 95 
3 95 94 96 
3 95 96 97 
3 97 96 98 
3 97 98 99 
3 100 101 102 
3 100 102 103 
3 104 105 106 
3 106 105 107 
3 106 107 108 
3 108 107 109 
3 110 112 111 
3 112 113 111 
3 112 114 113 
3 114 115 113 
3 114 116 115 
3 116 117 115 
3 116 118 117 
3 118 119 117 
3 118 120 119 
3 121 123 122 
3 123 124 122 
3 123 125 124 
3 125 126 124 
3 125 127 126 
3 127 128 126 
3 127 129 128 
3 130 132 131 
3 130 133 132 
3 134 136 135 
3 136 137 135 
3 136 138 137 
3 138 139 137 
