ply
format ascii 1.0
comment VCGLIB generated
element vertex 122
property float x
property float y
property float z
property float nx
property float ny
property float nz
property float texture_u
property float texture_v
element face 68
property list uchar int vertex_indices
end_header
0.11 -0.130469 -0.75 -1.11265 -1.10879 0 0 1
0.11 -0.130469 -2.25 -1.11265 -1.10879 0 0 1
0.378594 -0.4 -2.25 -1.11265 -1.10879 0 0 1
0.378594 -0.4 -0.75 -1.11265 -1.10879 0 0 1
0.378594 -0.4 -0.75 0 -1.5708 0 0 1
0.378594 -0.4 -2.25 0 -1.5708 0 0 1
3.00141 -0.4 -2.25 0 -1.5708 0 0 1
3.00141 -0.4 -0.75 0 -1.5708 0 0 1
3.00141 -0.4 -0.75 1.11201 -1.10943 0 0 1
3.00141 -0.4 -2.25 1.11201 -1.10943 0 0 1
3.27 -0.130781 -2.25 1.11201 -1.10943 0 0 1
3.27 -0.130781 -0.75 1.11201 -1.10943 0 0 1
3.27 -0.130781 -0.75 1.5708 0 0 0 1
3.27 -0.130781 -2.25 1.5708 0 0 0 1
3.27 4.08875 -2.25 1.5708 0 0 0 1
3.27 4.08875 -0.75 1.5708 0 0 0 1
3.27 4.08875 -0.75 1.11238 1.10906 0 0 1
3.27 4.08875 -2.25 1.11238 1.10906 0 0 1
3.00953 4.35 -2.25 1.11238 1.10906 0 0 1
3.00953 4.35 -0.75 1.11238 1.10906 0 0 1
3.00953 4.35 -0.75 0 1.5708 0 0 1
3.00953 4.35 -2.25 0 1.5708 0 0 1
2.48844 4.35 -2.25 0 1.5708 0 0 1
2.48844 4.35 -0.75 0 1.5708 0 0 1
2.48844 4.35 -0.75 -1.10942 1.11202 0 0 1
2.48844 4.35 -2.25 -1.10942 1.11202 0 0 1
2.22 4.08219 -2.25 -1.10942 1.11202 0 0 1
2.22 4.08219 -0.75 -1.10942 1.11202 0 0 1
2.22 4.08219 -0.75 -1.5708 0 0 0 1
2.22 4.08219 -2.25 -1.5708 0 0 0 1
2.22 3.30266 -2.25 -1.5708 0 0 0 1
2.22 3.30266 -0.75 -1.5708 0 0 0 1
2.22 3.30266 -0.75 0 1.5708 0 0 1
2.22 3.30266 -2.25 0 1.5708 0 0 1
0.37875 3.30266 -2.25 0 1.5708 0 0 1
0.37875 3.30266 -0.75 0 1.5708 0 0 1
0.37875 3.30266 -0.75 -1.11233 1.10911 0 0 1
0.37875 3.30266 -2.25 -1.11233 1.10911 0 0 1
0.11 3.03312 -2.25 -1.11233 1.10911 0 0 1
0.11 3.03312 -0.75 -1.11233 1.10911 0 0 1
0.11 3.03312 -0.75 -1.5708 0 0 0 1
0.11 3.03312 -2.25 -1.5708 0 0 0 1
0.11 -0.130469 -2.25 -1.5708 0 0 0 1
0.11 -0.130469 -0.75 -1.5708 0 0 0 1
0.64 2.77203 -0.75 0 -1.5708 0 0 1
0.64 2.77203 -2.25 0 -1.5708 0 0 1
2.22 2.77203 -2.25 0 -1.5708 0 0 1
2.22 2.77203 -0.75 0 -1.5708 0 0 1
2.22 2.77203 -0.75 -1.5708 0 0 0 1
2.22 2.77203 -2.25 -1.5708 0 0 0 1
2.22 1.97859 -2.25 -1.5708 0 0 0 1
2.22 1.97859 -0.75 -1.5708 0 0 0 1
2.22 1.97859 -0.75 -1.11235 1.10908 0 0 1
2.22 1.97859 -2.25 -1.11235 1.10908 0 0 1
1.69 1.44703 -2.25 -1.11235 1.10908 0 0 1
1.69 1.44703 -0.75 -1.11235 1.10908 0 0 1
1.69 1.44703 -0.75 -1.5708 0 0 0 1
1.69 1.44703 -2.25 -1.5708 0 0 0 1
1.69 0.13 -2.25 -1.5708 0 0 0 1
1.69 0.13 -0.75 -1.5708 0 0 0 1
1.69 0.13 -0.75 0 1.5708 0 0 1
1.69 0.13 -2.25 0 1.5708 0 0 1
0.64 0.13 -2.25 0 1.5708 0 0 1
0.64 0.13 -0.75 0 1.5708 0 0 1
0.64 0.13 -0.75 1.5708 0 0 0 1
0.64 0.13 -2.25 1.5708 0 0 0 1
0.64 2.77203 -2.25 1.5708 0 0 0 1
0.64 2.77203 -0.75 1.5708 0 0 0 1
2.22 1.97859 -0.75 0 0 2.82418 0 1
3.00141 -0.4 -0.75 0 0 0.109419 0 1
2.22 2.77203 -0.75 0 0 4.71239 0 1
2.22 3.30266 -0.75 0 0 1.77878 0 1
0.64 2.77203 -0.75 0 0 4.71239 0 1
0.37875 3.30266 -0.75 0 0 1.57084 0 1
0.64 0.13 -0.75 0 0 4.49161 0 1
0.378594 -0.4 -0.75 0 0 1.57075 0 1
3.00141 -0.4 -0.75 0 0 0.220784 0 1
3.00953 4.35 -0.75 0 0 2.3547 0 1
2.48844 4.35 -0.75 0 0 1.46322 0 1
3.00141 -0.4 -0.75 0 0 0.891813 0 1
3.27 -0.130781 -0.75 0 0 2.35736 0 1
3.27 4.08875 -0.75 0 0 2.35769 0 1
2.22 4.08219 -0.75 0 0 2.35503 0 1
2.22 3.30266 -0.75 0 0 2.93361 0 1
3.00141 -0.4 -0.75 0 0 0.100413 0 1
2.48844 4.35 -0.75 0 0 0.894142 0 1
3.00141 -0.4 -0.75 0 0 1.0326 0 1
2.22 1.97859 -0.75 0 0 1.10133 0 1
1.69 1.44703 -0.75 0 0 2.35767 0 1
1.69 0.13 -0.75 0 0 4.71239 0 1
0.64 0.13 -0.75 0 0 0.220784 0 1
0.11 3.03312 -0.75 0 0 2.35765 0 1
0.11 -0.130469 -0.75 0 0 2.35794 0 1
0.378594 -0.4 -0.75 0 0 0.783699 0 1
0.37875 3.30266 -0.75 0 0 0.783905 0 1
2.22 1.97859 -2.25 0 0 -2.82418 0 1
3.00141 -0.4 -2.25 0 0 -0.109419 0 1
2.22 2.77203 -2.25 0 0 -4.71239 0 1
2.22 3.30266 -2.25 0 0 -1.77878 0 1
0.64 2.77203 -2.25 0 0 -4.71239 0 1
0.37875 3.30266 -2.25 0 0 -1.57084 0 1
0.64 0.13 -2.25 0 0 -4.49161 0 1
0.378594 -0.4 -2.25 0 0 -1.57075 0 1
3.00141 -0.4 -2.25 0 0 -0.220784 0 1
3.00953 4.35 -2.25 0 0 -2.3547 0 1
2.48844 4.35 -2.25 0 0 -1.46322 0 1
3.00141 -0.4 -2.25 0 0 -0.891813 0 1
3.27 -0.130781 -2.25 0 0 -2.35736 0 1
3.27 4.08875 -2.25 0 0 -2.35769 0 1
2.22 4.08219 -2.25 0 0 -2.35503 0 1
2.22 3.30266 -2.25 0 0 -2.93361 0 1
3.00141 -0.4 -2.25 0 0 -0.100413 0 1
2.48844 4.35 -2.25 0 0 -0.894142 0 1
3.00141 -0.4 -2.25 0 0 -1.0326 0 1
2.22 1.97859 -2.25 0 0 -1.10133 0 1
1.69 1.44703 -2.25 0 0 -2.35767 0 1
1.69 0.13 -2.25 0 0 -4.71239 0 1
0.64 0.13 -2.25 0 0 -0.220784 0 1
0.11 3.03312 -2.25 0 0 -2.35765 0 1
0.11 -0.130469 -2.25 0 0 -2.35794 0 1
0.378594 -0.4 -2.25 0 0 -0.783699 0 1
0.37875 3.30266 -2.25 0 0 -0.783905 0 1
3 0 1 2 
3 0 2 3 
3 4 5 6 
3 4 6 7 
3 8 9 10 
3 8 10 11 
3 12 13 14 
3 12 14 15 
3 16 17 18 
3 16 18 19 
3 20 21 22 
3 20 22 23 
3 24 25 26 
3 24 26 27 
3 28 29 30 
3 28 30 31 
3 32 33 34 
3 32 34 35 
3 36 37 38 
3 36 38 39 
3 40 41 42 
3 40 42 43 
3 44 45 46 
3 44 46 47 
3 48 49 50 
3 48 50 51 
3 52 53 54 
3 52 54 55 
3 56 57 58 
3 56 58 59 
3 60 61 62 
3 60 62 63 
3 64 65 66 
3 64 66 67 
3 68 69 70 
3 70 69 71 
3 70 71 72 
3 72 71 73 
3 72 73 74 
3 74 73 75 
3 74 75 76 
3 77 78 79 
3 77 79 80 
3 77 80 81 
3 82 83 84 
3 82 84 85 
3 86 87 88 
3 86 88 89 
3 86 89 90 
3 91 92 93 
3 91 93 94 
3 95 97 96 
3 97 98 96 
3 97 99 98 
3 99 100 98 
3 99 101 100 
3 101 102 100 
3 101 103 102 
3 104 106 105 
3 104 107 106 
3 104 108 107 
3 109 111 110 
3 109 112 111 
3 113 115 114 
3 113 116 115 
3 113 117 116 
3 118 120 119 
3 118 121 120 
