ply
format ascii 1.0
comment VCGLIB generated
element vertex 136
property float x
property float y
property float z
property float nx
property float ny
property float nz
property float texture_u
property float texture_v
element face 76
property list uchar int vertex_indices
end_header
5.15094 -0.4 -0.75 0 -1.5708 0 0 1
5.15094 -0.4 -2.25 0 -1.5708 0 0 1
0.419063 -0.4 -2.25 0 -1.5708 0 0 1
0.419063 -0.4 -0.75 0 -1.5708 0 0 1
0.419063 -0.4 -0.75 -1.11104 -1.1104 0 0 1
0.419063 -0.4 -2.25 -1.11104 -1.1104 0 0 1
0.15 -0.130781 -2.25 -1.11104 -1.1104 0 0 1
0.15 -0.130781 -0.75 -1.11104 -1.1104 0 0 1
0.15 -0.130781 -0.75 -1.5708 0 0 0 1
0.15 -0.130781 -2.25 -1.5708 0 0 0 1
0.15 4.08078 -2.25 -1.5708 0 0 0 1
0.15 4.08078 -0.75 -1.5708 0 0 0 1
0.15 4.08078 -0.75 -1.11233 1.1091 0 0 1
0.15 4.08078 -2.25 -1.11233 1.1091 0 0 1
0.418437 4.35 -2.25 -1.11233 1.1091 0 0 1
0.418437 4.35 -0.75 -1.11233 1.1091 0 0 1
0.418437 4.35 -0.75 0 1.5708 0 0 1
0.418437 4.35 -2.25 0 1.5708 0 0 1
0.931563 4.35 -2.25 0 1.5708 0 0 1
0.931563 4.35 -0.75 0 1.5708 0 0 1
0.931563 4.35 -0.75 1.11233 1.1091 0 0 1
0.931563 4.35 -2.25 1.11233 1.1091 0 0 1
1.2 4.08078 -2.25 1.11233 1.1091 0 0 1
1.2 4.08078 -0.75 1.11233 1.1091 0 0 1
1.2 4.08078 -0.75 1.5708 0 0 0 1
1.2 4.08078 -2.25 1.5708 0 0 0 1
1.2 3.03578 -2.25 1.5708 0 0 0 1
1.2 3.03578 -0.75 1.5708 0 0 0 1
1.2 3.03578 -0.75 1.11121 1.11023 0 0 1
1.2 3.03578 -2.25 1.11121 1.11023 0 0 1
1.73 2.50531 -2.25 1.11121 1.11023 0 0 1
1.73 2.50531 -0.75 1.11121 1.11023 0 0 1
1.73 2.50531 -0.75 1.5708 0 0 0 1
1.73 2.50531 -2.25 1.5708 0 0 0 1
1.73 0.13 -2.25 1.5708 0 0 0 1
1.73 0.13 -0.75 1.5708 0 0 0 1
1.73 0.13 -0.75 0 1.5708 0 0 1
1.73 0.13 -2.25 0 1.5708 0 0 1
2.81 0.13 -2.25 0 1.5708 0 0 1
2.81 0.13 -0.75 0 1.5708 0 0 1
2.81 0.13 -0.75 -1.5708 0 0 0 1
2.81 0.13 -2.25 -1.5708 0 0 0 1
2.81 4.35 -2.25 -1.5708 0 0 0 1
2.81 4.35 -0.75 -1.5708 0 0 0 1
2.81 4.35 -0.75 0 1.5708 0 0 1
2.81 4.35 -2.25 0 1.5708 0 0 1
3.33 4.35 -2.25 0 1.5708 0 0 1
3.33 4.35 -0.75 0 1.5708 0 0 1
3.33 4.35 -0.75 1.5708 0 0 0 1
3.33 4.35 -2.25 1.5708 0 0 0 1
3.33 0.13 -2.25 1.5708 0 0 0 1
3.33 0.13 -0.75 1.5708 0 0 0 1
3.33 0.13 -0.75 0 1.5708 0 0 1
3.33 0.13 -2.25 0 1.5708 0 0 1
4.37 0.13 -2.25 0 1.5708 0 0 1
4.37 0.13 -0.75 0 1.5708 0 0 1
4.37 0.13 -0.75 -1.5708 0 0 0 1
4.37 0.13 -2.25 -1.5708 0 0 0 1
4.37 4.08078 -2.25 -1.5708 0 0 0 1
4.37 4.08078 -0.75 -1.5708 0 0 0 1
4.37 4.08078 -0.75 -1.10814 1.11329 0 0 1
4.37 4.08078 -2.25 -1.10814 1.11329 0 0 1
4.64047 4.35 -2.25 -1.10814 1.11329 0 0 1
4.64047 4.35 -0.75 -1.10814 1.11329 0 0 1
4.64047 4.35 -0.75 0 1.5708 0 0 1
4.64047 4.35 -2.25 0 1.5708 0 0 1
5.14953 4.35 -2.25 0 1.5708 0 0 1
5.14953 4.35 -0.75 0 1.5708 0 0 1
5.14953 4.35 -0.75 1.10814 1.11329 0 0 1
5.14953 4.35 -2.25 1.10814 1.11329 0 0 1
5.42 4.08078 -2.25 1.10814 1.11329 0 0 1
5.42 4.08078 -0.75 1.10814 1.11329 0 0 1
5.42 4.08078 -0.75 1.5708 0 0 0 1
5.42 4.08078 -2.25 1.5708 0 0 0 1
5.42 -0.130781 -2.25 1.5708 0 0 0 1
5.42 -0.130781 -0.75 1.5708 0 0 0 1
5.42 -0.130781 -0.75 1.11104 -1.1104 0 0 1
5.42 -0.130781 -2.25 1.11104 -1.1104 0 0 1
5.15094 -0.4 -2.25 1.11104 -1.1104 0 0 1
5.15094 -0.4 -0.75 1.11104 -1.1104 0 0 1
5.15094 -0.4 -0.75 0 0 2.3559 0 1
5.42 -0.130781 -0.75 0 0 2.35648 0 1
5.42 4.08078 -0.75 0 0 2.35388 0 1
5.14953 4.35 -0.75 0 0 2.35851 0 1
4.64047 4.35 -0.75 0 0 2.35851 0 1
4.37 4.08078 -0.75 0 0 2.35388 0 1
4.37 0.13 -0.75 0 0 4.71239 0 1
3.33 0.13 -0.75 0 0 3.14159 0 1
2.81 0.13 -0.75 0 0 3.14159 0 1
1.73 0.13 -0.75 0 0 2.75739 0 1
0.419063 -0.4 -0.75 0 0 0.3842 0 1
3.33 0.13 -0.75 0 0 1.5708 0 1
3.33 4.35 -0.75 0 0 1.5708 0 1
2.81 4.35 -0.75 0 0 1.5708 0 1
2.81 0.13 -0.75 0 0 1.5708 0 1
1.73 2.50531 -0.75 0 0 2.35664 0 1
1.2 3.03578 -0.75 0 0 3.72507 0 1
1.73 0.13 -0.75 0 0 1.95498 0 1
0.931563 4.35 -0.75 0 0 1.77228 0 1
0.419063 -0.4 -0.75 0 0 1.24657 0 1
0.418437 4.35 -0.75 0 0 2.35474 0 1
0.15 4.08078 -0.75 0 0 2.29767 0 1
1.2 4.08078 -0.75 0 0 2.35765 0 1
0.931563 4.35 -0.75 0 0 0.582459 0 1
1.2 3.03578 -0.75 0 0 0.201484 0 1
0.419063 -0.4 -0.75 0 0 0.725132 0 1
0.15 4.08078 -0.75 0 0 0.0599752 0 1
0.15 -0.130781 -0.75 0 0 2.35648 0 1
5.15094 -0.4 -2.25 0 0 -2.3559 0 1
5.42 -0.130781 -2.25 0 0 -2.35648 0 1
5.42 4.08078 -2.25 0 0 -2.35388 0 1
5.14953 4.35 -2.25 0 0 -2.35851 0 1
4.64047 4.35 -2.25 0 0 -2.35851 0 1
4.37 4.08078 -2.25 0 0 -2.35388 0 1
4.37 0.13 -2.25 0 0 -4.71239 0 1
3.33 0.13 -2.25 0 0 -3.14159 0 1
2.81 0.13 -2.25 0 0 -3.14159 0 1
1.73 0.13 -2.25 0 0 -2.75739 0 1
0.419063 -0.4 -2.25 0 0 -0.3842 0 1
3.33 0.13 -2.25 0 0 -1.5708 0 1
3.33 4.35 -2.25 0 0 -1.5708 0 1
2.81 4.35 -2.25 0 0 -1.5708 0 1
2.81 0.13 -2.25 0 0 -1.5708 0 1
1.73 2.50531 -2.25 0 0 -2.35664 0 1
1.2 3.03578 -2.25 0 0 -3.72507 0 1
1.73 0.13 -2.25 0 0 -1.95498 0 1
0.931563 4.35 -2.25 0 0 -1.77228 0 1
0.419063 -0.4 -2.25 0 0 -1.24657 0 1
0.418437 4.35 -2.25 0 0 -2.35474 0 1
0.15 4.08078 -2.25 0 0 -2.29767 0 1
1.2 4.08078 -2.25 0 0 -2.35765 0 1
0.931563 4.35 -2.25 0 0 -0.582459 0 1
1.2 3.03578 -2.25 0 0 -0.201484 0 1
0.419063 -0.4 -2.25 0 0 -0.725132 0 1
0.15 4.08078 -2.25 0 0 -0.0599752 0 1
0.15 -0.130781 -2.25 0 0 -2.35648 0 1
3 0 2 1 
3 0 3 2 
3 4 6 5 
3 4 7 6 
3 8 10 9 
3 8 11 10 
3 12 14 13 
3 12 15 14 
3 16 18 17 
3 16 19 18 
3 20 22 21 
3 20 23 22 
3 24 26 25 
3 24 27 26 
3 28 30 29 
3 28 31 30 
3 32 34 33 
3 32 35 34 
3 36 38 37 
3 36 39 38 
3 40 42 41 
3 40 43 42 
3 44 46 45 
3 44 47 46 
3 48 50 49 
3 48 51 50 
3 52 54 53 
3 52 55 54 
3 56 58 57 
3 56 59 58 
3 60 62 61 
3 60 63 62 
3 64 66 65 
3 64 67 66 
3 68 70 69 
3 68 71 70 
3 72 74 73 
3 72 75 74 
3 76 78 77 
3 76 79 78 
3 80 81 82 
3 80 82 83 
3 80 83 84 
3 80 84 85 
3 80 85 86 
3 80 86 87 
3 80 87 88 
3 80 88 89 
3 80 89 90 
3 91 92 93 
3 91 93 94 
3 95 96 97 
3 97 96 98 
3 97 98 99 
3 99 98 100 
3 99 100 101 
3 102 103 104 
3 105 106 107 
3 108 110 109 
3 108 111 110 
3 108 112 111 
3 108 113 112 
3 108 114 113 
3 108 115 114 
3 108 116 115 
3 108 117 116 
3 108 118 117 
3 119 121 120 
3 119 122 121 
3 123 125 124 
3 125 126 124 
3 125 127 126 
3 127 128 126 
3 127 129 128 
3 130 132 131 
3 133 135 134 
