ply
format ascii 1.0
comment VCGLIB generated
element vertex 92
property float x
property float y
property float z
property float nx
property float ny
property float nz
property float texture_u
property float texture_v
element face 52
property list uchar int vertex_indices
end_header
2.74 2.77 -0.75 0 -1.5708 0 0 1
2.74 2.77 -2.25 0 -1.5708 0 0 1
1.15 2.77 -2.25 0 -1.5708 0 0 1
1.15 2.77 -0.75 0 -1.5708 0 0 1
1.15 2.77 -0.75 1.5708 0 0 0 1
1.15 2.77 -2.25 1.5708 0 0 0 1
1.15 1.96953 -2.25 1.5708 0 0 0 1
1.15 1.96953 -0.75 1.5708 0 0 0 1
1.15 1.96953 -0.75 1.10328 1.11811 0 0 1
1.15 1.96953 -2.25 1.10328 1.11811 0 0 1
1.68 1.44656 -2.25 1.10328 1.11811 0 0 1
1.68 1.44656 -0.75 1.10328 1.11811 0 0 1
1.68 1.44656 -0.75 1.5708 0 0 0 1
1.68 1.44656 -2.25 1.5708 0 0 0 1
1.68 -0.130625 -2.25 1.5708 0 0 0 1
1.68 -0.130625 -0.75 1.5708 0 0 0 1
1.68 -0.130625 -0.75 1.10943 -1.11201 0 0 1
1.68 -0.130625 -2.25 1.10943 -1.11201 0 0 1
1.41 -0.4 -2.25 1.10943 -1.11201 0 0 1
1.41 -0.4 -0.75 1.10943 -1.11201 0 0 1
1.41 -0.4 -0.75 0 -1.5708 0 0 1
1.41 -0.4 -2.25 0 -1.5708 0 0 1
0.37 -0.4 -2.25 0 -1.5708 0 0 1
0.37 -0.4 -0.75 0 -1.5708 0 0 1
0.37 -0.4 -0.75 -1.10943 -1.11201 0 0 1
0.37 -0.4 -2.25 -1.10943 -1.11201 0 0 1
0.1 -0.130625 -2.25 -1.10943 -1.11201 0 0 1
0.1 -0.130625 -0.75 -1.10943 -1.11201 0 0 1
0.1 -0.130625 -0.75 -1.5708 0 0 0 1
0.1 -0.130625 -2.25 -1.5708 0 0 0 1
0.1 3.03063 -2.25 -1.5708 0 0 0 1
0.1 3.03063 -0.75 -1.5708 0 0 0 1
0.1 3.03063 -0.75 -1.11104 1.1104 0 0 1
0.1 3.03063 -2.25 -1.11104 1.1104 0 0 1
0.369219 3.3 -2.25 -1.11104 1.1104 0 0 1
0.369219 3.3 -0.75 -1.11104 1.1104 0 0 1
0.369219 3.3 -0.75 0 1.5708 0 0 1
0.369219 3.3 -2.25 0 1.5708 0 0 1
2.99078 3.3 -2.25 0 1.5708 0 0 1
2.99078 3.3 -0.75 0 1.5708 0 0 1
2.99078 3.3 -0.75 1.11104 1.1104 0 0 1
2.99078 3.3 -2.25 1.11104 1.1104 0 0 1
3.26 3.03063 -2.25 1.11104 1.1104 0 0 1
3.26 3.03063 -0.75 1.11104 1.1104 0 0 1
3.26 3.03063 -0.75 1.5708 0 0 0 1
3.26 3.03063 -2.25 1.5708 0 0 0 1
3.26 -0.4 -2.25 1.5708 0 0 0 1
3.26 -0.4 -0.75 1.5708 0 0 0 1
3.26 -0.4 -0.75 0 -1.5708 0 0 1
3.26 -0.4 -2.25 0 -1.5708 0 0 1
2.74 -0.4 -2.25 0 -1.5708 0 0 1
2.74 -0.4 -0.75 0 -1.5708 0 0 1
2.74 -0.4 -0.75 -1.5708 0 0 0 1
2.74 -0.4 -2.25 -1.5708 0 0 0 1
2.74 2.77 -2.25 -1.5708 0 0 0 1
2.74 2.77 -0.75 -1.5708 0 0 0 1
2.74 -0.4 -0.75 0 0 1.5708 0 1
3.26 -0.4 -0.75 0 0 1.49816 0 1
2.74 2.77 -0.75 0 0 4.71239 0 1
2.99078 3.3 -0.75 0 0 1.64343 0 1
1.15 2.77 -0.75 0 0 4.47113 0 1
0.369219 3.3 -0.75 0 0 2.35591 0 1
0.37 -0.4 -0.75 0 0 1.02782 0 1
0.1 3.03063 -0.75 0 0 2.35648 0 1
0.1 -0.130625 -0.75 0 0 2.35504 0 1
1.68 -0.130625 -0.75 0 0 2.35504 0 1
1.68 1.44656 -0.75 0 0 2.34952 0 1
1.41 -0.4 -0.75 0 0 2.35735 0 1
1.15 1.96953 -0.75 0 0 3.93367 0 1
0.37 -0.4 -0.75 0 0 1.32953 0 1
1.15 2.77 -0.75 0 0 0.241264 0 1
2.99078 3.3 -0.75 0 0 0.712475 0 1
3.26 -0.4 -0.75 0 0 0.0726346 0 1
3.26 3.03063 -0.75 0 0 2.35648 0 1
2.74 -0.4 -2.25 0 0 -1.5708 0 1
3.26 -0.4 -2.25 0 0 -1.49816 0 1
2.74 2.77 -2.25 0 0 -4.71239 0 1
2.99078 3.3 -2.25 0 0 -1.64343 0 1
1.15 2.77 -2.25 0 0 -4.47113 0 1
0.369219 3.3 -2.25 0 0 -2.35591 0 1
0.37 -0.4 -2.25 0 0 -1.02782 0 1
0.1 3.03063 -2.25 0 0 -2.35648 0 1
0.1 -0.130625 -2.25 0 0 -2.35504 0 1
1.68 -0.130625 -2.25 0 0 -2.35504 0 1
1.68 1.44656 -2.25 0 0 -2.34952 0 1
1.41 -0.4 -2.25 0 0 -2.35735 0 1
1.15 1.96953 -2.25 0 0 -3.93367 0 1
0.37 -0.4 -2.25 0 0 -1.32953 0 1
1.15 2.77 -2.25 0 0 -0.241264 0 1
2.99078 3.3 -2.25 0 0 -0.712475 0 1
3.26 -0.4 -2.25 0 0 -0.0726346 0 1
3.26 3.03063 -2.25 0 0 -2.35648 0 1
3 0 2 1 
3 0 3 2 
3 4 6 5 
3 4 7 6 
3 8 10 9 
3 8 11 10 
3 12 14 13 
3 12 15 14 
3 16 18 17 
3 16 19 18 
3 20 22 21 
3 20 23 22 
3 24 26 25 
3 24 27 26 
3 28 30 29 
3 28 31 30 
3 32 34 33 
3 32 35 34 
3 36 38 37 
3 36 39 38 
3 40 42 41 
3 40 43 42 
3 44 46 45 
3 44 47 46 
3 48 50 49 
3 48 51 50 
3 52 54 53 
3 52 55 54 
3 56 57 58 
3 58 57 59 
3 58 59 60 
3 60 59 61 
3 60 61 62 
3 62 61 63 
3 62 63 64 
3 65 66 67 
3 67 66 68 
3 67 68 69 
3 69 68 70 
3 71 72 73 
3 74 76 75 
3 76 77 75 
3 76 78 77 
3 78 79 77 
3 78 80 79 
3 80 81 79 
3 80 82 81 
3 83 85 84 
3 85 86 84 
3 85 87 86 
3 87 88 86 
3 89 91 90 
