ply
format ascii 1.0
comment VCGLIB generated
element vertex 148
property float x
property float y
property float z
property float nx
property float ny
property float nz
property float texture_u
property float texture_v
element face 84
property list uchar int vertex_indices
end_header
0.67 3.3 -0.75 0 -1.5708 0 0 1
0.67 3.3 -2.25 0 -1.5708 0 0 1
0.15 3.3 -2.25 0 -1.5708 0 0 1
0.15 3.3 -0.75 0 -1.5708 0 0 1
0.15 3.3 -0.75 -1.5708 0 0 0 1
0.15 3.3 -2.25 -1.5708 0 0 0 1
0.15 4.08156 -2.25 -1.5708 0 0 0 1
0.15 4.08156 -0.75 -1.5708 0 0 0 1
0.15 4.08156 -0.75 -1.10878 1.11266 0 0 1
0.15 4.08156 -2.25 -1.10878 1.11266 0 0 1
0.419375 4.35 -2.25 -1.10878 1.11266 0 0 1
0.419375 4.35 -0.75 -1.10878 1.11266 0 0 1
0.419375 4.35 -0.75 0 1.5708 0 0 1
0.419375 4.35 -2.25 0 1.5708 0 0 1
3.05063 4.35 -2.25 0 1.5708 0 0 1
3.05063 4.35 -0.75 0 1.5708 0 0 1
3.05063 4.35 -0.75 1.1104 1.11104 0 0 1
3.05063 4.35 -2.25 1.1104 1.11104 0 0 1
3.32 4.08078 -2.25 1.1104 1.11104 0 0 1
3.32 4.08078 -0.75 1.1104 1.11104 0 0 1
3.32 4.08078 -0.75 1.5708 0 0 0 1
3.32 4.08078 -2.25 1.5708 0 0 0 1
3.32 3.02 -2.25 1.5708 0 0 0 1
3.32 3.02 -0.75 1.5708 0 0 0 1
3.32 3.02 -0.75 1.11255 1.10889 0 0 1
3.32 3.02 -2.25 1.11255 1.10889 0 0 1
3.84078 2.4975 -2.25 1.11255 1.10889 0 0 1
3.84078 2.4975 -0.75 1.11255 1.10889 0 0 1
3.84078 2.4975 -0.75 1.5708 0 0 0 1
3.84078 2.4975 -2.25 1.5708 0 0 0 1
3.84078 -0.130781 -2.25 1.5708 0 0 0 1
3.84078 -0.130781 -0.75 1.5708 0 0 0 1
3.84078 -0.130781 -0.75 1.11072 -1.11072 0 0 1
3.84078 -0.130781 -2.25 1.11072 -1.11072 0 0 1
3.57156 -0.4 -2.25 1.11072 -1.11072 0 0 1
3.57156 -0.4 -0.75 1.11072 -1.11072 0 0 1
3.57156 -0.4 -0.75 0 -1.5708 0 0 1
3.57156 -0.4 -2.25 0 -1.5708 0 0 1
0.419219 -0.4 -2.25 0 -1.5708 0 0 1
0.419219 -0.4 -0.75 0 -1.5708 0 0 1
0.419219 -0.4 -0.75 -1.10943 -1.11201 0 0 1
0.419219 -0.4 -2.25 -1.10943 -1.11201 0 0 1
0.15 -0.131406 -2.25 -1.10943 -1.11201 0 0 1
0.15 -0.131406 -0.75 -1.10943 -1.11201 0 0 1
0.15 -0.131406 -0.75 -1.5708 0 0 0 1
0.15 -0.131406 -2.25 -1.5708 0 0 0 1
0.15 1.18 -2.25 -1.5708 0 0 0 1
0.15 1.18 -0.75 -1.5708 0 0 0 1
0.15 1.18 -0.75 0 1.5708 0 0 1
0.15 1.18 -2.25 0 1.5708 0 0 1
0.67 1.18 -2.25 0 1.5708 0 0 1
0.67 1.18 -0.75 0 1.5708 0 0 1
0.67 1.18 -0.75 1.5708 0 0 0 1
0.67 1.18 -2.25 1.5708 0 0 0 1
0.67 0.13 -2.25 1.5708 0 0 0 1
0.67 0.13 -0.75 1.5708 0 0 0 1
0.67 0.13 -0.75 0 1.5708 0 0 1
0.67 0.13 -2.25 0 1.5708 0 0 1
2.27 0.13 -2.25 0 1.5708 0 0 1
2.27 0.13 -0.75 0 1.5708 0 0 1
2.27 0.13 -0.75 -1.5708 0 0 0 1
2.27 0.13 -2.25 -1.5708 0 0 0 1
2.27 2.24 -2.25 -1.5708 0 0 0 1
2.27 2.24 -0.75 -1.5708 0 0 0 1
2.27 2.24 -0.75 0 -1.5708 0 0 1
2.27 2.24 -2.25 0 -1.5708 0 0 1
0.672656 2.24 -2.25 0 -1.5708 0 0 1
0.672656 2.24 -0.75 0 -1.5708 0 0 1
0.672656 2.24 -0.75 -1.5708 0 0 0 1
0.672656 2.24 -2.25 -1.5708 0 0 0 1
0.672656 2.77 -2.25 -1.5708 0 0 0 1
0.672656 2.77 -0.75 -1.5708 0 0 0 1
0.672656 2.77 -0.75 0 1.5708 0 0 1
0.672656 2.77 -2.25 0 1.5708 0 0 1
2.27 2.77 -2.25 0 1.5708 0 0 1
2.27 2.77 -0.75 0 1.5708 0 0 1
2.27 2.77 -0.75 -1.5708 0 0 0 1
2.27 2.77 -2.25 -1.5708 0 0 0 1
2.27 3.82 -2.25 -1.5708 0 0 0 1
2.27 3.82 -0.75 -1.5708 0 0 0 1
2.27 3.82 -0.75 0 -1.5708 0 0 1
2.27 3.82 -2.25 0 -1.5708 0 0 1
0.67 3.82 -2.25 0 -1.5708 0 0 1
0.67 3.82 -0.75 0 -1.5708 0 0 1
0.67 3.82 -0.75 1.5708 0 0 0 1
0.67 3.82 -2.25 1.5708 0 0 0 1
0.67 3.3 -2.25 1.5708 0 0 0 1
0.67 3.3 -0.75 1.5708 0 0 0 1
2.27 2.24 -0.75 0 0 0.458045 0 1
2.27 0.13 -0.75 0 0 4.71239 0 1
3.57156 -0.4 -0.75 0 0 1.11275 0 1
0.67 0.13 -0.75 0 0 4.71239 0 1
0.419219 -0.4 -0.75 0 0 1.73957 0 1
0.67 1.18 -0.75 0 0 1.5708 0 1
0.15 1.18 -0.75 0 0 1.40203 0 1
0.672656 2.77 -0.75 0 0 0.320371 0 1
2.27 2.24 -0.75 0 0 3.93397 0 1
2.27 2.77 -0.75 0 0 4.71239 0 1
3.57156 -0.4 -0.75 0 0 0.34881 0 1
2.27 3.82 -0.75 0 0 4.71239 0 1
3.05063 4.35 -0.75 0 0 1.68003 0 1
0.67 3.82 -0.75 0 0 4.71239 0 1
0.419375 4.35 -0.75 0 0 2.35794 0 1
0.67 3.3 -0.75 0 0 1.5708 0 1
0.15 4.08156 -0.75 0 0 2.35445 0 1
0.15 3.3 -0.75 0 0 1.5708 0 1
3.32 4.08078 -0.75 0 0 2.35591 0 1
3.05063 4.35 -0.75 0 0 0.676453 0 1
3.32 3.02 -0.75 0 0 3.92534 0 1
3.57156 -0.4 -0.75 0 0 0.894634 0 1
3.84078 2.4975 -0.75 0 0 2.35784 0 1
3.84078 -0.130781 -0.75 0 0 2.35619 0 1
2.27 2.24 -0.75 0 0 0.320371 0 1
0.672656 2.77 -0.75 0 0 1.25043 0 1
0.672656 2.24 -0.75 0 0 1.5708 0 1
0.419219 -0.4 -0.75 0 0 0.617789 0 1
0.15 1.18 -0.75 0 0 0.168771 0 1
0.15 -0.131406 -0.75 0 0 2.35503 0 1
2.27 2.24 -2.25 0 0 -0.458045 0 1
2.27 0.13 -2.25 0 0 -4.71239 0 1
3.57156 -0.4 -2.25 0 0 -1.11275 0 1
0.67 0.13 -2.25 0 0 -4.71239 0 1
0.419219 -0.4 -2.25 0 0 -1.73957 0 1
0.67 1.18 -2.25 0 0 -1.5708 0 1
0.15 1.18 -2.25 0 0 -1.40203 0 1
0.672656 2.77 -2.25 0 0 -0.320371 0 1
2.27 2.24 -2.25 0 0 -3.93397 0 1
2.27 2.77 -2.25 0 0 -4.71239 0 1
3.57156 -0.4 -2.25 0 0 -0.34881 0 1
2.27 3.82 -2.25 0 0 -4.71239 0 1
3.05063 4.35 -2.25 0 0 -1.68003 0 1
0.67 3.82 -2.25 0 0 -4.71239 0 1
0.419375 4.35 -2.25 0 0 -2.35794 0 1
0.67 3.3 -2.25 0 0 -1.5708 0 1
0.15 4.08156 -2.25 0 0 -2.35445 0 1
0.15 3.3 -2.25 0 0 -1.5708 0 1
3.32 4.08078 -2.25 0 0 -2.35591 0 1
3.05063 4.35 -2.25 0 0 -0.676453 0 1
3.32 3.02 -2.25 0 0 -3.92534 0 1
3.57156 -0.4 -2.25 0 0 -0.894634 0 1
3.84078 2.4975 -2.25 0 0 -2.35784 0 1
3.84078 -0.130781 -2.25 0 0 -2.35619 0 1
2.27 2.24 -2.25 0 0 -0.320371 0 1
0.672656 2.77 -2.25 0 0 -1.25043 0 1
0.672656 2.24 -2.25 0 0 -1.5708 0 1
0.419219 -0.4 -2.25 0 0 -0.617789 0 1
0.15 1.18 -2.25 0 0 -0.168771 0 1
0.15 -0.131406 -2.25 0 0 -2.35503 0 1
3 0 2 1 
3 0 3 2 
3 4 6 5 
3 4 7 6 
3 8 10 9 
3 8 11 10 
3 12 14 13 
3 12 15 14 
3 16 18 17 
3 16 19 18 
3 20 22 21 
3 20 23 22 
3 24 26 25 
3 24 27 26 
3 28 30 29 
3 28 31 30 
3 32 34 33 
3 32 35 34 
3 36 38 37 
3 36 39 38 
3 40 42 41 
3 40 43 42 
3 44 46 45 
3 44 47 46 
3 48 50 49 
3 48 51 50 
3 52 54 53 
3 52 55 54 
3 56 58 57 
3 56 59 58 
3 60 62 61 
3 60 63 62 
3 64 66 65 
3 64 67 66 
3 68 70 69 
3 68 71 70 
3 72 74 73 
3 72 75 74 
3 76 78 77 
3 76 79 78 
3 80 82 81 
3 80 83 82 
3 84 86 85 
3 84 87 86 
3 88 89 90 
3 90 89 91 
3 90 91 92 
3 92 91 93 
3 92 93 94 
3 95 96 97 
3 97 96 98 
3 97 98 99 
3 99 98 100 
3 99 100 101 
3 101 100 102 
3 101 102 103 
3 103 102 104 
3 103 104 105 
3 106 107 108 
3 108 107 109 
3 108 109 110 
3 110 109 111 
3 112 113 114 
3 115 116 117 
3 118 120 119 
3 120 121 119 
3 120 122 121 
3 122 123 121 
3 122 124 123 
3 125 127 126 
3 127 128 126 
3 127 129 128 
3 129 130 128 
3 129 131 130 
3 131 132 130 
3 131 133 132 
3 133 134 132 
3 133 135 134 
3 136 138 137 
3 138 139 137 
3 138 140 139 
3 140 141 139 
3 142 144 143 
3 145 147 146 
