ply
format ascii 1.0
comment VCGLIB generated
element vertex 184
property float x
property float y
property float z
property float nx
property float ny
property float nz
property float texture_u
property float texture_v
element face 100
property list uchar int vertex_indices
end_header
2.00141 -0.4 -0.75 0 -1.5708 0 0 1
2.00141 -0.4 -2.25 0 -1.5708 0 0 1
0.958594 -0.4 -2.25 0 -1.5708 0 0 1
0.958594 -0.4 -0.75 0 -1.5708 0 0 1
0.958594 -0.4 -0.75 -1.11104 -1.1104 0 0 1
0.958594 -0.4 -2.25 -1.11104 -1.1104 0 0 1
0.69 -0.13125 -2.25 -1.11104 -1.1104 0 0 1
0.69 -0.13125 -0.75 -1.11104 -1.1104 0 0 1
0.69 -0.13125 -0.75 -1.5708 0 0 0 1
0.69 -0.13125 -2.25 -1.5708 0 0 0 1
0.69 1.97125 -2.25 -1.5708 0 0 0 1
0.69 1.97125 -0.75 -1.5708 0 0 0 1
0.69 1.97125 -0.75 -1.10975 1.11169 0 0 1
0.69 1.97125 -2.25 -1.10975 1.11169 0 0 1
0.959219 2.24 -2.25 -1.10975 1.11169 0 0 1
0.959219 2.24 -0.75 -1.10975 1.11169 0 0 1
0.959219 2.24 -0.75 0 1.5708 0 0 1
0.959219 2.24 -2.25 0 1.5708 0 0 1
4.38 2.24 -2.25 0 1.5708 0 0 1
4.38 2.24 -0.75 0 1.5708 0 0 1
4.38 2.24 -0.75 -1.5708 0 0 0 1
4.38 2.24 -2.25 -1.5708 0 0 0 1
4.38 4.35 -2.25 -1.5708 0 0 0 1
4.38 4.35 -0.75 -1.5708 0 0 0 1
4.38 4.35 -0.75 0 1.5708 0 0 1
4.38 4.35 -2.25 0 1.5708 0 0 1
4.91 4.35 -2.25 0 1.5708 0 0 1
4.91 4.35 -0.75 0 1.5708 0 0 1
4.91 4.35 -0.75 1.5708 0 0 0 1
4.91 4.35 -2.25 1.5708 0 0 0 1
4.91 1.97875 -2.25 1.5708 0 0 0 1
4.91 1.97875 -0.75 1.5708 0 0 0 1
4.91 1.97875 -0.75 1.10911 -1.11233 0 0 1
4.91 1.97875 -2.25 1.10911 -1.11233 0 0 1
4.64047 1.71 -2.25 1.10911 -1.11233 0 0 1
4.64047 1.71 -0.75 1.10911 -1.11233 0 0 1
4.64047 1.71 -0.75 0 -1.5708 0 0 1
4.64047 1.71 -2.25 0 -1.5708 0 0 1
2.27 1.71 -2.25 0 -1.5708 0 0 1
2.27 1.71 -0.75 0 -1.5708 0 0 1
2.27 1.71 -0.75 1.5708 0 0 0 1
2.27 1.71 -2.25 1.5708 0 0 0 1
2.27 -0.130312 -2.25 1.5708 0 0 0 1
2.27 -0.130312 -0.75 1.5708 0 0 0 1
2.27 -0.130312 -0.75 1.11298 -1.10846 0 0 1
2.27 -0.130312 -2.25 1.11298 -1.10846 0 0 1
2.00141 -0.4 -2.25 1.11298 -1.10846 0 0 1
2.00141 -0.4 -0.75 1.11298 -1.10846 0 0 1
2.00141 3.3 -0.75 0 -1.5708 0 0 1
2.00141 3.3 -2.25 0 -1.5708 0 0 1
0.958594 3.3 -2.25 0 -1.5708 0 0 1
0.958594 3.3 -0.75 0 -1.5708 0 0 1
0.958594 3.3 -0.75 -1.1104 -1.11104 0 0 1
0.958594 3.3 -2.25 -1.1104 -1.11104 0 0 1
0.69 3.56844 -2.25 -1.1104 -1.11104 0 0 1
0.69 3.56844 -0.75 -1.1104 -1.11104 0 0 1
0.69 3.56844 -0.75 -1.5708 0 0 0 1
0.69 3.56844 -2.25 -1.5708 0 0 0 1
0.69 4.08156 -2.25 -1.5708 0 0 0 1
0.69 4.08156 -0.75 -1.5708 0 0 0 1
0.69 4.08156 -0.75 -1.1104 1.11105 0 0 1
0.69 4.08156 -2.25 -1.1104 1.11105 0 0 1
0.958594 4.35 -2.25 -1.1104 1.11105 0 0 1
0.958594 4.35 -0.75 -1.1104 1.11105 0 0 1
0.958594 4.35 -0.75 0 1.5708 0 0 1
0.958594 4.35 -2.25 0 1.5708 0 0 1
2.00141 4.35 -2.25 0 1.5708 0 0 1
2.00141 4.35 -0.75 0 1.5708 0 0 1
2.00141 4.35 -0.75 1.1104 1.11105 0 0 1
2.00141 4.35 -2.25 1.1104 1.11105 0 0 1
2.27 4.08156 -2.25 1.1104 1.11105 0 0 1
2.27 4.08156 -0.75 1.1104 1.11105 0 0 1
2.27 4.08156 -0.75 1.5708 0 0 0 1
2.27 4.08156 -2.25 1.5708 0 0 0 1
2.27 3.56844 -2.25 1.5708 0 0 0 1
2.27 3.56844 -0.75 1.5708 0 0 0 1
2.27 3.56844 -0.75 1.1104 -1.11104 0 0 1
2.27 3.56844 -2.25 1.1104 -1.11104 0 0 1
2.00141 3.3 -2.25 1.1104 -1.11104 0 0 1
2.00141 3.3 -0.75 1.1104 -1.11104 0 0 1
4.91 -0.131094 -0.75 1.11137 -1.11007 0 0 1
4.91 -0.131094 -2.25 1.11137 -1.11007 0 0 1
4.64141 -0.4 -2.25 1.11137 -1.11007 0 0 1
4.64141 -0.4 -0.75 1.11137 -1.11007 0 0 1
4.64141 -0.4 -0.75 0 -1.5708 0 0 1
4.64141 -0.4 -2.25 0 -1.5708 0 0 1
3.59859 -0.4 -2.25 0 -1.5708 0 0 1
3.59859 -0.4 -0.75 0 -1.5708 0 0 1
3.59859 -0.4 -0.75 -1.11137 -1.11008 0 0 1
3.59859 -0.4 -2.25 -1.11137 -1.11008 0 0 1
3.33 -0.131094 -2.25 -1.11137 -1.11008 0 0 1
3.33 -0.131094 -0.75 -1.11137 -1.11008 0 0 1
3.33 -0.131094 -0.75 -1.5708 0 0 0 1
3.33 -0.131094 -2.25 -1.5708 0 0 0 1
3.33 0.391094 -2.25 -1.5708 0 0 0 1
3.33 0.391094 -0.75 -1.5708 0 0 0 1
3.33 0.391094 -0.75 -1.11137 1.11008 0 0 1
3.33 0.391094 -2.25 -1.11137 1.11008 0 0 1
3.59859 0.66 -2.25 -1.11137 1.11008 0 0 1
3.59859 0.66 -0.75 -1.11137 1.11008 0 0 1
3.59859 0.66 -0.75 0 1.5708 0 0 1
3.59859 0.66 -2.25 0 1.5708 0 0 1
4.64141 0.66 -2.25 0 1.5708 0 0 1
4.64141 0.66 -0.75 0 1.5708 0 0 1
4.64141 0.66 -0.75 1.11137 1.11007 0 0 1
4.64141 0.66 -2.25 1.11137 1.11007 0 0 1
4.91 0.391094 -2.25 1.11137 1.11007 0 0 1
4.91 0.391094 -0.75 1.11137 1.11007 0 0 1
4.91 0.391094 -0.75 1.5708 0 0 0 1
4.91 0.391094 -2.25 1.5708 0 0 0 1
4.91 -0.131094 -2.25 1.5708 0 0 0 1
4.91 -0.131094 -0.75 1.5708 0 0 0 1
4.64047 1.71 -0.75 0 0 2.35765 0 1
4.91 1.97875 -0.75 0 0 2.35474 0 1
4.91 4.35 -0.75 0 0 1.5708 0 1
4.38 4.35 -0.75 0 0 1.5708 0 1
4.38 2.24 -0.75 0 0 4.4663 0 1
2.27 1.71 -0.75 0 0 0.246094 0 1
2.27 -0.130312 -0.75 0 0 2.35823 0 1
2.27 1.71 -0.75 0 0 1.95504 0 1
2.00141 -0.4 -0.75 0 0 2.35416 0 1
0.959219 2.24 -0.75 0 0 1.97282 0 1
0.958594 -0.4 -0.75 0 0 2.3559 0 1
0.69 1.97125 -0.75 0 0 2.35532 0 1
0.69 -0.13125 -0.75 0 0 2.35648 0 1
0.69 4.08156 -0.75 0 0 2.02488 0 1
0.958594 3.3 -0.75 0 0 1.90181 0 1
0.958594 4.35 -0.75 0 0 2.35649 0 1
2.00141 3.3 -0.75 0 0 2.35648 0 1
2.00141 4.35 -0.75 0 0 2.35649 0 1
2.27 3.56844 -0.75 0 0 2.3559 0 1
2.27 4.08156 -0.75 0 0 2.3559 0 1
3.33 0.391094 -0.75 0 0 2.02946 0 1
3.59859 -0.4 -0.75 0 0 1.89811 0 1
3.59859 0.66 -0.75 0 0 2.35561 0 1
4.64141 -0.4 -0.75 0 0 2.35561 0 1
4.64141 0.66 -0.75 0 0 2.35561 0 1
4.91 -0.131094 -0.75 0 0 2.35678 0 1
4.91 0.391094 -0.75 0 0 2.35678 0 1
3.59859 -0.4 -0.75 0 0 0.457508 0 1
3.33 0.391094 -0.75 0 0 0.32731 0 1
3.33 -0.131094 -0.75 0 0 2.35677 0 1
0.958594 3.3 -0.75 0 0 0.454671 0 1
0.69 4.08156 -0.75 0 0 0.331018 0 1
0.69 3.56844 -0.75 0 0 2.3559 0 1
0.959219 2.24 -0.75 0 0 0.384241 0 1
2.27 1.71 -0.75 0 0 2.51126 0 1
4.38 2.24 -0.75 0 0 0.246094 0 1
4.64047 1.71 -2.25 0 0 -2.35765 0 1
4.91 1.97875 -2.25 0 0 -2.35474 0 1
4.91 4.35 -2.25 0 0 -1.5708 0 1
4.38 4.35 -2.25 0 0 -1.5708 0 1
4.38 2.24 -2.25 0 0 -4.4663 0 1
2.27 1.71 -2.25 0 0 -0.246094 0 1
2.27 -0.130312 -2.25 0 0 -2.35823 0 1
2.27 1.71 -2.25 0 0 -1.95504 0 1
2.00141 -0.4 -2.25 0 0 -2.35416 0 1
0.959219 2.24 -2.25 0 0 -1.97282 0 1
0.958594 -0.4 -2.25 0 0 -2.3559 0 1
0.69 1.97125 -2.25 0 0 -2.35532 0 1
0.69 -0.13125 -2.25 0 0 -2.35648 0 1
0.69 4.08156 -2.25 0 0 -2.02488 0 1
0.958594 3.3 -2.25 0 0 -1.90181 0 1
0.958594 4.35 -2.25 0 0 -2.35649 0 1
2.00141 3.3 -2.25 0 0 -2.35648 0 1
2.00141 4.35 -2.25 0 0 -2.35649 0 1
2.27 3.56844 -2.25 0 0 -2.3559 0 1
2.27 4.08156 -2.25 0 0 -2.3559 0 1
3.33 0.391094 -2.25 0 0 -2.02946 0 1
3.59859 -0.4 -2.25 0 0 -1.89811 0 1
3.59859 0.66 -2.25 0 0 -2.35561 0 1
4.64141 -0.4 -2.25 0 0 -2.35561 0 1
4.64141 0.66 -2.25 0 0 -2.35561 0 1
4.91 -0.131094 -2.25 0 0 -2.35678 0 1
4.91 0.391094 -2.25 0 0 -2.35678 0 1
3.59859 -0.4 -2.25 0 0 -0.457508 0 1
3.33 0.391094 -2.25 0 0 -0.32731 0 1
3.33 -0.131094 -2.25 0 0 -2.35677 0 1
0.958594 3.3 -2.25 0 0 -0.454671 0 1
0.69 4.08156 -2.25 0 0 -0.331018 0 1
0.69 3.56844 -2.25 0 0 -2.3559 0 1
0.959219 2.24 -2.25 0 0 -0.384241 0 1
2.27 1.71 -2.25 0 0 -2.51126 0 1
4.38 2.24 -2.25 0 0 -0.246094 0 1
3 0 2 1 
3 0 3 2 
3 4 6 5 
3 4 7 6 
3 8 10 9 
3 8 11 10 
3 12 14 13 
3 12 15 14 
3 16 18 17 
3 16 19 18 
3 20 22 21 
3 20 23 22 
3 24 26 25 
3 24 27 26 
3 28 30 29 
3 28 31 30 
3 32 34 33 
3 32 35 34 
3 36 38 37 
3 36 39 38 
3 40 42 41 
3 40 43 42 
3 44 46 45 
3 44 47 46 
3 48 50 49 
3 48 51 50 
3 52 54 53 
3 52 55 54 
3 56 58 57 
3 56 59 58 
3 60 62 61 
3 60 63 62 
3 64 66 65 
3 64 67 66 
3 68 70 69 
3 68 71 70 
3 72 74 73 
3 72 75 74 
3 76 78 77 
3 76 79 78 
3 80 82 81 
3 80 83 82 
3 84 86 85 
3 84 87 86 
3 88 90 89 
3 88 91 90 
3 92 94 93 
3 92 95 94 
3 96 98 97 
3 96 99 98 
3 100 102 101 
3 100 103 102 
3 104 106 105 
3 104 107 106 
3 108 110 109 
3 108 111 110 
3 112 113 114 
3 112 114 115 
3 112 115 116 
3 112 116 117 
3 118 119 120 
3 120 119 121 
3 120 121 122 
3 122 121 123 
3 122 123 124 
3 125 126 127 
3 127 126 128 
3 127 128 129 
3 129 128 130 
3 129 130 131 
3 132 133 134 
3 134 133 135 
3 134 135 136 
3 136 135 137 
3 136 137 138 
3 139 140 141 
3 142 143 144 
3 145 146 147 
3 148 150 149 
3 148 151 150 
3 148 152 151 
3 148 153 152 
3 154 156 155 
3 156 157 155 
3 156 158 157 
3 158 159 157 
3 158 160 159 
3 161 163 162 
3 163 164 162 
3 163 165 164 
3 165 166 164 
3 165 167 166 
3 168 170 169 
3 170 171 169 
3 170 172 171 
3 172 173 171 
3 172 174 173 
3 175 177 176 
3 178 180 179 
3 181 183 182 
