ply
format ascii 1.0
comment VCGLIB generated
element vertex 88
property float x
property float y
property float z
property float nx
property float ny
property float nz
property float texture_u
property float texture_v
element face 48
property list uchar int vertex_indices
end_header
2.07828 2.24 -0.75 0 -1.5708 0 0 1
2.07828 2.24 -2.25 0 -1.5708 0 0 1
0.491719 2.24 -2.25 0 -1.5708 0 0 1
0.491719 2.24 -0.75 0 -1.5708 0 0 1
0.491719 2.24 -0.75 -1.11072 -1.11072 0 0 1
0.491719 2.24 -2.25 -1.11072 -1.11072 0 0 1
0.23 2.50172 -2.25 -1.11072 -1.11072 0 0 1
0.23 2.50172 -0.75 -1.11072 -1.11072 0 0 1
0.23 2.50172 -0.75 -1.5708 0 0 0 1
0.23 2.50172 -2.25 -1.5708 0 0 0 1
0.23 4.08828 -2.25 -1.5708 0 0 0 1
0.23 4.08828 -0.75 -1.5708 0 0 0 1
0.23 4.08828 -0.75 -1.11072 1.11072 0 0 1
0.23 4.08828 -2.25 -1.11072 1.11072 0 0 1
0.491719 4.35 -2.25 -1.11072 1.11072 0 0 1
0.491719 4.35 -0.75 -1.11072 1.11072 0 0 1
0.491719 4.35 -0.75 0 1.5708 0 0 1
0.491719 4.35 -2.25 0 1.5708 0 0 1
2.07828 4.35 -2.25 0 1.5708 0 0 1
2.07828 4.35 -0.75 0 1.5708 0 0 1
2.07828 4.35 -0.75 1.11072 1.11072 0 0 1
2.07828 4.35 -2.25 1.11072 1.11072 0 0 1
2.34 4.08828 -2.25 1.11072 1.11072 0 0 1
2.34 4.08828 -0.75 1.11072 1.11072 0 0 1
2.34 4.08828 -0.75 1.5708 0 0 0 1
2.34 4.08828 -2.25 1.5708 0 0 0 1
2.34 2.50172 -2.25 1.5708 0 0 0 1
2.34 2.50172 -0.75 1.5708 0 0 0 1
2.34 2.50172 -0.75 1.11072 -1.11072 0 0 1
2.34 2.50172 -2.25 1.11072 -1.11072 0 0 1
2.07828 2.24 -2.25 1.11072 -1.11072 0 0 1
2.07828 2.24 -0.75 1.11072 -1.11072 0 0 1
1.82 3.82 -0.75 0 -1.5708 0 0 1
1.82 3.82 -2.25 0 -1.5708 0 0 1
0.75 3.82 -2.25 0 -1.5708 0 0 1
0.75 3.82 -0.75 0 -1.5708 0 0 1
0.75 3.82 -0.75 1.5708 0 0 0 1
0.75 3.82 -2.25 1.5708 0 0 0 1
0.75 2.77 -2.25 1.5708 0 0 0 1
0.75 2.77 -0.75 1.5708 0 0 0 1
0.75 2.77 -0.75 0 1.5708 0 0 1
0.75 2.77 -2.25 0 1.5708 0 0 1
1.82 2.77 -2.25 0 1.5708 0 0 1
1.82 2.77 -0.75 0 1.5708 0 0 1
1.82 2.77 -0.75 -1.5708 0 0 0 1
1.82 2.77 -2.25 -1.5708 0 0 0 1
1.82 3.82 -2.25 -1.5708 0 0 0 1
1.82 3.82 -0.75 -1.5708 0 0 0 1
2.07828 4.35 -0.75 0 0 2.3562 0 1
0.491719 4.35 -0.75 0 0 1.11734 0 1
0.75 3.82 -0.75 0 0 2.02425 0 1
1.82 3.82 -0.75 0 0 4.55035 0 1
2.07828 2.24 -0.75 0 0 0.947434 0 1
2.34 2.50172 -0.75 0 0 2.35619 0 1
2.34 4.08828 -0.75 0 0 2.35619 0 1
0.75 2.77 -0.75 0 0 4.71239 0 1
0.75 3.82 -0.75 0 0 2.68814 0 1
0.491719 4.35 -0.75 0 0 0.453455 0 1
0.491719 2.24 -0.75 0 0 1.5708 0 1
2.07828 2.24 -0.75 0 0 1.11734 0 1
1.82 2.77 -0.75 0 0 2.02425 0 1
0.23 4.08828 -0.75 0 0 2.35619 0 1
0.23 2.50172 -0.75 0 0 2.35619 0 1
0.491719 2.24 -0.75 0 0 0.785398 0 1
0.491719 4.35 -0.75 0 0 0.7854 0 1
1.82 2.77 -0.75 0 0 2.68814 0 1
2.07828 2.24 -0.75 0 0 0.291419 0 1
1.82 3.82 -0.75 0 0 0.162036 0 1
2.07828 4.35 -2.25 0 0 -2.3562 0 1
0.491719 4.35 -2.25 0 0 -1.11734 0 1
0.75 3.82 -2.25 0 0 -2.02425 0 1
1.82 3.82 -2.25 0 0 -4.55035 0 1
2.07828 2.24 -2.25 0 0 -0.947434 0 1
2.34 2.50172 -2.25 0 0 -2.35619 0 1
2.34 4.08828 -2.25 0 0 -2.35619 0 1
0.75 2.77 -2.25 0 0 -4.71239 0 1
0.75 3.82 -2.25 0 0 -2.68814 0 1
0.491719 4.35 -2.25 0 0 -0.453455 0 1
0.491719 2.24 -2.25 0 0 -1.5708 0 1
2.07828 2.24 -2.25 0 0 -1.11734 0 1
1.82 2.77 -2.25 0 0 -2.02425 0 1
0.23 4.08828 -2.25 0 0 -2.35619 0 1
0.23 2.50172 -2.25 0 0 -2.35619 0 1
0.491719 2.24 -2.25 0 0 -0.785398 0 1
0.491719 4.35 -2.25 0 0 -0.7854 0 1
1.82 2.77 -2.25 0 0 -2.68814 0 1
2.07828 2.24 -2.25 0 0 -0.291419 0 1
1.82 3.82 -2.25 0 0 -0.162036 0 1
3 0 2 1 
3 0 3 2 
3 4 6 5 
3 4 7 6 
3 8 10 9 
3 8 11 10 
3 12 14 13 
3 12 15 14 
3 16 18 17 
3 16 19 18 
3 20 22 21 
3 20 23 22 
3 24 26 25 
3 24 27 26 
3 28 30 29 
3 28 31 30 
3 32 34 33 
3 32 35 34 
3 36 38 37 
3 36 39 38 
3 40 42 41 
3 40 43 42 
3 44 46 45 
3 44 47 46 
3 48 49 50 
3 48 50 51 
3 48 51 52 
3 48 52 53 
3 48 53 54 
3 55 56 57 
3 55 57 58 
3 55 58 59 
3 55 59 60 
3 61 62 63 
3 61 63 64 
3 65 66 67 
3 68 70 69 
3 68 71 70 
3 68 72 71 
3 68 73 72 
3 68 74 73 
3 75 77 76 
3 75 78 77 
3 75 79 78 
3 75 80 79 
3 81 83 82 
3 81 84 83 
3 85 87 86 
