ply
format ascii 1.0
comment VCGLIB generated
element vertex 212
property float x
property float y
property float z
property float nx
property float ny
property float nz
property float texture_u
property float texture_v
element face 116
property list uchar int vertex_indices
end_header
1.77 0.13 -0.75 0 -1.5708 0 0 1
1.77 0.13 -2.25 0 -1.5708 0 0 1
0.467813 0.13 -2.25 0 -1.5708 0 0 1
0.467813 0.13 -0.75 0 -1.5708 0 0 1
0.467813 0.13 -0.75 -1.10884 -1.1126 0 0 1
0.467813 0.13 -2.25 -1.10884 -1.1126 0 0 1
0.19 0.406875 -2.25 -1.10884 -1.1126 0 0 1
0.19 0.406875 -0.75 -1.10884 -1.1126 0 0 1
0.19 0.406875 -0.75 -1.5708 0 0 0 1
0.19 0.406875 -2.25 -1.5708 0 0 0 1
0.19 1.18 -2.25 -1.5708 0 0 0 1
0.19 1.18 -0.75 -1.5708 0 0 0 1
0.19 1.18 -0.75 0 1.5708 0 0 1
0.19 1.18 -2.25 0 1.5708 0 0 1
0.71 1.18 -2.25 0 1.5708 0 0 1
0.71 1.18 -0.75 0 1.5708 0 0 1
0.71 1.18 -0.75 1.5708 0 0 0 1
0.71 1.18 -2.25 1.5708 0 0 0 1
0.71 0.66 -2.25 1.5708 0 0 0 1
0.71 0.66 -0.75 1.5708 0 0 0 1
0.71 0.66 -0.75 0 1.5708 0 0 1
0.71 0.66 -2.25 0 1.5708 0 0 1
2.30672 0.66 -2.25 0 1.5708 0 0 1
2.30672 0.66 -0.75 0 1.5708 0 0 1
2.30672 0.66 -0.75 -1.5708 0 0 0 1
2.30672 0.66 -2.25 -1.5708 0 0 0 1
2.30672 1.72 -2.25 -1.5708 0 0 0 1
2.30672 1.72 -0.75 -1.5708 0 0 0 1
2.30672 1.72 -0.75 0 -1.5708 0 0 1
2.30672 1.72 -2.25 0 -1.5708 0 0 1
0.468594 1.72 -2.25 0 -1.5708 0 0 1
0.468594 1.72 -0.75 0 -1.5708 0 0 1
0.468594 1.72 -0.75 -1.10947 -1.11197 0 0 1
0.468594 1.72 -2.25 -1.10947 -1.11197 0 0 1
0.19 1.99797 -2.25 -1.10947 -1.11197 0 0 1
0.19 1.99797 -0.75 -1.10947 -1.11197 0 0 1
0.19 1.99797 -0.75 -1.5708 0 0 0 1
0.19 1.99797 -2.25 -1.5708 0 0 0 1
0.19 3.57 -2.25 -1.5708 0 0 0 1
0.19 3.57 -0.75 -1.5708 0 0 0 1
0.19 3.57 -0.75 -1.11362 1.10782 0 0 1
0.19 3.57 -2.25 -1.11362 1.10782 0 0 1
0.458594 3.84 -2.25 -1.11362 1.10782 0 0 1
0.458594 3.84 -0.75 -1.11362 1.10782 0 0 1
0.458594 3.84 -0.75 0 1.5708 0 0 1
0.458594 3.84 -2.25 0 1.5708 0 0 1
1.77 3.84 -2.25 0 1.5708 0 0 1
1.77 3.84 -0.75 0 1.5708 0 0 1
1.77 3.84 -0.75 -1.5708 0 0 0 1
1.77 3.84 -2.25 -1.5708 0 0 0 1
1.77 4.88 -2.25 -1.5708 0 0 0 1
1.77 4.88 -0.75 -1.5708 0 0 0 1
1.77 4.88 -0.75 0 1.5708 0 0 1
1.77 4.88 -2.25 0 1.5708 0 0 1
2.29 4.88 -2.25 0 1.5708 0 0 1
2.29 4.88 -0.75 0 1.5708 0 0 1
2.29 4.88 -0.75 1.5708 0 0 0 1
2.29 4.88 -2.25 1.5708 0 0 0 1
2.29 3.84 -2.25 1.5708 0 0 0 1
2.29 3.84 -0.75 1.5708 0 0 0 1
2.29 3.84 -0.75 0 1.5708 0 0 1
2.29 3.84 -2.25 0 1.5708 0 0 1
3.60875 3.84 -2.25 0 1.5708 0 0 1
3.60875 3.84 -0.75 0 1.5708 0 0 1
3.60875 3.84 -0.75 1.10853 1.11291 0 0 1
3.60875 3.84 -2.25 1.10853 1.11291 0 0 1
3.88672 3.56312 -2.25 1.10853 1.11291 0 0 1
3.88672 3.56312 -0.75 1.10853 1.11291 0 0 1
3.88672 3.56312 -0.75 1.5708 0 0 0 1
3.88672 3.56312 -2.25 1.5708 0 0 0 1
3.88672 2.78 -2.25 1.5708 0 0 0 1
3.88672 2.78 -0.75 1.5708 0 0 0 1
3.88672 2.78 -0.75 0 -1.5708 0 0 1
3.88672 2.78 -2.25 0 -1.5708 0 0 1
3.36672 2.78 -2.25 0 -1.5708 0 0 1
3.36672 2.78 -0.75 0 -1.5708 0 0 1
3.36672 2.78 -0.75 -1.5708 0 0 0 1
3.36672 2.78 -2.25 -1.5708 0 0 0 1
3.36672 3.31 -2.25 -1.5708 0 0 0 1
3.36672 3.31 -0.75 -1.5708 0 0 0 1
3.36672 3.31 -0.75 0 -1.5708 0 0 1
3.36672 3.31 -2.25 0 -1.5708 0 0 1
1.25 3.31 -2.25 0 -1.5708 0 0 1
1.25 3.31 -0.75 0 -1.5708 0 0 1
1.25 3.31 -0.75 1.5708 0 0 0 1
1.25 3.31 -2.25 1.5708 0 0 0 1
1.25 2.25 -2.25 1.5708 0 0 0 1
1.25 2.25 -0.75 1.5708 0 0 0 1
1.25 2.25 -0.75 0 1.5708 0 0 1
1.25 2.25 -2.25 0 1.5708 0 0 1
3.62469 2.25 -2.25 0 1.5708 0 0 1
3.62469 2.25 -0.75 0 1.5708 0 0 1
3.62469 2.25 -0.75 1.11072 1.11072 0 0 1
3.62469 2.25 -2.25 1.11072 1.11072 0 0 1
3.88672 1.98797 -2.25 1.11072 1.11072 0 0 1
3.88672 1.98797 -0.75 1.11072 1.11072 0 0 1
3.88672 1.98797 -0.75 1.5708 0 0 0 1
3.88672 1.98797 -2.25 1.5708 0 0 0 1
3.88672 0.407969 -2.25 1.5708 0 0 0 1
3.88672 0.407969 -0.75 1.5708 0 0 0 1
3.88672 0.407969 -0.75 1.10792 -1.11352 0 0 1
3.88672 0.407969 -2.25 1.10792 -1.11352 0 0 1
3.60734 0.13 -2.25 1.10792 -1.11352 0 0 1
3.60734 0.13 -0.75 1.10792 -1.11352 0 0 1
3.60734 0.13 -0.75 0 -1.5708 0 0 1
3.60734 0.13 -2.25 0 -1.5708 0 0 1
2.29 0.13 -2.25 0 -1.5708 0 0 1
2.29 0.13 -0.75 0 -1.5708 0 0 1
2.29 0.13 -0.75 1.5708 0 0 0 1
2.29 0.13 -2.25 1.5708 0 0 0 1
2.29 -0.92 -2.25 1.5708 0 0 0 1
2.29 -0.92 -0.75 1.5708 0 0 0 1
2.29 -0.92 -0.75 0 -1.5708 0 0 1
2.29 -0.92 -2.25 0 -1.5708 0 0 1
1.77 -0.92 -2.25 0 -1.5708 0 0 1
1.77 -0.92 -0.75 0 -1.5708 0 0 1
1.77 -0.92 -0.75 -1.5708 0 0 0 1
1.77 -0.92 -2.25 -1.5708 0 0 0 1
1.77 0.13 -2.25 -1.5708 0 0 0 1
1.77 0.13 -0.75 -1.5708 0 0 0 1
0.71 1.18 -0.75 0 0 0.22669 0 1
0.467813 0.13 -0.75 0 0 1.34411 0 1
0.71 0.66 -0.75 0 0 4.71239 0 1
1.77 0.13 -0.75 0 0 3.14159 0 1
2.30672 0.66 -0.75 0 0 2.75464 0 1
2.29 0.13 -0.75 0 0 3.14159 0 1
3.60734 0.13 -0.75 0 0 0.386952 0 1
0.19 1.18 -0.75 0 0 1.5708 0 1
0.19 0.406875 -0.75 0 0 2.3545 0 1
0.467813 0.13 -0.75 0 0 1.01378 0 1
0.71 1.18 -0.75 0 0 1.34411 0 1
3.60875 3.84 -0.75 0 0 1.14242 0 1
2.29 3.84 -0.75 0 0 3.14159 0 1
3.36672 3.31 -0.75 0 0 1.99918 0 1
1.77 3.84 -0.75 0 0 3.14159 0 1
1.25 3.31 -0.75 0 0 4.2556 0 1
0.458594 3.84 -0.75 0 0 2.35358 0 1
0.468594 1.72 -0.75 0 0 1.24331 0 1
0.19 3.57 -0.75 0 0 2.35881 0 1
0.19 1.99797 -0.75 0 0 2.35507 0 1
2.29 3.84 -0.75 0 0 1.5708 0 1
2.29 4.88 -0.75 0 0 1.5708 0 1
1.77 4.88 -0.75 0 0 1.5708 0 1
1.77 3.84 -0.75 0 0 1.5708 0 1
1.25 3.31 -0.75 0 0 0.456785 0 1
0.468594 1.72 -0.75 0 0 1.11401 0 1
1.25 2.25 -0.75 0 0 4.71239 0 1
2.30672 1.72 -0.75 0 0 4.02677 0 1
3.62469 2.25 -0.75 0 0 1.7121 0 1
3.60734 0.13 -0.75 0 0 1.47354 0 1
3.88672 0.407969 -0.75 0 0 2.21237 0 1
3.88672 2.78 -0.75 0 0 1.5708 0 1
3.88672 3.56312 -0.75 0 0 2.35422 0 1
3.60875 3.84 -0.75 0 0 1.21575 0 1
3.36672 3.31 -0.75 0 0 2.71321 0 1
3.36672 2.78 -0.75 0 0 1.5708 0 1
1.77 0.13 -0.75 0 0 1.5708 0 1
1.77 -0.92 -0.75 0 0 1.5708 0 1
2.29 -0.92 -0.75 0 0 1.5708 0 1
2.29 0.13 -0.75 0 0 1.5708 0 1
2.30672 0.66 -0.75 0 0 1.95775 0 1
3.60734 0.13 -0.75 0 0 0.498222 0 1
2.30672 1.72 -0.75 0 0 0.685622 0 1
3.62469 2.25 -0.75 0 0 0.644095 0 1
3.88672 0.407969 -0.75 0 0 0.141303 0 1
3.88672 1.98797 -0.75 0 0 2.35619 0 1
0.71 1.18 -2.25 0 0 -0.22669 0 1
0.467813 0.13 -2.25 0 0 -1.34411 0 1
0.71 0.66 -2.25 0 0 -4.71239 0 1
1.77 0.13 -2.25 0 0 -3.14159 0 1
2.30672 0.66 -2.25 0 0 -2.75464 0 1
2.29 0.13 -2.25 0 0 -3.14159 0 1
3.60734 0.13 -2.25 0 0 -0.386952 0 1
0.19 1.18 -2.25 0 0 -1.5708 0 1
0.19 0.406875 -2.25 0 0 -2.3545 0 1
0.467813 0.13 -2.25 0 0 -1.01378 0 1
0.71 1.18 -2.25 0 0 -1.34411 0 1
3.60875 3.84 -2.25 0 0 -1.14242 0 1
2.29 3.84 -2.25 0 0 -3.14159 0 1
3.36672 3.31 -2.25 0 0 -1.99918 0 1
1.77 3.84 -2.25 0 0 -3.14159 0 1
1.25 3.31 -2.25 0 0 -4.2556 0 1
0.458594 3.84 -2.25 0 0 -2.35358 0 1
0.468594 1.72 -2.25 0 0 -1.24331 0 1
0.19 3.57 -2.25 0 0 -2.35881 0 1
0.19 1.99797 -2.25 0 0 -2.35507 0 1
2.29 3.84 -2.25 0 0 -1.5708 0 1
2.29 4.88 -2.25 0 0 -1.5708 0 1
1.77 4.88 -2.25 0 0 -1.5708 0 1
1.77 3.84 -2.25 0 0 -1.5708 0 1
1.25 3.31 -2.25 0 0 -0.456785 0 1
0.468594 1.72 -2.25 0 0 -1.11401 0 1
1.25 2.25 -2.25 0 0 -4.71239 0 1
2.30672 1.72 -2.25 0 0 -4.02677 0 1
3.62469 2.25 -2.25 0 0 -1.7121 0 1
3.60734 0.13 -2.25 0 0 -1.47354 0 1
3.88672 0.407969 -2.25 0 0 -2.21237 0 1
3.88672 2.78 -2.25 0 0 -1.5708 0 1
3.88672 3.56312 -2.25 0 0 -2.35422 0 1
3.60875 3.84 -2.25 0 0 -1.21575 0 1
3.36672 3.31 -2.25 0 0 -2.71321 0 1
3.36672 2.78 -2.25 0 0 -1.5708 0 1
1.77 0.13 -2.25 0 0 -1.5708 0 1
1.77 -0.92 -2.25 0 0 -1.5708 0 1
2.29 -0.92 -2.25 0 0 -1.5708 0 1
2.29 0.13 -2.25 0 0 -1.5708 0 1
2.30672 0.66 -2.25 0 0 -1.95775 0 1
3.60734 0.13 -2.25 0 0 -0.498222 0 1
2.30672 1.72 -2.25 0 0 -0.685622 0 1
3.62469 2.25 -2.25 0 0 -0.644095 0 1
3.88672 0.407969 -2.25 0 0 -0.141303 0 1
3.88672 1.98797 -2.25 0 0 -2.35619 0 1
3 0 2 1 
3 0 3 2 
3 4 6 5 
3 4 7 6 
3 8 10 9 
3 8 11 10 
3 12 14 13 
3 12 15 14 
3 16 18 17 
3 16 19 18 
3 20 22 21 
3 20 23 22 
3 24 26 25 
3 24 27 26 
3 28 30 29 
3 28 31 30 
3 32 34 33 
3 32 35 34 
3 36 38 37 
3 36 39 38 
3 40 42 41 
3 40 43 42 
3 44 46 45 
3 44 47 46 
3 48 50 49 
3 48 51 50 
3 52 54 53 
3 52 55 54 
3 56 58 57 
3 56 59 58 
3 60 62 61 
3 60 63 62 
3 64 66 65 
3 64 67 66 
3 68 70 69 
3 68 71 70 
3 72 74 73 
3 72 75 74 
3 76 78 77 
3 76 79 78 
3 80 82 81 
3 80 83 82 
3 84 86 85 
3 84 87 86 
3 88 90 89 
3 88 91 90 
3 92 94 93 
3 92 95 94 
3 96 98 97 
3 96 99 98 
3 100 102 101 
3 100 103 102 
3 104 106 105 
3 104 107 106 
3 108 110 109 
3 108 111 110 
3 112 114 113 
3 112 115 114 
3 116 118 117 
3 116 119 118 
3 120 121 122 
3 122 121 123 
3 122 123 124 
3 124 123 125 
3 124 125 126 
3 127 128 129 
3 127 129 130 
3 131 132 133 
3 133 132 134 
3 133 134 135 
3 135 134 136 
3 135 136 137 
3 137 136 138 
3 137 138 139 
3 140 141 142 
3 140 142 143 
3 144 145 146 
3 146 145 147 
3 146 147 148 
3 148 147 149 
3 148 149 150 
3 151 152 153 
3 151 153 154 
3 151 154 155 
3 156 157 158 
3 156 158 159 
3 160 161 162 
3 163 164 165 
3 166 168 167 
3 168 169 167 
3 168 170 169 
3 170 171 169 
3 170 172 171 
3 173 175 174 
3 173 176 175 
3 177 179 178 
3 179 180 178 
3 179 181 180 
3 181 182 180 
3 181 183 182 
3 183 184 182 
3 183 185 184 
3 186 188 187 
3 186 189 188 
3 190 192 191 
3 192 193 191 
3 192 194 193 
3 194 195 193 
3 194 196 195 
3 197 199 198 
3 197 200 199 
3 197 201 200 
3 202 204 203 
3 202 205 204 
3 206 208 207 
3 209 211 210 
