ply
format ascii 1.0
comment VCGLIB generated
element vertex 104
property float x
property float y
property float z
property float nx
property float ny
property float nz
property float texture_u
property float texture_v
element face 56
property list uchar int vertex_indices
end_header
2.3 3.82 -0.75 0 -1.5708 0 0 1
2.3 3.82 -2.25 0 -1.5708 0 0 1
0.71 3.82 -2.25 0 -1.5708 0 0 1
0.71 3.82 -0.75 0 -1.5708 0 0 1
0.71 3.82 -0.75 1.5708 0 0 0 1
0.71 3.82 -2.25 1.5708 0 0 0 1
0.71 0.13 -2.25 1.5708 0 0 0 1
0.71 0.13 -0.75 1.5708 0 0 0 1
0.71 0.13 -0.75 0 1.5708 0 0 1
0.71 0.13 -2.25 0 1.5708 0 0 1
2.83 0.13 -2.25 0 1.5708 0 0 1
2.83 0.13 -0.75 0 1.5708 0 0 1
2.83 0.13 -0.75 -1.5708 0 0 0 1
2.83 0.13 -2.25 -1.5708 0 0 0 1
2.83 2.50047 -2.25 -1.5708 0 0 0 1
2.83 2.50047 -0.75 -1.5708 0 0 0 1
2.83 2.50047 -0.75 -1.11834 -1.10305 0 0 1
2.83 2.50047 -2.25 -1.11834 -1.10305 0 0 1
2.3 3.03781 -2.25 -1.11834 -1.10305 0 0 1
2.3 3.03781 -0.75 -1.11834 -1.10305 0 0 1
2.3 3.03781 -0.75 -1.5708 0 0 0 1
2.3 3.03781 -2.25 -1.5708 0 0 0 1
2.3 3.82 -2.25 -1.5708 0 0 0 1
2.3 3.82 -0.75 -1.5708 0 0 0 1
3.61078 4.35 -0.75 1.11072 1.11072 0 0 1
3.61078 4.35 -2.25 1.11072 1.11072 0 0 1
3.88 4.08078 -2.25 1.11072 1.11072 0 0 1
3.88 4.08078 -0.75 1.11072 1.11072 0 0 1
3.88 4.08078 -0.75 1.5708 0 0 0 1
3.88 4.08078 -2.25 1.5708 0 0 0 1
3.88 -0.130781 -2.25 1.5708 0 0 0 1
3.88 -0.130781 -0.75 1.5708 0 0 0 1
3.88 -0.130781 -0.75 1.11072 -1.11072 0 0 1
3.88 -0.130781 -2.25 1.11072 -1.11072 0 0 1
3.61078 -0.4 -2.25 1.11072 -1.11072 0 0 1
3.61078 -0.4 -0.75 1.11072 -1.11072 0 0 1
3.61078 -0.4 -0.75 0 -1.5708 0 0 1
3.61078 -0.4 -2.25 0 -1.5708 0 0 1
0.459219 -0.4 -2.25 0 -1.5708 0 0 1
0.459219 -0.4 -0.75 0 -1.5708 0 0 1
0.459219 -0.4 -0.75 -1.11072 -1.11072 0 0 1
0.459219 -0.4 -2.25 -1.11072 -1.11072 0 0 1
0.19 -0.130781 -2.25 -1.11072 -1.11072 0 0 1
0.19 -0.130781 -0.75 -1.11072 -1.11072 0 0 1
0.19 -0.130781 -0.75 -1.5708 0 0 0 1
0.19 -0.130781 -2.25 -1.5708 0 0 0 1
0.19 4.08078 -2.25 -1.5708 0 0 0 1
0.19 4.08078 -0.75 -1.5708 0 0 0 1
0.19 4.08078 -0.75 -1.11072 1.11072 0 0 1
0.19 4.08078 -2.25 -1.11072 1.11072 0 0 1
0.459219 4.35 -2.25 -1.11072 1.11072 0 0 1
0.459219 4.35 -0.75 -1.11072 1.11072 0 0 1
0.459219 4.35 -0.75 0 1.5708 0 0 1
0.459219 4.35 -2.25 0 1.5708 0 0 1
3.61078 4.35 -2.25 0 1.5708 0 0 1
3.61078 4.35 -0.75 0 1.5708 0 0 1
3.61078 4.35 -0.75 0 0 2.35619 0 1
0.459219 4.35 -0.75 0 0 1.12884 0 1
0.71 3.82 -0.75 0 0 2.01275 0 1
2.3 3.82 -0.75 0 0 4.33045 0 1
2.83 2.50047 -0.75 0 0 3.26057 0 1
3.61078 -0.4 -0.75 0 0 1.04836 0 1
3.88 -0.130781 -0.75 0 0 2.35619 0 1
3.88 4.08078 -0.75 0 0 2.35619 0 1
0.71 0.13 -0.75 0 0 4.71239 0 1
0.71 3.82 -0.75 0 0 2.69964 0 1
0.459219 4.35 -0.75 0 0 0.441955 0 1
0.459219 -0.4 -0.75 0 0 1.5708 0 1
3.61078 -0.4 -0.75 0 0 0.596361 0 1
2.83 0.13 -0.75 0 0 2.54523 0 1
0.19 4.08078 -0.75 0 0 2.35619 0 1
0.19 -0.130781 -0.75 0 0 2.35619 0 1
0.459219 -0.4 -0.75 0 0 0.785398 0 1
0.459219 4.35 -0.75 0 0 0.785398 0 1
2.83 2.50047 -0.75 0 0 0.396583 0 1
2.3 3.82 -0.75 0 0 0.381935 0 1
2.3 3.03781 -0.75 0 0 2.36308 0 1
2.83 0.13 -0.75 0 0 2.16716 0 1
3.61078 -0.4 -0.75 0 0 0.711478 0 1
2.83 2.50047 -0.75 0 0 0.262958 0 1
3.61078 4.35 -2.25 0 0 -2.35619 0 1
0.459219 4.35 -2.25 0 0 -1.12884 0 1
0.71 3.82 -2.25 0 0 -2.01275 0 1
2.3 3.82 -2.25 0 0 -4.33045 0 1
2.83 2.50047 -2.25 0 0 -3.26057 0 1
3.61078 -0.4 -2.25 0 0 -1.04836 0 1
3.88 -0.130781 -2.25 0 0 -2.35619 0 1
3.88 4.08078 -2.25 0 0 -2.35619 0 1
0.71 0.13 -2.25 0 0 -4.71239 0 1
0.71 3.82 -2.25 0 0 -2.69964 0 1
0.459219 4.35 -2.25 0 0 -0.441955 0 1
0.459219 -0.4 -2.25 0 0 -1.5708 0 1
3.61078 -0.4 -2.25 0 0 -0.596361 0 1
2.83 0.13 -2.25 0 0 -2.54523 0 1
0.19 4.08078 -2.25 0 0 -2.35619 0 1
0.19 -0.130781 -2.25 0 0 -2.35619 0 1
0.459219 -0.4 -2.25 0 0 -0.785398 0 1
0.459219 4.35 -2.25 0 0 -0.785398 0 1
2.83 2.50047 -2.25 0 0 -0.396583 0 1
2.3 3.82 -2.25 0 0 -0.381935 0 1
2.3 3.03781 -2.25 0 0 -2.36308 0 1
2.83 0.13 -2.25 0 0 -2.16716 0 1
3.61078 -0.4 -2.25 0 0 -0.711478 0 1
2.83 2.50047 -2.25 0 0 -0.262958 0 1
3 0 2 1 
3 0 3 2 
3 4 6 5 
3 4 7 6 
3 8 10 9 
3 8 11 10 
3 12 14 13 
3 12 15 14 
3 16 18 17 
3 16 19 18 
3 20 22 21 
3 20 23 22 
3 24 26 25 
3 24 27 26 
3 28 30 29 
3 28 31 30 
3 32 34 33 
3 32 35 34 
3 36 38 37 
3 36 39 38 
3 40 42 41 
3 40 43 42 
3 44 46 45 
3 44 47 46 
3 48 50 49 
3 48 51 50 
3 52 54 53 
3 52 55 54 
3 56 57 58 
3 56 58 59 
3 56 59 60 
3 56 60 61 
3 56 61 62 
3 56 62 63 
3 64 65 66 
3 64 66 67 
3 64 67 68 
3 64 68 69 
3 70 71 72 
3 70 72 73 
3 74 75 76 
3 77 78 79 
3 80 82 81 
3 80 83 82 
3 80 84 83 
3 80 85 84 
3 80 86 85 
3 80 87 86 
3 88 90 89 
3 88 91 90 
3 88 92 91 
3 88 93 92 
3 94 96 95 
3 94 97 96 
3 98 100 99 
3 101 103 102 
