ply
format ascii 1.0
comment VCGLIB generated
element vertex 96
property float x
property float y
property float z
property float nx
property float ny
property float nz
property float texture_u
property float texture_v
element face 52
property list uchar int vertex_indices
end_header
2.28 0.13 -0.75 -1.5708 0 0 0 1
2.28 0.13 -2.25 -1.5708 0 0 0 1
2.28 4.08031 -2.25 -1.5708 0 0 0 1
2.28 4.08031 -0.75 -1.5708 0 0 0 1
2.28 4.08031 -0.75 -1.11233 1.10911 0 0 1
2.28 4.08031 -2.25 -1.11233 1.10911 0 0 1
2.54891 4.35 -2.25 -1.11233 1.10911 0 0 1
2.54891 4.35 -0.75 -1.11233 1.10911 0 0 1
2.54891 4.35 -0.75 0 1.5708 0 0 1
2.54891 4.35 -2.25 0 1.5708 0 0 1
3.07109 4.35 -2.25 0 1.5708 0 0 1
3.07109 4.35 -0.75 0 1.5708 0 0 1
3.07109 4.35 -0.75 1.11137 1.11007 0 0 1
3.07109 4.35 -2.25 1.11137 1.11007 0 0 1
3.34 4.08078 -2.25 1.11137 1.11007 0 0 1
3.34 4.08078 -0.75 1.11137 1.11007 0 0 1
3.34 4.08078 -0.75 1.5708 0 0 0 1
3.34 4.08078 -2.25 1.5708 0 0 0 1
3.34 3.02797 -2.25 1.5708 0 0 0 1
3.34 3.02797 -0.75 1.5708 0 0 0 1
3.34 3.02797 -0.75 1.11488 1.10655 0 0 1
3.34 3.02797 -2.25 1.11488 1.10655 0 0 1
3.85859 2.50547 -2.25 1.11488 1.10655 0 0 1
3.85859 2.50547 -0.75 1.11488 1.10655 0 0 1
3.85859 2.50547 -0.75 1.5708 0 0 0 1
3.85859 2.50547 -2.25 1.5708 0 0 0 1
3.85859 -0.130781 -2.25 1.5708 0 0 0 1
3.85859 -0.130781 -0.75 1.5708 0 0 0 1
3.85859 -0.130781 -0.75 1.11104 -1.1104 0 0 1
3.85859 -0.130781 -2.25 1.11104 -1.1104 0 0 1
3.58953 -0.4 -2.25 1.11104 -1.1104 0 0 1
3.58953 -0.4 -0.75 1.11104 -1.1104 0 0 1
3.58953 -0.4 -0.75 0 -1.5708 0 0 1
3.58953 -0.4 -2.25 0 -1.5708 0 0 1
0.439063 -0.4 -2.25 0 -1.5708 0 0 1
0.439063 -0.4 -0.75 0 -1.5708 0 0 1
0.439063 -0.4 -0.75 -1.10975 -1.11169 0 0 1
0.439063 -0.4 -2.25 -1.10975 -1.11169 0 0 1
0.17 -0.131406 -2.25 -1.10975 -1.11169 0 0 1
0.17 -0.131406 -0.75 -1.10975 -1.11169 0 0 1
0.17 -0.131406 -0.75 -1.5708 0 0 0 1
0.17 -0.131406 -2.25 -1.5708 0 0 0 1
0.17 1.18 -2.25 -1.5708 0 0 0 1
0.17 1.18 -0.75 -1.5708 0 0 0 1
0.17 1.18 -0.75 0 1.5708 0 0 1
0.17 1.18 -2.25 0 1.5708 0 0 1
0.69 1.18 -2.25 0 1.5708 0 0 1
0.69 1.18 -0.75 0 1.5708 0 0 1
0.69 1.18 -0.75 1.5708 0 0 0 1
0.69 1.18 -2.25 1.5708 0 0 0 1
0.69 0.13 -2.25 1.5708 0 0 0 1
0.69 0.13 -0.75 1.5708 0 0 0 1
0.69 0.13 -0.75 0 1.5708 0 0 1
0.69 0.13 -2.25 0 1.5708 0 0 1
2.28 0.13 -2.25 0 1.5708 0 0 1
2.28 0.13 -0.75 0 1.5708 0 0 1
2.28 4.08031 -0.75 0 0 0.284365 0 1
2.28 0.13 -0.75 0 0 4.71239 0 1
3.58953 -0.4 -0.75 0 0 1.28643 0 1
0.69 0.13 -0.75 0 0 4.71239 0 1
0.439063 -0.4 -0.75 0 0 1.73947 0 1
0.69 1.18 -0.75 0 0 1.5708 0 1
0.17 1.18 -0.75 0 0 1.40212 0 1
3.58953 -0.4 -0.75 0 0 1.06947 0 1
3.85859 -0.130781 -0.75 0 0 2.35648 0 1
3.85859 2.50547 -0.75 0 0 2.35995 0 1
3.34 3.02797 -0.75 0 0 3.72257 0 1
3.07109 4.35 -0.75 0 0 1.77146 0 1
2.54891 4.35 -0.75 0 0 2.35475 0 1
2.28 4.08031 -0.75 0 0 2.07328 0 1
3.34 4.08078 -0.75 0 0 2.35678 0 1
3.07109 4.35 -0.75 0 0 0.58415 0 1
3.34 3.02797 -0.75 0 0 0.200666 0 1
0.439063 -0.4 -0.75 0 0 0.617595 0 1
0.17 1.18 -0.75 0 0 0.168675 0 1
0.17 -0.131406 -0.75 0 0 2.35532 0 1
2.28 4.08031 -2.25 0 0 -0.284365 0 1
2.28 0.13 -2.25 0 0 -4.71239 0 1
3.58953 -0.4 -2.25 0 0 -1.28643 0 1
0.69 0.13 -2.25 0 0 -4.71239 0 1
0.439063 -0.4 -2.25 0 0 -1.73947 0 1
0.69 1.18 -2.25 0 0 -1.5708 0 1
0.17 1.18 -2.25 0 0 -1.40212 0 1
3.58953 -0.4 -2.25 0 0 -1.06947 0 1
3.85859 -0.130781 -2.25 0 0 -2.35648 0 1
3.85859 2.50547 -2.25 0 0 -2.35995 0 1
3.34 3.02797 -2.25 0 0 -3.72257 0 1
3.07109 4.35 -2.25 0 0 -1.77146 0 1
2.54891 4.35 -2.25 0 0 -2.35475 0 1
2.28 4.08031 -2.25 0 0 -2.07328 0 1
3.34 4.08078 -2.25 0 0 -2.35678 0 1
3.07109 4.35 -2.25 0 0 -0.58415 0 1
3.34 3.02797 -2.25 0 0 -0.200666 0 1
0.439063 -0.4 -2.25 0 0 -0.617595 0 1
0.17 1.18 -2.25 0 0 -0.168675 0 1
0.17 -0.131406 -2.25 0 0 -2.35532 0 1
3 0 2 1 
3 0 3 2 
3 4 6 5 
3 4 7 6 
3 8 10 9 
3 8 11 10 
3 12 14 13 
3 12 15 14 
3 16 18 17 
3 16 19 18 
3 20 22 21 
3 20 23 22 
3 24 26 25 
3 24 27 26 
3 28 30 29 
3 28 31 30 
3 32 34 33 
3 32 35 34 
3 36 38 37 
3 36 39 38 
3 40 42 41 
3 40 43 42 
3 44 46 45 
3 44 47 46 
3 48 50 49 
3 48 51 50 
3 52 54 53 
3 52 55 54 
3 56 57 58 
3 58 57 59 
3 58 59 60 
3 60 59 61 
3 60 61 62 
3 63 64 65 
3 63 65 66 
3 63 66 67 
3 63 67 68 
3 63 68 69 
3 70 71 72 
3 73 74 75 
3 76 78 77 
3 78 79 77 
3 78 80 79 
3 80 81 79 
3 80 82 81 
3 83 85 84 
3 83 86 85 
3 83 87 86 
3 83 88 87 
3 83 89 88 
3 90 92 91 
3 93 95 94 
