ply
format ascii 1.0
comment VCGLIB generated
element vertex 106
property float x
property float y
property float z
property float nx
property float ny
property float nz
property float texture_u
property float texture_v
element face 60
property list uchar int vertex_indices
end_header
0.14 -1.98 -0.75 0 -1.5708 0 0 1
0.14 -1.98 -2.25 0 -1.5708 0 0 1
0.68 -1.98 -2.25 0 -1.5708 0 0 1
0.68 -1.98 -0.75 0 -1.5708 0 0 1
0.68 -1.98 -0.75 1.5708 0 0 0 1
0.68 -1.98 -2.25 1.5708 0 0 0 1
0.68 -0.4 -2.25 1.5708 0 0 0 1
0.68 -0.4 -0.75 1.5708 0 0 0 1
0.68 -0.4 -0.75 0 -1.5708 0 0 1
0.68 -0.4 -2.25 0 -1.5708 0 0 1
3.0425 -0.4 -2.25 0 -1.5708 0 0 1
3.0425 -0.4 -0.75 0 -1.5708 0 0 1
3.0425 -0.4 -0.75 1.11041 -1.11103 0 0 1
3.0425 -0.4 -2.25 1.11041 -1.11103 0 0 1
3.32 -0.122656 -2.25 1.11041 -1.11103 0 0 1
3.32 -0.122656 -0.75 1.11041 -1.11103 0 0 1
3.32 -0.122656 -0.75 1.5708 0 0 0 1
3.32 -0.122656 -2.25 1.5708 0 0 0 1
3.32 3.03063 -2.25 1.5708 0 0 0 1
3.32 3.03063 -0.75 1.5708 0 0 0 1
3.32 3.03063 -0.75 1.11008 1.11136 0 0 1
3.32 3.03063 -2.25 1.11008 1.11136 0 0 1
3.05031 3.3 -2.25 1.11008 1.11136 0 0 1
3.05031 3.3 -0.75 1.11008 1.11136 0 0 1
3.05031 3.3 -0.75 0 1.5708 0 0 1
3.05031 3.3 -2.25 0 1.5708 0 0 1
0.409688 3.3 -2.25 0 1.5708 0 0 1
0.409688 3.3 -0.75 0 1.5708 0 0 1
0.409688 3.3 -0.75 -1.10975 1.11169 0 0 1
0.409688 3.3 -2.25 -1.10975 1.11169 0 0 1
0.14 3.03078 -2.25 -1.10975 1.11169 0 0 1
0.14 3.03078 -0.75 -1.10975 1.11169 0 0 1
0.14 3.03078 -0.75 -1.5708 0 0 0 1
0.14 3.03078 -2.25 -1.5708 0 0 0 1
0.14 -1.98 -2.25 -1.5708 0 0 0 1
0.14 -1.98 -0.75 -1.5708 0 0 0 1
2.79 0.13 -0.75 0 1.5708 0 0 1
2.79 0.13 -2.25 0 1.5708 0 0 1
1.74 0.13 -2.25 0 1.5708 0 0 1
1.74 0.13 -0.75 0 1.5708 0 0 1
1.74 0.13 -0.75 1.5708 0 0 0 1
1.74 0.13 -2.25 1.5708 0 0 0 1
1.74 1.44609 -2.25 1.5708 0 0 0 1
1.74 1.44609 -0.75 1.5708 0 0 0 1
1.74 1.44609 -0.75 1.11187 1.10958 0 0 1
1.74 1.44609 -2.25 1.11187 1.10958 0 0 1
1.21 1.97719 -2.25 1.11187 1.10958 0 0 1
1.21 1.97719 -0.75 1.11187 1.10958 0 0 1
1.21 1.97719 -0.75 1.5708 0 0 0 1
1.21 1.97719 -2.25 1.5708 0 0 0 1
1.21 2.77 -2.25 1.5708 0 0 0 1
1.21 2.77 -0.75 1.5708 0 0 0 1
1.21 2.77 -0.75 0 -1.5708 0 0 1
1.21 2.77 -2.25 0 -1.5708 0 0 1
2.79 2.77 -2.25 0 -1.5708 0 0 1
2.79 2.77 -0.75 0 -1.5708 0 0 1
2.79 2.77 -0.75 -1.5708 0 0 0 1
2.79 2.77 -2.25 -1.5708 0 0 0 1
2.79 0.13 -2.25 -1.5708 0 0 0 1
2.79 0.13 -0.75 -1.5708 0 0 0 1
3.05031 3.3 -0.75 0 0 0.280406 0 1
0.409688 3.3 -0.75 0 0 1.49787 0 1
1.21 2.77 -0.75 0 0 4.43198 0 1
0.68 -0.4 -0.75 0 0 1.18008 0 1
1.21 1.97719 -0.75 0 0 3.92596 0 1
1.74 0.13 -0.75 0 0 2.03444 0 1
1.74 1.44609 -0.75 0 0 2.35723 0 1
3.05031 3.3 -0.75 0 0 2.07637 0 1
1.21 2.77 -0.75 0 0 0.280406 0 1
2.79 2.77 -0.75 0 0 4.6329 0 1
3.0425 -0.4 -0.75 0 0 0.865165 0 1
3.32 -0.122656 -0.75 0 0 2.35591 0 1
3.32 3.03063 -0.75 0 0 2.35562 0 1
0.68 -1.98 -0.75 0 0 1.57079 0 1
0.68 -0.4 -0.75 0 0 3.06866 0 1
0.409688 3.3 -0.75 0 0 0.859195 0 1
0.14 3.03078 -0.75 0 0 2.35532 0 1
0.14 -1.98 -0.75 0 0 1.5708 0 1
3.0425 -0.4 -0.75 0 0 1.49131 0 1
2.79 2.77 -0.75 0 0 0.0794849 0 1
2.79 0.13 -0.75 0 0 4.71239 0 1
1.74 0.13 -0.75 0 0 2.67795 0 1
0.68 -0.4 -0.75 0 0 0.463647 0 1
3.05031 3.3 -2.25 0 0 -0.280406 0 1
0.409688 3.3 -2.25 0 0 -1.49787 0 1
1.21 2.77 -2.25 0 0 -4.43198 0 1
0.68 -0.4 -2.25 0 0 -1.18008 0 1
1.21 1.97719 -2.25 0 0 -3.92596 0 1
1.74 0.13 -2.25 0 0 -2.03444 0 1
1.74 1.44609 -2.25 0 0 -2.35723 0 1
3.05031 3.3 -2.25 0 0 -2.07637 0 1
1.21 2.77 -2.25 0 0 -0.280406 0 1
2.79 2.77 -2.25 0 0 -4.6329 0 1
3.0425 -0.4 -2.25 0 0 -0.865165 0 1
3.32 -0.122656 -2.25 0 0 -2.35591 0 1
3.32 3.03063 -2.25 0 0 -2.35562 0 1
0.68 -1.98 -2.25 0 0 -1.57079 0 1
0.68 -0.4 -2.25 0 0 -3.06866 0 1
0.409688 3.3 -2.25 0 0 -0.859195 0 1
0.14 3.03078 -2.25 0 0 -2.35532 0 1
0.14 -1.98 -2.25 0 0 -1.5708 0 1
3.0425 -0.4 -2.25 0 0 -1.49131 0 1
2.79 2.77 -2.25 0 0 -0.0794849 0 1
2.79 0.13 -2.25 0 0 -4.71239 0 1
1.74 0.13 -2.25 0 0 -2.67795 0 1
0.68 -0.4 -2.25 0 0 -0.463647 0 1
3 0 1 2 
3 0 2 3 
3 4 5 6 
3 4 6 7 
3 8 9 10 
3 8 10 11 
3 12 13 14 
3 12 14 15 
3 16 17 18 
3 16 18 19 
3 20 21 22 
3 20 22 23 
3 24 25 26 
3 24 26 27 
3 28 29 30 
3 28 30 31 
3 32 33 34 
3 32 34 35 
3 36 37 38 
3 36 38 39 
3 40 41 42 
3 40 42 43 
3 44 45 46 
3 44 46 47 
3 48 49 50 
3 48 50 51 
3 52 53 54 
3 52 54 55 
3 56 57 58 
3 56 58 59 
3 60 61 62 
3 62 61 63 
3 62 63 64 
3 64 63 65 
3 64 65 66 
3 67 68 69 
3 67 69 70 
3 67 70 71 
3 67 71 72 
3 73 74 75 
3 73 75 76 
3 73 76 77 
3 78 79 80 
3 78 80 81 
3 78 81 82 
3 83 85 84 
3 85 86 84 
3 85 87 86 
3 87 88 86 
3 87 89 88 
3 90 92 91 
3 90 93 92 
3 90 94 93 
3 90 95 94 
3 96 98 97 
3 96 99 98 
3 96 100 99 
3 101 103 102 
3 101 104 103 
3 101 105 104 
