ply
format ascii 1.0
comment VCGLIB generated
element vertex 84
property float x
property float y
property float z
property float nx
property float ny
property float nz
property float texture_u
property float texture_v
element face 44
property list uchar int vertex_indices
end_header
3.22 3.82 -0.75 0 -1.5708 0 0 1
3.22 3.82 -2.25 0 -1.5708 0 0 1
2.17 3.82 -2.25 0 -1.5708 0 0 1
2.17 3.82 -0.75 0 -1.5708 0 0 1
2.17 3.82 -0.75 1.5708 0 0 0 1
2.17 3.82 -2.25 1.5708 0 0 0 1
2.17 3.02187 -2.25 1.5708 0 0 0 1
2.17 3.02187 -0.75 1.5708 0 0 0 1
2.17 3.02187 -0.75 1.10956 1.11188 0 0 1
2.17 3.02187 -2.25 1.10956 1.11188 0 0 1
2.69266 2.50031 -2.25 1.10956 1.11188 0 0 1
2.69266 2.50031 -0.75 1.10956 1.11188 0 0 1
2.69266 2.50031 -0.75 1.5708 0 0 0 1
2.69266 2.50031 -2.25 1.5708 0 0 0 1
2.69266 -0.13125 -2.25 1.5708 0 0 0 1
2.69266 -0.13125 -0.75 1.5708 0 0 0 1
2.69266 -0.13125 -0.75 1.11072 -1.11072 0 0 1
2.69266 -0.13125 -2.25 1.11072 -1.11072 0 0 1
2.42391 -0.4 -2.25 1.11072 -1.11072 0 0 1
2.42391 -0.4 -0.75 1.11072 -1.11072 0 0 1
2.42391 -0.4 -0.75 0 -1.5708 0 0 1
2.42391 -0.4 -2.25 0 -1.5708 0 0 1
1.38875 -0.4 -2.25 0 -1.5708 0 0 1
1.38875 -0.4 -0.75 0 -1.5708 0 0 1
1.38875 -0.4 -0.75 -1.11072 -1.11072 0 0 1
1.38875 -0.4 -2.25 -1.11072 -1.11072 0 0 1
1.12 -0.13125 -2.25 -1.11072 -1.11072 0 0 1
1.12 -0.13125 -0.75 -1.11072 -1.11072 0 0 1
1.12 -0.13125 -0.75 -1.5708 0 0 0 1
1.12 -0.13125 -2.25 -1.5708 0 0 0 1
1.12 3.82 -2.25 -1.5708 0 0 0 1
1.12 3.82 -0.75 -1.5708 0 0 0 1
1.12 3.82 -0.75 0 -1.5708 0 0 1
1.12 3.82 -2.25 0 -1.5708 0 0 1
0.05 3.82 -2.25 0 -1.5708 0 0 1
0.05 3.82 -0.75 0 -1.5708 0 0 1
0.05 3.82 -0.75 -1.5708 0 0 0 1
0.05 3.82 -2.25 -1.5708 0 0 0 1
0.05 4.35 -2.25 -1.5708 0 0 0 1
0.05 4.35 -0.75 -1.5708 0 0 0 1
0.05 4.35 -0.75 0 1.5708 0 0 1
0.05 4.35 -2.25 0 1.5708 0 0 1
3.22 4.35 -2.25 0 1.5708 0 0 1
3.22 4.35 -0.75 0 1.5708 0 0 1
3.22 4.35 -0.75 1.5708 0 0 0 1
3.22 4.35 -2.25 1.5708 0 0 0 1
3.22 3.82 -2.25 1.5708 0 0 0 1
3.22 3.82 -0.75 1.5708 0 0 0 1
2.17 3.82 -0.75 0 0 4.71239 0 1
3.22 3.82 -0.75 0 0 1.5708 0 1
3.22 4.35 -0.75 0 0 1.32358 0 1
1.12 3.82 -0.75 0 0 1.75442 0 1
1.38875 -0.4 -0.75 0 0 0.28806 0 1
2.17 3.02187 -0.75 0 0 2.91713 0 1
0.05 4.35 -0.75 0 0 1.5708 0 1
0.05 3.82 -0.75 0 0 1.5708 0 1
1.12 3.82 -0.75 0 0 2.89437 0 1
3.22 4.35 -0.75 0 0 0.247218 0 1
2.42391 -0.4 -0.75 0 0 2.3562 0 1
2.69266 -0.13125 -0.75 0 0 2.35619 0 1
2.69266 2.50031 -0.75 0 0 2.35515 0 1
2.17 3.02187 -0.75 0 0 1.01091 0 1
1.38875 -0.4 -0.75 0 0 1.34633 0 1
1.38875 -0.4 -0.75 0 0 0.721799 0 1
1.12 3.82 -0.75 0 0 0.0635999 0 1
1.12 -0.13125 -0.75 0 0 2.35619 0 1
2.17 3.82 -2.25 0 0 -4.71239 0 1
3.22 3.82 -2.25 0 0 -1.5708 0 1
3.22 4.35 -2.25 0 0 -1.32358 0 1
1.12 3.82 -2.25 0 0 -1.75442 0 1
1.38875 -0.4 -2.25 0 0 -0.28806 0 1
2.17 3.02187 -2.25 0 0 -2.91713 0 1
0.05 4.35 -2.25 0 0 -1.5708 0 1
0.05 3.82 -2.25 0 0 -1.5708 0 1
1.12 3.82 -2.25 0 0 -2.89437 0 1
3.22 4.35 -2.25 0 0 -0.247218 0 1
2.42391 -0.4 -2.25 0 0 -2.3562 0 1
2.69266 -0.13125 -2.25 0 0 -2.35619 0 1
2.69266 2.50031 -2.25 0 0 -2.35515 0 1
2.17 3.02187 -2.25 0 0 -1.01091 0 1
1.38875 -0.4 -2.25 0 0 -1.34633 0 1
1.38875 -0.4 -2.25 0 0 -0.721799 0 1
1.12 3.82 -2.25 0 0 -0.0635999 0 1
1.12 -0.13125 -2.25 0 0 -2.35619 0 1
3 0 2 1 
3 0 3 2 
3 4 6 5 
3 4 7 6 
3 8 10 9 
3 8 11 10 
3 12 14 13 
3 12 15 14 
3 16 18 17 
3 16 19 18 
3 20 22 21 
3 20 23 22 
3 24 26 25 
3 24 27 26 
3 28 30 29 
3 28 31 30 
3 32 34 33 
3 32 35 34 
3 36 38 37 
3 36 39 38 
3 40 42 41 
3 40 43 42 
3 44 46 45 
3 44 47 46 
3 48 49 50 
3 48 50 51 
3 48 51 52 
3 48 52 53 
3 54 55 56 
3 54 56 57 
3 58 59 60 
3 58 60 61 
3 58 61 62 
3 63 64 65 
3 66 68 67 
3 66 69 68 
3 66 70 69 
3 66 71 70 
3 72 74 73 
3 72 75 74 
3 76 78 77 
3 76 79 78 
3 76 80 79 
3 81 83 82 
