ply
format ascii 1.0
comment VCGLIB generated
element vertex 96
property float x
property float y
property float z
property float nx
property float ny
property float nz
property float texture_u
property float texture_v
element face 52
property list uchar int vertex_indices
end_header
3.92 -0.130781 -0.75 1.11072 -1.11072 0 0 1
3.92 -0.130781 -2.25 1.11072 -1.11072 0 0 1
3.65078 -0.4 -2.25 1.11072 -1.11072 0 0 1
3.65078 -0.4 -0.75 1.11072 -1.11072 0 0 1
3.65078 -0.4 -0.75 0 -1.5708 0 0 1
3.65078 -0.4 -2.25 0 -1.5708 0 0 1
0.499219 -0.4 -2.25 0 -1.5708 0 0 1
0.499219 -0.4 -0.75 0 -1.5708 0 0 1
0.499219 -0.4 -0.75 -1.11072 -1.11072 0 0 1
0.499219 -0.4 -2.25 -1.11072 -1.11072 0 0 1
0.23 -0.130781 -2.25 -1.11072 -1.11072 0 0 1
0.23 -0.130781 -0.75 -1.11072 -1.11072 0 0 1
0.23 -0.130781 -0.75 -1.5708 0 0 0 1
0.23 -0.130781 -2.25 -1.5708 0 0 0 1
0.23 4.08078 -2.25 -1.5708 0 0 0 1
0.23 4.08078 -0.75 -1.5708 0 0 0 1
0.23 4.08078 -0.75 -1.09631 1.12494 0 0 1
0.23 4.08078 -2.25 -1.09631 1.12494 0 0 1
0.50625 4.35 -2.25 -1.09631 1.12494 0 0 1
0.50625 4.35 -0.75 -1.09631 1.12494 0 0 1
0.50625 4.35 -0.75 0 1.5708 0 0 1
0.50625 4.35 -2.25 0 1.5708 0 0 1
1.01156 4.35 -2.25 0 1.5708 0 0 1
1.01156 4.35 -0.75 0 1.5708 0 0 1
1.01156 4.35 -0.75 1.11233 1.1091 0 0 1
1.01156 4.35 -2.25 1.11233 1.1091 0 0 1
1.28 4.08078 -2.25 1.11233 1.1091 0 0 1
1.28 4.08078 -0.75 1.11233 1.1091 0 0 1
1.28 4.08078 -0.75 1.5708 0 0 0 1
1.28 4.08078 -2.25 1.5708 0 0 0 1
1.28 3.02781 -2.25 1.5708 0 0 0 1
1.28 3.02781 -0.75 1.5708 0 0 0 1
1.28 3.02781 -0.75 1.10278 1.11861 0 0 1
1.28 3.02781 -2.25 1.10278 1.11861 0 0 1
1.81 2.50531 -2.25 1.10278 1.11861 0 0 1
1.81 2.50531 -0.75 1.10278 1.11861 0 0 1
1.81 2.50531 -0.75 1.5708 0 0 0 1
1.81 2.50531 -2.25 1.5708 0 0 0 1
1.81 0.13 -2.25 1.5708 0 0 0 1
1.81 0.13 -0.75 1.5708 0 0 0 1
1.81 0.13 -0.75 0 1.5708 0 0 1
1.81 0.13 -2.25 0 1.5708 0 0 1
3.4 0.13 -2.25 0 1.5708 0 0 1
3.4 0.13 -0.75 0 1.5708 0 0 1
3.4 0.13 -0.75 -1.5708 0 0 0 1
3.4 0.13 -2.25 -1.5708 0 0 0 1
3.4 4.35 -2.25 -1.5708 0 0 0 1
3.4 4.35 -0.75 -1.5708 0 0 0 1
3.4 4.35 -0.75 0 1.5708 0 0 1
3.4 4.35 -2.25 0 1.5708 0 0 1
3.92 4.35 -2.25 0 1.5708 0 0 1
3.92 4.35 -0.75 0 1.5708 0 0 1
3.92 4.35 -0.75 1.5708 0 0 0 1
3.92 4.35 -2.25 1.5708 0 0 0 1
3.92 -0.130781 -2.25 1.5708 0 0 0 1
3.92 -0.130781 -0.75 1.5708 0 0 0 1
3.65078 -0.4 -0.75 0 0 2.35619 0 1
3.92 -0.130781 -0.75 0 0 2.3562 0 1
3.92 4.35 -0.75 0 0 1.5708 0 1
3.4 4.35 -0.75 0 0 1.5708 0 1
3.4 0.13 -0.75 0 0 4.71239 0 1
1.81 0.13 -0.75 0 0 2.75735 0 1
0.499219 -0.4 -0.75 0 0 0.384241 0 1
1.28 3.02781 -0.75 0 0 3.12218 0 1
1.01156 4.35 -0.75 0 0 1.7711 0 1
1.81 0.13 -0.75 0 0 1.77414 0 1
0.50625 4.35 -0.75 0 0 2.36908 0 1
0.499219 -0.4 -0.75 0 0 1.97195 0 1
0.23 4.08078 -0.75 0 0 2.34331 0 1
0.23 -0.130781 -0.75 0 0 2.35619 0 1
1.28 4.08078 -0.75 0 0 2.35765 0 1
1.01156 4.35 -0.75 0 0 0.583642 0 1
1.28 3.02781 -0.75 0 0 0.200302 0 1
1.81 2.50531 -0.75 0 0 2.34907 0 1
1.28 3.02781 -0.75 0 0 0.611627 0 1
1.81 0.13 -0.75 0 0 0.180897 0 1
3.65078 -0.4 -2.25 0 0 -2.35619 0 1
3.92 -0.130781 -2.25 0 0 -2.3562 0 1
3.92 4.35 -2.25 0 0 -1.5708 0 1
3.4 4.35 -2.25 0 0 -1.5708 0 1
3.4 0.13 -2.25 0 0 -4.71239 0 1
1.81 0.13 -2.25 0 0 -2.75735 0 1
0.499219 -0.4 -2.25 0 0 -0.384241 0 1
1.28 3.02781 -2.25 0 0 -3.12218 0 1
1.01156 4.35 -2.25 0 0 -1.7711 0 1
1.81 0.13 -2.25 0 0 -1.77414 0 1
0.50625 4.35 -2.25 0 0 -2.36908 0 1
0.499219 -0.4 -2.25 0 0 -1.97195 0 1
0.23 4.08078 -2.25 0 0 -2.34331 0 1
0.23 -0.130781 -2.25 0 0 -2.35619 0 1
1.28 4.08078 -2.25 0 0 -2.35765 0 1
1.01156 4.35 -2.25 0 0 -0.583642 0 1
1.28 3.02781 -2.25 0 0 -0.200302 0 1
1.81 2.50531 -2.25 0 0 -2.34907 0 1
1.28 3.02781 -2.25 0 0 -0.611627 0 1
1.81 0.13 -2.25 0 0 -0.180897 0 1
3 0 2 1 
3 0 3 2 
3 4 6 5 
3 4 7 6 
3 8 10 9 
3 8 11 10 
3 12 14 13 
3 12 15 14 
3 16 18 17 
3 16 19 18 
3 20 22 21 
3 20 23 22 
3 24 26 25 
3 24 27 26 
3 28 30 29 
3 28 31 30 
3 32 34 33 
3 32 35 34 
3 36 38 37 
3 36 39 38 
3 40 42 41 
3 40 43 42 
3 44 46 45 
3 44 47 46 
3 48 50 49 
3 48 51 50 
3 52 54 53 
3 52 55 54 
3 56 57 58 
3 56 58 59 
3 56 59 60 
3 56 60 61 
3 56 61 62 
3 63 64 65 
3 65 64 66 
3 65 66 67 
3 67 66 68 
3 67 68 69 
3 70 71 72 
3 73 74 75 
3 76 78 77 
3 76 79 78 
3 76 80 79 
3 76 81 80 
3 76 82 81 
3 83 85 84 
3 85 86 84 
3 85 87 86 
3 87 88 86 
3 87 89 88 
3 90 92 91 
3 93 95 94 
