ply
format ascii 1.0
comment VCGLIB generated
element vertex 100
property float x
property float y
property float z
property float nx
property float ny
property float nz
property float texture_u
property float texture_v
element face 56
property list uchar int vertex_indices
end_header
0.1 -0.130781 -0.75 -1.5708 0 0 0 1
0.1 -0.130781 -2.25 -1.5708 0 0 0 1
0.1 4.08078 -2.25 -1.5708 0 0 0 1
0.1 4.08078 -0.75 -1.5708 0 0 0 1
0.1 4.08078 -0.75 -1.1104 1.11104 0 0 1
0.1 4.08078 -2.25 -1.1104 1.11104 0 0 1
0.369375 4.35 -2.25 -1.1104 1.11104 0 0 1
0.369375 4.35 -0.75 -1.1104 1.11104 0 0 1
0.369375 4.35 -0.75 0 1.5708 0 0 1
0.369375 4.35 -2.25 0 1.5708 0 0 1
3.53063 4.35 -2.25 0 1.5708 0 0 1
3.53063 4.35 -0.75 0 1.5708 0 0 1
3.53063 4.35 -0.75 1.1104 1.11104 0 0 1
3.53063 4.35 -2.25 1.1104 1.11104 0 0 1
3.8 4.08078 -2.25 1.1104 1.11104 0 0 1
3.8 4.08078 -0.75 1.1104 1.11104 0 0 1
3.8 4.08078 -0.75 1.5708 0 0 0 1
3.8 4.08078 -2.25 1.5708 0 0 0 1
3.8 -0.130781 -2.25 1.5708 0 0 0 1
3.8 -0.130781 -0.75 1.5708 0 0 0 1
3.8 -0.130781 -0.75 1.1104 -1.11104 0 0 1
3.8 -0.130781 -2.25 1.1104 -1.11104 0 0 1
3.53063 -0.4 -2.25 1.1104 -1.11104 0 0 1
3.53063 -0.4 -0.75 1.1104 -1.11104 0 0 1
3.53063 -0.4 -0.75 0 -1.5708 0 0 1
3.53063 -0.4 -2.25 0 -1.5708 0 0 1
0.369375 -0.4 -2.25 0 -1.5708 0 0 1
0.369375 -0.4 -0.75 0 -1.5708 0 0 1
0.369375 -0.4 -0.75 -1.1104 -1.11104 0 0 1
0.369375 -0.4 -2.25 -1.1104 -1.11104 0 0 1
0.1 -0.130781 -2.25 -1.1104 -1.11104 0 0 1
0.1 -0.130781 -0.75 -1.1104 -1.11104 0 0 1
2.75 3.82 -0.75 0 -1.5708 0 0 1
2.75 3.82 -2.25 0 -1.5708 0 0 1
0.62 3.82 -2.25 0 -1.5708 0 0 1
0.62 3.82 -0.75 0 -1.5708 0 0 1
0.62 3.82 -0.75 1.5708 0 0 0 1
0.62 3.82 -2.25 1.5708 0 0 0 1
0.62 0.13 -2.25 1.5708 0 0 0 1
0.62 0.13 -0.75 1.5708 0 0 0 1
0.62 0.13 -0.75 0 1.5708 0 0 1
0.62 0.13 -2.25 0 1.5708 0 0 1
2.2 0.13 -2.25 0 1.5708 0 0 1
2.2 0.13 -0.75 0 1.5708 0 0 1
2.2 0.13 -0.75 -1.5708 0 0 0 1
2.2 0.13 -2.25 -1.5708 0 0 0 1
2.2 2.4925 -2.25 -1.5708 0 0 0 1
2.2 2.4925 -0.75 -1.5708 0 0 0 1
2.2 2.4925 -0.75 -1.09772 1.12357 0 0 1
2.2 2.4925 -2.25 -1.09772 1.12357 0 0 1
2.75 3.02984 -2.25 -1.09772 1.12357 0 0 1
2.75 3.02984 -0.75 -1.09772 1.12357 0 0 1
2.75 3.02984 -0.75 -1.5708 0 0 0 1
2.75 3.02984 -2.25 -1.5708 0 0 0 1
2.75 3.82 -2.25 -1.5708 0 0 0 1
2.75 3.82 -0.75 -1.5708 0 0 0 1
3.53063 4.35 -0.75 0 0 2.35648 0 1
0.369375 4.35 -0.75 0 0 1.12908 0 1
0.62 3.82 -0.75 0 0 2.01251 0 1
2.75 3.82 -0.75 0 0 4.52947 0 1
3.53063 -0.4 -0.75 0 0 0.968602 0 1
3.8 -0.130781 -0.75 0 0 2.3559 0 1
3.8 4.08078 -0.75 0 0 2.35591 0 1
0.62 0.13 -0.75 0 0 4.71239 0 1
0.62 3.82 -0.75 0 0 2.69988 0 1
0.369375 4.35 -0.75 0 0 0.441715 0 1
0.369375 -0.4 -0.75 0 0 1.5708 0 1
3.53063 -0.4 -0.75 0 0 0.379048 0 1
2.2 0.13 -0.75 0 0 2.76255 0 1
3.53063 -0.4 -0.75 0 0 1.00883 0 1
2.75 3.82 -0.75 0 0 0.182914 0 1
2.75 3.02984 -0.75 0 0 3.93863 0 1
2.2 2.4925 -0.75 0 0 2.34456 0 1
2.2 0.13 -0.75 0 0 1.94984 0 1
0.1 4.08078 -0.75 0 0 2.3559 0 1
0.1 -0.130781 -0.75 0 0 2.3559 0 1
0.369375 -0.4 -0.75 0 0 0.785687 0 1
0.369375 4.35 -0.75 0 0 0.785688 0 1
3.53063 4.35 -2.25 0 0 -2.35648 0 1
0.369375 4.35 -2.25 0 0 -1.12908 0 1
0.62 3.82 -2.25 0 0 -2.01251 0 1
2.75 3.82 -2.25 0 0 -4.52947 0 1
3.53063 -0.4 -2.25 0 0 -0.968602 0 1
3.8 -0.130781 -2.25 0 0 -2.3559 0 1
3.8 4.08078 -2.25 0 0 -2.35591 0 1
0.62 0.13 -2.25 0 0 -4.71239 0 1
0.62 3.82 -2.25 0 0 -2.69988 0 1
0.369375 4.35 -2.25 0 0 -0.441715 0 1
0.369375 -0.4 -2.25 0 0 -1.5708 0 1
3.53063 -0.4 -2.25 0 0 -0.379048 0 1
2.2 0.13 -2.25 0 0 -2.76255 0 1
3.53063 -0.4 -2.25 0 0 -1.00883 0 1
2.75 3.82 -2.25 0 0 -0.182914 0 1
2.75 3.02984 -2.25 0 0 -3.93863 0 1
2.2 2.4925 -2.25 0 0 -2.34456 0 1
2.2 0.13 -2.25 0 0 -1.94984 0 1
0.1 4.08078 -2.25 0 0 -2.3559 0 1
0.1 -0.130781 -2.25 0 0 -2.3559 0 1
0.369375 -0.4 -2.25 0 0 -0.785687 0 1
0.369375 4.35 -2.25 0 0 -0.785688 0 1
3 0 2 1 
3 0 3 2 
3 4 6 5 
3 4 7 6 
3 8 10 9 
3 8 11 10 
3 12 14 13 
3 12 15 14 
3 16 18 17 
3 16 19 18 
3 20 22 21 
3 20 23 22 
3 24 26 25 
3 24 27 26 
3 28 30 29 
3 28 31 30 
3 32 34 33 
3 32 35 34 
3 36 38 37 
3 36 39 38 
3 40 42 41 
3 40 43 42 
3 44 46 45 
3 44 47 46 
3 48 50 49 
3 48 51 50 
3 52 54 53 
3 52 55 54 
3 56 57 58 
3 56 58 59 
3 56 59 60 
3 56 60 61 
3 56 61 62 
3 63 64 65 
3 63 65 66 
3 63 66 67 
3 63 67 68 
3 69 70 71 
3 69 71 72 
3 69 72 73 
3 74 75 76 
3 74 76 77 
3 78 80 79 
3 78 81 80 
3 78 82 81 
3 78 83 82 
3 78 84 83 
3 85 87 86 
3 85 88 87 
3 85 89 88 
3 85 90 89 
3 91 93 92 
3 91 94 93 
3 91 95 94 
3 96 98 97 
3 96 99 98 
