ply
format ascii 1.0
comment VCGLIB generated
element vertex 96
property float x
property float y
property float z
property float nx
property float ny
property float nz
property float texture_u
property float texture_v
element face 52
property list uchar int vertex_indices
end_header
1.93 4.62 -0.75 1.5708 0 0 0 1
1.93 4.62 -2.25 1.5708 0 0 0 1
1.93 -0.65 -2.25 1.5708 0 0 0 1
1.93 -0.65 -0.75 1.5708 0 0 0 1
1.93 -0.65 -0.75 0 1.5708 0 0 1
1.93 -0.65 -2.25 0 1.5708 0 0 1
2.46469 -0.65 -2.25 0 1.5708 0 0 1
2.46469 -0.65 -0.75 0 1.5708 0 0 1
2.46469 -0.65 -0.75 1.5708 0 0 0 1
2.46469 -0.65 -2.25 1.5708 0 0 0 1
2.46469 -0.92 -2.25 1.5708 0 0 0 1
2.46469 -0.92 -0.75 1.5708 0 0 0 1
2.46469 -0.92 -0.75 0 -1.5708 0 0 1
2.46469 -0.92 -2.25 0 -1.5708 0 0 1
1.14766 -0.92 -2.25 0 -1.5708 0 0 1
1.14766 -0.92 -0.75 0 -1.5708 0 0 1
1.14766 -0.92 -0.75 -1.10821 -1.11322 0 0 1
1.14766 -0.92 -2.25 -1.10821 -1.11322 0 0 1
0.87 -0.643594 -2.25 -1.10821 -1.11322 0 0 1
0.87 -0.643594 -0.75 -1.10821 -1.11322 0 0 1
0.87 -0.643594 -0.75 -1.5708 0 0 0 1
0.87 -0.643594 -2.25 -1.5708 0 0 0 1
0.87 1.71 -2.25 -1.5708 0 0 0 1
0.87 1.71 -0.75 -1.5708 0 0 0 1
0.87 1.71 -0.75 0 -1.5708 0 0 1
0.87 1.71 -2.25 0 -1.5708 0 0 1
0.35 1.71 -2.25 0 -1.5708 0 0 1
0.35 1.71 -0.75 0 -1.5708 0 0 1
0.35 1.71 -0.75 -1.5708 0 0 0 1
0.35 1.71 -2.25 -1.5708 0 0 0 1
0.35 2.24 -2.25 -1.5708 0 0 0 1
0.35 2.24 -0.75 -1.5708 0 0 0 1
0.35 2.24 -0.75 0 1.5708 0 0 1
0.35 2.24 -2.25 0 1.5708 0 0 1
0.87 2.24 -2.25 0 1.5708 0 0 1
0.87 2.24 -0.75 0 1.5708 0 0 1
0.87 2.24 -0.75 -1.5708 0 0 0 1
0.87 2.24 -2.25 -1.5708 0 0 0 1
0.87 4.6025 -2.25 -1.5708 0 0 0 1
0.87 4.6025 -0.75 -1.5708 0 0 0 1
0.87 4.6025 -0.75 -1.11041 1.11103 0 0 1
0.87 4.6025 -2.25 -1.11041 1.11103 0 0 1
1.14766 4.88 -2.25 -1.11041 1.11103 0 0 1
1.14766 4.88 -0.75 -1.11041 1.11103 0 0 1
1.14766 4.88 -0.75 0 1.5708 0 0 1
1.14766 4.88 -2.25 0 1.5708 0 0 1
2.46469 4.88 -2.25 0 1.5708 0 0 1
2.46469 4.88 -0.75 0 1.5708 0 0 1
2.46469 4.88 -0.75 1.5708 0 0 0 1
2.46469 4.88 -2.25 1.5708 0 0 0 1
2.46469 4.62 -2.25 1.5708 0 0 0 1
2.46469 4.62 -0.75 1.5708 0 0 0 1
2.46469 4.62 -0.75 0 -1.5708 0 0 1
2.46469 4.62 -2.25 0 -1.5708 0 0 1
1.93 4.62 -2.25 0 -1.5708 0 0 1
1.93 4.62 -0.75 0 -1.5708 0 0 1
1.14766 4.88 -0.75 0 0 0.785679 0 1
0.87 4.6025 -0.75 0 0 2.35591 0 1
1.14766 -0.92 -0.75 0 0 0.105184 0 1
0.87 2.24 -0.75 0 0 4.71239 0 1
0.87 1.71 -0.75 0 0 4.60721 0 1
0.35 2.24 -0.75 0 0 1.5708 0 1
0.35 1.71 -0.75 0 0 1.5708 0 1
1.93 -0.65 -0.75 0 0 4.71239 0 1
1.93 4.62 -0.75 0 0 1.89165 0 1
1.14766 4.88 -0.75 0 0 1.24994 0 1
1.14766 -0.92 -0.75 0 0 1.5708 0 1
2.46469 -0.92 -0.75 0 0 1.5708 0 1
2.46469 -0.65 -0.75 0 0 1.5708 0 1
2.46469 4.88 -0.75 0 0 1.5708 0 1
1.14766 4.88 -0.75 0 0 0.320852 0 1
1.93 4.62 -0.75 0 0 2.82074 0 1
2.46469 4.62 -0.75 0 0 1.5708 0 1
1.14766 -0.92 -0.75 0 0 0.682471 0 1
0.87 1.71 -0.75 0 0 0.105183 0 1
0.87 -0.643594 -0.75 0 0 2.35394 0 1
1.14766 4.88 -2.25 0 0 -0.785679 0 1
0.87 4.6025 -2.25 0 0 -2.35591 0 1
1.14766 -0.92 -2.25 0 0 -0.105184 0 1
0.87 2.24 -2.25 0 0 -4.71239 0 1
0.87 1.71 -2.25 0 0 -4.60721 0 1
0.35 2.24 -2.25 0 0 -1.5708 0 1
0.35 1.71 -2.25 0 0 -1.5708 0 1
1.93 -0.65 -2.25 0 0 -4.71239 0 1
1.93 4.62 -2.25 0 0 -1.89165 0 1
1.14766 4.88 -2.25 0 0 -1.24994 0 1
1.14766 -0.92 -2.25 0 0 -1.5708 0 1
2.46469 -0.92 -2.25 0 0 -1.5708 0 1
2.46469 -0.65 -2.25 0 0 -1.5708 0 1
2.46469 4.88 -2.25 0 0 -1.5708 0 1
1.14766 4.88 -2.25 0 0 -0.320852 0 1
1.93 4.62 -2.25 0 0 -2.82074 0 1
2.46469 4.62 -2.25 0 0 -1.5708 0 1
1.14766 -0.92 -2.25 0 0 -0.682471 0 1
0.87 1.71 -2.25 0 0 -0.105183 0 1
0.87 -0.643594 -2.25 0 0 -2.35394 0 1
3 0 2 1 
3 0 3 2 
3 4 6 5 
3 4 7 6 
3 8 10 9 
3 8 11 10 
3 12 14 13 
3 12 15 14 
3 16 18 17 
3 16 19 18 
3 20 22 21 
3 20 23 22 
3 24 26 25 
3 24 27 26 
3 28 30 29 
3 28 31 30 
3 32 34 33 
3 32 35 34 
3 36 38 37 
3 36 39 38 
3 40 42 41 
3 40 43 42 
3 44 46 45 
3 44 47 46 
3 48 50 49 
3 48 51 50 
3 52 54 53 
3 52 55 54 
3 56 57 58 
3 58 57 59 
3 58 59 60 
3 60 59 61 
3 60 61 62 
3 63 64 65 
3 63 65 66 
3 63 66 67 
3 63 67 68 
3 69 70 71 
3 69 71 72 
3 73 74 75 
3 76 78 77 
3 78 79 77 
3 78 80 79 
3 80 81 79 
3 80 82 81 
3 83 85 84 
3 83 86 85 
3 83 87 86 
3 83 88 87 
3 89 91 90 
3 89 92 91 
3 93 95 94 
