ply
format ascii 1.0
comment VCGLIB generated
element vertex 128
property float x
property float y
property float z
property float nx
property float ny
property float nz
property float texture_u
property float texture_v
element face 68
property list uchar int vertex_indices
end_header
3.27 -1.71078 -0.75 1.10976 -1.11168 0 0 1
3.27 -1.71078 -2.25 1.10976 -1.11168 0 0 1
3.00031 -1.98 -2.25 1.10976 -1.11168 0 0 1
3.00031 -1.98 -0.75 1.10976 -1.11168 0 0 1
3.00031 -1.98 -0.75 0 -1.5708 0 0 1
3.00031 -1.98 -2.25 0 -1.5708 0 0 1
0.09 -1.98 -2.25 0 -1.5708 0 0 1
0.09 -1.98 -0.75 0 -1.5708 0 0 1
0.09 -1.98 -0.75 -1.5708 0 0 0 1
0.09 -1.98 -2.25 -1.5708 0 0 0 1
0.09 -1.45 -2.25 -1.5708 0 0 0 1
0.09 -1.45 -0.75 -1.5708 0 0 0 1
0.09 -1.45 -0.75 0 1.5708 0 0 1
0.09 -1.45 -2.25 0 1.5708 0 0 1
2.75 -1.45 -2.25 0 1.5708 0 0 1
2.75 -1.45 -0.75 0 1.5708 0 0 1
2.75 -1.45 -0.75 -1.5708 0 0 0 1
2.75 -1.45 -2.25 -1.5708 0 0 0 1
2.75 -0.4 -2.25 -1.5708 0 0 0 1
2.75 -0.4 -0.75 -1.5708 0 0 0 1
2.75 -0.4 -0.75 0 -1.5708 0 0 1
2.75 -0.4 -2.25 0 -1.5708 0 0 1
0.360781 -0.4 -2.25 0 -1.5708 0 0 1
0.360781 -0.4 -0.75 0 -1.5708 0 0 1
0.360781 -0.4 -0.75 -1.10783 -1.11361 0 0 1
0.360781 -0.4 -2.25 -1.10783 -1.11361 0 0 1
0.09 -0.130625 -2.25 -1.10783 -1.11361 0 0 1
0.09 -0.130625 -0.75 -1.10783 -1.11361 0 0 1
0.09 -0.130625 -0.75 -1.5708 0 0 0 1
0.09 -0.130625 -2.25 -1.5708 0 0 0 1
0.09 3.03063 -2.25 -1.5708 0 0 0 1
0.09 3.03063 -0.75 -1.5708 0 0 0 1
0.09 3.03063 -0.75 -1.10462 1.11679 0 0 1
0.09 3.03063 -2.25 -1.10462 1.11679 0 0 1
0.362344 3.3 -2.25 -1.10462 1.11679 0 0 1
0.362344 3.3 -0.75 -1.10462 1.11679 0 0 1
0.362344 3.3 -0.75 0 1.5708 0 0 1
0.362344 3.3 -2.25 0 1.5708 0 0 1
1.42766 3.3 -2.25 0 1.5708 0 0 1
1.42766 3.3 -0.75 0 1.5708 0 0 1
1.42766 3.3 -0.75 1.10462 1.11679 0 0 1
1.42766 3.3 -2.25 1.10462 1.11679 0 0 1
1.7 3.03063 -2.25 1.10462 1.11679 0 0 1
1.7 3.03063 -0.75 1.10462 1.11679 0 0 1
1.7 3.03063 -0.75 1.5708 0 0 0 1
1.7 3.03063 -2.25 1.5708 0 0 0 1
1.7 1.43766 -2.25 1.5708 0 0 0 1
1.7 1.43766 -0.75 1.5708 0 0 0 1
1.7 1.43766 -0.75 1.09096 -1.13013 0 0 1
1.7 1.43766 -2.25 1.09096 -1.13013 0 0 1
1.15 0.906719 -2.25 1.09096 -1.13013 0 0 1
1.15 0.906719 -0.75 1.09096 -1.13013 0 0 1
1.15 0.906719 -0.75 1.5708 0 0 0 1
1.15 0.906719 -2.25 1.5708 0 0 0 1
1.15 0.13 -2.25 1.5708 0 0 0 1
1.15 0.13 -0.75 1.5708 0 0 0 1
1.15 0.13 -0.75 0 1.5708 0 0 1
1.15 0.13 -2.25 0 1.5708 0 0 1
2.75 0.13 -2.25 0 1.5708 0 0 1
2.75 0.13 -0.75 0 1.5708 0 0 1
2.75 0.13 -0.75 -1.5708 0 0 0 1
2.75 0.13 -2.25 -1.5708 0 0 0 1
2.75 3.3 -2.25 -1.5708 0 0 0 1
2.75 3.3 -0.75 -1.5708 0 0 0 1
2.75 3.3 -0.75 0 1.5708 0 0 1
2.75 3.3 -2.25 0 1.5708 0 0 1
3.27 3.3 -2.25 0 1.5708 0 0 1
3.27 3.3 -0.75 0 1.5708 0 0 1
3.27 3.3 -0.75 1.5708 0 0 0 1
3.27 3.3 -2.25 1.5708 0 0 0 1
3.27 -1.71078 -2.25 1.5708 0 0 0 1
3.27 -1.71078 -0.75 1.5708 0 0 0 1
3.27 3.3 -0.75 0 0 1.51976 0 1
2.75 3.3 -0.75 0 0 1.5708 0 1
3.00031 -1.98 -0.75 0 0 0.208149 0 1
2.75 0.13 -0.75 0 0 4.71239 0 1
2.75 -0.4 -0.75 0 0 4.55527 0 1
1.15 0.13 -0.75 0 0 4.46885 0 1
0.360781 -0.4 -0.75 0 0 1.64956 0 1
0.362344 3.3 -0.75 0 0 1.03442 0 1
0.09 3.03063 -0.75 0 0 2.27195 0 1
3.00031 -1.98 -0.75 0 0 1.41368 0 1
2.75 -0.4 -0.75 0 0 0.15712 0 1
2.75 -1.45 -0.75 0 0 4.71239 0 1
0.09 -1.45 -0.75 0 0 1.5708 0 1
0.09 -1.98 -0.75 0 0 1.5708 0 1
1.42766 3.3 -0.75 0 0 2.36168 0 1
0.362344 3.3 -0.75 0 0 1.25285 0 1
1.15 0.906719 -0.75 0 0 1.12098 0 1
1.7 1.43766 -0.75 0 0 2.33856 0 1
1.7 3.03063 -0.75 0 0 2.35071 0 1
1.15 0.906719 -0.75 0 0 2.82365 0 1
0.362344 3.3 -0.75 0 0 0.0744052 0 1
1.15 0.13 -0.75 0 0 0.24354 0 1
3.27 3.3 -0.75 0 0 0.0510315 0 1
3.00031 -1.98 -0.75 0 0 0.735234 0 1
3.27 -1.71078 -0.75 0 0 2.35533 0 1
0.360781 -0.4 -0.75 0 0 0.709234 0 1
0.09 3.03063 -0.75 0 0 0.078767 0 1
0.09 -0.130625 -0.75 0 0 2.35359 0 1
3.27 3.3 -2.25 0 0 -1.51976 0 1
2.75 3.3 -2.25 0 0 -1.5708 0 1
3.00031 -1.98 -2.25 0 0 -0.208149 0 1
2.75 0.13 -2.25 0 0 -4.71239 0 1
2.75 -0.4 -2.25 0 0 -4.55527 0 1
1.15 0.13 -2.25 0 0 -4.46885 0 1
0.360781 -0.4 -2.25 0 0 -1.64956 0 1
0.362344 3.3 -2.25 0 0 -1.03442 0 1
0.09 3.03063 -2.25 0 0 -2.27195 0 1
3.00031 -1.98 -2.25 0 0 -1.41368 0 1
2.75 -0.4 -2.25 0 0 -0.15712 0 1
2.75 -1.45 -2.25 0 0 -4.71239 0 1
0.09 -1.45 -2.25 0 0 -1.5708 0 1
0.09 -1.98 -2.25 0 0 -1.5708 0 1
1.42766 3.3 -2.25 0 0 -2.36168 0 1
0.362344 3.3 -2.25 0 0 -1.25285 0 1
1.15 0.906719 -2.25 0 0 -1.12098 0 1
1.7 1.43766 -2.25 0 0 -2.33856 0 1
1.7 3.03063 -2.25 0 0 -2.35071 0 1
1.15 0.906719 -2.25 0 0 -2.82365 0 1
0.362344 3.3 -2.25 0 0 -0.0744052 0 1
1.15 0.13 -2.25 0 0 -0.24354 0 1
3.27 3.3 -2.25 0 0 -0.0510315 0 1
3.00031 -1.98 -2.25 0 0 -0.735234 0 1
3.27 -1.71078 -2.25 0 0 -2.35533 0 1
0.360781 -0.4 -2.25 0 0 -0.709234 0 1
0.09 3.03063 -2.25 0 0 -0.078767 0 1
0.09 -0.130625 -2.25 0 0 -2.35359 0 1
3 0 2 1 
3 0 3 2 
3 4 6 5 
3 4 7 6 
3 8 10 9 
3 8 11 10 
3 12 14 13 
3 12 15 14 
3 16 18 17 
3 16 19 18 
3 20 22 21 
3 20 23 22 
3 24 26 25 
3 24 27 26 
3 28 30 29 
3 28 31 30 
3 32 34 33 
3 32 35 34 
3 36 38 37 
3 36 39 38 
3 40 42 41 
3 40 43 42 
3 44 46 45 
3 44 47 46 
3 48 50 49 
3 48 51 50 
3 52 54 53 
3 52 55 54 
3 56 58 57 
3 56 59 58 
3 60 62 61 
3 60 63 62 
3 64 66 65 
3 64 67 66 
3 68 70 69 
3 68 71 70 
3 72 73 74 
3 74 73 75 
3 74 75 76 
3 76 75 77 
3 76 77 78 
3 78 77 79 
3 78 79 80 
3 81 82 83 
3 81 83 84 
3 81 84 85 
3 86 87 88 
3 86 88 89 
3 86 89 90 
3 91 92 93 
3 94 95 96 
3 97 98 99 
3 100 102 101 
3 102 103 101 
3 102 104 103 
3 104 105 103 
3 104 106 105 
3 106 107 105 
3 106 108 107 
3 109 111 110 
3 109 112 111 
3 109 113 112 
3 114 116 115 
3 114 117 116 
3 114 118 117 
3 119 121 120 
3 122 124 123 
3 125 127 126 
