ply
format ascii 1.0
comment VCGLIB generated
element vertex 160
property float x
property float y
property float z
property float nx
property float ny
property float nz
property float texture_u
property float texture_v
element face 82
property list uchar int vertex_indices
end_header
1.81 2.24 -0.75 0 -1.5708 0 0 1
1.81 2.24 -2.25 0 -1.5708 0 0 1
1.29 2.24 -2.25 0 -1.5708 0 0 1
1.29 2.24 -0.75 0 -1.5708 0 0 1
1.29 2.24 -0.75 -1.5708 0 0 0 1
1.29 2.24 -2.25 -1.5708 0 0 0 1
1.29 3.29 -2.25 -1.5708 0 0 0 1
1.29 3.29 -0.75 -1.5708 0 0 0 1
1.29 3.29 -0.75 0 -1.5708 0 0 1
1.29 3.29 -2.25 0 -1.5708 0 0 1
0.489531 3.29 -2.25 0 -1.5708 0 0 1
0.489531 3.29 -0.75 0 -1.5708 0 0 1
0.489531 3.29 -0.75 -1.10943 -1.11201 0 0 1
0.489531 3.29 -2.25 -1.10943 -1.11201 0 0 1
0.22 3.55891 -2.25 -1.10943 -1.11201 0 0 1
0.22 3.55891 -0.75 -1.10943 -1.11201 0 0 1
0.22 3.55891 -0.75 -1.5708 0 0 0 1
0.22 3.55891 -2.25 -1.5708 0 0 0 1
0.22 4.08109 -2.25 -1.5708 0 0 0 1
0.22 4.08109 -0.75 -1.5708 0 0 0 1
0.22 4.08109 -0.75 -1.11072 1.11072 0 0 1
0.22 4.08109 -2.25 -1.11072 1.11072 0 0 1
0.488906 4.35 -2.25 -1.11072 1.11072 0 0 1
0.488906 4.35 -0.75 -1.11072 1.11072 0 0 1
0.488906 4.35 -0.75 0 1.5708 0 0 1
0.488906 4.35 -2.25 0 1.5708 0 0 1
1.54109 4.35 -2.25 0 1.5708 0 0 1
1.54109 4.35 -0.75 0 1.5708 0 0 1
1.54109 4.35 -0.75 1.11233 1.10911 0 0 1
1.54109 4.35 -2.25 1.11233 1.10911 0 0 1
1.81 4.08031 -2.25 1.11233 1.10911 0 0 1
1.81 4.08031 -0.75 1.11233 1.10911 0 0 1
1.81 4.08031 -0.75 1.5708 0 0 0 1
1.81 4.08031 -2.25 1.5708 0 0 0 1
1.81 2.24 -2.25 1.5708 0 0 0 1
1.81 2.24 -0.75 1.5708 0 0 0 1
3.93 2.24 -0.75 0 -1.5708 0 0 1
3.93 2.24 -2.25 0 -1.5708 0 0 1
3.41 2.24 -2.25 0 -1.5708 0 0 1
3.41 2.24 -0.75 0 -1.5708 0 0 1
3.41 2.24 -0.75 -1.5708 0 0 0 1
3.41 2.24 -2.25 -1.5708 0 0 0 1
3.41 3.29 -2.25 -1.5708 0 0 0 1
3.41 3.29 -0.75 -1.5708 0 0 0 1
3.41 3.29 -0.75 0 -1.5708 0 0 1
3.41 3.29 -2.25 0 -1.5708 0 0 1
2.62094 3.29 -2.25 0 -1.5708 0 0 1
2.62094 3.29 -0.75 0 -1.5708 0 0 1
2.62094 3.29 -0.75 -1.10653 -1.11489 0 0 1
2.62094 3.29 -2.25 -1.10653 -1.11489 0 0 1
2.35 3.55891 -2.25 -1.10653 -1.11489 0 0 1
2.35 3.55891 -0.75 -1.10653 -1.11489 0 0 1
2.35 3.55891 -0.75 -1.5708 0 0 0 1
2.35 3.55891 -2.25 -1.5708 0 0 0 1
2.35 4.08109 -2.25 -1.5708 0 0 0 1
2.35 4.08109 -0.75 -1.5708 0 0 0 1
2.35 4.08109 -0.75 -1.11137 1.11008 0 0 1
2.35 4.08109 -2.25 -1.11137 1.11008 0 0 1
2.61859 4.35 -2.25 -1.11137 1.11008 0 0 1
2.61859 4.35 -0.75 -1.11137 1.11008 0 0 1
2.61859 4.35 -0.75 0 1.5708 0 0 1
2.61859 4.35 -2.25 0 1.5708 0 0 1
3.66141 4.35 -2.25 0 1.5708 0 0 1
3.66141 4.35 -0.75 0 1.5708 0 0 1
3.66141 4.35 -0.75 1.11104 1.1104 0 0 1
3.66141 4.35 -2.25 1.11104 1.1104 0 0 1
3.93 4.08125 -2.25 1.11104 1.1104 0 0 1
3.93 4.08125 -0.75 1.11104 1.1104 0 0 1
3.93 4.08125 -0.75 1.5708 0 0 0 1
3.93 4.08125 -2.25 1.5708 0 0 0 1
3.93 2.24 -2.25 1.5708 0 0 0 1
3.93 2.24 -0.75 1.5708 0 0 0 1
3.93 2.24 -0.75 0 -1.5708 0 0 1
3.93 2.24 -2.25 0 -1.5708 0 0 1
3.41 2.24 -2.25 0 -1.5708 0 0 1
3.41 2.24 -0.75 0 -1.5708 0 0 1
3.41 2.24 -0.75 -1.5708 0 0 0 1
3.41 2.24 -2.25 -1.5708 0 0 0 1
3.41 3.29 -2.25 -1.5708 0 0 0 1
3.41 3.29 -0.75 -1.5708 0 0 0 1
3.41 3.29 -0.75 0 -1.5708 0 0 1
3.41 3.29 -2.25 0 -1.5708 0 0 1
2.62094 3.29 -2.25 0 -1.5708 0 0 1
2.62094 3.29 -0.75 0 -1.5708 0 0 1
2.62094 3.29 -0.75 -1.10653 -1.11489 0 0 1
2.62094 3.29 -2.25 -1.10653 -1.11489 0 0 1
2.35 3.55891 -2.25 -1.10653 -1.11489 0 0 1
2.35 3.55891 -0.75 -1.10653 -1.11489 0 0 1
2.35 3.55891 -0.75 -1.5708 0 0 0 1
2.35 3.55891 -2.25 -1.5708 0 0 0 1
2.35 4.08109 -2.25 -1.5708 0 0 0 1
2.35 4.08109 -0.75 -1.5708 0 0 0 1
2.35 4.08109 -0.75 -1.11137 1.11008 0 0 1
2.35 4.08109 -2.25 -1.11137 1.11008 0 0 1
2.61859 4.35 -2.25 -1.11137 1.11008 0 0 1
2.61859 4.35 -0.75 -1.11137 1.11008 0 0 1
2.61859 4.35 -0.75 0 1.5708 0 0 1
2.61859 4.35 -2.25 0 1.5708 0 0 1
3.66141 4.35 -2.25 0 1.5708 0 0 1
3.66141 4.35 -0.75 0 1.5708 0 0 1
3.66141 4.35 -0.75 1.11104 1.1104 0 0 1
3.66141 4.35 -2.25 1.11104 1.1104 0 0 1
3.93 4.08125 -2.25 1.11104 1.1104 0 0 1
3.93 4.08125 -0.75 1.11104 1.1104 0 0 1
3.93 4.08125 -0.75 1.5708 0 0 0 1
3.93 4.08125 -2.25 1.5708 0 0 0 1
3.93 2.24 -2.25 1.5708 0 0 0 1
3.93 2.24 -0.75 1.5708 0 0 0 1
1.29 2.24 -0.75 0 0 1.5708 0 1
1.81 2.24 -0.75 0 0 1.44404 0 1
1.29 3.29 -0.75 0 0 4.71239 0 1
1.54109 4.35 -0.75 0 0 1.69756 0 1
0.489531 3.29 -0.75 0 0 1.89917 0 1
0.488906 4.35 -0.75 0 0 2.35619 0 1
0.22 4.08109 -0.75 0 0 2.02782 0 1
3.41 2.24 -0.75 0 0 1.5708 0 1
3.93 2.24 -0.75 0 0 1.44418 0 1
3.41 3.29 -0.75 0 0 4.71239 0 1
3.66141 4.35 -0.75 0 0 1.69741 0 1
2.62094 3.29 -0.75 0 0 1.90076 0 1
2.61859 4.35 -0.75 0 0 2.35561 0 1
2.35 4.08109 -0.75 0 0 2.02681 0 1
3.66141 4.35 -0.75 0 0 0.658494 0 1
3.93 2.24 -0.75 0 0 0.126614 0 1
3.93 4.08125 -0.75 0 0 2.35648 0 1
2.62094 3.29 -0.75 0 0 0.459197 0 1
2.35 4.08109 -0.75 0 0 0.329965 0 1
2.35 3.55891 -0.75 0 0 2.35243 0 1
1.54109 4.35 -0.75 0 0 0.657188 0 1
1.81 2.24 -0.75 0 0 0.12676 0 1
1.81 4.08031 -0.75 0 0 2.35764 0 1
0.489531 3.29 -0.75 0 0 0.458187 0 1
0.22 4.08109 -0.75 0 0 0.328372 0 1
0.22 3.55891 -0.75 0 0 2.35503 0 1
1.29 2.24 -2.25 0 0 -1.5708 0 1
1.81 2.24 -2.25 0 0 -1.44404 0 1
1.29 3.29 -2.25 0 0 -4.71239 0 1
1.54109 4.35 -2.25 0 0 -1.69756 0 1
0.489531 3.29 -2.25 0 0 -1.89917 0 1
0.488906 4.35 -2.25 0 0 -2.35619 0 1
0.22 4.08109 -2.25 0 0 -2.02782 0 1
3.41 2.24 -2.25 0 0 -1.5708 0 1
3.93 2.24 -2.25 0 0 -1.44418 0 1
3.41 3.29 -2.25 0 0 -4.71239 0 1
3.66141 4.35 -2.25 0 0 -1.69741 0 1
2.62094 3.29 -2.25 0 0 -1.90076 0 1
2.61859 4.35 -2.25 0 0 -2.35561 0 1
2.35 4.08109 -2.25 0 0 -2.02681 0 1
3.66141 4.35 -2.25 0 0 -0.658494 0 1
3.93 2.24 -2.25 0 0 -0.126614 0 1
3.93 4.08125 -2.25 0 0 -2.35648 0 1
2.62094 3.29 -2.25 0 0 -0.459197 0 1
2.35 4.08109 -2.25 0 0 -0.329965 0 1
2.35 3.55891 -2.25 0 0 -2.35243 0 1
1.54109 4.35 -2.25 0 0 -0.657188 0 1
1.81 2.24 -2.25 0 0 -0.12676 0 1
1.81 4.08031 -2.25 0 0 -2.35764 0 1
0.489531 3.29 -2.25 0 0 -0.458187 0 1
0.22 4.08109 -2.25 0 0 -0.328372 0 1
0.22 3.55891 -2.25 0 0 -2.35503 0 1
3 0 2 1 
3 0 3 2 
3 4 6 5 
3 4 7 6 
3 8 10 9 
3 8 11 10 
3 12 14 13 
3 12 15 14 
3 16 18 17 
3 16 19 18 
3 20 22 21 
3 20 23 22 
3 24 26 25 
3 24 27 26 
3 28 30 29 
3 28 31 30 
3 32 34 33 
3 32 35 34 
3 36 38 37 
3 36 39 38 
3 40 42 41 
3 40 43 42 
3 44 46 45 
3 44 47 46 
3 48 50 49 
3 48 51 50 
3 52 54 53 
3 52 55 54 
3 56 58 57 
3 56 59 58 
3 60 62 61 
3 60 63 62 
3 64 66 65 
3 64 67 66 
3 68 70 69 
3 68 71 70 
3 72 74 73 
3 72 75 74 
3 76 78 77 
3 76 79 78 
3 80 82 81 
3 80 83 82 
3 84 86 85 
3 84 87 86 
3 88 90 89 
3 88 91 90 
3 92 94 93 
3 92 95 94 
3 96 98 97 
3 96 99 98 
3 100 102 101 
3 100 103 102 
3 104 106 105 
3 104 107 106 
3 108 109 110 
3 110 109 111 
3 110 111 112 
3 112 111 113 
3 112 113 114 
3 115 116 117 
3 117 116 118 
3 117 118 119 
3 119 118 120 
3 119 120 121 
3 122 123 124 
3 125 126 127 
3 128 129 130 
3 131 132 133 
3 134 136 135 
3 136 137 135 
3 136 138 137 
3 138 139 137 
3 138 140 139 
3 141 143 142 
3 143 144 142 
3 143 145 144 
3 145 146 144 
3 145 147 146 
3 148 150 149 
3 151 153 152 
3 154 156 155 
3 157 159 158 
