ply
format ascii 1.0
comment VCGLIB generated
element vertex 236
property float x
property float y
property float z
property float nx
property float ny
property float nz
property float texture_u
property float texture_v
element face 128
property list uchar int vertex_indices
end_header
1.43 0.39 -0.75 0 -1.5708 0 0 1
1.43 0.39 -2.25 0 -1.5708 0 0 1
0.89 0.39 -2.25 0 -1.5708 0 0 1
0.89 0.39 -0.75 0 -1.5708 0 0 1
0.89 0.39 -0.75 -1.5708 0 0 0 1
0.89 0.39 -2.25 -1.5708 0 0 0 1
0.89 1.18 -2.25 -1.5708 0 0 0 1
0.89 1.18 -0.75 -1.5708 0 0 0 1
0.89 1.18 -0.75 0 -1.5708 0 0 1
0.89 1.18 -2.25 0 -1.5708 0 0 1
0.1 1.18 -2.25 0 -1.5708 0 0 1
0.1 1.18 -0.75 0 -1.5708 0 0 1
0.1 1.18 -0.75 -1.5708 0 0 0 1
0.1 1.18 -2.25 -1.5708 0 0 0 1
0.1 1.71 -2.25 -1.5708 0 0 0 1
0.1 1.71 -0.75 -1.5708 0 0 0 1
0.1 1.71 -0.75 0 1.5708 0 0 1
0.1 1.71 -2.25 0 1.5708 0 0 1
0.89 1.71 -2.25 0 1.5708 0 0 1
0.89 1.71 -0.75 0 1.5708 0 0 1
0.89 1.71 -0.75 -1.5708 0 0 0 1
0.89 1.71 -2.25 -1.5708 0 0 0 1
0.89 2.77 -2.25 -1.5708 0 0 0 1
0.89 2.77 -0.75 -1.5708 0 0 0 1
0.89 2.77 -0.75 0 -1.5708 0 0 1
0.89 2.77 -2.25 0 -1.5708 0 0 1
0.1 2.77 -2.25 0 -1.5708 0 0 1
0.1 2.77 -0.75 0 -1.5708 0 0 1
0.1 2.77 -0.75 -1.5708 0 0 0 1
0.1 2.77 -2.25 -1.5708 0 0 0 1
0.1 3.3 -2.25 -1.5708 0 0 0 1
0.1 3.3 -0.75 -1.5708 0 0 0 1
0.1 3.3 -0.75 0 1.5708 0 0 1
0.1 3.3 -2.25 0 1.5708 0 0 1
0.89 3.3 -2.25 0 1.5708 0 0 1
0.89 3.3 -0.75 0 1.5708 0 0 1
0.89 3.3 -0.75 -1.5708 0 0 0 1
0.89 3.3 -2.25 -1.5708 0 0 0 1
0.89 4.1 -2.25 -1.5708 0 0 0 1
0.89 4.1 -0.75 -1.5708 0 0 0 1
0.89 4.1 -0.75 0 1.5708 0 0 1
0.89 4.1 -2.25 0 1.5708 0 0 1
1.43 4.1 -2.25 0 1.5708 0 0 1
1.43 4.1 -0.75 0 1.5708 0 0 1
1.43 4.1 -0.75 1.5708 0 0 0 1
1.43 4.1 -2.25 1.5708 0 0 0 1
1.43 3.3 -2.25 1.5708 0 0 0 1
1.43 3.3 -0.75 1.5708 0 0 0 1
1.43 3.3 -0.75 0 1.5708 0 0 1
1.43 3.3 -2.25 0 1.5708 0 0 1
2.49 3.3 -2.25 0 1.5708 0 0 1
2.49 3.3 -0.75 0 1.5708 0 0 1
2.49 3.3 -0.75 -1.5708 0 0 0 1
2.49 3.3 -2.25 -1.5708 0 0 0 1
2.49 4.1 -2.25 -1.5708 0 0 0 1
2.49 4.1 -0.75 -1.5708 0 0 0 1
2.49 4.1 -0.75 0 1.5708 0 0 1
2.49 4.1 -2.25 0 1.5708 0 0 1
3.01 4.1 -2.25 0 1.5708 0 0 1
3.01 4.1 -0.75 0 1.5708 0 0 1
3.01 4.1 -0.75 1.5708 0 0 0 1
3.01 4.1 -2.25 1.5708 0 0 0 1
3.01 3.3 -2.25 1.5708 0 0 0 1
3.01 3.3 -0.75 1.5708 0 0 0 1
3.01 3.3 -0.75 0 1.5708 0 0 1
3.01 3.3 -2.25 0 1.5708 0 0 1
3.80656 3.3 -2.25 0 1.5708 0 0 1
3.80656 3.3 -0.75 0 1.5708 0 0 1
3.80656 3.3 -0.75 1.5708 0 0 0 1
3.80656 3.3 -2.25 1.5708 0 0 0 1
3.80656 2.77 -2.25 1.5708 0 0 0 1
3.80656 2.77 -0.75 1.5708 0 0 0 1
3.80656 2.77 -0.75 0 -1.5708 0 0 1
3.80656 2.77 -2.25 0 -1.5708 0 0 1
3.01 2.77 -2.25 0 -1.5708 0 0 1
3.01 2.77 -0.75 0 -1.5708 0 0 1
3.01 2.77 -0.75 1.5708 0 0 0 1
3.01 2.77 -2.25 1.5708 0 0 0 1
3.01 1.71 -2.25 1.5708 0 0 0 1
3.01 1.71 -0.75 1.5708 0 0 0 1
3.01 1.71 -0.75 0 1.5708 0 0 1
3.01 1.71 -2.25 0 1.5708 0 0 1
3.80656 1.71 -2.25 0 1.5708 0 0 1
3.80656 1.71 -0.75 0 1.5708 0 0 1
3.80656 1.71 -0.75 1.5708 0 0 0 1
3.80656 1.71 -2.25 1.5708 0 0 0 1
3.80656 1.18 -2.25 1.5708 0 0 0 1
3.80656 1.18 -0.75 1.5708 0 0 0 1
3.80656 1.18 -0.75 0 -1.5708 0 0 1
3.80656 1.18 -2.25 0 -1.5708 0 0 1
3.01 1.18 -2.25 0 -1.5708 0 0 1
3.01 1.18 -0.75 0 -1.5708 0 0 1
3.01 1.18 -0.75 1.5708 0 0 0 1
3.01 1.18 -2.25 1.5708 0 0 0 1
3.01 0.39 -2.25 1.5708 0 0 0 1
3.01 0.39 -0.75 1.5708 0 0 0 1
3.01 0.39 -0.75 0 -1.5708 0 0 1
3.01 0.39 -2.25 0 -1.5708 0 0 1
2.49 0.39 -2.25 0 -1.5708 0 0 1
2.49 0.39 -0.75 0 -1.5708 0 0 1
2.49 0.39 -0.75 -1.5708 0 0 0 1
2.49 0.39 -2.25 -1.5708 0 0 0 1
2.49 1.18 -2.25 -1.5708 0 0 0 1
2.49 1.18 -0.75 -1.5708 0 0 0 1
2.49 1.18 -0.75 0 -1.5708 0 0 1
2.49 1.18 -2.25 0 -1.5708 0 0 1
1.43 1.18 -2.25 0 -1.5708 0 0 1
1.43 1.18 -0.75 0 -1.5708 0 0 1
1.43 1.18 -0.75 1.5708 0 0 0 1
1.43 1.18 -2.25 1.5708 0 0 0 1
1.43 0.39 -2.25 1.5708 0 0 0 1
1.43 0.39 -0.75 1.5708 0 0 0 1
1.43 1.71 -0.75 0 1.5708 0 0 1
1.43 1.71 -2.25 0 1.5708 0 0 1
2.49 1.71 -2.25 0 1.5708 0 0 1
2.49 1.71 -0.75 0 1.5708 0 0 1
2.49 1.71 -0.75 -1.5708 0 0 0 1
2.49 1.71 -2.25 -1.5708 0 0 0 1
2.49 2.77 -2.25 -1.5708 0 0 0 1
2.49 2.77 -0.75 -1.5708 0 0 0 1
2.49 2.77 -0.75 0 -1.5708 0 0 1
2.49 2.77 -2.25 0 -1.5708 0 0 1
1.43 2.77 -2.25 0 -1.5708 0 0 1
1.43 2.77 -0.75 0 -1.5708 0 0 1
1.43 2.77 -0.75 1.5708 0 0 0 1
1.43 2.77 -2.25 1.5708 0 0 0 1
1.43 1.71 -2.25 1.5708 0 0 0 1
1.43 1.71 -0.75 1.5708 0 0 0 1
0.1 1.71 -0.75 0 0 0.590918 0 1
0.89 1.18 -0.75 0 0 3.52187 0 1
0.89 1.71 -0.75 0 0 4.71239 0 1
1.43 0.39 -0.75 0 0 0.416117 0 1
0.89 2.77 -0.75 0 0 4.12147 0 1
0.89 3.3 -0.75 0 0 1.75428 0 1
0.1 3.3 -0.75 0 0 0.590918 0 1
3.01 4.1 -0.75 0 0 1.5708 0 1
2.49 4.1 -0.75 0 0 1.5708 0 1
3.01 0.39 -0.75 0 0 0.215108 0 1
2.49 3.3 -0.75 0 0 4.71239 0 1
2.49 2.77 -0.75 0 0 4.49728 0 1
1.43 3.3 -0.75 0 0 1.5708 0 1
1.43 2.77 -0.75 0 0 1.5708 0 1
1.43 4.1 -0.75 0 0 0 0 1
1.43 1.71 -0.75 0 0 1.10715 0 1
1.43 1.18 -0.75 0 0 1.5708 0 1
2.49 1.18 -0.75 0 0 0.463648 0 1
1.43 0.39 -0.75 0 0 0.183482 0 1
1.43 1.18 -0.75 0 0 0 0 1
1.43 4.1 -0.75 0 0 1.5708 0 1
0.89 4.1 -0.75 0 0 1.5708 0 1
0.89 3.3 -0.75 0 0 2.95811 0 1
2.49 1.18 -0.75 0 0 4.24874 0 1
2.49 0.39 -0.75 0 0 1.5708 0 1
3.01 0.39 -0.75 0 0 1.19553 0 1
2.49 1.71 -0.75 0 0 1.94607 0 1
1.43 1.71 -0.75 0 0 0.463648 0 1
3.01 1.18 -0.75 0 0 0 0 1
3.01 1.71 -0.75 0 0 0 0 1
3.01 4.1 -0.75 0 0 0 0 1
3.01 2.77 -0.75 0 0 1.5708 0 1
3.01 3.3 -0.75 0 0 1.5708 0 1
3.80656 2.77 -0.75 0 0 1.5708 0 1
3.80656 3.3 -0.75 0 0 1.5708 0 1
3.01 1.71 -0.75 0 0 1.5708 0 1
3.01 1.18 -0.75 0 0 1.5708 0 1
3.80656 1.18 -0.75 0 0 1.5708 0 1
3.80656 1.71 -0.75 0 0 1.5708 0 1
2.49 1.71 -0.75 0 0 2.76632 0 1
3.01 0.39 -0.75 0 0 0.160164 0 1
2.49 2.77 -0.75 0 0 0.215107 0 1
3.01 4.1 -0.75 0 0 0 0 1
3.01 0.39 -0.75 0 0 0 0 1
3.01 1.18 -0.75 0 0 0 0 1
1.43 0.39 -0.75 0 0 0.9712 0 1
0.89 1.18 -0.75 0 0 0.599596 0 1
0.89 0.39 -0.75 0 0 1.5708 0 1
0.89 2.77 -0.75 0 0 0.590918 0 1
0.1 3.3 -0.75 0 0 0.979878 0 1
0.1 2.77 -0.75 0 0 1.5708 0 1
0.89 1.18 -0.75 0 0 0.590918 0 1
0.1 1.71 -0.75 0 0 0.979878 0 1
0.1 1.18 -0.75 0 0 1.5708 0 1
0.1 1.71 -2.25 0 0 -0.590918 0 1
0.89 1.18 -2.25 0 0 -3.52187 0 1
0.89 1.71 -2.25 0 0 -4.71239 0 1
1.43 0.39 -2.25 0 0 -0.416117 0 1
0.89 2.77 -2.25 0 0 -4.12147 0 1
0.89 3.3 -2.25 0 0 -1.75428 0 1
0.1 3.3 -2.25 0 0 -0.590918 0 1
3.01 4.1 -2.25 0 0 -1.5708 0 1
2.49 4.1 -2.25 0 0 -1.5708 0 1
3.01 0.39 -2.25 0 0 -0.215108 0 1
2.49 3.3 -2.25 0 0 -4.71239 0 1
2.49 2.77 -2.25 0 0 -4.49728 0 1
1.43 3.3 -2.25 0 0 -1.5708 0 1
1.43 2.77 -2.25 0 0 -1.5708 0 1
1.43 4.1 -2.25 0 0 0 0 1
1.43 1.71 -2.25 0 0 -1.10715 0 1
1.43 1.18 -2.25 0 0 -1.5708 0 1
2.49 1.18 -2.25 0 0 -0.463648 0 1
1.43 0.39 -2.25 0 0 -0.183482 0 1
1.43 1.18 -2.25 0 0 0 0 1
1.43 4.1 -2.25 0 0 -1.5708 0 1
0.89 4.1 -2.25 0 0 -1.5708 0 1
0.89 3.3 -2.25 0 0 -2.95811 0 1
2.49 1.18 -2.25 0 0 -4.24874 0 1
2.49 0.39 -2.25 0 0 -1.5708 0 1
3.01 0.39 -2.25 0 0 -1.19553 0 1
2.49 1.71 -2.25 0 0 -1.94607 0 1
1.43 1.71 -2.25 0 0 -0.463648 0 1
3.01 1.18 -2.25 0 0 0 0 1
3.01 1.71 -2.25 0 0 0 0 1
3.01 4.1 -2.25 0 0 0 0 1
3.01 2.77 -2.25 0 0 -1.5708 0 1
3.01 3.3 -2.25 0 0 -1.5708 0 1
3.80656 2.77 -2.25 0 0 -1.5708 0 1
3.80656 3.3 -2.25 0 0 -1.5708 0 1
3.01 1.71 -2.25 0 0 -1.5708 0 1
3.01 1.18 -2.25 0 0 -1.5708 0 1
3.80656 1.18 -2.25 0 0 -1.5708 0 1
3.80656 1.71 -2.25 0 0 -1.5708 0 1
2.49 1.71 -2.25 0 0 -2.76632 0 1
3.01 0.39 -2.25 0 0 -0.160164 0 1
2.49 2.77 -2.25 0 0 -0.215107 0 1
3.01 4.1 -2.25 0 0 0 0 1
3.01 0.39 -2.25 0 0 0 0 1
3.01 1.18 -2.25 0 0 0 0 1
1.43 0.39 -2.25 0 0 -0.9712 0 1
0.89 1.18 -2.25 0 0 -0.599596 0 1
0.89 0.39 -2.25 0 0 -1.5708 0 1
0.89 2.77 -2.25 0 0 -0.590918 0 1
0.1 3.3 -2.25 0 0 -0.979878 0 1
0.1 2.77 -2.25 0 0 -1.5708 0 1
0.89 1.18 -2.25 0 0 -0.590918 0 1
0.1 1.71 -2.25 0 0 -0.979878 0 1
0.1 1.18 -2.25 0 0 -1.5708 0 1
3 0 2 1 
3 0 3 2 
3 4 6 5 
3 4 7 6 
3 8 10 9 
3 8 11 10 
3 12 14 13 
3 12 15 14 
3 16 18 17 
3 16 19 18 
3 20 22 21 
3 20 23 22 
3 24 26 25 
3 24 27 26 
3 28 30 29 
3 28 31 30 
3 32 34 33 
3 32 35 34 
3 36 38 37 
3 36 39 38 
3 40 42 41 
3 40 43 42 
3 44 46 45 
3 44 47 46 
3 48 50 49 
3 48 51 50 
3 52 54 53 
3 52 55 54 
3 56 58 57 
3 56 59 58 
3 60 62 61 
3 60 63 62 
3 64 66 65 
3 64 67 66 
3 68 70 69 
3 68 71 70 
3 72 74 73 
3 72 75 74 
3 76 78 77 
3 76 79 78 
3 80 82 81 
3 80 83 82 
3 84 86 85 
3 84 87 86 
3 88 90 89 
3 88 91 90 
3 92 94 93 
3 92 95 94 
3 96 98 97 
3 96 99 98 
3 100 102 101 
3 100 103 102 
3 104 106 105 
3 104 107 106 
3 108 110 109 
3 108 111 110 
3 112 114 113 
3 112 115 114 
3 116 118 117 
3 116 119 118 
3 120 122 121 
3 120 123 122 
3 124 126 125 
3 124 127 126 
3 128 129 130 
3 130 129 131 
3 130 131 132 
3 132 131 133 
3 132 133 134 
3 135 136 137 
3 137 136 138 
3 137 138 139 
3 139 138 140 
3 139 140 141 
3 141 140 142 
3 141 142 143 
3 143 142 144 
3 143 144 145 
3 146 147 148 
3 146 148 149 
3 146 149 150 
3 151 152 153 
3 151 153 154 
3 151 154 155 
3 156 157 158 
3 158 157 159 
3 158 159 160 
3 160 159 161 
3 160 161 162 
3 163 164 165 
3 163 165 166 
3 167 168 169 
3 170 171 172 
3 173 174 175 
3 176 177 178 
3 179 180 181 
3 182 184 183 
3 184 185 183 
3 184 186 185 
3 186 187 185 
3 186 188 187 
3 189 191 190 
3 191 192 190 
3 191 193 192 
3 193 194 192 
3 193 195 194 
3 195 196 194 
3 195 197 196 
3 197 198 196 
3 197 199 198 
3 200 202 201 
3 200 203 202 
3 200 204 203 
3 205 207 206 
3 205 208 207 
3 205 209 208 
3 210 212 211 
3 212 213 211 
3 212 214 213 
3 214 215 213 
3 214 216 215 
3 217 219 218 
3 217 220 219 
3 221 223 222 
3 224 226 225 
3 227 229 228 
3 230 232 231 
3 233 235 234 
