ply
format ascii 1.0
comment VCGLIB generated
element vertex 112
property float x
property float y
property float z
property float nx
property float ny
property float nz
property float texture_u
property float texture_v
element face 60
property list uchar int vertex_indices
end_header
1.43 -0.4 -0.75 -1.10814 -1.11329 0 0 1
1.43 -0.4 -2.25 -1.10814 -1.11329 0 0 1
1.16 -0.13125 -2.25 -1.10814 -1.11329 0 0 1
1.16 -0.13125 -0.75 -1.10814 -1.11329 0 0 1
1.16 -0.13125 -0.75 -1.5708 0 0 0 1
1.16 -0.13125 -2.25 -1.5708 0 0 0 1
1.16 2.24 -2.25 -1.5708 0 0 0 1
1.16 2.24 -0.75 -1.5708 0 0 0 1
1.16 2.24 -0.75 0 -1.5708 0 0 1
1.16 2.24 -2.25 0 -1.5708 0 0 1
0.368906 2.24 -2.25 0 -1.5708 0 0 1
0.368906 2.24 -0.75 0 -1.5708 0 0 1
0.368906 2.24 -0.75 -1.11233 -1.10911 0 0 1
0.368906 2.24 -2.25 -1.11233 -1.10911 0 0 1
0.1 2.50969 -2.25 -1.11233 -1.10911 0 0 1
0.1 2.50969 -0.75 -1.11233 -1.10911 0 0 1
0.1 2.50969 -0.75 -1.5708 0 0 0 1
0.1 2.50969 -2.25 -1.5708 0 0 0 1
0.1 4.35 -2.25 -1.5708 0 0 0 1
0.1 4.35 -0.75 -1.5708 0 0 0 1
0.1 4.35 -0.75 0 1.5708 0 0 1
0.1 4.35 -2.25 0 1.5708 0 0 1
0.62 4.35 -2.25 0 1.5708 0 0 1
0.62 4.35 -0.75 0 1.5708 0 0 1
0.62 4.35 -0.75 1.5708 0 0 0 1
0.62 4.35 -2.25 1.5708 0 0 0 1
0.62 2.77 -2.25 1.5708 0 0 0 1
0.62 2.77 -0.75 1.5708 0 0 0 1
0.62 2.77 -0.75 0 1.5708 0 0 1
0.62 2.77 -2.25 0 1.5708 0 0 1
3.27 2.77 -2.25 0 1.5708 0 0 1
3.27 2.77 -0.75 0 1.5708 0 0 1
3.27 2.77 -0.75 -1.5708 0 0 0 1
3.27 2.77 -2.25 -1.5708 0 0 0 1
3.27 4.35 -2.25 -1.5708 0 0 0 1
3.27 4.35 -0.75 -1.5708 0 0 0 1
3.27 4.35 -0.75 0 1.5708 0 0 1
3.27 4.35 -2.25 0 1.5708 0 0 1
3.79 4.35 -2.25 0 1.5708 0 0 1
3.79 4.35 -0.75 0 1.5708 0 0 1
3.79 4.35 -0.75 1.5708 0 0 0 1
3.79 4.35 -2.25 1.5708 0 0 0 1
3.79 2.50172 -2.25 1.5708 0 0 0 1
3.79 2.50172 -0.75 1.5708 0 0 0 1
3.79 2.50172 -0.75 1.11338 -1.10806 0 0 1
3.79 2.50172 -2.25 1.11338 -1.10806 0 0 1
3.52953 2.24 -2.25 1.11338 -1.10806 0 0 1
3.52953 2.24 -0.75 1.11338 -1.10806 0 0 1
3.52953 2.24 -0.75 0 -1.5708 0 0 1
3.52953 2.24 -2.25 0 -1.5708 0 0 1
2.74 2.24 -2.25 0 -1.5708 0 0 1
2.74 2.24 -0.75 0 -1.5708 0 0 1
2.74 2.24 -0.75 1.5708 0 0 0 1
2.74 2.24 -2.25 1.5708 0 0 0 1
2.74 -0.13125 -2.25 1.5708 0 0 0 1
2.74 -0.13125 -0.75 1.5708 0 0 0 1
2.74 -0.13125 -0.75 1.10814 -1.11329 0 0 1
2.74 -0.13125 -2.25 1.10814 -1.11329 0 0 1
2.47 -0.4 -2.25 1.10814 -1.11329 0 0 1
2.47 -0.4 -0.75 1.10814 -1.11329 0 0 1
2.47 -0.4 -0.75 0 -1.5708 0 0 1
2.47 -0.4 -2.25 0 -1.5708 0 0 1
1.43 -0.4 -2.25 0 -1.5708 0 0 1
1.43 -0.4 -0.75 0 -1.5708 0 0 1
0.62 4.35 -0.75 0 0 0.118445 0 1
0.368906 2.24 -0.75 0 0 1.45235 0 1
0.62 2.77 -0.75 0 0 4.71239 0 1
1.16 2.24 -0.75 0 0 3.14159 0 1
3.27 2.77 -0.75 0 0 2.02616 0 1
2.74 2.24 -0.75 0 0 3.14159 0 1
3.52953 2.24 -0.75 0 0 1.11544 0 1
0.1 4.35 -0.75 0 0 1.5708 0 1
0.1 2.50969 -0.75 0 0 2.35764 0 1
0.368906 2.24 -0.75 0 0 0.902393 0 1
0.62 4.35 -0.75 0 0 1.45235 0 1
3.52953 2.24 -0.75 0 0 1.23836 0 1
3.79 2.50172 -0.75 0 0 2.35859 0 1
3.79 4.35 -0.75 0 0 1.5708 0 1
3.27 4.35 -0.75 0 0 1.5708 0 1
3.27 2.77 -0.75 0 0 2.68623 0 1
2.74 2.24 -0.75 0 0 1.5708 0 1
1.16 2.24 -0.75 0 0 1.46888 0 1
1.43 -0.4 -0.75 0 0 1.67271 0 1
2.47 -0.4 -0.75 0 0 2.35851 0 1
2.74 -0.13125 -0.75 0 0 2.35387 0 1
1.43 -0.4 -0.75 0 0 0.6858 0 1
1.16 2.24 -0.75 0 0 0.101918 0 1
1.16 -0.13125 -0.75 0 0 2.35387 0 1
0.62 4.35 -2.25 0 0 -0.118445 0 1
0.368906 2.24 -2.25 0 0 -1.45235 0 1
0.62 2.77 -2.25 0 0 -4.71239 0 1
1.16 2.24 -2.25 0 0 -3.14159 0 1
3.27 2.77 -2.25 0 0 -2.02616 0 1
2.74 2.24 -2.25 0 0 -3.14159 0 1
3.52953 2.24 -2.25 0 0 -1.11544 0 1
0.1 4.35 -2.25 0 0 -1.5708 0 1
0.1 2.50969 -2.25 0 0 -2.35764 0 1
0.368906 2.24 -2.25 0 0 -0.902393 0 1
0.62 4.35 -2.25 0 0 -1.45235 0 1
3.52953 2.24 -2.25 0 0 -1.23836 0 1
3.79 2.50172 -2.25 0 0 -2.35859 0 1
3.79 4.35 -2.25 0 0 -1.5708 0 1
3.27 4.35 -2.25 0 0 -1.5708 0 1
3.27 2.77 -2.25 0 0 -2.68623 0 1
2.74 2.24 -2.25 0 0 -1.5708 0 1
1.16 2.24 -2.25 0 0 -1.46888 0 1
1.43 -0.4 -2.25 0 0 -1.67271 0 1
2.47 -0.4 -2.25 0 0 -2.35851 0 1
2.74 -0.13125 -2.25 0 0 -2.35387 0 1
1.43 -0.4 -2.25 0 0 -0.6858 0 1
1.16 2.24 -2.25 0 0 -0.101918 0 1
1.16 -0.13125 -2.25 0 0 -2.35387 0 1
3 0 2 1 
3 0 3 2 
3 4 6 5 
3 4 7 6 
3 8 10 9 
3 8 11 10 
3 12 14 13 
3 12 15 14 
3 16 18 17 
3 16 19 18 
3 20 22 21 
3 20 23 22 
3 24 26 25 
3 24 27 26 
3 28 30 29 
3 28 31 30 
3 32 34 33 
3 32 35 34 
3 36 38 37 
3 36 39 38 
3 40 42 41 
3 40 43 42 
3 44 46 45 
3 44 47 46 
3 48 50 49 
3 48 51 50 
3 52 54 53 
3 52 55 54 
3 56 58 57 
3 56 59 58 
3 60 62 61 
3 60 63 62 
3 64 65 66 
3 66 65 67 
3 66 67 68 
3 68 67 69 
3 68 69 70 
3 71 72 73 
3 71 73 74 
3 75 76 77 
3 75 77 78 
3 75 78 79 
3 80 81 82 
3 80 82 83 
3 80 83 84 
3 85 86 87 
3 88 90 89 
3 90 91 89 
3 90 92 91 
3 92 93 91 
3 92 94 93 
3 95 97 96 
3 95 98 97 
3 99 101 100 
3 99 102 101 
3 99 103 102 
3 104 106 105 
3 104 107 106 
3 104 108 107 
3 109 111 110 
