ply
format ascii 1.0
comment VCGLIB generated
element vertex 104
property float x
property float y
property float z
property float nx
property float ny
property float nz
property float texture_u
property float texture_v
element face 56
property list uchar int vertex_indices
end_header
0.31 0.391094 -0.75 -1.11137 1.11008 0 0 1
0.31 0.391094 -2.25 -1.11137 1.11008 0 0 1
0.578594 0.66 -2.25 -1.11137 1.11008 0 0 1
0.578594 0.66 -0.75 -1.11137 1.11008 0 0 1
0.578594 0.66 -0.75 0 1.5708 0 0 1
0.578594 0.66 -2.25 0 1.5708 0 0 1
1.62141 0.66 -2.25 0 1.5708 0 0 1
1.62141 0.66 -0.75 0 1.5708 0 0 1
1.62141 0.66 -0.75 1.11137 1.11008 0 0 1
1.62141 0.66 -2.25 1.11137 1.11008 0 0 1
1.89 0.391094 -2.25 1.11137 1.11008 0 0 1
1.89 0.391094 -0.75 1.11137 1.11008 0 0 1
1.89 0.391094 -0.75 1.5708 0 0 0 1
1.89 0.391094 -2.25 1.5708 0 0 0 1
1.89 -0.131094 -2.25 1.5708 0 0 0 1
1.89 -0.131094 -0.75 1.5708 0 0 0 1
1.89 -0.131094 -0.75 1.11137 -1.11008 0 0 1
1.89 -0.131094 -2.25 1.11137 -1.11008 0 0 1
1.62141 -0.4 -2.25 1.11137 -1.11008 0 0 1
1.62141 -0.4 -0.75 1.11137 -1.11008 0 0 1
1.62141 -0.4 -0.75 0 -1.5708 0 0 1
1.62141 -0.4 -2.25 0 -1.5708 0 0 1
0.578594 -0.4 -2.25 0 -1.5708 0 0 1
0.578594 -0.4 -0.75 0 -1.5708 0 0 1
0.578594 -0.4 -0.75 -1.11137 -1.11008 0 0 1
0.578594 -0.4 -2.25 -1.11137 -1.11008 0 0 1
0.31 -0.131094 -2.25 -1.11137 -1.11008 0 0 1
0.31 -0.131094 -0.75 -1.11137 -1.11008 0 0 1
0.31 -0.131094 -0.75 -1.5708 0 0 0 1
0.31 -0.131094 -2.25 -1.5708 0 0 0 1
0.31 0.391094 -2.25 -1.5708 0 0 0 1
0.31 0.391094 -0.75 -1.5708 0 0 0 1
1.62141 2.25 -0.75 0 -1.5708 0 0 1
1.62141 2.25 -2.25 0 -1.5708 0 0 1
0.578594 2.25 -2.25 0 -1.5708 0 0 1
0.578594 2.25 -0.75 0 -1.5708 0 0 1
0.578594 2.25 -0.75 -1.1104 -1.11105 0 0 1
0.578594 2.25 -2.25 -1.1104 -1.11105 0 0 1
0.31 2.51844 -2.25 -1.1104 -1.11105 0 0 1
0.31 2.51844 -0.75 -1.1104 -1.11105 0 0 1
0.31 2.51844 -0.75 -1.5708 0 0 0 1
0.31 2.51844 -2.25 -1.5708 0 0 0 1
0.31 3.03156 -2.25 -1.5708 0 0 0 1
0.31 3.03156 -0.75 -1.5708 0 0 0 1
0.31 3.03156 -0.75 -1.1104 1.11105 0 0 1
0.31 3.03156 -2.25 -1.1104 1.11105 0 0 1
0.578594 3.3 -2.25 -1.1104 1.11105 0 0 1
0.578594 3.3 -0.75 -1.1104 1.11105 0 0 1
0.578594 3.3 -0.75 0 1.5708 0 0 1
0.578594 3.3 -2.25 0 1.5708 0 0 1
1.62141 3.3 -2.25 0 1.5708 0 0 1
1.62141 3.3 -0.75 0 1.5708 0 0 1
1.62141 3.3 -0.75 1.1104 1.11105 0 0 1
1.62141 3.3 -2.25 1.1104 1.11105 0 0 1
1.89 3.03156 -2.25 1.1104 1.11105 0 0 1
1.89 3.03156 -0.75 1.1104 1.11105 0 0 1
1.89 3.03156 -0.75 1.5708 0 0 0 1
1.89 3.03156 -2.25 1.5708 0 0 0 1
1.89 2.51844 -2.25 1.5708 0 0 0 1
1.89 2.51844 -0.75 1.5708 0 0 0 1
1.89 2.51844 -0.75 1.1104 -1.11105 0 0 1
1.89 2.51844 -2.25 1.1104 -1.11105 0 0 1
1.62141 2.25 -2.25 1.1104 -1.11105 0 0 1
1.62141 2.25 -0.75 1.1104 -1.11105 0 0 1
0.31 0.391094 -0.75 0 0 2.02946 0 1
0.578594 -0.4 -0.75 0 0 1.89811 0 1
0.578594 0.66 -0.75 0 0 2.35561 0 1
1.62141 -0.4 -0.75 0 0 2.35561 0 1
1.62141 0.66 -0.75 0 0 2.35561 0 1
1.89 -0.131094 -0.75 0 0 2.35677 0 1
1.89 0.391094 -0.75 0 0 2.35677 0 1
0.31 3.03156 -0.75 0 0 2.02488 0 1
0.578594 2.25 -0.75 0 0 1.90181 0 1
0.578594 3.3 -0.75 0 0 2.35649 0 1
1.62141 2.25 -0.75 0 0 2.35649 0 1
1.62141 3.3 -0.75 0 0 2.35649 0 1
1.89 2.51844 -0.75 0 0 2.3559 0 1
1.89 3.03156 -0.75 0 0 2.3559 0 1
0.578594 2.25 -0.75 0 0 0.454673 0 1
0.31 3.03156 -0.75 0 0 0.331018 0 1
0.31 2.51844 -0.75 0 0 2.3559 0 1
0.578594 -0.4 -0.75 0 0 0.457508 0 1
0.31 0.391094 -0.75 0 0 0.32731 0 1
0.31 -0.131094 -0.75 0 0 2.35677 0 1
0.31 0.391094 -2.25 0 0 -2.02946 0 1
0.578594 -0.4 -2.25 0 0 -1.89811 0 1
0.578594 0.66 -2.25 0 0 -2.35561 0 1
1.62141 -0.4 -2.25 0 0 -2.35561 0 1
1.62141 0.66 -2.25 0 0 -2.35561 0 1
1.89 -0.131094 -2.25 0 0 -2.35677 0 1
1.89 0.391094 -2.25 0 0 -2.35677 0 1
0.31 3.03156 -2.25 0 0 -2.02488 0 1
0.578594 2.25 -2.25 0 0 -1.90181 0 1
0.578594 3.3 -2.25 0 0 -2.35649 0 1
1.62141 2.25 -2.25 0 0 -2.35649 0 1
1.62141 3.3 -2.25 0 0 -2.35649 0 1
1.89 2.51844 -2.25 0 0 -2.3559 0 1
1.89 3.03156 -2.25 0 0 -2.3559 0 1
0.578594 2.25 -2.25 0 0 -0.454673 0 1
0.31 3.03156 -2.25 0 0 -0.331018 0 1
0.31 2.51844 -2.25 0 0 -2.3559 0 1
0.578594 -0.4 -2.25 0 0 -0.457508 0 1
0.31 0.391094 -2.25 0 0 -0.32731 0 1
0.31 -0.131094 -2.25 0 0 -2.35677 0 1
3 0 2 1 
3 0 3 2 
3 4 6 5 
3 4 7 6 
3 8 10 9 
3 8 11 10 
3 12 14 13 
3 12 15 14 
3 16 18 17 
3 16 19 18 
3 20 22 21 
3 20 23 22 
3 24 26 25 
3 24 27 26 
3 28 30 29 
3 28 31 30 
3 32 34 33 
3 32 35 34 
3 36 38 37 
3 36 39 38 
3 40 42 41 
3 40 43 42 
3 44 46 45 
3 44 47 46 
3 48 50 49 
3 48 51 50 
3 52 54 53 
3 52 55 54 
3 56 58 57 
3 56 59 58 
3 60 62 61 
3 60 63 62 
3 64 65 66 
3 66 65 67 
3 66 67 68 
3 68 67 69 
3 68 69 70 
3 71 72 73 
3 73 72 74 
3 73 74 75 
3 75 74 76 
3 75 76 77 
3 78 79 80 
3 81 82 83 
3 84 86 85 
3 86 87 85 
3 86 88 87 
3 88 89 87 
3 88 90 89 
3 91 93 92 
3 93 94 92 
3 93 95 94 
3 95 96 94 
3 95 97 96 
3 98 100 99 
3 101 103 102 
