ply
format ascii 1.0
comment VCGLIB generated
element vertex 104
property float x
property float y
property float z
property float nx
property float ny
property float nz
property float texture_u
property float texture_v
element face 56
property list uchar int vertex_indices
end_header
0.8 3.31 -0.75 1.5708 0 0 0 1
0.8 3.31 -2.25 1.5708 0 0 0 1
0.8 1.98328 -2.25 1.5708 0 0 0 1
0.8 1.98328 -0.75 1.5708 0 0 0 1
0.8 1.98328 -0.75 1.11464 1.10679 0 0 1
0.8 1.98328 -2.25 1.11464 1.10679 0 0 1
1.32844 1.45109 -2.25 1.11464 1.10679 0 0 1
1.32844 1.45109 -0.75 1.11464 1.10679 0 0 1
1.32844 1.45109 -0.75 1.5708 0 0 0 1
1.32844 1.45109 -2.25 1.5708 0 0 0 1
1.32844 -0.129844 -2.25 1.5708 0 0 0 1
1.32844 -0.129844 -0.75 1.5708 0 0 0 1
1.32844 -0.129844 -0.75 1.11523 -1.1062 0 0 1
1.32844 -0.129844 -2.25 1.11523 -1.1062 0 0 1
1.06047 -0.4 -2.25 1.11523 -1.1062 0 0 1
1.06047 -0.4 -0.75 1.11523 -1.1062 0 0 1
1.06047 -0.4 -0.75 0 -1.5708 0 0 1
1.06047 -0.4 -2.25 0 -1.5708 0 0 1
0.547969 -0.4 -2.25 0 -1.5708 0 0 1
0.547969 -0.4 -0.75 0 -1.5708 0 0 1
0.547969 -0.4 -0.75 -1.11523 -1.1062 0 0 1
0.547969 -0.4 -2.25 -1.11523 -1.1062 0 0 1
0.28 -0.129844 -2.25 -1.11523 -1.1062 0 0 1
0.28 -0.129844 -0.75 -1.11523 -1.1062 0 0 1
0.28 -0.129844 -0.75 -1.5708 0 0 0 1
0.28 -0.129844 -2.25 -1.5708 0 0 0 1
0.28 3.31 -2.25 -1.5708 0 0 0 1
0.28 3.31 -0.75 -1.5708 0 0 0 1
0.28 3.31 -0.75 0 1.5708 0 0 1
0.28 3.31 -2.25 0 1.5708 0 0 1
0.8 3.31 -2.25 0 1.5708 0 0 1
0.8 3.31 -0.75 0 1.5708 0 0 1
0.8 3.73 -0.75 0 -1.5708 0 0 1
0.8 3.73 -2.25 0 -1.5708 0 0 1
0.275313 3.73 -2.25 0 -1.5708 0 0 1
0.275313 3.73 -0.75 0 -1.5708 0 0 1
0.275313 3.73 -0.75 -1.10429 -1.11711 0 0 1
0.275313 3.73 -2.25 -1.10429 -1.11711 0 0 1
0.18 3.82422 -2.25 -1.10429 -1.11711 0 0 1
0.18 3.82422 -0.75 -1.10429 -1.11711 0 0 1
0.18 3.82422 -0.75 -1.5708 0 0 0 1
0.18 3.82422 -2.25 -1.5708 0 0 0 1
0.18 4.18578 -2.25 -1.5708 0 0 0 1
0.18 4.18578 -0.75 -1.5708 0 0 0 1
0.18 4.18578 -0.75 -1.07718 1.14327 0 0 1
0.18 4.18578 -2.25 -1.07718 1.14327 0 0 1
0.28 4.28 -2.25 -1.07718 1.14327 0 0 1
0.28 4.28 -0.75 -1.07718 1.14327 0 0 1
0.28 4.28 -0.75 0 1.5708 0 0 1
0.28 4.28 -2.25 0 1.5708 0 0 1
0.804688 4.28 -2.25 0 1.5708 0 0 1
0.804688 4.28 -0.75 0 1.5708 0 0 1
0.804688 4.28 -0.75 1.1043 1.11711 0 0 1
0.804688 4.28 -2.25 1.1043 1.11711 0 0 1
0.9 4.18578 -2.25 1.1043 1.11711 0 0 1
0.9 4.18578 -0.75 1.1043 1.11711 0 0 1
0.9 4.18578 -0.75 1.5708 0 0 0 1
0.9 4.18578 -2.25 1.5708 0 0 0 1
0.9 3.82422 -2.25 1.5708 0 0 0 1
0.9 3.82422 -0.75 1.5708 0 0 0 1
0.9 3.82422 -0.75 1.07718 -1.14328 0 0 1
0.9 3.82422 -2.25 1.07718 -1.14328 0 0 1
0.8 3.73 -2.25 1.07718 -1.14328 0 0 1
0.8 3.73 -0.75 1.07718 -1.14328 0 0 1
1.32844 -0.129844 -0.75 0 0 2.36026 0 1
1.32844 1.45109 -0.75 0 0 2.35973 0 1
1.06047 -0.4 -0.75 0 0 2.35213 0 1
0.8 1.98328 -0.75 0 0 3.92346 0 1
0.547969 -0.4 -0.75 0 0 1.6429 0 1
0.8 3.31 -0.75 0 0 1.5708 0 1
0.28 3.31 -0.75 0 0 1.49869 0 1
0.18 4.18578 -0.75 0 0 2.12029 0 1
0.275313 3.73 -0.75 0 0 1.77695 0 1
0.28 4.28 -0.75 0 0 2.38595 0 1
0.8 3.73 -0.75 0 0 2.38595 0 1
0.804688 4.28 -0.75 0 0 2.36196 0 1
0.9 3.82422 -0.75 0 0 2.32644 0 1
0.9 4.18578 -0.75 0 0 2.35043 0 1
0.275313 3.73 -0.75 0 0 0.585021 0 1
0.18 4.18578 -0.75 0 0 0.206149 0 1
0.18 3.82422 -0.75 0 0 2.35042 0 1
0.547969 -0.4 -0.75 0 0 0.70923 0 1
0.28 3.31 -0.75 0 0 0.0721029 0 1
0.28 -0.129844 -0.75 0 0 2.36026 0 1
1.32844 -0.129844 -2.25 0 0 -2.36026 0 1
1.32844 1.45109 -2.25 0 0 -2.35973 0 1
1.06047 -0.4 -2.25 0 0 -2.35213 0 1
0.8 1.98328 -2.25 0 0 -3.92346 0 1
0.547969 -0.4 -2.25 0 0 -1.6429 0 1
0.8 3.31 -2.25 0 0 -1.5708 0 1
0.28 3.31 -2.25 0 0 -1.49869 0 1
0.18 4.18578 -2.25 0 0 -2.12029 0 1
0.275313 3.73 -2.25 0 0 -1.77695 0 1
0.28 4.28 -2.25 0 0 -2.38595 0 1
0.8 3.73 -2.25 0 0 -2.38595 0 1
0.804688 4.28 -2.25 0 0 -2.36196 0 1
0.9 3.82422 -2.25 0 0 -2.32644 0 1
0.9 4.18578 -2.25 0 0 -2.35043 0 1
0.275313 3.73 -2.25 0 0 -0.585021 0 1
0.18 4.18578 -2.25 0 0 -0.206149 0 1
0.18 3.82422 -2.25 0 0 -2.35042 0 1
0.547969 -0.4 -2.25 0 0 -0.70923 0 1
0.28 3.31 -2.25 0 0 -0.0721029 0 1
0.28 -0.129844 -2.25 0 0 -2.36026 0 1
3 0 2 1 
3 0 3 2 
3 4 6 5 
3 4 7 6 
3 8 10 9 
3 8 11 10 
3 12 14 13 
3 12 15 14 
3 16 18 17 
3 16 19 18 
3 20 22 21 
3 20 23 22 
3 24 26 25 
3 24 27 26 
3 28 30 29 
3 28 31 30 
3 32 34 33 
3 32 35 34 
3 36 38 37 
3 36 39 38 
3 40 42 41 
3 40 43 42 
3 44 46 45 
3 44 47 46 
3 48 50 49 
3 48 51 50 
3 52 54 53 
3 52 55 54 
3 56 58 57 
3 56 59 58 
3 60 62 61 
3 60 63 62 
3 64 65 66 
3 66 65 67 
3 66 67 68 
3 68 67 69 
3 68 69 70 
3 71 72 73 
3 73 72 74 
3 73 74 75 
3 75 74 76 
3 75 76 77 
3 78 79 80 
3 81 82 83 
3 84 86 85 
3 86 87 85 
3 86 88 87 
3 88 89 87 
3 88 90 89 
3 91 93 92 
3 93 94 92 
3 93 95 94 
3 95 96 94 
3 95 97 96 
3 98 100 99 
3 101 103 102 
