ply
format ascii 1.0
comment VCGLIB generated
element vertex 140
property float x
property float y
property float z
property float nx
property float ny
property float nz
property float texture_u
property float texture_v
element face 80
property list uchar int vertex_indices
end_header
0.412031 -0.39 -0.75 -1.10928 -1.11216 0 0 1
0.412031 -0.39 -2.25 -1.10928 -1.11216 0 0 1
0.11 -0.08875 -2.25 -1.10928 -1.11216 0 0 1
0.11 -0.08875 -0.75 -1.10928 -1.11216 0 0 1
0.11 -0.08875 -0.75 -1.5708 0 0 0 1
0.11 -0.08875 -2.25 -1.5708 0 0 0 1
0.11 2.56703 -2.25 -1.5708 0 0 0 1
0.11 2.56703 -0.75 -1.5708 0 0 0 1
0.11 2.56703 -0.75 -1.11122 1.11022 0 0 1
0.11 2.56703 -2.25 -1.11122 1.11022 0 0 1
0.63 3.0875 -2.25 -1.11122 1.11022 0 0 1
0.63 3.0875 -0.75 -1.11122 1.11022 0 0 1
0.63 3.0875 -0.75 -1.5708 0 0 0 1
0.63 3.0875 -2.25 -1.5708 0 0 0 1
0.63 4.12047 -2.25 -1.5708 0 0 0 1
0.63 4.12047 -0.75 -1.5708 0 0 0 1
0.63 4.12047 -0.75 -1.10956 1.11188 0 0 1
0.63 4.12047 -2.25 -1.10956 1.11188 0 0 1
0.930156 4.42 -2.25 -1.10956 1.11188 0 0 1
0.930156 4.42 -0.75 -1.10956 1.11188 0 0 1
0.930156 4.42 -0.75 0 1.5708 0 0 1
0.930156 4.42 -2.25 0 1.5708 0 0 1
3.07109 4.42 -2.25 0 1.5708 0 0 1
3.07109 4.42 -0.75 0 1.5708 0 0 1
3.07109 4.42 -0.75 1.11016 1.11128 0 0 1
3.07109 4.42 -2.25 1.11016 1.11128 0 0 1
3.38 4.11141 -2.25 1.11016 1.11128 0 0 1
3.38 4.11141 -0.75 1.11016 1.11128 0 0 1
3.38 4.11141 -0.75 1.5708 0 0 0 1
3.38 4.11141 -2.25 1.5708 0 0 0 1
3.38 3.08625 -2.25 1.5708 0 0 0 1
3.38 3.08625 -0.75 1.5708 0 0 0 1
3.38 3.08625 -0.75 1.11122 1.11022 0 0 1
3.38 3.08625 -2.25 1.11122 1.11022 0 0 1
3.9 2.56578 -2.25 1.11122 1.11022 0 0 1
3.9 2.56578 -0.75 1.11122 1.11022 0 0 1
3.9 2.56578 -0.75 1.5708 0 0 0 1
3.9 2.56578 -2.25 1.5708 0 0 0 1
3.9 -0.39 -2.25 1.5708 0 0 0 1
3.9 -0.39 -0.75 1.5708 0 0 0 1
3.9 -0.39 -0.75 0 -1.5708 0 0 1
3.9 -0.39 -2.25 0 -1.5708 0 0 1
3.23 -0.39 -2.25 0 -1.5708 0 0 1
3.23 -0.39 -0.75 0 -1.5708 0 0 1
3.23 -0.39 -0.75 -1.5708 0 0 0 1
3.23 -0.39 -2.25 -1.5708 0 0 0 1
3.23 2.2 -2.25 -1.5708 0 0 0 1
3.23 2.2 -0.75 -1.5708 0 0 0 1
3.23 2.2 -0.75 0 -1.5708 0 0 1
3.23 2.2 -2.25 0 -1.5708 0 0 1
1.82 2.2 -2.25 0 -1.5708 0 0 1
1.82 2.2 -0.75 0 -1.5708 0 0 1
1.82 2.2 -0.75 1.5708 0 0 0 1
1.82 2.2 -2.25 1.5708 0 0 0 1
1.82 -0.087969 -2.25 1.5708 0 0 0 1
1.82 -0.087969 -0.75 1.5708 0 0 0 1
1.82 -0.087969 -0.75 1.10814 -1.1133 0 0 1
1.82 -0.087969 -2.25 1.10814 -1.1133 0 0 1
1.51656 -0.39 -2.25 1.10814 -1.1133 0 0 1
1.51656 -0.39 -0.75 1.10814 -1.1133 0 0 1
1.51656 -0.39 -0.75 0 -1.5708 0 0 1
1.51656 -0.39 -2.25 0 -1.5708 0 0 1
0.412031 -0.39 -2.25 0 -1.5708 0 0 1
0.412031 -0.39 -0.75 0 -1.5708 0 0 1
1.82 3.75 -0.75 1.5708 0 0 0 1
1.82 3.75 -2.25 1.5708 0 0 0 1
1.82 2.87 -2.25 1.5708 0 0 0 1
1.82 2.87 -0.75 1.5708 0 0 0 1
1.82 2.87 -0.75 0 1.5708 0 0 1
1.82 2.87 -2.25 0 1.5708 0 0 1
2.71 2.87 -2.25 0 1.5708 0 0 1
2.71 2.87 -0.75 0 1.5708 0 0 1
2.71 2.87 -0.75 -1.5708 0 0 0 1
2.71 2.87 -2.25 -1.5708 0 0 0 1
2.71 3.75 -2.25 -1.5708 0 0 0 1
2.71 3.75 -0.75 -1.5708 0 0 0 1
2.71 3.75 -0.75 0 -1.5708 0 0 1
2.71 3.75 -2.25 0 -1.5708 0 0 1
1.82 3.75 -2.25 0 -1.5708 0 0 1
1.82 3.75 -0.75 0 -1.5708 0 0 1
2.71 2.87 -0.75 0 0 2.48158 0 1
3.23 2.2 -0.75 0 0 0.588552 0 1
2.71 3.75 -0.75 0 0 4.71239 0 1
3.07109 4.42 -0.75 0 0 1.64225 0 1
1.82 3.75 -0.75 0 0 4.63923 0 1
0.930156 4.42 -0.75 0 0 2.35724 0 1
1.51656 -0.39 -0.75 0 0 0.322787 0 1
0.63 4.12047 -0.75 0 0 2.35515 0 1
0.63 3.0875 -0.75 0 0 2.89197 0 1
1.51656 -0.39 -0.75 0 0 0.714557 0 1
1.82 -0.087969 -0.75 0 0 2.35387 0 1
1.82 3.75 -0.75 0 0 0.0731632 0 1
1.82 2.2 -0.75 0 0 1.5708 0 1
1.82 2.87 -0.75 0 0 1.5708 0 1
3.23 2.2 -0.75 0 0 0.910787 0 1
2.71 2.87 -0.75 0 0 2.23081 0 1
0.412031 -0.39 -0.75 0 0 2.35749 0 1
1.51656 -0.39 -0.75 0 0 1.32117 0 1
0.63 3.0875 -0.75 0 0 1.03457 0 1
0.11 2.56703 -0.75 0 0 2.35665 0 1
0.11 -0.08875 -0.75 0 0 2.3549 0 1
3.23 2.2 -0.75 0 0 3.21305 0 1
3.23 -0.39 -0.75 0 0 1.5708 0 1
3.9 -0.39 -0.75 0 0 1.42231 0 1
3.38 3.08625 -0.75 0 0 3.29008 0 1
3.38 4.11141 -0.75 0 0 2.35569 0 1
3.07109 4.42 -0.75 0 0 0.714446 0 1
3.38 3.08625 -0.75 0 0 0.636463 0 1
3.9 -0.39 -0.75 0 0 0.148485 0 1
3.9 2.56578 -0.75 0 0 2.35664 0 1
2.71 2.87 -2.25 0 0 -2.48158 0 1
3.23 2.2 -2.25 0 0 -0.588552 0 1
2.71 3.75 -2.25 0 0 -4.71239 0 1
3.07109 4.42 -2.25 0 0 -1.64225 0 1
1.82 3.75 -2.25 0 0 -4.63923 0 1
0.930156 4.42 -2.25 0 0 -2.35724 0 1
1.51656 -0.39 -2.25 0 0 -0.322787 0 1
0.63 4.12047 -2.25 0 0 -2.35515 0 1
0.63 3.0875 -2.25 0 0 -2.89197 0 1
1.51656 -0.39 -2.25 0 0 -0.714557 0 1
1.82 -0.087969 -2.25 0 0 -2.35387 0 1
1.82 3.75 -2.25 0 0 -0.0731632 0 1
1.82 2.2 -2.25 0 0 -1.5708 0 1
1.82 2.87 -2.25 0 0 -1.5708 0 1
3.23 2.2 -2.25 0 0 -0.910787 0 1
2.71 2.87 -2.25 0 0 -2.23081 0 1
0.412031 -0.39 -2.25 0 0 -2.35749 0 1
1.51656 -0.39 -2.25 0 0 -1.32117 0 1
0.63 3.0875 -2.25 0 0 -1.03457 0 1
0.11 2.56703 -2.25 0 0 -2.35665 0 1
0.11 -0.08875 -2.25 0 0 -2.3549 0 1
3.23 2.2 -2.25 0 0 -3.21305 0 1
3.23 -0.39 -2.25 0 0 -1.5708 0 1
3.9 -0.39 -2.25 0 0 -1.42231 0 1
3.38 3.08625 -2.25 0 0 -3.29008 0 1
3.38 4.11141 -2.25 0 0 -2.35569 0 1
3.07109 4.42 -2.25 0 0 -0.714446 0 1
3.38 3.08625 -2.25 0 0 -0.636463 0 1
3.9 -0.39 -2.25 0 0 -0.148485 0 1
3.9 2.56578 -2.25 0 0 -2.35664 0 1
3 0 2 1 
3 0 3 2 
3 4 6 5 
3 4 7 6 
3 8 10 9 
3 8 11 10 
3 12 14 13 
3 12 15 14 
3 16 18 17 
3 16 19 18 
3 20 22 21 
3 20 23 22 
3 24 26 25 
3 24 27 26 
3 28 30 29 
3 28 31 30 
3 32 34 33 
3 32 35 34 
3 36 38 37 
3 36 39 38 
3 40 42 41 
3 40 43 42 
3 44 46 45 
3 44 47 46 
3 48 50 49 
3 48 51 50 
3 52 54 53 
3 52 55 54 
3 56 58 57 
3 56 59 58 
3 60 62 61 
3 60 63 62 
3 64 66 65 
3 64 67 66 
3 68 70 69 
3 68 71 70 
3 72 74 73 
3 72 75 74 
3 76 78 77 
3 76 79 78 
3 80 81 82 
3 82 81 83 
3 82 83 84 
3 84 83 85 
3 84 85 86 
3 86 85 87 
3 86 87 88 
3 89 90 91 
3 91 90 92 
3 91 92 93 
3 93 92 94 
3 93 94 95 
3 96 97 98 
3 96 98 99 
3 96 99 100 
3 101 102 103 
3 101 103 104 
3 101 104 105 
3 101 105 106 
3 107 108 109 
3 110 112 111 
3 112 113 111 
3 112 114 113 
3 114 115 113 
3 114 116 115 
3 116 117 115 
3 116 118 117 
3 119 121 120 
3 121 122 120 
3 121 123 122 
3 123 124 122 
3 123 125 124 
3 126 128 127 
3 126 129 128 
3 126 130 129 
3 131 133 132 
3 131 134 133 
3 131 135 134 
3 131 136 135 
3 137 139 138 
