ply
format ascii 1.0
comment VCGLIB generated
element vertex 130
property float x
property float y
property float z
property float nx
property float ny
property float nz
property float texture_u
property float texture_v
element face 72
property list uchar int vertex_indices
end_header
0.18 4.08031 -0.75 -1.11168 1.10976 0 0 1
0.18 4.08031 -2.25 -1.11168 1.10976 0 0 1
0.449219 4.35 -2.25 -1.11168 1.10976 0 0 1
0.449219 4.35 -0.75 -1.11168 1.10976 0 0 1
0.449219 4.35 -0.75 0 1.5708 0 0 1
0.449219 4.35 -2.25 0 1.5708 0 0 1
3.87063 4.35 -2.25 0 1.5708 0 0 1
3.87063 4.35 -0.75 0 1.5708 0 0 1
3.87063 4.35 -0.75 1.5708 0 0 0 1
3.87063 4.35 -2.25 1.5708 0 0 0 1
3.87063 3.82 -2.25 1.5708 0 0 0 1
3.87063 3.82 -0.75 1.5708 0 0 0 1
3.87063 3.82 -0.75 0 -1.5708 0 0 1
3.87063 3.82 -2.25 0 -1.5708 0 0 1
1.24 3.82 -2.25 0 -1.5708 0 0 1
1.24 3.82 -0.75 0 -1.5708 0 0 1
1.24 3.82 -0.75 1.5708 0 0 0 1
1.24 3.82 -2.25 1.5708 0 0 0 1
1.24 2.77 -2.25 1.5708 0 0 0 1
1.24 2.77 -0.75 1.5708 0 0 0 1
1.24 2.77 -0.75 0 1.5708 0 0 1
1.24 2.77 -2.25 0 1.5708 0 0 1
3.60922 2.77 -2.25 0 1.5708 0 0 1
3.60922 2.77 -0.75 0 1.5708 0 0 1
3.60922 2.77 -0.75 1.11072 1.11072 0 0 1
3.60922 2.77 -2.25 1.11072 1.11072 0 0 1
3.87859 2.50062 -2.25 1.11072 1.11072 0 0 1
3.87859 2.50062 -0.75 1.11072 1.11072 0 0 1
3.87859 2.50062 -0.75 1.5708 0 0 0 1
3.87859 2.50062 -2.25 1.5708 0 0 0 1
3.87859 -0.130625 -2.25 1.5708 0 0 0 1
3.87859 -0.130625 -0.75 1.5708 0 0 0 1
3.87859 -0.130625 -0.75 1.11104 -1.1104 0 0 1
3.87859 -0.130625 -2.25 1.11104 -1.1104 0 0 1
3.60938 -0.4 -2.25 1.11104 -1.1104 0 0 1
3.60938 -0.4 -0.75 1.11104 -1.1104 0 0 1
3.60938 -0.4 -0.75 0 -1.5708 0 0 1
3.60938 -0.4 -2.25 0 -1.5708 0 0 1
0.449219 -0.4 -2.25 0 -1.5708 0 0 1
0.449219 -0.4 -0.75 0 -1.5708 0 0 1
0.449219 -0.4 -0.75 -1.10943 -1.11201 0 0 1
0.449219 -0.4 -2.25 -1.10943 -1.11201 0 0 1
0.18 -0.131406 -2.25 -1.10943 -1.11201 0 0 1
0.18 -0.131406 -0.75 -1.10943 -1.11201 0 0 1
0.18 -0.131406 -0.75 -1.5708 0 0 0 1
0.18 -0.131406 -2.25 -1.5708 0 0 0 1
0.18 1.18 -2.25 -1.5708 0 0 0 1
0.18 1.18 -0.75 -1.5708 0 0 0 1
0.18 1.18 -0.75 0 1.5708 0 0 1
0.18 1.18 -2.25 0 1.5708 0 0 1
0.7 1.18 -2.25 0 1.5708 0 0 1
0.7 1.18 -0.75 0 1.5708 0 0 1
0.7 1.18 -0.75 1.5708 0 0 0 1
0.7 1.18 -2.25 1.5708 0 0 0 1
0.7 0.13 -2.25 1.5708 0 0 0 1
0.7 0.13 -0.75 1.5708 0 0 0 1
0.7 0.13 -0.75 0 1.5708 0 0 1
0.7 0.13 -2.25 0 1.5708 0 0 1
2.28 0.13 -2.25 0 1.5708 0 0 1
2.28 0.13 -0.75 0 1.5708 0 0 1
2.28 0.13 -0.75 -1.5708 0 0 0 1
2.28 0.13 -2.25 -1.5708 0 0 0 1
2.28 2.24 -2.25 -1.5708 0 0 0 1
2.28 2.24 -0.75 -1.5708 0 0 0 1
2.28 2.24 -0.75 0 -1.5708 0 0 1
2.28 2.24 -2.25 0 -1.5708 0 0 1
0.448437 2.24 -2.25 0 -1.5708 0 0 1
0.448437 2.24 -0.75 0 -1.5708 0 0 1
0.448437 2.24 -0.75 -1.1133 -1.10814 0 0 1
0.448437 2.24 -2.25 -1.1133 -1.10814 0 0 1
0.18 2.50969 -2.25 -1.1133 -1.10814 0 0 1
0.18 2.50969 -0.75 -1.1133 -1.10814 0 0 1
0.18 2.50969 -0.75 -1.5708 0 0 0 1
0.18 2.50969 -2.25 -1.5708 0 0 0 1
0.18 4.08031 -2.25 -1.5708 0 0 0 1
0.18 4.08031 -0.75 -1.5708 0 0 0 1
2.28 2.24 -0.75 0 0 0.466484 0 1
2.28 0.13 -0.75 0 0 4.71239 0 1
3.60938 -0.4 -0.75 0 0 1.10431 0 1
0.7 0.13 -0.75 0 0 4.71239 0 1
0.449219 -0.4 -0.75 0 0 1.73957 0 1
0.7 1.18 -0.75 0 0 1.5708 0 1
0.18 1.18 -0.75 0 0 1.40203 0 1
3.87859 -0.130625 -0.75 0 0 2.35648 0 1
3.87859 2.50062 -0.75 0 0 2.3562 0 1
3.60938 -0.4 -0.75 0 0 1.25159 0 1
3.60922 2.77 -0.75 0 0 2.35619 0 1
2.28 2.24 -0.75 0 0 4.2459 0 1
1.24 2.77 -0.75 0 0 4.24835 0 1
0.448437 2.24 -0.75 0 0 1.71564 0 1
0.449219 4.35 -0.75 0 0 1.24857 0 1
0.18 4.08031 -0.75 0 0 2.21222 0 1
1.24 3.82 -0.75 0 0 4.71239 0 1
3.87063 3.82 -0.75 0 0 1.5708 0 1
3.87063 4.35 -0.75 0 0 1.5708 0 1
0.449219 4.35 -0.75 0 0 1.10675 0 1
1.24 2.77 -0.75 0 0 0.464043 0 1
0.448437 2.24 -0.75 0 0 0.638232 0 1
0.18 4.08031 -0.75 0 0 0.144843 0 1
0.18 2.50969 -0.75 0 0 2.35852 0 1
0.449219 -0.4 -0.75 0 0 0.617789 0 1
0.18 1.18 -0.75 0 0 0.168771 0 1
0.18 -0.131406 -0.75 0 0 2.35503 0 1
2.28 2.24 -2.25 0 0 -0.466484 0 1
2.28 0.13 -2.25 0 0 -4.71239 0 1
3.60938 -0.4 -2.25 0 0 -1.10431 0 1
0.7 0.13 -2.25 0 0 -4.71239 0 1
0.449219 -0.4 -2.25 0 0 -1.73957 0 1
0.7 1.18 -2.25 0 0 -1.5708 0 1
0.18 1.18 -2.25 0 0 -1.40203 0 1
3.87859 -0.130625 -2.25 0 0 -2.35648 0 1
3.87859 2.50062 -2.25 0 0 -2.3562 0 1
3.60938 -0.4 -2.25 0 0 -1.25159 0 1
3.60922 2.77 -2.25 0 0 -2.35619 0 1
2.28 2.24 -2.25 0 0 -4.2459 0 1
1.24 2.77 -2.25 0 0 -4.24835 0 1
0.448437 2.24 -2.25 0 0 -1.71564 0 1
0.449219 4.35 -2.25 0 0 -1.24857 0 1
0.18 4.08031 -2.25 0 0 -2.21222 0 1
1.24 3.82 -2.25 0 0 -4.71239 0 1
3.87063 3.82 -2.25 0 0 -1.5708 0 1
3.87063 4.35 -2.25 0 0 -1.5708 0 1
0.449219 4.35 -2.25 0 0 -1.10675 0 1
1.24 2.77 -2.25 0 0 -0.464043 0 1
0.448437 2.24 -2.25 0 0 -0.638232 0 1
0.18 4.08031 -2.25 0 0 -0.144843 0 1
0.18 2.50969 -2.25 0 0 -2.35852 0 1
0.449219 -0.4 -2.25 0 0 -0.617789 0 1
0.18 1.18 -2.25 0 0 -0.168771 0 1
0.18 -0.131406 -2.25 0 0 -2.35503 0 1
3 0 2 1 
3 0 3 2 
3 4 6 5 
3 4 7 6 
3 8 10 9 
3 8 11 10 
3 12 14 13 
3 12 15 14 
3 16 18 17 
3 16 19 18 
3 20 22 21 
3 20 23 22 
3 24 26 25 
3 24 27 26 
3 28 30 29 
3 28 31 30 
3 32 34 33 
3 32 35 34 
3 36 38 37 
3 36 39 38 
3 40 42 41 
3 40 43 42 
3 44 46 45 
3 44 47 46 
3 48 50 49 
3 48 51 50 
3 52 54 53 
3 52 55 54 
3 56 58 57 
3 56 59 58 
3 60 62 61 
3 60 63 62 
3 64 66 65 
3 64 67 66 
3 68 70 69 
3 68 71 70 
3 72 74 73 
3 72 75 74 
3 76 77 78 
3 78 77 79 
3 78 79 80 
3 80 79 81 
3 80 81 82 
3 83 84 85 
3 85 84 86 
3 85 86 87 
3 87 86 88 
3 87 88 89 
3 89 88 90 
3 89 90 91 
3 92 93 94 
3 92 94 95 
3 92 95 96 
3 97 98 99 
3 100 101 102 
3 103 105 104 
3 105 106 104 
3 105 107 106 
3 107 108 106 
3 107 109 108 
3 110 112 111 
3 112 113 111 
3 112 114 113 
3 114 115 113 
3 114 116 115 
3 116 117 115 
3 116 118 117 
3 119 121 120 
3 119 122 121 
3 119 123 122 
3 124 126 125 
3 127 129 128 
