ply
format ascii 1.0
comment VCGLIB generated
element vertex 128
property float x
property float y
property float z
property float nx
property float ny
property float nz
property float texture_u
property float texture_v
element face 76
property list uchar int vertex_indices
end_header
2.84 3.84 -0.75 -1.5708 0 0 0 1
2.84 3.84 -2.25 -1.5708 0 0 0 1
2.84 2.78 -2.25 -1.5708 0 0 0 1
2.84 2.78 -0.75 -1.5708 0 0 0 1
2.84 2.78 -0.75 0 1.5708 0 0 1
2.84 2.78 -2.25 0 1.5708 0 0 1
1.24 2.78 -2.25 0 1.5708 0 0 1
1.24 2.78 -0.75 0 1.5708 0 0 1
1.24 2.78 -0.75 1.5708 0 0 0 1
1.24 2.78 -2.25 1.5708 0 0 0 1
1.24 3.84 -2.25 1.5708 0 0 0 1
1.24 3.84 -0.75 1.5708 0 0 0 1
1.24 3.84 -0.75 0 -1.5708 0 0 1
1.24 3.84 -2.25 0 -1.5708 0 0 1
2.84 3.84 -2.25 0 -1.5708 0 0 1
2.84 3.84 -0.75 0 -1.5708 0 0 1
3.37 0.13 -0.75 0 1.5708 0 0 1
3.37 0.13 -2.25 0 1.5708 0 0 1
1.77 0.13 -2.25 0 1.5708 0 0 1
1.77 0.13 -0.75 0 1.5708 0 0 1
1.77 0.13 -0.75 1.5708 0 0 0 1
1.77 0.13 -2.25 1.5708 0 0 0 1
1.77 2.26 -2.25 1.5708 0 0 0 1
1.77 2.26 -0.75 1.5708 0 0 0 1
1.77 2.26 -0.75 0 -1.5708 0 0 1
1.77 2.26 -2.25 0 -1.5708 0 0 1
3.37 2.26 -2.25 0 -1.5708 0 0 1
3.37 2.26 -0.75 0 -1.5708 0 0 1
3.37 2.26 -0.75 -1.5708 0 0 0 1
3.37 2.26 -2.25 -1.5708 0 0 0 1
3.37 0.13 -2.25 -1.5708 0 0 0 1
3.37 0.13 -0.75 -1.5708 0 0 0 1
3.88 2.50547 -0.75 1.12408 1.09719 0 0 1
3.88 2.50547 -2.25 1.12408 1.09719 0 0 1
3.37 3.02797 -2.25 1.12408 1.09719 0 0 1
3.37 3.02797 -0.75 1.12408 1.09719 0 0 1
3.37 3.02797 -0.75 1.5708 0 0 0 1
3.37 3.02797 -2.25 1.5708 0 0 0 1
3.37 4.08078 -2.25 1.5708 0 0 0 1
3.37 4.08078 -0.75 1.5708 0 0 0 1
3.37 4.08078 -0.75 1.10976 1.11168 0 0 1
3.37 4.08078 -2.25 1.10976 1.11168 0 0 1
3.10031 4.35 -2.25 1.10976 1.11168 0 0 1
3.10031 4.35 -0.75 1.10976 1.11168 0 0 1
3.10031 4.35 -0.75 0 1.5708 0 0 1
3.10031 4.35 -2.25 0 1.5708 0 0 1
0.459687 4.35 -2.25 0 1.5708 0 0 1
0.459687 4.35 -0.75 0 1.5708 0 0 1
0.459687 4.35 -0.75 -1.10976 1.11169 0 0 1
0.459687 4.35 -2.25 -1.10976 1.11169 0 0 1
0.19 4.08078 -2.25 -1.10976 1.11169 0 0 1
0.19 4.08078 -0.75 -1.10976 1.11169 0 0 1
0.19 4.08078 -0.75 -1.5708 0 0 0 1
0.19 4.08078 -2.25 -1.5708 0 0 0 1
0.19 -0.130781 -2.25 -1.5708 0 0 0 1
0.19 -0.130781 -0.75 -1.5708 0 0 0 1
0.19 -0.130781 -0.75 -1.11072 -1.11072 0 0 1
0.19 -0.130781 -2.25 -1.11072 -1.11072 0 0 1
0.459219 -0.4 -2.25 -1.11072 -1.11072 0 0 1
0.459219 -0.4 -0.75 -1.11072 -1.11072 0 0 1
0.459219 -0.4 -0.75 0 -1.5708 0 0 1
0.459219 -0.4 -2.25 0 -1.5708 0 0 1
3.61078 -0.4 -2.25 0 -1.5708 0 0 1
3.61078 -0.4 -0.75 0 -1.5708 0 0 1
3.61078 -0.4 -0.75 1.11072 -1.11072 0 0 1
3.61078 -0.4 -2.25 1.11072 -1.11072 0 0 1
3.88 -0.130781 -2.25 1.11072 -1.11072 0 0 1
3.88 -0.130781 -0.75 1.11072 -1.11072 0 0 1
3.88 -0.130781 -0.75 1.5708 0 0 0 1
3.88 -0.130781 -2.25 1.5708 0 0 0 1
3.88 2.50547 -2.25 1.5708 0 0 0 1
3.88 2.50547 -0.75 1.5708 0 0 0 1
1.24 2.78 -0.75 0 0 0.775875 0 1
1.77 2.26 -0.75 0 0 2.36572 0 1
2.84 2.78 -0.75 0 0 4.71239 0 1
3.37 2.26 -0.75 0 0 1.44247 0 1
2.84 3.84 -0.75 0 0 4.71239 0 1
3.10031 4.35 -0.75 0 0 1.69912 0 1
1.24 3.84 -0.75 0 0 4.71239 0 1
0.459687 4.35 -0.75 0 0 1.26973 0 1
1.24 2.78 -0.75 0 0 3.93651 0 1
1.77 0.13 -0.75 0 0 0.301063 0 1
1.77 2.26 -0.75 0 0 2.34667 0 1
3.61078 -0.4 -0.75 0 0 2.3562 0 1
3.88 -0.130781 -0.75 0 0 2.35619 0 1
3.88 2.50547 -0.75 0 0 2.3683 0 1
3.37 3.02797 -0.75 0 0 0.773293 0 1
3.37 2.26 -0.75 0 0 3.14159 0 1
3.37 0.13 -0.75 0 0 4.71239 0 1
1.77 0.13 -0.75 0 0 2.75735 0 1
0.459219 -0.4 -0.75 0 0 0.384241 0 1
0.459219 -0.4 -0.75 0 0 1.97195 0 1
1.77 0.13 -0.75 0 0 1.65398 0 1
0.459687 4.35 -0.75 0 0 1.08733 0 1
0.19 4.08078 -0.75 0 0 2.35533 0 1
0.19 -0.130781 -0.75 0 0 2.35619 0 1
3.37 4.08078 -0.75 0 0 2.35533 0 1
3.10031 4.35 -0.75 0 0 0.657939 0 1
3.37 2.26 -0.75 0 0 0.128328 0 1
3.37 3.02797 -0.75 0 0 0 0 1
1.24 2.78 -2.25 0 0 -0.775875 0 1
1.77 2.26 -2.25 0 0 -2.36572 0 1
2.84 2.78 -2.25 0 0 -4.71239 0 1
3.37 2.26 -2.25 0 0 -1.44247 0 1
2.84 3.84 -2.25 0 0 -4.71239 0 1
3.10031 4.35 -2.25 0 0 -1.69912 0 1
1.24 3.84 -2.25 0 0 -4.71239 0 1
0.459687 4.35 -2.25 0 0 -1.26973 0 1
1.24 2.78 -2.25 0 0 -3.93651 0 1
1.77 0.13 -2.25 0 0 -0.301063 0 1
1.77 2.26 -2.25 0 0 -2.34667 0 1
3.61078 -0.4 -2.25 0 0 -2.3562 0 1
3.88 -0.130781 -2.25 0 0 -2.35619 0 1
3.88 2.50547 -2.25 0 0 -2.3683 0 1
3.37 3.02797 -2.25 0 0 -0.773293 0 1
3.37 2.26 -2.25 0 0 -3.14159 0 1
3.37 0.13 -2.25 0 0 -4.71239 0 1
1.77 0.13 -2.25 0 0 -2.75735 0 1
0.459219 -0.4 -2.25 0 0 -0.384241 0 1
0.459219 -0.4 -2.25 0 0 -1.97195 0 1
1.77 0.13 -2.25 0 0 -1.65398 0 1
0.459687 4.35 -2.25 0 0 -1.08733 0 1
0.19 4.08078 -2.25 0 0 -2.35533 0 1
0.19 -0.130781 -2.25 0 0 -2.35619 0 1
3.37 4.08078 -2.25 0 0 -2.35533 0 1
3.10031 4.35 -2.25 0 0 -0.657939 0 1
3.37 2.26 -2.25 0 0 -0.128328 0 1
3.37 3.02797 -2.25 0 0 0 0 1
3 0 1 2 
3 0 2 3 
3 4 5 6 
3 4 6 7 
3 8 9 10 
3 8 10 11 
3 12 13 14 
3 12 14 15 
3 16 17 18 
3 16 18 19 
3 20 21 22 
3 20 22 23 
3 24 25 26 
3 24 26 27 
3 28 29 30 
3 28 30 31 
3 32 33 34 
3 32 34 35 
3 36 37 38 
3 36 38 39 
3 40 41 42 
3 40 42 43 
3 44 45 46 
3 44 46 47 
3 48 49 50 
3 48 50 51 
3 52 53 54 
3 52 54 55 
3 56 57 58 
3 56 58 59 
3 60 61 62 
3 60 62 63 
3 64 65 66 
3 64 66 67 
3 68 69 70 
3 68 70 71 
3 72 73 74 
3 74 73 75 
3 74 75 76 
3 76 75 77 
3 76 77 78 
3 78 77 79 
3 78 79 80 
3 80 79 81 
3 80 81 82 
3 83 84 85 
3 83 85 86 
3 83 86 87 
3 83 87 88 
3 83 88 89 
3 83 89 90 
3 91 92 93 
3 91 93 94 
3 91 94 95 
3 96 97 98 
3 96 98 99 
3 100 102 101 
3 102 103 101 
3 102 104 103 
3 104 105 103 
3 104 106 105 
3 106 107 105 
3 106 108 107 
3 108 109 107 
3 108 110 109 
3 111 113 112 
3 111 114 113 
3 111 115 114 
3 111 116 115 
3 111 117 116 
3 111 118 117 
3 119 121 120 
3 119 122 121 
3 119 123 122 
3 124 126 125 
3 124 127 126 
