ply
format ascii 1.0
comment VCGLIB generated
element vertex 74
property float x
property float y
property float z
property float nx
property float ny
property float nz
property float texture_u
property float texture_v
element face 40
property list uchar int vertex_indices
end_header
3.35 0.13 -0.75 1.5708 0 0 0 1
3.35 0.13 -2.25 1.5708 0 0 0 1
3.35 -0.4 -2.25 1.5708 0 0 0 1
3.35 -0.4 -0.75 1.5708 0 0 0 1
3.35 -0.4 -0.75 0 -1.5708 0 0 1
3.35 -0.4 -2.25 0 -1.5708 0 0 1
0.459219 -0.4 -2.25 0 -1.5708 0 0 1
0.459219 -0.4 -0.75 0 -1.5708 0 0 1
0.459219 -0.4 -0.75 -1.11072 -1.11072 0 0 1
0.459219 -0.4 -2.25 -1.11072 -1.11072 0 0 1
0.19 -0.130781 -2.25 -1.11072 -1.11072 0 0 1
0.19 -0.130781 -0.75 -1.11072 -1.11072 0 0 1
0.19 -0.130781 -0.75 -1.5708 0 0 0 1
0.19 -0.130781 -2.25 -1.5708 0 0 0 1
0.19 4.08078 -2.25 -1.5708 0 0 0 1
0.19 4.08078 -0.75 -1.5708 0 0 0 1
0.19 4.08078 -0.75 -1.11233 1.10911 0 0 1
0.19 4.08078 -2.25 -1.11233 1.10911 0 0 1
0.458438 4.35 -2.25 -1.11233 1.10911 0 0 1
0.458438 4.35 -0.75 -1.11233 1.10911 0 0 1
0.458438 4.35 -0.75 0 1.5708 0 0 1
0.458438 4.35 -2.25 0 1.5708 0 0 1
0.979531 4.35 -2.25 0 1.5708 0 0 1
0.979531 4.35 -0.75 0 1.5708 0 0 1
0.979531 4.35 -0.75 1.11238 1.10906 0 0 1
0.979531 4.35 -2.25 1.11238 1.10906 0 0 1
1.24 4.08875 -2.25 1.11238 1.10906 0 0 1
1.24 4.08875 -0.75 1.11238 1.10906 0 0 1
1.24 4.08875 -0.75 1.5708 0 0 0 1
1.24 4.08875 -2.25 1.5708 0 0 0 1
1.24 3.02781 -2.25 1.5708 0 0 0 1
1.24 3.02781 -0.75 1.5708 0 0 0 1
1.24 3.02781 -0.75 1.10278 1.11861 0 0 1
1.24 3.02781 -2.25 1.10278 1.11861 0 0 1
1.77 2.50531 -2.25 1.10278 1.11861 0 0 1
1.77 2.50531 -0.75 1.10278 1.11861 0 0 1
1.77 2.50531 -0.75 1.5708 0 0 0 1
1.77 2.50531 -2.25 1.5708 0 0 0 1
1.77 0.13 -2.25 1.5708 0 0 0 1
1.77 0.13 -0.75 1.5708 0 0 0 1
1.77 0.13 -0.75 0 1.5708 0 0 1
1.77 0.13 -2.25 0 1.5708 0 0 1
3.35 0.13 -2.25 0 1.5708 0 0 1
3.35 0.13 -0.75 0 1.5708 0 0 1
1.77 0.13 -0.75 0 0 4.7124 0 1
1.77 2.50531 -0.75 0 0 2.34907 0 1
1.24 3.02781 -0.75 0 0 3.7396 0 1
0.979531 4.35 -0.75 0 0 0.303621 0 1
0.459219 -0.4 -0.75 0 0 1.46169 0 1
3.35 -0.4 -0.75 0 0 1.5708 0 1
3.35 0.13 -0.75 0 0 1.5708 0 1
0.459219 -0.4 -0.75 0 0 0.894502 0 1
0.979531 4.35 -0.75 0 0 1.46169 0 1
0.458438 4.35 -0.75 0 0 2.35474 0 1
0.19 4.08078 -0.75 0 0 2.35765 0 1
0.19 -0.130781 -0.75 0 0 2.35619 0 1
1.24 4.08875 -0.75 0 0 2.35769 0 1
0.979531 4.35 -0.75 0 0 0.589393 0 1
1.24 3.02781 -0.75 0 0 0.194508 0 1
1.77 0.13 -2.25 0 0 -4.7124 0 1
1.77 2.50531 -2.25 0 0 -2.34907 0 1
1.24 3.02781 -2.25 0 0 -3.7396 0 1
0.979531 4.35 -2.25 0 0 -0.303621 0 1
0.459219 -0.4 -2.25 0 0 -1.46169 0 1
3.35 -0.4 -2.25 0 0 -1.5708 0 1
3.35 0.13 -2.25 0 0 -1.5708 0 1
0.459219 -0.4 -2.25 0 0 -0.894502 0 1
0.979531 4.35 -2.25 0 0 -1.46169 0 1
0.458438 4.35 -2.25 0 0 -2.35474 0 1
0.19 4.08078 -2.25 0 0 -2.35765 0 1
0.19 -0.130781 -2.25 0 0 -2.35619 0 1
1.24 4.08875 -2.25 0 0 -2.35769 0 1
0.979531 4.35 -2.25 0 0 -0.589393 0 1
1.24 3.02781 -2.25 0 0 -0.194508 0 1
3 0 2 1 
3 0 3 2 
3 4 6 5 
3 4 7 6 
3 8 10 9 
3 8 11 10 
3 12 14 13 
3 12 15 14 
3 16 18 17 
3 16 19 18 
3 20 22 21 
3 20 23 22 
3 24 26 25 
3 24 27 26 
3 28 30 29 
3 28 31 30 
3 32 34 33 
3 32 35 34 
3 36 38 37 
3 36 39 38 
3 40 42 41 
3 40 43 42 
3 44 45 46 
3 44 46 47 
3 44 47 48 
3 44 48 49 
3 44 49 50 
3 51 52 53 
3 51 53 54 
3 51 54 55 
3 56 57 58 
3 59 61 60 
3 59 62 61 
3 59 63 62 
3 59 64 63 
3 59 65 64 
3 66 68 67 
3 66 69 68 
3 66 70 69 
3 71 73 72 
