ply
format ascii 1.0
comment VCGLIB generated
element vertex 184
property float x
property float y
property float z
property float nx
property float ny
property float nz
property float texture_u
property float texture_v
element face 104
property list uchar int vertex_indices
end_header
0.538437 1.98 -0.75 -1.11105 -1.1104 0 0 1
0.538437 1.98 -2.25 -1.11105 -1.1104 0 0 1
0.27 2.24859 -2.25 -1.11105 -1.1104 0 0 1
0.27 2.24859 -0.75 -1.11105 -1.1104 0 0 1
0.27 2.24859 -0.75 -1.5708 0 0 0 1
0.27 2.24859 -2.25 -1.5708 0 0 0 1
0.27 4.08938 -2.25 -1.5708 0 0 0 1
0.27 4.08938 -0.75 -1.5708 0 0 0 1
0.27 4.08938 -0.75 -1.11105 1.11039 0 0 1
0.27 4.08938 -2.25 -1.11105 1.11039 0 0 1
0.530469 4.35 -2.25 -1.11105 1.11039 0 0 1
0.530469 4.35 -0.75 -1.11105 1.11039 0 0 1
0.530469 4.35 -0.75 0 1.5708 0 0 1
0.530469 4.35 -2.25 0 1.5708 0 0 1
2.36953 4.35 -2.25 0 1.5708 0 0 1
2.36953 4.35 -0.75 0 1.5708 0 0 1
2.36953 4.35 -0.75 1.11105 1.11039 0 0 1
2.36953 4.35 -2.25 1.11105 1.11039 0 0 1
2.63 4.08938 -2.25 1.11105 1.11039 0 0 1
2.63 4.08938 -0.75 1.11105 1.11039 0 0 1
2.63 4.08938 -0.75 1.5708 0 0 0 1
2.63 4.08938 -2.25 1.5708 0 0 0 1
2.63 2.23281 -2.25 1.5708 0 0 0 1
2.63 2.23281 -0.75 1.5708 0 0 0 1
2.63 2.23281 -0.75 1.11141 -1.11003 0 0 1
2.63 2.23281 -2.25 1.11141 -1.11003 0 0 1
2.3775 1.98 -2.25 1.11141 -1.11003 0 0 1
2.3775 1.98 -0.75 1.11141 -1.11003 0 0 1
2.3775 1.98 -0.75 0 -1.5708 0 0 1
2.3775 1.98 -2.25 0 -1.5708 0 0 1
0.538437 1.98 -2.25 0 -1.5708 0 0 1
0.538437 1.98 -0.75 0 -1.5708 0 0 1
2.38 4.09 -0.75 0 -1.5708 0 0 1
2.38 4.09 -2.25 0 -1.5708 0 0 1
0.54 4.09 -2.25 0 -1.5708 0 0 1
0.54 4.09 -0.75 0 -1.5708 0 0 1
0.54 4.09 -0.75 1.5708 0 0 0 1
0.54 4.09 -2.25 1.5708 0 0 0 1
0.54 2.25 -2.25 1.5708 0 0 0 1
0.54 2.25 -0.75 1.5708 0 0 0 1
0.54 2.25 -0.75 0 1.5708 0 0 1
0.54 2.25 -2.25 0 1.5708 0 0 1
2.38 2.25 -2.25 0 1.5708 0 0 1
2.38 2.25 -0.75 0 1.5708 0 0 1
2.38 2.25 -0.75 -1.5708 0 0 0 1
2.38 2.25 -2.25 -1.5708 0 0 0 1
2.38 4.09 -2.25 -1.5708 0 0 0 1
2.38 4.09 -0.75 -1.5708 0 0 0 1
1.85 3.82 -0.75 0 -1.5708 0 0 1
1.85 3.82 -2.25 0 -1.5708 0 0 1
0.79 3.82 -2.25 0 -1.5708 0 0 1
0.79 3.82 -0.75 0 -1.5708 0 0 1
0.79 3.82 -0.75 1.5708 0 0 0 1
0.79 3.82 -2.25 1.5708 0 0 0 1
0.79 2.51 -2.25 1.5708 0 0 0 1
0.79 2.51 -0.75 1.5708 0 0 0 1
0.79 2.51 -0.75 0 1.5708 0 0 1
0.79 2.51 -2.25 0 1.5708 0 0 1
1.32 2.51 -2.25 0 1.5708 0 0 1
1.32 2.51 -0.75 0 1.5708 0 0 1
1.32 2.51 -0.75 -1.5708 0 0 0 1
1.32 2.51 -2.25 -1.5708 0 0 0 1
1.32 3.04 -2.25 -1.5708 0 0 0 1
1.32 3.04 -0.75 -1.5708 0 0 0 1
1.32 3.04 -0.75 0 1.5708 0 0 1
1.32 3.04 -2.25 0 1.5708 0 0 1
1.85 3.04 -2.25 0 1.5708 0 0 1
1.85 3.04 -0.75 0 1.5708 0 0 1
1.85 3.04 -0.75 1.5708 0 0 0 1
1.85 3.04 -2.25 1.5708 0 0 0 1
1.85 2.51 -2.25 1.5708 0 0 0 1
1.85 2.51 -0.75 1.5708 0 0 0 1
1.85 2.51 -0.75 0 1.5708 0 0 1
1.85 2.51 -2.25 0 1.5708 0 0 1
2.11 2.51 -2.25 0 1.5708 0 0 1
2.11 2.51 -0.75 0 1.5708 0 0 1
2.11 2.51 -0.75 -1.5708 0 0 0 1
2.11 2.51 -2.25 -1.5708 0 0 0 1
2.11 3.29437 -2.25 -1.5708 0 0 0 1
2.11 3.29437 -0.75 -1.5708 0 0 0 1
2.11 3.29437 -0.75 -1.1248 -1.09646 0 0 1
2.11 3.29437 -2.25 -1.1248 -1.09646 0 0 1
1.85 3.56109 -2.25 -1.1248 -1.09646 0 0 1
1.85 3.56109 -0.75 -1.1248 -1.09646 0 0 1
1.85 3.56109 -0.75 -1.5708 0 0 0 1
1.85 3.56109 -2.25 -1.5708 0 0 0 1
1.85 3.82 -2.25 -1.5708 0 0 0 1
1.85 3.82 -0.75 -1.5708 0 0 0 1
1.58 3.3 -0.75 0 -1.5708 0 0 1
1.58 3.3 -2.25 0 -1.5708 0 0 1
1.32 3.3 -2.25 0 -1.5708 0 0 1
1.32 3.3 -0.75 0 -1.5708 0 0 1
1.32 3.3 -0.75 -1.5708 0 0 0 1
1.32 3.3 -2.25 -1.5708 0 0 0 1
1.32 3.56 -2.25 -1.5708 0 0 0 1
1.32 3.56 -0.75 -1.5708 0 0 0 1
1.32 3.56 -0.75 0 1.5708 0 0 1
1.32 3.56 -2.25 0 1.5708 0 0 1
1.58 3.56 -2.25 0 1.5708 0 0 1
1.58 3.56 -0.75 0 1.5708 0 0 1
1.58 3.56 -0.75 1.5708 0 0 0 1
1.58 3.56 -2.25 1.5708 0 0 0 1
1.58 3.3 -2.25 1.5708 0 0 0 1
1.58 3.3 -0.75 1.5708 0 0 0 1
2.36953 4.35 -0.75 0 0 0.141168 0 1
0.530469 4.35 -0.75 0 0 1.56744 0 1
0.54 4.09 -0.75 0 0 4.57132 0 1
0.538437 1.98 -0.75 0 0 1.5742 0 1
0.54 2.25 -0.75 0 0 4.71239 0 1
2.3775 1.98 -0.75 0 0 2.35558 0 1
2.38 2.25 -0.75 0 0 4.71239 0 1
2.63 2.23281 -0.75 0 0 2.35681 0 1
2.38 4.09 -0.75 0 0 3.18184 0 1
2.63 4.08938 -0.75 0 0 2.35649 0 1
2.36953 4.35 -0.75 0 0 0.744855 0 1
0.27 4.08938 -0.75 0 0 2.35649 0 1
0.27 2.24859 -0.75 0 0 2.35649 0 1
0.538437 1.98 -0.75 0 0 0.781743 0 1
0.530469 4.35 -0.75 0 0 0.788461 0 1
1.32 3.56 -0.75 0 0 0.456072 0 1
1.58 3.56 -0.75 0 0 4.23348 0 1
1.85 3.82 -0.75 0 0 1.11472 0 1
1.85 3.04 -0.75 0 0 3.16443 0 1
1.85 3.56109 -0.75 0 0 0.772642 0 1
2.11 2.51 -0.75 0 0 0.456071 0 1
2.11 3.29437 -0.75 0 0 2.36895 0 1
1.58 3.56 -0.75 0 0 0.478914 0 1
1.58 3.3 -0.75 0 0 4.71239 0 1
1.85 3.04 -0.75 0 0 1.09188 0 1
1.32 3.3 -0.75 0 0 1.5708 0 1
1.32 3.04 -0.75 0 0 1.5708 0 1
1.32 3.56 -0.75 0 0 2.02687 0 1
1.32 2.51 -0.75 0 0 1.5708 0 1
0.79 3.82 -0.75 0 0 1.11472 0 1
0.79 2.51 -0.75 0 0 1.5708 0 1
0.79 3.82 -0.75 0 0 0.456072 0 1
1.32 3.56 -0.75 0 0 2.22945 0 1
1.85 3.82 -0.75 0 0 0.456072 0 1
2.11 2.51 -0.75 0 0 1.11472 0 1
1.85 3.04 -0.75 0 0 0.456072 0 1
1.85 2.51 -0.75 0 0 1.5708 0 1
2.36953 4.35 -0.75 0 0 1.46987 0 1
0.54 4.09 -0.75 0 0 0.141168 0 1
2.38 4.09 -0.75 0 0 1.53055 0 1
2.36953 4.35 -2.25 0 0 -0.141168 0 1
0.530469 4.35 -2.25 0 0 -1.56744 0 1
0.54 4.09 -2.25 0 0 -4.57132 0 1
0.538437 1.98 -2.25 0 0 -1.5742 0 1
0.54 2.25 -2.25 0 0 -4.71239 0 1
2.3775 1.98 -2.25 0 0 -2.35558 0 1
2.38 2.25 -2.25 0 0 -4.71239 0 1
2.63 2.23281 -2.25 0 0 -2.35681 0 1
2.38 4.09 -2.25 0 0 -3.18184 0 1
2.63 4.08938 -2.25 0 0 -2.35649 0 1
2.36953 4.35 -2.25 0 0 -0.744855 0 1
0.27 4.08938 -2.25 0 0 -2.35649 0 1
0.27 2.24859 -2.25 0 0 -2.35649 0 1
0.538437 1.98 -2.25 0 0 -0.781743 0 1
0.530469 4.35 -2.25 0 0 -0.788461 0 1
1.32 3.56 -2.25 0 0 -0.456072 0 1
1.58 3.56 -2.25 0 0 -4.23348 0 1
1.85 3.82 -2.25 0 0 -1.11472 0 1
1.85 3.04 -2.25 0 0 -3.16443 0 1
1.85 3.56109 -2.25 0 0 -0.772642 0 1
2.11 2.51 -2.25 0 0 -0.456071 0 1
2.11 3.29437 -2.25 0 0 -2.36895 0 1
1.58 3.56 -2.25 0 0 -0.478914 0 1
1.58 3.3 -2.25 0 0 -4.71239 0 1
1.85 3.04 -2.25 0 0 -1.09188 0 1
1.32 3.3 -2.25 0 0 -1.5708 0 1
1.32 3.04 -2.25 0 0 -1.5708 0 1
1.32 3.56 -2.25 0 0 -2.02687 0 1
1.32 2.51 -2.25 0 0 -1.5708 0 1
0.79 3.82 -2.25 0 0 -1.11472 0 1
0.79 2.51 -2.25 0 0 -1.5708 0 1
0.79 3.82 -2.25 0 0 -0.456072 0 1
1.32 3.56 -2.25 0 0 -2.22945 0 1
1.85 3.82 -2.25 0 0 -0.456072 0 1
2.11 2.51 -2.25 0 0 -1.11472 0 1
1.85 3.04 -2.25 0 0 -0.456072 0 1
1.85 2.51 -2.25 0 0 -1.5708 0 1
2.36953 4.35 -2.25 0 0 -1.46987 0 1
0.54 4.09 -2.25 0 0 -0.141168 0 1
2.38 4.09 -2.25 0 0 -1.53055 0 1
3 0 2 1 
3 0 3 2 
3 4 6 5 
3 4 7 6 
3 8 10 9 
3 8 11 10 
3 12 14 13 
3 12 15 14 
3 16 18 17 
3 16 19 18 
3 20 22 21 
3 20 23 22 
3 24 26 25 
3 24 27 26 
3 28 30 29 
3 28 31 30 
3 32 34 33 
3 32 35 34 
3 36 38 37 
3 36 39 38 
3 40 42 41 
3 40 43 42 
3 44 46 45 
3 44 47 46 
3 48 50 49 
3 48 51 50 
3 52 54 53 
3 52 55 54 
3 56 58 57 
3 56 59 58 
3 60 62 61 
3 60 63 62 
3 64 66 65 
3 64 67 66 
3 68 70 69 
3 68 71 70 
3 72 74 73 
3 72 75 74 
3 76 78 77 
3 76 79 78 
3 80 82 81 
3 80 83 82 
3 84 86 85 
3 84 87 86 
3 88 90 89 
3 88 91 90 
3 92 94 93 
3 92 95 94 
3 96 98 97 
3 96 99 98 
3 100 102 101 
3 100 103 102 
3 104 105 106 
3 106 105 107 
3 106 107 108 
3 108 107 109 
3 108 109 110 
3 110 109 111 
3 110 111 112 
3 112 111 113 
3 112 113 114 
3 115 116 117 
3 115 117 118 
3 119 120 121 
3 121 120 122 
3 121 122 123 
3 123 122 124 
3 123 124 125 
3 126 127 128 
3 128 127 129 
3 128 129 130 
3 130 129 131 
3 130 131 132 
3 132 131 133 
3 132 133 134 
3 135 136 137 
3 138 139 140 
3 141 142 143 
3 144 146 145 
3 146 147 145 
3 146 148 147 
3 148 149 147 
3 148 150 149 
3 150 151 149 
3 150 152 151 
3 152 153 151 
3 152 154 153 
3 155 157 156 
3 155 158 157 
3 159 161 160 
3 161 162 160 
3 161 163 162 
3 163 164 162 
3 163 165 164 
3 166 168 167 
3 168 169 167 
3 168 170 169 
3 170 171 169 
3 170 172 171 
3 172 173 171 
3 172 174 173 
3 175 177 176 
3 178 180 179 
3 181 183 182 
