ply
format ascii 1.0
comment VCGLIB generated
element vertex 126
property float x
property float y
property float z
property float nx
property float ny
property float nz
property float texture_u
property float texture_v
element face 68
property list uchar int vertex_indices
end_header
0.85 -0.656719 -0.75 -1.11235 -1.10908 0 0 1
0.85 -0.656719 -2.25 -1.11235 -1.10908 0 0 1
0.32 -0.125156 -2.25 -1.11235 -1.10908 0 0 1
0.32 -0.125156 -0.75 -1.11235 -1.10908 0 0 1
0.32 -0.125156 -0.75 -1.5708 0 0 0 1
0.32 -0.125156 -2.25 -1.5708 0 0 0 1
0.32 3.31 -2.25 -1.5708 0 0 0 1
0.32 3.31 -0.75 -1.5708 0 0 0 1
0.32 3.31 -0.75 0 1.5708 0 0 1
0.32 3.31 -2.25 0 1.5708 0 0 1
0.84 3.31 -2.25 0 1.5708 0 0 1
0.84 3.31 -0.75 0 1.5708 0 0 1
0.84 3.31 -0.75 1.5708 0 0 0 1
0.84 3.31 -2.25 1.5708 0 0 0 1
0.84 1.98547 -2.25 1.5708 0 0 0 1
0.84 1.98547 -0.75 1.5708 0 0 0 1
0.84 1.98547 -0.75 1.10378 1.11762 0 0 1
0.84 1.98547 -2.25 1.10378 1.11762 0 0 1
1.37 1.46203 -2.25 1.10378 1.11762 0 0 1
1.37 1.46203 -0.75 1.10378 1.11762 0 0 1
1.37 1.46203 -0.75 1.5708 0 0 0 1
1.37 1.46203 -2.25 1.5708 0 0 0 1
1.37 -1.71031 -2.25 1.5708 0 0 0 1
1.37 -1.71031 -0.75 1.5708 0 0 0 1
1.37 -1.71031 -0.75 1.11265 -1.10879 0 0 1
1.37 -1.71031 -2.25 1.11265 -1.10879 0 0 1
1.10125 -1.98 -2.25 1.11265 -1.10879 0 0 1
1.10125 -1.98 -0.75 1.11265 -1.10879 0 0 1
1.10125 -1.98 -0.75 0 -1.5708 0 0 1
1.10125 -1.98 -2.25 0 -1.5708 0 0 1
0.05 -1.98 -2.25 0 -1.5708 0 0 1
0.05 -1.98 -0.75 0 -1.5708 0 0 1
0.05 -1.98 -0.75 -1.5708 0 0 0 1
0.05 -1.98 -2.25 -1.5708 0 0 0 1
0.05 -1.45 -2.25 -1.5708 0 0 0 1
0.05 -1.45 -0.75 -1.5708 0 0 0 1
0.05 -1.45 -0.75 0 1.5708 0 0 1
0.05 -1.45 -2.25 0 1.5708 0 0 1
0.85 -1.45 -2.25 0 1.5708 0 0 1
0.85 -1.45 -0.75 0 1.5708 0 0 1
0.85 -1.45 -0.75 -1.5708 0 0 0 1
0.85 -1.45 -2.25 -1.5708 0 0 0 1
0.85 -0.656719 -2.25 -1.5708 0 0 0 1
0.85 -0.656719 -0.75 -1.5708 0 0 0 1
0.796719 3.73 -0.75 0 -1.5708 0 0 1
0.796719 3.73 -2.25 0 -1.5708 0 0 1
0.283281 3.73 -2.25 0 -1.5708 0 0 1
0.283281 3.73 -0.75 0 -1.5708 0 0 1
0.283281 3.73 -0.75 -1.11626 -1.10515 0 0 1
0.283281 3.73 -2.25 -1.11626 -1.10515 0 0 1
0.19 3.82422 -2.25 -1.11626 -1.10515 0 0 1
0.19 3.82422 -0.75 -1.11626 -1.10515 0 0 1
0.19 3.82422 -0.75 -1.5708 0 0 0 1
0.19 3.82422 -2.25 -1.5708 0 0 0 1
0.19 4.18578 -2.25 -1.5708 0 0 0 1
0.19 4.18578 -0.75 -1.5708 0 0 0 1
0.19 4.18578 -0.75 -1.11626 1.10515 0 0 1
0.19 4.18578 -2.25 -1.11626 1.10515 0 0 1
0.283281 4.28 -2.25 -1.11626 1.10515 0 0 1
0.283281 4.28 -0.75 -1.11626 1.10515 0 0 1
0.283281 4.28 -0.75 0 1.5708 0 0 1
0.283281 4.28 -2.25 0 1.5708 0 0 1
0.796719 4.28 -2.25 0 1.5708 0 0 1
0.796719 4.28 -0.75 0 1.5708 0 0 1
0.796719 4.28 -0.75 1.11627 1.10515 0 0 1
0.796719 4.28 -2.25 1.11626 1.10515 0 0 1
0.89 4.18578 -2.25 1.11627 1.10515 0 0 1
0.89 4.18578 -0.75 1.11626 1.10515 0 0 1
0.89 4.18578 -0.75 1.5708 0 0 0 1
0.89 4.18578 -2.25 1.5708 0 0 0 1
0.89 3.82422 -2.25 1.5708 0 0 0 1
0.89 3.82422 -0.75 1.5708 0 0 0 1
0.89 3.82422 -0.75 1.11626 -1.10515 0 0 1
0.89 3.82422 -2.25 1.11626 -1.10515 0 0 1
0.796719 3.73 -2.25 1.11626 -1.10515 0 0 1
0.796719 3.73 -0.75 1.11626 -1.10515 0 0 1
1.10125 -1.98 -0.75 0 0 2.35445 0 1
1.37 -1.71031 -0.75 0 0 2.35793 0 1
1.37 1.46203 -0.75 0 0 0.240671 0 1
0.85 -0.656719 -0.75 0 0 2.90092 0 1
0.85 -1.45 -0.75 0 0 4.71239 0 1
0.05 -1.45 -0.75 0 0 1.5708 0 1
0.05 -1.98 -0.75 0 0 1.5708 0 1
0.84 1.98547 -0.75 0 0 3.93322 0 1
0.84 3.31 -0.75 0 0 1.5708 0 1
0.32 3.31 -0.75 0 0 1.43797 0 1
0.85 -0.656719 -0.75 0 0 0.373496 0 1
1.37 1.46203 -0.75 0 0 2.10929 0 1
0.19 4.18578 -0.75 0 0 2.15932 0 1
0.283281 3.73 -0.75 0 0 1.77267 0 1
0.283281 4.28 -0.75 0 0 2.35119 0 1
0.796719 3.73 -0.75 0 0 2.35119 0 1
0.796719 4.28 -0.75 0 0 2.35119 0 1
0.89 3.82422 -0.75 0 0 2.3612 0 1
0.89 4.18578 -0.75 0 0 2.3612 0 1
0.283281 3.73 -0.75 0 0 0.578521 0 1
0.19 4.18578 -0.75 0 0 0.201874 0 1
0.19 3.82422 -0.75 0 0 2.3612 0 1
0.85 -0.656719 -0.75 0 0 0.651101 0 1
0.32 3.31 -0.75 0 0 0.132825 0 1
0.32 -0.125156 -0.75 0 0 2.35767 0 1
1.10125 -1.98 -2.25 0 0 -2.35445 0 1
1.37 -1.71031 -2.25 0 0 -2.35793 0 1
1.37 1.46203 -2.25 0 0 -0.240671 0 1
0.85 -0.656719 -2.25 0 0 -2.90092 0 1
0.85 -1.45 -2.25 0 0 -4.71239 0 1
0.05 -1.45 -2.25 0 0 -1.5708 0 1
0.05 -1.98 -2.25 0 0 -1.5708 0 1
0.84 1.98547 -2.25 0 0 -3.93322 0 1
0.84 3.31 -2.25 0 0 -1.5708 0 1
0.32 3.31 -2.25 0 0 -1.43797 0 1
0.85 -0.656719 -2.25 0 0 -0.373496 0 1
1.37 1.46203 -2.25 0 0 -2.10929 0 1
0.19 4.18578 -2.25 0 0 -2.15932 0 1
0.283281 3.73 -2.25 0 0 -1.77267 0 1
0.283281 4.28 -2.25 0 0 -2.35119 0 1
0.796719 3.73 -2.25 0 0 -2.35119 0 1
0.796719 4.28 -2.25 0 0 -2.35119 0 1
0.89 3.82422 -2.25 0 0 -2.3612 0 1
0.89 4.18578 -2.25 0 0 -2.3612 0 1
0.283281 3.73 -2.25 0 0 -0.578521 0 1
0.19 4.18578 -2.25 0 0 -0.201874 0 1
0.19 3.82422 -2.25 0 0 -2.3612 0 1
0.85 -0.656719 -2.25 0 0 -0.651101 0 1
0.32 3.31 -2.25 0 0 -0.132825 0 1
0.32 -0.125156 -2.25 0 0 -2.35767 0 1
3 0 2 1 
3 0 3 2 
3 4 6 5 
3 4 7 6 
3 8 10 9 
3 8 11 10 
3 12 14 13 
3 12 15 14 
3 16 18 17 
3 16 19 18 
3 20 22 21 
3 20 23 22 
3 24 26 25 
3 24 27 26 
3 28 30 29 
3 28 31 30 
3 32 34 33 
3 32 35 34 
3 36 38 37 
3 36 39 38 
3 40 42 41 
3 40 43 42 
3 44 46 45 
3 44 47 46 
3 48 50 49 
3 48 51 50 
3 52 54 53 
3 52 55 54 
3 56 58 57 
3 56 59 58 
3 60 62 61 
3 60 63 62 
3 64 66 65 
3 64 67 66 
3 68 70 69 
3 68 71 70 
3 72 74 73 
3 72 75 74 
3 76 77 78 
3 76 78 79 
3 76 79 80 
3 76 80 81 
3 76 81 82 
3 83 84 85 
3 83 85 86 
3 83 86 87 
3 88 89 90 
3 90 89 91 
3 90 91 92 
3 92 91 93 
3 92 93 94 
3 95 96 97 
3 98 99 100 
3 101 103 102 
3 101 104 103 
3 101 105 104 
3 101 106 105 
3 101 107 106 
3 108 110 109 
3 108 111 110 
3 108 112 111 
3 113 115 114 
3 115 116 114 
3 115 117 116 
3 117 118 116 
3 117 119 118 
3 120 122 121 
3 123 125 124 
